<REAPER_PROJECT 0.1 "6.14/OSX64" 1606576565
  RIPPLE 0
  GROUPOVERRIDE 0 0 0
  AUTOXFADE 1
  ENVATTACH 1
  POOLEDENVATTACH 0
  MIXERUIFLAGS 11 48
  PEAKGAIN 1
  FEEDBACK 0
  PANLAW 1
  PROJOFFS 0 0 0
  MAXPROJLEN 0 600
  GRID 3199 8 1 8 1 0 0 0
  TIMEMODE 1 5 -1 30 0 0 -1
  VIDEO_CONFIG 0 0 256
  PANMODE 3
  CURSOR 34.59456000000343
  ZOOM 1.25791152124754 0 0
  VZOOMEX 4 0
  USE_REC_CFG 0
  RECMODE 1
  SMPTESYNC 0 30 100 40 1000 300 0 0 1 0 0
  LOOP 0
  LOOPGRAN 0 4
  RECORD_PATH "Audio Files" ""
  <RECORD_CFG
    ZXZhdxgAAA==
  >
  <APPLYFX_CFG
  >
  RENDER_FILE ""
  RENDER_PATTERN ""
  RENDER_FMT 0 2 0
  RENDER_1X 0
  RENDER_RANGE 1 0 0 18 1000
  RENDER_RESAMPLE 3 0 1
  RENDER_ADDTOPROJ 0
  RENDER_STEMS 0
  RENDER_DITHER 0
  TIMELOCKMODE 0
  TEMPOENVLOCKMODE 1
  ITEMMIX 0
  DEFPITCHMODE 589824 0
  TAKELANE 1
  SAMPLERATE 44100 0 0
  <RENDER_CFG
  >
  LOCK 1
  <METRONOME 6 2
    VOL 0.25 0.125
    FREQ 800 1600 1
    BEATLEN 4
    SAMPLES "" ""
    PATTERN 2863311530 2863311529
  >
  GLOBAL_AUTO -1
  TEMPO 120 4 4
  PLAYRATE 1 0 0.25 4
  SELECTION 0 0
  SELECTION2 0 0
  MASTERAUTOMODE 0
  MASTERTRACKHEIGHT 0 0
  MASTERPEAKCOL 16576
  MASTERMUTESOLO 0
  MASTERTRACKVIEW 0 0.6667 0.5 0.5 0 -1 0 0 0 0 -1 -1 0
  MASTERHWOUT 0 0 1 0 0 0 0 -1
  MASTER_NCH 2 2
  MASTER_VOLUME 1 0 -1 -1 1
  MASTER_FX 1
  MASTER_SEL 0
  <MASTERFXLIST
    SHOW 0
    LASTSEL 0
    DOCKED 0
    BYPASS 0 0 0
    <VST "VST: ReaEQ (Cockos)" reaeq.vst.dylib 0 "" 1919247729<56535472656571726561657100000000> ""
      cWVlcu5e7f4CAAAAAQAAAAAAAAACAAAAAAAAAAIAAAABAAAAAAAAAAIAAAAAAAAAqAAAAAEAAAAAABAA
      IQAAAAQAAAAAAAAAAQAAAAAAAAAAAFlAAAAAAAAA8D8AAAAAAAAAQAEIAAAAAQAAAAAAAAAAwHJAAAAAAAAA8D8AAAAAAAAAQAEIAAAAAQAAAAAAAAAAQI9AAAAAAAAA
      8D8AAAAAAAAAQAEBAAAAAQAAAAAAAAAAiLNAAAAAAAAA8D8AAAAAAAAAQAEBAAAAAQAAAAAAAAAAAPA/AAAAAFQCAABwAQAA
      AAAQAAAA
    >
    FLOATPOS 32 641 596 422
    FXID {2E788D78-A651-8D47-ABA6-83BBB37F348B}
    WAK 0 0
    BYPASS 0 0 0
    <AU "AU: SPAN (Voxengo)" "Voxengo: SPAN" "" 1635083896 880176950 1450733159
      6QMAAAAAAAACAAAAAQAAAAAAAAACAAAAAAAAAAIAAAABAAAAAAAAAAIAAAAAAAAA8AcAADw/eG1sIHZlcnNpb249IjEuMCIgZW5jb2Rpbmc9IlVURi04Ij8+CjwhRE9D
      VFlQRSBwbGlzdCBQVUJMSUMgIi0vL0FwcGxlLy9EVEQgUExJU1QgMS4wLy9FTiIgImh0dHA6Ly93d3cuYXBwbGUuY29tL0RURHMvUHJvcGVydHlMaXN0LTEuMC5kdGQi
      Pgo8cGxpc3QgdmVyc2lvbj0iMS4wIj4KPGRpY3Q+Cgk8a2V5PlZveFBsdWdpblN0YXRlPC9rZXk+Cgk8ZGF0YT4KCVlYQnljd2NaQUFBaEFHc0FlSnpGV010dTFEQVVU
      VXNmdzZOMHFBb0NTaDhVSko0cExTMmx3R0tDaEhoSVVCQjhRVHJqCgltYkZJNGhCbldsbzJJTEZBckZqQkFnSGk4UVA4QWF6WUl2RURmRUkvZ2V0SkhKdzRjUk9rbEVo
      VzdyWFBmZmxlMjNIMgoJYUpxMnNFb1dMMTlEVGJOaitjZUJINEsyc3U2YWxPcklNVmNzZEFVNnhxQ1puUVltTXpacDNER3hNeE9EOU1Bd2ExcjQKCTVqUjdLdEJhSHVt
      NEZGbUxRQitRVlBGUmxSYm1GWGFvYnpwMXBEdW1qVzZtZWhXRDlBaDYwdG9VSi9ZejVVUjNUYyswCglhZUJPVndIOUFRUEhaQ05wMEtUeVNvS2Y2eFdZOHpzRVpyNVBZ
      QmI2QmViQ2dNQXNEZ3JNUlZIOUVtZVlDYWFaS1dSNgoJbVBoZzZNdUlIQ04yV28vWk5Hd1ZJT0NTcWFsb1djOW1MZjdXalBpN0VyMFB4enpDamw1dm00NkRyR0ErMThE
      TVNZVm4KCVNYeHkvcXNKL3JZNC8vZjUvTFAzcmVVb0F3RWI1U0Jnb3l3RWJKU0hnSTB5RWJCTE8yUHNwVjBoMjlkbDUyWjN4L201CglQWEgrL0ZDY245OGI1eGVHNC95
      RmFweGY1THlxRkppTHpDL21DN1BQYkRJN3crRzBqU1lUQTBYZ1F4RnNRUCswT2lVaAoJTXJ0Y3BMTEkvY1FMMktaQVlZOXVWY0FjbDcrQTh6L3hiUU1pNStFLzBkVGJo
      Z0F0WTZiR1luN1JObG5UVGN2aXk0WGUKCWd1RlRDdThrQWRXK3pPckZCbmw5RFRzTmtLTjRBMTJIdmduSlFCS1YxTnJMVmI1NkdVUTgrOHc0eExTVHhvTjdWNWRuCgky
      cmlCZEJ2NXlLTTZiUEkrdlFHREoyUXpXWEJWRlBzRk81Q1hycGp1cjd2b1RXb21VNkdpemtwQ2Z4bTBPRGZVUlhVZAoJMnk3eGZMMU9MT0s5N1ZITmpRUlArdDZ2Slo5
      a05mSnR2R3IwUzVnOFdENldCMXNwZ0swV3dJNFd3QjRzZ0QyeUpaYXQKCTBGZ3lPazREZVphNXJuY1AzSGRhMmdwVkNHeDM3VTBsL1BlOWpzMjNEOVBDTFdlMnNiSU1t
      QmxsRUdsU3FsVjZWR1hWCgk4VEhvTU9sZEFKM0xiNWFMcWV4T3F1eXV0bnhzbzQ4QTBmTmJEWVFVV1RQS29LY1ZjYXhZcFA2d3V5OS9BZFJzN2xEKwoJeW1WSE0ycVVR
      YXV5MHNDVVhVdUtaU1VVMnU2MWRFUVJSeE5iMW5zWVA1MDdDQ2FSSGNGbXJReGF0UzZiSG5xa3QzR3IKCS9Wa3JzaTRqc2N4WVh2d3l5cUNudG9yRkltdWZ0Q0k3RzVm
      S3pzcUNVUWF0eWdyMEIxZmt5WjRpV1luRWVDejhpMVc4CglqYkpiUnZnN29WZnUyaUYzOWNsZC9YTFhnTncxS0hkVjVDN1JWKzRROTRLYjV2WkVJenkyQ2NVOGttYVRJ
      djgySU03bQoJbnNSQTVsL1BHN0xLam4yMzJNNFdDbVZYNE85YUdiVHF2UEZNcDRXNks3elllZk5YTGkyYW44OWY2N1h4YjdVeWFOVjYKCUNyeUNSVjVzbDR2RTBtSVoy
      ZjM5cS9GMHFsWUdyWXFGb25yd1U2OVlMSkhZZHArZnF0VUNUckdyV2JIVkVncGx4MUV4Cgl5cURIVlhGWXhFVWZBSEFtZnhSTUpEdUdFYU1NV2xsWE5pRitHenV0Z25Y
      RnhiYTdybFRmWmF3K2luMlgvWTgvQktxVAoJSy9nUlUremtDbVJVSjljK3dTSklJdDFGNWtOMkM1N01OQkxCc3ZWdTF0aWZTdGREY0c1MlB6K1kyNGNralFKQVBQT1QK
      CUxlWFQ0QStBOFVTSQoJPC9kYXRhPgoJPGtleT5kYXRhPC9rZXk+Cgk8ZGF0YT4KCUFBQUFBQUFBQUFBQUFBQUNBQUFBQUFBQUFBQUFBQUFCQUFBQUFBPT0KCTwvZGF0
      YT4KCTxrZXk+bWFudWZhY3R1cmVyPC9rZXk+Cgk8aW50ZWdlcj4xNDUwNzMzMTU5PC9pbnRlZ2VyPgoJPGtleT5uYW1lPC9rZXk+Cgk8c3RyaW5nPlVudGl0bGVkPC9z
      dHJpbmc+Cgk8a2V5PnN1YnR5cGU8L2tleT4KCTxpbnRlZ2VyPjg4MDE3Njk1MDwvaW50ZWdlcj4KCTxrZXk+dHlwZTwva2V5PgoJPGludGVnZXI+MTYzNTA4Mzg5Njwv
      aW50ZWdlcj4KCTxrZXk+dmVyc2lvbjwva2V5PgoJPGludGVnZXI+MDwvaW50ZWdlcj4KPC9kaWN0Pgo8L3BsaXN0PgoBAAAAAAAAAAAA
    >
    FLOATPOS 64 426 850 605
    FXID {53A8D471-21FC-B04D-AE50-5AF95C5C44F0}
    WAK 0 0
  >
  <MASTERPLAYSPEEDENV
    EGUID {B5607DCC-1AD0-1248-9A2F-AB9C27EFFF05}
    ACT 0 -1
    VIS 0 1 1
    LANEHEIGHT 0 0
    ARM 0
    DEFSHAPE 0 -1 -1
  >
  <TEMPOENVEX
    EGUID {05919879-AF6E-A145-9033-2F0CC9114640}
    ACT 1 -1
    VIS 1 0 1
    LANEHEIGHT 0 0
    ARM 0
    DEFSHAPE 1 -1 -1
    PT 0.000000000000 111.0001110001 1 262148 0 1
  >
  <PROJBAY
  >
  <TRACK {07CDD064-1E64-7242-BA1E-285D30E9E0A6}
    NAME "germ-x hand sanitizer"
    PEAKCOL 16576
    BEAT -1
    AUTOMODE 0
    VOLPAN 1 0 -1 -1 1
    MUTESOLO 0 0 0
    IPHASE 0
    PLAYOFFS 0 1
    ISBUS 0 0
    BUSCOMP 0 0 0 0 0
    SHOWINMIX 1 0.6667 0.5 1 0.5 0 -1 0
    FREEMODE 0
    SEL 0
    REC 0 0 1 0 0 0 0
    VU 2
    TRACKHEIGHT 0 0 0 0 -1 0
    INQ 0 0 0 0.5 100 0 0 100
    NCHAN 2
    FX 1
    TRACKID {07CDD064-1E64-7242-BA1E-285D30E9E0A6}
    PERF 0
    MIDIOUT -1
    MAINSEND 1 0
    <FXCHAIN
      SHOW 0
      LASTSEL 0
      DOCKED 0
      BYPASS 0 0 0
      <VST "VSTi: FM8 (Native Instruments GmbH)" FM8.vst 0 "" 1315530296<5653544E696638666D38000000000000> ""
        OGZpTu5e7f4AAAAAAgAAAAEAAAAAAAAAAgAAAAAAAAAYBwAAAQAAAAAAEAA=
        GAcAAAAAAAABAAAAaHNpbgEAAAAAAAAAN455D8DDx0mHoN4j0l/0WZYAAAAAAAAARFNJTnYAAAABAAAASAAAAAAAAABEU0lOagAAAAEAAAAYAAAAAAAAAERTSU4BAAAA
        AQAAAAEAAAABAAAAAQAAAAEAAAAAAAAAAAAAAAAAAAANYmWFAQAAAAhwEAAAAAAAAQAAAAEAAAAAAAAAAAAAAAAAAAADAAAAMAAwADAAAAAAAAAAAAAAAAAAAAAAAAEA
        AAABAAAAAAAAAERTSU5lAAAARgYAAAAAAAABAAAAaHNpbgEAAAAAAAAAMOH4NwAUwEaoogAOyNUgkW0AAAAAAAAARFNJTmUAAAABAAAANAAAAAAAAABEU0lOagAAAAEA
        AAAYAAAAAAAAAERTSU4BAAAAAQAAAAEAAAABAAAAAgAAAAEAAAAACAAAAAEAAAAKAAAAMQAuADIALgAwAC4AMQAwADEAMAABAAAAAwAAAAAAAABEU0lObAAAAKgBAAAA
        AAAAAQAAAGhzaW4BAAAAAAAAACA7190CLVtKvWPIjKqbw/t4AQAAAAAAAERTSU5sAAAAAQAAABgAAAAAAAAARFNJTgEAAAABAAAAAQAAAAEAAAACAAAAAQAAAAAAAAAI
        AAAATgBlAHcAUwBvAHUAbgBkAAcAAABuAG8AdAAgAHMAZQB0AAAAAAAAAAAAAAAAAAAAAAAAAAAAAAAAAAAAAAAAAAAAAAAAAAEAAAABAAAAAQAAAAMAAABGAE0AOAAA
        AAAAAAAAAAcAAAAHAAAAXABAAGMAbwBsAG8AcgABAAAAMAARAAAAXABAAGQAZQB2AGkAYwBlAHQAeQBwAGUAZgBsAGEAZwBzAAEAAAAxAAsAAABcAEAAcwBvAHUAbgBk
        AHQAeQBwAGUAAQAAADAABwAAAFwAQAB0AGUAbQBwAG8AAQAAADAABgAAAFwAQAB2AGUAcgBsAAUAAAAxAC4ANwAuADgABgAAAFwAQAB2AGUAcgBtAAUAAAAxAC4ANwAu
        ADgABwAAAFwAQAB2AGkAcwBpAGIAAQAAADAAAQAAAAAAAAACAAAARFNJTnkAAABoAAAAAAAAAAEAAABoc2luAQAAAAAAAABG64vCmumHRIQ9Mih2ujahOAAAAAAAAABE
        U0lOeQAAAAEAAAAYAAAAAAAAAERTSU4BAAAAAQAAAAEAAAABAAAAAQAAAAAAAAABAAAAAAAAAAEAAABEU0lOdAAAAHUDAAAAAAAAAQAAAGhzaW4BAAAAAAAAAMPiDYJz
        LJxOuWtBgMMVvqRFAwAAAAAAAERTSU50AAAAAQAAACwDAAAAAAAARFNJTnMAAAABAAAAGAAAAAAAAABEU0lOAQAAAAEAAAABAAAAAQAAAAG9DwAA8wIAAAK9DwBgAAAB
        IAUDaHNpbkAHQAAQHyRrBvAZSEqYrqFXTcEPPBhAFCAAA0RTSU5AI+AHA0AAQBsAbSAIAWkPIAQgAEAj4ANTEEkCYzKs2sVGp2B2wrYRj5w5oCfAN0Av4BdnQCMB8Q4g
        XCAAAAUgAwFjDCAEIAAIdHNycEU4TUbPIAsEvCMAAAcgBwZkZWZhdWx04BgKICoAP+ACAwNBAACAIA8AoCAH4AsAAPAgF0AfwAAAICAPwABgFwVAAABIQgDgBABAD0AD
        4BcfYAAge+AEA0AAwBPgAwBAE+AAAAPNzMw+IAwDP5qZGUAXwAPgABcgCuAHG0ATQADgBwdAACATYKtAACALYANAAEALQAAg42AAwA9AB0AD4AMAwA9AB0ADwABAC8AD
        QADAC8AHQADgAwtAAEAP4AMAIA/Bn8AHAMjhDnPgHwDgAO/gDgBAX0ADwABBz8H7QAtAAwCgIINAB0AAALQgCwCWIAPgAwDAP0AHQAPAAEAz4MdLIAAAAcAAIAuAAAAC
        wACADuAdAOAALAD+4B0v4CEAABTgISrgMADBA+AKAGBTgAXgAABChuAXA+AeAOD9WSBZIkBBUgH6Q0AH4FUMQ9VAZwH6Q6BnBYA/zLyMK+BVDOABACBnBAA/ZmZmYAPg
        YwwgAABwJOwB/kJAdCAA4D4MosLgAFaAAKBjgADgOAwgYwRwwgAAhmC6JliAA0BW4EEMIGPgAE3g8AAAUCAA4Of8AP/gFwAABEERCggyAwAAQDIAAAA8QikgAwHwQmLY
        AAEgAYLiIAcgAkKVgAagCSA3oAkgSKAJKxegCQAG4AAJKwSgEyAAoAmASKAGoBPgwk/gSwAAEaBUA2tuYWJBMcAAAYAAIAAAGaARA2N0bmlMiwERJ2FcTFBAAEocAaBC
        4hMPTInAH00bwAvg/QDgvQABIACAAANzaXVnQiQA6CNxwAAAKiAIABkgAyOYYAAj0mAAB2dwdGNZVE1FQAwLDWJlhQEAAAAAAAAAAQAAAAABAAAAAAAAAA==
        ADxkaXNhYmxlZD4AEAAAAA==
      >
      PRESETNAME <disabled>
      FLOATPOS 32 559 948 504
      FXID {A44272E9-A7D7-6549-947D-9FF89AEB38FB}
      WAK 0 0
    >
    <ITEM
      POSITION 0
      SNAPOFFS 0
      LENGTH 346.48614
      LOOP 1
      ALLTAKES 0
      FADEIN 1 0 0 1 0 0
      FADEOUT 1 0 0 1 0 0
      MUTE 0 0
      SEL 0
      IGUID {86505D6B-8EF0-A94A-A052-00269FC403E9}
      IID 1
      NAME "germ-x hand sanitizer.mid"
      VOLPAN 1 0 1 -1
      SOFFS 0 0
      PLAYRATE 1 1 0 -1 0 0.0025
      CHANMODE 0
      GUID {DD26CDD3-72A8-7B4D-A84D-BC5143AC728F}
      <SOURCE MIDI
        HASDATA 1 128 QN
        CCINTERP 32
        POOLEDEVTS {551D3B68-7BC8-0447-98D1-6B223259E890}
        E 0 90 41 35
        E 80 80 41 35
        E 0 90 30 35
        E 16 80 30 35
        E 0 90 35 35
        E 48 80 35 35
        E 0 90 39 35
        E 128 80 39 35
        E 0 90 41 35
        E 96 80 41 35
        E 0 90 32 35
        E 64 80 32 35
        E 0 90 3b 35
        E 48 80 3b 35
        E 0 90 41 35
        E 80 80 41 35
        E 0 90 30 35
        E 16 80 30 35
        E 0 90 35 35
        E 48 80 35 35
        E 0 90 39 35
        E 128 80 39 35
        E 0 90 41 35
        E 96 80 41 35
        E 0 90 32 35
        E 64 80 32 35
        E 0 90 3b 35
        E 48 80 3b 35
        E 0 90 41 35
        E 80 80 41 35
        E 0 90 30 35
        E 16 80 30 35
        E 0 90 35 35
        E 48 80 35 35
        E 0 90 39 35
        E 128 80 39 35
        E 0 90 41 35
        E 96 80 41 35
        E 0 90 32 35
        E 64 80 32 35
        E 0 90 3b 35
        E 48 80 3b 35
        E 0 90 41 35
        E 80 80 41 35
        E 0 90 30 35
        E 16 80 30 35
        E 0 90 35 35
        E 48 80 35 35
        E 0 90 39 35
        E 128 80 39 35
        E 0 90 41 35
        E 96 80 41 35
        E 0 90 32 35
        E 64 80 32 35
        E 0 90 3b 35
        E 48 80 3b 35
        E 0 90 41 35
        E 80 80 41 35
        E 0 90 30 35
        E 16 80 30 35
        E 0 90 35 35
        E 48 80 35 35
        E 0 90 39 35
        E 128 80 39 35
        E 0 90 41 35
        E 96 80 41 35
        E 0 90 32 35
        E 64 80 32 35
        E 0 90 3b 35
        E 48 80 3b 35
        E 0 90 41 35
        E 80 80 41 35
        E 0 90 30 35
        E 16 80 30 35
        E 0 90 35 35
        E 48 80 35 35
        E 0 90 39 35
        E 128 80 39 35
        E 0 90 41 35
        E 96 80 41 35
        E 0 90 32 35
        E 64 80 32 35
        E 0 90 3b 35
        E 48 80 3b 35
        E 0 90 41 35
        E 80 80 41 35
        E 0 90 30 35
        E 16 80 30 35
        E 0 90 35 35
        E 48 80 35 35
        E 0 90 39 35
        E 128 80 39 35
        E 0 90 41 35
        E 96 80 41 35
        E 0 90 32 35
        E 64 80 32 35
        E 0 90 3b 35
        E 48 80 3b 35
        E 0 90 41 35
        E 80 80 41 35
        E 0 90 30 35
        E 16 80 30 35
        E 0 90 35 35
        E 48 80 35 35
        E 0 90 39 35
        E 128 80 39 35
        E 0 90 41 35
        E 96 80 41 35
        E 0 90 32 35
        E 64 80 32 35
        E 0 90 3b 35
        E 48 80 3b 35
        E 0 90 41 35
        E 80 80 41 35
        E 0 90 30 35
        E 16 80 30 35
        E 0 90 35 35
        E 48 80 35 35
        E 0 90 39 35
        E 128 80 39 35
        E 0 90 41 35
        E 96 80 41 35
        E 0 90 32 35
        E 64 80 32 35
        E 0 90 3b 35
        E 48 80 3b 35
        E 0 90 41 35
        E 80 80 41 35
        E 0 90 30 35
        E 16 80 30 35
        E 0 90 35 35
        E 48 80 35 35
        E 0 90 39 35
        E 128 80 39 35
        E 0 90 41 35
        E 96 80 41 35
        E 0 90 32 35
        E 64 80 32 35
        E 0 90 3b 35
        E 48 80 3b 35
        E 0 90 41 35
        E 80 80 41 35
        E 0 90 30 35
        E 16 80 30 35
        E 0 90 35 35
        E 48 80 35 35
        E 0 90 39 35
        E 128 80 39 35
        E 0 90 41 35
        E 96 80 41 35
        E 0 90 32 35
        E 64 80 32 35
        E 0 90 3b 35
        E 48 80 3b 35
        E 0 90 41 35
        E 80 80 41 35
        E 0 90 30 35
        E 16 80 30 35
        E 0 90 35 35
        E 48 80 35 35
        E 0 90 39 35
        E 128 80 39 35
        E 0 90 41 35
        E 96 80 41 35
        E 0 90 32 35
        E 64 80 32 35
        E 0 90 3b 35
        E 48 80 3b 35
        E 0 90 41 35
        E 80 80 41 35
        E 0 90 30 35
        E 16 80 30 35
        E 0 90 35 35
        E 48 80 35 35
        E 0 90 39 35
        E 128 80 39 35
        E 0 90 41 35
        E 96 80 41 35
        E 0 90 32 35
        E 64 80 32 35
        E 0 90 3b 35
        E 48 80 3b 35
        E 0 90 41 35
        E 80 80 41 35
        E 0 90 30 35
        E 16 80 30 35
        E 0 90 35 35
        E 48 80 35 35
        E 0 90 39 35
        E 128 80 39 35
        E 0 90 41 35
        E 96 80 41 35
        E 0 90 32 35
        E 64 80 32 35
        E 0 90 3b 35
        E 48 80 3b 35
        E 0 90 41 35
        E 80 80 41 35
        E 0 90 30 35
        E 16 80 30 35
        E 0 90 35 35
        E 48 80 35 35
        E 0 90 39 35
        E 128 80 39 35
        E 0 90 41 35
        E 96 80 41 35
        E 0 90 32 35
        E 64 80 32 35
        E 0 90 3b 35
        E 48 80 3b 35
        E 0 90 41 35
        E 80 80 41 35
        E 0 90 30 35
        E 16 80 30 35
        E 0 90 35 35
        E 48 80 35 35
        E 0 90 39 35
        E 128 80 39 35
        E 0 90 41 35
        E 96 80 41 35
        E 0 90 32 35
        E 64 80 32 35
        E 0 90 3b 35
        E 48 80 3b 35
        E 0 90 41 35
        E 80 80 41 35
        E 0 90 30 35
        E 16 80 30 35
        E 0 90 35 35
        E 48 80 35 35
        E 0 90 39 35
        E 128 80 39 35
        E 0 90 41 35
        E 96 80 41 35
        E 0 90 32 35
        E 64 80 32 35
        E 0 90 3b 35
        E 48 80 3b 35
        E 0 90 41 35
        E 80 80 41 35
        E 0 90 30 35
        E 16 80 30 35
        E 0 90 35 35
        E 48 80 35 35
        E 0 90 39 35
        E 128 80 39 35
        E 0 90 41 35
        E 96 80 41 35
        E 0 90 32 35
        E 64 80 32 35
        E 0 90 3b 35
        E 48 80 3b 35
        E 0 90 41 35
        E 80 80 41 35
        E 0 90 30 35
        E 16 80 30 35
        E 0 90 35 35
        E 48 80 35 35
        E 0 90 39 35
        E 128 80 39 35
        E 0 90 41 35
        E 96 80 41 35
        E 0 90 32 35
        E 64 80 32 35
        E 0 90 3b 35
        E 48 80 3b 35
        E 0 90 41 35
        E 80 80 41 35
        E 0 90 30 35
        E 16 80 30 35
        E 0 90 35 35
        E 48 80 35 35
        E 0 90 39 35
        E 128 80 39 35
        E 0 90 41 35
        E 96 80 41 35
        E 0 90 32 35
        E 64 80 32 35
        E 0 90 3b 35
        E 48 80 3b 35
        E 0 90 41 35
        E 80 80 41 35
        E 0 90 30 35
        E 16 80 30 35
        E 0 90 35 35
        E 48 80 35 35
        E 0 90 39 35
        E 128 80 39 35
        E 0 90 41 35
        E 96 80 41 35
        E 0 90 32 35
        E 64 80 32 35
        E 0 90 3b 35
        E 48 80 3b 35
        E 0 90 41 35
        E 80 80 41 35
        E 0 90 30 35
        E 16 80 30 35
        E 0 90 35 35
        E 48 80 35 35
        E 0 90 39 35
        E 128 80 39 35
        E 0 90 41 35
        E 96 80 41 35
        E 0 90 32 35
        E 64 80 32 35
        E 0 90 3b 35
        E 48 80 3b 35
        E 0 90 41 35
        E 80 80 41 35
        E 0 90 30 35
        E 16 80 30 35
        E 0 90 35 35
        E 48 80 35 35
        E 0 90 39 35
        E 128 80 39 35
        E 0 90 41 35
        E 96 80 41 35
        E 0 90 32 35
        E 64 80 32 35
        E 0 90 3b 35
        E 48 80 3b 35
        E 0 90 41 35
        E 80 80 41 35
        E 0 90 30 35
        E 16 80 30 35
        E 0 90 35 35
        E 48 80 35 35
        E 0 90 39 35
        E 128 80 39 35
        E 0 90 41 35
        E 96 80 41 35
        E 0 90 32 35
        E 64 80 32 35
        E 0 90 3b 35
        E 48 80 3b 35
        E 0 90 41 35
        E 80 80 41 35
        E 0 90 30 35
        E 16 80 30 35
        E 0 90 35 35
        E 48 80 35 35
        E 0 90 39 35
        E 128 80 39 35
        E 0 90 41 35
        E 96 80 41 35
        E 0 90 32 35
        E 64 80 32 35
        E 0 90 3b 35
        E 48 80 3b 35
        E 0 90 41 35
        E 80 80 41 35
        E 0 90 30 35
        E 16 80 30 35
        E 0 90 35 35
        E 48 80 35 35
        E 0 90 39 35
        E 128 80 39 35
        E 0 90 41 35
        E 96 80 41 35
        E 0 90 32 35
        E 64 80 32 35
        E 0 90 3b 35
        E 48 80 3b 35
        E 0 90 41 35
        E 80 80 41 35
        E 0 90 30 35
        E 16 80 30 35
        E 0 90 35 35
        E 48 80 35 35
        E 0 90 39 35
        E 128 80 39 35
        E 0 90 41 35
        E 96 80 41 35
        E 0 90 32 35
        E 64 80 32 35
        E 0 90 3b 35
        E 48 80 3b 35
        E 0 90 41 35
        E 80 80 41 35
        E 0 90 30 35
        E 16 80 30 35
        E 0 90 35 35
        E 48 80 35 35
        E 0 90 39 35
        E 128 80 39 35
        E 0 90 41 35
        E 96 80 41 35
        E 0 90 32 35
        E 64 80 32 35
        E 0 90 3b 35
        E 48 80 3b 35
        E 0 90 41 35
        E 80 80 41 35
        E 0 90 30 35
        E 16 80 30 35
        E 0 90 35 35
        E 48 80 35 35
        E 0 90 39 35
        E 128 80 39 35
        E 0 90 41 35
        E 96 80 41 35
        E 0 90 32 35
        E 64 80 32 35
        E 0 90 3b 35
        E 48 80 3b 35
        E 0 90 41 35
        E 80 80 41 35
        E 0 90 30 35
        E 16 80 30 35
        E 0 90 35 35
        E 48 80 35 35
        E 0 90 39 35
        E 128 80 39 35
        E 0 90 41 35
        E 96 80 41 35
        E 0 90 32 35
        E 64 80 32 35
        E 0 90 3b 35
        E 48 80 3b 35
        E 0 90 41 35
        E 80 80 41 35
        E 0 90 30 35
        E 16 80 30 35
        E 0 90 35 35
        E 48 80 35 35
        E 0 90 39 35
        E 128 80 39 35
        E 0 90 41 35
        E 96 80 41 35
        E 0 90 32 35
        E 64 80 32 35
        E 0 90 3b 35
        E 48 80 3b 35
        E 0 90 41 35
        E 80 80 41 35
        E 0 90 30 35
        E 16 80 30 35
        E 0 90 35 35
        E 48 80 35 35
        E 0 90 39 35
        E 128 80 39 35
        E 0 90 41 35
        E 96 80 41 35
        E 0 90 32 35
        E 64 80 32 35
        E 0 90 3b 35
        E 48 80 3b 35
        E 0 90 41 35
        E 80 80 41 35
        E 0 90 30 35
        E 16 80 30 35
        E 0 90 35 35
        E 48 80 35 35
        E 0 90 39 35
        E 128 80 39 35
        E 0 90 41 35
        E 96 80 41 35
        E 0 90 32 35
        E 64 80 32 35
        E 0 90 3b 35
        E 48 80 3b 35
        E 0 90 41 35
        E 80 80 41 35
        E 0 90 30 35
        E 16 80 30 35
        E 0 90 35 35
        E 48 80 35 35
        E 0 90 39 35
        E 128 80 39 35
        E 0 90 41 35
        E 96 80 41 35
        E 0 90 32 35
        E 64 80 32 35
        E 0 90 3b 35
        E 48 80 3b 35
        E 0 90 41 35
        E 80 80 41 35
        E 0 90 30 35
        E 16 80 30 35
        E 0 90 35 35
        E 48 80 35 35
        E 0 90 39 35
        E 128 80 39 35
        E 0 90 41 35
        E 96 80 41 35
        E 0 90 32 35
        E 64 80 32 35
        E 0 90 3b 35
        E 48 80 3b 35
        E 0 90 41 35
        E 80 80 41 35
        E 0 90 30 35
        E 16 80 30 35
        E 0 90 35 35
        E 48 80 35 35
        E 0 90 39 35
        E 128 80 39 35
        E 0 90 41 35
        E 96 80 41 35
        E 0 90 32 35
        E 64 80 32 35
        E 0 90 3b 35
        E 48 80 3b 35
        E 0 90 41 35
        E 80 80 41 35
        E 0 90 30 35
        E 16 80 30 35
        E 0 90 35 35
        E 48 80 35 35
        E 0 90 39 35
        E 128 80 39 35
        E 0 90 41 35
        E 96 80 41 35
        E 0 90 32 35
        E 64 80 32 35
        E 0 90 3b 35
        E 48 80 3b 35
        E 0 90 41 35
        E 80 80 41 35
        E 0 90 30 35
        E 16 80 30 35
        E 0 90 35 35
        E 48 80 35 35
        E 0 90 39 35
        E 128 80 39 35
        E 0 90 41 35
        E 96 80 41 35
        E 0 90 32 35
        E 64 80 32 35
        E 0 90 3b 35
        E 48 80 3b 35
        E 0 90 41 35
        E 80 80 41 35
        E 0 90 30 35
        E 16 80 30 35
        E 0 90 35 35
        E 48 80 35 35
        E 0 90 39 35
        E 128 80 39 35
        E 0 90 41 35
        E 96 80 41 35
        E 0 90 32 35
        E 64 80 32 35
        E 0 90 3b 35
        E 48 80 3b 35
        E 0 90 41 35
        E 80 80 41 35
        E 0 90 30 35
        E 16 80 30 35
        E 0 90 35 35
        E 48 80 35 35
        E 0 90 39 35
        E 128 80 39 35
        E 0 90 41 35
        E 96 80 41 35
        E 0 90 32 35
        E 64 80 32 35
        E 0 90 3b 35
        E 48 80 3b 35
        E 0 90 41 35
        E 80 80 41 35
        E 0 90 30 35
        E 16 80 30 35
        E 0 90 35 35
        E 48 80 35 35
        E 0 90 39 35
        E 128 80 39 35
        E 0 90 41 35
        E 96 80 41 35
        E 0 90 32 35
        E 64 80 32 35
        E 0 90 3b 35
        E 48 80 3b 35
        E 0 90 41 35
        E 80 80 41 35
        E 0 90 30 35
        E 16 80 30 35
        E 0 90 35 35
        E 48 80 35 35
        E 0 90 39 35
        E 128 80 39 35
        E 0 90 41 35
        E 96 80 41 35
        E 0 90 32 35
        E 64 80 32 35
        E 0 90 3b 35
        E 48 80 3b 35
        E 0 90 41 35
        E 80 80 41 35
        E 0 90 30 35
        E 16 80 30 35
        E 0 90 35 35
        E 48 80 35 35
        E 0 90 39 35
        E 128 80 39 35
        E 0 90 41 35
        E 96 80 41 35
        E 0 90 32 35
        E 64 80 32 35
        E 0 90 3b 35
        E 48 80 3b 35
        E 0 90 41 35
        E 80 80 41 35
        E 0 90 30 35
        E 16 80 30 35
        E 0 90 35 35
        E 48 80 35 35
        E 0 90 39 35
        E 128 80 39 35
        E 0 90 41 35
        E 96 80 41 35
        E 0 90 32 35
        E 64 80 32 35
        E 0 90 3b 35
        E 48 80 3b 35
        E 0 90 41 35
        E 80 80 41 35
        E 0 90 30 35
        E 16 80 30 35
        E 0 90 35 35
        E 48 80 35 35
        E 0 90 39 35
        E 128 80 39 35
        E 0 90 41 35
        E 96 80 41 35
        E 0 90 32 35
        E 64 80 32 35
        E 0 90 3b 35
        E 48 80 3b 35
        E 0 90 41 35
        E 80 80 41 35
        E 0 90 30 35
        E 16 80 30 35
        E 0 90 35 35
        E 48 80 35 35
        E 0 90 39 35
        E 128 80 39 35
        E 0 90 41 35
        E 96 80 41 35
        E 0 90 32 35
        E 64 80 32 35
        E 0 90 3b 35
        E 48 80 3b 35
        E 0 90 41 35
        E 80 80 41 35
        E 0 90 30 35
        E 16 80 30 35
        E 0 90 35 35
        E 48 80 35 35
        E 0 90 39 35
        E 128 80 39 35
        E 0 90 41 35
        E 96 80 41 35
        E 0 90 32 35
        E 64 80 32 35
        E 0 90 3b 35
        E 48 80 3b 35
        E 0 90 41 35
        E 80 80 41 35
        E 0 90 30 35
        E 16 80 30 35
        E 0 90 35 35
        E 48 80 35 35
        E 0 90 39 35
        E 128 80 39 35
        E 0 90 41 35
        E 96 80 41 35
        E 0 90 32 35
        E 64 80 32 35
        E 0 90 3b 35
        E 48 80 3b 35
        E 0 90 41 35
        E 80 80 41 35
        E 0 90 30 35
        E 16 80 30 35
        E 0 90 35 35
        E 48 80 35 35
        E 0 90 39 35
        E 128 80 39 35
        E 0 90 41 35
        E 96 80 41 35
        E 0 90 32 35
        E 64 80 32 35
        E 0 90 3b 35
        E 48 80 3b 35
        E 0 90 41 35
        E 80 80 41 35
        E 0 90 30 35
        E 16 80 30 35
        E 0 90 35 35
        E 48 80 35 35
        E 0 90 39 35
        E 128 80 39 35
        E 0 90 41 35
        E 96 80 41 35
        E 0 90 32 35
        E 64 80 32 35
        E 0 90 3b 35
        E 48 80 3b 35
        E 0 90 41 35
        E 80 80 41 35
        E 0 90 30 35
        E 16 80 30 35
        E 0 90 35 35
        E 48 80 35 35
        E 0 90 39 35
        E 128 80 39 35
        E 0 90 41 35
        E 96 80 41 35
        E 0 90 32 35
        E 64 80 32 35
        E 0 90 3b 35
        E 48 80 3b 35
        E 0 90 41 35
        E 80 80 41 35
        E 0 90 30 35
        E 16 80 30 35
        E 0 90 35 35
        E 48 80 35 35
        E 0 90 39 35
        E 128 80 39 35
        E 0 90 41 35
        E 96 80 41 35
        E 0 90 32 35
        E 64 80 32 35
        E 0 90 3b 35
        E 48 80 3b 35
        E 0 90 41 35
        E 80 80 41 35
        E 0 90 30 35
        E 16 80 30 35
        E 0 90 35 35
        E 48 80 35 35
        E 0 90 39 35
        E 128 80 39 35
        E 0 90 41 35
        E 96 80 41 35
        E 0 90 32 35
        E 64 80 32 35
        E 0 90 3b 35
        E 48 80 3b 35
        E 0 90 41 35
        E 80 80 41 35
        E 0 90 30 35
        E 16 80 30 35
        E 0 90 35 35
        E 48 80 35 35
        E 0 90 39 35
        E 128 80 39 35
        E 0 90 41 35
        E 96 80 41 35
        E 0 90 32 35
        E 64 80 32 35
        E 0 90 3b 35
        E 48 80 3b 35
        E 0 90 41 35
        E 80 80 41 35
        E 0 90 30 35
        E 16 80 30 35
        E 0 90 35 35
        E 48 80 35 35
        E 0 90 39 35
        E 128 80 39 35
        E 0 90 41 35
        E 96 80 41 35
        E 0 90 32 35
        E 64 80 32 35
        E 0 90 3b 35
        E 48 80 3b 35
        E 0 90 41 35
        E 80 80 41 35
        E 0 90 30 35
        E 16 80 30 35
        E 0 90 35 35
        E 48 80 35 35
        E 0 90 39 35
        E 128 80 39 35
        E 0 90 41 35
        E 96 80 41 35
        E 0 90 32 35
        E 64 80 32 35
        E 0 90 3b 35
        E 48 80 3b 35
        E 0 90 32 35
        E 64 80 32 35
        E 0 90 3b 35
        E 48 80 3b 35
        E 0 90 39 35
        E 0 90 34 35
        E 112 80 34 35
        E 0 90 40 35
        E 32 80 40 35
        E 0 90 37 35
        E 112 80 37 35
        E 0 90 40 35
        E 128 80 40 35
        E 0 90 41 35
        E 80 80 41 35
        E 0 90 32 35
        E 64 80 32 35
        E 0 90 3b 35
        E 48 80 3b 35
        E 0 90 39 35
        E 0 90 34 35
        E 112 80 34 35
        E 0 90 40 35
        E 32 80 40 35
        E 0 90 37 35
        E 112 80 37 35
        E 0 90 40 35
        E 128 80 40 35
        E 0 90 41 35
        E 80 80 41 35
        E 0 90 32 35
        E 64 80 32 35
        E 0 90 3b 35
        E 48 80 3b 35
        E 0 90 39 35
        E 0 90 34 35
        E 112 80 34 35
        E 0 90 40 35
        E 32 80 40 35
        E 0 90 37 35
        E 112 80 37 35
        E 0 90 40 35
        E 128 80 40 35
        E 0 90 41 35
        E 80 80 41 35
        E 0 90 32 35
        E 64 80 32 35
        E 0 90 3b 35
        E 48 80 3b 35
        E 0 90 39 35
        E 0 90 34 35
        E 112 80 34 35
        E 0 90 40 35
        E 32 80 40 35
        E 0 90 37 35
        E 112 80 37 35
        E 0 90 40 35
        E 128 80 40 35
        E 0 90 41 35
        E 80 80 41 35
        E 0 90 32 35
        E 64 80 32 35
        E 0 90 3b 35
        E 48 80 3b 35
        E 0 90 39 35
        E 0 90 34 35
        E 112 80 34 35
        E 0 90 40 35
        E 32 80 40 35
        E 0 90 37 35
        E 112 80 37 35
        E 0 90 40 35
        E 128 80 40 35
        E 0 90 41 35
        E 80 80 41 35
        E 0 90 32 35
        E 64 80 32 35
        E 0 90 3b 35
        E 48 80 3b 35
        E 0 90 39 35
        E 0 90 34 35
        E 112 80 34 35
        E 0 90 40 35
        E 32 80 40 35
        E 0 90 37 35
        E 112 80 37 35
        E 0 90 40 35
        E 128 80 40 35
        E 0 90 41 35
        E 80 80 41 35
        E 0 90 32 35
        E 64 80 32 35
        E 0 90 3b 35
        E 48 80 3b 35
        E 0 90 39 35
        E 0 90 34 35
        E 112 80 34 35
        E 0 90 40 35
        E 32 80 40 35
        E 0 90 37 35
        E 112 80 37 35
        E 0 90 40 35
        E 128 80 40 35
        E 0 90 41 35
        E 80 80 41 35
        E 0 90 32 35
        E 64 80 32 35
        E 0 90 3b 35
        E 48 80 3b 35
        E 0 90 39 35
        E 0 90 34 35
        E 112 80 34 35
        E 0 90 40 35
        E 32 80 40 35
        E 0 90 37 35
        E 112 80 37 35
        E 0 90 40 35
        E 128 80 40 35
        E 0 90 41 35
        E 80 80 41 35
        E 0 90 32 35
        E 64 80 32 35
        E 0 90 3b 35
        E 48 80 3b 35
        E 0 90 39 35
        E 0 90 34 35
        E 112 80 34 35
        E 0 90 40 35
        E 32 80 40 35
        E 0 90 37 35
        E 112 80 37 35
        E 0 90 40 35
        E 128 80 40 35
        E 0 90 41 35
        E 80 80 41 35
        E 0 90 32 35
        E 64 80 32 35
        E 0 90 3b 35
        E 48 80 3b 35
        E 0 90 39 35
        E 0 90 34 35
        E 112 80 34 35
        E 0 90 40 35
        E 32 80 40 35
        E 0 90 37 35
        E 112 80 37 35
        E 0 90 40 35
        E 128 80 40 35
        E 0 90 41 35
        E 80 80 41 35
        E 0 90 32 35
        E 64 80 32 35
        E 0 90 3b 35
        E 48 80 3b 35
        E 0 90 39 35
        E 0 90 34 35
        E 112 80 34 35
        E 0 90 40 35
        E 32 80 40 35
        E 0 90 37 35
        E 112 80 37 35
        E 0 90 40 35
        E 128 80 40 35
        E 0 90 41 35
        E 80 80 41 35
        E 0 90 32 35
        E 64 80 32 35
        E 0 90 3b 35
        E 48 80 3b 35
        E 0 90 39 35
        E 0 90 34 35
        E 112 80 34 35
        E 0 90 40 35
        E 32 80 40 35
        E 0 90 37 35
        E 112 80 37 35
        E 0 90 40 35
        E 128 80 40 35
        E 0 90 41 35
        E 80 80 41 35
        E 0 90 32 35
        E 64 80 32 35
        E 0 90 3b 35
        E 48 80 3b 35
        E 0 90 39 35
        E 0 90 34 35
        E 112 80 34 35
        E 0 90 40 35
        E 32 80 40 35
        E 0 90 37 35
        E 112 80 37 35
        E 0 90 40 35
        E 128 80 40 35
        E 0 90 41 35
        E 80 80 41 35
        E 0 90 32 35
        E 64 80 32 35
        E 0 90 3b 35
        E 48 80 3b 35
        E 0 90 39 35
        E 0 90 34 35
        E 112 80 34 35
        E 0 90 40 35
        E 32 80 40 35
        E 0 90 37 35
        E 112 80 37 35
        E 0 90 40 35
        E 128 80 40 35
        E 0 90 41 35
        E 80 80 41 35
        E 0 90 32 35
        E 64 80 32 35
        E 0 90 3b 35
        E 48 80 3b 35
        E 0 90 39 35
        E 0 90 34 35
        E 112 80 34 35
        E 0 90 40 35
        E 32 80 40 35
        E 0 90 37 35
        E 112 80 37 35
        E 0 90 40 35
        E 128 80 40 35
        E 0 90 41 35
        E 80 80 41 35
        E 0 90 32 35
        E 64 80 32 35
        E 0 90 3b 35
        E 48 80 3b 35
        E 0 90 39 35
        E 0 90 34 35
        E 112 80 34 35
        E 0 90 40 35
        E 32 80 40 35
        E 0 90 37 35
        E 112 80 37 35
        E 0 90 40 35
        E 128 80 40 35
        E 0 90 41 35
        E 80 80 41 35
        E 0 90 32 35
        E 64 80 32 35
        E 0 90 3b 35
        E 48 80 3b 35
        E 0 90 39 35
        E 0 90 34 35
        E 112 80 34 35
        E 0 90 40 35
        E 32 80 40 35
        E 0 90 37 35
        E 112 80 37 35
        E 0 90 40 35
        E 128 80 40 35
        E 0 90 41 35
        E 80 80 41 35
        E 0 90 32 35
        E 64 80 32 35
        E 0 90 3b 35
        E 48 80 3b 35
        E 0 90 39 35
        E 0 90 34 35
        E 112 80 34 35
        E 0 90 40 35
        E 32 80 40 35
        E 0 90 37 35
        E 112 80 37 35
        E 0 90 40 35
        E 128 80 40 35
        E 0 90 41 35
        E 80 80 41 35
        E 0 90 32 35
        E 64 80 32 35
        E 0 90 3b 35
        E 48 80 3b 35
        E 0 90 39 35
        E 0 90 34 35
        E 112 80 34 35
        E 0 90 40 35
        E 32 80 40 35
        E 0 90 37 35
        E 112 80 37 35
        E 0 90 40 35
        E 128 80 40 35
        E 0 90 41 35
        E 80 80 41 35
        E 0 90 32 35
        E 64 80 32 35
        E 0 90 3b 35
        E 48 80 3b 35
        E 0 90 39 35
        E 0 90 34 35
        E 112 80 34 35
        E 0 90 40 35
        E 32 80 40 35
        E 0 90 37 35
        E 112 80 37 35
        E 0 90 40 35
        E 128 80 40 35
        E 0 90 41 35
        E 80 80 41 35
        E 0 90 32 35
        E 64 80 32 35
        E 0 90 3b 35
        E 48 80 3b 35
        E 0 90 39 35
        E 0 90 34 35
        E 112 80 34 35
        E 0 90 40 35
        E 32 80 40 35
        E 0 90 37 35
        E 112 80 37 35
        E 0 90 40 35
        E 128 80 40 35
        E 0 90 41 35
        E 80 80 41 35
        E 0 90 32 35
        E 64 80 32 35
        E 0 90 3b 35
        E 48 80 3b 35
        E 0 90 39 35
        E 0 90 34 35
        E 112 80 34 35
        E 0 90 40 35
        E 32 80 40 35
        E 0 90 37 35
        E 112 80 37 35
        E 0 90 40 35
        E 128 80 40 35
        E 0 90 41 35
        E 80 80 41 35
        E 0 90 32 35
        E 64 80 32 35
        E 0 90 3b 35
        E 48 80 3b 35
        E 0 90 39 35
        E 0 90 34 35
        E 112 80 34 35
        E 0 90 40 35
        E 32 80 40 35
        E 0 90 37 35
        E 112 80 37 35
        E 0 90 40 35
        E 128 80 40 35
        E 0 90 41 35
        E 80 80 41 35
        E 0 90 32 35
        E 64 80 32 35
        E 0 90 3b 35
        E 48 80 3b 35
        E 0 90 39 35
        E 0 90 34 35
        E 112 80 34 35
        E 0 90 40 35
        E 32 80 40 35
        E 0 90 37 35
        E 112 80 37 35
        E 0 90 40 35
        E 128 80 40 35
        E 0 90 41 35
        E 80 80 41 35
        E 0 90 32 35
        E 64 80 32 35
        E 0 90 3b 35
        E 48 80 3b 35
        E 0 90 39 35
        E 0 90 34 35
        E 112 80 34 35
        E 0 90 40 35
        E 32 80 40 35
        E 0 90 37 35
        E 112 80 37 35
        E 0 90 40 35
        E 128 80 40 35
        E 0 90 41 35
        E 80 80 41 35
        E 0 90 32 35
        E 64 80 32 35
        E 0 90 3b 35
        E 48 80 3b 35
        E 0 90 39 35
        E 0 90 34 35
        E 112 80 34 35
        E 0 90 40 35
        E 32 80 40 35
        E 0 90 37 35
        E 112 80 37 35
        E 0 90 40 35
        E 128 80 40 35
        E 0 90 41 35
        E 80 80 41 35
        E 0 90 32 35
        E 64 80 32 35
        E 0 90 3b 35
        E 48 80 3b 35
        E 0 90 39 35
        E 0 90 34 35
        E 112 80 34 35
        E 0 90 40 35
        E 32 80 40 35
        E 0 90 37 35
        E 112 80 37 35
        E 0 90 40 35
        E 128 80 40 35
        E 0 90 41 35
        E 80 80 41 35
        E 0 90 32 35
        E 64 80 32 35
        E 0 90 3b 35
        E 48 80 3b 35
        E 0 90 39 35
        E 0 90 34 35
        E 112 80 34 35
        E 0 90 40 35
        E 32 80 40 35
        E 0 90 37 35
        E 112 80 37 35
        E 0 90 40 35
        E 128 80 40 35
        E 0 90 41 35
        E 80 80 41 35
        E 0 90 32 35
        E 64 80 32 35
        E 0 90 3b 35
        E 48 80 3b 35
        E 0 90 39 35
        E 0 90 34 35
        E 112 80 34 35
        E 0 90 40 35
        E 32 80 40 35
        E 0 90 37 35
        E 112 80 37 35
        E 0 90 40 35
        E 128 80 40 35
        E 0 90 41 35
        E 80 80 41 35
        E 0 90 32 35
        E 64 80 32 35
        E 0 90 3b 35
        E 48 80 3b 35
        E 0 90 39 35
        E 0 90 34 35
        E 112 80 34 35
        E 0 90 40 35
        E 32 80 40 35
        E 0 90 37 35
        E 112 80 37 35
        E 0 90 40 35
        E 128 80 40 35
        E 0 90 41 35
        E 80 80 41 35
        E 0 90 32 35
        E 64 80 32 35
        E 0 90 3b 35
        E 48 80 3b 35
        E 0 90 39 35
        E 0 90 34 35
        E 112 80 34 35
        E 0 90 40 35
        E 32 80 40 35
        E 0 90 37 35
        E 112 80 37 35
        E 0 90 40 35
        E 128 80 40 35
        E 0 90 41 35
        E 80 80 41 35
        E 0 90 32 35
        E 64 80 32 35
        E 0 90 3b 35
        E 48 80 3b 35
        E 0 90 39 35
        E 0 90 34 35
        E 112 80 34 35
        E 0 90 40 35
        E 32 80 40 35
        E 0 90 37 35
        E 112 80 37 35
        E 0 90 40 35
        E 128 80 40 35
        E 0 90 41 35
        E 80 80 41 35
        E 0 90 32 35
        E 64 80 32 35
        E 0 90 3b 35
        E 48 80 3b 35
        E 0 90 39 35
        E 0 90 34 35
        E 112 80 34 35
        E 0 90 40 35
        E 32 80 40 35
        E 0 90 37 35
        E 112 80 37 35
        E 0 90 40 35
        E 128 80 40 35
        E 0 90 41 35
        E 80 80 41 35
        E 0 90 32 35
        E 64 80 32 35
        E 0 90 3b 35
        E 48 80 3b 35
        E 0 90 39 35
        E 0 90 34 35
        E 112 80 34 35
        E 0 90 40 35
        E 32 80 40 35
        E 0 90 37 35
        E 112 80 37 35
        E 0 90 40 35
        E 128 80 40 35
        E 0 90 41 35
        E 80 80 41 35
        E 0 90 32 35
        E 64 80 32 35
        E 0 90 3b 35
        E 48 80 3b 35
        E 0 90 39 35
        E 0 90 34 35
        E 112 80 34 35
        E 0 90 40 35
        E 32 80 40 35
        E 0 90 37 35
        E 112 80 37 35
        E 0 90 40 35
        E 128 80 40 35
        E 0 90 41 35
        E 80 80 41 35
        E 0 90 32 35
        E 64 80 32 35
        E 0 90 3b 35
        E 48 80 3b 35
        E 0 90 39 35
        E 0 90 34 35
        E 112 80 34 35
        E 0 90 40 35
        E 32 80 40 35
        E 0 90 37 35
        E 112 80 37 35
        E 0 90 40 35
        E 128 80 40 35
        E 0 90 41 35
        E 80 80 41 35
        E 0 90 32 35
        E 64 80 32 35
        E 0 90 3b 35
        E 48 80 3b 35
        E 0 90 39 35
        E 0 90 34 35
        E 112 80 34 35
        E 0 90 40 35
        E 32 80 40 35
        E 0 90 37 35
        E 112 80 37 35
        E 0 90 40 35
        E 128 80 40 35
        E 0 90 41 35
        E 80 80 41 35
        E 0 90 32 35
        E 64 80 32 35
        E 0 90 3b 35
        E 48 80 3b 35
        E 0 90 39 35
        E 0 90 34 35
        E 112 80 34 35
        E 0 90 40 35
        E 32 80 40 35
        E 0 90 37 35
        E 112 80 37 35
        E 0 90 40 35
        E 128 80 40 35
        E 0 90 41 35
        E 80 80 41 35
        E 0 90 32 35
        E 64 80 32 35
        E 0 90 3b 35
        E 48 80 3b 35
        E 0 90 39 35
        E 0 90 34 35
        E 112 80 34 35
        E 0 90 40 35
        E 32 80 40 35
        E 0 90 37 35
        E 112 80 37 35
        E 0 90 40 35
        E 128 80 40 35
        E 0 90 41 35
        E 80 80 41 35
        E 0 90 32 35
        E 64 80 32 35
        E 0 90 3b 35
        E 48 80 3b 35
        E 0 90 39 35
        E 0 90 34 35
        E 112 80 34 35
        E 0 90 40 35
        E 32 80 40 35
        E 0 90 37 35
        E 112 80 37 35
        E 0 90 40 35
        E 128 80 40 35
        E 0 90 41 35
        E 80 80 41 35
        E 0 90 32 35
        E 64 80 32 35
        E 0 90 3b 35
        E 48 80 3b 35
        E 0 90 39 35
        E 0 90 34 35
        E 112 80 34 35
        E 0 90 40 35
        E 32 80 40 35
        E 0 90 37 35
        E 112 80 37 35
        E 0 90 40 35
        E 128 80 40 35
        E 0 90 41 35
        E 80 80 41 35
        E 0 90 32 35
        E 64 80 32 35
        E 0 90 3b 35
        E 48 80 3b 35
        E 0 90 39 35
        E 0 90 34 35
        E 112 80 34 35
        E 0 90 40 35
        E 32 80 40 35
        E 0 90 37 35
        E 112 80 37 35
        E 0 90 40 35
        E 128 80 40 35
        E 0 90 41 35
        E 80 80 41 35
        E 0 90 32 35
        E 64 80 32 35
        E 0 90 3b 35
        E 48 80 3b 35
        E 0 90 39 35
        E 0 90 34 35
        E 112 80 34 35
        E 0 90 40 35
        E 32 80 40 35
        E 0 90 37 35
        E 112 80 37 35
        E 0 90 40 35
        E 128 80 40 35
        E 0 90 41 35
        E 80 80 41 35
        E 0 90 32 35
        E 64 80 32 35
        E 0 90 3b 35
        E 48 80 3b 35
        E 0 90 39 35
        E 0 90 34 35
        E 112 80 34 35
        E 0 90 40 35
        E 32 80 40 35
        E 0 90 37 35
        E 112 80 37 35
        E 0 90 40 35
        E 128 80 40 35
        E 0 90 41 35
        E 80 80 41 35
        E 0 90 32 35
        E 64 80 32 35
        E 0 90 3b 35
        E 48 80 3b 35
        E 0 90 39 35
        E 0 90 34 35
        E 112 80 34 35
        E 0 90 40 35
        E 32 80 40 35
        E 0 90 37 35
        E 112 80 37 35
        E 0 90 40 35
        E 128 80 40 35
        E 0 90 41 35
        E 80 80 41 35
        E 0 90 32 35
        E 64 80 32 35
        E 0 90 3b 35
        E 48 80 3b 35
        E 0 90 39 35
        E 0 90 34 35
        E 112 80 34 35
        E 0 90 40 35
        E 32 80 40 35
        E 0 90 37 35
        E 112 80 37 35
        E 0 90 40 35
        E 128 80 40 35
        E 0 90 41 35
        E 80 80 41 35
        E 0 90 32 35
        E 64 80 32 35
        E 0 90 3b 35
        E 48 80 3b 35
        E 0 90 39 35
        E 0 90 34 35
        E 112 80 34 35
        E 0 90 40 35
        E 32 80 40 35
        E 0 90 37 35
        E 112 80 37 35
        E 0 90 40 35
        E 128 80 40 35
        E 0 90 41 35
        E 80 80 41 35
        E 0 90 32 35
        E 64 80 32 35
        E 0 90 3b 35
        E 48 80 3b 35
        E 0 90 39 35
        E 0 90 34 35
        E 112 80 34 35
        E 0 90 40 35
        E 32 80 40 35
        E 0 90 37 35
        E 112 80 37 35
        E 0 90 40 35
        E 128 80 40 35
        E 0 90 41 35
        E 80 80 41 35
        E 0 90 32 35
        E 64 80 32 35
        E 0 90 3b 35
        E 48 80 3b 35
        E 0 90 39 35
        E 0 90 34 35
        E 112 80 34 35
        E 0 90 40 35
        E 32 80 40 35
        E 0 90 37 35
        E 112 80 37 35
        E 0 90 40 35
        E 128 80 40 35
        E 0 90 41 35
        E 80 80 41 35
        E 0 90 32 35
        E 64 80 32 35
        E 0 90 3b 35
        E 48 80 3b 35
        E 0 90 39 35
        E 0 90 34 35
        E 112 80 34 35
        E 0 90 40 35
        E 32 80 40 35
        E 0 90 37 35
        E 112 80 37 35
        E 0 90 40 35
        E 128 80 40 35
        E 0 90 41 35
        E 80 80 41 35
        E 0 90 32 35
        E 64 80 32 35
        E 0 90 3b 35
        E 48 80 3b 35
        E 0 90 39 35
        E 0 90 34 35
        E 112 80 34 35
        E 0 90 40 35
        E 32 80 40 35
        E 0 90 37 35
        E 112 80 37 35
        E 0 90 40 35
        E 128 80 40 35
        E 0 90 41 35
        E 80 80 41 35
        E 0 90 32 35
        E 64 80 32 35
        E 0 90 3b 35
        E 48 80 3b 35
        E 0 90 39 35
        E 0 90 34 35
        E 112 80 34 35
        E 0 90 40 35
        E 32 80 40 35
        E 0 90 37 35
        E 112 80 37 35
        E 0 90 40 35
        E 128 80 40 35
        E 0 90 41 35
        E 80 80 41 35
        E 0 90 32 35
        E 64 80 32 35
        E 0 90 3b 35
        E 48 80 3b 35
        E 0 90 39 35
        E 0 90 34 35
        E 112 80 34 35
        E 0 90 40 35
        E 32 80 40 35
        E 0 90 37 35
        E 112 80 37 35
        E 0 90 40 35
        E 128 80 40 35
        E 0 90 41 35
        E 80 80 41 35
        E 0 90 32 35
        E 64 80 32 35
        E 0 90 3b 35
        E 48 80 3b 35
        E 0 90 39 35
        E 0 90 34 35
        E 112 80 34 35
        E 0 90 40 35
        E 32 80 40 35
        E 0 90 37 35
        E 112 80 37 35
        E 0 90 40 35
        E 128 80 40 35
        E 0 90 41 35
        E 80 80 41 35
        E 0 90 32 35
        E 64 80 32 35
        E 0 90 3b 35
        E 48 80 3b 35
        E 0 90 39 35
        E 0 90 34 35
        E 112 80 34 35
        E 0 90 40 35
        E 32 80 40 35
        E 0 90 37 35
        E 112 80 37 35
        E 0 90 40 35
        E 128 80 40 35
        E 0 90 41 35
        E 80 80 41 35
        E 0 90 32 35
        E 64 80 32 35
        E 0 90 3b 35
        E 48 80 3b 35
        E 0 90 39 35
        E 0 90 34 35
        E 112 80 34 35
        E 0 90 40 35
        E 32 80 40 35
        E 0 90 37 35
        E 112 80 37 35
        E 0 90 40 35
        E 128 80 40 35
        E 0 90 41 35
        E 80 80 41 35
        E 0 90 32 35
        E 64 80 32 35
        E 0 90 3b 35
        E 48 80 3b 35
        E 0 90 39 35
        E 0 90 34 35
        E 112 80 34 35
        E 0 90 40 35
        E 32 80 40 35
        E 0 90 37 35
        E 112 80 37 35
        E 0 90 40 35
        E 128 80 40 35
        E 0 90 41 35
        E 80 80 41 35
        E 0 90 32 35
        E 64 80 32 35
        E 0 90 3b 35
        E 48 80 3b 35
        E 0 90 39 35
        E 0 90 34 35
        E 112 80 34 35
        E 0 90 40 35
        E 32 80 40 35
        E 0 90 37 35
        E 112 80 37 35
        E 0 90 40 35
        E 128 80 40 35
        E 0 90 41 35
        E 80 80 41 35
        E 0 90 32 35
        E 64 80 32 35
        E 0 90 3b 35
        E 48 80 3b 35
        E 0 90 39 35
        E 0 90 34 35
        E 112 80 34 35
        E 0 90 40 35
        E 32 80 40 35
        E 0 90 37 35
        E 112 80 37 35
        E 0 90 40 35
        E 128 80 40 35
        E 0 90 41 35
        E 80 80 41 35
        E 0 90 32 35
        E 64 80 32 35
        E 0 90 3b 35
        E 48 80 3b 35
        E 0 90 39 35
        E 0 90 34 35
        E 112 80 34 35
        E 0 90 40 35
        E 32 80 40 35
        E 0 90 37 35
        E 112 80 37 35
        E 0 90 40 35
        E 128 80 40 35
        E 0 90 41 35
        E 80 80 41 35
        E 0 90 32 35
        E 64 80 32 35
        E 0 90 3b 35
        E 48 80 3b 35
        E 0 90 39 35
        E 0 90 34 35
        E 112 80 34 35
        E 0 90 40 35
        E 32 80 40 35
        E 0 90 37 35
        E 112 80 37 35
        E 0 90 40 35
        E 128 80 40 35
        E 0 90 41 35
        E 80 80 41 35
        E 0 90 32 35
        E 64 80 32 35
        E 0 90 3b 35
        E 48 80 3b 35
        E 0 90 39 35
        E 0 90 34 35
        E 112 80 34 35
        E 0 90 40 35
        E 32 80 40 35
        E 0 90 37 35
        E 112 80 37 35
        E 0 90 40 35
        E 128 80 40 35
        E 0 90 41 35
        E 80 80 41 35
        E 0 90 32 35
        E 64 80 32 35
        E 0 90 3b 35
        E 48 80 3b 35
        E 0 90 39 35
        E 0 90 34 35
        E 112 80 34 35
        E 0 90 40 35
        E 32 80 40 35
        E 0 90 37 35
        E 112 80 37 35
        E 0 90 40 35
        E 128 80 40 35
        E 0 90 41 35
        E 80 80 41 35
        E 0 90 32 35
        E 64 80 32 35
        E 0 90 3b 35
        E 48 80 3b 35
        E 0 90 39 35
        E 0 90 34 35
        E 112 80 34 35
        E 0 90 40 35
        E 32 80 40 35
        E 0 90 37 35
        E 112 80 37 35
        E 0 90 40 35
        E 128 80 40 35
        E 0 90 41 35
        E 80 80 41 35
        E 0 90 3b 35
        E 48 80 3b 35
        E 0 90 39 35
        E 0 90 34 35
        E 112 80 34 35
        E 0 90 40 35
        E 32 80 40 35
        E 0 90 37 35
        E 112 80 37 35
        E 0 90 40 35
        E 128 80 40 35
        E 0 90 3b 35
        E 48 80 3b 35
        E 0 90 39 35
        E 0 90 34 35
        E 112 80 34 35
        E 0 90 40 35
        E 32 80 40 35
        E 0 90 37 35
        E 112 80 37 35
        E 0 90 40 35
        E 128 80 40 35
        E 0 90 3b 35
        E 48 80 3b 35
        E 0 90 39 35
        E 0 90 34 35
        E 112 80 34 35
        E 0 90 40 35
        E 32 80 40 35
        E 0 90 37 35
        E 112 80 37 35
        E 0 90 40 35
        E 128 80 40 35
        E 0 90 3b 35
        E 48 80 3b 35
        E 0 90 39 35
        E 0 90 34 35
        E 112 80 34 35
        E 0 90 40 35
        E 32 80 40 35
        E 0 90 37 35
        E 112 80 37 35
        E 0 90 40 35
        E 128 80 40 35
        E 0 90 3b 35
        E 48 80 3b 35
        E 0 90 39 35
        E 0 90 34 35
        E 112 80 34 35
        E 0 90 40 35
        E 32 80 40 35
        E 0 90 37 35
        E 112 80 37 35
        E 0 90 40 35
        E 128 80 40 35
        E 0 90 3b 35
        E 48 80 3b 35
        E 0 90 39 35
        E 0 90 34 35
        E 112 80 34 35
        E 0 90 40 35
        E 32 80 40 35
        E 0 90 37 35
        E 112 80 37 35
        E 0 90 40 35
        E 128 80 40 35
        E 0 90 3b 35
        E 48 80 3b 35
        E 0 90 39 35
        E 0 90 34 35
        E 112 80 34 35
        E 0 90 40 35
        E 32 80 40 35
        E 0 90 37 35
        E 112 80 37 35
        E 0 90 40 35
        E 128 80 40 35
        E 0 90 3b 35
        E 48 80 3b 35
        E 0 90 39 35
        E 0 90 34 35
        E 112 80 34 35
        E 0 90 40 35
        E 32 80 40 35
        E 0 90 37 35
        E 112 80 37 35
        E 0 90 40 35
        E 128 80 40 35
        E 0 90 3b 35
        E 48 80 3b 35
        E 0 90 39 35
        E 0 90 34 35
        E 112 80 34 35
        E 0 90 40 35
        E 32 80 40 35
        E 0 90 37 35
        E 112 80 37 35
        E 0 90 40 35
        E 128 80 40 35
        E 0 90 3b 35
        E 48 80 3b 35
        E 0 90 39 35
        E 0 90 34 35
        E 112 80 34 35
        E 0 90 40 35
        E 32 80 40 35
        E 0 90 37 35
        E 112 80 37 35
        E 0 90 40 35
        E 128 80 40 35
        E 0 90 3b 35
        E 48 80 3b 35
        E 0 90 39 35
        E 0 90 34 35
        E 112 80 34 35
        E 0 90 40 35
        E 32 80 40 35
        E 0 90 37 35
        E 112 80 37 35
        E 0 90 40 35
        E 128 80 40 35
        E 0 90 3b 35
        E 48 80 3b 35
        E 0 90 39 35
        E 0 90 34 35
        E 112 80 34 35
        E 0 90 40 35
        E 32 80 40 35
        E 0 90 37 35
        E 112 80 37 35
        E 0 90 40 35
        E 128 80 40 35
        E 0 90 3b 35
        E 48 80 3b 35
        E 0 90 39 35
        E 0 90 34 35
        E 112 80 34 35
        E 0 90 40 35
        E 32 80 40 35
        E 0 90 37 35
        E 112 80 37 35
        E 0 90 40 35
        E 128 80 40 35
        E 0 90 3b 35
        E 48 80 3b 35
        E 0 90 39 35
        E 0 90 34 35
        E 112 80 34 35
        E 0 90 40 35
        E 32 80 40 35
        E 0 90 37 35
        E 112 80 37 35
        E 0 90 40 35
        E 128 80 40 35
        E 0 90 3b 35
        E 48 80 3b 35
        E 0 90 39 35
        E 0 90 34 35
        E 112 80 34 35
        E 0 90 40 35
        E 32 80 40 35
        E 0 90 37 35
        E 112 80 37 35
        E 0 90 40 35
        E 128 80 40 35
        E 0 90 3b 35
        E 48 80 3b 35
        E 0 90 39 35
        E 0 90 34 35
        E 112 80 34 35
        E 0 90 40 35
        E 32 80 40 35
        E 0 90 37 35
        E 112 80 37 35
        E 0 90 40 35
        E 128 80 40 35
        E 0 90 3b 35
        E 48 80 3b 35
        E 0 90 39 35
        E 0 90 34 35
        E 112 80 34 35
        E 0 90 40 35
        E 32 80 40 35
        E 0 90 37 35
        E 112 80 37 35
        E 0 90 40 35
        E 128 80 40 35
        E 0 90 3b 35
        E 48 80 3b 35
        E 0 90 39 35
        E 0 90 34 35
        E 112 80 34 35
        E 0 90 40 35
        E 32 80 40 35
        E 0 90 37 35
        E 112 80 37 35
        E 0 90 40 35
        E 128 80 40 35
        E 0 90 3b 35
        E 48 80 3b 35
        E 0 90 39 35
        E 0 90 34 35
        E 112 80 34 35
        E 0 90 40 35
        E 32 80 40 35
        E 0 90 37 35
        E 112 80 37 35
        E 0 90 40 35
        E 128 80 40 35
        E 0 90 3b 35
        E 48 80 3b 35
        E 0 90 39 35
        E 0 90 34 35
        E 112 80 34 35
        E 0 90 40 35
        E 32 80 40 35
        E 0 90 37 35
        E 112 80 37 35
        E 0 90 40 35
        E 128 80 40 35
        E 0 90 3b 35
        E 48 80 3b 35
        E 0 90 39 35
        E 0 90 34 35
        E 112 80 34 35
        E 0 90 40 35
        E 32 80 40 35
        E 0 90 37 35
        E 112 80 37 35
        E 0 90 40 35
        E 128 80 40 35
        E 0 90 3b 35
        E 48 80 3b 35
        E 0 90 39 35
        E 0 90 34 35
        E 112 80 34 35
        E 0 90 40 35
        E 32 80 40 35
        E 0 90 37 35
        E 112 80 37 35
        E 0 90 40 35
        E 128 80 40 35
        E 0 90 3b 35
        E 48 80 3b 35
        E 0 90 39 35
        E 0 90 34 35
        E 112 80 34 35
        E 0 90 40 35
        E 32 80 40 35
        E 0 90 37 35
        E 112 80 37 35
        E 0 90 40 35
        E 128 80 40 35
        E 0 90 3b 35
        E 48 80 3b 35
        E 0 90 39 35
        E 0 90 34 35
        E 112 80 34 35
        E 0 90 40 35
        E 32 80 40 35
        E 0 90 37 35
        E 112 80 37 35
        E 0 90 40 35
        E 128 80 40 35
        E 0 90 3b 35
        E 48 80 3b 35
        E 0 90 39 35
        E 0 90 34 35
        E 112 80 34 35
        E 0 90 40 35
        E 32 80 40 35
        E 0 90 37 35
        E 112 80 37 35
        E 0 90 40 35
        E 128 80 40 35
        E 0 90 3b 35
        E 48 80 3b 35
        E 0 90 39 35
        E 0 90 34 35
        E 112 80 34 35
        E 0 90 40 35
        E 32 80 40 35
        E 0 90 37 35
        E 112 80 37 35
        E 0 90 40 35
        E 128 80 40 35
        E 0 90 3b 35
        E 48 80 3b 35
        E 0 90 39 35
        E 0 90 34 35
        E 112 80 34 35
        E 0 90 40 35
        E 32 80 40 35
        E 0 90 37 35
        E 112 80 37 35
        E 0 90 40 35
        E 128 80 40 35
        E 0 90 3b 35
        E 48 80 3b 35
        E 0 90 39 35
        E 0 90 34 35
        E 112 80 34 35
        E 0 90 40 35
        E 32 80 40 35
        E 0 90 37 35
        E 112 80 37 35
        E 0 90 40 35
        E 128 80 40 35
        E 0 90 3b 35
        E 48 80 3b 35
        E 0 90 39 35
        E 0 90 34 35
        E 112 80 34 35
        E 0 90 40 35
        E 32 80 40 35
        E 0 90 37 35
        E 112 80 37 35
        E 0 90 40 35
        E 128 80 40 35
        E 0 90 3b 35
        E 48 80 3b 35
        E 0 90 39 35
        E 0 90 34 35
        E 112 80 34 35
        E 0 90 40 35
        E 32 80 40 35
        E 0 90 37 35
        E 112 80 37 35
        E 0 90 40 35
        E 128 80 40 35
        E 0 90 3b 35
        E 48 80 3b 35
        E 0 90 39 35
        E 0 90 34 35
        E 112 80 34 35
        E 0 90 40 35
        E 32 80 40 35
        E 0 90 37 35
        E 112 80 37 35
        E 0 90 40 35
        E 128 80 40 35
        E 0 90 3b 35
        E 48 80 3b 35
        E 0 90 39 35
        E 0 90 34 35
        E 112 80 34 35
        E 0 90 40 35
        E 32 80 40 35
        E 0 90 37 35
        E 112 80 37 35
        E 0 90 40 35
        E 128 80 40 35
        E 0 90 3b 35
        E 48 80 3b 35
        E 0 90 39 35
        E 0 90 34 35
        E 112 80 34 35
        E 0 90 40 35
        E 32 80 40 35
        E 0 90 37 35
        E 112 80 37 35
        E 0 90 40 35
        E 128 80 40 35
        E 0 90 3b 35
        E 48 80 3b 35
        E 0 90 39 35
        E 0 90 34 35
        E 112 80 34 35
        E 0 90 40 35
        E 32 80 40 35
        E 0 90 37 35
        E 112 80 37 35
        E 0 90 40 35
        E 128 80 40 35
        E 0 90 3b 35
        E 48 80 3b 35
        E 0 90 39 35
        E 0 90 34 35
        E 112 80 34 35
        E 0 90 40 35
        E 32 80 40 35
        E 0 90 37 35
        E 112 80 37 35
        E 0 90 40 35
        E 128 80 40 35
        E 0 90 3b 35
        E 48 80 3b 35
        E 0 90 39 35
        E 0 90 34 35
        E 112 80 34 35
        E 0 90 40 35
        E 32 80 40 35
        E 0 90 37 35
        E 112 80 37 35
        E 0 90 40 35
        E 128 80 40 35
        E 0 90 3b 35
        E 48 80 3b 35
        E 0 90 39 35
        E 0 90 34 35
        E 112 80 34 35
        E 0 90 40 35
        E 32 80 40 35
        E 0 90 37 35
        E 112 80 37 35
        E 0 90 40 35
        E 128 80 40 35
        E 0 90 3b 35
        E 48 80 3b 35
        E 0 90 39 35
        E 0 90 34 35
        E 112 80 34 35
        E 0 90 40 35
        E 32 80 40 35
        E 0 90 37 35
        E 112 80 37 35
        E 0 90 40 35
        E 128 80 40 35
        E 0 90 3b 35
        E 48 80 3b 35
        E 0 90 39 35
        E 0 90 34 35
        E 112 80 34 35
        E 0 90 40 35
        E 32 80 40 35
        E 0 90 37 35
        E 112 80 37 35
        E 0 90 40 35
        E 128 80 40 35
        E 0 90 3b 35
        E 48 80 3b 35
        E 0 90 39 35
        E 0 90 34 35
        E 112 80 34 35
        E 0 90 40 35
        E 32 80 40 35
        E 0 90 37 35
        E 112 80 37 35
        E 0 90 40 35
        E 128 80 40 35
        E 0 90 39 35
        E 128 80 39 35
        E 0 90 39 35
        E 128 80 39 35
        E 0 90 39 35
        E 128 80 39 35
        E 0 90 39 35
        E 128 80 39 35
        E 0 90 39 35
        E 128 80 39 35
        E 0 90 39 35
        E 128 80 39 35
        E 0 90 39 35
        E 128 80 39 35
        E 0 90 39 35
        E 127 80 39 35
        E 1 b0 7b 00
        CCINTERP 32
        CHASE_CC_TAKEOFFS 1
        GUID {6AD2EC23-71C3-1E4F-A586-F9E463B5F478}
        IGNTEMPO 0 120 4 4
        SRCCOLOR 134
        VELLANE 3 601 0
        VELLANE -1 196 0
        CFGEDITVIEW 0 0.008186 62 12 0 -1 0 0 0 0.5
        KEYSNAP 0
        TRACKSEL 252
        EVTFILTER 0 -1 -1 -1 -1 0 0 0 0 -1 -1 -1 -1 0 -1 0 -1 -1
        CFGEDIT 1 1 0 1 0 0 1 1 1 1 1 0.125 0 0 1792 1095 0 0 0 0 0 0 0 0 0 0.5 0 0 1 64
      >
    >
  >
  <TRACK {FC87D7F5-D35E-CE48-9BF3-D194DB16D61D}
    NAME "germ-x hand sanitizer"
    PEAKCOL 16576
    BEAT -1
    AUTOMODE 0
    VOLPAN 1 0 -1 -1 1
    MUTESOLO 0 0 0
    IPHASE 0
    PLAYOFFS 0 1
    ISBUS 0 0
    BUSCOMP 0 0 0 0 0
    SHOWINMIX 1 0.6667 0.5 1 0.5 0 -1 0
    FREEMODE 0
    SEL 0
    REC 0 0 1 0 0 0 0
    VU 2
    TRACKHEIGHT 0 0 0 0 -1 0
    INQ 0 0 0 0.5 100 0 0 100
    NCHAN 2
    FX 1
    TRACKID {FC87D7F5-D35E-CE48-9BF3-D194DB16D61D}
    PERF 0
    MIDIOUT -1
    MAINSEND 1 0
    <FXCHAIN
      SHOW 0
      LASTSEL 0
      DOCKED 0
      BYPASS 0 0 0
      <VST "VSTi: FM8 (Native Instruments GmbH)" FM8.vst 0 "" 1315530296<5653544E696638666D38000000000000> ""
        OGZpTu5e7f4AAAAAAgAAAAEAAAAAAAAAAgAAAAAAAAAYBwAAAQAAAAAAEAA=
        GAcAAAAAAAABAAAAaHNpbgEAAAAAAAAAN455D8DDx0mHoN4j0l/0WZYAAAAAAAAARFNJTnYAAAABAAAASAAAAAAAAABEU0lOagAAAAEAAAAYAAAAAAAAAERTSU4BAAAA
        AQAAAAEAAAABAAAAAQAAAAEAAAAAAAAAAAAAAAAAAAANYmWFAQAAAAhwEAAAAAAAAQAAAAEAAAAAAAAAAAAAAAAAAAADAAAAMAAwADAAAAAAAAAAAAAAAAAAAAAAAAEA
        AAABAAAAAAAAAERTSU5lAAAARgYAAAAAAAABAAAAaHNpbgEAAAAAAAAAMOH4NwAUwEaoogAOyNUgkW0AAAAAAAAARFNJTmUAAAABAAAANAAAAAAAAABEU0lOagAAAAEA
        AAAYAAAAAAAAAERTSU4BAAAAAQAAAAEAAAABAAAAAgAAAAEAAAAACAAAAAEAAAAKAAAAMQAuADIALgAwAC4AMQAwADEAMAABAAAAAwAAAAAAAABEU0lObAAAAKgBAAAA
        AAAAAQAAAGhzaW4BAAAAAAAAACA7190CLVtKvWPIjKqbw/t4AQAAAAAAAERTSU5sAAAAAQAAABgAAAAAAAAARFNJTgEAAAABAAAAAQAAAAEAAAACAAAAAQAAAAAAAAAI
        AAAATgBlAHcAUwBvAHUAbgBkAAcAAABuAG8AdAAgAHMAZQB0AAAAAAAAAAAAAAAAAAAAAAAAAAAAAAAAAAAAAAAAAAAAAAAAAAEAAAABAAAAAQAAAAMAAABGAE0AOAAA
        AAAAAAAAAAcAAAAHAAAAXABAAGMAbwBsAG8AcgABAAAAMAARAAAAXABAAGQAZQB2AGkAYwBlAHQAeQBwAGUAZgBsAGEAZwBzAAEAAAAxAAsAAABcAEAAcwBvAHUAbgBk
        AHQAeQBwAGUAAQAAADAABwAAAFwAQAB0AGUAbQBwAG8AAQAAADAABgAAAFwAQAB2AGUAcgBsAAUAAAAxAC4ANwAuADgABgAAAFwAQAB2AGUAcgBtAAUAAAAxAC4ANwAu
        ADgABwAAAFwAQAB2AGkAcwBpAGIAAQAAADAAAQAAAAAAAAACAAAARFNJTnkAAABoAAAAAAAAAAEAAABoc2luAQAAAAAAAABG64vCmumHRIQ9Mih2ujahOAAAAAAAAABE
        U0lOeQAAAAEAAAAYAAAAAAAAAERTSU4BAAAAAQAAAAEAAAABAAAAAQAAAAAAAAABAAAAAAAAAAEAAABEU0lOdAAAAHUDAAAAAAAAAQAAAGhzaW4BAAAAAAAAAMPiDYJz
        LJxOuWtBgMMVvqRFAwAAAAAAAERTSU50AAAAAQAAACwDAAAAAAAARFNJTnMAAAABAAAAGAAAAAAAAABEU0lOAQAAAAEAAAABAAAAAQAAAAG9DwAA8wIAAAK9DwBgAAAB
        IAUDaHNpbkAHQAAQHyRrBvAZSEqYrqFXTcEPPBhAFCAAA0RTSU5AI+AHA0AAQBsAbSAIAWkPIAQgAEAj4ANTEEkCYzKs2sVGp2B2wrYRj5w5oCfAN0Av4BdnQCMB8Q4g
        XCAAAAUgAwFjDCAEIAAIdHNycEU4TUbPIAsEvCMAAAcgBwZkZWZhdWx04BgKICoAP+ACAwNBAACAIA8AoCAH4AsAAPAgF0AfwAAAICAPwABgFwVAAABIQgDgBABAD0AD
        4BcfYAAge+AEA0AAwBPgAwBAE+AAAAPNzMw+IAwDP5qZGUAXwAPgABcgCuAHG0ATQADgBwdAACATYKtAACALYANAAEALQAAg42AAwA9AB0AD4AMAwA9AB0ADwABAC8AD
        QADAC8AHQADgAwtAAEAP4AMAIA/Bn8AHAMjhDnPgHwDgAO/gDgBAX0ADwABBz8H7QAtAAwCgIINAB0AAALQgCwCWIAPgAwDAP0AHQAPAAEAz4MdLIAAAAcAAIAuAAAAC
        wACADuAdAOAALAD+4B0v4CEAABTgISrgMADBA+AKAGBTgAXgAABChuAXA+AeAOD9WSBZIkBBUgH6Q0AH4FUMQ9VAZwH6Q6BnBYA/zLyMK+BVDOABACBnBAA/ZmZmYAPg
        YwwgAABwJOwB/kJAdCAA4D4MosLgAFaAAKBjgADgOAwgYwRwwgAAhmC6JliAA0BW4EEMIGPgAE3g8AAAUCAA4Of8AP/gFwAABEERCggyAwAAQDIAAAA8QikgAwHwQmLY
        AAEgAYLiIAcgAkKVgAagCSA3oAkgSKAJKxegCQAG4AAJKwSgEyAAoAmASKAGoBPgwk/gSwAAEaBUA2tuYWJBMcAAAYAAIAAAGaARA2N0bmlMiwERJ2FcTFBAAEocAaBC
        4hMPTInAH00bwAvg/QDgvQABIACAAANzaXVnQiQA6CNxwAAAKiAIABkgAyOYYAAj0mAAB2dwdGNZVE1FQAwLDWJlhQEAAAAAAAAAAQAAAAABAAAAAAAAAA==
        ADxkaXNhYmxlZD4AEAAAAA==
      >
      PRESETNAME <disabled>
      FLOATPOS 0 0 0 0
      FXID {BE588745-58A1-C04C-AB4F-27C7A9750236}
      WAK 0 0
    >
    <ITEM
      POSITION 121.080960000012
      SNAPOFFS 0
      LENGTH 228.64841999998799
      LOOP 1
      ALLTAKES 0
      FADEIN 1 0 0 1 0 0
      FADEOUT 1 0 0 1 0 0
      MUTE 0 0
      SEL 0
      IGUID {180FD385-60FC-7E4C-A5E9-DF92B64D74A6}
      IID 25
      NAME "germ-x hand sanitizer.mid"
      VOLPAN 1 0 1 -1
      SOFFS 0 0
      PLAYRATE 1 1 0 -1 0 0.0025
      CHANMODE 0
      GUID {A2A0A9A5-B2F7-174E-8B90-9BCC4C2A97FB}
      <SOURCE MIDI
        HASDATA 1 128 QN
        CCINTERP 32
        POOLEDEVTS {E840CBA4-796E-9B45-B792-48560D93F26A}
        E 0 91 32 35
        E 170 81 32 35
        E 0 91 3b 35
        E 128 81 3b 35
        E 0 91 39 35
        E 0 91 34 35
        E 298 81 34 35
        E 0 91 40 35
        E 85 81 40 35
        E 0 91 37 35
        E 298 81 37 35
        E 0 91 40 35
        E 341 81 40 35
        E 0 91 41 35
        E 213 81 41 35
        E 0 91 32 35
        E 170 81 32 35
        E 0 91 3b 35
        E 128 81 3b 35
        E 0 91 39 35
        E 0 91 34 35
        E 298 81 34 35
        E 0 91 40 35
        E 85 81 40 35
        E 0 91 37 35
        E 298 81 37 35
        E 0 91 40 35
        E 341 81 40 35
        E 0 91 41 35
        E 213 81 41 35
        E 0 91 32 35
        E 170 81 32 35
        E 0 91 3b 35
        E 128 81 3b 35
        E 0 91 39 35
        E 0 91 34 35
        E 298 81 34 35
        E 0 91 40 35
        E 85 81 40 35
        E 0 91 37 35
        E 298 81 37 35
        E 0 91 40 35
        E 341 81 40 35
        E 0 91 41 35
        E 213 81 41 35
        E 0 91 32 35
        E 170 81 32 35
        E 0 91 3b 35
        E 128 81 3b 35
        E 0 91 39 35
        E 0 91 34 35
        E 298 81 34 35
        E 0 91 40 35
        E 85 81 40 35
        E 0 91 37 35
        E 298 81 37 35
        E 0 91 40 35
        E 341 81 40 35
        E 0 91 41 35
        E 213 81 41 35
        E 0 91 32 35
        E 170 81 32 35
        E 0 91 3b 35
        E 128 81 3b 35
        E 0 91 39 35
        E 0 91 34 35
        E 298 81 34 35
        E 0 91 40 35
        E 85 81 40 35
        E 0 91 37 35
        E 298 81 37 35
        E 0 91 40 35
        E 341 81 40 35
        E 0 91 41 35
        E 213 81 41 35
        E 0 91 32 35
        E 170 81 32 35
        E 0 91 3b 35
        E 128 81 3b 35
        E 0 91 39 35
        E 0 91 34 35
        E 298 81 34 35
        E 0 91 40 35
        E 85 81 40 35
        E 0 91 37 35
        E 298 81 37 35
        E 0 91 40 35
        E 341 81 40 35
        E 0 91 41 35
        E 213 81 41 35
        E 0 91 32 35
        E 170 81 32 35
        E 0 91 3b 35
        E 128 81 3b 35
        E 0 91 39 35
        E 0 91 34 35
        E 298 81 34 35
        E 0 91 40 35
        E 85 81 40 35
        E 0 91 37 35
        E 298 81 37 35
        E 0 91 40 35
        E 341 81 40 35
        E 0 91 41 35
        E 213 81 41 35
        E 0 91 32 35
        E 170 81 32 35
        E 0 91 3b 35
        E 128 81 3b 35
        E 0 91 39 35
        E 0 91 34 35
        E 298 81 34 35
        E 0 91 40 35
        E 85 81 40 35
        E 0 91 37 35
        E 298 81 37 35
        E 0 91 40 35
        E 341 81 40 35
        E 0 91 41 35
        E 213 81 41 35
        E 0 91 32 35
        E 170 81 32 35
        E 0 91 3b 35
        E 128 81 3b 35
        E 0 91 39 35
        E 0 91 34 35
        E 298 81 34 35
        E 0 91 40 35
        E 85 81 40 35
        E 0 91 37 35
        E 298 81 37 35
        E 0 91 40 35
        E 341 81 40 35
        E 0 91 41 35
        E 213 81 41 35
        E 0 91 32 35
        E 170 81 32 35
        E 0 91 3b 35
        E 128 81 3b 35
        E 0 91 39 35
        E 0 91 34 35
        E 298 81 34 35
        E 0 91 40 35
        E 85 81 40 35
        E 0 91 37 35
        E 298 81 37 35
        E 0 91 40 35
        E 341 81 40 35
        E 0 91 41 35
        E 213 81 41 35
        E 0 91 32 35
        E 170 81 32 35
        E 0 91 3b 35
        E 128 81 3b 35
        E 0 91 39 35
        E 0 91 34 35
        E 298 81 34 35
        E 0 91 40 35
        E 85 81 40 35
        E 0 91 37 35
        E 298 81 37 35
        E 0 91 40 35
        E 341 81 40 35
        E 0 91 41 35
        E 213 81 41 35
        E 0 91 32 35
        E 170 81 32 35
        E 0 91 3b 35
        E 128 81 3b 35
        E 0 91 39 35
        E 0 91 34 35
        E 298 81 34 35
        E 0 91 40 35
        E 85 81 40 35
        E 0 91 37 35
        E 298 81 37 35
        E 0 91 40 35
        E 341 81 40 35
        E 0 91 41 35
        E 213 81 41 35
        E 0 91 32 35
        E 170 81 32 35
        E 0 91 3b 35
        E 128 81 3b 35
        E 0 91 39 35
        E 0 91 34 35
        E 298 81 34 35
        E 0 91 40 35
        E 85 81 40 35
        E 0 91 37 35
        E 298 81 37 35
        E 0 91 40 35
        E 341 81 40 35
        E 0 91 41 35
        E 213 81 41 35
        E 0 91 32 35
        E 170 81 32 35
        E 0 91 3b 35
        E 128 81 3b 35
        E 0 91 39 35
        E 0 91 34 35
        E 298 81 34 35
        E 0 91 40 35
        E 85 81 40 35
        E 0 91 37 35
        E 298 81 37 35
        E 0 91 40 35
        E 341 81 40 35
        E 0 91 41 35
        E 213 81 41 35
        E 0 91 32 35
        E 170 81 32 35
        E 0 91 3b 35
        E 128 81 3b 35
        E 0 91 39 35
        E 0 91 34 35
        E 298 81 34 35
        E 0 91 40 35
        E 85 81 40 35
        E 0 91 37 35
        E 298 81 37 35
        E 0 91 40 35
        E 341 81 40 35
        E 0 91 41 35
        E 213 81 41 35
        E 0 91 32 35
        E 170 81 32 35
        E 0 91 3b 35
        E 128 81 3b 35
        E 0 91 39 35
        E 0 91 34 35
        E 298 81 34 35
        E 0 91 40 35
        E 85 81 40 35
        E 0 91 37 35
        E 298 81 37 35
        E 0 91 40 35
        E 341 81 40 35
        E 0 91 41 35
        E 213 81 41 35
        E 0 91 32 35
        E 170 81 32 35
        E 0 91 3b 35
        E 128 81 3b 35
        E 0 91 39 35
        E 0 91 34 35
        E 298 81 34 35
        E 0 91 40 35
        E 85 81 40 35
        E 0 91 37 35
        E 298 81 37 35
        E 0 91 40 35
        E 341 81 40 35
        E 0 91 41 35
        E 213 81 41 35
        E 0 91 32 35
        E 170 81 32 35
        E 0 91 3b 35
        E 128 81 3b 35
        E 0 91 39 35
        E 0 91 34 35
        E 298 81 34 35
        E 0 91 40 35
        E 85 81 40 35
        E 0 91 37 35
        E 298 81 37 35
        E 0 91 40 35
        E 341 81 40 35
        E 0 91 41 35
        E 213 81 41 35
        E 0 91 32 35
        E 170 81 32 35
        E 0 91 3b 35
        E 128 81 3b 35
        E 0 91 39 35
        E 0 91 34 35
        E 298 81 34 35
        E 0 91 40 35
        E 85 81 40 35
        E 0 91 37 35
        E 298 81 37 35
        E 0 91 40 35
        E 341 81 40 35
        E 0 91 41 35
        E 213 81 41 35
        E 0 91 32 35
        E 170 81 32 35
        E 0 91 3b 35
        E 128 81 3b 35
        E 0 91 39 35
        E 0 91 34 35
        E 298 81 34 35
        E 0 91 40 35
        E 85 81 40 35
        E 0 91 37 35
        E 298 81 37 35
        E 0 91 40 35
        E 341 81 40 35
        E 0 91 41 35
        E 213 81 41 35
        E 0 91 32 35
        E 170 81 32 35
        E 0 91 3b 35
        E 128 81 3b 35
        E 0 91 39 35
        E 0 91 34 35
        E 298 81 34 35
        E 0 91 40 35
        E 85 81 40 35
        E 0 91 37 35
        E 298 81 37 35
        E 0 91 40 35
        E 341 81 40 35
        E 0 91 41 35
        E 213 81 41 35
        E 0 91 32 35
        E 170 81 32 35
        E 0 91 3b 35
        E 128 81 3b 35
        E 0 91 39 35
        E 0 91 34 35
        E 298 81 34 35
        E 0 91 40 35
        E 85 81 40 35
        E 0 91 37 35
        E 298 81 37 35
        E 0 91 40 35
        E 341 81 40 35
        E 0 91 41 35
        E 213 81 41 35
        E 0 91 32 35
        E 170 81 32 35
        E 0 91 3b 35
        E 128 81 3b 35
        E 0 91 39 35
        E 0 91 34 35
        E 298 81 34 35
        E 0 91 40 35
        E 85 81 40 35
        E 0 91 37 35
        E 298 81 37 35
        E 0 91 40 35
        E 341 81 40 35
        E 0 91 41 35
        E 213 81 41 35
        E 0 91 32 35
        E 170 81 32 35
        E 0 91 3b 35
        E 128 81 3b 35
        E 0 91 39 35
        E 0 91 34 35
        E 298 81 34 35
        E 0 91 40 35
        E 85 81 40 35
        E 0 91 37 35
        E 298 81 37 35
        E 0 91 40 35
        E 341 81 40 35
        E 0 91 41 35
        E 213 81 41 35
        E 0 91 3b 35
        E 128 81 3b 35
        E 0 91 39 35
        E 0 91 34 35
        E 298 81 34 35
        E 0 91 40 35
        E 85 81 40 35
        E 0 91 37 35
        E 298 81 37 35
        E 0 91 40 35
        E 341 81 40 35
        E 0 91 3b 35
        E 128 81 3b 35
        E 0 91 39 35
        E 0 91 34 35
        E 298 81 34 35
        E 0 91 40 35
        E 85 81 40 35
        E 0 91 37 35
        E 298 81 37 35
        E 0 91 40 35
        E 341 81 40 35
        E 0 91 3b 35
        E 128 81 3b 35
        E 0 91 39 35
        E 0 91 34 35
        E 298 81 34 35
        E 0 91 40 35
        E 85 81 40 35
        E 0 91 37 35
        E 298 81 37 35
        E 0 91 40 35
        E 341 81 40 35
        E 0 91 3b 35
        E 128 81 3b 35
        E 0 91 39 35
        E 0 91 34 35
        E 298 81 34 35
        E 0 91 40 35
        E 85 81 40 35
        E 0 91 37 35
        E 298 81 37 35
        E 0 91 40 35
        E 341 81 40 35
        E 0 91 3b 35
        E 128 81 3b 35
        E 0 91 39 35
        E 0 91 34 35
        E 298 81 34 35
        E 0 91 40 35
        E 85 81 40 35
        E 0 91 37 35
        E 298 81 37 35
        E 0 91 40 35
        E 341 81 40 35
        E 0 91 3b 35
        E 128 81 3b 35
        E 0 91 39 35
        E 0 91 34 35
        E 298 81 34 35
        E 0 91 40 35
        E 85 81 40 35
        E 0 91 37 35
        E 298 81 37 35
        E 0 91 40 35
        E 341 81 40 35
        E 0 91 3b 35
        E 128 81 3b 35
        E 0 91 39 35
        E 0 91 34 35
        E 298 81 34 35
        E 0 91 40 35
        E 85 81 40 35
        E 0 91 37 35
        E 298 81 37 35
        E 0 91 40 35
        E 341 81 40 35
        E 0 91 3b 35
        E 128 81 3b 35
        E 0 91 39 35
        E 0 91 34 35
        E 298 81 34 35
        E 0 91 40 35
        E 85 81 40 35
        E 0 91 37 35
        E 298 81 37 35
        E 0 91 40 35
        E 341 81 40 35
        E 0 91 3b 35
        E 128 81 3b 35
        E 0 91 39 35
        E 0 91 34 35
        E 298 81 34 35
        E 0 91 40 35
        E 85 81 40 35
        E 0 91 37 35
        E 298 81 37 35
        E 0 91 40 35
        E 341 81 40 35
        E 0 91 3b 35
        E 128 81 3b 35
        E 0 91 39 35
        E 0 91 34 35
        E 298 81 34 35
        E 0 91 40 35
        E 85 81 40 35
        E 0 91 37 35
        E 298 81 37 35
        E 0 91 40 35
        E 341 81 40 35
        E 0 91 3b 35
        E 128 81 3b 35
        E 0 91 39 35
        E 0 91 34 35
        E 298 81 34 35
        E 0 91 40 35
        E 85 81 40 35
        E 0 91 37 35
        E 298 81 37 35
        E 0 91 40 35
        E 341 81 40 35
        E 0 91 3b 35
        E 128 81 3b 35
        E 0 91 39 35
        E 0 91 34 35
        E 298 81 34 35
        E 0 91 40 35
        E 85 81 40 35
        E 0 91 37 35
        E 298 81 37 35
        E 0 91 40 35
        E 341 81 40 35
        E 0 91 3b 35
        E 128 81 3b 35
        E 0 91 39 35
        E 0 91 34 35
        E 298 81 34 35
        E 0 91 40 35
        E 85 81 40 35
        E 0 91 37 35
        E 298 81 37 35
        E 0 91 40 35
        E 341 81 40 35
        E 0 91 3b 35
        E 128 81 3b 35
        E 0 91 39 35
        E 0 91 34 35
        E 298 81 34 35
        E 0 91 40 35
        E 85 81 40 35
        E 0 91 37 35
        E 298 81 37 35
        E 0 91 40 35
        E 341 81 40 35
        E 0 91 3b 35
        E 128 81 3b 35
        E 0 91 39 35
        E 0 91 34 35
        E 298 81 34 35
        E 0 91 40 35
        E 85 81 40 35
        E 0 91 37 35
        E 298 81 37 35
        E 0 91 40 35
        E 341 81 40 35
        E 102 b0 7b 00
        CCINTERP 32
        CHASE_CC_TAKEOFFS 1
        GUID {C69B5370-0868-1747-8869-FBC728AF1D5F}
        IGNTEMPO 0 120 4 4
        SRCCOLOR 592
        VELLANE 3 601 0
        VELLANE -1 196 0
        CFGEDITVIEW 0 0.008186 62 12 0 -1 0 0 0 0.5
        KEYSNAP 0
        TRACKSEL 252
        EVTFILTER 0 -1 -1 -1 -1 0 0 0 0 -1 -1 -1 -1 0 -1 0 -1 -1
        CFGEDIT 1 1 0 1 0 0 1 1 1 1 1 0.125 0 0 1792 1095 0 0 0 0 0 0 0 0 0 0.5 0 0 1 64
      >
    >
  >
  <TRACK {5D586852-F371-CB48-A04C-C9374E999FCB}
    NAME "germ-x hand sanitizer"
    PEAKCOL 16576
    BEAT -1
    AUTOMODE 0
    VOLPAN 1 0 -1 -1 1
    MUTESOLO 0 0 0
    IPHASE 0
    PLAYOFFS 0 1
    ISBUS 0 0
    BUSCOMP 0 0 0 0 0
    SHOWINMIX 1 0.6667 0.5 1 0.5 0 -1 0
    FREEMODE 0
    SEL 0
    REC 0 0 1 0 0 0 0
    VU 2
    TRACKHEIGHT 0 0 0 0 -1 0
    INQ 0 0 0 0.5 100 0 0 100
    NCHAN 2
    FX 1
    TRACKID {5D586852-F371-CB48-A04C-C9374E999FCB}
    PERF 0
    MIDIOUT -1
    MAINSEND 1 0
    <FXCHAIN
      SHOW 0
      LASTSEL 0
      DOCKED 0
      BYPASS 0 0 0
      <VST "VSTi: FM8 (Native Instruments GmbH)" FM8.vst 0 "" 1315530296<5653544E696638666D38000000000000> ""
        OGZpTu5e7f4AAAAAAgAAAAEAAAAAAAAAAgAAAAAAAAAYBwAAAQAAAAAAEAA=
        GAcAAAAAAAABAAAAaHNpbgEAAAAAAAAAN455D8DDx0mHoN4j0l/0WZYAAAAAAAAARFNJTnYAAAABAAAASAAAAAAAAABEU0lOagAAAAEAAAAYAAAAAAAAAERTSU4BAAAA
        AQAAAAEAAAABAAAAAQAAAAEAAAAAAAAAAAAAAAAAAAANYmWFAQAAAAhwEAAAAAAAAQAAAAEAAAAAAAAAAAAAAAAAAAADAAAAMAAwADAAAAAAAAAAAAAAAAAAAAAAAAEA
        AAABAAAAAAAAAERTSU5lAAAARgYAAAAAAAABAAAAaHNpbgEAAAAAAAAAMOH4NwAUwEaoogAOyNUgkW0AAAAAAAAARFNJTmUAAAABAAAANAAAAAAAAABEU0lOagAAAAEA
        AAAYAAAAAAAAAERTSU4BAAAAAQAAAAEAAAABAAAAAgAAAAEAAAAACAAAAAEAAAAKAAAAMQAuADIALgAwAC4AMQAwADEAMAABAAAAAwAAAAAAAABEU0lObAAAAKgBAAAA
        AAAAAQAAAGhzaW4BAAAAAAAAACA7190CLVtKvWPIjKqbw/t4AQAAAAAAAERTSU5sAAAAAQAAABgAAAAAAAAARFNJTgEAAAABAAAAAQAAAAEAAAACAAAAAQAAAAAAAAAI
        AAAATgBlAHcAUwBvAHUAbgBkAAcAAABuAG8AdAAgAHMAZQB0AAAAAAAAAAAAAAAAAAAAAAAAAAAAAAAAAAAAAAAAAAAAAAAAAAEAAAABAAAAAQAAAAMAAABGAE0AOAAA
        AAAAAAAAAAcAAAAHAAAAXABAAGMAbwBsAG8AcgABAAAAMAARAAAAXABAAGQAZQB2AGkAYwBlAHQAeQBwAGUAZgBsAGEAZwBzAAEAAAAxAAsAAABcAEAAcwBvAHUAbgBk
        AHQAeQBwAGUAAQAAADAABwAAAFwAQAB0AGUAbQBwAG8AAQAAADAABgAAAFwAQAB2AGUAcgBsAAUAAAAxAC4ANwAuADgABgAAAFwAQAB2AGUAcgBtAAUAAAAxAC4ANwAu
        ADgABwAAAFwAQAB2AGkAcwBpAGIAAQAAADAAAQAAAAAAAAACAAAARFNJTnkAAABoAAAAAAAAAAEAAABoc2luAQAAAAAAAABG64vCmumHRIQ9Mih2ujahOAAAAAAAAABE
        U0lOeQAAAAEAAAAYAAAAAAAAAERTSU4BAAAAAQAAAAEAAAABAAAAAQAAAAAAAAABAAAAAAAAAAEAAABEU0lOdAAAAHUDAAAAAAAAAQAAAGhzaW4BAAAAAAAAAMPiDYJz
        LJxOuWtBgMMVvqRFAwAAAAAAAERTSU50AAAAAQAAACwDAAAAAAAARFNJTnMAAAABAAAAGAAAAAAAAABEU0lOAQAAAAEAAAABAAAAAQAAAAG9DwAA8wIAAAK9DwBgAAAB
        IAUDaHNpbkAHQAAQHyRrBvAZSEqYrqFXTcEPPBhAFCAAA0RTSU5AI+AHA0AAQBsAbSAIAWkPIAQgAEAj4ANTEEkCYzKs2sVGp2B2wrYRj5w5oCfAN0Av4BdnQCMB8Q4g
        XCAAAAUgAwFjDCAEIAAIdHNycEU4TUbPIAsEvCMAAAcgBwZkZWZhdWx04BgKICoAP+ACAwNBAACAIA8AoCAH4AsAAPAgF0AfwAAAICAPwABgFwVAAABIQgDgBABAD0AD
        4BcfYAAge+AEA0AAwBPgAwBAE+AAAAPNzMw+IAwDP5qZGUAXwAPgABcgCuAHG0ATQADgBwdAACATYKtAACALYANAAEALQAAg42AAwA9AB0AD4AMAwA9AB0ADwABAC8AD
        QADAC8AHQADgAwtAAEAP4AMAIA/Bn8AHAMjhDnPgHwDgAO/gDgBAX0ADwABBz8H7QAtAAwCgIINAB0AAALQgCwCWIAPgAwDAP0AHQAPAAEAz4MdLIAAAAcAAIAuAAAAC
        wACADuAdAOAALAD+4B0v4CEAABTgISrgMADBA+AKAGBTgAXgAABChuAXA+AeAOD9WSBZIkBBUgH6Q0AH4FUMQ9VAZwH6Q6BnBYA/zLyMK+BVDOABACBnBAA/ZmZmYAPg
        YwwgAABwJOwB/kJAdCAA4D4MosLgAFaAAKBjgADgOAwgYwRwwgAAhmC6JliAA0BW4EEMIGPgAE3g8AAAUCAA4Of8AP/gFwAABEERCggyAwAAQDIAAAA8QikgAwHwQmLY
        AAEgAYLiIAcgAkKVgAagCSA3oAkgSKAJKxegCQAG4AAJKwSgEyAAoAmASKAGoBPgwk/gSwAAEaBUA2tuYWJBMcAAAYAAIAAAGaARA2N0bmlMiwERJ2FcTFBAAEocAaBC
        4hMPTInAH00bwAvg/QDgvQABIACAAANzaXVnQiQA6CNxwAAAKiAIABkgAyOYYAAj0mAAB2dwdGNZVE1FQAwLDWJlhQEAAAAAAAAAAQAAAAABAAAAAAAAAA==
        ADxkaXNhYmxlZD4AEAAAAA==
      >
      PRESETNAME <disabled>
      FLOATPOS 0 0 0 0
      FXID {C5577FD2-7FE8-944C-9BAA-86FBEBEF21DB}
      WAK 0 0
    >
    <ITEM
      POSITION 34.59456000000343
      SNAPOFFS 0
      LENGTH 236.75651999999661
      LOOP 1
      ALLTAKES 0
      FADEIN 1 0 0 1 0 0
      FADEOUT 1 0 0 1 0 0
      MUTE 0 0
      SEL 0
      IGUID {1A9BB2D1-F69B-C94A-872F-5C6E0984B697}
      IID 26
      NAME "germ-x hand sanitizer.mid"
      VOLPAN 1 0 1 -1
      SOFFS 0 0
      PLAYRATE 1 1 0 -1 0 0.0025
      CHANMODE 0
      GUID {25559C24-6A97-9A43-9D8E-5E06DA6CE19A}
      <SOURCE MIDI
        HASDATA 1 128 QN
        CCINTERP 32
        POOLEDEVTS {581D5CB0-D382-3C4A-8AA7-B8D4ECEB975D}
        E 0 92 3b 35
        E 48 82 3b 35
        E 0 92 39 35
        E 0 92 34 35
        E 112 82 34 35
        E 0 92 40 35
        E 32 82 40 35
        E 0 92 37 35
        E 112 82 37 35
        E 0 92 40 35
        E 128 82 40 35
        E 0 92 3b 35
        E 48 82 3b 35
        E 0 92 39 35
        E 0 92 34 35
        E 112 82 34 35
        E 0 92 40 35
        E 32 82 40 35
        E 0 92 37 35
        E 112 82 37 35
        E 0 92 40 35
        E 128 82 40 35
        E 0 92 3b 35
        E 48 82 3b 35
        E 0 92 39 35
        E 0 92 34 35
        E 112 82 34 35
        E 0 92 40 35
        E 32 82 40 35
        E 0 92 37 35
        E 112 82 37 35
        E 0 92 40 35
        E 128 82 40 35
        E 0 92 3b 35
        E 48 82 3b 35
        E 0 92 39 35
        E 0 92 34 35
        E 112 82 34 35
        E 0 92 40 35
        E 32 82 40 35
        E 0 92 37 35
        E 112 82 37 35
        E 0 92 40 35
        E 128 82 40 35
        E 0 92 3b 35
        E 48 82 3b 35
        E 0 92 39 35
        E 0 92 34 35
        E 112 82 34 35
        E 0 92 40 35
        E 32 82 40 35
        E 0 92 37 35
        E 112 82 37 35
        E 0 92 40 35
        E 128 82 40 35
        E 0 92 3b 35
        E 48 82 3b 35
        E 0 92 39 35
        E 0 92 34 35
        E 112 82 34 35
        E 0 92 40 35
        E 32 82 40 35
        E 0 92 37 35
        E 112 82 37 35
        E 0 92 40 35
        E 128 82 40 35
        E 0 92 3b 35
        E 48 82 3b 35
        E 0 92 39 35
        E 0 92 34 35
        E 112 82 34 35
        E 0 92 40 35
        E 32 82 40 35
        E 0 92 37 35
        E 112 82 37 35
        E 0 92 40 35
        E 128 82 40 35
        E 0 92 3b 35
        E 48 82 3b 35
        E 0 92 39 35
        E 0 92 34 35
        E 112 82 34 35
        E 0 92 40 35
        E 32 82 40 35
        E 0 92 37 35
        E 112 82 37 35
        E 0 92 40 35
        E 128 82 40 35
        E 0 92 3b 35
        E 48 82 3b 35
        E 0 92 39 35
        E 0 92 34 35
        E 112 82 34 35
        E 0 92 40 35
        E 32 82 40 35
        E 0 92 37 35
        E 112 82 37 35
        E 0 92 40 35
        E 128 82 40 35
        E 0 92 3b 35
        E 48 82 3b 35
        E 0 92 39 35
        E 0 92 34 35
        E 112 82 34 35
        E 0 92 40 35
        E 32 82 40 35
        E 0 92 37 35
        E 112 82 37 35
        E 0 92 40 35
        E 128 82 40 35
        E 0 92 3b 35
        E 48 82 3b 35
        E 0 92 39 35
        E 0 92 34 35
        E 112 82 34 35
        E 0 92 40 35
        E 32 82 40 35
        E 0 92 37 35
        E 112 82 37 35
        E 0 92 40 35
        E 128 82 40 35
        E 0 92 3b 35
        E 48 82 3b 35
        E 0 92 39 35
        E 0 92 34 35
        E 112 82 34 35
        E 0 92 40 35
        E 32 82 40 35
        E 0 92 37 35
        E 112 82 37 35
        E 0 92 40 35
        E 128 82 40 35
        E 0 92 3b 35
        E 48 82 3b 35
        E 0 92 39 35
        E 0 92 34 35
        E 112 82 34 35
        E 0 92 40 35
        E 32 82 40 35
        E 0 92 37 35
        E 112 82 37 35
        E 0 92 40 35
        E 128 82 40 35
        E 0 92 3b 35
        E 48 82 3b 35
        E 0 92 39 35
        E 0 92 34 35
        E 112 82 34 35
        E 0 92 40 35
        E 32 82 40 35
        E 0 92 37 35
        E 112 82 37 35
        E 0 92 40 35
        E 128 82 40 35
        E 0 92 3b 35
        E 48 82 3b 35
        E 0 92 39 35
        E 0 92 34 35
        E 112 82 34 35
        E 0 92 40 35
        E 32 82 40 35
        E 0 92 37 35
        E 112 82 37 35
        E 0 92 40 35
        E 128 82 40 35
        E 0 92 3b 35
        E 48 82 3b 35
        E 0 92 39 35
        E 0 92 34 35
        E 112 82 34 35
        E 0 92 40 35
        E 32 82 40 35
        E 0 92 37 35
        E 112 82 37 35
        E 0 92 40 35
        E 128 82 40 35
        E 0 92 3b 35
        E 48 82 3b 35
        E 0 92 39 35
        E 0 92 34 35
        E 112 82 34 35
        E 0 92 40 35
        E 32 82 40 35
        E 0 92 37 35
        E 112 82 37 35
        E 0 92 40 35
        E 128 82 40 35
        E 0 92 3b 35
        E 48 82 3b 35
        E 0 92 39 35
        E 0 92 34 35
        E 112 82 34 35
        E 0 92 40 35
        E 32 82 40 35
        E 0 92 37 35
        E 112 82 37 35
        E 0 92 40 35
        E 128 82 40 35
        E 0 92 3b 35
        E 48 82 3b 35
        E 0 92 39 35
        E 0 92 34 35
        E 112 82 34 35
        E 0 92 40 35
        E 32 82 40 35
        E 0 92 37 35
        E 112 82 37 35
        E 0 92 40 35
        E 128 82 40 35
        E 0 92 3b 35
        E 48 82 3b 35
        E 0 92 39 35
        E 0 92 34 35
        E 112 82 34 35
        E 0 92 40 35
        E 32 82 40 35
        E 0 92 37 35
        E 112 82 37 35
        E 0 92 40 35
        E 128 82 40 35
        E 0 92 3b 35
        E 48 82 3b 35
        E 0 92 39 35
        E 0 92 34 35
        E 112 82 34 35
        E 0 92 40 35
        E 32 82 40 35
        E 0 92 37 35
        E 112 82 37 35
        E 0 92 40 35
        E 128 82 40 35
        E 0 92 3b 35
        E 48 82 3b 35
        E 0 92 39 35
        E 0 92 34 35
        E 112 82 34 35
        E 0 92 40 35
        E 32 82 40 35
        E 0 92 37 35
        E 112 82 37 35
        E 0 92 40 35
        E 128 82 40 35
        E 0 92 3b 35
        E 48 82 3b 35
        E 0 92 39 35
        E 0 92 34 35
        E 112 82 34 35
        E 0 92 40 35
        E 32 82 40 35
        E 0 92 37 35
        E 112 82 37 35
        E 0 92 40 35
        E 128 82 40 35
        E 0 92 3b 35
        E 48 82 3b 35
        E 0 92 39 35
        E 0 92 34 35
        E 112 82 34 35
        E 0 92 40 35
        E 32 82 40 35
        E 0 92 37 35
        E 112 82 37 35
        E 0 92 40 35
        E 128 82 40 35
        E 0 92 3b 35
        E 48 82 3b 35
        E 0 92 39 35
        E 0 92 34 35
        E 112 82 34 35
        E 0 92 40 35
        E 32 82 40 35
        E 0 92 37 35
        E 112 82 37 35
        E 0 92 40 35
        E 128 82 40 35
        E 0 92 3b 35
        E 48 82 3b 35
        E 0 92 39 35
        E 0 92 34 35
        E 112 82 34 35
        E 0 92 40 35
        E 32 82 40 35
        E 0 92 37 35
        E 112 82 37 35
        E 0 92 40 35
        E 128 82 40 35
        E 0 92 3b 35
        E 48 82 3b 35
        E 0 92 39 35
        E 0 92 34 35
        E 112 82 34 35
        E 0 92 40 35
        E 32 82 40 35
        E 0 92 37 35
        E 112 82 37 35
        E 0 92 40 35
        E 128 82 40 35
        E 0 92 3b 35
        E 48 82 3b 35
        E 0 92 39 35
        E 0 92 34 35
        E 112 82 34 35
        E 0 92 40 35
        E 32 82 40 35
        E 0 92 37 35
        E 112 82 37 35
        E 0 92 40 35
        E 128 82 40 35
        E 0 92 3b 35
        E 48 82 3b 35
        E 0 92 39 35
        E 0 92 34 35
        E 112 82 34 35
        E 0 92 40 35
        E 32 82 40 35
        E 0 92 37 35
        E 112 82 37 35
        E 0 92 40 35
        E 128 82 40 35
        E 0 92 3b 35
        E 48 82 3b 35
        E 0 92 39 35
        E 0 92 34 35
        E 112 82 34 35
        E 0 92 40 35
        E 32 82 40 35
        E 0 92 37 35
        E 112 82 37 35
        E 0 92 40 35
        E 128 82 40 35
        E 0 92 3b 35
        E 48 82 3b 35
        E 0 92 39 35
        E 0 92 34 35
        E 112 82 34 35
        E 0 92 40 35
        E 32 82 40 35
        E 0 92 37 35
        E 112 82 37 35
        E 0 92 40 35
        E 128 82 40 35
        E 0 92 3b 35
        E 48 82 3b 35
        E 0 92 39 35
        E 0 92 34 35
        E 112 82 34 35
        E 0 92 40 35
        E 32 82 40 35
        E 0 92 37 35
        E 112 82 37 35
        E 0 92 40 35
        E 128 82 40 35
        E 0 92 3b 35
        E 48 82 3b 35
        E 0 92 39 35
        E 0 92 34 35
        E 112 82 34 35
        E 0 92 40 35
        E 32 82 40 35
        E 0 92 37 35
        E 112 82 37 35
        E 0 92 40 35
        E 128 82 40 35
        E 0 92 3b 35
        E 48 82 3b 35
        E 0 92 39 35
        E 0 92 34 35
        E 112 82 34 35
        E 0 92 40 35
        E 32 82 40 35
        E 0 92 37 35
        E 112 82 37 35
        E 0 92 40 35
        E 128 82 40 35
        E 0 92 3b 35
        E 48 82 3b 35
        E 0 92 39 35
        E 0 92 34 35
        E 112 82 34 35
        E 0 92 40 35
        E 32 82 40 35
        E 0 92 37 35
        E 112 82 37 35
        E 0 92 40 35
        E 128 82 40 35
        E 0 92 3b 35
        E 48 82 3b 35
        E 0 92 39 35
        E 0 92 34 35
        E 112 82 34 35
        E 0 92 40 35
        E 32 82 40 35
        E 0 92 37 35
        E 112 82 37 35
        E 0 92 40 35
        E 128 82 40 35
        E 0 92 3b 35
        E 48 82 3b 35
        E 0 92 39 35
        E 0 92 34 35
        E 112 82 34 35
        E 0 92 40 35
        E 32 82 40 35
        E 0 92 37 35
        E 112 82 37 35
        E 0 92 40 35
        E 128 82 40 35
        E 0 92 3b 35
        E 48 82 3b 35
        E 0 92 39 35
        E 0 92 34 35
        E 112 82 34 35
        E 0 92 40 35
        E 32 82 40 35
        E 0 92 37 35
        E 112 82 37 35
        E 0 92 40 35
        E 128 82 40 35
        E 0 92 3b 35
        E 48 82 3b 35
        E 0 92 39 35
        E 0 92 34 35
        E 112 82 34 35
        E 0 92 40 35
        E 32 82 40 35
        E 0 92 37 35
        E 112 82 37 35
        E 0 92 40 35
        E 128 82 40 35
        E 0 92 3b 35
        E 48 82 3b 35
        E 0 92 39 35
        E 0 92 34 35
        E 112 82 34 35
        E 0 92 40 35
        E 32 82 40 35
        E 0 92 37 35
        E 112 82 37 35
        E 0 92 40 35
        E 128 82 40 35
        E 0 92 39 35
        E 128 82 39 35
        E 0 92 39 35
        E 128 82 39 35
        E 0 92 39 35
        E 128 82 39 35
        E 0 92 39 35
        E 128 82 39 35
        E 0 92 39 35
        E 128 82 39 35
        E 0 92 39 35
        E 128 82 39 35
        E 0 92 39 35
        E 128 82 39 35
        E 0 92 39 35
        E 128 82 39 35
        E 0 92 40 35
        E 128 82 40 35
        E 0 92 41 35
        E 80 82 41 35
        E 0 92 40 35
        E 128 82 40 35
        E 0 92 41 35
        E 80 82 41 35
        E 0 92 40 35
        E 128 82 40 35
        E 0 92 41 35
        E 80 82 41 35
        E 0 92 40 35
        E 128 82 40 35
        E 0 92 41 35
        E 80 82 41 35
        E 0 92 40 35
        E 128 82 40 35
        E 0 92 41 35
        E 80 82 41 35
        E 0 92 40 35
        E 128 82 40 35
        E 0 92 41 35
        E 80 82 41 35
        E 0 92 40 35
        E 128 82 40 35
        E 0 92 41 35
        E 80 82 41 35
        E 0 92 40 35
        E 128 82 40 35
        E 0 92 41 35
        E 80 82 41 35
        E 0 92 40 35
        E 128 82 40 35
        E 0 92 41 35
        E 80 82 41 35
        E 0 92 40 35
        E 128 82 40 35
        E 0 92 41 35
        E 80 82 41 35
        E 0 92 40 35
        E 128 82 40 35
        E 0 92 41 35
        E 80 82 41 35
        E 0 92 40 35
        E 128 82 40 35
        E 0 92 41 35
        E 80 82 41 35
        E 0 92 40 35
        E 128 82 40 35
        E 0 92 41 35
        E 80 82 41 35
        E 0 92 40 35
        E 128 82 40 35
        E 0 92 41 35
        E 80 82 41 35
        E 0 92 40 35
        E 128 82 40 35
        E 0 92 41 35
        E 80 82 41 35
        E 0 92 40 35
        E 128 82 40 35
        E 0 92 41 35
        E 80 82 41 35
        E 0 92 40 35
        E 128 82 40 35
        E 0 92 41 35
        E 80 82 41 35
        E 0 92 40 35
        E 128 82 40 35
        E 0 92 41 35
        E 80 82 41 35
        E 0 92 40 35
        E 128 82 40 35
        E 0 92 41 35
        E 80 82 41 35
        E 0 92 40 35
        E 128 82 40 35
        E 0 92 41 35
        E 80 82 41 35
        E 0 92 40 35
        E 128 82 40 35
        E 0 92 41 35
        E 80 82 41 35
        E 0 92 40 35
        E 128 82 40 35
        E 0 92 41 35
        E 80 82 41 35
        E 0 92 40 35
        E 128 82 40 35
        E 0 92 41 35
        E 80 82 41 35
        E 0 92 40 35
        E 128 82 40 35
        E 0 92 41 35
        E 80 82 41 35
        E 0 92 30 35
        E 16 82 30 35
        E 0 92 35 35
        E 48 82 35 35
        E 0 92 39 35
        E 128 82 39 35
        E 0 92 41 35
        E 96 82 41 35
        E 0 92 32 35
        E 64 82 32 35
        E 0 92 3b 35
        E 48 82 3b 35
        E 0 92 39 35
        E 0 92 34 35
        E 112 82 34 35
        E 0 92 30 35
        E 16 82 30 35
        E 0 92 35 35
        E 48 82 35 35
        E 0 92 39 35
        E 128 82 39 35
        E 0 92 41 35
        E 96 82 41 35
        E 0 92 32 35
        E 64 82 32 35
        E 0 92 3b 35
        E 48 82 3b 35
        E 0 92 39 35
        E 0 92 34 35
        E 112 82 34 35
        E 0 92 30 35
        E 16 82 30 35
        E 0 92 35 35
        E 48 82 35 35
        E 0 92 39 35
        E 128 82 39 35
        E 0 92 41 35
        E 96 82 41 35
        E 0 92 32 35
        E 64 82 32 35
        E 0 92 3b 35
        E 48 82 3b 35
        E 0 92 39 35
        E 0 92 34 35
        E 112 82 34 35
        E 0 92 30 35
        E 16 82 30 35
        E 0 92 35 35
        E 48 82 35 35
        E 0 92 39 35
        E 128 82 39 35
        E 0 92 41 35
        E 96 82 41 35
        E 0 92 32 35
        E 64 82 32 35
        E 0 92 3b 35
        E 48 82 3b 35
        E 0 92 39 35
        E 0 92 34 35
        E 112 82 34 35
        E 0 92 30 35
        E 16 82 30 35
        E 0 92 35 35
        E 48 82 35 35
        E 0 92 39 35
        E 128 82 39 35
        E 0 92 41 35
        E 96 82 41 35
        E 0 92 32 35
        E 64 82 32 35
        E 0 92 3b 35
        E 48 82 3b 35
        E 0 92 39 35
        E 0 92 34 35
        E 112 82 34 35
        E 0 92 30 35
        E 16 82 30 35
        E 0 92 35 35
        E 48 82 35 35
        E 0 92 39 35
        E 128 82 39 35
        E 0 92 41 35
        E 96 82 41 35
        E 0 92 32 35
        E 64 82 32 35
        E 0 92 3b 35
        E 48 82 3b 35
        E 0 92 39 35
        E 0 92 34 35
        E 112 82 34 35
        E 0 92 30 35
        E 16 82 30 35
        E 0 92 35 35
        E 48 82 35 35
        E 0 92 39 35
        E 128 82 39 35
        E 0 92 41 35
        E 96 82 41 35
        E 0 92 32 35
        E 64 82 32 35
        E 0 92 3b 35
        E 48 82 3b 35
        E 0 92 39 35
        E 0 92 34 35
        E 112 82 34 35
        E 0 92 30 35
        E 16 82 30 35
        E 0 92 35 35
        E 48 82 35 35
        E 0 92 39 35
        E 128 82 39 35
        E 0 92 41 35
        E 96 82 41 35
        E 0 92 32 35
        E 64 82 32 35
        E 0 92 3b 35
        E 48 82 3b 35
        E 0 92 39 35
        E 0 92 34 35
        E 112 82 34 35
        E 0 92 30 35
        E 16 82 30 35
        E 0 92 35 35
        E 48 82 35 35
        E 0 92 39 35
        E 128 82 39 35
        E 0 92 41 35
        E 96 82 41 35
        E 0 92 32 35
        E 64 82 32 35
        E 0 92 3b 35
        E 48 82 3b 35
        E 0 92 39 35
        E 0 92 34 35
        E 112 82 34 35
        E 0 92 30 35
        E 16 82 30 35
        E 0 92 35 35
        E 48 82 35 35
        E 0 92 39 35
        E 128 82 39 35
        E 0 92 41 35
        E 96 82 41 35
        E 0 92 32 35
        E 64 82 32 35
        E 0 92 3b 35
        E 48 82 3b 35
        E 0 92 39 35
        E 0 92 34 35
        E 112 82 34 35
        E 0 92 30 35
        E 16 82 30 35
        E 0 92 35 35
        E 48 82 35 35
        E 0 92 39 35
        E 128 82 39 35
        E 0 92 41 35
        E 96 82 41 35
        E 0 92 32 35
        E 64 82 32 35
        E 0 92 3b 35
        E 48 82 3b 35
        E 0 92 39 35
        E 0 92 34 35
        E 112 82 34 35
        E 0 92 30 35
        E 16 82 30 35
        E 0 92 35 35
        E 48 82 35 35
        E 0 92 39 35
        E 128 82 39 35
        E 0 92 41 35
        E 96 82 41 35
        E 0 92 32 35
        E 64 82 32 35
        E 0 92 3b 35
        E 48 82 3b 35
        E 0 92 39 35
        E 0 92 34 35
        E 112 82 34 35
        E 0 92 30 35
        E 16 82 30 35
        E 0 92 35 35
        E 48 82 35 35
        E 0 92 39 35
        E 128 82 39 35
        E 0 92 41 35
        E 96 82 41 35
        E 0 92 32 35
        E 64 82 32 35
        E 0 92 3b 35
        E 48 82 3b 35
        E 0 92 39 35
        E 0 92 34 35
        E 112 82 34 35
        E 0 92 30 35
        E 16 82 30 35
        E 0 92 35 35
        E 48 82 35 35
        E 0 92 39 35
        E 128 82 39 35
        E 0 92 41 35
        E 96 82 41 35
        E 0 92 32 35
        E 64 82 32 35
        E 0 92 3b 35
        E 48 82 3b 35
        E 0 92 39 35
        E 0 92 34 35
        E 112 82 34 35
        E 0 92 30 35
        E 16 82 30 35
        E 0 92 35 35
        E 48 82 35 35
        E 0 92 39 35
        E 128 82 39 35
        E 0 92 41 35
        E 96 82 41 35
        E 0 92 32 35
        E 64 82 32 35
        E 0 92 3b 35
        E 48 82 3b 35
        E 0 92 39 35
        E 0 92 34 35
        E 112 82 34 35
        E 0 92 30 35
        E 16 82 30 35
        E 0 92 35 35
        E 48 82 35 35
        E 0 92 39 35
        E 128 82 39 35
        E 0 92 41 35
        E 96 82 41 35
        E 0 92 32 35
        E 64 82 32 35
        E 0 92 3b 35
        E 48 82 3b 35
        E 0 92 39 35
        E 0 92 34 35
        E 112 82 34 35
        E 0 92 30 35
        E 16 82 30 35
        E 0 92 35 35
        E 48 82 35 35
        E 0 92 39 35
        E 128 82 39 35
        E 0 92 41 35
        E 96 82 41 35
        E 0 92 32 35
        E 64 82 32 35
        E 0 92 3b 35
        E 48 82 3b 35
        E 0 92 39 35
        E 0 92 34 35
        E 112 82 34 35
        E 0 92 30 35
        E 16 82 30 35
        E 0 92 35 35
        E 48 82 35 35
        E 0 92 39 35
        E 128 82 39 35
        E 0 92 41 35
        E 96 82 41 35
        E 0 92 32 35
        E 64 82 32 35
        E 0 92 3b 35
        E 48 82 3b 35
        E 0 92 39 35
        E 0 92 34 35
        E 112 82 34 35
        E 0 92 30 35
        E 16 82 30 35
        E 0 92 35 35
        E 48 82 35 35
        E 0 92 39 35
        E 128 82 39 35
        E 0 92 41 35
        E 96 82 41 35
        E 0 92 32 35
        E 64 82 32 35
        E 0 92 3b 35
        E 48 82 3b 35
        E 0 92 39 35
        E 0 92 34 35
        E 112 82 34 35
        E 0 92 30 35
        E 16 82 30 35
        E 0 92 35 35
        E 48 82 35 35
        E 0 92 39 35
        E 128 82 39 35
        E 0 92 41 35
        E 96 82 41 35
        E 0 92 32 35
        E 64 82 32 35
        E 0 92 3b 35
        E 48 82 3b 35
        E 0 92 39 35
        E 0 92 34 35
        E 112 82 34 35
        E 0 92 30 35
        E 16 82 30 35
        E 0 92 35 35
        E 48 82 35 35
        E 0 92 39 35
        E 128 82 39 35
        E 0 92 41 35
        E 96 82 41 35
        E 0 92 32 35
        E 64 82 32 35
        E 0 92 3b 35
        E 48 82 3b 35
        E 0 92 39 35
        E 0 92 34 35
        E 112 82 34 35
        E 0 92 30 35
        E 16 82 30 35
        E 0 92 35 35
        E 48 82 35 35
        E 0 92 39 35
        E 128 82 39 35
        E 0 92 41 35
        E 96 82 41 35
        E 0 92 32 35
        E 64 82 32 35
        E 0 92 3b 35
        E 48 82 3b 35
        E 0 92 39 35
        E 0 92 34 35
        E 112 82 34 35
        E 0 92 30 35
        E 16 82 30 35
        E 0 92 35 35
        E 48 82 35 35
        E 0 92 39 35
        E 128 82 39 35
        E 0 92 41 35
        E 96 82 41 35
        E 0 92 32 35
        E 64 82 32 35
        E 0 92 3b 35
        E 48 82 3b 35
        E 0 92 39 35
        E 0 92 34 35
        E 112 82 34 35
        E 0 92 30 35
        E 16 82 30 35
        E 0 92 35 35
        E 48 82 35 35
        E 0 92 39 35
        E 128 82 39 35
        E 0 92 41 35
        E 96 82 41 35
        E 0 92 32 35
        E 64 82 32 35
        E 0 92 3b 35
        E 48 82 3b 35
        E 0 92 39 35
        E 0 92 34 35
        E 112 82 34 35
        E 0 92 30 35
        E 16 82 30 35
        E 0 92 35 35
        E 48 82 35 35
        E 0 92 39 35
        E 128 82 39 35
        E 0 92 41 35
        E 96 82 41 35
        E 0 92 32 35
        E 64 82 32 35
        E 0 92 3b 35
        E 48 82 3b 35
        E 0 92 39 35
        E 0 92 34 35
        E 112 82 34 35
        E 0 92 30 35
        E 16 82 30 35
        E 0 92 35 35
        E 48 82 35 35
        E 0 92 39 35
        E 128 82 39 35
        E 0 92 41 35
        E 96 82 41 35
        E 0 92 32 35
        E 64 82 32 35
        E 0 92 3b 35
        E 48 82 3b 35
        E 0 92 39 35
        E 0 92 34 35
        E 112 82 34 35
        E 0 92 30 35
        E 16 82 30 35
        E 0 92 35 35
        E 48 82 35 35
        E 0 92 39 35
        E 128 82 39 35
        E 0 92 41 35
        E 96 82 41 35
        E 0 92 32 35
        E 64 82 32 35
        E 0 92 3b 35
        E 48 82 3b 35
        E 0 92 39 35
        E 0 92 34 35
        E 112 82 34 35
        E 0 92 30 35
        E 16 82 30 35
        E 0 92 35 35
        E 48 82 35 35
        E 0 92 39 35
        E 128 82 39 35
        E 0 92 41 35
        E 96 82 41 35
        E 0 92 32 35
        E 64 82 32 35
        E 0 92 3b 35
        E 48 82 3b 35
        E 0 92 39 35
        E 0 92 34 35
        E 112 82 34 35
        E 0 92 30 35
        E 16 82 30 35
        E 0 92 35 35
        E 48 82 35 35
        E 0 92 39 35
        E 128 82 39 35
        E 0 92 41 35
        E 96 82 41 35
        E 0 92 32 35
        E 64 82 32 35
        E 0 92 3b 35
        E 48 82 3b 35
        E 0 92 39 35
        E 0 92 34 35
        E 112 82 34 35
        E 0 92 30 35
        E 16 82 30 35
        E 0 92 35 35
        E 48 82 35 35
        E 0 92 39 35
        E 128 82 39 35
        E 0 92 41 35
        E 96 82 41 35
        E 0 92 32 35
        E 64 82 32 35
        E 0 92 3b 35
        E 48 82 3b 35
        E 0 92 39 35
        E 0 92 34 35
        E 112 82 34 35
        E 0 92 30 35
        E 16 82 30 35
        E 0 92 35 35
        E 48 82 35 35
        E 0 92 39 35
        E 128 82 39 35
        E 0 92 41 35
        E 96 82 41 35
        E 0 92 32 35
        E 64 82 32 35
        E 0 92 3b 35
        E 48 82 3b 35
        E 0 92 39 35
        E 0 92 34 35
        E 112 82 34 35
        E 0 92 30 35
        E 16 82 30 35
        E 0 92 35 35
        E 48 82 35 35
        E 0 92 39 35
        E 128 82 39 35
        E 0 92 41 35
        E 96 82 41 35
        E 0 92 32 35
        E 64 82 32 35
        E 0 92 3b 35
        E 48 82 3b 35
        E 0 92 39 35
        E 0 92 34 35
        E 112 82 34 35
        E 0 92 30 35
        E 16 82 30 35
        E 0 92 35 35
        E 48 82 35 35
        E 0 92 39 35
        E 128 82 39 35
        E 0 92 41 35
        E 96 82 41 35
        E 0 92 32 35
        E 64 82 32 35
        E 0 92 3b 35
        E 48 82 3b 35
        E 0 92 39 35
        E 0 92 34 35
        E 112 82 34 35
        E 0 92 30 35
        E 16 82 30 35
        E 0 92 35 35
        E 48 82 35 35
        E 0 92 39 35
        E 128 82 39 35
        E 0 92 41 35
        E 96 82 41 35
        E 0 92 32 35
        E 64 82 32 35
        E 0 92 3b 35
        E 48 82 3b 35
        E 0 92 39 35
        E 0 92 34 35
        E 112 82 34 35
        E 0 92 30 35
        E 16 82 30 35
        E 0 92 35 35
        E 48 82 35 35
        E 0 92 39 35
        E 128 82 39 35
        E 0 92 41 35
        E 96 82 41 35
        E 0 92 32 35
        E 64 82 32 35
        E 0 92 3b 35
        E 48 82 3b 35
        E 0 92 39 35
        E 0 92 34 35
        E 112 82 34 35
        E 0 92 30 35
        E 16 82 30 35
        E 0 92 35 35
        E 48 82 35 35
        E 0 92 39 35
        E 128 82 39 35
        E 0 92 41 35
        E 96 82 41 35
        E 0 92 32 35
        E 64 82 32 35
        E 0 92 3b 35
        E 48 82 3b 35
        E 0 92 39 35
        E 0 92 34 35
        E 112 82 34 35
        E 0 92 30 35
        E 16 82 30 35
        E 0 92 35 35
        E 48 82 35 35
        E 0 92 39 35
        E 128 82 39 35
        E 0 92 41 35
        E 96 82 41 35
        E 0 92 32 35
        E 64 82 32 35
        E 0 92 3b 35
        E 48 82 3b 35
        E 0 92 39 35
        E 0 92 34 35
        E 112 82 34 35
        E 0 92 30 35
        E 16 82 30 35
        E 0 92 35 35
        E 48 82 35 35
        E 0 92 39 35
        E 128 82 39 35
        E 0 92 41 35
        E 96 82 41 35
        E 0 92 32 35
        E 64 82 32 35
        E 0 92 3b 35
        E 48 82 3b 35
        E 0 92 39 35
        E 0 92 34 35
        E 112 82 34 35
        E 0 92 30 35
        E 16 82 30 35
        E 0 92 35 35
        E 48 82 35 35
        E 0 92 39 35
        E 128 82 39 35
        E 0 92 41 35
        E 96 82 41 35
        E 0 92 32 35
        E 64 82 32 35
        E 0 92 3b 35
        E 48 82 3b 35
        E 0 92 39 35
        E 0 92 34 35
        E 112 82 34 35
        E 0 92 30 35
        E 16 82 30 35
        E 0 92 35 35
        E 48 82 35 35
        E 0 92 39 35
        E 128 82 39 35
        E 0 92 41 35
        E 96 82 41 35
        E 0 92 32 35
        E 64 82 32 35
        E 0 92 3b 35
        E 48 82 3b 35
        E 0 92 39 35
        E 0 92 34 35
        E 112 82 34 35
        E 0 92 30 35
        E 16 82 30 35
        E 0 92 35 35
        E 48 82 35 35
        E 0 92 39 35
        E 128 82 39 35
        E 0 92 41 35
        E 96 82 41 35
        E 0 92 32 35
        E 64 82 32 35
        E 0 92 3b 35
        E 48 82 3b 35
        E 0 92 39 35
        E 0 92 34 35
        E 112 82 34 35
        E 0 92 30 35
        E 16 82 30 35
        E 0 92 35 35
        E 48 82 35 35
        E 0 92 39 35
        E 128 82 39 35
        E 0 92 41 35
        E 96 82 41 35
        E 0 92 32 35
        E 64 82 32 35
        E 0 92 3b 35
        E 48 82 3b 35
        E 0 92 39 35
        E 0 92 34 35
        E 112 82 34 35
        E 0 92 30 35
        E 16 82 30 35
        E 0 92 35 35
        E 48 82 35 35
        E 0 92 39 35
        E 128 82 39 35
        E 0 92 41 35
        E 96 82 41 35
        E 0 92 32 35
        E 64 82 32 35
        E 0 92 3b 35
        E 48 82 3b 35
        E 0 92 39 35
        E 0 92 34 35
        E 112 82 34 35
        E 0 92 30 35
        E 16 82 30 35
        E 0 92 35 35
        E 48 82 35 35
        E 0 92 39 35
        E 128 82 39 35
        E 0 92 41 35
        E 96 82 41 35
        E 0 92 32 35
        E 64 82 32 35
        E 0 92 3b 35
        E 48 82 3b 35
        E 0 92 39 35
        E 0 92 34 35
        E 112 82 34 35
        E 0 92 30 35
        E 16 82 30 35
        E 0 92 35 35
        E 48 82 35 35
        E 0 92 39 35
        E 128 82 39 35
        E 0 92 41 35
        E 96 82 41 35
        E 0 92 32 35
        E 64 82 32 35
        E 0 92 3b 35
        E 48 82 3b 35
        E 0 92 39 35
        E 0 92 34 35
        E 112 82 34 35
        E 0 92 30 35
        E 16 82 30 35
        E 0 92 35 35
        E 48 82 35 35
        E 0 92 39 35
        E 128 82 39 35
        E 0 92 41 35
        E 96 82 41 35
        E 0 92 32 35
        E 64 82 32 35
        E 0 92 3b 35
        E 48 82 3b 35
        E 0 92 39 35
        E 0 92 34 35
        E 112 82 34 35
        E 0 92 30 35
        E 16 82 30 35
        E 0 92 35 35
        E 48 82 35 35
        E 0 92 39 35
        E 128 82 39 35
        E 0 92 41 35
        E 96 82 41 35
        E 0 92 32 35
        E 64 82 32 35
        E 0 92 3b 35
        E 48 82 3b 35
        E 0 92 39 35
        E 0 92 34 35
        E 112 82 34 35
        E 0 92 30 35
        E 16 82 30 35
        E 0 92 35 35
        E 48 82 35 35
        E 0 92 39 35
        E 128 82 39 35
        E 0 92 41 35
        E 96 82 41 35
        E 0 92 32 35
        E 64 82 32 35
        E 0 92 3b 35
        E 48 82 3b 35
        E 0 92 39 35
        E 0 92 34 35
        E 112 82 34 35
        E 0 92 30 35
        E 16 82 30 35
        E 0 92 35 35
        E 48 82 35 35
        E 0 92 39 35
        E 128 82 39 35
        E 0 92 41 35
        E 96 82 41 35
        E 0 92 32 35
        E 64 82 32 35
        E 0 92 3b 35
        E 48 82 3b 35
        E 0 92 39 35
        E 0 92 34 35
        E 112 82 34 35
        E 0 92 30 35
        E 16 82 30 35
        E 0 92 35 35
        E 48 82 35 35
        E 0 92 39 35
        E 128 82 39 35
        E 0 92 41 35
        E 96 82 41 35
        E 0 92 32 35
        E 64 82 32 35
        E 0 92 3b 35
        E 48 82 3b 35
        E 0 92 39 35
        E 0 92 34 35
        E 112 82 34 35
        E 0 92 30 35
        E 16 82 30 35
        E 0 92 35 35
        E 48 82 35 35
        E 0 92 39 35
        E 128 82 39 35
        E 0 92 41 35
        E 96 82 41 35
        E 0 92 32 35
        E 64 82 32 35
        E 0 92 3b 35
        E 48 82 3b 35
        E 0 92 39 35
        E 0 92 34 35
        E 112 82 34 35
        E 0 92 30 35
        E 16 82 30 35
        E 0 92 35 35
        E 48 82 35 35
        E 0 92 39 35
        E 128 82 39 35
        E 0 92 41 35
        E 96 82 41 35
        E 0 92 32 35
        E 64 82 32 35
        E 0 92 3b 35
        E 48 82 3b 35
        E 0 92 39 35
        E 0 92 34 35
        E 112 82 34 35
        E 0 92 30 35
        E 16 82 30 35
        E 0 92 35 35
        E 48 82 35 35
        E 0 92 39 35
        E 128 82 39 35
        E 0 92 41 35
        E 96 82 41 35
        E 0 92 32 35
        E 64 82 32 35
        E 0 92 3b 35
        E 48 82 3b 35
        E 0 92 39 35
        E 0 92 34 35
        E 112 82 34 35
        E 0 92 30 35
        E 16 82 30 35
        E 0 92 35 35
        E 48 82 35 35
        E 0 92 39 35
        E 128 82 39 35
        E 0 92 41 35
        E 96 82 41 35
        E 0 92 32 35
        E 64 82 32 35
        E 0 92 3b 35
        E 48 82 3b 35
        E 0 92 39 35
        E 0 92 34 35
        E 112 82 34 35
        E 0 92 30 35
        E 16 82 30 35
        E 0 92 35 35
        E 48 82 35 35
        E 0 92 39 35
        E 128 82 39 35
        E 0 92 41 35
        E 96 82 41 35
        E 0 92 32 35
        E 64 82 32 35
        E 0 92 3b 35
        E 48 82 3b 35
        E 0 92 39 35
        E 0 92 34 35
        E 112 82 34 35
        E 0 92 30 35
        E 16 82 30 35
        E 0 92 35 35
        E 48 82 35 35
        E 0 92 39 35
        E 128 82 39 35
        E 0 92 41 35
        E 96 82 41 35
        E 0 92 32 35
        E 64 82 32 35
        E 0 92 3b 35
        E 48 82 3b 35
        E 0 92 39 35
        E 0 92 34 35
        E 112 82 34 35
        E 0 92 30 35
        E 16 82 30 35
        E 0 92 35 35
        E 48 82 35 35
        E 0 92 39 35
        E 128 82 39 35
        E 0 92 41 35
        E 96 82 41 35
        E 0 92 32 35
        E 64 82 32 35
        E 0 92 3b 35
        E 48 82 3b 35
        E 0 92 39 35
        E 0 92 34 35
        E 112 82 34 35
        E 0 92 30 35
        E 16 82 30 35
        E 0 92 35 35
        E 48 82 35 35
        E 0 92 39 35
        E 128 82 39 35
        E 0 92 41 35
        E 96 82 41 35
        E 0 92 32 35
        E 64 82 32 35
        E 0 92 3b 35
        E 48 82 3b 35
        E 0 92 39 35
        E 0 92 34 35
        E 112 82 34 35
        E 0 92 30 35
        E 16 82 30 35
        E 0 92 35 35
        E 48 82 35 35
        E 0 92 39 35
        E 128 82 39 35
        E 0 92 41 35
        E 96 82 41 35
        E 0 92 32 35
        E 64 82 32 35
        E 0 92 3b 35
        E 48 82 3b 35
        E 0 92 39 35
        E 0 92 34 35
        E 112 82 34 35
        E 0 92 30 35
        E 16 82 30 35
        E 0 92 35 35
        E 48 82 35 35
        E 0 92 39 35
        E 128 82 39 35
        E 0 92 41 35
        E 96 82 41 35
        E 0 92 32 35
        E 64 82 32 35
        E 0 92 3b 35
        E 48 82 3b 35
        E 0 92 39 35
        E 0 92 34 35
        E 112 82 34 35
        E 0 92 30 35
        E 16 82 30 35
        E 0 92 35 35
        E 48 82 35 35
        E 0 92 39 35
        E 128 82 39 35
        E 0 92 41 35
        E 96 82 41 35
        E 0 92 32 35
        E 64 82 32 35
        E 0 92 3b 35
        E 48 82 3b 35
        E 0 92 39 35
        E 0 92 34 35
        E 112 82 34 35
        E 0 92 30 35
        E 16 82 30 35
        E 0 92 35 35
        E 48 82 35 35
        E 0 92 39 35
        E 128 82 39 35
        E 0 92 41 35
        E 96 82 41 35
        E 0 92 32 35
        E 64 82 32 35
        E 0 92 3b 35
        E 48 82 3b 35
        E 0 92 39 35
        E 0 92 34 35
        E 112 82 34 35
        E 0 92 30 35
        E 16 82 30 35
        E 0 92 35 35
        E 48 82 35 35
        E 0 92 39 35
        E 128 82 39 35
        E 0 92 41 35
        E 96 82 41 35
        E 0 92 32 35
        E 64 82 32 35
        E 0 92 3b 35
        E 48 82 3b 35
        E 0 92 39 35
        E 0 92 34 35
        E 112 82 34 35
        E 0 92 30 35
        E 16 82 30 35
        E 0 92 35 35
        E 48 82 35 35
        E 0 92 39 35
        E 128 82 39 35
        E 0 92 41 35
        E 96 82 41 35
        E 0 92 32 35
        E 64 82 32 35
        E 0 92 3b 35
        E 48 82 3b 35
        E 0 92 39 35
        E 0 92 34 35
        E 111 82 34 35
        E 1 b0 7b 00
        CCINTERP 32
        CHASE_CC_TAKEOFFS 1
        GUID {8D4C8BF4-3260-B54C-822B-F4727A4DA4F5}
        IGNTEMPO 0 120 4 4
        SRCCOLOR 593
        VELLANE 3 601 0
        VELLANE -1 196 0
        CFGEDITVIEW 0 0.008186 62 12 0 -1 0 0 0 0.5
        KEYSNAP 0
        TRACKSEL 252
        EVTFILTER 0 -1 -1 -1 -1 0 0 0 0 -1 -1 -1 -1 0 -1 0 -1 -1
        CFGEDIT 1 1 0 1 0 0 1 1 1 1 1 0.125 0 0 1792 1095 0 0 0 0 0 0 0 0 0 0.5 0 0 1 64
      >
    >
  >
  <TRACK {22F25EA5-9625-EB4C-B6C0-D614ED4CEE8A}
    NAME "germ-x hand sanitizer"
    PEAKCOL 16576
    BEAT -1
    AUTOMODE 0
    VOLPAN 1 0 -1 -1 1
    MUTESOLO 0 0 0
    IPHASE 0
    PLAYOFFS 0 1
    ISBUS 0 0
    BUSCOMP 0 0 0 0 0
    SHOWINMIX 1 0.6667 0.5 1 0.5 0 -1 0
    FREEMODE 0
    SEL 0
    REC 0 0 1 0 0 0 0
    VU 2
    TRACKHEIGHT 0 0 0 0 -1 0
    INQ 0 0 0 0.5 100 0 0 100
    NCHAN 2
    FX 1
    TRACKID {22F25EA5-9625-EB4C-B6C0-D614ED4CEE8A}
    PERF 0
    MIDIOUT -1
    MAINSEND 1 0
    <FXCHAIN
      SHOW 0
      LASTSEL 0
      DOCKED 0
      BYPASS 0 0 0
      <VST "VSTi: FM8 (Native Instruments GmbH)" FM8.vst 0 "" 1315530296<5653544E696638666D38000000000000> ""
        OGZpTu5e7f4AAAAAAgAAAAEAAAAAAAAAAgAAAAAAAAAYBwAAAQAAAAAAEAA=
        GAcAAAAAAAABAAAAaHNpbgEAAAAAAAAAN455D8DDx0mHoN4j0l/0WZYAAAAAAAAARFNJTnYAAAABAAAASAAAAAAAAABEU0lOagAAAAEAAAAYAAAAAAAAAERTSU4BAAAA
        AQAAAAEAAAABAAAAAQAAAAEAAAAAAAAAAAAAAAAAAAANYmWFAQAAAAhwEAAAAAAAAQAAAAEAAAAAAAAAAAAAAAAAAAADAAAAMAAwADAAAAAAAAAAAAAAAAAAAAAAAAEA
        AAABAAAAAAAAAERTSU5lAAAARgYAAAAAAAABAAAAaHNpbgEAAAAAAAAAMOH4NwAUwEaoogAOyNUgkW0AAAAAAAAARFNJTmUAAAABAAAANAAAAAAAAABEU0lOagAAAAEA
        AAAYAAAAAAAAAERTSU4BAAAAAQAAAAEAAAABAAAAAgAAAAEAAAAACAAAAAEAAAAKAAAAMQAuADIALgAwAC4AMQAwADEAMAABAAAAAwAAAAAAAABEU0lObAAAAKgBAAAA
        AAAAAQAAAGhzaW4BAAAAAAAAACA7190CLVtKvWPIjKqbw/t4AQAAAAAAAERTSU5sAAAAAQAAABgAAAAAAAAARFNJTgEAAAABAAAAAQAAAAEAAAACAAAAAQAAAAAAAAAI
        AAAATgBlAHcAUwBvAHUAbgBkAAcAAABuAG8AdAAgAHMAZQB0AAAAAAAAAAAAAAAAAAAAAAAAAAAAAAAAAAAAAAAAAAAAAAAAAAEAAAABAAAAAQAAAAMAAABGAE0AOAAA
        AAAAAAAAAAcAAAAHAAAAXABAAGMAbwBsAG8AcgABAAAAMAARAAAAXABAAGQAZQB2AGkAYwBlAHQAeQBwAGUAZgBsAGEAZwBzAAEAAAAxAAsAAABcAEAAcwBvAHUAbgBk
        AHQAeQBwAGUAAQAAADAABwAAAFwAQAB0AGUAbQBwAG8AAQAAADAABgAAAFwAQAB2AGUAcgBsAAUAAAAxAC4ANwAuADgABgAAAFwAQAB2AGUAcgBtAAUAAAAxAC4ANwAu
        ADgABwAAAFwAQAB2AGkAcwBpAGIAAQAAADAAAQAAAAAAAAACAAAARFNJTnkAAABoAAAAAAAAAAEAAABoc2luAQAAAAAAAABG64vCmumHRIQ9Mih2ujahOAAAAAAAAABE
        U0lOeQAAAAEAAAAYAAAAAAAAAERTSU4BAAAAAQAAAAEAAAABAAAAAQAAAAAAAAABAAAAAAAAAAEAAABEU0lOdAAAAHUDAAAAAAAAAQAAAGhzaW4BAAAAAAAAAMPiDYJz
        LJxOuWtBgMMVvqRFAwAAAAAAAERTSU50AAAAAQAAACwDAAAAAAAARFNJTnMAAAABAAAAGAAAAAAAAABEU0lOAQAAAAEAAAABAAAAAQAAAAG9DwAA8wIAAAK9DwBgAAAB
        IAUDaHNpbkAHQAAQHyRrBvAZSEqYrqFXTcEPPBhAFCAAA0RTSU5AI+AHA0AAQBsAbSAIAWkPIAQgAEAj4ANTEEkCYzKs2sVGp2B2wrYRj5w5oCfAN0Av4BdnQCMB8Q4g
        XCAAAAUgAwFjDCAEIAAIdHNycEU4TUbPIAsEvCMAAAcgBwZkZWZhdWx04BgKICoAP+ACAwNBAACAIA8AoCAH4AsAAPAgF0AfwAAAICAPwABgFwVAAABIQgDgBABAD0AD
        4BcfYAAge+AEA0AAwBPgAwBAE+AAAAPNzMw+IAwDP5qZGUAXwAPgABcgCuAHG0ATQADgBwdAACATYKtAACALYANAAEALQAAg42AAwA9AB0AD4AMAwA9AB0ADwABAC8AD
        QADAC8AHQADgAwtAAEAP4AMAIA/Bn8AHAMjhDnPgHwDgAO/gDgBAX0ADwABBz8H7QAtAAwCgIINAB0AAALQgCwCWIAPgAwDAP0AHQAPAAEAz4MdLIAAAAcAAIAuAAAAC
        wACADuAdAOAALAD+4B0v4CEAABTgISrgMADBA+AKAGBTgAXgAABChuAXA+AeAOD9WSBZIkBBUgH6Q0AH4FUMQ9VAZwH6Q6BnBYA/zLyMK+BVDOABACBnBAA/ZmZmYAPg
        YwwgAABwJOwB/kJAdCAA4D4MosLgAFaAAKBjgADgOAwgYwRwwgAAhmC6JliAA0BW4EEMIGPgAE3g8AAAUCAA4Of8AP/gFwAABEERCggyAwAAQDIAAAA8QikgAwHwQmLY
        AAEgAYLiIAcgAkKVgAagCSA3oAkgSKAJKxegCQAG4AAJKwSgEyAAoAmASKAGoBPgwk/gSwAAEaBUA2tuYWJBMcAAAYAAIAAAGaARA2N0bmlMiwERJ2FcTFBAAEocAaBC
        4hMPTInAH00bwAvg/QDgvQABIACAAANzaXVnQiQA6CNxwAAAKiAIABkgAyOYYAAj0mAAB2dwdGNZVE1FQAwLDWJlhQEAAAAAAAAAAQAAAAABAAAAAAAAAA==
        ADxkaXNhYmxlZD4AEAAAAA==
      >
      PRESETNAME <disabled>
      FLOATPOS 0 0 0 0
      FXID {3AD8A707-1EB3-E949-AD37-730E77F1DF31}
      WAK 0 0
    >
    <ITEM
      POSITION 121.080960000012
      SNAPOFFS 0
      LENGTH 277.29701999998798
      LOOP 1
      ALLTAKES 0
      FADEIN 1 0 0 1 0 0
      FADEOUT 1 0 0 1 0 0
      MUTE 0 0
      SEL 0
      IGUID {FDF6AC26-99D0-5A4E-9840-FAE8E42055AE}
      IID 27
      NAME "germ-x hand sanitizer.mid"
      VOLPAN 1 0 1 -1
      SOFFS 0 0
      PLAYRATE 1 1 0 -1 0 0.0025
      CHANMODE 0
      GUID {EDB40D15-A00F-F14B-A4F8-F2E067DE30A3}
      <SOURCE MIDI
        HASDATA 1 128 QN
        CCINTERP 32
        POOLEDEVTS {4CF78001-0111-FC47-95C8-34A70F8658BE}
        E 0 93 39 35
        E 113 83 39 35
        E 0 93 39 35
        E 113 83 39 35
        E 0 93 39 35
        E 113 83 39 35
        E 0 93 39 35
        E 113 83 39 35
        E 0 93 39 35
        E 113 83 39 35
        E 0 93 39 35
        E 113 83 39 35
        E 0 93 39 35
        E 113 83 39 35
        E 0 93 39 35
        E 113 83 39 35
        E 0 93 39 35
        E 113 83 39 35
        E 0 93 40 35
        E 113 83 40 35
        E 0 93 41 35
        E 71 83 41 35
        E 0 93 40 35
        E 113 83 40 35
        E 0 93 41 35
        E 71 83 41 35
        E 0 93 40 35
        E 113 83 40 35
        E 0 93 41 35
        E 71 83 41 35
        E 0 93 40 35
        E 113 83 40 35
        E 0 93 41 35
        E 71 83 41 35
        E 0 93 40 35
        E 113 83 40 35
        E 0 93 41 35
        E 71 83 41 35
        E 0 93 40 35
        E 113 83 40 35
        E 0 93 41 35
        E 71 83 41 35
        E 0 93 40 35
        E 113 83 40 35
        E 0 93 41 35
        E 71 83 41 35
        E 0 93 40 35
        E 113 83 40 35
        E 0 93 41 35
        E 71 83 41 35
        E 0 93 40 35
        E 113 83 40 35
        E 0 93 41 35
        E 71 83 41 35
        E 0 93 40 35
        E 113 83 40 35
        E 0 93 41 35
        E 71 83 41 35
        E 0 93 40 35
        E 113 83 40 35
        E 0 93 41 35
        E 71 83 41 35
        E 0 93 40 35
        E 113 83 40 35
        E 0 93 41 35
        E 71 83 41 35
        E 0 93 40 35
        E 113 83 40 35
        E 0 93 41 35
        E 71 83 41 35
        E 0 93 40 35
        E 113 83 40 35
        E 0 93 41 35
        E 71 83 41 35
        E 0 93 40 35
        E 113 83 40 35
        E 0 93 41 35
        E 71 83 41 35
        E 0 93 40 35
        E 113 83 40 35
        E 0 93 41 35
        E 71 83 41 35
        E 0 93 40 35
        E 113 83 40 35
        E 0 93 41 35
        E 71 83 41 35
        E 0 93 40 35
        E 113 83 40 35
        E 0 93 41 35
        E 71 83 41 35
        E 0 93 40 35
        E 113 83 40 35
        E 0 93 41 35
        E 71 83 41 35
        E 0 93 40 35
        E 113 83 40 35
        E 0 93 41 35
        E 71 83 41 35
        E 0 93 40 35
        E 113 83 40 35
        E 0 93 41 35
        E 71 83 41 35
        E 0 93 40 35
        E 113 83 40 35
        E 0 93 41 35
        E 71 83 41 35
        E 0 93 40 35
        E 113 83 40 35
        E 0 93 41 35
        E 71 83 41 35
        E 0 93 40 35
        E 113 83 40 35
        E 0 93 41 35
        E 71 83 41 35
        E 0 93 40 35
        E 113 83 40 35
        E 0 93 41 35
        E 71 83 41 35
        E 0 93 40 35
        E 113 83 40 35
        E 0 93 41 35
        E 71 83 41 35
        E 0 93 40 35
        E 113 83 40 35
        E 0 93 41 35
        E 71 83 41 35
        E 0 93 30 35
        E 14 83 30 35
        E 0 93 35 35
        E 42 83 35 35
        E 0 93 39 35
        E 113 83 39 35
        E 0 93 41 35
        E 85 83 41 35
        E 0 93 32 35
        E 56 83 32 35
        E 0 93 3b 35
        E 42 83 3b 35
        E 0 93 39 35
        E 0 93 34 35
        E 99 83 34 35
        E 0 93 30 35
        E 14 83 30 35
        E 0 93 35 35
        E 42 83 35 35
        E 0 93 39 35
        E 113 83 39 35
        E 0 93 41 35
        E 85 83 41 35
        E 0 93 32 35
        E 56 83 32 35
        E 0 93 3b 35
        E 42 83 3b 35
        E 0 93 39 35
        E 0 93 34 35
        E 99 83 34 35
        E 0 93 30 35
        E 14 83 30 35
        E 0 93 35 35
        E 42 83 35 35
        E 0 93 39 35
        E 113 83 39 35
        E 0 93 41 35
        E 85 83 41 35
        E 0 93 32 35
        E 56 83 32 35
        E 0 93 3b 35
        E 42 83 3b 35
        E 0 93 39 35
        E 0 93 34 35
        E 99 83 34 35
        E 0 93 30 35
        E 14 83 30 35
        E 0 93 35 35
        E 42 83 35 35
        E 0 93 39 35
        E 113 83 39 35
        E 0 93 41 35
        E 85 83 41 35
        E 0 93 32 35
        E 56 83 32 35
        E 0 93 3b 35
        E 42 83 3b 35
        E 0 93 39 35
        E 0 93 34 35
        E 99 83 34 35
        E 0 93 30 35
        E 14 83 30 35
        E 0 93 35 35
        E 42 83 35 35
        E 0 93 39 35
        E 113 83 39 35
        E 0 93 41 35
        E 85 83 41 35
        E 0 93 32 35
        E 56 83 32 35
        E 0 93 3b 35
        E 42 83 3b 35
        E 0 93 39 35
        E 0 93 34 35
        E 99 83 34 35
        E 0 93 30 35
        E 14 83 30 35
        E 0 93 35 35
        E 42 83 35 35
        E 0 93 39 35
        E 113 83 39 35
        E 0 93 41 35
        E 85 83 41 35
        E 0 93 32 35
        E 56 83 32 35
        E 0 93 3b 35
        E 42 83 3b 35
        E 0 93 39 35
        E 0 93 34 35
        E 99 83 34 35
        E 0 93 30 35
        E 14 83 30 35
        E 0 93 35 35
        E 42 83 35 35
        E 0 93 39 35
        E 113 83 39 35
        E 0 93 41 35
        E 85 83 41 35
        E 0 93 32 35
        E 56 83 32 35
        E 0 93 3b 35
        E 42 83 3b 35
        E 0 93 39 35
        E 0 93 34 35
        E 99 83 34 35
        E 0 93 30 35
        E 14 83 30 35
        E 0 93 35 35
        E 42 83 35 35
        E 0 93 39 35
        E 113 83 39 35
        E 0 93 41 35
        E 85 83 41 35
        E 0 93 32 35
        E 56 83 32 35
        E 0 93 3b 35
        E 42 83 3b 35
        E 0 93 39 35
        E 0 93 34 35
        E 99 83 34 35
        E 0 93 30 35
        E 14 83 30 35
        E 0 93 35 35
        E 42 83 35 35
        E 0 93 39 35
        E 113 83 39 35
        E 0 93 41 35
        E 85 83 41 35
        E 0 93 32 35
        E 56 83 32 35
        E 0 93 3b 35
        E 42 83 3b 35
        E 0 93 39 35
        E 0 93 34 35
        E 99 83 34 35
        E 0 93 30 35
        E 14 83 30 35
        E 0 93 35 35
        E 42 83 35 35
        E 0 93 39 35
        E 113 83 39 35
        E 0 93 41 35
        E 85 83 41 35
        E 0 93 32 35
        E 56 83 32 35
        E 0 93 3b 35
        E 42 83 3b 35
        E 0 93 39 35
        E 0 93 34 35
        E 99 83 34 35
        E 0 93 30 35
        E 14 83 30 35
        E 0 93 35 35
        E 42 83 35 35
        E 0 93 39 35
        E 113 83 39 35
        E 0 93 41 35
        E 85 83 41 35
        E 0 93 32 35
        E 56 83 32 35
        E 0 93 3b 35
        E 42 83 3b 35
        E 0 93 39 35
        E 0 93 34 35
        E 99 83 34 35
        E 0 93 30 35
        E 14 83 30 35
        E 0 93 35 35
        E 42 83 35 35
        E 0 93 39 35
        E 113 83 39 35
        E 0 93 41 35
        E 85 83 41 35
        E 0 93 32 35
        E 56 83 32 35
        E 0 93 3b 35
        E 42 83 3b 35
        E 0 93 39 35
        E 0 93 34 35
        E 99 83 34 35
        E 0 93 30 35
        E 14 83 30 35
        E 0 93 35 35
        E 42 83 35 35
        E 0 93 39 35
        E 113 83 39 35
        E 0 93 41 35
        E 85 83 41 35
        E 0 93 32 35
        E 56 83 32 35
        E 0 93 3b 35
        E 42 83 3b 35
        E 0 93 39 35
        E 0 93 34 35
        E 99 83 34 35
        E 0 93 30 35
        E 14 83 30 35
        E 0 93 35 35
        E 42 83 35 35
        E 0 93 39 35
        E 113 83 39 35
        E 0 93 41 35
        E 85 83 41 35
        E 0 93 32 35
        E 56 83 32 35
        E 0 93 3b 35
        E 42 83 3b 35
        E 0 93 39 35
        E 0 93 34 35
        E 99 83 34 35
        E 0 93 30 35
        E 14 83 30 35
        E 0 93 35 35
        E 42 83 35 35
        E 0 93 39 35
        E 113 83 39 35
        E 0 93 41 35
        E 85 83 41 35
        E 0 93 32 35
        E 56 83 32 35
        E 0 93 3b 35
        E 42 83 3b 35
        E 0 93 39 35
        E 0 93 34 35
        E 99 83 34 35
        E 0 93 30 35
        E 14 83 30 35
        E 0 93 35 35
        E 42 83 35 35
        E 0 93 39 35
        E 113 83 39 35
        E 0 93 41 35
        E 85 83 41 35
        E 0 93 32 35
        E 56 83 32 35
        E 0 93 3b 35
        E 42 83 3b 35
        E 0 93 39 35
        E 0 93 34 35
        E 99 83 34 35
        E 0 93 30 35
        E 14 83 30 35
        E 0 93 35 35
        E 42 83 35 35
        E 0 93 39 35
        E 113 83 39 35
        E 0 93 41 35
        E 85 83 41 35
        E 0 93 32 35
        E 56 83 32 35
        E 0 93 3b 35
        E 42 83 3b 35
        E 0 93 39 35
        E 0 93 34 35
        E 99 83 34 35
        E 0 93 30 35
        E 14 83 30 35
        E 0 93 35 35
        E 42 83 35 35
        E 0 93 39 35
        E 113 83 39 35
        E 0 93 41 35
        E 85 83 41 35
        E 0 93 32 35
        E 56 83 32 35
        E 0 93 3b 35
        E 42 83 3b 35
        E 0 93 39 35
        E 0 93 34 35
        E 99 83 34 35
        E 0 93 30 35
        E 14 83 30 35
        E 0 93 35 35
        E 42 83 35 35
        E 0 93 39 35
        E 113 83 39 35
        E 0 93 41 35
        E 85 83 41 35
        E 0 93 32 35
        E 56 83 32 35
        E 0 93 3b 35
        E 42 83 3b 35
        E 0 93 39 35
        E 0 93 34 35
        E 99 83 34 35
        E 0 93 30 35
        E 14 83 30 35
        E 0 93 35 35
        E 42 83 35 35
        E 0 93 39 35
        E 113 83 39 35
        E 0 93 41 35
        E 85 83 41 35
        E 0 93 32 35
        E 56 83 32 35
        E 0 93 3b 35
        E 42 83 3b 35
        E 0 93 39 35
        E 0 93 34 35
        E 99 83 34 35
        E 0 93 30 35
        E 14 83 30 35
        E 0 93 35 35
        E 42 83 35 35
        E 0 93 39 35
        E 113 83 39 35
        E 0 93 41 35
        E 85 83 41 35
        E 0 93 32 35
        E 56 83 32 35
        E 0 93 3b 35
        E 42 83 3b 35
        E 0 93 39 35
        E 0 93 34 35
        E 99 83 34 35
        E 0 93 30 35
        E 14 83 30 35
        E 0 93 35 35
        E 42 83 35 35
        E 0 93 39 35
        E 113 83 39 35
        E 0 93 41 35
        E 85 83 41 35
        E 0 93 32 35
        E 56 83 32 35
        E 0 93 3b 35
        E 42 83 3b 35
        E 0 93 39 35
        E 0 93 34 35
        E 99 83 34 35
        E 0 93 30 35
        E 14 83 30 35
        E 0 93 35 35
        E 42 83 35 35
        E 0 93 39 35
        E 113 83 39 35
        E 0 93 41 35
        E 85 83 41 35
        E 0 93 32 35
        E 56 83 32 35
        E 0 93 3b 35
        E 42 83 3b 35
        E 0 93 39 35
        E 0 93 34 35
        E 99 83 34 35
        E 0 93 30 35
        E 14 83 30 35
        E 0 93 35 35
        E 42 83 35 35
        E 0 93 39 35
        E 113 83 39 35
        E 0 93 41 35
        E 85 83 41 35
        E 0 93 32 35
        E 56 83 32 35
        E 0 93 3b 35
        E 42 83 3b 35
        E 0 93 39 35
        E 0 93 34 35
        E 99 83 34 35
        E 0 93 30 35
        E 14 83 30 35
        E 0 93 35 35
        E 42 83 35 35
        E 0 93 39 35
        E 113 83 39 35
        E 0 93 41 35
        E 85 83 41 35
        E 0 93 32 35
        E 56 83 32 35
        E 0 93 3b 35
        E 42 83 3b 35
        E 0 93 39 35
        E 0 93 34 35
        E 99 83 34 35
        E 0 93 30 35
        E 14 83 30 35
        E 0 93 35 35
        E 42 83 35 35
        E 0 93 39 35
        E 113 83 39 35
        E 0 93 41 35
        E 85 83 41 35
        E 0 93 32 35
        E 56 83 32 35
        E 0 93 3b 35
        E 42 83 3b 35
        E 0 93 39 35
        E 0 93 34 35
        E 99 83 34 35
        E 0 93 30 35
        E 14 83 30 35
        E 0 93 35 35
        E 42 83 35 35
        E 0 93 39 35
        E 113 83 39 35
        E 0 93 41 35
        E 85 83 41 35
        E 0 93 32 35
        E 56 83 32 35
        E 0 93 3b 35
        E 42 83 3b 35
        E 0 93 39 35
        E 0 93 34 35
        E 99 83 34 35
        E 0 93 30 35
        E 14 83 30 35
        E 0 93 35 35
        E 42 83 35 35
        E 0 93 39 35
        E 113 83 39 35
        E 0 93 41 35
        E 85 83 41 35
        E 0 93 32 35
        E 56 83 32 35
        E 0 93 3b 35
        E 42 83 3b 35
        E 0 93 39 35
        E 0 93 34 35
        E 99 83 34 35
        E 0 93 30 35
        E 14 83 30 35
        E 0 93 35 35
        E 42 83 35 35
        E 0 93 39 35
        E 113 83 39 35
        E 0 93 41 35
        E 85 83 41 35
        E 0 93 32 35
        E 56 83 32 35
        E 0 93 3b 35
        E 42 83 3b 35
        E 0 93 39 35
        E 0 93 34 35
        E 99 83 34 35
        E 0 93 30 35
        E 14 83 30 35
        E 0 93 35 35
        E 42 83 35 35
        E 0 93 39 35
        E 113 83 39 35
        E 0 93 41 35
        E 85 83 41 35
        E 0 93 32 35
        E 56 83 32 35
        E 0 93 3b 35
        E 42 83 3b 35
        E 0 93 39 35
        E 0 93 34 35
        E 99 83 34 35
        E 0 93 30 35
        E 14 83 30 35
        E 0 93 35 35
        E 42 83 35 35
        E 0 93 39 35
        E 113 83 39 35
        E 0 93 41 35
        E 85 83 41 35
        E 0 93 32 35
        E 56 83 32 35
        E 0 93 3b 35
        E 42 83 3b 35
        E 0 93 39 35
        E 0 93 34 35
        E 99 83 34 35
        E 0 93 30 35
        E 14 83 30 35
        E 0 93 35 35
        E 42 83 35 35
        E 0 93 39 35
        E 113 83 39 35
        E 0 93 41 35
        E 85 83 41 35
        E 0 93 32 35
        E 56 83 32 35
        E 0 93 3b 35
        E 42 83 3b 35
        E 0 93 39 35
        E 0 93 34 35
        E 99 83 34 35
        E 0 93 30 35
        E 14 83 30 35
        E 0 93 35 35
        E 42 83 35 35
        E 0 93 39 35
        E 113 83 39 35
        E 0 93 41 35
        E 85 83 41 35
        E 0 93 32 35
        E 56 83 32 35
        E 0 93 3b 35
        E 42 83 3b 35
        E 0 93 39 35
        E 0 93 34 35
        E 99 83 34 35
        E 0 93 30 35
        E 14 83 30 35
        E 0 93 35 35
        E 42 83 35 35
        E 0 93 39 35
        E 113 83 39 35
        E 0 93 41 35
        E 85 83 41 35
        E 0 93 32 35
        E 56 83 32 35
        E 0 93 3b 35
        E 42 83 3b 35
        E 0 93 39 35
        E 0 93 34 35
        E 99 83 34 35
        E 0 93 30 35
        E 14 83 30 35
        E 0 93 35 35
        E 42 83 35 35
        E 0 93 39 35
        E 113 83 39 35
        E 0 93 41 35
        E 85 83 41 35
        E 0 93 32 35
        E 56 83 32 35
        E 0 93 3b 35
        E 42 83 3b 35
        E 0 93 39 35
        E 0 93 34 35
        E 99 83 34 35
        E 0 93 30 35
        E 14 83 30 35
        E 0 93 35 35
        E 42 83 35 35
        E 0 93 39 35
        E 113 83 39 35
        E 0 93 41 35
        E 85 83 41 35
        E 0 93 32 35
        E 56 83 32 35
        E 0 93 3b 35
        E 42 83 3b 35
        E 0 93 39 35
        E 0 93 34 35
        E 99 83 34 35
        E 0 93 30 35
        E 14 83 30 35
        E 0 93 35 35
        E 42 83 35 35
        E 0 93 39 35
        E 113 83 39 35
        E 0 93 41 35
        E 85 83 41 35
        E 0 93 32 35
        E 56 83 32 35
        E 0 93 3b 35
        E 42 83 3b 35
        E 0 93 39 35
        E 0 93 34 35
        E 99 83 34 35
        E 0 93 30 35
        E 14 83 30 35
        E 0 93 35 35
        E 42 83 35 35
        E 0 93 39 35
        E 113 83 39 35
        E 0 93 41 35
        E 85 83 41 35
        E 0 93 32 35
        E 56 83 32 35
        E 0 93 3b 35
        E 42 83 3b 35
        E 0 93 39 35
        E 0 93 34 35
        E 99 83 34 35
        E 0 93 30 35
        E 14 83 30 35
        E 0 93 35 35
        E 42 83 35 35
        E 0 93 39 35
        E 113 83 39 35
        E 0 93 41 35
        E 85 83 41 35
        E 0 93 32 35
        E 56 83 32 35
        E 0 93 3b 35
        E 42 83 3b 35
        E 0 93 39 35
        E 0 93 34 35
        E 99 83 34 35
        E 0 93 30 35
        E 14 83 30 35
        E 0 93 35 35
        E 42 83 35 35
        E 0 93 39 35
        E 113 83 39 35
        E 0 93 41 35
        E 85 83 41 35
        E 0 93 32 35
        E 56 83 32 35
        E 0 93 3b 35
        E 42 83 3b 35
        E 0 93 39 35
        E 0 93 34 35
        E 99 83 34 35
        E 0 93 30 35
        E 14 83 30 35
        E 0 93 35 35
        E 42 83 35 35
        E 0 93 39 35
        E 113 83 39 35
        E 0 93 41 35
        E 85 83 41 35
        E 0 93 32 35
        E 56 83 32 35
        E 0 93 3b 35
        E 42 83 3b 35
        E 0 93 39 35
        E 0 93 34 35
        E 99 83 34 35
        E 0 93 30 35
        E 14 83 30 35
        E 0 93 35 35
        E 42 83 35 35
        E 0 93 39 35
        E 113 83 39 35
        E 0 93 41 35
        E 85 83 41 35
        E 0 93 32 35
        E 56 83 32 35
        E 0 93 3b 35
        E 42 83 3b 35
        E 0 93 39 35
        E 0 93 34 35
        E 99 83 34 35
        E 0 93 30 35
        E 14 83 30 35
        E 0 93 35 35
        E 42 83 35 35
        E 0 93 39 35
        E 113 83 39 35
        E 0 93 41 35
        E 85 83 41 35
        E 0 93 32 35
        E 56 83 32 35
        E 0 93 3b 35
        E 42 83 3b 35
        E 0 93 39 35
        E 0 93 34 35
        E 99 83 34 35
        E 0 93 30 35
        E 14 83 30 35
        E 0 93 35 35
        E 42 83 35 35
        E 0 93 39 35
        E 113 83 39 35
        E 0 93 41 35
        E 85 83 41 35
        E 0 93 32 35
        E 56 83 32 35
        E 0 93 3b 35
        E 42 83 3b 35
        E 0 93 39 35
        E 0 93 34 35
        E 99 83 34 35
        E 0 93 30 35
        E 14 83 30 35
        E 0 93 35 35
        E 42 83 35 35
        E 0 93 39 35
        E 113 83 39 35
        E 0 93 41 35
        E 85 83 41 35
        E 0 93 32 35
        E 56 83 32 35
        E 0 93 3b 35
        E 42 83 3b 35
        E 0 93 39 35
        E 0 93 34 35
        E 99 83 34 35
        E 0 93 30 35
        E 14 83 30 35
        E 0 93 35 35
        E 42 83 35 35
        E 0 93 39 35
        E 113 83 39 35
        E 0 93 41 35
        E 85 83 41 35
        E 0 93 32 35
        E 56 83 32 35
        E 0 93 3b 35
        E 42 83 3b 35
        E 0 93 39 35
        E 0 93 34 35
        E 99 83 34 35
        E 0 93 30 35
        E 14 83 30 35
        E 0 93 35 35
        E 42 83 35 35
        E 0 93 39 35
        E 113 83 39 35
        E 0 93 41 35
        E 85 83 41 35
        E 0 93 32 35
        E 56 83 32 35
        E 0 93 3b 35
        E 42 83 3b 35
        E 0 93 39 35
        E 0 93 34 35
        E 99 83 34 35
        E 0 93 30 35
        E 14 83 30 35
        E 0 93 35 35
        E 42 83 35 35
        E 0 93 39 35
        E 113 83 39 35
        E 0 93 41 35
        E 85 83 41 35
        E 0 93 32 35
        E 56 83 32 35
        E 0 93 3b 35
        E 42 83 3b 35
        E 0 93 39 35
        E 0 93 34 35
        E 99 83 34 35
        E 0 93 30 35
        E 14 83 30 35
        E 0 93 35 35
        E 42 83 35 35
        E 0 93 39 35
        E 113 83 39 35
        E 0 93 41 35
        E 85 83 41 35
        E 0 93 32 35
        E 56 83 32 35
        E 0 93 3b 35
        E 42 83 3b 35
        E 0 93 39 35
        E 0 93 34 35
        E 99 83 34 35
        E 0 93 30 35
        E 14 83 30 35
        E 0 93 35 35
        E 42 83 35 35
        E 0 93 39 35
        E 113 83 39 35
        E 0 93 41 35
        E 85 83 41 35
        E 0 93 32 35
        E 56 83 32 35
        E 0 93 3b 35
        E 42 83 3b 35
        E 0 93 39 35
        E 0 93 34 35
        E 99 83 34 35
        E 0 93 30 35
        E 14 83 30 35
        E 0 93 35 35
        E 42 83 35 35
        E 0 93 39 35
        E 113 83 39 35
        E 0 93 41 35
        E 85 83 41 35
        E 0 93 32 35
        E 56 83 32 35
        E 0 93 3b 35
        E 42 83 3b 35
        E 0 93 39 35
        E 0 93 34 35
        E 99 83 34 35
        E 0 93 30 35
        E 14 83 30 35
        E 0 93 35 35
        E 42 83 35 35
        E 0 93 39 35
        E 113 83 39 35
        E 0 93 41 35
        E 85 83 41 35
        E 0 93 32 35
        E 56 83 32 35
        E 0 93 3b 35
        E 42 83 3b 35
        E 0 93 39 35
        E 0 93 34 35
        E 99 83 34 35
        E 0 93 30 35
        E 14 83 30 35
        E 0 93 35 35
        E 42 83 35 35
        E 0 93 39 35
        E 113 83 39 35
        E 0 93 41 35
        E 85 83 41 35
        E 0 93 32 35
        E 56 83 32 35
        E 0 93 3b 35
        E 42 83 3b 35
        E 0 93 39 35
        E 0 93 34 35
        E 99 83 34 35
        E 0 93 30 35
        E 14 83 30 35
        E 0 93 35 35
        E 42 83 35 35
        E 0 93 39 35
        E 113 83 39 35
        E 0 93 41 35
        E 85 83 41 35
        E 0 93 32 35
        E 56 83 32 35
        E 0 93 3b 35
        E 42 83 3b 35
        E 0 93 39 35
        E 0 93 34 35
        E 99 83 34 35
        E 0 93 30 35
        E 14 83 30 35
        E 0 93 35 35
        E 42 83 35 35
        E 0 93 39 35
        E 113 83 39 35
        E 0 93 41 35
        E 85 83 41 35
        E 0 93 32 35
        E 56 83 32 35
        E 0 93 3b 35
        E 42 83 3b 35
        E 0 93 39 35
        E 0 93 34 35
        E 99 83 34 35
        E 0 93 30 35
        E 14 83 30 35
        E 0 93 35 35
        E 42 83 35 35
        E 0 93 39 35
        E 113 83 39 35
        E 0 93 41 35
        E 85 83 41 35
        E 0 93 32 35
        E 56 83 32 35
        E 0 93 3b 35
        E 42 83 3b 35
        E 0 93 39 35
        E 0 93 34 35
        E 99 83 34 35
        E 0 93 30 35
        E 14 83 30 35
        E 0 93 35 35
        E 42 83 35 35
        E 0 93 39 35
        E 113 83 39 35
        E 0 93 41 35
        E 85 83 41 35
        E 0 93 32 35
        E 56 83 32 35
        E 0 93 3b 35
        E 42 83 3b 35
        E 0 93 39 35
        E 0 93 34 35
        E 99 83 34 35
        E 0 93 30 35
        E 14 83 30 35
        E 0 93 35 35
        E 42 83 35 35
        E 0 93 39 35
        E 113 83 39 35
        E 0 93 41 35
        E 85 83 41 35
        E 0 93 32 35
        E 56 83 32 35
        E 0 93 3b 35
        E 42 83 3b 35
        E 0 93 39 35
        E 0 93 34 35
        E 99 83 34 35
        E 0 93 30 35
        E 14 83 30 35
        E 0 93 35 35
        E 42 83 35 35
        E 0 93 39 35
        E 113 83 39 35
        E 0 93 41 35
        E 85 83 41 35
        E 0 93 32 35
        E 56 83 32 35
        E 0 93 3b 35
        E 42 83 3b 35
        E 0 93 39 35
        E 0 93 34 35
        E 99 83 34 35
        E 0 93 30 35
        E 14 83 30 35
        E 0 93 35 35
        E 42 83 35 35
        E 0 93 39 35
        E 113 83 39 35
        E 0 93 41 35
        E 85 83 41 35
        E 0 93 32 35
        E 56 83 32 35
        E 0 93 3b 35
        E 42 83 3b 35
        E 0 93 39 35
        E 0 93 34 35
        E 99 83 34 35
        E 0 93 30 35
        E 14 83 30 35
        E 0 93 35 35
        E 42 83 35 35
        E 0 93 39 35
        E 113 83 39 35
        E 0 93 41 35
        E 85 83 41 35
        E 0 93 32 35
        E 56 83 32 35
        E 0 93 3b 35
        E 42 83 3b 35
        E 0 93 39 35
        E 0 93 34 35
        E 99 83 34 35
        E 0 93 30 35
        E 14 83 30 35
        E 0 93 35 35
        E 42 83 35 35
        E 0 93 39 35
        E 113 83 39 35
        E 0 93 41 35
        E 85 83 41 35
        E 0 93 32 35
        E 56 83 32 35
        E 0 93 3b 35
        E 42 83 3b 35
        E 0 93 39 35
        E 0 93 34 35
        E 99 83 34 35
        E 0 93 30 35
        E 14 83 30 35
        E 0 93 35 35
        E 42 83 35 35
        E 0 93 39 35
        E 113 83 39 35
        E 0 93 41 35
        E 85 83 41 35
        E 0 93 32 35
        E 56 83 32 35
        E 0 93 3b 35
        E 42 83 3b 35
        E 0 93 39 35
        E 0 93 34 35
        E 99 83 34 35
        E 0 93 30 35
        E 14 83 30 35
        E 0 93 35 35
        E 42 83 35 35
        E 0 93 39 35
        E 113 83 39 35
        E 0 93 41 35
        E 85 83 41 35
        E 0 93 32 35
        E 56 83 32 35
        E 0 93 3b 35
        E 42 83 3b 35
        E 0 93 39 35
        E 0 93 34 35
        E 99 83 34 35
        E 0 93 30 35
        E 14 83 30 35
        E 0 93 35 35
        E 42 83 35 35
        E 0 93 39 35
        E 113 83 39 35
        E 0 93 41 35
        E 85 83 41 35
        E 0 93 32 35
        E 56 83 32 35
        E 0 93 3b 35
        E 42 83 3b 35
        E 0 93 39 35
        E 0 93 34 35
        E 99 83 34 35
        E 0 93 30 35
        E 14 83 30 35
        E 0 93 35 35
        E 42 83 35 35
        E 0 93 39 35
        E 113 83 39 35
        E 0 93 41 35
        E 85 83 41 35
        E 0 93 32 35
        E 56 83 32 35
        E 0 93 3b 35
        E 42 83 3b 35
        E 0 93 39 35
        E 0 93 34 35
        E 99 83 34 35
        E 0 93 30 35
        E 14 83 30 35
        E 0 93 35 35
        E 42 83 35 35
        E 0 93 39 35
        E 113 83 39 35
        E 0 93 41 35
        E 85 83 41 35
        E 0 93 32 35
        E 56 83 32 35
        E 0 93 3b 35
        E 42 83 3b 35
        E 0 93 39 35
        E 0 93 34 35
        E 99 83 34 35
        E 0 93 30 35
        E 14 83 30 35
        E 0 93 35 35
        E 42 83 35 35
        E 0 93 39 35
        E 113 83 39 35
        E 0 93 41 35
        E 85 83 41 35
        E 0 93 32 35
        E 56 83 32 35
        E 0 93 3b 35
        E 42 83 3b 35
        E 0 93 39 35
        E 0 93 34 35
        E 99 83 34 35
        E 0 93 30 35
        E 14 83 30 35
        E 0 93 35 35
        E 42 83 35 35
        E 0 93 39 35
        E 113 83 39 35
        E 0 93 41 35
        E 85 83 41 35
        E 0 93 32 35
        E 56 83 32 35
        E 0 93 3b 35
        E 42 83 3b 35
        E 0 93 39 35
        E 0 93 34 35
        E 99 83 34 35
        E 0 93 30 35
        E 14 83 30 35
        E 0 93 35 35
        E 42 83 35 35
        E 0 93 39 35
        E 113 83 39 35
        E 0 93 41 35
        E 85 83 41 35
        E 0 93 32 35
        E 56 83 32 35
        E 0 93 3b 35
        E 42 83 3b 35
        E 0 93 39 35
        E 0 93 34 35
        E 99 83 34 35
        E 0 93 30 35
        E 14 83 30 35
        E 0 93 35 35
        E 42 83 35 35
        E 0 93 39 35
        E 113 83 39 35
        E 0 93 41 35
        E 85 83 41 35
        E 0 93 32 35
        E 56 83 32 35
        E 0 93 3b 35
        E 42 83 3b 35
        E 0 93 39 35
        E 0 93 34 35
        E 99 83 34 35
        E 0 93 30 35
        E 14 83 30 35
        E 0 93 35 35
        E 42 83 35 35
        E 0 93 39 35
        E 113 83 39 35
        E 0 93 41 35
        E 85 83 41 35
        E 0 93 32 35
        E 56 83 32 35
        E 0 93 3b 35
        E 42 83 3b 35
        E 0 93 39 35
        E 0 93 34 35
        E 99 83 34 35
        E 0 93 3b 35
        E 42 83 3b 35
        E 0 93 39 35
        E 0 93 34 35
        E 99 83 34 35
        E 0 93 40 35
        E 28 83 40 35
        E 0 93 37 35
        E 99 83 37 35
        E 0 93 40 35
        E 113 83 40 35
        E 0 93 3b 35
        E 42 83 3b 35
        E 0 93 39 35
        E 0 93 34 35
        E 99 83 34 35
        E 0 93 40 35
        E 28 83 40 35
        E 0 93 37 35
        E 99 83 37 35
        E 0 93 40 35
        E 113 83 40 35
        E 0 93 3b 35
        E 42 83 3b 35
        E 0 93 39 35
        E 0 93 34 35
        E 99 83 34 35
        E 0 93 40 35
        E 28 83 40 35
        E 0 93 37 35
        E 99 83 37 35
        E 0 93 40 35
        E 113 83 40 35
        E 0 93 3b 35
        E 42 83 3b 35
        E 0 93 39 35
        E 0 93 34 35
        E 99 83 34 35
        E 0 93 40 35
        E 28 83 40 35
        E 0 93 37 35
        E 99 83 37 35
        E 0 93 40 35
        E 113 83 40 35
        E 0 93 3b 35
        E 42 83 3b 35
        E 0 93 39 35
        E 0 93 34 35
        E 99 83 34 35
        E 0 93 40 35
        E 28 83 40 35
        E 0 93 37 35
        E 99 83 37 35
        E 0 93 40 35
        E 113 83 40 35
        E 0 93 3b 35
        E 42 83 3b 35
        E 0 93 39 35
        E 0 93 34 35
        E 99 83 34 35
        E 0 93 40 35
        E 28 83 40 35
        E 0 93 37 35
        E 99 83 37 35
        E 0 93 40 35
        E 113 83 40 35
        E 0 93 3b 35
        E 42 83 3b 35
        E 0 93 39 35
        E 0 93 34 35
        E 99 83 34 35
        E 0 93 40 35
        E 28 83 40 35
        E 0 93 37 35
        E 99 83 37 35
        E 0 93 40 35
        E 113 83 40 35
        E 0 93 3b 35
        E 42 83 3b 35
        E 0 93 39 35
        E 0 93 34 35
        E 99 83 34 35
        E 0 93 40 35
        E 28 83 40 35
        E 0 93 37 35
        E 99 83 37 35
        E 0 93 40 35
        E 113 83 40 35
        E 0 93 3b 35
        E 42 83 3b 35
        E 0 93 39 35
        E 0 93 34 35
        E 99 83 34 35
        E 0 93 40 35
        E 28 83 40 35
        E 0 93 37 35
        E 99 83 37 35
        E 0 93 40 35
        E 113 83 40 35
        E 0 93 3b 35
        E 42 83 3b 35
        E 0 93 39 35
        E 0 93 34 35
        E 99 83 34 35
        E 0 93 40 35
        E 28 83 40 35
        E 0 93 37 35
        E 99 83 37 35
        E 0 93 40 35
        E 113 83 40 35
        E 0 93 3b 35
        E 42 83 3b 35
        E 0 93 39 35
        E 0 93 34 35
        E 99 83 34 35
        E 0 93 40 35
        E 28 83 40 35
        E 0 93 37 35
        E 99 83 37 35
        E 0 93 40 35
        E 113 83 40 35
        E 0 93 3b 35
        E 42 83 3b 35
        E 0 93 39 35
        E 0 93 34 35
        E 99 83 34 35
        E 0 93 40 35
        E 28 83 40 35
        E 0 93 37 35
        E 99 83 37 35
        E 0 93 40 35
        E 113 83 40 35
        E 0 93 3b 35
        E 42 83 3b 35
        E 0 93 39 35
        E 0 93 34 35
        E 99 83 34 35
        E 0 93 40 35
        E 28 83 40 35
        E 0 93 37 35
        E 99 83 37 35
        E 0 93 40 35
        E 113 83 40 35
        E 0 93 3b 35
        E 42 83 3b 35
        E 0 93 39 35
        E 0 93 34 35
        E 99 83 34 35
        E 0 93 40 35
        E 28 83 40 35
        E 0 93 37 35
        E 99 83 37 35
        E 0 93 40 35
        E 113 83 40 35
        E 0 93 3b 35
        E 42 83 3b 35
        E 0 93 39 35
        E 0 93 34 35
        E 99 83 34 35
        E 0 93 40 35
        E 28 83 40 35
        E 0 93 37 35
        E 99 83 37 35
        E 0 93 40 35
        E 113 83 40 35
        E 0 93 3b 35
        E 42 83 3b 35
        E 0 93 39 35
        E 0 93 34 35
        E 99 83 34 35
        E 0 93 40 35
        E 28 83 40 35
        E 0 93 37 35
        E 99 83 37 35
        E 0 93 40 35
        E 113 83 40 35
        E 0 93 3b 35
        E 42 83 3b 35
        E 0 93 39 35
        E 0 93 34 35
        E 99 83 34 35
        E 0 93 40 35
        E 28 83 40 35
        E 0 93 37 35
        E 99 83 37 35
        E 0 93 40 35
        E 113 83 40 35
        E 0 93 3b 35
        E 42 83 3b 35
        E 0 93 39 35
        E 0 93 34 35
        E 99 83 34 35
        E 0 93 40 35
        E 28 83 40 35
        E 0 93 37 35
        E 99 83 37 35
        E 0 93 40 35
        E 113 83 40 35
        E 0 93 3b 35
        E 42 83 3b 35
        E 0 93 39 35
        E 0 93 34 35
        E 99 83 34 35
        E 0 93 40 35
        E 28 83 40 35
        E 0 93 37 35
        E 99 83 37 35
        E 0 93 40 35
        E 113 83 40 35
        E 0 93 3b 35
        E 42 83 3b 35
        E 0 93 39 35
        E 0 93 34 35
        E 99 83 34 35
        E 0 93 40 35
        E 28 83 40 35
        E 0 93 37 35
        E 99 83 37 35
        E 0 93 40 35
        E 113 83 40 35
        E 0 93 3b 35
        E 42 83 3b 35
        E 0 93 39 35
        E 0 93 34 35
        E 99 83 34 35
        E 0 93 40 35
        E 28 83 40 35
        E 0 93 37 35
        E 99 83 37 35
        E 0 93 40 35
        E 113 83 40 35
        E 0 93 3b 35
        E 42 83 3b 35
        E 0 93 39 35
        E 0 93 34 35
        E 99 83 34 35
        E 0 93 40 35
        E 28 83 40 35
        E 0 93 37 35
        E 99 83 37 35
        E 0 93 40 35
        E 113 83 40 35
        E 0 93 3b 35
        E 42 83 3b 35
        E 0 93 39 35
        E 0 93 34 35
        E 99 83 34 35
        E 0 93 40 35
        E 28 83 40 35
        E 0 93 37 35
        E 99 83 37 35
        E 0 93 40 35
        E 113 83 40 35
        E 0 93 3b 35
        E 42 83 3b 35
        E 0 93 39 35
        E 0 93 34 35
        E 99 83 34 35
        E 0 93 40 35
        E 28 83 40 35
        E 0 93 37 35
        E 99 83 37 35
        E 0 93 40 35
        E 113 83 40 35
        E 0 93 3b 35
        E 42 83 3b 35
        E 0 93 39 35
        E 0 93 34 35
        E 99 83 34 35
        E 0 93 40 35
        E 28 83 40 35
        E 0 93 37 35
        E 99 83 37 35
        E 0 93 40 35
        E 113 83 40 35
        E 0 93 3b 35
        E 42 83 3b 35
        E 0 93 39 35
        E 0 93 34 35
        E 99 83 34 35
        E 0 93 40 35
        E 28 83 40 35
        E 0 93 37 35
        E 99 83 37 35
        E 0 93 40 35
        E 113 83 40 35
        E 0 93 3b 35
        E 42 83 3b 35
        E 0 93 39 35
        E 0 93 34 35
        E 99 83 34 35
        E 0 93 40 35
        E 28 83 40 35
        E 0 93 37 35
        E 99 83 37 35
        E 0 93 40 35
        E 113 83 40 35
        E 0 93 3b 35
        E 42 83 3b 35
        E 0 93 39 35
        E 0 93 34 35
        E 99 83 34 35
        E 0 93 40 35
        E 28 83 40 35
        E 0 93 37 35
        E 99 83 37 35
        E 0 93 40 35
        E 113 83 40 35
        E 0 93 3b 35
        E 42 83 3b 35
        E 0 93 39 35
        E 0 93 34 35
        E 99 83 34 35
        E 0 93 40 35
        E 28 83 40 35
        E 0 93 37 35
        E 99 83 37 35
        E 0 93 40 35
        E 113 83 40 35
        E 0 93 3b 35
        E 42 83 3b 35
        E 0 93 39 35
        E 0 93 34 35
        E 99 83 34 35
        E 0 93 40 35
        E 28 83 40 35
        E 0 93 37 35
        E 99 83 37 35
        E 0 93 40 35
        E 113 83 40 35
        E 0 93 3b 35
        E 42 83 3b 35
        E 0 93 39 35
        E 0 93 34 35
        E 99 83 34 35
        E 0 93 40 35
        E 28 83 40 35
        E 0 93 37 35
        E 99 83 37 35
        E 0 93 40 35
        E 113 83 40 35
        E 0 93 3b 35
        E 42 83 3b 35
        E 0 93 39 35
        E 0 93 34 35
        E 99 83 34 35
        E 0 93 40 35
        E 28 83 40 35
        E 0 93 37 35
        E 99 83 37 35
        E 0 93 40 35
        E 113 83 40 35
        E 0 93 3b 35
        E 42 83 3b 35
        E 0 93 39 35
        E 0 93 34 35
        E 99 83 34 35
        E 0 93 40 35
        E 28 83 40 35
        E 0 93 37 35
        E 99 83 37 35
        E 0 93 40 35
        E 113 83 40 35
        E 0 93 3b 35
        E 42 83 3b 35
        E 0 93 39 35
        E 0 93 34 35
        E 99 83 34 35
        E 0 93 40 35
        E 28 83 40 35
        E 0 93 37 35
        E 99 83 37 35
        E 0 93 40 35
        E 113 83 40 35
        E 0 93 3b 35
        E 42 83 3b 35
        E 0 93 39 35
        E 0 93 34 35
        E 99 83 34 35
        E 0 93 40 35
        E 28 83 40 35
        E 0 93 37 35
        E 99 83 37 35
        E 0 93 40 35
        E 113 83 40 35
        E 0 93 3b 35
        E 42 83 3b 35
        E 0 93 39 35
        E 0 93 34 35
        E 99 83 34 35
        E 0 93 40 35
        E 28 83 40 35
        E 0 93 37 35
        E 99 83 37 35
        E 0 93 40 35
        E 113 83 40 35
        E 0 93 3b 35
        E 42 83 3b 35
        E 0 93 39 35
        E 0 93 34 35
        E 99 83 34 35
        E 0 93 40 35
        E 28 83 40 35
        E 0 93 37 35
        E 99 83 37 35
        E 0 93 40 35
        E 113 83 40 35
        E 0 93 3b 35
        E 42 83 3b 35
        E 0 93 39 35
        E 0 93 34 35
        E 99 83 34 35
        E 0 93 40 35
        E 28 83 40 35
        E 0 93 37 35
        E 99 83 37 35
        E 0 93 40 35
        E 113 83 40 35
        E 0 93 3b 35
        E 42 83 3b 35
        E 0 93 39 35
        E 0 93 34 35
        E 99 83 34 35
        E 0 93 40 35
        E 28 83 40 35
        E 0 93 37 35
        E 99 83 37 35
        E 0 93 40 35
        E 113 83 40 35
        E 0 93 3b 35
        E 42 83 3b 35
        E 0 93 39 35
        E 0 93 34 35
        E 99 83 34 35
        E 0 93 40 35
        E 28 83 40 35
        E 0 93 37 35
        E 99 83 37 35
        E 0 93 40 35
        E 113 83 40 35
        E 0 93 3b 35
        E 42 83 3b 35
        E 0 93 39 35
        E 0 93 34 35
        E 99 83 34 35
        E 0 93 40 35
        E 28 83 40 35
        E 0 93 37 35
        E 99 83 37 35
        E 0 93 40 35
        E 113 83 40 35
        E 0 93 3b 35
        E 42 83 3b 35
        E 0 93 39 35
        E 0 93 34 35
        E 99 83 34 35
        E 0 93 40 35
        E 28 83 40 35
        E 0 93 37 35
        E 99 83 37 35
        E 0 93 40 35
        E 113 83 40 35
        E 0 93 3b 35
        E 42 83 3b 35
        E 0 93 39 35
        E 0 93 34 35
        E 99 83 34 35
        E 0 93 40 35
        E 28 83 40 35
        E 0 93 37 35
        E 99 83 37 35
        E 0 93 40 35
        E 113 83 40 35
        E 0 93 3b 35
        E 42 83 3b 35
        E 0 93 39 35
        E 0 93 34 35
        E 99 83 34 35
        E 0 93 40 35
        E 28 83 40 35
        E 0 93 37 35
        E 99 83 37 35
        E 0 93 40 35
        E 113 83 40 35
        E 0 93 3b 35
        E 42 83 3b 35
        E 0 93 39 35
        E 0 93 34 35
        E 99 83 34 35
        E 0 93 40 35
        E 28 83 40 35
        E 0 93 37 35
        E 99 83 37 35
        E 0 93 40 35
        E 113 83 40 35
        E 0 93 3b 35
        E 42 83 3b 35
        E 0 93 39 35
        E 0 93 34 35
        E 99 83 34 35
        E 0 93 40 35
        E 28 83 40 35
        E 0 93 37 35
        E 99 83 37 35
        E 0 93 40 35
        E 113 83 40 35
        E 0 93 3b 35
        E 42 83 3b 35
        E 0 93 39 35
        E 0 93 34 35
        E 99 83 34 35
        E 0 93 40 35
        E 28 83 40 35
        E 0 93 37 35
        E 99 83 37 35
        E 0 93 40 35
        E 113 83 40 35
        E 0 93 3b 35
        E 42 83 3b 35
        E 0 93 39 35
        E 0 93 34 35
        E 99 83 34 35
        E 0 93 40 35
        E 28 83 40 35
        E 0 93 37 35
        E 99 83 37 35
        E 0 93 40 35
        E 113 83 40 35
        E 0 93 3b 35
        E 42 83 3b 35
        E 0 93 39 35
        E 0 93 34 35
        E 99 83 34 35
        E 0 93 40 35
        E 28 83 40 35
        E 0 93 37 35
        E 99 83 37 35
        E 0 93 40 35
        E 113 83 40 35
        E 0 93 3b 35
        E 42 83 3b 35
        E 0 93 39 35
        E 0 93 34 35
        E 99 83 34 35
        E 0 93 40 35
        E 28 83 40 35
        E 0 93 37 35
        E 99 83 37 35
        E 0 93 40 35
        E 113 83 40 35
        E 0 93 3b 35
        E 42 83 3b 35
        E 0 93 39 35
        E 0 93 34 35
        E 99 83 34 35
        E 0 93 40 35
        E 28 83 40 35
        E 0 93 37 35
        E 99 83 37 35
        E 0 93 40 35
        E 113 83 40 35
        E 0 93 3b 35
        E 42 83 3b 35
        E 0 93 39 35
        E 0 93 34 35
        E 99 83 34 35
        E 0 93 40 35
        E 28 83 40 35
        E 0 93 37 35
        E 99 83 37 35
        E 0 93 40 35
        E 113 83 40 35
        E 0 93 3b 35
        E 42 83 3b 35
        E 0 93 39 35
        E 0 93 34 35
        E 99 83 34 35
        E 0 93 40 35
        E 28 83 40 35
        E 0 93 37 35
        E 99 83 37 35
        E 0 93 40 35
        E 113 83 40 35
        E 0 93 3b 35
        E 42 83 3b 35
        E 0 93 39 35
        E 0 93 34 35
        E 99 83 34 35
        E 0 93 40 35
        E 28 83 40 35
        E 0 93 37 35
        E 99 83 37 35
        E 0 93 40 35
        E 113 83 40 35
        E 0 93 41 35
        E 85 83 41 35
        E 0 93 32 35
        E 56 83 32 35
        E 0 93 3b 35
        E 42 83 3b 35
        E 0 93 41 35
        E 85 83 41 35
        E 0 93 32 35
        E 56 83 32 35
        E 0 93 3b 35
        E 42 83 3b 35
        E 0 93 41 35
        E 85 83 41 35
        E 0 93 32 35
        E 56 83 32 35
        E 0 93 3b 35
        E 42 83 3b 35
        E 0 93 41 35
        E 85 83 41 35
        E 0 93 32 35
        E 56 83 32 35
        E 0 93 3b 35
        E 42 83 3b 35
        E 0 93 41 35
        E 85 83 41 35
        E 0 93 32 35
        E 56 83 32 35
        E 0 93 3b 35
        E 42 83 3b 35
        E 0 93 41 35
        E 85 83 41 35
        E 0 93 32 35
        E 56 83 32 35
        E 0 93 3b 35
        E 42 83 3b 35
        E 0 93 41 35
        E 85 83 41 35
        E 0 93 32 35
        E 56 83 32 35
        E 0 93 3b 35
        E 42 83 3b 35
        E 0 93 41 35
        E 85 83 41 35
        E 0 93 32 35
        E 56 83 32 35
        E 0 93 3b 35
        E 42 83 3b 35
        E 0 93 41 35
        E 85 83 41 35
        E 0 93 32 35
        E 56 83 32 35
        E 0 93 3b 35
        E 42 83 3b 35
        E 0 93 41 35
        E 85 83 41 35
        E 0 93 32 35
        E 56 83 32 35
        E 0 93 3b 35
        E 42 83 3b 35
        E 0 93 41 35
        E 85 83 41 35
        E 0 93 32 35
        E 56 83 32 35
        E 0 93 3b 35
        E 42 83 3b 35
        E 0 93 41 35
        E 85 83 41 35
        E 0 93 32 35
        E 56 83 32 35
        E 0 93 3b 35
        E 42 83 3b 35
        E 0 93 41 35
        E 85 83 41 35
        E 0 93 32 35
        E 56 83 32 35
        E 0 93 3b 35
        E 42 83 3b 35
        E 0 93 41 35
        E 85 83 41 35
        E 0 93 32 35
        E 56 83 32 35
        E 0 93 3b 35
        E 42 83 3b 35
        E 0 93 41 35
        E 85 83 41 35
        E 0 93 32 35
        E 56 83 32 35
        E 0 93 3b 35
        E 42 83 3b 35
        E 0 93 41 35
        E 85 83 41 35
        E 0 93 32 35
        E 56 83 32 35
        E 0 93 3b 35
        E 42 83 3b 35
        E 0 93 41 35
        E 85 83 41 35
        E 0 93 32 35
        E 56 83 32 35
        E 0 93 3b 35
        E 42 83 3b 35
        E 0 93 41 35
        E 85 83 41 35
        E 0 93 32 35
        E 56 83 32 35
        E 0 93 3b 35
        E 42 83 3b 35
        E 0 93 41 35
        E 85 83 41 35
        E 0 93 32 35
        E 56 83 32 35
        E 0 93 3b 35
        E 42 83 3b 35
        E 0 93 41 35
        E 85 83 41 35
        E 0 93 32 35
        E 56 83 32 35
        E 0 93 3b 35
        E 42 83 3b 35
        E 0 93 41 35
        E 85 83 41 35
        E 0 93 32 35
        E 56 83 32 35
        E 0 93 3b 35
        E 42 83 3b 35
        E 0 93 41 35
        E 85 83 41 35
        E 0 93 32 35
        E 56 83 32 35
        E 0 93 3b 35
        E 42 83 3b 35
        E 0 93 41 35
        E 85 83 41 35
        E 0 93 32 35
        E 56 83 32 35
        E 0 93 3b 35
        E 42 83 3b 35
        E 0 93 41 35
        E 85 83 41 35
        E 0 93 32 35
        E 56 83 32 35
        E 0 93 3b 35
        E 42 83 3b 35
        E 0 93 41 35
        E 85 83 41 35
        E 0 93 32 35
        E 56 83 32 35
        E 0 93 3b 35
        E 42 83 3b 35
        E 0 93 41 35
        E 85 83 41 35
        E 0 93 32 35
        E 56 83 32 35
        E 0 93 3b 35
        E 42 83 3b 35
        E 0 93 41 35
        E 85 83 41 35
        E 0 93 32 35
        E 56 83 32 35
        E 0 93 3b 35
        E 42 83 3b 35
        E 0 93 41 35
        E 85 83 41 35
        E 0 93 32 35
        E 56 83 32 35
        E 0 93 3b 35
        E 42 83 3b 35
        E 0 93 41 35
        E 85 83 41 35
        E 0 93 32 35
        E 56 83 32 35
        E 0 93 3b 35
        E 42 83 3b 35
        E 0 93 41 35
        E 85 83 41 35
        E 0 93 32 35
        E 56 83 32 35
        E 0 93 3b 35
        E 42 83 3b 35
        E 0 93 41 35
        E 85 83 41 35
        E 0 93 32 35
        E 56 83 32 35
        E 0 93 3b 35
        E 42 83 3b 35
        E 0 93 41 35
        E 85 83 41 35
        E 0 93 32 35
        E 56 83 32 35
        E 0 93 3b 35
        E 42 83 3b 35
        E 0 93 41 35
        E 85 83 41 35
        E 0 93 32 35
        E 56 83 32 35
        E 0 93 3b 35
        E 42 83 3b 35
        E 0 93 41 35
        E 85 83 41 35
        E 0 93 32 35
        E 56 83 32 35
        E 0 93 3b 35
        E 42 83 3b 35
        E 0 93 41 35
        E 85 83 41 35
        E 0 93 32 35
        E 56 83 32 35
        E 0 93 3b 35
        E 42 83 3b 35
        E 0 93 41 35
        E 85 83 41 35
        E 0 93 32 35
        E 56 83 32 35
        E 0 93 3b 35
        E 42 83 3b 35
        E 45 b0 7b 00
        CCINTERP 32
        CHASE_CC_TAKEOFFS 1
        GUID {B9D909B1-7420-0A47-AFDC-6F8DEF815127}
        IGNTEMPO 0 120 4 4
        SRCCOLOR 594
        VELLANE 3 601 0
        VELLANE -1 196 0
        CFGEDITVIEW 0 0.008186 62 12 0 -1 0 0 0 0.5
        KEYSNAP 0
        TRACKSEL 252
        EVTFILTER 0 -1 -1 -1 -1 0 0 0 0 -1 -1 -1 -1 0 -1 0 -1 -1
        CFGEDIT 1 1 0 1 0 0 1 1 1 1 1 0.125 0 0 1792 1095 0 0 0 0 0 0 0 0 0 0.5 0 0 1 64
      >
    >
  >
  <TRACK {50AB86FA-8492-4D48-8500-A2BE2F8911FB}
    NAME "germ-x hand sanitizer"
    PEAKCOL 16576
    BEAT -1
    AUTOMODE 0
    VOLPAN 1 0 -1 -1 1
    MUTESOLO 0 0 0
    IPHASE 0
    PLAYOFFS 0 1
    ISBUS 0 0
    BUSCOMP 0 0 0 0 0
    SHOWINMIX 1 0.6667 0.5 1 0.5 0 -1 0
    FREEMODE 0
    SEL 0
    REC 0 0 1 0 0 0 0
    VU 2
    TRACKHEIGHT 0 0 0 0 -1 0
    INQ 0 0 0 0.5 100 0 0 100
    NCHAN 2
    FX 1
    TRACKID {50AB86FA-8492-4D48-8500-A2BE2F8911FB}
    PERF 0
    MIDIOUT -1
    MAINSEND 1 0
    <FXCHAIN
      SHOW 0
      LASTSEL 0
      DOCKED 0
      BYPASS 0 0 0
      <VST "VSTi: FM8 (Native Instruments GmbH)" FM8.vst 0 "" 1315530296<5653544E696638666D38000000000000> ""
        OGZpTu5e7f4AAAAAAgAAAAEAAAAAAAAAAgAAAAAAAAAYBwAAAQAAAAAAEAA=
        GAcAAAAAAAABAAAAaHNpbgEAAAAAAAAAN455D8DDx0mHoN4j0l/0WZYAAAAAAAAARFNJTnYAAAABAAAASAAAAAAAAABEU0lOagAAAAEAAAAYAAAAAAAAAERTSU4BAAAA
        AQAAAAEAAAABAAAAAQAAAAEAAAAAAAAAAAAAAAAAAAANYmWFAQAAAAhwEAAAAAAAAQAAAAEAAAAAAAAAAAAAAAAAAAADAAAAMAAwADAAAAAAAAAAAAAAAAAAAAAAAAEA
        AAABAAAAAAAAAERTSU5lAAAARgYAAAAAAAABAAAAaHNpbgEAAAAAAAAAMOH4NwAUwEaoogAOyNUgkW0AAAAAAAAARFNJTmUAAAABAAAANAAAAAAAAABEU0lOagAAAAEA
        AAAYAAAAAAAAAERTSU4BAAAAAQAAAAEAAAABAAAAAgAAAAEAAAAACAAAAAEAAAAKAAAAMQAuADIALgAwAC4AMQAwADEAMAABAAAAAwAAAAAAAABEU0lObAAAAKgBAAAA
        AAAAAQAAAGhzaW4BAAAAAAAAACA7190CLVtKvWPIjKqbw/t4AQAAAAAAAERTSU5sAAAAAQAAABgAAAAAAAAARFNJTgEAAAABAAAAAQAAAAEAAAACAAAAAQAAAAAAAAAI
        AAAATgBlAHcAUwBvAHUAbgBkAAcAAABuAG8AdAAgAHMAZQB0AAAAAAAAAAAAAAAAAAAAAAAAAAAAAAAAAAAAAAAAAAAAAAAAAAEAAAABAAAAAQAAAAMAAABGAE0AOAAA
        AAAAAAAAAAcAAAAHAAAAXABAAGMAbwBsAG8AcgABAAAAMAARAAAAXABAAGQAZQB2AGkAYwBlAHQAeQBwAGUAZgBsAGEAZwBzAAEAAAAxAAsAAABcAEAAcwBvAHUAbgBk
        AHQAeQBwAGUAAQAAADAABwAAAFwAQAB0AGUAbQBwAG8AAQAAADAABgAAAFwAQAB2AGUAcgBsAAUAAAAxAC4ANwAuADgABgAAAFwAQAB2AGUAcgBtAAUAAAAxAC4ANwAu
        ADgABwAAAFwAQAB2AGkAcwBpAGIAAQAAADAAAQAAAAAAAAACAAAARFNJTnkAAABoAAAAAAAAAAEAAABoc2luAQAAAAAAAABG64vCmumHRIQ9Mih2ujahOAAAAAAAAABE
        U0lOeQAAAAEAAAAYAAAAAAAAAERTSU4BAAAAAQAAAAEAAAABAAAAAQAAAAAAAAABAAAAAAAAAAEAAABEU0lOdAAAAHUDAAAAAAAAAQAAAGhzaW4BAAAAAAAAAMPiDYJz
        LJxOuWtBgMMVvqRFAwAAAAAAAERTSU50AAAAAQAAACwDAAAAAAAARFNJTnMAAAABAAAAGAAAAAAAAABEU0lOAQAAAAEAAAABAAAAAQAAAAG9DwAA8wIAAAK9DwBgAAAB
        IAUDaHNpbkAHQAAQHyRrBvAZSEqYrqFXTcEPPBhAFCAAA0RTSU5AI+AHA0AAQBsAbSAIAWkPIAQgAEAj4ANTEEkCYzKs2sVGp2B2wrYRj5w5oCfAN0Av4BdnQCMB8Q4g
        XCAAAAUgAwFjDCAEIAAIdHNycEU4TUbPIAsEvCMAAAcgBwZkZWZhdWx04BgKICoAP+ACAwNBAACAIA8AoCAH4AsAAPAgF0AfwAAAICAPwABgFwVAAABIQgDgBABAD0AD
        4BcfYAAge+AEA0AAwBPgAwBAE+AAAAPNzMw+IAwDP5qZGUAXwAPgABcgCuAHG0ATQADgBwdAACATYKtAACALYANAAEALQAAg42AAwA9AB0AD4AMAwA9AB0ADwABAC8AD
        QADAC8AHQADgAwtAAEAP4AMAIA/Bn8AHAMjhDnPgHwDgAO/gDgBAX0ADwABBz8H7QAtAAwCgIINAB0AAALQgCwCWIAPgAwDAP0AHQAPAAEAz4MdLIAAAAcAAIAuAAAAC
        wACADuAdAOAALAD+4B0v4CEAABTgISrgMADBA+AKAGBTgAXgAABChuAXA+AeAOD9WSBZIkBBUgH6Q0AH4FUMQ9VAZwH6Q6BnBYA/zLyMK+BVDOABACBnBAA/ZmZmYAPg
        YwwgAABwJOwB/kJAdCAA4D4MosLgAFaAAKBjgADgOAwgYwRwwgAAhmC6JliAA0BW4EEMIGPgAE3g8AAAUCAA4Of8AP/gFwAABEERCggyAwAAQDIAAAA8QikgAwHwQmLY
        AAEgAYLiIAcgAkKVgAagCSA3oAkgSKAJKxegCQAG4AAJKwSgEyAAoAmASKAGoBPgwk/gSwAAEaBUA2tuYWJBMcAAAYAAIAAAGaARA2N0bmlMiwERJ2FcTFBAAEocAaBC
        4hMPTInAH00bwAvg/QDgvQABIACAAANzaXVnQiQA6CNxwAAAKiAIABkgAyOYYAAj0mAAB2dwdGNZVE1FQAwLDWJlhQEAAAAAAAAAAQAAAAABAAAAAAAAAA==
        ADxkaXNhYmxlZD4AEAAAAA==
      >
      PRESETNAME <disabled>
      FLOATPOS 0 0 0 0
      FXID {D3A0A120-6D35-1745-8D4B-AAF4F4686873}
      WAK 0 0
    >
    <ITEM
      POSITION 138.3782400000137
      SNAPOFFS 0
      LENGTH 246.48623999998631
      LOOP 1
      ALLTAKES 0
      FADEIN 1 0 0 1 0 0
      FADEOUT 1 0 0 1 0 0
      MUTE 0 0
      SEL 0
      IGUID {479DCFD4-57B6-D14F-81A7-ED8B963F0A84}
      IID 28
      NAME "germ-x hand sanitizer.mid"
      VOLPAN 1 0 1 -1
      SOFFS 0 0
      PLAYRATE 1 1 0 -1 0 0.0025
      CHANMODE 0
      GUID {2E077CF3-6978-8C44-B55D-C5D78C98A5E3}
      <SOURCE MIDI
        HASDATA 1 128 QN
        CCINTERP 32
        POOLEDEVTS {B38BF296-145B-9A44-A305-D3787DDA7038}
        E 0 94 40 35
        E 170 84 40 35
        E 0 94 41 35
        E 106 84 41 35
        E 0 94 40 35
        E 170 84 40 35
        E 0 94 41 35
        E 106 84 41 35
        E 0 94 40 35
        E 170 84 40 35
        E 0 94 41 35
        E 106 84 41 35
        E 0 94 40 35
        E 170 84 40 35
        E 0 94 41 35
        E 106 84 41 35
        E 0 94 40 35
        E 170 84 40 35
        E 0 94 41 35
        E 106 84 41 35
        E 0 94 40 35
        E 170 84 40 35
        E 0 94 41 35
        E 106 84 41 35
        E 0 94 40 35
        E 170 84 40 35
        E 0 94 41 35
        E 106 84 41 35
        E 0 94 40 35
        E 170 84 40 35
        E 0 94 41 35
        E 106 84 41 35
        E 0 94 40 35
        E 170 84 40 35
        E 0 94 41 35
        E 106 84 41 35
        E 0 94 40 35
        E 170 84 40 35
        E 0 94 41 35
        E 106 84 41 35
        E 0 94 40 35
        E 170 84 40 35
        E 0 94 41 35
        E 106 84 41 35
        E 0 94 40 35
        E 170 84 40 35
        E 0 94 41 35
        E 106 84 41 35
        E 0 94 40 35
        E 170 84 40 35
        E 0 94 41 35
        E 106 84 41 35
        E 0 94 40 35
        E 170 84 40 35
        E 0 94 41 35
        E 106 84 41 35
        E 0 94 40 35
        E 170 84 40 35
        E 0 94 41 35
        E 106 84 41 35
        E 0 94 40 35
        E 170 84 40 35
        E 0 94 41 35
        E 106 84 41 35
        E 0 94 40 35
        E 170 84 40 35
        E 0 94 41 35
        E 106 84 41 35
        E 0 94 40 35
        E 170 84 40 35
        E 0 94 41 35
        E 106 84 41 35
        E 0 94 30 35
        E 21 84 30 35
        E 0 94 35 35
        E 64 84 35 35
        E 0 94 39 35
        E 170 84 39 35
        E 0 94 41 35
        E 128 84 41 35
        E 0 94 32 35
        E 85 84 32 35
        E 0 94 3b 35
        E 64 84 3b 35
        E 0 94 39 35
        E 0 94 34 35
        E 149 84 34 35
        E 0 94 30 35
        E 21 84 30 35
        E 0 94 35 35
        E 64 84 35 35
        E 0 94 39 35
        E 170 84 39 35
        E 0 94 41 35
        E 128 84 41 35
        E 0 94 32 35
        E 85 84 32 35
        E 0 94 3b 35
        E 64 84 3b 35
        E 0 94 39 35
        E 0 94 34 35
        E 149 84 34 35
        E 0 94 30 35
        E 21 84 30 35
        E 0 94 35 35
        E 64 84 35 35
        E 0 94 39 35
        E 170 84 39 35
        E 0 94 41 35
        E 128 84 41 35
        E 0 94 32 35
        E 85 84 32 35
        E 0 94 3b 35
        E 64 84 3b 35
        E 0 94 39 35
        E 0 94 34 35
        E 149 84 34 35
        E 0 94 30 35
        E 21 84 30 35
        E 0 94 35 35
        E 64 84 35 35
        E 0 94 39 35
        E 170 84 39 35
        E 0 94 41 35
        E 128 84 41 35
        E 0 94 32 35
        E 85 84 32 35
        E 0 94 3b 35
        E 64 84 3b 35
        E 0 94 39 35
        E 0 94 34 35
        E 149 84 34 35
        E 0 94 30 35
        E 21 84 30 35
        E 0 94 35 35
        E 64 84 35 35
        E 0 94 39 35
        E 170 84 39 35
        E 0 94 41 35
        E 128 84 41 35
        E 0 94 32 35
        E 85 84 32 35
        E 0 94 3b 35
        E 64 84 3b 35
        E 0 94 39 35
        E 0 94 34 35
        E 149 84 34 35
        E 0 94 30 35
        E 21 84 30 35
        E 0 94 35 35
        E 64 84 35 35
        E 0 94 39 35
        E 170 84 39 35
        E 0 94 41 35
        E 128 84 41 35
        E 0 94 32 35
        E 85 84 32 35
        E 0 94 3b 35
        E 64 84 3b 35
        E 0 94 39 35
        E 0 94 34 35
        E 149 84 34 35
        E 0 94 30 35
        E 21 84 30 35
        E 0 94 35 35
        E 64 84 35 35
        E 0 94 39 35
        E 170 84 39 35
        E 0 94 41 35
        E 128 84 41 35
        E 0 94 32 35
        E 85 84 32 35
        E 0 94 3b 35
        E 64 84 3b 35
        E 0 94 39 35
        E 0 94 34 35
        E 149 84 34 35
        E 0 94 30 35
        E 21 84 30 35
        E 0 94 35 35
        E 64 84 35 35
        E 0 94 39 35
        E 170 84 39 35
        E 0 94 41 35
        E 128 84 41 35
        E 0 94 32 35
        E 85 84 32 35
        E 0 94 3b 35
        E 64 84 3b 35
        E 0 94 39 35
        E 0 94 34 35
        E 149 84 34 35
        E 0 94 30 35
        E 21 84 30 35
        E 0 94 35 35
        E 64 84 35 35
        E 0 94 39 35
        E 170 84 39 35
        E 0 94 41 35
        E 128 84 41 35
        E 0 94 32 35
        E 85 84 32 35
        E 0 94 3b 35
        E 64 84 3b 35
        E 0 94 39 35
        E 0 94 34 35
        E 149 84 34 35
        E 0 94 30 35
        E 21 84 30 35
        E 0 94 35 35
        E 64 84 35 35
        E 0 94 39 35
        E 170 84 39 35
        E 0 94 41 35
        E 128 84 41 35
        E 0 94 32 35
        E 85 84 32 35
        E 0 94 3b 35
        E 64 84 3b 35
        E 0 94 39 35
        E 0 94 34 35
        E 149 84 34 35
        E 0 94 30 35
        E 21 84 30 35
        E 0 94 35 35
        E 64 84 35 35
        E 0 94 39 35
        E 170 84 39 35
        E 0 94 41 35
        E 128 84 41 35
        E 0 94 32 35
        E 85 84 32 35
        E 0 94 3b 35
        E 64 84 3b 35
        E 0 94 39 35
        E 0 94 34 35
        E 149 84 34 35
        E 0 94 30 35
        E 21 84 30 35
        E 0 94 35 35
        E 64 84 35 35
        E 0 94 39 35
        E 170 84 39 35
        E 0 94 41 35
        E 128 84 41 35
        E 0 94 32 35
        E 85 84 32 35
        E 0 94 3b 35
        E 64 84 3b 35
        E 0 94 39 35
        E 0 94 34 35
        E 149 84 34 35
        E 0 94 30 35
        E 21 84 30 35
        E 0 94 35 35
        E 64 84 35 35
        E 0 94 39 35
        E 170 84 39 35
        E 0 94 41 35
        E 128 84 41 35
        E 0 94 32 35
        E 85 84 32 35
        E 0 94 3b 35
        E 64 84 3b 35
        E 0 94 39 35
        E 0 94 34 35
        E 149 84 34 35
        E 0 94 30 35
        E 21 84 30 35
        E 0 94 35 35
        E 64 84 35 35
        E 0 94 39 35
        E 170 84 39 35
        E 0 94 41 35
        E 128 84 41 35
        E 0 94 32 35
        E 85 84 32 35
        E 0 94 3b 35
        E 64 84 3b 35
        E 0 94 39 35
        E 0 94 34 35
        E 149 84 34 35
        E 0 94 30 35
        E 21 84 30 35
        E 0 94 35 35
        E 64 84 35 35
        E 0 94 39 35
        E 170 84 39 35
        E 0 94 41 35
        E 128 84 41 35
        E 0 94 32 35
        E 85 84 32 35
        E 0 94 3b 35
        E 64 84 3b 35
        E 0 94 39 35
        E 0 94 34 35
        E 149 84 34 35
        E 0 94 30 35
        E 21 84 30 35
        E 0 94 35 35
        E 64 84 35 35
        E 0 94 39 35
        E 170 84 39 35
        E 0 94 41 35
        E 128 84 41 35
        E 0 94 32 35
        E 85 84 32 35
        E 0 94 3b 35
        E 64 84 3b 35
        E 0 94 39 35
        E 0 94 34 35
        E 149 84 34 35
        E 0 94 30 35
        E 21 84 30 35
        E 0 94 35 35
        E 64 84 35 35
        E 0 94 39 35
        E 170 84 39 35
        E 0 94 41 35
        E 128 84 41 35
        E 0 94 32 35
        E 85 84 32 35
        E 0 94 3b 35
        E 64 84 3b 35
        E 0 94 39 35
        E 0 94 34 35
        E 149 84 34 35
        E 0 94 30 35
        E 21 84 30 35
        E 0 94 35 35
        E 64 84 35 35
        E 0 94 39 35
        E 170 84 39 35
        E 0 94 41 35
        E 128 84 41 35
        E 0 94 32 35
        E 85 84 32 35
        E 0 94 3b 35
        E 64 84 3b 35
        E 0 94 39 35
        E 0 94 34 35
        E 149 84 34 35
        E 0 94 30 35
        E 21 84 30 35
        E 0 94 35 35
        E 64 84 35 35
        E 0 94 39 35
        E 170 84 39 35
        E 0 94 41 35
        E 128 84 41 35
        E 0 94 32 35
        E 85 84 32 35
        E 0 94 3b 35
        E 64 84 3b 35
        E 0 94 39 35
        E 0 94 34 35
        E 149 84 34 35
        E 0 94 30 35
        E 21 84 30 35
        E 0 94 35 35
        E 64 84 35 35
        E 0 94 39 35
        E 170 84 39 35
        E 0 94 41 35
        E 128 84 41 35
        E 0 94 32 35
        E 85 84 32 35
        E 0 94 3b 35
        E 64 84 3b 35
        E 0 94 39 35
        E 0 94 34 35
        E 149 84 34 35
        E 0 94 30 35
        E 21 84 30 35
        E 0 94 35 35
        E 64 84 35 35
        E 0 94 39 35
        E 170 84 39 35
        E 0 94 41 35
        E 128 84 41 35
        E 0 94 32 35
        E 85 84 32 35
        E 0 94 3b 35
        E 64 84 3b 35
        E 0 94 39 35
        E 0 94 34 35
        E 149 84 34 35
        E 0 94 30 35
        E 21 84 30 35
        E 0 94 35 35
        E 64 84 35 35
        E 0 94 39 35
        E 170 84 39 35
        E 0 94 41 35
        E 128 84 41 35
        E 0 94 32 35
        E 85 84 32 35
        E 0 94 3b 35
        E 64 84 3b 35
        E 0 94 39 35
        E 0 94 34 35
        E 149 84 34 35
        E 0 94 30 35
        E 21 84 30 35
        E 0 94 35 35
        E 64 84 35 35
        E 0 94 39 35
        E 170 84 39 35
        E 0 94 41 35
        E 128 84 41 35
        E 0 94 32 35
        E 85 84 32 35
        E 0 94 3b 35
        E 64 84 3b 35
        E 0 94 39 35
        E 0 94 34 35
        E 149 84 34 35
        E 0 94 30 35
        E 21 84 30 35
        E 0 94 35 35
        E 64 84 35 35
        E 0 94 39 35
        E 170 84 39 35
        E 0 94 41 35
        E 128 84 41 35
        E 0 94 32 35
        E 85 84 32 35
        E 0 94 3b 35
        E 64 84 3b 35
        E 0 94 39 35
        E 0 94 34 35
        E 149 84 34 35
        E 0 94 30 35
        E 21 84 30 35
        E 0 94 35 35
        E 64 84 35 35
        E 0 94 39 35
        E 170 84 39 35
        E 0 94 41 35
        E 128 84 41 35
        E 0 94 32 35
        E 85 84 32 35
        E 0 94 3b 35
        E 64 84 3b 35
        E 0 94 39 35
        E 0 94 34 35
        E 149 84 34 35
        E 0 94 30 35
        E 21 84 30 35
        E 0 94 35 35
        E 64 84 35 35
        E 0 94 39 35
        E 170 84 39 35
        E 0 94 41 35
        E 128 84 41 35
        E 0 94 32 35
        E 85 84 32 35
        E 0 94 3b 35
        E 64 84 3b 35
        E 0 94 39 35
        E 0 94 34 35
        E 149 84 34 35
        E 0 94 30 35
        E 21 84 30 35
        E 0 94 35 35
        E 64 84 35 35
        E 0 94 39 35
        E 170 84 39 35
        E 0 94 41 35
        E 128 84 41 35
        E 0 94 32 35
        E 85 84 32 35
        E 0 94 3b 35
        E 64 84 3b 35
        E 0 94 39 35
        E 0 94 34 35
        E 149 84 34 35
        E 0 94 30 35
        E 21 84 30 35
        E 0 94 35 35
        E 64 84 35 35
        E 0 94 39 35
        E 170 84 39 35
        E 0 94 41 35
        E 128 84 41 35
        E 0 94 32 35
        E 85 84 32 35
        E 0 94 3b 35
        E 64 84 3b 35
        E 0 94 39 35
        E 0 94 34 35
        E 149 84 34 35
        E 0 94 30 35
        E 21 84 30 35
        E 0 94 35 35
        E 64 84 35 35
        E 0 94 39 35
        E 170 84 39 35
        E 0 94 41 35
        E 128 84 41 35
        E 0 94 32 35
        E 85 84 32 35
        E 0 94 3b 35
        E 64 84 3b 35
        E 0 94 39 35
        E 0 94 34 35
        E 149 84 34 35
        E 0 94 30 35
        E 21 84 30 35
        E 0 94 35 35
        E 64 84 35 35
        E 0 94 39 35
        E 170 84 39 35
        E 0 94 41 35
        E 128 84 41 35
        E 0 94 32 35
        E 85 84 32 35
        E 0 94 3b 35
        E 64 84 3b 35
        E 0 94 39 35
        E 0 94 34 35
        E 149 84 34 35
        E 0 94 30 35
        E 21 84 30 35
        E 0 94 35 35
        E 64 84 35 35
        E 0 94 39 35
        E 170 84 39 35
        E 0 94 41 35
        E 128 84 41 35
        E 0 94 32 35
        E 85 84 32 35
        E 0 94 3b 35
        E 64 84 3b 35
        E 0 94 39 35
        E 0 94 34 35
        E 149 84 34 35
        E 0 94 30 35
        E 21 84 30 35
        E 0 94 35 35
        E 64 84 35 35
        E 0 94 39 35
        E 170 84 39 35
        E 0 94 41 35
        E 128 84 41 35
        E 0 94 32 35
        E 85 84 32 35
        E 0 94 3b 35
        E 64 84 3b 35
        E 0 94 39 35
        E 0 94 34 35
        E 149 84 34 35
        E 0 94 30 35
        E 21 84 30 35
        E 0 94 35 35
        E 64 84 35 35
        E 0 94 39 35
        E 170 84 39 35
        E 0 94 41 35
        E 128 84 41 35
        E 0 94 32 35
        E 85 84 32 35
        E 0 94 3b 35
        E 64 84 3b 35
        E 0 94 39 35
        E 0 94 34 35
        E 149 84 34 35
        E 0 94 30 35
        E 21 84 30 35
        E 0 94 35 35
        E 64 84 35 35
        E 0 94 39 35
        E 170 84 39 35
        E 0 94 41 35
        E 128 84 41 35
        E 0 94 32 35
        E 85 84 32 35
        E 0 94 3b 35
        E 64 84 3b 35
        E 0 94 39 35
        E 0 94 34 35
        E 149 84 34 35
        E 0 94 30 35
        E 21 84 30 35
        E 0 94 35 35
        E 64 84 35 35
        E 0 94 39 35
        E 170 84 39 35
        E 0 94 41 35
        E 128 84 41 35
        E 0 94 32 35
        E 85 84 32 35
        E 0 94 3b 35
        E 64 84 3b 35
        E 0 94 39 35
        E 0 94 34 35
        E 149 84 34 35
        E 0 94 30 35
        E 21 84 30 35
        E 0 94 35 35
        E 64 84 35 35
        E 0 94 39 35
        E 170 84 39 35
        E 0 94 41 35
        E 128 84 41 35
        E 0 94 32 35
        E 85 84 32 35
        E 0 94 3b 35
        E 64 84 3b 35
        E 0 94 39 35
        E 0 94 34 35
        E 149 84 34 35
        E 0 94 30 35
        E 21 84 30 35
        E 0 94 35 35
        E 64 84 35 35
        E 0 94 39 35
        E 170 84 39 35
        E 0 94 41 35
        E 128 84 41 35
        E 0 94 32 35
        E 85 84 32 35
        E 0 94 3b 35
        E 64 84 3b 35
        E 0 94 39 35
        E 0 94 34 35
        E 149 84 34 35
        E 0 94 30 35
        E 21 84 30 35
        E 0 94 35 35
        E 64 84 35 35
        E 0 94 39 35
        E 170 84 39 35
        E 0 94 41 35
        E 128 84 41 35
        E 0 94 32 35
        E 85 84 32 35
        E 0 94 3b 35
        E 64 84 3b 35
        E 0 94 39 35
        E 0 94 34 35
        E 149 84 34 35
        E 0 94 30 35
        E 21 84 30 35
        E 0 94 35 35
        E 64 84 35 35
        E 0 94 39 35
        E 170 84 39 35
        E 0 94 41 35
        E 128 84 41 35
        E 0 94 32 35
        E 85 84 32 35
        E 0 94 3b 35
        E 64 84 3b 35
        E 0 94 39 35
        E 0 94 34 35
        E 149 84 34 35
        E 0 94 30 35
        E 21 84 30 35
        E 0 94 35 35
        E 64 84 35 35
        E 0 94 39 35
        E 170 84 39 35
        E 0 94 41 35
        E 128 84 41 35
        E 0 94 32 35
        E 85 84 32 35
        E 0 94 3b 35
        E 64 84 3b 35
        E 0 94 39 35
        E 0 94 34 35
        E 149 84 34 35
        E 0 94 30 35
        E 21 84 30 35
        E 0 94 35 35
        E 64 84 35 35
        E 0 94 39 35
        E 170 84 39 35
        E 0 94 41 35
        E 128 84 41 35
        E 0 94 32 35
        E 85 84 32 35
        E 0 94 3b 35
        E 64 84 3b 35
        E 0 94 39 35
        E 0 94 34 35
        E 149 84 34 35
        E 0 94 30 35
        E 21 84 30 35
        E 0 94 35 35
        E 64 84 35 35
        E 0 94 39 35
        E 170 84 39 35
        E 0 94 41 35
        E 128 84 41 35
        E 0 94 32 35
        E 85 84 32 35
        E 0 94 3b 35
        E 64 84 3b 35
        E 0 94 39 35
        E 0 94 34 35
        E 149 84 34 35
        E 0 94 30 35
        E 21 84 30 35
        E 0 94 35 35
        E 64 84 35 35
        E 0 94 39 35
        E 170 84 39 35
        E 0 94 41 35
        E 128 84 41 35
        E 0 94 32 35
        E 85 84 32 35
        E 0 94 3b 35
        E 64 84 3b 35
        E 0 94 39 35
        E 0 94 34 35
        E 149 84 34 35
        E 0 94 30 35
        E 21 84 30 35
        E 0 94 35 35
        E 64 84 35 35
        E 0 94 39 35
        E 170 84 39 35
        E 0 94 41 35
        E 128 84 41 35
        E 0 94 32 35
        E 85 84 32 35
        E 0 94 3b 35
        E 64 84 3b 35
        E 0 94 39 35
        E 0 94 34 35
        E 149 84 34 35
        E 0 94 30 35
        E 21 84 30 35
        E 0 94 35 35
        E 64 84 35 35
        E 0 94 39 35
        E 170 84 39 35
        E 0 94 41 35
        E 128 84 41 35
        E 0 94 32 35
        E 85 84 32 35
        E 0 94 3b 35
        E 64 84 3b 35
        E 0 94 39 35
        E 0 94 34 35
        E 149 84 34 35
        E 0 94 30 35
        E 21 84 30 35
        E 0 94 35 35
        E 64 84 35 35
        E 0 94 39 35
        E 170 84 39 35
        E 0 94 41 35
        E 128 84 41 35
        E 0 94 32 35
        E 85 84 32 35
        E 0 94 3b 35
        E 64 84 3b 35
        E 0 94 39 35
        E 0 94 34 35
        E 149 84 34 35
        E 0 94 30 35
        E 21 84 30 35
        E 0 94 35 35
        E 64 84 35 35
        E 0 94 39 35
        E 170 84 39 35
        E 0 94 41 35
        E 128 84 41 35
        E 0 94 32 35
        E 85 84 32 35
        E 0 94 3b 35
        E 64 84 3b 35
        E 0 94 39 35
        E 0 94 34 35
        E 149 84 34 35
        E 0 94 30 35
        E 21 84 30 35
        E 0 94 35 35
        E 64 84 35 35
        E 0 94 39 35
        E 170 84 39 35
        E 0 94 41 35
        E 128 84 41 35
        E 0 94 32 35
        E 85 84 32 35
        E 0 94 3b 35
        E 64 84 3b 35
        E 0 94 39 35
        E 0 94 34 35
        E 149 84 34 35
        E 0 94 3b 35
        E 64 84 3b 35
        E 0 94 39 35
        E 0 94 34 35
        E 149 84 34 35
        E 0 94 40 35
        E 42 84 40 35
        E 0 94 37 35
        E 149 84 37 35
        E 0 94 40 35
        E 170 84 40 35
        E 0 94 3b 35
        E 64 84 3b 35
        E 0 94 39 35
        E 0 94 34 35
        E 149 84 34 35
        E 0 94 40 35
        E 42 84 40 35
        E 0 94 37 35
        E 149 84 37 35
        E 0 94 40 35
        E 170 84 40 35
        E 0 94 3b 35
        E 64 84 3b 35
        E 0 94 39 35
        E 0 94 34 35
        E 149 84 34 35
        E 0 94 40 35
        E 42 84 40 35
        E 0 94 37 35
        E 149 84 37 35
        E 0 94 40 35
        E 170 84 40 35
        E 0 94 3b 35
        E 64 84 3b 35
        E 0 94 39 35
        E 0 94 34 35
        E 149 84 34 35
        E 0 94 40 35
        E 42 84 40 35
        E 0 94 37 35
        E 149 84 37 35
        E 0 94 40 35
        E 170 84 40 35
        E 0 94 3b 35
        E 64 84 3b 35
        E 0 94 39 35
        E 0 94 34 35
        E 149 84 34 35
        E 0 94 40 35
        E 42 84 40 35
        E 0 94 37 35
        E 149 84 37 35
        E 0 94 40 35
        E 170 84 40 35
        E 0 94 3b 35
        E 64 84 3b 35
        E 0 94 39 35
        E 0 94 34 35
        E 149 84 34 35
        E 0 94 40 35
        E 42 84 40 35
        E 0 94 37 35
        E 149 84 37 35
        E 0 94 40 35
        E 170 84 40 35
        E 0 94 3b 35
        E 64 84 3b 35
        E 0 94 39 35
        E 0 94 34 35
        E 149 84 34 35
        E 0 94 40 35
        E 42 84 40 35
        E 0 94 37 35
        E 149 84 37 35
        E 0 94 40 35
        E 170 84 40 35
        E 0 94 3b 35
        E 64 84 3b 35
        E 0 94 39 35
        E 0 94 34 35
        E 149 84 34 35
        E 0 94 40 35
        E 42 84 40 35
        E 0 94 37 35
        E 149 84 37 35
        E 0 94 40 35
        E 170 84 40 35
        E 0 94 3b 35
        E 64 84 3b 35
        E 0 94 39 35
        E 0 94 34 35
        E 149 84 34 35
        E 0 94 40 35
        E 42 84 40 35
        E 0 94 37 35
        E 149 84 37 35
        E 0 94 40 35
        E 170 84 40 35
        E 0 94 3b 35
        E 64 84 3b 35
        E 0 94 39 35
        E 0 94 34 35
        E 149 84 34 35
        E 0 94 40 35
        E 42 84 40 35
        E 0 94 37 35
        E 149 84 37 35
        E 0 94 40 35
        E 170 84 40 35
        E 0 94 3b 35
        E 64 84 3b 35
        E 0 94 39 35
        E 0 94 34 35
        E 149 84 34 35
        E 0 94 40 35
        E 42 84 40 35
        E 0 94 37 35
        E 149 84 37 35
        E 0 94 40 35
        E 170 84 40 35
        E 0 94 3b 35
        E 64 84 3b 35
        E 0 94 39 35
        E 0 94 34 35
        E 149 84 34 35
        E 0 94 40 35
        E 42 84 40 35
        E 0 94 37 35
        E 149 84 37 35
        E 0 94 40 35
        E 170 84 40 35
        E 0 94 3b 35
        E 64 84 3b 35
        E 0 94 39 35
        E 0 94 34 35
        E 149 84 34 35
        E 0 94 40 35
        E 42 84 40 35
        E 0 94 37 35
        E 149 84 37 35
        E 0 94 40 35
        E 170 84 40 35
        E 0 94 3b 35
        E 64 84 3b 35
        E 0 94 39 35
        E 0 94 34 35
        E 149 84 34 35
        E 0 94 40 35
        E 42 84 40 35
        E 0 94 37 35
        E 149 84 37 35
        E 0 94 40 35
        E 170 84 40 35
        E 0 94 3b 35
        E 64 84 3b 35
        E 0 94 39 35
        E 0 94 34 35
        E 149 84 34 35
        E 0 94 40 35
        E 42 84 40 35
        E 0 94 37 35
        E 149 84 37 35
        E 0 94 40 35
        E 170 84 40 35
        E 0 94 3b 35
        E 64 84 3b 35
        E 0 94 39 35
        E 0 94 34 35
        E 149 84 34 35
        E 0 94 40 35
        E 42 84 40 35
        E 0 94 37 35
        E 149 84 37 35
        E 0 94 40 35
        E 170 84 40 35
        E 0 94 3b 35
        E 64 84 3b 35
        E 0 94 39 35
        E 0 94 34 35
        E 149 84 34 35
        E 0 94 40 35
        E 42 84 40 35
        E 0 94 37 35
        E 149 84 37 35
        E 0 94 40 35
        E 170 84 40 35
        E 0 94 3b 35
        E 64 84 3b 35
        E 0 94 39 35
        E 0 94 34 35
        E 149 84 34 35
        E 0 94 40 35
        E 42 84 40 35
        E 0 94 37 35
        E 149 84 37 35
        E 0 94 40 35
        E 170 84 40 35
        E 0 94 3b 35
        E 64 84 3b 35
        E 0 94 39 35
        E 0 94 34 35
        E 149 84 34 35
        E 0 94 40 35
        E 42 84 40 35
        E 0 94 37 35
        E 149 84 37 35
        E 0 94 40 35
        E 170 84 40 35
        E 0 94 3b 35
        E 64 84 3b 35
        E 0 94 39 35
        E 0 94 34 35
        E 149 84 34 35
        E 0 94 40 35
        E 42 84 40 35
        E 0 94 37 35
        E 149 84 37 35
        E 0 94 40 35
        E 170 84 40 35
        E 0 94 3b 35
        E 64 84 3b 35
        E 0 94 39 35
        E 0 94 34 35
        E 149 84 34 35
        E 0 94 40 35
        E 42 84 40 35
        E 0 94 37 35
        E 149 84 37 35
        E 0 94 40 35
        E 170 84 40 35
        E 0 94 3b 35
        E 64 84 3b 35
        E 0 94 39 35
        E 0 94 34 35
        E 149 84 34 35
        E 0 94 40 35
        E 42 84 40 35
        E 0 94 37 35
        E 149 84 37 35
        E 0 94 40 35
        E 170 84 40 35
        E 0 94 3b 35
        E 64 84 3b 35
        E 0 94 39 35
        E 0 94 34 35
        E 149 84 34 35
        E 0 94 40 35
        E 42 84 40 35
        E 0 94 37 35
        E 149 84 37 35
        E 0 94 40 35
        E 170 84 40 35
        E 0 94 3b 35
        E 64 84 3b 35
        E 0 94 39 35
        E 0 94 34 35
        E 149 84 34 35
        E 0 94 40 35
        E 42 84 40 35
        E 0 94 37 35
        E 149 84 37 35
        E 0 94 40 35
        E 170 84 40 35
        E 0 94 3b 35
        E 64 84 3b 35
        E 0 94 39 35
        E 0 94 34 35
        E 149 84 34 35
        E 0 94 40 35
        E 42 84 40 35
        E 0 94 37 35
        E 149 84 37 35
        E 0 94 40 35
        E 170 84 40 35
        E 0 94 3b 35
        E 64 84 3b 35
        E 0 94 39 35
        E 0 94 34 35
        E 149 84 34 35
        E 0 94 40 35
        E 42 84 40 35
        E 0 94 37 35
        E 149 84 37 35
        E 0 94 40 35
        E 170 84 40 35
        E 0 94 3b 35
        E 64 84 3b 35
        E 0 94 39 35
        E 0 94 34 35
        E 149 84 34 35
        E 0 94 40 35
        E 42 84 40 35
        E 0 94 37 35
        E 149 84 37 35
        E 0 94 40 35
        E 170 84 40 35
        E 0 94 3b 35
        E 64 84 3b 35
        E 0 94 39 35
        E 0 94 34 35
        E 149 84 34 35
        E 0 94 40 35
        E 42 84 40 35
        E 0 94 37 35
        E 149 84 37 35
        E 0 94 40 35
        E 170 84 40 35
        E 0 94 3b 35
        E 64 84 3b 35
        E 0 94 39 35
        E 0 94 34 35
        E 149 84 34 35
        E 0 94 40 35
        E 42 84 40 35
        E 0 94 37 35
        E 149 84 37 35
        E 0 94 40 35
        E 170 84 40 35
        E 0 94 3b 35
        E 64 84 3b 35
        E 0 94 39 35
        E 0 94 34 35
        E 149 84 34 35
        E 0 94 40 35
        E 42 84 40 35
        E 0 94 37 35
        E 149 84 37 35
        E 0 94 40 35
        E 170 84 40 35
        E 0 94 3b 35
        E 64 84 3b 35
        E 0 94 39 35
        E 0 94 34 35
        E 149 84 34 35
        E 0 94 40 35
        E 42 84 40 35
        E 0 94 37 35
        E 149 84 37 35
        E 0 94 40 35
        E 170 84 40 35
        E 0 94 3b 35
        E 64 84 3b 35
        E 0 94 39 35
        E 0 94 34 35
        E 149 84 34 35
        E 0 94 40 35
        E 42 84 40 35
        E 0 94 37 35
        E 149 84 37 35
        E 0 94 40 35
        E 170 84 40 35
        E 0 94 3b 35
        E 64 84 3b 35
        E 0 94 39 35
        E 0 94 34 35
        E 149 84 34 35
        E 0 94 40 35
        E 42 84 40 35
        E 0 94 37 35
        E 149 84 37 35
        E 0 94 40 35
        E 170 84 40 35
        E 0 94 3b 35
        E 64 84 3b 35
        E 0 94 39 35
        E 0 94 34 35
        E 149 84 34 35
        E 0 94 40 35
        E 42 84 40 35
        E 0 94 37 35
        E 149 84 37 35
        E 0 94 40 35
        E 170 84 40 35
        E 0 94 3b 35
        E 64 84 3b 35
        E 0 94 39 35
        E 0 94 34 35
        E 149 84 34 35
        E 0 94 40 35
        E 42 84 40 35
        E 0 94 37 35
        E 149 84 37 35
        E 0 94 40 35
        E 170 84 40 35
        E 0 94 3b 35
        E 64 84 3b 35
        E 0 94 39 35
        E 0 94 34 35
        E 149 84 34 35
        E 0 94 40 35
        E 42 84 40 35
        E 0 94 37 35
        E 149 84 37 35
        E 0 94 40 35
        E 170 84 40 35
        E 48 b0 7b 00
        CCINTERP 32
        CHASE_CC_TAKEOFFS 1
        GUID {5B35F28E-5F56-6B4B-9AA9-B549E365406B}
        IGNTEMPO 0 120 4 4
        SRCCOLOR 595
        VELLANE 3 601 0
        VELLANE -1 196 0
        CFGEDITVIEW 0 0.008186 62 12 0 -1 0 0 0 0.5
        KEYSNAP 0
        TRACKSEL 252
        EVTFILTER 0 -1 -1 -1 -1 0 0 0 0 -1 -1 -1 -1 0 -1 0 -1 -1
        CFGEDIT 1 1 0 1 0 0 1 1 1 1 1 0.125 0 0 1792 1095 0 0 0 0 0 0 0 0 0 0.5 0 0 1 64
      >
    >
  >
  <TRACK {5F5B31A4-2084-A943-AFE0-AB8C4A3863B9}
    NAME "germ-x hand sanitizer"
    PEAKCOL 16576
    BEAT -1
    AUTOMODE 0
    VOLPAN 1 0 -1 -1 1
    MUTESOLO 0 0 0
    IPHASE 0
    PLAYOFFS 0 1
    ISBUS 0 0
    BUSCOMP 0 0 0 0 0
    SHOWINMIX 1 0.6667 0.5 1 0.5 0 -1 0
    FREEMODE 0
    SEL 0
    REC 0 0 1 0 0 0 0
    VU 2
    TRACKHEIGHT 0 0 0 0 -1 0
    INQ 0 0 0 0.5 100 0 0 100
    NCHAN 2
    FX 1
    TRACKID {5F5B31A4-2084-A943-AFE0-AB8C4A3863B9}
    PERF 0
    MIDIOUT -1
    MAINSEND 1 0
    <FXCHAIN
      SHOW 0
      LASTSEL 0
      DOCKED 0
      BYPASS 0 0 0
      <VST "VSTi: FM8 (Native Instruments GmbH)" FM8.vst 0 "" 1315530296<5653544E696638666D38000000000000> ""
        OGZpTu5e7f4AAAAAAgAAAAEAAAAAAAAAAgAAAAAAAAAYBwAAAQAAAAAAEAA=
        GAcAAAAAAAABAAAAaHNpbgEAAAAAAAAAN455D8DDx0mHoN4j0l/0WZYAAAAAAAAARFNJTnYAAAABAAAASAAAAAAAAABEU0lOagAAAAEAAAAYAAAAAAAAAERTSU4BAAAA
        AQAAAAEAAAABAAAAAQAAAAEAAAAAAAAAAAAAAAAAAAANYmWFAQAAAAhwEAAAAAAAAQAAAAEAAAAAAAAAAAAAAAAAAAADAAAAMAAwADAAAAAAAAAAAAAAAAAAAAAAAAEA
        AAABAAAAAAAAAERTSU5lAAAARgYAAAAAAAABAAAAaHNpbgEAAAAAAAAAMOH4NwAUwEaoogAOyNUgkW0AAAAAAAAARFNJTmUAAAABAAAANAAAAAAAAABEU0lOagAAAAEA
        AAAYAAAAAAAAAERTSU4BAAAAAQAAAAEAAAABAAAAAgAAAAEAAAAACAAAAAEAAAAKAAAAMQAuADIALgAwAC4AMQAwADEAMAABAAAAAwAAAAAAAABEU0lObAAAAKgBAAAA
        AAAAAQAAAGhzaW4BAAAAAAAAACA7190CLVtKvWPIjKqbw/t4AQAAAAAAAERTSU5sAAAAAQAAABgAAAAAAAAARFNJTgEAAAABAAAAAQAAAAEAAAACAAAAAQAAAAAAAAAI
        AAAATgBlAHcAUwBvAHUAbgBkAAcAAABuAG8AdAAgAHMAZQB0AAAAAAAAAAAAAAAAAAAAAAAAAAAAAAAAAAAAAAAAAAAAAAAAAAEAAAABAAAAAQAAAAMAAABGAE0AOAAA
        AAAAAAAAAAcAAAAHAAAAXABAAGMAbwBsAG8AcgABAAAAMAARAAAAXABAAGQAZQB2AGkAYwBlAHQAeQBwAGUAZgBsAGEAZwBzAAEAAAAxAAsAAABcAEAAcwBvAHUAbgBk
        AHQAeQBwAGUAAQAAADAABwAAAFwAQAB0AGUAbQBwAG8AAQAAADAABgAAAFwAQAB2AGUAcgBsAAUAAAAxAC4ANwAuADgABgAAAFwAQAB2AGUAcgBtAAUAAAAxAC4ANwAu
        ADgABwAAAFwAQAB2AGkAcwBpAGIAAQAAADAAAQAAAAAAAAACAAAARFNJTnkAAABoAAAAAAAAAAEAAABoc2luAQAAAAAAAABG64vCmumHRIQ9Mih2ujahOAAAAAAAAABE
        U0lOeQAAAAEAAAAYAAAAAAAAAERTSU4BAAAAAQAAAAEAAAABAAAAAQAAAAAAAAABAAAAAAAAAAEAAABEU0lOdAAAAHUDAAAAAAAAAQAAAGhzaW4BAAAAAAAAAMPiDYJz
        LJxOuWtBgMMVvqRFAwAAAAAAAERTSU50AAAAAQAAACwDAAAAAAAARFNJTnMAAAABAAAAGAAAAAAAAABEU0lOAQAAAAEAAAABAAAAAQAAAAG9DwAA8wIAAAK9DwBgAAAB
        IAUDaHNpbkAHQAAQHyRrBvAZSEqYrqFXTcEPPBhAFCAAA0RTSU5AI+AHA0AAQBsAbSAIAWkPIAQgAEAj4ANTEEkCYzKs2sVGp2B2wrYRj5w5oCfAN0Av4BdnQCMB8Q4g
        XCAAAAUgAwFjDCAEIAAIdHNycEU4TUbPIAsEvCMAAAcgBwZkZWZhdWx04BgKICoAP+ACAwNBAACAIA8AoCAH4AsAAPAgF0AfwAAAICAPwABgFwVAAABIQgDgBABAD0AD
        4BcfYAAge+AEA0AAwBPgAwBAE+AAAAPNzMw+IAwDP5qZGUAXwAPgABcgCuAHG0ATQADgBwdAACATYKtAACALYANAAEALQAAg42AAwA9AB0AD4AMAwA9AB0ADwABAC8AD
        QADAC8AHQADgAwtAAEAP4AMAIA/Bn8AHAMjhDnPgHwDgAO/gDgBAX0ADwABBz8H7QAtAAwCgIINAB0AAALQgCwCWIAPgAwDAP0AHQAPAAEAz4MdLIAAAAcAAIAuAAAAC
        wACADuAdAOAALAD+4B0v4CEAABTgISrgMADBA+AKAGBTgAXgAABChuAXA+AeAOD9WSBZIkBBUgH6Q0AH4FUMQ9VAZwH6Q6BnBYA/zLyMK+BVDOABACBnBAA/ZmZmYAPg
        YwwgAABwJOwB/kJAdCAA4D4MosLgAFaAAKBjgADgOAwgYwRwwgAAhmC6JliAA0BW4EEMIGPgAE3g8AAAUCAA4Of8AP/gFwAABEERCggyAwAAQDIAAAA8QikgAwHwQmLY
        AAEgAYLiIAcgAkKVgAagCSA3oAkgSKAJKxegCQAG4AAJKwSgEyAAoAmASKAGoBPgwk/gSwAAEaBUA2tuYWJBMcAAAYAAIAAAGaARA2N0bmlMiwERJ2FcTFBAAEocAaBC
        4hMPTInAH00bwAvg/QDgvQABIACAAANzaXVnQiQA6CNxwAAAKiAIABkgAyOYYAAj0mAAB2dwdGNZVE1FQAwLDWJlhQEAAAAAAAAAAQAAAAABAAAAAAAAAA==
        ADxkaXNhYmxlZD4AEAAAAA==
      >
      PRESETNAME <disabled>
      FLOATPOS 0 0 0 0
      FXID {BB2D9097-9C77-954C-8A8F-A0DF4EF1DB39}
      WAK 0 0
    >
    <ITEM
      POSITION 86.48640000000857
      SNAPOFFS 0
      LENGTH 138.37823999999142
      LOOP 1
      ALLTAKES 0
      FADEIN 1 0 0 1 0 0
      FADEOUT 1 0 0 1 0 0
      MUTE 0 0
      SEL 0
      IGUID {B058B38C-5008-4045-B22E-FFE133E1EEE0}
      IID 29
      NAME "germ-x hand sanitizer.mid"
      VOLPAN 1 0 1 -1
      SOFFS 0 0
      PLAYRATE 1 1 0 -1 0 0.0025
      CHANMODE 0
      GUID {B7661425-BE0C-5F45-A52C-ACA142D027C0}
      <SOURCE MIDI
        HASDATA 1 128 QN
        CCINTERP 32
        POOLEDEVTS {89E4E8F9-5F47-5944-B0BC-BA26C770BF86}
        E 0 95 30 35
        E 64 85 30 35
        E 0 95 35 35
        E 192 85 35 35
        E 0 95 39 35
        E 512 85 39 35
        E 0 95 41 35
        E 384 85 41 35
        E 0 95 32 35
        E 256 85 32 35
        E 0 95 3b 35
        E 192 85 3b 35
        E 0 95 39 35
        E 0 95 34 35
        E 448 85 34 35
        E 0 95 30 35
        E 64 85 30 35
        E 0 95 35 35
        E 192 85 35 35
        E 0 95 39 35
        E 512 85 39 35
        E 0 95 41 35
        E 384 85 41 35
        E 0 95 32 35
        E 256 85 32 35
        E 0 95 3b 35
        E 192 85 3b 35
        E 0 95 39 35
        E 0 95 34 35
        E 448 85 34 35
        E 0 95 30 35
        E 64 85 30 35
        E 0 95 35 35
        E 192 85 35 35
        E 0 95 39 35
        E 512 85 39 35
        E 0 95 41 35
        E 384 85 41 35
        E 0 95 32 35
        E 256 85 32 35
        E 0 95 3b 35
        E 192 85 3b 35
        E 0 95 39 35
        E 0 95 34 35
        E 448 85 34 35
        E 0 95 30 35
        E 64 85 30 35
        E 0 95 35 35
        E 192 85 35 35
        E 0 95 39 35
        E 512 85 39 35
        E 0 95 41 35
        E 384 85 41 35
        E 0 95 32 35
        E 256 85 32 35
        E 0 95 3b 35
        E 192 85 3b 35
        E 0 95 39 35
        E 0 95 34 35
        E 448 85 34 35
        E 0 95 30 35
        E 64 85 30 35
        E 0 95 35 35
        E 192 85 35 35
        E 0 95 39 35
        E 512 85 39 35
        E 0 95 41 35
        E 384 85 41 35
        E 0 95 32 35
        E 256 85 32 35
        E 0 95 3b 35
        E 192 85 3b 35
        E 0 95 39 35
        E 0 95 34 35
        E 448 85 34 35
        E 0 95 30 35
        E 64 85 30 35
        E 0 95 35 35
        E 192 85 35 35
        E 0 95 39 35
        E 512 85 39 35
        E 0 95 41 35
        E 384 85 41 35
        E 0 95 32 35
        E 256 85 32 35
        E 0 95 3b 35
        E 192 85 3b 35
        E 0 95 39 35
        E 0 95 34 35
        E 448 85 34 35
        E 0 95 30 35
        E 64 85 30 35
        E 0 95 35 35
        E 192 85 35 35
        E 0 95 39 35
        E 512 85 39 35
        E 0 95 41 35
        E 384 85 41 35
        E 0 95 32 35
        E 256 85 32 35
        E 0 95 3b 35
        E 192 85 3b 35
        E 0 95 39 35
        E 0 95 34 35
        E 448 85 34 35
        E 0 95 30 35
        E 64 85 30 35
        E 0 95 35 35
        E 192 85 35 35
        E 0 95 39 35
        E 512 85 39 35
        E 0 95 41 35
        E 384 85 41 35
        E 0 95 32 35
        E 256 85 32 35
        E 0 95 3b 35
        E 192 85 3b 35
        E 0 95 39 35
        E 0 95 34 35
        E 448 85 34 35
        E 0 95 30 35
        E 64 85 30 35
        E 0 95 35 35
        E 192 85 35 35
        E 0 95 39 35
        E 512 85 39 35
        E 0 95 41 35
        E 384 85 41 35
        E 0 95 32 35
        E 256 85 32 35
        E 0 95 3b 35
        E 192 85 3b 35
        E 0 95 39 35
        E 0 95 34 35
        E 448 85 34 35
        E 0 95 30 35
        E 64 85 30 35
        E 0 95 35 35
        E 192 85 35 35
        E 0 95 39 35
        E 512 85 39 35
        E 0 95 41 35
        E 384 85 41 35
        E 0 95 32 35
        E 256 85 32 35
        E 0 95 3b 35
        E 192 85 3b 35
        E 0 95 39 35
        E 0 95 34 35
        E 448 85 34 35
        E 0 95 30 35
        E 64 85 30 35
        E 0 95 35 35
        E 192 85 35 35
        E 0 95 39 35
        E 512 85 39 35
        E 0 95 41 35
        E 384 85 41 35
        E 0 95 32 35
        E 256 85 32 35
        E 0 95 3b 35
        E 192 85 3b 35
        E 0 95 39 35
        E 0 95 34 35
        E 448 85 34 35
        E 0 95 30 35
        E 64 85 30 35
        E 0 95 35 35
        E 192 85 35 35
        E 0 95 39 35
        E 512 85 39 35
        E 0 95 41 35
        E 384 85 41 35
        E 0 95 32 35
        E 256 85 32 35
        E 0 95 3b 35
        E 192 85 3b 35
        E 0 95 39 35
        E 0 95 34 35
        E 448 85 34 35
        E 0 95 30 35
        E 64 85 30 35
        E 0 95 35 35
        E 192 85 35 35
        E 0 95 39 35
        E 512 85 39 35
        E 0 95 41 35
        E 384 85 41 35
        E 0 95 32 35
        E 256 85 32 35
        E 0 95 3b 35
        E 192 85 3b 35
        E 0 95 39 35
        E 0 95 34 35
        E 448 85 34 35
        E 0 95 30 35
        E 64 85 30 35
        E 0 95 35 35
        E 192 85 35 35
        E 0 95 39 35
        E 512 85 39 35
        E 0 95 41 35
        E 384 85 41 35
        E 0 95 32 35
        E 256 85 32 35
        E 0 95 3b 35
        E 192 85 3b 35
        E 0 95 39 35
        E 0 95 34 35
        E 448 85 34 35
        E 0 95 30 35
        E 64 85 30 35
        E 0 95 35 35
        E 192 85 35 35
        E 0 95 39 35
        E 512 85 39 35
        E 0 95 41 35
        E 384 85 41 35
        E 0 95 32 35
        E 256 85 32 35
        E 0 95 3b 35
        E 192 85 3b 35
        E 0 95 39 35
        E 0 95 34 35
        E 448 85 34 35
        E 0 95 30 35
        E 64 85 30 35
        E 0 95 35 35
        E 192 85 35 35
        E 0 95 39 35
        E 512 85 39 35
        E 0 95 41 35
        E 384 85 41 35
        E 0 95 32 35
        E 256 85 32 35
        E 0 95 3b 35
        E 192 85 3b 35
        E 0 95 39 35
        E 0 95 34 35
        E 447 85 34 35
        E 1 b0 7b 00
        CCINTERP 32
        CHASE_CC_TAKEOFFS 1
        GUID {0217ABBE-31FA-1D44-9323-E8034CE3CB64}
        IGNTEMPO 0 120 4 4
        SRCCOLOR 596
        VELLANE 3 601 0
        VELLANE -1 196 0
        CFGEDITVIEW 0 0.008186 62 12 0 -1 0 0 0 0.5
        KEYSNAP 0
        TRACKSEL 252
        EVTFILTER 0 -1 -1 -1 -1 0 0 0 0 -1 -1 -1 -1 0 -1 0 -1 -1
        CFGEDIT 1 1 0 1 0 0 1 1 1 1 1 0.125 0 0 1792 1095 0 0 0 0 0 0 0 0 0 0.5 0 0 1 64
      >
    >
  >
  <TRACK {8007BF51-2794-4C49-B105-01BBDB5250B2}
    NAME "germ-x hand sanitizer"
    PEAKCOL 16576
    BEAT -1
    AUTOMODE 0
    VOLPAN 1 0 -1 -1 1
    MUTESOLO 0 0 0
    IPHASE 0
    PLAYOFFS 0 1
    ISBUS 0 0
    BUSCOMP 0 0 0 0 0
    SHOWINMIX 1 0.6667 0.5 1 0.5 0 -1 0
    FREEMODE 0
    SEL 0
    REC 0 0 1 0 0 0 0
    VU 2
    TRACKHEIGHT 0 0 0 0 -1 0
    INQ 0 0 0 0.5 100 0 0 100
    NCHAN 2
    FX 1
    TRACKID {8007BF51-2794-4C49-B105-01BBDB5250B2}
    PERF 0
    MIDIOUT -1
    MAINSEND 1 0
    <FXCHAIN
      SHOW 0
      LASTSEL 0
      DOCKED 0
      BYPASS 0 0 0
      <VST "VSTi: FM8 (Native Instruments GmbH)" FM8.vst 0 "" 1315530296<5653544E696638666D38000000000000> ""
        OGZpTu5e7f4AAAAAAgAAAAEAAAAAAAAAAgAAAAAAAAAYBwAAAQAAAAAAEAA=
        GAcAAAAAAAABAAAAaHNpbgEAAAAAAAAAN455D8DDx0mHoN4j0l/0WZYAAAAAAAAARFNJTnYAAAABAAAASAAAAAAAAABEU0lOagAAAAEAAAAYAAAAAAAAAERTSU4BAAAA
        AQAAAAEAAAABAAAAAQAAAAEAAAAAAAAAAAAAAAAAAAANYmWFAQAAAAhwEAAAAAAAAQAAAAEAAAAAAAAAAAAAAAAAAAADAAAAMAAwADAAAAAAAAAAAAAAAAAAAAAAAAEA
        AAABAAAAAAAAAERTSU5lAAAARgYAAAAAAAABAAAAaHNpbgEAAAAAAAAAMOH4NwAUwEaoogAOyNUgkW0AAAAAAAAARFNJTmUAAAABAAAANAAAAAAAAABEU0lOagAAAAEA
        AAAYAAAAAAAAAERTSU4BAAAAAQAAAAEAAAABAAAAAgAAAAEAAAAACAAAAAEAAAAKAAAAMQAuADIALgAwAC4AMQAwADEAMAABAAAAAwAAAAAAAABEU0lObAAAAKgBAAAA
        AAAAAQAAAGhzaW4BAAAAAAAAACA7190CLVtKvWPIjKqbw/t4AQAAAAAAAERTSU5sAAAAAQAAABgAAAAAAAAARFNJTgEAAAABAAAAAQAAAAEAAAACAAAAAQAAAAAAAAAI
        AAAATgBlAHcAUwBvAHUAbgBkAAcAAABuAG8AdAAgAHMAZQB0AAAAAAAAAAAAAAAAAAAAAAAAAAAAAAAAAAAAAAAAAAAAAAAAAAEAAAABAAAAAQAAAAMAAABGAE0AOAAA
        AAAAAAAAAAcAAAAHAAAAXABAAGMAbwBsAG8AcgABAAAAMAARAAAAXABAAGQAZQB2AGkAYwBlAHQAeQBwAGUAZgBsAGEAZwBzAAEAAAAxAAsAAABcAEAAcwBvAHUAbgBk
        AHQAeQBwAGUAAQAAADAABwAAAFwAQAB0AGUAbQBwAG8AAQAAADAABgAAAFwAQAB2AGUAcgBsAAUAAAAxAC4ANwAuADgABgAAAFwAQAB2AGUAcgBtAAUAAAAxAC4ANwAu
        ADgABwAAAFwAQAB2AGkAcwBpAGIAAQAAADAAAQAAAAAAAAACAAAARFNJTnkAAABoAAAAAAAAAAEAAABoc2luAQAAAAAAAABG64vCmumHRIQ9Mih2ujahOAAAAAAAAABE
        U0lOeQAAAAEAAAAYAAAAAAAAAERTSU4BAAAAAQAAAAEAAAABAAAAAQAAAAAAAAABAAAAAAAAAAEAAABEU0lOdAAAAHUDAAAAAAAAAQAAAGhzaW4BAAAAAAAAAMPiDYJz
        LJxOuWtBgMMVvqRFAwAAAAAAAERTSU50AAAAAQAAACwDAAAAAAAARFNJTnMAAAABAAAAGAAAAAAAAABEU0lOAQAAAAEAAAABAAAAAQAAAAG9DwAA8wIAAAK9DwBgAAAB
        IAUDaHNpbkAHQAAQHyRrBvAZSEqYrqFXTcEPPBhAFCAAA0RTSU5AI+AHA0AAQBsAbSAIAWkPIAQgAEAj4ANTEEkCYzKs2sVGp2B2wrYRj5w5oCfAN0Av4BdnQCMB8Q4g
        XCAAAAUgAwFjDCAEIAAIdHNycEU4TUbPIAsEvCMAAAcgBwZkZWZhdWx04BgKICoAP+ACAwNBAACAIA8AoCAH4AsAAPAgF0AfwAAAICAPwABgFwVAAABIQgDgBABAD0AD
        4BcfYAAge+AEA0AAwBPgAwBAE+AAAAPNzMw+IAwDP5qZGUAXwAPgABcgCuAHG0ATQADgBwdAACATYKtAACALYANAAEALQAAg42AAwA9AB0AD4AMAwA9AB0ADwABAC8AD
        QADAC8AHQADgAwtAAEAP4AMAIA/Bn8AHAMjhDnPgHwDgAO/gDgBAX0ADwABBz8H7QAtAAwCgIINAB0AAALQgCwCWIAPgAwDAP0AHQAPAAEAz4MdLIAAAAcAAIAuAAAAC
        wACADuAdAOAALAD+4B0v4CEAABTgISrgMADBA+AKAGBTgAXgAABChuAXA+AeAOD9WSBZIkBBUgH6Q0AH4FUMQ9VAZwH6Q6BnBYA/zLyMK+BVDOABACBnBAA/ZmZmYAPg
        YwwgAABwJOwB/kJAdCAA4D4MosLgAFaAAKBjgADgOAwgYwRwwgAAhmC6JliAA0BW4EEMIGPgAE3g8AAAUCAA4Of8AP/gFwAABEERCggyAwAAQDIAAAA8QikgAwHwQmLY
        AAEgAYLiIAcgAkKVgAagCSA3oAkgSKAJKxegCQAG4AAJKwSgEyAAoAmASKAGoBPgwk/gSwAAEaBUA2tuYWJBMcAAAYAAIAAAGaARA2N0bmlMiwERJ2FcTFBAAEocAaBC
        4hMPTInAH00bwAvg/QDgvQABIACAAANzaXVnQiQA6CNxwAAAKiAIABkgAyOYYAAj0mAAB2dwdGNZVE1FQAwLDWJlhQEAAAAAAAAAAQAAAAABAAAAAAAAAA==
        ADxkaXNhYmxlZD4AEAAAAA==
      >
      PRESETNAME <disabled>
      FLOATPOS 0 0 0 0
      FXID {07DCAECE-2057-124C-9D9D-0E60C4BE23DF}
      WAK 0 0
    >
    <ITEM
      POSITION 17.29728000000171
      SNAPOFFS 0
      LENGTH 115.67555999999828
      LOOP 1
      ALLTAKES 0
      FADEIN 1 0 0 1 0 0
      FADEOUT 1 0 0 1 0 0
      MUTE 0 0
      SEL 0
      IGUID {6A9851F3-F1BC-A94D-ADF3-B825F594237B}
      IID 30
      NAME "germ-x hand sanitizer.mid"
      VOLPAN 1 0 1 -1
      SOFFS 0 0
      PLAYRATE 1 1 0 -1 0 0.0025
      CHANMODE 0
      GUID {3EBC1E49-07FE-AA46-AEF5-53CD69B8955D}
      <SOURCE MIDI
        HASDATA 1 128 QN
        CCINTERP 32
        POOLEDEVTS {4D3AD96F-A9DD-954E-A4FA-F715EDF2BCC0}
        E 0 96 3b 35
        E 96 86 3b 35
        E 0 96 39 35
        E 0 96 34 35
        E 224 86 34 35
        E 0 96 40 35
        E 64 86 40 35
        E 0 96 37 35
        E 224 86 37 35
        E 0 96 40 35
        E 256 86 40 35
        E 0 96 3b 35
        E 96 86 3b 35
        E 0 96 39 35
        E 0 96 34 35
        E 224 86 34 35
        E 0 96 40 35
        E 64 86 40 35
        E 0 96 37 35
        E 224 86 37 35
        E 0 96 40 35
        E 256 86 40 35
        E 0 96 3b 35
        E 96 86 3b 35
        E 0 96 39 35
        E 0 96 34 35
        E 224 86 34 35
        E 0 96 40 35
        E 64 86 40 35
        E 0 96 37 35
        E 224 86 37 35
        E 0 96 40 35
        E 256 86 40 35
        E 0 96 3b 35
        E 96 86 3b 35
        E 0 96 39 35
        E 0 96 34 35
        E 224 86 34 35
        E 0 96 40 35
        E 64 86 40 35
        E 0 96 37 35
        E 224 86 37 35
        E 0 96 40 35
        E 256 86 40 35
        E 0 96 3b 35
        E 96 86 3b 35
        E 0 96 39 35
        E 0 96 34 35
        E 224 86 34 35
        E 0 96 40 35
        E 64 86 40 35
        E 0 96 37 35
        E 224 86 37 35
        E 0 96 40 35
        E 256 86 40 35
        E 0 96 3b 35
        E 96 86 3b 35
        E 0 96 39 35
        E 0 96 34 35
        E 224 86 34 35
        E 0 96 40 35
        E 64 86 40 35
        E 0 96 37 35
        E 224 86 37 35
        E 0 96 40 35
        E 256 86 40 35
        E 0 96 3b 35
        E 96 86 3b 35
        E 0 96 39 35
        E 0 96 34 35
        E 224 86 34 35
        E 0 96 40 35
        E 64 86 40 35
        E 0 96 37 35
        E 224 86 37 35
        E 0 96 40 35
        E 256 86 40 35
        E 0 96 3b 35
        E 96 86 3b 35
        E 0 96 39 35
        E 0 96 34 35
        E 224 86 34 35
        E 0 96 40 35
        E 64 86 40 35
        E 0 96 37 35
        E 224 86 37 35
        E 0 96 40 35
        E 256 86 40 35
        E 0 96 3b 35
        E 96 86 3b 35
        E 0 96 39 35
        E 0 96 34 35
        E 224 86 34 35
        E 0 96 40 35
        E 64 86 40 35
        E 0 96 37 35
        E 224 86 37 35
        E 0 96 40 35
        E 256 86 40 35
        E 0 96 3b 35
        E 96 86 3b 35
        E 0 96 39 35
        E 0 96 34 35
        E 224 86 34 35
        E 0 96 40 35
        E 64 86 40 35
        E 0 96 37 35
        E 224 86 37 35
        E 0 96 40 35
        E 256 86 40 35
        E 0 96 3b 35
        E 96 86 3b 35
        E 0 96 39 35
        E 0 96 34 35
        E 224 86 34 35
        E 0 96 40 35
        E 64 86 40 35
        E 0 96 37 35
        E 224 86 37 35
        E 0 96 40 35
        E 256 86 40 35
        E 0 96 3b 35
        E 96 86 3b 35
        E 0 96 39 35
        E 0 96 34 35
        E 224 86 34 35
        E 0 96 40 35
        E 64 86 40 35
        E 0 96 37 35
        E 224 86 37 35
        E 0 96 40 35
        E 256 86 40 35
        E 0 96 3b 35
        E 96 86 3b 35
        E 0 96 39 35
        E 0 96 34 35
        E 224 86 34 35
        E 0 96 40 35
        E 64 86 40 35
        E 0 96 37 35
        E 224 86 37 35
        E 0 96 40 35
        E 256 86 40 35
        E 0 96 3b 35
        E 96 86 3b 35
        E 0 96 39 35
        E 0 96 34 35
        E 224 86 34 35
        E 0 96 40 35
        E 64 86 40 35
        E 0 96 37 35
        E 224 86 37 35
        E 0 96 40 35
        E 256 86 40 35
        E 0 96 3b 35
        E 96 86 3b 35
        E 0 96 39 35
        E 0 96 34 35
        E 224 86 34 35
        E 0 96 40 35
        E 64 86 40 35
        E 0 96 37 35
        E 224 86 37 35
        E 0 96 40 35
        E 256 86 40 35
        E 0 96 3b 35
        E 96 86 3b 35
        E 0 96 39 35
        E 0 96 34 35
        E 224 86 34 35
        E 0 96 40 35
        E 64 86 40 35
        E 0 96 37 35
        E 224 86 37 35
        E 0 96 40 35
        E 256 86 40 35
        E 0 96 3b 35
        E 96 86 3b 35
        E 0 96 39 35
        E 0 96 34 35
        E 224 86 34 35
        E 0 96 40 35
        E 64 86 40 35
        E 0 96 37 35
        E 224 86 37 35
        E 0 96 40 35
        E 256 86 40 35
        E 0 96 3b 35
        E 96 86 3b 35
        E 0 96 39 35
        E 0 96 34 35
        E 224 86 34 35
        E 0 96 40 35
        E 64 86 40 35
        E 0 96 37 35
        E 224 86 37 35
        E 0 96 40 35
        E 256 86 40 35
        E 0 96 3b 35
        E 96 86 3b 35
        E 0 96 39 35
        E 0 96 34 35
        E 224 86 34 35
        E 0 96 40 35
        E 64 86 40 35
        E 0 96 37 35
        E 224 86 37 35
        E 0 96 40 35
        E 256 86 40 35
        E 0 96 3b 35
        E 96 86 3b 35
        E 0 96 39 35
        E 0 96 34 35
        E 224 86 34 35
        E 0 96 40 35
        E 64 86 40 35
        E 0 96 37 35
        E 224 86 37 35
        E 0 96 40 35
        E 256 86 40 35
        E 0 96 3b 35
        E 96 86 3b 35
        E 0 96 39 35
        E 0 96 34 35
        E 224 86 34 35
        E 0 96 40 35
        E 64 86 40 35
        E 0 96 37 35
        E 224 86 37 35
        E 0 96 40 35
        E 256 86 40 35
        E 0 96 3b 35
        E 96 86 3b 35
        E 0 96 39 35
        E 0 96 34 35
        E 224 86 34 35
        E 0 96 40 35
        E 64 86 40 35
        E 0 96 37 35
        E 224 86 37 35
        E 0 96 40 35
        E 256 86 40 35
        E 0 96 3b 35
        E 96 86 3b 35
        E 0 96 39 35
        E 0 96 34 35
        E 224 86 34 35
        E 0 96 40 35
        E 64 86 40 35
        E 0 96 37 35
        E 224 86 37 35
        E 0 96 40 35
        E 256 86 40 35
        E 0 96 3b 35
        E 96 86 3b 35
        E 0 96 39 35
        E 0 96 34 35
        E 224 86 34 35
        E 0 96 40 35
        E 64 86 40 35
        E 0 96 37 35
        E 224 86 37 35
        E 0 96 40 35
        E 256 86 40 35
        E 0 96 41 35
        E 192 86 41 35
        E 0 96 32 35
        E 128 86 32 35
        E 0 96 3b 35
        E 96 86 3b 35
        E 0 96 41 35
        E 192 86 41 35
        E 0 96 32 35
        E 128 86 32 35
        E 0 96 3b 35
        E 96 86 3b 35
        E 0 96 41 35
        E 192 86 41 35
        E 0 96 32 35
        E 128 86 32 35
        E 0 96 3b 35
        E 96 86 3b 35
        E 0 96 41 35
        E 192 86 41 35
        E 0 96 32 35
        E 128 86 32 35
        E 0 96 3b 35
        E 96 86 3b 35
        E 0 96 41 35
        E 192 86 41 35
        E 0 96 32 35
        E 128 86 32 35
        E 0 96 3b 35
        E 96 86 3b 35
        E 0 96 41 35
        E 192 86 41 35
        E 0 96 32 35
        E 128 86 32 35
        E 0 96 3b 35
        E 96 86 3b 35
        E 0 96 41 35
        E 192 86 41 35
        E 0 96 32 35
        E 128 86 32 35
        E 0 96 3b 35
        E 96 86 3b 35
        E 0 96 41 35
        E 192 86 41 35
        E 0 96 32 35
        E 128 86 32 35
        E 0 96 3b 35
        E 96 86 3b 35
        E 0 96 41 35
        E 192 86 41 35
        E 0 96 32 35
        E 128 86 32 35
        E 0 96 3b 35
        E 96 86 3b 35
        E 0 96 41 35
        E 192 86 41 35
        E 0 96 32 35
        E 128 86 32 35
        E 0 96 3b 35
        E 96 86 3b 35
        E 0 96 41 35
        E 192 86 41 35
        E 0 96 32 35
        E 128 86 32 35
        E 0 96 3b 35
        E 96 86 3b 35
        E 0 96 41 35
        E 192 86 41 35
        E 0 96 32 35
        E 128 86 32 35
        E 0 96 3b 35
        E 96 86 3b 35
        E 0 96 41 35
        E 192 86 41 35
        E 0 96 32 35
        E 128 86 32 35
        E 0 96 3b 35
        E 96 86 3b 35
        E 0 96 41 35
        E 192 86 41 35
        E 0 96 32 35
        E 128 86 32 35
        E 0 96 3b 35
        E 96 86 3b 35
        E 0 96 41 35
        E 192 86 41 35
        E 0 96 32 35
        E 128 86 32 35
        E 0 96 3b 35
        E 96 86 3b 35
        E 0 96 41 35
        E 192 86 41 35
        E 0 96 32 35
        E 128 86 32 35
        E 0 96 3b 35
        E 95 86 3b 35
        E 1 b0 7b 00
        CCINTERP 32
        CHASE_CC_TAKEOFFS 1
        GUID {07659BAA-9992-6744-9EA1-79A470C2FC7E}
        IGNTEMPO 0 120 4 4
        SRCCOLOR 597
        VELLANE 3 601 0
        VELLANE -1 196 0
        CFGEDITVIEW 0 0.008186 62 12 0 -1 0 0 0 0.5
        KEYSNAP 0
        TRACKSEL 252
        EVTFILTER 0 -1 -1 -1 -1 0 0 0 0 -1 -1 -1 -1 0 -1 0 -1 -1
        CFGEDIT 1 1 0 1 0 0 1 1 1 1 1 0.125 0 0 1792 1095 0 0 0 0 0 0 0 0 0 0.5 0 0 1 64
      >
    >
  >
  <TRACK {C2C76521-4E74-BC41-B524-00FB85488F8F}
    NAME "germ-x hand sanitizer"
    PEAKCOL 16576
    BEAT -1
    AUTOMODE 0
    VOLPAN 1 0 -1 -1 1
    MUTESOLO 0 0 0
    IPHASE 0
    PLAYOFFS 0 1
    ISBUS 0 0
    BUSCOMP 0 0 0 0 0
    SHOWINMIX 1 0.6667 0.5 1 0.5 0 -1 0
    FREEMODE 0
    SEL 0
    REC 0 0 1 0 0 0 0
    VU 2
    TRACKHEIGHT 0 0 0 0 -1 0
    INQ 0 0 0 0.5 100 0 0 100
    NCHAN 2
    FX 1
    TRACKID {C2C76521-4E74-BC41-B524-00FB85488F8F}
    PERF 0
    MIDIOUT -1
    MAINSEND 1 0
    <FXCHAIN
      SHOW 0
      LASTSEL 0
      DOCKED 0
      BYPASS 0 0 0
      <VST "VSTi: FM8 (Native Instruments GmbH)" FM8.vst 0 "" 1315530296<5653544E696638666D38000000000000> ""
        OGZpTu5e7f4AAAAAAgAAAAEAAAAAAAAAAgAAAAAAAAAYBwAAAQAAAAAAEAA=
        GAcAAAAAAAABAAAAaHNpbgEAAAAAAAAAN455D8DDx0mHoN4j0l/0WZYAAAAAAAAARFNJTnYAAAABAAAASAAAAAAAAABEU0lOagAAAAEAAAAYAAAAAAAAAERTSU4BAAAA
        AQAAAAEAAAABAAAAAQAAAAEAAAAAAAAAAAAAAAAAAAANYmWFAQAAAAhwEAAAAAAAAQAAAAEAAAAAAAAAAAAAAAAAAAADAAAAMAAwADAAAAAAAAAAAAAAAAAAAAAAAAEA
        AAABAAAAAAAAAERTSU5lAAAARgYAAAAAAAABAAAAaHNpbgEAAAAAAAAAMOH4NwAUwEaoogAOyNUgkW0AAAAAAAAARFNJTmUAAAABAAAANAAAAAAAAABEU0lOagAAAAEA
        AAAYAAAAAAAAAERTSU4BAAAAAQAAAAEAAAABAAAAAgAAAAEAAAAACAAAAAEAAAAKAAAAMQAuADIALgAwAC4AMQAwADEAMAABAAAAAwAAAAAAAABEU0lObAAAAKgBAAAA
        AAAAAQAAAGhzaW4BAAAAAAAAACA7190CLVtKvWPIjKqbw/t4AQAAAAAAAERTSU5sAAAAAQAAABgAAAAAAAAARFNJTgEAAAABAAAAAQAAAAEAAAACAAAAAQAAAAAAAAAI
        AAAATgBlAHcAUwBvAHUAbgBkAAcAAABuAG8AdAAgAHMAZQB0AAAAAAAAAAAAAAAAAAAAAAAAAAAAAAAAAAAAAAAAAAAAAAAAAAEAAAABAAAAAQAAAAMAAABGAE0AOAAA
        AAAAAAAAAAcAAAAHAAAAXABAAGMAbwBsAG8AcgABAAAAMAARAAAAXABAAGQAZQB2AGkAYwBlAHQAeQBwAGUAZgBsAGEAZwBzAAEAAAAxAAsAAABcAEAAcwBvAHUAbgBk
        AHQAeQBwAGUAAQAAADAABwAAAFwAQAB0AGUAbQBwAG8AAQAAADAABgAAAFwAQAB2AGUAcgBsAAUAAAAxAC4ANwAuADgABgAAAFwAQAB2AGUAcgBtAAUAAAAxAC4ANwAu
        ADgABwAAAFwAQAB2AGkAcwBpAGIAAQAAADAAAQAAAAAAAAACAAAARFNJTnkAAABoAAAAAAAAAAEAAABoc2luAQAAAAAAAABG64vCmumHRIQ9Mih2ujahOAAAAAAAAABE
        U0lOeQAAAAEAAAAYAAAAAAAAAERTSU4BAAAAAQAAAAEAAAABAAAAAQAAAAAAAAABAAAAAAAAAAEAAABEU0lOdAAAAHUDAAAAAAAAAQAAAGhzaW4BAAAAAAAAAMPiDYJz
        LJxOuWtBgMMVvqRFAwAAAAAAAERTSU50AAAAAQAAACwDAAAAAAAARFNJTnMAAAABAAAAGAAAAAAAAABEU0lOAQAAAAEAAAABAAAAAQAAAAG9DwAA8wIAAAK9DwBgAAAB
        IAUDaHNpbkAHQAAQHyRrBvAZSEqYrqFXTcEPPBhAFCAAA0RTSU5AI+AHA0AAQBsAbSAIAWkPIAQgAEAj4ANTEEkCYzKs2sVGp2B2wrYRj5w5oCfAN0Av4BdnQCMB8Q4g
        XCAAAAUgAwFjDCAEIAAIdHNycEU4TUbPIAsEvCMAAAcgBwZkZWZhdWx04BgKICoAP+ACAwNBAACAIA8AoCAH4AsAAPAgF0AfwAAAICAPwABgFwVAAABIQgDgBABAD0AD
        4BcfYAAge+AEA0AAwBPgAwBAE+AAAAPNzMw+IAwDP5qZGUAXwAPgABcgCuAHG0ATQADgBwdAACATYKtAACALYANAAEALQAAg42AAwA9AB0AD4AMAwA9AB0ADwABAC8AD
        QADAC8AHQADgAwtAAEAP4AMAIA/Bn8AHAMjhDnPgHwDgAO/gDgBAX0ADwABBz8H7QAtAAwCgIINAB0AAALQgCwCWIAPgAwDAP0AHQAPAAEAz4MdLIAAAAcAAIAuAAAAC
        wACADuAdAOAALAD+4B0v4CEAABTgISrgMADBA+AKAGBTgAXgAABChuAXA+AeAOD9WSBZIkBBUgH6Q0AH4FUMQ9VAZwH6Q6BnBYA/zLyMK+BVDOABACBnBAA/ZmZmYAPg
        YwwgAABwJOwB/kJAdCAA4D4MosLgAFaAAKBjgADgOAwgYwRwwgAAhmC6JliAA0BW4EEMIGPgAE3g8AAAUCAA4Of8AP/gFwAABEERCggyAwAAQDIAAAA8QikgAwHwQmLY
        AAEgAYLiIAcgAkKVgAagCSA3oAkgSKAJKxegCQAG4AAJKwSgEyAAoAmASKAGoBPgwk/gSwAAEaBUA2tuYWJBMcAAAYAAIAAAGaARA2N0bmlMiwERJ2FcTFBAAEocAaBC
        4hMPTInAH00bwAvg/QDgvQABIACAAANzaXVnQiQA6CNxwAAAKiAIABkgAyOYYAAj0mAAB2dwdGNZVE1FQAwLDWJlhQEAAAAAAAAAAQAAAAABAAAAAAAAAA==
        ADxkaXNhYmxlZD4AEAAAAA==
      >
      PRESETNAME <disabled>
      FLOATPOS 0 0 0 0
      FXID {6D6A6848-205C-6F4E-9EBB-B456E0172EAB}
      WAK 0 0
    >
    <ITEM
      POSITION 51.89184000000514
      SNAPOFFS 0
      LENGTH 248.10785999999487
      LOOP 1
      ALLTAKES 0
      FADEIN 1 0 0 1 0 0
      FADEOUT 1 0 0 1 0 0
      MUTE 0 0
      SEL 0
      IGUID {DD160A2B-6F50-4549-BD2B-47D31637390D}
      IID 31
      NAME "germ-x hand sanitizer.mid"
      VOLPAN 1 0 1 -1
      SOFFS 0 0
      PLAYRATE 1 1 0 -1 0 0.0025
      CHANMODE 0
      GUID {20C80553-2476-0248-8707-93505F8D479E}
      <SOURCE MIDI
        HASDATA 1 128 QN
        CCINTERP 32
        POOLEDEVTS {325C336C-B500-474C-910A-0EE030607A72}
        E 0 97 41 35
        E 85 87 41 35
        E 0 97 32 35
        E 56 87 32 35
        E 0 97 3b 35
        E 42 87 3b 35
        E 0 97 41 35
        E 85 87 41 35
        E 0 97 32 35
        E 56 87 32 35
        E 0 97 3b 35
        E 42 87 3b 35
        E 0 97 41 35
        E 85 87 41 35
        E 0 97 32 35
        E 56 87 32 35
        E 0 97 3b 35
        E 42 87 3b 35
        E 0 97 41 35
        E 85 87 41 35
        E 0 97 32 35
        E 56 87 32 35
        E 0 97 3b 35
        E 42 87 3b 35
        E 0 97 41 35
        E 85 87 41 35
        E 0 97 32 35
        E 56 87 32 35
        E 0 97 3b 35
        E 42 87 3b 35
        E 0 97 41 35
        E 85 87 41 35
        E 0 97 32 35
        E 56 87 32 35
        E 0 97 3b 35
        E 42 87 3b 35
        E 0 97 41 35
        E 85 87 41 35
        E 0 97 32 35
        E 56 87 32 35
        E 0 97 3b 35
        E 42 87 3b 35
        E 0 97 41 35
        E 85 87 41 35
        E 0 97 32 35
        E 56 87 32 35
        E 0 97 3b 35
        E 42 87 3b 35
        E 0 97 41 35
        E 85 87 41 35
        E 0 97 32 35
        E 56 87 32 35
        E 0 97 3b 35
        E 42 87 3b 35
        E 0 97 41 35
        E 85 87 41 35
        E 0 97 32 35
        E 56 87 32 35
        E 0 97 3b 35
        E 42 87 3b 35
        E 0 97 41 35
        E 85 87 41 35
        E 0 97 32 35
        E 56 87 32 35
        E 0 97 3b 35
        E 42 87 3b 35
        E 0 97 41 35
        E 85 87 41 35
        E 0 97 32 35
        E 56 87 32 35
        E 0 97 3b 35
        E 42 87 3b 35
        E 0 97 41 35
        E 85 87 41 35
        E 0 97 32 35
        E 56 87 32 35
        E 0 97 3b 35
        E 42 87 3b 35
        E 0 97 41 35
        E 85 87 41 35
        E 0 97 32 35
        E 56 87 32 35
        E 0 97 3b 35
        E 42 87 3b 35
        E 0 97 41 35
        E 85 87 41 35
        E 0 97 32 35
        E 56 87 32 35
        E 0 97 3b 35
        E 42 87 3b 35
        E 0 97 41 35
        E 85 87 41 35
        E 0 97 32 35
        E 56 87 32 35
        E 0 97 3b 35
        E 42 87 3b 35
        E 0 97 41 35
        E 85 87 41 35
        E 0 97 32 35
        E 56 87 32 35
        E 0 97 3b 35
        E 42 87 3b 35
        E 0 97 41 35
        E 85 87 41 35
        E 0 97 32 35
        E 56 87 32 35
        E 0 97 3b 35
        E 42 87 3b 35
        E 0 97 41 35
        E 85 87 41 35
        E 0 97 32 35
        E 56 87 32 35
        E 0 97 3b 35
        E 42 87 3b 35
        E 0 97 41 35
        E 85 87 41 35
        E 0 97 32 35
        E 56 87 32 35
        E 0 97 3b 35
        E 42 87 3b 35
        E 0 97 41 35
        E 85 87 41 35
        E 0 97 32 35
        E 56 87 32 35
        E 0 97 3b 35
        E 42 87 3b 35
        E 0 97 41 35
        E 85 87 41 35
        E 0 97 32 35
        E 56 87 32 35
        E 0 97 3b 35
        E 42 87 3b 35
        E 0 97 41 35
        E 85 87 41 35
        E 0 97 32 35
        E 56 87 32 35
        E 0 97 3b 35
        E 42 87 3b 35
        E 0 97 41 35
        E 85 87 41 35
        E 0 97 32 35
        E 56 87 32 35
        E 0 97 3b 35
        E 42 87 3b 35
        E 0 97 41 35
        E 85 87 41 35
        E 0 97 32 35
        E 56 87 32 35
        E 0 97 3b 35
        E 42 87 3b 35
        E 0 97 41 35
        E 85 87 41 35
        E 0 97 32 35
        E 56 87 32 35
        E 0 97 3b 35
        E 42 87 3b 35
        E 0 97 41 35
        E 85 87 41 35
        E 0 97 32 35
        E 56 87 32 35
        E 0 97 3b 35
        E 42 87 3b 35
        E 0 97 41 35
        E 85 87 41 35
        E 0 97 32 35
        E 56 87 32 35
        E 0 97 3b 35
        E 42 87 3b 35
        E 0 97 41 35
        E 85 87 41 35
        E 0 97 32 35
        E 56 87 32 35
        E 0 97 3b 35
        E 42 87 3b 35
        E 0 97 41 35
        E 85 87 41 35
        E 0 97 32 35
        E 56 87 32 35
        E 0 97 3b 35
        E 42 87 3b 35
        E 0 97 41 35
        E 85 87 41 35
        E 0 97 32 35
        E 56 87 32 35
        E 0 97 3b 35
        E 42 87 3b 35
        E 0 97 41 35
        E 85 87 41 35
        E 0 97 32 35
        E 56 87 32 35
        E 0 97 3b 35
        E 42 87 3b 35
        E 0 97 41 35
        E 85 87 41 35
        E 0 97 32 35
        E 56 87 32 35
        E 0 97 3b 35
        E 42 87 3b 35
        E 0 97 41 35
        E 85 87 41 35
        E 0 97 32 35
        E 56 87 32 35
        E 0 97 3b 35
        E 42 87 3b 35
        E 0 97 41 35
        E 85 87 41 35
        E 0 97 32 35
        E 56 87 32 35
        E 0 97 3b 35
        E 42 87 3b 35
        E 0 97 41 35
        E 85 87 41 35
        E 0 97 32 35
        E 56 87 32 35
        E 0 97 3b 35
        E 42 87 3b 35
        E 0 97 35 35
        E 42 87 35 35
        E 0 97 39 35
        E 113 87 39 35
        E 0 97 41 35
        E 85 87 41 35
        E 0 97 32 35
        E 56 87 32 35
        E 0 97 3b 35
        E 42 87 3b 35
        E 0 97 35 35
        E 42 87 35 35
        E 0 97 39 35
        E 113 87 39 35
        E 0 97 41 35
        E 85 87 41 35
        E 0 97 32 35
        E 56 87 32 35
        E 0 97 3b 35
        E 42 87 3b 35
        E 0 97 35 35
        E 42 87 35 35
        E 0 97 39 35
        E 113 87 39 35
        E 0 97 41 35
        E 85 87 41 35
        E 0 97 32 35
        E 56 87 32 35
        E 0 97 3b 35
        E 42 87 3b 35
        E 0 97 35 35
        E 42 87 35 35
        E 0 97 39 35
        E 113 87 39 35
        E 0 97 41 35
        E 85 87 41 35
        E 0 97 32 35
        E 56 87 32 35
        E 0 97 3b 35
        E 42 87 3b 35
        E 0 97 35 35
        E 42 87 35 35
        E 0 97 39 35
        E 113 87 39 35
        E 0 97 41 35
        E 85 87 41 35
        E 0 97 32 35
        E 56 87 32 35
        E 0 97 3b 35
        E 42 87 3b 35
        E 0 97 35 35
        E 42 87 35 35
        E 0 97 39 35
        E 113 87 39 35
        E 0 97 41 35
        E 85 87 41 35
        E 0 97 32 35
        E 56 87 32 35
        E 0 97 3b 35
        E 42 87 3b 35
        E 0 97 35 35
        E 42 87 35 35
        E 0 97 39 35
        E 113 87 39 35
        E 0 97 41 35
        E 85 87 41 35
        E 0 97 32 35
        E 56 87 32 35
        E 0 97 3b 35
        E 42 87 3b 35
        E 0 97 35 35
        E 42 87 35 35
        E 0 97 39 35
        E 113 87 39 35
        E 0 97 41 35
        E 85 87 41 35
        E 0 97 32 35
        E 56 87 32 35
        E 0 97 3b 35
        E 42 87 3b 35
        E 0 97 35 35
        E 42 87 35 35
        E 0 97 39 35
        E 113 87 39 35
        E 0 97 41 35
        E 85 87 41 35
        E 0 97 32 35
        E 56 87 32 35
        E 0 97 3b 35
        E 42 87 3b 35
        E 0 97 35 35
        E 42 87 35 35
        E 0 97 39 35
        E 113 87 39 35
        E 0 97 41 35
        E 85 87 41 35
        E 0 97 32 35
        E 56 87 32 35
        E 0 97 3b 35
        E 42 87 3b 35
        E 0 97 35 35
        E 42 87 35 35
        E 0 97 39 35
        E 113 87 39 35
        E 0 97 41 35
        E 85 87 41 35
        E 0 97 32 35
        E 56 87 32 35
        E 0 97 3b 35
        E 42 87 3b 35
        E 0 97 35 35
        E 42 87 35 35
        E 0 97 39 35
        E 113 87 39 35
        E 0 97 41 35
        E 85 87 41 35
        E 0 97 32 35
        E 56 87 32 35
        E 0 97 3b 35
        E 42 87 3b 35
        E 0 97 35 35
        E 42 87 35 35
        E 0 97 39 35
        E 113 87 39 35
        E 0 97 41 35
        E 85 87 41 35
        E 0 97 32 35
        E 56 87 32 35
        E 0 97 3b 35
        E 42 87 3b 35
        E 0 97 35 35
        E 42 87 35 35
        E 0 97 39 35
        E 113 87 39 35
        E 0 97 41 35
        E 85 87 41 35
        E 0 97 32 35
        E 56 87 32 35
        E 0 97 3b 35
        E 42 87 3b 35
        E 0 97 35 35
        E 42 87 35 35
        E 0 97 39 35
        E 113 87 39 35
        E 0 97 41 35
        E 85 87 41 35
        E 0 97 32 35
        E 56 87 32 35
        E 0 97 3b 35
        E 42 87 3b 35
        E 0 97 35 35
        E 42 87 35 35
        E 0 97 39 35
        E 113 87 39 35
        E 0 97 41 35
        E 85 87 41 35
        E 0 97 32 35
        E 56 87 32 35
        E 0 97 3b 35
        E 42 87 3b 35
        E 0 97 35 35
        E 42 87 35 35
        E 0 97 39 35
        E 113 87 39 35
        E 0 97 41 35
        E 85 87 41 35
        E 0 97 32 35
        E 56 87 32 35
        E 0 97 3b 35
        E 42 87 3b 35
        E 0 97 35 35
        E 42 87 35 35
        E 0 97 39 35
        E 113 87 39 35
        E 0 97 41 35
        E 85 87 41 35
        E 0 97 32 35
        E 56 87 32 35
        E 0 97 3b 35
        E 42 87 3b 35
        E 0 97 35 35
        E 42 87 35 35
        E 0 97 39 35
        E 113 87 39 35
        E 0 97 41 35
        E 85 87 41 35
        E 0 97 32 35
        E 56 87 32 35
        E 0 97 3b 35
        E 42 87 3b 35
        E 0 97 35 35
        E 42 87 35 35
        E 0 97 39 35
        E 113 87 39 35
        E 0 97 41 35
        E 85 87 41 35
        E 0 97 32 35
        E 56 87 32 35
        E 0 97 3b 35
        E 42 87 3b 35
        E 0 97 35 35
        E 42 87 35 35
        E 0 97 39 35
        E 113 87 39 35
        E 0 97 41 35
        E 85 87 41 35
        E 0 97 32 35
        E 56 87 32 35
        E 0 97 3b 35
        E 42 87 3b 35
        E 0 97 35 35
        E 42 87 35 35
        E 0 97 39 35
        E 113 87 39 35
        E 0 97 41 35
        E 85 87 41 35
        E 0 97 32 35
        E 56 87 32 35
        E 0 97 3b 35
        E 42 87 3b 35
        E 0 97 35 35
        E 42 87 35 35
        E 0 97 39 35
        E 113 87 39 35
        E 0 97 41 35
        E 85 87 41 35
        E 0 97 32 35
        E 56 87 32 35
        E 0 97 3b 35
        E 42 87 3b 35
        E 0 97 35 35
        E 42 87 35 35
        E 0 97 39 35
        E 113 87 39 35
        E 0 97 41 35
        E 85 87 41 35
        E 0 97 32 35
        E 56 87 32 35
        E 0 97 3b 35
        E 42 87 3b 35
        E 0 97 35 35
        E 42 87 35 35
        E 0 97 39 35
        E 113 87 39 35
        E 0 97 41 35
        E 85 87 41 35
        E 0 97 32 35
        E 56 87 32 35
        E 0 97 3b 35
        E 42 87 3b 35
        E 0 97 35 35
        E 42 87 35 35
        E 0 97 39 35
        E 113 87 39 35
        E 0 97 41 35
        E 85 87 41 35
        E 0 97 32 35
        E 56 87 32 35
        E 0 97 3b 35
        E 42 87 3b 35
        E 0 97 35 35
        E 42 87 35 35
        E 0 97 39 35
        E 113 87 39 35
        E 0 97 41 35
        E 85 87 41 35
        E 0 97 32 35
        E 56 87 32 35
        E 0 97 3b 35
        E 42 87 3b 35
        E 0 97 37 35
        E 99 87 37 35
        E 0 97 40 35
        E 113 87 40 35
        E 0 97 41 35
        E 71 87 41 35
        E 0 97 30 35
        E 14 87 30 35
        E 0 97 35 35
        E 42 87 35 35
        E 0 97 39 35
        E 113 87 39 35
        E 0 97 41 35
        E 85 87 41 35
        E 0 97 37 35
        E 99 87 37 35
        E 0 97 40 35
        E 113 87 40 35
        E 0 97 41 35
        E 71 87 41 35
        E 0 97 30 35
        E 14 87 30 35
        E 0 97 35 35
        E 42 87 35 35
        E 0 97 39 35
        E 113 87 39 35
        E 0 97 41 35
        E 85 87 41 35
        E 0 97 37 35
        E 99 87 37 35
        E 0 97 40 35
        E 113 87 40 35
        E 0 97 41 35
        E 71 87 41 35
        E 0 97 30 35
        E 14 87 30 35
        E 0 97 35 35
        E 42 87 35 35
        E 0 97 39 35
        E 113 87 39 35
        E 0 97 41 35
        E 85 87 41 35
        E 0 97 37 35
        E 99 87 37 35
        E 0 97 40 35
        E 113 87 40 35
        E 0 97 41 35
        E 71 87 41 35
        E 0 97 30 35
        E 14 87 30 35
        E 0 97 35 35
        E 42 87 35 35
        E 0 97 39 35
        E 113 87 39 35
        E 0 97 41 35
        E 85 87 41 35
        E 0 97 37 35
        E 99 87 37 35
        E 0 97 40 35
        E 113 87 40 35
        E 0 97 41 35
        E 71 87 41 35
        E 0 97 30 35
        E 14 87 30 35
        E 0 97 35 35
        E 42 87 35 35
        E 0 97 39 35
        E 113 87 39 35
        E 0 97 41 35
        E 85 87 41 35
        E 0 97 37 35
        E 99 87 37 35
        E 0 97 40 35
        E 113 87 40 35
        E 0 97 41 35
        E 71 87 41 35
        E 0 97 30 35
        E 14 87 30 35
        E 0 97 35 35
        E 42 87 35 35
        E 0 97 39 35
        E 113 87 39 35
        E 0 97 41 35
        E 85 87 41 35
        E 0 97 37 35
        E 99 87 37 35
        E 0 97 40 35
        E 113 87 40 35
        E 0 97 41 35
        E 71 87 41 35
        E 0 97 30 35
        E 14 87 30 35
        E 0 97 35 35
        E 42 87 35 35
        E 0 97 39 35
        E 113 87 39 35
        E 0 97 41 35
        E 85 87 41 35
        E 0 97 37 35
        E 99 87 37 35
        E 0 97 40 35
        E 113 87 40 35
        E 0 97 41 35
        E 71 87 41 35
        E 0 97 30 35
        E 14 87 30 35
        E 0 97 35 35
        E 42 87 35 35
        E 0 97 39 35
        E 113 87 39 35
        E 0 97 41 35
        E 85 87 41 35
        E 0 97 37 35
        E 99 87 37 35
        E 0 97 40 35
        E 113 87 40 35
        E 0 97 41 35
        E 71 87 41 35
        E 0 97 30 35
        E 14 87 30 35
        E 0 97 35 35
        E 42 87 35 35
        E 0 97 39 35
        E 113 87 39 35
        E 0 97 41 35
        E 85 87 41 35
        E 0 97 37 35
        E 99 87 37 35
        E 0 97 40 35
        E 113 87 40 35
        E 0 97 41 35
        E 71 87 41 35
        E 0 97 30 35
        E 14 87 30 35
        E 0 97 35 35
        E 42 87 35 35
        E 0 97 39 35
        E 113 87 39 35
        E 0 97 41 35
        E 85 87 41 35
        E 0 97 37 35
        E 99 87 37 35
        E 0 97 40 35
        E 113 87 40 35
        E 0 97 41 35
        E 71 87 41 35
        E 0 97 30 35
        E 14 87 30 35
        E 0 97 35 35
        E 42 87 35 35
        E 0 97 39 35
        E 113 87 39 35
        E 0 97 41 35
        E 85 87 41 35
        E 0 97 37 35
        E 99 87 37 35
        E 0 97 40 35
        E 113 87 40 35
        E 0 97 41 35
        E 71 87 41 35
        E 0 97 30 35
        E 14 87 30 35
        E 0 97 35 35
        E 42 87 35 35
        E 0 97 39 35
        E 113 87 39 35
        E 0 97 41 35
        E 85 87 41 35
        E 0 97 37 35
        E 99 87 37 35
        E 0 97 40 35
        E 113 87 40 35
        E 0 97 41 35
        E 71 87 41 35
        E 0 97 30 35
        E 14 87 30 35
        E 0 97 35 35
        E 42 87 35 35
        E 0 97 39 35
        E 113 87 39 35
        E 0 97 41 35
        E 85 87 41 35
        E 0 97 37 35
        E 99 87 37 35
        E 0 97 40 35
        E 113 87 40 35
        E 0 97 41 35
        E 71 87 41 35
        E 0 97 30 35
        E 14 87 30 35
        E 0 97 35 35
        E 42 87 35 35
        E 0 97 39 35
        E 113 87 39 35
        E 0 97 41 35
        E 85 87 41 35
        E 0 97 37 35
        E 99 87 37 35
        E 0 97 40 35
        E 113 87 40 35
        E 0 97 41 35
        E 71 87 41 35
        E 0 97 30 35
        E 14 87 30 35
        E 0 97 35 35
        E 42 87 35 35
        E 0 97 39 35
        E 113 87 39 35
        E 0 97 41 35
        E 85 87 41 35
        E 0 97 37 35
        E 99 87 37 35
        E 0 97 40 35
        E 113 87 40 35
        E 0 97 41 35
        E 71 87 41 35
        E 0 97 30 35
        E 14 87 30 35
        E 0 97 35 35
        E 42 87 35 35
        E 0 97 39 35
        E 113 87 39 35
        E 0 97 41 35
        E 85 87 41 35
        E 0 97 37 35
        E 99 87 37 35
        E 0 97 40 35
        E 113 87 40 35
        E 0 97 41 35
        E 71 87 41 35
        E 0 97 30 35
        E 14 87 30 35
        E 0 97 35 35
        E 42 87 35 35
        E 0 97 39 35
        E 113 87 39 35
        E 0 97 41 35
        E 85 87 41 35
        E 0 97 37 35
        E 99 87 37 35
        E 0 97 40 35
        E 113 87 40 35
        E 0 97 41 35
        E 71 87 41 35
        E 0 97 30 35
        E 14 87 30 35
        E 0 97 35 35
        E 42 87 35 35
        E 0 97 39 35
        E 113 87 39 35
        E 0 97 41 35
        E 85 87 41 35
        E 0 97 37 35
        E 99 87 37 35
        E 0 97 40 35
        E 113 87 40 35
        E 0 97 41 35
        E 71 87 41 35
        E 0 97 30 35
        E 14 87 30 35
        E 0 97 35 35
        E 42 87 35 35
        E 0 97 39 35
        E 113 87 39 35
        E 0 97 41 35
        E 85 87 41 35
        E 0 97 37 35
        E 99 87 37 35
        E 0 97 40 35
        E 113 87 40 35
        E 0 97 41 35
        E 71 87 41 35
        E 0 97 30 35
        E 14 87 30 35
        E 0 97 35 35
        E 42 87 35 35
        E 0 97 39 35
        E 113 87 39 35
        E 0 97 41 35
        E 85 87 41 35
        E 0 97 37 35
        E 99 87 37 35
        E 0 97 40 35
        E 113 87 40 35
        E 0 97 41 35
        E 71 87 41 35
        E 0 97 30 35
        E 14 87 30 35
        E 0 97 35 35
        E 42 87 35 35
        E 0 97 39 35
        E 113 87 39 35
        E 0 97 41 35
        E 85 87 41 35
        E 0 97 37 35
        E 99 87 37 35
        E 0 97 40 35
        E 113 87 40 35
        E 0 97 41 35
        E 71 87 41 35
        E 0 97 30 35
        E 14 87 30 35
        E 0 97 35 35
        E 42 87 35 35
        E 0 97 39 35
        E 113 87 39 35
        E 0 97 41 35
        E 85 87 41 35
        E 0 97 37 35
        E 99 87 37 35
        E 0 97 40 35
        E 113 87 40 35
        E 0 97 41 35
        E 71 87 41 35
        E 0 97 30 35
        E 14 87 30 35
        E 0 97 35 35
        E 42 87 35 35
        E 0 97 39 35
        E 113 87 39 35
        E 0 97 41 35
        E 85 87 41 35
        E 0 97 37 35
        E 99 87 37 35
        E 0 97 40 35
        E 113 87 40 35
        E 0 97 41 35
        E 71 87 41 35
        E 0 97 30 35
        E 14 87 30 35
        E 0 97 35 35
        E 42 87 35 35
        E 0 97 39 35
        E 113 87 39 35
        E 0 97 41 35
        E 85 87 41 35
        E 0 97 37 35
        E 99 87 37 35
        E 0 97 40 35
        E 113 87 40 35
        E 0 97 41 35
        E 71 87 41 35
        E 0 97 30 35
        E 14 87 30 35
        E 0 97 35 35
        E 42 87 35 35
        E 0 97 39 35
        E 113 87 39 35
        E 0 97 41 35
        E 85 87 41 35
        E 0 97 37 35
        E 99 87 37 35
        E 0 97 40 35
        E 113 87 40 35
        E 0 97 41 35
        E 71 87 41 35
        E 0 97 30 35
        E 14 87 30 35
        E 0 97 35 35
        E 42 87 35 35
        E 0 97 39 35
        E 113 87 39 35
        E 0 97 41 35
        E 85 87 41 35
        E 0 97 37 35
        E 99 87 37 35
        E 0 97 40 35
        E 113 87 40 35
        E 0 97 41 35
        E 71 87 41 35
        E 0 97 30 35
        E 14 87 30 35
        E 0 97 35 35
        E 42 87 35 35
        E 0 97 39 35
        E 113 87 39 35
        E 0 97 41 35
        E 85 87 41 35
        E 0 97 37 35
        E 99 87 37 35
        E 0 97 40 35
        E 113 87 40 35
        E 0 97 41 35
        E 71 87 41 35
        E 0 97 30 35
        E 14 87 30 35
        E 0 97 35 35
        E 42 87 35 35
        E 0 97 39 35
        E 113 87 39 35
        E 0 97 41 35
        E 85 87 41 35
        E 0 97 37 35
        E 99 87 37 35
        E 0 97 40 35
        E 113 87 40 35
        E 0 97 41 35
        E 71 87 41 35
        E 0 97 30 35
        E 14 87 30 35
        E 0 97 35 35
        E 42 87 35 35
        E 0 97 39 35
        E 113 87 39 35
        E 0 97 41 35
        E 85 87 41 35
        E 0 97 37 35
        E 99 87 37 35
        E 0 97 40 35
        E 113 87 40 35
        E 0 97 41 35
        E 71 87 41 35
        E 0 97 30 35
        E 14 87 30 35
        E 0 97 35 35
        E 42 87 35 35
        E 0 97 39 35
        E 113 87 39 35
        E 0 97 41 35
        E 85 87 41 35
        E 0 97 37 35
        E 99 87 37 35
        E 0 97 40 35
        E 113 87 40 35
        E 0 97 41 35
        E 71 87 41 35
        E 0 97 30 35
        E 14 87 30 35
        E 0 97 35 35
        E 42 87 35 35
        E 0 97 39 35
        E 113 87 39 35
        E 0 97 41 35
        E 85 87 41 35
        E 0 97 37 35
        E 99 87 37 35
        E 0 97 40 35
        E 113 87 40 35
        E 0 97 41 35
        E 71 87 41 35
        E 0 97 30 35
        E 14 87 30 35
        E 0 97 35 35
        E 42 87 35 35
        E 0 97 39 35
        E 113 87 39 35
        E 0 97 41 35
        E 85 87 41 35
        E 0 97 37 35
        E 99 87 37 35
        E 0 97 40 35
        E 113 87 40 35
        E 0 97 41 35
        E 71 87 41 35
        E 0 97 30 35
        E 14 87 30 35
        E 0 97 35 35
        E 42 87 35 35
        E 0 97 39 35
        E 113 87 39 35
        E 0 97 41 35
        E 85 87 41 35
        E 0 97 37 35
        E 99 87 37 35
        E 0 97 40 35
        E 113 87 40 35
        E 0 97 41 35
        E 71 87 41 35
        E 0 97 30 35
        E 14 87 30 35
        E 0 97 35 35
        E 42 87 35 35
        E 0 97 39 35
        E 113 87 39 35
        E 0 97 41 35
        E 85 87 41 35
        E 0 97 37 35
        E 99 87 37 35
        E 0 97 40 35
        E 113 87 40 35
        E 0 97 41 35
        E 71 87 41 35
        E 0 97 30 35
        E 14 87 30 35
        E 0 97 35 35
        E 42 87 35 35
        E 0 97 39 35
        E 113 87 39 35
        E 0 97 41 35
        E 85 87 41 35
        E 0 97 37 35
        E 99 87 37 35
        E 0 97 40 35
        E 113 87 40 35
        E 0 97 41 35
        E 71 87 41 35
        E 0 97 30 35
        E 14 87 30 35
        E 0 97 35 35
        E 42 87 35 35
        E 0 97 39 35
        E 113 87 39 35
        E 0 97 41 35
        E 85 87 41 35
        E 0 97 37 35
        E 99 87 37 35
        E 0 97 40 35
        E 113 87 40 35
        E 0 97 41 35
        E 71 87 41 35
        E 0 97 30 35
        E 14 87 30 35
        E 0 97 35 35
        E 42 87 35 35
        E 0 97 39 35
        E 113 87 39 35
        E 0 97 41 35
        E 85 87 41 35
        E 0 97 37 35
        E 99 87 37 35
        E 0 97 40 35
        E 113 87 40 35
        E 0 97 41 35
        E 71 87 41 35
        E 0 97 30 35
        E 14 87 30 35
        E 0 97 35 35
        E 42 87 35 35
        E 0 97 39 35
        E 113 87 39 35
        E 0 97 41 35
        E 85 87 41 35
        E 0 97 37 35
        E 99 87 37 35
        E 0 97 40 35
        E 113 87 40 35
        E 0 97 41 35
        E 71 87 41 35
        E 0 97 30 35
        E 14 87 30 35
        E 0 97 35 35
        E 42 87 35 35
        E 0 97 39 35
        E 113 87 39 35
        E 0 97 41 35
        E 85 87 41 35
        E 0 97 37 35
        E 99 87 37 35
        E 0 97 40 35
        E 113 87 40 35
        E 0 97 41 35
        E 71 87 41 35
        E 0 97 30 35
        E 14 87 30 35
        E 0 97 35 35
        E 42 87 35 35
        E 0 97 39 35
        E 113 87 39 35
        E 0 97 41 35
        E 85 87 41 35
        E 0 97 37 35
        E 99 87 37 35
        E 0 97 40 35
        E 113 87 40 35
        E 0 97 41 35
        E 71 87 41 35
        E 0 97 30 35
        E 14 87 30 35
        E 0 97 35 35
        E 42 87 35 35
        E 0 97 39 35
        E 113 87 39 35
        E 0 97 41 35
        E 85 87 41 35
        E 0 97 37 35
        E 99 87 37 35
        E 0 97 40 35
        E 113 87 40 35
        E 0 97 41 35
        E 71 87 41 35
        E 0 97 30 35
        E 14 87 30 35
        E 0 97 35 35
        E 42 87 35 35
        E 0 97 39 35
        E 113 87 39 35
        E 0 97 41 35
        E 85 87 41 35
        E 0 97 37 35
        E 99 87 37 35
        E 0 97 40 35
        E 113 87 40 35
        E 0 97 41 35
        E 71 87 41 35
        E 0 97 30 35
        E 14 87 30 35
        E 0 97 35 35
        E 42 87 35 35
        E 0 97 39 35
        E 113 87 39 35
        E 0 97 41 35
        E 85 87 41 35
        E 0 97 37 35
        E 99 87 37 35
        E 0 97 40 35
        E 113 87 40 35
        E 0 97 41 35
        E 71 87 41 35
        E 0 97 30 35
        E 14 87 30 35
        E 0 97 35 35
        E 42 87 35 35
        E 0 97 39 35
        E 113 87 39 35
        E 0 97 41 35
        E 85 87 41 35
        E 0 97 37 35
        E 99 87 37 35
        E 0 97 40 35
        E 113 87 40 35
        E 0 97 41 35
        E 71 87 41 35
        E 0 97 30 35
        E 14 87 30 35
        E 0 97 35 35
        E 42 87 35 35
        E 0 97 39 35
        E 113 87 39 35
        E 0 97 41 35
        E 85 87 41 35
        E 0 97 37 35
        E 99 87 37 35
        E 0 97 40 35
        E 113 87 40 35
        E 0 97 41 35
        E 71 87 41 35
        E 0 97 30 35
        E 14 87 30 35
        E 0 97 35 35
        E 42 87 35 35
        E 0 97 39 35
        E 113 87 39 35
        E 0 97 41 35
        E 85 87 41 35
        E 0 97 37 35
        E 99 87 37 35
        E 0 97 40 35
        E 113 87 40 35
        E 0 97 41 35
        E 71 87 41 35
        E 0 97 30 35
        E 14 87 30 35
        E 0 97 35 35
        E 42 87 35 35
        E 0 97 39 35
        E 113 87 39 35
        E 0 97 41 35
        E 85 87 41 35
        E 0 97 37 35
        E 99 87 37 35
        E 0 97 40 35
        E 113 87 40 35
        E 0 97 41 35
        E 71 87 41 35
        E 0 97 30 35
        E 14 87 30 35
        E 0 97 35 35
        E 42 87 35 35
        E 0 97 39 35
        E 113 87 39 35
        E 0 97 41 35
        E 85 87 41 35
        E 0 97 37 35
        E 99 87 37 35
        E 0 97 40 35
        E 113 87 40 35
        E 0 97 41 35
        E 71 87 41 35
        E 0 97 30 35
        E 14 87 30 35
        E 0 97 35 35
        E 42 87 35 35
        E 0 97 39 35
        E 113 87 39 35
        E 0 97 41 35
        E 85 87 41 35
        E 0 97 37 35
        E 99 87 37 35
        E 0 97 40 35
        E 113 87 40 35
        E 0 97 41 35
        E 71 87 41 35
        E 0 97 30 35
        E 14 87 30 35
        E 0 97 35 35
        E 42 87 35 35
        E 0 97 39 35
        E 113 87 39 35
        E 0 97 41 35
        E 85 87 41 35
        E 0 97 37 35
        E 99 87 37 35
        E 0 97 40 35
        E 113 87 40 35
        E 0 97 41 35
        E 71 87 41 35
        E 0 97 30 35
        E 14 87 30 35
        E 0 97 35 35
        E 42 87 35 35
        E 0 97 39 35
        E 113 87 39 35
        E 0 97 41 35
        E 85 87 41 35
        E 0 97 37 35
        E 99 87 37 35
        E 0 97 40 35
        E 113 87 40 35
        E 0 97 41 35
        E 71 87 41 35
        E 0 97 30 35
        E 14 87 30 35
        E 0 97 35 35
        E 42 87 35 35
        E 0 97 39 35
        E 113 87 39 35
        E 0 97 41 35
        E 85 87 41 35
        E 0 97 37 35
        E 99 87 37 35
        E 0 97 40 35
        E 113 87 40 35
        E 0 97 41 35
        E 71 87 41 35
        E 0 97 30 35
        E 14 87 30 35
        E 0 97 35 35
        E 42 87 35 35
        E 0 97 39 35
        E 113 87 39 35
        E 0 97 41 35
        E 85 87 41 35
        E 0 97 37 35
        E 99 87 37 35
        E 0 97 40 35
        E 113 87 40 35
        E 0 97 41 35
        E 71 87 41 35
        E 0 97 30 35
        E 14 87 30 35
        E 0 97 35 35
        E 42 87 35 35
        E 0 97 39 35
        E 113 87 39 35
        E 0 97 41 35
        E 85 87 41 35
        E 0 97 37 35
        E 99 87 37 35
        E 0 97 40 35
        E 113 87 40 35
        E 0 97 41 35
        E 71 87 41 35
        E 0 97 30 35
        E 14 87 30 35
        E 0 97 35 35
        E 42 87 35 35
        E 0 97 39 35
        E 113 87 39 35
        E 0 97 41 35
        E 85 87 41 35
        E 0 97 37 35
        E 99 87 37 35
        E 0 97 40 35
        E 113 87 40 35
        E 0 97 41 35
        E 71 87 41 35
        E 0 97 30 35
        E 14 87 30 35
        E 0 97 35 35
        E 42 87 35 35
        E 0 97 39 35
        E 113 87 39 35
        E 0 97 41 35
        E 85 87 41 35
        E 0 97 37 35
        E 99 87 37 35
        E 0 97 40 35
        E 113 87 40 35
        E 0 97 41 35
        E 71 87 41 35
        E 0 97 30 35
        E 14 87 30 35
        E 0 97 35 35
        E 42 87 35 35
        E 0 97 39 35
        E 113 87 39 35
        E 0 97 41 35
        E 85 87 41 35
        E 0 97 37 35
        E 99 87 37 35
        E 0 97 40 35
        E 113 87 40 35
        E 0 97 41 35
        E 71 87 41 35
        E 0 97 30 35
        E 14 87 30 35
        E 0 97 35 35
        E 42 87 35 35
        E 0 97 39 35
        E 113 87 39 35
        E 0 97 41 35
        E 85 87 41 35
        E 0 97 37 35
        E 99 87 37 35
        E 0 97 40 35
        E 113 87 40 35
        E 0 97 41 35
        E 71 87 41 35
        E 0 97 30 35
        E 14 87 30 35
        E 0 97 35 35
        E 42 87 35 35
        E 0 97 39 35
        E 113 87 39 35
        E 0 97 41 35
        E 85 87 41 35
        E 0 97 37 35
        E 99 87 37 35
        E 0 97 40 35
        E 113 87 40 35
        E 0 97 41 35
        E 71 87 41 35
        E 0 97 30 35
        E 14 87 30 35
        E 0 97 35 35
        E 42 87 35 35
        E 0 97 39 35
        E 113 87 39 35
        E 0 97 41 35
        E 85 87 41 35
        E 0 97 37 35
        E 99 87 37 35
        E 0 97 40 35
        E 113 87 40 35
        E 0 97 41 35
        E 71 87 41 35
        E 0 97 30 35
        E 14 87 30 35
        E 0 97 35 35
        E 42 87 35 35
        E 0 97 39 35
        E 113 87 39 35
        E 0 97 41 35
        E 85 87 41 35
        E 0 97 37 35
        E 99 87 37 35
        E 0 97 40 35
        E 113 87 40 35
        E 0 97 41 35
        E 71 87 41 35
        E 0 97 30 35
        E 14 87 30 35
        E 0 97 35 35
        E 42 87 35 35
        E 0 97 39 35
        E 113 87 39 35
        E 0 97 41 35
        E 85 87 41 35
        E 0 97 37 35
        E 99 87 37 35
        E 0 97 40 35
        E 113 87 40 35
        E 0 97 41 35
        E 71 87 41 35
        E 0 97 30 35
        E 14 87 30 35
        E 0 97 35 35
        E 42 87 35 35
        E 0 97 39 35
        E 113 87 39 35
        E 0 97 41 35
        E 85 87 41 35
        E 0 97 32 35
        E 56 87 32 35
        E 0 97 3b 35
        E 42 87 3b 35
        E 0 97 39 35
        E 0 97 34 35
        E 99 87 34 35
        E 0 97 40 35
        E 28 87 40 35
        E 0 97 37 35
        E 99 87 37 35
        E 0 97 40 35
        E 113 87 40 35
        E 0 97 41 35
        E 71 87 41 35
        E 0 97 32 35
        E 56 87 32 35
        E 0 97 3b 35
        E 42 87 3b 35
        E 0 97 39 35
        E 0 97 34 35
        E 99 87 34 35
        E 0 97 40 35
        E 28 87 40 35
        E 0 97 37 35
        E 99 87 37 35
        E 0 97 40 35
        E 113 87 40 35
        E 0 97 41 35
        E 71 87 41 35
        E 0 97 32 35
        E 56 87 32 35
        E 0 97 3b 35
        E 42 87 3b 35
        E 0 97 39 35
        E 0 97 34 35
        E 99 87 34 35
        E 0 97 40 35
        E 28 87 40 35
        E 0 97 37 35
        E 99 87 37 35
        E 0 97 40 35
        E 113 87 40 35
        E 0 97 41 35
        E 71 87 41 35
        E 0 97 32 35
        E 56 87 32 35
        E 0 97 3b 35
        E 42 87 3b 35
        E 0 97 39 35
        E 0 97 34 35
        E 99 87 34 35
        E 0 97 40 35
        E 28 87 40 35
        E 0 97 37 35
        E 99 87 37 35
        E 0 97 40 35
        E 113 87 40 35
        E 0 97 41 35
        E 71 87 41 35
        E 0 97 32 35
        E 56 87 32 35
        E 0 97 3b 35
        E 42 87 3b 35
        E 0 97 39 35
        E 0 97 34 35
        E 99 87 34 35
        E 0 97 40 35
        E 28 87 40 35
        E 0 97 37 35
        E 99 87 37 35
        E 0 97 40 35
        E 113 87 40 35
        E 0 97 41 35
        E 71 87 41 35
        E 0 97 32 35
        E 56 87 32 35
        E 0 97 3b 35
        E 42 87 3b 35
        E 0 97 39 35
        E 0 97 34 35
        E 99 87 34 35
        E 0 97 40 35
        E 28 87 40 35
        E 0 97 37 35
        E 99 87 37 35
        E 0 97 40 35
        E 113 87 40 35
        E 0 97 41 35
        E 71 87 41 35
        E 0 97 32 35
        E 56 87 32 35
        E 0 97 3b 35
        E 42 87 3b 35
        E 0 97 39 35
        E 0 97 34 35
        E 99 87 34 35
        E 0 97 40 35
        E 28 87 40 35
        E 0 97 37 35
        E 99 87 37 35
        E 0 97 40 35
        E 113 87 40 35
        E 0 97 41 35
        E 71 87 41 35
        E 0 97 32 35
        E 56 87 32 35
        E 0 97 3b 35
        E 42 87 3b 35
        E 0 97 39 35
        E 0 97 34 35
        E 99 87 34 35
        E 0 97 40 35
        E 28 87 40 35
        E 0 97 37 35
        E 99 87 37 35
        E 0 97 40 35
        E 113 87 40 35
        E 0 97 41 35
        E 71 87 41 35
        E 0 97 32 35
        E 56 87 32 35
        E 0 97 3b 35
        E 42 87 3b 35
        E 0 97 39 35
        E 0 97 34 35
        E 99 87 34 35
        E 0 97 40 35
        E 28 87 40 35
        E 0 97 37 35
        E 99 87 37 35
        E 0 97 40 35
        E 113 87 40 35
        E 0 97 41 35
        E 71 87 41 35
        E 0 97 32 35
        E 56 87 32 35
        E 0 97 3b 35
        E 42 87 3b 35
        E 0 97 39 35
        E 0 97 34 35
        E 99 87 34 35
        E 0 97 40 35
        E 28 87 40 35
        E 0 97 37 35
        E 99 87 37 35
        E 0 97 40 35
        E 113 87 40 35
        E 0 97 41 35
        E 71 87 41 35
        E 0 97 32 35
        E 56 87 32 35
        E 0 97 3b 35
        E 42 87 3b 35
        E 0 97 39 35
        E 0 97 34 35
        E 99 87 34 35
        E 0 97 40 35
        E 28 87 40 35
        E 0 97 37 35
        E 99 87 37 35
        E 0 97 40 35
        E 113 87 40 35
        E 0 97 41 35
        E 71 87 41 35
        E 0 97 32 35
        E 56 87 32 35
        E 0 97 3b 35
        E 42 87 3b 35
        E 0 97 39 35
        E 0 97 34 35
        E 99 87 34 35
        E 0 97 40 35
        E 28 87 40 35
        E 0 97 37 35
        E 99 87 37 35
        E 0 97 40 35
        E 113 87 40 35
        E 0 97 41 35
        E 71 87 41 35
        E 0 97 32 35
        E 56 87 32 35
        E 0 97 3b 35
        E 42 87 3b 35
        E 0 97 39 35
        E 0 97 34 35
        E 99 87 34 35
        E 0 97 40 35
        E 28 87 40 35
        E 0 97 37 35
        E 99 87 37 35
        E 0 97 40 35
        E 113 87 40 35
        E 0 97 41 35
        E 71 87 41 35
        E 0 97 32 35
        E 56 87 32 35
        E 0 97 3b 35
        E 42 87 3b 35
        E 0 97 39 35
        E 0 97 34 35
        E 99 87 34 35
        E 0 97 40 35
        E 28 87 40 35
        E 0 97 37 35
        E 99 87 37 35
        E 0 97 40 35
        E 113 87 40 35
        E 0 97 41 35
        E 71 87 41 35
        E 0 97 32 35
        E 56 87 32 35
        E 0 97 3b 35
        E 42 87 3b 35
        E 0 97 39 35
        E 0 97 34 35
        E 99 87 34 35
        E 0 97 40 35
        E 28 87 40 35
        E 0 97 37 35
        E 99 87 37 35
        E 0 97 40 35
        E 113 87 40 35
        E 0 97 41 35
        E 71 87 41 35
        E 0 97 32 35
        E 56 87 32 35
        E 0 97 3b 35
        E 42 87 3b 35
        E 0 97 39 35
        E 0 97 34 35
        E 99 87 34 35
        E 0 97 40 35
        E 28 87 40 35
        E 0 97 37 35
        E 99 87 37 35
        E 0 97 40 35
        E 113 87 40 35
        E 0 97 41 35
        E 71 87 41 35
        E 0 97 32 35
        E 56 87 32 35
        E 0 97 3b 35
        E 42 87 3b 35
        E 0 97 39 35
        E 0 97 34 35
        E 99 87 34 35
        E 0 97 40 35
        E 28 87 40 35
        E 0 97 37 35
        E 99 87 37 35
        E 0 97 40 35
        E 113 87 40 35
        E 0 97 41 35
        E 71 87 41 35
        E 0 97 32 35
        E 56 87 32 35
        E 0 97 3b 35
        E 42 87 3b 35
        E 0 97 39 35
        E 0 97 34 35
        E 99 87 34 35
        E 0 97 40 35
        E 28 87 40 35
        E 0 97 37 35
        E 99 87 37 35
        E 0 97 40 35
        E 113 87 40 35
        E 0 97 41 35
        E 71 87 41 35
        E 63 b0 7b 00
        CCINTERP 32
        CHASE_CC_TAKEOFFS 1
        GUID {F52CBAD8-6982-ED46-9B83-3B8C4EF8EEA6}
        IGNTEMPO 0 120 4 4
        SRCCOLOR 598
        VELLANE 3 601 0
        VELLANE -1 196 0
        CFGEDITVIEW 0 0.008186 62 12 0 -1 0 0 0 0.5
        KEYSNAP 0
        TRACKSEL 252
        EVTFILTER 0 -1 -1 -1 -1 0 0 0 0 -1 -1 -1 -1 0 -1 0 -1 -1
        CFGEDIT 1 1 0 1 0 0 1 1 1 1 1 0.125 0 0 1792 1095 0 0 0 0 0 0 0 0 0 0.5 0 0 1 64
      >
    >
  >
  <TRACK {44C32744-4F2E-274D-9874-063D22E3911C}
    NAME "germ-x hand sanitizer"
    PEAKCOL 16576
    BEAT -1
    AUTOMODE 0
    VOLPAN 1 0 -1 -1 1
    MUTESOLO 0 0 0
    IPHASE 0
    PLAYOFFS 0 1
    ISBUS 0 0
    BUSCOMP 0 0 0 0 0
    SHOWINMIX 1 0.6667 0.5 1 0.5 0 -1 0
    FREEMODE 0
    SEL 0
    REC 0 0 1 0 0 0 0
    VU 2
    TRACKHEIGHT 0 0 0 0 -1 0
    INQ 0 0 0 0.5 100 0 0 100
    NCHAN 2
    FX 1
    TRACKID {44C32744-4F2E-274D-9874-063D22E3911C}
    PERF 0
    MIDIOUT -1
    MAINSEND 1 0
    <FXCHAIN
      SHOW 0
      LASTSEL 0
      DOCKED 0
      BYPASS 0 0 0
      <VST "VSTi: FM8 (Native Instruments GmbH)" FM8.vst 0 "" 1315530296<5653544E696638666D38000000000000> ""
        OGZpTu5e7f4AAAAAAgAAAAEAAAAAAAAAAgAAAAAAAAAYBwAAAQAAAAAAEAA=
        GAcAAAAAAAABAAAAaHNpbgEAAAAAAAAAN455D8DDx0mHoN4j0l/0WZYAAAAAAAAARFNJTnYAAAABAAAASAAAAAAAAABEU0lOagAAAAEAAAAYAAAAAAAAAERTSU4BAAAA
        AQAAAAEAAAABAAAAAQAAAAEAAAAAAAAAAAAAAAAAAAANYmWFAQAAAAhwEAAAAAAAAQAAAAEAAAAAAAAAAAAAAAAAAAADAAAAMAAwADAAAAAAAAAAAAAAAAAAAAAAAAEA
        AAABAAAAAAAAAERTSU5lAAAARgYAAAAAAAABAAAAaHNpbgEAAAAAAAAAMOH4NwAUwEaoogAOyNUgkW0AAAAAAAAARFNJTmUAAAABAAAANAAAAAAAAABEU0lOagAAAAEA
        AAAYAAAAAAAAAERTSU4BAAAAAQAAAAEAAAABAAAAAgAAAAEAAAAACAAAAAEAAAAKAAAAMQAuADIALgAwAC4AMQAwADEAMAABAAAAAwAAAAAAAABEU0lObAAAAKgBAAAA
        AAAAAQAAAGhzaW4BAAAAAAAAACA7190CLVtKvWPIjKqbw/t4AQAAAAAAAERTSU5sAAAAAQAAABgAAAAAAAAARFNJTgEAAAABAAAAAQAAAAEAAAACAAAAAQAAAAAAAAAI
        AAAATgBlAHcAUwBvAHUAbgBkAAcAAABuAG8AdAAgAHMAZQB0AAAAAAAAAAAAAAAAAAAAAAAAAAAAAAAAAAAAAAAAAAAAAAAAAAEAAAABAAAAAQAAAAMAAABGAE0AOAAA
        AAAAAAAAAAcAAAAHAAAAXABAAGMAbwBsAG8AcgABAAAAMAARAAAAXABAAGQAZQB2AGkAYwBlAHQAeQBwAGUAZgBsAGEAZwBzAAEAAAAxAAsAAABcAEAAcwBvAHUAbgBk
        AHQAeQBwAGUAAQAAADAABwAAAFwAQAB0AGUAbQBwAG8AAQAAADAABgAAAFwAQAB2AGUAcgBsAAUAAAAxAC4ANwAuADgABgAAAFwAQAB2AGUAcgBtAAUAAAAxAC4ANwAu
        ADgABwAAAFwAQAB2AGkAcwBpAGIAAQAAADAAAQAAAAAAAAACAAAARFNJTnkAAABoAAAAAAAAAAEAAABoc2luAQAAAAAAAABG64vCmumHRIQ9Mih2ujahOAAAAAAAAABE
        U0lOeQAAAAEAAAAYAAAAAAAAAERTSU4BAAAAAQAAAAEAAAABAAAAAQAAAAAAAAABAAAAAAAAAAEAAABEU0lOdAAAAHUDAAAAAAAAAQAAAGhzaW4BAAAAAAAAAMPiDYJz
        LJxOuWtBgMMVvqRFAwAAAAAAAERTSU50AAAAAQAAACwDAAAAAAAARFNJTnMAAAABAAAAGAAAAAAAAABEU0lOAQAAAAEAAAABAAAAAQAAAAG9DwAA8wIAAAK9DwBgAAAB
        IAUDaHNpbkAHQAAQHyRrBvAZSEqYrqFXTcEPPBhAFCAAA0RTSU5AI+AHA0AAQBsAbSAIAWkPIAQgAEAj4ANTEEkCYzKs2sVGp2B2wrYRj5w5oCfAN0Av4BdnQCMB8Q4g
        XCAAAAUgAwFjDCAEIAAIdHNycEU4TUbPIAsEvCMAAAcgBwZkZWZhdWx04BgKICoAP+ACAwNBAACAIA8AoCAH4AsAAPAgF0AfwAAAICAPwABgFwVAAABIQgDgBABAD0AD
        4BcfYAAge+AEA0AAwBPgAwBAE+AAAAPNzMw+IAwDP5qZGUAXwAPgABcgCuAHG0ATQADgBwdAACATYKtAACALYANAAEALQAAg42AAwA9AB0AD4AMAwA9AB0ADwABAC8AD
        QADAC8AHQADgAwtAAEAP4AMAIA/Bn8AHAMjhDnPgHwDgAO/gDgBAX0ADwABBz8H7QAtAAwCgIINAB0AAALQgCwCWIAPgAwDAP0AHQAPAAEAz4MdLIAAAAcAAIAuAAAAC
        wACADuAdAOAALAD+4B0v4CEAABTgISrgMADBA+AKAGBTgAXgAABChuAXA+AeAOD9WSBZIkBBUgH6Q0AH4FUMQ9VAZwH6Q6BnBYA/zLyMK+BVDOABACBnBAA/ZmZmYAPg
        YwwgAABwJOwB/kJAdCAA4D4MosLgAFaAAKBjgADgOAwgYwRwwgAAhmC6JliAA0BW4EEMIGPgAE3g8AAAUCAA4Of8AP/gFwAABEERCggyAwAAQDIAAAA8QikgAwHwQmLY
        AAEgAYLiIAcgAkKVgAagCSA3oAkgSKAJKxegCQAG4AAJKwSgEyAAoAmASKAGoBPgwk/gSwAAEaBUA2tuYWJBMcAAAYAAIAAAGaARA2N0bmlMiwERJ2FcTFBAAEocAaBC
        4hMPTInAH00bwAvg/QDgvQABIACAAANzaXVnQiQA6CNxwAAAKiAIABkgAyOYYAAj0mAAB2dwdGNZVE1FQAwLDWJlhQEAAAAAAAAAAQAAAAABAAAAAAAAAA==
        ADxkaXNhYmxlZD4AEAAAAA==
      >
      PRESETNAME <disabled>
      FLOATPOS 0 0 0 0
      FXID {536CCB6E-1AF9-7945-84F9-955005F2A496}
      WAK 0 0
    >
    <ITEM
      POSITION 138.3782400000137
      SNAPOFFS 0
      LENGTH 221.08085999998627
      LOOP 1
      ALLTAKES 0
      FADEIN 1 0 0 1 0 0
      FADEOUT 1 0 0 1 0 0
      MUTE 0 0
      SEL 0
      IGUID {53CA24DD-4CDA-6741-AEE6-95375151E6DB}
      IID 32
      NAME "germ-x hand sanitizer.mid"
      VOLPAN 1 0 1 -1
      SOFFS 0 0
      PLAYRATE 1 1 0 -1 0 0.0025
      CHANMODE 0
      GUID {41A743B6-2660-3540-80F1-7F6DFF93501C}
      <SOURCE MIDI
        HASDATA 1 128 QN
        CCINTERP 32
        POOLEDEVTS {92F26F10-3B15-894B-A7FA-C7CF4B07D562}
        E 0 98 35 35
        E 54 88 35 35
        E 0 98 39 35
        E 146 88 39 35
        E 0 98 41 35
        E 109 88 41 35
        E 0 98 32 35
        E 73 88 32 35
        E 0 98 3b 35
        E 54 88 3b 35
        E 0 98 35 35
        E 54 88 35 35
        E 0 98 39 35
        E 146 88 39 35
        E 0 98 41 35
        E 109 88 41 35
        E 0 98 32 35
        E 73 88 32 35
        E 0 98 3b 35
        E 54 88 3b 35
        E 0 98 35 35
        E 54 88 35 35
        E 0 98 39 35
        E 146 88 39 35
        E 0 98 41 35
        E 109 88 41 35
        E 0 98 32 35
        E 73 88 32 35
        E 0 98 3b 35
        E 54 88 3b 35
        E 0 98 35 35
        E 54 88 35 35
        E 0 98 39 35
        E 146 88 39 35
        E 0 98 41 35
        E 109 88 41 35
        E 0 98 32 35
        E 73 88 32 35
        E 0 98 3b 35
        E 54 88 3b 35
        E 0 98 35 35
        E 54 88 35 35
        E 0 98 39 35
        E 146 88 39 35
        E 0 98 41 35
        E 109 88 41 35
        E 0 98 32 35
        E 73 88 32 35
        E 0 98 3b 35
        E 54 88 3b 35
        E 0 98 35 35
        E 54 88 35 35
        E 0 98 39 35
        E 146 88 39 35
        E 0 98 41 35
        E 109 88 41 35
        E 0 98 32 35
        E 73 88 32 35
        E 0 98 3b 35
        E 54 88 3b 35
        E 0 98 35 35
        E 54 88 35 35
        E 0 98 39 35
        E 146 88 39 35
        E 0 98 41 35
        E 109 88 41 35
        E 0 98 32 35
        E 73 88 32 35
        E 0 98 3b 35
        E 54 88 3b 35
        E 0 98 35 35
        E 54 88 35 35
        E 0 98 39 35
        E 146 88 39 35
        E 0 98 41 35
        E 109 88 41 35
        E 0 98 32 35
        E 73 88 32 35
        E 0 98 3b 35
        E 54 88 3b 35
        E 0 98 35 35
        E 54 88 35 35
        E 0 98 39 35
        E 146 88 39 35
        E 0 98 41 35
        E 109 88 41 35
        E 0 98 32 35
        E 73 88 32 35
        E 0 98 3b 35
        E 54 88 3b 35
        E 0 98 35 35
        E 54 88 35 35
        E 0 98 39 35
        E 146 88 39 35
        E 0 98 41 35
        E 109 88 41 35
        E 0 98 32 35
        E 73 88 32 35
        E 0 98 3b 35
        E 54 88 3b 35
        E 0 98 35 35
        E 54 88 35 35
        E 0 98 39 35
        E 146 88 39 35
        E 0 98 41 35
        E 109 88 41 35
        E 0 98 32 35
        E 73 88 32 35
        E 0 98 3b 35
        E 54 88 3b 35
        E 0 98 35 35
        E 54 88 35 35
        E 0 98 39 35
        E 146 88 39 35
        E 0 98 41 35
        E 109 88 41 35
        E 0 98 32 35
        E 73 88 32 35
        E 0 98 3b 35
        E 54 88 3b 35
        E 0 98 35 35
        E 54 88 35 35
        E 0 98 39 35
        E 146 88 39 35
        E 0 98 41 35
        E 109 88 41 35
        E 0 98 32 35
        E 73 88 32 35
        E 0 98 3b 35
        E 54 88 3b 35
        E 0 98 35 35
        E 54 88 35 35
        E 0 98 39 35
        E 146 88 39 35
        E 0 98 41 35
        E 109 88 41 35
        E 0 98 32 35
        E 73 88 32 35
        E 0 98 3b 35
        E 54 88 3b 35
        E 0 98 35 35
        E 54 88 35 35
        E 0 98 39 35
        E 146 88 39 35
        E 0 98 41 35
        E 109 88 41 35
        E 0 98 32 35
        E 73 88 32 35
        E 0 98 3b 35
        E 54 88 3b 35
        E 0 98 35 35
        E 54 88 35 35
        E 0 98 39 35
        E 146 88 39 35
        E 0 98 41 35
        E 109 88 41 35
        E 0 98 32 35
        E 73 88 32 35
        E 0 98 3b 35
        E 54 88 3b 35
        E 0 98 35 35
        E 54 88 35 35
        E 0 98 39 35
        E 146 88 39 35
        E 0 98 41 35
        E 109 88 41 35
        E 0 98 32 35
        E 73 88 32 35
        E 0 98 3b 35
        E 54 88 3b 35
        E 0 98 35 35
        E 54 88 35 35
        E 0 98 39 35
        E 146 88 39 35
        E 0 98 41 35
        E 109 88 41 35
        E 0 98 32 35
        E 73 88 32 35
        E 0 98 3b 35
        E 54 88 3b 35
        E 0 98 35 35
        E 54 88 35 35
        E 0 98 39 35
        E 146 88 39 35
        E 0 98 41 35
        E 109 88 41 35
        E 0 98 32 35
        E 73 88 32 35
        E 0 98 3b 35
        E 54 88 3b 35
        E 0 98 35 35
        E 54 88 35 35
        E 0 98 39 35
        E 146 88 39 35
        E 0 98 41 35
        E 109 88 41 35
        E 0 98 32 35
        E 73 88 32 35
        E 0 98 3b 35
        E 54 88 3b 35
        E 0 98 35 35
        E 54 88 35 35
        E 0 98 39 35
        E 146 88 39 35
        E 0 98 41 35
        E 109 88 41 35
        E 0 98 32 35
        E 73 88 32 35
        E 0 98 3b 35
        E 54 88 3b 35
        E 0 98 37 35
        E 128 88 37 35
        E 0 98 40 35
        E 146 88 40 35
        E 0 98 41 35
        E 91 88 41 35
        E 0 98 30 35
        E 18 88 30 35
        E 0 98 35 35
        E 54 88 35 35
        E 0 98 39 35
        E 146 88 39 35
        E 0 98 41 35
        E 109 88 41 35
        E 0 98 37 35
        E 128 88 37 35
        E 0 98 40 35
        E 146 88 40 35
        E 0 98 41 35
        E 91 88 41 35
        E 0 98 30 35
        E 18 88 30 35
        E 0 98 35 35
        E 54 88 35 35
        E 0 98 39 35
        E 146 88 39 35
        E 0 98 41 35
        E 109 88 41 35
        E 0 98 37 35
        E 128 88 37 35
        E 0 98 40 35
        E 146 88 40 35
        E 0 98 41 35
        E 91 88 41 35
        E 0 98 30 35
        E 18 88 30 35
        E 0 98 35 35
        E 54 88 35 35
        E 0 98 39 35
        E 146 88 39 35
        E 0 98 41 35
        E 109 88 41 35
        E 0 98 37 35
        E 128 88 37 35
        E 0 98 40 35
        E 146 88 40 35
        E 0 98 41 35
        E 91 88 41 35
        E 0 98 30 35
        E 18 88 30 35
        E 0 98 35 35
        E 54 88 35 35
        E 0 98 39 35
        E 146 88 39 35
        E 0 98 41 35
        E 109 88 41 35
        E 0 98 37 35
        E 128 88 37 35
        E 0 98 40 35
        E 146 88 40 35
        E 0 98 41 35
        E 91 88 41 35
        E 0 98 30 35
        E 18 88 30 35
        E 0 98 35 35
        E 54 88 35 35
        E 0 98 39 35
        E 146 88 39 35
        E 0 98 41 35
        E 109 88 41 35
        E 0 98 37 35
        E 128 88 37 35
        E 0 98 40 35
        E 146 88 40 35
        E 0 98 41 35
        E 91 88 41 35
        E 0 98 30 35
        E 18 88 30 35
        E 0 98 35 35
        E 54 88 35 35
        E 0 98 39 35
        E 146 88 39 35
        E 0 98 41 35
        E 109 88 41 35
        E 0 98 37 35
        E 128 88 37 35
        E 0 98 40 35
        E 146 88 40 35
        E 0 98 41 35
        E 91 88 41 35
        E 0 98 30 35
        E 18 88 30 35
        E 0 98 35 35
        E 54 88 35 35
        E 0 98 39 35
        E 146 88 39 35
        E 0 98 41 35
        E 109 88 41 35
        E 0 98 37 35
        E 128 88 37 35
        E 0 98 40 35
        E 146 88 40 35
        E 0 98 41 35
        E 91 88 41 35
        E 0 98 30 35
        E 18 88 30 35
        E 0 98 35 35
        E 54 88 35 35
        E 0 98 39 35
        E 146 88 39 35
        E 0 98 41 35
        E 109 88 41 35
        E 0 98 37 35
        E 128 88 37 35
        E 0 98 40 35
        E 146 88 40 35
        E 0 98 41 35
        E 91 88 41 35
        E 0 98 30 35
        E 18 88 30 35
        E 0 98 35 35
        E 54 88 35 35
        E 0 98 39 35
        E 146 88 39 35
        E 0 98 41 35
        E 109 88 41 35
        E 0 98 37 35
        E 128 88 37 35
        E 0 98 40 35
        E 146 88 40 35
        E 0 98 41 35
        E 91 88 41 35
        E 0 98 30 35
        E 18 88 30 35
        E 0 98 35 35
        E 54 88 35 35
        E 0 98 39 35
        E 146 88 39 35
        E 0 98 41 35
        E 109 88 41 35
        E 0 98 37 35
        E 128 88 37 35
        E 0 98 40 35
        E 146 88 40 35
        E 0 98 41 35
        E 91 88 41 35
        E 0 98 30 35
        E 18 88 30 35
        E 0 98 35 35
        E 54 88 35 35
        E 0 98 39 35
        E 146 88 39 35
        E 0 98 41 35
        E 109 88 41 35
        E 0 98 37 35
        E 128 88 37 35
        E 0 98 40 35
        E 146 88 40 35
        E 0 98 41 35
        E 91 88 41 35
        E 0 98 30 35
        E 18 88 30 35
        E 0 98 35 35
        E 54 88 35 35
        E 0 98 39 35
        E 146 88 39 35
        E 0 98 41 35
        E 109 88 41 35
        E 0 98 37 35
        E 128 88 37 35
        E 0 98 40 35
        E 146 88 40 35
        E 0 98 41 35
        E 91 88 41 35
        E 0 98 30 35
        E 18 88 30 35
        E 0 98 35 35
        E 54 88 35 35
        E 0 98 39 35
        E 146 88 39 35
        E 0 98 41 35
        E 109 88 41 35
        E 0 98 37 35
        E 128 88 37 35
        E 0 98 40 35
        E 146 88 40 35
        E 0 98 41 35
        E 91 88 41 35
        E 0 98 30 35
        E 18 88 30 35
        E 0 98 35 35
        E 54 88 35 35
        E 0 98 39 35
        E 146 88 39 35
        E 0 98 41 35
        E 109 88 41 35
        E 0 98 37 35
        E 128 88 37 35
        E 0 98 40 35
        E 146 88 40 35
        E 0 98 41 35
        E 91 88 41 35
        E 0 98 30 35
        E 18 88 30 35
        E 0 98 35 35
        E 54 88 35 35
        E 0 98 39 35
        E 146 88 39 35
        E 0 98 41 35
        E 109 88 41 35
        E 0 98 37 35
        E 128 88 37 35
        E 0 98 40 35
        E 146 88 40 35
        E 0 98 41 35
        E 91 88 41 35
        E 0 98 30 35
        E 18 88 30 35
        E 0 98 35 35
        E 54 88 35 35
        E 0 98 39 35
        E 146 88 39 35
        E 0 98 41 35
        E 109 88 41 35
        E 0 98 37 35
        E 128 88 37 35
        E 0 98 40 35
        E 146 88 40 35
        E 0 98 41 35
        E 91 88 41 35
        E 0 98 30 35
        E 18 88 30 35
        E 0 98 35 35
        E 54 88 35 35
        E 0 98 39 35
        E 146 88 39 35
        E 0 98 41 35
        E 109 88 41 35
        E 0 98 37 35
        E 128 88 37 35
        E 0 98 40 35
        E 146 88 40 35
        E 0 98 41 35
        E 91 88 41 35
        E 0 98 30 35
        E 18 88 30 35
        E 0 98 35 35
        E 54 88 35 35
        E 0 98 39 35
        E 146 88 39 35
        E 0 98 41 35
        E 109 88 41 35
        E 0 98 37 35
        E 128 88 37 35
        E 0 98 40 35
        E 146 88 40 35
        E 0 98 41 35
        E 91 88 41 35
        E 0 98 30 35
        E 18 88 30 35
        E 0 98 35 35
        E 54 88 35 35
        E 0 98 39 35
        E 146 88 39 35
        E 0 98 41 35
        E 109 88 41 35
        E 0 98 37 35
        E 128 88 37 35
        E 0 98 40 35
        E 146 88 40 35
        E 0 98 41 35
        E 91 88 41 35
        E 0 98 30 35
        E 18 88 30 35
        E 0 98 35 35
        E 54 88 35 35
        E 0 98 39 35
        E 146 88 39 35
        E 0 98 41 35
        E 109 88 41 35
        E 0 98 37 35
        E 128 88 37 35
        E 0 98 40 35
        E 146 88 40 35
        E 0 98 41 35
        E 91 88 41 35
        E 0 98 30 35
        E 18 88 30 35
        E 0 98 35 35
        E 54 88 35 35
        E 0 98 39 35
        E 146 88 39 35
        E 0 98 41 35
        E 109 88 41 35
        E 0 98 37 35
        E 128 88 37 35
        E 0 98 40 35
        E 146 88 40 35
        E 0 98 41 35
        E 91 88 41 35
        E 0 98 30 35
        E 18 88 30 35
        E 0 98 35 35
        E 54 88 35 35
        E 0 98 39 35
        E 146 88 39 35
        E 0 98 41 35
        E 109 88 41 35
        E 0 98 37 35
        E 128 88 37 35
        E 0 98 40 35
        E 146 88 40 35
        E 0 98 41 35
        E 91 88 41 35
        E 0 98 30 35
        E 18 88 30 35
        E 0 98 35 35
        E 54 88 35 35
        E 0 98 39 35
        E 146 88 39 35
        E 0 98 41 35
        E 109 88 41 35
        E 0 98 37 35
        E 128 88 37 35
        E 0 98 40 35
        E 146 88 40 35
        E 0 98 41 35
        E 91 88 41 35
        E 0 98 30 35
        E 18 88 30 35
        E 0 98 35 35
        E 54 88 35 35
        E 0 98 39 35
        E 146 88 39 35
        E 0 98 41 35
        E 109 88 41 35
        E 0 98 37 35
        E 128 88 37 35
        E 0 98 40 35
        E 146 88 40 35
        E 0 98 41 35
        E 91 88 41 35
        E 0 98 30 35
        E 18 88 30 35
        E 0 98 35 35
        E 54 88 35 35
        E 0 98 39 35
        E 146 88 39 35
        E 0 98 41 35
        E 109 88 41 35
        E 0 98 37 35
        E 128 88 37 35
        E 0 98 40 35
        E 146 88 40 35
        E 0 98 41 35
        E 91 88 41 35
        E 0 98 30 35
        E 18 88 30 35
        E 0 98 35 35
        E 54 88 35 35
        E 0 98 39 35
        E 146 88 39 35
        E 0 98 41 35
        E 109 88 41 35
        E 0 98 37 35
        E 128 88 37 35
        E 0 98 40 35
        E 146 88 40 35
        E 0 98 41 35
        E 91 88 41 35
        E 0 98 30 35
        E 18 88 30 35
        E 0 98 35 35
        E 54 88 35 35
        E 0 98 39 35
        E 146 88 39 35
        E 0 98 41 35
        E 109 88 41 35
        E 0 98 37 35
        E 128 88 37 35
        E 0 98 40 35
        E 146 88 40 35
        E 0 98 41 35
        E 91 88 41 35
        E 0 98 30 35
        E 18 88 30 35
        E 0 98 35 35
        E 54 88 35 35
        E 0 98 39 35
        E 146 88 39 35
        E 0 98 41 35
        E 109 88 41 35
        E 0 98 37 35
        E 128 88 37 35
        E 0 98 40 35
        E 146 88 40 35
        E 0 98 41 35
        E 91 88 41 35
        E 0 98 30 35
        E 18 88 30 35
        E 0 98 35 35
        E 54 88 35 35
        E 0 98 39 35
        E 146 88 39 35
        E 0 98 41 35
        E 109 88 41 35
        E 0 98 37 35
        E 128 88 37 35
        E 0 98 40 35
        E 146 88 40 35
        E 0 98 41 35
        E 91 88 41 35
        E 0 98 30 35
        E 18 88 30 35
        E 0 98 35 35
        E 54 88 35 35
        E 0 98 39 35
        E 146 88 39 35
        E 0 98 41 35
        E 109 88 41 35
        E 0 98 37 35
        E 128 88 37 35
        E 0 98 40 35
        E 146 88 40 35
        E 0 98 41 35
        E 91 88 41 35
        E 0 98 30 35
        E 18 88 30 35
        E 0 98 35 35
        E 54 88 35 35
        E 0 98 39 35
        E 146 88 39 35
        E 0 98 41 35
        E 109 88 41 35
        E 0 98 37 35
        E 128 88 37 35
        E 0 98 40 35
        E 146 88 40 35
        E 0 98 41 35
        E 91 88 41 35
        E 0 98 30 35
        E 18 88 30 35
        E 0 98 35 35
        E 54 88 35 35
        E 0 98 39 35
        E 146 88 39 35
        E 0 98 41 35
        E 109 88 41 35
        E 0 98 37 35
        E 128 88 37 35
        E 0 98 40 35
        E 146 88 40 35
        E 0 98 41 35
        E 91 88 41 35
        E 0 98 30 35
        E 18 88 30 35
        E 0 98 35 35
        E 54 88 35 35
        E 0 98 39 35
        E 146 88 39 35
        E 0 98 41 35
        E 109 88 41 35
        E 0 98 37 35
        E 128 88 37 35
        E 0 98 40 35
        E 146 88 40 35
        E 0 98 41 35
        E 91 88 41 35
        E 0 98 30 35
        E 18 88 30 35
        E 0 98 35 35
        E 54 88 35 35
        E 0 98 39 35
        E 146 88 39 35
        E 0 98 41 35
        E 109 88 41 35
        E 0 98 37 35
        E 128 88 37 35
        E 0 98 40 35
        E 146 88 40 35
        E 0 98 41 35
        E 91 88 41 35
        E 0 98 30 35
        E 18 88 30 35
        E 0 98 35 35
        E 54 88 35 35
        E 0 98 39 35
        E 146 88 39 35
        E 0 98 41 35
        E 109 88 41 35
        E 0 98 37 35
        E 128 88 37 35
        E 0 98 40 35
        E 146 88 40 35
        E 0 98 41 35
        E 91 88 41 35
        E 0 98 30 35
        E 18 88 30 35
        E 0 98 35 35
        E 54 88 35 35
        E 0 98 39 35
        E 146 88 39 35
        E 0 98 41 35
        E 109 88 41 35
        E 0 98 37 35
        E 128 88 37 35
        E 0 98 40 35
        E 146 88 40 35
        E 0 98 41 35
        E 91 88 41 35
        E 0 98 30 35
        E 18 88 30 35
        E 0 98 35 35
        E 54 88 35 35
        E 0 98 39 35
        E 146 88 39 35
        E 0 98 41 35
        E 109 88 41 35
        E 0 98 37 35
        E 128 88 37 35
        E 0 98 40 35
        E 146 88 40 35
        E 0 98 41 35
        E 91 88 41 35
        E 0 98 30 35
        E 18 88 30 35
        E 0 98 35 35
        E 54 88 35 35
        E 0 98 39 35
        E 146 88 39 35
        E 0 98 41 35
        E 109 88 41 35
        E 0 98 37 35
        E 128 88 37 35
        E 0 98 40 35
        E 146 88 40 35
        E 0 98 41 35
        E 91 88 41 35
        E 0 98 30 35
        E 18 88 30 35
        E 0 98 35 35
        E 54 88 35 35
        E 0 98 39 35
        E 146 88 39 35
        E 0 98 41 35
        E 109 88 41 35
        E 0 98 37 35
        E 128 88 37 35
        E 0 98 40 35
        E 146 88 40 35
        E 0 98 41 35
        E 91 88 41 35
        E 0 98 30 35
        E 18 88 30 35
        E 0 98 35 35
        E 54 88 35 35
        E 0 98 39 35
        E 146 88 39 35
        E 0 98 41 35
        E 109 88 41 35
        E 0 98 37 35
        E 128 88 37 35
        E 0 98 40 35
        E 146 88 40 35
        E 0 98 41 35
        E 91 88 41 35
        E 0 98 30 35
        E 18 88 30 35
        E 0 98 35 35
        E 54 88 35 35
        E 0 98 39 35
        E 146 88 39 35
        E 0 98 41 35
        E 109 88 41 35
        E 0 98 37 35
        E 128 88 37 35
        E 0 98 40 35
        E 146 88 40 35
        E 0 98 41 35
        E 91 88 41 35
        E 0 98 30 35
        E 18 88 30 35
        E 0 98 35 35
        E 54 88 35 35
        E 0 98 39 35
        E 146 88 39 35
        E 0 98 41 35
        E 109 88 41 35
        E 0 98 37 35
        E 128 88 37 35
        E 0 98 40 35
        E 146 88 40 35
        E 0 98 41 35
        E 91 88 41 35
        E 0 98 30 35
        E 18 88 30 35
        E 0 98 35 35
        E 54 88 35 35
        E 0 98 39 35
        E 146 88 39 35
        E 0 98 41 35
        E 109 88 41 35
        E 0 98 37 35
        E 128 88 37 35
        E 0 98 40 35
        E 146 88 40 35
        E 0 98 41 35
        E 91 88 41 35
        E 0 98 30 35
        E 18 88 30 35
        E 0 98 35 35
        E 54 88 35 35
        E 0 98 39 35
        E 146 88 39 35
        E 0 98 41 35
        E 109 88 41 35
        E 0 98 37 35
        E 128 88 37 35
        E 0 98 40 35
        E 146 88 40 35
        E 0 98 41 35
        E 91 88 41 35
        E 0 98 30 35
        E 18 88 30 35
        E 0 98 35 35
        E 54 88 35 35
        E 0 98 39 35
        E 146 88 39 35
        E 0 98 41 35
        E 109 88 41 35
        E 0 98 37 35
        E 128 88 37 35
        E 0 98 40 35
        E 146 88 40 35
        E 0 98 41 35
        E 91 88 41 35
        E 0 98 30 35
        E 18 88 30 35
        E 0 98 35 35
        E 54 88 35 35
        E 0 98 39 35
        E 146 88 39 35
        E 0 98 41 35
        E 109 88 41 35
        E 0 98 37 35
        E 128 88 37 35
        E 0 98 40 35
        E 146 88 40 35
        E 0 98 41 35
        E 91 88 41 35
        E 0 98 30 35
        E 18 88 30 35
        E 0 98 35 35
        E 54 88 35 35
        E 0 98 39 35
        E 146 88 39 35
        E 0 98 41 35
        E 109 88 41 35
        E 0 98 37 35
        E 128 88 37 35
        E 0 98 40 35
        E 146 88 40 35
        E 0 98 41 35
        E 91 88 41 35
        E 0 98 30 35
        E 18 88 30 35
        E 0 98 35 35
        E 54 88 35 35
        E 0 98 39 35
        E 146 88 39 35
        E 0 98 41 35
        E 109 88 41 35
        E 0 98 37 35
        E 128 88 37 35
        E 0 98 40 35
        E 146 88 40 35
        E 0 98 41 35
        E 91 88 41 35
        E 0 98 30 35
        E 18 88 30 35
        E 0 98 35 35
        E 54 88 35 35
        E 0 98 39 35
        E 146 88 39 35
        E 0 98 41 35
        E 109 88 41 35
        E 0 98 32 35
        E 73 88 32 35
        E 0 98 3b 35
        E 54 88 3b 35
        E 0 98 39 35
        E 0 98 34 35
        E 128 88 34 35
        E 0 98 40 35
        E 36 88 40 35
        E 0 98 37 35
        E 128 88 37 35
        E 0 98 40 35
        E 146 88 40 35
        E 0 98 41 35
        E 91 88 41 35
        E 0 98 32 35
        E 73 88 32 35
        E 0 98 3b 35
        E 54 88 3b 35
        E 0 98 39 35
        E 0 98 34 35
        E 128 88 34 35
        E 0 98 40 35
        E 36 88 40 35
        E 0 98 37 35
        E 128 88 37 35
        E 0 98 40 35
        E 146 88 40 35
        E 0 98 41 35
        E 91 88 41 35
        E 0 98 32 35
        E 73 88 32 35
        E 0 98 3b 35
        E 54 88 3b 35
        E 0 98 39 35
        E 0 98 34 35
        E 128 88 34 35
        E 0 98 40 35
        E 36 88 40 35
        E 0 98 37 35
        E 128 88 37 35
        E 0 98 40 35
        E 146 88 40 35
        E 0 98 41 35
        E 91 88 41 35
        E 0 98 32 35
        E 73 88 32 35
        E 0 98 3b 35
        E 54 88 3b 35
        E 0 98 39 35
        E 0 98 34 35
        E 128 88 34 35
        E 0 98 40 35
        E 36 88 40 35
        E 0 98 37 35
        E 128 88 37 35
        E 0 98 40 35
        E 146 88 40 35
        E 0 98 41 35
        E 91 88 41 35
        E 0 98 32 35
        E 73 88 32 35
        E 0 98 3b 35
        E 54 88 3b 35
        E 0 98 39 35
        E 0 98 34 35
        E 128 88 34 35
        E 0 98 40 35
        E 36 88 40 35
        E 0 98 37 35
        E 128 88 37 35
        E 0 98 40 35
        E 146 88 40 35
        E 0 98 41 35
        E 91 88 41 35
        E 0 98 32 35
        E 73 88 32 35
        E 0 98 3b 35
        E 54 88 3b 35
        E 0 98 39 35
        E 0 98 34 35
        E 128 88 34 35
        E 0 98 40 35
        E 36 88 40 35
        E 0 98 37 35
        E 128 88 37 35
        E 0 98 40 35
        E 146 88 40 35
        E 0 98 41 35
        E 91 88 41 35
        E 0 98 32 35
        E 73 88 32 35
        E 0 98 3b 35
        E 54 88 3b 35
        E 0 98 39 35
        E 0 98 34 35
        E 128 88 34 35
        E 0 98 40 35
        E 36 88 40 35
        E 0 98 37 35
        E 128 88 37 35
        E 0 98 40 35
        E 146 88 40 35
        E 0 98 41 35
        E 91 88 41 35
        E 0 98 32 35
        E 73 88 32 35
        E 0 98 3b 35
        E 54 88 3b 35
        E 0 98 39 35
        E 0 98 34 35
        E 128 88 34 35
        E 0 98 40 35
        E 36 88 40 35
        E 0 98 37 35
        E 128 88 37 35
        E 0 98 40 35
        E 146 88 40 35
        E 0 98 41 35
        E 91 88 41 35
        E 0 98 32 35
        E 73 88 32 35
        E 0 98 3b 35
        E 54 88 3b 35
        E 0 98 39 35
        E 0 98 34 35
        E 128 88 34 35
        E 0 98 40 35
        E 36 88 40 35
        E 0 98 37 35
        E 128 88 37 35
        E 0 98 40 35
        E 146 88 40 35
        E 0 98 41 35
        E 91 88 41 35
        E 0 98 32 35
        E 73 88 32 35
        E 0 98 3b 35
        E 54 88 3b 35
        E 0 98 39 35
        E 0 98 34 35
        E 128 88 34 35
        E 0 98 40 35
        E 36 88 40 35
        E 0 98 37 35
        E 128 88 37 35
        E 0 98 40 35
        E 146 88 40 35
        E 0 98 41 35
        E 91 88 41 35
        E 0 98 32 35
        E 73 88 32 35
        E 0 98 3b 35
        E 54 88 3b 35
        E 0 98 39 35
        E 0 98 34 35
        E 128 88 34 35
        E 0 98 40 35
        E 36 88 40 35
        E 0 98 37 35
        E 128 88 37 35
        E 0 98 40 35
        E 146 88 40 35
        E 0 98 41 35
        E 91 88 41 35
        E 0 98 32 35
        E 73 88 32 35
        E 0 98 3b 35
        E 54 88 3b 35
        E 0 98 39 35
        E 0 98 34 35
        E 128 88 34 35
        E 0 98 40 35
        E 36 88 40 35
        E 0 98 37 35
        E 128 88 37 35
        E 0 98 40 35
        E 146 88 40 35
        E 0 98 41 35
        E 91 88 41 35
        E 0 98 32 35
        E 73 88 32 35
        E 0 98 3b 35
        E 54 88 3b 35
        E 0 98 39 35
        E 0 98 34 35
        E 128 88 34 35
        E 0 98 40 35
        E 36 88 40 35
        E 0 98 37 35
        E 128 88 37 35
        E 0 98 40 35
        E 146 88 40 35
        E 0 98 41 35
        E 91 88 41 35
        E 0 98 32 35
        E 73 88 32 35
        E 0 98 3b 35
        E 54 88 3b 35
        E 0 98 39 35
        E 0 98 34 35
        E 128 88 34 35
        E 0 98 40 35
        E 36 88 40 35
        E 0 98 37 35
        E 128 88 37 35
        E 0 98 40 35
        E 146 88 40 35
        E 0 98 41 35
        E 91 88 41 35
        E 104 b0 7b 00
        CCINTERP 32
        CHASE_CC_TAKEOFFS 1
        GUID {0A8E6F78-A671-C84E-848E-7FE9BC5E1049}
        IGNTEMPO 0 120 4 4
        SRCCOLOR 599
        VELLANE 3 601 0
        VELLANE -1 196 0
        CFGEDITVIEW 0 0.008186 62 12 0 -1 0 0 0 0.5
        KEYSNAP 0
        TRACKSEL 252
        EVTFILTER 0 -1 -1 -1 -1 0 0 0 0 -1 -1 -1 -1 0 -1 0 -1 -1
        CFGEDIT 1 1 0 1 0 0 1 1 1 1 1 0.125 0 0 1792 1095 0 0 0 0 0 0 0 0 0 0.5 0 0 1 64
      >
    >
  >
  <TRACK {17E27054-3C6E-614F-88FF-AF2FF25E998B}
    NAME "germ-x hand sanitizer"
    PEAKCOL 16576
    BEAT -1
    AUTOMODE 0
    VOLPAN 1 0 -1 -1 1
    MUTESOLO 0 0 0
    IPHASE 0
    PLAYOFFS 0 1
    ISBUS 0 0
    BUSCOMP 0 0 0 0 0
    SHOWINMIX 1 0.6667 0.5 1 0.5 0 -1 0
    FREEMODE 0
    SEL 0
    REC 0 0 1 0 0 0 0
    VU 2
    TRACKHEIGHT 0 0 0 0 -1 0
    INQ 0 0 0 0.5 100 0 0 100
    NCHAN 2
    FX 1
    TRACKID {17E27054-3C6E-614F-88FF-AF2FF25E998B}
    PERF 0
    MIDIOUT -1
    MAINSEND 1 0
    <FXCHAIN
      SHOW 0
      LASTSEL 0
      DOCKED 0
      BYPASS 0 0 0
      <VST "VSTi: FM8 (Native Instruments GmbH)" FM8.vst 0 "" 1315530296<5653544E696638666D38000000000000> ""
        OGZpTu5e7f4AAAAAAgAAAAEAAAAAAAAAAgAAAAAAAAAYBwAAAQAAAAAAEAA=
        GAcAAAAAAAABAAAAaHNpbgEAAAAAAAAAN455D8DDx0mHoN4j0l/0WZYAAAAAAAAARFNJTnYAAAABAAAASAAAAAAAAABEU0lOagAAAAEAAAAYAAAAAAAAAERTSU4BAAAA
        AQAAAAEAAAABAAAAAQAAAAEAAAAAAAAAAAAAAAAAAAANYmWFAQAAAAhwEAAAAAAAAQAAAAEAAAAAAAAAAAAAAAAAAAADAAAAMAAwADAAAAAAAAAAAAAAAAAAAAAAAAEA
        AAABAAAAAAAAAERTSU5lAAAARgYAAAAAAAABAAAAaHNpbgEAAAAAAAAAMOH4NwAUwEaoogAOyNUgkW0AAAAAAAAARFNJTmUAAAABAAAANAAAAAAAAABEU0lOagAAAAEA
        AAAYAAAAAAAAAERTSU4BAAAAAQAAAAEAAAABAAAAAgAAAAEAAAAACAAAAAEAAAAKAAAAMQAuADIALgAwAC4AMQAwADEAMAABAAAAAwAAAAAAAABEU0lObAAAAKgBAAAA
        AAAAAQAAAGhzaW4BAAAAAAAAACA7190CLVtKvWPIjKqbw/t4AQAAAAAAAERTSU5sAAAAAQAAABgAAAAAAAAARFNJTgEAAAABAAAAAQAAAAEAAAACAAAAAQAAAAAAAAAI
        AAAATgBlAHcAUwBvAHUAbgBkAAcAAABuAG8AdAAgAHMAZQB0AAAAAAAAAAAAAAAAAAAAAAAAAAAAAAAAAAAAAAAAAAAAAAAAAAEAAAABAAAAAQAAAAMAAABGAE0AOAAA
        AAAAAAAAAAcAAAAHAAAAXABAAGMAbwBsAG8AcgABAAAAMAARAAAAXABAAGQAZQB2AGkAYwBlAHQAeQBwAGUAZgBsAGEAZwBzAAEAAAAxAAsAAABcAEAAcwBvAHUAbgBk
        AHQAeQBwAGUAAQAAADAABwAAAFwAQAB0AGUAbQBwAG8AAQAAADAABgAAAFwAQAB2AGUAcgBsAAUAAAAxAC4ANwAuADgABgAAAFwAQAB2AGUAcgBtAAUAAAAxAC4ANwAu
        ADgABwAAAFwAQAB2AGkAcwBpAGIAAQAAADAAAQAAAAAAAAACAAAARFNJTnkAAABoAAAAAAAAAAEAAABoc2luAQAAAAAAAABG64vCmumHRIQ9Mih2ujahOAAAAAAAAABE
        U0lOeQAAAAEAAAAYAAAAAAAAAERTSU4BAAAAAQAAAAEAAAABAAAAAQAAAAAAAAABAAAAAAAAAAEAAABEU0lOdAAAAHUDAAAAAAAAAQAAAGhzaW4BAAAAAAAAAMPiDYJz
        LJxOuWtBgMMVvqRFAwAAAAAAAERTSU50AAAAAQAAACwDAAAAAAAARFNJTnMAAAABAAAAGAAAAAAAAABEU0lOAQAAAAEAAAABAAAAAQAAAAG9DwAA8wIAAAK9DwBgAAAB
        IAUDaHNpbkAHQAAQHyRrBvAZSEqYrqFXTcEPPBhAFCAAA0RTSU5AI+AHA0AAQBsAbSAIAWkPIAQgAEAj4ANTEEkCYzKs2sVGp2B2wrYRj5w5oCfAN0Av4BdnQCMB8Q4g
        XCAAAAUgAwFjDCAEIAAIdHNycEU4TUbPIAsEvCMAAAcgBwZkZWZhdWx04BgKICoAP+ACAwNBAACAIA8AoCAH4AsAAPAgF0AfwAAAICAPwABgFwVAAABIQgDgBABAD0AD
        4BcfYAAge+AEA0AAwBPgAwBAE+AAAAPNzMw+IAwDP5qZGUAXwAPgABcgCuAHG0ATQADgBwdAACATYKtAACALYANAAEALQAAg42AAwA9AB0AD4AMAwA9AB0ADwABAC8AD
        QADAC8AHQADgAwtAAEAP4AMAIA/Bn8AHAMjhDnPgHwDgAO/gDgBAX0ADwABBz8H7QAtAAwCgIINAB0AAALQgCwCWIAPgAwDAP0AHQAPAAEAz4MdLIAAAAcAAIAuAAAAC
        wACADuAdAOAALAD+4B0v4CEAABTgISrgMADBA+AKAGBTgAXgAABChuAXA+AeAOD9WSBZIkBBUgH6Q0AH4FUMQ9VAZwH6Q6BnBYA/zLyMK+BVDOABACBnBAA/ZmZmYAPg
        YwwgAABwJOwB/kJAdCAA4D4MosLgAFaAAKBjgADgOAwgYwRwwgAAhmC6JliAA0BW4EEMIGPgAE3g8AAAUCAA4Of8AP/gFwAABEERCggyAwAAQDIAAAA8QikgAwHwQmLY
        AAEgAYLiIAcgAkKVgAagCSA3oAkgSKAJKxegCQAG4AAJKwSgEyAAoAmASKAGoBPgwk/gSwAAEaBUA2tuYWJBMcAAAYAAIAAAGaARA2N0bmlMiwERJ2FcTFBAAEocAaBC
        4hMPTInAH00bwAvg/QDgvQABIACAAANzaXVnQiQA6CNxwAAAKiAIABkgAyOYYAAj0mAAB2dwdGNZVE1FQAwLDWJlhQEAAAAAAAAAAQAAAAABAAAAAAAAAA==
        ADxkaXNhYmxlZD4AEAAAAA==
      >
      PRESETNAME <disabled>
      FLOATPOS 0 0 0 0
      FXID {AF401C88-E0B9-8743-A3F2-8DC8B4F2BC70}
      WAK 0 0
    >
    <ITEM
      POSITION 103.78368000001028
      SNAPOFFS 0
      LENGTH 182.16197999998968
      LOOP 1
      ALLTAKES 0
      FADEIN 1 0 0 1 0 0
      FADEOUT 1 0 0 1 0 0
      MUTE 0 0
      SEL 0
      IGUID {C36C6153-380C-F64C-9954-65665EB28D00}
      IID 33
      NAME "germ-x hand sanitizer.mid"
      VOLPAN 1 0 1 -1
      SOFFS 0 0
      PLAYRATE 1 1 0 -1 0 0.0025
      CHANMODE 0
      GUID {DD4E3BDE-2581-6445-A76B-95C825839FA7}
      <SOURCE MIDI
        HASDATA 1 128 QN
        CCINTERP 32
        POOLEDEVTS {FA92E09D-2EB5-824B-AEDE-7224B28611B1}
        E 0 99 37 35
        E 179 89 37 35
        E 0 99 40 35
        E 204 89 40 35
        E 0 99 41 35
        E 128 89 41 35
        E 0 99 30 35
        E 25 89 30 35
        E 0 99 35 35
        E 76 89 35 35
        E 0 99 39 35
        E 204 89 39 35
        E 0 99 41 35
        E 153 89 41 35
        E 0 99 37 35
        E 179 89 37 35
        E 0 99 40 35
        E 204 89 40 35
        E 0 99 41 35
        E 128 89 41 35
        E 0 99 30 35
        E 25 89 30 35
        E 0 99 35 35
        E 76 89 35 35
        E 0 99 39 35
        E 204 89 39 35
        E 0 99 41 35
        E 153 89 41 35
        E 0 99 37 35
        E 179 89 37 35
        E 0 99 40 35
        E 204 89 40 35
        E 0 99 41 35
        E 128 89 41 35
        E 0 99 30 35
        E 25 89 30 35
        E 0 99 35 35
        E 76 89 35 35
        E 0 99 39 35
        E 204 89 39 35
        E 0 99 41 35
        E 153 89 41 35
        E 0 99 37 35
        E 179 89 37 35
        E 0 99 40 35
        E 204 89 40 35
        E 0 99 41 35
        E 128 89 41 35
        E 0 99 30 35
        E 25 89 30 35
        E 0 99 35 35
        E 76 89 35 35
        E 0 99 39 35
        E 204 89 39 35
        E 0 99 41 35
        E 153 89 41 35
        E 0 99 37 35
        E 179 89 37 35
        E 0 99 40 35
        E 204 89 40 35
        E 0 99 41 35
        E 128 89 41 35
        E 0 99 30 35
        E 25 89 30 35
        E 0 99 35 35
        E 76 89 35 35
        E 0 99 39 35
        E 204 89 39 35
        E 0 99 41 35
        E 153 89 41 35
        E 0 99 37 35
        E 179 89 37 35
        E 0 99 40 35
        E 204 89 40 35
        E 0 99 41 35
        E 128 89 41 35
        E 0 99 30 35
        E 25 89 30 35
        E 0 99 35 35
        E 76 89 35 35
        E 0 99 39 35
        E 204 89 39 35
        E 0 99 41 35
        E 153 89 41 35
        E 0 99 37 35
        E 179 89 37 35
        E 0 99 40 35
        E 204 89 40 35
        E 0 99 41 35
        E 128 89 41 35
        E 0 99 30 35
        E 25 89 30 35
        E 0 99 35 35
        E 76 89 35 35
        E 0 99 39 35
        E 204 89 39 35
        E 0 99 41 35
        E 153 89 41 35
        E 0 99 37 35
        E 179 89 37 35
        E 0 99 40 35
        E 204 89 40 35
        E 0 99 41 35
        E 128 89 41 35
        E 0 99 30 35
        E 25 89 30 35
        E 0 99 35 35
        E 76 89 35 35
        E 0 99 39 35
        E 204 89 39 35
        E 0 99 41 35
        E 153 89 41 35
        E 0 99 37 35
        E 179 89 37 35
        E 0 99 40 35
        E 204 89 40 35
        E 0 99 41 35
        E 128 89 41 35
        E 0 99 30 35
        E 25 89 30 35
        E 0 99 35 35
        E 76 89 35 35
        E 0 99 39 35
        E 204 89 39 35
        E 0 99 41 35
        E 153 89 41 35
        E 0 99 37 35
        E 179 89 37 35
        E 0 99 40 35
        E 204 89 40 35
        E 0 99 41 35
        E 128 89 41 35
        E 0 99 30 35
        E 25 89 30 35
        E 0 99 35 35
        E 76 89 35 35
        E 0 99 39 35
        E 204 89 39 35
        E 0 99 41 35
        E 153 89 41 35
        E 0 99 37 35
        E 179 89 37 35
        E 0 99 40 35
        E 204 89 40 35
        E 0 99 41 35
        E 128 89 41 35
        E 0 99 30 35
        E 25 89 30 35
        E 0 99 35 35
        E 76 89 35 35
        E 0 99 39 35
        E 204 89 39 35
        E 0 99 41 35
        E 153 89 41 35
        E 0 99 37 35
        E 179 89 37 35
        E 0 99 40 35
        E 204 89 40 35
        E 0 99 41 35
        E 128 89 41 35
        E 0 99 30 35
        E 25 89 30 35
        E 0 99 35 35
        E 76 89 35 35
        E 0 99 39 35
        E 204 89 39 35
        E 0 99 41 35
        E 153 89 41 35
        E 0 99 37 35
        E 179 89 37 35
        E 0 99 40 35
        E 204 89 40 35
        E 0 99 41 35
        E 128 89 41 35
        E 0 99 30 35
        E 25 89 30 35
        E 0 99 35 35
        E 76 89 35 35
        E 0 99 39 35
        E 204 89 39 35
        E 0 99 41 35
        E 153 89 41 35
        E 0 99 37 35
        E 179 89 37 35
        E 0 99 40 35
        E 204 89 40 35
        E 0 99 41 35
        E 128 89 41 35
        E 0 99 30 35
        E 25 89 30 35
        E 0 99 35 35
        E 76 89 35 35
        E 0 99 39 35
        E 204 89 39 35
        E 0 99 41 35
        E 153 89 41 35
        E 0 99 37 35
        E 179 89 37 35
        E 0 99 40 35
        E 204 89 40 35
        E 0 99 41 35
        E 128 89 41 35
        E 0 99 30 35
        E 25 89 30 35
        E 0 99 35 35
        E 76 89 35 35
        E 0 99 39 35
        E 204 89 39 35
        E 0 99 41 35
        E 153 89 41 35
        E 0 99 37 35
        E 179 89 37 35
        E 0 99 40 35
        E 204 89 40 35
        E 0 99 41 35
        E 128 89 41 35
        E 0 99 30 35
        E 25 89 30 35
        E 0 99 35 35
        E 76 89 35 35
        E 0 99 39 35
        E 204 89 39 35
        E 0 99 41 35
        E 153 89 41 35
        E 0 99 37 35
        E 179 89 37 35
        E 0 99 40 35
        E 204 89 40 35
        E 0 99 41 35
        E 128 89 41 35
        E 0 99 30 35
        E 25 89 30 35
        E 0 99 35 35
        E 76 89 35 35
        E 0 99 39 35
        E 204 89 39 35
        E 0 99 41 35
        E 153 89 41 35
        E 0 99 37 35
        E 179 89 37 35
        E 0 99 40 35
        E 204 89 40 35
        E 0 99 41 35
        E 128 89 41 35
        E 0 99 30 35
        E 25 89 30 35
        E 0 99 35 35
        E 76 89 35 35
        E 0 99 39 35
        E 204 89 39 35
        E 0 99 41 35
        E 153 89 41 35
        E 0 99 37 35
        E 179 89 37 35
        E 0 99 40 35
        E 204 89 40 35
        E 0 99 41 35
        E 128 89 41 35
        E 0 99 30 35
        E 25 89 30 35
        E 0 99 35 35
        E 76 89 35 35
        E 0 99 39 35
        E 204 89 39 35
        E 0 99 41 35
        E 153 89 41 35
        E 0 99 37 35
        E 179 89 37 35
        E 0 99 40 35
        E 204 89 40 35
        E 0 99 41 35
        E 128 89 41 35
        E 0 99 30 35
        E 25 89 30 35
        E 0 99 35 35
        E 76 89 35 35
        E 0 99 39 35
        E 204 89 39 35
        E 0 99 41 35
        E 153 89 41 35
        E 0 99 37 35
        E 179 89 37 35
        E 0 99 40 35
        E 204 89 40 35
        E 0 99 41 35
        E 128 89 41 35
        E 0 99 30 35
        E 25 89 30 35
        E 0 99 35 35
        E 76 89 35 35
        E 0 99 39 35
        E 204 89 39 35
        E 0 99 41 35
        E 153 89 41 35
        E 0 99 37 35
        E 179 89 37 35
        E 0 99 40 35
        E 204 89 40 35
        E 0 99 41 35
        E 128 89 41 35
        E 0 99 30 35
        E 25 89 30 35
        E 0 99 35 35
        E 76 89 35 35
        E 0 99 39 35
        E 204 89 39 35
        E 0 99 41 35
        E 153 89 41 35
        E 0 99 37 35
        E 179 89 37 35
        E 0 99 40 35
        E 204 89 40 35
        E 0 99 41 35
        E 128 89 41 35
        E 0 99 30 35
        E 25 89 30 35
        E 0 99 35 35
        E 76 89 35 35
        E 0 99 39 35
        E 204 89 39 35
        E 0 99 41 35
        E 153 89 41 35
        E 0 99 37 35
        E 179 89 37 35
        E 0 99 40 35
        E 204 89 40 35
        E 0 99 41 35
        E 128 89 41 35
        E 0 99 30 35
        E 25 89 30 35
        E 0 99 35 35
        E 76 89 35 35
        E 0 99 39 35
        E 204 89 39 35
        E 0 99 41 35
        E 153 89 41 35
        E 0 99 37 35
        E 179 89 37 35
        E 0 99 40 35
        E 204 89 40 35
        E 0 99 41 35
        E 128 89 41 35
        E 0 99 30 35
        E 25 89 30 35
        E 0 99 35 35
        E 76 89 35 35
        E 0 99 39 35
        E 204 89 39 35
        E 0 99 41 35
        E 153 89 41 35
        E 0 99 37 35
        E 179 89 37 35
        E 0 99 40 35
        E 204 89 40 35
        E 0 99 41 35
        E 128 89 41 35
        E 0 99 30 35
        E 25 89 30 35
        E 0 99 35 35
        E 76 89 35 35
        E 0 99 39 35
        E 204 89 39 35
        E 0 99 41 35
        E 153 89 41 35
        E 0 99 37 35
        E 179 89 37 35
        E 0 99 40 35
        E 204 89 40 35
        E 0 99 41 35
        E 128 89 41 35
        E 0 99 30 35
        E 25 89 30 35
        E 0 99 35 35
        E 76 89 35 35
        E 0 99 39 35
        E 204 89 39 35
        E 0 99 41 35
        E 153 89 41 35
        E 0 99 37 35
        E 179 89 37 35
        E 0 99 40 35
        E 204 89 40 35
        E 0 99 41 35
        E 128 89 41 35
        E 0 99 30 35
        E 25 89 30 35
        E 0 99 35 35
        E 76 89 35 35
        E 0 99 39 35
        E 204 89 39 35
        E 0 99 41 35
        E 153 89 41 35
        E 0 99 37 35
        E 179 89 37 35
        E 0 99 40 35
        E 204 89 40 35
        E 0 99 41 35
        E 128 89 41 35
        E 0 99 30 35
        E 25 89 30 35
        E 0 99 35 35
        E 76 89 35 35
        E 0 99 39 35
        E 204 89 39 35
        E 0 99 41 35
        E 153 89 41 35
        E 0 99 37 35
        E 179 89 37 35
        E 0 99 40 35
        E 204 89 40 35
        E 0 99 41 35
        E 128 89 41 35
        E 0 99 30 35
        E 25 89 30 35
        E 0 99 35 35
        E 76 89 35 35
        E 0 99 39 35
        E 204 89 39 35
        E 0 99 41 35
        E 153 89 41 35
        E 0 99 37 35
        E 179 89 37 35
        E 0 99 40 35
        E 204 89 40 35
        E 0 99 41 35
        E 128 89 41 35
        E 0 99 30 35
        E 25 89 30 35
        E 0 99 35 35
        E 76 89 35 35
        E 0 99 39 35
        E 204 89 39 35
        E 0 99 41 35
        E 153 89 41 35
        E 0 99 37 35
        E 179 89 37 35
        E 0 99 40 35
        E 204 89 40 35
        E 0 99 41 35
        E 128 89 41 35
        E 0 99 30 35
        E 25 89 30 35
        E 0 99 35 35
        E 76 89 35 35
        E 0 99 39 35
        E 204 89 39 35
        E 0 99 41 35
        E 153 89 41 35
        E 0 99 37 35
        E 179 89 37 35
        E 0 99 40 35
        E 204 89 40 35
        E 0 99 41 35
        E 128 89 41 35
        E 0 99 30 35
        E 25 89 30 35
        E 0 99 35 35
        E 76 89 35 35
        E 0 99 39 35
        E 204 89 39 35
        E 0 99 41 35
        E 153 89 41 35
        E 0 99 37 35
        E 179 89 37 35
        E 0 99 40 35
        E 204 89 40 35
        E 0 99 41 35
        E 128 89 41 35
        E 0 99 30 35
        E 25 89 30 35
        E 0 99 35 35
        E 76 89 35 35
        E 0 99 39 35
        E 204 89 39 35
        E 0 99 41 35
        E 153 89 41 35
        E 0 99 37 35
        E 179 89 37 35
        E 0 99 40 35
        E 204 89 40 35
        E 0 99 41 35
        E 128 89 41 35
        E 0 99 30 35
        E 25 89 30 35
        E 0 99 35 35
        E 76 89 35 35
        E 0 99 39 35
        E 204 89 39 35
        E 0 99 41 35
        E 153 89 41 35
        E 0 99 32 35
        E 102 89 32 35
        E 0 99 3b 35
        E 76 89 3b 35
        E 0 99 39 35
        E 0 99 34 35
        E 179 89 34 35
        E 0 99 40 35
        E 51 89 40 35
        E 0 99 37 35
        E 179 89 37 35
        E 0 99 40 35
        E 204 89 40 35
        E 0 99 41 35
        E 128 89 41 35
        E 0 99 32 35
        E 102 89 32 35
        E 0 99 3b 35
        E 76 89 3b 35
        E 0 99 39 35
        E 0 99 34 35
        E 179 89 34 35
        E 0 99 40 35
        E 51 89 40 35
        E 0 99 37 35
        E 179 89 37 35
        E 0 99 40 35
        E 204 89 40 35
        E 0 99 41 35
        E 128 89 41 35
        E 0 99 32 35
        E 102 89 32 35
        E 0 99 3b 35
        E 76 89 3b 35
        E 0 99 39 35
        E 0 99 34 35
        E 179 89 34 35
        E 0 99 40 35
        E 51 89 40 35
        E 0 99 37 35
        E 179 89 37 35
        E 0 99 40 35
        E 204 89 40 35
        E 0 99 41 35
        E 128 89 41 35
        E 0 99 32 35
        E 102 89 32 35
        E 0 99 3b 35
        E 76 89 3b 35
        E 0 99 39 35
        E 0 99 34 35
        E 179 89 34 35
        E 0 99 40 35
        E 51 89 40 35
        E 0 99 37 35
        E 179 89 37 35
        E 0 99 40 35
        E 204 89 40 35
        E 0 99 41 35
        E 128 89 41 35
        E 0 99 32 35
        E 102 89 32 35
        E 0 99 3b 35
        E 76 89 3b 35
        E 0 99 39 35
        E 0 99 34 35
        E 179 89 34 35
        E 0 99 40 35
        E 51 89 40 35
        E 0 99 37 35
        E 179 89 37 35
        E 0 99 40 35
        E 204 89 40 35
        E 0 99 41 35
        E 128 89 41 35
        E 0 99 32 35
        E 102 89 32 35
        E 0 99 3b 35
        E 76 89 3b 35
        E 0 99 39 35
        E 0 99 34 35
        E 179 89 34 35
        E 0 99 40 35
        E 51 89 40 35
        E 0 99 37 35
        E 179 89 37 35
        E 0 99 40 35
        E 204 89 40 35
        E 0 99 41 35
        E 128 89 41 35
        E 0 99 32 35
        E 102 89 32 35
        E 0 99 3b 35
        E 76 89 3b 35
        E 0 99 39 35
        E 0 99 34 35
        E 179 89 34 35
        E 0 99 40 35
        E 51 89 40 35
        E 0 99 37 35
        E 179 89 37 35
        E 0 99 40 35
        E 204 89 40 35
        E 0 99 41 35
        E 128 89 41 35
        E 0 99 32 35
        E 102 89 32 35
        E 0 99 3b 35
        E 76 89 3b 35
        E 0 99 39 35
        E 0 99 34 35
        E 179 89 34 35
        E 0 99 40 35
        E 51 89 40 35
        E 0 99 37 35
        E 179 89 37 35
        E 0 99 40 35
        E 204 89 40 35
        E 0 99 41 35
        E 128 89 41 35
        E 0 99 32 35
        E 102 89 32 35
        E 0 99 3b 35
        E 76 89 3b 35
        E 0 99 39 35
        E 0 99 34 35
        E 179 89 34 35
        E 0 99 40 35
        E 51 89 40 35
        E 0 99 37 35
        E 179 89 37 35
        E 0 99 40 35
        E 204 89 40 35
        E 0 99 41 35
        E 128 89 41 35
        E 0 99 32 35
        E 102 89 32 35
        E 0 99 3b 35
        E 76 89 3b 35
        E 0 99 39 35
        E 0 99 34 35
        E 179 89 34 35
        E 0 99 40 35
        E 51 89 40 35
        E 0 99 37 35
        E 179 89 37 35
        E 0 99 40 35
        E 204 89 40 35
        E 0 99 41 35
        E 128 89 41 35
        E 31 b0 7b 00
        CCINTERP 32
        CHASE_CC_TAKEOFFS 1
        GUID {5C1CDD4E-1E7E-C744-A1D6-6A9F99D3F8D0}
        IGNTEMPO 0 120 4 4
        SRCCOLOR 600
        VELLANE 3 601 0
        VELLANE -1 196 0
        CFGEDITVIEW 0 0.008186 62 12 0 -1 0 0 0 0.5
        KEYSNAP 0
        TRACKSEL 252
        EVTFILTER 0 -1 -1 -1 -1 0 0 0 0 -1 -1 -1 -1 0 -1 0 -1 -1
        CFGEDIT 1 1 0 1 0 0 1 1 1 1 1 0.125 0 0 1792 1095 0 0 0 0 0 0 0 0 0 0.5 0 0 1 64
      >
    >
  >
  <TRACK {C2C1A938-5294-D244-9972-47BE48B6238A}
    NAME "germ-x hand sanitizer"
    PEAKCOL 16576
    BEAT -1
    AUTOMODE 0
    VOLPAN 1 0 -1 -1 1
    MUTESOLO 0 0 0
    IPHASE 0
    PLAYOFFS 0 1
    ISBUS 0 0
    BUSCOMP 0 0 0 0 0
    SHOWINMIX 1 0.6667 0.5 1 0.5 0 -1 0
    FREEMODE 0
    SEL 0
    REC 0 0 1 0 0 0 0
    VU 2
    TRACKHEIGHT 0 0 0 0 -1 0
    INQ 0 0 0 0.5 100 0 0 100
    NCHAN 2
    FX 1
    TRACKID {C2C1A938-5294-D244-9972-47BE48B6238A}
    PERF 0
    MIDIOUT -1
    MAINSEND 1 0
    <FXCHAIN
      SHOW 0
      LASTSEL 0
      DOCKED 0
      BYPASS 0 0 0
      <VST "VSTi: FM8 (Native Instruments GmbH)" FM8.vst 0 "" 1315530296<5653544E696638666D38000000000000> ""
        OGZpTu5e7f4AAAAAAgAAAAEAAAAAAAAAAgAAAAAAAAAYBwAAAQAAAAAAEAA=
        GAcAAAAAAAABAAAAaHNpbgEAAAAAAAAAN455D8DDx0mHoN4j0l/0WZYAAAAAAAAARFNJTnYAAAABAAAASAAAAAAAAABEU0lOagAAAAEAAAAYAAAAAAAAAERTSU4BAAAA
        AQAAAAEAAAABAAAAAQAAAAEAAAAAAAAAAAAAAAAAAAANYmWFAQAAAAhwEAAAAAAAAQAAAAEAAAAAAAAAAAAAAAAAAAADAAAAMAAwADAAAAAAAAAAAAAAAAAAAAAAAAEA
        AAABAAAAAAAAAERTSU5lAAAARgYAAAAAAAABAAAAaHNpbgEAAAAAAAAAMOH4NwAUwEaoogAOyNUgkW0AAAAAAAAARFNJTmUAAAABAAAANAAAAAAAAABEU0lOagAAAAEA
        AAAYAAAAAAAAAERTSU4BAAAAAQAAAAEAAAABAAAAAgAAAAEAAAAACAAAAAEAAAAKAAAAMQAuADIALgAwAC4AMQAwADEAMAABAAAAAwAAAAAAAABEU0lObAAAAKgBAAAA
        AAAAAQAAAGhzaW4BAAAAAAAAACA7190CLVtKvWPIjKqbw/t4AQAAAAAAAERTSU5sAAAAAQAAABgAAAAAAAAARFNJTgEAAAABAAAAAQAAAAEAAAACAAAAAQAAAAAAAAAI
        AAAATgBlAHcAUwBvAHUAbgBkAAcAAABuAG8AdAAgAHMAZQB0AAAAAAAAAAAAAAAAAAAAAAAAAAAAAAAAAAAAAAAAAAAAAAAAAAEAAAABAAAAAQAAAAMAAABGAE0AOAAA
        AAAAAAAAAAcAAAAHAAAAXABAAGMAbwBsAG8AcgABAAAAMAARAAAAXABAAGQAZQB2AGkAYwBlAHQAeQBwAGUAZgBsAGEAZwBzAAEAAAAxAAsAAABcAEAAcwBvAHUAbgBk
        AHQAeQBwAGUAAQAAADAABwAAAFwAQAB0AGUAbQBwAG8AAQAAADAABgAAAFwAQAB2AGUAcgBsAAUAAAAxAC4ANwAuADgABgAAAFwAQAB2AGUAcgBtAAUAAAAxAC4ANwAu
        ADgABwAAAFwAQAB2AGkAcwBpAGIAAQAAADAAAQAAAAAAAAACAAAARFNJTnkAAABoAAAAAAAAAAEAAABoc2luAQAAAAAAAABG64vCmumHRIQ9Mih2ujahOAAAAAAAAABE
        U0lOeQAAAAEAAAAYAAAAAAAAAERTSU4BAAAAAQAAAAEAAAABAAAAAQAAAAAAAAABAAAAAAAAAAEAAABEU0lOdAAAAHUDAAAAAAAAAQAAAGhzaW4BAAAAAAAAAMPiDYJz
        LJxOuWtBgMMVvqRFAwAAAAAAAERTSU50AAAAAQAAACwDAAAAAAAARFNJTnMAAAABAAAAGAAAAAAAAABEU0lOAQAAAAEAAAABAAAAAQAAAAG9DwAA8wIAAAK9DwBgAAAB
        IAUDaHNpbkAHQAAQHyRrBvAZSEqYrqFXTcEPPBhAFCAAA0RTSU5AI+AHA0AAQBsAbSAIAWkPIAQgAEAj4ANTEEkCYzKs2sVGp2B2wrYRj5w5oCfAN0Av4BdnQCMB8Q4g
        XCAAAAUgAwFjDCAEIAAIdHNycEU4TUbPIAsEvCMAAAcgBwZkZWZhdWx04BgKICoAP+ACAwNBAACAIA8AoCAH4AsAAPAgF0AfwAAAICAPwABgFwVAAABIQgDgBABAD0AD
        4BcfYAAge+AEA0AAwBPgAwBAE+AAAAPNzMw+IAwDP5qZGUAXwAPgABcgCuAHG0ATQADgBwdAACATYKtAACALYANAAEALQAAg42AAwA9AB0AD4AMAwA9AB0ADwABAC8AD
        QADAC8AHQADgAwtAAEAP4AMAIA/Bn8AHAMjhDnPgHwDgAO/gDgBAX0ADwABBz8H7QAtAAwCgIINAB0AAALQgCwCWIAPgAwDAP0AHQAPAAEAz4MdLIAAAAcAAIAuAAAAC
        wACADuAdAOAALAD+4B0v4CEAABTgISrgMADBA+AKAGBTgAXgAABChuAXA+AeAOD9WSBZIkBBUgH6Q0AH4FUMQ9VAZwH6Q6BnBYA/zLyMK+BVDOABACBnBAA/ZmZmYAPg
        YwwgAABwJOwB/kJAdCAA4D4MosLgAFaAAKBjgADgOAwgYwRwwgAAhmC6JliAA0BW4EEMIGPgAE3g8AAAUCAA4Of8AP/gFwAABEERCggyAwAAQDIAAAA8QikgAwHwQmLY
        AAEgAYLiIAcgAkKVgAagCSA3oAkgSKAJKxegCQAG4AAJKwSgEyAAoAmASKAGoBPgwk/gSwAAEaBUA2tuYWJBMcAAAYAAIAAAGaARA2N0bmlMiwERJ2FcTFBAAEocAaBC
        4hMPTInAH00bwAvg/QDgvQABIACAAANzaXVnQiQA6CNxwAAAKiAIABkgAyOYYAAj0mAAB2dwdGNZVE1FQAwLDWJlhQEAAAAAAAAAAQAAAAABAAAAAAAAAA==
        ADxkaXNhYmxlZD4AEAAAAA==
      >
      PRESETNAME <disabled>
      FLOATPOS 0 0 0 0
      FXID {B5C6972F-F0AC-8142-B19B-331DD3E71F8E}
      WAK 0 0
    >
    <ITEM
      POSITION 69.18912000000685
      SNAPOFFS 0
      LENGTH 182.70251999999314
      LOOP 1
      ALLTAKES 0
      FADEIN 1 0 0 1 0 0
      FADEOUT 1 0 0 1 0 0
      MUTE 0 0
      SEL 0
      IGUID {14AED448-0D06-1947-B4B8-67FD5600FC80}
      IID 34
      NAME "germ-x hand sanitizer.mid"
      VOLPAN 1 0 1 -1
      SOFFS 0 0
      PLAYRATE 1 1 0 -1 0 0.0025
      CHANMODE 0
      GUID {9B5340A5-7BFA-B649-ABE7-AC8A1715DF6C}
      <SOURCE MIDI
        HASDATA 1 128 QN
        CCINTERP 32
        POOLEDEVTS {434470DA-F022-814B-88F6-4CAEC3961C6E}
        E 0 9a 37 35
        E 224 8a 37 35
        E 0 9a 40 35
        E 256 8a 40 35
        E 0 9a 41 35
        E 160 8a 41 35
        E 0 9a 30 35
        E 32 8a 30 35
        E 0 9a 35 35
        E 96 8a 35 35
        E 0 9a 39 35
        E 256 8a 39 35
        E 0 9a 41 35
        E 192 8a 41 35
        E 0 9a 37 35
        E 224 8a 37 35
        E 0 9a 40 35
        E 256 8a 40 35
        E 0 9a 41 35
        E 160 8a 41 35
        E 0 9a 30 35
        E 32 8a 30 35
        E 0 9a 35 35
        E 96 8a 35 35
        E 0 9a 39 35
        E 256 8a 39 35
        E 0 9a 41 35
        E 192 8a 41 35
        E 0 9a 37 35
        E 224 8a 37 35
        E 0 9a 40 35
        E 256 8a 40 35
        E 0 9a 41 35
        E 160 8a 41 35
        E 0 9a 30 35
        E 32 8a 30 35
        E 0 9a 35 35
        E 96 8a 35 35
        E 0 9a 39 35
        E 256 8a 39 35
        E 0 9a 41 35
        E 192 8a 41 35
        E 0 9a 37 35
        E 224 8a 37 35
        E 0 9a 40 35
        E 256 8a 40 35
        E 0 9a 41 35
        E 160 8a 41 35
        E 0 9a 30 35
        E 32 8a 30 35
        E 0 9a 35 35
        E 96 8a 35 35
        E 0 9a 39 35
        E 256 8a 39 35
        E 0 9a 41 35
        E 192 8a 41 35
        E 0 9a 37 35
        E 224 8a 37 35
        E 0 9a 40 35
        E 256 8a 40 35
        E 0 9a 41 35
        E 160 8a 41 35
        E 0 9a 30 35
        E 32 8a 30 35
        E 0 9a 35 35
        E 96 8a 35 35
        E 0 9a 39 35
        E 256 8a 39 35
        E 0 9a 41 35
        E 192 8a 41 35
        E 0 9a 37 35
        E 224 8a 37 35
        E 0 9a 40 35
        E 256 8a 40 35
        E 0 9a 41 35
        E 160 8a 41 35
        E 0 9a 30 35
        E 32 8a 30 35
        E 0 9a 35 35
        E 96 8a 35 35
        E 0 9a 39 35
        E 256 8a 39 35
        E 0 9a 41 35
        E 192 8a 41 35
        E 0 9a 37 35
        E 224 8a 37 35
        E 0 9a 40 35
        E 256 8a 40 35
        E 0 9a 41 35
        E 160 8a 41 35
        E 0 9a 30 35
        E 32 8a 30 35
        E 0 9a 35 35
        E 96 8a 35 35
        E 0 9a 39 35
        E 256 8a 39 35
        E 0 9a 41 35
        E 192 8a 41 35
        E 0 9a 37 35
        E 224 8a 37 35
        E 0 9a 40 35
        E 256 8a 40 35
        E 0 9a 41 35
        E 160 8a 41 35
        E 0 9a 30 35
        E 32 8a 30 35
        E 0 9a 35 35
        E 96 8a 35 35
        E 0 9a 39 35
        E 256 8a 39 35
        E 0 9a 41 35
        E 192 8a 41 35
        E 0 9a 37 35
        E 224 8a 37 35
        E 0 9a 40 35
        E 256 8a 40 35
        E 0 9a 41 35
        E 160 8a 41 35
        E 0 9a 30 35
        E 32 8a 30 35
        E 0 9a 35 35
        E 96 8a 35 35
        E 0 9a 39 35
        E 256 8a 39 35
        E 0 9a 41 35
        E 192 8a 41 35
        E 0 9a 37 35
        E 224 8a 37 35
        E 0 9a 40 35
        E 256 8a 40 35
        E 0 9a 41 35
        E 160 8a 41 35
        E 0 9a 30 35
        E 32 8a 30 35
        E 0 9a 35 35
        E 96 8a 35 35
        E 0 9a 39 35
        E 256 8a 39 35
        E 0 9a 41 35
        E 192 8a 41 35
        E 0 9a 37 35
        E 224 8a 37 35
        E 0 9a 40 35
        E 256 8a 40 35
        E 0 9a 41 35
        E 160 8a 41 35
        E 0 9a 30 35
        E 32 8a 30 35
        E 0 9a 35 35
        E 96 8a 35 35
        E 0 9a 39 35
        E 256 8a 39 35
        E 0 9a 41 35
        E 192 8a 41 35
        E 0 9a 37 35
        E 224 8a 37 35
        E 0 9a 40 35
        E 256 8a 40 35
        E 0 9a 41 35
        E 160 8a 41 35
        E 0 9a 30 35
        E 32 8a 30 35
        E 0 9a 35 35
        E 96 8a 35 35
        E 0 9a 39 35
        E 256 8a 39 35
        E 0 9a 41 35
        E 192 8a 41 35
        E 0 9a 37 35
        E 224 8a 37 35
        E 0 9a 40 35
        E 256 8a 40 35
        E 0 9a 41 35
        E 160 8a 41 35
        E 0 9a 30 35
        E 32 8a 30 35
        E 0 9a 35 35
        E 96 8a 35 35
        E 0 9a 39 35
        E 256 8a 39 35
        E 0 9a 41 35
        E 192 8a 41 35
        E 0 9a 37 35
        E 224 8a 37 35
        E 0 9a 40 35
        E 256 8a 40 35
        E 0 9a 41 35
        E 160 8a 41 35
        E 0 9a 30 35
        E 32 8a 30 35
        E 0 9a 35 35
        E 96 8a 35 35
        E 0 9a 39 35
        E 256 8a 39 35
        E 0 9a 41 35
        E 192 8a 41 35
        E 0 9a 37 35
        E 224 8a 37 35
        E 0 9a 40 35
        E 256 8a 40 35
        E 0 9a 41 35
        E 160 8a 41 35
        E 0 9a 30 35
        E 32 8a 30 35
        E 0 9a 35 35
        E 96 8a 35 35
        E 0 9a 39 35
        E 256 8a 39 35
        E 0 9a 41 35
        E 192 8a 41 35
        E 0 9a 37 35
        E 224 8a 37 35
        E 0 9a 40 35
        E 256 8a 40 35
        E 0 9a 41 35
        E 160 8a 41 35
        E 0 9a 30 35
        E 32 8a 30 35
        E 0 9a 35 35
        E 96 8a 35 35
        E 0 9a 39 35
        E 256 8a 39 35
        E 0 9a 41 35
        E 192 8a 41 35
        E 0 9a 37 35
        E 224 8a 37 35
        E 0 9a 40 35
        E 256 8a 40 35
        E 0 9a 41 35
        E 160 8a 41 35
        E 0 9a 30 35
        E 32 8a 30 35
        E 0 9a 35 35
        E 96 8a 35 35
        E 0 9a 39 35
        E 256 8a 39 35
        E 0 9a 41 35
        E 192 8a 41 35
        E 0 9a 37 35
        E 224 8a 37 35
        E 0 9a 40 35
        E 256 8a 40 35
        E 0 9a 41 35
        E 160 8a 41 35
        E 0 9a 30 35
        E 32 8a 30 35
        E 0 9a 35 35
        E 96 8a 35 35
        E 0 9a 39 35
        E 256 8a 39 35
        E 0 9a 41 35
        E 192 8a 41 35
        E 0 9a 37 35
        E 224 8a 37 35
        E 0 9a 40 35
        E 256 8a 40 35
        E 0 9a 41 35
        E 160 8a 41 35
        E 0 9a 30 35
        E 32 8a 30 35
        E 0 9a 35 35
        E 96 8a 35 35
        E 0 9a 39 35
        E 256 8a 39 35
        E 0 9a 41 35
        E 192 8a 41 35
        E 0 9a 37 35
        E 224 8a 37 35
        E 0 9a 40 35
        E 256 8a 40 35
        E 0 9a 41 35
        E 160 8a 41 35
        E 0 9a 30 35
        E 32 8a 30 35
        E 0 9a 35 35
        E 96 8a 35 35
        E 0 9a 39 35
        E 256 8a 39 35
        E 0 9a 41 35
        E 192 8a 41 35
        E 0 9a 37 35
        E 224 8a 37 35
        E 0 9a 40 35
        E 256 8a 40 35
        E 0 9a 41 35
        E 160 8a 41 35
        E 0 9a 30 35
        E 32 8a 30 35
        E 0 9a 35 35
        E 96 8a 35 35
        E 0 9a 39 35
        E 256 8a 39 35
        E 0 9a 41 35
        E 192 8a 41 35
        E 0 9a 37 35
        E 224 8a 37 35
        E 0 9a 40 35
        E 256 8a 40 35
        E 0 9a 41 35
        E 160 8a 41 35
        E 0 9a 30 35
        E 32 8a 30 35
        E 0 9a 35 35
        E 96 8a 35 35
        E 0 9a 39 35
        E 256 8a 39 35
        E 0 9a 41 35
        E 192 8a 41 35
        E 0 9a 37 35
        E 224 8a 37 35
        E 0 9a 40 35
        E 256 8a 40 35
        E 0 9a 41 35
        E 160 8a 41 35
        E 0 9a 30 35
        E 32 8a 30 35
        E 0 9a 35 35
        E 96 8a 35 35
        E 0 9a 39 35
        E 256 8a 39 35
        E 0 9a 41 35
        E 192 8a 41 35
        E 0 9a 37 35
        E 224 8a 37 35
        E 0 9a 40 35
        E 256 8a 40 35
        E 0 9a 41 35
        E 160 8a 41 35
        E 0 9a 30 35
        E 32 8a 30 35
        E 0 9a 35 35
        E 96 8a 35 35
        E 0 9a 39 35
        E 256 8a 39 35
        E 0 9a 41 35
        E 192 8a 41 35
        E 0 9a 37 35
        E 224 8a 37 35
        E 0 9a 40 35
        E 256 8a 40 35
        E 0 9a 41 35
        E 160 8a 41 35
        E 0 9a 30 35
        E 32 8a 30 35
        E 0 9a 35 35
        E 96 8a 35 35
        E 0 9a 39 35
        E 256 8a 39 35
        E 0 9a 41 35
        E 192 8a 41 35
        E 0 9a 37 35
        E 224 8a 37 35
        E 0 9a 40 35
        E 256 8a 40 35
        E 0 9a 41 35
        E 160 8a 41 35
        E 0 9a 30 35
        E 32 8a 30 35
        E 0 9a 35 35
        E 96 8a 35 35
        E 0 9a 39 35
        E 256 8a 39 35
        E 0 9a 41 35
        E 192 8a 41 35
        E 0 9a 37 35
        E 224 8a 37 35
        E 0 9a 40 35
        E 256 8a 40 35
        E 0 9a 41 35
        E 160 8a 41 35
        E 0 9a 30 35
        E 32 8a 30 35
        E 0 9a 35 35
        E 96 8a 35 35
        E 0 9a 39 35
        E 256 8a 39 35
        E 0 9a 41 35
        E 192 8a 41 35
        E 0 9a 37 35
        E 224 8a 37 35
        E 0 9a 40 35
        E 256 8a 40 35
        E 0 9a 41 35
        E 160 8a 41 35
        E 0 9a 30 35
        E 32 8a 30 35
        E 0 9a 35 35
        E 96 8a 35 35
        E 0 9a 39 35
        E 256 8a 39 35
        E 0 9a 41 35
        E 192 8a 41 35
        E 0 9a 32 35
        E 128 8a 32 35
        E 0 9a 3b 35
        E 96 8a 3b 35
        E 0 9a 39 35
        E 0 9a 34 35
        E 224 8a 34 35
        E 0 9a 40 35
        E 64 8a 40 35
        E 0 9a 37 35
        E 224 8a 37 35
        E 0 9a 40 35
        E 256 8a 40 35
        E 0 9a 41 35
        E 160 8a 41 35
        E 0 9a 32 35
        E 128 8a 32 35
        E 0 9a 3b 35
        E 96 8a 3b 35
        E 0 9a 39 35
        E 0 9a 34 35
        E 224 8a 34 35
        E 0 9a 40 35
        E 64 8a 40 35
        E 0 9a 37 35
        E 224 8a 37 35
        E 0 9a 40 35
        E 256 8a 40 35
        E 0 9a 41 35
        E 160 8a 41 35
        E 0 9a 32 35
        E 128 8a 32 35
        E 0 9a 3b 35
        E 96 8a 3b 35
        E 0 9a 39 35
        E 0 9a 34 35
        E 224 8a 34 35
        E 0 9a 40 35
        E 64 8a 40 35
        E 0 9a 37 35
        E 224 8a 37 35
        E 0 9a 40 35
        E 256 8a 40 35
        E 0 9a 41 35
        E 160 8a 41 35
        E 0 9a 32 35
        E 128 8a 32 35
        E 0 9a 3b 35
        E 96 8a 3b 35
        E 0 9a 39 35
        E 0 9a 34 35
        E 224 8a 34 35
        E 0 9a 40 35
        E 64 8a 40 35
        E 0 9a 37 35
        E 224 8a 37 35
        E 0 9a 40 35
        E 256 8a 40 35
        E 0 9a 41 35
        E 160 8a 41 35
        E 0 9a 32 35
        E 128 8a 32 35
        E 0 9a 3b 35
        E 96 8a 3b 35
        E 0 9a 39 35
        E 0 9a 34 35
        E 224 8a 34 35
        E 0 9a 40 35
        E 64 8a 40 35
        E 0 9a 37 35
        E 224 8a 37 35
        E 0 9a 40 35
        E 256 8a 40 35
        E 0 9a 41 35
        E 160 8a 41 35
        E 0 9a 32 35
        E 128 8a 32 35
        E 0 9a 3b 35
        E 96 8a 3b 35
        E 0 9a 39 35
        E 0 9a 34 35
        E 224 8a 34 35
        E 0 9a 40 35
        E 64 8a 40 35
        E 0 9a 37 35
        E 224 8a 37 35
        E 0 9a 40 35
        E 256 8a 40 35
        E 0 9a 41 35
        E 160 8a 41 35
        E 0 9a 32 35
        E 128 8a 32 35
        E 0 9a 3b 35
        E 96 8a 3b 35
        E 0 9a 39 35
        E 0 9a 34 35
        E 224 8a 34 35
        E 0 9a 40 35
        E 64 8a 40 35
        E 0 9a 37 35
        E 224 8a 37 35
        E 0 9a 40 35
        E 256 8a 40 35
        E 0 9a 41 35
        E 160 8a 41 35
        E 0 9a 32 35
        E 128 8a 32 35
        E 0 9a 3b 35
        E 96 8a 3b 35
        E 0 9a 39 35
        E 0 9a 34 35
        E 224 8a 34 35
        E 0 9a 40 35
        E 64 8a 40 35
        E 0 9a 37 35
        E 224 8a 37 35
        E 0 9a 40 35
        E 256 8a 40 35
        E 0 9a 41 35
        E 159 8a 41 35
        E 1 b0 7b 00
        CCINTERP 32
        CHASE_CC_TAKEOFFS 1
        GUID {3CE874A0-C06D-AD43-A973-71EA1DCEAF47}
        IGNTEMPO 0 120 4 4
        SRCCOLOR 601
        VELLANE 3 601 0
        VELLANE -1 196 0
        CFGEDITVIEW 0 0.008186 62 12 0 -1 0 0 0 0.5
        KEYSNAP 0
        TRACKSEL 252
        EVTFILTER 0 -1 -1 -1 -1 0 0 0 0 -1 -1 -1 -1 0 -1 0 -1 -1
        CFGEDIT 1 1 0 1 0 0 1 1 1 1 1 0.125 0 0 1792 1095 0 0 0 0 0 0 0 0 0 0.5 0 0 1 64
      >
    >
  >
  <TRACK {BF3B37B4-D079-4045-AD87-D791CE66A308}
    NAME "germ-x hand sanitizer"
    PEAKCOL 16576
    BEAT -1
    AUTOMODE 0
    VOLPAN 1 0 -1 -1 1
    MUTESOLO 0 0 0
    IPHASE 0
    PLAYOFFS 0 1
    ISBUS 0 0
    BUSCOMP 0 0 0 0 0
    SHOWINMIX 1 0.6667 0.5 1 0.5 0 -1 0
    FREEMODE 0
    SEL 1
    REC 0 0 1 0 0 0 0
    VU 2
    TRACKHEIGHT 0 0 0 0 -1 0
    INQ 0 0 0 0.5 100 0 0 100
    NCHAN 2
    FX 1
    TRACKID {BF3B37B4-D079-4045-AD87-D791CE66A308}
    PERF 0
    MIDIOUT -1
    MAINSEND 1 0
    <FXCHAIN
      SHOW 0
      LASTSEL 0
      DOCKED 0
      BYPASS 0 0 0
      <VST "VSTi: FM8 (Native Instruments GmbH)" FM8.vst 0 "" 1315530296<5653544E696638666D38000000000000> ""
        OGZpTu5e7f4AAAAAAgAAAAEAAAAAAAAAAgAAAAAAAAAYBwAAAQAAAAAAEAA=
        GAcAAAAAAAABAAAAaHNpbgEAAAAAAAAAN455D8DDx0mHoN4j0l/0WZYAAAAAAAAARFNJTnYAAAABAAAASAAAAAAAAABEU0lOagAAAAEAAAAYAAAAAAAAAERTSU4BAAAA
        AQAAAAEAAAABAAAAAQAAAAEAAAAAAAAAAAAAAAAAAAANYmWFAQAAAAhwEAAAAAAAAQAAAAEAAAAAAAAAAAAAAAAAAAADAAAAMAAwADAAAAAAAAAAAAAAAAAAAAAAAAEA
        AAABAAAAAAAAAERTSU5lAAAARgYAAAAAAAABAAAAaHNpbgEAAAAAAAAAMOH4NwAUwEaoogAOyNUgkW0AAAAAAAAARFNJTmUAAAABAAAANAAAAAAAAABEU0lOagAAAAEA
        AAAYAAAAAAAAAERTSU4BAAAAAQAAAAEAAAABAAAAAgAAAAEAAAAACAAAAAEAAAAKAAAAMQAuADIALgAwAC4AMQAwADEAMAABAAAAAwAAAAAAAABEU0lObAAAAKgBAAAA
        AAAAAQAAAGhzaW4BAAAAAAAAACA7190CLVtKvWPIjKqbw/t4AQAAAAAAAERTSU5sAAAAAQAAABgAAAAAAAAARFNJTgEAAAABAAAAAQAAAAEAAAACAAAAAQAAAAAAAAAI
        AAAATgBlAHcAUwBvAHUAbgBkAAcAAABuAG8AdAAgAHMAZQB0AAAAAAAAAAAAAAAAAAAAAAAAAAAAAAAAAAAAAAAAAAAAAAAAAAEAAAABAAAAAQAAAAMAAABGAE0AOAAA
        AAAAAAAAAAcAAAAHAAAAXABAAGMAbwBsAG8AcgABAAAAMAARAAAAXABAAGQAZQB2AGkAYwBlAHQAeQBwAGUAZgBsAGEAZwBzAAEAAAAxAAsAAABcAEAAcwBvAHUAbgBk
        AHQAeQBwAGUAAQAAADAABwAAAFwAQAB0AGUAbQBwAG8AAQAAADAABgAAAFwAQAB2AGUAcgBsAAUAAAAxAC4ANwAuADgABgAAAFwAQAB2AGUAcgBtAAUAAAAxAC4ANwAu
        ADgABwAAAFwAQAB2AGkAcwBpAGIAAQAAADAAAQAAAAAAAAACAAAARFNJTnkAAABoAAAAAAAAAAEAAABoc2luAQAAAAAAAABG64vCmumHRIQ9Mih2ujahOAAAAAAAAABE
        U0lOeQAAAAEAAAAYAAAAAAAAAERTSU4BAAAAAQAAAAEAAAABAAAAAQAAAAAAAAABAAAAAAAAAAEAAABEU0lOdAAAAHUDAAAAAAAAAQAAAGhzaW4BAAAAAAAAAMPiDYJz
        LJxOuWtBgMMVvqRFAwAAAAAAAERTSU50AAAAAQAAACwDAAAAAAAARFNJTnMAAAABAAAAGAAAAAAAAABEU0lOAQAAAAEAAAABAAAAAQAAAAG9DwAA8wIAAAK9DwBgAAAB
        IAUDaHNpbkAHQAAQHyRrBvAZSEqYrqFXTcEPPBhAFCAAA0RTSU5AI+AHA0AAQBsAbSAIAWkPIAQgAEAj4ANTEEkCYzKs2sVGp2B2wrYRj5w5oCfAN0Av4BdnQCMB8Q4g
        XCAAAAUgAwFjDCAEIAAIdHNycEU4TUbPIAsEvCMAAAcgBwZkZWZhdWx04BgKICoAP+ACAwNBAACAIA8AoCAH4AsAAPAgF0AfwAAAICAPwABgFwVAAABIQgDgBABAD0AD
        4BcfYAAge+AEA0AAwBPgAwBAE+AAAAPNzMw+IAwDP5qZGUAXwAPgABcgCuAHG0ATQADgBwdAACATYKtAACALYANAAEALQAAg42AAwA9AB0AD4AMAwA9AB0ADwABAC8AD
        QADAC8AHQADgAwtAAEAP4AMAIA/Bn8AHAMjhDnPgHwDgAO/gDgBAX0ADwABBz8H7QAtAAwCgIINAB0AAALQgCwCWIAPgAwDAP0AHQAPAAEAz4MdLIAAAAcAAIAuAAAAC
        wACADuAdAOAALAD+4B0v4CEAABTgISrgMADBA+AKAGBTgAXgAABChuAXA+AeAOD9WSBZIkBBUgH6Q0AH4FUMQ9VAZwH6Q6BnBYA/zLyMK+BVDOABACBnBAA/ZmZmYAPg
        YwwgAABwJOwB/kJAdCAA4D4MosLgAFaAAKBjgADgOAwgYwRwwgAAhmC6JliAA0BW4EEMIGPgAE3g8AAAUCAA4Of8AP/gFwAABEERCggyAwAAQDIAAAA8QikgAwHwQmLY
        AAEgAYLiIAcgAkKVgAagCSA3oAkgSKAJKxegCQAG4AAJKwSgEyAAoAmASKAGoBPgwk/gSwAAEaBUA2tuYWJBMcAAAYAAIAAAGaARA2N0bmlMiwERJ2FcTFBAAEocAaBC
        4hMPTInAH00bwAvg/QDgvQABIACAAANzaXVnQiQA6CNxwAAAKiAIABkgAyOYYAAj0mAAB2dwdGNZVE1FQAwLDWJlhQEAAAAAAAAAAQAAAAABAAAAAAAAAA==
        ADxkaXNhYmxlZD4AEAAAAA==
      >
      PRESETNAME <disabled>
      FLOATPOS 0 0 0 0
      FXID {A299E44D-4D7A-F74C-B5BB-F79E9A8F3C8B}
      WAK 0 0
    >
    <ITEM
      POSITION 51.89184000000514
      SNAPOFFS 0
      LENGTH 38.91887999999486
      LOOP 1
      ALLTAKES 0
      FADEIN 1 0 0 1 0 0
      FADEOUT 1 0 0 1 0 0
      MUTE 0 0
      SEL 0
      IGUID {6C6B67C2-324E-2C49-9E56-A0EFFB5B46BA}
      IID 35
      NAME "germ-x hand sanitizer.mid"
      VOLPAN 1 0 1 -1
      SOFFS 0 0
      PLAYRATE 1 1 0 -1 0 0.0025
      CHANMODE 0
      GUID {76CE2E72-2506-B64D-9AFC-AFF368B52A48}
      <SOURCE MIDI
        HASDATA 1 128 QN
        CCINTERP 32
        POOLEDEVTS {42DC4E98-FDE9-C74D-BDE5-2A7661CD28D8}
        E 0 9b 32 35
        E 512 8b 32 35
        E 0 9b 3b 35
        E 384 8b 3b 35
        E 0 9b 39 35
        E 0 9b 34 35
        E 896 8b 34 35
        E 0 9b 40 35
        E 256 8b 40 35
        E 0 9b 37 35
        E 896 8b 37 35
        E 0 9b 40 35
        E 1024 8b 40 35
        E 0 9b 41 35
        E 640 8b 41 35
        E 0 9b 32 35
        E 512 8b 32 35
        E 0 9b 3b 35
        E 384 8b 3b 35
        E 0 9b 39 35
        E 0 9b 34 35
        E 896 8b 34 35
        E 0 9b 40 35
        E 256 8b 40 35
        E 0 9b 37 35
        E 896 8b 37 35
        E 0 9b 40 35
        E 1024 8b 40 35
        E 0 9b 41 35
        E 639 8b 41 35
        E 1 b0 7b 00
        CCINTERP 32
        CHASE_CC_TAKEOFFS 1
        GUID {431626D3-752F-F945-9BF3-CB69E3B98030}
        IGNTEMPO 0 120 4 4
        SRCCOLOR 602
        VELLANE 3 601 0
        VELLANE -1 196 0
        CFGEDITVIEW 0 0.008186 62 12 0 -1 0 0 0 0.5
        KEYSNAP 0
        TRACKSEL 252
        EVTFILTER 0 -1 -1 -1 -1 0 0 0 0 -1 -1 -1 -1 0 -1 0 -1 -1
        CFGEDIT 1 1 0 1 0 0 1 1 1 1 1 0.125 0 0 1792 1095 0 0 0 0 0 0 0 0 0 0.5 0 0 1 64
      >
    >
  >
  <TRACK {B688E335-6E8C-6F44-8769-CA39679FD5C7}
    NAME CC
    PEAKCOL 16576
    BEAT -1
    AUTOMODE 0
    VOLPAN 1 0 -1 -1 1
    MUTESOLO 0 0 0
    IPHASE 0
    PLAYOFFS 0 1
    ISBUS 1 1
    BUSCOMP 2 0 0 0 0
    SHOWINMIX 1 0.6667 0.5 1 0.5 0 -1 0
    FREEMODE 0
    SEL 0
    REC 0 0 1 0 0 0 0
    VU 2
    TRACKHEIGHT 0 0 0 0 -1 0
    INQ 0 0 0 0.5 100 0 0 100
    NCHAN 2
    FX 1
    TRACKID {B688E335-6E8C-6F44-8769-CA39679FD5C7}
    PERF 0
    MIDIOUT -1
    MAINSEND 1 0
  >
  <TRACK {958811EB-76FE-A14B-ACF1-261EA1C5EF21}
    NAME "germ-x hand sanitizer"
    PEAKCOL 16576
    BEAT -1
    AUTOMODE 0
    VOLPAN 1 0 -1 -1 1
    MUTESOLO 0 0 0
    IPHASE 0
    PLAYOFFS 0 1
    ISBUS 0 0
    BUSCOMP 0 0 0 0 0
    SHOWINMIX 1 0.6667 0.5 1 0.5 0 -1 0
    FREEMODE 0
    SEL 0
    REC 0 0 1 0 0 0 0
    VU 2
    TRACKHEIGHT 0 1 0 0 -1 0
    INQ 0 0 0 0.5 100 0 0 100
    NCHAN 2
    FX 1
    TRACKID {958811EB-76FE-A14B-ACF1-261EA1C5EF21}
    PERF 0
    MIDIOUT -1
    MAINSEND 1 0
    <ITEM
      POSITION 0
      SNAPOFFS 0
      LENGTH 0.54054
      LOOP 1
      ALLTAKES 0
      FADEIN 1 0 0 1 0 0
      FADEOUT 1 0 0 1 0 0
      MUTE 0 0
      SEL 0
      IGUID {0D22CCE3-7A40-EF40-BE19-EBF2EF6AEE69}
      IID 13
      NAME "germ-x hand sanitizer.mid"
      VOLPAN 1 0 1 -1
      SOFFS 0 0
      PLAYRATE 1 1 0 -1 0 0.0025
      CHANMODE 0
      GUID {9759580C-E799-7140-A490-29905F027007}
      <SOURCE MIDI
        HASDATA 1 128 QN
        CCINTERP 32
        POOLEDEVTS {C2326694-4366-E540-B8CA-9447D19F5532}
        E 128 b0 7b 00
        CCINTERP 32
        CHASE_CC_TAKEOFFS 1
        GUID {A4BE5510-E2B5-EC44-AAC7-3C307AC948BF}
        IGNTEMPO 0 120 4 4
        SRCCOLOR 146
        VELLANE 3 601 0
        VELLANE -1 196 0
        CFGEDITVIEW 0 0.008186 62 12 0 -1 0 0 0 0.5
        KEYSNAP 0
        TRACKSEL 252
        EVTFILTER 0 -1 -1 -1 -1 0 0 0 0 -1 -1 -1 -1 0 -1 0 -1 -1
        CFGEDIT 1 1 0 1 0 0 1 1 1 1 1 0.125 0 0 1792 1095 0 0 0 0 0 0 0 0 0 0.5 0 0 1 64
      >
    >
  >
  <TRACK {6E21D437-28A9-934F-832E-AF7B30D8717E}
    NAME "germ-x hand sanitizer"
    PEAKCOL 16576
    BEAT -1
    AUTOMODE 0
    VOLPAN 1 0 -1 -1 1
    MUTESOLO 0 0 0
    IPHASE 0
    PLAYOFFS 0 1
    ISBUS 0 0
    BUSCOMP 0 0 0 0 0
    SHOWINMIX 1 0.6667 0.5 1 0.5 0 -1 0
    FREEMODE 0
    SEL 0
    REC 0 0 1 0 0 0 0
    VU 2
    TRACKHEIGHT 0 1 0 0 -1 0
    INQ 0 0 0 0.5 100 0 0 100
    NCHAN 2
    FX 1
    TRACKID {6E21D437-28A9-934F-832E-AF7B30D8717E}
    PERF 0
    MIDIOUT -1
    MAINSEND 1 0
    <ITEM
      POSITION 0
      SNAPOFFS 0
      LENGTH 1116.2151
      LOOP 1
      ALLTAKES 0
      FADEIN 1 0 0 1 0 0
      FADEOUT 1 0 0 1 0 0
      MUTE 0 0
      SEL 0
      IGUID {78BFADBF-59B7-DB4A-A42E-2D48E709679C}
      IID 14
      NAME "germ-x hand sanitizer.mid"
      VOLPAN 1 0 1 -1
      SOFFS 0 0
      PLAYRATE 1 1 0 -1 0 0.0025
      CHANMODE 0
      GUID {47AC3FB0-C446-E148-9C2A-F91A9465D39E}
      <SOURCE MIDI
        HASDATA 1 128 QN
        CCINTERP 32
        POOLEDEVTS {34DD83B5-1988-6C4B-B792-A45C9B456830}
        E 70 b1 03 0b
        E 70 b1 03 26
        E 70 b1 03 19
        E 70 b1 03 04
        E 70 b1 03 24
        E 70 b1 03 20
        E 70 b1 03 04
        E 70 b1 03 04
        E 70 b1 03 18
        E 70 b1 03 30
        E 70 b1 03 28
        E 70 b1 03 2c
        E 70 b1 03 1f
        E 70 b1 03 05
        E 70 b1 03 09
        E 70 b1 03 22
        E 70 b1 03 1c
        E 70 b1 03 0e
        E 70 b1 03 0a
        E 70 b1 03 0d
        E 70 b1 03 27
        E 70 b1 03 17
        E 70 b1 03 0c
        E 70 b1 03 1d
        E 70 b1 03 32
        E 70 b1 03 00
        E 70 b1 03 06
        E 70 b1 03 14
        E 70 b1 03 11
        E 70 b1 03 29
        E 70 b1 03 0a
        E 70 b1 03 03
        E 70 b1 03 08
        E 70 b1 03 08
        E 70 b1 03 2e
        E 70 b1 03 0c
        E 70 b1 03 00
        E 70 b1 03 25
        E 70 b1 03 11
        E 70 b1 03 0a
        E 70 b1 03 14
        E 70 b1 03 0d
        E 70 b1 03 2b
        E 70 b1 03 2a
        E 70 b1 03 32
        E 70 b1 03 2a
        E 70 b1 03 16
        E 70 b1 03 2f
        E 70 b1 03 24
        E 70 b1 03 06
        E 70 b1 03 16
        E 70 b1 03 1b
        E 70 b1 03 30
        E 70 b1 03 26
        E 70 b1 03 1b
        E 70 b1 03 1c
        E 70 b1 03 02
        E 70 b1 03 05
        E 70 b1 03 2e
        E 70 b1 03 28
        E 70 b1 03 15
        E 70 b1 03 10
        E 70 b1 03 06
        E 70 b1 03 16
        E 70 b1 03 0f
        E 70 b1 03 0c
        E 70 b1 03 13
        E 70 b1 03 1a
        E 70 b1 03 1e
        E 70 b1 03 20
        E 70 b1 03 08
        E 70 b1 03 1e
        E 70 b1 03 2d
        E 70 b1 03 1a
        E 70 b1 03 1d
        E 70 b1 03 01
        E 70 b1 03 03
        E 70 b1 03 32
        E 70 b1 03 21
        E 70 b1 03 09
        E 70 b1 03 2e
        E 70 b1 03 10
        E 70 b1 03 13
        E 70 b1 03 18
        E 70 b1 03 14
        E 70 b1 03 22
        E 70 b1 03 29
        E 70 b1 03 0e
        E 70 b1 03 1c
        E 70 b1 03 0b
        E 70 b1 03 2d
        E 70 b1 03 2a
        E 70 b1 03 17
        E 70 b1 03 12
        E 70 b1 03 28
        E 70 b1 03 12
        E 70 b1 03 23
        E 70 b1 03 07
        E 70 b1 03 00
        E 70 b1 03 10
        E 70 b1 03 19
        E 70 b1 03 2b
        E 70 b1 03 27
        E 70 b1 03 01
        E 70 b1 03 2c
        E 70 b1 03 25
        E 70 b1 03 02
        E 70 b1 03 0f
        E 70 b1 03 1e
        E 70 b1 03 26
        E 70 b1 03 30
        E 70 b1 03 1f
        E 70 b1 03 15
        E 70 b1 03 0e
        E 70 b1 03 23
        E 70 b1 03 24
        E 70 b1 03 2c
        E 70 b1 03 31
        E 70 b1 03 18
        E 70 b1 03 20
        E 70 b1 03 22
        E 70 b1 03 1a
        E 70 b1 03 2f
        E 70 b1 03 07
        E 70 b1 03 12
        E 70 b1 03 21
        E 39 b1 03 13
        E 39 b1 03 43
        E 39 b1 03 2c
        E 39 b1 03 07
        E 39 b1 03 3e
        E 39 b1 03 38
        E 39 b1 03 08
        E 39 b1 03 07
        E 39 b1 03 2a
        E 39 b1 03 54
        E 39 b1 03 46
        E 39 b1 03 4d
        E 39 b1 03 37
        E 39 b1 03 09
        E 39 b1 03 10
        E 39 b1 03 3c
        E 39 b1 03 31
        E 39 b1 03 19
        E 39 b1 03 11
        E 39 b1 03 17
        E 39 b1 03 45
        E 39 b1 03 29
        E 39 b1 03 15
        E 39 b1 03 33
        E 39 b1 03 58
        E 39 b1 03 00
        E 39 b1 03 0b
        E 39 b1 03 24
        E 39 b1 03 1e
        E 39 b1 03 48
        E 39 b1 03 12
        E 39 b1 03 05
        E 39 b1 03 0e
        E 39 b1 03 0f
        E 39 b1 03 50
        E 39 b1 03 16
        E 39 b1 03 00
        E 39 b1 03 41
        E 39 b1 03 1e
        E 39 b1 03 12
        E 39 b1 03 23
        E 39 b1 03 17
        E 39 b1 03 4b
        E 39 b1 03 4a
        E 39 b1 03 58
        E 39 b1 03 4a
        E 39 b1 03 26
        E 39 b1 03 52
        E 39 b1 03 3f
        E 39 b1 03 0a
        E 39 b1 03 27
        E 39 b1 03 2f
        E 39 b1 03 54
        E 39 b1 03 43
        E 39 b1 03 30
        E 39 b1 03 31
        E 39 b1 03 04
        E 39 b1 03 09
        E 39 b1 03 51
        E 39 b1 03 47
        E 39 b1 03 25
        E 39 b1 03 1c
        E 39 b1 03 0b
        E 39 b1 03 27
        E 39 b1 03 1a
        E 39 b1 03 15
        E 39 b1 03 21
        E 39 b1 03 2e
        E 39 b1 03 35
        E 39 b1 03 39
        E 39 b1 03 0e
        E 39 b1 03 35
        E 39 b1 03 4f
        E 39 b1 03 2d
        E 39 b1 03 33
        E 39 b1 03 02
        E 39 b1 03 06
        E 39 b1 03 57
        E 39 b1 03 3a
        E 39 b1 03 10
        E 39 b1 03 51
        E 39 b1 03 1c
        E 39 b1 03 22
        E 39 b1 03 2b
        E 39 b1 03 23
        E 39 b1 03 3b
        E 39 b1 03 48
        E 39 b1 03 19
        E 39 b1 03 32
        E 39 b1 03 14
        E 39 b1 03 4f
        E 39 b1 03 49
        E 39 b1 03 28
        E 39 b1 03 20
        E 39 b1 03 46
        E 39 b1 03 20
        E 39 b1 03 3e
        E 39 b1 03 0c
        E 39 b1 03 01
        E 39 b1 03 1d
        E 39 b1 03 2c
        E 39 b1 03 4c
        E 39 b1 03 44
        E 39 b1 03 02
        E 39 b1 03 4d
        E 39 b1 03 41
        E 39 b1 03 04
        E 39 b1 03 1b
        E 39 b1 03 34
        E 39 b1 03 42
        E 39 b1 03 55
        E 39 b1 03 36
        E 39 b1 03 25
        E 39 b1 03 18
        E 39 b1 03 3d
        E 39 b1 03 40
        E 39 b1 03 4e
        E 39 b1 03 56
        E 39 b1 03 2a
        E 39 b1 03 38
        E 39 b1 03 3c
        E 39 b1 03 2e
        E 39 b1 03 53
        E 39 b1 03 0d
        E 39 b1 03 1f
        E 39 b1 03 3a
        E 7 b1 03 0b
        E 7 b1 03 26
        E 7 b1 03 19
        E 7 b1 03 04
        E 7 b1 03 24
        E 7 b1 03 20
        E 7 b1 03 04
        E 7 b1 03 04
        E 7 b1 03 18
        E 7 b1 03 30
        E 7 b1 03 28
        E 7 b1 03 2c
        E 7 b1 03 1f
        E 7 b1 03 05
        E 7 b1 03 09
        E 7 b1 03 22
        E 7 b1 03 1c
        E 7 b1 03 0e
        E 7 b1 03 0a
        E 7 b1 03 0d
        E 7 b1 03 27
        E 7 b1 03 17
        E 7 b1 03 0c
        E 7 b1 03 1d
        E 7 b1 03 32
        E 7 b1 03 00
        E 7 b1 03 06
        E 7 b1 03 14
        E 7 b1 03 11
        E 7 b1 03 29
        E 7 b1 03 0a
        E 7 b1 03 03
        E 7 b1 03 08
        E 7 b1 03 08
        E 7 b1 03 2e
        E 7 b1 03 0c
        E 7 b1 03 00
        E 7 b1 03 25
        E 7 b1 03 11
        E 7 b1 03 0a
        E 7 b1 03 14
        E 7 b1 03 0d
        E 7 b1 03 2b
        E 7 b1 03 2a
        E 7 b1 03 32
        E 7 b1 03 2a
        E 7 b1 03 16
        E 7 b1 03 2f
        E 7 b1 03 24
        E 7 b1 03 06
        E 7 b1 03 16
        E 7 b1 03 1b
        E 7 b1 03 30
        E 7 b1 03 26
        E 7 b1 03 1b
        E 7 b1 03 1c
        E 7 b1 03 02
        E 7 b1 03 05
        E 7 b1 03 2e
        E 7 b1 03 28
        E 7 b1 03 15
        E 7 b1 03 10
        E 7 b1 03 06
        E 7 b1 03 16
        E 7 b1 03 0f
        E 7 b1 03 0c
        E 7 b1 03 13
        E 7 b1 03 1a
        E 7 b1 03 1e
        E 7 b1 03 20
        E 7 b1 03 08
        E 7 b1 03 1e
        E 7 b1 03 2d
        E 7 b1 03 1a
        E 7 b1 03 1d
        E 7 b1 03 01
        E 7 b1 03 03
        E 7 b1 03 32
        E 7 b1 03 21
        E 7 b1 03 09
        E 7 b1 03 2e
        E 7 b1 03 10
        E 7 b1 03 13
        E 7 b1 03 18
        E 7 b1 03 14
        E 7 b1 03 22
        E 7 b1 03 29
        E 7 b1 03 0e
        E 7 b1 03 1c
        E 7 b1 03 0b
        E 7 b1 03 2d
        E 7 b1 03 2a
        E 7 b1 03 17
        E 7 b1 03 12
        E 7 b1 03 28
        E 7 b1 03 12
        E 7 b1 03 23
        E 7 b1 03 07
        E 7 b1 03 00
        E 7 b1 03 10
        E 7 b1 03 19
        E 7 b1 03 2b
        E 7 b1 03 27
        E 7 b1 03 01
        E 7 b1 03 2c
        E 7 b1 03 25
        E 7 b1 03 02
        E 7 b1 03 0f
        E 7 b1 03 1e
        E 7 b1 03 26
        E 7 b1 03 30
        E 7 b1 03 1f
        E 7 b1 03 15
        E 7 b1 03 0e
        E 7 b1 03 23
        E 7 b1 03 24
        E 7 b1 03 2c
        E 7 b1 03 31
        E 7 b1 03 18
        E 7 b1 03 20
        E 7 b1 03 22
        E 7 b1 03 1a
        E 7 b1 03 2f
        E 7 b1 03 07
        E 7 b1 03 12
        E 7 b1 03 21
        E 23 b1 03 16
        E 23 b1 03 4c
        E 23 b1 03 32
        E 23 b1 03 07
        E 23 b1 03 48
        E 23 b1 03 3f
        E 23 b1 03 09
        E 23 b1 03 08
        E 23 b1 03 30
        E 23 b1 03 5f
        E 23 b1 03 50
        E 23 b1 03 58
        E 23 b1 03 3f
        E 23 b1 03 0b
        E 23 b1 03 13
        E 23 b1 03 44
        E 23 b1 03 37
        E 23 b1 03 1c
        E 23 b1 03 14
        E 23 b1 03 1b
        E 23 b1 03 4f
        E 23 b1 03 2f
        E 23 b1 03 17
        E 23 b1 03 3a
        E 23 b1 03 64
        E 23 b1 03 00
        E 23 b1 03 0c
        E 23 b1 03 29
        E 23 b1 03 22
        E 23 b1 03 53
        E 23 b1 03 15
        E 23 b1 03 06
        E 23 b1 03 0f
        E 23 b1 03 11
        E 23 b1 03 5b
        E 23 b1 03 19
        E 23 b1 03 00
        E 23 b1 03 4b
        E 23 b1 03 23
        E 23 b1 03 14
        E 23 b1 03 28
        E 23 b1 03 1a
        E 23 b1 03 56
        E 23 b1 03 55
        E 23 b1 03 65
        E 23 b1 03 54
        E 23 b1 03 2b
        E 23 b1 03 5e
        E 23 b1 03 48
        E 23 b1 03 0b
        E 23 b1 03 2c
        E 23 b1 03 36
        E 23 b1 03 60
        E 23 b1 03 4d
        E 23 b1 03 37
        E 23 b1 03 38
        E 23 b1 03 04
        E 23 b1 03 0a
        E 23 b1 03 5d
        E 23 b1 03 51
        E 23 b1 03 2b
        E 23 b1 03 1f
        E 23 b1 03 0d
        E 23 b1 03 2d
        E 23 b1 03 1e
        E 23 b1 03 18
        E 23 b1 03 26
        E 23 b1 03 34
        E 23 b1 03 3d
        E 23 b1 03 41
        E 23 b1 03 10
        E 23 b1 03 3c
        E 23 b1 03 5a
        E 23 b1 03 33
        E 23 b1 03 3b
        E 23 b1 03 02
        E 23 b1 03 07
        E 23 b1 03 63
        E 23 b1 03 42
        E 23 b1 03 12
        E 23 b1 03 5c
        E 23 b1 03 20
        E 23 b1 03 27
        E 23 b1 03 31
        E 23 b1 03 28
        E 23 b1 03 44
        E 23 b1 03 52
        E 23 b1 03 1d
        E 23 b1 03 39
        E 23 b1 03 17
        E 23 b1 03 5b
        E 23 b1 03 54
        E 23 b1 03 2e
        E 23 b1 03 24
        E 23 b1 03 50
        E 23 b1 03 25
        E 23 b1 03 47
        E 23 b1 03 0e
        E 23 b1 03 01
        E 23 b1 03 21
        E 23 b1 03 33
        E 23 b1 03 57
        E 23 b1 03 4e
        E 23 b1 03 03
        E 23 b1 03 57
        E 23 b1 03 4a
        E 23 b1 03 05
        E 23 b1 03 1f
        E 23 b1 03 3b
        E 23 b1 03 4c
        E 23 b1 03 61
        E 23 b1 03 3e
        E 23 b1 03 2a
        E 23 b1 03 1b
        E 23 b1 03 46
        E 23 b1 03 49
        E 23 b1 03 59
        E 23 b1 03 63
        E 23 b1 03 2f
        E 23 b1 03 40
        E 23 b1 03 45
        E 23 b1 03 35
        E 23 b1 03 5f
        E 23 b1 03 0f
        E 23 b1 03 24
        E 23 b1 03 43
        E 70 b1 03 16
        E 70 b1 03 4c
        E 70 b1 03 32
        E 70 b1 03 07
        E 70 b1 03 48
        E 70 b1 03 3f
        E 70 b1 03 09
        E 70 b1 03 08
        E 70 b1 03 30
        E 70 b1 03 5f
        E 70 b1 03 50
        E 70 b1 03 58
        E 70 b1 03 3f
        E 70 b1 03 0b
        E 70 b1 03 13
        E 70 b1 03 44
        E 70 b1 03 37
        E 70 b1 03 1c
        E 70 b1 03 14
        E 70 b1 03 1b
        E 70 b1 03 4f
        E 70 b1 03 2f
        E 70 b1 03 17
        E 70 b1 03 3a
        E 70 b1 03 64
        E 70 b1 03 00
        E 70 b1 03 0c
        E 70 b1 03 29
        E 70 b1 03 22
        E 70 b1 03 53
        E 70 b1 03 15
        E 70 b1 03 06
        E 70 b1 03 0f
        E 70 b1 03 11
        E 70 b1 03 5b
        E 70 b1 03 19
        E 70 b1 03 00
        E 70 b1 03 4b
        E 70 b1 03 23
        E 70 b1 03 14
        E 70 b1 03 28
        E 70 b1 03 1a
        E 70 b1 03 56
        E 70 b1 03 55
        E 70 b1 03 65
        E 70 b1 03 54
        E 70 b1 03 2b
        E 70 b1 03 5e
        E 70 b1 03 48
        E 70 b1 03 0b
        E 70 b1 03 2c
        E 70 b1 03 36
        E 70 b1 03 60
        E 70 b1 03 4d
        E 70 b1 03 37
        E 70 b1 03 38
        E 70 b1 03 04
        E 70 b1 03 0a
        E 70 b1 03 5d
        E 70 b1 03 51
        E 70 b1 03 2b
        E 70 b1 03 1f
        E 70 b1 03 0d
        E 70 b1 03 2d
        E 70 b1 03 1e
        E 70 b1 03 18
        E 70 b1 03 26
        E 70 b1 03 34
        E 70 b1 03 3d
        E 70 b1 03 41
        E 70 b1 03 10
        E 70 b1 03 3c
        E 70 b1 03 5a
        E 70 b1 03 33
        E 70 b1 03 3b
        E 70 b1 03 02
        E 70 b1 03 07
        E 70 b1 03 63
        E 70 b1 03 42
        E 70 b1 03 12
        E 70 b1 03 5c
        E 70 b1 03 20
        E 70 b1 03 27
        E 70 b1 03 31
        E 70 b1 03 28
        E 70 b1 03 44
        E 70 b1 03 52
        E 70 b1 03 1d
        E 70 b1 03 39
        E 70 b1 03 17
        E 70 b1 03 5b
        E 70 b1 03 54
        E 70 b1 03 2e
        E 70 b1 03 24
        E 70 b1 03 50
        E 70 b1 03 25
        E 70 b1 03 47
        E 70 b1 03 0e
        E 70 b1 03 01
        E 70 b1 03 21
        E 70 b1 03 33
        E 70 b1 03 57
        E 70 b1 03 4e
        E 70 b1 03 03
        E 70 b1 03 57
        E 70 b1 03 4a
        E 70 b1 03 05
        E 70 b1 03 1f
        E 70 b1 03 3b
        E 70 b1 03 4c
        E 70 b1 03 61
        E 70 b1 03 3e
        E 70 b1 03 2a
        E 70 b1 03 1b
        E 70 b1 03 46
        E 70 b1 03 49
        E 70 b1 03 59
        E 70 b1 03 63
        E 70 b1 03 2f
        E 70 b1 03 40
        E 70 b1 03 45
        E 70 b1 03 35
        E 70 b1 03 5f
        E 70 b1 03 0f
        E 70 b1 03 24
        E 70 b1 03 43
        E 15 b1 03 10
        E 15 b1 03 39
        E 15 b1 03 25
        E 15 b1 03 06
        E 15 b1 03 36
        E 15 b1 03 30
        E 15 b1 03 07
        E 15 b1 03 06
        E 15 b1 03 24
        E 15 b1 03 48
        E 15 b1 03 3c
        E 15 b1 03 42
        E 15 b1 03 2f
        E 15 b1 03 08
        E 15 b1 03 0e
        E 15 b1 03 33
        E 15 b1 03 2a
        E 15 b1 03 15
        E 15 b1 03 0f
        E 15 b1 03 14
        E 15 b1 03 3b
        E 15 b1 03 23
        E 15 b1 03 12
        E 15 b1 03 2b
        E 15 b1 03 4b
        E 15 b1 03 00
        E 15 b1 03 09
        E 15 b1 03 1f
        E 15 b1 03 19
        E 15 b1 03 3e
        E 15 b1 03 10
        E 15 b1 03 04
        E 15 b1 03 0c
        E 15 b1 03 0d
        E 15 b1 03 45
        E 15 b1 03 13
        E 15 b1 03 00
        E 15 b1 03 38
        E 15 b1 03 1a
        E 15 b1 03 0f
        E 15 b1 03 1e
        E 15 b1 03 13
        E 15 b1 03 40
        E 15 b1 03 40
        E 15 b1 03 4c
        E 15 b1 03 3f
        E 15 b1 03 21
        E 15 b1 03 46
        E 15 b1 03 36
        E 15 b1 03 09
        E 15 b1 03 21
        E 15 b1 03 28
        E 15 b1 03 48
        E 15 b1 03 3a
        E 15 b1 03 29
        E 15 b1 03 2a
        E 15 b1 03 03
        E 15 b1 03 07
        E 15 b1 03 46
        E 15 b1 03 3d
        E 15 b1 03 20
        E 15 b1 03 18
        E 15 b1 03 0a
        E 15 b1 03 22
        E 15 b1 03 16
        E 15 b1 03 12
        E 15 b1 03 1c
        E 15 b1 03 27
        E 15 b1 03 2e
        E 15 b1 03 31
        E 15 b1 03 0c
        E 15 b1 03 2d
        E 15 b1 03 43
        E 15 b1 03 27
        E 15 b1 03 2c
        E 15 b1 03 01
        E 15 b1 03 05
        E 15 b1 03 4b
        E 15 b1 03 31
        E 15 b1 03 0d
        E 15 b1 03 45
        E 15 b1 03 18
        E 15 b1 03 1d
        E 15 b1 03 25
        E 15 b1 03 1e
        E 15 b1 03 33
        E 15 b1 03 3d
        E 15 b1 03 16
        E 15 b1 03 2b
        E 15 b1 03 11
        E 15 b1 03 44
        E 15 b1 03 3f
        E 15 b1 03 22
        E 15 b1 03 1b
        E 15 b1 03 3c
        E 15 b1 03 1c
        E 15 b1 03 35
        E 15 b1 03 0a
        E 15 b1 03 01
        E 15 b1 03 19
        E 15 b1 03 26
        E 15 b1 03 41
        E 15 b1 03 3a
        E 15 b1 03 02
        E 15 b1 03 42
        E 15 b1 03 37
        E 15 b1 03 04
        E 15 b1 03 17
        E 15 b1 03 2d
        E 15 b1 03 39
        E 15 b1 03 49
        E 15 b1 03 2e
        E 15 b1 03 1f
        E 15 b1 03 15
        E 15 b1 03 34
        E 15 b1 03 37
        E 15 b1 03 43
        E 15 b1 03 4a
        E 15 b1 03 24
        E 15 b1 03 30
        E 15 b1 03 34
        E 15 b1 03 28
        E 15 b1 03 47
        E 15 b1 03 0b
        E 15 b1 03 1b
        E 15 b1 03 32
        E 70 b1 03 0b
        E 70 b1 03 26
        E 70 b1 03 19
        E 70 b1 03 04
        E 70 b1 03 24
        E 70 b1 03 20
        E 70 b1 03 04
        E 70 b1 03 04
        E 70 b1 03 18
        E 70 b1 03 30
        E 70 b1 03 28
        E 70 b1 03 2c
        E 70 b1 03 1f
        E 70 b1 03 05
        E 70 b1 03 09
        E 70 b1 03 22
        E 70 b1 03 1c
        E 70 b1 03 0e
        E 70 b1 03 0a
        E 70 b1 03 0d
        E 70 b1 03 27
        E 70 b1 03 17
        E 70 b1 03 0c
        E 70 b1 03 1d
        E 70 b1 03 32
        E 70 b1 03 00
        E 70 b1 03 06
        E 70 b1 03 14
        E 70 b1 03 11
        E 70 b1 03 29
        E 70 b1 03 0a
        E 70 b1 03 03
        E 70 b1 03 08
        E 70 b1 03 08
        E 70 b1 03 2e
        E 70 b1 03 0c
        E 70 b1 03 00
        E 70 b1 03 25
        E 70 b1 03 11
        E 70 b1 03 0a
        E 70 b1 03 14
        E 70 b1 03 0d
        E 70 b1 03 2b
        E 70 b1 03 2a
        E 70 b1 03 32
        E 70 b1 03 2a
        E 70 b1 03 16
        E 70 b1 03 2f
        E 70 b1 03 24
        E 70 b1 03 06
        E 70 b1 03 16
        E 70 b1 03 1b
        E 70 b1 03 30
        E 70 b1 03 26
        E 70 b1 03 1b
        E 70 b1 03 1c
        E 70 b1 03 02
        E 70 b1 03 05
        E 70 b1 03 2e
        E 70 b1 03 28
        E 70 b1 03 15
        E 70 b1 03 10
        E 70 b1 03 06
        E 70 b1 03 16
        E 70 b1 03 0f
        E 70 b1 03 0c
        E 70 b1 03 13
        E 70 b1 03 1a
        E 70 b1 03 1e
        E 70 b1 03 20
        E 70 b1 03 08
        E 70 b1 03 1e
        E 70 b1 03 2d
        E 70 b1 03 1a
        E 70 b1 03 1d
        E 70 b1 03 01
        E 70 b1 03 03
        E 70 b1 03 32
        E 70 b1 03 21
        E 70 b1 03 09
        E 70 b1 03 2e
        E 70 b1 03 10
        E 70 b1 03 13
        E 70 b1 03 18
        E 70 b1 03 14
        E 70 b1 03 22
        E 70 b1 03 29
        E 70 b1 03 0e
        E 70 b1 03 1c
        E 70 b1 03 0b
        E 70 b1 03 2d
        E 70 b1 03 2a
        E 70 b1 03 17
        E 70 b1 03 12
        E 70 b1 03 28
        E 70 b1 03 12
        E 70 b1 03 23
        E 70 b1 03 07
        E 70 b1 03 00
        E 70 b1 03 10
        E 70 b1 03 19
        E 70 b1 03 2b
        E 70 b1 03 27
        E 70 b1 03 01
        E 70 b1 03 2c
        E 70 b1 03 25
        E 70 b1 03 02
        E 70 b1 03 0f
        E 70 b1 03 1e
        E 70 b1 03 26
        E 70 b1 03 30
        E 70 b1 03 1f
        E 70 b1 03 15
        E 70 b1 03 0e
        E 70 b1 03 23
        E 70 b1 03 24
        E 70 b1 03 2c
        E 70 b1 03 31
        E 70 b1 03 18
        E 70 b1 03 20
        E 70 b1 03 22
        E 70 b1 03 1a
        E 70 b1 03 2f
        E 70 b1 03 07
        E 70 b1 03 12
        E 70 b1 03 21
        E 39 b1 03 13
        E 39 b1 03 43
        E 39 b1 03 2c
        E 39 b1 03 07
        E 39 b1 03 3e
        E 39 b1 03 38
        E 39 b1 03 08
        E 39 b1 03 07
        E 39 b1 03 2a
        E 39 b1 03 54
        E 39 b1 03 46
        E 39 b1 03 4d
        E 39 b1 03 37
        E 39 b1 03 09
        E 39 b1 03 10
        E 39 b1 03 3c
        E 39 b1 03 31
        E 39 b1 03 19
        E 39 b1 03 11
        E 39 b1 03 17
        E 39 b1 03 45
        E 39 b1 03 29
        E 39 b1 03 15
        E 39 b1 03 33
        E 39 b1 03 58
        E 39 b1 03 00
        E 39 b1 03 0b
        E 39 b1 03 24
        E 39 b1 03 1e
        E 39 b1 03 48
        E 39 b1 03 12
        E 39 b1 03 05
        E 39 b1 03 0e
        E 39 b1 03 0f
        E 39 b1 03 50
        E 39 b1 03 16
        E 39 b1 03 00
        E 39 b1 03 41
        E 39 b1 03 1e
        E 39 b1 03 12
        E 39 b1 03 23
        E 39 b1 03 17
        E 39 b1 03 4b
        E 39 b1 03 4a
        E 39 b1 03 58
        E 39 b1 03 4a
        E 39 b1 03 26
        E 39 b1 03 52
        E 39 b1 03 3f
        E 39 b1 03 0a
        E 39 b1 03 27
        E 39 b1 03 2f
        E 39 b1 03 54
        E 39 b1 03 43
        E 39 b1 03 30
        E 39 b1 03 31
        E 39 b1 03 04
        E 39 b1 03 09
        E 39 b1 03 51
        E 39 b1 03 47
        E 39 b1 03 25
        E 39 b1 03 1c
        E 39 b1 03 0b
        E 39 b1 03 27
        E 39 b1 03 1a
        E 39 b1 03 15
        E 39 b1 03 21
        E 39 b1 03 2e
        E 39 b1 03 35
        E 39 b1 03 39
        E 39 b1 03 0e
        E 39 b1 03 35
        E 39 b1 03 4f
        E 39 b1 03 2d
        E 39 b1 03 33
        E 39 b1 03 02
        E 39 b1 03 06
        E 39 b1 03 57
        E 39 b1 03 3a
        E 39 b1 03 10
        E 39 b1 03 51
        E 39 b1 03 1c
        E 39 b1 03 22
        E 39 b1 03 2b
        E 39 b1 03 23
        E 39 b1 03 3b
        E 39 b1 03 48
        E 39 b1 03 19
        E 39 b1 03 32
        E 39 b1 03 14
        E 39 b1 03 4f
        E 39 b1 03 49
        E 39 b1 03 28
        E 39 b1 03 20
        E 39 b1 03 46
        E 39 b1 03 20
        E 39 b1 03 3e
        E 39 b1 03 0c
        E 39 b1 03 01
        E 39 b1 03 1d
        E 39 b1 03 2c
        E 39 b1 03 4c
        E 39 b1 03 44
        E 39 b1 03 02
        E 39 b1 03 4d
        E 39 b1 03 41
        E 39 b1 03 04
        E 39 b1 03 1b
        E 39 b1 03 34
        E 39 b1 03 42
        E 39 b1 03 55
        E 39 b1 03 36
        E 39 b1 03 25
        E 39 b1 03 18
        E 39 b1 03 3d
        E 39 b1 03 40
        E 39 b1 03 4e
        E 39 b1 03 56
        E 39 b1 03 2a
        E 39 b1 03 38
        E 39 b1 03 3c
        E 39 b1 03 2e
        E 39 b1 03 53
        E 39 b1 03 0d
        E 39 b1 03 1f
        E 39 b1 03 3a
        E 7 b1 03 0b
        E 7 b1 03 26
        E 7 b1 03 19
        E 7 b1 03 04
        E 7 b1 03 24
        E 7 b1 03 20
        E 7 b1 03 04
        E 7 b1 03 04
        E 7 b1 03 18
        E 7 b1 03 30
        E 7 b1 03 28
        E 7 b1 03 2c
        E 7 b1 03 1f
        E 7 b1 03 05
        E 7 b1 03 09
        E 7 b1 03 22
        E 7 b1 03 1c
        E 7 b1 03 0e
        E 7 b1 03 0a
        E 7 b1 03 0d
        E 7 b1 03 27
        E 7 b1 03 17
        E 7 b1 03 0c
        E 7 b1 03 1d
        E 7 b1 03 32
        E 7 b1 03 00
        E 7 b1 03 06
        E 7 b1 03 14
        E 7 b1 03 11
        E 7 b1 03 29
        E 7 b1 03 0a
        E 7 b1 03 03
        E 7 b1 03 08
        E 7 b1 03 08
        E 7 b1 03 2e
        E 7 b1 03 0c
        E 7 b1 03 00
        E 7 b1 03 25
        E 7 b1 03 11
        E 7 b1 03 0a
        E 7 b1 03 14
        E 7 b1 03 0d
        E 7 b1 03 2b
        E 7 b1 03 2a
        E 7 b1 03 32
        E 7 b1 03 2a
        E 7 b1 03 16
        E 7 b1 03 2f
        E 7 b1 03 24
        E 7 b1 03 06
        E 7 b1 03 16
        E 7 b1 03 1b
        E 7 b1 03 30
        E 7 b1 03 26
        E 7 b1 03 1b
        E 7 b1 03 1c
        E 7 b1 03 02
        E 7 b1 03 05
        E 7 b1 03 2e
        E 7 b1 03 28
        E 7 b1 03 15
        E 7 b1 03 10
        E 7 b1 03 06
        E 7 b1 03 16
        E 7 b1 03 0f
        E 7 b1 03 0c
        E 7 b1 03 13
        E 7 b1 03 1a
        E 7 b1 03 1e
        E 7 b1 03 20
        E 7 b1 03 08
        E 7 b1 03 1e
        E 7 b1 03 2d
        E 7 b1 03 1a
        E 7 b1 03 1d
        E 7 b1 03 01
        E 7 b1 03 03
        E 7 b1 03 32
        E 7 b1 03 21
        E 7 b1 03 09
        E 7 b1 03 2e
        E 7 b1 03 10
        E 7 b1 03 13
        E 7 b1 03 18
        E 7 b1 03 14
        E 7 b1 03 22
        E 7 b1 03 29
        E 7 b1 03 0e
        E 7 b1 03 1c
        E 7 b1 03 0b
        E 7 b1 03 2d
        E 7 b1 03 2a
        E 7 b1 03 17
        E 7 b1 03 12
        E 7 b1 03 28
        E 7 b1 03 12
        E 7 b1 03 23
        E 7 b1 03 07
        E 7 b1 03 00
        E 7 b1 03 10
        E 7 b1 03 19
        E 7 b1 03 2b
        E 7 b1 03 27
        E 7 b1 03 01
        E 7 b1 03 2c
        E 7 b1 03 25
        E 7 b1 03 02
        E 7 b1 03 0f
        E 7 b1 03 1e
        E 7 b1 03 26
        E 7 b1 03 30
        E 7 b1 03 1f
        E 7 b1 03 15
        E 7 b1 03 0e
        E 7 b1 03 23
        E 7 b1 03 24
        E 7 b1 03 2c
        E 7 b1 03 31
        E 7 b1 03 18
        E 7 b1 03 20
        E 7 b1 03 22
        E 7 b1 03 1a
        E 7 b1 03 2f
        E 7 b1 03 07
        E 7 b1 03 12
        E 7 b1 03 21
        E 23 b1 03 16
        E 23 b1 03 4c
        E 23 b1 03 32
        E 23 b1 03 07
        E 23 b1 03 48
        E 23 b1 03 3f
        E 23 b1 03 09
        E 23 b1 03 08
        E 23 b1 03 30
        E 23 b1 03 5f
        E 23 b1 03 50
        E 23 b1 03 58
        E 23 b1 03 3f
        E 23 b1 03 0b
        E 23 b1 03 13
        E 23 b1 03 44
        E 23 b1 03 37
        E 23 b1 03 1c
        E 23 b1 03 14
        E 23 b1 03 1b
        E 23 b1 03 4f
        E 23 b1 03 2f
        E 23 b1 03 17
        E 23 b1 03 3a
        E 23 b1 03 64
        E 23 b1 03 00
        E 23 b1 03 0c
        E 23 b1 03 29
        E 23 b1 03 22
        E 23 b1 03 53
        E 23 b1 03 15
        E 23 b1 03 06
        E 23 b1 03 0f
        E 23 b1 03 11
        E 23 b1 03 5b
        E 23 b1 03 19
        E 23 b1 03 00
        E 23 b1 03 4b
        E 23 b1 03 23
        E 23 b1 03 14
        E 23 b1 03 28
        E 23 b1 03 1a
        E 23 b1 03 56
        E 23 b1 03 55
        E 23 b1 03 65
        E 23 b1 03 54
        E 23 b1 03 2b
        E 23 b1 03 5e
        E 23 b1 03 48
        E 23 b1 03 0b
        E 23 b1 03 2c
        E 23 b1 03 36
        E 23 b1 03 60
        E 23 b1 03 4d
        E 23 b1 03 37
        E 23 b1 03 38
        E 23 b1 03 04
        E 23 b1 03 0a
        E 23 b1 03 5d
        E 23 b1 03 51
        E 23 b1 03 2b
        E 23 b1 03 1f
        E 23 b1 03 0d
        E 23 b1 03 2d
        E 23 b1 03 1e
        E 23 b1 03 18
        E 23 b1 03 26
        E 23 b1 03 34
        E 23 b1 03 3d
        E 23 b1 03 41
        E 23 b1 03 10
        E 23 b1 03 3c
        E 23 b1 03 5a
        E 23 b1 03 33
        E 23 b1 03 3b
        E 23 b1 03 02
        E 23 b1 03 07
        E 23 b1 03 63
        E 23 b1 03 42
        E 23 b1 03 12
        E 23 b1 03 5c
        E 23 b1 03 20
        E 23 b1 03 27
        E 23 b1 03 31
        E 23 b1 03 28
        E 23 b1 03 44
        E 23 b1 03 52
        E 23 b1 03 1d
        E 23 b1 03 39
        E 23 b1 03 17
        E 23 b1 03 5b
        E 23 b1 03 54
        E 23 b1 03 2e
        E 23 b1 03 24
        E 23 b1 03 50
        E 23 b1 03 25
        E 23 b1 03 47
        E 23 b1 03 0e
        E 23 b1 03 01
        E 23 b1 03 21
        E 23 b1 03 33
        E 23 b1 03 57
        E 23 b1 03 4e
        E 23 b1 03 03
        E 23 b1 03 57
        E 23 b1 03 4a
        E 23 b1 03 05
        E 23 b1 03 1f
        E 23 b1 03 3b
        E 23 b1 03 4c
        E 23 b1 03 61
        E 23 b1 03 3e
        E 23 b1 03 2a
        E 23 b1 03 1b
        E 23 b1 03 46
        E 23 b1 03 49
        E 23 b1 03 59
        E 23 b1 03 63
        E 23 b1 03 2f
        E 23 b1 03 40
        E 23 b1 03 45
        E 23 b1 03 35
        E 23 b1 03 5f
        E 23 b1 03 0f
        E 23 b1 03 24
        E 23 b1 03 43
        E 70 b1 03 16
        E 70 b1 03 4c
        E 70 b1 03 32
        E 70 b1 03 07
        E 70 b1 03 48
        E 70 b1 03 3f
        E 70 b1 03 09
        E 70 b1 03 08
        E 70 b1 03 30
        E 70 b1 03 5f
        E 70 b1 03 50
        E 70 b1 03 58
        E 70 b1 03 3f
        E 70 b1 03 0b
        E 70 b1 03 13
        E 70 b1 03 44
        E 70 b1 03 37
        E 70 b1 03 1c
        E 70 b1 03 14
        E 70 b1 03 1b
        E 70 b1 03 4f
        E 70 b1 03 2f
        E 70 b1 03 17
        E 70 b1 03 3a
        E 70 b1 03 64
        E 70 b1 03 00
        E 70 b1 03 0c
        E 70 b1 03 29
        E 70 b1 03 22
        E 70 b1 03 53
        E 70 b1 03 15
        E 70 b1 03 06
        E 70 b1 03 0f
        E 70 b1 03 11
        E 70 b1 03 5b
        E 70 b1 03 19
        E 70 b1 03 00
        E 70 b1 03 4b
        E 70 b1 03 23
        E 70 b1 03 14
        E 70 b1 03 28
        E 70 b1 03 1a
        E 70 b1 03 56
        E 70 b1 03 55
        E 70 b1 03 65
        E 70 b1 03 54
        E 70 b1 03 2b
        E 70 b1 03 5e
        E 70 b1 03 48
        E 70 b1 03 0b
        E 70 b1 03 2c
        E 70 b1 03 36
        E 70 b1 03 60
        E 70 b1 03 4d
        E 70 b1 03 37
        E 70 b1 03 38
        E 70 b1 03 04
        E 70 b1 03 0a
        E 70 b1 03 5d
        E 70 b1 03 51
        E 70 b1 03 2b
        E 70 b1 03 1f
        E 70 b1 03 0d
        E 70 b1 03 2d
        E 70 b1 03 1e
        E 70 b1 03 18
        E 70 b1 03 26
        E 70 b1 03 34
        E 70 b1 03 3d
        E 70 b1 03 41
        E 70 b1 03 10
        E 70 b1 03 3c
        E 70 b1 03 5a
        E 70 b1 03 33
        E 70 b1 03 3b
        E 70 b1 03 02
        E 70 b1 03 07
        E 70 b1 03 63
        E 70 b1 03 42
        E 70 b1 03 12
        E 70 b1 03 5c
        E 70 b1 03 20
        E 70 b1 03 27
        E 70 b1 03 31
        E 70 b1 03 28
        E 70 b1 03 44
        E 70 b1 03 52
        E 70 b1 03 1d
        E 70 b1 03 39
        E 70 b1 03 17
        E 70 b1 03 5b
        E 70 b1 03 54
        E 70 b1 03 2e
        E 70 b1 03 24
        E 70 b1 03 50
        E 70 b1 03 25
        E 70 b1 03 47
        E 70 b1 03 0e
        E 70 b1 03 01
        E 70 b1 03 21
        E 70 b1 03 33
        E 70 b1 03 57
        E 70 b1 03 4e
        E 70 b1 03 03
        E 70 b1 03 57
        E 70 b1 03 4a
        E 70 b1 03 05
        E 70 b1 03 1f
        E 70 b1 03 3b
        E 70 b1 03 4c
        E 70 b1 03 61
        E 70 b1 03 3e
        E 70 b1 03 2a
        E 70 b1 03 1b
        E 70 b1 03 46
        E 70 b1 03 49
        E 70 b1 03 59
        E 70 b1 03 63
        E 70 b1 03 2f
        E 70 b1 03 40
        E 70 b1 03 45
        E 70 b1 03 35
        E 70 b1 03 5f
        E 70 b1 03 0f
        E 70 b1 03 24
        E 70 b1 03 43
        E 15 b1 03 10
        E 15 b1 03 39
        E 15 b1 03 25
        E 15 b1 03 06
        E 15 b1 03 36
        E 15 b1 03 30
        E 15 b1 03 07
        E 15 b1 03 06
        E 15 b1 03 24
        E 15 b1 03 48
        E 15 b1 03 3c
        E 15 b1 03 42
        E 15 b1 03 2f
        E 15 b1 03 08
        E 15 b1 03 0e
        E 15 b1 03 33
        E 15 b1 03 2a
        E 15 b1 03 15
        E 15 b1 03 0f
        E 15 b1 03 14
        E 15 b1 03 3b
        E 15 b1 03 23
        E 15 b1 03 12
        E 15 b1 03 2b
        E 15 b1 03 4b
        E 15 b1 03 00
        E 15 b1 03 09
        E 15 b1 03 1f
        E 15 b1 03 19
        E 15 b1 03 3e
        E 15 b1 03 10
        E 15 b1 03 04
        E 15 b1 03 0c
        E 15 b1 03 0d
        E 15 b1 03 45
        E 15 b1 03 13
        E 15 b1 03 00
        E 15 b1 03 38
        E 15 b1 03 1a
        E 15 b1 03 0f
        E 15 b1 03 1e
        E 15 b1 03 13
        E 15 b1 03 40
        E 15 b1 03 40
        E 15 b1 03 4c
        E 15 b1 03 3f
        E 15 b1 03 21
        E 15 b1 03 46
        E 15 b1 03 36
        E 15 b1 03 09
        E 15 b1 03 21
        E 15 b1 03 28
        E 15 b1 03 48
        E 15 b1 03 3a
        E 15 b1 03 29
        E 15 b1 03 2a
        E 15 b1 03 03
        E 15 b1 03 07
        E 15 b1 03 46
        E 15 b1 03 3d
        E 15 b1 03 20
        E 15 b1 03 18
        E 15 b1 03 0a
        E 15 b1 03 22
        E 15 b1 03 16
        E 15 b1 03 12
        E 15 b1 03 1c
        E 15 b1 03 27
        E 15 b1 03 2e
        E 15 b1 03 31
        E 15 b1 03 0c
        E 15 b1 03 2d
        E 15 b1 03 43
        E 15 b1 03 27
        E 15 b1 03 2c
        E 15 b1 03 01
        E 15 b1 03 05
        E 15 b1 03 4b
        E 15 b1 03 31
        E 15 b1 03 0d
        E 15 b1 03 45
        E 15 b1 03 18
        E 15 b1 03 1d
        E 15 b1 03 25
        E 15 b1 03 1e
        E 15 b1 03 33
        E 15 b1 03 3d
        E 15 b1 03 16
        E 15 b1 03 2b
        E 15 b1 03 11
        E 15 b1 03 44
        E 15 b1 03 3f
        E 15 b1 03 22
        E 15 b1 03 1b
        E 15 b1 03 3c
        E 15 b1 03 1c
        E 15 b1 03 35
        E 15 b1 03 0a
        E 15 b1 03 01
        E 15 b1 03 19
        E 15 b1 03 26
        E 15 b1 03 41
        E 15 b1 03 3a
        E 15 b1 03 02
        E 15 b1 03 42
        E 15 b1 03 37
        E 15 b1 03 04
        E 15 b1 03 17
        E 15 b1 03 2d
        E 15 b1 03 39
        E 15 b1 03 49
        E 15 b1 03 2e
        E 15 b1 03 1f
        E 15 b1 03 15
        E 15 b1 03 34
        E 15 b1 03 37
        E 15 b1 03 43
        E 15 b1 03 4a
        E 15 b1 03 24
        E 15 b1 03 30
        E 15 b1 03 34
        E 15 b1 03 28
        E 15 b1 03 47
        E 15 b1 03 0b
        E 15 b1 03 1b
        E 15 b1 03 32
        E 70 b1 03 0b
        E 70 b1 03 26
        E 70 b1 03 19
        E 70 b1 03 04
        E 70 b1 03 24
        E 70 b1 03 20
        E 70 b1 03 04
        E 70 b1 03 04
        E 70 b1 03 18
        E 70 b1 03 30
        E 70 b1 03 28
        E 70 b1 03 2c
        E 70 b1 03 1f
        E 70 b1 03 05
        E 70 b1 03 09
        E 70 b1 03 22
        E 70 b1 03 1c
        E 70 b1 03 0e
        E 70 b1 03 0a
        E 70 b1 03 0d
        E 70 b1 03 27
        E 70 b1 03 17
        E 70 b1 03 0c
        E 70 b1 03 1d
        E 70 b1 03 32
        E 70 b1 03 00
        E 70 b1 03 06
        E 70 b1 03 14
        E 70 b1 03 11
        E 70 b1 03 29
        E 70 b1 03 0a
        E 70 b1 03 03
        E 70 b1 03 08
        E 70 b1 03 08
        E 70 b1 03 2e
        E 70 b1 03 0c
        E 70 b1 03 00
        E 70 b1 03 25
        E 70 b1 03 11
        E 70 b1 03 0a
        E 70 b1 03 14
        E 70 b1 03 0d
        E 70 b1 03 2b
        E 70 b1 03 2a
        E 70 b1 03 32
        E 70 b1 03 2a
        E 70 b1 03 16
        E 70 b1 03 2f
        E 70 b1 03 24
        E 70 b1 03 06
        E 70 b1 03 16
        E 70 b1 03 1b
        E 70 b1 03 30
        E 70 b1 03 26
        E 70 b1 03 1b
        E 70 b1 03 1c
        E 70 b1 03 02
        E 70 b1 03 05
        E 70 b1 03 2e
        E 70 b1 03 28
        E 70 b1 03 15
        E 70 b1 03 10
        E 70 b1 03 06
        E 70 b1 03 16
        E 70 b1 03 0f
        E 70 b1 03 0c
        E 70 b1 03 13
        E 70 b1 03 1a
        E 70 b1 03 1e
        E 70 b1 03 20
        E 70 b1 03 08
        E 70 b1 03 1e
        E 70 b1 03 2d
        E 70 b1 03 1a
        E 70 b1 03 1d
        E 70 b1 03 01
        E 70 b1 03 03
        E 70 b1 03 32
        E 70 b1 03 21
        E 70 b1 03 09
        E 70 b1 03 2e
        E 70 b1 03 10
        E 70 b1 03 13
        E 70 b1 03 18
        E 70 b1 03 14
        E 70 b1 03 22
        E 70 b1 03 29
        E 70 b1 03 0e
        E 70 b1 03 1c
        E 70 b1 03 0b
        E 70 b1 03 2d
        E 70 b1 03 2a
        E 70 b1 03 17
        E 70 b1 03 12
        E 70 b1 03 28
        E 70 b1 03 12
        E 70 b1 03 23
        E 70 b1 03 07
        E 70 b1 03 00
        E 70 b1 03 10
        E 70 b1 03 19
        E 70 b1 03 2b
        E 70 b1 03 27
        E 70 b1 03 01
        E 70 b1 03 2c
        E 70 b1 03 25
        E 70 b1 03 02
        E 70 b1 03 0f
        E 70 b1 03 1e
        E 70 b1 03 26
        E 70 b1 03 30
        E 70 b1 03 1f
        E 70 b1 03 15
        E 70 b1 03 0e
        E 70 b1 03 23
        E 70 b1 03 24
        E 70 b1 03 2c
        E 70 b1 03 31
        E 70 b1 03 18
        E 70 b1 03 20
        E 70 b1 03 22
        E 70 b1 03 1a
        E 70 b1 03 2f
        E 70 b1 03 07
        E 70 b1 03 12
        E 70 b1 03 21
        E 39 b1 03 13
        E 39 b1 03 43
        E 39 b1 03 2c
        E 39 b1 03 07
        E 39 b1 03 3e
        E 39 b1 03 38
        E 39 b1 03 08
        E 39 b1 03 07
        E 39 b1 03 2a
        E 39 b1 03 54
        E 39 b1 03 46
        E 39 b1 03 4d
        E 39 b1 03 37
        E 39 b1 03 09
        E 39 b1 03 10
        E 39 b1 03 3c
        E 39 b1 03 31
        E 39 b1 03 19
        E 39 b1 03 11
        E 39 b1 03 17
        E 39 b1 03 45
        E 39 b1 03 29
        E 39 b1 03 15
        E 39 b1 03 33
        E 39 b1 03 58
        E 39 b1 03 00
        E 39 b1 03 0b
        E 39 b1 03 24
        E 39 b1 03 1e
        E 39 b1 03 48
        E 39 b1 03 12
        E 39 b1 03 05
        E 39 b1 03 0e
        E 39 b1 03 0f
        E 39 b1 03 50
        E 39 b1 03 16
        E 39 b1 03 00
        E 39 b1 03 41
        E 39 b1 03 1e
        E 39 b1 03 12
        E 39 b1 03 23
        E 39 b1 03 17
        E 39 b1 03 4b
        E 39 b1 03 4a
        E 39 b1 03 58
        E 39 b1 03 4a
        E 39 b1 03 26
        E 39 b1 03 52
        E 39 b1 03 3f
        E 39 b1 03 0a
        E 39 b1 03 27
        E 39 b1 03 2f
        E 39 b1 03 54
        E 39 b1 03 43
        E 39 b1 03 30
        E 39 b1 03 31
        E 39 b1 03 04
        E 39 b1 03 09
        E 39 b1 03 51
        E 39 b1 03 47
        E 39 b1 03 25
        E 39 b1 03 1c
        E 39 b1 03 0b
        E 39 b1 03 27
        E 39 b1 03 1a
        E 39 b1 03 15
        E 39 b1 03 21
        E 39 b1 03 2e
        E 39 b1 03 35
        E 39 b1 03 39
        E 39 b1 03 0e
        E 39 b1 03 35
        E 39 b1 03 4f
        E 39 b1 03 2d
        E 39 b1 03 33
        E 39 b1 03 02
        E 39 b1 03 06
        E 39 b1 03 57
        E 39 b1 03 3a
        E 39 b1 03 10
        E 39 b1 03 51
        E 39 b1 03 1c
        E 39 b1 03 22
        E 39 b1 03 2b
        E 39 b1 03 23
        E 39 b1 03 3b
        E 39 b1 03 48
        E 39 b1 03 19
        E 39 b1 03 32
        E 39 b1 03 14
        E 39 b1 03 4f
        E 39 b1 03 49
        E 39 b1 03 28
        E 39 b1 03 20
        E 39 b1 03 46
        E 39 b1 03 20
        E 39 b1 03 3e
        E 39 b1 03 0c
        E 39 b1 03 01
        E 39 b1 03 1d
        E 39 b1 03 2c
        E 39 b1 03 4c
        E 39 b1 03 44
        E 39 b1 03 02
        E 39 b1 03 4d
        E 39 b1 03 41
        E 39 b1 03 04
        E 39 b1 03 1b
        E 39 b1 03 34
        E 39 b1 03 42
        E 39 b1 03 55
        E 39 b1 03 36
        E 39 b1 03 25
        E 39 b1 03 18
        E 39 b1 03 3d
        E 39 b1 03 40
        E 39 b1 03 4e
        E 39 b1 03 56
        E 39 b1 03 2a
        E 39 b1 03 38
        E 39 b1 03 3c
        E 39 b1 03 2e
        E 39 b1 03 53
        E 39 b1 03 0d
        E 39 b1 03 1f
        E 39 b1 03 3a
        E 13 b1 03 16
        E 13 b1 03 4c
        E 13 b1 03 32
        E 13 b1 03 07
        E 13 b1 03 48
        E 13 b1 03 3f
        E 13 b1 03 09
        E 13 b1 03 08
        E 13 b1 03 30
        E 13 b1 03 5f
        E 13 b1 03 50
        E 13 b1 03 58
        E 13 b1 03 3f
        E 13 b1 03 0b
        E 13 b1 03 13
        E 13 b1 03 44
        E 13 b1 03 37
        E 13 b1 03 1c
        E 13 b1 03 14
        E 13 b1 03 1b
        E 13 b1 03 4f
        E 13 b1 03 2f
        E 13 b1 03 17
        E 13 b1 03 3a
        E 13 b1 03 64
        E 13 b1 03 00
        E 13 b1 03 0c
        E 13 b1 03 29
        E 13 b1 03 22
        E 13 b1 03 53
        E 13 b1 03 15
        E 13 b1 03 06
        E 13 b1 03 0f
        E 13 b1 03 11
        E 13 b1 03 5b
        E 13 b1 03 19
        E 13 b1 03 00
        E 13 b1 03 4b
        E 13 b1 03 23
        E 13 b1 03 14
        E 13 b1 03 28
        E 13 b1 03 1a
        E 13 b1 03 56
        E 13 b1 03 55
        E 13 b1 03 65
        E 13 b1 03 54
        E 13 b1 03 2b
        E 13 b1 03 5e
        E 13 b1 03 48
        E 13 b1 03 0b
        E 13 b1 03 2c
        E 13 b1 03 36
        E 13 b1 03 60
        E 13 b1 03 4d
        E 13 b1 03 37
        E 13 b1 03 38
        E 13 b1 03 04
        E 13 b1 03 0a
        E 13 b1 03 5d
        E 13 b1 03 51
        E 13 b1 03 2b
        E 13 b1 03 1f
        E 13 b1 03 0d
        E 13 b1 03 2d
        E 13 b1 03 1e
        E 13 b1 03 18
        E 13 b1 03 26
        E 13 b1 03 34
        E 13 b1 03 3d
        E 13 b1 03 41
        E 13 b1 03 10
        E 13 b1 03 3c
        E 13 b1 03 5a
        E 13 b1 03 33
        E 13 b1 03 3b
        E 13 b1 03 02
        E 13 b1 03 07
        E 13 b1 03 63
        E 13 b1 03 42
        E 13 b1 03 12
        E 13 b1 03 5c
        E 13 b1 03 20
        E 13 b1 03 27
        E 13 b1 03 31
        E 13 b1 03 28
        E 13 b1 03 44
        E 13 b1 03 52
        E 13 b1 03 1d
        E 13 b1 03 39
        E 13 b1 03 17
        E 13 b1 03 5b
        E 13 b1 03 54
        E 13 b1 03 2e
        E 13 b1 03 24
        E 13 b1 03 50
        E 13 b1 03 25
        E 13 b1 03 47
        E 13 b1 03 0e
        E 13 b1 03 01
        E 13 b1 03 21
        E 13 b1 03 33
        E 13 b1 03 57
        E 13 b1 03 4e
        E 13 b1 03 03
        E 13 b1 03 57
        E 13 b1 03 4a
        E 13 b1 03 05
        E 13 b1 03 1f
        E 13 b1 03 3b
        E 13 b1 03 4c
        E 13 b1 03 61
        E 13 b1 03 3e
        E 13 b1 03 2a
        E 13 b1 03 1b
        E 13 b1 03 46
        E 13 b1 03 49
        E 13 b1 03 59
        E 13 b1 03 63
        E 13 b1 03 2f
        E 13 b1 03 40
        E 13 b1 03 45
        E 13 b1 03 35
        E 13 b1 03 5f
        E 13 b1 03 0f
        E 13 b1 03 24
        E 13 b1 03 43
        E 3 b1 03 10
        E 3 b1 03 39
        E 3 b1 03 25
        E 3 b1 03 06
        E 3 b1 03 36
        E 3 b1 03 30
        E 3 b1 03 07
        E 3 b1 03 06
        E 3 b1 03 24
        E 3 b1 03 48
        E 3 b1 03 3c
        E 3 b1 03 42
        E 3 b1 03 2f
        E 3 b1 03 08
        E 3 b1 03 0e
        E 3 b1 03 33
        E 3 b1 03 2a
        E 3 b1 03 15
        E 3 b1 03 0f
        E 3 b1 03 14
        E 3 b1 03 3b
        E 3 b1 03 23
        E 3 b1 03 12
        E 3 b1 03 2b
        E 3 b1 03 4b
        E 3 b1 03 00
        E 3 b1 03 09
        E 3 b1 03 1f
        E 3 b1 03 19
        E 3 b1 03 3e
        E 3 b1 03 10
        E 3 b1 03 04
        E 3 b1 03 0c
        E 3 b1 03 0d
        E 3 b1 03 45
        E 3 b1 03 13
        E 3 b1 03 00
        E 3 b1 03 38
        E 3 b1 03 1a
        E 3 b1 03 0f
        E 3 b1 03 1e
        E 3 b1 03 13
        E 3 b1 03 40
        E 3 b1 03 40
        E 3 b1 03 4c
        E 3 b1 03 3f
        E 3 b1 03 21
        E 3 b1 03 46
        E 3 b1 03 36
        E 3 b1 03 09
        E 3 b1 03 21
        E 3 b1 03 28
        E 3 b1 03 48
        E 3 b1 03 3a
        E 3 b1 03 29
        E 3 b1 03 2a
        E 3 b1 03 03
        E 3 b1 03 07
        E 3 b1 03 46
        E 3 b1 03 3d
        E 3 b1 03 20
        E 3 b1 03 18
        E 3 b1 03 0a
        E 3 b1 03 22
        E 3 b1 03 16
        E 3 b1 03 12
        E 3 b1 03 1c
        E 3 b1 03 27
        E 3 b1 03 2e
        E 3 b1 03 31
        E 3 b1 03 0c
        E 3 b1 03 2d
        E 3 b1 03 43
        E 3 b1 03 27
        E 3 b1 03 2c
        E 3 b1 03 01
        E 3 b1 03 05
        E 3 b1 03 4b
        E 3 b1 03 31
        E 3 b1 03 0d
        E 3 b1 03 45
        E 3 b1 03 18
        E 3 b1 03 1d
        E 3 b1 03 25
        E 3 b1 03 1e
        E 3 b1 03 33
        E 3 b1 03 3d
        E 3 b1 03 16
        E 3 b1 03 2b
        E 3 b1 03 11
        E 3 b1 03 44
        E 3 b1 03 3f
        E 3 b1 03 22
        E 3 b1 03 1b
        E 3 b1 03 3c
        E 3 b1 03 1c
        E 3 b1 03 35
        E 3 b1 03 0a
        E 3 b1 03 01
        E 3 b1 03 19
        E 3 b1 03 26
        E 3 b1 03 41
        E 3 b1 03 3a
        E 3 b1 03 02
        E 3 b1 03 42
        E 3 b1 03 37
        E 3 b1 03 04
        E 3 b1 03 17
        E 3 b1 03 2d
        E 3 b1 03 39
        E 3 b1 03 49
        E 3 b1 03 2e
        E 3 b1 03 1f
        E 3 b1 03 15
        E 3 b1 03 34
        E 3 b1 03 37
        E 3 b1 03 43
        E 3 b1 03 4a
        E 3 b1 03 24
        E 3 b1 03 30
        E 3 b1 03 34
        E 3 b1 03 28
        E 3 b1 03 47
        E 3 b1 03 0b
        E 3 b1 03 1b
        E 3 b1 03 32
        E 13 b1 03 0b
        E 13 b1 03 26
        E 13 b1 03 19
        E 13 b1 03 04
        E 13 b1 03 24
        E 13 b1 03 20
        E 13 b1 03 04
        E 13 b1 03 04
        E 13 b1 03 18
        E 13 b1 03 30
        E 13 b1 03 28
        E 13 b1 03 2c
        E 13 b1 03 1f
        E 13 b1 03 05
        E 13 b1 03 09
        E 13 b1 03 22
        E 13 b1 03 1c
        E 13 b1 03 0e
        E 13 b1 03 0a
        E 13 b1 03 0d
        E 13 b1 03 27
        E 13 b1 03 17
        E 13 b1 03 0c
        E 13 b1 03 1d
        E 13 b1 03 32
        E 13 b1 03 00
        E 13 b1 03 06
        E 13 b1 03 14
        E 13 b1 03 11
        E 13 b1 03 29
        E 13 b1 03 0a
        E 13 b1 03 03
        E 13 b1 03 08
        E 13 b1 03 08
        E 13 b1 03 2e
        E 13 b1 03 0c
        E 13 b1 03 00
        E 13 b1 03 25
        E 13 b1 03 11
        E 13 b1 03 0a
        E 13 b1 03 14
        E 13 b1 03 0d
        E 13 b1 03 2b
        E 13 b1 03 2a
        E 13 b1 03 32
        E 13 b1 03 2a
        E 13 b1 03 16
        E 13 b1 03 2f
        E 13 b1 03 24
        E 13 b1 03 06
        E 13 b1 03 16
        E 13 b1 03 1b
        E 13 b1 03 30
        E 13 b1 03 26
        E 13 b1 03 1b
        E 13 b1 03 1c
        E 13 b1 03 02
        E 13 b1 03 05
        E 13 b1 03 2e
        E 13 b1 03 28
        E 13 b1 03 15
        E 13 b1 03 10
        E 13 b1 03 06
        E 13 b1 03 16
        E 13 b1 03 0f
        E 13 b1 03 0c
        E 13 b1 03 13
        E 13 b1 03 1a
        E 13 b1 03 1e
        E 13 b1 03 20
        E 13 b1 03 08
        E 13 b1 03 1e
        E 13 b1 03 2d
        E 13 b1 03 1a
        E 13 b1 03 1d
        E 13 b1 03 01
        E 13 b1 03 03
        E 13 b1 03 32
        E 13 b1 03 21
        E 13 b1 03 09
        E 13 b1 03 2e
        E 13 b1 03 10
        E 13 b1 03 13
        E 13 b1 03 18
        E 13 b1 03 14
        E 13 b1 03 22
        E 13 b1 03 29
        E 13 b1 03 0e
        E 13 b1 03 1c
        E 13 b1 03 0b
        E 13 b1 03 2d
        E 13 b1 03 2a
        E 13 b1 03 17
        E 13 b1 03 12
        E 13 b1 03 28
        E 13 b1 03 12
        E 13 b1 03 23
        E 13 b1 03 07
        E 13 b1 03 00
        E 13 b1 03 10
        E 13 b1 03 19
        E 13 b1 03 2b
        E 13 b1 03 27
        E 13 b1 03 01
        E 13 b1 03 2c
        E 13 b1 03 25
        E 13 b1 03 02
        E 13 b1 03 0f
        E 13 b1 03 1e
        E 13 b1 03 26
        E 13 b1 03 30
        E 13 b1 03 1f
        E 13 b1 03 15
        E 13 b1 03 0e
        E 13 b1 03 23
        E 13 b1 03 24
        E 13 b1 03 2c
        E 13 b1 03 31
        E 13 b1 03 18
        E 13 b1 03 20
        E 13 b1 03 22
        E 13 b1 03 1a
        E 13 b1 03 2f
        E 13 b1 03 07
        E 13 b1 03 12
        E 13 b1 03 21
        E 7 b1 03 13
        E 7 b1 03 43
        E 7 b1 03 2c
        E 7 b1 03 07
        E 7 b1 03 3e
        E 7 b1 03 38
        E 7 b1 03 08
        E 7 b1 03 07
        E 7 b1 03 2a
        E 7 b1 03 54
        E 7 b1 03 46
        E 7 b1 03 4d
        E 7 b1 03 37
        E 7 b1 03 09
        E 7 b1 03 10
        E 7 b1 03 3c
        E 7 b1 03 31
        E 7 b1 03 19
        E 7 b1 03 11
        E 7 b1 03 17
        E 7 b1 03 45
        E 7 b1 03 29
        E 7 b1 03 15
        E 7 b1 03 33
        E 7 b1 03 58
        E 7 b1 03 00
        E 7 b1 03 0b
        E 7 b1 03 24
        E 7 b1 03 1e
        E 7 b1 03 48
        E 7 b1 03 12
        E 7 b1 03 05
        E 7 b1 03 0e
        E 7 b1 03 0f
        E 7 b1 03 50
        E 7 b1 03 16
        E 7 b1 03 00
        E 7 b1 03 41
        E 7 b1 03 1e
        E 7 b1 03 12
        E 7 b1 03 23
        E 7 b1 03 17
        E 7 b1 03 4b
        E 7 b1 03 4a
        E 7 b1 03 58
        E 7 b1 03 4a
        E 7 b1 03 26
        E 7 b1 03 52
        E 7 b1 03 3f
        E 7 b1 03 0a
        E 7 b1 03 27
        E 7 b1 03 2f
        E 7 b1 03 54
        E 7 b1 03 43
        E 7 b1 03 30
        E 7 b1 03 31
        E 7 b1 03 04
        E 7 b1 03 09
        E 7 b1 03 51
        E 7 b1 03 47
        E 7 b1 03 25
        E 7 b1 03 1c
        E 7 b1 03 0b
        E 7 b1 03 27
        E 7 b1 03 1a
        E 7 b1 03 15
        E 7 b1 03 21
        E 7 b1 03 2e
        E 7 b1 03 35
        E 7 b1 03 39
        E 7 b1 03 0e
        E 7 b1 03 35
        E 7 b1 03 4f
        E 7 b1 03 2d
        E 7 b1 03 33
        E 7 b1 03 02
        E 7 b1 03 06
        E 7 b1 03 57
        E 7 b1 03 3a
        E 7 b1 03 10
        E 7 b1 03 51
        E 7 b1 03 1c
        E 7 b1 03 22
        E 7 b1 03 2b
        E 7 b1 03 23
        E 7 b1 03 3b
        E 7 b1 03 48
        E 7 b1 03 19
        E 7 b1 03 32
        E 7 b1 03 14
        E 7 b1 03 4f
        E 7 b1 03 49
        E 7 b1 03 28
        E 7 b1 03 20
        E 7 b1 03 46
        E 7 b1 03 20
        E 7 b1 03 3e
        E 7 b1 03 0c
        E 7 b1 03 01
        E 7 b1 03 1d
        E 7 b1 03 2c
        E 7 b1 03 4c
        E 7 b1 03 44
        E 7 b1 03 02
        E 7 b1 03 4d
        E 7 b1 03 41
        E 7 b1 03 04
        E 7 b1 03 1b
        E 7 b1 03 34
        E 7 b1 03 42
        E 7 b1 03 55
        E 7 b1 03 36
        E 7 b1 03 25
        E 7 b1 03 18
        E 7 b1 03 3d
        E 7 b1 03 40
        E 7 b1 03 4e
        E 7 b1 03 56
        E 7 b1 03 2a
        E 7 b1 03 38
        E 7 b1 03 3c
        E 7 b1 03 2e
        E 7 b1 03 53
        E 7 b1 03 0d
        E 7 b1 03 1f
        E 7 b1 03 3a
        E 1 b1 03 0b
        E 1 b1 03 26
        E 1 b1 03 19
        E 1 b1 03 04
        E 1 b1 03 24
        E 1 b1 03 20
        E 1 b1 03 04
        E 1 b1 03 04
        E 1 b1 03 18
        E 1 b1 03 30
        E 1 b1 03 28
        E 1 b1 03 2c
        E 1 b1 03 1f
        E 1 b1 03 05
        E 1 b1 03 09
        E 1 b1 03 22
        E 1 b1 03 1c
        E 1 b1 03 0e
        E 1 b1 03 0a
        E 1 b1 03 0d
        E 1 b1 03 27
        E 1 b1 03 17
        E 1 b1 03 0c
        E 1 b1 03 1d
        E 1 b1 03 32
        E 1 b1 03 00
        E 1 b1 03 06
        E 1 b1 03 14
        E 1 b1 03 11
        E 1 b1 03 29
        E 1 b1 03 0a
        E 1 b1 03 03
        E 1 b1 03 08
        E 1 b1 03 08
        E 1 b1 03 2e
        E 1 b1 03 0c
        E 1 b1 03 00
        E 1 b1 03 25
        E 1 b1 03 11
        E 1 b1 03 0a
        E 1 b1 03 14
        E 1 b1 03 0d
        E 1 b1 03 2b
        E 1 b1 03 2a
        E 1 b1 03 32
        E 1 b1 03 2a
        E 1 b1 03 16
        E 1 b1 03 2f
        E 1 b1 03 24
        E 1 b1 03 06
        E 1 b1 03 16
        E 1 b1 03 1b
        E 1 b1 03 30
        E 1 b1 03 26
        E 1 b1 03 1b
        E 1 b1 03 1c
        E 1 b1 03 02
        E 1 b1 03 05
        E 1 b1 03 2e
        E 1 b1 03 28
        E 1 b1 03 15
        E 1 b1 03 10
        E 1 b1 03 06
        E 1 b1 03 16
        E 1 b1 03 0f
        E 1 b1 03 0c
        E 1 b1 03 13
        E 1 b1 03 1a
        E 1 b1 03 1e
        E 1 b1 03 20
        E 1 b1 03 08
        E 1 b1 03 1e
        E 1 b1 03 2d
        E 1 b1 03 1a
        E 1 b1 03 1d
        E 1 b1 03 01
        E 1 b1 03 03
        E 1 b1 03 32
        E 1 b1 03 21
        E 1 b1 03 09
        E 1 b1 03 2e
        E 1 b1 03 10
        E 1 b1 03 13
        E 1 b1 03 18
        E 1 b1 03 14
        E 1 b1 03 22
        E 1 b1 03 29
        E 1 b1 03 0e
        E 1 b1 03 1c
        E 1 b1 03 0b
        E 1 b1 03 2d
        E 1 b1 03 2a
        E 1 b1 03 17
        E 1 b1 03 12
        E 1 b1 03 28
        E 1 b1 03 12
        E 1 b1 03 23
        E 1 b1 03 07
        E 1 b1 03 00
        E 1 b1 03 10
        E 1 b1 03 19
        E 1 b1 03 2b
        E 1 b1 03 27
        E 1 b1 03 01
        E 1 b1 03 2c
        E 1 b1 03 25
        E 1 b1 03 02
        E 1 b1 03 0f
        E 1 b1 03 1e
        E 1 b1 03 26
        E 1 b1 03 30
        E 1 b1 03 1f
        E 1 b1 03 15
        E 1 b1 03 0e
        E 1 b1 03 23
        E 1 b1 03 24
        E 1 b1 03 2c
        E 1 b1 03 31
        E 1 b1 03 18
        E 1 b1 03 20
        E 1 b1 03 22
        E 1 b1 03 1a
        E 1 b1 03 2f
        E 1 b1 03 07
        E 1 b1 03 12
        E 1 b1 03 21
        E 4 b1 03 16
        E 4 b1 03 4c
        E 4 b1 03 32
        E 4 b1 03 07
        E 4 b1 03 48
        E 4 b1 03 3f
        E 4 b1 03 09
        E 4 b1 03 08
        E 4 b1 03 30
        E 4 b1 03 5f
        E 4 b1 03 50
        E 4 b1 03 58
        E 4 b1 03 3f
        E 4 b1 03 0b
        E 4 b1 03 13
        E 4 b1 03 44
        E 4 b1 03 37
        E 4 b1 03 1c
        E 4 b1 03 14
        E 4 b1 03 1b
        E 4 b1 03 4f
        E 4 b1 03 2f
        E 4 b1 03 17
        E 4 b1 03 3a
        E 4 b1 03 64
        E 4 b1 03 00
        E 4 b1 03 0c
        E 4 b1 03 29
        E 4 b1 03 22
        E 4 b1 03 53
        E 4 b1 03 15
        E 4 b1 03 06
        E 4 b1 03 0f
        E 4 b1 03 11
        E 4 b1 03 5b
        E 4 b1 03 19
        E 4 b1 03 00
        E 4 b1 03 4b
        E 4 b1 03 23
        E 4 b1 03 14
        E 4 b1 03 28
        E 4 b1 03 1a
        E 4 b1 03 56
        E 4 b1 03 55
        E 4 b1 03 65
        E 4 b1 03 54
        E 4 b1 03 2b
        E 4 b1 03 5e
        E 4 b1 03 48
        E 4 b1 03 0b
        E 4 b1 03 2c
        E 4 b1 03 36
        E 4 b1 03 60
        E 4 b1 03 4d
        E 4 b1 03 37
        E 4 b1 03 38
        E 4 b1 03 04
        E 4 b1 03 0a
        E 4 b1 03 5d
        E 4 b1 03 51
        E 4 b1 03 2b
        E 4 b1 03 1f
        E 4 b1 03 0d
        E 4 b1 03 2d
        E 4 b1 03 1e
        E 4 b1 03 18
        E 4 b1 03 26
        E 4 b1 03 34
        E 4 b1 03 3d
        E 4 b1 03 41
        E 4 b1 03 10
        E 4 b1 03 3c
        E 4 b1 03 5a
        E 4 b1 03 33
        E 4 b1 03 3b
        E 4 b1 03 02
        E 4 b1 03 07
        E 4 b1 03 63
        E 4 b1 03 42
        E 4 b1 03 12
        E 4 b1 03 5c
        E 4 b1 03 20
        E 4 b1 03 27
        E 4 b1 03 31
        E 4 b1 03 28
        E 4 b1 03 44
        E 4 b1 03 52
        E 4 b1 03 1d
        E 4 b1 03 39
        E 4 b1 03 17
        E 4 b1 03 5b
        E 4 b1 03 54
        E 4 b1 03 2e
        E 4 b1 03 24
        E 4 b1 03 50
        E 4 b1 03 25
        E 4 b1 03 47
        E 4 b1 03 0e
        E 4 b1 03 01
        E 4 b1 03 21
        E 4 b1 03 33
        E 4 b1 03 57
        E 4 b1 03 4e
        E 4 b1 03 03
        E 4 b1 03 57
        E 4 b1 03 4a
        E 4 b1 03 05
        E 4 b1 03 1f
        E 4 b1 03 3b
        E 4 b1 03 4c
        E 4 b1 03 61
        E 4 b1 03 3e
        E 4 b1 03 2a
        E 4 b1 03 1b
        E 4 b1 03 46
        E 4 b1 03 49
        E 4 b1 03 59
        E 4 b1 03 63
        E 4 b1 03 2f
        E 4 b1 03 40
        E 4 b1 03 45
        E 4 b1 03 35
        E 4 b1 03 5f
        E 4 b1 03 0f
        E 4 b1 03 24
        E 4 b1 03 43
        E 13 b1 03 16
        E 13 b1 03 4c
        E 13 b1 03 32
        E 13 b1 03 07
        E 13 b1 03 48
        E 13 b1 03 3f
        E 13 b1 03 09
        E 13 b1 03 08
        E 13 b1 03 30
        E 13 b1 03 5f
        E 13 b1 03 50
        E 13 b1 03 58
        E 13 b1 03 3f
        E 13 b1 03 0b
        E 13 b1 03 13
        E 13 b1 03 44
        E 13 b1 03 37
        E 13 b1 03 1c
        E 13 b1 03 14
        E 13 b1 03 1b
        E 13 b1 03 4f
        E 13 b1 03 2f
        E 13 b1 03 17
        E 13 b1 03 3a
        E 13 b1 03 64
        E 13 b1 03 00
        E 13 b1 03 0c
        E 13 b1 03 29
        E 13 b1 03 22
        E 13 b1 03 53
        E 13 b1 03 15
        E 13 b1 03 06
        E 13 b1 03 0f
        E 13 b1 03 11
        E 13 b1 03 5b
        E 13 b1 03 19
        E 13 b1 03 00
        E 13 b1 03 4b
        E 13 b1 03 23
        E 13 b1 03 14
        E 13 b1 03 28
        E 13 b1 03 1a
        E 13 b1 03 56
        E 13 b1 03 55
        E 13 b1 03 65
        E 13 b1 03 54
        E 13 b1 03 2b
        E 13 b1 03 5e
        E 13 b1 03 48
        E 13 b1 03 0b
        E 13 b1 03 2c
        E 13 b1 03 36
        E 13 b1 03 60
        E 13 b1 03 4d
        E 13 b1 03 37
        E 13 b1 03 38
        E 13 b1 03 04
        E 13 b1 03 0a
        E 13 b1 03 5d
        E 13 b1 03 51
        E 13 b1 03 2b
        E 13 b1 03 1f
        E 13 b1 03 0d
        E 13 b1 03 2d
        E 13 b1 03 1e
        E 13 b1 03 18
        E 13 b1 03 26
        E 13 b1 03 34
        E 13 b1 03 3d
        E 13 b1 03 41
        E 13 b1 03 10
        E 13 b1 03 3c
        E 13 b1 03 5a
        E 13 b1 03 33
        E 13 b1 03 3b
        E 13 b1 03 02
        E 13 b1 03 07
        E 13 b1 03 63
        E 13 b1 03 42
        E 13 b1 03 12
        E 13 b1 03 5c
        E 13 b1 03 20
        E 13 b1 03 27
        E 13 b1 03 31
        E 13 b1 03 28
        E 13 b1 03 44
        E 13 b1 03 52
        E 13 b1 03 1d
        E 13 b1 03 39
        E 13 b1 03 17
        E 13 b1 03 5b
        E 13 b1 03 54
        E 13 b1 03 2e
        E 13 b1 03 24
        E 13 b1 03 50
        E 13 b1 03 25
        E 13 b1 03 47
        E 13 b1 03 0e
        E 13 b1 03 01
        E 13 b1 03 21
        E 13 b1 03 33
        E 13 b1 03 57
        E 13 b1 03 4e
        E 13 b1 03 03
        E 13 b1 03 57
        E 13 b1 03 4a
        E 13 b1 03 05
        E 13 b1 03 1f
        E 13 b1 03 3b
        E 13 b1 03 4c
        E 13 b1 03 61
        E 13 b1 03 3e
        E 13 b1 03 2a
        E 13 b1 03 1b
        E 13 b1 03 46
        E 13 b1 03 49
        E 13 b1 03 59
        E 13 b1 03 63
        E 13 b1 03 2f
        E 13 b1 03 40
        E 13 b1 03 45
        E 13 b1 03 35
        E 13 b1 03 5f
        E 13 b1 03 0f
        E 13 b1 03 24
        E 13 b1 03 43
        E 3 b1 03 10
        E 3 b1 03 39
        E 3 b1 03 25
        E 3 b1 03 06
        E 3 b1 03 36
        E 3 b1 03 30
        E 3 b1 03 07
        E 3 b1 03 06
        E 3 b1 03 24
        E 3 b1 03 48
        E 3 b1 03 3c
        E 3 b1 03 42
        E 3 b1 03 2f
        E 3 b1 03 08
        E 3 b1 03 0e
        E 3 b1 03 33
        E 3 b1 03 2a
        E 3 b1 03 15
        E 3 b1 03 0f
        E 3 b1 03 14
        E 3 b1 03 3b
        E 3 b1 03 23
        E 3 b1 03 12
        E 3 b1 03 2b
        E 3 b1 03 4b
        E 3 b1 03 00
        E 3 b1 03 09
        E 3 b1 03 1f
        E 3 b1 03 19
        E 3 b1 03 3e
        E 3 b1 03 10
        E 3 b1 03 04
        E 3 b1 03 0c
        E 3 b1 03 0d
        E 3 b1 03 45
        E 3 b1 03 13
        E 3 b1 03 00
        E 3 b1 03 38
        E 3 b1 03 1a
        E 3 b1 03 0f
        E 3 b1 03 1e
        E 3 b1 03 13
        E 3 b1 03 40
        E 3 b1 03 40
        E 3 b1 03 4c
        E 3 b1 03 3f
        E 3 b1 03 21
        E 3 b1 03 46
        E 3 b1 03 36
        E 3 b1 03 09
        E 3 b1 03 21
        E 3 b1 03 28
        E 3 b1 03 48
        E 3 b1 03 3a
        E 3 b1 03 29
        E 3 b1 03 2a
        E 3 b1 03 03
        E 3 b1 03 07
        E 3 b1 03 46
        E 3 b1 03 3d
        E 3 b1 03 20
        E 3 b1 03 18
        E 3 b1 03 0a
        E 3 b1 03 22
        E 3 b1 03 16
        E 3 b1 03 12
        E 3 b1 03 1c
        E 3 b1 03 27
        E 3 b1 03 2e
        E 3 b1 03 31
        E 3 b1 03 0c
        E 3 b1 03 2d
        E 3 b1 03 43
        E 3 b1 03 27
        E 3 b1 03 2c
        E 3 b1 03 01
        E 3 b1 03 05
        E 3 b1 03 4b
        E 3 b1 03 31
        E 3 b1 03 0d
        E 3 b1 03 45
        E 3 b1 03 18
        E 3 b1 03 1d
        E 3 b1 03 25
        E 3 b1 03 1e
        E 3 b1 03 33
        E 3 b1 03 3d
        E 3 b1 03 16
        E 3 b1 03 2b
        E 3 b1 03 11
        E 3 b1 03 44
        E 3 b1 03 3f
        E 3 b1 03 22
        E 3 b1 03 1b
        E 3 b1 03 3c
        E 3 b1 03 1c
        E 3 b1 03 35
        E 3 b1 03 0a
        E 3 b1 03 01
        E 3 b1 03 19
        E 3 b1 03 26
        E 3 b1 03 41
        E 3 b1 03 3a
        E 3 b1 03 02
        E 3 b1 03 42
        E 3 b1 03 37
        E 3 b1 03 04
        E 3 b1 03 17
        E 3 b1 03 2d
        E 3 b1 03 39
        E 3 b1 03 49
        E 3 b1 03 2e
        E 3 b1 03 1f
        E 3 b1 03 15
        E 3 b1 03 34
        E 3 b1 03 37
        E 3 b1 03 43
        E 3 b1 03 4a
        E 3 b1 03 24
        E 3 b1 03 30
        E 3 b1 03 34
        E 3 b1 03 28
        E 3 b1 03 47
        E 3 b1 03 0b
        E 3 b1 03 1b
        E 3 b1 03 32
        E 13 b1 03 0b
        E 13 b1 03 26
        E 13 b1 03 19
        E 13 b1 03 04
        E 13 b1 03 24
        E 13 b1 03 20
        E 13 b1 03 04
        E 13 b1 03 04
        E 13 b1 03 18
        E 13 b1 03 30
        E 13 b1 03 28
        E 13 b1 03 2c
        E 13 b1 03 1f
        E 13 b1 03 05
        E 13 b1 03 09
        E 13 b1 03 22
        E 13 b1 03 1c
        E 13 b1 03 0e
        E 13 b1 03 0a
        E 13 b1 03 0d
        E 13 b1 03 27
        E 13 b1 03 17
        E 13 b1 03 0c
        E 13 b1 03 1d
        E 13 b1 03 32
        E 13 b1 03 00
        E 13 b1 03 06
        E 13 b1 03 14
        E 13 b1 03 11
        E 13 b1 03 29
        E 13 b1 03 0a
        E 13 b1 03 03
        E 13 b1 03 08
        E 13 b1 03 08
        E 13 b1 03 2e
        E 13 b1 03 0c
        E 13 b1 03 00
        E 13 b1 03 25
        E 13 b1 03 11
        E 13 b1 03 0a
        E 13 b1 03 14
        E 13 b1 03 0d
        E 13 b1 03 2b
        E 13 b1 03 2a
        E 13 b1 03 32
        E 13 b1 03 2a
        E 13 b1 03 16
        E 13 b1 03 2f
        E 13 b1 03 24
        E 13 b1 03 06
        E 13 b1 03 16
        E 13 b1 03 1b
        E 13 b1 03 30
        E 13 b1 03 26
        E 13 b1 03 1b
        E 13 b1 03 1c
        E 13 b1 03 02
        E 13 b1 03 05
        E 13 b1 03 2e
        E 13 b1 03 28
        E 13 b1 03 15
        E 13 b1 03 10
        E 13 b1 03 06
        E 13 b1 03 16
        E 13 b1 03 0f
        E 13 b1 03 0c
        E 13 b1 03 13
        E 13 b1 03 1a
        E 13 b1 03 1e
        E 13 b1 03 20
        E 13 b1 03 08
        E 13 b1 03 1e
        E 13 b1 03 2d
        E 13 b1 03 1a
        E 13 b1 03 1d
        E 13 b1 03 01
        E 13 b1 03 03
        E 13 b1 03 32
        E 13 b1 03 21
        E 13 b1 03 09
        E 13 b1 03 2e
        E 13 b1 03 10
        E 13 b1 03 13
        E 13 b1 03 18
        E 13 b1 03 14
        E 13 b1 03 22
        E 13 b1 03 29
        E 13 b1 03 0e
        E 13 b1 03 1c
        E 13 b1 03 0b
        E 13 b1 03 2d
        E 13 b1 03 2a
        E 13 b1 03 17
        E 13 b1 03 12
        E 13 b1 03 28
        E 13 b1 03 12
        E 13 b1 03 23
        E 13 b1 03 07
        E 13 b1 03 00
        E 13 b1 03 10
        E 13 b1 03 19
        E 13 b1 03 2b
        E 13 b1 03 27
        E 13 b1 03 01
        E 13 b1 03 2c
        E 13 b1 03 25
        E 13 b1 03 02
        E 13 b1 03 0f
        E 13 b1 03 1e
        E 13 b1 03 26
        E 13 b1 03 30
        E 13 b1 03 1f
        E 13 b1 03 15
        E 13 b1 03 0e
        E 13 b1 03 23
        E 13 b1 03 24
        E 13 b1 03 2c
        E 13 b1 03 31
        E 13 b1 03 18
        E 13 b1 03 20
        E 13 b1 03 22
        E 13 b1 03 1a
        E 13 b1 03 2f
        E 13 b1 03 07
        E 13 b1 03 12
        E 13 b1 03 21
        E 7 b1 03 13
        E 7 b1 03 43
        E 7 b1 03 2c
        E 7 b1 03 07
        E 7 b1 03 3e
        E 7 b1 03 38
        E 7 b1 03 08
        E 7 b1 03 07
        E 7 b1 03 2a
        E 7 b1 03 54
        E 7 b1 03 46
        E 7 b1 03 4d
        E 7 b1 03 37
        E 7 b1 03 09
        E 7 b1 03 10
        E 7 b1 03 3c
        E 7 b1 03 31
        E 7 b1 03 19
        E 7 b1 03 11
        E 7 b1 03 17
        E 7 b1 03 45
        E 7 b1 03 29
        E 7 b1 03 15
        E 7 b1 03 33
        E 7 b1 03 58
        E 7 b1 03 00
        E 7 b1 03 0b
        E 7 b1 03 24
        E 7 b1 03 1e
        E 7 b1 03 48
        E 7 b1 03 12
        E 7 b1 03 05
        E 7 b1 03 0e
        E 7 b1 03 0f
        E 7 b1 03 50
        E 7 b1 03 16
        E 7 b1 03 00
        E 7 b1 03 41
        E 7 b1 03 1e
        E 7 b1 03 12
        E 7 b1 03 23
        E 7 b1 03 17
        E 7 b1 03 4b
        E 7 b1 03 4a
        E 7 b1 03 58
        E 7 b1 03 4a
        E 7 b1 03 26
        E 7 b1 03 52
        E 7 b1 03 3f
        E 7 b1 03 0a
        E 7 b1 03 27
        E 7 b1 03 2f
        E 7 b1 03 54
        E 7 b1 03 43
        E 7 b1 03 30
        E 7 b1 03 31
        E 7 b1 03 04
        E 7 b1 03 09
        E 7 b1 03 51
        E 7 b1 03 47
        E 7 b1 03 25
        E 7 b1 03 1c
        E 7 b1 03 0b
        E 7 b1 03 27
        E 7 b1 03 1a
        E 7 b1 03 15
        E 7 b1 03 21
        E 7 b1 03 2e
        E 7 b1 03 35
        E 7 b1 03 39
        E 7 b1 03 0e
        E 7 b1 03 35
        E 7 b1 03 4f
        E 7 b1 03 2d
        E 7 b1 03 33
        E 7 b1 03 02
        E 7 b1 03 06
        E 7 b1 03 57
        E 7 b1 03 3a
        E 7 b1 03 10
        E 7 b1 03 51
        E 7 b1 03 1c
        E 7 b1 03 22
        E 7 b1 03 2b
        E 7 b1 03 23
        E 7 b1 03 3b
        E 7 b1 03 48
        E 7 b1 03 19
        E 7 b1 03 32
        E 7 b1 03 14
        E 7 b1 03 4f
        E 7 b1 03 49
        E 7 b1 03 28
        E 7 b1 03 20
        E 7 b1 03 46
        E 7 b1 03 20
        E 7 b1 03 3e
        E 7 b1 03 0c
        E 7 b1 03 01
        E 7 b1 03 1d
        E 7 b1 03 2c
        E 7 b1 03 4c
        E 7 b1 03 44
        E 7 b1 03 02
        E 7 b1 03 4d
        E 7 b1 03 41
        E 7 b1 03 04
        E 7 b1 03 1b
        E 7 b1 03 34
        E 7 b1 03 42
        E 7 b1 03 55
        E 7 b1 03 36
        E 7 b1 03 25
        E 7 b1 03 18
        E 7 b1 03 3d
        E 7 b1 03 40
        E 7 b1 03 4e
        E 7 b1 03 56
        E 7 b1 03 2a
        E 7 b1 03 38
        E 7 b1 03 3c
        E 7 b1 03 2e
        E 7 b1 03 53
        E 7 b1 03 0d
        E 7 b1 03 1f
        E 7 b1 03 3a
        E 1 b1 03 0b
        E 1 b1 03 26
        E 1 b1 03 19
        E 1 b1 03 04
        E 1 b1 03 24
        E 1 b1 03 20
        E 1 b1 03 04
        E 1 b1 03 04
        E 1 b1 03 18
        E 1 b1 03 30
        E 1 b1 03 28
        E 1 b1 03 2c
        E 1 b1 03 1f
        E 1 b1 03 05
        E 1 b1 03 09
        E 1 b1 03 22
        E 1 b1 03 1c
        E 1 b1 03 0e
        E 1 b1 03 0a
        E 1 b1 03 0d
        E 1 b1 03 27
        E 1 b1 03 17
        E 1 b1 03 0c
        E 1 b1 03 1d
        E 1 b1 03 32
        E 1 b1 03 00
        E 1 b1 03 06
        E 1 b1 03 14
        E 1 b1 03 11
        E 1 b1 03 29
        E 1 b1 03 0a
        E 1 b1 03 03
        E 1 b1 03 08
        E 1 b1 03 08
        E 1 b1 03 2e
        E 1 b1 03 0c
        E 1 b1 03 00
        E 1 b1 03 25
        E 1 b1 03 11
        E 1 b1 03 0a
        E 1 b1 03 14
        E 1 b1 03 0d
        E 1 b1 03 2b
        E 1 b1 03 2a
        E 1 b1 03 32
        E 1 b1 03 2a
        E 1 b1 03 16
        E 1 b1 03 2f
        E 1 b1 03 24
        E 1 b1 03 06
        E 1 b1 03 16
        E 1 b1 03 1b
        E 1 b1 03 30
        E 1 b1 03 26
        E 1 b1 03 1b
        E 1 b1 03 1c
        E 1 b1 03 02
        E 1 b1 03 05
        E 1 b1 03 2e
        E 1 b1 03 28
        E 1 b1 03 15
        E 1 b1 03 10
        E 1 b1 03 06
        E 1 b1 03 16
        E 1 b1 03 0f
        E 1 b1 03 0c
        E 1 b1 03 13
        E 1 b1 03 1a
        E 1 b1 03 1e
        E 1 b1 03 20
        E 1 b1 03 08
        E 1 b1 03 1e
        E 1 b1 03 2d
        E 1 b1 03 1a
        E 1 b1 03 1d
        E 1 b1 03 01
        E 1 b1 03 03
        E 1 b1 03 32
        E 1 b1 03 21
        E 1 b1 03 09
        E 1 b1 03 2e
        E 1 b1 03 10
        E 1 b1 03 13
        E 1 b1 03 18
        E 1 b1 03 14
        E 1 b1 03 22
        E 1 b1 03 29
        E 1 b1 03 0e
        E 1 b1 03 1c
        E 1 b1 03 0b
        E 1 b1 03 2d
        E 1 b1 03 2a
        E 1 b1 03 17
        E 1 b1 03 12
        E 1 b1 03 28
        E 1 b1 03 12
        E 1 b1 03 23
        E 1 b1 03 07
        E 1 b1 03 00
        E 1 b1 03 10
        E 1 b1 03 19
        E 1 b1 03 2b
        E 1 b1 03 27
        E 1 b1 03 01
        E 1 b1 03 2c
        E 1 b1 03 25
        E 1 b1 03 02
        E 1 b1 03 0f
        E 1 b1 03 1e
        E 1 b1 03 26
        E 1 b1 03 30
        E 1 b1 03 1f
        E 1 b1 03 15
        E 1 b1 03 0e
        E 1 b1 03 23
        E 1 b1 03 24
        E 1 b1 03 2c
        E 1 b1 03 31
        E 1 b1 03 18
        E 1 b1 03 20
        E 1 b1 03 22
        E 1 b1 03 1a
        E 1 b1 03 2f
        E 1 b1 03 07
        E 1 b1 03 12
        E 1 b1 03 21
        E 4 b1 03 16
        E 4 b1 03 4c
        E 4 b1 03 32
        E 4 b1 03 07
        E 4 b1 03 48
        E 4 b1 03 3f
        E 4 b1 03 09
        E 4 b1 03 08
        E 4 b1 03 30
        E 4 b1 03 5f
        E 4 b1 03 50
        E 4 b1 03 58
        E 4 b1 03 3f
        E 4 b1 03 0b
        E 4 b1 03 13
        E 4 b1 03 44
        E 4 b1 03 37
        E 4 b1 03 1c
        E 4 b1 03 14
        E 4 b1 03 1b
        E 4 b1 03 4f
        E 4 b1 03 2f
        E 4 b1 03 17
        E 4 b1 03 3a
        E 4 b1 03 64
        E 4 b1 03 00
        E 4 b1 03 0c
        E 4 b1 03 29
        E 4 b1 03 22
        E 4 b1 03 53
        E 4 b1 03 15
        E 4 b1 03 06
        E 4 b1 03 0f
        E 4 b1 03 11
        E 4 b1 03 5b
        E 4 b1 03 19
        E 4 b1 03 00
        E 4 b1 03 4b
        E 4 b1 03 23
        E 4 b1 03 14
        E 4 b1 03 28
        E 4 b1 03 1a
        E 4 b1 03 56
        E 4 b1 03 55
        E 4 b1 03 65
        E 4 b1 03 54
        E 4 b1 03 2b
        E 4 b1 03 5e
        E 4 b1 03 48
        E 4 b1 03 0b
        E 4 b1 03 2c
        E 4 b1 03 36
        E 4 b1 03 60
        E 4 b1 03 4d
        E 4 b1 03 37
        E 4 b1 03 38
        E 4 b1 03 04
        E 4 b1 03 0a
        E 4 b1 03 5d
        E 4 b1 03 51
        E 4 b1 03 2b
        E 4 b1 03 1f
        E 4 b1 03 0d
        E 4 b1 03 2d
        E 4 b1 03 1e
        E 4 b1 03 18
        E 4 b1 03 26
        E 4 b1 03 34
        E 4 b1 03 3d
        E 4 b1 03 41
        E 4 b1 03 10
        E 4 b1 03 3c
        E 4 b1 03 5a
        E 4 b1 03 33
        E 4 b1 03 3b
        E 4 b1 03 02
        E 4 b1 03 07
        E 4 b1 03 63
        E 4 b1 03 42
        E 4 b1 03 12
        E 4 b1 03 5c
        E 4 b1 03 20
        E 4 b1 03 27
        E 4 b1 03 31
        E 4 b1 03 28
        E 4 b1 03 44
        E 4 b1 03 52
        E 4 b1 03 1d
        E 4 b1 03 39
        E 4 b1 03 17
        E 4 b1 03 5b
        E 4 b1 03 54
        E 4 b1 03 2e
        E 4 b1 03 24
        E 4 b1 03 50
        E 4 b1 03 25
        E 4 b1 03 47
        E 4 b1 03 0e
        E 4 b1 03 01
        E 4 b1 03 21
        E 4 b1 03 33
        E 4 b1 03 57
        E 4 b1 03 4e
        E 4 b1 03 03
        E 4 b1 03 57
        E 4 b1 03 4a
        E 4 b1 03 05
        E 4 b1 03 1f
        E 4 b1 03 3b
        E 4 b1 03 4c
        E 4 b1 03 61
        E 4 b1 03 3e
        E 4 b1 03 2a
        E 4 b1 03 1b
        E 4 b1 03 46
        E 4 b1 03 49
        E 4 b1 03 59
        E 4 b1 03 63
        E 4 b1 03 2f
        E 4 b1 03 40
        E 4 b1 03 45
        E 4 b1 03 35
        E 4 b1 03 5f
        E 4 b1 03 0f
        E 4 b1 03 24
        E 4 b1 03 43
        E 13 b1 03 16
        E 13 b1 03 4c
        E 13 b1 03 32
        E 13 b1 03 07
        E 13 b1 03 48
        E 13 b1 03 3f
        E 13 b1 03 09
        E 13 b1 03 08
        E 13 b1 03 30
        E 13 b1 03 5f
        E 13 b1 03 50
        E 13 b1 03 58
        E 13 b1 03 3f
        E 13 b1 03 0b
        E 13 b1 03 13
        E 13 b1 03 44
        E 13 b1 03 37
        E 13 b1 03 1c
        E 13 b1 03 14
        E 13 b1 03 1b
        E 13 b1 03 4f
        E 13 b1 03 2f
        E 13 b1 03 17
        E 13 b1 03 3a
        E 13 b1 03 64
        E 13 b1 03 00
        E 13 b1 03 0c
        E 13 b1 03 29
        E 13 b1 03 22
        E 13 b1 03 53
        E 13 b1 03 15
        E 13 b1 03 06
        E 13 b1 03 0f
        E 13 b1 03 11
        E 13 b1 03 5b
        E 13 b1 03 19
        E 13 b1 03 00
        E 13 b1 03 4b
        E 13 b1 03 23
        E 13 b1 03 14
        E 13 b1 03 28
        E 13 b1 03 1a
        E 13 b1 03 56
        E 13 b1 03 55
        E 13 b1 03 65
        E 13 b1 03 54
        E 13 b1 03 2b
        E 13 b1 03 5e
        E 13 b1 03 48
        E 13 b1 03 0b
        E 13 b1 03 2c
        E 13 b1 03 36
        E 13 b1 03 60
        E 13 b1 03 4d
        E 13 b1 03 37
        E 13 b1 03 38
        E 13 b1 03 04
        E 13 b1 03 0a
        E 13 b1 03 5d
        E 13 b1 03 51
        E 13 b1 03 2b
        E 13 b1 03 1f
        E 13 b1 03 0d
        E 13 b1 03 2d
        E 13 b1 03 1e
        E 13 b1 03 18
        E 13 b1 03 26
        E 13 b1 03 34
        E 13 b1 03 3d
        E 13 b1 03 41
        E 13 b1 03 10
        E 13 b1 03 3c
        E 13 b1 03 5a
        E 13 b1 03 33
        E 13 b1 03 3b
        E 13 b1 03 02
        E 13 b1 03 07
        E 13 b1 03 63
        E 13 b1 03 42
        E 13 b1 03 12
        E 13 b1 03 5c
        E 13 b1 03 20
        E 13 b1 03 27
        E 13 b1 03 31
        E 13 b1 03 28
        E 13 b1 03 44
        E 13 b1 03 52
        E 13 b1 03 1d
        E 13 b1 03 39
        E 13 b1 03 17
        E 13 b1 03 5b
        E 13 b1 03 54
        E 13 b1 03 2e
        E 13 b1 03 24
        E 13 b1 03 50
        E 13 b1 03 25
        E 13 b1 03 47
        E 13 b1 03 0e
        E 13 b1 03 01
        E 13 b1 03 21
        E 13 b1 03 33
        E 13 b1 03 57
        E 13 b1 03 4e
        E 13 b1 03 03
        E 13 b1 03 57
        E 13 b1 03 4a
        E 13 b1 03 05
        E 13 b1 03 1f
        E 13 b1 03 3b
        E 13 b1 03 4c
        E 13 b1 03 61
        E 13 b1 03 3e
        E 13 b1 03 2a
        E 13 b1 03 1b
        E 13 b1 03 46
        E 13 b1 03 49
        E 13 b1 03 59
        E 13 b1 03 63
        E 13 b1 03 2f
        E 13 b1 03 40
        E 13 b1 03 45
        E 13 b1 03 35
        E 13 b1 03 5f
        E 13 b1 03 0f
        E 13 b1 03 24
        E 13 b1 03 43
        E 3 b1 03 10
        E 3 b1 03 39
        E 3 b1 03 25
        E 3 b1 03 06
        E 3 b1 03 36
        E 3 b1 03 30
        E 3 b1 03 07
        E 3 b1 03 06
        E 3 b1 03 24
        E 3 b1 03 48
        E 3 b1 03 3c
        E 3 b1 03 42
        E 3 b1 03 2f
        E 3 b1 03 08
        E 3 b1 03 0e
        E 3 b1 03 33
        E 3 b1 03 2a
        E 3 b1 03 15
        E 3 b1 03 0f
        E 3 b1 03 14
        E 3 b1 03 3b
        E 3 b1 03 23
        E 3 b1 03 12
        E 3 b1 03 2b
        E 3 b1 03 4b
        E 3 b1 03 00
        E 3 b1 03 09
        E 3 b1 03 1f
        E 3 b1 03 19
        E 3 b1 03 3e
        E 3 b1 03 10
        E 3 b1 03 04
        E 3 b1 03 0c
        E 3 b1 03 0d
        E 3 b1 03 45
        E 3 b1 03 13
        E 3 b1 03 00
        E 3 b1 03 38
        E 3 b1 03 1a
        E 3 b1 03 0f
        E 3 b1 03 1e
        E 3 b1 03 13
        E 3 b1 03 40
        E 3 b1 03 40
        E 3 b1 03 4c
        E 3 b1 03 3f
        E 3 b1 03 21
        E 3 b1 03 46
        E 3 b1 03 36
        E 3 b1 03 09
        E 3 b1 03 21
        E 3 b1 03 28
        E 3 b1 03 48
        E 3 b1 03 3a
        E 3 b1 03 29
        E 3 b1 03 2a
        E 3 b1 03 03
        E 3 b1 03 07
        E 3 b1 03 46
        E 3 b1 03 3d
        E 3 b1 03 20
        E 3 b1 03 18
        E 3 b1 03 0a
        E 3 b1 03 22
        E 3 b1 03 16
        E 3 b1 03 12
        E 3 b1 03 1c
        E 3 b1 03 27
        E 3 b1 03 2e
        E 3 b1 03 31
        E 3 b1 03 0c
        E 3 b1 03 2d
        E 3 b1 03 43
        E 3 b1 03 27
        E 3 b1 03 2c
        E 3 b1 03 01
        E 3 b1 03 05
        E 3 b1 03 4b
        E 3 b1 03 31
        E 3 b1 03 0d
        E 3 b1 03 45
        E 3 b1 03 18
        E 3 b1 03 1d
        E 3 b1 03 25
        E 3 b1 03 1e
        E 3 b1 03 33
        E 3 b1 03 3d
        E 3 b1 03 16
        E 3 b1 03 2b
        E 3 b1 03 11
        E 3 b1 03 44
        E 3 b1 03 3f
        E 3 b1 03 22
        E 3 b1 03 1b
        E 3 b1 03 3c
        E 3 b1 03 1c
        E 3 b1 03 35
        E 3 b1 03 0a
        E 3 b1 03 01
        E 3 b1 03 19
        E 3 b1 03 26
        E 3 b1 03 41
        E 3 b1 03 3a
        E 3 b1 03 02
        E 3 b1 03 42
        E 3 b1 03 37
        E 3 b1 03 04
        E 3 b1 03 17
        E 3 b1 03 2d
        E 3 b1 03 39
        E 3 b1 03 49
        E 3 b1 03 2e
        E 3 b1 03 1f
        E 3 b1 03 15
        E 3 b1 03 34
        E 3 b1 03 37
        E 3 b1 03 43
        E 3 b1 03 4a
        E 3 b1 03 24
        E 3 b1 03 30
        E 3 b1 03 34
        E 3 b1 03 28
        E 3 b1 03 47
        E 3 b1 03 0b
        E 3 b1 03 1b
        E 3 b1 03 32
        E 13 b1 03 0b
        E 13 b1 03 26
        E 13 b1 03 19
        E 13 b1 03 04
        E 13 b1 03 24
        E 13 b1 03 20
        E 13 b1 03 04
        E 13 b1 03 04
        E 13 b1 03 18
        E 13 b1 03 30
        E 13 b1 03 28
        E 13 b1 03 2c
        E 13 b1 03 1f
        E 13 b1 03 05
        E 13 b1 03 09
        E 13 b1 03 22
        E 13 b1 03 1c
        E 13 b1 03 0e
        E 13 b1 03 0a
        E 13 b1 03 0d
        E 13 b1 03 27
        E 13 b1 03 17
        E 13 b1 03 0c
        E 13 b1 03 1d
        E 13 b1 03 32
        E 13 b1 03 00
        E 13 b1 03 06
        E 13 b1 03 14
        E 13 b1 03 11
        E 13 b1 03 29
        E 13 b1 03 0a
        E 13 b1 03 03
        E 13 b1 03 08
        E 13 b1 03 08
        E 13 b1 03 2e
        E 13 b1 03 0c
        E 13 b1 03 00
        E 13 b1 03 25
        E 13 b1 03 11
        E 13 b1 03 0a
        E 13 b1 03 14
        E 13 b1 03 0d
        E 13 b1 03 2b
        E 13 b1 03 2a
        E 13 b1 03 32
        E 13 b1 03 2a
        E 13 b1 03 16
        E 13 b1 03 2f
        E 13 b1 03 24
        E 13 b1 03 06
        E 13 b1 03 16
        E 13 b1 03 1b
        E 13 b1 03 30
        E 13 b1 03 26
        E 13 b1 03 1b
        E 13 b1 03 1c
        E 13 b1 03 02
        E 13 b1 03 05
        E 13 b1 03 2e
        E 13 b1 03 28
        E 13 b1 03 15
        E 13 b1 03 10
        E 13 b1 03 06
        E 13 b1 03 16
        E 13 b1 03 0f
        E 13 b1 03 0c
        E 13 b1 03 13
        E 13 b1 03 1a
        E 13 b1 03 1e
        E 13 b1 03 20
        E 13 b1 03 08
        E 13 b1 03 1e
        E 13 b1 03 2d
        E 13 b1 03 1a
        E 13 b1 03 1d
        E 13 b1 03 01
        E 13 b1 03 03
        E 13 b1 03 32
        E 13 b1 03 21
        E 13 b1 03 09
        E 13 b1 03 2e
        E 13 b1 03 10
        E 13 b1 03 13
        E 13 b1 03 18
        E 13 b1 03 14
        E 13 b1 03 22
        E 13 b1 03 29
        E 13 b1 03 0e
        E 13 b1 03 1c
        E 13 b1 03 0b
        E 13 b1 03 2d
        E 13 b1 03 2a
        E 13 b1 03 17
        E 13 b1 03 12
        E 13 b1 03 28
        E 13 b1 03 12
        E 13 b1 03 23
        E 13 b1 03 07
        E 13 b1 03 00
        E 13 b1 03 10
        E 13 b1 03 19
        E 13 b1 03 2b
        E 13 b1 03 27
        E 13 b1 03 01
        E 13 b1 03 2c
        E 13 b1 03 25
        E 13 b1 03 02
        E 13 b1 03 0f
        E 13 b1 03 1e
        E 13 b1 03 26
        E 13 b1 03 30
        E 13 b1 03 1f
        E 13 b1 03 15
        E 13 b1 03 0e
        E 13 b1 03 23
        E 13 b1 03 24
        E 13 b1 03 2c
        E 13 b1 03 31
        E 13 b1 03 18
        E 13 b1 03 20
        E 13 b1 03 22
        E 13 b1 03 1a
        E 13 b1 03 2f
        E 13 b1 03 07
        E 13 b1 03 12
        E 13 b1 03 21
        E 7 b1 03 13
        E 7 b1 03 43
        E 7 b1 03 2c
        E 7 b1 03 07
        E 7 b1 03 3e
        E 7 b1 03 38
        E 7 b1 03 08
        E 7 b1 03 07
        E 7 b1 03 2a
        E 7 b1 03 54
        E 7 b1 03 46
        E 7 b1 03 4d
        E 7 b1 03 37
        E 7 b1 03 09
        E 7 b1 03 10
        E 7 b1 03 3c
        E 7 b1 03 31
        E 7 b1 03 19
        E 7 b1 03 11
        E 7 b1 03 17
        E 7 b1 03 45
        E 7 b1 03 29
        E 7 b1 03 15
        E 7 b1 03 33
        E 7 b1 03 58
        E 7 b1 03 00
        E 7 b1 03 0b
        E 7 b1 03 24
        E 7 b1 03 1e
        E 7 b1 03 48
        E 7 b1 03 12
        E 7 b1 03 05
        E 7 b1 03 0e
        E 7 b1 03 0f
        E 7 b1 03 50
        E 7 b1 03 16
        E 7 b1 03 00
        E 7 b1 03 41
        E 7 b1 03 1e
        E 7 b1 03 12
        E 7 b1 03 23
        E 7 b1 03 17
        E 7 b1 03 4b
        E 7 b1 03 4a
        E 7 b1 03 58
        E 7 b1 03 4a
        E 7 b1 03 26
        E 7 b1 03 52
        E 7 b1 03 3f
        E 7 b1 03 0a
        E 7 b1 03 27
        E 7 b1 03 2f
        E 7 b1 03 54
        E 7 b1 03 43
        E 7 b1 03 30
        E 7 b1 03 31
        E 7 b1 03 04
        E 7 b1 03 09
        E 7 b1 03 51
        E 7 b1 03 47
        E 7 b1 03 25
        E 7 b1 03 1c
        E 7 b1 03 0b
        E 7 b1 03 27
        E 7 b1 03 1a
        E 7 b1 03 15
        E 7 b1 03 21
        E 7 b1 03 2e
        E 7 b1 03 35
        E 7 b1 03 39
        E 7 b1 03 0e
        E 7 b1 03 35
        E 7 b1 03 4f
        E 7 b1 03 2d
        E 7 b1 03 33
        E 7 b1 03 02
        E 7 b1 03 06
        E 7 b1 03 57
        E 7 b1 03 3a
        E 7 b1 03 10
        E 7 b1 03 51
        E 7 b1 03 1c
        E 7 b1 03 22
        E 7 b1 03 2b
        E 7 b1 03 23
        E 7 b1 03 3b
        E 7 b1 03 48
        E 7 b1 03 19
        E 7 b1 03 32
        E 7 b1 03 14
        E 7 b1 03 4f
        E 7 b1 03 49
        E 7 b1 03 28
        E 7 b1 03 20
        E 7 b1 03 46
        E 7 b1 03 20
        E 7 b1 03 3e
        E 7 b1 03 0c
        E 7 b1 03 01
        E 7 b1 03 1d
        E 7 b1 03 2c
        E 7 b1 03 4c
        E 7 b1 03 44
        E 7 b1 03 02
        E 7 b1 03 4d
        E 7 b1 03 41
        E 7 b1 03 04
        E 7 b1 03 1b
        E 7 b1 03 34
        E 7 b1 03 42
        E 7 b1 03 55
        E 7 b1 03 36
        E 7 b1 03 25
        E 7 b1 03 18
        E 7 b1 03 3d
        E 7 b1 03 40
        E 7 b1 03 4e
        E 7 b1 03 56
        E 7 b1 03 2a
        E 7 b1 03 38
        E 7 b1 03 3c
        E 7 b1 03 2e
        E 7 b1 03 53
        E 7 b1 03 0d
        E 7 b1 03 1f
        E 7 b1 03 3a
        E 1 b1 03 0b
        E 1 b1 03 26
        E 1 b1 03 19
        E 1 b1 03 04
        E 1 b1 03 24
        E 1 b1 03 20
        E 1 b1 03 04
        E 1 b1 03 04
        E 1 b1 03 18
        E 1 b1 03 30
        E 1 b1 03 28
        E 1 b1 03 2c
        E 1 b1 03 1f
        E 1 b1 03 05
        E 1 b1 03 09
        E 1 b1 03 22
        E 1 b1 03 1c
        E 1 b1 03 0e
        E 1 b1 03 0a
        E 1 b1 03 0d
        E 1 b1 03 27
        E 1 b1 03 17
        E 1 b1 03 0c
        E 1 b1 03 1d
        E 1 b1 03 32
        E 1 b1 03 00
        E 1 b1 03 06
        E 1 b1 03 14
        E 1 b1 03 11
        E 1 b1 03 29
        E 1 b1 03 0a
        E 1 b1 03 03
        E 1 b1 03 08
        E 1 b1 03 08
        E 1 b1 03 2e
        E 1 b1 03 0c
        E 1 b1 03 00
        E 1 b1 03 25
        E 1 b1 03 11
        E 1 b1 03 0a
        E 1 b1 03 14
        E 1 b1 03 0d
        E 1 b1 03 2b
        E 1 b1 03 2a
        E 1 b1 03 32
        E 1 b1 03 2a
        E 1 b1 03 16
        E 1 b1 03 2f
        E 1 b1 03 24
        E 1 b1 03 06
        E 1 b1 03 16
        E 1 b1 03 1b
        E 1 b1 03 30
        E 1 b1 03 26
        E 1 b1 03 1b
        E 1 b1 03 1c
        E 1 b1 03 02
        E 1 b1 03 05
        E 1 b1 03 2e
        E 1 b1 03 28
        E 1 b1 03 15
        E 1 b1 03 10
        E 1 b1 03 06
        E 1 b1 03 16
        E 1 b1 03 0f
        E 1 b1 03 0c
        E 1 b1 03 13
        E 1 b1 03 1a
        E 1 b1 03 1e
        E 1 b1 03 20
        E 1 b1 03 08
        E 1 b1 03 1e
        E 1 b1 03 2d
        E 1 b1 03 1a
        E 1 b1 03 1d
        E 1 b1 03 01
        E 1 b1 03 03
        E 1 b1 03 32
        E 1 b1 03 21
        E 1 b1 03 09
        E 1 b1 03 2e
        E 1 b1 03 10
        E 1 b1 03 13
        E 1 b1 03 18
        E 1 b1 03 14
        E 1 b1 03 22
        E 1 b1 03 29
        E 1 b1 03 0e
        E 1 b1 03 1c
        E 1 b1 03 0b
        E 1 b1 03 2d
        E 1 b1 03 2a
        E 1 b1 03 17
        E 1 b1 03 12
        E 1 b1 03 28
        E 1 b1 03 12
        E 1 b1 03 23
        E 1 b1 03 07
        E 1 b1 03 00
        E 1 b1 03 10
        E 1 b1 03 19
        E 1 b1 03 2b
        E 1 b1 03 27
        E 1 b1 03 01
        E 1 b1 03 2c
        E 1 b1 03 25
        E 1 b1 03 02
        E 1 b1 03 0f
        E 1 b1 03 1e
        E 1 b1 03 26
        E 1 b1 03 30
        E 1 b1 03 1f
        E 1 b1 03 15
        E 1 b1 03 0e
        E 1 b1 03 23
        E 1 b1 03 24
        E 1 b1 03 2c
        E 1 b1 03 31
        E 1 b1 03 18
        E 1 b1 03 20
        E 1 b1 03 22
        E 1 b1 03 1a
        E 1 b1 03 2f
        E 1 b1 03 07
        E 1 b1 03 12
        E 1 b1 03 21
        E 4 b1 03 16
        E 4 b1 03 4c
        E 4 b1 03 32
        E 4 b1 03 07
        E 4 b1 03 48
        E 4 b1 03 3f
        E 4 b1 03 09
        E 4 b1 03 08
        E 4 b1 03 30
        E 4 b1 03 5f
        E 4 b1 03 50
        E 4 b1 03 58
        E 4 b1 03 3f
        E 4 b1 03 0b
        E 4 b1 03 13
        E 4 b1 03 44
        E 4 b1 03 37
        E 4 b1 03 1c
        E 4 b1 03 14
        E 4 b1 03 1b
        E 4 b1 03 4f
        E 4 b1 03 2f
        E 4 b1 03 17
        E 4 b1 03 3a
        E 4 b1 03 64
        E 4 b1 03 00
        E 4 b1 03 0c
        E 4 b1 03 29
        E 4 b1 03 22
        E 4 b1 03 53
        E 4 b1 03 15
        E 4 b1 03 06
        E 4 b1 03 0f
        E 4 b1 03 11
        E 4 b1 03 5b
        E 4 b1 03 19
        E 4 b1 03 00
        E 4 b1 03 4b
        E 4 b1 03 23
        E 4 b1 03 14
        E 4 b1 03 28
        E 4 b1 03 1a
        E 4 b1 03 56
        E 4 b1 03 55
        E 4 b1 03 65
        E 4 b1 03 54
        E 4 b1 03 2b
        E 4 b1 03 5e
        E 4 b1 03 48
        E 4 b1 03 0b
        E 4 b1 03 2c
        E 4 b1 03 36
        E 4 b1 03 60
        E 4 b1 03 4d
        E 4 b1 03 37
        E 4 b1 03 38
        E 4 b1 03 04
        E 4 b1 03 0a
        E 4 b1 03 5d
        E 4 b1 03 51
        E 4 b1 03 2b
        E 4 b1 03 1f
        E 4 b1 03 0d
        E 4 b1 03 2d
        E 4 b1 03 1e
        E 4 b1 03 18
        E 4 b1 03 26
        E 4 b1 03 34
        E 4 b1 03 3d
        E 4 b1 03 41
        E 4 b1 03 10
        E 4 b1 03 3c
        E 4 b1 03 5a
        E 4 b1 03 33
        E 4 b1 03 3b
        E 4 b1 03 02
        E 4 b1 03 07
        E 4 b1 03 63
        E 4 b1 03 42
        E 4 b1 03 12
        E 4 b1 03 5c
        E 4 b1 03 20
        E 4 b1 03 27
        E 4 b1 03 31
        E 4 b1 03 28
        E 4 b1 03 44
        E 4 b1 03 52
        E 4 b1 03 1d
        E 4 b1 03 39
        E 4 b1 03 17
        E 4 b1 03 5b
        E 4 b1 03 54
        E 4 b1 03 2e
        E 4 b1 03 24
        E 4 b1 03 50
        E 4 b1 03 25
        E 4 b1 03 47
        E 4 b1 03 0e
        E 4 b1 03 01
        E 4 b1 03 21
        E 4 b1 03 33
        E 4 b1 03 57
        E 4 b1 03 4e
        E 4 b1 03 03
        E 4 b1 03 57
        E 4 b1 03 4a
        E 4 b1 03 05
        E 4 b1 03 1f
        E 4 b1 03 3b
        E 4 b1 03 4c
        E 4 b1 03 61
        E 4 b1 03 3e
        E 4 b1 03 2a
        E 4 b1 03 1b
        E 4 b1 03 46
        E 4 b1 03 49
        E 4 b1 03 59
        E 4 b1 03 63
        E 4 b1 03 2f
        E 4 b1 03 40
        E 4 b1 03 45
        E 4 b1 03 35
        E 4 b1 03 5f
        E 4 b1 03 0f
        E 4 b1 03 24
        E 4 b1 03 43
        E 13 b1 03 16
        E 13 b1 03 4c
        E 13 b1 03 32
        E 13 b1 03 07
        E 13 b1 03 48
        E 13 b1 03 3f
        E 13 b1 03 09
        E 13 b1 03 08
        E 13 b1 03 30
        E 13 b1 03 5f
        E 13 b1 03 50
        E 13 b1 03 58
        E 13 b1 03 3f
        E 13 b1 03 0b
        E 13 b1 03 13
        E 13 b1 03 44
        E 13 b1 03 37
        E 13 b1 03 1c
        E 13 b1 03 14
        E 13 b1 03 1b
        E 13 b1 03 4f
        E 13 b1 03 2f
        E 13 b1 03 17
        E 13 b1 03 3a
        E 13 b1 03 64
        E 13 b1 03 00
        E 13 b1 03 0c
        E 13 b1 03 29
        E 13 b1 03 22
        E 13 b1 03 53
        E 13 b1 03 15
        E 13 b1 03 06
        E 13 b1 03 0f
        E 13 b1 03 11
        E 13 b1 03 5b
        E 13 b1 03 19
        E 13 b1 03 00
        E 13 b1 03 4b
        E 13 b1 03 23
        E 13 b1 03 14
        E 13 b1 03 28
        E 13 b1 03 1a
        E 13 b1 03 56
        E 13 b1 03 55
        E 13 b1 03 65
        E 13 b1 03 54
        E 13 b1 03 2b
        E 13 b1 03 5e
        E 13 b1 03 48
        E 13 b1 03 0b
        E 13 b1 03 2c
        E 13 b1 03 36
        E 13 b1 03 60
        E 13 b1 03 4d
        E 13 b1 03 37
        E 13 b1 03 38
        E 13 b1 03 04
        E 13 b1 03 0a
        E 13 b1 03 5d
        E 13 b1 03 51
        E 13 b1 03 2b
        E 13 b1 03 1f
        E 13 b1 03 0d
        E 13 b1 03 2d
        E 13 b1 03 1e
        E 13 b1 03 18
        E 13 b1 03 26
        E 13 b1 03 34
        E 13 b1 03 3d
        E 13 b1 03 41
        E 13 b1 03 10
        E 13 b1 03 3c
        E 13 b1 03 5a
        E 13 b1 03 33
        E 13 b1 03 3b
        E 13 b1 03 02
        E 13 b1 03 07
        E 13 b1 03 63
        E 13 b1 03 42
        E 13 b1 03 12
        E 13 b1 03 5c
        E 13 b1 03 20
        E 13 b1 03 27
        E 13 b1 03 31
        E 13 b1 03 28
        E 13 b1 03 44
        E 13 b1 03 52
        E 13 b1 03 1d
        E 13 b1 03 39
        E 13 b1 03 17
        E 13 b1 03 5b
        E 13 b1 03 54
        E 13 b1 03 2e
        E 13 b1 03 24
        E 13 b1 03 50
        E 13 b1 03 25
        E 13 b1 03 47
        E 13 b1 03 0e
        E 13 b1 03 01
        E 13 b1 03 21
        E 13 b1 03 33
        E 13 b1 03 57
        E 13 b1 03 4e
        E 13 b1 03 03
        E 13 b1 03 57
        E 13 b1 03 4a
        E 13 b1 03 05
        E 13 b1 03 1f
        E 13 b1 03 3b
        E 13 b1 03 4c
        E 13 b1 03 61
        E 13 b1 03 3e
        E 13 b1 03 2a
        E 13 b1 03 1b
        E 13 b1 03 46
        E 13 b1 03 49
        E 13 b1 03 59
        E 13 b1 03 63
        E 13 b1 03 2f
        E 13 b1 03 40
        E 13 b1 03 45
        E 13 b1 03 35
        E 13 b1 03 5f
        E 13 b1 03 0f
        E 13 b1 03 24
        E 13 b1 03 43
        E 10 b1 03 01
        E 10 b1 03 02
        E 10 b1 03 04
        E 10 b1 03 05
        E 10 b1 03 07
        E 10 b1 03 08
        E 10 b1 03 09
        E 10 b1 03 0b
        E 10 b1 03 0c
        E 10 b1 03 0e
        E 10 b1 03 0f
        E 10 b1 03 10
        E 10 b1 03 12
        E 10 b1 03 13
        E 10 b1 03 15
        E 10 b1 03 16
        E 10 b1 03 17
        E 10 b1 03 19
        E 10 b1 03 1a
        E 10 b1 03 1c
        E 10 b1 03 1d
        E 10 b1 03 1e
        E 10 b1 03 20
        E 10 b1 03 21
        E 10 b1 03 23
        E 10 b1 03 24
        E 10 b1 03 25
        E 10 b1 03 27
        E 10 b1 03 28
        E 10 b1 03 2a
        E 10 b1 03 2b
        E 10 b1 03 2c
        E 10 b1 03 2e
        E 10 b1 03 2f
        E 10 b1 03 31
        E 10 b1 03 32
        E 10 b1 03 33
        E 10 b1 03 35
        E 10 b1 03 36
        E 10 b1 03 38
        E 10 b1 03 39
        E 10 b1 03 3a
        E 10 b1 03 3c
        E 10 b1 03 3d
        E 10 b1 03 3e
        E 10 b1 03 40
        E 10 b1 03 41
        E 10 b1 03 43
        E 10 b1 03 44
        E 10 b1 03 46
        E 10 b1 03 47
        E 10 b1 03 48
        E 10 b1 03 4a
        E 10 b1 03 4b
        E 10 b1 03 4d
        E 10 b1 03 4e
        E 10 b1 03 4f
        E 10 b1 03 51
        E 10 b1 03 52
        E 10 b1 03 54
        E 10 b1 03 55
        E 10 b1 03 56
        E 10 b1 03 58
        E 10 b1 03 58
        E 10 b1 03 58
        E 10 b1 03 56
        E 10 b1 03 55
        E 10 b1 03 54
        E 10 b1 03 52
        E 10 b1 03 51
        E 10 b1 03 4f
        E 10 b1 03 4e
        E 10 b1 03 4d
        E 10 b1 03 4b
        E 10 b1 03 4a
        E 10 b1 03 48
        E 10 b1 03 47
        E 10 b1 03 46
        E 10 b1 03 44
        E 10 b1 03 43
        E 10 b1 03 41
        E 10 b1 03 40
        E 10 b1 03 3e
        E 10 b1 03 3d
        E 10 b1 03 3c
        E 10 b1 03 3a
        E 10 b1 03 39
        E 10 b1 03 38
        E 10 b1 03 36
        E 10 b1 03 35
        E 10 b1 03 33
        E 10 b1 03 32
        E 10 b1 03 31
        E 10 b1 03 2f
        E 10 b1 03 2e
        E 10 b1 03 2c
        E 10 b1 03 2b
        E 10 b1 03 2a
        E 10 b1 03 28
        E 10 b1 03 27
        E 10 b1 03 25
        E 10 b1 03 24
        E 10 b1 03 23
        E 10 b1 03 21
        E 10 b1 03 20
        E 10 b1 03 1e
        E 10 b1 03 1d
        E 10 b1 03 1c
        E 10 b1 03 1a
        E 10 b1 03 19
        E 10 b1 03 17
        E 10 b1 03 16
        E 10 b1 03 15
        E 10 b1 03 13
        E 10 b1 03 12
        E 10 b1 03 10
        E 10 b1 03 0f
        E 10 b1 03 0e
        E 10 b1 03 0c
        E 10 b1 03 0b
        E 10 b1 03 09
        E 10 b1 03 08
        E 10 b1 03 07
        E 10 b1 03 05
        E 10 b1 03 04
        E 10 b1 03 02
        E 10 b1 03 01
        E 10 b1 03 00
        E 2 b1 03 00
        E 2 b1 03 01
        E 2 b1 03 02
        E 2 b1 03 03
        E 2 b1 03 04
        E 2 b1 03 04
        E 2 b1 03 05
        E 2 b1 03 06
        E 2 b1 03 07
        E 2 b1 03 08
        E 2 b1 03 08
        E 2 b1 03 09
        E 2 b1 03 0a
        E 2 b1 03 0b
        E 2 b1 03 0c
        E 2 b1 03 0c
        E 2 b1 03 0d
        E 2 b1 03 0e
        E 2 b1 03 0f
        E 2 b1 03 10
        E 2 b1 03 10
        E 2 b1 03 11
        E 2 b1 03 12
        E 2 b1 03 13
        E 2 b1 03 14
        E 2 b1 03 14
        E 2 b1 03 15
        E 2 b1 03 16
        E 2 b1 03 17
        E 2 b1 03 18
        E 2 b1 03 18
        E 2 b1 03 19
        E 2 b1 03 1a
        E 2 b1 03 1b
        E 2 b1 03 1c
        E 2 b1 03 1c
        E 2 b1 03 1d
        E 2 b1 03 1e
        E 2 b1 03 1f
        E 2 b1 03 20
        E 2 b1 03 20
        E 2 b1 03 21
        E 2 b1 03 22
        E 2 b1 03 23
        E 2 b1 03 24
        E 2 b1 03 24
        E 2 b1 03 25
        E 2 b1 03 26
        E 2 b1 03 27
        E 2 b1 03 28
        E 2 b1 03 28
        E 2 b1 03 29
        E 2 b1 03 2a
        E 2 b1 03 2b
        E 2 b1 03 2c
        E 2 b1 03 2c
        E 2 b1 03 2d
        E 2 b1 03 2e
        E 2 b1 03 2f
        E 2 b1 03 30
        E 2 b1 03 30
        E 2 b1 03 31
        E 2 b1 03 32
        E 2 b1 03 32
        E 2 b1 03 32
        E 2 b1 03 31
        E 2 b1 03 30
        E 2 b1 03 30
        E 2 b1 03 2f
        E 2 b1 03 2e
        E 2 b1 03 2d
        E 2 b1 03 2c
        E 2 b1 03 2c
        E 2 b1 03 2b
        E 2 b1 03 2a
        E 2 b1 03 29
        E 2 b1 03 28
        E 2 b1 03 28
        E 2 b1 03 27
        E 2 b1 03 26
        E 2 b1 03 25
        E 2 b1 03 24
        E 2 b1 03 24
        E 2 b1 03 23
        E 2 b1 03 22
        E 2 b1 03 21
        E 2 b1 03 20
        E 2 b1 03 20
        E 2 b1 03 1f
        E 2 b1 03 1e
        E 2 b1 03 1d
        E 2 b1 03 1c
        E 2 b1 03 1c
        E 2 b1 03 1b
        E 2 b1 03 1a
        E 2 b1 03 19
        E 2 b1 03 18
        E 2 b1 03 18
        E 2 b1 03 17
        E 2 b1 03 16
        E 2 b1 03 15
        E 2 b1 03 14
        E 2 b1 03 14
        E 2 b1 03 13
        E 2 b1 03 12
        E 2 b1 03 11
        E 2 b1 03 10
        E 2 b1 03 10
        E 2 b1 03 0f
        E 2 b1 03 0e
        E 2 b1 03 0d
        E 2 b1 03 0c
        E 2 b1 03 0c
        E 2 b1 03 0b
        E 2 b1 03 0a
        E 2 b1 03 09
        E 2 b1 03 08
        E 2 b1 03 08
        E 2 b1 03 07
        E 2 b1 03 06
        E 2 b1 03 05
        E 2 b1 03 04
        E 2 b1 03 04
        E 2 b1 03 03
        E 2 b1 03 02
        E 2 b1 03 01
        E 2 b1 03 00
        E 2 b1 03 00
        E 6 b1 03 01
        E 6 b1 03 03
        E 6 b1 03 04
        E 6 b1 03 06
        E 6 b1 03 07
        E 6 b1 03 09
        E 6 b1 03 0b
        E 6 b1 03 0c
        E 6 b1 03 0e
        E 6 b1 03 0f
        E 6 b1 03 11
        E 6 b1 03 13
        E 6 b1 03 14
        E 6 b1 03 16
        E 6 b1 03 17
        E 6 b1 03 19
        E 6 b1 03 1b
        E 6 b1 03 1c
        E 6 b1 03 1e
        E 6 b1 03 1f
        E 6 b1 03 21
        E 6 b1 03 23
        E 6 b1 03 24
        E 6 b1 03 26
        E 6 b1 03 28
        E 6 b1 03 29
        E 6 b1 03 2b
        E 6 b1 03 2c
        E 6 b1 03 2e
        E 6 b1 03 2f
        E 6 b1 03 31
        E 6 b1 03 33
        E 6 b1 03 34
        E 6 b1 03 36
        E 6 b1 03 37
        E 6 b1 03 39
        E 6 b1 03 3b
        E 6 b1 03 3c
        E 6 b1 03 3e
        E 6 b1 03 3f
        E 6 b1 03 41
        E 6 b1 03 43
        E 6 b1 03 44
        E 6 b1 03 46
        E 6 b1 03 48
        E 6 b1 03 49
        E 6 b1 03 4b
        E 6 b1 03 4c
        E 6 b1 03 4e
        E 6 b1 03 50
        E 6 b1 03 51
        E 6 b1 03 53
        E 6 b1 03 54
        E 6 b1 03 56
        E 6 b1 03 57
        E 6 b1 03 59
        E 6 b1 03 5b
        E 6 b1 03 5c
        E 6 b1 03 5e
        E 6 b1 03 5f
        E 6 b1 03 61
        E 6 b1 03 63
        E 6 b1 03 64
        E 6 b1 03 65
        E 6 b1 03 64
        E 6 b1 03 63
        E 6 b1 03 61
        E 6 b1 03 5f
        E 6 b1 03 5e
        E 6 b1 03 5c
        E 6 b1 03 5b
        E 6 b1 03 59
        E 6 b1 03 57
        E 6 b1 03 56
        E 6 b1 03 54
        E 6 b1 03 53
        E 6 b1 03 51
        E 6 b1 03 50
        E 6 b1 03 4e
        E 6 b1 03 4c
        E 6 b1 03 4b
        E 6 b1 03 49
        E 6 b1 03 48
        E 6 b1 03 46
        E 6 b1 03 44
        E 6 b1 03 43
        E 6 b1 03 41
        E 6 b1 03 3f
        E 6 b1 03 3e
        E 6 b1 03 3c
        E 6 b1 03 3b
        E 6 b1 03 39
        E 6 b1 03 37
        E 6 b1 03 36
        E 6 b1 03 34
        E 6 b1 03 33
        E 6 b1 03 31
        E 6 b1 03 2f
        E 6 b1 03 2e
        E 6 b1 03 2c
        E 6 b1 03 2b
        E 6 b1 03 29
        E 6 b1 03 28
        E 6 b1 03 26
        E 6 b1 03 24
        E 6 b1 03 23
        E 6 b1 03 21
        E 6 b1 03 1f
        E 6 b1 03 1e
        E 6 b1 03 1c
        E 6 b1 03 1b
        E 6 b1 03 19
        E 6 b1 03 17
        E 6 b1 03 16
        E 6 b1 03 14
        E 6 b1 03 13
        E 6 b1 03 11
        E 6 b1 03 0f
        E 6 b1 03 0e
        E 6 b1 03 0c
        E 6 b1 03 0b
        E 6 b1 03 09
        E 6 b1 03 07
        E 6 b1 03 06
        E 6 b1 03 04
        E 6 b1 03 03
        E 6 b1 03 01
        E 6 b1 03 00
        E 18 b1 03 01
        E 18 b1 03 03
        E 18 b1 03 04
        E 18 b1 03 06
        E 18 b1 03 07
        E 18 b1 03 09
        E 18 b1 03 0b
        E 18 b1 03 0c
        E 18 b1 03 0e
        E 18 b1 03 0f
        E 18 b1 03 11
        E 18 b1 03 13
        E 18 b1 03 14
        E 18 b1 03 16
        E 18 b1 03 17
        E 18 b1 03 19
        E 18 b1 03 1b
        E 18 b1 03 1c
        E 18 b1 03 1e
        E 18 b1 03 1f
        E 18 b1 03 21
        E 18 b1 03 23
        E 18 b1 03 24
        E 18 b1 03 26
        E 18 b1 03 28
        E 18 b1 03 29
        E 18 b1 03 2b
        E 18 b1 03 2c
        E 18 b1 03 2e
        E 18 b1 03 2f
        E 18 b1 03 31
        E 18 b1 03 33
        E 18 b1 03 34
        E 18 b1 03 36
        E 18 b1 03 37
        E 18 b1 03 39
        E 18 b1 03 3b
        E 18 b1 03 3c
        E 18 b1 03 3e
        E 18 b1 03 3f
        E 18 b1 03 41
        E 18 b1 03 43
        E 18 b1 03 44
        E 18 b1 03 46
        E 18 b1 03 48
        E 18 b1 03 49
        E 18 b1 03 4b
        E 18 b1 03 4c
        E 18 b1 03 4e
        E 18 b1 03 50
        E 18 b1 03 51
        E 18 b1 03 53
        E 18 b1 03 54
        E 18 b1 03 56
        E 18 b1 03 57
        E 18 b1 03 59
        E 18 b1 03 5b
        E 18 b1 03 5c
        E 18 b1 03 5e
        E 18 b1 03 5f
        E 18 b1 03 61
        E 18 b1 03 63
        E 18 b1 03 64
        E 18 b1 03 65
        E 18 b1 03 64
        E 18 b1 03 63
        E 18 b1 03 61
        E 18 b1 03 5f
        E 18 b1 03 5e
        E 18 b1 03 5c
        E 18 b1 03 5b
        E 18 b1 03 59
        E 18 b1 03 57
        E 18 b1 03 56
        E 18 b1 03 54
        E 18 b1 03 53
        E 18 b1 03 51
        E 18 b1 03 50
        E 18 b1 03 4e
        E 18 b1 03 4c
        E 18 b1 03 4b
        E 18 b1 03 49
        E 18 b1 03 48
        E 18 b1 03 46
        E 18 b1 03 44
        E 18 b1 03 43
        E 18 b1 03 41
        E 18 b1 03 3f
        E 18 b1 03 3e
        E 18 b1 03 3c
        E 18 b1 03 3b
        E 18 b1 03 39
        E 18 b1 03 37
        E 18 b1 03 36
        E 18 b1 03 34
        E 18 b1 03 33
        E 18 b1 03 31
        E 18 b1 03 2f
        E 18 b1 03 2e
        E 18 b1 03 2c
        E 18 b1 03 2b
        E 18 b1 03 29
        E 18 b1 03 28
        E 18 b1 03 26
        E 18 b1 03 24
        E 18 b1 03 23
        E 18 b1 03 21
        E 18 b1 03 1f
        E 18 b1 03 1e
        E 18 b1 03 1c
        E 18 b1 03 1b
        E 18 b1 03 19
        E 18 b1 03 17
        E 18 b1 03 16
        E 18 b1 03 14
        E 18 b1 03 13
        E 18 b1 03 11
        E 18 b1 03 0f
        E 18 b1 03 0e
        E 18 b1 03 0c
        E 18 b1 03 0b
        E 18 b1 03 09
        E 18 b1 03 07
        E 18 b1 03 06
        E 18 b1 03 04
        E 18 b1 03 03
        E 18 b1 03 01
        E 18 b1 03 00
        E 4 b1 03 01
        E 4 b1 03 02
        E 4 b1 03 03
        E 4 b1 03 04
        E 4 b1 03 06
        E 4 b1 03 07
        E 4 b1 03 08
        E 4 b1 03 09
        E 4 b1 03 0a
        E 4 b1 03 0c
        E 4 b1 03 0d
        E 4 b1 03 0e
        E 4 b1 03 0f
        E 4 b1 03 10
        E 4 b1 03 12
        E 4 b1 03 13
        E 4 b1 03 14
        E 4 b1 03 15
        E 4 b1 03 16
        E 4 b1 03 18
        E 4 b1 03 19
        E 4 b1 03 1a
        E 4 b1 03 1b
        E 4 b1 03 1c
        E 4 b1 03 1e
        E 4 b1 03 1f
        E 4 b1 03 20
        E 4 b1 03 21
        E 4 b1 03 22
        E 4 b1 03 24
        E 4 b1 03 25
        E 4 b1 03 26
        E 4 b1 03 27
        E 4 b1 03 28
        E 4 b1 03 2a
        E 4 b1 03 2b
        E 4 b1 03 2c
        E 4 b1 03 2d
        E 4 b1 03 2e
        E 4 b1 03 30
        E 4 b1 03 31
        E 4 b1 03 32
        E 4 b1 03 33
        E 4 b1 03 34
        E 4 b1 03 36
        E 4 b1 03 37
        E 4 b1 03 38
        E 4 b1 03 39
        E 4 b1 03 3a
        E 4 b1 03 3c
        E 4 b1 03 3d
        E 4 b1 03 3e
        E 4 b1 03 3f
        E 4 b1 03 40
        E 4 b1 03 42
        E 4 b1 03 43
        E 4 b1 03 44
        E 4 b1 03 45
        E 4 b1 03 46
        E 4 b1 03 48
        E 4 b1 03 49
        E 4 b1 03 4a
        E 4 b1 03 4b
        E 4 b1 03 4c
        E 4 b1 03 4b
        E 4 b1 03 4a
        E 4 b1 03 49
        E 4 b1 03 48
        E 4 b1 03 46
        E 4 b1 03 45
        E 4 b1 03 44
        E 4 b1 03 43
        E 4 b1 03 42
        E 4 b1 03 40
        E 4 b1 03 3f
        E 4 b1 03 3e
        E 4 b1 03 3d
        E 4 b1 03 3c
        E 4 b1 03 3a
        E 4 b1 03 39
        E 4 b1 03 38
        E 4 b1 03 37
        E 4 b1 03 36
        E 4 b1 03 34
        E 4 b1 03 33
        E 4 b1 03 32
        E 4 b1 03 31
        E 4 b1 03 30
        E 4 b1 03 2e
        E 4 b1 03 2d
        E 4 b1 03 2c
        E 4 b1 03 2b
        E 4 b1 03 2a
        E 4 b1 03 28
        E 4 b1 03 27
        E 4 b1 03 26
        E 4 b1 03 25
        E 4 b1 03 24
        E 4 b1 03 22
        E 4 b1 03 21
        E 4 b1 03 20
        E 4 b1 03 1f
        E 4 b1 03 1e
        E 4 b1 03 1c
        E 4 b1 03 1b
        E 4 b1 03 1a
        E 4 b1 03 19
        E 4 b1 03 18
        E 4 b1 03 16
        E 4 b1 03 15
        E 4 b1 03 14
        E 4 b1 03 13
        E 4 b1 03 12
        E 4 b1 03 10
        E 4 b1 03 0f
        E 4 b1 03 0e
        E 4 b1 03 0d
        E 4 b1 03 0c
        E 4 b1 03 0a
        E 4 b1 03 09
        E 4 b1 03 08
        E 4 b1 03 07
        E 4 b1 03 06
        E 4 b1 03 04
        E 4 b1 03 03
        E 4 b1 03 02
        E 4 b1 03 01
        E 4 b1 03 00
        E 18 b1 03 00
        E 18 b1 03 01
        E 18 b1 03 02
        E 18 b1 03 03
        E 18 b1 03 04
        E 18 b1 03 04
        E 18 b1 03 05
        E 18 b1 03 06
        E 18 b1 03 07
        E 18 b1 03 08
        E 18 b1 03 08
        E 18 b1 03 09
        E 18 b1 03 0a
        E 18 b1 03 0b
        E 18 b1 03 0c
        E 18 b1 03 0c
        E 18 b1 03 0d
        E 18 b1 03 0e
        E 18 b1 03 0f
        E 18 b1 03 10
        E 18 b1 03 10
        E 18 b1 03 11
        E 18 b1 03 12
        E 18 b1 03 13
        E 18 b1 03 14
        E 18 b1 03 14
        E 18 b1 03 15
        E 18 b1 03 16
        E 18 b1 03 17
        E 18 b1 03 18
        E 18 b1 03 18
        E 18 b1 03 19
        E 18 b1 03 1a
        E 18 b1 03 1b
        E 18 b1 03 1c
        E 18 b1 03 1c
        E 18 b1 03 1d
        E 18 b1 03 1e
        E 18 b1 03 1f
        E 18 b1 03 20
        E 18 b1 03 20
        E 18 b1 03 21
        E 18 b1 03 22
        E 18 b1 03 23
        E 18 b1 03 24
        E 18 b1 03 24
        E 18 b1 03 25
        E 18 b1 03 26
        E 18 b1 03 27
        E 18 b1 03 28
        E 18 b1 03 28
        E 18 b1 03 29
        E 18 b1 03 2a
        E 18 b1 03 2b
        E 18 b1 03 2c
        E 18 b1 03 2c
        E 18 b1 03 2d
        E 18 b1 03 2e
        E 18 b1 03 2f
        E 18 b1 03 30
        E 18 b1 03 30
        E 18 b1 03 31
        E 18 b1 03 32
        E 18 b1 03 32
        E 18 b1 03 32
        E 18 b1 03 31
        E 18 b1 03 30
        E 18 b1 03 30
        E 18 b1 03 2f
        E 18 b1 03 2e
        E 18 b1 03 2d
        E 18 b1 03 2c
        E 18 b1 03 2c
        E 18 b1 03 2b
        E 18 b1 03 2a
        E 18 b1 03 29
        E 18 b1 03 28
        E 18 b1 03 28
        E 18 b1 03 27
        E 18 b1 03 26
        E 18 b1 03 25
        E 18 b1 03 24
        E 18 b1 03 24
        E 18 b1 03 23
        E 18 b1 03 22
        E 18 b1 03 21
        E 18 b1 03 20
        E 18 b1 03 20
        E 18 b1 03 1f
        E 18 b1 03 1e
        E 18 b1 03 1d
        E 18 b1 03 1c
        E 18 b1 03 1c
        E 18 b1 03 1b
        E 18 b1 03 1a
        E 18 b1 03 19
        E 18 b1 03 18
        E 18 b1 03 18
        E 18 b1 03 17
        E 18 b1 03 16
        E 18 b1 03 15
        E 18 b1 03 14
        E 18 b1 03 14
        E 18 b1 03 13
        E 18 b1 03 12
        E 18 b1 03 11
        E 18 b1 03 10
        E 18 b1 03 10
        E 18 b1 03 0f
        E 18 b1 03 0e
        E 18 b1 03 0d
        E 18 b1 03 0c
        E 18 b1 03 0c
        E 18 b1 03 0b
        E 18 b1 03 0a
        E 18 b1 03 09
        E 18 b1 03 08
        E 18 b1 03 08
        E 18 b1 03 07
        E 18 b1 03 06
        E 18 b1 03 05
        E 18 b1 03 04
        E 18 b1 03 04
        E 18 b1 03 03
        E 18 b1 03 02
        E 18 b1 03 01
        E 18 b1 03 00
        E 18 b1 03 00
        E 10 b1 03 01
        E 10 b1 03 02
        E 10 b1 03 04
        E 10 b1 03 05
        E 10 b1 03 07
        E 10 b1 03 08
        E 10 b1 03 09
        E 10 b1 03 0b
        E 10 b1 03 0c
        E 10 b1 03 0e
        E 10 b1 03 0f
        E 10 b1 03 10
        E 10 b1 03 12
        E 10 b1 03 13
        E 10 b1 03 15
        E 10 b1 03 16
        E 10 b1 03 17
        E 10 b1 03 19
        E 10 b1 03 1a
        E 10 b1 03 1c
        E 10 b1 03 1d
        E 10 b1 03 1e
        E 10 b1 03 20
        E 10 b1 03 21
        E 10 b1 03 23
        E 10 b1 03 24
        E 10 b1 03 25
        E 10 b1 03 27
        E 10 b1 03 28
        E 10 b1 03 2a
        E 10 b1 03 2b
        E 10 b1 03 2c
        E 10 b1 03 2e
        E 10 b1 03 2f
        E 10 b1 03 31
        E 10 b1 03 32
        E 10 b1 03 33
        E 10 b1 03 35
        E 10 b1 03 36
        E 10 b1 03 38
        E 10 b1 03 39
        E 10 b1 03 3a
        E 10 b1 03 3c
        E 10 b1 03 3d
        E 10 b1 03 3e
        E 10 b1 03 40
        E 10 b1 03 41
        E 10 b1 03 43
        E 10 b1 03 44
        E 10 b1 03 46
        E 10 b1 03 47
        E 10 b1 03 48
        E 10 b1 03 4a
        E 10 b1 03 4b
        E 10 b1 03 4d
        E 10 b1 03 4e
        E 10 b1 03 4f
        E 10 b1 03 51
        E 10 b1 03 52
        E 10 b1 03 54
        E 10 b1 03 55
        E 10 b1 03 56
        E 10 b1 03 58
        E 10 b1 03 58
        E 10 b1 03 58
        E 10 b1 03 56
        E 10 b1 03 55
        E 10 b1 03 54
        E 10 b1 03 52
        E 10 b1 03 51
        E 10 b1 03 4f
        E 10 b1 03 4e
        E 10 b1 03 4d
        E 10 b1 03 4b
        E 10 b1 03 4a
        E 10 b1 03 48
        E 10 b1 03 47
        E 10 b1 03 46
        E 10 b1 03 44
        E 10 b1 03 43
        E 10 b1 03 41
        E 10 b1 03 40
        E 10 b1 03 3e
        E 10 b1 03 3d
        E 10 b1 03 3c
        E 10 b1 03 3a
        E 10 b1 03 39
        E 10 b1 03 38
        E 10 b1 03 36
        E 10 b1 03 35
        E 10 b1 03 33
        E 10 b1 03 32
        E 10 b1 03 31
        E 10 b1 03 2f
        E 10 b1 03 2e
        E 10 b1 03 2c
        E 10 b1 03 2b
        E 10 b1 03 2a
        E 10 b1 03 28
        E 10 b1 03 27
        E 10 b1 03 25
        E 10 b1 03 24
        E 10 b1 03 23
        E 10 b1 03 21
        E 10 b1 03 20
        E 10 b1 03 1e
        E 10 b1 03 1d
        E 10 b1 03 1c
        E 10 b1 03 1a
        E 10 b1 03 19
        E 10 b1 03 17
        E 10 b1 03 16
        E 10 b1 03 15
        E 10 b1 03 13
        E 10 b1 03 12
        E 10 b1 03 10
        E 10 b1 03 0f
        E 10 b1 03 0e
        E 10 b1 03 0c
        E 10 b1 03 0b
        E 10 b1 03 09
        E 10 b1 03 08
        E 10 b1 03 07
        E 10 b1 03 05
        E 10 b1 03 04
        E 10 b1 03 02
        E 10 b1 03 01
        E 10 b1 03 00
        E 2 b1 03 00
        E 2 b1 03 01
        E 2 b1 03 02
        E 2 b1 03 03
        E 2 b1 03 04
        E 2 b1 03 04
        E 2 b1 03 05
        E 2 b1 03 06
        E 2 b1 03 07
        E 2 b1 03 08
        E 2 b1 03 08
        E 2 b1 03 09
        E 2 b1 03 0a
        E 2 b1 03 0b
        E 2 b1 03 0c
        E 2 b1 03 0c
        E 2 b1 03 0d
        E 2 b1 03 0e
        E 2 b1 03 0f
        E 2 b1 03 10
        E 2 b1 03 10
        E 2 b1 03 11
        E 2 b1 03 12
        E 2 b1 03 13
        E 2 b1 03 14
        E 2 b1 03 14
        E 2 b1 03 15
        E 2 b1 03 16
        E 2 b1 03 17
        E 2 b1 03 18
        E 2 b1 03 18
        E 2 b1 03 19
        E 2 b1 03 1a
        E 2 b1 03 1b
        E 2 b1 03 1c
        E 2 b1 03 1c
        E 2 b1 03 1d
        E 2 b1 03 1e
        E 2 b1 03 1f
        E 2 b1 03 20
        E 2 b1 03 20
        E 2 b1 03 21
        E 2 b1 03 22
        E 2 b1 03 23
        E 2 b1 03 24
        E 2 b1 03 24
        E 2 b1 03 25
        E 2 b1 03 26
        E 2 b1 03 27
        E 2 b1 03 28
        E 2 b1 03 28
        E 2 b1 03 29
        E 2 b1 03 2a
        E 2 b1 03 2b
        E 2 b1 03 2c
        E 2 b1 03 2c
        E 2 b1 03 2d
        E 2 b1 03 2e
        E 2 b1 03 2f
        E 2 b1 03 30
        E 2 b1 03 30
        E 2 b1 03 31
        E 2 b1 03 32
        E 2 b1 03 32
        E 2 b1 03 32
        E 2 b1 03 31
        E 2 b1 03 30
        E 2 b1 03 30
        E 2 b1 03 2f
        E 2 b1 03 2e
        E 2 b1 03 2d
        E 2 b1 03 2c
        E 2 b1 03 2c
        E 2 b1 03 2b
        E 2 b1 03 2a
        E 2 b1 03 29
        E 2 b1 03 28
        E 2 b1 03 28
        E 2 b1 03 27
        E 2 b1 03 26
        E 2 b1 03 25
        E 2 b1 03 24
        E 2 b1 03 24
        E 2 b1 03 23
        E 2 b1 03 22
        E 2 b1 03 21
        E 2 b1 03 20
        E 2 b1 03 20
        E 2 b1 03 1f
        E 2 b1 03 1e
        E 2 b1 03 1d
        E 2 b1 03 1c
        E 2 b1 03 1c
        E 2 b1 03 1b
        E 2 b1 03 1a
        E 2 b1 03 19
        E 2 b1 03 18
        E 2 b1 03 18
        E 2 b1 03 17
        E 2 b1 03 16
        E 2 b1 03 15
        E 2 b1 03 14
        E 2 b1 03 14
        E 2 b1 03 13
        E 2 b1 03 12
        E 2 b1 03 11
        E 2 b1 03 10
        E 2 b1 03 10
        E 2 b1 03 0f
        E 2 b1 03 0e
        E 2 b1 03 0d
        E 2 b1 03 0c
        E 2 b1 03 0c
        E 2 b1 03 0b
        E 2 b1 03 0a
        E 2 b1 03 09
        E 2 b1 03 08
        E 2 b1 03 08
        E 2 b1 03 07
        E 2 b1 03 06
        E 2 b1 03 05
        E 2 b1 03 04
        E 2 b1 03 04
        E 2 b1 03 03
        E 2 b1 03 02
        E 2 b1 03 01
        E 2 b1 03 00
        E 2 b1 03 00
        E 6 b1 03 01
        E 6 b1 03 03
        E 6 b1 03 04
        E 6 b1 03 06
        E 6 b1 03 07
        E 6 b1 03 09
        E 6 b1 03 0b
        E 6 b1 03 0c
        E 6 b1 03 0e
        E 6 b1 03 0f
        E 6 b1 03 11
        E 6 b1 03 13
        E 6 b1 03 14
        E 6 b1 03 16
        E 6 b1 03 17
        E 6 b1 03 19
        E 6 b1 03 1b
        E 6 b1 03 1c
        E 6 b1 03 1e
        E 6 b1 03 1f
        E 6 b1 03 21
        E 6 b1 03 23
        E 6 b1 03 24
        E 6 b1 03 26
        E 6 b1 03 28
        E 6 b1 03 29
        E 6 b1 03 2b
        E 6 b1 03 2c
        E 6 b1 03 2e
        E 6 b1 03 2f
        E 6 b1 03 31
        E 6 b1 03 33
        E 6 b1 03 34
        E 6 b1 03 36
        E 6 b1 03 37
        E 6 b1 03 39
        E 6 b1 03 3b
        E 6 b1 03 3c
        E 6 b1 03 3e
        E 6 b1 03 3f
        E 6 b1 03 41
        E 6 b1 03 43
        E 6 b1 03 44
        E 6 b1 03 46
        E 6 b1 03 48
        E 6 b1 03 49
        E 6 b1 03 4b
        E 6 b1 03 4c
        E 6 b1 03 4e
        E 6 b1 03 50
        E 6 b1 03 51
        E 6 b1 03 53
        E 6 b1 03 54
        E 6 b1 03 56
        E 6 b1 03 57
        E 6 b1 03 59
        E 6 b1 03 5b
        E 6 b1 03 5c
        E 6 b1 03 5e
        E 6 b1 03 5f
        E 6 b1 03 61
        E 6 b1 03 63
        E 6 b1 03 64
        E 6 b1 03 65
        E 6 b1 03 64
        E 6 b1 03 63
        E 6 b1 03 61
        E 6 b1 03 5f
        E 6 b1 03 5e
        E 6 b1 03 5c
        E 6 b1 03 5b
        E 6 b1 03 59
        E 6 b1 03 57
        E 6 b1 03 56
        E 6 b1 03 54
        E 6 b1 03 53
        E 6 b1 03 51
        E 6 b1 03 50
        E 6 b1 03 4e
        E 6 b1 03 4c
        E 6 b1 03 4b
        E 6 b1 03 49
        E 6 b1 03 48
        E 6 b1 03 46
        E 6 b1 03 44
        E 6 b1 03 43
        E 6 b1 03 41
        E 6 b1 03 3f
        E 6 b1 03 3e
        E 6 b1 03 3c
        E 6 b1 03 3b
        E 6 b1 03 39
        E 6 b1 03 37
        E 6 b1 03 36
        E 6 b1 03 34
        E 6 b1 03 33
        E 6 b1 03 31
        E 6 b1 03 2f
        E 6 b1 03 2e
        E 6 b1 03 2c
        E 6 b1 03 2b
        E 6 b1 03 29
        E 6 b1 03 28
        E 6 b1 03 26
        E 6 b1 03 24
        E 6 b1 03 23
        E 6 b1 03 21
        E 6 b1 03 1f
        E 6 b1 03 1e
        E 6 b1 03 1c
        E 6 b1 03 1b
        E 6 b1 03 19
        E 6 b1 03 17
        E 6 b1 03 16
        E 6 b1 03 14
        E 6 b1 03 13
        E 6 b1 03 11
        E 6 b1 03 0f
        E 6 b1 03 0e
        E 6 b1 03 0c
        E 6 b1 03 0b
        E 6 b1 03 09
        E 6 b1 03 07
        E 6 b1 03 06
        E 6 b1 03 04
        E 6 b1 03 03
        E 6 b1 03 01
        E 6 b1 03 00
        E 70 b1 03 0b
        E 70 b1 03 26
        E 70 b1 03 19
        E 70 b1 03 04
        E 70 b1 03 24
        E 70 b1 03 20
        E 70 b1 03 04
        E 70 b1 03 04
        E 70 b1 03 18
        E 70 b1 03 30
        E 70 b1 03 28
        E 70 b1 03 2c
        E 70 b1 03 1f
        E 70 b1 03 05
        E 70 b1 03 09
        E 70 b1 03 22
        E 70 b1 03 1c
        E 70 b1 03 0e
        E 70 b1 03 0a
        E 70 b1 03 0d
        E 70 b1 03 27
        E 70 b1 03 17
        E 70 b1 03 0c
        E 70 b1 03 1d
        E 70 b1 03 32
        E 70 b1 03 00
        E 70 b1 03 06
        E 70 b1 03 14
        E 70 b1 03 11
        E 70 b1 03 29
        E 70 b1 03 0a
        E 70 b1 03 03
        E 70 b1 03 08
        E 70 b1 03 08
        E 70 b1 03 2e
        E 70 b1 03 0c
        E 70 b1 03 00
        E 70 b1 03 25
        E 70 b1 03 11
        E 70 b1 03 0a
        E 70 b1 03 14
        E 70 b1 03 0d
        E 70 b1 03 2b
        E 70 b1 03 2a
        E 70 b1 03 32
        E 70 b1 03 2a
        E 70 b1 03 16
        E 70 b1 03 2f
        E 70 b1 03 24
        E 70 b1 03 06
        E 70 b1 03 16
        E 70 b1 03 1b
        E 70 b1 03 30
        E 70 b1 03 26
        E 70 b1 03 1b
        E 70 b1 03 1c
        E 70 b1 03 02
        E 70 b1 03 05
        E 70 b1 03 2e
        E 70 b1 03 28
        E 70 b1 03 15
        E 70 b1 03 10
        E 70 b1 03 06
        E 70 b1 03 16
        E 70 b1 03 0f
        E 70 b1 03 0c
        E 70 b1 03 13
        E 70 b1 03 1a
        E 70 b1 03 1e
        E 70 b1 03 20
        E 70 b1 03 08
        E 70 b1 03 1e
        E 70 b1 03 2d
        E 70 b1 03 1a
        E 70 b1 03 1d
        E 70 b1 03 01
        E 70 b1 03 03
        E 70 b1 03 32
        E 70 b1 03 21
        E 70 b1 03 09
        E 70 b1 03 2e
        E 70 b1 03 10
        E 70 b1 03 13
        E 70 b1 03 18
        E 70 b1 03 14
        E 70 b1 03 22
        E 70 b1 03 29
        E 70 b1 03 0e
        E 70 b1 03 1c
        E 70 b1 03 0b
        E 70 b1 03 2d
        E 70 b1 03 2a
        E 70 b1 03 17
        E 70 b1 03 12
        E 70 b1 03 28
        E 70 b1 03 12
        E 70 b1 03 23
        E 70 b1 03 07
        E 70 b1 03 00
        E 70 b1 03 10
        E 70 b1 03 19
        E 70 b1 03 2b
        E 70 b1 03 27
        E 70 b1 03 01
        E 70 b1 03 2c
        E 70 b1 03 25
        E 70 b1 03 02
        E 70 b1 03 0f
        E 70 b1 03 1e
        E 70 b1 03 26
        E 70 b1 03 30
        E 70 b1 03 1f
        E 70 b1 03 15
        E 70 b1 03 0e
        E 70 b1 03 23
        E 70 b1 03 24
        E 70 b1 03 2c
        E 70 b1 03 31
        E 70 b1 03 18
        E 70 b1 03 20
        E 70 b1 03 22
        E 70 b1 03 1a
        E 70 b1 03 2f
        E 70 b1 03 07
        E 70 b1 03 12
        E 70 b1 03 21
        E 39 b1 03 13
        E 39 b1 03 43
        E 39 b1 03 2c
        E 39 b1 03 07
        E 39 b1 03 3e
        E 39 b1 03 38
        E 39 b1 03 08
        E 39 b1 03 07
        E 39 b1 03 2a
        E 39 b1 03 54
        E 39 b1 03 46
        E 39 b1 03 4d
        E 39 b1 03 37
        E 39 b1 03 09
        E 39 b1 03 10
        E 39 b1 03 3c
        E 39 b1 03 31
        E 39 b1 03 19
        E 39 b1 03 11
        E 39 b1 03 17
        E 39 b1 03 45
        E 39 b1 03 29
        E 39 b1 03 15
        E 39 b1 03 33
        E 39 b1 03 58
        E 39 b1 03 00
        E 39 b1 03 0b
        E 39 b1 03 24
        E 39 b1 03 1e
        E 39 b1 03 48
        E 39 b1 03 12
        E 39 b1 03 05
        E 39 b1 03 0e
        E 39 b1 03 0f
        E 39 b1 03 50
        E 39 b1 03 16
        E 39 b1 03 00
        E 39 b1 03 41
        E 39 b1 03 1e
        E 39 b1 03 12
        E 39 b1 03 23
        E 39 b1 03 17
        E 39 b1 03 4b
        E 39 b1 03 4a
        E 39 b1 03 58
        E 39 b1 03 4a
        E 39 b1 03 26
        E 39 b1 03 52
        E 39 b1 03 3f
        E 39 b1 03 0a
        E 39 b1 03 27
        E 39 b1 03 2f
        E 39 b1 03 54
        E 39 b1 03 43
        E 39 b1 03 30
        E 39 b1 03 31
        E 39 b1 03 04
        E 39 b1 03 09
        E 39 b1 03 51
        E 39 b1 03 47
        E 39 b1 03 25
        E 39 b1 03 1c
        E 39 b1 03 0b
        E 39 b1 03 27
        E 39 b1 03 1a
        E 39 b1 03 15
        E 39 b1 03 21
        E 39 b1 03 2e
        E 39 b1 03 35
        E 39 b1 03 39
        E 39 b1 03 0e
        E 39 b1 03 35
        E 39 b1 03 4f
        E 39 b1 03 2d
        E 39 b1 03 33
        E 39 b1 03 02
        E 39 b1 03 06
        E 39 b1 03 57
        E 39 b1 03 3a
        E 39 b1 03 10
        E 39 b1 03 51
        E 39 b1 03 1c
        E 39 b1 03 22
        E 39 b1 03 2b
        E 39 b1 03 23
        E 39 b1 03 3b
        E 39 b1 03 48
        E 39 b1 03 19
        E 39 b1 03 32
        E 39 b1 03 14
        E 39 b1 03 4f
        E 39 b1 03 49
        E 39 b1 03 28
        E 39 b1 03 20
        E 39 b1 03 46
        E 39 b1 03 20
        E 39 b1 03 3e
        E 39 b1 03 0c
        E 39 b1 03 01
        E 39 b1 03 1d
        E 39 b1 03 2c
        E 39 b1 03 4c
        E 39 b1 03 44
        E 39 b1 03 02
        E 39 b1 03 4d
        E 39 b1 03 41
        E 39 b1 03 04
        E 39 b1 03 1b
        E 39 b1 03 34
        E 39 b1 03 42
        E 39 b1 03 55
        E 39 b1 03 36
        E 39 b1 03 25
        E 39 b1 03 18
        E 39 b1 03 3d
        E 39 b1 03 40
        E 39 b1 03 4e
        E 39 b1 03 56
        E 39 b1 03 2a
        E 39 b1 03 38
        E 39 b1 03 3c
        E 39 b1 03 2e
        E 39 b1 03 53
        E 39 b1 03 0d
        E 39 b1 03 1f
        E 39 b1 03 3a
        E 7 b1 03 0b
        E 7 b1 03 26
        E 7 b1 03 19
        E 7 b1 03 04
        E 7 b1 03 24
        E 7 b1 03 20
        E 7 b1 03 04
        E 7 b1 03 04
        E 7 b1 03 18
        E 7 b1 03 30
        E 7 b1 03 28
        E 7 b1 03 2c
        E 7 b1 03 1f
        E 7 b1 03 05
        E 7 b1 03 09
        E 7 b1 03 22
        E 7 b1 03 1c
        E 7 b1 03 0e
        E 7 b1 03 0a
        E 7 b1 03 0d
        E 7 b1 03 27
        E 7 b1 03 17
        E 7 b1 03 0c
        E 7 b1 03 1d
        E 7 b1 03 32
        E 7 b1 03 00
        E 7 b1 03 06
        E 7 b1 03 14
        E 7 b1 03 11
        E 7 b1 03 29
        E 7 b1 03 0a
        E 7 b1 03 03
        E 7 b1 03 08
        E 7 b1 03 08
        E 7 b1 03 2e
        E 7 b1 03 0c
        E 7 b1 03 00
        E 7 b1 03 25
        E 7 b1 03 11
        E 7 b1 03 0a
        E 7 b1 03 14
        E 7 b1 03 0d
        E 7 b1 03 2b
        E 7 b1 03 2a
        E 7 b1 03 32
        E 7 b1 03 2a
        E 7 b1 03 16
        E 7 b1 03 2f
        E 7 b1 03 24
        E 7 b1 03 06
        E 7 b1 03 16
        E 7 b1 03 1b
        E 7 b1 03 30
        E 7 b1 03 26
        E 7 b1 03 1b
        E 7 b1 03 1c
        E 7 b1 03 02
        E 7 b1 03 05
        E 7 b1 03 2e
        E 7 b1 03 28
        E 7 b1 03 15
        E 7 b1 03 10
        E 7 b1 03 06
        E 7 b1 03 16
        E 7 b1 03 0f
        E 7 b1 03 0c
        E 7 b1 03 13
        E 7 b1 03 1a
        E 7 b1 03 1e
        E 7 b1 03 20
        E 7 b1 03 08
        E 7 b1 03 1e
        E 7 b1 03 2d
        E 7 b1 03 1a
        E 7 b1 03 1d
        E 7 b1 03 01
        E 7 b1 03 03
        E 7 b1 03 32
        E 7 b1 03 21
        E 7 b1 03 09
        E 7 b1 03 2e
        E 7 b1 03 10
        E 7 b1 03 13
        E 7 b1 03 18
        E 7 b1 03 14
        E 7 b1 03 22
        E 7 b1 03 29
        E 7 b1 03 0e
        E 7 b1 03 1c
        E 7 b1 03 0b
        E 7 b1 03 2d
        E 7 b1 03 2a
        E 7 b1 03 17
        E 7 b1 03 12
        E 7 b1 03 28
        E 7 b1 03 12
        E 7 b1 03 23
        E 7 b1 03 07
        E 7 b1 03 00
        E 7 b1 03 10
        E 7 b1 03 19
        E 7 b1 03 2b
        E 7 b1 03 27
        E 7 b1 03 01
        E 7 b1 03 2c
        E 7 b1 03 25
        E 7 b1 03 02
        E 7 b1 03 0f
        E 7 b1 03 1e
        E 7 b1 03 26
        E 7 b1 03 30
        E 7 b1 03 1f
        E 7 b1 03 15
        E 7 b1 03 0e
        E 7 b1 03 23
        E 7 b1 03 24
        E 7 b1 03 2c
        E 7 b1 03 31
        E 7 b1 03 18
        E 7 b1 03 20
        E 7 b1 03 22
        E 7 b1 03 1a
        E 7 b1 03 2f
        E 7 b1 03 07
        E 7 b1 03 12
        E 7 b1 03 21
        E 23 b1 03 16
        E 23 b1 03 4c
        E 23 b1 03 32
        E 23 b1 03 07
        E 23 b1 03 48
        E 23 b1 03 3f
        E 23 b1 03 09
        E 23 b1 03 08
        E 23 b1 03 30
        E 23 b1 03 5f
        E 23 b1 03 50
        E 23 b1 03 58
        E 23 b1 03 3f
        E 23 b1 03 0b
        E 23 b1 03 13
        E 23 b1 03 44
        E 23 b1 03 37
        E 23 b1 03 1c
        E 23 b1 03 14
        E 23 b1 03 1b
        E 23 b1 03 4f
        E 23 b1 03 2f
        E 23 b1 03 17
        E 23 b1 03 3a
        E 23 b1 03 64
        E 23 b1 03 00
        E 23 b1 03 0c
        E 23 b1 03 29
        E 23 b1 03 22
        E 23 b1 03 53
        E 23 b1 03 15
        E 23 b1 03 06
        E 23 b1 03 0f
        E 23 b1 03 11
        E 23 b1 03 5b
        E 23 b1 03 19
        E 23 b1 03 00
        E 23 b1 03 4b
        E 23 b1 03 23
        E 23 b1 03 14
        E 23 b1 03 28
        E 23 b1 03 1a
        E 23 b1 03 56
        E 23 b1 03 55
        E 23 b1 03 65
        E 23 b1 03 54
        E 23 b1 03 2b
        E 23 b1 03 5e
        E 23 b1 03 48
        E 23 b1 03 0b
        E 23 b1 03 2c
        E 23 b1 03 36
        E 23 b1 03 60
        E 23 b1 03 4d
        E 23 b1 03 37
        E 23 b1 03 38
        E 23 b1 03 04
        E 23 b1 03 0a
        E 23 b1 03 5d
        E 23 b1 03 51
        E 23 b1 03 2b
        E 23 b1 03 1f
        E 23 b1 03 0d
        E 23 b1 03 2d
        E 23 b1 03 1e
        E 23 b1 03 18
        E 23 b1 03 26
        E 23 b1 03 34
        E 23 b1 03 3d
        E 23 b1 03 41
        E 23 b1 03 10
        E 23 b1 03 3c
        E 23 b1 03 5a
        E 23 b1 03 33
        E 23 b1 03 3b
        E 23 b1 03 02
        E 23 b1 03 07
        E 23 b1 03 63
        E 23 b1 03 42
        E 23 b1 03 12
        E 23 b1 03 5c
        E 23 b1 03 20
        E 23 b1 03 27
        E 23 b1 03 31
        E 23 b1 03 28
        E 23 b1 03 44
        E 23 b1 03 52
        E 23 b1 03 1d
        E 23 b1 03 39
        E 23 b1 03 17
        E 23 b1 03 5b
        E 23 b1 03 54
        E 23 b1 03 2e
        E 23 b1 03 24
        E 23 b1 03 50
        E 23 b1 03 25
        E 23 b1 03 47
        E 23 b1 03 0e
        E 23 b1 03 01
        E 23 b1 03 21
        E 23 b1 03 33
        E 23 b1 03 57
        E 23 b1 03 4e
        E 23 b1 03 03
        E 23 b1 03 57
        E 23 b1 03 4a
        E 23 b1 03 05
        E 23 b1 03 1f
        E 23 b1 03 3b
        E 23 b1 03 4c
        E 23 b1 03 61
        E 23 b1 03 3e
        E 23 b1 03 2a
        E 23 b1 03 1b
        E 23 b1 03 46
        E 23 b1 03 49
        E 23 b1 03 59
        E 23 b1 03 63
        E 23 b1 03 2f
        E 23 b1 03 40
        E 23 b1 03 45
        E 23 b1 03 35
        E 23 b1 03 5f
        E 23 b1 03 0f
        E 23 b1 03 24
        E 23 b1 03 43
        E 70 b1 03 16
        E 70 b1 03 4c
        E 70 b1 03 32
        E 70 b1 03 07
        E 70 b1 03 48
        E 70 b1 03 3f
        E 70 b1 03 09
        E 70 b1 03 08
        E 70 b1 03 30
        E 70 b1 03 5f
        E 70 b1 03 50
        E 70 b1 03 58
        E 70 b1 03 3f
        E 70 b1 03 0b
        E 70 b1 03 13
        E 70 b1 03 44
        E 70 b1 03 37
        E 70 b1 03 1c
        E 70 b1 03 14
        E 70 b1 03 1b
        E 70 b1 03 4f
        E 70 b1 03 2f
        E 70 b1 03 17
        E 70 b1 03 3a
        E 70 b1 03 64
        E 70 b1 03 00
        E 70 b1 03 0c
        E 70 b1 03 29
        E 70 b1 03 22
        E 70 b1 03 53
        E 70 b1 03 15
        E 70 b1 03 06
        E 70 b1 03 0f
        E 70 b1 03 11
        E 70 b1 03 5b
        E 70 b1 03 19
        E 70 b1 03 00
        E 70 b1 03 4b
        E 70 b1 03 23
        E 70 b1 03 14
        E 70 b1 03 28
        E 70 b1 03 1a
        E 70 b1 03 56
        E 70 b1 03 55
        E 70 b1 03 65
        E 70 b1 03 54
        E 70 b1 03 2b
        E 70 b1 03 5e
        E 70 b1 03 48
        E 70 b1 03 0b
        E 70 b1 03 2c
        E 70 b1 03 36
        E 70 b1 03 60
        E 70 b1 03 4d
        E 70 b1 03 37
        E 70 b1 03 38
        E 70 b1 03 04
        E 70 b1 03 0a
        E 70 b1 03 5d
        E 70 b1 03 51
        E 70 b1 03 2b
        E 70 b1 03 1f
        E 70 b1 03 0d
        E 70 b1 03 2d
        E 70 b1 03 1e
        E 70 b1 03 18
        E 70 b1 03 26
        E 70 b1 03 34
        E 70 b1 03 3d
        E 70 b1 03 41
        E 70 b1 03 10
        E 70 b1 03 3c
        E 70 b1 03 5a
        E 70 b1 03 33
        E 70 b1 03 3b
        E 70 b1 03 02
        E 70 b1 03 07
        E 70 b1 03 63
        E 70 b1 03 42
        E 70 b1 03 12
        E 70 b1 03 5c
        E 70 b1 03 20
        E 70 b1 03 27
        E 70 b1 03 31
        E 70 b1 03 28
        E 70 b1 03 44
        E 70 b1 03 52
        E 70 b1 03 1d
        E 70 b1 03 39
        E 70 b1 03 17
        E 70 b1 03 5b
        E 70 b1 03 54
        E 70 b1 03 2e
        E 70 b1 03 24
        E 70 b1 03 50
        E 70 b1 03 25
        E 70 b1 03 47
        E 70 b1 03 0e
        E 70 b1 03 01
        E 70 b1 03 21
        E 70 b1 03 33
        E 70 b1 03 57
        E 70 b1 03 4e
        E 70 b1 03 03
        E 70 b1 03 57
        E 70 b1 03 4a
        E 70 b1 03 05
        E 70 b1 03 1f
        E 70 b1 03 3b
        E 70 b1 03 4c
        E 70 b1 03 61
        E 70 b1 03 3e
        E 70 b1 03 2a
        E 70 b1 03 1b
        E 70 b1 03 46
        E 70 b1 03 49
        E 70 b1 03 59
        E 70 b1 03 63
        E 70 b1 03 2f
        E 70 b1 03 40
        E 70 b1 03 45
        E 70 b1 03 35
        E 70 b1 03 5f
        E 70 b1 03 0f
        E 70 b1 03 24
        E 70 b1 03 43
        E 15 b1 03 10
        E 15 b1 03 39
        E 15 b1 03 25
        E 15 b1 03 06
        E 15 b1 03 36
        E 15 b1 03 30
        E 15 b1 03 07
        E 15 b1 03 06
        E 15 b1 03 24
        E 15 b1 03 48
        E 15 b1 03 3c
        E 15 b1 03 42
        E 15 b1 03 2f
        E 15 b1 03 08
        E 15 b1 03 0e
        E 15 b1 03 33
        E 15 b1 03 2a
        E 15 b1 03 15
        E 15 b1 03 0f
        E 15 b1 03 14
        E 15 b1 03 3b
        E 15 b1 03 23
        E 15 b1 03 12
        E 15 b1 03 2b
        E 15 b1 03 4b
        E 15 b1 03 00
        E 15 b1 03 09
        E 15 b1 03 1f
        E 15 b1 03 19
        E 15 b1 03 3e
        E 15 b1 03 10
        E 15 b1 03 04
        E 15 b1 03 0c
        E 15 b1 03 0d
        E 15 b1 03 45
        E 15 b1 03 13
        E 15 b1 03 00
        E 15 b1 03 38
        E 15 b1 03 1a
        E 15 b1 03 0f
        E 15 b1 03 1e
        E 15 b1 03 13
        E 15 b1 03 40
        E 15 b1 03 40
        E 15 b1 03 4c
        E 15 b1 03 3f
        E 15 b1 03 21
        E 15 b1 03 46
        E 15 b1 03 36
        E 15 b1 03 09
        E 15 b1 03 21
        E 15 b1 03 28
        E 15 b1 03 48
        E 15 b1 03 3a
        E 15 b1 03 29
        E 15 b1 03 2a
        E 15 b1 03 03
        E 15 b1 03 07
        E 15 b1 03 46
        E 15 b1 03 3d
        E 15 b1 03 20
        E 15 b1 03 18
        E 15 b1 03 0a
        E 15 b1 03 22
        E 15 b1 03 16
        E 15 b1 03 12
        E 15 b1 03 1c
        E 15 b1 03 27
        E 15 b1 03 2e
        E 15 b1 03 31
        E 15 b1 03 0c
        E 15 b1 03 2d
        E 15 b1 03 43
        E 15 b1 03 27
        E 15 b1 03 2c
        E 15 b1 03 01
        E 15 b1 03 05
        E 15 b1 03 4b
        E 15 b1 03 31
        E 15 b1 03 0d
        E 15 b1 03 45
        E 15 b1 03 18
        E 15 b1 03 1d
        E 15 b1 03 25
        E 15 b1 03 1e
        E 15 b1 03 33
        E 15 b1 03 3d
        E 15 b1 03 16
        E 15 b1 03 2b
        E 15 b1 03 11
        E 15 b1 03 44
        E 15 b1 03 3f
        E 15 b1 03 22
        E 15 b1 03 1b
        E 15 b1 03 3c
        E 15 b1 03 1c
        E 15 b1 03 35
        E 15 b1 03 0a
        E 15 b1 03 01
        E 15 b1 03 19
        E 15 b1 03 26
        E 15 b1 03 41
        E 15 b1 03 3a
        E 15 b1 03 02
        E 15 b1 03 42
        E 15 b1 03 37
        E 15 b1 03 04
        E 15 b1 03 17
        E 15 b1 03 2d
        E 15 b1 03 39
        E 15 b1 03 49
        E 15 b1 03 2e
        E 15 b1 03 1f
        E 15 b1 03 15
        E 15 b1 03 34
        E 15 b1 03 37
        E 15 b1 03 43
        E 15 b1 03 4a
        E 15 b1 03 24
        E 15 b1 03 30
        E 15 b1 03 34
        E 15 b1 03 28
        E 15 b1 03 47
        E 15 b1 03 0b
        E 15 b1 03 1b
        E 15 b1 03 32
        E 70 b1 03 0b
        E 70 b1 03 26
        E 70 b1 03 19
        E 70 b1 03 04
        E 70 b1 03 24
        E 70 b1 03 20
        E 70 b1 03 04
        E 70 b1 03 04
        E 70 b1 03 18
        E 70 b1 03 30
        E 70 b1 03 28
        E 70 b1 03 2c
        E 70 b1 03 1f
        E 70 b1 03 05
        E 70 b1 03 09
        E 70 b1 03 22
        E 70 b1 03 1c
        E 70 b1 03 0e
        E 70 b1 03 0a
        E 70 b1 03 0d
        E 70 b1 03 27
        E 70 b1 03 17
        E 70 b1 03 0c
        E 70 b1 03 1d
        E 70 b1 03 32
        E 70 b1 03 00
        E 70 b1 03 06
        E 70 b1 03 14
        E 70 b1 03 11
        E 70 b1 03 29
        E 70 b1 03 0a
        E 70 b1 03 03
        E 70 b1 03 08
        E 70 b1 03 08
        E 70 b1 03 2e
        E 70 b1 03 0c
        E 70 b1 03 00
        E 70 b1 03 25
        E 70 b1 03 11
        E 70 b1 03 0a
        E 70 b1 03 14
        E 70 b1 03 0d
        E 70 b1 03 2b
        E 70 b1 03 2a
        E 70 b1 03 32
        E 70 b1 03 2a
        E 70 b1 03 16
        E 70 b1 03 2f
        E 70 b1 03 24
        E 70 b1 03 06
        E 70 b1 03 16
        E 70 b1 03 1b
        E 70 b1 03 30
        E 70 b1 03 26
        E 70 b1 03 1b
        E 70 b1 03 1c
        E 70 b1 03 02
        E 70 b1 03 05
        E 70 b1 03 2e
        E 70 b1 03 28
        E 70 b1 03 15
        E 70 b1 03 10
        E 70 b1 03 06
        E 70 b1 03 16
        E 70 b1 03 0f
        E 70 b1 03 0c
        E 70 b1 03 13
        E 70 b1 03 1a
        E 70 b1 03 1e
        E 70 b1 03 20
        E 70 b1 03 08
        E 70 b1 03 1e
        E 70 b1 03 2d
        E 70 b1 03 1a
        E 70 b1 03 1d
        E 70 b1 03 01
        E 70 b1 03 03
        E 70 b1 03 32
        E 70 b1 03 21
        E 70 b1 03 09
        E 70 b1 03 2e
        E 70 b1 03 10
        E 70 b1 03 13
        E 70 b1 03 18
        E 70 b1 03 14
        E 70 b1 03 22
        E 70 b1 03 29
        E 70 b1 03 0e
        E 70 b1 03 1c
        E 70 b1 03 0b
        E 70 b1 03 2d
        E 70 b1 03 2a
        E 70 b1 03 17
        E 70 b1 03 12
        E 70 b1 03 28
        E 70 b1 03 12
        E 70 b1 03 23
        E 70 b1 03 07
        E 70 b1 03 00
        E 70 b1 03 10
        E 70 b1 03 19
        E 70 b1 03 2b
        E 70 b1 03 27
        E 70 b1 03 01
        E 70 b1 03 2c
        E 70 b1 03 25
        E 70 b1 03 02
        E 70 b1 03 0f
        E 70 b1 03 1e
        E 70 b1 03 26
        E 70 b1 03 30
        E 70 b1 03 1f
        E 70 b1 03 15
        E 70 b1 03 0e
        E 70 b1 03 23
        E 70 b1 03 24
        E 70 b1 03 2c
        E 70 b1 03 31
        E 70 b1 03 18
        E 70 b1 03 20
        E 70 b1 03 22
        E 70 b1 03 1a
        E 70 b1 03 2f
        E 70 b1 03 07
        E 70 b1 03 12
        E 70 b1 03 21
        E 39 b1 03 13
        E 39 b1 03 43
        E 39 b1 03 2c
        E 39 b1 03 07
        E 39 b1 03 3e
        E 39 b1 03 38
        E 39 b1 03 08
        E 39 b1 03 07
        E 39 b1 03 2a
        E 39 b1 03 54
        E 39 b1 03 46
        E 39 b1 03 4d
        E 39 b1 03 37
        E 39 b1 03 09
        E 39 b1 03 10
        E 39 b1 03 3c
        E 39 b1 03 31
        E 39 b1 03 19
        E 39 b1 03 11
        E 39 b1 03 17
        E 39 b1 03 45
        E 39 b1 03 29
        E 39 b1 03 15
        E 39 b1 03 33
        E 39 b1 03 58
        E 39 b1 03 00
        E 39 b1 03 0b
        E 39 b1 03 24
        E 39 b1 03 1e
        E 39 b1 03 48
        E 39 b1 03 12
        E 39 b1 03 05
        E 39 b1 03 0e
        E 39 b1 03 0f
        E 39 b1 03 50
        E 39 b1 03 16
        E 39 b1 03 00
        E 39 b1 03 41
        E 39 b1 03 1e
        E 39 b1 03 12
        E 39 b1 03 23
        E 39 b1 03 17
        E 39 b1 03 4b
        E 39 b1 03 4a
        E 39 b1 03 58
        E 39 b1 03 4a
        E 39 b1 03 26
        E 39 b1 03 52
        E 39 b1 03 3f
        E 39 b1 03 0a
        E 39 b1 03 27
        E 39 b1 03 2f
        E 39 b1 03 54
        E 39 b1 03 43
        E 39 b1 03 30
        E 39 b1 03 31
        E 39 b1 03 04
        E 39 b1 03 09
        E 39 b1 03 51
        E 39 b1 03 47
        E 39 b1 03 25
        E 39 b1 03 1c
        E 39 b1 03 0b
        E 39 b1 03 27
        E 39 b1 03 1a
        E 39 b1 03 15
        E 39 b1 03 21
        E 39 b1 03 2e
        E 39 b1 03 35
        E 39 b1 03 39
        E 39 b1 03 0e
        E 39 b1 03 35
        E 39 b1 03 4f
        E 39 b1 03 2d
        E 39 b1 03 33
        E 39 b1 03 02
        E 39 b1 03 06
        E 39 b1 03 57
        E 39 b1 03 3a
        E 39 b1 03 10
        E 39 b1 03 51
        E 39 b1 03 1c
        E 39 b1 03 22
        E 39 b1 03 2b
        E 39 b1 03 23
        E 39 b1 03 3b
        E 39 b1 03 48
        E 39 b1 03 19
        E 39 b1 03 32
        E 39 b1 03 14
        E 39 b1 03 4f
        E 39 b1 03 49
        E 39 b1 03 28
        E 39 b1 03 20
        E 39 b1 03 46
        E 39 b1 03 20
        E 39 b1 03 3e
        E 39 b1 03 0c
        E 39 b1 03 01
        E 39 b1 03 1d
        E 39 b1 03 2c
        E 39 b1 03 4c
        E 39 b1 03 44
        E 39 b1 03 02
        E 39 b1 03 4d
        E 39 b1 03 41
        E 39 b1 03 04
        E 39 b1 03 1b
        E 39 b1 03 34
        E 39 b1 03 42
        E 39 b1 03 55
        E 39 b1 03 36
        E 39 b1 03 25
        E 39 b1 03 18
        E 39 b1 03 3d
        E 39 b1 03 40
        E 39 b1 03 4e
        E 39 b1 03 56
        E 39 b1 03 2a
        E 39 b1 03 38
        E 39 b1 03 3c
        E 39 b1 03 2e
        E 39 b1 03 53
        E 39 b1 03 0d
        E 39 b1 03 1f
        E 39 b1 03 3a
        E 7 b1 03 0b
        E 7 b1 03 26
        E 7 b1 03 19
        E 7 b1 03 04
        E 7 b1 03 24
        E 7 b1 03 20
        E 7 b1 03 04
        E 7 b1 03 04
        E 7 b1 03 18
        E 7 b1 03 30
        E 7 b1 03 28
        E 7 b1 03 2c
        E 7 b1 03 1f
        E 7 b1 03 05
        E 7 b1 03 09
        E 7 b1 03 22
        E 7 b1 03 1c
        E 7 b1 03 0e
        E 7 b1 03 0a
        E 7 b1 03 0d
        E 7 b1 03 27
        E 7 b1 03 17
        E 7 b1 03 0c
        E 7 b1 03 1d
        E 7 b1 03 32
        E 7 b1 03 00
        E 7 b1 03 06
        E 7 b1 03 14
        E 7 b1 03 11
        E 7 b1 03 29
        E 7 b1 03 0a
        E 7 b1 03 03
        E 7 b1 03 08
        E 7 b1 03 08
        E 7 b1 03 2e
        E 7 b1 03 0c
        E 7 b1 03 00
        E 7 b1 03 25
        E 7 b1 03 11
        E 7 b1 03 0a
        E 7 b1 03 14
        E 7 b1 03 0d
        E 7 b1 03 2b
        E 7 b1 03 2a
        E 7 b1 03 32
        E 7 b1 03 2a
        E 7 b1 03 16
        E 7 b1 03 2f
        E 7 b1 03 24
        E 7 b1 03 06
        E 7 b1 03 16
        E 7 b1 03 1b
        E 7 b1 03 30
        E 7 b1 03 26
        E 7 b1 03 1b
        E 7 b1 03 1c
        E 7 b1 03 02
        E 7 b1 03 05
        E 7 b1 03 2e
        E 7 b1 03 28
        E 7 b1 03 15
        E 7 b1 03 10
        E 7 b1 03 06
        E 7 b1 03 16
        E 7 b1 03 0f
        E 7 b1 03 0c
        E 7 b1 03 13
        E 7 b1 03 1a
        E 7 b1 03 1e
        E 7 b1 03 20
        E 7 b1 03 08
        E 7 b1 03 1e
        E 7 b1 03 2d
        E 7 b1 03 1a
        E 7 b1 03 1d
        E 7 b1 03 01
        E 7 b1 03 03
        E 7 b1 03 32
        E 7 b1 03 21
        E 7 b1 03 09
        E 7 b1 03 2e
        E 7 b1 03 10
        E 7 b1 03 13
        E 7 b1 03 18
        E 7 b1 03 14
        E 7 b1 03 22
        E 7 b1 03 29
        E 7 b1 03 0e
        E 7 b1 03 1c
        E 7 b1 03 0b
        E 7 b1 03 2d
        E 7 b1 03 2a
        E 7 b1 03 17
        E 7 b1 03 12
        E 7 b1 03 28
        E 7 b1 03 12
        E 7 b1 03 23
        E 7 b1 03 07
        E 7 b1 03 00
        E 7 b1 03 10
        E 7 b1 03 19
        E 7 b1 03 2b
        E 7 b1 03 27
        E 7 b1 03 01
        E 7 b1 03 2c
        E 7 b1 03 25
        E 7 b1 03 02
        E 7 b1 03 0f
        E 7 b1 03 1e
        E 7 b1 03 26
        E 7 b1 03 30
        E 7 b1 03 1f
        E 7 b1 03 15
        E 7 b1 03 0e
        E 7 b1 03 23
        E 7 b1 03 24
        E 7 b1 03 2c
        E 7 b1 03 31
        E 7 b1 03 18
        E 7 b1 03 20
        E 7 b1 03 22
        E 7 b1 03 1a
        E 7 b1 03 2f
        E 7 b1 03 07
        E 7 b1 03 12
        E 7 b1 03 21
        E 23 b1 03 16
        E 23 b1 03 4c
        E 23 b1 03 32
        E 23 b1 03 07
        E 23 b1 03 48
        E 23 b1 03 3f
        E 23 b1 03 09
        E 23 b1 03 08
        E 23 b1 03 30
        E 23 b1 03 5f
        E 23 b1 03 50
        E 23 b1 03 58
        E 23 b1 03 3f
        E 23 b1 03 0b
        E 23 b1 03 13
        E 23 b1 03 44
        E 23 b1 03 37
        E 23 b1 03 1c
        E 23 b1 03 14
        E 23 b1 03 1b
        E 23 b1 03 4f
        E 23 b1 03 2f
        E 23 b1 03 17
        E 23 b1 03 3a
        E 23 b1 03 64
        E 23 b1 03 00
        E 23 b1 03 0c
        E 23 b1 03 29
        E 23 b1 03 22
        E 23 b1 03 53
        E 23 b1 03 15
        E 23 b1 03 06
        E 23 b1 03 0f
        E 23 b1 03 11
        E 23 b1 03 5b
        E 23 b1 03 19
        E 23 b1 03 00
        E 23 b1 03 4b
        E 23 b1 03 23
        E 23 b1 03 14
        E 23 b1 03 28
        E 23 b1 03 1a
        E 23 b1 03 56
        E 23 b1 03 55
        E 23 b1 03 65
        E 23 b1 03 54
        E 23 b1 03 2b
        E 23 b1 03 5e
        E 23 b1 03 48
        E 23 b1 03 0b
        E 23 b1 03 2c
        E 23 b1 03 36
        E 23 b1 03 60
        E 23 b1 03 4d
        E 23 b1 03 37
        E 23 b1 03 38
        E 23 b1 03 04
        E 23 b1 03 0a
        E 23 b1 03 5d
        E 23 b1 03 51
        E 23 b1 03 2b
        E 23 b1 03 1f
        E 23 b1 03 0d
        E 23 b1 03 2d
        E 23 b1 03 1e
        E 23 b1 03 18
        E 23 b1 03 26
        E 23 b1 03 34
        E 23 b1 03 3d
        E 23 b1 03 41
        E 23 b1 03 10
        E 23 b1 03 3c
        E 23 b1 03 5a
        E 23 b1 03 33
        E 23 b1 03 3b
        E 23 b1 03 02
        E 23 b1 03 07
        E 23 b1 03 63
        E 23 b1 03 42
        E 23 b1 03 12
        E 23 b1 03 5c
        E 23 b1 03 20
        E 23 b1 03 27
        E 23 b1 03 31
        E 23 b1 03 28
        E 23 b1 03 44
        E 23 b1 03 52
        E 23 b1 03 1d
        E 23 b1 03 39
        E 23 b1 03 17
        E 23 b1 03 5b
        E 23 b1 03 54
        E 23 b1 03 2e
        E 23 b1 03 24
        E 23 b1 03 50
        E 23 b1 03 25
        E 23 b1 03 47
        E 23 b1 03 0e
        E 23 b1 03 01
        E 23 b1 03 21
        E 23 b1 03 33
        E 23 b1 03 57
        E 23 b1 03 4e
        E 23 b1 03 03
        E 23 b1 03 57
        E 23 b1 03 4a
        E 23 b1 03 05
        E 23 b1 03 1f
        E 23 b1 03 3b
        E 23 b1 03 4c
        E 23 b1 03 61
        E 23 b1 03 3e
        E 23 b1 03 2a
        E 23 b1 03 1b
        E 23 b1 03 46
        E 23 b1 03 49
        E 23 b1 03 59
        E 23 b1 03 63
        E 23 b1 03 2f
        E 23 b1 03 40
        E 23 b1 03 45
        E 23 b1 03 35
        E 23 b1 03 5f
        E 23 b1 03 0f
        E 23 b1 03 24
        E 23 b1 03 43
        E 70 b1 03 16
        E 70 b1 03 4c
        E 70 b1 03 32
        E 70 b1 03 07
        E 70 b1 03 48
        E 70 b1 03 3f
        E 70 b1 03 09
        E 70 b1 03 08
        E 70 b1 03 30
        E 70 b1 03 5f
        E 70 b1 03 50
        E 70 b1 03 58
        E 70 b1 03 3f
        E 70 b1 03 0b
        E 70 b1 03 13
        E 70 b1 03 44
        E 70 b1 03 37
        E 70 b1 03 1c
        E 70 b1 03 14
        E 70 b1 03 1b
        E 70 b1 03 4f
        E 70 b1 03 2f
        E 70 b1 03 17
        E 70 b1 03 3a
        E 70 b1 03 64
        E 70 b1 03 00
        E 70 b1 03 0c
        E 70 b1 03 29
        E 70 b1 03 22
        E 70 b1 03 53
        E 70 b1 03 15
        E 70 b1 03 06
        E 70 b1 03 0f
        E 70 b1 03 11
        E 70 b1 03 5b
        E 70 b1 03 19
        E 70 b1 03 00
        E 70 b1 03 4b
        E 70 b1 03 23
        E 70 b1 03 14
        E 70 b1 03 28
        E 70 b1 03 1a
        E 70 b1 03 56
        E 70 b1 03 55
        E 70 b1 03 65
        E 70 b1 03 54
        E 70 b1 03 2b
        E 70 b1 03 5e
        E 70 b1 03 48
        E 70 b1 03 0b
        E 70 b1 03 2c
        E 70 b1 03 36
        E 70 b1 03 60
        E 70 b1 03 4d
        E 70 b1 03 37
        E 70 b1 03 38
        E 70 b1 03 04
        E 70 b1 03 0a
        E 70 b1 03 5d
        E 70 b1 03 51
        E 70 b1 03 2b
        E 70 b1 03 1f
        E 70 b1 03 0d
        E 70 b1 03 2d
        E 70 b1 03 1e
        E 70 b1 03 18
        E 70 b1 03 26
        E 70 b1 03 34
        E 70 b1 03 3d
        E 70 b1 03 41
        E 70 b1 03 10
        E 70 b1 03 3c
        E 70 b1 03 5a
        E 70 b1 03 33
        E 70 b1 03 3b
        E 70 b1 03 02
        E 70 b1 03 07
        E 70 b1 03 63
        E 70 b1 03 42
        E 70 b1 03 12
        E 70 b1 03 5c
        E 70 b1 03 20
        E 70 b1 03 27
        E 70 b1 03 31
        E 70 b1 03 28
        E 70 b1 03 44
        E 70 b1 03 52
        E 70 b1 03 1d
        E 70 b1 03 39
        E 70 b1 03 17
        E 70 b1 03 5b
        E 70 b1 03 54
        E 70 b1 03 2e
        E 70 b1 03 24
        E 70 b1 03 50
        E 70 b1 03 25
        E 70 b1 03 47
        E 70 b1 03 0e
        E 70 b1 03 01
        E 70 b1 03 21
        E 70 b1 03 33
        E 70 b1 03 57
        E 70 b1 03 4e
        E 70 b1 03 03
        E 70 b1 03 57
        E 70 b1 03 4a
        E 70 b1 03 05
        E 70 b1 03 1f
        E 70 b1 03 3b
        E 70 b1 03 4c
        E 70 b1 03 61
        E 70 b1 03 3e
        E 70 b1 03 2a
        E 70 b1 03 1b
        E 70 b1 03 46
        E 70 b1 03 49
        E 70 b1 03 59
        E 70 b1 03 63
        E 70 b1 03 2f
        E 70 b1 03 40
        E 70 b1 03 45
        E 70 b1 03 35
        E 70 b1 03 5f
        E 70 b1 03 0f
        E 70 b1 03 24
        E 70 b1 03 43
        E 15 b1 03 10
        E 15 b1 03 39
        E 15 b1 03 25
        E 15 b1 03 06
        E 15 b1 03 36
        E 15 b1 03 30
        E 15 b1 03 07
        E 15 b1 03 06
        E 15 b1 03 24
        E 15 b1 03 48
        E 15 b1 03 3c
        E 15 b1 03 42
        E 15 b1 03 2f
        E 15 b1 03 08
        E 15 b1 03 0e
        E 15 b1 03 33
        E 15 b1 03 2a
        E 15 b1 03 15
        E 15 b1 03 0f
        E 15 b1 03 14
        E 15 b1 03 3b
        E 15 b1 03 23
        E 15 b1 03 12
        E 15 b1 03 2b
        E 15 b1 03 4b
        E 15 b1 03 00
        E 15 b1 03 09
        E 15 b1 03 1f
        E 15 b1 03 19
        E 15 b1 03 3e
        E 15 b1 03 10
        E 15 b1 03 04
        E 15 b1 03 0c
        E 15 b1 03 0d
        E 15 b1 03 45
        E 15 b1 03 13
        E 15 b1 03 00
        E 15 b1 03 38
        E 15 b1 03 1a
        E 15 b1 03 0f
        E 15 b1 03 1e
        E 15 b1 03 13
        E 15 b1 03 40
        E 15 b1 03 40
        E 15 b1 03 4c
        E 15 b1 03 3f
        E 15 b1 03 21
        E 15 b1 03 46
        E 15 b1 03 36
        E 15 b1 03 09
        E 15 b1 03 21
        E 15 b1 03 28
        E 15 b1 03 48
        E 15 b1 03 3a
        E 15 b1 03 29
        E 15 b1 03 2a
        E 15 b1 03 03
        E 15 b1 03 07
        E 15 b1 03 46
        E 15 b1 03 3d
        E 15 b1 03 20
        E 15 b1 03 18
        E 15 b1 03 0a
        E 15 b1 03 22
        E 15 b1 03 16
        E 15 b1 03 12
        E 15 b1 03 1c
        E 15 b1 03 27
        E 15 b1 03 2e
        E 15 b1 03 31
        E 15 b1 03 0c
        E 15 b1 03 2d
        E 15 b1 03 43
        E 15 b1 03 27
        E 15 b1 03 2c
        E 15 b1 03 01
        E 15 b1 03 05
        E 15 b1 03 4b
        E 15 b1 03 31
        E 15 b1 03 0d
        E 15 b1 03 45
        E 15 b1 03 18
        E 15 b1 03 1d
        E 15 b1 03 25
        E 15 b1 03 1e
        E 15 b1 03 33
        E 15 b1 03 3d
        E 15 b1 03 16
        E 15 b1 03 2b
        E 15 b1 03 11
        E 15 b1 03 44
        E 15 b1 03 3f
        E 15 b1 03 22
        E 15 b1 03 1b
        E 15 b1 03 3c
        E 15 b1 03 1c
        E 15 b1 03 35
        E 15 b1 03 0a
        E 15 b1 03 01
        E 15 b1 03 19
        E 15 b1 03 26
        E 15 b1 03 41
        E 15 b1 03 3a
        E 15 b1 03 02
        E 15 b1 03 42
        E 15 b1 03 37
        E 15 b1 03 04
        E 15 b1 03 17
        E 15 b1 03 2d
        E 15 b1 03 39
        E 15 b1 03 49
        E 15 b1 03 2e
        E 15 b1 03 1f
        E 15 b1 03 15
        E 15 b1 03 34
        E 15 b1 03 37
        E 15 b1 03 43
        E 15 b1 03 4a
        E 15 b1 03 24
        E 15 b1 03 30
        E 15 b1 03 34
        E 15 b1 03 28
        E 15 b1 03 47
        E 15 b1 03 0b
        E 15 b1 03 1b
        E 15 b1 03 32
        E 70 b1 03 0b
        E 70 b1 03 26
        E 70 b1 03 19
        E 70 b1 03 04
        E 70 b1 03 24
        E 70 b1 03 20
        E 70 b1 03 04
        E 70 b1 03 04
        E 70 b1 03 18
        E 70 b1 03 30
        E 70 b1 03 28
        E 70 b1 03 2c
        E 70 b1 03 1f
        E 70 b1 03 05
        E 70 b1 03 09
        E 70 b1 03 22
        E 70 b1 03 1c
        E 70 b1 03 0e
        E 70 b1 03 0a
        E 70 b1 03 0d
        E 70 b1 03 27
        E 70 b1 03 17
        E 70 b1 03 0c
        E 70 b1 03 1d
        E 70 b1 03 32
        E 70 b1 03 00
        E 70 b1 03 06
        E 70 b1 03 14
        E 70 b1 03 11
        E 70 b1 03 29
        E 70 b1 03 0a
        E 70 b1 03 03
        E 70 b1 03 08
        E 70 b1 03 08
        E 70 b1 03 2e
        E 70 b1 03 0c
        E 70 b1 03 00
        E 70 b1 03 25
        E 70 b1 03 11
        E 70 b1 03 0a
        E 70 b1 03 14
        E 70 b1 03 0d
        E 70 b1 03 2b
        E 70 b1 03 2a
        E 70 b1 03 32
        E 70 b1 03 2a
        E 70 b1 03 16
        E 70 b1 03 2f
        E 70 b1 03 24
        E 70 b1 03 06
        E 70 b1 03 16
        E 70 b1 03 1b
        E 70 b1 03 30
        E 70 b1 03 26
        E 70 b1 03 1b
        E 70 b1 03 1c
        E 70 b1 03 02
        E 70 b1 03 05
        E 70 b1 03 2e
        E 70 b1 03 28
        E 70 b1 03 15
        E 70 b1 03 10
        E 70 b1 03 06
        E 70 b1 03 16
        E 70 b1 03 0f
        E 70 b1 03 0c
        E 70 b1 03 13
        E 70 b1 03 1a
        E 70 b1 03 1e
        E 70 b1 03 20
        E 70 b1 03 08
        E 70 b1 03 1e
        E 70 b1 03 2d
        E 70 b1 03 1a
        E 70 b1 03 1d
        E 70 b1 03 01
        E 70 b1 03 03
        E 70 b1 03 32
        E 70 b1 03 21
        E 70 b1 03 09
        E 70 b1 03 2e
        E 70 b1 03 10
        E 70 b1 03 13
        E 70 b1 03 18
        E 70 b1 03 14
        E 70 b1 03 22
        E 70 b1 03 29
        E 70 b1 03 0e
        E 70 b1 03 1c
        E 70 b1 03 0b
        E 70 b1 03 2d
        E 70 b1 03 2a
        E 70 b1 03 17
        E 70 b1 03 12
        E 70 b1 03 28
        E 70 b1 03 12
        E 70 b1 03 23
        E 70 b1 03 07
        E 70 b1 03 00
        E 70 b1 03 10
        E 70 b1 03 19
        E 70 b1 03 2b
        E 70 b1 03 27
        E 70 b1 03 01
        E 70 b1 03 2c
        E 70 b1 03 25
        E 70 b1 03 02
        E 70 b1 03 0f
        E 70 b1 03 1e
        E 70 b1 03 26
        E 70 b1 03 30
        E 70 b1 03 1f
        E 70 b1 03 15
        E 70 b1 03 0e
        E 70 b1 03 23
        E 70 b1 03 24
        E 70 b1 03 2c
        E 70 b1 03 31
        E 70 b1 03 18
        E 70 b1 03 20
        E 70 b1 03 22
        E 70 b1 03 1a
        E 70 b1 03 2f
        E 70 b1 03 07
        E 70 b1 03 12
        E 70 b1 03 21
        E 39 b1 03 13
        E 39 b1 03 43
        E 39 b1 03 2c
        E 39 b1 03 07
        E 39 b1 03 3e
        E 39 b1 03 38
        E 39 b1 03 08
        E 39 b1 03 07
        E 39 b1 03 2a
        E 39 b1 03 54
        E 39 b1 03 46
        E 39 b1 03 4d
        E 39 b1 03 37
        E 39 b1 03 09
        E 39 b1 03 10
        E 39 b1 03 3c
        E 39 b1 03 31
        E 39 b1 03 19
        E 39 b1 03 11
        E 39 b1 03 17
        E 39 b1 03 45
        E 39 b1 03 29
        E 39 b1 03 15
        E 39 b1 03 33
        E 39 b1 03 58
        E 39 b1 03 00
        E 39 b1 03 0b
        E 39 b1 03 24
        E 39 b1 03 1e
        E 39 b1 03 48
        E 39 b1 03 12
        E 39 b1 03 05
        E 39 b1 03 0e
        E 39 b1 03 0f
        E 39 b1 03 50
        E 39 b1 03 16
        E 39 b1 03 00
        E 39 b1 03 41
        E 39 b1 03 1e
        E 39 b1 03 12
        E 39 b1 03 23
        E 39 b1 03 17
        E 39 b1 03 4b
        E 39 b1 03 4a
        E 39 b1 03 58
        E 39 b1 03 4a
        E 39 b1 03 26
        E 39 b1 03 52
        E 39 b1 03 3f
        E 39 b1 03 0a
        E 39 b1 03 27
        E 39 b1 03 2f
        E 39 b1 03 54
        E 39 b1 03 43
        E 39 b1 03 30
        E 39 b1 03 31
        E 39 b1 03 04
        E 39 b1 03 09
        E 39 b1 03 51
        E 39 b1 03 47
        E 39 b1 03 25
        E 39 b1 03 1c
        E 39 b1 03 0b
        E 39 b1 03 27
        E 39 b1 03 1a
        E 39 b1 03 15
        E 39 b1 03 21
        E 39 b1 03 2e
        E 39 b1 03 35
        E 39 b1 03 39
        E 39 b1 03 0e
        E 39 b1 03 35
        E 39 b1 03 4f
        E 39 b1 03 2d
        E 39 b1 03 33
        E 39 b1 03 02
        E 39 b1 03 06
        E 39 b1 03 57
        E 39 b1 03 3a
        E 39 b1 03 10
        E 39 b1 03 51
        E 39 b1 03 1c
        E 39 b1 03 22
        E 39 b1 03 2b
        E 39 b1 03 23
        E 39 b1 03 3b
        E 39 b1 03 48
        E 39 b1 03 19
        E 39 b1 03 32
        E 39 b1 03 14
        E 39 b1 03 4f
        E 39 b1 03 49
        E 39 b1 03 28
        E 39 b1 03 20
        E 39 b1 03 46
        E 39 b1 03 20
        E 39 b1 03 3e
        E 39 b1 03 0c
        E 39 b1 03 01
        E 39 b1 03 1d
        E 39 b1 03 2c
        E 39 b1 03 4c
        E 39 b1 03 44
        E 39 b1 03 02
        E 39 b1 03 4d
        E 39 b1 03 41
        E 39 b1 03 04
        E 39 b1 03 1b
        E 39 b1 03 34
        E 39 b1 03 42
        E 39 b1 03 55
        E 39 b1 03 36
        E 39 b1 03 25
        E 39 b1 03 18
        E 39 b1 03 3d
        E 39 b1 03 40
        E 39 b1 03 4e
        E 39 b1 03 56
        E 39 b1 03 2a
        E 39 b1 03 38
        E 39 b1 03 3c
        E 39 b1 03 2e
        E 39 b1 03 53
        E 39 b1 03 0d
        E 39 b1 03 1f
        E 39 b1 03 3a
        E 13 b1 03 16
        E 13 b1 03 4c
        E 13 b1 03 32
        E 13 b1 03 07
        E 13 b1 03 48
        E 13 b1 03 3f
        E 13 b1 03 09
        E 13 b1 03 08
        E 13 b1 03 30
        E 13 b1 03 5f
        E 13 b1 03 50
        E 13 b1 03 58
        E 13 b1 03 3f
        E 13 b1 03 0b
        E 13 b1 03 13
        E 13 b1 03 44
        E 13 b1 03 37
        E 13 b1 03 1c
        E 13 b1 03 14
        E 13 b1 03 1b
        E 13 b1 03 4f
        E 13 b1 03 2f
        E 13 b1 03 17
        E 13 b1 03 3a
        E 13 b1 03 64
        E 13 b1 03 00
        E 13 b1 03 0c
        E 13 b1 03 29
        E 13 b1 03 22
        E 13 b1 03 53
        E 13 b1 03 15
        E 13 b1 03 06
        E 13 b1 03 0f
        E 13 b1 03 11
        E 13 b1 03 5b
        E 13 b1 03 19
        E 13 b1 03 00
        E 13 b1 03 4b
        E 13 b1 03 23
        E 13 b1 03 14
        E 13 b1 03 28
        E 13 b1 03 1a
        E 13 b1 03 56
        E 13 b1 03 55
        E 13 b1 03 65
        E 13 b1 03 54
        E 13 b1 03 2b
        E 13 b1 03 5e
        E 13 b1 03 48
        E 13 b1 03 0b
        E 13 b1 03 2c
        E 13 b1 03 36
        E 13 b1 03 60
        E 13 b1 03 4d
        E 13 b1 03 37
        E 13 b1 03 38
        E 13 b1 03 04
        E 13 b1 03 0a
        E 13 b1 03 5d
        E 13 b1 03 51
        E 13 b1 03 2b
        E 13 b1 03 1f
        E 13 b1 03 0d
        E 13 b1 03 2d
        E 13 b1 03 1e
        E 13 b1 03 18
        E 13 b1 03 26
        E 13 b1 03 34
        E 13 b1 03 3d
        E 13 b1 03 41
        E 13 b1 03 10
        E 13 b1 03 3c
        E 13 b1 03 5a
        E 13 b1 03 33
        E 13 b1 03 3b
        E 13 b1 03 02
        E 13 b1 03 07
        E 13 b1 03 63
        E 13 b1 03 42
        E 13 b1 03 12
        E 13 b1 03 5c
        E 13 b1 03 20
        E 13 b1 03 27
        E 13 b1 03 31
        E 13 b1 03 28
        E 13 b1 03 44
        E 13 b1 03 52
        E 13 b1 03 1d
        E 13 b1 03 39
        E 13 b1 03 17
        E 13 b1 03 5b
        E 13 b1 03 54
        E 13 b1 03 2e
        E 13 b1 03 24
        E 13 b1 03 50
        E 13 b1 03 25
        E 13 b1 03 47
        E 13 b1 03 0e
        E 13 b1 03 01
        E 13 b1 03 21
        E 13 b1 03 33
        E 13 b1 03 57
        E 13 b1 03 4e
        E 13 b1 03 03
        E 13 b1 03 57
        E 13 b1 03 4a
        E 13 b1 03 05
        E 13 b1 03 1f
        E 13 b1 03 3b
        E 13 b1 03 4c
        E 13 b1 03 61
        E 13 b1 03 3e
        E 13 b1 03 2a
        E 13 b1 03 1b
        E 13 b1 03 46
        E 13 b1 03 49
        E 13 b1 03 59
        E 13 b1 03 63
        E 13 b1 03 2f
        E 13 b1 03 40
        E 13 b1 03 45
        E 13 b1 03 35
        E 13 b1 03 5f
        E 13 b1 03 0f
        E 13 b1 03 24
        E 13 b1 03 43
        E 3 b1 03 10
        E 3 b1 03 39
        E 3 b1 03 25
        E 3 b1 03 06
        E 3 b1 03 36
        E 3 b1 03 30
        E 3 b1 03 07
        E 3 b1 03 06
        E 3 b1 03 24
        E 3 b1 03 48
        E 3 b1 03 3c
        E 3 b1 03 42
        E 3 b1 03 2f
        E 3 b1 03 08
        E 3 b1 03 0e
        E 3 b1 03 33
        E 3 b1 03 2a
        E 3 b1 03 15
        E 3 b1 03 0f
        E 3 b1 03 14
        E 3 b1 03 3b
        E 3 b1 03 23
        E 3 b1 03 12
        E 3 b1 03 2b
        E 3 b1 03 4b
        E 3 b1 03 00
        E 3 b1 03 09
        E 3 b1 03 1f
        E 3 b1 03 19
        E 3 b1 03 3e
        E 3 b1 03 10
        E 3 b1 03 04
        E 3 b1 03 0c
        E 3 b1 03 0d
        E 3 b1 03 45
        E 3 b1 03 13
        E 3 b1 03 00
        E 3 b1 03 38
        E 3 b1 03 1a
        E 3 b1 03 0f
        E 3 b1 03 1e
        E 3 b1 03 13
        E 3 b1 03 40
        E 3 b1 03 40
        E 3 b1 03 4c
        E 3 b1 03 3f
        E 3 b1 03 21
        E 3 b1 03 46
        E 3 b1 03 36
        E 3 b1 03 09
        E 3 b1 03 21
        E 3 b1 03 28
        E 3 b1 03 48
        E 3 b1 03 3a
        E 3 b1 03 29
        E 3 b1 03 2a
        E 3 b1 03 03
        E 3 b1 03 07
        E 3 b1 03 46
        E 3 b1 03 3d
        E 3 b1 03 20
        E 3 b1 03 18
        E 3 b1 03 0a
        E 3 b1 03 22
        E 3 b1 03 16
        E 3 b1 03 12
        E 3 b1 03 1c
        E 3 b1 03 27
        E 3 b1 03 2e
        E 3 b1 03 31
        E 3 b1 03 0c
        E 3 b1 03 2d
        E 3 b1 03 43
        E 3 b1 03 27
        E 3 b1 03 2c
        E 3 b1 03 01
        E 3 b1 03 05
        E 3 b1 03 4b
        E 3 b1 03 31
        E 3 b1 03 0d
        E 3 b1 03 45
        E 3 b1 03 18
        E 3 b1 03 1d
        E 3 b1 03 25
        E 3 b1 03 1e
        E 3 b1 03 33
        E 3 b1 03 3d
        E 3 b1 03 16
        E 3 b1 03 2b
        E 3 b1 03 11
        E 3 b1 03 44
        E 3 b1 03 3f
        E 3 b1 03 22
        E 3 b1 03 1b
        E 3 b1 03 3c
        E 3 b1 03 1c
        E 3 b1 03 35
        E 3 b1 03 0a
        E 3 b1 03 01
        E 3 b1 03 19
        E 3 b1 03 26
        E 3 b1 03 41
        E 3 b1 03 3a
        E 3 b1 03 02
        E 3 b1 03 42
        E 3 b1 03 37
        E 3 b1 03 04
        E 3 b1 03 17
        E 3 b1 03 2d
        E 3 b1 03 39
        E 3 b1 03 49
        E 3 b1 03 2e
        E 3 b1 03 1f
        E 3 b1 03 15
        E 3 b1 03 34
        E 3 b1 03 37
        E 3 b1 03 43
        E 3 b1 03 4a
        E 3 b1 03 24
        E 3 b1 03 30
        E 3 b1 03 34
        E 3 b1 03 28
        E 3 b1 03 47
        E 3 b1 03 0b
        E 3 b1 03 1b
        E 3 b1 03 32
        E 13 b1 03 0b
        E 13 b1 03 26
        E 13 b1 03 19
        E 13 b1 03 04
        E 13 b1 03 24
        E 13 b1 03 20
        E 13 b1 03 04
        E 13 b1 03 04
        E 13 b1 03 18
        E 13 b1 03 30
        E 13 b1 03 28
        E 13 b1 03 2c
        E 13 b1 03 1f
        E 13 b1 03 05
        E 13 b1 03 09
        E 13 b1 03 22
        E 13 b1 03 1c
        E 13 b1 03 0e
        E 13 b1 03 0a
        E 13 b1 03 0d
        E 13 b1 03 27
        E 13 b1 03 17
        E 13 b1 03 0c
        E 13 b1 03 1d
        E 13 b1 03 32
        E 13 b1 03 00
        E 13 b1 03 06
        E 13 b1 03 14
        E 13 b1 03 11
        E 13 b1 03 29
        E 13 b1 03 0a
        E 13 b1 03 03
        E 13 b1 03 08
        E 13 b1 03 08
        E 13 b1 03 2e
        E 13 b1 03 0c
        E 13 b1 03 00
        E 13 b1 03 25
        E 13 b1 03 11
        E 13 b1 03 0a
        E 13 b1 03 14
        E 13 b1 03 0d
        E 13 b1 03 2b
        E 13 b1 03 2a
        E 13 b1 03 32
        E 13 b1 03 2a
        E 13 b1 03 16
        E 13 b1 03 2f
        E 13 b1 03 24
        E 13 b1 03 06
        E 13 b1 03 16
        E 13 b1 03 1b
        E 13 b1 03 30
        E 13 b1 03 26
        E 13 b1 03 1b
        E 13 b1 03 1c
        E 13 b1 03 02
        E 13 b1 03 05
        E 13 b1 03 2e
        E 13 b1 03 28
        E 13 b1 03 15
        E 13 b1 03 10
        E 13 b1 03 06
        E 13 b1 03 16
        E 13 b1 03 0f
        E 13 b1 03 0c
        E 13 b1 03 13
        E 13 b1 03 1a
        E 13 b1 03 1e
        E 13 b1 03 20
        E 13 b1 03 08
        E 13 b1 03 1e
        E 13 b1 03 2d
        E 13 b1 03 1a
        E 13 b1 03 1d
        E 13 b1 03 01
        E 13 b1 03 03
        E 13 b1 03 32
        E 13 b1 03 21
        E 13 b1 03 09
        E 13 b1 03 2e
        E 13 b1 03 10
        E 13 b1 03 13
        E 13 b1 03 18
        E 13 b1 03 14
        E 13 b1 03 22
        E 13 b1 03 29
        E 13 b1 03 0e
        E 13 b1 03 1c
        E 13 b1 03 0b
        E 13 b1 03 2d
        E 13 b1 03 2a
        E 13 b1 03 17
        E 13 b1 03 12
        E 13 b1 03 28
        E 13 b1 03 12
        E 13 b1 03 23
        E 13 b1 03 07
        E 13 b1 03 00
        E 13 b1 03 10
        E 13 b1 03 19
        E 13 b1 03 2b
        E 13 b1 03 27
        E 13 b1 03 01
        E 13 b1 03 2c
        E 13 b1 03 25
        E 13 b1 03 02
        E 13 b1 03 0f
        E 13 b1 03 1e
        E 13 b1 03 26
        E 13 b1 03 30
        E 13 b1 03 1f
        E 13 b1 03 15
        E 13 b1 03 0e
        E 13 b1 03 23
        E 13 b1 03 24
        E 13 b1 03 2c
        E 13 b1 03 31
        E 13 b1 03 18
        E 13 b1 03 20
        E 13 b1 03 22
        E 13 b1 03 1a
        E 13 b1 03 2f
        E 13 b1 03 07
        E 13 b1 03 12
        E 13 b1 03 21
        E 7 b1 03 13
        E 7 b1 03 43
        E 7 b1 03 2c
        E 7 b1 03 07
        E 7 b1 03 3e
        E 7 b1 03 38
        E 7 b1 03 08
        E 7 b1 03 07
        E 7 b1 03 2a
        E 7 b1 03 54
        E 7 b1 03 46
        E 7 b1 03 4d
        E 7 b1 03 37
        E 7 b1 03 09
        E 7 b1 03 10
        E 7 b1 03 3c
        E 7 b1 03 31
        E 7 b1 03 19
        E 7 b1 03 11
        E 7 b1 03 17
        E 7 b1 03 45
        E 7 b1 03 29
        E 7 b1 03 15
        E 7 b1 03 33
        E 7 b1 03 58
        E 7 b1 03 00
        E 7 b1 03 0b
        E 7 b1 03 24
        E 7 b1 03 1e
        E 7 b1 03 48
        E 7 b1 03 12
        E 7 b1 03 05
        E 7 b1 03 0e
        E 7 b1 03 0f
        E 7 b1 03 50
        E 7 b1 03 16
        E 7 b1 03 00
        E 7 b1 03 41
        E 7 b1 03 1e
        E 7 b1 03 12
        E 7 b1 03 23
        E 7 b1 03 17
        E 7 b1 03 4b
        E 7 b1 03 4a
        E 7 b1 03 58
        E 7 b1 03 4a
        E 7 b1 03 26
        E 7 b1 03 52
        E 7 b1 03 3f
        E 7 b1 03 0a
        E 7 b1 03 27
        E 7 b1 03 2f
        E 7 b1 03 54
        E 7 b1 03 43
        E 7 b1 03 30
        E 7 b1 03 31
        E 7 b1 03 04
        E 7 b1 03 09
        E 7 b1 03 51
        E 7 b1 03 47
        E 7 b1 03 25
        E 7 b1 03 1c
        E 7 b1 03 0b
        E 7 b1 03 27
        E 7 b1 03 1a
        E 7 b1 03 15
        E 7 b1 03 21
        E 7 b1 03 2e
        E 7 b1 03 35
        E 7 b1 03 39
        E 7 b1 03 0e
        E 7 b1 03 35
        E 7 b1 03 4f
        E 7 b1 03 2d
        E 7 b1 03 33
        E 7 b1 03 02
        E 7 b1 03 06
        E 7 b1 03 57
        E 7 b1 03 3a
        E 7 b1 03 10
        E 7 b1 03 51
        E 7 b1 03 1c
        E 7 b1 03 22
        E 7 b1 03 2b
        E 7 b1 03 23
        E 7 b1 03 3b
        E 7 b1 03 48
        E 7 b1 03 19
        E 7 b1 03 32
        E 7 b1 03 14
        E 7 b1 03 4f
        E 7 b1 03 49
        E 7 b1 03 28
        E 7 b1 03 20
        E 7 b1 03 46
        E 7 b1 03 20
        E 7 b1 03 3e
        E 7 b1 03 0c
        E 7 b1 03 01
        E 7 b1 03 1d
        E 7 b1 03 2c
        E 7 b1 03 4c
        E 7 b1 03 44
        E 7 b1 03 02
        E 7 b1 03 4d
        E 7 b1 03 41
        E 7 b1 03 04
        E 7 b1 03 1b
        E 7 b1 03 34
        E 7 b1 03 42
        E 7 b1 03 55
        E 7 b1 03 36
        E 7 b1 03 25
        E 7 b1 03 18
        E 7 b1 03 3d
        E 7 b1 03 40
        E 7 b1 03 4e
        E 7 b1 03 56
        E 7 b1 03 2a
        E 7 b1 03 38
        E 7 b1 03 3c
        E 7 b1 03 2e
        E 7 b1 03 53
        E 7 b1 03 0d
        E 7 b1 03 1f
        E 7 b1 03 3a
        E 1 b1 03 0b
        E 1 b1 03 26
        E 1 b1 03 19
        E 1 b1 03 04
        E 1 b1 03 24
        E 1 b1 03 20
        E 1 b1 03 04
        E 1 b1 03 04
        E 1 b1 03 18
        E 1 b1 03 30
        E 1 b1 03 28
        E 1 b1 03 2c
        E 1 b1 03 1f
        E 1 b1 03 05
        E 1 b1 03 09
        E 1 b1 03 22
        E 1 b1 03 1c
        E 1 b1 03 0e
        E 1 b1 03 0a
        E 1 b1 03 0d
        E 1 b1 03 27
        E 1 b1 03 17
        E 1 b1 03 0c
        E 1 b1 03 1d
        E 1 b1 03 32
        E 1 b1 03 00
        E 1 b1 03 06
        E 1 b1 03 14
        E 1 b1 03 11
        E 1 b1 03 29
        E 1 b1 03 0a
        E 1 b1 03 03
        E 1 b1 03 08
        E 1 b1 03 08
        E 1 b1 03 2e
        E 1 b1 03 0c
        E 1 b1 03 00
        E 1 b1 03 25
        E 1 b1 03 11
        E 1 b1 03 0a
        E 1 b1 03 14
        E 1 b1 03 0d
        E 1 b1 03 2b
        E 1 b1 03 2a
        E 1 b1 03 32
        E 1 b1 03 2a
        E 1 b1 03 16
        E 1 b1 03 2f
        E 1 b1 03 24
        E 1 b1 03 06
        E 1 b1 03 16
        E 1 b1 03 1b
        E 1 b1 03 30
        E 1 b1 03 26
        E 1 b1 03 1b
        E 1 b1 03 1c
        E 1 b1 03 02
        E 1 b1 03 05
        E 1 b1 03 2e
        E 1 b1 03 28
        E 1 b1 03 15
        E 1 b1 03 10
        E 1 b1 03 06
        E 1 b1 03 16
        E 1 b1 03 0f
        E 1 b1 03 0c
        E 1 b1 03 13
        E 1 b1 03 1a
        E 1 b1 03 1e
        E 1 b1 03 20
        E 1 b1 03 08
        E 1 b1 03 1e
        E 1 b1 03 2d
        E 1 b1 03 1a
        E 1 b1 03 1d
        E 1 b1 03 01
        E 1 b1 03 03
        E 1 b1 03 32
        E 1 b1 03 21
        E 1 b1 03 09
        E 1 b1 03 2e
        E 1 b1 03 10
        E 1 b1 03 13
        E 1 b1 03 18
        E 1 b1 03 14
        E 1 b1 03 22
        E 1 b1 03 29
        E 1 b1 03 0e
        E 1 b1 03 1c
        E 1 b1 03 0b
        E 1 b1 03 2d
        E 1 b1 03 2a
        E 1 b1 03 17
        E 1 b1 03 12
        E 1 b1 03 28
        E 1 b1 03 12
        E 1 b1 03 23
        E 1 b1 03 07
        E 1 b1 03 00
        E 1 b1 03 10
        E 1 b1 03 19
        E 1 b1 03 2b
        E 1 b1 03 27
        E 1 b1 03 01
        E 1 b1 03 2c
        E 1 b1 03 25
        E 1 b1 03 02
        E 1 b1 03 0f
        E 1 b1 03 1e
        E 1 b1 03 26
        E 1 b1 03 30
        E 1 b1 03 1f
        E 1 b1 03 15
        E 1 b1 03 0e
        E 1 b1 03 23
        E 1 b1 03 24
        E 1 b1 03 2c
        E 1 b1 03 31
        E 1 b1 03 18
        E 1 b1 03 20
        E 1 b1 03 22
        E 1 b1 03 1a
        E 1 b1 03 2f
        E 1 b1 03 07
        E 1 b1 03 12
        E 1 b1 03 21
        E 4 b1 03 16
        E 4 b1 03 4c
        E 4 b1 03 32
        E 4 b1 03 07
        E 4 b1 03 48
        E 4 b1 03 3f
        E 4 b1 03 09
        E 4 b1 03 08
        E 4 b1 03 30
        E 4 b1 03 5f
        E 4 b1 03 50
        E 4 b1 03 58
        E 4 b1 03 3f
        E 4 b1 03 0b
        E 4 b1 03 13
        E 4 b1 03 44
        E 4 b1 03 37
        E 4 b1 03 1c
        E 4 b1 03 14
        E 4 b1 03 1b
        E 4 b1 03 4f
        E 4 b1 03 2f
        E 4 b1 03 17
        E 4 b1 03 3a
        E 4 b1 03 64
        E 4 b1 03 00
        E 4 b1 03 0c
        E 4 b1 03 29
        E 4 b1 03 22
        E 4 b1 03 53
        E 4 b1 03 15
        E 4 b1 03 06
        E 4 b1 03 0f
        E 4 b1 03 11
        E 4 b1 03 5b
        E 4 b1 03 19
        E 4 b1 03 00
        E 4 b1 03 4b
        E 4 b1 03 23
        E 4 b1 03 14
        E 4 b1 03 28
        E 4 b1 03 1a
        E 4 b1 03 56
        E 4 b1 03 55
        E 4 b1 03 65
        E 4 b1 03 54
        E 4 b1 03 2b
        E 4 b1 03 5e
        E 4 b1 03 48
        E 4 b1 03 0b
        E 4 b1 03 2c
        E 4 b1 03 36
        E 4 b1 03 60
        E 4 b1 03 4d
        E 4 b1 03 37
        E 4 b1 03 38
        E 4 b1 03 04
        E 4 b1 03 0a
        E 4 b1 03 5d
        E 4 b1 03 51
        E 4 b1 03 2b
        E 4 b1 03 1f
        E 4 b1 03 0d
        E 4 b1 03 2d
        E 4 b1 03 1e
        E 4 b1 03 18
        E 4 b1 03 26
        E 4 b1 03 34
        E 4 b1 03 3d
        E 4 b1 03 41
        E 4 b1 03 10
        E 4 b1 03 3c
        E 4 b1 03 5a
        E 4 b1 03 33
        E 4 b1 03 3b
        E 4 b1 03 02
        E 4 b1 03 07
        E 4 b1 03 63
        E 4 b1 03 42
        E 4 b1 03 12
        E 4 b1 03 5c
        E 4 b1 03 20
        E 4 b1 03 27
        E 4 b1 03 31
        E 4 b1 03 28
        E 4 b1 03 44
        E 4 b1 03 52
        E 4 b1 03 1d
        E 4 b1 03 39
        E 4 b1 03 17
        E 4 b1 03 5b
        E 4 b1 03 54
        E 4 b1 03 2e
        E 4 b1 03 24
        E 4 b1 03 50
        E 4 b1 03 25
        E 4 b1 03 47
        E 4 b1 03 0e
        E 4 b1 03 01
        E 4 b1 03 21
        E 4 b1 03 33
        E 4 b1 03 57
        E 4 b1 03 4e
        E 4 b1 03 03
        E 4 b1 03 57
        E 4 b1 03 4a
        E 4 b1 03 05
        E 4 b1 03 1f
        E 4 b1 03 3b
        E 4 b1 03 4c
        E 4 b1 03 61
        E 4 b1 03 3e
        E 4 b1 03 2a
        E 4 b1 03 1b
        E 4 b1 03 46
        E 4 b1 03 49
        E 4 b1 03 59
        E 4 b1 03 63
        E 4 b1 03 2f
        E 4 b1 03 40
        E 4 b1 03 45
        E 4 b1 03 35
        E 4 b1 03 5f
        E 4 b1 03 0f
        E 4 b1 03 24
        E 4 b1 03 43
        E 13 b1 03 16
        E 13 b1 03 4c
        E 13 b1 03 32
        E 13 b1 03 07
        E 13 b1 03 48
        E 13 b1 03 3f
        E 13 b1 03 09
        E 13 b1 03 08
        E 13 b1 03 30
        E 13 b1 03 5f
        E 13 b1 03 50
        E 13 b1 03 58
        E 13 b1 03 3f
        E 13 b1 03 0b
        E 13 b1 03 13
        E 13 b1 03 44
        E 13 b1 03 37
        E 13 b1 03 1c
        E 13 b1 03 14
        E 13 b1 03 1b
        E 13 b1 03 4f
        E 13 b1 03 2f
        E 13 b1 03 17
        E 13 b1 03 3a
        E 13 b1 03 64
        E 13 b1 03 00
        E 13 b1 03 0c
        E 13 b1 03 29
        E 13 b1 03 22
        E 13 b1 03 53
        E 13 b1 03 15
        E 13 b1 03 06
        E 13 b1 03 0f
        E 13 b1 03 11
        E 13 b1 03 5b
        E 13 b1 03 19
        E 13 b1 03 00
        E 13 b1 03 4b
        E 13 b1 03 23
        E 13 b1 03 14
        E 13 b1 03 28
        E 13 b1 03 1a
        E 13 b1 03 56
        E 13 b1 03 55
        E 13 b1 03 65
        E 13 b1 03 54
        E 13 b1 03 2b
        E 13 b1 03 5e
        E 13 b1 03 48
        E 13 b1 03 0b
        E 13 b1 03 2c
        E 13 b1 03 36
        E 13 b1 03 60
        E 13 b1 03 4d
        E 13 b1 03 37
        E 13 b1 03 38
        E 13 b1 03 04
        E 13 b1 03 0a
        E 13 b1 03 5d
        E 13 b1 03 51
        E 13 b1 03 2b
        E 13 b1 03 1f
        E 13 b1 03 0d
        E 13 b1 03 2d
        E 13 b1 03 1e
        E 13 b1 03 18
        E 13 b1 03 26
        E 13 b1 03 34
        E 13 b1 03 3d
        E 13 b1 03 41
        E 13 b1 03 10
        E 13 b1 03 3c
        E 13 b1 03 5a
        E 13 b1 03 33
        E 13 b1 03 3b
        E 13 b1 03 02
        E 13 b1 03 07
        E 13 b1 03 63
        E 13 b1 03 42
        E 13 b1 03 12
        E 13 b1 03 5c
        E 13 b1 03 20
        E 13 b1 03 27
        E 13 b1 03 31
        E 13 b1 03 28
        E 13 b1 03 44
        E 13 b1 03 52
        E 13 b1 03 1d
        E 13 b1 03 39
        E 13 b1 03 17
        E 13 b1 03 5b
        E 13 b1 03 54
        E 13 b1 03 2e
        E 13 b1 03 24
        E 13 b1 03 50
        E 13 b1 03 25
        E 13 b1 03 47
        E 13 b1 03 0e
        E 13 b1 03 01
        E 13 b1 03 21
        E 13 b1 03 33
        E 13 b1 03 57
        E 13 b1 03 4e
        E 13 b1 03 03
        E 13 b1 03 57
        E 13 b1 03 4a
        E 13 b1 03 05
        E 13 b1 03 1f
        E 13 b1 03 3b
        E 13 b1 03 4c
        E 13 b1 03 61
        E 13 b1 03 3e
        E 13 b1 03 2a
        E 13 b1 03 1b
        E 13 b1 03 46
        E 13 b1 03 49
        E 13 b1 03 59
        E 13 b1 03 63
        E 13 b1 03 2f
        E 13 b1 03 40
        E 13 b1 03 45
        E 13 b1 03 35
        E 13 b1 03 5f
        E 13 b1 03 0f
        E 13 b1 03 24
        E 13 b1 03 43
        E 3 b1 03 10
        E 3 b1 03 39
        E 3 b1 03 25
        E 3 b1 03 06
        E 3 b1 03 36
        E 3 b1 03 30
        E 3 b1 03 07
        E 3 b1 03 06
        E 3 b1 03 24
        E 3 b1 03 48
        E 3 b1 03 3c
        E 3 b1 03 42
        E 3 b1 03 2f
        E 3 b1 03 08
        E 3 b1 03 0e
        E 3 b1 03 33
        E 3 b1 03 2a
        E 3 b1 03 15
        E 3 b1 03 0f
        E 3 b1 03 14
        E 3 b1 03 3b
        E 3 b1 03 23
        E 3 b1 03 12
        E 3 b1 03 2b
        E 3 b1 03 4b
        E 3 b1 03 00
        E 3 b1 03 09
        E 3 b1 03 1f
        E 3 b1 03 19
        E 3 b1 03 3e
        E 3 b1 03 10
        E 3 b1 03 04
        E 3 b1 03 0c
        E 3 b1 03 0d
        E 3 b1 03 45
        E 3 b1 03 13
        E 3 b1 03 00
        E 3 b1 03 38
        E 3 b1 03 1a
        E 3 b1 03 0f
        E 3 b1 03 1e
        E 3 b1 03 13
        E 3 b1 03 40
        E 3 b1 03 40
        E 3 b1 03 4c
        E 3 b1 03 3f
        E 3 b1 03 21
        E 3 b1 03 46
        E 3 b1 03 36
        E 3 b1 03 09
        E 3 b1 03 21
        E 3 b1 03 28
        E 3 b1 03 48
        E 3 b1 03 3a
        E 3 b1 03 29
        E 3 b1 03 2a
        E 3 b1 03 03
        E 3 b1 03 07
        E 3 b1 03 46
        E 3 b1 03 3d
        E 3 b1 03 20
        E 3 b1 03 18
        E 3 b1 03 0a
        E 3 b1 03 22
        E 3 b1 03 16
        E 3 b1 03 12
        E 3 b1 03 1c
        E 3 b1 03 27
        E 3 b1 03 2e
        E 3 b1 03 31
        E 3 b1 03 0c
        E 3 b1 03 2d
        E 3 b1 03 43
        E 3 b1 03 27
        E 3 b1 03 2c
        E 3 b1 03 01
        E 3 b1 03 05
        E 3 b1 03 4b
        E 3 b1 03 31
        E 3 b1 03 0d
        E 3 b1 03 45
        E 3 b1 03 18
        E 3 b1 03 1d
        E 3 b1 03 25
        E 3 b1 03 1e
        E 3 b1 03 33
        E 3 b1 03 3d
        E 3 b1 03 16
        E 3 b1 03 2b
        E 3 b1 03 11
        E 3 b1 03 44
        E 3 b1 03 3f
        E 3 b1 03 22
        E 3 b1 03 1b
        E 3 b1 03 3c
        E 3 b1 03 1c
        E 3 b1 03 35
        E 3 b1 03 0a
        E 3 b1 03 01
        E 3 b1 03 19
        E 3 b1 03 26
        E 3 b1 03 41
        E 3 b1 03 3a
        E 3 b1 03 02
        E 3 b1 03 42
        E 3 b1 03 37
        E 3 b1 03 04
        E 3 b1 03 17
        E 3 b1 03 2d
        E 3 b1 03 39
        E 3 b1 03 49
        E 3 b1 03 2e
        E 3 b1 03 1f
        E 3 b1 03 15
        E 3 b1 03 34
        E 3 b1 03 37
        E 3 b1 03 43
        E 3 b1 03 4a
        E 3 b1 03 24
        E 3 b1 03 30
        E 3 b1 03 34
        E 3 b1 03 28
        E 3 b1 03 47
        E 3 b1 03 0b
        E 3 b1 03 1b
        E 3 b1 03 32
        E 13 b1 03 0b
        E 13 b1 03 26
        E 13 b1 03 19
        E 13 b1 03 04
        E 13 b1 03 24
        E 13 b1 03 20
        E 13 b1 03 04
        E 13 b1 03 04
        E 13 b1 03 18
        E 13 b1 03 30
        E 13 b1 03 28
        E 13 b1 03 2c
        E 13 b1 03 1f
        E 13 b1 03 05
        E 13 b1 03 09
        E 13 b1 03 22
        E 13 b1 03 1c
        E 13 b1 03 0e
        E 13 b1 03 0a
        E 13 b1 03 0d
        E 13 b1 03 27
        E 13 b1 03 17
        E 13 b1 03 0c
        E 13 b1 03 1d
        E 13 b1 03 32
        E 13 b1 03 00
        E 13 b1 03 06
        E 13 b1 03 14
        E 13 b1 03 11
        E 13 b1 03 29
        E 13 b1 03 0a
        E 13 b1 03 03
        E 13 b1 03 08
        E 13 b1 03 08
        E 13 b1 03 2e
        E 13 b1 03 0c
        E 13 b1 03 00
        E 13 b1 03 25
        E 13 b1 03 11
        E 13 b1 03 0a
        E 13 b1 03 14
        E 13 b1 03 0d
        E 13 b1 03 2b
        E 13 b1 03 2a
        E 13 b1 03 32
        E 13 b1 03 2a
        E 13 b1 03 16
        E 13 b1 03 2f
        E 13 b1 03 24
        E 13 b1 03 06
        E 13 b1 03 16
        E 13 b1 03 1b
        E 13 b1 03 30
        E 13 b1 03 26
        E 13 b1 03 1b
        E 13 b1 03 1c
        E 13 b1 03 02
        E 13 b1 03 05
        E 13 b1 03 2e
        E 13 b1 03 28
        E 13 b1 03 15
        E 13 b1 03 10
        E 13 b1 03 06
        E 13 b1 03 16
        E 13 b1 03 0f
        E 13 b1 03 0c
        E 13 b1 03 13
        E 13 b1 03 1a
        E 13 b1 03 1e
        E 13 b1 03 20
        E 13 b1 03 08
        E 13 b1 03 1e
        E 13 b1 03 2d
        E 13 b1 03 1a
        E 13 b1 03 1d
        E 13 b1 03 01
        E 13 b1 03 03
        E 13 b1 03 32
        E 13 b1 03 21
        E 13 b1 03 09
        E 13 b1 03 2e
        E 13 b1 03 10
        E 13 b1 03 13
        E 13 b1 03 18
        E 13 b1 03 14
        E 13 b1 03 22
        E 13 b1 03 29
        E 13 b1 03 0e
        E 13 b1 03 1c
        E 13 b1 03 0b
        E 13 b1 03 2d
        E 13 b1 03 2a
        E 13 b1 03 17
        E 13 b1 03 12
        E 13 b1 03 28
        E 13 b1 03 12
        E 13 b1 03 23
        E 13 b1 03 07
        E 13 b1 03 00
        E 13 b1 03 10
        E 13 b1 03 19
        E 13 b1 03 2b
        E 13 b1 03 27
        E 13 b1 03 01
        E 13 b1 03 2c
        E 13 b1 03 25
        E 13 b1 03 02
        E 13 b1 03 0f
        E 13 b1 03 1e
        E 13 b1 03 26
        E 13 b1 03 30
        E 13 b1 03 1f
        E 13 b1 03 15
        E 13 b1 03 0e
        E 13 b1 03 23
        E 13 b1 03 24
        E 13 b1 03 2c
        E 13 b1 03 31
        E 13 b1 03 18
        E 13 b1 03 20
        E 13 b1 03 22
        E 13 b1 03 1a
        E 13 b1 03 2f
        E 13 b1 03 07
        E 13 b1 03 12
        E 13 b1 03 21
        E 7 b1 03 13
        E 7 b1 03 43
        E 7 b1 03 2c
        E 7 b1 03 07
        E 7 b1 03 3e
        E 7 b1 03 38
        E 7 b1 03 08
        E 7 b1 03 07
        E 7 b1 03 2a
        E 7 b1 03 54
        E 7 b1 03 46
        E 7 b1 03 4d
        E 7 b1 03 37
        E 7 b1 03 09
        E 7 b1 03 10
        E 7 b1 03 3c
        E 7 b1 03 31
        E 7 b1 03 19
        E 7 b1 03 11
        E 7 b1 03 17
        E 7 b1 03 45
        E 7 b1 03 29
        E 7 b1 03 15
        E 7 b1 03 33
        E 7 b1 03 58
        E 7 b1 03 00
        E 7 b1 03 0b
        E 7 b1 03 24
        E 7 b1 03 1e
        E 7 b1 03 48
        E 7 b1 03 12
        E 7 b1 03 05
        E 7 b1 03 0e
        E 7 b1 03 0f
        E 7 b1 03 50
        E 7 b1 03 16
        E 7 b1 03 00
        E 7 b1 03 41
        E 7 b1 03 1e
        E 7 b1 03 12
        E 7 b1 03 23
        E 7 b1 03 17
        E 7 b1 03 4b
        E 7 b1 03 4a
        E 7 b1 03 58
        E 7 b1 03 4a
        E 7 b1 03 26
        E 7 b1 03 52
        E 7 b1 03 3f
        E 7 b1 03 0a
        E 7 b1 03 27
        E 7 b1 03 2f
        E 7 b1 03 54
        E 7 b1 03 43
        E 7 b1 03 30
        E 7 b1 03 31
        E 7 b1 03 04
        E 7 b1 03 09
        E 7 b1 03 51
        E 7 b1 03 47
        E 7 b1 03 25
        E 7 b1 03 1c
        E 7 b1 03 0b
        E 7 b1 03 27
        E 7 b1 03 1a
        E 7 b1 03 15
        E 7 b1 03 21
        E 7 b1 03 2e
        E 7 b1 03 35
        E 7 b1 03 39
        E 7 b1 03 0e
        E 7 b1 03 35
        E 7 b1 03 4f
        E 7 b1 03 2d
        E 7 b1 03 33
        E 7 b1 03 02
        E 7 b1 03 06
        E 7 b1 03 57
        E 7 b1 03 3a
        E 7 b1 03 10
        E 7 b1 03 51
        E 7 b1 03 1c
        E 7 b1 03 22
        E 7 b1 03 2b
        E 7 b1 03 23
        E 7 b1 03 3b
        E 7 b1 03 48
        E 7 b1 03 19
        E 7 b1 03 32
        E 7 b1 03 14
        E 7 b1 03 4f
        E 7 b1 03 49
        E 7 b1 03 28
        E 7 b1 03 20
        E 7 b1 03 46
        E 7 b1 03 20
        E 7 b1 03 3e
        E 7 b1 03 0c
        E 7 b1 03 01
        E 7 b1 03 1d
        E 7 b1 03 2c
        E 7 b1 03 4c
        E 7 b1 03 44
        E 7 b1 03 02
        E 7 b1 03 4d
        E 7 b1 03 41
        E 7 b1 03 04
        E 7 b1 03 1b
        E 7 b1 03 34
        E 7 b1 03 42
        E 7 b1 03 55
        E 7 b1 03 36
        E 7 b1 03 25
        E 7 b1 03 18
        E 7 b1 03 3d
        E 7 b1 03 40
        E 7 b1 03 4e
        E 7 b1 03 56
        E 7 b1 03 2a
        E 7 b1 03 38
        E 7 b1 03 3c
        E 7 b1 03 2e
        E 7 b1 03 53
        E 7 b1 03 0d
        E 7 b1 03 1f
        E 7 b1 03 3a
        E 1 b1 03 0b
        E 1 b1 03 26
        E 1 b1 03 19
        E 1 b1 03 04
        E 1 b1 03 24
        E 1 b1 03 20
        E 1 b1 03 04
        E 1 b1 03 04
        E 1 b1 03 18
        E 1 b1 03 30
        E 1 b1 03 28
        E 1 b1 03 2c
        E 1 b1 03 1f
        E 1 b1 03 05
        E 1 b1 03 09
        E 1 b1 03 22
        E 1 b1 03 1c
        E 1 b1 03 0e
        E 1 b1 03 0a
        E 1 b1 03 0d
        E 1 b1 03 27
        E 1 b1 03 17
        E 1 b1 03 0c
        E 1 b1 03 1d
        E 1 b1 03 32
        E 1 b1 03 00
        E 1 b1 03 06
        E 1 b1 03 14
        E 1 b1 03 11
        E 1 b1 03 29
        E 1 b1 03 0a
        E 1 b1 03 03
        E 1 b1 03 08
        E 1 b1 03 08
        E 1 b1 03 2e
        E 1 b1 03 0c
        E 1 b1 03 00
        E 1 b1 03 25
        E 1 b1 03 11
        E 1 b1 03 0a
        E 1 b1 03 14
        E 1 b1 03 0d
        E 1 b1 03 2b
        E 1 b1 03 2a
        E 1 b1 03 32
        E 1 b1 03 2a
        E 1 b1 03 16
        E 1 b1 03 2f
        E 1 b1 03 24
        E 1 b1 03 06
        E 1 b1 03 16
        E 1 b1 03 1b
        E 1 b1 03 30
        E 1 b1 03 26
        E 1 b1 03 1b
        E 1 b1 03 1c
        E 1 b1 03 02
        E 1 b1 03 05
        E 1 b1 03 2e
        E 1 b1 03 28
        E 1 b1 03 15
        E 1 b1 03 10
        E 1 b1 03 06
        E 1 b1 03 16
        E 1 b1 03 0f
        E 1 b1 03 0c
        E 1 b1 03 13
        E 1 b1 03 1a
        E 1 b1 03 1e
        E 1 b1 03 20
        E 1 b1 03 08
        E 1 b1 03 1e
        E 1 b1 03 2d
        E 1 b1 03 1a
        E 1 b1 03 1d
        E 1 b1 03 01
        E 1 b1 03 03
        E 1 b1 03 32
        E 1 b1 03 21
        E 1 b1 03 09
        E 1 b1 03 2e
        E 1 b1 03 10
        E 1 b1 03 13
        E 1 b1 03 18
        E 1 b1 03 14
        E 1 b1 03 22
        E 1 b1 03 29
        E 1 b1 03 0e
        E 1 b1 03 1c
        E 1 b1 03 0b
        E 1 b1 03 2d
        E 1 b1 03 2a
        E 1 b1 03 17
        E 1 b1 03 12
        E 1 b1 03 28
        E 1 b1 03 12
        E 1 b1 03 23
        E 1 b1 03 07
        E 1 b1 03 00
        E 1 b1 03 10
        E 1 b1 03 19
        E 1 b1 03 2b
        E 1 b1 03 27
        E 1 b1 03 01
        E 1 b1 03 2c
        E 1 b1 03 25
        E 1 b1 03 02
        E 1 b1 03 0f
        E 1 b1 03 1e
        E 1 b1 03 26
        E 1 b1 03 30
        E 1 b1 03 1f
        E 1 b1 03 15
        E 1 b1 03 0e
        E 1 b1 03 23
        E 1 b1 03 24
        E 1 b1 03 2c
        E 1 b1 03 31
        E 1 b1 03 18
        E 1 b1 03 20
        E 1 b1 03 22
        E 1 b1 03 1a
        E 1 b1 03 2f
        E 1 b1 03 07
        E 1 b1 03 12
        E 1 b1 03 21
        E 4 b1 03 16
        E 4 b1 03 4c
        E 4 b1 03 32
        E 4 b1 03 07
        E 4 b1 03 48
        E 4 b1 03 3f
        E 4 b1 03 09
        E 4 b1 03 08
        E 4 b1 03 30
        E 4 b1 03 5f
        E 4 b1 03 50
        E 4 b1 03 58
        E 4 b1 03 3f
        E 4 b1 03 0b
        E 4 b1 03 13
        E 4 b1 03 44
        E 4 b1 03 37
        E 4 b1 03 1c
        E 4 b1 03 14
        E 4 b1 03 1b
        E 4 b1 03 4f
        E 4 b1 03 2f
        E 4 b1 03 17
        E 4 b1 03 3a
        E 4 b1 03 64
        E 4 b1 03 00
        E 4 b1 03 0c
        E 4 b1 03 29
        E 4 b1 03 22
        E 4 b1 03 53
        E 4 b1 03 15
        E 4 b1 03 06
        E 4 b1 03 0f
        E 4 b1 03 11
        E 4 b1 03 5b
        E 4 b1 03 19
        E 4 b1 03 00
        E 4 b1 03 4b
        E 4 b1 03 23
        E 4 b1 03 14
        E 4 b1 03 28
        E 4 b1 03 1a
        E 4 b1 03 56
        E 4 b1 03 55
        E 4 b1 03 65
        E 4 b1 03 54
        E 4 b1 03 2b
        E 4 b1 03 5e
        E 4 b1 03 48
        E 4 b1 03 0b
        E 4 b1 03 2c
        E 4 b1 03 36
        E 4 b1 03 60
        E 4 b1 03 4d
        E 4 b1 03 37
        E 4 b1 03 38
        E 4 b1 03 04
        E 4 b1 03 0a
        E 4 b1 03 5d
        E 4 b1 03 51
        E 4 b1 03 2b
        E 4 b1 03 1f
        E 4 b1 03 0d
        E 4 b1 03 2d
        E 4 b1 03 1e
        E 4 b1 03 18
        E 4 b1 03 26
        E 4 b1 03 34
        E 4 b1 03 3d
        E 4 b1 03 41
        E 4 b1 03 10
        E 4 b1 03 3c
        E 4 b1 03 5a
        E 4 b1 03 33
        E 4 b1 03 3b
        E 4 b1 03 02
        E 4 b1 03 07
        E 4 b1 03 63
        E 4 b1 03 42
        E 4 b1 03 12
        E 4 b1 03 5c
        E 4 b1 03 20
        E 4 b1 03 27
        E 4 b1 03 31
        E 4 b1 03 28
        E 4 b1 03 44
        E 4 b1 03 52
        E 4 b1 03 1d
        E 4 b1 03 39
        E 4 b1 03 17
        E 4 b1 03 5b
        E 4 b1 03 54
        E 4 b1 03 2e
        E 4 b1 03 24
        E 4 b1 03 50
        E 4 b1 03 25
        E 4 b1 03 47
        E 4 b1 03 0e
        E 4 b1 03 01
        E 4 b1 03 21
        E 4 b1 03 33
        E 4 b1 03 57
        E 4 b1 03 4e
        E 4 b1 03 03
        E 4 b1 03 57
        E 4 b1 03 4a
        E 4 b1 03 05
        E 4 b1 03 1f
        E 4 b1 03 3b
        E 4 b1 03 4c
        E 4 b1 03 61
        E 4 b1 03 3e
        E 4 b1 03 2a
        E 4 b1 03 1b
        E 4 b1 03 46
        E 4 b1 03 49
        E 4 b1 03 59
        E 4 b1 03 63
        E 4 b1 03 2f
        E 4 b1 03 40
        E 4 b1 03 45
        E 4 b1 03 35
        E 4 b1 03 5f
        E 4 b1 03 0f
        E 4 b1 03 24
        E 4 b1 03 43
        E 13 b1 03 16
        E 13 b1 03 4c
        E 13 b1 03 32
        E 13 b1 03 07
        E 13 b1 03 48
        E 13 b1 03 3f
        E 13 b1 03 09
        E 13 b1 03 08
        E 13 b1 03 30
        E 13 b1 03 5f
        E 13 b1 03 50
        E 13 b1 03 58
        E 13 b1 03 3f
        E 13 b1 03 0b
        E 13 b1 03 13
        E 13 b1 03 44
        E 13 b1 03 37
        E 13 b1 03 1c
        E 13 b1 03 14
        E 13 b1 03 1b
        E 13 b1 03 4f
        E 13 b1 03 2f
        E 13 b1 03 17
        E 13 b1 03 3a
        E 13 b1 03 64
        E 13 b1 03 00
        E 13 b1 03 0c
        E 13 b1 03 29
        E 13 b1 03 22
        E 13 b1 03 53
        E 13 b1 03 15
        E 13 b1 03 06
        E 13 b1 03 0f
        E 13 b1 03 11
        E 13 b1 03 5b
        E 13 b1 03 19
        E 13 b1 03 00
        E 13 b1 03 4b
        E 13 b1 03 23
        E 13 b1 03 14
        E 13 b1 03 28
        E 13 b1 03 1a
        E 13 b1 03 56
        E 13 b1 03 55
        E 13 b1 03 65
        E 13 b1 03 54
        E 13 b1 03 2b
        E 13 b1 03 5e
        E 13 b1 03 48
        E 13 b1 03 0b
        E 13 b1 03 2c
        E 13 b1 03 36
        E 13 b1 03 60
        E 13 b1 03 4d
        E 13 b1 03 37
        E 13 b1 03 38
        E 13 b1 03 04
        E 13 b1 03 0a
        E 13 b1 03 5d
        E 13 b1 03 51
        E 13 b1 03 2b
        E 13 b1 03 1f
        E 13 b1 03 0d
        E 13 b1 03 2d
        E 13 b1 03 1e
        E 13 b1 03 18
        E 13 b1 03 26
        E 13 b1 03 34
        E 13 b1 03 3d
        E 13 b1 03 41
        E 13 b1 03 10
        E 13 b1 03 3c
        E 13 b1 03 5a
        E 13 b1 03 33
        E 13 b1 03 3b
        E 13 b1 03 02
        E 13 b1 03 07
        E 13 b1 03 63
        E 13 b1 03 42
        E 13 b1 03 12
        E 13 b1 03 5c
        E 13 b1 03 20
        E 13 b1 03 27
        E 13 b1 03 31
        E 13 b1 03 28
        E 13 b1 03 44
        E 13 b1 03 52
        E 13 b1 03 1d
        E 13 b1 03 39
        E 13 b1 03 17
        E 13 b1 03 5b
        E 13 b1 03 54
        E 13 b1 03 2e
        E 13 b1 03 24
        E 13 b1 03 50
        E 13 b1 03 25
        E 13 b1 03 47
        E 13 b1 03 0e
        E 13 b1 03 01
        E 13 b1 03 21
        E 13 b1 03 33
        E 13 b1 03 57
        E 13 b1 03 4e
        E 13 b1 03 03
        E 13 b1 03 57
        E 13 b1 03 4a
        E 13 b1 03 05
        E 13 b1 03 1f
        E 13 b1 03 3b
        E 13 b1 03 4c
        E 13 b1 03 61
        E 13 b1 03 3e
        E 13 b1 03 2a
        E 13 b1 03 1b
        E 13 b1 03 46
        E 13 b1 03 49
        E 13 b1 03 59
        E 13 b1 03 63
        E 13 b1 03 2f
        E 13 b1 03 40
        E 13 b1 03 45
        E 13 b1 03 35
        E 13 b1 03 5f
        E 13 b1 03 0f
        E 13 b1 03 24
        E 13 b1 03 43
        E 3 b1 03 10
        E 3 b1 03 39
        E 3 b1 03 25
        E 3 b1 03 06
        E 3 b1 03 36
        E 3 b1 03 30
        E 3 b1 03 07
        E 3 b1 03 06
        E 3 b1 03 24
        E 3 b1 03 48
        E 3 b1 03 3c
        E 3 b1 03 42
        E 3 b1 03 2f
        E 3 b1 03 08
        E 3 b1 03 0e
        E 3 b1 03 33
        E 3 b1 03 2a
        E 3 b1 03 15
        E 3 b1 03 0f
        E 3 b1 03 14
        E 3 b1 03 3b
        E 3 b1 03 23
        E 3 b1 03 12
        E 3 b1 03 2b
        E 3 b1 03 4b
        E 3 b1 03 00
        E 3 b1 03 09
        E 3 b1 03 1f
        E 3 b1 03 19
        E 3 b1 03 3e
        E 3 b1 03 10
        E 3 b1 03 04
        E 3 b1 03 0c
        E 3 b1 03 0d
        E 3 b1 03 45
        E 3 b1 03 13
        E 3 b1 03 00
        E 3 b1 03 38
        E 3 b1 03 1a
        E 3 b1 03 0f
        E 3 b1 03 1e
        E 3 b1 03 13
        E 3 b1 03 40
        E 3 b1 03 40
        E 3 b1 03 4c
        E 3 b1 03 3f
        E 3 b1 03 21
        E 3 b1 03 46
        E 3 b1 03 36
        E 3 b1 03 09
        E 3 b1 03 21
        E 3 b1 03 28
        E 3 b1 03 48
        E 3 b1 03 3a
        E 3 b1 03 29
        E 3 b1 03 2a
        E 3 b1 03 03
        E 3 b1 03 07
        E 3 b1 03 46
        E 3 b1 03 3d
        E 3 b1 03 20
        E 3 b1 03 18
        E 3 b1 03 0a
        E 3 b1 03 22
        E 3 b1 03 16
        E 3 b1 03 12
        E 3 b1 03 1c
        E 3 b1 03 27
        E 3 b1 03 2e
        E 3 b1 03 31
        E 3 b1 03 0c
        E 3 b1 03 2d
        E 3 b1 03 43
        E 3 b1 03 27
        E 3 b1 03 2c
        E 3 b1 03 01
        E 3 b1 03 05
        E 3 b1 03 4b
        E 3 b1 03 31
        E 3 b1 03 0d
        E 3 b1 03 45
        E 3 b1 03 18
        E 3 b1 03 1d
        E 3 b1 03 25
        E 3 b1 03 1e
        E 3 b1 03 33
        E 3 b1 03 3d
        E 3 b1 03 16
        E 3 b1 03 2b
        E 3 b1 03 11
        E 3 b1 03 44
        E 3 b1 03 3f
        E 3 b1 03 22
        E 3 b1 03 1b
        E 3 b1 03 3c
        E 3 b1 03 1c
        E 3 b1 03 35
        E 3 b1 03 0a
        E 3 b1 03 01
        E 3 b1 03 19
        E 3 b1 03 26
        E 3 b1 03 41
        E 3 b1 03 3a
        E 3 b1 03 02
        E 3 b1 03 42
        E 3 b1 03 37
        E 3 b1 03 04
        E 3 b1 03 17
        E 3 b1 03 2d
        E 3 b1 03 39
        E 3 b1 03 49
        E 3 b1 03 2e
        E 3 b1 03 1f
        E 3 b1 03 15
        E 3 b1 03 34
        E 3 b1 03 37
        E 3 b1 03 43
        E 3 b1 03 4a
        E 3 b1 03 24
        E 3 b1 03 30
        E 3 b1 03 34
        E 3 b1 03 28
        E 3 b1 03 47
        E 3 b1 03 0b
        E 3 b1 03 1b
        E 3 b1 03 32
        E 13 b1 03 0b
        E 13 b1 03 26
        E 13 b1 03 19
        E 13 b1 03 04
        E 13 b1 03 24
        E 13 b1 03 20
        E 13 b1 03 04
        E 13 b1 03 04
        E 13 b1 03 18
        E 13 b1 03 30
        E 13 b1 03 28
        E 13 b1 03 2c
        E 13 b1 03 1f
        E 13 b1 03 05
        E 13 b1 03 09
        E 13 b1 03 22
        E 13 b1 03 1c
        E 13 b1 03 0e
        E 13 b1 03 0a
        E 13 b1 03 0d
        E 13 b1 03 27
        E 13 b1 03 17
        E 13 b1 03 0c
        E 13 b1 03 1d
        E 13 b1 03 32
        E 13 b1 03 00
        E 13 b1 03 06
        E 13 b1 03 14
        E 13 b1 03 11
        E 13 b1 03 29
        E 13 b1 03 0a
        E 13 b1 03 03
        E 13 b1 03 08
        E 13 b1 03 08
        E 13 b1 03 2e
        E 13 b1 03 0c
        E 13 b1 03 00
        E 13 b1 03 25
        E 13 b1 03 11
        E 13 b1 03 0a
        E 13 b1 03 14
        E 13 b1 03 0d
        E 13 b1 03 2b
        E 13 b1 03 2a
        E 13 b1 03 32
        E 13 b1 03 2a
        E 13 b1 03 16
        E 13 b1 03 2f
        E 13 b1 03 24
        E 13 b1 03 06
        E 13 b1 03 16
        E 13 b1 03 1b
        E 13 b1 03 30
        E 13 b1 03 26
        E 13 b1 03 1b
        E 13 b1 03 1c
        E 13 b1 03 02
        E 13 b1 03 05
        E 13 b1 03 2e
        E 13 b1 03 28
        E 13 b1 03 15
        E 13 b1 03 10
        E 13 b1 03 06
        E 13 b1 03 16
        E 13 b1 03 0f
        E 13 b1 03 0c
        E 13 b1 03 13
        E 13 b1 03 1a
        E 13 b1 03 1e
        E 13 b1 03 20
        E 13 b1 03 08
        E 13 b1 03 1e
        E 13 b1 03 2d
        E 13 b1 03 1a
        E 13 b1 03 1d
        E 13 b1 03 01
        E 13 b1 03 03
        E 13 b1 03 32
        E 13 b1 03 21
        E 13 b1 03 09
        E 13 b1 03 2e
        E 13 b1 03 10
        E 13 b1 03 13
        E 13 b1 03 18
        E 13 b1 03 14
        E 13 b1 03 22
        E 13 b1 03 29
        E 13 b1 03 0e
        E 13 b1 03 1c
        E 13 b1 03 0b
        E 13 b1 03 2d
        E 13 b1 03 2a
        E 13 b1 03 17
        E 13 b1 03 12
        E 13 b1 03 28
        E 13 b1 03 12
        E 13 b1 03 23
        E 13 b1 03 07
        E 13 b1 03 00
        E 13 b1 03 10
        E 13 b1 03 19
        E 13 b1 03 2b
        E 13 b1 03 27
        E 13 b1 03 01
        E 13 b1 03 2c
        E 13 b1 03 25
        E 13 b1 03 02
        E 13 b1 03 0f
        E 13 b1 03 1e
        E 13 b1 03 26
        E 13 b1 03 30
        E 13 b1 03 1f
        E 13 b1 03 15
        E 13 b1 03 0e
        E 13 b1 03 23
        E 13 b1 03 24
        E 13 b1 03 2c
        E 13 b1 03 31
        E 13 b1 03 18
        E 13 b1 03 20
        E 13 b1 03 22
        E 13 b1 03 1a
        E 13 b1 03 2f
        E 13 b1 03 07
        E 13 b1 03 12
        E 13 b1 03 21
        E 7 b1 03 13
        E 7 b1 03 43
        E 7 b1 03 2c
        E 7 b1 03 07
        E 7 b1 03 3e
        E 7 b1 03 38
        E 7 b1 03 08
        E 7 b1 03 07
        E 7 b1 03 2a
        E 7 b1 03 54
        E 7 b1 03 46
        E 7 b1 03 4d
        E 7 b1 03 37
        E 7 b1 03 09
        E 7 b1 03 10
        E 7 b1 03 3c
        E 7 b1 03 31
        E 7 b1 03 19
        E 7 b1 03 11
        E 7 b1 03 17
        E 7 b1 03 45
        E 7 b1 03 29
        E 7 b1 03 15
        E 7 b1 03 33
        E 7 b1 03 58
        E 7 b1 03 00
        E 7 b1 03 0b
        E 7 b1 03 24
        E 7 b1 03 1e
        E 7 b1 03 48
        E 7 b1 03 12
        E 7 b1 03 05
        E 7 b1 03 0e
        E 7 b1 03 0f
        E 7 b1 03 50
        E 7 b1 03 16
        E 7 b1 03 00
        E 7 b1 03 41
        E 7 b1 03 1e
        E 7 b1 03 12
        E 7 b1 03 23
        E 7 b1 03 17
        E 7 b1 03 4b
        E 7 b1 03 4a
        E 7 b1 03 58
        E 7 b1 03 4a
        E 7 b1 03 26
        E 7 b1 03 52
        E 7 b1 03 3f
        E 7 b1 03 0a
        E 7 b1 03 27
        E 7 b1 03 2f
        E 7 b1 03 54
        E 7 b1 03 43
        E 7 b1 03 30
        E 7 b1 03 31
        E 7 b1 03 04
        E 7 b1 03 09
        E 7 b1 03 51
        E 7 b1 03 47
        E 7 b1 03 25
        E 7 b1 03 1c
        E 7 b1 03 0b
        E 7 b1 03 27
        E 7 b1 03 1a
        E 7 b1 03 15
        E 7 b1 03 21
        E 7 b1 03 2e
        E 7 b1 03 35
        E 7 b1 03 39
        E 7 b1 03 0e
        E 7 b1 03 35
        E 7 b1 03 4f
        E 7 b1 03 2d
        E 7 b1 03 33
        E 7 b1 03 02
        E 7 b1 03 06
        E 7 b1 03 57
        E 7 b1 03 3a
        E 7 b1 03 10
        E 7 b1 03 51
        E 7 b1 03 1c
        E 7 b1 03 22
        E 7 b1 03 2b
        E 7 b1 03 23
        E 7 b1 03 3b
        E 7 b1 03 48
        E 7 b1 03 19
        E 7 b1 03 32
        E 7 b1 03 14
        E 7 b1 03 4f
        E 7 b1 03 49
        E 7 b1 03 28
        E 7 b1 03 20
        E 7 b1 03 46
        E 7 b1 03 20
        E 7 b1 03 3e
        E 7 b1 03 0c
        E 7 b1 03 01
        E 7 b1 03 1d
        E 7 b1 03 2c
        E 7 b1 03 4c
        E 7 b1 03 44
        E 7 b1 03 02
        E 7 b1 03 4d
        E 7 b1 03 41
        E 7 b1 03 04
        E 7 b1 03 1b
        E 7 b1 03 34
        E 7 b1 03 42
        E 7 b1 03 55
        E 7 b1 03 36
        E 7 b1 03 25
        E 7 b1 03 18
        E 7 b1 03 3d
        E 7 b1 03 40
        E 7 b1 03 4e
        E 7 b1 03 56
        E 7 b1 03 2a
        E 7 b1 03 38
        E 7 b1 03 3c
        E 7 b1 03 2e
        E 7 b1 03 53
        E 7 b1 03 0d
        E 7 b1 03 1f
        E 7 b1 03 3a
        E 1 b1 03 0b
        E 1 b1 03 26
        E 1 b1 03 19
        E 1 b1 03 04
        E 1 b1 03 24
        E 1 b1 03 20
        E 1 b1 03 04
        E 1 b1 03 04
        E 1 b1 03 18
        E 1 b1 03 30
        E 1 b1 03 28
        E 1 b1 03 2c
        E 1 b1 03 1f
        E 1 b1 03 05
        E 1 b1 03 09
        E 1 b1 03 22
        E 1 b1 03 1c
        E 1 b1 03 0e
        E 1 b1 03 0a
        E 1 b1 03 0d
        E 1 b1 03 27
        E 1 b1 03 17
        E 1 b1 03 0c
        E 1 b1 03 1d
        E 1 b1 03 32
        E 1 b1 03 00
        E 1 b1 03 06
        E 1 b1 03 14
        E 1 b1 03 11
        E 1 b1 03 29
        E 1 b1 03 0a
        E 1 b1 03 03
        E 1 b1 03 08
        E 1 b1 03 08
        E 1 b1 03 2e
        E 1 b1 03 0c
        E 1 b1 03 00
        E 1 b1 03 25
        E 1 b1 03 11
        E 1 b1 03 0a
        E 1 b1 03 14
        E 1 b1 03 0d
        E 1 b1 03 2b
        E 1 b1 03 2a
        E 1 b1 03 32
        E 1 b1 03 2a
        E 1 b1 03 16
        E 1 b1 03 2f
        E 1 b1 03 24
        E 1 b1 03 06
        E 1 b1 03 16
        E 1 b1 03 1b
        E 1 b1 03 30
        E 1 b1 03 26
        E 1 b1 03 1b
        E 1 b1 03 1c
        E 1 b1 03 02
        E 1 b1 03 05
        E 1 b1 03 2e
        E 1 b1 03 28
        E 1 b1 03 15
        E 1 b1 03 10
        E 1 b1 03 06
        E 1 b1 03 16
        E 1 b1 03 0f
        E 1 b1 03 0c
        E 1 b1 03 13
        E 1 b1 03 1a
        E 1 b1 03 1e
        E 1 b1 03 20
        E 1 b1 03 08
        E 1 b1 03 1e
        E 1 b1 03 2d
        E 1 b1 03 1a
        E 1 b1 03 1d
        E 1 b1 03 01
        E 1 b1 03 03
        E 1 b1 03 32
        E 1 b1 03 21
        E 1 b1 03 09
        E 1 b1 03 2e
        E 1 b1 03 10
        E 1 b1 03 13
        E 1 b1 03 18
        E 1 b1 03 14
        E 1 b1 03 22
        E 1 b1 03 29
        E 1 b1 03 0e
        E 1 b1 03 1c
        E 1 b1 03 0b
        E 1 b1 03 2d
        E 1 b1 03 2a
        E 1 b1 03 17
        E 1 b1 03 12
        E 1 b1 03 28
        E 1 b1 03 12
        E 1 b1 03 23
        E 1 b1 03 07
        E 1 b1 03 00
        E 1 b1 03 10
        E 1 b1 03 19
        E 1 b1 03 2b
        E 1 b1 03 27
        E 1 b1 03 01
        E 1 b1 03 2c
        E 1 b1 03 25
        E 1 b1 03 02
        E 1 b1 03 0f
        E 1 b1 03 1e
        E 1 b1 03 26
        E 1 b1 03 30
        E 1 b1 03 1f
        E 1 b1 03 15
        E 1 b1 03 0e
        E 1 b1 03 23
        E 1 b1 03 24
        E 1 b1 03 2c
        E 1 b1 03 31
        E 1 b1 03 18
        E 1 b1 03 20
        E 1 b1 03 22
        E 1 b1 03 1a
        E 1 b1 03 2f
        E 1 b1 03 07
        E 1 b1 03 12
        E 1 b1 03 21
        E 4 b1 03 16
        E 4 b1 03 4c
        E 4 b1 03 32
        E 4 b1 03 07
        E 4 b1 03 48
        E 4 b1 03 3f
        E 4 b1 03 09
        E 4 b1 03 08
        E 4 b1 03 30
        E 4 b1 03 5f
        E 4 b1 03 50
        E 4 b1 03 58
        E 4 b1 03 3f
        E 4 b1 03 0b
        E 4 b1 03 13
        E 4 b1 03 44
        E 4 b1 03 37
        E 4 b1 03 1c
        E 4 b1 03 14
        E 4 b1 03 1b
        E 4 b1 03 4f
        E 4 b1 03 2f
        E 4 b1 03 17
        E 4 b1 03 3a
        E 4 b1 03 64
        E 4 b1 03 00
        E 4 b1 03 0c
        E 4 b1 03 29
        E 4 b1 03 22
        E 4 b1 03 53
        E 4 b1 03 15
        E 4 b1 03 06
        E 4 b1 03 0f
        E 4 b1 03 11
        E 4 b1 03 5b
        E 4 b1 03 19
        E 4 b1 03 00
        E 4 b1 03 4b
        E 4 b1 03 23
        E 4 b1 03 14
        E 4 b1 03 28
        E 4 b1 03 1a
        E 4 b1 03 56
        E 4 b1 03 55
        E 4 b1 03 65
        E 4 b1 03 54
        E 4 b1 03 2b
        E 4 b1 03 5e
        E 4 b1 03 48
        E 4 b1 03 0b
        E 4 b1 03 2c
        E 4 b1 03 36
        E 4 b1 03 60
        E 4 b1 03 4d
        E 4 b1 03 37
        E 4 b1 03 38
        E 4 b1 03 04
        E 4 b1 03 0a
        E 4 b1 03 5d
        E 4 b1 03 51
        E 4 b1 03 2b
        E 4 b1 03 1f
        E 4 b1 03 0d
        E 4 b1 03 2d
        E 4 b1 03 1e
        E 4 b1 03 18
        E 4 b1 03 26
        E 4 b1 03 34
        E 4 b1 03 3d
        E 4 b1 03 41
        E 4 b1 03 10
        E 4 b1 03 3c
        E 4 b1 03 5a
        E 4 b1 03 33
        E 4 b1 03 3b
        E 4 b1 03 02
        E 4 b1 03 07
        E 4 b1 03 63
        E 4 b1 03 42
        E 4 b1 03 12
        E 4 b1 03 5c
        E 4 b1 03 20
        E 4 b1 03 27
        E 4 b1 03 31
        E 4 b1 03 28
        E 4 b1 03 44
        E 4 b1 03 52
        E 4 b1 03 1d
        E 4 b1 03 39
        E 4 b1 03 17
        E 4 b1 03 5b
        E 4 b1 03 54
        E 4 b1 03 2e
        E 4 b1 03 24
        E 4 b1 03 50
        E 4 b1 03 25
        E 4 b1 03 47
        E 4 b1 03 0e
        E 4 b1 03 01
        E 4 b1 03 21
        E 4 b1 03 33
        E 4 b1 03 57
        E 4 b1 03 4e
        E 4 b1 03 03
        E 4 b1 03 57
        E 4 b1 03 4a
        E 4 b1 03 05
        E 4 b1 03 1f
        E 4 b1 03 3b
        E 4 b1 03 4c
        E 4 b1 03 61
        E 4 b1 03 3e
        E 4 b1 03 2a
        E 4 b1 03 1b
        E 4 b1 03 46
        E 4 b1 03 49
        E 4 b1 03 59
        E 4 b1 03 63
        E 4 b1 03 2f
        E 4 b1 03 40
        E 4 b1 03 45
        E 4 b1 03 35
        E 4 b1 03 5f
        E 4 b1 03 0f
        E 4 b1 03 24
        E 4 b1 03 43
        E 13 b1 03 16
        E 13 b1 03 4c
        E 13 b1 03 32
        E 13 b1 03 07
        E 13 b1 03 48
        E 13 b1 03 3f
        E 13 b1 03 09
        E 13 b1 03 08
        E 13 b1 03 30
        E 13 b1 03 5f
        E 13 b1 03 50
        E 13 b1 03 58
        E 13 b1 03 3f
        E 13 b1 03 0b
        E 13 b1 03 13
        E 13 b1 03 44
        E 13 b1 03 37
        E 13 b1 03 1c
        E 13 b1 03 14
        E 13 b1 03 1b
        E 13 b1 03 4f
        E 13 b1 03 2f
        E 13 b1 03 17
        E 13 b1 03 3a
        E 13 b1 03 64
        E 13 b1 03 00
        E 13 b1 03 0c
        E 13 b1 03 29
        E 13 b1 03 22
        E 13 b1 03 53
        E 13 b1 03 15
        E 13 b1 03 06
        E 13 b1 03 0f
        E 13 b1 03 11
        E 13 b1 03 5b
        E 13 b1 03 19
        E 13 b1 03 00
        E 13 b1 03 4b
        E 13 b1 03 23
        E 13 b1 03 14
        E 13 b1 03 28
        E 13 b1 03 1a
        E 13 b1 03 56
        E 13 b1 03 55
        E 13 b1 03 65
        E 13 b1 03 54
        E 13 b1 03 2b
        E 13 b1 03 5e
        E 13 b1 03 48
        E 13 b1 03 0b
        E 13 b1 03 2c
        E 13 b1 03 36
        E 13 b1 03 60
        E 13 b1 03 4d
        E 13 b1 03 37
        E 13 b1 03 38
        E 13 b1 03 04
        E 13 b1 03 0a
        E 13 b1 03 5d
        E 13 b1 03 51
        E 13 b1 03 2b
        E 13 b1 03 1f
        E 13 b1 03 0d
        E 13 b1 03 2d
        E 13 b1 03 1e
        E 13 b1 03 18
        E 13 b1 03 26
        E 13 b1 03 34
        E 13 b1 03 3d
        E 13 b1 03 41
        E 13 b1 03 10
        E 13 b1 03 3c
        E 13 b1 03 5a
        E 13 b1 03 33
        E 13 b1 03 3b
        E 13 b1 03 02
        E 13 b1 03 07
        E 13 b1 03 63
        E 13 b1 03 42
        E 13 b1 03 12
        E 13 b1 03 5c
        E 13 b1 03 20
        E 13 b1 03 27
        E 13 b1 03 31
        E 13 b1 03 28
        E 13 b1 03 44
        E 13 b1 03 52
        E 13 b1 03 1d
        E 13 b1 03 39
        E 13 b1 03 17
        E 13 b1 03 5b
        E 13 b1 03 54
        E 13 b1 03 2e
        E 13 b1 03 24
        E 13 b1 03 50
        E 13 b1 03 25
        E 13 b1 03 47
        E 13 b1 03 0e
        E 13 b1 03 01
        E 13 b1 03 21
        E 13 b1 03 33
        E 13 b1 03 57
        E 13 b1 03 4e
        E 13 b1 03 03
        E 13 b1 03 57
        E 13 b1 03 4a
        E 13 b1 03 05
        E 13 b1 03 1f
        E 13 b1 03 3b
        E 13 b1 03 4c
        E 13 b1 03 61
        E 13 b1 03 3e
        E 13 b1 03 2a
        E 13 b1 03 1b
        E 13 b1 03 46
        E 13 b1 03 49
        E 13 b1 03 59
        E 13 b1 03 63
        E 13 b1 03 2f
        E 13 b1 03 40
        E 13 b1 03 45
        E 13 b1 03 35
        E 13 b1 03 5f
        E 13 b1 03 0f
        E 13 b1 03 24
        E 13 b1 03 43
        E 10 b1 03 01
        E 10 b1 03 02
        E 10 b1 03 04
        E 10 b1 03 05
        E 10 b1 03 07
        E 10 b1 03 08
        E 10 b1 03 09
        E 10 b1 03 0b
        E 10 b1 03 0c
        E 10 b1 03 0e
        E 10 b1 03 0f
        E 10 b1 03 10
        E 10 b1 03 12
        E 10 b1 03 13
        E 10 b1 03 15
        E 10 b1 03 16
        E 10 b1 03 17
        E 10 b1 03 19
        E 10 b1 03 1a
        E 10 b1 03 1c
        E 10 b1 03 1d
        E 10 b1 03 1e
        E 10 b1 03 20
        E 10 b1 03 21
        E 10 b1 03 23
        E 10 b1 03 24
        E 10 b1 03 25
        E 10 b1 03 27
        E 10 b1 03 28
        E 10 b1 03 2a
        E 10 b1 03 2b
        E 10 b1 03 2c
        E 10 b1 03 2e
        E 10 b1 03 2f
        E 10 b1 03 31
        E 10 b1 03 32
        E 10 b1 03 33
        E 10 b1 03 35
        E 10 b1 03 36
        E 10 b1 03 38
        E 10 b1 03 39
        E 10 b1 03 3a
        E 10 b1 03 3c
        E 10 b1 03 3d
        E 10 b1 03 3e
        E 10 b1 03 40
        E 10 b1 03 41
        E 10 b1 03 43
        E 10 b1 03 44
        E 10 b1 03 46
        E 10 b1 03 47
        E 10 b1 03 48
        E 10 b1 03 4a
        E 10 b1 03 4b
        E 10 b1 03 4d
        E 10 b1 03 4e
        E 10 b1 03 4f
        E 10 b1 03 51
        E 10 b1 03 52
        E 10 b1 03 54
        E 10 b1 03 55
        E 10 b1 03 56
        E 10 b1 03 58
        E 10 b1 03 58
        E 10 b1 03 58
        E 10 b1 03 56
        E 10 b1 03 55
        E 10 b1 03 54
        E 10 b1 03 52
        E 10 b1 03 51
        E 10 b1 03 4f
        E 10 b1 03 4e
        E 10 b1 03 4d
        E 10 b1 03 4b
        E 10 b1 03 4a
        E 10 b1 03 48
        E 10 b1 03 47
        E 10 b1 03 46
        E 10 b1 03 44
        E 10 b1 03 43
        E 10 b1 03 41
        E 10 b1 03 40
        E 10 b1 03 3e
        E 10 b1 03 3d
        E 10 b1 03 3c
        E 10 b1 03 3a
        E 10 b1 03 39
        E 10 b1 03 38
        E 10 b1 03 36
        E 10 b1 03 35
        E 10 b1 03 33
        E 10 b1 03 32
        E 10 b1 03 31
        E 10 b1 03 2f
        E 10 b1 03 2e
        E 10 b1 03 2c
        E 10 b1 03 2b
        E 10 b1 03 2a
        E 10 b1 03 28
        E 10 b1 03 27
        E 10 b1 03 25
        E 10 b1 03 24
        E 10 b1 03 23
        E 10 b1 03 21
        E 10 b1 03 20
        E 10 b1 03 1e
        E 10 b1 03 1d
        E 10 b1 03 1c
        E 10 b1 03 1a
        E 10 b1 03 19
        E 10 b1 03 17
        E 10 b1 03 16
        E 10 b1 03 15
        E 10 b1 03 13
        E 10 b1 03 12
        E 10 b1 03 10
        E 10 b1 03 0f
        E 10 b1 03 0e
        E 10 b1 03 0c
        E 10 b1 03 0b
        E 10 b1 03 09
        E 10 b1 03 08
        E 10 b1 03 07
        E 10 b1 03 05
        E 10 b1 03 04
        E 10 b1 03 02
        E 10 b1 03 01
        E 10 b1 03 00
        E 2 b1 03 00
        E 2 b1 03 01
        E 2 b1 03 02
        E 2 b1 03 03
        E 2 b1 03 04
        E 2 b1 03 04
        E 2 b1 03 05
        E 2 b1 03 06
        E 2 b1 03 07
        E 2 b1 03 08
        E 2 b1 03 08
        E 2 b1 03 09
        E 2 b1 03 0a
        E 2 b1 03 0b
        E 2 b1 03 0c
        E 2 b1 03 0c
        E 2 b1 03 0d
        E 2 b1 03 0e
        E 2 b1 03 0f
        E 2 b1 03 10
        E 2 b1 03 10
        E 2 b1 03 11
        E 2 b1 03 12
        E 2 b1 03 13
        E 2 b1 03 14
        E 2 b1 03 14
        E 2 b1 03 15
        E 2 b1 03 16
        E 2 b1 03 17
        E 2 b1 03 18
        E 2 b1 03 18
        E 2 b1 03 19
        E 2 b1 03 1a
        E 2 b1 03 1b
        E 2 b1 03 1c
        E 2 b1 03 1c
        E 2 b1 03 1d
        E 2 b1 03 1e
        E 2 b1 03 1f
        E 2 b1 03 20
        E 2 b1 03 20
        E 2 b1 03 21
        E 2 b1 03 22
        E 2 b1 03 23
        E 2 b1 03 24
        E 2 b1 03 24
        E 2 b1 03 25
        E 2 b1 03 26
        E 2 b1 03 27
        E 2 b1 03 28
        E 2 b1 03 28
        E 2 b1 03 29
        E 2 b1 03 2a
        E 2 b1 03 2b
        E 2 b1 03 2c
        E 2 b1 03 2c
        E 2 b1 03 2d
        E 2 b1 03 2e
        E 2 b1 03 2f
        E 2 b1 03 30
        E 2 b1 03 30
        E 2 b1 03 31
        E 2 b1 03 32
        E 2 b1 03 32
        E 2 b1 03 32
        E 2 b1 03 31
        E 2 b1 03 30
        E 2 b1 03 30
        E 2 b1 03 2f
        E 2 b1 03 2e
        E 2 b1 03 2d
        E 2 b1 03 2c
        E 2 b1 03 2c
        E 2 b1 03 2b
        E 2 b1 03 2a
        E 2 b1 03 29
        E 2 b1 03 28
        E 2 b1 03 28
        E 2 b1 03 27
        E 2 b1 03 26
        E 2 b1 03 25
        E 2 b1 03 24
        E 2 b1 03 24
        E 2 b1 03 23
        E 2 b1 03 22
        E 2 b1 03 21
        E 2 b1 03 20
        E 2 b1 03 20
        E 2 b1 03 1f
        E 2 b1 03 1e
        E 2 b1 03 1d
        E 2 b1 03 1c
        E 2 b1 03 1c
        E 2 b1 03 1b
        E 2 b1 03 1a
        E 2 b1 03 19
        E 2 b1 03 18
        E 2 b1 03 18
        E 2 b1 03 17
        E 2 b1 03 16
        E 2 b1 03 15
        E 2 b1 03 14
        E 2 b1 03 14
        E 2 b1 03 13
        E 2 b1 03 12
        E 2 b1 03 11
        E 2 b1 03 10
        E 2 b1 03 10
        E 2 b1 03 0f
        E 2 b1 03 0e
        E 2 b1 03 0d
        E 2 b1 03 0c
        E 2 b1 03 0c
        E 2 b1 03 0b
        E 2 b1 03 0a
        E 2 b1 03 09
        E 2 b1 03 08
        E 2 b1 03 08
        E 2 b1 03 07
        E 2 b1 03 06
        E 2 b1 03 05
        E 2 b1 03 04
        E 2 b1 03 04
        E 2 b1 03 03
        E 2 b1 03 02
        E 2 b1 03 01
        E 2 b1 03 00
        E 2 b1 03 00
        E 6 b1 03 01
        E 6 b1 03 03
        E 6 b1 03 04
        E 6 b1 03 06
        E 6 b1 03 07
        E 6 b1 03 09
        E 6 b1 03 0b
        E 6 b1 03 0c
        E 6 b1 03 0e
        E 6 b1 03 0f
        E 6 b1 03 11
        E 6 b1 03 13
        E 6 b1 03 14
        E 6 b1 03 16
        E 6 b1 03 17
        E 6 b1 03 19
        E 6 b1 03 1b
        E 6 b1 03 1c
        E 6 b1 03 1e
        E 6 b1 03 1f
        E 6 b1 03 21
        E 6 b1 03 23
        E 6 b1 03 24
        E 6 b1 03 26
        E 6 b1 03 28
        E 6 b1 03 29
        E 6 b1 03 2b
        E 6 b1 03 2c
        E 6 b1 03 2e
        E 6 b1 03 2f
        E 6 b1 03 31
        E 6 b1 03 33
        E 6 b1 03 34
        E 6 b1 03 36
        E 6 b1 03 37
        E 6 b1 03 39
        E 6 b1 03 3b
        E 6 b1 03 3c
        E 6 b1 03 3e
        E 6 b1 03 3f
        E 6 b1 03 41
        E 6 b1 03 43
        E 6 b1 03 44
        E 6 b1 03 46
        E 6 b1 03 48
        E 6 b1 03 49
        E 6 b1 03 4b
        E 6 b1 03 4c
        E 6 b1 03 4e
        E 6 b1 03 50
        E 6 b1 03 51
        E 6 b1 03 53
        E 6 b1 03 54
        E 6 b1 03 56
        E 6 b1 03 57
        E 6 b1 03 59
        E 6 b1 03 5b
        E 6 b1 03 5c
        E 6 b1 03 5e
        E 6 b1 03 5f
        E 6 b1 03 61
        E 6 b1 03 63
        E 6 b1 03 64
        E 6 b1 03 65
        E 6 b1 03 64
        E 6 b1 03 63
        E 6 b1 03 61
        E 6 b1 03 5f
        E 6 b1 03 5e
        E 6 b1 03 5c
        E 6 b1 03 5b
        E 6 b1 03 59
        E 6 b1 03 57
        E 6 b1 03 56
        E 6 b1 03 54
        E 6 b1 03 53
        E 6 b1 03 51
        E 6 b1 03 50
        E 6 b1 03 4e
        E 6 b1 03 4c
        E 6 b1 03 4b
        E 6 b1 03 49
        E 6 b1 03 48
        E 6 b1 03 46
        E 6 b1 03 44
        E 6 b1 03 43
        E 6 b1 03 41
        E 6 b1 03 3f
        E 6 b1 03 3e
        E 6 b1 03 3c
        E 6 b1 03 3b
        E 6 b1 03 39
        E 6 b1 03 37
        E 6 b1 03 36
        E 6 b1 03 34
        E 6 b1 03 33
        E 6 b1 03 31
        E 6 b1 03 2f
        E 6 b1 03 2e
        E 6 b1 03 2c
        E 6 b1 03 2b
        E 6 b1 03 29
        E 6 b1 03 28
        E 6 b1 03 26
        E 6 b1 03 24
        E 6 b1 03 23
        E 6 b1 03 21
        E 6 b1 03 1f
        E 6 b1 03 1e
        E 6 b1 03 1c
        E 6 b1 03 1b
        E 6 b1 03 19
        E 6 b1 03 17
        E 6 b1 03 16
        E 6 b1 03 14
        E 6 b1 03 13
        E 6 b1 03 11
        E 6 b1 03 0f
        E 6 b1 03 0e
        E 6 b1 03 0c
        E 6 b1 03 0b
        E 6 b1 03 09
        E 6 b1 03 07
        E 6 b1 03 06
        E 6 b1 03 04
        E 6 b1 03 03
        E 6 b1 03 01
        E 6 b1 03 00
        E 18 b1 03 01
        E 18 b1 03 03
        E 18 b1 03 04
        E 18 b1 03 06
        E 18 b1 03 07
        E 18 b1 03 09
        E 18 b1 03 0b
        E 18 b1 03 0c
        E 18 b1 03 0e
        E 18 b1 03 0f
        E 18 b1 03 11
        E 18 b1 03 13
        E 18 b1 03 14
        E 18 b1 03 16
        E 18 b1 03 17
        E 18 b1 03 19
        E 18 b1 03 1b
        E 18 b1 03 1c
        E 18 b1 03 1e
        E 18 b1 03 1f
        E 18 b1 03 21
        E 18 b1 03 23
        E 18 b1 03 24
        E 18 b1 03 26
        E 18 b1 03 28
        E 18 b1 03 29
        E 18 b1 03 2b
        E 18 b1 03 2c
        E 18 b1 03 2e
        E 18 b1 03 2f
        E 18 b1 03 31
        E 18 b1 03 33
        E 18 b1 03 34
        E 18 b1 03 36
        E 18 b1 03 37
        E 18 b1 03 39
        E 18 b1 03 3b
        E 18 b1 03 3c
        E 18 b1 03 3e
        E 18 b1 03 3f
        E 18 b1 03 41
        E 18 b1 03 43
        E 18 b1 03 44
        E 18 b1 03 46
        E 18 b1 03 48
        E 18 b1 03 49
        E 18 b1 03 4b
        E 18 b1 03 4c
        E 18 b1 03 4e
        E 18 b1 03 50
        E 18 b1 03 51
        E 18 b1 03 53
        E 18 b1 03 54
        E 18 b1 03 56
        E 18 b1 03 57
        E 18 b1 03 59
        E 18 b1 03 5b
        E 18 b1 03 5c
        E 18 b1 03 5e
        E 18 b1 03 5f
        E 18 b1 03 61
        E 18 b1 03 63
        E 18 b1 03 64
        E 18 b1 03 65
        E 18 b1 03 64
        E 18 b1 03 63
        E 18 b1 03 61
        E 18 b1 03 5f
        E 18 b1 03 5e
        E 18 b1 03 5c
        E 18 b1 03 5b
        E 18 b1 03 59
        E 18 b1 03 57
        E 18 b1 03 56
        E 18 b1 03 54
        E 18 b1 03 53
        E 18 b1 03 51
        E 18 b1 03 50
        E 18 b1 03 4e
        E 18 b1 03 4c
        E 18 b1 03 4b
        E 18 b1 03 49
        E 18 b1 03 48
        E 18 b1 03 46
        E 18 b1 03 44
        E 18 b1 03 43
        E 18 b1 03 41
        E 18 b1 03 3f
        E 18 b1 03 3e
        E 18 b1 03 3c
        E 18 b1 03 3b
        E 18 b1 03 39
        E 18 b1 03 37
        E 18 b1 03 36
        E 18 b1 03 34
        E 18 b1 03 33
        E 18 b1 03 31
        E 18 b1 03 2f
        E 18 b1 03 2e
        E 18 b1 03 2c
        E 18 b1 03 2b
        E 18 b1 03 29
        E 18 b1 03 28
        E 18 b1 03 26
        E 18 b1 03 24
        E 18 b1 03 23
        E 18 b1 03 21
        E 18 b1 03 1f
        E 18 b1 03 1e
        E 18 b1 03 1c
        E 18 b1 03 1b
        E 18 b1 03 19
        E 18 b1 03 17
        E 18 b1 03 16
        E 18 b1 03 14
        E 18 b1 03 13
        E 18 b1 03 11
        E 18 b1 03 0f
        E 18 b1 03 0e
        E 18 b1 03 0c
        E 18 b1 03 0b
        E 18 b1 03 09
        E 18 b1 03 07
        E 18 b1 03 06
        E 18 b1 03 04
        E 18 b1 03 03
        E 18 b1 03 01
        E 18 b1 03 00
        E 4 b1 03 01
        E 4 b1 03 02
        E 4 b1 03 03
        E 4 b1 03 04
        E 4 b1 03 06
        E 4 b1 03 07
        E 4 b1 03 08
        E 4 b1 03 09
        E 4 b1 03 0a
        E 4 b1 03 0c
        E 4 b1 03 0d
        E 4 b1 03 0e
        E 4 b1 03 0f
        E 4 b1 03 10
        E 4 b1 03 12
        E 4 b1 03 13
        E 4 b1 03 14
        E 4 b1 03 15
        E 4 b1 03 16
        E 4 b1 03 18
        E 4 b1 03 19
        E 4 b1 03 1a
        E 4 b1 03 1b
        E 4 b1 03 1c
        E 4 b1 03 1e
        E 4 b1 03 1f
        E 4 b1 03 20
        E 4 b1 03 21
        E 4 b1 03 22
        E 4 b1 03 24
        E 4 b1 03 25
        E 4 b1 03 26
        E 4 b1 03 27
        E 4 b1 03 28
        E 4 b1 03 2a
        E 4 b1 03 2b
        E 4 b1 03 2c
        E 4 b1 03 2d
        E 4 b1 03 2e
        E 4 b1 03 30
        E 4 b1 03 31
        E 4 b1 03 32
        E 4 b1 03 33
        E 4 b1 03 34
        E 4 b1 03 36
        E 4 b1 03 37
        E 4 b1 03 38
        E 4 b1 03 39
        E 4 b1 03 3a
        E 4 b1 03 3c
        E 4 b1 03 3d
        E 4 b1 03 3e
        E 4 b1 03 3f
        E 4 b1 03 40
        E 4 b1 03 42
        E 4 b1 03 43
        E 4 b1 03 44
        E 4 b1 03 45
        E 4 b1 03 46
        E 4 b1 03 48
        E 4 b1 03 49
        E 4 b1 03 4a
        E 4 b1 03 4b
        E 4 b1 03 4c
        E 4 b1 03 4b
        E 4 b1 03 4a
        E 4 b1 03 49
        E 4 b1 03 48
        E 4 b1 03 46
        E 4 b1 03 45
        E 4 b1 03 44
        E 4 b1 03 43
        E 4 b1 03 42
        E 4 b1 03 40
        E 4 b1 03 3f
        E 4 b1 03 3e
        E 4 b1 03 3d
        E 4 b1 03 3c
        E 4 b1 03 3a
        E 4 b1 03 39
        E 4 b1 03 38
        E 4 b1 03 37
        E 4 b1 03 36
        E 4 b1 03 34
        E 4 b1 03 33
        E 4 b1 03 32
        E 4 b1 03 31
        E 4 b1 03 30
        E 4 b1 03 2e
        E 4 b1 03 2d
        E 4 b1 03 2c
        E 4 b1 03 2b
        E 4 b1 03 2a
        E 4 b1 03 28
        E 4 b1 03 27
        E 4 b1 03 26
        E 4 b1 03 25
        E 4 b1 03 24
        E 4 b1 03 22
        E 4 b1 03 21
        E 4 b1 03 20
        E 4 b1 03 1f
        E 4 b1 03 1e
        E 4 b1 03 1c
        E 4 b1 03 1b
        E 4 b1 03 1a
        E 4 b1 03 19
        E 4 b1 03 18
        E 4 b1 03 16
        E 4 b1 03 15
        E 4 b1 03 14
        E 4 b1 03 13
        E 4 b1 03 12
        E 4 b1 03 10
        E 4 b1 03 0f
        E 4 b1 03 0e
        E 4 b1 03 0d
        E 4 b1 03 0c
        E 4 b1 03 0a
        E 4 b1 03 09
        E 4 b1 03 08
        E 4 b1 03 07
        E 4 b1 03 06
        E 4 b1 03 04
        E 4 b1 03 03
        E 4 b1 03 02
        E 4 b1 03 01
        E 4 b1 03 00
        E 18 b1 03 00
        E 18 b1 03 01
        E 18 b1 03 02
        E 18 b1 03 03
        E 18 b1 03 04
        E 18 b1 03 04
        E 18 b1 03 05
        E 18 b1 03 06
        E 18 b1 03 07
        E 18 b1 03 08
        E 18 b1 03 08
        E 18 b1 03 09
        E 18 b1 03 0a
        E 18 b1 03 0b
        E 18 b1 03 0c
        E 18 b1 03 0c
        E 18 b1 03 0d
        E 18 b1 03 0e
        E 18 b1 03 0f
        E 18 b1 03 10
        E 18 b1 03 10
        E 18 b1 03 11
        E 18 b1 03 12
        E 18 b1 03 13
        E 18 b1 03 14
        E 18 b1 03 14
        E 18 b1 03 15
        E 18 b1 03 16
        E 18 b1 03 17
        E 18 b1 03 18
        E 18 b1 03 18
        E 18 b1 03 19
        E 18 b1 03 1a
        E 18 b1 03 1b
        E 18 b1 03 1c
        E 18 b1 03 1c
        E 18 b1 03 1d
        E 18 b1 03 1e
        E 18 b1 03 1f
        E 18 b1 03 20
        E 18 b1 03 20
        E 18 b1 03 21
        E 18 b1 03 22
        E 18 b1 03 23
        E 18 b1 03 24
        E 18 b1 03 24
        E 18 b1 03 25
        E 18 b1 03 26
        E 18 b1 03 27
        E 18 b1 03 28
        E 18 b1 03 28
        E 18 b1 03 29
        E 18 b1 03 2a
        E 18 b1 03 2b
        E 18 b1 03 2c
        E 18 b1 03 2c
        E 18 b1 03 2d
        E 18 b1 03 2e
        E 18 b1 03 2f
        E 18 b1 03 30
        E 18 b1 03 30
        E 18 b1 03 31
        E 18 b1 03 32
        E 18 b1 03 32
        E 18 b1 03 32
        E 18 b1 03 31
        E 18 b1 03 30
        E 18 b1 03 30
        E 18 b1 03 2f
        E 18 b1 03 2e
        E 18 b1 03 2d
        E 18 b1 03 2c
        E 18 b1 03 2c
        E 18 b1 03 2b
        E 18 b1 03 2a
        E 18 b1 03 29
        E 18 b1 03 28
        E 18 b1 03 28
        E 18 b1 03 27
        E 18 b1 03 26
        E 18 b1 03 25
        E 18 b1 03 24
        E 18 b1 03 24
        E 18 b1 03 23
        E 18 b1 03 22
        E 18 b1 03 21
        E 18 b1 03 20
        E 18 b1 03 20
        E 18 b1 03 1f
        E 18 b1 03 1e
        E 18 b1 03 1d
        E 18 b1 03 1c
        E 18 b1 03 1c
        E 18 b1 03 1b
        E 18 b1 03 1a
        E 18 b1 03 19
        E 18 b1 03 18
        E 18 b1 03 18
        E 18 b1 03 17
        E 18 b1 03 16
        E 18 b1 03 15
        E 18 b1 03 14
        E 18 b1 03 14
        E 18 b1 03 13
        E 18 b1 03 12
        E 18 b1 03 11
        E 18 b1 03 10
        E 18 b1 03 10
        E 18 b1 03 0f
        E 18 b1 03 0e
        E 18 b1 03 0d
        E 18 b1 03 0c
        E 18 b1 03 0c
        E 18 b1 03 0b
        E 18 b1 03 0a
        E 18 b1 03 09
        E 18 b1 03 08
        E 18 b1 03 08
        E 18 b1 03 07
        E 18 b1 03 06
        E 18 b1 03 05
        E 18 b1 03 04
        E 18 b1 03 04
        E 18 b1 03 03
        E 18 b1 03 02
        E 18 b1 03 01
        E 18 b1 03 00
        E 18 b1 03 00
        E 10 b1 03 01
        E 10 b1 03 02
        E 10 b1 03 04
        E 10 b1 03 05
        E 10 b1 03 07
        E 10 b1 03 08
        E 10 b1 03 09
        E 10 b1 03 0b
        E 10 b1 03 0c
        E 10 b1 03 0e
        E 10 b1 03 0f
        E 10 b1 03 10
        E 10 b1 03 12
        E 10 b1 03 13
        E 10 b1 03 15
        E 10 b1 03 16
        E 10 b1 03 17
        E 10 b1 03 19
        E 10 b1 03 1a
        E 10 b1 03 1c
        E 10 b1 03 1d
        E 10 b1 03 1e
        E 10 b1 03 20
        E 10 b1 03 21
        E 10 b1 03 23
        E 10 b1 03 24
        E 10 b1 03 25
        E 10 b1 03 27
        E 10 b1 03 28
        E 10 b1 03 2a
        E 10 b1 03 2b
        E 10 b1 03 2c
        E 10 b1 03 2e
        E 10 b1 03 2f
        E 10 b1 03 31
        E 10 b1 03 32
        E 10 b1 03 33
        E 10 b1 03 35
        E 10 b1 03 36
        E 10 b1 03 38
        E 10 b1 03 39
        E 10 b1 03 3a
        E 10 b1 03 3c
        E 10 b1 03 3d
        E 10 b1 03 3e
        E 10 b1 03 40
        E 10 b1 03 41
        E 10 b1 03 43
        E 10 b1 03 44
        E 10 b1 03 46
        E 10 b1 03 47
        E 10 b1 03 48
        E 10 b1 03 4a
        E 10 b1 03 4b
        E 10 b1 03 4d
        E 10 b1 03 4e
        E 10 b1 03 4f
        E 10 b1 03 51
        E 10 b1 03 52
        E 10 b1 03 54
        E 10 b1 03 55
        E 10 b1 03 56
        E 10 b1 03 58
        E 10 b1 03 58
        E 10 b1 03 58
        E 10 b1 03 56
        E 10 b1 03 55
        E 10 b1 03 54
        E 10 b1 03 52
        E 10 b1 03 51
        E 10 b1 03 4f
        E 10 b1 03 4e
        E 10 b1 03 4d
        E 10 b1 03 4b
        E 10 b1 03 4a
        E 10 b1 03 48
        E 10 b1 03 47
        E 10 b1 03 46
        E 10 b1 03 44
        E 10 b1 03 43
        E 10 b1 03 41
        E 10 b1 03 40
        E 10 b1 03 3e
        E 10 b1 03 3d
        E 10 b1 03 3c
        E 10 b1 03 3a
        E 10 b1 03 39
        E 10 b1 03 38
        E 10 b1 03 36
        E 10 b1 03 35
        E 10 b1 03 33
        E 10 b1 03 32
        E 10 b1 03 31
        E 10 b1 03 2f
        E 10 b1 03 2e
        E 10 b1 03 2c
        E 10 b1 03 2b
        E 10 b1 03 2a
        E 10 b1 03 28
        E 10 b1 03 27
        E 10 b1 03 25
        E 10 b1 03 24
        E 10 b1 03 23
        E 10 b1 03 21
        E 10 b1 03 20
        E 10 b1 03 1e
        E 10 b1 03 1d
        E 10 b1 03 1c
        E 10 b1 03 1a
        E 10 b1 03 19
        E 10 b1 03 17
        E 10 b1 03 16
        E 10 b1 03 15
        E 10 b1 03 13
        E 10 b1 03 12
        E 10 b1 03 10
        E 10 b1 03 0f
        E 10 b1 03 0e
        E 10 b1 03 0c
        E 10 b1 03 0b
        E 10 b1 03 09
        E 10 b1 03 08
        E 10 b1 03 07
        E 10 b1 03 05
        E 10 b1 03 04
        E 10 b1 03 02
        E 10 b1 03 01
        E 10 b1 03 00
        E 2 b1 03 00
        E 2 b1 03 01
        E 2 b1 03 02
        E 2 b1 03 03
        E 2 b1 03 04
        E 2 b1 03 04
        E 2 b1 03 05
        E 2 b1 03 06
        E 2 b1 03 07
        E 2 b1 03 08
        E 2 b1 03 08
        E 2 b1 03 09
        E 2 b1 03 0a
        E 2 b1 03 0b
        E 2 b1 03 0c
        E 2 b1 03 0c
        E 2 b1 03 0d
        E 2 b1 03 0e
        E 2 b1 03 0f
        E 2 b1 03 10
        E 2 b1 03 10
        E 2 b1 03 11
        E 2 b1 03 12
        E 2 b1 03 13
        E 2 b1 03 14
        E 2 b1 03 14
        E 2 b1 03 15
        E 2 b1 03 16
        E 2 b1 03 17
        E 2 b1 03 18
        E 2 b1 03 18
        E 2 b1 03 19
        E 2 b1 03 1a
        E 2 b1 03 1b
        E 2 b1 03 1c
        E 2 b1 03 1c
        E 2 b1 03 1d
        E 2 b1 03 1e
        E 2 b1 03 1f
        E 2 b1 03 20
        E 2 b1 03 20
        E 2 b1 03 21
        E 2 b1 03 22
        E 2 b1 03 23
        E 2 b1 03 24
        E 2 b1 03 24
        E 2 b1 03 25
        E 2 b1 03 26
        E 2 b1 03 27
        E 2 b1 03 28
        E 2 b1 03 28
        E 2 b1 03 29
        E 2 b1 03 2a
        E 2 b1 03 2b
        E 2 b1 03 2c
        E 2 b1 03 2c
        E 2 b1 03 2d
        E 2 b1 03 2e
        E 2 b1 03 2f
        E 2 b1 03 30
        E 2 b1 03 30
        E 2 b1 03 31
        E 2 b1 03 32
        E 2 b1 03 32
        E 2 b1 03 32
        E 2 b1 03 31
        E 2 b1 03 30
        E 2 b1 03 30
        E 2 b1 03 2f
        E 2 b1 03 2e
        E 2 b1 03 2d
        E 2 b1 03 2c
        E 2 b1 03 2c
        E 2 b1 03 2b
        E 2 b1 03 2a
        E 2 b1 03 29
        E 2 b1 03 28
        E 2 b1 03 28
        E 2 b1 03 27
        E 2 b1 03 26
        E 2 b1 03 25
        E 2 b1 03 24
        E 2 b1 03 24
        E 2 b1 03 23
        E 2 b1 03 22
        E 2 b1 03 21
        E 2 b1 03 20
        E 2 b1 03 20
        E 2 b1 03 1f
        E 2 b1 03 1e
        E 2 b1 03 1d
        E 2 b1 03 1c
        E 2 b1 03 1c
        E 2 b1 03 1b
        E 2 b1 03 1a
        E 2 b1 03 19
        E 2 b1 03 18
        E 2 b1 03 18
        E 2 b1 03 17
        E 2 b1 03 16
        E 2 b1 03 15
        E 2 b1 03 14
        E 2 b1 03 14
        E 2 b1 03 13
        E 2 b1 03 12
        E 2 b1 03 11
        E 2 b1 03 10
        E 2 b1 03 10
        E 2 b1 03 0f
        E 2 b1 03 0e
        E 2 b1 03 0d
        E 2 b1 03 0c
        E 2 b1 03 0c
        E 2 b1 03 0b
        E 2 b1 03 0a
        E 2 b1 03 09
        E 2 b1 03 08
        E 2 b1 03 08
        E 2 b1 03 07
        E 2 b1 03 06
        E 2 b1 03 05
        E 2 b1 03 04
        E 2 b1 03 04
        E 2 b1 03 03
        E 2 b1 03 02
        E 2 b1 03 01
        E 2 b1 03 00
        E 2 b1 03 00
        E 6 b1 03 01
        E 6 b1 03 03
        E 6 b1 03 04
        E 6 b1 03 06
        E 6 b1 03 07
        E 6 b1 03 09
        E 6 b1 03 0b
        E 6 b1 03 0c
        E 6 b1 03 0e
        E 6 b1 03 0f
        E 6 b1 03 11
        E 6 b1 03 13
        E 6 b1 03 14
        E 6 b1 03 16
        E 6 b1 03 17
        E 6 b1 03 19
        E 6 b1 03 1b
        E 6 b1 03 1c
        E 6 b1 03 1e
        E 6 b1 03 1f
        E 6 b1 03 21
        E 6 b1 03 23
        E 6 b1 03 24
        E 6 b1 03 26
        E 6 b1 03 28
        E 6 b1 03 29
        E 6 b1 03 2b
        E 6 b1 03 2c
        E 6 b1 03 2e
        E 6 b1 03 2f
        E 6 b1 03 31
        E 6 b1 03 33
        E 6 b1 03 34
        E 6 b1 03 36
        E 6 b1 03 37
        E 6 b1 03 39
        E 6 b1 03 3b
        E 6 b1 03 3c
        E 6 b1 03 3e
        E 6 b1 03 3f
        E 6 b1 03 41
        E 6 b1 03 43
        E 6 b1 03 44
        E 6 b1 03 46
        E 6 b1 03 48
        E 6 b1 03 49
        E 6 b1 03 4b
        E 6 b1 03 4c
        E 6 b1 03 4e
        E 6 b1 03 50
        E 6 b1 03 51
        E 6 b1 03 53
        E 6 b1 03 54
        E 6 b1 03 56
        E 6 b1 03 57
        E 6 b1 03 59
        E 6 b1 03 5b
        E 6 b1 03 5c
        E 6 b1 03 5e
        E 6 b1 03 5f
        E 6 b1 03 61
        E 6 b1 03 63
        E 6 b1 03 64
        E 6 b1 03 65
        E 6 b1 03 64
        E 6 b1 03 63
        E 6 b1 03 61
        E 6 b1 03 5f
        E 6 b1 03 5e
        E 6 b1 03 5c
        E 6 b1 03 5b
        E 6 b1 03 59
        E 6 b1 03 57
        E 6 b1 03 56
        E 6 b1 03 54
        E 6 b1 03 53
        E 6 b1 03 51
        E 6 b1 03 50
        E 6 b1 03 4e
        E 6 b1 03 4c
        E 6 b1 03 4b
        E 6 b1 03 49
        E 6 b1 03 48
        E 6 b1 03 46
        E 6 b1 03 44
        E 6 b1 03 43
        E 6 b1 03 41
        E 6 b1 03 3f
        E 6 b1 03 3e
        E 6 b1 03 3c
        E 6 b1 03 3b
        E 6 b1 03 39
        E 6 b1 03 37
        E 6 b1 03 36
        E 6 b1 03 34
        E 6 b1 03 33
        E 6 b1 03 31
        E 6 b1 03 2f
        E 6 b1 03 2e
        E 6 b1 03 2c
        E 6 b1 03 2b
        E 6 b1 03 29
        E 6 b1 03 28
        E 6 b1 03 26
        E 6 b1 03 24
        E 6 b1 03 23
        E 6 b1 03 21
        E 6 b1 03 1f
        E 6 b1 03 1e
        E 6 b1 03 1c
        E 6 b1 03 1b
        E 6 b1 03 19
        E 6 b1 03 17
        E 6 b1 03 16
        E 6 b1 03 14
        E 6 b1 03 13
        E 6 b1 03 11
        E 6 b1 03 0f
        E 6 b1 03 0e
        E 6 b1 03 0c
        E 6 b1 03 0b
        E 6 b1 03 09
        E 6 b1 03 07
        E 6 b1 03 06
        E 6 b1 03 04
        E 6 b1 03 03
        E 6 b1 03 01
        E 6 b1 03 00
        E 70 b1 03 0b
        E 70 b1 03 26
        E 70 b1 03 19
        E 70 b1 03 04
        E 70 b1 03 24
        E 70 b1 03 20
        E 70 b1 03 04
        E 70 b1 03 04
        E 70 b1 03 18
        E 70 b1 03 30
        E 70 b1 03 28
        E 70 b1 03 2c
        E 70 b1 03 1f
        E 70 b1 03 05
        E 70 b1 03 09
        E 70 b1 03 22
        E 70 b1 03 1c
        E 70 b1 03 0e
        E 70 b1 03 0a
        E 70 b1 03 0d
        E 70 b1 03 27
        E 70 b1 03 17
        E 70 b1 03 0c
        E 70 b1 03 1d
        E 70 b1 03 32
        E 70 b1 03 00
        E 70 b1 03 06
        E 70 b1 03 14
        E 70 b1 03 11
        E 70 b1 03 29
        E 70 b1 03 0a
        E 70 b1 03 03
        E 70 b1 03 08
        E 70 b1 03 08
        E 70 b1 03 2e
        E 70 b1 03 0c
        E 70 b1 03 00
        E 70 b1 03 25
        E 70 b1 03 11
        E 70 b1 03 0a
        E 70 b1 03 14
        E 70 b1 03 0d
        E 70 b1 03 2b
        E 70 b1 03 2a
        E 70 b1 03 32
        E 70 b1 03 2a
        E 70 b1 03 16
        E 70 b1 03 2f
        E 70 b1 03 24
        E 70 b1 03 06
        E 70 b1 03 16
        E 70 b1 03 1b
        E 70 b1 03 30
        E 70 b1 03 26
        E 70 b1 03 1b
        E 70 b1 03 1c
        E 70 b1 03 02
        E 70 b1 03 05
        E 70 b1 03 2e
        E 70 b1 03 28
        E 70 b1 03 15
        E 70 b1 03 10
        E 70 b1 03 06
        E 70 b1 03 16
        E 70 b1 03 0f
        E 70 b1 03 0c
        E 70 b1 03 13
        E 70 b1 03 1a
        E 70 b1 03 1e
        E 70 b1 03 20
        E 70 b1 03 08
        E 70 b1 03 1e
        E 70 b1 03 2d
        E 70 b1 03 1a
        E 70 b1 03 1d
        E 70 b1 03 01
        E 70 b1 03 03
        E 70 b1 03 32
        E 70 b1 03 21
        E 70 b1 03 09
        E 70 b1 03 2e
        E 70 b1 03 10
        E 70 b1 03 13
        E 70 b1 03 18
        E 70 b1 03 14
        E 70 b1 03 22
        E 70 b1 03 29
        E 70 b1 03 0e
        E 70 b1 03 1c
        E 70 b1 03 0b
        E 70 b1 03 2d
        E 70 b1 03 2a
        E 70 b1 03 17
        E 70 b1 03 12
        E 70 b1 03 28
        E 70 b1 03 12
        E 70 b1 03 23
        E 70 b1 03 07
        E 70 b1 03 00
        E 70 b1 03 10
        E 70 b1 03 19
        E 70 b1 03 2b
        E 70 b1 03 27
        E 70 b1 03 01
        E 70 b1 03 2c
        E 70 b1 03 25
        E 70 b1 03 02
        E 70 b1 03 0f
        E 70 b1 03 1e
        E 70 b1 03 26
        E 70 b1 03 30
        E 70 b1 03 1f
        E 70 b1 03 15
        E 70 b1 03 0e
        E 70 b1 03 23
        E 70 b1 03 24
        E 70 b1 03 2c
        E 70 b1 03 31
        E 70 b1 03 18
        E 70 b1 03 20
        E 70 b1 03 22
        E 70 b1 03 1a
        E 70 b1 03 2f
        E 70 b1 03 07
        E 70 b1 03 12
        E 70 b1 03 21
        E 39 b1 03 13
        E 39 b1 03 43
        E 39 b1 03 2c
        E 39 b1 03 07
        E 39 b1 03 3e
        E 39 b1 03 38
        E 39 b1 03 08
        E 39 b1 03 07
        E 39 b1 03 2a
        E 39 b1 03 54
        E 39 b1 03 46
        E 39 b1 03 4d
        E 39 b1 03 37
        E 39 b1 03 09
        E 39 b1 03 10
        E 39 b1 03 3c
        E 39 b1 03 31
        E 39 b1 03 19
        E 39 b1 03 11
        E 39 b1 03 17
        E 39 b1 03 45
        E 39 b1 03 29
        E 39 b1 03 15
        E 39 b1 03 33
        E 39 b1 03 58
        E 39 b1 03 00
        E 39 b1 03 0b
        E 39 b1 03 24
        E 39 b1 03 1e
        E 39 b1 03 48
        E 39 b1 03 12
        E 39 b1 03 05
        E 39 b1 03 0e
        E 39 b1 03 0f
        E 39 b1 03 50
        E 39 b1 03 16
        E 39 b1 03 00
        E 39 b1 03 41
        E 39 b1 03 1e
        E 39 b1 03 12
        E 39 b1 03 23
        E 39 b1 03 17
        E 39 b1 03 4b
        E 39 b1 03 4a
        E 39 b1 03 58
        E 39 b1 03 4a
        E 39 b1 03 26
        E 39 b1 03 52
        E 39 b1 03 3f
        E 39 b1 03 0a
        E 39 b1 03 27
        E 39 b1 03 2f
        E 39 b1 03 54
        E 39 b1 03 43
        E 39 b1 03 30
        E 39 b1 03 31
        E 39 b1 03 04
        E 39 b1 03 09
        E 39 b1 03 51
        E 39 b1 03 47
        E 39 b1 03 25
        E 39 b1 03 1c
        E 39 b1 03 0b
        E 39 b1 03 27
        E 39 b1 03 1a
        E 39 b1 03 15
        E 39 b1 03 21
        E 39 b1 03 2e
        E 39 b1 03 35
        E 39 b1 03 39
        E 39 b1 03 0e
        E 39 b1 03 35
        E 39 b1 03 4f
        E 39 b1 03 2d
        E 39 b1 03 33
        E 39 b1 03 02
        E 39 b1 03 06
        E 39 b1 03 57
        E 39 b1 03 3a
        E 39 b1 03 10
        E 39 b1 03 51
        E 39 b1 03 1c
        E 39 b1 03 22
        E 39 b1 03 2b
        E 39 b1 03 23
        E 39 b1 03 3b
        E 39 b1 03 48
        E 39 b1 03 19
        E 39 b1 03 32
        E 39 b1 03 14
        E 39 b1 03 4f
        E 39 b1 03 49
        E 39 b1 03 28
        E 39 b1 03 20
        E 39 b1 03 46
        E 39 b1 03 20
        E 39 b1 03 3e
        E 39 b1 03 0c
        E 39 b1 03 01
        E 39 b1 03 1d
        E 39 b1 03 2c
        E 39 b1 03 4c
        E 39 b1 03 44
        E 39 b1 03 02
        E 39 b1 03 4d
        E 39 b1 03 41
        E 39 b1 03 04
        E 39 b1 03 1b
        E 39 b1 03 34
        E 39 b1 03 42
        E 39 b1 03 55
        E 39 b1 03 36
        E 39 b1 03 25
        E 39 b1 03 18
        E 39 b1 03 3d
        E 39 b1 03 40
        E 39 b1 03 4e
        E 39 b1 03 56
        E 39 b1 03 2a
        E 39 b1 03 38
        E 39 b1 03 3c
        E 39 b1 03 2e
        E 39 b1 03 53
        E 39 b1 03 0d
        E 39 b1 03 1f
        E 39 b1 03 3a
        E 7 b1 03 0b
        E 7 b1 03 26
        E 7 b1 03 19
        E 7 b1 03 04
        E 7 b1 03 24
        E 7 b1 03 20
        E 7 b1 03 04
        E 7 b1 03 04
        E 7 b1 03 18
        E 7 b1 03 30
        E 7 b1 03 28
        E 7 b1 03 2c
        E 7 b1 03 1f
        E 7 b1 03 05
        E 7 b1 03 09
        E 7 b1 03 22
        E 7 b1 03 1c
        E 7 b1 03 0e
        E 7 b1 03 0a
        E 7 b1 03 0d
        E 7 b1 03 27
        E 7 b1 03 17
        E 7 b1 03 0c
        E 7 b1 03 1d
        E 7 b1 03 32
        E 7 b1 03 00
        E 7 b1 03 06
        E 7 b1 03 14
        E 7 b1 03 11
        E 7 b1 03 29
        E 7 b1 03 0a
        E 7 b1 03 03
        E 7 b1 03 08
        E 7 b1 03 08
        E 7 b1 03 2e
        E 7 b1 03 0c
        E 7 b1 03 00
        E 7 b1 03 25
        E 7 b1 03 11
        E 7 b1 03 0a
        E 7 b1 03 14
        E 7 b1 03 0d
        E 7 b1 03 2b
        E 7 b1 03 2a
        E 7 b1 03 32
        E 7 b1 03 2a
        E 7 b1 03 16
        E 7 b1 03 2f
        E 7 b1 03 24
        E 7 b1 03 06
        E 7 b1 03 16
        E 7 b1 03 1b
        E 7 b1 03 30
        E 7 b1 03 26
        E 7 b1 03 1b
        E 7 b1 03 1c
        E 7 b1 03 02
        E 7 b1 03 05
        E 7 b1 03 2e
        E 7 b1 03 28
        E 7 b1 03 15
        E 7 b1 03 10
        E 7 b1 03 06
        E 7 b1 03 16
        E 7 b1 03 0f
        E 7 b1 03 0c
        E 7 b1 03 13
        E 7 b1 03 1a
        E 7 b1 03 1e
        E 7 b1 03 20
        E 7 b1 03 08
        E 7 b1 03 1e
        E 7 b1 03 2d
        E 7 b1 03 1a
        E 7 b1 03 1d
        E 7 b1 03 01
        E 7 b1 03 03
        E 7 b1 03 32
        E 7 b1 03 21
        E 7 b1 03 09
        E 7 b1 03 2e
        E 7 b1 03 10
        E 7 b1 03 13
        E 7 b1 03 18
        E 7 b1 03 14
        E 7 b1 03 22
        E 7 b1 03 29
        E 7 b1 03 0e
        E 7 b1 03 1c
        E 7 b1 03 0b
        E 7 b1 03 2d
        E 7 b1 03 2a
        E 7 b1 03 17
        E 7 b1 03 12
        E 7 b1 03 28
        E 7 b1 03 12
        E 7 b1 03 23
        E 7 b1 03 07
        E 7 b1 03 00
        E 7 b1 03 10
        E 7 b1 03 19
        E 7 b1 03 2b
        E 7 b1 03 27
        E 7 b1 03 01
        E 7 b1 03 2c
        E 7 b1 03 25
        E 7 b1 03 02
        E 7 b1 03 0f
        E 7 b1 03 1e
        E 7 b1 03 26
        E 7 b1 03 30
        E 7 b1 03 1f
        E 7 b1 03 15
        E 7 b1 03 0e
        E 7 b1 03 23
        E 7 b1 03 24
        E 7 b1 03 2c
        E 7 b1 03 31
        E 7 b1 03 18
        E 7 b1 03 20
        E 7 b1 03 22
        E 7 b1 03 1a
        E 7 b1 03 2f
        E 7 b1 03 07
        E 7 b1 03 12
        E 7 b1 03 21
        E 23 b1 03 16
        E 23 b1 03 4c
        E 23 b1 03 32
        E 23 b1 03 07
        E 23 b1 03 48
        E 23 b1 03 3f
        E 23 b1 03 09
        E 23 b1 03 08
        E 23 b1 03 30
        E 23 b1 03 5f
        E 23 b1 03 50
        E 23 b1 03 58
        E 23 b1 03 3f
        E 23 b1 03 0b
        E 23 b1 03 13
        E 23 b1 03 44
        E 23 b1 03 37
        E 23 b1 03 1c
        E 23 b1 03 14
        E 23 b1 03 1b
        E 23 b1 03 4f
        E 23 b1 03 2f
        E 23 b1 03 17
        E 23 b1 03 3a
        E 23 b1 03 64
        E 23 b1 03 00
        E 23 b1 03 0c
        E 23 b1 03 29
        E 23 b1 03 22
        E 23 b1 03 53
        E 23 b1 03 15
        E 23 b1 03 06
        E 23 b1 03 0f
        E 23 b1 03 11
        E 23 b1 03 5b
        E 23 b1 03 19
        E 23 b1 03 00
        E 23 b1 03 4b
        E 23 b1 03 23
        E 23 b1 03 14
        E 23 b1 03 28
        E 23 b1 03 1a
        E 23 b1 03 56
        E 23 b1 03 55
        E 23 b1 03 65
        E 23 b1 03 54
        E 23 b1 03 2b
        E 23 b1 03 5e
        E 23 b1 03 48
        E 23 b1 03 0b
        E 23 b1 03 2c
        E 23 b1 03 36
        E 23 b1 03 60
        E 23 b1 03 4d
        E 23 b1 03 37
        E 23 b1 03 38
        E 23 b1 03 04
        E 23 b1 03 0a
        E 23 b1 03 5d
        E 23 b1 03 51
        E 23 b1 03 2b
        E 23 b1 03 1f
        E 23 b1 03 0d
        E 23 b1 03 2d
        E 23 b1 03 1e
        E 23 b1 03 18
        E 23 b1 03 26
        E 23 b1 03 34
        E 23 b1 03 3d
        E 23 b1 03 41
        E 23 b1 03 10
        E 23 b1 03 3c
        E 23 b1 03 5a
        E 23 b1 03 33
        E 23 b1 03 3b
        E 23 b1 03 02
        E 23 b1 03 07
        E 23 b1 03 63
        E 23 b1 03 42
        E 23 b1 03 12
        E 23 b1 03 5c
        E 23 b1 03 20
        E 23 b1 03 27
        E 23 b1 03 31
        E 23 b1 03 28
        E 23 b1 03 44
        E 23 b1 03 52
        E 23 b1 03 1d
        E 23 b1 03 39
        E 23 b1 03 17
        E 23 b1 03 5b
        E 23 b1 03 54
        E 23 b1 03 2e
        E 23 b1 03 24
        E 23 b1 03 50
        E 23 b1 03 25
        E 23 b1 03 47
        E 23 b1 03 0e
        E 23 b1 03 01
        E 23 b1 03 21
        E 23 b1 03 33
        E 23 b1 03 57
        E 23 b1 03 4e
        E 23 b1 03 03
        E 23 b1 03 57
        E 23 b1 03 4a
        E 23 b1 03 05
        E 23 b1 03 1f
        E 23 b1 03 3b
        E 23 b1 03 4c
        E 23 b1 03 61
        E 23 b1 03 3e
        E 23 b1 03 2a
        E 23 b1 03 1b
        E 23 b1 03 46
        E 23 b1 03 49
        E 23 b1 03 59
        E 23 b1 03 63
        E 23 b1 03 2f
        E 23 b1 03 40
        E 23 b1 03 45
        E 23 b1 03 35
        E 23 b1 03 5f
        E 23 b1 03 0f
        E 23 b1 03 24
        E 23 b1 03 43
        E 70 b1 03 16
        E 70 b1 03 4c
        E 70 b1 03 32
        E 70 b1 03 07
        E 70 b1 03 48
        E 70 b1 03 3f
        E 70 b1 03 09
        E 70 b1 03 08
        E 70 b1 03 30
        E 70 b1 03 5f
        E 70 b1 03 50
        E 70 b1 03 58
        E 70 b1 03 3f
        E 70 b1 03 0b
        E 70 b1 03 13
        E 70 b1 03 44
        E 70 b1 03 37
        E 70 b1 03 1c
        E 70 b1 03 14
        E 70 b1 03 1b
        E 70 b1 03 4f
        E 70 b1 03 2f
        E 70 b1 03 17
        E 70 b1 03 3a
        E 70 b1 03 64
        E 70 b1 03 00
        E 70 b1 03 0c
        E 70 b1 03 29
        E 70 b1 03 22
        E 70 b1 03 53
        E 70 b1 03 15
        E 70 b1 03 06
        E 70 b1 03 0f
        E 70 b1 03 11
        E 70 b1 03 5b
        E 70 b1 03 19
        E 70 b1 03 00
        E 70 b1 03 4b
        E 70 b1 03 23
        E 70 b1 03 14
        E 70 b1 03 28
        E 70 b1 03 1a
        E 70 b1 03 56
        E 70 b1 03 55
        E 70 b1 03 65
        E 70 b1 03 54
        E 70 b1 03 2b
        E 70 b1 03 5e
        E 70 b1 03 48
        E 70 b1 03 0b
        E 70 b1 03 2c
        E 70 b1 03 36
        E 70 b1 03 60
        E 70 b1 03 4d
        E 70 b1 03 37
        E 70 b1 03 38
        E 70 b1 03 04
        E 70 b1 03 0a
        E 70 b1 03 5d
        E 70 b1 03 51
        E 70 b1 03 2b
        E 70 b1 03 1f
        E 70 b1 03 0d
        E 70 b1 03 2d
        E 70 b1 03 1e
        E 70 b1 03 18
        E 70 b1 03 26
        E 70 b1 03 34
        E 70 b1 03 3d
        E 70 b1 03 41
        E 70 b1 03 10
        E 70 b1 03 3c
        E 70 b1 03 5a
        E 70 b1 03 33
        E 70 b1 03 3b
        E 70 b1 03 02
        E 70 b1 03 07
        E 70 b1 03 63
        E 70 b1 03 42
        E 70 b1 03 12
        E 70 b1 03 5c
        E 70 b1 03 20
        E 70 b1 03 27
        E 70 b1 03 31
        E 70 b1 03 28
        E 70 b1 03 44
        E 70 b1 03 52
        E 70 b1 03 1d
        E 70 b1 03 39
        E 70 b1 03 17
        E 70 b1 03 5b
        E 70 b1 03 54
        E 70 b1 03 2e
        E 70 b1 03 24
        E 70 b1 03 50
        E 70 b1 03 25
        E 70 b1 03 47
        E 70 b1 03 0e
        E 70 b1 03 01
        E 70 b1 03 21
        E 70 b1 03 33
        E 70 b1 03 57
        E 70 b1 03 4e
        E 70 b1 03 03
        E 70 b1 03 57
        E 70 b1 03 4a
        E 70 b1 03 05
        E 70 b1 03 1f
        E 70 b1 03 3b
        E 70 b1 03 4c
        E 70 b1 03 61
        E 70 b1 03 3e
        E 70 b1 03 2a
        E 70 b1 03 1b
        E 70 b1 03 46
        E 70 b1 03 49
        E 70 b1 03 59
        E 70 b1 03 63
        E 70 b1 03 2f
        E 70 b1 03 40
        E 70 b1 03 45
        E 70 b1 03 35
        E 70 b1 03 5f
        E 70 b1 03 0f
        E 70 b1 03 24
        E 70 b1 03 43
        E 15 b1 03 10
        E 15 b1 03 39
        E 15 b1 03 25
        E 15 b1 03 06
        E 15 b1 03 36
        E 15 b1 03 30
        E 15 b1 03 07
        E 15 b1 03 06
        E 15 b1 03 24
        E 15 b1 03 48
        E 15 b1 03 3c
        E 15 b1 03 42
        E 15 b1 03 2f
        E 15 b1 03 08
        E 15 b1 03 0e
        E 15 b1 03 33
        E 15 b1 03 2a
        E 15 b1 03 15
        E 15 b1 03 0f
        E 15 b1 03 14
        E 15 b1 03 3b
        E 15 b1 03 23
        E 15 b1 03 12
        E 15 b1 03 2b
        E 15 b1 03 4b
        E 15 b1 03 00
        E 15 b1 03 09
        E 15 b1 03 1f
        E 15 b1 03 19
        E 15 b1 03 3e
        E 15 b1 03 10
        E 15 b1 03 04
        E 15 b1 03 0c
        E 15 b1 03 0d
        E 15 b1 03 45
        E 15 b1 03 13
        E 15 b1 03 00
        E 15 b1 03 38
        E 15 b1 03 1a
        E 15 b1 03 0f
        E 15 b1 03 1e
        E 15 b1 03 13
        E 15 b1 03 40
        E 15 b1 03 40
        E 15 b1 03 4c
        E 15 b1 03 3f
        E 15 b1 03 21
        E 15 b1 03 46
        E 15 b1 03 36
        E 15 b1 03 09
        E 15 b1 03 21
        E 15 b1 03 28
        E 15 b1 03 48
        E 15 b1 03 3a
        E 15 b1 03 29
        E 15 b1 03 2a
        E 15 b1 03 03
        E 15 b1 03 07
        E 15 b1 03 46
        E 15 b1 03 3d
        E 15 b1 03 20
        E 15 b1 03 18
        E 15 b1 03 0a
        E 15 b1 03 22
        E 15 b1 03 16
        E 15 b1 03 12
        E 15 b1 03 1c
        E 15 b1 03 27
        E 15 b1 03 2e
        E 15 b1 03 31
        E 15 b1 03 0c
        E 15 b1 03 2d
        E 15 b1 03 43
        E 15 b1 03 27
        E 15 b1 03 2c
        E 15 b1 03 01
        E 15 b1 03 05
        E 15 b1 03 4b
        E 15 b1 03 31
        E 15 b1 03 0d
        E 15 b1 03 45
        E 15 b1 03 18
        E 15 b1 03 1d
        E 15 b1 03 25
        E 15 b1 03 1e
        E 15 b1 03 33
        E 15 b1 03 3d
        E 15 b1 03 16
        E 15 b1 03 2b
        E 15 b1 03 11
        E 15 b1 03 44
        E 15 b1 03 3f
        E 15 b1 03 22
        E 15 b1 03 1b
        E 15 b1 03 3c
        E 15 b1 03 1c
        E 15 b1 03 35
        E 15 b1 03 0a
        E 15 b1 03 01
        E 15 b1 03 19
        E 15 b1 03 26
        E 15 b1 03 41
        E 15 b1 03 3a
        E 15 b1 03 02
        E 15 b1 03 42
        E 15 b1 03 37
        E 15 b1 03 04
        E 15 b1 03 17
        E 15 b1 03 2d
        E 15 b1 03 39
        E 15 b1 03 49
        E 15 b1 03 2e
        E 15 b1 03 1f
        E 15 b1 03 15
        E 15 b1 03 34
        E 15 b1 03 37
        E 15 b1 03 43
        E 15 b1 03 4a
        E 15 b1 03 24
        E 15 b1 03 30
        E 15 b1 03 34
        E 15 b1 03 28
        E 15 b1 03 47
        E 15 b1 03 0b
        E 15 b1 03 1b
        E 15 b1 03 32
        E 70 b1 03 0b
        E 70 b1 03 26
        E 70 b1 03 19
        E 70 b1 03 04
        E 70 b1 03 24
        E 70 b1 03 20
        E 70 b1 03 04
        E 70 b1 03 04
        E 70 b1 03 18
        E 70 b1 03 30
        E 70 b1 03 28
        E 70 b1 03 2c
        E 70 b1 03 1f
        E 70 b1 03 05
        E 70 b1 03 09
        E 70 b1 03 22
        E 70 b1 03 1c
        E 70 b1 03 0e
        E 70 b1 03 0a
        E 70 b1 03 0d
        E 70 b1 03 27
        E 70 b1 03 17
        E 70 b1 03 0c
        E 70 b1 03 1d
        E 70 b1 03 32
        E 70 b1 03 00
        E 70 b1 03 06
        E 70 b1 03 14
        E 70 b1 03 11
        E 70 b1 03 29
        E 70 b1 03 0a
        E 70 b1 03 03
        E 70 b1 03 08
        E 70 b1 03 08
        E 70 b1 03 2e
        E 70 b1 03 0c
        E 70 b1 03 00
        E 70 b1 03 25
        E 70 b1 03 11
        E 70 b1 03 0a
        E 70 b1 03 14
        E 70 b1 03 0d
        E 70 b1 03 2b
        E 70 b1 03 2a
        E 70 b1 03 32
        E 70 b1 03 2a
        E 70 b1 03 16
        E 70 b1 03 2f
        E 70 b1 03 24
        E 70 b1 03 06
        E 70 b1 03 16
        E 70 b1 03 1b
        E 70 b1 03 30
        E 70 b1 03 26
        E 70 b1 03 1b
        E 70 b1 03 1c
        E 70 b1 03 02
        E 70 b1 03 05
        E 70 b1 03 2e
        E 70 b1 03 28
        E 70 b1 03 15
        E 70 b1 03 10
        E 70 b1 03 06
        E 70 b1 03 16
        E 70 b1 03 0f
        E 70 b1 03 0c
        E 70 b1 03 13
        E 70 b1 03 1a
        E 70 b1 03 1e
        E 70 b1 03 20
        E 70 b1 03 08
        E 70 b1 03 1e
        E 70 b1 03 2d
        E 70 b1 03 1a
        E 70 b1 03 1d
        E 70 b1 03 01
        E 70 b1 03 03
        E 70 b1 03 32
        E 70 b1 03 21
        E 70 b1 03 09
        E 70 b1 03 2e
        E 70 b1 03 10
        E 70 b1 03 13
        E 70 b1 03 18
        E 70 b1 03 14
        E 70 b1 03 22
        E 70 b1 03 29
        E 70 b1 03 0e
        E 70 b1 03 1c
        E 70 b1 03 0b
        E 70 b1 03 2d
        E 70 b1 03 2a
        E 70 b1 03 17
        E 70 b1 03 12
        E 70 b1 03 28
        E 70 b1 03 12
        E 70 b1 03 23
        E 70 b1 03 07
        E 70 b1 03 00
        E 70 b1 03 10
        E 70 b1 03 19
        E 70 b1 03 2b
        E 70 b1 03 27
        E 70 b1 03 01
        E 70 b1 03 2c
        E 70 b1 03 25
        E 70 b1 03 02
        E 70 b1 03 0f
        E 70 b1 03 1e
        E 70 b1 03 26
        E 70 b1 03 30
        E 70 b1 03 1f
        E 70 b1 03 15
        E 70 b1 03 0e
        E 70 b1 03 23
        E 70 b1 03 24
        E 70 b1 03 2c
        E 70 b1 03 31
        E 70 b1 03 18
        E 70 b1 03 20
        E 70 b1 03 22
        E 70 b1 03 1a
        E 70 b1 03 2f
        E 70 b1 03 07
        E 70 b1 03 12
        E 70 b1 03 21
        E 39 b1 03 13
        E 39 b1 03 43
        E 39 b1 03 2c
        E 39 b1 03 07
        E 39 b1 03 3e
        E 39 b1 03 38
        E 39 b1 03 08
        E 39 b1 03 07
        E 39 b1 03 2a
        E 39 b1 03 54
        E 39 b1 03 46
        E 39 b1 03 4d
        E 39 b1 03 37
        E 39 b1 03 09
        E 39 b1 03 10
        E 39 b1 03 3c
        E 39 b1 03 31
        E 39 b1 03 19
        E 39 b1 03 11
        E 39 b1 03 17
        E 39 b1 03 45
        E 39 b1 03 29
        E 39 b1 03 15
        E 39 b1 03 33
        E 39 b1 03 58
        E 39 b1 03 00
        E 39 b1 03 0b
        E 39 b1 03 24
        E 39 b1 03 1e
        E 39 b1 03 48
        E 39 b1 03 12
        E 39 b1 03 05
        E 39 b1 03 0e
        E 39 b1 03 0f
        E 39 b1 03 50
        E 39 b1 03 16
        E 39 b1 03 00
        E 39 b1 03 41
        E 39 b1 03 1e
        E 39 b1 03 12
        E 39 b1 03 23
        E 39 b1 03 17
        E 39 b1 03 4b
        E 39 b1 03 4a
        E 39 b1 03 58
        E 39 b1 03 4a
        E 39 b1 03 26
        E 39 b1 03 52
        E 39 b1 03 3f
        E 39 b1 03 0a
        E 39 b1 03 27
        E 39 b1 03 2f
        E 39 b1 03 54
        E 39 b1 03 43
        E 39 b1 03 30
        E 39 b1 03 31
        E 39 b1 03 04
        E 39 b1 03 09
        E 39 b1 03 51
        E 39 b1 03 47
        E 39 b1 03 25
        E 39 b1 03 1c
        E 39 b1 03 0b
        E 39 b1 03 27
        E 39 b1 03 1a
        E 39 b1 03 15
        E 39 b1 03 21
        E 39 b1 03 2e
        E 39 b1 03 35
        E 39 b1 03 39
        E 39 b1 03 0e
        E 39 b1 03 35
        E 39 b1 03 4f
        E 39 b1 03 2d
        E 39 b1 03 33
        E 39 b1 03 02
        E 39 b1 03 06
        E 39 b1 03 57
        E 39 b1 03 3a
        E 39 b1 03 10
        E 39 b1 03 51
        E 39 b1 03 1c
        E 39 b1 03 22
        E 39 b1 03 2b
        E 39 b1 03 23
        E 39 b1 03 3b
        E 39 b1 03 48
        E 39 b1 03 19
        E 39 b1 03 32
        E 39 b1 03 14
        E 39 b1 03 4f
        E 39 b1 03 49
        E 39 b1 03 28
        E 39 b1 03 20
        E 39 b1 03 46
        E 39 b1 03 20
        E 39 b1 03 3e
        E 39 b1 03 0c
        E 39 b1 03 01
        E 39 b1 03 1d
        E 39 b1 03 2c
        E 39 b1 03 4c
        E 39 b1 03 44
        E 39 b1 03 02
        E 39 b1 03 4d
        E 39 b1 03 41
        E 39 b1 03 04
        E 39 b1 03 1b
        E 39 b1 03 34
        E 39 b1 03 42
        E 39 b1 03 55
        E 39 b1 03 36
        E 39 b1 03 25
        E 39 b1 03 18
        E 39 b1 03 3d
        E 39 b1 03 40
        E 39 b1 03 4e
        E 39 b1 03 56
        E 39 b1 03 2a
        E 39 b1 03 38
        E 39 b1 03 3c
        E 39 b1 03 2e
        E 39 b1 03 53
        E 39 b1 03 0d
        E 39 b1 03 1f
        E 39 b1 03 3a
        E 7 b1 03 0b
        E 7 b1 03 26
        E 7 b1 03 19
        E 7 b1 03 04
        E 7 b1 03 24
        E 7 b1 03 20
        E 7 b1 03 04
        E 7 b1 03 04
        E 7 b1 03 18
        E 7 b1 03 30
        E 7 b1 03 28
        E 7 b1 03 2c
        E 7 b1 03 1f
        E 7 b1 03 05
        E 7 b1 03 09
        E 7 b1 03 22
        E 7 b1 03 1c
        E 7 b1 03 0e
        E 7 b1 03 0a
        E 7 b1 03 0d
        E 7 b1 03 27
        E 7 b1 03 17
        E 7 b1 03 0c
        E 7 b1 03 1d
        E 7 b1 03 32
        E 7 b1 03 00
        E 7 b1 03 06
        E 7 b1 03 14
        E 7 b1 03 11
        E 7 b1 03 29
        E 7 b1 03 0a
        E 7 b1 03 03
        E 7 b1 03 08
        E 7 b1 03 08
        E 7 b1 03 2e
        E 7 b1 03 0c
        E 7 b1 03 00
        E 7 b1 03 25
        E 7 b1 03 11
        E 7 b1 03 0a
        E 7 b1 03 14
        E 7 b1 03 0d
        E 7 b1 03 2b
        E 7 b1 03 2a
        E 7 b1 03 32
        E 7 b1 03 2a
        E 7 b1 03 16
        E 7 b1 03 2f
        E 7 b1 03 24
        E 7 b1 03 06
        E 7 b1 03 16
        E 7 b1 03 1b
        E 7 b1 03 30
        E 7 b1 03 26
        E 7 b1 03 1b
        E 7 b1 03 1c
        E 7 b1 03 02
        E 7 b1 03 05
        E 7 b1 03 2e
        E 7 b1 03 28
        E 7 b1 03 15
        E 7 b1 03 10
        E 7 b1 03 06
        E 7 b1 03 16
        E 7 b1 03 0f
        E 7 b1 03 0c
        E 7 b1 03 13
        E 7 b1 03 1a
        E 7 b1 03 1e
        E 7 b1 03 20
        E 7 b1 03 08
        E 7 b1 03 1e
        E 7 b1 03 2d
        E 7 b1 03 1a
        E 7 b1 03 1d
        E 7 b1 03 01
        E 7 b1 03 03
        E 7 b1 03 32
        E 7 b1 03 21
        E 7 b1 03 09
        E 7 b1 03 2e
        E 7 b1 03 10
        E 7 b1 03 13
        E 7 b1 03 18
        E 7 b1 03 14
        E 7 b1 03 22
        E 7 b1 03 29
        E 7 b1 03 0e
        E 7 b1 03 1c
        E 7 b1 03 0b
        E 7 b1 03 2d
        E 7 b1 03 2a
        E 7 b1 03 17
        E 7 b1 03 12
        E 7 b1 03 28
        E 7 b1 03 12
        E 7 b1 03 23
        E 7 b1 03 07
        E 7 b1 03 00
        E 7 b1 03 10
        E 7 b1 03 19
        E 7 b1 03 2b
        E 7 b1 03 27
        E 7 b1 03 01
        E 7 b1 03 2c
        E 7 b1 03 25
        E 7 b1 03 02
        E 7 b1 03 0f
        E 7 b1 03 1e
        E 7 b1 03 26
        E 7 b1 03 30
        E 7 b1 03 1f
        E 7 b1 03 15
        E 7 b1 03 0e
        E 7 b1 03 23
        E 7 b1 03 24
        E 7 b1 03 2c
        E 7 b1 03 31
        E 7 b1 03 18
        E 7 b1 03 20
        E 7 b1 03 22
        E 7 b1 03 1a
        E 7 b1 03 2f
        E 7 b1 03 07
        E 7 b1 03 12
        E 7 b1 03 21
        E 23 b1 03 16
        E 23 b1 03 4c
        E 23 b1 03 32
        E 23 b1 03 07
        E 23 b1 03 48
        E 23 b1 03 3f
        E 23 b1 03 09
        E 23 b1 03 08
        E 23 b1 03 30
        E 23 b1 03 5f
        E 23 b1 03 50
        E 23 b1 03 58
        E 23 b1 03 3f
        E 23 b1 03 0b
        E 23 b1 03 13
        E 23 b1 03 44
        E 23 b1 03 37
        E 23 b1 03 1c
        E 23 b1 03 14
        E 23 b1 03 1b
        E 23 b1 03 4f
        E 23 b1 03 2f
        E 23 b1 03 17
        E 23 b1 03 3a
        E 23 b1 03 64
        E 23 b1 03 00
        E 23 b1 03 0c
        E 23 b1 03 29
        E 23 b1 03 22
        E 23 b1 03 53
        E 23 b1 03 15
        E 23 b1 03 06
        E 23 b1 03 0f
        E 23 b1 03 11
        E 23 b1 03 5b
        E 23 b1 03 19
        E 23 b1 03 00
        E 23 b1 03 4b
        E 23 b1 03 23
        E 23 b1 03 14
        E 23 b1 03 28
        E 23 b1 03 1a
        E 23 b1 03 56
        E 23 b1 03 55
        E 23 b1 03 65
        E 23 b1 03 54
        E 23 b1 03 2b
        E 23 b1 03 5e
        E 23 b1 03 48
        E 23 b1 03 0b
        E 23 b1 03 2c
        E 23 b1 03 36
        E 23 b1 03 60
        E 23 b1 03 4d
        E 23 b1 03 37
        E 23 b1 03 38
        E 23 b1 03 04
        E 23 b1 03 0a
        E 23 b1 03 5d
        E 23 b1 03 51
        E 23 b1 03 2b
        E 23 b1 03 1f
        E 23 b1 03 0d
        E 23 b1 03 2d
        E 23 b1 03 1e
        E 23 b1 03 18
        E 23 b1 03 26
        E 23 b1 03 34
        E 23 b1 03 3d
        E 23 b1 03 41
        E 23 b1 03 10
        E 23 b1 03 3c
        E 23 b1 03 5a
        E 23 b1 03 33
        E 23 b1 03 3b
        E 23 b1 03 02
        E 23 b1 03 07
        E 23 b1 03 63
        E 23 b1 03 42
        E 23 b1 03 12
        E 23 b1 03 5c
        E 23 b1 03 20
        E 23 b1 03 27
        E 23 b1 03 31
        E 23 b1 03 28
        E 23 b1 03 44
        E 23 b1 03 52
        E 23 b1 03 1d
        E 23 b1 03 39
        E 23 b1 03 17
        E 23 b1 03 5b
        E 23 b1 03 54
        E 23 b1 03 2e
        E 23 b1 03 24
        E 23 b1 03 50
        E 23 b1 03 25
        E 23 b1 03 47
        E 23 b1 03 0e
        E 23 b1 03 01
        E 23 b1 03 21
        E 23 b1 03 33
        E 23 b1 03 57
        E 23 b1 03 4e
        E 23 b1 03 03
        E 23 b1 03 57
        E 23 b1 03 4a
        E 23 b1 03 05
        E 23 b1 03 1f
        E 23 b1 03 3b
        E 23 b1 03 4c
        E 23 b1 03 61
        E 23 b1 03 3e
        E 23 b1 03 2a
        E 23 b1 03 1b
        E 23 b1 03 46
        E 23 b1 03 49
        E 23 b1 03 59
        E 23 b1 03 63
        E 23 b1 03 2f
        E 23 b1 03 40
        E 23 b1 03 45
        E 23 b1 03 35
        E 23 b1 03 5f
        E 23 b1 03 0f
        E 23 b1 03 24
        E 23 b1 03 43
        E 70 b1 03 16
        E 70 b1 03 4c
        E 70 b1 03 32
        E 70 b1 03 07
        E 70 b1 03 48
        E 70 b1 03 3f
        E 70 b1 03 09
        E 70 b1 03 08
        E 70 b1 03 30
        E 70 b1 03 5f
        E 70 b1 03 50
        E 70 b1 03 58
        E 70 b1 03 3f
        E 70 b1 03 0b
        E 70 b1 03 13
        E 70 b1 03 44
        E 70 b1 03 37
        E 70 b1 03 1c
        E 70 b1 03 14
        E 70 b1 03 1b
        E 70 b1 03 4f
        E 70 b1 03 2f
        E 70 b1 03 17
        E 70 b1 03 3a
        E 70 b1 03 64
        E 70 b1 03 00
        E 70 b1 03 0c
        E 70 b1 03 29
        E 70 b1 03 22
        E 70 b1 03 53
        E 70 b1 03 15
        E 70 b1 03 06
        E 70 b1 03 0f
        E 70 b1 03 11
        E 70 b1 03 5b
        E 70 b1 03 19
        E 70 b1 03 00
        E 70 b1 03 4b
        E 70 b1 03 23
        E 70 b1 03 14
        E 70 b1 03 28
        E 70 b1 03 1a
        E 70 b1 03 56
        E 70 b1 03 55
        E 70 b1 03 65
        E 70 b1 03 54
        E 70 b1 03 2b
        E 70 b1 03 5e
        E 70 b1 03 48
        E 70 b1 03 0b
        E 70 b1 03 2c
        E 70 b1 03 36
        E 70 b1 03 60
        E 70 b1 03 4d
        E 70 b1 03 37
        E 70 b1 03 38
        E 70 b1 03 04
        E 70 b1 03 0a
        E 70 b1 03 5d
        E 70 b1 03 51
        E 70 b1 03 2b
        E 70 b1 03 1f
        E 70 b1 03 0d
        E 70 b1 03 2d
        E 70 b1 03 1e
        E 70 b1 03 18
        E 70 b1 03 26
        E 70 b1 03 34
        E 70 b1 03 3d
        E 70 b1 03 41
        E 70 b1 03 10
        E 70 b1 03 3c
        E 70 b1 03 5a
        E 70 b1 03 33
        E 70 b1 03 3b
        E 70 b1 03 02
        E 70 b1 03 07
        E 70 b1 03 63
        E 70 b1 03 42
        E 70 b1 03 12
        E 70 b1 03 5c
        E 70 b1 03 20
        E 70 b1 03 27
        E 70 b1 03 31
        E 70 b1 03 28
        E 70 b1 03 44
        E 70 b1 03 52
        E 70 b1 03 1d
        E 70 b1 03 39
        E 70 b1 03 17
        E 70 b1 03 5b
        E 70 b1 03 54
        E 70 b1 03 2e
        E 70 b1 03 24
        E 70 b1 03 50
        E 70 b1 03 25
        E 70 b1 03 47
        E 70 b1 03 0e
        E 70 b1 03 01
        E 70 b1 03 21
        E 70 b1 03 33
        E 70 b1 03 57
        E 70 b1 03 4e
        E 70 b1 03 03
        E 70 b1 03 57
        E 70 b1 03 4a
        E 70 b1 03 05
        E 70 b1 03 1f
        E 70 b1 03 3b
        E 70 b1 03 4c
        E 70 b1 03 61
        E 70 b1 03 3e
        E 70 b1 03 2a
        E 70 b1 03 1b
        E 70 b1 03 46
        E 70 b1 03 49
        E 70 b1 03 59
        E 70 b1 03 63
        E 70 b1 03 2f
        E 70 b1 03 40
        E 70 b1 03 45
        E 70 b1 03 35
        E 70 b1 03 5f
        E 70 b1 03 0f
        E 70 b1 03 24
        E 70 b1 03 43
        E 15 b1 03 10
        E 15 b1 03 39
        E 15 b1 03 25
        E 15 b1 03 06
        E 15 b1 03 36
        E 15 b1 03 30
        E 15 b1 03 07
        E 15 b1 03 06
        E 15 b1 03 24
        E 15 b1 03 48
        E 15 b1 03 3c
        E 15 b1 03 42
        E 15 b1 03 2f
        E 15 b1 03 08
        E 15 b1 03 0e
        E 15 b1 03 33
        E 15 b1 03 2a
        E 15 b1 03 15
        E 15 b1 03 0f
        E 15 b1 03 14
        E 15 b1 03 3b
        E 15 b1 03 23
        E 15 b1 03 12
        E 15 b1 03 2b
        E 15 b1 03 4b
        E 15 b1 03 00
        E 15 b1 03 09
        E 15 b1 03 1f
        E 15 b1 03 19
        E 15 b1 03 3e
        E 15 b1 03 10
        E 15 b1 03 04
        E 15 b1 03 0c
        E 15 b1 03 0d
        E 15 b1 03 45
        E 15 b1 03 13
        E 15 b1 03 00
        E 15 b1 03 38
        E 15 b1 03 1a
        E 15 b1 03 0f
        E 15 b1 03 1e
        E 15 b1 03 13
        E 15 b1 03 40
        E 15 b1 03 40
        E 15 b1 03 4c
        E 15 b1 03 3f
        E 15 b1 03 21
        E 15 b1 03 46
        E 15 b1 03 36
        E 15 b1 03 09
        E 15 b1 03 21
        E 15 b1 03 28
        E 15 b1 03 48
        E 15 b1 03 3a
        E 15 b1 03 29
        E 15 b1 03 2a
        E 15 b1 03 03
        E 15 b1 03 07
        E 15 b1 03 46
        E 15 b1 03 3d
        E 15 b1 03 20
        E 15 b1 03 18
        E 15 b1 03 0a
        E 15 b1 03 22
        E 15 b1 03 16
        E 15 b1 03 12
        E 15 b1 03 1c
        E 15 b1 03 27
        E 15 b1 03 2e
        E 15 b1 03 31
        E 15 b1 03 0c
        E 15 b1 03 2d
        E 15 b1 03 43
        E 15 b1 03 27
        E 15 b1 03 2c
        E 15 b1 03 01
        E 15 b1 03 05
        E 15 b1 03 4b
        E 15 b1 03 31
        E 15 b1 03 0d
        E 15 b1 03 45
        E 15 b1 03 18
        E 15 b1 03 1d
        E 15 b1 03 25
        E 15 b1 03 1e
        E 15 b1 03 33
        E 15 b1 03 3d
        E 15 b1 03 16
        E 15 b1 03 2b
        E 15 b1 03 11
        E 15 b1 03 44
        E 15 b1 03 3f
        E 15 b1 03 22
        E 15 b1 03 1b
        E 15 b1 03 3c
        E 15 b1 03 1c
        E 15 b1 03 35
        E 15 b1 03 0a
        E 15 b1 03 01
        E 15 b1 03 19
        E 15 b1 03 26
        E 15 b1 03 41
        E 15 b1 03 3a
        E 15 b1 03 02
        E 15 b1 03 42
        E 15 b1 03 37
        E 15 b1 03 04
        E 15 b1 03 17
        E 15 b1 03 2d
        E 15 b1 03 39
        E 15 b1 03 49
        E 15 b1 03 2e
        E 15 b1 03 1f
        E 15 b1 03 15
        E 15 b1 03 34
        E 15 b1 03 37
        E 15 b1 03 43
        E 15 b1 03 4a
        E 15 b1 03 24
        E 15 b1 03 30
        E 15 b1 03 34
        E 15 b1 03 28
        E 15 b1 03 47
        E 15 b1 03 0b
        E 15 b1 03 1b
        E 15 b1 03 32
        E 70 b1 03 0b
        E 70 b1 03 26
        E 70 b1 03 19
        E 70 b1 03 04
        E 70 b1 03 24
        E 70 b1 03 20
        E 70 b1 03 04
        E 70 b1 03 04
        E 70 b1 03 18
        E 70 b1 03 30
        E 70 b1 03 28
        E 70 b1 03 2c
        E 70 b1 03 1f
        E 70 b1 03 05
        E 70 b1 03 09
        E 70 b1 03 22
        E 70 b1 03 1c
        E 70 b1 03 0e
        E 70 b1 03 0a
        E 70 b1 03 0d
        E 70 b1 03 27
        E 70 b1 03 17
        E 70 b1 03 0c
        E 70 b1 03 1d
        E 70 b1 03 32
        E 70 b1 03 00
        E 70 b1 03 06
        E 70 b1 03 14
        E 70 b1 03 11
        E 70 b1 03 29
        E 70 b1 03 0a
        E 70 b1 03 03
        E 70 b1 03 08
        E 70 b1 03 08
        E 70 b1 03 2e
        E 70 b1 03 0c
        E 70 b1 03 00
        E 70 b1 03 25
        E 70 b1 03 11
        E 70 b1 03 0a
        E 70 b1 03 14
        E 70 b1 03 0d
        E 70 b1 03 2b
        E 70 b1 03 2a
        E 70 b1 03 32
        E 70 b1 03 2a
        E 70 b1 03 16
        E 70 b1 03 2f
        E 70 b1 03 24
        E 70 b1 03 06
        E 70 b1 03 16
        E 70 b1 03 1b
        E 70 b1 03 30
        E 70 b1 03 26
        E 70 b1 03 1b
        E 70 b1 03 1c
        E 70 b1 03 02
        E 70 b1 03 05
        E 70 b1 03 2e
        E 70 b1 03 28
        E 70 b1 03 15
        E 70 b1 03 10
        E 70 b1 03 06
        E 70 b1 03 16
        E 70 b1 03 0f
        E 70 b1 03 0c
        E 70 b1 03 13
        E 70 b1 03 1a
        E 70 b1 03 1e
        E 70 b1 03 20
        E 70 b1 03 08
        E 70 b1 03 1e
        E 70 b1 03 2d
        E 70 b1 03 1a
        E 70 b1 03 1d
        E 70 b1 03 01
        E 70 b1 03 03
        E 70 b1 03 32
        E 70 b1 03 21
        E 70 b1 03 09
        E 70 b1 03 2e
        E 70 b1 03 10
        E 70 b1 03 13
        E 70 b1 03 18
        E 70 b1 03 14
        E 70 b1 03 22
        E 70 b1 03 29
        E 70 b1 03 0e
        E 70 b1 03 1c
        E 70 b1 03 0b
        E 70 b1 03 2d
        E 70 b1 03 2a
        E 70 b1 03 17
        E 70 b1 03 12
        E 70 b1 03 28
        E 70 b1 03 12
        E 70 b1 03 23
        E 70 b1 03 07
        E 70 b1 03 00
        E 70 b1 03 10
        E 70 b1 03 19
        E 70 b1 03 2b
        E 70 b1 03 27
        E 70 b1 03 01
        E 70 b1 03 2c
        E 70 b1 03 25
        E 70 b1 03 02
        E 70 b1 03 0f
        E 70 b1 03 1e
        E 70 b1 03 26
        E 70 b1 03 30
        E 70 b1 03 1f
        E 70 b1 03 15
        E 70 b1 03 0e
        E 70 b1 03 23
        E 70 b1 03 24
        E 70 b1 03 2c
        E 70 b1 03 31
        E 70 b1 03 18
        E 70 b1 03 20
        E 70 b1 03 22
        E 70 b1 03 1a
        E 70 b1 03 2f
        E 70 b1 03 07
        E 70 b1 03 12
        E 70 b1 03 21
        E 39 b1 03 13
        E 39 b1 03 43
        E 39 b1 03 2c
        E 39 b1 03 07
        E 39 b1 03 3e
        E 39 b1 03 38
        E 39 b1 03 08
        E 39 b1 03 07
        E 39 b1 03 2a
        E 39 b1 03 54
        E 39 b1 03 46
        E 39 b1 03 4d
        E 39 b1 03 37
        E 39 b1 03 09
        E 39 b1 03 10
        E 39 b1 03 3c
        E 39 b1 03 31
        E 39 b1 03 19
        E 39 b1 03 11
        E 39 b1 03 17
        E 39 b1 03 45
        E 39 b1 03 29
        E 39 b1 03 15
        E 39 b1 03 33
        E 39 b1 03 58
        E 39 b1 03 00
        E 39 b1 03 0b
        E 39 b1 03 24
        E 39 b1 03 1e
        E 39 b1 03 48
        E 39 b1 03 12
        E 39 b1 03 05
        E 39 b1 03 0e
        E 39 b1 03 0f
        E 39 b1 03 50
        E 39 b1 03 16
        E 39 b1 03 00
        E 39 b1 03 41
        E 39 b1 03 1e
        E 39 b1 03 12
        E 39 b1 03 23
        E 39 b1 03 17
        E 39 b1 03 4b
        E 39 b1 03 4a
        E 39 b1 03 58
        E 39 b1 03 4a
        E 39 b1 03 26
        E 39 b1 03 52
        E 39 b1 03 3f
        E 39 b1 03 0a
        E 39 b1 03 27
        E 39 b1 03 2f
        E 39 b1 03 54
        E 39 b1 03 43
        E 39 b1 03 30
        E 39 b1 03 31
        E 39 b1 03 04
        E 39 b1 03 09
        E 39 b1 03 51
        E 39 b1 03 47
        E 39 b1 03 25
        E 39 b1 03 1c
        E 39 b1 03 0b
        E 39 b1 03 27
        E 39 b1 03 1a
        E 39 b1 03 15
        E 39 b1 03 21
        E 39 b1 03 2e
        E 39 b1 03 35
        E 39 b1 03 39
        E 39 b1 03 0e
        E 39 b1 03 35
        E 39 b1 03 4f
        E 39 b1 03 2d
        E 39 b1 03 33
        E 39 b1 03 02
        E 39 b1 03 06
        E 39 b1 03 57
        E 39 b1 03 3a
        E 39 b1 03 10
        E 39 b1 03 51
        E 39 b1 03 1c
        E 39 b1 03 22
        E 39 b1 03 2b
        E 39 b1 03 23
        E 39 b1 03 3b
        E 39 b1 03 48
        E 39 b1 03 19
        E 39 b1 03 32
        E 39 b1 03 14
        E 39 b1 03 4f
        E 39 b1 03 49
        E 39 b1 03 28
        E 39 b1 03 20
        E 39 b1 03 46
        E 39 b1 03 20
        E 39 b1 03 3e
        E 39 b1 03 0c
        E 39 b1 03 01
        E 39 b1 03 1d
        E 39 b1 03 2c
        E 39 b1 03 4c
        E 39 b1 03 44
        E 39 b1 03 02
        E 39 b1 03 4d
        E 39 b1 03 41
        E 39 b1 03 04
        E 39 b1 03 1b
        E 39 b1 03 34
        E 39 b1 03 42
        E 39 b1 03 55
        E 39 b1 03 36
        E 39 b1 03 25
        E 39 b1 03 18
        E 39 b1 03 3d
        E 39 b1 03 40
        E 39 b1 03 4e
        E 39 b1 03 56
        E 39 b1 03 2a
        E 39 b1 03 38
        E 39 b1 03 3c
        E 39 b1 03 2e
        E 39 b1 03 53
        E 39 b1 03 0d
        E 39 b1 03 1f
        E 39 b1 03 3a
        E 46 b0 7b 00
        CCINTERP 32
        CHASE_CC_TAKEOFFS 1
        GUID {0A58156B-E7D4-D84E-B41A-40BC68B2DCA5}
        IGNTEMPO 0 120 4 4
        SRCCOLOR 147
        VELLANE 3 601 0
        VELLANE -1 196 0
        CFGEDITVIEW 0 0.008186 62 12 0 -1 0 0 0 0.5
        KEYSNAP 0
        TRACKSEL 252
        EVTFILTER 0 -1 -1 -1 -1 0 0 0 0 -1 -1 -1 -1 0 -1 0 -1 -1
        CFGEDIT 1 1 0 1 0 0 1 1 1 1 1 0.125 0 0 1792 1095 0 0 0 0 0 0 0 0 0 0.5 0 0 1 64
      >
    >
  >
  <TRACK {329651DC-CF2D-AA46-A169-AC36C2D2BC10}
    NAME "germ-x hand sanitizer"
    PEAKCOL 16576
    BEAT -1
    AUTOMODE 0
    VOLPAN 1 0 -1 -1 1
    MUTESOLO 0 0 0
    IPHASE 0
    PLAYOFFS 0 1
    ISBUS 0 0
    BUSCOMP 0 0 0 0 0
    SHOWINMIX 1 0.6667 0.5 1 0.5 0 -1 0
    FREEMODE 0
    SEL 0
    REC 0 0 1 0 0 0 0
    VU 2
    TRACKHEIGHT 0 1 0 0 -1 0
    INQ 0 0 0 0.5 100 0 0 100
    NCHAN 2
    FX 1
    TRACKID {329651DC-CF2D-AA46-A169-AC36C2D2BC10}
    PERF 0
    MIDIOUT -1
    MAINSEND 1 0
    <ITEM
      POSITION 0
      SNAPOFFS 0
      LENGTH 145.9458
      LOOP 1
      ALLTAKES 0
      FADEIN 1 0 0 1 0 0
      FADEOUT 1 0 0 1 0 0
      MUTE 0 0
      SEL 0
      IGUID {CCCE097A-F7D1-2B47-AAC0-36FF7CB5C61B}
      IID 15
      NAME "germ-x hand sanitizer.mid"
      VOLPAN 1 0 1 -1
      SOFFS 0 0
      PLAYRATE 1 1 0 -1 0 0.0025
      CHANMODE 0
      GUID {86F6C1DD-2D91-464D-AEBC-313E151D8099}
      <SOURCE MIDI
        HASDATA 1 128 QN
        CCINTERP 32
        POOLEDEVTS {B307BF91-A027-704B-8A97-D372D70ACB4D}
        E 35 b2 08 39
        E 35 b2 08 3c
        E 35 b2 08 3f
        E 35 b2 08 41
        E 35 b2 08 44
        E 35 b2 08 47
        E 35 b2 08 49
        E 35 b2 08 4c
        E 35 b2 08 4f
        E 35 b2 08 51
        E 35 b2 08 54
        E 35 b2 08 56
        E 35 b2 08 59
        E 35 b2 08 5b
        E 35 b2 08 5d
        E 35 b2 08 5f
        E 35 b2 08 62
        E 35 b2 08 63
        E 35 b2 08 65
        E 35 b2 08 67
        E 35 b2 08 69
        E 35 b2 08 6a
        E 35 b2 08 6c
        E 35 b2 08 6c
        E 35 b2 08 6d
        E 35 b2 08 6e
        E 35 b2 08 6f
        E 35 b2 08 70
        E 35 b2 08 71
        E 35 b2 08 71
        E 35 b2 08 72
        E 35 b2 08 72
        E 35 b2 08 72
        E 35 b2 08 72
        E 35 b2 08 72
        E 35 b2 08 71
        E 35 b2 08 71
        E 35 b2 08 70
        E 35 b2 08 6f
        E 35 b2 08 6e
        E 35 b2 08 6d
        E 35 b2 08 6c
        E 35 b2 08 6b
        E 35 b2 08 69
        E 35 b2 08 68
        E 35 b2 08 66
        E 35 b2 08 64
        E 35 b2 08 63
        E 35 b2 08 61
        E 35 b2 08 5e
        E 35 b2 08 5c
        E 35 b2 08 5a
        E 35 b2 08 58
        E 35 b2 08 55
        E 35 b2 08 52
        E 35 b2 08 50
        E 35 b2 08 4e
        E 35 b2 08 4b
        E 35 b2 08 48
        E 35 b2 08 46
        E 35 b2 08 42
        E 35 b2 08 3f
        E 35 b2 08 3d
        E 35 b2 08 3a
        E 35 b2 08 37
        E 35 b2 08 35
        E 35 b2 08 32
        E 35 b2 08 2f
        E 35 b2 08 2c
        E 35 b2 08 29
        E 35 b2 08 26
        E 35 b2 08 24
        E 35 b2 08 22
        E 35 b2 08 1f
        E 35 b2 08 1c
        E 35 b2 08 1a
        E 35 b2 08 18
        E 35 b2 08 15
        E 35 b2 08 13
        E 35 b2 08 11
        E 35 b2 08 0f
        E 35 b2 08 0d
        E 35 b2 08 0b
        E 35 b2 08 09
        E 35 b2 08 09
        E 35 b2 08 07
        E 35 b2 08 06
        E 35 b2 08 04
        E 35 b2 08 03
        E 35 b2 08 02
        E 35 b2 08 01
        E 35 b2 08 00
        E 35 b2 08 00
        E 35 b2 08 00
        E 35 b2 08 00
        E 35 b2 08 00
        E 35 b2 08 00
        E 35 b2 08 00
        E 35 b2 08 00
        E 35 b2 08 00
        E 35 b2 08 01
        E 35 b2 08 02
        E 35 b2 08 03
        E 35 b2 08 04
        E 35 b2 08 05
        E 35 b2 08 06
        E 35 b2 08 08
        E 35 b2 08 09
        E 35 b2 08 0a
        E 35 b2 08 0c
        E 35 b2 08 0e
        E 35 b2 08 10
        E 35 b2 08 12
        E 35 b2 08 14
        E 35 b2 08 16
        E 35 b2 08 19
        E 35 b2 08 1b
        E 35 b2 08 1d
        E 35 b2 08 20
        E 35 b2 08 23
        E 35 b2 08 25
        E 35 b2 08 28
        E 35 b2 08 2b
        E 35 b2 08 2d
        E 35 b2 08 30
        E 35 b2 08 33
        E 35 b2 08 36
        E 35 b2 08 39
        E 20 b2 08 20
        E 20 b2 08 21
        E 20 b2 08 23
        E 20 b2 08 24
        E 20 b2 08 26
        E 20 b2 08 27
        E 20 b2 08 29
        E 20 b2 08 2a
        E 20 b2 08 2c
        E 20 b2 08 2d
        E 20 b2 08 2f
        E 20 b2 08 30
        E 20 b2 08 31
        E 20 b2 08 33
        E 20 b2 08 34
        E 20 b2 08 35
        E 20 b2 08 36
        E 20 b2 08 37
        E 20 b2 08 38
        E 20 b2 08 39
        E 20 b2 08 3a
        E 20 b2 08 3b
        E 20 b2 08 3c
        E 20 b2 08 3c
        E 20 b2 08 3d
        E 20 b2 08 3d
        E 20 b2 08 3e
        E 20 b2 08 3e
        E 20 b2 08 3f
        E 20 b2 08 3f
        E 20 b2 08 3f
        E 20 b2 08 3f
        E 20 b2 08 3f
        E 20 b2 08 3f
        E 20 b2 08 3f
        E 20 b2 08 3f
        E 20 b2 08 3f
        E 20 b2 08 3e
        E 20 b2 08 3e
        E 20 b2 08 3d
        E 20 b2 08 3d
        E 20 b2 08 3c
        E 20 b2 08 3b
        E 20 b2 08 3a
        E 20 b2 08 3a
        E 20 b2 08 39
        E 20 b2 08 38
        E 20 b2 08 37
        E 20 b2 08 36
        E 20 b2 08 34
        E 20 b2 08 33
        E 20 b2 08 32
        E 20 b2 08 31
        E 20 b2 08 2f
        E 20 b2 08 2e
        E 20 b2 08 2c
        E 20 b2 08 2b
        E 20 b2 08 2a
        E 20 b2 08 28
        E 20 b2 08 27
        E 20 b2 08 25
        E 20 b2 08 23
        E 20 b2 08 22
        E 20 b2 08 20
        E 20 b2 08 1f
        E 20 b2 08 1d
        E 20 b2 08 1c
        E 20 b2 08 1a
        E 20 b2 08 18
        E 20 b2 08 17
        E 20 b2 08 15
        E 20 b2 08 14
        E 20 b2 08 13
        E 20 b2 08 11
        E 20 b2 08 10
        E 20 b2 08 0e
        E 20 b2 08 0d
        E 20 b2 08 0c
        E 20 b2 08 0b
        E 20 b2 08 09
        E 20 b2 08 08
        E 20 b2 08 07
        E 20 b2 08 06
        E 20 b2 08 05
        E 20 b2 08 05
        E 20 b2 08 04
        E 20 b2 08 03
        E 20 b2 08 02
        E 20 b2 08 02
        E 20 b2 08 01
        E 20 b2 08 01
        E 20 b2 08 00
        E 20 b2 08 00
        E 20 b2 08 00
        E 20 b2 08 00
        E 20 b2 08 00
        E 20 b2 08 00
        E 20 b2 08 00
        E 20 b2 08 00
        E 20 b2 08 00
        E 20 b2 08 01
        E 20 b2 08 01
        E 20 b2 08 02
        E 20 b2 08 02
        E 20 b2 08 03
        E 20 b2 08 03
        E 20 b2 08 04
        E 20 b2 08 05
        E 20 b2 08 06
        E 20 b2 08 07
        E 20 b2 08 08
        E 20 b2 08 09
        E 20 b2 08 0a
        E 20 b2 08 0b
        E 20 b2 08 0c
        E 20 b2 08 0e
        E 20 b2 08 0f
        E 20 b2 08 10
        E 20 b2 08 12
        E 20 b2 08 13
        E 20 b2 08 15
        E 20 b2 08 16
        E 20 b2 08 18
        E 20 b2 08 19
        E 20 b2 08 1b
        E 20 b2 08 1c
        E 20 b2 08 1e
        E 20 b2 08 20
        E 40 b2 08 06
        E 40 b2 08 06
        E 40 b2 08 07
        E 40 b2 08 07
        E 40 b2 08 07
        E 40 b2 08 07
        E 40 b2 08 08
        E 40 b2 08 08
        E 40 b2 08 08
        E 40 b2 08 09
        E 40 b2 08 09
        E 40 b2 08 09
        E 40 b2 08 09
        E 40 b2 08 0a
        E 40 b2 08 0a
        E 40 b2 08 0a
        E 40 b2 08 0a
        E 40 b2 08 0b
        E 40 b2 08 0b
        E 40 b2 08 0b
        E 40 b2 08 0b
        E 40 b2 08 0b
        E 40 b2 08 0c
        E 40 b2 08 0c
        E 40 b2 08 0c
        E 40 b2 08 0c
        E 40 b2 08 0c
        E 40 b2 08 0c
        E 40 b2 08 0c
        E 40 b2 08 0c
        E 40 b2 08 0c
        E 40 b2 08 0c
        E 40 b2 08 0c
        E 40 b2 08 0c
        E 40 b2 08 0c
        E 40 b2 08 0c
        E 40 b2 08 0c
        E 40 b2 08 0c
        E 40 b2 08 0c
        E 40 b2 08 0c
        E 40 b2 08 0c
        E 40 b2 08 0c
        E 40 b2 08 0b
        E 40 b2 08 0b
        E 40 b2 08 0b
        E 40 b2 08 0b
        E 40 b2 08 0b
        E 40 b2 08 0b
        E 40 b2 08 0a
        E 40 b2 08 0a
        E 40 b2 08 0a
        E 40 b2 08 0a
        E 40 b2 08 09
        E 40 b2 08 09
        E 40 b2 08 09
        E 40 b2 08 08
        E 40 b2 08 08
        E 40 b2 08 08
        E 40 b2 08 08
        E 40 b2 08 07
        E 40 b2 08 07
        E 40 b2 08 07
        E 40 b2 08 06
        E 40 b2 08 06
        E 40 b2 08 06
        E 40 b2 08 05
        E 40 b2 08 05
        E 40 b2 08 05
        E 40 b2 08 04
        E 40 b2 08 04
        E 40 b2 08 04
        E 40 b2 08 04
        E 40 b2 08 03
        E 40 b2 08 03
        E 40 b2 08 03
        E 40 b2 08 02
        E 40 b2 08 02
        E 40 b2 08 02
        E 40 b2 08 02
        E 40 b2 08 01
        E 40 b2 08 01
        E 40 b2 08 01
        E 40 b2 08 01
        E 40 b2 08 01
        E 40 b2 08 01
        E 40 b2 08 00
        E 40 b2 08 00
        E 40 b2 08 00
        E 40 b2 08 00
        E 40 b2 08 00
        E 40 b2 08 00
        E 40 b2 08 00
        E 40 b2 08 00
        E 40 b2 08 00
        E 40 b2 08 00
        E 40 b2 08 00
        E 40 b2 08 00
        E 40 b2 08 00
        E 40 b2 08 00
        E 40 b2 08 00
        E 40 b2 08 00
        E 40 b2 08 00
        E 40 b2 08 00
        E 40 b2 08 00
        E 40 b2 08 00
        E 40 b2 08 00
        E 40 b2 08 00
        E 40 b2 08 01
        E 40 b2 08 01
        E 40 b2 08 01
        E 40 b2 08 01
        E 40 b2 08 01
        E 40 b2 08 02
        E 40 b2 08 02
        E 40 b2 08 02
        E 40 b2 08 02
        E 40 b2 08 03
        E 40 b2 08 03
        E 40 b2 08 03
        E 40 b2 08 03
        E 40 b2 08 04
        E 40 b2 08 04
        E 40 b2 08 04
        E 40 b2 08 05
        E 40 b2 08 05
        E 40 b2 08 05
        E 40 b2 08 06
        E 40 b2 08 06
        E 40 b2 08 13
        E 40 b2 08 14
        E 40 b2 08 15
        E 40 b2 08 15
        E 40 b2 08 16
        E 40 b2 08 17
        E 40 b2 08 18
        E 40 b2 08 19
        E 40 b2 08 1a
        E 40 b2 08 1b
        E 40 b2 08 1c
        E 40 b2 08 1c
        E 40 b2 08 1d
        E 40 b2 08 1e
        E 40 b2 08 1f
        E 40 b2 08 1f
        E 40 b2 08 20
        E 40 b2 08 21
        E 40 b2 08 21
        E 40 b2 08 22
        E 40 b2 08 23
        E 40 b2 08 23
        E 40 b2 08 24
        E 40 b2 08 24
        E 40 b2 08 24
        E 40 b2 08 24
        E 40 b2 08 25
        E 40 b2 08 25
        E 40 b2 08 25
        E 40 b2 08 25
        E 40 b2 08 26
        E 40 b2 08 26
        E 40 b2 08 26
        E 40 b2 08 26
        E 40 b2 08 26
        E 40 b2 08 25
        E 40 b2 08 25
        E 40 b2 08 25
        E 40 b2 08 25
        E 40 b2 08 24
        E 40 b2 08 24
        E 40 b2 08 24
        E 40 b2 08 23
        E 40 b2 08 23
        E 40 b2 08 22
        E 40 b2 08 22
        E 40 b2 08 21
        E 40 b2 08 21
        E 40 b2 08 20
        E 40 b2 08 1f
        E 40 b2 08 1e
        E 40 b2 08 1e
        E 40 b2 08 1d
        E 40 b2 08 1c
        E 40 b2 08 1b
        E 40 b2 08 1a
        E 40 b2 08 1a
        E 40 b2 08 19
        E 40 b2 08 18
        E 40 b2 08 17
        E 40 b2 08 16
        E 40 b2 08 15
        E 40 b2 08 14
        E 40 b2 08 13
        E 40 b2 08 12
        E 40 b2 08 11
        E 40 b2 08 10
        E 40 b2 08 0f
        E 40 b2 08 0e
        E 40 b2 08 0d
        E 40 b2 08 0c
        E 40 b2 08 0c
        E 40 b2 08 0b
        E 40 b2 08 0a
        E 40 b2 08 09
        E 40 b2 08 08
        E 40 b2 08 08
        E 40 b2 08 07
        E 40 b2 08 06
        E 40 b2 08 05
        E 40 b2 08 05
        E 40 b2 08 04
        E 40 b2 08 03
        E 40 b2 08 03
        E 40 b2 08 03
        E 40 b2 08 02
        E 40 b2 08 02
        E 40 b2 08 01
        E 40 b2 08 01
        E 40 b2 08 00
        E 40 b2 08 00
        E 40 b2 08 00
        E 40 b2 08 00
        E 40 b2 08 00
        E 40 b2 08 00
        E 40 b2 08 00
        E 40 b2 08 00
        E 40 b2 08 00
        E 40 b2 08 00
        E 40 b2 08 00
        E 40 b2 08 00
        E 40 b2 08 00
        E 40 b2 08 01
        E 40 b2 08 01
        E 40 b2 08 01
        E 40 b2 08 02
        E 40 b2 08 02
        E 40 b2 08 03
        E 40 b2 08 03
        E 40 b2 08 04
        E 40 b2 08 04
        E 40 b2 08 05
        E 40 b2 08 06
        E 40 b2 08 06
        E 40 b2 08 07
        E 40 b2 08 08
        E 40 b2 08 09
        E 40 b2 08 09
        E 40 b2 08 0a
        E 40 b2 08 0b
        E 40 b2 08 0c
        E 40 b2 08 0d
        E 40 b2 08 0e
        E 40 b2 08 0f
        E 40 b2 08 10
        E 40 b2 08 11
        E 40 b2 08 12
        E 40 b2 08 13
        E 35 b2 08 39
        E 35 b2 08 3c
        E 35 b2 08 3f
        E 35 b2 08 41
        E 35 b2 08 44
        E 35 b2 08 47
        E 35 b2 08 49
        E 35 b2 08 4c
        E 35 b2 08 4f
        E 35 b2 08 51
        E 35 b2 08 54
        E 35 b2 08 56
        E 35 b2 08 59
        E 35 b2 08 5b
        E 35 b2 08 5d
        E 35 b2 08 5f
        E 35 b2 08 62
        E 35 b2 08 63
        E 35 b2 08 65
        E 35 b2 08 67
        E 35 b2 08 69
        E 35 b2 08 6a
        E 35 b2 08 6c
        E 35 b2 08 6c
        E 35 b2 08 6d
        E 35 b2 08 6e
        E 35 b2 08 6f
        E 35 b2 08 70
        E 35 b2 08 71
        E 35 b2 08 71
        E 35 b2 08 72
        E 35 b2 08 72
        E 35 b2 08 72
        E 35 b2 08 72
        E 35 b2 08 72
        E 35 b2 08 71
        E 35 b2 08 71
        E 35 b2 08 70
        E 35 b2 08 6f
        E 35 b2 08 6e
        E 35 b2 08 6d
        E 35 b2 08 6c
        E 35 b2 08 6b
        E 35 b2 08 69
        E 35 b2 08 68
        E 35 b2 08 66
        E 35 b2 08 64
        E 35 b2 08 63
        E 35 b2 08 61
        E 35 b2 08 5e
        E 35 b2 08 5c
        E 35 b2 08 5a
        E 35 b2 08 58
        E 35 b2 08 55
        E 35 b2 08 52
        E 35 b2 08 50
        E 35 b2 08 4e
        E 35 b2 08 4b
        E 35 b2 08 48
        E 35 b2 08 46
        E 35 b2 08 42
        E 35 b2 08 3f
        E 35 b2 08 3d
        E 35 b2 08 3a
        E 35 b2 08 37
        E 35 b2 08 35
        E 35 b2 08 32
        E 35 b2 08 2f
        E 35 b2 08 2c
        E 35 b2 08 29
        E 35 b2 08 26
        E 35 b2 08 24
        E 35 b2 08 22
        E 35 b2 08 1f
        E 35 b2 08 1c
        E 35 b2 08 1a
        E 35 b2 08 18
        E 35 b2 08 15
        E 35 b2 08 13
        E 35 b2 08 11
        E 35 b2 08 0f
        E 35 b2 08 0d
        E 35 b2 08 0b
        E 35 b2 08 09
        E 35 b2 08 09
        E 35 b2 08 07
        E 35 b2 08 06
        E 35 b2 08 04
        E 35 b2 08 03
        E 35 b2 08 02
        E 35 b2 08 01
        E 35 b2 08 00
        E 35 b2 08 00
        E 35 b2 08 00
        E 35 b2 08 00
        E 35 b2 08 00
        E 35 b2 08 00
        E 35 b2 08 00
        E 35 b2 08 00
        E 35 b2 08 00
        E 35 b2 08 01
        E 35 b2 08 02
        E 35 b2 08 03
        E 35 b2 08 04
        E 35 b2 08 05
        E 35 b2 08 06
        E 35 b2 08 08
        E 35 b2 08 09
        E 35 b2 08 0a
        E 35 b2 08 0c
        E 35 b2 08 0e
        E 35 b2 08 10
        E 35 b2 08 12
        E 35 b2 08 14
        E 35 b2 08 16
        E 35 b2 08 19
        E 35 b2 08 1b
        E 35 b2 08 1d
        E 35 b2 08 20
        E 35 b2 08 23
        E 35 b2 08 25
        E 35 b2 08 28
        E 35 b2 08 2b
        E 35 b2 08 2d
        E 35 b2 08 30
        E 35 b2 08 33
        E 35 b2 08 36
        E 35 b2 08 39
        E 20 b2 08 20
        E 20 b2 08 21
        E 20 b2 08 23
        E 20 b2 08 24
        E 20 b2 08 26
        E 20 b2 08 27
        E 20 b2 08 29
        E 20 b2 08 2a
        E 20 b2 08 2c
        E 20 b2 08 2d
        E 20 b2 08 2f
        E 20 b2 08 30
        E 20 b2 08 31
        E 20 b2 08 33
        E 20 b2 08 34
        E 20 b2 08 35
        E 20 b2 08 36
        E 20 b2 08 37
        E 20 b2 08 38
        E 20 b2 08 39
        E 20 b2 08 3a
        E 20 b2 08 3b
        E 20 b2 08 3c
        E 20 b2 08 3c
        E 20 b2 08 3d
        E 20 b2 08 3d
        E 20 b2 08 3e
        E 20 b2 08 3e
        E 20 b2 08 3f
        E 20 b2 08 3f
        E 20 b2 08 3f
        E 20 b2 08 3f
        E 20 b2 08 3f
        E 20 b2 08 3f
        E 20 b2 08 3f
        E 20 b2 08 3f
        E 20 b2 08 3f
        E 20 b2 08 3e
        E 20 b2 08 3e
        E 20 b2 08 3d
        E 20 b2 08 3d
        E 20 b2 08 3c
        E 20 b2 08 3b
        E 20 b2 08 3a
        E 20 b2 08 3a
        E 20 b2 08 39
        E 20 b2 08 38
        E 20 b2 08 37
        E 20 b2 08 36
        E 20 b2 08 34
        E 20 b2 08 33
        E 20 b2 08 32
        E 20 b2 08 31
        E 20 b2 08 2f
        E 20 b2 08 2e
        E 20 b2 08 2c
        E 20 b2 08 2b
        E 20 b2 08 2a
        E 20 b2 08 28
        E 20 b2 08 27
        E 20 b2 08 25
        E 20 b2 08 23
        E 20 b2 08 22
        E 20 b2 08 20
        E 20 b2 08 1f
        E 20 b2 08 1d
        E 20 b2 08 1c
        E 20 b2 08 1a
        E 20 b2 08 18
        E 20 b2 08 17
        E 20 b2 08 15
        E 20 b2 08 14
        E 20 b2 08 13
        E 20 b2 08 11
        E 20 b2 08 10
        E 20 b2 08 0e
        E 20 b2 08 0d
        E 20 b2 08 0c
        E 20 b2 08 0b
        E 20 b2 08 09
        E 20 b2 08 08
        E 20 b2 08 07
        E 20 b2 08 06
        E 20 b2 08 05
        E 20 b2 08 05
        E 20 b2 08 04
        E 20 b2 08 03
        E 20 b2 08 02
        E 20 b2 08 02
        E 20 b2 08 01
        E 20 b2 08 01
        E 20 b2 08 00
        E 20 b2 08 00
        E 20 b2 08 00
        E 20 b2 08 00
        E 20 b2 08 00
        E 20 b2 08 00
        E 20 b2 08 00
        E 20 b2 08 00
        E 20 b2 08 00
        E 20 b2 08 01
        E 20 b2 08 01
        E 20 b2 08 02
        E 20 b2 08 02
        E 20 b2 08 03
        E 20 b2 08 03
        E 20 b2 08 04
        E 20 b2 08 05
        E 20 b2 08 06
        E 20 b2 08 07
        E 20 b2 08 08
        E 20 b2 08 09
        E 20 b2 08 0a
        E 20 b2 08 0b
        E 20 b2 08 0c
        E 20 b2 08 0e
        E 20 b2 08 0f
        E 20 b2 08 10
        E 20 b2 08 12
        E 20 b2 08 13
        E 20 b2 08 15
        E 20 b2 08 16
        E 20 b2 08 18
        E 20 b2 08 19
        E 20 b2 08 1b
        E 20 b2 08 1c
        E 20 b2 08 1e
        E 20 b2 08 20
        E 40 b2 08 06
        E 40 b2 08 06
        E 40 b2 08 07
        E 40 b2 08 07
        E 40 b2 08 07
        E 40 b2 08 07
        E 40 b2 08 08
        E 40 b2 08 08
        E 40 b2 08 08
        E 40 b2 08 09
        E 40 b2 08 09
        E 40 b2 08 09
        E 40 b2 08 09
        E 40 b2 08 0a
        E 40 b2 08 0a
        E 40 b2 08 0a
        E 40 b2 08 0a
        E 40 b2 08 0b
        E 40 b2 08 0b
        E 40 b2 08 0b
        E 40 b2 08 0b
        E 40 b2 08 0b
        E 40 b2 08 0c
        E 40 b2 08 0c
        E 40 b2 08 0c
        E 40 b2 08 0c
        E 40 b2 08 0c
        E 40 b2 08 0c
        E 40 b2 08 0c
        E 40 b2 08 0c
        E 40 b2 08 0c
        E 40 b2 08 0c
        E 40 b2 08 0c
        E 40 b2 08 0c
        E 40 b2 08 0c
        E 40 b2 08 0c
        E 40 b2 08 0c
        E 40 b2 08 0c
        E 40 b2 08 0c
        E 40 b2 08 0c
        E 40 b2 08 0c
        E 40 b2 08 0c
        E 40 b2 08 0b
        E 40 b2 08 0b
        E 40 b2 08 0b
        E 40 b2 08 0b
        E 40 b2 08 0b
        E 40 b2 08 0b
        E 40 b2 08 0a
        E 40 b2 08 0a
        E 40 b2 08 0a
        E 40 b2 08 0a
        E 40 b2 08 09
        E 40 b2 08 09
        E 40 b2 08 09
        E 40 b2 08 08
        E 40 b2 08 08
        E 40 b2 08 08
        E 40 b2 08 08
        E 40 b2 08 07
        E 40 b2 08 07
        E 40 b2 08 07
        E 40 b2 08 06
        E 40 b2 08 06
        E 40 b2 08 06
        E 40 b2 08 05
        E 40 b2 08 05
        E 40 b2 08 05
        E 40 b2 08 04
        E 40 b2 08 04
        E 40 b2 08 04
        E 40 b2 08 04
        E 40 b2 08 03
        E 40 b2 08 03
        E 40 b2 08 03
        E 40 b2 08 02
        E 40 b2 08 02
        E 40 b2 08 02
        E 40 b2 08 02
        E 40 b2 08 01
        E 40 b2 08 01
        E 40 b2 08 01
        E 40 b2 08 01
        E 40 b2 08 01
        E 40 b2 08 01
        E 40 b2 08 00
        E 40 b2 08 00
        E 40 b2 08 00
        E 40 b2 08 00
        E 40 b2 08 00
        E 40 b2 08 00
        E 40 b2 08 00
        E 40 b2 08 00
        E 40 b2 08 00
        E 40 b2 08 00
        E 40 b2 08 00
        E 40 b2 08 00
        E 40 b2 08 00
        E 40 b2 08 00
        E 40 b2 08 00
        E 40 b2 08 00
        E 40 b2 08 00
        E 40 b2 08 00
        E 40 b2 08 00
        E 40 b2 08 00
        E 40 b2 08 00
        E 40 b2 08 00
        E 40 b2 08 01
        E 40 b2 08 01
        E 40 b2 08 01
        E 40 b2 08 01
        E 40 b2 08 01
        E 40 b2 08 02
        E 40 b2 08 02
        E 40 b2 08 02
        E 40 b2 08 02
        E 40 b2 08 03
        E 40 b2 08 03
        E 40 b2 08 03
        E 40 b2 08 03
        E 40 b2 08 04
        E 40 b2 08 04
        E 40 b2 08 04
        E 40 b2 08 05
        E 40 b2 08 05
        E 40 b2 08 05
        E 40 b2 08 06
        E 40 b2 08 06
        E 40 b2 08 13
        E 40 b2 08 14
        E 40 b2 08 15
        E 40 b2 08 15
        E 40 b2 08 16
        E 40 b2 08 17
        E 40 b2 08 18
        E 40 b2 08 19
        E 40 b2 08 1a
        E 40 b2 08 1b
        E 40 b2 08 1c
        E 40 b2 08 1c
        E 40 b2 08 1d
        E 40 b2 08 1e
        E 40 b2 08 1f
        E 40 b2 08 1f
        E 40 b2 08 20
        E 40 b2 08 21
        E 40 b2 08 21
        E 40 b2 08 22
        E 40 b2 08 23
        E 40 b2 08 23
        E 40 b2 08 24
        E 40 b2 08 24
        E 40 b2 08 24
        E 40 b2 08 24
        E 40 b2 08 25
        E 40 b2 08 25
        E 40 b2 08 25
        E 40 b2 08 25
        E 40 b2 08 26
        E 40 b2 08 26
        E 40 b2 08 26
        E 40 b2 08 26
        E 40 b2 08 26
        E 40 b2 08 25
        E 40 b2 08 25
        E 40 b2 08 25
        E 40 b2 08 25
        E 40 b2 08 24
        E 40 b2 08 24
        E 40 b2 08 24
        E 40 b2 08 23
        E 40 b2 08 23
        E 40 b2 08 22
        E 40 b2 08 22
        E 40 b2 08 21
        E 40 b2 08 21
        E 40 b2 08 20
        E 40 b2 08 1f
        E 40 b2 08 1e
        E 40 b2 08 1e
        E 40 b2 08 1d
        E 40 b2 08 1c
        E 40 b2 08 1b
        E 40 b2 08 1a
        E 40 b2 08 1a
        E 40 b2 08 19
        E 40 b2 08 18
        E 40 b2 08 17
        E 40 b2 08 16
        E 40 b2 08 15
        E 40 b2 08 14
        E 40 b2 08 13
        E 40 b2 08 12
        E 40 b2 08 11
        E 40 b2 08 10
        E 40 b2 08 0f
        E 40 b2 08 0e
        E 40 b2 08 0d
        E 40 b2 08 0c
        E 40 b2 08 0c
        E 40 b2 08 0b
        E 40 b2 08 0a
        E 40 b2 08 09
        E 40 b2 08 08
        E 40 b2 08 08
        E 40 b2 08 07
        E 40 b2 08 06
        E 40 b2 08 05
        E 40 b2 08 05
        E 40 b2 08 04
        E 40 b2 08 03
        E 40 b2 08 03
        E 40 b2 08 03
        E 40 b2 08 02
        E 40 b2 08 02
        E 40 b2 08 01
        E 40 b2 08 01
        E 40 b2 08 00
        E 40 b2 08 00
        E 40 b2 08 00
        E 40 b2 08 00
        E 40 b2 08 00
        E 40 b2 08 00
        E 40 b2 08 00
        E 40 b2 08 00
        E 40 b2 08 00
        E 40 b2 08 00
        E 40 b2 08 00
        E 40 b2 08 00
        E 40 b2 08 00
        E 40 b2 08 01
        E 40 b2 08 01
        E 40 b2 08 01
        E 40 b2 08 02
        E 40 b2 08 02
        E 40 b2 08 03
        E 40 b2 08 03
        E 40 b2 08 04
        E 40 b2 08 04
        E 40 b2 08 05
        E 40 b2 08 06
        E 40 b2 08 06
        E 40 b2 08 07
        E 40 b2 08 08
        E 40 b2 08 09
        E 40 b2 08 09
        E 40 b2 08 0a
        E 40 b2 08 0b
        E 40 b2 08 0c
        E 40 b2 08 0d
        E 40 b2 08 0e
        E 40 b2 08 0f
        E 40 b2 08 10
        E 40 b2 08 11
        E 40 b2 08 12
        E 39 b2 08 13
        E 1 b0 7b 00
        CCINTERP 32
        CHASE_CC_TAKEOFFS 1
        GUID {946018E2-89AB-E542-AC80-5F067FDBC346}
        IGNTEMPO 0 120 4 4
        SRCCOLOR 148
        VELLANE 3 601 0
        VELLANE -1 196 0
        CFGEDITVIEW 0 0.008186 62 12 0 -1 0 0 0 0.5
        KEYSNAP 0
        TRACKSEL 252
        EVTFILTER 0 -1 -1 -1 -1 0 0 0 0 -1 -1 -1 -1 0 -1 0 -1 -1
        CFGEDIT 1 1 0 1 0 0 1 1 1 1 1 0.125 0 0 1792 1095 0 0 0 0 0 0 0 0 0 0.5 0 0 1 64
      >
    >
  >
  <TRACK {8613033F-6504-5F4D-9895-C87F023A9566}
    NAME "germ-x hand sanitizer"
    PEAKCOL 16576
    BEAT -1
    AUTOMODE 0
    VOLPAN 1 0 -1 -1 1
    MUTESOLO 0 0 0
    IPHASE 0
    PLAYOFFS 0 1
    ISBUS 0 0
    BUSCOMP 0 0 0 0 0
    SHOWINMIX 1 0.6667 0.5 1 0.5 0 -1 0
    FREEMODE 0
    SEL 0
    REC 0 0 1 0 0 0 0
    VU 2
    TRACKHEIGHT 0 1 0 0 -1 0
    INQ 0 0 0 0.5 100 0 0 100
    NCHAN 2
    FX 1
    TRACKID {8613033F-6504-5F4D-9895-C87F023A9566}
    PERF 0
    MIDIOUT -1
    MAINSEND 1 0
    <ITEM
      POSITION 0
      SNAPOFFS 0
      LENGTH 861.08022
      LOOP 1
      ALLTAKES 0
      FADEIN 1 0 0 1 0 0
      FADEOUT 1 0 0 1 0 0
      MUTE 0 0
      SEL 0
      IGUID {F6179C47-5C04-A940-9EE5-EA26F0FF8125}
      IID 16
      NAME "germ-x hand sanitizer.mid"
      VOLPAN 1 0 1 -1
      SOFFS 0 0
      PLAYRATE 1 1 0 -1 0 0.0025
      CHANMODE 0
      GUID {36297455-CAF8-1546-BB09-AAE79A0FDF6B}
      <SOURCE MIDI
        HASDATA 1 128 QN
        CCINTERP 32
        POOLEDEVTS {5D6682D3-C147-9847-8129-F7D393DA2BEB}
        E 10 b3 09 01
        E 10 b3 09 02
        E 10 b3 09 04
        E 10 b3 09 05
        E 10 b3 09 07
        E 10 b3 09 08
        E 10 b3 09 09
        E 10 b3 09 0b
        E 10 b3 09 0c
        E 10 b3 09 0e
        E 10 b3 09 0f
        E 10 b3 09 10
        E 10 b3 09 12
        E 10 b3 09 13
        E 10 b3 09 15
        E 10 b3 09 16
        E 10 b3 09 17
        E 10 b3 09 19
        E 10 b3 09 1a
        E 10 b3 09 1c
        E 10 b3 09 1d
        E 10 b3 09 1e
        E 10 b3 09 20
        E 10 b3 09 21
        E 10 b3 09 23
        E 10 b3 09 24
        E 10 b3 09 25
        E 10 b3 09 27
        E 10 b3 09 28
        E 10 b3 09 2a
        E 10 b3 09 2b
        E 10 b3 09 2c
        E 10 b3 09 2e
        E 10 b3 09 2f
        E 10 b3 09 31
        E 10 b3 09 32
        E 10 b3 09 33
        E 10 b3 09 35
        E 10 b3 09 36
        E 10 b3 09 38
        E 10 b3 09 39
        E 10 b3 09 3a
        E 10 b3 09 3c
        E 10 b3 09 3d
        E 10 b3 09 3e
        E 10 b3 09 40
        E 10 b3 09 41
        E 10 b3 09 43
        E 10 b3 09 44
        E 10 b3 09 46
        E 10 b3 09 47
        E 10 b3 09 48
        E 10 b3 09 4a
        E 10 b3 09 4b
        E 10 b3 09 4d
        E 10 b3 09 4e
        E 10 b3 09 4f
        E 10 b3 09 51
        E 10 b3 09 52
        E 10 b3 09 54
        E 10 b3 09 55
        E 10 b3 09 56
        E 10 b3 09 58
        E 10 b3 09 58
        E 10 b3 09 58
        E 10 b3 09 56
        E 10 b3 09 55
        E 10 b3 09 54
        E 10 b3 09 52
        E 10 b3 09 51
        E 10 b3 09 4f
        E 10 b3 09 4e
        E 10 b3 09 4d
        E 10 b3 09 4b
        E 10 b3 09 4a
        E 10 b3 09 48
        E 10 b3 09 47
        E 10 b3 09 46
        E 10 b3 09 44
        E 10 b3 09 43
        E 10 b3 09 41
        E 10 b3 09 40
        E 10 b3 09 3e
        E 10 b3 09 3d
        E 10 b3 09 3c
        E 10 b3 09 3a
        E 10 b3 09 39
        E 10 b3 09 38
        E 10 b3 09 36
        E 10 b3 09 35
        E 10 b3 09 33
        E 10 b3 09 32
        E 10 b3 09 31
        E 10 b3 09 2f
        E 10 b3 09 2e
        E 10 b3 09 2c
        E 10 b3 09 2b
        E 10 b3 09 2a
        E 10 b3 09 28
        E 10 b3 09 27
        E 10 b3 09 25
        E 10 b3 09 24
        E 10 b3 09 23
        E 10 b3 09 21
        E 10 b3 09 20
        E 10 b3 09 1e
        E 10 b3 09 1d
        E 10 b3 09 1c
        E 10 b3 09 1a
        E 10 b3 09 19
        E 10 b3 09 17
        E 10 b3 09 16
        E 10 b3 09 15
        E 10 b3 09 13
        E 10 b3 09 12
        E 10 b3 09 10
        E 10 b3 09 0f
        E 10 b3 09 0e
        E 10 b3 09 0c
        E 10 b3 09 0b
        E 10 b3 09 09
        E 10 b3 09 08
        E 10 b3 09 07
        E 10 b3 09 05
        E 10 b3 09 04
        E 10 b3 09 02
        E 10 b3 09 01
        E 10 b3 09 00
        E 2 b3 09 00
        E 2 b3 09 01
        E 2 b3 09 02
        E 2 b3 09 03
        E 2 b3 09 04
        E 2 b3 09 04
        E 2 b3 09 05
        E 2 b3 09 06
        E 2 b3 09 07
        E 2 b3 09 08
        E 2 b3 09 08
        E 2 b3 09 09
        E 2 b3 09 0a
        E 2 b3 09 0b
        E 2 b3 09 0c
        E 2 b3 09 0c
        E 2 b3 09 0d
        E 2 b3 09 0e
        E 2 b3 09 0f
        E 2 b3 09 10
        E 2 b3 09 10
        E 2 b3 09 11
        E 2 b3 09 12
        E 2 b3 09 13
        E 2 b3 09 14
        E 2 b3 09 14
        E 2 b3 09 15
        E 2 b3 09 16
        E 2 b3 09 17
        E 2 b3 09 18
        E 2 b3 09 18
        E 2 b3 09 19
        E 2 b3 09 1a
        E 2 b3 09 1b
        E 2 b3 09 1c
        E 2 b3 09 1c
        E 2 b3 09 1d
        E 2 b3 09 1e
        E 2 b3 09 1f
        E 2 b3 09 20
        E 2 b3 09 20
        E 2 b3 09 21
        E 2 b3 09 22
        E 2 b3 09 23
        E 2 b3 09 24
        E 2 b3 09 24
        E 2 b3 09 25
        E 2 b3 09 26
        E 2 b3 09 27
        E 2 b3 09 28
        E 2 b3 09 28
        E 2 b3 09 29
        E 2 b3 09 2a
        E 2 b3 09 2b
        E 2 b3 09 2c
        E 2 b3 09 2c
        E 2 b3 09 2d
        E 2 b3 09 2e
        E 2 b3 09 2f
        E 2 b3 09 30
        E 2 b3 09 30
        E 2 b3 09 31
        E 2 b3 09 32
        E 2 b3 09 32
        E 2 b3 09 32
        E 2 b3 09 31
        E 2 b3 09 30
        E 2 b3 09 30
        E 2 b3 09 2f
        E 2 b3 09 2e
        E 2 b3 09 2d
        E 2 b3 09 2c
        E 2 b3 09 2c
        E 2 b3 09 2b
        E 2 b3 09 2a
        E 2 b3 09 29
        E 2 b3 09 28
        E 2 b3 09 28
        E 2 b3 09 27
        E 2 b3 09 26
        E 2 b3 09 25
        E 2 b3 09 24
        E 2 b3 09 24
        E 2 b3 09 23
        E 2 b3 09 22
        E 2 b3 09 21
        E 2 b3 09 20
        E 2 b3 09 20
        E 2 b3 09 1f
        E 2 b3 09 1e
        E 2 b3 09 1d
        E 2 b3 09 1c
        E 2 b3 09 1c
        E 2 b3 09 1b
        E 2 b3 09 1a
        E 2 b3 09 19
        E 2 b3 09 18
        E 2 b3 09 18
        E 2 b3 09 17
        E 2 b3 09 16
        E 2 b3 09 15
        E 2 b3 09 14
        E 2 b3 09 14
        E 2 b3 09 13
        E 2 b3 09 12
        E 2 b3 09 11
        E 2 b3 09 10
        E 2 b3 09 10
        E 2 b3 09 0f
        E 2 b3 09 0e
        E 2 b3 09 0d
        E 2 b3 09 0c
        E 2 b3 09 0c
        E 2 b3 09 0b
        E 2 b3 09 0a
        E 2 b3 09 09
        E 2 b3 09 08
        E 2 b3 09 08
        E 2 b3 09 07
        E 2 b3 09 06
        E 2 b3 09 05
        E 2 b3 09 04
        E 2 b3 09 04
        E 2 b3 09 03
        E 2 b3 09 02
        E 2 b3 09 01
        E 2 b3 09 00
        E 2 b3 09 00
        E 6 b3 09 01
        E 6 b3 09 03
        E 6 b3 09 04
        E 6 b3 09 06
        E 6 b3 09 07
        E 6 b3 09 09
        E 6 b3 09 0b
        E 6 b3 09 0c
        E 6 b3 09 0e
        E 6 b3 09 0f
        E 6 b3 09 11
        E 6 b3 09 13
        E 6 b3 09 14
        E 6 b3 09 16
        E 6 b3 09 17
        E 6 b3 09 19
        E 6 b3 09 1b
        E 6 b3 09 1c
        E 6 b3 09 1e
        E 6 b3 09 1f
        E 6 b3 09 21
        E 6 b3 09 23
        E 6 b3 09 24
        E 6 b3 09 26
        E 6 b3 09 28
        E 6 b3 09 29
        E 6 b3 09 2b
        E 6 b3 09 2c
        E 6 b3 09 2e
        E 6 b3 09 2f
        E 6 b3 09 31
        E 6 b3 09 33
        E 6 b3 09 34
        E 6 b3 09 36
        E 6 b3 09 37
        E 6 b3 09 39
        E 6 b3 09 3b
        E 6 b3 09 3c
        E 6 b3 09 3e
        E 6 b3 09 3f
        E 6 b3 09 41
        E 6 b3 09 43
        E 6 b3 09 44
        E 6 b3 09 46
        E 6 b3 09 48
        E 6 b3 09 49
        E 6 b3 09 4b
        E 6 b3 09 4c
        E 6 b3 09 4e
        E 6 b3 09 50
        E 6 b3 09 51
        E 6 b3 09 53
        E 6 b3 09 54
        E 6 b3 09 56
        E 6 b3 09 57
        E 6 b3 09 59
        E 6 b3 09 5b
        E 6 b3 09 5c
        E 6 b3 09 5e
        E 6 b3 09 5f
        E 6 b3 09 61
        E 6 b3 09 63
        E 6 b3 09 64
        E 6 b3 09 65
        E 6 b3 09 64
        E 6 b3 09 63
        E 6 b3 09 61
        E 6 b3 09 5f
        E 6 b3 09 5e
        E 6 b3 09 5c
        E 6 b3 09 5b
        E 6 b3 09 59
        E 6 b3 09 57
        E 6 b3 09 56
        E 6 b3 09 54
        E 6 b3 09 53
        E 6 b3 09 51
        E 6 b3 09 50
        E 6 b3 09 4e
        E 6 b3 09 4c
        E 6 b3 09 4b
        E 6 b3 09 49
        E 6 b3 09 48
        E 6 b3 09 46
        E 6 b3 09 44
        E 6 b3 09 43
        E 6 b3 09 41
        E 6 b3 09 3f
        E 6 b3 09 3e
        E 6 b3 09 3c
        E 6 b3 09 3b
        E 6 b3 09 39
        E 6 b3 09 37
        E 6 b3 09 36
        E 6 b3 09 34
        E 6 b3 09 33
        E 6 b3 09 31
        E 6 b3 09 2f
        E 6 b3 09 2e
        E 6 b3 09 2c
        E 6 b3 09 2b
        E 6 b3 09 29
        E 6 b3 09 28
        E 6 b3 09 26
        E 6 b3 09 24
        E 6 b3 09 23
        E 6 b3 09 21
        E 6 b3 09 1f
        E 6 b3 09 1e
        E 6 b3 09 1c
        E 6 b3 09 1b
        E 6 b3 09 19
        E 6 b3 09 17
        E 6 b3 09 16
        E 6 b3 09 14
        E 6 b3 09 13
        E 6 b3 09 11
        E 6 b3 09 0f
        E 6 b3 09 0e
        E 6 b3 09 0c
        E 6 b3 09 0b
        E 6 b3 09 09
        E 6 b3 09 07
        E 6 b3 09 06
        E 6 b3 09 04
        E 6 b3 09 03
        E 6 b3 09 01
        E 6 b3 09 00
        E 18 b3 09 01
        E 18 b3 09 03
        E 18 b3 09 04
        E 18 b3 09 06
        E 18 b3 09 07
        E 18 b3 09 09
        E 18 b3 09 0b
        E 18 b3 09 0c
        E 18 b3 09 0e
        E 18 b3 09 0f
        E 18 b3 09 11
        E 18 b3 09 13
        E 18 b3 09 14
        E 18 b3 09 16
        E 18 b3 09 17
        E 18 b3 09 19
        E 18 b3 09 1b
        E 18 b3 09 1c
        E 18 b3 09 1e
        E 18 b3 09 1f
        E 18 b3 09 21
        E 18 b3 09 23
        E 18 b3 09 24
        E 18 b3 09 26
        E 18 b3 09 28
        E 18 b3 09 29
        E 18 b3 09 2b
        E 18 b3 09 2c
        E 18 b3 09 2e
        E 18 b3 09 2f
        E 18 b3 09 31
        E 18 b3 09 33
        E 18 b3 09 34
        E 18 b3 09 36
        E 18 b3 09 37
        E 18 b3 09 39
        E 18 b3 09 3b
        E 18 b3 09 3c
        E 18 b3 09 3e
        E 18 b3 09 3f
        E 18 b3 09 41
        E 18 b3 09 43
        E 18 b3 09 44
        E 18 b3 09 46
        E 18 b3 09 48
        E 18 b3 09 49
        E 18 b3 09 4b
        E 18 b3 09 4c
        E 18 b3 09 4e
        E 18 b3 09 50
        E 18 b3 09 51
        E 18 b3 09 53
        E 18 b3 09 54
        E 18 b3 09 56
        E 18 b3 09 57
        E 18 b3 09 59
        E 18 b3 09 5b
        E 18 b3 09 5c
        E 18 b3 09 5e
        E 18 b3 09 5f
        E 18 b3 09 61
        E 18 b3 09 63
        E 18 b3 09 64
        E 18 b3 09 65
        E 18 b3 09 64
        E 18 b3 09 63
        E 18 b3 09 61
        E 18 b3 09 5f
        E 18 b3 09 5e
        E 18 b3 09 5c
        E 18 b3 09 5b
        E 18 b3 09 59
        E 18 b3 09 57
        E 18 b3 09 56
        E 18 b3 09 54
        E 18 b3 09 53
        E 18 b3 09 51
        E 18 b3 09 50
        E 18 b3 09 4e
        E 18 b3 09 4c
        E 18 b3 09 4b
        E 18 b3 09 49
        E 18 b3 09 48
        E 18 b3 09 46
        E 18 b3 09 44
        E 18 b3 09 43
        E 18 b3 09 41
        E 18 b3 09 3f
        E 18 b3 09 3e
        E 18 b3 09 3c
        E 18 b3 09 3b
        E 18 b3 09 39
        E 18 b3 09 37
        E 18 b3 09 36
        E 18 b3 09 34
        E 18 b3 09 33
        E 18 b3 09 31
        E 18 b3 09 2f
        E 18 b3 09 2e
        E 18 b3 09 2c
        E 18 b3 09 2b
        E 18 b3 09 29
        E 18 b3 09 28
        E 18 b3 09 26
        E 18 b3 09 24
        E 18 b3 09 23
        E 18 b3 09 21
        E 18 b3 09 1f
        E 18 b3 09 1e
        E 18 b3 09 1c
        E 18 b3 09 1b
        E 18 b3 09 19
        E 18 b3 09 17
        E 18 b3 09 16
        E 18 b3 09 14
        E 18 b3 09 13
        E 18 b3 09 11
        E 18 b3 09 0f
        E 18 b3 09 0e
        E 18 b3 09 0c
        E 18 b3 09 0b
        E 18 b3 09 09
        E 18 b3 09 07
        E 18 b3 09 06
        E 18 b3 09 04
        E 18 b3 09 03
        E 18 b3 09 01
        E 18 b3 09 00
        E 4 b3 09 01
        E 4 b3 09 02
        E 4 b3 09 03
        E 4 b3 09 04
        E 4 b3 09 06
        E 4 b3 09 07
        E 4 b3 09 08
        E 4 b3 09 09
        E 4 b3 09 0a
        E 4 b3 09 0c
        E 4 b3 09 0d
        E 4 b3 09 0e
        E 4 b3 09 0f
        E 4 b3 09 10
        E 4 b3 09 12
        E 4 b3 09 13
        E 4 b3 09 14
        E 4 b3 09 15
        E 4 b3 09 16
        E 4 b3 09 18
        E 4 b3 09 19
        E 4 b3 09 1a
        E 4 b3 09 1b
        E 4 b3 09 1c
        E 4 b3 09 1e
        E 4 b3 09 1f
        E 4 b3 09 20
        E 4 b3 09 21
        E 4 b3 09 22
        E 4 b3 09 24
        E 4 b3 09 25
        E 4 b3 09 26
        E 4 b3 09 27
        E 4 b3 09 28
        E 4 b3 09 2a
        E 4 b3 09 2b
        E 4 b3 09 2c
        E 4 b3 09 2d
        E 4 b3 09 2e
        E 4 b3 09 30
        E 4 b3 09 31
        E 4 b3 09 32
        E 4 b3 09 33
        E 4 b3 09 34
        E 4 b3 09 36
        E 4 b3 09 37
        E 4 b3 09 38
        E 4 b3 09 39
        E 4 b3 09 3a
        E 4 b3 09 3c
        E 4 b3 09 3d
        E 4 b3 09 3e
        E 4 b3 09 3f
        E 4 b3 09 40
        E 4 b3 09 42
        E 4 b3 09 43
        E 4 b3 09 44
        E 4 b3 09 45
        E 4 b3 09 46
        E 4 b3 09 48
        E 4 b3 09 49
        E 4 b3 09 4a
        E 4 b3 09 4b
        E 4 b3 09 4c
        E 4 b3 09 4b
        E 4 b3 09 4a
        E 4 b3 09 49
        E 4 b3 09 48
        E 4 b3 09 46
        E 4 b3 09 45
        E 4 b3 09 44
        E 4 b3 09 43
        E 4 b3 09 42
        E 4 b3 09 40
        E 4 b3 09 3f
        E 4 b3 09 3e
        E 4 b3 09 3d
        E 4 b3 09 3c
        E 4 b3 09 3a
        E 4 b3 09 39
        E 4 b3 09 38
        E 4 b3 09 37
        E 4 b3 09 36
        E 4 b3 09 34
        E 4 b3 09 33
        E 4 b3 09 32
        E 4 b3 09 31
        E 4 b3 09 30
        E 4 b3 09 2e
        E 4 b3 09 2d
        E 4 b3 09 2c
        E 4 b3 09 2b
        E 4 b3 09 2a
        E 4 b3 09 28
        E 4 b3 09 27
        E 4 b3 09 26
        E 4 b3 09 25
        E 4 b3 09 24
        E 4 b3 09 22
        E 4 b3 09 21
        E 4 b3 09 20
        E 4 b3 09 1f
        E 4 b3 09 1e
        E 4 b3 09 1c
        E 4 b3 09 1b
        E 4 b3 09 1a
        E 4 b3 09 19
        E 4 b3 09 18
        E 4 b3 09 16
        E 4 b3 09 15
        E 4 b3 09 14
        E 4 b3 09 13
        E 4 b3 09 12
        E 4 b3 09 10
        E 4 b3 09 0f
        E 4 b3 09 0e
        E 4 b3 09 0d
        E 4 b3 09 0c
        E 4 b3 09 0a
        E 4 b3 09 09
        E 4 b3 09 08
        E 4 b3 09 07
        E 4 b3 09 06
        E 4 b3 09 04
        E 4 b3 09 03
        E 4 b3 09 02
        E 4 b3 09 01
        E 4 b3 09 00
        E 18 b3 09 00
        E 18 b3 09 01
        E 18 b3 09 02
        E 18 b3 09 03
        E 18 b3 09 04
        E 18 b3 09 04
        E 18 b3 09 05
        E 18 b3 09 06
        E 18 b3 09 07
        E 18 b3 09 08
        E 18 b3 09 08
        E 18 b3 09 09
        E 18 b3 09 0a
        E 18 b3 09 0b
        E 18 b3 09 0c
        E 18 b3 09 0c
        E 18 b3 09 0d
        E 18 b3 09 0e
        E 18 b3 09 0f
        E 18 b3 09 10
        E 18 b3 09 10
        E 18 b3 09 11
        E 18 b3 09 12
        E 18 b3 09 13
        E 18 b3 09 14
        E 18 b3 09 14
        E 18 b3 09 15
        E 18 b3 09 16
        E 18 b3 09 17
        E 18 b3 09 18
        E 18 b3 09 18
        E 18 b3 09 19
        E 18 b3 09 1a
        E 18 b3 09 1b
        E 18 b3 09 1c
        E 18 b3 09 1c
        E 18 b3 09 1d
        E 18 b3 09 1e
        E 18 b3 09 1f
        E 18 b3 09 20
        E 18 b3 09 20
        E 18 b3 09 21
        E 18 b3 09 22
        E 18 b3 09 23
        E 18 b3 09 24
        E 18 b3 09 24
        E 18 b3 09 25
        E 18 b3 09 26
        E 18 b3 09 27
        E 18 b3 09 28
        E 18 b3 09 28
        E 18 b3 09 29
        E 18 b3 09 2a
        E 18 b3 09 2b
        E 18 b3 09 2c
        E 18 b3 09 2c
        E 18 b3 09 2d
        E 18 b3 09 2e
        E 18 b3 09 2f
        E 18 b3 09 30
        E 18 b3 09 30
        E 18 b3 09 31
        E 18 b3 09 32
        E 18 b3 09 32
        E 18 b3 09 32
        E 18 b3 09 31
        E 18 b3 09 30
        E 18 b3 09 30
        E 18 b3 09 2f
        E 18 b3 09 2e
        E 18 b3 09 2d
        E 18 b3 09 2c
        E 18 b3 09 2c
        E 18 b3 09 2b
        E 18 b3 09 2a
        E 18 b3 09 29
        E 18 b3 09 28
        E 18 b3 09 28
        E 18 b3 09 27
        E 18 b3 09 26
        E 18 b3 09 25
        E 18 b3 09 24
        E 18 b3 09 24
        E 18 b3 09 23
        E 18 b3 09 22
        E 18 b3 09 21
        E 18 b3 09 20
        E 18 b3 09 20
        E 18 b3 09 1f
        E 18 b3 09 1e
        E 18 b3 09 1d
        E 18 b3 09 1c
        E 18 b3 09 1c
        E 18 b3 09 1b
        E 18 b3 09 1a
        E 18 b3 09 19
        E 18 b3 09 18
        E 18 b3 09 18
        E 18 b3 09 17
        E 18 b3 09 16
        E 18 b3 09 15
        E 18 b3 09 14
        E 18 b3 09 14
        E 18 b3 09 13
        E 18 b3 09 12
        E 18 b3 09 11
        E 18 b3 09 10
        E 18 b3 09 10
        E 18 b3 09 0f
        E 18 b3 09 0e
        E 18 b3 09 0d
        E 18 b3 09 0c
        E 18 b3 09 0c
        E 18 b3 09 0b
        E 18 b3 09 0a
        E 18 b3 09 09
        E 18 b3 09 08
        E 18 b3 09 08
        E 18 b3 09 07
        E 18 b3 09 06
        E 18 b3 09 05
        E 18 b3 09 04
        E 18 b3 09 04
        E 18 b3 09 03
        E 18 b3 09 02
        E 18 b3 09 01
        E 18 b3 09 00
        E 18 b3 09 00
        E 10 b3 09 01
        E 10 b3 09 02
        E 10 b3 09 04
        E 10 b3 09 05
        E 10 b3 09 07
        E 10 b3 09 08
        E 10 b3 09 09
        E 10 b3 09 0b
        E 10 b3 09 0c
        E 10 b3 09 0e
        E 10 b3 09 0f
        E 10 b3 09 10
        E 10 b3 09 12
        E 10 b3 09 13
        E 10 b3 09 15
        E 10 b3 09 16
        E 10 b3 09 17
        E 10 b3 09 19
        E 10 b3 09 1a
        E 10 b3 09 1c
        E 10 b3 09 1d
        E 10 b3 09 1e
        E 10 b3 09 20
        E 10 b3 09 21
        E 10 b3 09 23
        E 10 b3 09 24
        E 10 b3 09 25
        E 10 b3 09 27
        E 10 b3 09 28
        E 10 b3 09 2a
        E 10 b3 09 2b
        E 10 b3 09 2c
        E 10 b3 09 2e
        E 10 b3 09 2f
        E 10 b3 09 31
        E 10 b3 09 32
        E 10 b3 09 33
        E 10 b3 09 35
        E 10 b3 09 36
        E 10 b3 09 38
        E 10 b3 09 39
        E 10 b3 09 3a
        E 10 b3 09 3c
        E 10 b3 09 3d
        E 10 b3 09 3e
        E 10 b3 09 40
        E 10 b3 09 41
        E 10 b3 09 43
        E 10 b3 09 44
        E 10 b3 09 46
        E 10 b3 09 47
        E 10 b3 09 48
        E 10 b3 09 4a
        E 10 b3 09 4b
        E 10 b3 09 4d
        E 10 b3 09 4e
        E 10 b3 09 4f
        E 10 b3 09 51
        E 10 b3 09 52
        E 10 b3 09 54
        E 10 b3 09 55
        E 10 b3 09 56
        E 10 b3 09 58
        E 10 b3 09 58
        E 10 b3 09 58
        E 10 b3 09 56
        E 10 b3 09 55
        E 10 b3 09 54
        E 10 b3 09 52
        E 10 b3 09 51
        E 10 b3 09 4f
        E 10 b3 09 4e
        E 10 b3 09 4d
        E 10 b3 09 4b
        E 10 b3 09 4a
        E 10 b3 09 48
        E 10 b3 09 47
        E 10 b3 09 46
        E 10 b3 09 44
        E 10 b3 09 43
        E 10 b3 09 41
        E 10 b3 09 40
        E 10 b3 09 3e
        E 10 b3 09 3d
        E 10 b3 09 3c
        E 10 b3 09 3a
        E 10 b3 09 39
        E 10 b3 09 38
        E 10 b3 09 36
        E 10 b3 09 35
        E 10 b3 09 33
        E 10 b3 09 32
        E 10 b3 09 31
        E 10 b3 09 2f
        E 10 b3 09 2e
        E 10 b3 09 2c
        E 10 b3 09 2b
        E 10 b3 09 2a
        E 10 b3 09 28
        E 10 b3 09 27
        E 10 b3 09 25
        E 10 b3 09 24
        E 10 b3 09 23
        E 10 b3 09 21
        E 10 b3 09 20
        E 10 b3 09 1e
        E 10 b3 09 1d
        E 10 b3 09 1c
        E 10 b3 09 1a
        E 10 b3 09 19
        E 10 b3 09 17
        E 10 b3 09 16
        E 10 b3 09 15
        E 10 b3 09 13
        E 10 b3 09 12
        E 10 b3 09 10
        E 10 b3 09 0f
        E 10 b3 09 0e
        E 10 b3 09 0c
        E 10 b3 09 0b
        E 10 b3 09 09
        E 10 b3 09 08
        E 10 b3 09 07
        E 10 b3 09 05
        E 10 b3 09 04
        E 10 b3 09 02
        E 10 b3 09 01
        E 10 b3 09 00
        E 2 b3 09 00
        E 2 b3 09 01
        E 2 b3 09 02
        E 2 b3 09 03
        E 2 b3 09 04
        E 2 b3 09 04
        E 2 b3 09 05
        E 2 b3 09 06
        E 2 b3 09 07
        E 2 b3 09 08
        E 2 b3 09 08
        E 2 b3 09 09
        E 2 b3 09 0a
        E 2 b3 09 0b
        E 2 b3 09 0c
        E 2 b3 09 0c
        E 2 b3 09 0d
        E 2 b3 09 0e
        E 2 b3 09 0f
        E 2 b3 09 10
        E 2 b3 09 10
        E 2 b3 09 11
        E 2 b3 09 12
        E 2 b3 09 13
        E 2 b3 09 14
        E 2 b3 09 14
        E 2 b3 09 15
        E 2 b3 09 16
        E 2 b3 09 17
        E 2 b3 09 18
        E 2 b3 09 18
        E 2 b3 09 19
        E 2 b3 09 1a
        E 2 b3 09 1b
        E 2 b3 09 1c
        E 2 b3 09 1c
        E 2 b3 09 1d
        E 2 b3 09 1e
        E 2 b3 09 1f
        E 2 b3 09 20
        E 2 b3 09 20
        E 2 b3 09 21
        E 2 b3 09 22
        E 2 b3 09 23
        E 2 b3 09 24
        E 2 b3 09 24
        E 2 b3 09 25
        E 2 b3 09 26
        E 2 b3 09 27
        E 2 b3 09 28
        E 2 b3 09 28
        E 2 b3 09 29
        E 2 b3 09 2a
        E 2 b3 09 2b
        E 2 b3 09 2c
        E 2 b3 09 2c
        E 2 b3 09 2d
        E 2 b3 09 2e
        E 2 b3 09 2f
        E 2 b3 09 30
        E 2 b3 09 30
        E 2 b3 09 31
        E 2 b3 09 32
        E 2 b3 09 32
        E 2 b3 09 32
        E 2 b3 09 31
        E 2 b3 09 30
        E 2 b3 09 30
        E 2 b3 09 2f
        E 2 b3 09 2e
        E 2 b3 09 2d
        E 2 b3 09 2c
        E 2 b3 09 2c
        E 2 b3 09 2b
        E 2 b3 09 2a
        E 2 b3 09 29
        E 2 b3 09 28
        E 2 b3 09 28
        E 2 b3 09 27
        E 2 b3 09 26
        E 2 b3 09 25
        E 2 b3 09 24
        E 2 b3 09 24
        E 2 b3 09 23
        E 2 b3 09 22
        E 2 b3 09 21
        E 2 b3 09 20
        E 2 b3 09 20
        E 2 b3 09 1f
        E 2 b3 09 1e
        E 2 b3 09 1d
        E 2 b3 09 1c
        E 2 b3 09 1c
        E 2 b3 09 1b
        E 2 b3 09 1a
        E 2 b3 09 19
        E 2 b3 09 18
        E 2 b3 09 18
        E 2 b3 09 17
        E 2 b3 09 16
        E 2 b3 09 15
        E 2 b3 09 14
        E 2 b3 09 14
        E 2 b3 09 13
        E 2 b3 09 12
        E 2 b3 09 11
        E 2 b3 09 10
        E 2 b3 09 10
        E 2 b3 09 0f
        E 2 b3 09 0e
        E 2 b3 09 0d
        E 2 b3 09 0c
        E 2 b3 09 0c
        E 2 b3 09 0b
        E 2 b3 09 0a
        E 2 b3 09 09
        E 2 b3 09 08
        E 2 b3 09 08
        E 2 b3 09 07
        E 2 b3 09 06
        E 2 b3 09 05
        E 2 b3 09 04
        E 2 b3 09 04
        E 2 b3 09 03
        E 2 b3 09 02
        E 2 b3 09 01
        E 2 b3 09 00
        E 2 b3 09 00
        E 6 b3 09 01
        E 6 b3 09 03
        E 6 b3 09 04
        E 6 b3 09 06
        E 6 b3 09 07
        E 6 b3 09 09
        E 6 b3 09 0b
        E 6 b3 09 0c
        E 6 b3 09 0e
        E 6 b3 09 0f
        E 6 b3 09 11
        E 6 b3 09 13
        E 6 b3 09 14
        E 6 b3 09 16
        E 6 b3 09 17
        E 6 b3 09 19
        E 6 b3 09 1b
        E 6 b3 09 1c
        E 6 b3 09 1e
        E 6 b3 09 1f
        E 6 b3 09 21
        E 6 b3 09 23
        E 6 b3 09 24
        E 6 b3 09 26
        E 6 b3 09 28
        E 6 b3 09 29
        E 6 b3 09 2b
        E 6 b3 09 2c
        E 6 b3 09 2e
        E 6 b3 09 2f
        E 6 b3 09 31
        E 6 b3 09 33
        E 6 b3 09 34
        E 6 b3 09 36
        E 6 b3 09 37
        E 6 b3 09 39
        E 6 b3 09 3b
        E 6 b3 09 3c
        E 6 b3 09 3e
        E 6 b3 09 3f
        E 6 b3 09 41
        E 6 b3 09 43
        E 6 b3 09 44
        E 6 b3 09 46
        E 6 b3 09 48
        E 6 b3 09 49
        E 6 b3 09 4b
        E 6 b3 09 4c
        E 6 b3 09 4e
        E 6 b3 09 50
        E 6 b3 09 51
        E 6 b3 09 53
        E 6 b3 09 54
        E 6 b3 09 56
        E 6 b3 09 57
        E 6 b3 09 59
        E 6 b3 09 5b
        E 6 b3 09 5c
        E 6 b3 09 5e
        E 6 b3 09 5f
        E 6 b3 09 61
        E 6 b3 09 63
        E 6 b3 09 64
        E 6 b3 09 65
        E 6 b3 09 64
        E 6 b3 09 63
        E 6 b3 09 61
        E 6 b3 09 5f
        E 6 b3 09 5e
        E 6 b3 09 5c
        E 6 b3 09 5b
        E 6 b3 09 59
        E 6 b3 09 57
        E 6 b3 09 56
        E 6 b3 09 54
        E 6 b3 09 53
        E 6 b3 09 51
        E 6 b3 09 50
        E 6 b3 09 4e
        E 6 b3 09 4c
        E 6 b3 09 4b
        E 6 b3 09 49
        E 6 b3 09 48
        E 6 b3 09 46
        E 6 b3 09 44
        E 6 b3 09 43
        E 6 b3 09 41
        E 6 b3 09 3f
        E 6 b3 09 3e
        E 6 b3 09 3c
        E 6 b3 09 3b
        E 6 b3 09 39
        E 6 b3 09 37
        E 6 b3 09 36
        E 6 b3 09 34
        E 6 b3 09 33
        E 6 b3 09 31
        E 6 b3 09 2f
        E 6 b3 09 2e
        E 6 b3 09 2c
        E 6 b3 09 2b
        E 6 b3 09 29
        E 6 b3 09 28
        E 6 b3 09 26
        E 6 b3 09 24
        E 6 b3 09 23
        E 6 b3 09 21
        E 6 b3 09 1f
        E 6 b3 09 1e
        E 6 b3 09 1c
        E 6 b3 09 1b
        E 6 b3 09 19
        E 6 b3 09 17
        E 6 b3 09 16
        E 6 b3 09 14
        E 6 b3 09 13
        E 6 b3 09 11
        E 6 b3 09 0f
        E 6 b3 09 0e
        E 6 b3 09 0c
        E 6 b3 09 0b
        E 6 b3 09 09
        E 6 b3 09 07
        E 6 b3 09 06
        E 6 b3 09 04
        E 6 b3 09 03
        E 6 b3 09 01
        E 6 b3 09 00
        E 70 b3 09 0b
        E 70 b3 09 26
        E 70 b3 09 19
        E 70 b3 09 04
        E 70 b3 09 24
        E 70 b3 09 20
        E 70 b3 09 04
        E 70 b3 09 04
        E 70 b3 09 18
        E 70 b3 09 30
        E 70 b3 09 28
        E 70 b3 09 2c
        E 70 b3 09 1f
        E 70 b3 09 05
        E 70 b3 09 09
        E 70 b3 09 22
        E 70 b3 09 1c
        E 70 b3 09 0e
        E 70 b3 09 0a
        E 70 b3 09 0d
        E 70 b3 09 27
        E 70 b3 09 17
        E 70 b3 09 0c
        E 70 b3 09 1d
        E 70 b3 09 32
        E 70 b3 09 00
        E 70 b3 09 06
        E 70 b3 09 14
        E 70 b3 09 11
        E 70 b3 09 29
        E 70 b3 09 0a
        E 70 b3 09 03
        E 70 b3 09 08
        E 70 b3 09 08
        E 70 b3 09 2e
        E 70 b3 09 0c
        E 70 b3 09 00
        E 70 b3 09 25
        E 70 b3 09 11
        E 70 b3 09 0a
        E 70 b3 09 14
        E 70 b3 09 0d
        E 70 b3 09 2b
        E 70 b3 09 2a
        E 70 b3 09 32
        E 70 b3 09 2a
        E 70 b3 09 16
        E 70 b3 09 2f
        E 70 b3 09 24
        E 70 b3 09 06
        E 70 b3 09 16
        E 70 b3 09 1b
        E 70 b3 09 30
        E 70 b3 09 26
        E 70 b3 09 1b
        E 70 b3 09 1c
        E 70 b3 09 02
        E 70 b3 09 05
        E 70 b3 09 2e
        E 70 b3 09 28
        E 70 b3 09 15
        E 70 b3 09 10
        E 70 b3 09 06
        E 70 b3 09 16
        E 70 b3 09 0f
        E 70 b3 09 0c
        E 70 b3 09 13
        E 70 b3 09 1a
        E 70 b3 09 1e
        E 70 b3 09 20
        E 70 b3 09 08
        E 70 b3 09 1e
        E 70 b3 09 2d
        E 70 b3 09 1a
        E 70 b3 09 1d
        E 70 b3 09 01
        E 70 b3 09 03
        E 70 b3 09 32
        E 70 b3 09 21
        E 70 b3 09 09
        E 70 b3 09 2e
        E 70 b3 09 10
        E 70 b3 09 13
        E 70 b3 09 18
        E 70 b3 09 14
        E 70 b3 09 22
        E 70 b3 09 29
        E 70 b3 09 0e
        E 70 b3 09 1c
        E 70 b3 09 0b
        E 70 b3 09 2d
        E 70 b3 09 2a
        E 70 b3 09 17
        E 70 b3 09 12
        E 70 b3 09 28
        E 70 b3 09 12
        E 70 b3 09 23
        E 70 b3 09 07
        E 70 b3 09 00
        E 70 b3 09 10
        E 70 b3 09 19
        E 70 b3 09 2b
        E 70 b3 09 27
        E 70 b3 09 01
        E 70 b3 09 2c
        E 70 b3 09 25
        E 70 b3 09 02
        E 70 b3 09 0f
        E 70 b3 09 1e
        E 70 b3 09 26
        E 70 b3 09 30
        E 70 b3 09 1f
        E 70 b3 09 15
        E 70 b3 09 0e
        E 70 b3 09 23
        E 70 b3 09 24
        E 70 b3 09 2c
        E 70 b3 09 31
        E 70 b3 09 18
        E 70 b3 09 20
        E 70 b3 09 22
        E 70 b3 09 1a
        E 70 b3 09 2f
        E 70 b3 09 07
        E 70 b3 09 12
        E 70 b3 09 21
        E 39 b3 09 13
        E 39 b3 09 43
        E 39 b3 09 2c
        E 39 b3 09 07
        E 39 b3 09 3e
        E 39 b3 09 38
        E 39 b3 09 08
        E 39 b3 09 07
        E 39 b3 09 2a
        E 39 b3 09 54
        E 39 b3 09 46
        E 39 b3 09 4d
        E 39 b3 09 37
        E 39 b3 09 09
        E 39 b3 09 10
        E 39 b3 09 3c
        E 39 b3 09 31
        E 39 b3 09 19
        E 39 b3 09 11
        E 39 b3 09 17
        E 39 b3 09 45
        E 39 b3 09 29
        E 39 b3 09 15
        E 39 b3 09 33
        E 39 b3 09 58
        E 39 b3 09 00
        E 39 b3 09 0b
        E 39 b3 09 24
        E 39 b3 09 1e
        E 39 b3 09 48
        E 39 b3 09 12
        E 39 b3 09 05
        E 39 b3 09 0e
        E 39 b3 09 0f
        E 39 b3 09 50
        E 39 b3 09 16
        E 39 b3 09 00
        E 39 b3 09 41
        E 39 b3 09 1e
        E 39 b3 09 12
        E 39 b3 09 23
        E 39 b3 09 17
        E 39 b3 09 4b
        E 39 b3 09 4a
        E 39 b3 09 58
        E 39 b3 09 4a
        E 39 b3 09 26
        E 39 b3 09 52
        E 39 b3 09 3f
        E 39 b3 09 0a
        E 39 b3 09 27
        E 39 b3 09 2f
        E 39 b3 09 54
        E 39 b3 09 43
        E 39 b3 09 30
        E 39 b3 09 31
        E 39 b3 09 04
        E 39 b3 09 09
        E 39 b3 09 51
        E 39 b3 09 47
        E 39 b3 09 25
        E 39 b3 09 1c
        E 39 b3 09 0b
        E 39 b3 09 27
        E 39 b3 09 1a
        E 39 b3 09 15
        E 39 b3 09 21
        E 39 b3 09 2e
        E 39 b3 09 35
        E 39 b3 09 39
        E 39 b3 09 0e
        E 39 b3 09 35
        E 39 b3 09 4f
        E 39 b3 09 2d
        E 39 b3 09 33
        E 39 b3 09 02
        E 39 b3 09 06
        E 39 b3 09 57
        E 39 b3 09 3a
        E 39 b3 09 10
        E 39 b3 09 51
        E 39 b3 09 1c
        E 39 b3 09 22
        E 39 b3 09 2b
        E 39 b3 09 23
        E 39 b3 09 3b
        E 39 b3 09 48
        E 39 b3 09 19
        E 39 b3 09 32
        E 39 b3 09 14
        E 39 b3 09 4f
        E 39 b3 09 49
        E 39 b3 09 28
        E 39 b3 09 20
        E 39 b3 09 46
        E 39 b3 09 20
        E 39 b3 09 3e
        E 39 b3 09 0c
        E 39 b3 09 01
        E 39 b3 09 1d
        E 39 b3 09 2c
        E 39 b3 09 4c
        E 39 b3 09 44
        E 39 b3 09 02
        E 39 b3 09 4d
        E 39 b3 09 41
        E 39 b3 09 04
        E 39 b3 09 1b
        E 39 b3 09 34
        E 39 b3 09 42
        E 39 b3 09 55
        E 39 b3 09 36
        E 39 b3 09 25
        E 39 b3 09 18
        E 39 b3 09 3d
        E 39 b3 09 40
        E 39 b3 09 4e
        E 39 b3 09 56
        E 39 b3 09 2a
        E 39 b3 09 38
        E 39 b3 09 3c
        E 39 b3 09 2e
        E 39 b3 09 53
        E 39 b3 09 0d
        E 39 b3 09 1f
        E 39 b3 09 3a
        E 7 b3 09 0b
        E 7 b3 09 26
        E 7 b3 09 19
        E 7 b3 09 04
        E 7 b3 09 24
        E 7 b3 09 20
        E 7 b3 09 04
        E 7 b3 09 04
        E 7 b3 09 18
        E 7 b3 09 30
        E 7 b3 09 28
        E 7 b3 09 2c
        E 7 b3 09 1f
        E 7 b3 09 05
        E 7 b3 09 09
        E 7 b3 09 22
        E 7 b3 09 1c
        E 7 b3 09 0e
        E 7 b3 09 0a
        E 7 b3 09 0d
        E 7 b3 09 27
        E 7 b3 09 17
        E 7 b3 09 0c
        E 7 b3 09 1d
        E 7 b3 09 32
        E 7 b3 09 00
        E 7 b3 09 06
        E 7 b3 09 14
        E 7 b3 09 11
        E 7 b3 09 29
        E 7 b3 09 0a
        E 7 b3 09 03
        E 7 b3 09 08
        E 7 b3 09 08
        E 7 b3 09 2e
        E 7 b3 09 0c
        E 7 b3 09 00
        E 7 b3 09 25
        E 7 b3 09 11
        E 7 b3 09 0a
        E 7 b3 09 14
        E 7 b3 09 0d
        E 7 b3 09 2b
        E 7 b3 09 2a
        E 7 b3 09 32
        E 7 b3 09 2a
        E 7 b3 09 16
        E 7 b3 09 2f
        E 7 b3 09 24
        E 7 b3 09 06
        E 7 b3 09 16
        E 7 b3 09 1b
        E 7 b3 09 30
        E 7 b3 09 26
        E 7 b3 09 1b
        E 7 b3 09 1c
        E 7 b3 09 02
        E 7 b3 09 05
        E 7 b3 09 2e
        E 7 b3 09 28
        E 7 b3 09 15
        E 7 b3 09 10
        E 7 b3 09 06
        E 7 b3 09 16
        E 7 b3 09 0f
        E 7 b3 09 0c
        E 7 b3 09 13
        E 7 b3 09 1a
        E 7 b3 09 1e
        E 7 b3 09 20
        E 7 b3 09 08
        E 7 b3 09 1e
        E 7 b3 09 2d
        E 7 b3 09 1a
        E 7 b3 09 1d
        E 7 b3 09 01
        E 7 b3 09 03
        E 7 b3 09 32
        E 7 b3 09 21
        E 7 b3 09 09
        E 7 b3 09 2e
        E 7 b3 09 10
        E 7 b3 09 13
        E 7 b3 09 18
        E 7 b3 09 14
        E 7 b3 09 22
        E 7 b3 09 29
        E 7 b3 09 0e
        E 7 b3 09 1c
        E 7 b3 09 0b
        E 7 b3 09 2d
        E 7 b3 09 2a
        E 7 b3 09 17
        E 7 b3 09 12
        E 7 b3 09 28
        E 7 b3 09 12
        E 7 b3 09 23
        E 7 b3 09 07
        E 7 b3 09 00
        E 7 b3 09 10
        E 7 b3 09 19
        E 7 b3 09 2b
        E 7 b3 09 27
        E 7 b3 09 01
        E 7 b3 09 2c
        E 7 b3 09 25
        E 7 b3 09 02
        E 7 b3 09 0f
        E 7 b3 09 1e
        E 7 b3 09 26
        E 7 b3 09 30
        E 7 b3 09 1f
        E 7 b3 09 15
        E 7 b3 09 0e
        E 7 b3 09 23
        E 7 b3 09 24
        E 7 b3 09 2c
        E 7 b3 09 31
        E 7 b3 09 18
        E 7 b3 09 20
        E 7 b3 09 22
        E 7 b3 09 1a
        E 7 b3 09 2f
        E 7 b3 09 07
        E 7 b3 09 12
        E 7 b3 09 21
        E 23 b3 09 16
        E 23 b3 09 4c
        E 23 b3 09 32
        E 23 b3 09 07
        E 23 b3 09 48
        E 23 b3 09 3f
        E 23 b3 09 09
        E 23 b3 09 08
        E 23 b3 09 30
        E 23 b3 09 5f
        E 23 b3 09 50
        E 23 b3 09 58
        E 23 b3 09 3f
        E 23 b3 09 0b
        E 23 b3 09 13
        E 23 b3 09 44
        E 23 b3 09 37
        E 23 b3 09 1c
        E 23 b3 09 14
        E 23 b3 09 1b
        E 23 b3 09 4f
        E 23 b3 09 2f
        E 23 b3 09 17
        E 23 b3 09 3a
        E 23 b3 09 64
        E 23 b3 09 00
        E 23 b3 09 0c
        E 23 b3 09 29
        E 23 b3 09 22
        E 23 b3 09 53
        E 23 b3 09 15
        E 23 b3 09 06
        E 23 b3 09 0f
        E 23 b3 09 11
        E 23 b3 09 5b
        E 23 b3 09 19
        E 23 b3 09 00
        E 23 b3 09 4b
        E 23 b3 09 23
        E 23 b3 09 14
        E 23 b3 09 28
        E 23 b3 09 1a
        E 23 b3 09 56
        E 23 b3 09 55
        E 23 b3 09 65
        E 23 b3 09 54
        E 23 b3 09 2b
        E 23 b3 09 5e
        E 23 b3 09 48
        E 23 b3 09 0b
        E 23 b3 09 2c
        E 23 b3 09 36
        E 23 b3 09 60
        E 23 b3 09 4d
        E 23 b3 09 37
        E 23 b3 09 38
        E 23 b3 09 04
        E 23 b3 09 0a
        E 23 b3 09 5d
        E 23 b3 09 51
        E 23 b3 09 2b
        E 23 b3 09 1f
        E 23 b3 09 0d
        E 23 b3 09 2d
        E 23 b3 09 1e
        E 23 b3 09 18
        E 23 b3 09 26
        E 23 b3 09 34
        E 23 b3 09 3d
        E 23 b3 09 41
        E 23 b3 09 10
        E 23 b3 09 3c
        E 23 b3 09 5a
        E 23 b3 09 33
        E 23 b3 09 3b
        E 23 b3 09 02
        E 23 b3 09 07
        E 23 b3 09 63
        E 23 b3 09 42
        E 23 b3 09 12
        E 23 b3 09 5c
        E 23 b3 09 20
        E 23 b3 09 27
        E 23 b3 09 31
        E 23 b3 09 28
        E 23 b3 09 44
        E 23 b3 09 52
        E 23 b3 09 1d
        E 23 b3 09 39
        E 23 b3 09 17
        E 23 b3 09 5b
        E 23 b3 09 54
        E 23 b3 09 2e
        E 23 b3 09 24
        E 23 b3 09 50
        E 23 b3 09 25
        E 23 b3 09 47
        E 23 b3 09 0e
        E 23 b3 09 01
        E 23 b3 09 21
        E 23 b3 09 33
        E 23 b3 09 57
        E 23 b3 09 4e
        E 23 b3 09 03
        E 23 b3 09 57
        E 23 b3 09 4a
        E 23 b3 09 05
        E 23 b3 09 1f
        E 23 b3 09 3b
        E 23 b3 09 4c
        E 23 b3 09 61
        E 23 b3 09 3e
        E 23 b3 09 2a
        E 23 b3 09 1b
        E 23 b3 09 46
        E 23 b3 09 49
        E 23 b3 09 59
        E 23 b3 09 63
        E 23 b3 09 2f
        E 23 b3 09 40
        E 23 b3 09 45
        E 23 b3 09 35
        E 23 b3 09 5f
        E 23 b3 09 0f
        E 23 b3 09 24
        E 23 b3 09 43
        E 70 b3 09 16
        E 70 b3 09 4c
        E 70 b3 09 32
        E 70 b3 09 07
        E 70 b3 09 48
        E 70 b3 09 3f
        E 70 b3 09 09
        E 70 b3 09 08
        E 70 b3 09 30
        E 70 b3 09 5f
        E 70 b3 09 50
        E 70 b3 09 58
        E 70 b3 09 3f
        E 70 b3 09 0b
        E 70 b3 09 13
        E 70 b3 09 44
        E 70 b3 09 37
        E 70 b3 09 1c
        E 70 b3 09 14
        E 70 b3 09 1b
        E 70 b3 09 4f
        E 70 b3 09 2f
        E 70 b3 09 17
        E 70 b3 09 3a
        E 70 b3 09 64
        E 70 b3 09 00
        E 70 b3 09 0c
        E 70 b3 09 29
        E 70 b3 09 22
        E 70 b3 09 53
        E 70 b3 09 15
        E 70 b3 09 06
        E 70 b3 09 0f
        E 70 b3 09 11
        E 70 b3 09 5b
        E 70 b3 09 19
        E 70 b3 09 00
        E 70 b3 09 4b
        E 70 b3 09 23
        E 70 b3 09 14
        E 70 b3 09 28
        E 70 b3 09 1a
        E 70 b3 09 56
        E 70 b3 09 55
        E 70 b3 09 65
        E 70 b3 09 54
        E 70 b3 09 2b
        E 70 b3 09 5e
        E 70 b3 09 48
        E 70 b3 09 0b
        E 70 b3 09 2c
        E 70 b3 09 36
        E 70 b3 09 60
        E 70 b3 09 4d
        E 70 b3 09 37
        E 70 b3 09 38
        E 70 b3 09 04
        E 70 b3 09 0a
        E 70 b3 09 5d
        E 70 b3 09 51
        E 70 b3 09 2b
        E 70 b3 09 1f
        E 70 b3 09 0d
        E 70 b3 09 2d
        E 70 b3 09 1e
        E 70 b3 09 18
        E 70 b3 09 26
        E 70 b3 09 34
        E 70 b3 09 3d
        E 70 b3 09 41
        E 70 b3 09 10
        E 70 b3 09 3c
        E 70 b3 09 5a
        E 70 b3 09 33
        E 70 b3 09 3b
        E 70 b3 09 02
        E 70 b3 09 07
        E 70 b3 09 63
        E 70 b3 09 42
        E 70 b3 09 12
        E 70 b3 09 5c
        E 70 b3 09 20
        E 70 b3 09 27
        E 70 b3 09 31
        E 70 b3 09 28
        E 70 b3 09 44
        E 70 b3 09 52
        E 70 b3 09 1d
        E 70 b3 09 39
        E 70 b3 09 17
        E 70 b3 09 5b
        E 70 b3 09 54
        E 70 b3 09 2e
        E 70 b3 09 24
        E 70 b3 09 50
        E 70 b3 09 25
        E 70 b3 09 47
        E 70 b3 09 0e
        E 70 b3 09 01
        E 70 b3 09 21
        E 70 b3 09 33
        E 70 b3 09 57
        E 70 b3 09 4e
        E 70 b3 09 03
        E 70 b3 09 57
        E 70 b3 09 4a
        E 70 b3 09 05
        E 70 b3 09 1f
        E 70 b3 09 3b
        E 70 b3 09 4c
        E 70 b3 09 61
        E 70 b3 09 3e
        E 70 b3 09 2a
        E 70 b3 09 1b
        E 70 b3 09 46
        E 70 b3 09 49
        E 70 b3 09 59
        E 70 b3 09 63
        E 70 b3 09 2f
        E 70 b3 09 40
        E 70 b3 09 45
        E 70 b3 09 35
        E 70 b3 09 5f
        E 70 b3 09 0f
        E 70 b3 09 24
        E 70 b3 09 43
        E 15 b3 09 10
        E 15 b3 09 39
        E 15 b3 09 25
        E 15 b3 09 06
        E 15 b3 09 36
        E 15 b3 09 30
        E 15 b3 09 07
        E 15 b3 09 06
        E 15 b3 09 24
        E 15 b3 09 48
        E 15 b3 09 3c
        E 15 b3 09 42
        E 15 b3 09 2f
        E 15 b3 09 08
        E 15 b3 09 0e
        E 15 b3 09 33
        E 15 b3 09 2a
        E 15 b3 09 15
        E 15 b3 09 0f
        E 15 b3 09 14
        E 15 b3 09 3b
        E 15 b3 09 23
        E 15 b3 09 12
        E 15 b3 09 2b
        E 15 b3 09 4b
        E 15 b3 09 00
        E 15 b3 09 09
        E 15 b3 09 1f
        E 15 b3 09 19
        E 15 b3 09 3e
        E 15 b3 09 10
        E 15 b3 09 04
        E 15 b3 09 0c
        E 15 b3 09 0d
        E 15 b3 09 45
        E 15 b3 09 13
        E 15 b3 09 00
        E 15 b3 09 38
        E 15 b3 09 1a
        E 15 b3 09 0f
        E 15 b3 09 1e
        E 15 b3 09 13
        E 15 b3 09 40
        E 15 b3 09 40
        E 15 b3 09 4c
        E 15 b3 09 3f
        E 15 b3 09 21
        E 15 b3 09 46
        E 15 b3 09 36
        E 15 b3 09 09
        E 15 b3 09 21
        E 15 b3 09 28
        E 15 b3 09 48
        E 15 b3 09 3a
        E 15 b3 09 29
        E 15 b3 09 2a
        E 15 b3 09 03
        E 15 b3 09 07
        E 15 b3 09 46
        E 15 b3 09 3d
        E 15 b3 09 20
        E 15 b3 09 18
        E 15 b3 09 0a
        E 15 b3 09 22
        E 15 b3 09 16
        E 15 b3 09 12
        E 15 b3 09 1c
        E 15 b3 09 27
        E 15 b3 09 2e
        E 15 b3 09 31
        E 15 b3 09 0c
        E 15 b3 09 2d
        E 15 b3 09 43
        E 15 b3 09 27
        E 15 b3 09 2c
        E 15 b3 09 01
        E 15 b3 09 05
        E 15 b3 09 4b
        E 15 b3 09 31
        E 15 b3 09 0d
        E 15 b3 09 45
        E 15 b3 09 18
        E 15 b3 09 1d
        E 15 b3 09 25
        E 15 b3 09 1e
        E 15 b3 09 33
        E 15 b3 09 3d
        E 15 b3 09 16
        E 15 b3 09 2b
        E 15 b3 09 11
        E 15 b3 09 44
        E 15 b3 09 3f
        E 15 b3 09 22
        E 15 b3 09 1b
        E 15 b3 09 3c
        E 15 b3 09 1c
        E 15 b3 09 35
        E 15 b3 09 0a
        E 15 b3 09 01
        E 15 b3 09 19
        E 15 b3 09 26
        E 15 b3 09 41
        E 15 b3 09 3a
        E 15 b3 09 02
        E 15 b3 09 42
        E 15 b3 09 37
        E 15 b3 09 04
        E 15 b3 09 17
        E 15 b3 09 2d
        E 15 b3 09 39
        E 15 b3 09 49
        E 15 b3 09 2e
        E 15 b3 09 1f
        E 15 b3 09 15
        E 15 b3 09 34
        E 15 b3 09 37
        E 15 b3 09 43
        E 15 b3 09 4a
        E 15 b3 09 24
        E 15 b3 09 30
        E 15 b3 09 34
        E 15 b3 09 28
        E 15 b3 09 47
        E 15 b3 09 0b
        E 15 b3 09 1b
        E 15 b3 09 32
        E 70 b3 09 0b
        E 70 b3 09 26
        E 70 b3 09 19
        E 70 b3 09 04
        E 70 b3 09 24
        E 70 b3 09 20
        E 70 b3 09 04
        E 70 b3 09 04
        E 70 b3 09 18
        E 70 b3 09 30
        E 70 b3 09 28
        E 70 b3 09 2c
        E 70 b3 09 1f
        E 70 b3 09 05
        E 70 b3 09 09
        E 70 b3 09 22
        E 70 b3 09 1c
        E 70 b3 09 0e
        E 70 b3 09 0a
        E 70 b3 09 0d
        E 70 b3 09 27
        E 70 b3 09 17
        E 70 b3 09 0c
        E 70 b3 09 1d
        E 70 b3 09 32
        E 70 b3 09 00
        E 70 b3 09 06
        E 70 b3 09 14
        E 70 b3 09 11
        E 70 b3 09 29
        E 70 b3 09 0a
        E 70 b3 09 03
        E 70 b3 09 08
        E 70 b3 09 08
        E 70 b3 09 2e
        E 70 b3 09 0c
        E 70 b3 09 00
        E 70 b3 09 25
        E 70 b3 09 11
        E 70 b3 09 0a
        E 70 b3 09 14
        E 70 b3 09 0d
        E 70 b3 09 2b
        E 70 b3 09 2a
        E 70 b3 09 32
        E 70 b3 09 2a
        E 70 b3 09 16
        E 70 b3 09 2f
        E 70 b3 09 24
        E 70 b3 09 06
        E 70 b3 09 16
        E 70 b3 09 1b
        E 70 b3 09 30
        E 70 b3 09 26
        E 70 b3 09 1b
        E 70 b3 09 1c
        E 70 b3 09 02
        E 70 b3 09 05
        E 70 b3 09 2e
        E 70 b3 09 28
        E 70 b3 09 15
        E 70 b3 09 10
        E 70 b3 09 06
        E 70 b3 09 16
        E 70 b3 09 0f
        E 70 b3 09 0c
        E 70 b3 09 13
        E 70 b3 09 1a
        E 70 b3 09 1e
        E 70 b3 09 20
        E 70 b3 09 08
        E 70 b3 09 1e
        E 70 b3 09 2d
        E 70 b3 09 1a
        E 70 b3 09 1d
        E 70 b3 09 01
        E 70 b3 09 03
        E 70 b3 09 32
        E 70 b3 09 21
        E 70 b3 09 09
        E 70 b3 09 2e
        E 70 b3 09 10
        E 70 b3 09 13
        E 70 b3 09 18
        E 70 b3 09 14
        E 70 b3 09 22
        E 70 b3 09 29
        E 70 b3 09 0e
        E 70 b3 09 1c
        E 70 b3 09 0b
        E 70 b3 09 2d
        E 70 b3 09 2a
        E 70 b3 09 17
        E 70 b3 09 12
        E 70 b3 09 28
        E 70 b3 09 12
        E 70 b3 09 23
        E 70 b3 09 07
        E 70 b3 09 00
        E 70 b3 09 10
        E 70 b3 09 19
        E 70 b3 09 2b
        E 70 b3 09 27
        E 70 b3 09 01
        E 70 b3 09 2c
        E 70 b3 09 25
        E 70 b3 09 02
        E 70 b3 09 0f
        E 70 b3 09 1e
        E 70 b3 09 26
        E 70 b3 09 30
        E 70 b3 09 1f
        E 70 b3 09 15
        E 70 b3 09 0e
        E 70 b3 09 23
        E 70 b3 09 24
        E 70 b3 09 2c
        E 70 b3 09 31
        E 70 b3 09 18
        E 70 b3 09 20
        E 70 b3 09 22
        E 70 b3 09 1a
        E 70 b3 09 2f
        E 70 b3 09 07
        E 70 b3 09 12
        E 70 b3 09 21
        E 39 b3 09 13
        E 39 b3 09 43
        E 39 b3 09 2c
        E 39 b3 09 07
        E 39 b3 09 3e
        E 39 b3 09 38
        E 39 b3 09 08
        E 39 b3 09 07
        E 39 b3 09 2a
        E 39 b3 09 54
        E 39 b3 09 46
        E 39 b3 09 4d
        E 39 b3 09 37
        E 39 b3 09 09
        E 39 b3 09 10
        E 39 b3 09 3c
        E 39 b3 09 31
        E 39 b3 09 19
        E 39 b3 09 11
        E 39 b3 09 17
        E 39 b3 09 45
        E 39 b3 09 29
        E 39 b3 09 15
        E 39 b3 09 33
        E 39 b3 09 58
        E 39 b3 09 00
        E 39 b3 09 0b
        E 39 b3 09 24
        E 39 b3 09 1e
        E 39 b3 09 48
        E 39 b3 09 12
        E 39 b3 09 05
        E 39 b3 09 0e
        E 39 b3 09 0f
        E 39 b3 09 50
        E 39 b3 09 16
        E 39 b3 09 00
        E 39 b3 09 41
        E 39 b3 09 1e
        E 39 b3 09 12
        E 39 b3 09 23
        E 39 b3 09 17
        E 39 b3 09 4b
        E 39 b3 09 4a
        E 39 b3 09 58
        E 39 b3 09 4a
        E 39 b3 09 26
        E 39 b3 09 52
        E 39 b3 09 3f
        E 39 b3 09 0a
        E 39 b3 09 27
        E 39 b3 09 2f
        E 39 b3 09 54
        E 39 b3 09 43
        E 39 b3 09 30
        E 39 b3 09 31
        E 39 b3 09 04
        E 39 b3 09 09
        E 39 b3 09 51
        E 39 b3 09 47
        E 39 b3 09 25
        E 39 b3 09 1c
        E 39 b3 09 0b
        E 39 b3 09 27
        E 39 b3 09 1a
        E 39 b3 09 15
        E 39 b3 09 21
        E 39 b3 09 2e
        E 39 b3 09 35
        E 39 b3 09 39
        E 39 b3 09 0e
        E 39 b3 09 35
        E 39 b3 09 4f
        E 39 b3 09 2d
        E 39 b3 09 33
        E 39 b3 09 02
        E 39 b3 09 06
        E 39 b3 09 57
        E 39 b3 09 3a
        E 39 b3 09 10
        E 39 b3 09 51
        E 39 b3 09 1c
        E 39 b3 09 22
        E 39 b3 09 2b
        E 39 b3 09 23
        E 39 b3 09 3b
        E 39 b3 09 48
        E 39 b3 09 19
        E 39 b3 09 32
        E 39 b3 09 14
        E 39 b3 09 4f
        E 39 b3 09 49
        E 39 b3 09 28
        E 39 b3 09 20
        E 39 b3 09 46
        E 39 b3 09 20
        E 39 b3 09 3e
        E 39 b3 09 0c
        E 39 b3 09 01
        E 39 b3 09 1d
        E 39 b3 09 2c
        E 39 b3 09 4c
        E 39 b3 09 44
        E 39 b3 09 02
        E 39 b3 09 4d
        E 39 b3 09 41
        E 39 b3 09 04
        E 39 b3 09 1b
        E 39 b3 09 34
        E 39 b3 09 42
        E 39 b3 09 55
        E 39 b3 09 36
        E 39 b3 09 25
        E 39 b3 09 18
        E 39 b3 09 3d
        E 39 b3 09 40
        E 39 b3 09 4e
        E 39 b3 09 56
        E 39 b3 09 2a
        E 39 b3 09 38
        E 39 b3 09 3c
        E 39 b3 09 2e
        E 39 b3 09 53
        E 39 b3 09 0d
        E 39 b3 09 1f
        E 39 b3 09 3a
        E 7 b3 09 0b
        E 7 b3 09 26
        E 7 b3 09 19
        E 7 b3 09 04
        E 7 b3 09 24
        E 7 b3 09 20
        E 7 b3 09 04
        E 7 b3 09 04
        E 7 b3 09 18
        E 7 b3 09 30
        E 7 b3 09 28
        E 7 b3 09 2c
        E 7 b3 09 1f
        E 7 b3 09 05
        E 7 b3 09 09
        E 7 b3 09 22
        E 7 b3 09 1c
        E 7 b3 09 0e
        E 7 b3 09 0a
        E 7 b3 09 0d
        E 7 b3 09 27
        E 7 b3 09 17
        E 7 b3 09 0c
        E 7 b3 09 1d
        E 7 b3 09 32
        E 7 b3 09 00
        E 7 b3 09 06
        E 7 b3 09 14
        E 7 b3 09 11
        E 7 b3 09 29
        E 7 b3 09 0a
        E 7 b3 09 03
        E 7 b3 09 08
        E 7 b3 09 08
        E 7 b3 09 2e
        E 7 b3 09 0c
        E 7 b3 09 00
        E 7 b3 09 25
        E 7 b3 09 11
        E 7 b3 09 0a
        E 7 b3 09 14
        E 7 b3 09 0d
        E 7 b3 09 2b
        E 7 b3 09 2a
        E 7 b3 09 32
        E 7 b3 09 2a
        E 7 b3 09 16
        E 7 b3 09 2f
        E 7 b3 09 24
        E 7 b3 09 06
        E 7 b3 09 16
        E 7 b3 09 1b
        E 7 b3 09 30
        E 7 b3 09 26
        E 7 b3 09 1b
        E 7 b3 09 1c
        E 7 b3 09 02
        E 7 b3 09 05
        E 7 b3 09 2e
        E 7 b3 09 28
        E 7 b3 09 15
        E 7 b3 09 10
        E 7 b3 09 06
        E 7 b3 09 16
        E 7 b3 09 0f
        E 7 b3 09 0c
        E 7 b3 09 13
        E 7 b3 09 1a
        E 7 b3 09 1e
        E 7 b3 09 20
        E 7 b3 09 08
        E 7 b3 09 1e
        E 7 b3 09 2d
        E 7 b3 09 1a
        E 7 b3 09 1d
        E 7 b3 09 01
        E 7 b3 09 03
        E 7 b3 09 32
        E 7 b3 09 21
        E 7 b3 09 09
        E 7 b3 09 2e
        E 7 b3 09 10
        E 7 b3 09 13
        E 7 b3 09 18
        E 7 b3 09 14
        E 7 b3 09 22
        E 7 b3 09 29
        E 7 b3 09 0e
        E 7 b3 09 1c
        E 7 b3 09 0b
        E 7 b3 09 2d
        E 7 b3 09 2a
        E 7 b3 09 17
        E 7 b3 09 12
        E 7 b3 09 28
        E 7 b3 09 12
        E 7 b3 09 23
        E 7 b3 09 07
        E 7 b3 09 00
        E 7 b3 09 10
        E 7 b3 09 19
        E 7 b3 09 2b
        E 7 b3 09 27
        E 7 b3 09 01
        E 7 b3 09 2c
        E 7 b3 09 25
        E 7 b3 09 02
        E 7 b3 09 0f
        E 7 b3 09 1e
        E 7 b3 09 26
        E 7 b3 09 30
        E 7 b3 09 1f
        E 7 b3 09 15
        E 7 b3 09 0e
        E 7 b3 09 23
        E 7 b3 09 24
        E 7 b3 09 2c
        E 7 b3 09 31
        E 7 b3 09 18
        E 7 b3 09 20
        E 7 b3 09 22
        E 7 b3 09 1a
        E 7 b3 09 2f
        E 7 b3 09 07
        E 7 b3 09 12
        E 7 b3 09 21
        E 23 b3 09 16
        E 23 b3 09 4c
        E 23 b3 09 32
        E 23 b3 09 07
        E 23 b3 09 48
        E 23 b3 09 3f
        E 23 b3 09 09
        E 23 b3 09 08
        E 23 b3 09 30
        E 23 b3 09 5f
        E 23 b3 09 50
        E 23 b3 09 58
        E 23 b3 09 3f
        E 23 b3 09 0b
        E 23 b3 09 13
        E 23 b3 09 44
        E 23 b3 09 37
        E 23 b3 09 1c
        E 23 b3 09 14
        E 23 b3 09 1b
        E 23 b3 09 4f
        E 23 b3 09 2f
        E 23 b3 09 17
        E 23 b3 09 3a
        E 23 b3 09 64
        E 23 b3 09 00
        E 23 b3 09 0c
        E 23 b3 09 29
        E 23 b3 09 22
        E 23 b3 09 53
        E 23 b3 09 15
        E 23 b3 09 06
        E 23 b3 09 0f
        E 23 b3 09 11
        E 23 b3 09 5b
        E 23 b3 09 19
        E 23 b3 09 00
        E 23 b3 09 4b
        E 23 b3 09 23
        E 23 b3 09 14
        E 23 b3 09 28
        E 23 b3 09 1a
        E 23 b3 09 56
        E 23 b3 09 55
        E 23 b3 09 65
        E 23 b3 09 54
        E 23 b3 09 2b
        E 23 b3 09 5e
        E 23 b3 09 48
        E 23 b3 09 0b
        E 23 b3 09 2c
        E 23 b3 09 36
        E 23 b3 09 60
        E 23 b3 09 4d
        E 23 b3 09 37
        E 23 b3 09 38
        E 23 b3 09 04
        E 23 b3 09 0a
        E 23 b3 09 5d
        E 23 b3 09 51
        E 23 b3 09 2b
        E 23 b3 09 1f
        E 23 b3 09 0d
        E 23 b3 09 2d
        E 23 b3 09 1e
        E 23 b3 09 18
        E 23 b3 09 26
        E 23 b3 09 34
        E 23 b3 09 3d
        E 23 b3 09 41
        E 23 b3 09 10
        E 23 b3 09 3c
        E 23 b3 09 5a
        E 23 b3 09 33
        E 23 b3 09 3b
        E 23 b3 09 02
        E 23 b3 09 07
        E 23 b3 09 63
        E 23 b3 09 42
        E 23 b3 09 12
        E 23 b3 09 5c
        E 23 b3 09 20
        E 23 b3 09 27
        E 23 b3 09 31
        E 23 b3 09 28
        E 23 b3 09 44
        E 23 b3 09 52
        E 23 b3 09 1d
        E 23 b3 09 39
        E 23 b3 09 17
        E 23 b3 09 5b
        E 23 b3 09 54
        E 23 b3 09 2e
        E 23 b3 09 24
        E 23 b3 09 50
        E 23 b3 09 25
        E 23 b3 09 47
        E 23 b3 09 0e
        E 23 b3 09 01
        E 23 b3 09 21
        E 23 b3 09 33
        E 23 b3 09 57
        E 23 b3 09 4e
        E 23 b3 09 03
        E 23 b3 09 57
        E 23 b3 09 4a
        E 23 b3 09 05
        E 23 b3 09 1f
        E 23 b3 09 3b
        E 23 b3 09 4c
        E 23 b3 09 61
        E 23 b3 09 3e
        E 23 b3 09 2a
        E 23 b3 09 1b
        E 23 b3 09 46
        E 23 b3 09 49
        E 23 b3 09 59
        E 23 b3 09 63
        E 23 b3 09 2f
        E 23 b3 09 40
        E 23 b3 09 45
        E 23 b3 09 35
        E 23 b3 09 5f
        E 23 b3 09 0f
        E 23 b3 09 24
        E 23 b3 09 43
        E 70 b3 09 16
        E 70 b3 09 4c
        E 70 b3 09 32
        E 70 b3 09 07
        E 70 b3 09 48
        E 70 b3 09 3f
        E 70 b3 09 09
        E 70 b3 09 08
        E 70 b3 09 30
        E 70 b3 09 5f
        E 70 b3 09 50
        E 70 b3 09 58
        E 70 b3 09 3f
        E 70 b3 09 0b
        E 70 b3 09 13
        E 70 b3 09 44
        E 70 b3 09 37
        E 70 b3 09 1c
        E 70 b3 09 14
        E 70 b3 09 1b
        E 70 b3 09 4f
        E 70 b3 09 2f
        E 70 b3 09 17
        E 70 b3 09 3a
        E 70 b3 09 64
        E 70 b3 09 00
        E 70 b3 09 0c
        E 70 b3 09 29
        E 70 b3 09 22
        E 70 b3 09 53
        E 70 b3 09 15
        E 70 b3 09 06
        E 70 b3 09 0f
        E 70 b3 09 11
        E 70 b3 09 5b
        E 70 b3 09 19
        E 70 b3 09 00
        E 70 b3 09 4b
        E 70 b3 09 23
        E 70 b3 09 14
        E 70 b3 09 28
        E 70 b3 09 1a
        E 70 b3 09 56
        E 70 b3 09 55
        E 70 b3 09 65
        E 70 b3 09 54
        E 70 b3 09 2b
        E 70 b3 09 5e
        E 70 b3 09 48
        E 70 b3 09 0b
        E 70 b3 09 2c
        E 70 b3 09 36
        E 70 b3 09 60
        E 70 b3 09 4d
        E 70 b3 09 37
        E 70 b3 09 38
        E 70 b3 09 04
        E 70 b3 09 0a
        E 70 b3 09 5d
        E 70 b3 09 51
        E 70 b3 09 2b
        E 70 b3 09 1f
        E 70 b3 09 0d
        E 70 b3 09 2d
        E 70 b3 09 1e
        E 70 b3 09 18
        E 70 b3 09 26
        E 70 b3 09 34
        E 70 b3 09 3d
        E 70 b3 09 41
        E 70 b3 09 10
        E 70 b3 09 3c
        E 70 b3 09 5a
        E 70 b3 09 33
        E 70 b3 09 3b
        E 70 b3 09 02
        E 70 b3 09 07
        E 70 b3 09 63
        E 70 b3 09 42
        E 70 b3 09 12
        E 70 b3 09 5c
        E 70 b3 09 20
        E 70 b3 09 27
        E 70 b3 09 31
        E 70 b3 09 28
        E 70 b3 09 44
        E 70 b3 09 52
        E 70 b3 09 1d
        E 70 b3 09 39
        E 70 b3 09 17
        E 70 b3 09 5b
        E 70 b3 09 54
        E 70 b3 09 2e
        E 70 b3 09 24
        E 70 b3 09 50
        E 70 b3 09 25
        E 70 b3 09 47
        E 70 b3 09 0e
        E 70 b3 09 01
        E 70 b3 09 21
        E 70 b3 09 33
        E 70 b3 09 57
        E 70 b3 09 4e
        E 70 b3 09 03
        E 70 b3 09 57
        E 70 b3 09 4a
        E 70 b3 09 05
        E 70 b3 09 1f
        E 70 b3 09 3b
        E 70 b3 09 4c
        E 70 b3 09 61
        E 70 b3 09 3e
        E 70 b3 09 2a
        E 70 b3 09 1b
        E 70 b3 09 46
        E 70 b3 09 49
        E 70 b3 09 59
        E 70 b3 09 63
        E 70 b3 09 2f
        E 70 b3 09 40
        E 70 b3 09 45
        E 70 b3 09 35
        E 70 b3 09 5f
        E 70 b3 09 0f
        E 70 b3 09 24
        E 70 b3 09 43
        E 15 b3 09 10
        E 15 b3 09 39
        E 15 b3 09 25
        E 15 b3 09 06
        E 15 b3 09 36
        E 15 b3 09 30
        E 15 b3 09 07
        E 15 b3 09 06
        E 15 b3 09 24
        E 15 b3 09 48
        E 15 b3 09 3c
        E 15 b3 09 42
        E 15 b3 09 2f
        E 15 b3 09 08
        E 15 b3 09 0e
        E 15 b3 09 33
        E 15 b3 09 2a
        E 15 b3 09 15
        E 15 b3 09 0f
        E 15 b3 09 14
        E 15 b3 09 3b
        E 15 b3 09 23
        E 15 b3 09 12
        E 15 b3 09 2b
        E 15 b3 09 4b
        E 15 b3 09 00
        E 15 b3 09 09
        E 15 b3 09 1f
        E 15 b3 09 19
        E 15 b3 09 3e
        E 15 b3 09 10
        E 15 b3 09 04
        E 15 b3 09 0c
        E 15 b3 09 0d
        E 15 b3 09 45
        E 15 b3 09 13
        E 15 b3 09 00
        E 15 b3 09 38
        E 15 b3 09 1a
        E 15 b3 09 0f
        E 15 b3 09 1e
        E 15 b3 09 13
        E 15 b3 09 40
        E 15 b3 09 40
        E 15 b3 09 4c
        E 15 b3 09 3f
        E 15 b3 09 21
        E 15 b3 09 46
        E 15 b3 09 36
        E 15 b3 09 09
        E 15 b3 09 21
        E 15 b3 09 28
        E 15 b3 09 48
        E 15 b3 09 3a
        E 15 b3 09 29
        E 15 b3 09 2a
        E 15 b3 09 03
        E 15 b3 09 07
        E 15 b3 09 46
        E 15 b3 09 3d
        E 15 b3 09 20
        E 15 b3 09 18
        E 15 b3 09 0a
        E 15 b3 09 22
        E 15 b3 09 16
        E 15 b3 09 12
        E 15 b3 09 1c
        E 15 b3 09 27
        E 15 b3 09 2e
        E 15 b3 09 31
        E 15 b3 09 0c
        E 15 b3 09 2d
        E 15 b3 09 43
        E 15 b3 09 27
        E 15 b3 09 2c
        E 15 b3 09 01
        E 15 b3 09 05
        E 15 b3 09 4b
        E 15 b3 09 31
        E 15 b3 09 0d
        E 15 b3 09 45
        E 15 b3 09 18
        E 15 b3 09 1d
        E 15 b3 09 25
        E 15 b3 09 1e
        E 15 b3 09 33
        E 15 b3 09 3d
        E 15 b3 09 16
        E 15 b3 09 2b
        E 15 b3 09 11
        E 15 b3 09 44
        E 15 b3 09 3f
        E 15 b3 09 22
        E 15 b3 09 1b
        E 15 b3 09 3c
        E 15 b3 09 1c
        E 15 b3 09 35
        E 15 b3 09 0a
        E 15 b3 09 01
        E 15 b3 09 19
        E 15 b3 09 26
        E 15 b3 09 41
        E 15 b3 09 3a
        E 15 b3 09 02
        E 15 b3 09 42
        E 15 b3 09 37
        E 15 b3 09 04
        E 15 b3 09 17
        E 15 b3 09 2d
        E 15 b3 09 39
        E 15 b3 09 49
        E 15 b3 09 2e
        E 15 b3 09 1f
        E 15 b3 09 15
        E 15 b3 09 34
        E 15 b3 09 37
        E 15 b3 09 43
        E 15 b3 09 4a
        E 15 b3 09 24
        E 15 b3 09 30
        E 15 b3 09 34
        E 15 b3 09 28
        E 15 b3 09 47
        E 15 b3 09 0b
        E 15 b3 09 1b
        E 15 b3 09 32
        E 70 b3 09 0b
        E 70 b3 09 26
        E 70 b3 09 19
        E 70 b3 09 04
        E 70 b3 09 24
        E 70 b3 09 20
        E 70 b3 09 04
        E 70 b3 09 04
        E 70 b3 09 18
        E 70 b3 09 30
        E 70 b3 09 28
        E 70 b3 09 2c
        E 70 b3 09 1f
        E 70 b3 09 05
        E 70 b3 09 09
        E 70 b3 09 22
        E 70 b3 09 1c
        E 70 b3 09 0e
        E 70 b3 09 0a
        E 70 b3 09 0d
        E 70 b3 09 27
        E 70 b3 09 17
        E 70 b3 09 0c
        E 70 b3 09 1d
        E 70 b3 09 32
        E 70 b3 09 00
        E 70 b3 09 06
        E 70 b3 09 14
        E 70 b3 09 11
        E 70 b3 09 29
        E 70 b3 09 0a
        E 70 b3 09 03
        E 70 b3 09 08
        E 70 b3 09 08
        E 70 b3 09 2e
        E 70 b3 09 0c
        E 70 b3 09 00
        E 70 b3 09 25
        E 70 b3 09 11
        E 70 b3 09 0a
        E 70 b3 09 14
        E 70 b3 09 0d
        E 70 b3 09 2b
        E 70 b3 09 2a
        E 70 b3 09 32
        E 70 b3 09 2a
        E 70 b3 09 16
        E 70 b3 09 2f
        E 70 b3 09 24
        E 70 b3 09 06
        E 70 b3 09 16
        E 70 b3 09 1b
        E 70 b3 09 30
        E 70 b3 09 26
        E 70 b3 09 1b
        E 70 b3 09 1c
        E 70 b3 09 02
        E 70 b3 09 05
        E 70 b3 09 2e
        E 70 b3 09 28
        E 70 b3 09 15
        E 70 b3 09 10
        E 70 b3 09 06
        E 70 b3 09 16
        E 70 b3 09 0f
        E 70 b3 09 0c
        E 70 b3 09 13
        E 70 b3 09 1a
        E 70 b3 09 1e
        E 70 b3 09 20
        E 70 b3 09 08
        E 70 b3 09 1e
        E 70 b3 09 2d
        E 70 b3 09 1a
        E 70 b3 09 1d
        E 70 b3 09 01
        E 70 b3 09 03
        E 70 b3 09 32
        E 70 b3 09 21
        E 70 b3 09 09
        E 70 b3 09 2e
        E 70 b3 09 10
        E 70 b3 09 13
        E 70 b3 09 18
        E 70 b3 09 14
        E 70 b3 09 22
        E 70 b3 09 29
        E 70 b3 09 0e
        E 70 b3 09 1c
        E 70 b3 09 0b
        E 70 b3 09 2d
        E 70 b3 09 2a
        E 70 b3 09 17
        E 70 b3 09 12
        E 70 b3 09 28
        E 70 b3 09 12
        E 70 b3 09 23
        E 70 b3 09 07
        E 70 b3 09 00
        E 70 b3 09 10
        E 70 b3 09 19
        E 70 b3 09 2b
        E 70 b3 09 27
        E 70 b3 09 01
        E 70 b3 09 2c
        E 70 b3 09 25
        E 70 b3 09 02
        E 70 b3 09 0f
        E 70 b3 09 1e
        E 70 b3 09 26
        E 70 b3 09 30
        E 70 b3 09 1f
        E 70 b3 09 15
        E 70 b3 09 0e
        E 70 b3 09 23
        E 70 b3 09 24
        E 70 b3 09 2c
        E 70 b3 09 31
        E 70 b3 09 18
        E 70 b3 09 20
        E 70 b3 09 22
        E 70 b3 09 1a
        E 70 b3 09 2f
        E 70 b3 09 07
        E 70 b3 09 12
        E 70 b3 09 21
        E 39 b3 09 13
        E 39 b3 09 43
        E 39 b3 09 2c
        E 39 b3 09 07
        E 39 b3 09 3e
        E 39 b3 09 38
        E 39 b3 09 08
        E 39 b3 09 07
        E 39 b3 09 2a
        E 39 b3 09 54
        E 39 b3 09 46
        E 39 b3 09 4d
        E 39 b3 09 37
        E 39 b3 09 09
        E 39 b3 09 10
        E 39 b3 09 3c
        E 39 b3 09 31
        E 39 b3 09 19
        E 39 b3 09 11
        E 39 b3 09 17
        E 39 b3 09 45
        E 39 b3 09 29
        E 39 b3 09 15
        E 39 b3 09 33
        E 39 b3 09 58
        E 39 b3 09 00
        E 39 b3 09 0b
        E 39 b3 09 24
        E 39 b3 09 1e
        E 39 b3 09 48
        E 39 b3 09 12
        E 39 b3 09 05
        E 39 b3 09 0e
        E 39 b3 09 0f
        E 39 b3 09 50
        E 39 b3 09 16
        E 39 b3 09 00
        E 39 b3 09 41
        E 39 b3 09 1e
        E 39 b3 09 12
        E 39 b3 09 23
        E 39 b3 09 17
        E 39 b3 09 4b
        E 39 b3 09 4a
        E 39 b3 09 58
        E 39 b3 09 4a
        E 39 b3 09 26
        E 39 b3 09 52
        E 39 b3 09 3f
        E 39 b3 09 0a
        E 39 b3 09 27
        E 39 b3 09 2f
        E 39 b3 09 54
        E 39 b3 09 43
        E 39 b3 09 30
        E 39 b3 09 31
        E 39 b3 09 04
        E 39 b3 09 09
        E 39 b3 09 51
        E 39 b3 09 47
        E 39 b3 09 25
        E 39 b3 09 1c
        E 39 b3 09 0b
        E 39 b3 09 27
        E 39 b3 09 1a
        E 39 b3 09 15
        E 39 b3 09 21
        E 39 b3 09 2e
        E 39 b3 09 35
        E 39 b3 09 39
        E 39 b3 09 0e
        E 39 b3 09 35
        E 39 b3 09 4f
        E 39 b3 09 2d
        E 39 b3 09 33
        E 39 b3 09 02
        E 39 b3 09 06
        E 39 b3 09 57
        E 39 b3 09 3a
        E 39 b3 09 10
        E 39 b3 09 51
        E 39 b3 09 1c
        E 39 b3 09 22
        E 39 b3 09 2b
        E 39 b3 09 23
        E 39 b3 09 3b
        E 39 b3 09 48
        E 39 b3 09 19
        E 39 b3 09 32
        E 39 b3 09 14
        E 39 b3 09 4f
        E 39 b3 09 49
        E 39 b3 09 28
        E 39 b3 09 20
        E 39 b3 09 46
        E 39 b3 09 20
        E 39 b3 09 3e
        E 39 b3 09 0c
        E 39 b3 09 01
        E 39 b3 09 1d
        E 39 b3 09 2c
        E 39 b3 09 4c
        E 39 b3 09 44
        E 39 b3 09 02
        E 39 b3 09 4d
        E 39 b3 09 41
        E 39 b3 09 04
        E 39 b3 09 1b
        E 39 b3 09 34
        E 39 b3 09 42
        E 39 b3 09 55
        E 39 b3 09 36
        E 39 b3 09 25
        E 39 b3 09 18
        E 39 b3 09 3d
        E 39 b3 09 40
        E 39 b3 09 4e
        E 39 b3 09 56
        E 39 b3 09 2a
        E 39 b3 09 38
        E 39 b3 09 3c
        E 39 b3 09 2e
        E 39 b3 09 53
        E 39 b3 09 0d
        E 39 b3 09 1f
        E 39 b3 09 3a
        E 13 b3 09 16
        E 13 b3 09 4c
        E 13 b3 09 32
        E 13 b3 09 07
        E 13 b3 09 48
        E 13 b3 09 3f
        E 13 b3 09 09
        E 13 b3 09 08
        E 13 b3 09 30
        E 13 b3 09 5f
        E 13 b3 09 50
        E 13 b3 09 58
        E 13 b3 09 3f
        E 13 b3 09 0b
        E 13 b3 09 13
        E 13 b3 09 44
        E 13 b3 09 37
        E 13 b3 09 1c
        E 13 b3 09 14
        E 13 b3 09 1b
        E 13 b3 09 4f
        E 13 b3 09 2f
        E 13 b3 09 17
        E 13 b3 09 3a
        E 13 b3 09 64
        E 13 b3 09 00
        E 13 b3 09 0c
        E 13 b3 09 29
        E 13 b3 09 22
        E 13 b3 09 53
        E 13 b3 09 15
        E 13 b3 09 06
        E 13 b3 09 0f
        E 13 b3 09 11
        E 13 b3 09 5b
        E 13 b3 09 19
        E 13 b3 09 00
        E 13 b3 09 4b
        E 13 b3 09 23
        E 13 b3 09 14
        E 13 b3 09 28
        E 13 b3 09 1a
        E 13 b3 09 56
        E 13 b3 09 55
        E 13 b3 09 65
        E 13 b3 09 54
        E 13 b3 09 2b
        E 13 b3 09 5e
        E 13 b3 09 48
        E 13 b3 09 0b
        E 13 b3 09 2c
        E 13 b3 09 36
        E 13 b3 09 60
        E 13 b3 09 4d
        E 13 b3 09 37
        E 13 b3 09 38
        E 13 b3 09 04
        E 13 b3 09 0a
        E 13 b3 09 5d
        E 13 b3 09 51
        E 13 b3 09 2b
        E 13 b3 09 1f
        E 13 b3 09 0d
        E 13 b3 09 2d
        E 13 b3 09 1e
        E 13 b3 09 18
        E 13 b3 09 26
        E 13 b3 09 34
        E 13 b3 09 3d
        E 13 b3 09 41
        E 13 b3 09 10
        E 13 b3 09 3c
        E 13 b3 09 5a
        E 13 b3 09 33
        E 13 b3 09 3b
        E 13 b3 09 02
        E 13 b3 09 07
        E 13 b3 09 63
        E 13 b3 09 42
        E 13 b3 09 12
        E 13 b3 09 5c
        E 13 b3 09 20
        E 13 b3 09 27
        E 13 b3 09 31
        E 13 b3 09 28
        E 13 b3 09 44
        E 13 b3 09 52
        E 13 b3 09 1d
        E 13 b3 09 39
        E 13 b3 09 17
        E 13 b3 09 5b
        E 13 b3 09 54
        E 13 b3 09 2e
        E 13 b3 09 24
        E 13 b3 09 50
        E 13 b3 09 25
        E 13 b3 09 47
        E 13 b3 09 0e
        E 13 b3 09 01
        E 13 b3 09 21
        E 13 b3 09 33
        E 13 b3 09 57
        E 13 b3 09 4e
        E 13 b3 09 03
        E 13 b3 09 57
        E 13 b3 09 4a
        E 13 b3 09 05
        E 13 b3 09 1f
        E 13 b3 09 3b
        E 13 b3 09 4c
        E 13 b3 09 61
        E 13 b3 09 3e
        E 13 b3 09 2a
        E 13 b3 09 1b
        E 13 b3 09 46
        E 13 b3 09 49
        E 13 b3 09 59
        E 13 b3 09 63
        E 13 b3 09 2f
        E 13 b3 09 40
        E 13 b3 09 45
        E 13 b3 09 35
        E 13 b3 09 5f
        E 13 b3 09 0f
        E 13 b3 09 24
        E 13 b3 09 43
        E 3 b3 09 10
        E 3 b3 09 39
        E 3 b3 09 25
        E 3 b3 09 06
        E 3 b3 09 36
        E 3 b3 09 30
        E 3 b3 09 07
        E 3 b3 09 06
        E 3 b3 09 24
        E 3 b3 09 48
        E 3 b3 09 3c
        E 3 b3 09 42
        E 3 b3 09 2f
        E 3 b3 09 08
        E 3 b3 09 0e
        E 3 b3 09 33
        E 3 b3 09 2a
        E 3 b3 09 15
        E 3 b3 09 0f
        E 3 b3 09 14
        E 3 b3 09 3b
        E 3 b3 09 23
        E 3 b3 09 12
        E 3 b3 09 2b
        E 3 b3 09 4b
        E 3 b3 09 00
        E 3 b3 09 09
        E 3 b3 09 1f
        E 3 b3 09 19
        E 3 b3 09 3e
        E 3 b3 09 10
        E 3 b3 09 04
        E 3 b3 09 0c
        E 3 b3 09 0d
        E 3 b3 09 45
        E 3 b3 09 13
        E 3 b3 09 00
        E 3 b3 09 38
        E 3 b3 09 1a
        E 3 b3 09 0f
        E 3 b3 09 1e
        E 3 b3 09 13
        E 3 b3 09 40
        E 3 b3 09 40
        E 3 b3 09 4c
        E 3 b3 09 3f
        E 3 b3 09 21
        E 3 b3 09 46
        E 3 b3 09 36
        E 3 b3 09 09
        E 3 b3 09 21
        E 3 b3 09 28
        E 3 b3 09 48
        E 3 b3 09 3a
        E 3 b3 09 29
        E 3 b3 09 2a
        E 3 b3 09 03
        E 3 b3 09 07
        E 3 b3 09 46
        E 3 b3 09 3d
        E 3 b3 09 20
        E 3 b3 09 18
        E 3 b3 09 0a
        E 3 b3 09 22
        E 3 b3 09 16
        E 3 b3 09 12
        E 3 b3 09 1c
        E 3 b3 09 27
        E 3 b3 09 2e
        E 3 b3 09 31
        E 3 b3 09 0c
        E 3 b3 09 2d
        E 3 b3 09 43
        E 3 b3 09 27
        E 3 b3 09 2c
        E 3 b3 09 01
        E 3 b3 09 05
        E 3 b3 09 4b
        E 3 b3 09 31
        E 3 b3 09 0d
        E 3 b3 09 45
        E 3 b3 09 18
        E 3 b3 09 1d
        E 3 b3 09 25
        E 3 b3 09 1e
        E 3 b3 09 33
        E 3 b3 09 3d
        E 3 b3 09 16
        E 3 b3 09 2b
        E 3 b3 09 11
        E 3 b3 09 44
        E 3 b3 09 3f
        E 3 b3 09 22
        E 3 b3 09 1b
        E 3 b3 09 3c
        E 3 b3 09 1c
        E 3 b3 09 35
        E 3 b3 09 0a
        E 3 b3 09 01
        E 3 b3 09 19
        E 3 b3 09 26
        E 3 b3 09 41
        E 3 b3 09 3a
        E 3 b3 09 02
        E 3 b3 09 42
        E 3 b3 09 37
        E 3 b3 09 04
        E 3 b3 09 17
        E 3 b3 09 2d
        E 3 b3 09 39
        E 3 b3 09 49
        E 3 b3 09 2e
        E 3 b3 09 1f
        E 3 b3 09 15
        E 3 b3 09 34
        E 3 b3 09 37
        E 3 b3 09 43
        E 3 b3 09 4a
        E 3 b3 09 24
        E 3 b3 09 30
        E 3 b3 09 34
        E 3 b3 09 28
        E 3 b3 09 47
        E 3 b3 09 0b
        E 3 b3 09 1b
        E 3 b3 09 32
        E 13 b3 09 0b
        E 13 b3 09 26
        E 13 b3 09 19
        E 13 b3 09 04
        E 13 b3 09 24
        E 13 b3 09 20
        E 13 b3 09 04
        E 13 b3 09 04
        E 13 b3 09 18
        E 13 b3 09 30
        E 13 b3 09 28
        E 13 b3 09 2c
        E 13 b3 09 1f
        E 13 b3 09 05
        E 13 b3 09 09
        E 13 b3 09 22
        E 13 b3 09 1c
        E 13 b3 09 0e
        E 13 b3 09 0a
        E 13 b3 09 0d
        E 13 b3 09 27
        E 13 b3 09 17
        E 13 b3 09 0c
        E 13 b3 09 1d
        E 13 b3 09 32
        E 13 b3 09 00
        E 13 b3 09 06
        E 13 b3 09 14
        E 13 b3 09 11
        E 13 b3 09 29
        E 13 b3 09 0a
        E 13 b3 09 03
        E 13 b3 09 08
        E 13 b3 09 08
        E 13 b3 09 2e
        E 13 b3 09 0c
        E 13 b3 09 00
        E 13 b3 09 25
        E 13 b3 09 11
        E 13 b3 09 0a
        E 13 b3 09 14
        E 13 b3 09 0d
        E 13 b3 09 2b
        E 13 b3 09 2a
        E 13 b3 09 32
        E 13 b3 09 2a
        E 13 b3 09 16
        E 13 b3 09 2f
        E 13 b3 09 24
        E 13 b3 09 06
        E 13 b3 09 16
        E 13 b3 09 1b
        E 13 b3 09 30
        E 13 b3 09 26
        E 13 b3 09 1b
        E 13 b3 09 1c
        E 13 b3 09 02
        E 13 b3 09 05
        E 13 b3 09 2e
        E 13 b3 09 28
        E 13 b3 09 15
        E 13 b3 09 10
        E 13 b3 09 06
        E 13 b3 09 16
        E 13 b3 09 0f
        E 13 b3 09 0c
        E 13 b3 09 13
        E 13 b3 09 1a
        E 13 b3 09 1e
        E 13 b3 09 20
        E 13 b3 09 08
        E 13 b3 09 1e
        E 13 b3 09 2d
        E 13 b3 09 1a
        E 13 b3 09 1d
        E 13 b3 09 01
        E 13 b3 09 03
        E 13 b3 09 32
        E 13 b3 09 21
        E 13 b3 09 09
        E 13 b3 09 2e
        E 13 b3 09 10
        E 13 b3 09 13
        E 13 b3 09 18
        E 13 b3 09 14
        E 13 b3 09 22
        E 13 b3 09 29
        E 13 b3 09 0e
        E 13 b3 09 1c
        E 13 b3 09 0b
        E 13 b3 09 2d
        E 13 b3 09 2a
        E 13 b3 09 17
        E 13 b3 09 12
        E 13 b3 09 28
        E 13 b3 09 12
        E 13 b3 09 23
        E 13 b3 09 07
        E 13 b3 09 00
        E 13 b3 09 10
        E 13 b3 09 19
        E 13 b3 09 2b
        E 13 b3 09 27
        E 13 b3 09 01
        E 13 b3 09 2c
        E 13 b3 09 25
        E 13 b3 09 02
        E 13 b3 09 0f
        E 13 b3 09 1e
        E 13 b3 09 26
        E 13 b3 09 30
        E 13 b3 09 1f
        E 13 b3 09 15
        E 13 b3 09 0e
        E 13 b3 09 23
        E 13 b3 09 24
        E 13 b3 09 2c
        E 13 b3 09 31
        E 13 b3 09 18
        E 13 b3 09 20
        E 13 b3 09 22
        E 13 b3 09 1a
        E 13 b3 09 2f
        E 13 b3 09 07
        E 13 b3 09 12
        E 13 b3 09 21
        E 7 b3 09 13
        E 7 b3 09 43
        E 7 b3 09 2c
        E 7 b3 09 07
        E 7 b3 09 3e
        E 7 b3 09 38
        E 7 b3 09 08
        E 7 b3 09 07
        E 7 b3 09 2a
        E 7 b3 09 54
        E 7 b3 09 46
        E 7 b3 09 4d
        E 7 b3 09 37
        E 7 b3 09 09
        E 7 b3 09 10
        E 7 b3 09 3c
        E 7 b3 09 31
        E 7 b3 09 19
        E 7 b3 09 11
        E 7 b3 09 17
        E 7 b3 09 45
        E 7 b3 09 29
        E 7 b3 09 15
        E 7 b3 09 33
        E 7 b3 09 58
        E 7 b3 09 00
        E 7 b3 09 0b
        E 7 b3 09 24
        E 7 b3 09 1e
        E 7 b3 09 48
        E 7 b3 09 12
        E 7 b3 09 05
        E 7 b3 09 0e
        E 7 b3 09 0f
        E 7 b3 09 50
        E 7 b3 09 16
        E 7 b3 09 00
        E 7 b3 09 41
        E 7 b3 09 1e
        E 7 b3 09 12
        E 7 b3 09 23
        E 7 b3 09 17
        E 7 b3 09 4b
        E 7 b3 09 4a
        E 7 b3 09 58
        E 7 b3 09 4a
        E 7 b3 09 26
        E 7 b3 09 52
        E 7 b3 09 3f
        E 7 b3 09 0a
        E 7 b3 09 27
        E 7 b3 09 2f
        E 7 b3 09 54
        E 7 b3 09 43
        E 7 b3 09 30
        E 7 b3 09 31
        E 7 b3 09 04
        E 7 b3 09 09
        E 7 b3 09 51
        E 7 b3 09 47
        E 7 b3 09 25
        E 7 b3 09 1c
        E 7 b3 09 0b
        E 7 b3 09 27
        E 7 b3 09 1a
        E 7 b3 09 15
        E 7 b3 09 21
        E 7 b3 09 2e
        E 7 b3 09 35
        E 7 b3 09 39
        E 7 b3 09 0e
        E 7 b3 09 35
        E 7 b3 09 4f
        E 7 b3 09 2d
        E 7 b3 09 33
        E 7 b3 09 02
        E 7 b3 09 06
        E 7 b3 09 57
        E 7 b3 09 3a
        E 7 b3 09 10
        E 7 b3 09 51
        E 7 b3 09 1c
        E 7 b3 09 22
        E 7 b3 09 2b
        E 7 b3 09 23
        E 7 b3 09 3b
        E 7 b3 09 48
        E 7 b3 09 19
        E 7 b3 09 32
        E 7 b3 09 14
        E 7 b3 09 4f
        E 7 b3 09 49
        E 7 b3 09 28
        E 7 b3 09 20
        E 7 b3 09 46
        E 7 b3 09 20
        E 7 b3 09 3e
        E 7 b3 09 0c
        E 7 b3 09 01
        E 7 b3 09 1d
        E 7 b3 09 2c
        E 7 b3 09 4c
        E 7 b3 09 44
        E 7 b3 09 02
        E 7 b3 09 4d
        E 7 b3 09 41
        E 7 b3 09 04
        E 7 b3 09 1b
        E 7 b3 09 34
        E 7 b3 09 42
        E 7 b3 09 55
        E 7 b3 09 36
        E 7 b3 09 25
        E 7 b3 09 18
        E 7 b3 09 3d
        E 7 b3 09 40
        E 7 b3 09 4e
        E 7 b3 09 56
        E 7 b3 09 2a
        E 7 b3 09 38
        E 7 b3 09 3c
        E 7 b3 09 2e
        E 7 b3 09 53
        E 7 b3 09 0d
        E 7 b3 09 1f
        E 7 b3 09 3a
        E 1 b3 09 0b
        E 1 b3 09 26
        E 1 b3 09 19
        E 1 b3 09 04
        E 1 b3 09 24
        E 1 b3 09 20
        E 1 b3 09 04
        E 1 b3 09 04
        E 1 b3 09 18
        E 1 b3 09 30
        E 1 b3 09 28
        E 1 b3 09 2c
        E 1 b3 09 1f
        E 1 b3 09 05
        E 1 b3 09 09
        E 1 b3 09 22
        E 1 b3 09 1c
        E 1 b3 09 0e
        E 1 b3 09 0a
        E 1 b3 09 0d
        E 1 b3 09 27
        E 1 b3 09 17
        E 1 b3 09 0c
        E 1 b3 09 1d
        E 1 b3 09 32
        E 1 b3 09 00
        E 1 b3 09 06
        E 1 b3 09 14
        E 1 b3 09 11
        E 1 b3 09 29
        E 1 b3 09 0a
        E 1 b3 09 03
        E 1 b3 09 08
        E 1 b3 09 08
        E 1 b3 09 2e
        E 1 b3 09 0c
        E 1 b3 09 00
        E 1 b3 09 25
        E 1 b3 09 11
        E 1 b3 09 0a
        E 1 b3 09 14
        E 1 b3 09 0d
        E 1 b3 09 2b
        E 1 b3 09 2a
        E 1 b3 09 32
        E 1 b3 09 2a
        E 1 b3 09 16
        E 1 b3 09 2f
        E 1 b3 09 24
        E 1 b3 09 06
        E 1 b3 09 16
        E 1 b3 09 1b
        E 1 b3 09 30
        E 1 b3 09 26
        E 1 b3 09 1b
        E 1 b3 09 1c
        E 1 b3 09 02
        E 1 b3 09 05
        E 1 b3 09 2e
        E 1 b3 09 28
        E 1 b3 09 15
        E 1 b3 09 10
        E 1 b3 09 06
        E 1 b3 09 16
        E 1 b3 09 0f
        E 1 b3 09 0c
        E 1 b3 09 13
        E 1 b3 09 1a
        E 1 b3 09 1e
        E 1 b3 09 20
        E 1 b3 09 08
        E 1 b3 09 1e
        E 1 b3 09 2d
        E 1 b3 09 1a
        E 1 b3 09 1d
        E 1 b3 09 01
        E 1 b3 09 03
        E 1 b3 09 32
        E 1 b3 09 21
        E 1 b3 09 09
        E 1 b3 09 2e
        E 1 b3 09 10
        E 1 b3 09 13
        E 1 b3 09 18
        E 1 b3 09 14
        E 1 b3 09 22
        E 1 b3 09 29
        E 1 b3 09 0e
        E 1 b3 09 1c
        E 1 b3 09 0b
        E 1 b3 09 2d
        E 1 b3 09 2a
        E 1 b3 09 17
        E 1 b3 09 12
        E 1 b3 09 28
        E 1 b3 09 12
        E 1 b3 09 23
        E 1 b3 09 07
        E 1 b3 09 00
        E 1 b3 09 10
        E 1 b3 09 19
        E 1 b3 09 2b
        E 1 b3 09 27
        E 1 b3 09 01
        E 1 b3 09 2c
        E 1 b3 09 25
        E 1 b3 09 02
        E 1 b3 09 0f
        E 1 b3 09 1e
        E 1 b3 09 26
        E 1 b3 09 30
        E 1 b3 09 1f
        E 1 b3 09 15
        E 1 b3 09 0e
        E 1 b3 09 23
        E 1 b3 09 24
        E 1 b3 09 2c
        E 1 b3 09 31
        E 1 b3 09 18
        E 1 b3 09 20
        E 1 b3 09 22
        E 1 b3 09 1a
        E 1 b3 09 2f
        E 1 b3 09 07
        E 1 b3 09 12
        E 1 b3 09 21
        E 4 b3 09 16
        E 4 b3 09 4c
        E 4 b3 09 32
        E 4 b3 09 07
        E 4 b3 09 48
        E 4 b3 09 3f
        E 4 b3 09 09
        E 4 b3 09 08
        E 4 b3 09 30
        E 4 b3 09 5f
        E 4 b3 09 50
        E 4 b3 09 58
        E 4 b3 09 3f
        E 4 b3 09 0b
        E 4 b3 09 13
        E 4 b3 09 44
        E 4 b3 09 37
        E 4 b3 09 1c
        E 4 b3 09 14
        E 4 b3 09 1b
        E 4 b3 09 4f
        E 4 b3 09 2f
        E 4 b3 09 17
        E 4 b3 09 3a
        E 4 b3 09 64
        E 4 b3 09 00
        E 4 b3 09 0c
        E 4 b3 09 29
        E 4 b3 09 22
        E 4 b3 09 53
        E 4 b3 09 15
        E 4 b3 09 06
        E 4 b3 09 0f
        E 4 b3 09 11
        E 4 b3 09 5b
        E 4 b3 09 19
        E 4 b3 09 00
        E 4 b3 09 4b
        E 4 b3 09 23
        E 4 b3 09 14
        E 4 b3 09 28
        E 4 b3 09 1a
        E 4 b3 09 56
        E 4 b3 09 55
        E 4 b3 09 65
        E 4 b3 09 54
        E 4 b3 09 2b
        E 4 b3 09 5e
        E 4 b3 09 48
        E 4 b3 09 0b
        E 4 b3 09 2c
        E 4 b3 09 36
        E 4 b3 09 60
        E 4 b3 09 4d
        E 4 b3 09 37
        E 4 b3 09 38
        E 4 b3 09 04
        E 4 b3 09 0a
        E 4 b3 09 5d
        E 4 b3 09 51
        E 4 b3 09 2b
        E 4 b3 09 1f
        E 4 b3 09 0d
        E 4 b3 09 2d
        E 4 b3 09 1e
        E 4 b3 09 18
        E 4 b3 09 26
        E 4 b3 09 34
        E 4 b3 09 3d
        E 4 b3 09 41
        E 4 b3 09 10
        E 4 b3 09 3c
        E 4 b3 09 5a
        E 4 b3 09 33
        E 4 b3 09 3b
        E 4 b3 09 02
        E 4 b3 09 07
        E 4 b3 09 63
        E 4 b3 09 42
        E 4 b3 09 12
        E 4 b3 09 5c
        E 4 b3 09 20
        E 4 b3 09 27
        E 4 b3 09 31
        E 4 b3 09 28
        E 4 b3 09 44
        E 4 b3 09 52
        E 4 b3 09 1d
        E 4 b3 09 39
        E 4 b3 09 17
        E 4 b3 09 5b
        E 4 b3 09 54
        E 4 b3 09 2e
        E 4 b3 09 24
        E 4 b3 09 50
        E 4 b3 09 25
        E 4 b3 09 47
        E 4 b3 09 0e
        E 4 b3 09 01
        E 4 b3 09 21
        E 4 b3 09 33
        E 4 b3 09 57
        E 4 b3 09 4e
        E 4 b3 09 03
        E 4 b3 09 57
        E 4 b3 09 4a
        E 4 b3 09 05
        E 4 b3 09 1f
        E 4 b3 09 3b
        E 4 b3 09 4c
        E 4 b3 09 61
        E 4 b3 09 3e
        E 4 b3 09 2a
        E 4 b3 09 1b
        E 4 b3 09 46
        E 4 b3 09 49
        E 4 b3 09 59
        E 4 b3 09 63
        E 4 b3 09 2f
        E 4 b3 09 40
        E 4 b3 09 45
        E 4 b3 09 35
        E 4 b3 09 5f
        E 4 b3 09 0f
        E 4 b3 09 24
        E 4 b3 09 43
        E 13 b3 09 16
        E 13 b3 09 4c
        E 13 b3 09 32
        E 13 b3 09 07
        E 13 b3 09 48
        E 13 b3 09 3f
        E 13 b3 09 09
        E 13 b3 09 08
        E 13 b3 09 30
        E 13 b3 09 5f
        E 13 b3 09 50
        E 13 b3 09 58
        E 13 b3 09 3f
        E 13 b3 09 0b
        E 13 b3 09 13
        E 13 b3 09 44
        E 13 b3 09 37
        E 13 b3 09 1c
        E 13 b3 09 14
        E 13 b3 09 1b
        E 13 b3 09 4f
        E 13 b3 09 2f
        E 13 b3 09 17
        E 13 b3 09 3a
        E 13 b3 09 64
        E 13 b3 09 00
        E 13 b3 09 0c
        E 13 b3 09 29
        E 13 b3 09 22
        E 13 b3 09 53
        E 13 b3 09 15
        E 13 b3 09 06
        E 13 b3 09 0f
        E 13 b3 09 11
        E 13 b3 09 5b
        E 13 b3 09 19
        E 13 b3 09 00
        E 13 b3 09 4b
        E 13 b3 09 23
        E 13 b3 09 14
        E 13 b3 09 28
        E 13 b3 09 1a
        E 13 b3 09 56
        E 13 b3 09 55
        E 13 b3 09 65
        E 13 b3 09 54
        E 13 b3 09 2b
        E 13 b3 09 5e
        E 13 b3 09 48
        E 13 b3 09 0b
        E 13 b3 09 2c
        E 13 b3 09 36
        E 13 b3 09 60
        E 13 b3 09 4d
        E 13 b3 09 37
        E 13 b3 09 38
        E 13 b3 09 04
        E 13 b3 09 0a
        E 13 b3 09 5d
        E 13 b3 09 51
        E 13 b3 09 2b
        E 13 b3 09 1f
        E 13 b3 09 0d
        E 13 b3 09 2d
        E 13 b3 09 1e
        E 13 b3 09 18
        E 13 b3 09 26
        E 13 b3 09 34
        E 13 b3 09 3d
        E 13 b3 09 41
        E 13 b3 09 10
        E 13 b3 09 3c
        E 13 b3 09 5a
        E 13 b3 09 33
        E 13 b3 09 3b
        E 13 b3 09 02
        E 13 b3 09 07
        E 13 b3 09 63
        E 13 b3 09 42
        E 13 b3 09 12
        E 13 b3 09 5c
        E 13 b3 09 20
        E 13 b3 09 27
        E 13 b3 09 31
        E 13 b3 09 28
        E 13 b3 09 44
        E 13 b3 09 52
        E 13 b3 09 1d
        E 13 b3 09 39
        E 13 b3 09 17
        E 13 b3 09 5b
        E 13 b3 09 54
        E 13 b3 09 2e
        E 13 b3 09 24
        E 13 b3 09 50
        E 13 b3 09 25
        E 13 b3 09 47
        E 13 b3 09 0e
        E 13 b3 09 01
        E 13 b3 09 21
        E 13 b3 09 33
        E 13 b3 09 57
        E 13 b3 09 4e
        E 13 b3 09 03
        E 13 b3 09 57
        E 13 b3 09 4a
        E 13 b3 09 05
        E 13 b3 09 1f
        E 13 b3 09 3b
        E 13 b3 09 4c
        E 13 b3 09 61
        E 13 b3 09 3e
        E 13 b3 09 2a
        E 13 b3 09 1b
        E 13 b3 09 46
        E 13 b3 09 49
        E 13 b3 09 59
        E 13 b3 09 63
        E 13 b3 09 2f
        E 13 b3 09 40
        E 13 b3 09 45
        E 13 b3 09 35
        E 13 b3 09 5f
        E 13 b3 09 0f
        E 13 b3 09 24
        E 13 b3 09 43
        E 3 b3 09 10
        E 3 b3 09 39
        E 3 b3 09 25
        E 3 b3 09 06
        E 3 b3 09 36
        E 3 b3 09 30
        E 3 b3 09 07
        E 3 b3 09 06
        E 3 b3 09 24
        E 3 b3 09 48
        E 3 b3 09 3c
        E 3 b3 09 42
        E 3 b3 09 2f
        E 3 b3 09 08
        E 3 b3 09 0e
        E 3 b3 09 33
        E 3 b3 09 2a
        E 3 b3 09 15
        E 3 b3 09 0f
        E 3 b3 09 14
        E 3 b3 09 3b
        E 3 b3 09 23
        E 3 b3 09 12
        E 3 b3 09 2b
        E 3 b3 09 4b
        E 3 b3 09 00
        E 3 b3 09 09
        E 3 b3 09 1f
        E 3 b3 09 19
        E 3 b3 09 3e
        E 3 b3 09 10
        E 3 b3 09 04
        E 3 b3 09 0c
        E 3 b3 09 0d
        E 3 b3 09 45
        E 3 b3 09 13
        E 3 b3 09 00
        E 3 b3 09 38
        E 3 b3 09 1a
        E 3 b3 09 0f
        E 3 b3 09 1e
        E 3 b3 09 13
        E 3 b3 09 40
        E 3 b3 09 40
        E 3 b3 09 4c
        E 3 b3 09 3f
        E 3 b3 09 21
        E 3 b3 09 46
        E 3 b3 09 36
        E 3 b3 09 09
        E 3 b3 09 21
        E 3 b3 09 28
        E 3 b3 09 48
        E 3 b3 09 3a
        E 3 b3 09 29
        E 3 b3 09 2a
        E 3 b3 09 03
        E 3 b3 09 07
        E 3 b3 09 46
        E 3 b3 09 3d
        E 3 b3 09 20
        E 3 b3 09 18
        E 3 b3 09 0a
        E 3 b3 09 22
        E 3 b3 09 16
        E 3 b3 09 12
        E 3 b3 09 1c
        E 3 b3 09 27
        E 3 b3 09 2e
        E 3 b3 09 31
        E 3 b3 09 0c
        E 3 b3 09 2d
        E 3 b3 09 43
        E 3 b3 09 27
        E 3 b3 09 2c
        E 3 b3 09 01
        E 3 b3 09 05
        E 3 b3 09 4b
        E 3 b3 09 31
        E 3 b3 09 0d
        E 3 b3 09 45
        E 3 b3 09 18
        E 3 b3 09 1d
        E 3 b3 09 25
        E 3 b3 09 1e
        E 3 b3 09 33
        E 3 b3 09 3d
        E 3 b3 09 16
        E 3 b3 09 2b
        E 3 b3 09 11
        E 3 b3 09 44
        E 3 b3 09 3f
        E 3 b3 09 22
        E 3 b3 09 1b
        E 3 b3 09 3c
        E 3 b3 09 1c
        E 3 b3 09 35
        E 3 b3 09 0a
        E 3 b3 09 01
        E 3 b3 09 19
        E 3 b3 09 26
        E 3 b3 09 41
        E 3 b3 09 3a
        E 3 b3 09 02
        E 3 b3 09 42
        E 3 b3 09 37
        E 3 b3 09 04
        E 3 b3 09 17
        E 3 b3 09 2d
        E 3 b3 09 39
        E 3 b3 09 49
        E 3 b3 09 2e
        E 3 b3 09 1f
        E 3 b3 09 15
        E 3 b3 09 34
        E 3 b3 09 37
        E 3 b3 09 43
        E 3 b3 09 4a
        E 3 b3 09 24
        E 3 b3 09 30
        E 3 b3 09 34
        E 3 b3 09 28
        E 3 b3 09 47
        E 3 b3 09 0b
        E 3 b3 09 1b
        E 3 b3 09 32
        E 13 b3 09 0b
        E 13 b3 09 26
        E 13 b3 09 19
        E 13 b3 09 04
        E 13 b3 09 24
        E 13 b3 09 20
        E 13 b3 09 04
        E 13 b3 09 04
        E 13 b3 09 18
        E 13 b3 09 30
        E 13 b3 09 28
        E 13 b3 09 2c
        E 13 b3 09 1f
        E 13 b3 09 05
        E 13 b3 09 09
        E 13 b3 09 22
        E 13 b3 09 1c
        E 13 b3 09 0e
        E 13 b3 09 0a
        E 13 b3 09 0d
        E 13 b3 09 27
        E 13 b3 09 17
        E 13 b3 09 0c
        E 13 b3 09 1d
        E 13 b3 09 32
        E 13 b3 09 00
        E 13 b3 09 06
        E 13 b3 09 14
        E 13 b3 09 11
        E 13 b3 09 29
        E 13 b3 09 0a
        E 13 b3 09 03
        E 13 b3 09 08
        E 13 b3 09 08
        E 13 b3 09 2e
        E 13 b3 09 0c
        E 13 b3 09 00
        E 13 b3 09 25
        E 13 b3 09 11
        E 13 b3 09 0a
        E 13 b3 09 14
        E 13 b3 09 0d
        E 13 b3 09 2b
        E 13 b3 09 2a
        E 13 b3 09 32
        E 13 b3 09 2a
        E 13 b3 09 16
        E 13 b3 09 2f
        E 13 b3 09 24
        E 13 b3 09 06
        E 13 b3 09 16
        E 13 b3 09 1b
        E 13 b3 09 30
        E 13 b3 09 26
        E 13 b3 09 1b
        E 13 b3 09 1c
        E 13 b3 09 02
        E 13 b3 09 05
        E 13 b3 09 2e
        E 13 b3 09 28
        E 13 b3 09 15
        E 13 b3 09 10
        E 13 b3 09 06
        E 13 b3 09 16
        E 13 b3 09 0f
        E 13 b3 09 0c
        E 13 b3 09 13
        E 13 b3 09 1a
        E 13 b3 09 1e
        E 13 b3 09 20
        E 13 b3 09 08
        E 13 b3 09 1e
        E 13 b3 09 2d
        E 13 b3 09 1a
        E 13 b3 09 1d
        E 13 b3 09 01
        E 13 b3 09 03
        E 13 b3 09 32
        E 13 b3 09 21
        E 13 b3 09 09
        E 13 b3 09 2e
        E 13 b3 09 10
        E 13 b3 09 13
        E 13 b3 09 18
        E 13 b3 09 14
        E 13 b3 09 22
        E 13 b3 09 29
        E 13 b3 09 0e
        E 13 b3 09 1c
        E 13 b3 09 0b
        E 13 b3 09 2d
        E 13 b3 09 2a
        E 13 b3 09 17
        E 13 b3 09 12
        E 13 b3 09 28
        E 13 b3 09 12
        E 13 b3 09 23
        E 13 b3 09 07
        E 13 b3 09 00
        E 13 b3 09 10
        E 13 b3 09 19
        E 13 b3 09 2b
        E 13 b3 09 27
        E 13 b3 09 01
        E 13 b3 09 2c
        E 13 b3 09 25
        E 13 b3 09 02
        E 13 b3 09 0f
        E 13 b3 09 1e
        E 13 b3 09 26
        E 13 b3 09 30
        E 13 b3 09 1f
        E 13 b3 09 15
        E 13 b3 09 0e
        E 13 b3 09 23
        E 13 b3 09 24
        E 13 b3 09 2c
        E 13 b3 09 31
        E 13 b3 09 18
        E 13 b3 09 20
        E 13 b3 09 22
        E 13 b3 09 1a
        E 13 b3 09 2f
        E 13 b3 09 07
        E 13 b3 09 12
        E 13 b3 09 21
        E 7 b3 09 13
        E 7 b3 09 43
        E 7 b3 09 2c
        E 7 b3 09 07
        E 7 b3 09 3e
        E 7 b3 09 38
        E 7 b3 09 08
        E 7 b3 09 07
        E 7 b3 09 2a
        E 7 b3 09 54
        E 7 b3 09 46
        E 7 b3 09 4d
        E 7 b3 09 37
        E 7 b3 09 09
        E 7 b3 09 10
        E 7 b3 09 3c
        E 7 b3 09 31
        E 7 b3 09 19
        E 7 b3 09 11
        E 7 b3 09 17
        E 7 b3 09 45
        E 7 b3 09 29
        E 7 b3 09 15
        E 7 b3 09 33
        E 7 b3 09 58
        E 7 b3 09 00
        E 7 b3 09 0b
        E 7 b3 09 24
        E 7 b3 09 1e
        E 7 b3 09 48
        E 7 b3 09 12
        E 7 b3 09 05
        E 7 b3 09 0e
        E 7 b3 09 0f
        E 7 b3 09 50
        E 7 b3 09 16
        E 7 b3 09 00
        E 7 b3 09 41
        E 7 b3 09 1e
        E 7 b3 09 12
        E 7 b3 09 23
        E 7 b3 09 17
        E 7 b3 09 4b
        E 7 b3 09 4a
        E 7 b3 09 58
        E 7 b3 09 4a
        E 7 b3 09 26
        E 7 b3 09 52
        E 7 b3 09 3f
        E 7 b3 09 0a
        E 7 b3 09 27
        E 7 b3 09 2f
        E 7 b3 09 54
        E 7 b3 09 43
        E 7 b3 09 30
        E 7 b3 09 31
        E 7 b3 09 04
        E 7 b3 09 09
        E 7 b3 09 51
        E 7 b3 09 47
        E 7 b3 09 25
        E 7 b3 09 1c
        E 7 b3 09 0b
        E 7 b3 09 27
        E 7 b3 09 1a
        E 7 b3 09 15
        E 7 b3 09 21
        E 7 b3 09 2e
        E 7 b3 09 35
        E 7 b3 09 39
        E 7 b3 09 0e
        E 7 b3 09 35
        E 7 b3 09 4f
        E 7 b3 09 2d
        E 7 b3 09 33
        E 7 b3 09 02
        E 7 b3 09 06
        E 7 b3 09 57
        E 7 b3 09 3a
        E 7 b3 09 10
        E 7 b3 09 51
        E 7 b3 09 1c
        E 7 b3 09 22
        E 7 b3 09 2b
        E 7 b3 09 23
        E 7 b3 09 3b
        E 7 b3 09 48
        E 7 b3 09 19
        E 7 b3 09 32
        E 7 b3 09 14
        E 7 b3 09 4f
        E 7 b3 09 49
        E 7 b3 09 28
        E 7 b3 09 20
        E 7 b3 09 46
        E 7 b3 09 20
        E 7 b3 09 3e
        E 7 b3 09 0c
        E 7 b3 09 01
        E 7 b3 09 1d
        E 7 b3 09 2c
        E 7 b3 09 4c
        E 7 b3 09 44
        E 7 b3 09 02
        E 7 b3 09 4d
        E 7 b3 09 41
        E 7 b3 09 04
        E 7 b3 09 1b
        E 7 b3 09 34
        E 7 b3 09 42
        E 7 b3 09 55
        E 7 b3 09 36
        E 7 b3 09 25
        E 7 b3 09 18
        E 7 b3 09 3d
        E 7 b3 09 40
        E 7 b3 09 4e
        E 7 b3 09 56
        E 7 b3 09 2a
        E 7 b3 09 38
        E 7 b3 09 3c
        E 7 b3 09 2e
        E 7 b3 09 53
        E 7 b3 09 0d
        E 7 b3 09 1f
        E 7 b3 09 3a
        E 1 b3 09 0b
        E 1 b3 09 26
        E 1 b3 09 19
        E 1 b3 09 04
        E 1 b3 09 24
        E 1 b3 09 20
        E 1 b3 09 04
        E 1 b3 09 04
        E 1 b3 09 18
        E 1 b3 09 30
        E 1 b3 09 28
        E 1 b3 09 2c
        E 1 b3 09 1f
        E 1 b3 09 05
        E 1 b3 09 09
        E 1 b3 09 22
        E 1 b3 09 1c
        E 1 b3 09 0e
        E 1 b3 09 0a
        E 1 b3 09 0d
        E 1 b3 09 27
        E 1 b3 09 17
        E 1 b3 09 0c
        E 1 b3 09 1d
        E 1 b3 09 32
        E 1 b3 09 00
        E 1 b3 09 06
        E 1 b3 09 14
        E 1 b3 09 11
        E 1 b3 09 29
        E 1 b3 09 0a
        E 1 b3 09 03
        E 1 b3 09 08
        E 1 b3 09 08
        E 1 b3 09 2e
        E 1 b3 09 0c
        E 1 b3 09 00
        E 1 b3 09 25
        E 1 b3 09 11
        E 1 b3 09 0a
        E 1 b3 09 14
        E 1 b3 09 0d
        E 1 b3 09 2b
        E 1 b3 09 2a
        E 1 b3 09 32
        E 1 b3 09 2a
        E 1 b3 09 16
        E 1 b3 09 2f
        E 1 b3 09 24
        E 1 b3 09 06
        E 1 b3 09 16
        E 1 b3 09 1b
        E 1 b3 09 30
        E 1 b3 09 26
        E 1 b3 09 1b
        E 1 b3 09 1c
        E 1 b3 09 02
        E 1 b3 09 05
        E 1 b3 09 2e
        E 1 b3 09 28
        E 1 b3 09 15
        E 1 b3 09 10
        E 1 b3 09 06
        E 1 b3 09 16
        E 1 b3 09 0f
        E 1 b3 09 0c
        E 1 b3 09 13
        E 1 b3 09 1a
        E 1 b3 09 1e
        E 1 b3 09 20
        E 1 b3 09 08
        E 1 b3 09 1e
        E 1 b3 09 2d
        E 1 b3 09 1a
        E 1 b3 09 1d
        E 1 b3 09 01
        E 1 b3 09 03
        E 1 b3 09 32
        E 1 b3 09 21
        E 1 b3 09 09
        E 1 b3 09 2e
        E 1 b3 09 10
        E 1 b3 09 13
        E 1 b3 09 18
        E 1 b3 09 14
        E 1 b3 09 22
        E 1 b3 09 29
        E 1 b3 09 0e
        E 1 b3 09 1c
        E 1 b3 09 0b
        E 1 b3 09 2d
        E 1 b3 09 2a
        E 1 b3 09 17
        E 1 b3 09 12
        E 1 b3 09 28
        E 1 b3 09 12
        E 1 b3 09 23
        E 1 b3 09 07
        E 1 b3 09 00
        E 1 b3 09 10
        E 1 b3 09 19
        E 1 b3 09 2b
        E 1 b3 09 27
        E 1 b3 09 01
        E 1 b3 09 2c
        E 1 b3 09 25
        E 1 b3 09 02
        E 1 b3 09 0f
        E 1 b3 09 1e
        E 1 b3 09 26
        E 1 b3 09 30
        E 1 b3 09 1f
        E 1 b3 09 15
        E 1 b3 09 0e
        E 1 b3 09 23
        E 1 b3 09 24
        E 1 b3 09 2c
        E 1 b3 09 31
        E 1 b3 09 18
        E 1 b3 09 20
        E 1 b3 09 22
        E 1 b3 09 1a
        E 1 b3 09 2f
        E 1 b3 09 07
        E 1 b3 09 12
        E 1 b3 09 21
        E 4 b3 09 16
        E 4 b3 09 4c
        E 4 b3 09 32
        E 4 b3 09 07
        E 4 b3 09 48
        E 4 b3 09 3f
        E 4 b3 09 09
        E 4 b3 09 08
        E 4 b3 09 30
        E 4 b3 09 5f
        E 4 b3 09 50
        E 4 b3 09 58
        E 4 b3 09 3f
        E 4 b3 09 0b
        E 4 b3 09 13
        E 4 b3 09 44
        E 4 b3 09 37
        E 4 b3 09 1c
        E 4 b3 09 14
        E 4 b3 09 1b
        E 4 b3 09 4f
        E 4 b3 09 2f
        E 4 b3 09 17
        E 4 b3 09 3a
        E 4 b3 09 64
        E 4 b3 09 00
        E 4 b3 09 0c
        E 4 b3 09 29
        E 4 b3 09 22
        E 4 b3 09 53
        E 4 b3 09 15
        E 4 b3 09 06
        E 4 b3 09 0f
        E 4 b3 09 11
        E 4 b3 09 5b
        E 4 b3 09 19
        E 4 b3 09 00
        E 4 b3 09 4b
        E 4 b3 09 23
        E 4 b3 09 14
        E 4 b3 09 28
        E 4 b3 09 1a
        E 4 b3 09 56
        E 4 b3 09 55
        E 4 b3 09 65
        E 4 b3 09 54
        E 4 b3 09 2b
        E 4 b3 09 5e
        E 4 b3 09 48
        E 4 b3 09 0b
        E 4 b3 09 2c
        E 4 b3 09 36
        E 4 b3 09 60
        E 4 b3 09 4d
        E 4 b3 09 37
        E 4 b3 09 38
        E 4 b3 09 04
        E 4 b3 09 0a
        E 4 b3 09 5d
        E 4 b3 09 51
        E 4 b3 09 2b
        E 4 b3 09 1f
        E 4 b3 09 0d
        E 4 b3 09 2d
        E 4 b3 09 1e
        E 4 b3 09 18
        E 4 b3 09 26
        E 4 b3 09 34
        E 4 b3 09 3d
        E 4 b3 09 41
        E 4 b3 09 10
        E 4 b3 09 3c
        E 4 b3 09 5a
        E 4 b3 09 33
        E 4 b3 09 3b
        E 4 b3 09 02
        E 4 b3 09 07
        E 4 b3 09 63
        E 4 b3 09 42
        E 4 b3 09 12
        E 4 b3 09 5c
        E 4 b3 09 20
        E 4 b3 09 27
        E 4 b3 09 31
        E 4 b3 09 28
        E 4 b3 09 44
        E 4 b3 09 52
        E 4 b3 09 1d
        E 4 b3 09 39
        E 4 b3 09 17
        E 4 b3 09 5b
        E 4 b3 09 54
        E 4 b3 09 2e
        E 4 b3 09 24
        E 4 b3 09 50
        E 4 b3 09 25
        E 4 b3 09 47
        E 4 b3 09 0e
        E 4 b3 09 01
        E 4 b3 09 21
        E 4 b3 09 33
        E 4 b3 09 57
        E 4 b3 09 4e
        E 4 b3 09 03
        E 4 b3 09 57
        E 4 b3 09 4a
        E 4 b3 09 05
        E 4 b3 09 1f
        E 4 b3 09 3b
        E 4 b3 09 4c
        E 4 b3 09 61
        E 4 b3 09 3e
        E 4 b3 09 2a
        E 4 b3 09 1b
        E 4 b3 09 46
        E 4 b3 09 49
        E 4 b3 09 59
        E 4 b3 09 63
        E 4 b3 09 2f
        E 4 b3 09 40
        E 4 b3 09 45
        E 4 b3 09 35
        E 4 b3 09 5f
        E 4 b3 09 0f
        E 4 b3 09 24
        E 4 b3 09 43
        E 13 b3 09 16
        E 13 b3 09 4c
        E 13 b3 09 32
        E 13 b3 09 07
        E 13 b3 09 48
        E 13 b3 09 3f
        E 13 b3 09 09
        E 13 b3 09 08
        E 13 b3 09 30
        E 13 b3 09 5f
        E 13 b3 09 50
        E 13 b3 09 58
        E 13 b3 09 3f
        E 13 b3 09 0b
        E 13 b3 09 13
        E 13 b3 09 44
        E 13 b3 09 37
        E 13 b3 09 1c
        E 13 b3 09 14
        E 13 b3 09 1b
        E 13 b3 09 4f
        E 13 b3 09 2f
        E 13 b3 09 17
        E 13 b3 09 3a
        E 13 b3 09 64
        E 13 b3 09 00
        E 13 b3 09 0c
        E 13 b3 09 29
        E 13 b3 09 22
        E 13 b3 09 53
        E 13 b3 09 15
        E 13 b3 09 06
        E 13 b3 09 0f
        E 13 b3 09 11
        E 13 b3 09 5b
        E 13 b3 09 19
        E 13 b3 09 00
        E 13 b3 09 4b
        E 13 b3 09 23
        E 13 b3 09 14
        E 13 b3 09 28
        E 13 b3 09 1a
        E 13 b3 09 56
        E 13 b3 09 55
        E 13 b3 09 65
        E 13 b3 09 54
        E 13 b3 09 2b
        E 13 b3 09 5e
        E 13 b3 09 48
        E 13 b3 09 0b
        E 13 b3 09 2c
        E 13 b3 09 36
        E 13 b3 09 60
        E 13 b3 09 4d
        E 13 b3 09 37
        E 13 b3 09 38
        E 13 b3 09 04
        E 13 b3 09 0a
        E 13 b3 09 5d
        E 13 b3 09 51
        E 13 b3 09 2b
        E 13 b3 09 1f
        E 13 b3 09 0d
        E 13 b3 09 2d
        E 13 b3 09 1e
        E 13 b3 09 18
        E 13 b3 09 26
        E 13 b3 09 34
        E 13 b3 09 3d
        E 13 b3 09 41
        E 13 b3 09 10
        E 13 b3 09 3c
        E 13 b3 09 5a
        E 13 b3 09 33
        E 13 b3 09 3b
        E 13 b3 09 02
        E 13 b3 09 07
        E 13 b3 09 63
        E 13 b3 09 42
        E 13 b3 09 12
        E 13 b3 09 5c
        E 13 b3 09 20
        E 13 b3 09 27
        E 13 b3 09 31
        E 13 b3 09 28
        E 13 b3 09 44
        E 13 b3 09 52
        E 13 b3 09 1d
        E 13 b3 09 39
        E 13 b3 09 17
        E 13 b3 09 5b
        E 13 b3 09 54
        E 13 b3 09 2e
        E 13 b3 09 24
        E 13 b3 09 50
        E 13 b3 09 25
        E 13 b3 09 47
        E 13 b3 09 0e
        E 13 b3 09 01
        E 13 b3 09 21
        E 13 b3 09 33
        E 13 b3 09 57
        E 13 b3 09 4e
        E 13 b3 09 03
        E 13 b3 09 57
        E 13 b3 09 4a
        E 13 b3 09 05
        E 13 b3 09 1f
        E 13 b3 09 3b
        E 13 b3 09 4c
        E 13 b3 09 61
        E 13 b3 09 3e
        E 13 b3 09 2a
        E 13 b3 09 1b
        E 13 b3 09 46
        E 13 b3 09 49
        E 13 b3 09 59
        E 13 b3 09 63
        E 13 b3 09 2f
        E 13 b3 09 40
        E 13 b3 09 45
        E 13 b3 09 35
        E 13 b3 09 5f
        E 13 b3 09 0f
        E 13 b3 09 24
        E 13 b3 09 43
        E 3 b3 09 10
        E 3 b3 09 39
        E 3 b3 09 25
        E 3 b3 09 06
        E 3 b3 09 36
        E 3 b3 09 30
        E 3 b3 09 07
        E 3 b3 09 06
        E 3 b3 09 24
        E 3 b3 09 48
        E 3 b3 09 3c
        E 3 b3 09 42
        E 3 b3 09 2f
        E 3 b3 09 08
        E 3 b3 09 0e
        E 3 b3 09 33
        E 3 b3 09 2a
        E 3 b3 09 15
        E 3 b3 09 0f
        E 3 b3 09 14
        E 3 b3 09 3b
        E 3 b3 09 23
        E 3 b3 09 12
        E 3 b3 09 2b
        E 3 b3 09 4b
        E 3 b3 09 00
        E 3 b3 09 09
        E 3 b3 09 1f
        E 3 b3 09 19
        E 3 b3 09 3e
        E 3 b3 09 10
        E 3 b3 09 04
        E 3 b3 09 0c
        E 3 b3 09 0d
        E 3 b3 09 45
        E 3 b3 09 13
        E 3 b3 09 00
        E 3 b3 09 38
        E 3 b3 09 1a
        E 3 b3 09 0f
        E 3 b3 09 1e
        E 3 b3 09 13
        E 3 b3 09 40
        E 3 b3 09 40
        E 3 b3 09 4c
        E 3 b3 09 3f
        E 3 b3 09 21
        E 3 b3 09 46
        E 3 b3 09 36
        E 3 b3 09 09
        E 3 b3 09 21
        E 3 b3 09 28
        E 3 b3 09 48
        E 3 b3 09 3a
        E 3 b3 09 29
        E 3 b3 09 2a
        E 3 b3 09 03
        E 3 b3 09 07
        E 3 b3 09 46
        E 3 b3 09 3d
        E 3 b3 09 20
        E 3 b3 09 18
        E 3 b3 09 0a
        E 3 b3 09 22
        E 3 b3 09 16
        E 3 b3 09 12
        E 3 b3 09 1c
        E 3 b3 09 27
        E 3 b3 09 2e
        E 3 b3 09 31
        E 3 b3 09 0c
        E 3 b3 09 2d
        E 3 b3 09 43
        E 3 b3 09 27
        E 3 b3 09 2c
        E 3 b3 09 01
        E 3 b3 09 05
        E 3 b3 09 4b
        E 3 b3 09 31
        E 3 b3 09 0d
        E 3 b3 09 45
        E 3 b3 09 18
        E 3 b3 09 1d
        E 3 b3 09 25
        E 3 b3 09 1e
        E 3 b3 09 33
        E 3 b3 09 3d
        E 3 b3 09 16
        E 3 b3 09 2b
        E 3 b3 09 11
        E 3 b3 09 44
        E 3 b3 09 3f
        E 3 b3 09 22
        E 3 b3 09 1b
        E 3 b3 09 3c
        E 3 b3 09 1c
        E 3 b3 09 35
        E 3 b3 09 0a
        E 3 b3 09 01
        E 3 b3 09 19
        E 3 b3 09 26
        E 3 b3 09 41
        E 3 b3 09 3a
        E 3 b3 09 02
        E 3 b3 09 42
        E 3 b3 09 37
        E 3 b3 09 04
        E 3 b3 09 17
        E 3 b3 09 2d
        E 3 b3 09 39
        E 3 b3 09 49
        E 3 b3 09 2e
        E 3 b3 09 1f
        E 3 b3 09 15
        E 3 b3 09 34
        E 3 b3 09 37
        E 3 b3 09 43
        E 3 b3 09 4a
        E 3 b3 09 24
        E 3 b3 09 30
        E 3 b3 09 34
        E 3 b3 09 28
        E 3 b3 09 47
        E 3 b3 09 0b
        E 3 b3 09 1b
        E 3 b3 09 32
        E 13 b3 09 0b
        E 13 b3 09 26
        E 13 b3 09 19
        E 13 b3 09 04
        E 13 b3 09 24
        E 13 b3 09 20
        E 13 b3 09 04
        E 13 b3 09 04
        E 13 b3 09 18
        E 13 b3 09 30
        E 13 b3 09 28
        E 13 b3 09 2c
        E 13 b3 09 1f
        E 13 b3 09 05
        E 13 b3 09 09
        E 13 b3 09 22
        E 13 b3 09 1c
        E 13 b3 09 0e
        E 13 b3 09 0a
        E 13 b3 09 0d
        E 13 b3 09 27
        E 13 b3 09 17
        E 13 b3 09 0c
        E 13 b3 09 1d
        E 13 b3 09 32
        E 13 b3 09 00
        E 13 b3 09 06
        E 13 b3 09 14
        E 13 b3 09 11
        E 13 b3 09 29
        E 13 b3 09 0a
        E 13 b3 09 03
        E 13 b3 09 08
        E 13 b3 09 08
        E 13 b3 09 2e
        E 13 b3 09 0c
        E 13 b3 09 00
        E 13 b3 09 25
        E 13 b3 09 11
        E 13 b3 09 0a
        E 13 b3 09 14
        E 13 b3 09 0d
        E 13 b3 09 2b
        E 13 b3 09 2a
        E 13 b3 09 32
        E 13 b3 09 2a
        E 13 b3 09 16
        E 13 b3 09 2f
        E 13 b3 09 24
        E 13 b3 09 06
        E 13 b3 09 16
        E 13 b3 09 1b
        E 13 b3 09 30
        E 13 b3 09 26
        E 13 b3 09 1b
        E 13 b3 09 1c
        E 13 b3 09 02
        E 13 b3 09 05
        E 13 b3 09 2e
        E 13 b3 09 28
        E 13 b3 09 15
        E 13 b3 09 10
        E 13 b3 09 06
        E 13 b3 09 16
        E 13 b3 09 0f
        E 13 b3 09 0c
        E 13 b3 09 13
        E 13 b3 09 1a
        E 13 b3 09 1e
        E 13 b3 09 20
        E 13 b3 09 08
        E 13 b3 09 1e
        E 13 b3 09 2d
        E 13 b3 09 1a
        E 13 b3 09 1d
        E 13 b3 09 01
        E 13 b3 09 03
        E 13 b3 09 32
        E 13 b3 09 21
        E 13 b3 09 09
        E 13 b3 09 2e
        E 13 b3 09 10
        E 13 b3 09 13
        E 13 b3 09 18
        E 13 b3 09 14
        E 13 b3 09 22
        E 13 b3 09 29
        E 13 b3 09 0e
        E 13 b3 09 1c
        E 13 b3 09 0b
        E 13 b3 09 2d
        E 13 b3 09 2a
        E 13 b3 09 17
        E 13 b3 09 12
        E 13 b3 09 28
        E 13 b3 09 12
        E 13 b3 09 23
        E 13 b3 09 07
        E 13 b3 09 00
        E 13 b3 09 10
        E 13 b3 09 19
        E 13 b3 09 2b
        E 13 b3 09 27
        E 13 b3 09 01
        E 13 b3 09 2c
        E 13 b3 09 25
        E 13 b3 09 02
        E 13 b3 09 0f
        E 13 b3 09 1e
        E 13 b3 09 26
        E 13 b3 09 30
        E 13 b3 09 1f
        E 13 b3 09 15
        E 13 b3 09 0e
        E 13 b3 09 23
        E 13 b3 09 24
        E 13 b3 09 2c
        E 13 b3 09 31
        E 13 b3 09 18
        E 13 b3 09 20
        E 13 b3 09 22
        E 13 b3 09 1a
        E 13 b3 09 2f
        E 13 b3 09 07
        E 13 b3 09 12
        E 13 b3 09 21
        E 7 b3 09 13
        E 7 b3 09 43
        E 7 b3 09 2c
        E 7 b3 09 07
        E 7 b3 09 3e
        E 7 b3 09 38
        E 7 b3 09 08
        E 7 b3 09 07
        E 7 b3 09 2a
        E 7 b3 09 54
        E 7 b3 09 46
        E 7 b3 09 4d
        E 7 b3 09 37
        E 7 b3 09 09
        E 7 b3 09 10
        E 7 b3 09 3c
        E 7 b3 09 31
        E 7 b3 09 19
        E 7 b3 09 11
        E 7 b3 09 17
        E 7 b3 09 45
        E 7 b3 09 29
        E 7 b3 09 15
        E 7 b3 09 33
        E 7 b3 09 58
        E 7 b3 09 00
        E 7 b3 09 0b
        E 7 b3 09 24
        E 7 b3 09 1e
        E 7 b3 09 48
        E 7 b3 09 12
        E 7 b3 09 05
        E 7 b3 09 0e
        E 7 b3 09 0f
        E 7 b3 09 50
        E 7 b3 09 16
        E 7 b3 09 00
        E 7 b3 09 41
        E 7 b3 09 1e
        E 7 b3 09 12
        E 7 b3 09 23
        E 7 b3 09 17
        E 7 b3 09 4b
        E 7 b3 09 4a
        E 7 b3 09 58
        E 7 b3 09 4a
        E 7 b3 09 26
        E 7 b3 09 52
        E 7 b3 09 3f
        E 7 b3 09 0a
        E 7 b3 09 27
        E 7 b3 09 2f
        E 7 b3 09 54
        E 7 b3 09 43
        E 7 b3 09 30
        E 7 b3 09 31
        E 7 b3 09 04
        E 7 b3 09 09
        E 7 b3 09 51
        E 7 b3 09 47
        E 7 b3 09 25
        E 7 b3 09 1c
        E 7 b3 09 0b
        E 7 b3 09 27
        E 7 b3 09 1a
        E 7 b3 09 15
        E 7 b3 09 21
        E 7 b3 09 2e
        E 7 b3 09 35
        E 7 b3 09 39
        E 7 b3 09 0e
        E 7 b3 09 35
        E 7 b3 09 4f
        E 7 b3 09 2d
        E 7 b3 09 33
        E 7 b3 09 02
        E 7 b3 09 06
        E 7 b3 09 57
        E 7 b3 09 3a
        E 7 b3 09 10
        E 7 b3 09 51
        E 7 b3 09 1c
        E 7 b3 09 22
        E 7 b3 09 2b
        E 7 b3 09 23
        E 7 b3 09 3b
        E 7 b3 09 48
        E 7 b3 09 19
        E 7 b3 09 32
        E 7 b3 09 14
        E 7 b3 09 4f
        E 7 b3 09 49
        E 7 b3 09 28
        E 7 b3 09 20
        E 7 b3 09 46
        E 7 b3 09 20
        E 7 b3 09 3e
        E 7 b3 09 0c
        E 7 b3 09 01
        E 7 b3 09 1d
        E 7 b3 09 2c
        E 7 b3 09 4c
        E 7 b3 09 44
        E 7 b3 09 02
        E 7 b3 09 4d
        E 7 b3 09 41
        E 7 b3 09 04
        E 7 b3 09 1b
        E 7 b3 09 34
        E 7 b3 09 42
        E 7 b3 09 55
        E 7 b3 09 36
        E 7 b3 09 25
        E 7 b3 09 18
        E 7 b3 09 3d
        E 7 b3 09 40
        E 7 b3 09 4e
        E 7 b3 09 56
        E 7 b3 09 2a
        E 7 b3 09 38
        E 7 b3 09 3c
        E 7 b3 09 2e
        E 7 b3 09 53
        E 7 b3 09 0d
        E 7 b3 09 1f
        E 7 b3 09 3a
        E 1 b3 09 0b
        E 1 b3 09 26
        E 1 b3 09 19
        E 1 b3 09 04
        E 1 b3 09 24
        E 1 b3 09 20
        E 1 b3 09 04
        E 1 b3 09 04
        E 1 b3 09 18
        E 1 b3 09 30
        E 1 b3 09 28
        E 1 b3 09 2c
        E 1 b3 09 1f
        E 1 b3 09 05
        E 1 b3 09 09
        E 1 b3 09 22
        E 1 b3 09 1c
        E 1 b3 09 0e
        E 1 b3 09 0a
        E 1 b3 09 0d
        E 1 b3 09 27
        E 1 b3 09 17
        E 1 b3 09 0c
        E 1 b3 09 1d
        E 1 b3 09 32
        E 1 b3 09 00
        E 1 b3 09 06
        E 1 b3 09 14
        E 1 b3 09 11
        E 1 b3 09 29
        E 1 b3 09 0a
        E 1 b3 09 03
        E 1 b3 09 08
        E 1 b3 09 08
        E 1 b3 09 2e
        E 1 b3 09 0c
        E 1 b3 09 00
        E 1 b3 09 25
        E 1 b3 09 11
        E 1 b3 09 0a
        E 1 b3 09 14
        E 1 b3 09 0d
        E 1 b3 09 2b
        E 1 b3 09 2a
        E 1 b3 09 32
        E 1 b3 09 2a
        E 1 b3 09 16
        E 1 b3 09 2f
        E 1 b3 09 24
        E 1 b3 09 06
        E 1 b3 09 16
        E 1 b3 09 1b
        E 1 b3 09 30
        E 1 b3 09 26
        E 1 b3 09 1b
        E 1 b3 09 1c
        E 1 b3 09 02
        E 1 b3 09 05
        E 1 b3 09 2e
        E 1 b3 09 28
        E 1 b3 09 15
        E 1 b3 09 10
        E 1 b3 09 06
        E 1 b3 09 16
        E 1 b3 09 0f
        E 1 b3 09 0c
        E 1 b3 09 13
        E 1 b3 09 1a
        E 1 b3 09 1e
        E 1 b3 09 20
        E 1 b3 09 08
        E 1 b3 09 1e
        E 1 b3 09 2d
        E 1 b3 09 1a
        E 1 b3 09 1d
        E 1 b3 09 01
        E 1 b3 09 03
        E 1 b3 09 32
        E 1 b3 09 21
        E 1 b3 09 09
        E 1 b3 09 2e
        E 1 b3 09 10
        E 1 b3 09 13
        E 1 b3 09 18
        E 1 b3 09 14
        E 1 b3 09 22
        E 1 b3 09 29
        E 1 b3 09 0e
        E 1 b3 09 1c
        E 1 b3 09 0b
        E 1 b3 09 2d
        E 1 b3 09 2a
        E 1 b3 09 17
        E 1 b3 09 12
        E 1 b3 09 28
        E 1 b3 09 12
        E 1 b3 09 23
        E 1 b3 09 07
        E 1 b3 09 00
        E 1 b3 09 10
        E 1 b3 09 19
        E 1 b3 09 2b
        E 1 b3 09 27
        E 1 b3 09 01
        E 1 b3 09 2c
        E 1 b3 09 25
        E 1 b3 09 02
        E 1 b3 09 0f
        E 1 b3 09 1e
        E 1 b3 09 26
        E 1 b3 09 30
        E 1 b3 09 1f
        E 1 b3 09 15
        E 1 b3 09 0e
        E 1 b3 09 23
        E 1 b3 09 24
        E 1 b3 09 2c
        E 1 b3 09 31
        E 1 b3 09 18
        E 1 b3 09 20
        E 1 b3 09 22
        E 1 b3 09 1a
        E 1 b3 09 2f
        E 1 b3 09 07
        E 1 b3 09 12
        E 1 b3 09 21
        E 4 b3 09 16
        E 4 b3 09 4c
        E 4 b3 09 32
        E 4 b3 09 07
        E 4 b3 09 48
        E 4 b3 09 3f
        E 4 b3 09 09
        E 4 b3 09 08
        E 4 b3 09 30
        E 4 b3 09 5f
        E 4 b3 09 50
        E 4 b3 09 58
        E 4 b3 09 3f
        E 4 b3 09 0b
        E 4 b3 09 13
        E 4 b3 09 44
        E 4 b3 09 37
        E 4 b3 09 1c
        E 4 b3 09 14
        E 4 b3 09 1b
        E 4 b3 09 4f
        E 4 b3 09 2f
        E 4 b3 09 17
        E 4 b3 09 3a
        E 4 b3 09 64
        E 4 b3 09 00
        E 4 b3 09 0c
        E 4 b3 09 29
        E 4 b3 09 22
        E 4 b3 09 53
        E 4 b3 09 15
        E 4 b3 09 06
        E 4 b3 09 0f
        E 4 b3 09 11
        E 4 b3 09 5b
        E 4 b3 09 19
        E 4 b3 09 00
        E 4 b3 09 4b
        E 4 b3 09 23
        E 4 b3 09 14
        E 4 b3 09 28
        E 4 b3 09 1a
        E 4 b3 09 56
        E 4 b3 09 55
        E 4 b3 09 65
        E 4 b3 09 54
        E 4 b3 09 2b
        E 4 b3 09 5e
        E 4 b3 09 48
        E 4 b3 09 0b
        E 4 b3 09 2c
        E 4 b3 09 36
        E 4 b3 09 60
        E 4 b3 09 4d
        E 4 b3 09 37
        E 4 b3 09 38
        E 4 b3 09 04
        E 4 b3 09 0a
        E 4 b3 09 5d
        E 4 b3 09 51
        E 4 b3 09 2b
        E 4 b3 09 1f
        E 4 b3 09 0d
        E 4 b3 09 2d
        E 4 b3 09 1e
        E 4 b3 09 18
        E 4 b3 09 26
        E 4 b3 09 34
        E 4 b3 09 3d
        E 4 b3 09 41
        E 4 b3 09 10
        E 4 b3 09 3c
        E 4 b3 09 5a
        E 4 b3 09 33
        E 4 b3 09 3b
        E 4 b3 09 02
        E 4 b3 09 07
        E 4 b3 09 63
        E 4 b3 09 42
        E 4 b3 09 12
        E 4 b3 09 5c
        E 4 b3 09 20
        E 4 b3 09 27
        E 4 b3 09 31
        E 4 b3 09 28
        E 4 b3 09 44
        E 4 b3 09 52
        E 4 b3 09 1d
        E 4 b3 09 39
        E 4 b3 09 17
        E 4 b3 09 5b
        E 4 b3 09 54
        E 4 b3 09 2e
        E 4 b3 09 24
        E 4 b3 09 50
        E 4 b3 09 25
        E 4 b3 09 47
        E 4 b3 09 0e
        E 4 b3 09 01
        E 4 b3 09 21
        E 4 b3 09 33
        E 4 b3 09 57
        E 4 b3 09 4e
        E 4 b3 09 03
        E 4 b3 09 57
        E 4 b3 09 4a
        E 4 b3 09 05
        E 4 b3 09 1f
        E 4 b3 09 3b
        E 4 b3 09 4c
        E 4 b3 09 61
        E 4 b3 09 3e
        E 4 b3 09 2a
        E 4 b3 09 1b
        E 4 b3 09 46
        E 4 b3 09 49
        E 4 b3 09 59
        E 4 b3 09 63
        E 4 b3 09 2f
        E 4 b3 09 40
        E 4 b3 09 45
        E 4 b3 09 35
        E 4 b3 09 5f
        E 4 b3 09 0f
        E 4 b3 09 24
        E 4 b3 09 43
        E 13 b3 09 16
        E 13 b3 09 4c
        E 13 b3 09 32
        E 13 b3 09 07
        E 13 b3 09 48
        E 13 b3 09 3f
        E 13 b3 09 09
        E 13 b3 09 08
        E 13 b3 09 30
        E 13 b3 09 5f
        E 13 b3 09 50
        E 13 b3 09 58
        E 13 b3 09 3f
        E 13 b3 09 0b
        E 13 b3 09 13
        E 13 b3 09 44
        E 13 b3 09 37
        E 13 b3 09 1c
        E 13 b3 09 14
        E 13 b3 09 1b
        E 13 b3 09 4f
        E 13 b3 09 2f
        E 13 b3 09 17
        E 13 b3 09 3a
        E 13 b3 09 64
        E 13 b3 09 00
        E 13 b3 09 0c
        E 13 b3 09 29
        E 13 b3 09 22
        E 13 b3 09 53
        E 13 b3 09 15
        E 13 b3 09 06
        E 13 b3 09 0f
        E 13 b3 09 11
        E 13 b3 09 5b
        E 13 b3 09 19
        E 13 b3 09 00
        E 13 b3 09 4b
        E 13 b3 09 23
        E 13 b3 09 14
        E 13 b3 09 28
        E 13 b3 09 1a
        E 13 b3 09 56
        E 13 b3 09 55
        E 13 b3 09 65
        E 13 b3 09 54
        E 13 b3 09 2b
        E 13 b3 09 5e
        E 13 b3 09 48
        E 13 b3 09 0b
        E 13 b3 09 2c
        E 13 b3 09 36
        E 13 b3 09 60
        E 13 b3 09 4d
        E 13 b3 09 37
        E 13 b3 09 38
        E 13 b3 09 04
        E 13 b3 09 0a
        E 13 b3 09 5d
        E 13 b3 09 51
        E 13 b3 09 2b
        E 13 b3 09 1f
        E 13 b3 09 0d
        E 13 b3 09 2d
        E 13 b3 09 1e
        E 13 b3 09 18
        E 13 b3 09 26
        E 13 b3 09 34
        E 13 b3 09 3d
        E 13 b3 09 41
        E 13 b3 09 10
        E 13 b3 09 3c
        E 13 b3 09 5a
        E 13 b3 09 33
        E 13 b3 09 3b
        E 13 b3 09 02
        E 13 b3 09 07
        E 13 b3 09 63
        E 13 b3 09 42
        E 13 b3 09 12
        E 13 b3 09 5c
        E 13 b3 09 20
        E 13 b3 09 27
        E 13 b3 09 31
        E 13 b3 09 28
        E 13 b3 09 44
        E 13 b3 09 52
        E 13 b3 09 1d
        E 13 b3 09 39
        E 13 b3 09 17
        E 13 b3 09 5b
        E 13 b3 09 54
        E 13 b3 09 2e
        E 13 b3 09 24
        E 13 b3 09 50
        E 13 b3 09 25
        E 13 b3 09 47
        E 13 b3 09 0e
        E 13 b3 09 01
        E 13 b3 09 21
        E 13 b3 09 33
        E 13 b3 09 57
        E 13 b3 09 4e
        E 13 b3 09 03
        E 13 b3 09 57
        E 13 b3 09 4a
        E 13 b3 09 05
        E 13 b3 09 1f
        E 13 b3 09 3b
        E 13 b3 09 4c
        E 13 b3 09 61
        E 13 b3 09 3e
        E 13 b3 09 2a
        E 13 b3 09 1b
        E 13 b3 09 46
        E 13 b3 09 49
        E 13 b3 09 59
        E 13 b3 09 63
        E 13 b3 09 2f
        E 13 b3 09 40
        E 13 b3 09 45
        E 13 b3 09 35
        E 13 b3 09 5f
        E 13 b3 09 0f
        E 13 b3 09 24
        E 13 b3 09 43
        E 10 b3 09 01
        E 10 b3 09 02
        E 10 b3 09 04
        E 10 b3 09 05
        E 10 b3 09 07
        E 10 b3 09 08
        E 10 b3 09 09
        E 10 b3 09 0b
        E 10 b3 09 0c
        E 10 b3 09 0e
        E 10 b3 09 0f
        E 10 b3 09 10
        E 10 b3 09 12
        E 10 b3 09 13
        E 10 b3 09 15
        E 10 b3 09 16
        E 10 b3 09 17
        E 10 b3 09 19
        E 10 b3 09 1a
        E 10 b3 09 1c
        E 10 b3 09 1d
        E 10 b3 09 1e
        E 10 b3 09 20
        E 10 b3 09 21
        E 10 b3 09 23
        E 10 b3 09 24
        E 10 b3 09 25
        E 10 b3 09 27
        E 10 b3 09 28
        E 10 b3 09 2a
        E 10 b3 09 2b
        E 10 b3 09 2c
        E 10 b3 09 2e
        E 10 b3 09 2f
        E 10 b3 09 31
        E 10 b3 09 32
        E 10 b3 09 33
        E 10 b3 09 35
        E 10 b3 09 36
        E 10 b3 09 38
        E 10 b3 09 39
        E 10 b3 09 3a
        E 10 b3 09 3c
        E 10 b3 09 3d
        E 10 b3 09 3e
        E 10 b3 09 40
        E 10 b3 09 41
        E 10 b3 09 43
        E 10 b3 09 44
        E 10 b3 09 46
        E 10 b3 09 47
        E 10 b3 09 48
        E 10 b3 09 4a
        E 10 b3 09 4b
        E 10 b3 09 4d
        E 10 b3 09 4e
        E 10 b3 09 4f
        E 10 b3 09 51
        E 10 b3 09 52
        E 10 b3 09 54
        E 10 b3 09 55
        E 10 b3 09 56
        E 10 b3 09 58
        E 10 b3 09 58
        E 10 b3 09 58
        E 10 b3 09 56
        E 10 b3 09 55
        E 10 b3 09 54
        E 10 b3 09 52
        E 10 b3 09 51
        E 10 b3 09 4f
        E 10 b3 09 4e
        E 10 b3 09 4d
        E 10 b3 09 4b
        E 10 b3 09 4a
        E 10 b3 09 48
        E 10 b3 09 47
        E 10 b3 09 46
        E 10 b3 09 44
        E 10 b3 09 43
        E 10 b3 09 41
        E 10 b3 09 40
        E 10 b3 09 3e
        E 10 b3 09 3d
        E 10 b3 09 3c
        E 10 b3 09 3a
        E 10 b3 09 39
        E 10 b3 09 38
        E 10 b3 09 36
        E 10 b3 09 35
        E 10 b3 09 33
        E 10 b3 09 32
        E 10 b3 09 31
        E 10 b3 09 2f
        E 10 b3 09 2e
        E 10 b3 09 2c
        E 10 b3 09 2b
        E 10 b3 09 2a
        E 10 b3 09 28
        E 10 b3 09 27
        E 10 b3 09 25
        E 10 b3 09 24
        E 10 b3 09 23
        E 10 b3 09 21
        E 10 b3 09 20
        E 10 b3 09 1e
        E 10 b3 09 1d
        E 10 b3 09 1c
        E 10 b3 09 1a
        E 10 b3 09 19
        E 10 b3 09 17
        E 10 b3 09 16
        E 10 b3 09 15
        E 10 b3 09 13
        E 10 b3 09 12
        E 10 b3 09 10
        E 10 b3 09 0f
        E 10 b3 09 0e
        E 10 b3 09 0c
        E 10 b3 09 0b
        E 10 b3 09 09
        E 10 b3 09 08
        E 10 b3 09 07
        E 10 b3 09 05
        E 10 b3 09 04
        E 10 b3 09 02
        E 10 b3 09 01
        E 10 b3 09 00
        E 2 b3 09 00
        E 2 b3 09 01
        E 2 b3 09 02
        E 2 b3 09 03
        E 2 b3 09 04
        E 2 b3 09 04
        E 2 b3 09 05
        E 2 b3 09 06
        E 2 b3 09 07
        E 2 b3 09 08
        E 2 b3 09 08
        E 2 b3 09 09
        E 2 b3 09 0a
        E 2 b3 09 0b
        E 2 b3 09 0c
        E 2 b3 09 0c
        E 2 b3 09 0d
        E 2 b3 09 0e
        E 2 b3 09 0f
        E 2 b3 09 10
        E 2 b3 09 10
        E 2 b3 09 11
        E 2 b3 09 12
        E 2 b3 09 13
        E 2 b3 09 14
        E 2 b3 09 14
        E 2 b3 09 15
        E 2 b3 09 16
        E 2 b3 09 17
        E 2 b3 09 18
        E 2 b3 09 18
        E 2 b3 09 19
        E 2 b3 09 1a
        E 2 b3 09 1b
        E 2 b3 09 1c
        E 2 b3 09 1c
        E 2 b3 09 1d
        E 2 b3 09 1e
        E 2 b3 09 1f
        E 2 b3 09 20
        E 2 b3 09 20
        E 2 b3 09 21
        E 2 b3 09 22
        E 2 b3 09 23
        E 2 b3 09 24
        E 2 b3 09 24
        E 2 b3 09 25
        E 2 b3 09 26
        E 2 b3 09 27
        E 2 b3 09 28
        E 2 b3 09 28
        E 2 b3 09 29
        E 2 b3 09 2a
        E 2 b3 09 2b
        E 2 b3 09 2c
        E 2 b3 09 2c
        E 2 b3 09 2d
        E 2 b3 09 2e
        E 2 b3 09 2f
        E 2 b3 09 30
        E 2 b3 09 30
        E 2 b3 09 31
        E 2 b3 09 32
        E 2 b3 09 32
        E 2 b3 09 32
        E 2 b3 09 31
        E 2 b3 09 30
        E 2 b3 09 30
        E 2 b3 09 2f
        E 2 b3 09 2e
        E 2 b3 09 2d
        E 2 b3 09 2c
        E 2 b3 09 2c
        E 2 b3 09 2b
        E 2 b3 09 2a
        E 2 b3 09 29
        E 2 b3 09 28
        E 2 b3 09 28
        E 2 b3 09 27
        E 2 b3 09 26
        E 2 b3 09 25
        E 2 b3 09 24
        E 2 b3 09 24
        E 2 b3 09 23
        E 2 b3 09 22
        E 2 b3 09 21
        E 2 b3 09 20
        E 2 b3 09 20
        E 2 b3 09 1f
        E 2 b3 09 1e
        E 2 b3 09 1d
        E 2 b3 09 1c
        E 2 b3 09 1c
        E 2 b3 09 1b
        E 2 b3 09 1a
        E 2 b3 09 19
        E 2 b3 09 18
        E 2 b3 09 18
        E 2 b3 09 17
        E 2 b3 09 16
        E 2 b3 09 15
        E 2 b3 09 14
        E 2 b3 09 14
        E 2 b3 09 13
        E 2 b3 09 12
        E 2 b3 09 11
        E 2 b3 09 10
        E 2 b3 09 10
        E 2 b3 09 0f
        E 2 b3 09 0e
        E 2 b3 09 0d
        E 2 b3 09 0c
        E 2 b3 09 0c
        E 2 b3 09 0b
        E 2 b3 09 0a
        E 2 b3 09 09
        E 2 b3 09 08
        E 2 b3 09 08
        E 2 b3 09 07
        E 2 b3 09 06
        E 2 b3 09 05
        E 2 b3 09 04
        E 2 b3 09 04
        E 2 b3 09 03
        E 2 b3 09 02
        E 2 b3 09 01
        E 2 b3 09 00
        E 2 b3 09 00
        E 6 b3 09 01
        E 6 b3 09 03
        E 6 b3 09 04
        E 6 b3 09 06
        E 6 b3 09 07
        E 6 b3 09 09
        E 6 b3 09 0b
        E 6 b3 09 0c
        E 6 b3 09 0e
        E 6 b3 09 0f
        E 6 b3 09 11
        E 6 b3 09 13
        E 6 b3 09 14
        E 6 b3 09 16
        E 6 b3 09 17
        E 6 b3 09 19
        E 6 b3 09 1b
        E 6 b3 09 1c
        E 6 b3 09 1e
        E 6 b3 09 1f
        E 6 b3 09 21
        E 6 b3 09 23
        E 6 b3 09 24
        E 6 b3 09 26
        E 6 b3 09 28
        E 6 b3 09 29
        E 6 b3 09 2b
        E 6 b3 09 2c
        E 6 b3 09 2e
        E 6 b3 09 2f
        E 6 b3 09 31
        E 6 b3 09 33
        E 6 b3 09 34
        E 6 b3 09 36
        E 6 b3 09 37
        E 6 b3 09 39
        E 6 b3 09 3b
        E 6 b3 09 3c
        E 6 b3 09 3e
        E 6 b3 09 3f
        E 6 b3 09 41
        E 6 b3 09 43
        E 6 b3 09 44
        E 6 b3 09 46
        E 6 b3 09 48
        E 6 b3 09 49
        E 6 b3 09 4b
        E 6 b3 09 4c
        E 6 b3 09 4e
        E 6 b3 09 50
        E 6 b3 09 51
        E 6 b3 09 53
        E 6 b3 09 54
        E 6 b3 09 56
        E 6 b3 09 57
        E 6 b3 09 59
        E 6 b3 09 5b
        E 6 b3 09 5c
        E 6 b3 09 5e
        E 6 b3 09 5f
        E 6 b3 09 61
        E 6 b3 09 63
        E 6 b3 09 64
        E 6 b3 09 65
        E 6 b3 09 64
        E 6 b3 09 63
        E 6 b3 09 61
        E 6 b3 09 5f
        E 6 b3 09 5e
        E 6 b3 09 5c
        E 6 b3 09 5b
        E 6 b3 09 59
        E 6 b3 09 57
        E 6 b3 09 56
        E 6 b3 09 54
        E 6 b3 09 53
        E 6 b3 09 51
        E 6 b3 09 50
        E 6 b3 09 4e
        E 6 b3 09 4c
        E 6 b3 09 4b
        E 6 b3 09 49
        E 6 b3 09 48
        E 6 b3 09 46
        E 6 b3 09 44
        E 6 b3 09 43
        E 6 b3 09 41
        E 6 b3 09 3f
        E 6 b3 09 3e
        E 6 b3 09 3c
        E 6 b3 09 3b
        E 6 b3 09 39
        E 6 b3 09 37
        E 6 b3 09 36
        E 6 b3 09 34
        E 6 b3 09 33
        E 6 b3 09 31
        E 6 b3 09 2f
        E 6 b3 09 2e
        E 6 b3 09 2c
        E 6 b3 09 2b
        E 6 b3 09 29
        E 6 b3 09 28
        E 6 b3 09 26
        E 6 b3 09 24
        E 6 b3 09 23
        E 6 b3 09 21
        E 6 b3 09 1f
        E 6 b3 09 1e
        E 6 b3 09 1c
        E 6 b3 09 1b
        E 6 b3 09 19
        E 6 b3 09 17
        E 6 b3 09 16
        E 6 b3 09 14
        E 6 b3 09 13
        E 6 b3 09 11
        E 6 b3 09 0f
        E 6 b3 09 0e
        E 6 b3 09 0c
        E 6 b3 09 0b
        E 6 b3 09 09
        E 6 b3 09 07
        E 6 b3 09 06
        E 6 b3 09 04
        E 6 b3 09 03
        E 6 b3 09 01
        E 6 b3 09 00
        E 18 b3 09 01
        E 18 b3 09 03
        E 18 b3 09 04
        E 18 b3 09 06
        E 18 b3 09 07
        E 18 b3 09 09
        E 18 b3 09 0b
        E 18 b3 09 0c
        E 18 b3 09 0e
        E 18 b3 09 0f
        E 18 b3 09 11
        E 18 b3 09 13
        E 18 b3 09 14
        E 18 b3 09 16
        E 18 b3 09 17
        E 18 b3 09 19
        E 18 b3 09 1b
        E 18 b3 09 1c
        E 18 b3 09 1e
        E 18 b3 09 1f
        E 18 b3 09 21
        E 18 b3 09 23
        E 18 b3 09 24
        E 18 b3 09 26
        E 18 b3 09 28
        E 18 b3 09 29
        E 18 b3 09 2b
        E 18 b3 09 2c
        E 18 b3 09 2e
        E 18 b3 09 2f
        E 18 b3 09 31
        E 18 b3 09 33
        E 18 b3 09 34
        E 18 b3 09 36
        E 18 b3 09 37
        E 18 b3 09 39
        E 18 b3 09 3b
        E 18 b3 09 3c
        E 18 b3 09 3e
        E 18 b3 09 3f
        E 18 b3 09 41
        E 18 b3 09 43
        E 18 b3 09 44
        E 18 b3 09 46
        E 18 b3 09 48
        E 18 b3 09 49
        E 18 b3 09 4b
        E 18 b3 09 4c
        E 18 b3 09 4e
        E 18 b3 09 50
        E 18 b3 09 51
        E 18 b3 09 53
        E 18 b3 09 54
        E 18 b3 09 56
        E 18 b3 09 57
        E 18 b3 09 59
        E 18 b3 09 5b
        E 18 b3 09 5c
        E 18 b3 09 5e
        E 18 b3 09 5f
        E 18 b3 09 61
        E 18 b3 09 63
        E 18 b3 09 64
        E 18 b3 09 65
        E 18 b3 09 64
        E 18 b3 09 63
        E 18 b3 09 61
        E 18 b3 09 5f
        E 18 b3 09 5e
        E 18 b3 09 5c
        E 18 b3 09 5b
        E 18 b3 09 59
        E 18 b3 09 57
        E 18 b3 09 56
        E 18 b3 09 54
        E 18 b3 09 53
        E 18 b3 09 51
        E 18 b3 09 50
        E 18 b3 09 4e
        E 18 b3 09 4c
        E 18 b3 09 4b
        E 18 b3 09 49
        E 18 b3 09 48
        E 18 b3 09 46
        E 18 b3 09 44
        E 18 b3 09 43
        E 18 b3 09 41
        E 18 b3 09 3f
        E 18 b3 09 3e
        E 18 b3 09 3c
        E 18 b3 09 3b
        E 18 b3 09 39
        E 18 b3 09 37
        E 18 b3 09 36
        E 18 b3 09 34
        E 18 b3 09 33
        E 18 b3 09 31
        E 18 b3 09 2f
        E 18 b3 09 2e
        E 18 b3 09 2c
        E 18 b3 09 2b
        E 18 b3 09 29
        E 18 b3 09 28
        E 18 b3 09 26
        E 18 b3 09 24
        E 18 b3 09 23
        E 18 b3 09 21
        E 18 b3 09 1f
        E 18 b3 09 1e
        E 18 b3 09 1c
        E 18 b3 09 1b
        E 18 b3 09 19
        E 18 b3 09 17
        E 18 b3 09 16
        E 18 b3 09 14
        E 18 b3 09 13
        E 18 b3 09 11
        E 18 b3 09 0f
        E 18 b3 09 0e
        E 18 b3 09 0c
        E 18 b3 09 0b
        E 18 b3 09 09
        E 18 b3 09 07
        E 18 b3 09 06
        E 18 b3 09 04
        E 18 b3 09 03
        E 18 b3 09 01
        E 18 b3 09 00
        E 4 b3 09 01
        E 4 b3 09 02
        E 4 b3 09 03
        E 4 b3 09 04
        E 4 b3 09 06
        E 4 b3 09 07
        E 4 b3 09 08
        E 4 b3 09 09
        E 4 b3 09 0a
        E 4 b3 09 0c
        E 4 b3 09 0d
        E 4 b3 09 0e
        E 4 b3 09 0f
        E 4 b3 09 10
        E 4 b3 09 12
        E 4 b3 09 13
        E 4 b3 09 14
        E 4 b3 09 15
        E 4 b3 09 16
        E 4 b3 09 18
        E 4 b3 09 19
        E 4 b3 09 1a
        E 4 b3 09 1b
        E 4 b3 09 1c
        E 4 b3 09 1e
        E 4 b3 09 1f
        E 4 b3 09 20
        E 4 b3 09 21
        E 4 b3 09 22
        E 4 b3 09 24
        E 4 b3 09 25
        E 4 b3 09 26
        E 4 b3 09 27
        E 4 b3 09 28
        E 4 b3 09 2a
        E 4 b3 09 2b
        E 4 b3 09 2c
        E 4 b3 09 2d
        E 4 b3 09 2e
        E 4 b3 09 30
        E 4 b3 09 31
        E 4 b3 09 32
        E 4 b3 09 33
        E 4 b3 09 34
        E 4 b3 09 36
        E 4 b3 09 37
        E 4 b3 09 38
        E 4 b3 09 39
        E 4 b3 09 3a
        E 4 b3 09 3c
        E 4 b3 09 3d
        E 4 b3 09 3e
        E 4 b3 09 3f
        E 4 b3 09 40
        E 4 b3 09 42
        E 4 b3 09 43
        E 4 b3 09 44
        E 4 b3 09 45
        E 4 b3 09 46
        E 4 b3 09 48
        E 4 b3 09 49
        E 4 b3 09 4a
        E 4 b3 09 4b
        E 4 b3 09 4c
        E 4 b3 09 4b
        E 4 b3 09 4a
        E 4 b3 09 49
        E 4 b3 09 48
        E 4 b3 09 46
        E 4 b3 09 45
        E 4 b3 09 44
        E 4 b3 09 43
        E 4 b3 09 42
        E 4 b3 09 40
        E 4 b3 09 3f
        E 4 b3 09 3e
        E 4 b3 09 3d
        E 4 b3 09 3c
        E 4 b3 09 3a
        E 4 b3 09 39
        E 4 b3 09 38
        E 4 b3 09 37
        E 4 b3 09 36
        E 4 b3 09 34
        E 4 b3 09 33
        E 4 b3 09 32
        E 4 b3 09 31
        E 4 b3 09 30
        E 4 b3 09 2e
        E 4 b3 09 2d
        E 4 b3 09 2c
        E 4 b3 09 2b
        E 4 b3 09 2a
        E 4 b3 09 28
        E 4 b3 09 27
        E 4 b3 09 26
        E 4 b3 09 25
        E 4 b3 09 24
        E 4 b3 09 22
        E 4 b3 09 21
        E 4 b3 09 20
        E 4 b3 09 1f
        E 4 b3 09 1e
        E 4 b3 09 1c
        E 4 b3 09 1b
        E 4 b3 09 1a
        E 4 b3 09 19
        E 4 b3 09 18
        E 4 b3 09 16
        E 4 b3 09 15
        E 4 b3 09 14
        E 4 b3 09 13
        E 4 b3 09 12
        E 4 b3 09 10
        E 4 b3 09 0f
        E 4 b3 09 0e
        E 4 b3 09 0d
        E 4 b3 09 0c
        E 4 b3 09 0a
        E 4 b3 09 09
        E 4 b3 09 08
        E 4 b3 09 07
        E 4 b3 09 06
        E 4 b3 09 04
        E 4 b3 09 03
        E 4 b3 09 02
        E 4 b3 09 01
        E 4 b3 09 00
        E 18 b3 09 00
        E 18 b3 09 01
        E 18 b3 09 02
        E 18 b3 09 03
        E 18 b3 09 04
        E 18 b3 09 04
        E 18 b3 09 05
        E 18 b3 09 06
        E 18 b3 09 07
        E 18 b3 09 08
        E 18 b3 09 08
        E 18 b3 09 09
        E 18 b3 09 0a
        E 18 b3 09 0b
        E 18 b3 09 0c
        E 18 b3 09 0c
        E 18 b3 09 0d
        E 18 b3 09 0e
        E 18 b3 09 0f
        E 18 b3 09 10
        E 18 b3 09 10
        E 18 b3 09 11
        E 18 b3 09 12
        E 18 b3 09 13
        E 18 b3 09 14
        E 18 b3 09 14
        E 18 b3 09 15
        E 18 b3 09 16
        E 18 b3 09 17
        E 18 b3 09 18
        E 18 b3 09 18
        E 18 b3 09 19
        E 18 b3 09 1a
        E 18 b3 09 1b
        E 18 b3 09 1c
        E 18 b3 09 1c
        E 18 b3 09 1d
        E 18 b3 09 1e
        E 18 b3 09 1f
        E 18 b3 09 20
        E 18 b3 09 20
        E 18 b3 09 21
        E 18 b3 09 22
        E 18 b3 09 23
        E 18 b3 09 24
        E 18 b3 09 24
        E 18 b3 09 25
        E 18 b3 09 26
        E 18 b3 09 27
        E 18 b3 09 28
        E 18 b3 09 28
        E 18 b3 09 29
        E 18 b3 09 2a
        E 18 b3 09 2b
        E 18 b3 09 2c
        E 18 b3 09 2c
        E 18 b3 09 2d
        E 18 b3 09 2e
        E 18 b3 09 2f
        E 18 b3 09 30
        E 18 b3 09 30
        E 18 b3 09 31
        E 18 b3 09 32
        E 18 b3 09 32
        E 18 b3 09 32
        E 18 b3 09 31
        E 18 b3 09 30
        E 18 b3 09 30
        E 18 b3 09 2f
        E 18 b3 09 2e
        E 18 b3 09 2d
        E 18 b3 09 2c
        E 18 b3 09 2c
        E 18 b3 09 2b
        E 18 b3 09 2a
        E 18 b3 09 29
        E 18 b3 09 28
        E 18 b3 09 28
        E 18 b3 09 27
        E 18 b3 09 26
        E 18 b3 09 25
        E 18 b3 09 24
        E 18 b3 09 24
        E 18 b3 09 23
        E 18 b3 09 22
        E 18 b3 09 21
        E 18 b3 09 20
        E 18 b3 09 20
        E 18 b3 09 1f
        E 18 b3 09 1e
        E 18 b3 09 1d
        E 18 b3 09 1c
        E 18 b3 09 1c
        E 18 b3 09 1b
        E 18 b3 09 1a
        E 18 b3 09 19
        E 18 b3 09 18
        E 18 b3 09 18
        E 18 b3 09 17
        E 18 b3 09 16
        E 18 b3 09 15
        E 18 b3 09 14
        E 18 b3 09 14
        E 18 b3 09 13
        E 18 b3 09 12
        E 18 b3 09 11
        E 18 b3 09 10
        E 18 b3 09 10
        E 18 b3 09 0f
        E 18 b3 09 0e
        E 18 b3 09 0d
        E 18 b3 09 0c
        E 18 b3 09 0c
        E 18 b3 09 0b
        E 18 b3 09 0a
        E 18 b3 09 09
        E 18 b3 09 08
        E 18 b3 09 08
        E 18 b3 09 07
        E 18 b3 09 06
        E 18 b3 09 05
        E 18 b3 09 04
        E 18 b3 09 04
        E 18 b3 09 03
        E 18 b3 09 02
        E 18 b3 09 01
        E 18 b3 09 00
        E 18 b3 09 00
        E 10 b3 09 01
        E 10 b3 09 02
        E 10 b3 09 04
        E 10 b3 09 05
        E 10 b3 09 07
        E 10 b3 09 08
        E 10 b3 09 09
        E 10 b3 09 0b
        E 10 b3 09 0c
        E 10 b3 09 0e
        E 10 b3 09 0f
        E 10 b3 09 10
        E 10 b3 09 12
        E 10 b3 09 13
        E 10 b3 09 15
        E 10 b3 09 16
        E 10 b3 09 17
        E 10 b3 09 19
        E 10 b3 09 1a
        E 10 b3 09 1c
        E 10 b3 09 1d
        E 10 b3 09 1e
        E 10 b3 09 20
        E 10 b3 09 21
        E 10 b3 09 23
        E 10 b3 09 24
        E 10 b3 09 25
        E 10 b3 09 27
        E 10 b3 09 28
        E 10 b3 09 2a
        E 10 b3 09 2b
        E 10 b3 09 2c
        E 10 b3 09 2e
        E 10 b3 09 2f
        E 10 b3 09 31
        E 10 b3 09 32
        E 10 b3 09 33
        E 10 b3 09 35
        E 10 b3 09 36
        E 10 b3 09 38
        E 10 b3 09 39
        E 10 b3 09 3a
        E 10 b3 09 3c
        E 10 b3 09 3d
        E 10 b3 09 3e
        E 10 b3 09 40
        E 10 b3 09 41
        E 10 b3 09 43
        E 10 b3 09 44
        E 10 b3 09 46
        E 10 b3 09 47
        E 10 b3 09 48
        E 10 b3 09 4a
        E 10 b3 09 4b
        E 10 b3 09 4d
        E 10 b3 09 4e
        E 10 b3 09 4f
        E 10 b3 09 51
        E 10 b3 09 52
        E 10 b3 09 54
        E 10 b3 09 55
        E 10 b3 09 56
        E 10 b3 09 58
        E 10 b3 09 58
        E 10 b3 09 58
        E 10 b3 09 56
        E 10 b3 09 55
        E 10 b3 09 54
        E 10 b3 09 52
        E 10 b3 09 51
        E 10 b3 09 4f
        E 10 b3 09 4e
        E 10 b3 09 4d
        E 10 b3 09 4b
        E 10 b3 09 4a
        E 10 b3 09 48
        E 10 b3 09 47
        E 10 b3 09 46
        E 10 b3 09 44
        E 10 b3 09 43
        E 10 b3 09 41
        E 10 b3 09 40
        E 10 b3 09 3e
        E 10 b3 09 3d
        E 10 b3 09 3c
        E 10 b3 09 3a
        E 10 b3 09 39
        E 10 b3 09 38
        E 10 b3 09 36
        E 10 b3 09 35
        E 10 b3 09 33
        E 10 b3 09 32
        E 10 b3 09 31
        E 10 b3 09 2f
        E 10 b3 09 2e
        E 10 b3 09 2c
        E 10 b3 09 2b
        E 10 b3 09 2a
        E 10 b3 09 28
        E 10 b3 09 27
        E 10 b3 09 25
        E 10 b3 09 24
        E 10 b3 09 23
        E 10 b3 09 21
        E 10 b3 09 20
        E 10 b3 09 1e
        E 10 b3 09 1d
        E 10 b3 09 1c
        E 10 b3 09 1a
        E 10 b3 09 19
        E 10 b3 09 17
        E 10 b3 09 16
        E 10 b3 09 15
        E 10 b3 09 13
        E 10 b3 09 12
        E 10 b3 09 10
        E 10 b3 09 0f
        E 10 b3 09 0e
        E 10 b3 09 0c
        E 10 b3 09 0b
        E 10 b3 09 09
        E 10 b3 09 08
        E 10 b3 09 07
        E 10 b3 09 05
        E 10 b3 09 04
        E 10 b3 09 02
        E 10 b3 09 01
        E 10 b3 09 00
        E 2 b3 09 00
        E 2 b3 09 01
        E 2 b3 09 02
        E 2 b3 09 03
        E 2 b3 09 04
        E 2 b3 09 04
        E 2 b3 09 05
        E 2 b3 09 06
        E 2 b3 09 07
        E 2 b3 09 08
        E 2 b3 09 08
        E 2 b3 09 09
        E 2 b3 09 0a
        E 2 b3 09 0b
        E 2 b3 09 0c
        E 2 b3 09 0c
        E 2 b3 09 0d
        E 2 b3 09 0e
        E 2 b3 09 0f
        E 2 b3 09 10
        E 2 b3 09 10
        E 2 b3 09 11
        E 2 b3 09 12
        E 2 b3 09 13
        E 2 b3 09 14
        E 2 b3 09 14
        E 2 b3 09 15
        E 2 b3 09 16
        E 2 b3 09 17
        E 2 b3 09 18
        E 2 b3 09 18
        E 2 b3 09 19
        E 2 b3 09 1a
        E 2 b3 09 1b
        E 2 b3 09 1c
        E 2 b3 09 1c
        E 2 b3 09 1d
        E 2 b3 09 1e
        E 2 b3 09 1f
        E 2 b3 09 20
        E 2 b3 09 20
        E 2 b3 09 21
        E 2 b3 09 22
        E 2 b3 09 23
        E 2 b3 09 24
        E 2 b3 09 24
        E 2 b3 09 25
        E 2 b3 09 26
        E 2 b3 09 27
        E 2 b3 09 28
        E 2 b3 09 28
        E 2 b3 09 29
        E 2 b3 09 2a
        E 2 b3 09 2b
        E 2 b3 09 2c
        E 2 b3 09 2c
        E 2 b3 09 2d
        E 2 b3 09 2e
        E 2 b3 09 2f
        E 2 b3 09 30
        E 2 b3 09 30
        E 2 b3 09 31
        E 2 b3 09 32
        E 2 b3 09 32
        E 2 b3 09 32
        E 2 b3 09 31
        E 2 b3 09 30
        E 2 b3 09 30
        E 2 b3 09 2f
        E 2 b3 09 2e
        E 2 b3 09 2d
        E 2 b3 09 2c
        E 2 b3 09 2c
        E 2 b3 09 2b
        E 2 b3 09 2a
        E 2 b3 09 29
        E 2 b3 09 28
        E 2 b3 09 28
        E 2 b3 09 27
        E 2 b3 09 26
        E 2 b3 09 25
        E 2 b3 09 24
        E 2 b3 09 24
        E 2 b3 09 23
        E 2 b3 09 22
        E 2 b3 09 21
        E 2 b3 09 20
        E 2 b3 09 20
        E 2 b3 09 1f
        E 2 b3 09 1e
        E 2 b3 09 1d
        E 2 b3 09 1c
        E 2 b3 09 1c
        E 2 b3 09 1b
        E 2 b3 09 1a
        E 2 b3 09 19
        E 2 b3 09 18
        E 2 b3 09 18
        E 2 b3 09 17
        E 2 b3 09 16
        E 2 b3 09 15
        E 2 b3 09 14
        E 2 b3 09 14
        E 2 b3 09 13
        E 2 b3 09 12
        E 2 b3 09 11
        E 2 b3 09 10
        E 2 b3 09 10
        E 2 b3 09 0f
        E 2 b3 09 0e
        E 2 b3 09 0d
        E 2 b3 09 0c
        E 2 b3 09 0c
        E 2 b3 09 0b
        E 2 b3 09 0a
        E 2 b3 09 09
        E 2 b3 09 08
        E 2 b3 09 08
        E 2 b3 09 07
        E 2 b3 09 06
        E 2 b3 09 05
        E 2 b3 09 04
        E 2 b3 09 04
        E 2 b3 09 03
        E 2 b3 09 02
        E 2 b3 09 01
        E 2 b3 09 00
        E 2 b3 09 00
        E 6 b3 09 01
        E 6 b3 09 03
        E 6 b3 09 04
        E 6 b3 09 06
        E 6 b3 09 07
        E 6 b3 09 09
        E 6 b3 09 0b
        E 6 b3 09 0c
        E 6 b3 09 0e
        E 6 b3 09 0f
        E 6 b3 09 11
        E 6 b3 09 13
        E 6 b3 09 14
        E 6 b3 09 16
        E 6 b3 09 17
        E 6 b3 09 19
        E 6 b3 09 1b
        E 6 b3 09 1c
        E 6 b3 09 1e
        E 6 b3 09 1f
        E 6 b3 09 21
        E 6 b3 09 23
        E 6 b3 09 24
        E 6 b3 09 26
        E 6 b3 09 28
        E 6 b3 09 29
        E 6 b3 09 2b
        E 6 b3 09 2c
        E 6 b3 09 2e
        E 6 b3 09 2f
        E 6 b3 09 31
        E 6 b3 09 33
        E 6 b3 09 34
        E 6 b3 09 36
        E 6 b3 09 37
        E 6 b3 09 39
        E 6 b3 09 3b
        E 6 b3 09 3c
        E 6 b3 09 3e
        E 6 b3 09 3f
        E 6 b3 09 41
        E 6 b3 09 43
        E 6 b3 09 44
        E 6 b3 09 46
        E 6 b3 09 48
        E 6 b3 09 49
        E 6 b3 09 4b
        E 6 b3 09 4c
        E 6 b3 09 4e
        E 6 b3 09 50
        E 6 b3 09 51
        E 6 b3 09 53
        E 6 b3 09 54
        E 6 b3 09 56
        E 6 b3 09 57
        E 6 b3 09 59
        E 6 b3 09 5b
        E 6 b3 09 5c
        E 6 b3 09 5e
        E 6 b3 09 5f
        E 6 b3 09 61
        E 6 b3 09 63
        E 6 b3 09 64
        E 6 b3 09 65
        E 6 b3 09 64
        E 6 b3 09 63
        E 6 b3 09 61
        E 6 b3 09 5f
        E 6 b3 09 5e
        E 6 b3 09 5c
        E 6 b3 09 5b
        E 6 b3 09 59
        E 6 b3 09 57
        E 6 b3 09 56
        E 6 b3 09 54
        E 6 b3 09 53
        E 6 b3 09 51
        E 6 b3 09 50
        E 6 b3 09 4e
        E 6 b3 09 4c
        E 6 b3 09 4b
        E 6 b3 09 49
        E 6 b3 09 48
        E 6 b3 09 46
        E 6 b3 09 44
        E 6 b3 09 43
        E 6 b3 09 41
        E 6 b3 09 3f
        E 6 b3 09 3e
        E 6 b3 09 3c
        E 6 b3 09 3b
        E 6 b3 09 39
        E 6 b3 09 37
        E 6 b3 09 36
        E 6 b3 09 34
        E 6 b3 09 33
        E 6 b3 09 31
        E 6 b3 09 2f
        E 6 b3 09 2e
        E 6 b3 09 2c
        E 6 b3 09 2b
        E 6 b3 09 29
        E 6 b3 09 28
        E 6 b3 09 26
        E 6 b3 09 24
        E 6 b3 09 23
        E 6 b3 09 21
        E 6 b3 09 1f
        E 6 b3 09 1e
        E 6 b3 09 1c
        E 6 b3 09 1b
        E 6 b3 09 19
        E 6 b3 09 17
        E 6 b3 09 16
        E 6 b3 09 14
        E 6 b3 09 13
        E 6 b3 09 11
        E 6 b3 09 0f
        E 6 b3 09 0e
        E 6 b3 09 0c
        E 6 b3 09 0b
        E 6 b3 09 09
        E 6 b3 09 07
        E 6 b3 09 06
        E 6 b3 09 04
        E 6 b3 09 03
        E 6 b3 09 01
        E 6 b3 09 00
        E 70 b3 09 0b
        E 70 b3 09 26
        E 70 b3 09 19
        E 70 b3 09 04
        E 70 b3 09 24
        E 70 b3 09 20
        E 70 b3 09 04
        E 70 b3 09 04
        E 70 b3 09 18
        E 70 b3 09 30
        E 70 b3 09 28
        E 70 b3 09 2c
        E 70 b3 09 1f
        E 70 b3 09 05
        E 70 b3 09 09
        E 70 b3 09 22
        E 70 b3 09 1c
        E 70 b3 09 0e
        E 70 b3 09 0a
        E 70 b3 09 0d
        E 70 b3 09 27
        E 70 b3 09 17
        E 70 b3 09 0c
        E 70 b3 09 1d
        E 70 b3 09 32
        E 70 b3 09 00
        E 70 b3 09 06
        E 70 b3 09 14
        E 70 b3 09 11
        E 70 b3 09 29
        E 70 b3 09 0a
        E 70 b3 09 03
        E 70 b3 09 08
        E 70 b3 09 08
        E 70 b3 09 2e
        E 70 b3 09 0c
        E 70 b3 09 00
        E 70 b3 09 25
        E 70 b3 09 11
        E 70 b3 09 0a
        E 70 b3 09 14
        E 70 b3 09 0d
        E 70 b3 09 2b
        E 70 b3 09 2a
        E 70 b3 09 32
        E 70 b3 09 2a
        E 70 b3 09 16
        E 70 b3 09 2f
        E 70 b3 09 24
        E 70 b3 09 06
        E 70 b3 09 16
        E 70 b3 09 1b
        E 70 b3 09 30
        E 70 b3 09 26
        E 70 b3 09 1b
        E 70 b3 09 1c
        E 70 b3 09 02
        E 70 b3 09 05
        E 70 b3 09 2e
        E 70 b3 09 28
        E 70 b3 09 15
        E 70 b3 09 10
        E 70 b3 09 06
        E 70 b3 09 16
        E 70 b3 09 0f
        E 70 b3 09 0c
        E 70 b3 09 13
        E 70 b3 09 1a
        E 70 b3 09 1e
        E 70 b3 09 20
        E 70 b3 09 08
        E 70 b3 09 1e
        E 70 b3 09 2d
        E 70 b3 09 1a
        E 70 b3 09 1d
        E 70 b3 09 01
        E 70 b3 09 03
        E 70 b3 09 32
        E 70 b3 09 21
        E 70 b3 09 09
        E 70 b3 09 2e
        E 70 b3 09 10
        E 70 b3 09 13
        E 70 b3 09 18
        E 70 b3 09 14
        E 70 b3 09 22
        E 70 b3 09 29
        E 70 b3 09 0e
        E 70 b3 09 1c
        E 70 b3 09 0b
        E 70 b3 09 2d
        E 70 b3 09 2a
        E 70 b3 09 17
        E 70 b3 09 12
        E 70 b3 09 28
        E 70 b3 09 12
        E 70 b3 09 23
        E 70 b3 09 07
        E 70 b3 09 00
        E 70 b3 09 10
        E 70 b3 09 19
        E 70 b3 09 2b
        E 70 b3 09 27
        E 70 b3 09 01
        E 70 b3 09 2c
        E 70 b3 09 25
        E 70 b3 09 02
        E 70 b3 09 0f
        E 70 b3 09 1e
        E 70 b3 09 26
        E 70 b3 09 30
        E 70 b3 09 1f
        E 70 b3 09 15
        E 70 b3 09 0e
        E 70 b3 09 23
        E 70 b3 09 24
        E 70 b3 09 2c
        E 70 b3 09 31
        E 70 b3 09 18
        E 70 b3 09 20
        E 70 b3 09 22
        E 70 b3 09 1a
        E 70 b3 09 2f
        E 70 b3 09 07
        E 70 b3 09 12
        E 70 b3 09 21
        E 39 b3 09 13
        E 39 b3 09 43
        E 39 b3 09 2c
        E 39 b3 09 07
        E 39 b3 09 3e
        E 39 b3 09 38
        E 39 b3 09 08
        E 39 b3 09 07
        E 39 b3 09 2a
        E 39 b3 09 54
        E 39 b3 09 46
        E 39 b3 09 4d
        E 39 b3 09 37
        E 39 b3 09 09
        E 39 b3 09 10
        E 39 b3 09 3c
        E 39 b3 09 31
        E 39 b3 09 19
        E 39 b3 09 11
        E 39 b3 09 17
        E 39 b3 09 45
        E 39 b3 09 29
        E 39 b3 09 15
        E 39 b3 09 33
        E 39 b3 09 58
        E 39 b3 09 00
        E 39 b3 09 0b
        E 39 b3 09 24
        E 39 b3 09 1e
        E 39 b3 09 48
        E 39 b3 09 12
        E 39 b3 09 05
        E 39 b3 09 0e
        E 39 b3 09 0f
        E 39 b3 09 50
        E 39 b3 09 16
        E 39 b3 09 00
        E 39 b3 09 41
        E 39 b3 09 1e
        E 39 b3 09 12
        E 39 b3 09 23
        E 39 b3 09 17
        E 39 b3 09 4b
        E 39 b3 09 4a
        E 39 b3 09 58
        E 39 b3 09 4a
        E 39 b3 09 26
        E 39 b3 09 52
        E 39 b3 09 3f
        E 39 b3 09 0a
        E 39 b3 09 27
        E 39 b3 09 2f
        E 39 b3 09 54
        E 39 b3 09 43
        E 39 b3 09 30
        E 39 b3 09 31
        E 39 b3 09 04
        E 39 b3 09 09
        E 39 b3 09 51
        E 39 b3 09 47
        E 39 b3 09 25
        E 39 b3 09 1c
        E 39 b3 09 0b
        E 39 b3 09 27
        E 39 b3 09 1a
        E 39 b3 09 15
        E 39 b3 09 21
        E 39 b3 09 2e
        E 39 b3 09 35
        E 39 b3 09 39
        E 39 b3 09 0e
        E 39 b3 09 35
        E 39 b3 09 4f
        E 39 b3 09 2d
        E 39 b3 09 33
        E 39 b3 09 02
        E 39 b3 09 06
        E 39 b3 09 57
        E 39 b3 09 3a
        E 39 b3 09 10
        E 39 b3 09 51
        E 39 b3 09 1c
        E 39 b3 09 22
        E 39 b3 09 2b
        E 39 b3 09 23
        E 39 b3 09 3b
        E 39 b3 09 48
        E 39 b3 09 19
        E 39 b3 09 32
        E 39 b3 09 14
        E 39 b3 09 4f
        E 39 b3 09 49
        E 39 b3 09 28
        E 39 b3 09 20
        E 39 b3 09 46
        E 39 b3 09 20
        E 39 b3 09 3e
        E 39 b3 09 0c
        E 39 b3 09 01
        E 39 b3 09 1d
        E 39 b3 09 2c
        E 39 b3 09 4c
        E 39 b3 09 44
        E 39 b3 09 02
        E 39 b3 09 4d
        E 39 b3 09 41
        E 39 b3 09 04
        E 39 b3 09 1b
        E 39 b3 09 34
        E 39 b3 09 42
        E 39 b3 09 55
        E 39 b3 09 36
        E 39 b3 09 25
        E 39 b3 09 18
        E 39 b3 09 3d
        E 39 b3 09 40
        E 39 b3 09 4e
        E 39 b3 09 56
        E 39 b3 09 2a
        E 39 b3 09 38
        E 39 b3 09 3c
        E 39 b3 09 2e
        E 39 b3 09 53
        E 39 b3 09 0d
        E 39 b3 09 1f
        E 39 b3 09 3a
        E 7 b3 09 0b
        E 7 b3 09 26
        E 7 b3 09 19
        E 7 b3 09 04
        E 7 b3 09 24
        E 7 b3 09 20
        E 7 b3 09 04
        E 7 b3 09 04
        E 7 b3 09 18
        E 7 b3 09 30
        E 7 b3 09 28
        E 7 b3 09 2c
        E 7 b3 09 1f
        E 7 b3 09 05
        E 7 b3 09 09
        E 7 b3 09 22
        E 7 b3 09 1c
        E 7 b3 09 0e
        E 7 b3 09 0a
        E 7 b3 09 0d
        E 7 b3 09 27
        E 7 b3 09 17
        E 7 b3 09 0c
        E 7 b3 09 1d
        E 7 b3 09 32
        E 7 b3 09 00
        E 7 b3 09 06
        E 7 b3 09 14
        E 7 b3 09 11
        E 7 b3 09 29
        E 7 b3 09 0a
        E 7 b3 09 03
        E 7 b3 09 08
        E 7 b3 09 08
        E 7 b3 09 2e
        E 7 b3 09 0c
        E 7 b3 09 00
        E 7 b3 09 25
        E 7 b3 09 11
        E 7 b3 09 0a
        E 7 b3 09 14
        E 7 b3 09 0d
        E 7 b3 09 2b
        E 7 b3 09 2a
        E 7 b3 09 32
        E 7 b3 09 2a
        E 7 b3 09 16
        E 7 b3 09 2f
        E 7 b3 09 24
        E 7 b3 09 06
        E 7 b3 09 16
        E 7 b3 09 1b
        E 7 b3 09 30
        E 7 b3 09 26
        E 7 b3 09 1b
        E 7 b3 09 1c
        E 7 b3 09 02
        E 7 b3 09 05
        E 7 b3 09 2e
        E 7 b3 09 28
        E 7 b3 09 15
        E 7 b3 09 10
        E 7 b3 09 06
        E 7 b3 09 16
        E 7 b3 09 0f
        E 7 b3 09 0c
        E 7 b3 09 13
        E 7 b3 09 1a
        E 7 b3 09 1e
        E 7 b3 09 20
        E 7 b3 09 08
        E 7 b3 09 1e
        E 7 b3 09 2d
        E 7 b3 09 1a
        E 7 b3 09 1d
        E 7 b3 09 01
        E 7 b3 09 03
        E 7 b3 09 32
        E 7 b3 09 21
        E 7 b3 09 09
        E 7 b3 09 2e
        E 7 b3 09 10
        E 7 b3 09 13
        E 7 b3 09 18
        E 7 b3 09 14
        E 7 b3 09 22
        E 7 b3 09 29
        E 7 b3 09 0e
        E 7 b3 09 1c
        E 7 b3 09 0b
        E 7 b3 09 2d
        E 7 b3 09 2a
        E 7 b3 09 17
        E 7 b3 09 12
        E 7 b3 09 28
        E 7 b3 09 12
        E 7 b3 09 23
        E 7 b3 09 07
        E 7 b3 09 00
        E 7 b3 09 10
        E 7 b3 09 19
        E 7 b3 09 2b
        E 7 b3 09 27
        E 7 b3 09 01
        E 7 b3 09 2c
        E 7 b3 09 25
        E 7 b3 09 02
        E 7 b3 09 0f
        E 7 b3 09 1e
        E 7 b3 09 26
        E 7 b3 09 30
        E 7 b3 09 1f
        E 7 b3 09 15
        E 7 b3 09 0e
        E 7 b3 09 23
        E 7 b3 09 24
        E 7 b3 09 2c
        E 7 b3 09 31
        E 7 b3 09 18
        E 7 b3 09 20
        E 7 b3 09 22
        E 7 b3 09 1a
        E 7 b3 09 2f
        E 7 b3 09 07
        E 7 b3 09 12
        E 7 b3 09 21
        E 23 b3 09 16
        E 23 b3 09 4c
        E 23 b3 09 32
        E 23 b3 09 07
        E 23 b3 09 48
        E 23 b3 09 3f
        E 23 b3 09 09
        E 23 b3 09 08
        E 23 b3 09 30
        E 23 b3 09 5f
        E 23 b3 09 50
        E 23 b3 09 58
        E 23 b3 09 3f
        E 23 b3 09 0b
        E 23 b3 09 13
        E 23 b3 09 44
        E 23 b3 09 37
        E 23 b3 09 1c
        E 23 b3 09 14
        E 23 b3 09 1b
        E 23 b3 09 4f
        E 23 b3 09 2f
        E 23 b3 09 17
        E 23 b3 09 3a
        E 23 b3 09 64
        E 23 b3 09 00
        E 23 b3 09 0c
        E 23 b3 09 29
        E 23 b3 09 22
        E 23 b3 09 53
        E 23 b3 09 15
        E 23 b3 09 06
        E 23 b3 09 0f
        E 23 b3 09 11
        E 23 b3 09 5b
        E 23 b3 09 19
        E 23 b3 09 00
        E 23 b3 09 4b
        E 23 b3 09 23
        E 23 b3 09 14
        E 23 b3 09 28
        E 23 b3 09 1a
        E 23 b3 09 56
        E 23 b3 09 55
        E 23 b3 09 65
        E 23 b3 09 54
        E 23 b3 09 2b
        E 23 b3 09 5e
        E 23 b3 09 48
        E 23 b3 09 0b
        E 23 b3 09 2c
        E 23 b3 09 36
        E 23 b3 09 60
        E 23 b3 09 4d
        E 23 b3 09 37
        E 23 b3 09 38
        E 23 b3 09 04
        E 23 b3 09 0a
        E 23 b3 09 5d
        E 23 b3 09 51
        E 23 b3 09 2b
        E 23 b3 09 1f
        E 23 b3 09 0d
        E 23 b3 09 2d
        E 23 b3 09 1e
        E 23 b3 09 18
        E 23 b3 09 26
        E 23 b3 09 34
        E 23 b3 09 3d
        E 23 b3 09 41
        E 23 b3 09 10
        E 23 b3 09 3c
        E 23 b3 09 5a
        E 23 b3 09 33
        E 23 b3 09 3b
        E 23 b3 09 02
        E 23 b3 09 07
        E 23 b3 09 63
        E 23 b3 09 42
        E 23 b3 09 12
        E 23 b3 09 5c
        E 23 b3 09 20
        E 23 b3 09 27
        E 23 b3 09 31
        E 23 b3 09 28
        E 23 b3 09 44
        E 23 b3 09 52
        E 23 b3 09 1d
        E 23 b3 09 39
        E 23 b3 09 17
        E 23 b3 09 5b
        E 23 b3 09 54
        E 23 b3 09 2e
        E 23 b3 09 24
        E 23 b3 09 50
        E 23 b3 09 25
        E 23 b3 09 47
        E 23 b3 09 0e
        E 23 b3 09 01
        E 23 b3 09 21
        E 23 b3 09 33
        E 23 b3 09 57
        E 23 b3 09 4e
        E 23 b3 09 03
        E 23 b3 09 57
        E 23 b3 09 4a
        E 23 b3 09 05
        E 23 b3 09 1f
        E 23 b3 09 3b
        E 23 b3 09 4c
        E 23 b3 09 61
        E 23 b3 09 3e
        E 23 b3 09 2a
        E 23 b3 09 1b
        E 23 b3 09 46
        E 23 b3 09 49
        E 23 b3 09 59
        E 23 b3 09 63
        E 23 b3 09 2f
        E 23 b3 09 40
        E 23 b3 09 45
        E 23 b3 09 35
        E 23 b3 09 5f
        E 23 b3 09 0f
        E 23 b3 09 24
        E 23 b3 09 43
        E 70 b3 09 16
        E 70 b3 09 4c
        E 70 b3 09 32
        E 70 b3 09 07
        E 70 b3 09 48
        E 70 b3 09 3f
        E 70 b3 09 09
        E 70 b3 09 08
        E 70 b3 09 30
        E 70 b3 09 5f
        E 70 b3 09 50
        E 70 b3 09 58
        E 70 b3 09 3f
        E 70 b3 09 0b
        E 70 b3 09 13
        E 70 b3 09 44
        E 70 b3 09 37
        E 70 b3 09 1c
        E 70 b3 09 14
        E 70 b3 09 1b
        E 70 b3 09 4f
        E 70 b3 09 2f
        E 70 b3 09 17
        E 70 b3 09 3a
        E 70 b3 09 64
        E 70 b3 09 00
        E 70 b3 09 0c
        E 70 b3 09 29
        E 70 b3 09 22
        E 70 b3 09 53
        E 70 b3 09 15
        E 70 b3 09 06
        E 70 b3 09 0f
        E 70 b3 09 11
        E 70 b3 09 5b
        E 70 b3 09 19
        E 70 b3 09 00
        E 70 b3 09 4b
        E 70 b3 09 23
        E 70 b3 09 14
        E 70 b3 09 28
        E 70 b3 09 1a
        E 70 b3 09 56
        E 70 b3 09 55
        E 70 b3 09 65
        E 70 b3 09 54
        E 70 b3 09 2b
        E 70 b3 09 5e
        E 70 b3 09 48
        E 70 b3 09 0b
        E 70 b3 09 2c
        E 70 b3 09 36
        E 70 b3 09 60
        E 70 b3 09 4d
        E 70 b3 09 37
        E 70 b3 09 38
        E 70 b3 09 04
        E 70 b3 09 0a
        E 70 b3 09 5d
        E 70 b3 09 51
        E 70 b3 09 2b
        E 70 b3 09 1f
        E 70 b3 09 0d
        E 70 b3 09 2d
        E 70 b3 09 1e
        E 70 b3 09 18
        E 70 b3 09 26
        E 70 b3 09 34
        E 70 b3 09 3d
        E 70 b3 09 41
        E 70 b3 09 10
        E 70 b3 09 3c
        E 70 b3 09 5a
        E 70 b3 09 33
        E 70 b3 09 3b
        E 70 b3 09 02
        E 70 b3 09 07
        E 70 b3 09 63
        E 70 b3 09 42
        E 70 b3 09 12
        E 70 b3 09 5c
        E 70 b3 09 20
        E 70 b3 09 27
        E 70 b3 09 31
        E 70 b3 09 28
        E 70 b3 09 44
        E 70 b3 09 52
        E 70 b3 09 1d
        E 70 b3 09 39
        E 70 b3 09 17
        E 70 b3 09 5b
        E 70 b3 09 54
        E 70 b3 09 2e
        E 70 b3 09 24
        E 70 b3 09 50
        E 70 b3 09 25
        E 70 b3 09 47
        E 70 b3 09 0e
        E 70 b3 09 01
        E 70 b3 09 21
        E 70 b3 09 33
        E 70 b3 09 57
        E 70 b3 09 4e
        E 70 b3 09 03
        E 70 b3 09 57
        E 70 b3 09 4a
        E 70 b3 09 05
        E 70 b3 09 1f
        E 70 b3 09 3b
        E 70 b3 09 4c
        E 70 b3 09 61
        E 70 b3 09 3e
        E 70 b3 09 2a
        E 70 b3 09 1b
        E 70 b3 09 46
        E 70 b3 09 49
        E 70 b3 09 59
        E 70 b3 09 63
        E 70 b3 09 2f
        E 70 b3 09 40
        E 70 b3 09 45
        E 70 b3 09 35
        E 70 b3 09 5f
        E 70 b3 09 0f
        E 70 b3 09 24
        E 70 b3 09 43
        E 15 b3 09 10
        E 15 b3 09 39
        E 15 b3 09 25
        E 15 b3 09 06
        E 15 b3 09 36
        E 15 b3 09 30
        E 15 b3 09 07
        E 15 b3 09 06
        E 15 b3 09 24
        E 15 b3 09 48
        E 15 b3 09 3c
        E 15 b3 09 42
        E 15 b3 09 2f
        E 15 b3 09 08
        E 15 b3 09 0e
        E 15 b3 09 33
        E 15 b3 09 2a
        E 15 b3 09 15
        E 15 b3 09 0f
        E 15 b3 09 14
        E 15 b3 09 3b
        E 15 b3 09 23
        E 15 b3 09 12
        E 15 b3 09 2b
        E 15 b3 09 4b
        E 15 b3 09 00
        E 15 b3 09 09
        E 15 b3 09 1f
        E 15 b3 09 19
        E 15 b3 09 3e
        E 15 b3 09 10
        E 15 b3 09 04
        E 15 b3 09 0c
        E 15 b3 09 0d
        E 15 b3 09 45
        E 15 b3 09 13
        E 15 b3 09 00
        E 15 b3 09 38
        E 15 b3 09 1a
        E 15 b3 09 0f
        E 15 b3 09 1e
        E 15 b3 09 13
        E 15 b3 09 40
        E 15 b3 09 40
        E 15 b3 09 4c
        E 15 b3 09 3f
        E 15 b3 09 21
        E 15 b3 09 46
        E 15 b3 09 36
        E 15 b3 09 09
        E 15 b3 09 21
        E 15 b3 09 28
        E 15 b3 09 48
        E 15 b3 09 3a
        E 15 b3 09 29
        E 15 b3 09 2a
        E 15 b3 09 03
        E 15 b3 09 07
        E 15 b3 09 46
        E 15 b3 09 3d
        E 15 b3 09 20
        E 15 b3 09 18
        E 15 b3 09 0a
        E 15 b3 09 22
        E 15 b3 09 16
        E 15 b3 09 12
        E 15 b3 09 1c
        E 15 b3 09 27
        E 15 b3 09 2e
        E 15 b3 09 31
        E 15 b3 09 0c
        E 15 b3 09 2d
        E 15 b3 09 43
        E 15 b3 09 27
        E 15 b3 09 2c
        E 15 b3 09 01
        E 15 b3 09 05
        E 15 b3 09 4b
        E 15 b3 09 31
        E 15 b3 09 0d
        E 15 b3 09 45
        E 15 b3 09 18
        E 15 b3 09 1d
        E 15 b3 09 25
        E 15 b3 09 1e
        E 15 b3 09 33
        E 15 b3 09 3d
        E 15 b3 09 16
        E 15 b3 09 2b
        E 15 b3 09 11
        E 15 b3 09 44
        E 15 b3 09 3f
        E 15 b3 09 22
        E 15 b3 09 1b
        E 15 b3 09 3c
        E 15 b3 09 1c
        E 15 b3 09 35
        E 15 b3 09 0a
        E 15 b3 09 01
        E 15 b3 09 19
        E 15 b3 09 26
        E 15 b3 09 41
        E 15 b3 09 3a
        E 15 b3 09 02
        E 15 b3 09 42
        E 15 b3 09 37
        E 15 b3 09 04
        E 15 b3 09 17
        E 15 b3 09 2d
        E 15 b3 09 39
        E 15 b3 09 49
        E 15 b3 09 2e
        E 15 b3 09 1f
        E 15 b3 09 15
        E 15 b3 09 34
        E 15 b3 09 37
        E 15 b3 09 43
        E 15 b3 09 4a
        E 15 b3 09 24
        E 15 b3 09 30
        E 15 b3 09 34
        E 15 b3 09 28
        E 15 b3 09 47
        E 15 b3 09 0b
        E 15 b3 09 1b
        E 15 b3 09 32
        E 70 b3 09 0b
        E 70 b3 09 26
        E 70 b3 09 19
        E 70 b3 09 04
        E 70 b3 09 24
        E 70 b3 09 20
        E 70 b3 09 04
        E 70 b3 09 04
        E 70 b3 09 18
        E 70 b3 09 30
        E 70 b3 09 28
        E 70 b3 09 2c
        E 70 b3 09 1f
        E 70 b3 09 05
        E 70 b3 09 09
        E 70 b3 09 22
        E 70 b3 09 1c
        E 70 b3 09 0e
        E 70 b3 09 0a
        E 70 b3 09 0d
        E 70 b3 09 27
        E 70 b3 09 17
        E 70 b3 09 0c
        E 70 b3 09 1d
        E 70 b3 09 32
        E 70 b3 09 00
        E 70 b3 09 06
        E 70 b3 09 14
        E 70 b3 09 11
        E 70 b3 09 29
        E 70 b3 09 0a
        E 70 b3 09 03
        E 70 b3 09 08
        E 70 b3 09 08
        E 70 b3 09 2e
        E 70 b3 09 0c
        E 70 b3 09 00
        E 70 b3 09 25
        E 70 b3 09 11
        E 70 b3 09 0a
        E 70 b3 09 14
        E 70 b3 09 0d
        E 70 b3 09 2b
        E 70 b3 09 2a
        E 70 b3 09 32
        E 70 b3 09 2a
        E 70 b3 09 16
        E 70 b3 09 2f
        E 70 b3 09 24
        E 70 b3 09 06
        E 70 b3 09 16
        E 70 b3 09 1b
        E 70 b3 09 30
        E 70 b3 09 26
        E 70 b3 09 1b
        E 70 b3 09 1c
        E 70 b3 09 02
        E 70 b3 09 05
        E 70 b3 09 2e
        E 70 b3 09 28
        E 70 b3 09 15
        E 70 b3 09 10
        E 70 b3 09 06
        E 70 b3 09 16
        E 70 b3 09 0f
        E 70 b3 09 0c
        E 70 b3 09 13
        E 70 b3 09 1a
        E 70 b3 09 1e
        E 70 b3 09 20
        E 70 b3 09 08
        E 70 b3 09 1e
        E 70 b3 09 2d
        E 70 b3 09 1a
        E 70 b3 09 1d
        E 70 b3 09 01
        E 70 b3 09 03
        E 70 b3 09 32
        E 70 b3 09 21
        E 70 b3 09 09
        E 70 b3 09 2e
        E 70 b3 09 10
        E 70 b3 09 13
        E 70 b3 09 18
        E 70 b3 09 14
        E 70 b3 09 22
        E 70 b3 09 29
        E 70 b3 09 0e
        E 70 b3 09 1c
        E 70 b3 09 0b
        E 70 b3 09 2d
        E 70 b3 09 2a
        E 70 b3 09 17
        E 70 b3 09 12
        E 70 b3 09 28
        E 70 b3 09 12
        E 70 b3 09 23
        E 70 b3 09 07
        E 70 b3 09 00
        E 70 b3 09 10
        E 70 b3 09 19
        E 70 b3 09 2b
        E 70 b3 09 27
        E 70 b3 09 01
        E 70 b3 09 2c
        E 70 b3 09 25
        E 70 b3 09 02
        E 70 b3 09 0f
        E 70 b3 09 1e
        E 70 b3 09 26
        E 70 b3 09 30
        E 70 b3 09 1f
        E 70 b3 09 15
        E 70 b3 09 0e
        E 70 b3 09 23
        E 70 b3 09 24
        E 70 b3 09 2c
        E 70 b3 09 31
        E 70 b3 09 18
        E 70 b3 09 20
        E 70 b3 09 22
        E 70 b3 09 1a
        E 70 b3 09 2f
        E 70 b3 09 07
        E 70 b3 09 12
        E 70 b3 09 21
        E 39 b3 09 13
        E 39 b3 09 43
        E 39 b3 09 2c
        E 39 b3 09 07
        E 39 b3 09 3e
        E 39 b3 09 38
        E 39 b3 09 08
        E 39 b3 09 07
        E 39 b3 09 2a
        E 39 b3 09 54
        E 39 b3 09 46
        E 39 b3 09 4d
        E 39 b3 09 37
        E 39 b3 09 09
        E 39 b3 09 10
        E 39 b3 09 3c
        E 39 b3 09 31
        E 39 b3 09 19
        E 39 b3 09 11
        E 39 b3 09 17
        E 39 b3 09 45
        E 39 b3 09 29
        E 39 b3 09 15
        E 39 b3 09 33
        E 39 b3 09 58
        E 39 b3 09 00
        E 39 b3 09 0b
        E 39 b3 09 24
        E 39 b3 09 1e
        E 39 b3 09 48
        E 39 b3 09 12
        E 39 b3 09 05
        E 39 b3 09 0e
        E 39 b3 09 0f
        E 39 b3 09 50
        E 39 b3 09 16
        E 39 b3 09 00
        E 39 b3 09 41
        E 39 b3 09 1e
        E 39 b3 09 12
        E 39 b3 09 23
        E 39 b3 09 17
        E 39 b3 09 4b
        E 39 b3 09 4a
        E 39 b3 09 58
        E 39 b3 09 4a
        E 39 b3 09 26
        E 39 b3 09 52
        E 39 b3 09 3f
        E 39 b3 09 0a
        E 39 b3 09 27
        E 39 b3 09 2f
        E 39 b3 09 54
        E 39 b3 09 43
        E 39 b3 09 30
        E 39 b3 09 31
        E 39 b3 09 04
        E 39 b3 09 09
        E 39 b3 09 51
        E 39 b3 09 47
        E 39 b3 09 25
        E 39 b3 09 1c
        E 39 b3 09 0b
        E 39 b3 09 27
        E 39 b3 09 1a
        E 39 b3 09 15
        E 39 b3 09 21
        E 39 b3 09 2e
        E 39 b3 09 35
        E 39 b3 09 39
        E 39 b3 09 0e
        E 39 b3 09 35
        E 39 b3 09 4f
        E 39 b3 09 2d
        E 39 b3 09 33
        E 39 b3 09 02
        E 39 b3 09 06
        E 39 b3 09 57
        E 39 b3 09 3a
        E 39 b3 09 10
        E 39 b3 09 51
        E 39 b3 09 1c
        E 39 b3 09 22
        E 39 b3 09 2b
        E 39 b3 09 23
        E 39 b3 09 3b
        E 39 b3 09 48
        E 39 b3 09 19
        E 39 b3 09 32
        E 39 b3 09 14
        E 39 b3 09 4f
        E 39 b3 09 49
        E 39 b3 09 28
        E 39 b3 09 20
        E 39 b3 09 46
        E 39 b3 09 20
        E 39 b3 09 3e
        E 39 b3 09 0c
        E 39 b3 09 01
        E 39 b3 09 1d
        E 39 b3 09 2c
        E 39 b3 09 4c
        E 39 b3 09 44
        E 39 b3 09 02
        E 39 b3 09 4d
        E 39 b3 09 41
        E 39 b3 09 04
        E 39 b3 09 1b
        E 39 b3 09 34
        E 39 b3 09 42
        E 39 b3 09 55
        E 39 b3 09 36
        E 39 b3 09 25
        E 39 b3 09 18
        E 39 b3 09 3d
        E 39 b3 09 40
        E 39 b3 09 4e
        E 39 b3 09 56
        E 39 b3 09 2a
        E 39 b3 09 38
        E 39 b3 09 3c
        E 39 b3 09 2e
        E 39 b3 09 53
        E 39 b3 09 0d
        E 39 b3 09 1f
        E 39 b3 09 3a
        E 7 b3 09 0b
        E 7 b3 09 26
        E 7 b3 09 19
        E 7 b3 09 04
        E 7 b3 09 24
        E 7 b3 09 20
        E 7 b3 09 04
        E 7 b3 09 04
        E 7 b3 09 18
        E 7 b3 09 30
        E 7 b3 09 28
        E 7 b3 09 2c
        E 7 b3 09 1f
        E 7 b3 09 05
        E 7 b3 09 09
        E 7 b3 09 22
        E 7 b3 09 1c
        E 7 b3 09 0e
        E 7 b3 09 0a
        E 7 b3 09 0d
        E 7 b3 09 27
        E 7 b3 09 17
        E 7 b3 09 0c
        E 7 b3 09 1d
        E 7 b3 09 32
        E 7 b3 09 00
        E 7 b3 09 06
        E 7 b3 09 14
        E 7 b3 09 11
        E 7 b3 09 29
        E 7 b3 09 0a
        E 7 b3 09 03
        E 7 b3 09 08
        E 7 b3 09 08
        E 7 b3 09 2e
        E 7 b3 09 0c
        E 7 b3 09 00
        E 7 b3 09 25
        E 7 b3 09 11
        E 7 b3 09 0a
        E 7 b3 09 14
        E 7 b3 09 0d
        E 7 b3 09 2b
        E 7 b3 09 2a
        E 7 b3 09 32
        E 7 b3 09 2a
        E 7 b3 09 16
        E 7 b3 09 2f
        E 7 b3 09 24
        E 7 b3 09 06
        E 7 b3 09 16
        E 7 b3 09 1b
        E 7 b3 09 30
        E 7 b3 09 26
        E 7 b3 09 1b
        E 7 b3 09 1c
        E 7 b3 09 02
        E 7 b3 09 05
        E 7 b3 09 2e
        E 7 b3 09 28
        E 7 b3 09 15
        E 7 b3 09 10
        E 7 b3 09 06
        E 7 b3 09 16
        E 7 b3 09 0f
        E 7 b3 09 0c
        E 7 b3 09 13
        E 7 b3 09 1a
        E 7 b3 09 1e
        E 7 b3 09 20
        E 7 b3 09 08
        E 7 b3 09 1e
        E 7 b3 09 2d
        E 7 b3 09 1a
        E 7 b3 09 1d
        E 7 b3 09 01
        E 7 b3 09 03
        E 7 b3 09 32
        E 7 b3 09 21
        E 7 b3 09 09
        E 7 b3 09 2e
        E 7 b3 09 10
        E 7 b3 09 13
        E 7 b3 09 18
        E 7 b3 09 14
        E 7 b3 09 22
        E 7 b3 09 29
        E 7 b3 09 0e
        E 7 b3 09 1c
        E 7 b3 09 0b
        E 7 b3 09 2d
        E 7 b3 09 2a
        E 7 b3 09 17
        E 7 b3 09 12
        E 7 b3 09 28
        E 7 b3 09 12
        E 7 b3 09 23
        E 7 b3 09 07
        E 7 b3 09 00
        E 7 b3 09 10
        E 7 b3 09 19
        E 7 b3 09 2b
        E 7 b3 09 27
        E 7 b3 09 01
        E 7 b3 09 2c
        E 7 b3 09 25
        E 7 b3 09 02
        E 7 b3 09 0f
        E 7 b3 09 1e
        E 7 b3 09 26
        E 7 b3 09 30
        E 7 b3 09 1f
        E 7 b3 09 15
        E 7 b3 09 0e
        E 7 b3 09 23
        E 7 b3 09 24
        E 7 b3 09 2c
        E 7 b3 09 31
        E 7 b3 09 18
        E 7 b3 09 20
        E 7 b3 09 22
        E 7 b3 09 1a
        E 7 b3 09 2f
        E 7 b3 09 07
        E 7 b3 09 12
        E 7 b3 09 21
        E 23 b3 09 16
        E 23 b3 09 4c
        E 23 b3 09 32
        E 23 b3 09 07
        E 23 b3 09 48
        E 23 b3 09 3f
        E 23 b3 09 09
        E 23 b3 09 08
        E 23 b3 09 30
        E 23 b3 09 5f
        E 23 b3 09 50
        E 23 b3 09 58
        E 23 b3 09 3f
        E 23 b3 09 0b
        E 23 b3 09 13
        E 23 b3 09 44
        E 23 b3 09 37
        E 23 b3 09 1c
        E 23 b3 09 14
        E 23 b3 09 1b
        E 23 b3 09 4f
        E 23 b3 09 2f
        E 23 b3 09 17
        E 23 b3 09 3a
        E 23 b3 09 64
        E 23 b3 09 00
        E 23 b3 09 0c
        E 23 b3 09 29
        E 23 b3 09 22
        E 23 b3 09 53
        E 23 b3 09 15
        E 23 b3 09 06
        E 23 b3 09 0f
        E 23 b3 09 11
        E 23 b3 09 5b
        E 23 b3 09 19
        E 23 b3 09 00
        E 23 b3 09 4b
        E 23 b3 09 23
        E 23 b3 09 14
        E 23 b3 09 28
        E 23 b3 09 1a
        E 23 b3 09 56
        E 23 b3 09 55
        E 23 b3 09 65
        E 23 b3 09 54
        E 23 b3 09 2b
        E 23 b3 09 5e
        E 23 b3 09 48
        E 23 b3 09 0b
        E 23 b3 09 2c
        E 23 b3 09 36
        E 23 b3 09 60
        E 23 b3 09 4d
        E 23 b3 09 37
        E 23 b3 09 38
        E 23 b3 09 04
        E 23 b3 09 0a
        E 23 b3 09 5d
        E 23 b3 09 51
        E 23 b3 09 2b
        E 23 b3 09 1f
        E 23 b3 09 0d
        E 23 b3 09 2d
        E 23 b3 09 1e
        E 23 b3 09 18
        E 23 b3 09 26
        E 23 b3 09 34
        E 23 b3 09 3d
        E 23 b3 09 41
        E 23 b3 09 10
        E 23 b3 09 3c
        E 23 b3 09 5a
        E 23 b3 09 33
        E 23 b3 09 3b
        E 23 b3 09 02
        E 23 b3 09 07
        E 23 b3 09 63
        E 23 b3 09 42
        E 23 b3 09 12
        E 23 b3 09 5c
        E 23 b3 09 20
        E 23 b3 09 27
        E 23 b3 09 31
        E 23 b3 09 28
        E 23 b3 09 44
        E 23 b3 09 52
        E 23 b3 09 1d
        E 23 b3 09 39
        E 23 b3 09 17
        E 23 b3 09 5b
        E 23 b3 09 54
        E 23 b3 09 2e
        E 23 b3 09 24
        E 23 b3 09 50
        E 23 b3 09 25
        E 23 b3 09 47
        E 23 b3 09 0e
        E 23 b3 09 01
        E 23 b3 09 21
        E 23 b3 09 33
        E 23 b3 09 57
        E 23 b3 09 4e
        E 23 b3 09 03
        E 23 b3 09 57
        E 23 b3 09 4a
        E 23 b3 09 05
        E 23 b3 09 1f
        E 23 b3 09 3b
        E 23 b3 09 4c
        E 23 b3 09 61
        E 23 b3 09 3e
        E 23 b3 09 2a
        E 23 b3 09 1b
        E 23 b3 09 46
        E 23 b3 09 49
        E 23 b3 09 59
        E 23 b3 09 63
        E 23 b3 09 2f
        E 23 b3 09 40
        E 23 b3 09 45
        E 23 b3 09 35
        E 23 b3 09 5f
        E 23 b3 09 0f
        E 23 b3 09 24
        E 23 b3 09 43
        E 70 b3 09 16
        E 70 b3 09 4c
        E 70 b3 09 32
        E 70 b3 09 07
        E 70 b3 09 48
        E 70 b3 09 3f
        E 70 b3 09 09
        E 70 b3 09 08
        E 70 b3 09 30
        E 70 b3 09 5f
        E 70 b3 09 50
        E 70 b3 09 58
        E 70 b3 09 3f
        E 70 b3 09 0b
        E 70 b3 09 13
        E 70 b3 09 44
        E 70 b3 09 37
        E 70 b3 09 1c
        E 70 b3 09 14
        E 70 b3 09 1b
        E 70 b3 09 4f
        E 70 b3 09 2f
        E 70 b3 09 17
        E 70 b3 09 3a
        E 70 b3 09 64
        E 70 b3 09 00
        E 70 b3 09 0c
        E 70 b3 09 29
        E 70 b3 09 22
        E 70 b3 09 53
        E 70 b3 09 15
        E 70 b3 09 06
        E 70 b3 09 0f
        E 70 b3 09 11
        E 70 b3 09 5b
        E 70 b3 09 19
        E 70 b3 09 00
        E 70 b3 09 4b
        E 70 b3 09 23
        E 70 b3 09 14
        E 70 b3 09 28
        E 70 b3 09 1a
        E 70 b3 09 56
        E 70 b3 09 55
        E 70 b3 09 65
        E 70 b3 09 54
        E 70 b3 09 2b
        E 70 b3 09 5e
        E 70 b3 09 48
        E 70 b3 09 0b
        E 70 b3 09 2c
        E 70 b3 09 36
        E 70 b3 09 60
        E 70 b3 09 4d
        E 70 b3 09 37
        E 70 b3 09 38
        E 70 b3 09 04
        E 70 b3 09 0a
        E 70 b3 09 5d
        E 70 b3 09 51
        E 70 b3 09 2b
        E 70 b3 09 1f
        E 70 b3 09 0d
        E 70 b3 09 2d
        E 70 b3 09 1e
        E 70 b3 09 18
        E 70 b3 09 26
        E 70 b3 09 34
        E 70 b3 09 3d
        E 70 b3 09 41
        E 70 b3 09 10
        E 70 b3 09 3c
        E 70 b3 09 5a
        E 70 b3 09 33
        E 70 b3 09 3b
        E 70 b3 09 02
        E 70 b3 09 07
        E 70 b3 09 63
        E 70 b3 09 42
        E 70 b3 09 12
        E 70 b3 09 5c
        E 70 b3 09 20
        E 70 b3 09 27
        E 70 b3 09 31
        E 70 b3 09 28
        E 70 b3 09 44
        E 70 b3 09 52
        E 70 b3 09 1d
        E 70 b3 09 39
        E 70 b3 09 17
        E 70 b3 09 5b
        E 70 b3 09 54
        E 70 b3 09 2e
        E 70 b3 09 24
        E 70 b3 09 50
        E 70 b3 09 25
        E 70 b3 09 47
        E 70 b3 09 0e
        E 70 b3 09 01
        E 70 b3 09 21
        E 70 b3 09 33
        E 70 b3 09 57
        E 70 b3 09 4e
        E 70 b3 09 03
        E 70 b3 09 57
        E 70 b3 09 4a
        E 70 b3 09 05
        E 70 b3 09 1f
        E 70 b3 09 3b
        E 70 b3 09 4c
        E 70 b3 09 61
        E 70 b3 09 3e
        E 70 b3 09 2a
        E 70 b3 09 1b
        E 70 b3 09 46
        E 70 b3 09 49
        E 70 b3 09 59
        E 70 b3 09 63
        E 70 b3 09 2f
        E 70 b3 09 40
        E 70 b3 09 45
        E 70 b3 09 35
        E 70 b3 09 5f
        E 70 b3 09 0f
        E 70 b3 09 24
        E 70 b3 09 43
        E 15 b3 09 10
        E 15 b3 09 39
        E 15 b3 09 25
        E 15 b3 09 06
        E 15 b3 09 36
        E 15 b3 09 30
        E 15 b3 09 07
        E 15 b3 09 06
        E 15 b3 09 24
        E 15 b3 09 48
        E 15 b3 09 3c
        E 15 b3 09 42
        E 15 b3 09 2f
        E 15 b3 09 08
        E 15 b3 09 0e
        E 15 b3 09 33
        E 15 b3 09 2a
        E 15 b3 09 15
        E 15 b3 09 0f
        E 15 b3 09 14
        E 15 b3 09 3b
        E 15 b3 09 23
        E 15 b3 09 12
        E 15 b3 09 2b
        E 15 b3 09 4b
        E 15 b3 09 00
        E 15 b3 09 09
        E 15 b3 09 1f
        E 15 b3 09 19
        E 15 b3 09 3e
        E 15 b3 09 10
        E 15 b3 09 04
        E 15 b3 09 0c
        E 15 b3 09 0d
        E 15 b3 09 45
        E 15 b3 09 13
        E 15 b3 09 00
        E 15 b3 09 38
        E 15 b3 09 1a
        E 15 b3 09 0f
        E 15 b3 09 1e
        E 15 b3 09 13
        E 15 b3 09 40
        E 15 b3 09 40
        E 15 b3 09 4c
        E 15 b3 09 3f
        E 15 b3 09 21
        E 15 b3 09 46
        E 15 b3 09 36
        E 15 b3 09 09
        E 15 b3 09 21
        E 15 b3 09 28
        E 15 b3 09 48
        E 15 b3 09 3a
        E 15 b3 09 29
        E 15 b3 09 2a
        E 15 b3 09 03
        E 15 b3 09 07
        E 15 b3 09 46
        E 15 b3 09 3d
        E 15 b3 09 20
        E 15 b3 09 18
        E 15 b3 09 0a
        E 15 b3 09 22
        E 15 b3 09 16
        E 15 b3 09 12
        E 15 b3 09 1c
        E 15 b3 09 27
        E 15 b3 09 2e
        E 15 b3 09 31
        E 15 b3 09 0c
        E 15 b3 09 2d
        E 15 b3 09 43
        E 15 b3 09 27
        E 15 b3 09 2c
        E 15 b3 09 01
        E 15 b3 09 05
        E 15 b3 09 4b
        E 15 b3 09 31
        E 15 b3 09 0d
        E 15 b3 09 45
        E 15 b3 09 18
        E 15 b3 09 1d
        E 15 b3 09 25
        E 15 b3 09 1e
        E 15 b3 09 33
        E 15 b3 09 3d
        E 15 b3 09 16
        E 15 b3 09 2b
        E 15 b3 09 11
        E 15 b3 09 44
        E 15 b3 09 3f
        E 15 b3 09 22
        E 15 b3 09 1b
        E 15 b3 09 3c
        E 15 b3 09 1c
        E 15 b3 09 35
        E 15 b3 09 0a
        E 15 b3 09 01
        E 15 b3 09 19
        E 15 b3 09 26
        E 15 b3 09 41
        E 15 b3 09 3a
        E 15 b3 09 02
        E 15 b3 09 42
        E 15 b3 09 37
        E 15 b3 09 04
        E 15 b3 09 17
        E 15 b3 09 2d
        E 15 b3 09 39
        E 15 b3 09 49
        E 15 b3 09 2e
        E 15 b3 09 1f
        E 15 b3 09 15
        E 15 b3 09 34
        E 15 b3 09 37
        E 15 b3 09 43
        E 15 b3 09 4a
        E 15 b3 09 24
        E 15 b3 09 30
        E 15 b3 09 34
        E 15 b3 09 28
        E 15 b3 09 47
        E 15 b3 09 0b
        E 15 b3 09 1b
        E 15 b3 09 32
        E 70 b3 09 0b
        E 70 b3 09 26
        E 70 b3 09 19
        E 70 b3 09 04
        E 70 b3 09 24
        E 70 b3 09 20
        E 70 b3 09 04
        E 70 b3 09 04
        E 70 b3 09 18
        E 70 b3 09 30
        E 70 b3 09 28
        E 70 b3 09 2c
        E 70 b3 09 1f
        E 70 b3 09 05
        E 70 b3 09 09
        E 70 b3 09 22
        E 70 b3 09 1c
        E 70 b3 09 0e
        E 70 b3 09 0a
        E 70 b3 09 0d
        E 70 b3 09 27
        E 70 b3 09 17
        E 70 b3 09 0c
        E 70 b3 09 1d
        E 70 b3 09 32
        E 70 b3 09 00
        E 70 b3 09 06
        E 70 b3 09 14
        E 70 b3 09 11
        E 70 b3 09 29
        E 70 b3 09 0a
        E 70 b3 09 03
        E 70 b3 09 08
        E 70 b3 09 08
        E 70 b3 09 2e
        E 70 b3 09 0c
        E 70 b3 09 00
        E 70 b3 09 25
        E 70 b3 09 11
        E 70 b3 09 0a
        E 70 b3 09 14
        E 70 b3 09 0d
        E 70 b3 09 2b
        E 70 b3 09 2a
        E 70 b3 09 32
        E 70 b3 09 2a
        E 70 b3 09 16
        E 70 b3 09 2f
        E 70 b3 09 24
        E 70 b3 09 06
        E 70 b3 09 16
        E 70 b3 09 1b
        E 70 b3 09 30
        E 70 b3 09 26
        E 70 b3 09 1b
        E 70 b3 09 1c
        E 70 b3 09 02
        E 70 b3 09 05
        E 70 b3 09 2e
        E 70 b3 09 28
        E 70 b3 09 15
        E 70 b3 09 10
        E 70 b3 09 06
        E 70 b3 09 16
        E 70 b3 09 0f
        E 70 b3 09 0c
        E 70 b3 09 13
        E 70 b3 09 1a
        E 70 b3 09 1e
        E 70 b3 09 20
        E 70 b3 09 08
        E 70 b3 09 1e
        E 70 b3 09 2d
        E 70 b3 09 1a
        E 70 b3 09 1d
        E 70 b3 09 01
        E 70 b3 09 03
        E 70 b3 09 32
        E 70 b3 09 21
        E 70 b3 09 09
        E 70 b3 09 2e
        E 70 b3 09 10
        E 70 b3 09 13
        E 70 b3 09 18
        E 70 b3 09 14
        E 70 b3 09 22
        E 70 b3 09 29
        E 70 b3 09 0e
        E 70 b3 09 1c
        E 70 b3 09 0b
        E 70 b3 09 2d
        E 70 b3 09 2a
        E 70 b3 09 17
        E 70 b3 09 12
        E 70 b3 09 28
        E 70 b3 09 12
        E 70 b3 09 23
        E 70 b3 09 07
        E 70 b3 09 00
        E 70 b3 09 10
        E 70 b3 09 19
        E 70 b3 09 2b
        E 70 b3 09 27
        E 70 b3 09 01
        E 70 b3 09 2c
        E 70 b3 09 25
        E 70 b3 09 02
        E 70 b3 09 0f
        E 70 b3 09 1e
        E 70 b3 09 26
        E 70 b3 09 30
        E 70 b3 09 1f
        E 70 b3 09 15
        E 70 b3 09 0e
        E 70 b3 09 23
        E 70 b3 09 24
        E 70 b3 09 2c
        E 70 b3 09 31
        E 70 b3 09 18
        E 70 b3 09 20
        E 70 b3 09 22
        E 70 b3 09 1a
        E 70 b3 09 2f
        E 70 b3 09 07
        E 70 b3 09 12
        E 70 b3 09 21
        E 39 b3 09 13
        E 39 b3 09 43
        E 39 b3 09 2c
        E 39 b3 09 07
        E 39 b3 09 3e
        E 39 b3 09 38
        E 39 b3 09 08
        E 39 b3 09 07
        E 39 b3 09 2a
        E 39 b3 09 54
        E 39 b3 09 46
        E 39 b3 09 4d
        E 39 b3 09 37
        E 39 b3 09 09
        E 39 b3 09 10
        E 39 b3 09 3c
        E 39 b3 09 31
        E 39 b3 09 19
        E 39 b3 09 11
        E 39 b3 09 17
        E 39 b3 09 45
        E 39 b3 09 29
        E 39 b3 09 15
        E 39 b3 09 33
        E 39 b3 09 58
        E 39 b3 09 00
        E 39 b3 09 0b
        E 39 b3 09 24
        E 39 b3 09 1e
        E 39 b3 09 48
        E 39 b3 09 12
        E 39 b3 09 05
        E 39 b3 09 0e
        E 39 b3 09 0f
        E 39 b3 09 50
        E 39 b3 09 16
        E 39 b3 09 00
        E 39 b3 09 41
        E 39 b3 09 1e
        E 39 b3 09 12
        E 39 b3 09 23
        E 39 b3 09 17
        E 39 b3 09 4b
        E 39 b3 09 4a
        E 39 b3 09 58
        E 39 b3 09 4a
        E 39 b3 09 26
        E 39 b3 09 52
        E 39 b3 09 3f
        E 39 b3 09 0a
        E 39 b3 09 27
        E 39 b3 09 2f
        E 39 b3 09 54
        E 39 b3 09 43
        E 39 b3 09 30
        E 39 b3 09 31
        E 39 b3 09 04
        E 39 b3 09 09
        E 39 b3 09 51
        E 39 b3 09 47
        E 39 b3 09 25
        E 39 b3 09 1c
        E 39 b3 09 0b
        E 39 b3 09 27
        E 39 b3 09 1a
        E 39 b3 09 15
        E 39 b3 09 21
        E 39 b3 09 2e
        E 39 b3 09 35
        E 39 b3 09 39
        E 39 b3 09 0e
        E 39 b3 09 35
        E 39 b3 09 4f
        E 39 b3 09 2d
        E 39 b3 09 33
        E 39 b3 09 02
        E 39 b3 09 06
        E 39 b3 09 57
        E 39 b3 09 3a
        E 39 b3 09 10
        E 39 b3 09 51
        E 39 b3 09 1c
        E 39 b3 09 22
        E 39 b3 09 2b
        E 39 b3 09 23
        E 39 b3 09 3b
        E 39 b3 09 48
        E 39 b3 09 19
        E 39 b3 09 32
        E 39 b3 09 14
        E 39 b3 09 4f
        E 39 b3 09 49
        E 39 b3 09 28
        E 39 b3 09 20
        E 39 b3 09 46
        E 39 b3 09 20
        E 39 b3 09 3e
        E 39 b3 09 0c
        E 39 b3 09 01
        E 39 b3 09 1d
        E 39 b3 09 2c
        E 39 b3 09 4c
        E 39 b3 09 44
        E 39 b3 09 02
        E 39 b3 09 4d
        E 39 b3 09 41
        E 39 b3 09 04
        E 39 b3 09 1b
        E 39 b3 09 34
        E 39 b3 09 42
        E 39 b3 09 55
        E 39 b3 09 36
        E 39 b3 09 25
        E 39 b3 09 18
        E 39 b3 09 3d
        E 39 b3 09 40
        E 39 b3 09 4e
        E 39 b3 09 56
        E 39 b3 09 2a
        E 39 b3 09 38
        E 39 b3 09 3c
        E 39 b3 09 2e
        E 39 b3 09 53
        E 39 b3 09 0d
        E 39 b3 09 1f
        E 39 b3 09 3a
        E 13 b3 09 16
        E 13 b3 09 4c
        E 13 b3 09 32
        E 13 b3 09 07
        E 13 b3 09 48
        E 13 b3 09 3f
        E 13 b3 09 09
        E 13 b3 09 08
        E 13 b3 09 30
        E 13 b3 09 5f
        E 13 b3 09 50
        E 13 b3 09 58
        E 13 b3 09 3f
        E 13 b3 09 0b
        E 13 b3 09 13
        E 13 b3 09 44
        E 13 b3 09 37
        E 13 b3 09 1c
        E 13 b3 09 14
        E 13 b3 09 1b
        E 13 b3 09 4f
        E 13 b3 09 2f
        E 13 b3 09 17
        E 13 b3 09 3a
        E 13 b3 09 64
        E 13 b3 09 00
        E 13 b3 09 0c
        E 13 b3 09 29
        E 13 b3 09 22
        E 13 b3 09 53
        E 13 b3 09 15
        E 13 b3 09 06
        E 13 b3 09 0f
        E 13 b3 09 11
        E 13 b3 09 5b
        E 13 b3 09 19
        E 13 b3 09 00
        E 13 b3 09 4b
        E 13 b3 09 23
        E 13 b3 09 14
        E 13 b3 09 28
        E 13 b3 09 1a
        E 13 b3 09 56
        E 13 b3 09 55
        E 13 b3 09 65
        E 13 b3 09 54
        E 13 b3 09 2b
        E 13 b3 09 5e
        E 13 b3 09 48
        E 13 b3 09 0b
        E 13 b3 09 2c
        E 13 b3 09 36
        E 13 b3 09 60
        E 13 b3 09 4d
        E 13 b3 09 37
        E 13 b3 09 38
        E 13 b3 09 04
        E 13 b3 09 0a
        E 13 b3 09 5d
        E 13 b3 09 51
        E 13 b3 09 2b
        E 13 b3 09 1f
        E 13 b3 09 0d
        E 13 b3 09 2d
        E 13 b3 09 1e
        E 13 b3 09 18
        E 13 b3 09 26
        E 13 b3 09 34
        E 13 b3 09 3d
        E 13 b3 09 41
        E 13 b3 09 10
        E 13 b3 09 3c
        E 13 b3 09 5a
        E 13 b3 09 33
        E 13 b3 09 3b
        E 13 b3 09 02
        E 13 b3 09 07
        E 13 b3 09 63
        E 13 b3 09 42
        E 13 b3 09 12
        E 13 b3 09 5c
        E 13 b3 09 20
        E 13 b3 09 27
        E 13 b3 09 31
        E 13 b3 09 28
        E 13 b3 09 44
        E 13 b3 09 52
        E 13 b3 09 1d
        E 13 b3 09 39
        E 13 b3 09 17
        E 13 b3 09 5b
        E 13 b3 09 54
        E 13 b3 09 2e
        E 13 b3 09 24
        E 13 b3 09 50
        E 13 b3 09 25
        E 13 b3 09 47
        E 13 b3 09 0e
        E 13 b3 09 01
        E 13 b3 09 21
        E 13 b3 09 33
        E 13 b3 09 57
        E 13 b3 09 4e
        E 13 b3 09 03
        E 13 b3 09 57
        E 13 b3 09 4a
        E 13 b3 09 05
        E 13 b3 09 1f
        E 13 b3 09 3b
        E 13 b3 09 4c
        E 13 b3 09 61
        E 13 b3 09 3e
        E 13 b3 09 2a
        E 13 b3 09 1b
        E 13 b3 09 46
        E 13 b3 09 49
        E 13 b3 09 59
        E 13 b3 09 63
        E 13 b3 09 2f
        E 13 b3 09 40
        E 13 b3 09 45
        E 13 b3 09 35
        E 13 b3 09 5f
        E 13 b3 09 0f
        E 13 b3 09 24
        E 13 b3 09 43
        E 3 b3 09 10
        E 3 b3 09 39
        E 3 b3 09 25
        E 3 b3 09 06
        E 3 b3 09 36
        E 3 b3 09 30
        E 3 b3 09 07
        E 3 b3 09 06
        E 3 b3 09 24
        E 3 b3 09 48
        E 3 b3 09 3c
        E 3 b3 09 42
        E 3 b3 09 2f
        E 3 b3 09 08
        E 3 b3 09 0e
        E 3 b3 09 33
        E 3 b3 09 2a
        E 3 b3 09 15
        E 3 b3 09 0f
        E 3 b3 09 14
        E 3 b3 09 3b
        E 3 b3 09 23
        E 3 b3 09 12
        E 3 b3 09 2b
        E 3 b3 09 4b
        E 3 b3 09 00
        E 3 b3 09 09
        E 3 b3 09 1f
        E 3 b3 09 19
        E 3 b3 09 3e
        E 3 b3 09 10
        E 3 b3 09 04
        E 3 b3 09 0c
        E 3 b3 09 0d
        E 3 b3 09 45
        E 3 b3 09 13
        E 3 b3 09 00
        E 3 b3 09 38
        E 3 b3 09 1a
        E 3 b3 09 0f
        E 3 b3 09 1e
        E 3 b3 09 13
        E 3 b3 09 40
        E 3 b3 09 40
        E 3 b3 09 4c
        E 3 b3 09 3f
        E 3 b3 09 21
        E 3 b3 09 46
        E 3 b3 09 36
        E 3 b3 09 09
        E 3 b3 09 21
        E 3 b3 09 28
        E 3 b3 09 48
        E 3 b3 09 3a
        E 3 b3 09 29
        E 3 b3 09 2a
        E 3 b3 09 03
        E 3 b3 09 07
        E 3 b3 09 46
        E 3 b3 09 3d
        E 3 b3 09 20
        E 3 b3 09 18
        E 3 b3 09 0a
        E 3 b3 09 22
        E 3 b3 09 16
        E 3 b3 09 12
        E 3 b3 09 1c
        E 3 b3 09 27
        E 3 b3 09 2e
        E 3 b3 09 31
        E 3 b3 09 0c
        E 3 b3 09 2d
        E 3 b3 09 43
        E 3 b3 09 27
        E 3 b3 09 2c
        E 3 b3 09 01
        E 3 b3 09 05
        E 3 b3 09 4b
        E 3 b3 09 31
        E 3 b3 09 0d
        E 3 b3 09 45
        E 3 b3 09 18
        E 3 b3 09 1d
        E 3 b3 09 25
        E 3 b3 09 1e
        E 3 b3 09 33
        E 3 b3 09 3d
        E 3 b3 09 16
        E 3 b3 09 2b
        E 3 b3 09 11
        E 3 b3 09 44
        E 3 b3 09 3f
        E 3 b3 09 22
        E 3 b3 09 1b
        E 3 b3 09 3c
        E 3 b3 09 1c
        E 3 b3 09 35
        E 3 b3 09 0a
        E 3 b3 09 01
        E 3 b3 09 19
        E 3 b3 09 26
        E 3 b3 09 41
        E 3 b3 09 3a
        E 3 b3 09 02
        E 3 b3 09 42
        E 3 b3 09 37
        E 3 b3 09 04
        E 3 b3 09 17
        E 3 b3 09 2d
        E 3 b3 09 39
        E 3 b3 09 49
        E 3 b3 09 2e
        E 3 b3 09 1f
        E 3 b3 09 15
        E 3 b3 09 34
        E 3 b3 09 37
        E 3 b3 09 43
        E 3 b3 09 4a
        E 3 b3 09 24
        E 3 b3 09 30
        E 3 b3 09 34
        E 3 b3 09 28
        E 3 b3 09 47
        E 3 b3 09 0b
        E 3 b3 09 1b
        E 3 b3 09 32
        E 13 b3 09 0b
        E 13 b3 09 26
        E 13 b3 09 19
        E 13 b3 09 04
        E 13 b3 09 24
        E 13 b3 09 20
        E 13 b3 09 04
        E 13 b3 09 04
        E 13 b3 09 18
        E 13 b3 09 30
        E 13 b3 09 28
        E 13 b3 09 2c
        E 13 b3 09 1f
        E 13 b3 09 05
        E 13 b3 09 09
        E 13 b3 09 22
        E 13 b3 09 1c
        E 13 b3 09 0e
        E 13 b3 09 0a
        E 13 b3 09 0d
        E 13 b3 09 27
        E 13 b3 09 17
        E 13 b3 09 0c
        E 13 b3 09 1d
        E 13 b3 09 32
        E 13 b3 09 00
        E 13 b3 09 06
        E 13 b3 09 14
        E 13 b3 09 11
        E 13 b3 09 29
        E 13 b3 09 0a
        E 13 b3 09 03
        E 13 b3 09 08
        E 13 b3 09 08
        E 13 b3 09 2e
        E 13 b3 09 0c
        E 13 b3 09 00
        E 13 b3 09 25
        E 13 b3 09 11
        E 13 b3 09 0a
        E 13 b3 09 14
        E 13 b3 09 0d
        E 13 b3 09 2b
        E 13 b3 09 2a
        E 13 b3 09 32
        E 13 b3 09 2a
        E 13 b3 09 16
        E 13 b3 09 2f
        E 13 b3 09 24
        E 13 b3 09 06
        E 13 b3 09 16
        E 13 b3 09 1b
        E 13 b3 09 30
        E 13 b3 09 26
        E 13 b3 09 1b
        E 13 b3 09 1c
        E 13 b3 09 02
        E 13 b3 09 05
        E 13 b3 09 2e
        E 13 b3 09 28
        E 13 b3 09 15
        E 13 b3 09 10
        E 13 b3 09 06
        E 13 b3 09 16
        E 13 b3 09 0f
        E 13 b3 09 0c
        E 13 b3 09 13
        E 13 b3 09 1a
        E 13 b3 09 1e
        E 13 b3 09 20
        E 13 b3 09 08
        E 13 b3 09 1e
        E 13 b3 09 2d
        E 13 b3 09 1a
        E 13 b3 09 1d
        E 13 b3 09 01
        E 13 b3 09 03
        E 13 b3 09 32
        E 13 b3 09 21
        E 13 b3 09 09
        E 13 b3 09 2e
        E 13 b3 09 10
        E 13 b3 09 13
        E 13 b3 09 18
        E 13 b3 09 14
        E 13 b3 09 22
        E 13 b3 09 29
        E 13 b3 09 0e
        E 13 b3 09 1c
        E 13 b3 09 0b
        E 13 b3 09 2d
        E 13 b3 09 2a
        E 13 b3 09 17
        E 13 b3 09 12
        E 13 b3 09 28
        E 13 b3 09 12
        E 13 b3 09 23
        E 13 b3 09 07
        E 13 b3 09 00
        E 13 b3 09 10
        E 13 b3 09 19
        E 13 b3 09 2b
        E 13 b3 09 27
        E 13 b3 09 01
        E 13 b3 09 2c
        E 13 b3 09 25
        E 13 b3 09 02
        E 13 b3 09 0f
        E 13 b3 09 1e
        E 13 b3 09 26
        E 13 b3 09 30
        E 13 b3 09 1f
        E 13 b3 09 15
        E 13 b3 09 0e
        E 13 b3 09 23
        E 13 b3 09 24
        E 13 b3 09 2c
        E 13 b3 09 31
        E 13 b3 09 18
        E 13 b3 09 20
        E 13 b3 09 22
        E 13 b3 09 1a
        E 13 b3 09 2f
        E 13 b3 09 07
        E 13 b3 09 12
        E 13 b3 09 21
        E 7 b3 09 13
        E 7 b3 09 43
        E 7 b3 09 2c
        E 7 b3 09 07
        E 7 b3 09 3e
        E 7 b3 09 38
        E 7 b3 09 08
        E 7 b3 09 07
        E 7 b3 09 2a
        E 7 b3 09 54
        E 7 b3 09 46
        E 7 b3 09 4d
        E 7 b3 09 37
        E 7 b3 09 09
        E 7 b3 09 10
        E 7 b3 09 3c
        E 7 b3 09 31
        E 7 b3 09 19
        E 7 b3 09 11
        E 7 b3 09 17
        E 7 b3 09 45
        E 7 b3 09 29
        E 7 b3 09 15
        E 7 b3 09 33
        E 7 b3 09 58
        E 7 b3 09 00
        E 7 b3 09 0b
        E 7 b3 09 24
        E 7 b3 09 1e
        E 7 b3 09 48
        E 7 b3 09 12
        E 7 b3 09 05
        E 7 b3 09 0e
        E 7 b3 09 0f
        E 7 b3 09 50
        E 7 b3 09 16
        E 7 b3 09 00
        E 7 b3 09 41
        E 7 b3 09 1e
        E 7 b3 09 12
        E 7 b3 09 23
        E 7 b3 09 17
        E 7 b3 09 4b
        E 7 b3 09 4a
        E 7 b3 09 58
        E 7 b3 09 4a
        E 7 b3 09 26
        E 7 b3 09 52
        E 7 b3 09 3f
        E 7 b3 09 0a
        E 7 b3 09 27
        E 7 b3 09 2f
        E 7 b3 09 54
        E 7 b3 09 43
        E 7 b3 09 30
        E 7 b3 09 31
        E 7 b3 09 04
        E 7 b3 09 09
        E 7 b3 09 51
        E 7 b3 09 47
        E 7 b3 09 25
        E 7 b3 09 1c
        E 7 b3 09 0b
        E 7 b3 09 27
        E 7 b3 09 1a
        E 7 b3 09 15
        E 7 b3 09 21
        E 7 b3 09 2e
        E 7 b3 09 35
        E 7 b3 09 39
        E 7 b3 09 0e
        E 7 b3 09 35
        E 7 b3 09 4f
        E 7 b3 09 2d
        E 7 b3 09 33
        E 7 b3 09 02
        E 7 b3 09 06
        E 7 b3 09 57
        E 7 b3 09 3a
        E 7 b3 09 10
        E 7 b3 09 51
        E 7 b3 09 1c
        E 7 b3 09 22
        E 7 b3 09 2b
        E 7 b3 09 23
        E 7 b3 09 3b
        E 7 b3 09 48
        E 7 b3 09 19
        E 7 b3 09 32
        E 7 b3 09 14
        E 7 b3 09 4f
        E 7 b3 09 49
        E 7 b3 09 28
        E 7 b3 09 20
        E 7 b3 09 46
        E 7 b3 09 20
        E 7 b3 09 3e
        E 7 b3 09 0c
        E 7 b3 09 01
        E 7 b3 09 1d
        E 7 b3 09 2c
        E 7 b3 09 4c
        E 7 b3 09 44
        E 7 b3 09 02
        E 7 b3 09 4d
        E 7 b3 09 41
        E 7 b3 09 04
        E 7 b3 09 1b
        E 7 b3 09 34
        E 7 b3 09 42
        E 7 b3 09 55
        E 7 b3 09 36
        E 7 b3 09 25
        E 7 b3 09 18
        E 7 b3 09 3d
        E 7 b3 09 40
        E 7 b3 09 4e
        E 7 b3 09 56
        E 7 b3 09 2a
        E 7 b3 09 38
        E 7 b3 09 3c
        E 7 b3 09 2e
        E 7 b3 09 53
        E 7 b3 09 0d
        E 7 b3 09 1f
        E 7 b3 09 3a
        E 1 b3 09 0b
        E 1 b3 09 26
        E 1 b3 09 19
        E 1 b3 09 04
        E 1 b3 09 24
        E 1 b3 09 20
        E 1 b3 09 04
        E 1 b3 09 04
        E 1 b3 09 18
        E 1 b3 09 30
        E 1 b3 09 28
        E 1 b3 09 2c
        E 1 b3 09 1f
        E 1 b3 09 05
        E 1 b3 09 09
        E 1 b3 09 22
        E 1 b3 09 1c
        E 1 b3 09 0e
        E 1 b3 09 0a
        E 1 b3 09 0d
        E 1 b3 09 27
        E 1 b3 09 17
        E 1 b3 09 0c
        E 1 b3 09 1d
        E 1 b3 09 32
        E 1 b3 09 00
        E 1 b3 09 06
        E 1 b3 09 14
        E 1 b3 09 11
        E 1 b3 09 29
        E 1 b3 09 0a
        E 1 b3 09 03
        E 1 b3 09 08
        E 1 b3 09 08
        E 1 b3 09 2e
        E 1 b3 09 0c
        E 1 b3 09 00
        E 1 b3 09 25
        E 1 b3 09 11
        E 1 b3 09 0a
        E 1 b3 09 14
        E 1 b3 09 0d
        E 1 b3 09 2b
        E 1 b3 09 2a
        E 1 b3 09 32
        E 1 b3 09 2a
        E 1 b3 09 16
        E 1 b3 09 2f
        E 1 b3 09 24
        E 1 b3 09 06
        E 1 b3 09 16
        E 1 b3 09 1b
        E 1 b3 09 30
        E 1 b3 09 26
        E 1 b3 09 1b
        E 1 b3 09 1c
        E 1 b3 09 02
        E 1 b3 09 05
        E 1 b3 09 2e
        E 1 b3 09 28
        E 1 b3 09 15
        E 1 b3 09 10
        E 1 b3 09 06
        E 1 b3 09 16
        E 1 b3 09 0f
        E 1 b3 09 0c
        E 1 b3 09 13
        E 1 b3 09 1a
        E 1 b3 09 1e
        E 1 b3 09 20
        E 1 b3 09 08
        E 1 b3 09 1e
        E 1 b3 09 2d
        E 1 b3 09 1a
        E 1 b3 09 1d
        E 1 b3 09 01
        E 1 b3 09 03
        E 1 b3 09 32
        E 1 b3 09 21
        E 1 b3 09 09
        E 1 b3 09 2e
        E 1 b3 09 10
        E 1 b3 09 13
        E 1 b3 09 18
        E 1 b3 09 14
        E 1 b3 09 22
        E 1 b3 09 29
        E 1 b3 09 0e
        E 1 b3 09 1c
        E 1 b3 09 0b
        E 1 b3 09 2d
        E 1 b3 09 2a
        E 1 b3 09 17
        E 1 b3 09 12
        E 1 b3 09 28
        E 1 b3 09 12
        E 1 b3 09 23
        E 1 b3 09 07
        E 1 b3 09 00
        E 1 b3 09 10
        E 1 b3 09 19
        E 1 b3 09 2b
        E 1 b3 09 27
        E 1 b3 09 01
        E 1 b3 09 2c
        E 1 b3 09 25
        E 1 b3 09 02
        E 1 b3 09 0f
        E 1 b3 09 1e
        E 1 b3 09 26
        E 1 b3 09 30
        E 1 b3 09 1f
        E 1 b3 09 15
        E 1 b3 09 0e
        E 1 b3 09 23
        E 1 b3 09 24
        E 1 b3 09 2c
        E 1 b3 09 31
        E 1 b3 09 18
        E 1 b3 09 20
        E 1 b3 09 22
        E 1 b3 09 1a
        E 1 b3 09 2f
        E 1 b3 09 07
        E 1 b3 09 12
        E 1 b3 09 21
        E 4 b3 09 16
        E 4 b3 09 4c
        E 4 b3 09 32
        E 4 b3 09 07
        E 4 b3 09 48
        E 4 b3 09 3f
        E 4 b3 09 09
        E 4 b3 09 08
        E 4 b3 09 30
        E 4 b3 09 5f
        E 4 b3 09 50
        E 4 b3 09 58
        E 4 b3 09 3f
        E 4 b3 09 0b
        E 4 b3 09 13
        E 4 b3 09 44
        E 4 b3 09 37
        E 4 b3 09 1c
        E 4 b3 09 14
        E 4 b3 09 1b
        E 4 b3 09 4f
        E 4 b3 09 2f
        E 4 b3 09 17
        E 4 b3 09 3a
        E 4 b3 09 64
        E 4 b3 09 00
        E 4 b3 09 0c
        E 4 b3 09 29
        E 4 b3 09 22
        E 4 b3 09 53
        E 4 b3 09 15
        E 4 b3 09 06
        E 4 b3 09 0f
        E 4 b3 09 11
        E 4 b3 09 5b
        E 4 b3 09 19
        E 4 b3 09 00
        E 4 b3 09 4b
        E 4 b3 09 23
        E 4 b3 09 14
        E 4 b3 09 28
        E 4 b3 09 1a
        E 4 b3 09 56
        E 4 b3 09 55
        E 4 b3 09 65
        E 4 b3 09 54
        E 4 b3 09 2b
        E 4 b3 09 5e
        E 4 b3 09 48
        E 4 b3 09 0b
        E 4 b3 09 2c
        E 4 b3 09 36
        E 4 b3 09 60
        E 4 b3 09 4d
        E 4 b3 09 37
        E 4 b3 09 38
        E 4 b3 09 04
        E 4 b3 09 0a
        E 4 b3 09 5d
        E 4 b3 09 51
        E 4 b3 09 2b
        E 4 b3 09 1f
        E 4 b3 09 0d
        E 4 b3 09 2d
        E 4 b3 09 1e
        E 4 b3 09 18
        E 4 b3 09 26
        E 4 b3 09 34
        E 4 b3 09 3d
        E 4 b3 09 41
        E 4 b3 09 10
        E 4 b3 09 3c
        E 4 b3 09 5a
        E 4 b3 09 33
        E 4 b3 09 3b
        E 4 b3 09 02
        E 4 b3 09 07
        E 4 b3 09 63
        E 4 b3 09 42
        E 4 b3 09 12
        E 4 b3 09 5c
        E 4 b3 09 20
        E 4 b3 09 27
        E 4 b3 09 31
        E 4 b3 09 28
        E 4 b3 09 44
        E 4 b3 09 52
        E 4 b3 09 1d
        E 4 b3 09 39
        E 4 b3 09 17
        E 4 b3 09 5b
        E 4 b3 09 54
        E 4 b3 09 2e
        E 4 b3 09 24
        E 4 b3 09 50
        E 4 b3 09 25
        E 4 b3 09 47
        E 4 b3 09 0e
        E 4 b3 09 01
        E 4 b3 09 21
        E 4 b3 09 33
        E 4 b3 09 57
        E 4 b3 09 4e
        E 4 b3 09 03
        E 4 b3 09 57
        E 4 b3 09 4a
        E 4 b3 09 05
        E 4 b3 09 1f
        E 4 b3 09 3b
        E 4 b3 09 4c
        E 4 b3 09 61
        E 4 b3 09 3e
        E 4 b3 09 2a
        E 4 b3 09 1b
        E 4 b3 09 46
        E 4 b3 09 49
        E 4 b3 09 59
        E 4 b3 09 63
        E 4 b3 09 2f
        E 4 b3 09 40
        E 4 b3 09 45
        E 4 b3 09 35
        E 4 b3 09 5f
        E 4 b3 09 0f
        E 4 b3 09 24
        E 4 b3 09 43
        E 13 b3 09 16
        E 13 b3 09 4c
        E 13 b3 09 32
        E 13 b3 09 07
        E 13 b3 09 48
        E 13 b3 09 3f
        E 13 b3 09 09
        E 13 b3 09 08
        E 13 b3 09 30
        E 13 b3 09 5f
        E 13 b3 09 50
        E 13 b3 09 58
        E 13 b3 09 3f
        E 13 b3 09 0b
        E 13 b3 09 13
        E 13 b3 09 44
        E 13 b3 09 37
        E 13 b3 09 1c
        E 13 b3 09 14
        E 13 b3 09 1b
        E 13 b3 09 4f
        E 13 b3 09 2f
        E 13 b3 09 17
        E 13 b3 09 3a
        E 13 b3 09 64
        E 13 b3 09 00
        E 13 b3 09 0c
        E 13 b3 09 29
        E 13 b3 09 22
        E 13 b3 09 53
        E 13 b3 09 15
        E 13 b3 09 06
        E 13 b3 09 0f
        E 13 b3 09 11
        E 13 b3 09 5b
        E 13 b3 09 19
        E 13 b3 09 00
        E 13 b3 09 4b
        E 13 b3 09 23
        E 13 b3 09 14
        E 13 b3 09 28
        E 13 b3 09 1a
        E 13 b3 09 56
        E 13 b3 09 55
        E 13 b3 09 65
        E 13 b3 09 54
        E 13 b3 09 2b
        E 13 b3 09 5e
        E 13 b3 09 48
        E 13 b3 09 0b
        E 13 b3 09 2c
        E 13 b3 09 36
        E 13 b3 09 60
        E 13 b3 09 4d
        E 13 b3 09 37
        E 13 b3 09 38
        E 13 b3 09 04
        E 13 b3 09 0a
        E 13 b3 09 5d
        E 13 b3 09 51
        E 13 b3 09 2b
        E 13 b3 09 1f
        E 13 b3 09 0d
        E 13 b3 09 2d
        E 13 b3 09 1e
        E 13 b3 09 18
        E 13 b3 09 26
        E 13 b3 09 34
        E 13 b3 09 3d
        E 13 b3 09 41
        E 13 b3 09 10
        E 13 b3 09 3c
        E 13 b3 09 5a
        E 13 b3 09 33
        E 13 b3 09 3b
        E 13 b3 09 02
        E 13 b3 09 07
        E 13 b3 09 63
        E 13 b3 09 42
        E 13 b3 09 12
        E 13 b3 09 5c
        E 13 b3 09 20
        E 13 b3 09 27
        E 13 b3 09 31
        E 13 b3 09 28
        E 13 b3 09 44
        E 13 b3 09 52
        E 13 b3 09 1d
        E 13 b3 09 39
        E 13 b3 09 17
        E 13 b3 09 5b
        E 13 b3 09 54
        E 13 b3 09 2e
        E 13 b3 09 24
        E 13 b3 09 50
        E 13 b3 09 25
        E 13 b3 09 47
        E 13 b3 09 0e
        E 13 b3 09 01
        E 13 b3 09 21
        E 13 b3 09 33
        E 13 b3 09 57
        E 13 b3 09 4e
        E 13 b3 09 03
        E 13 b3 09 57
        E 13 b3 09 4a
        E 13 b3 09 05
        E 13 b3 09 1f
        E 13 b3 09 3b
        E 13 b3 09 4c
        E 13 b3 09 61
        E 13 b3 09 3e
        E 13 b3 09 2a
        E 13 b3 09 1b
        E 13 b3 09 46
        E 13 b3 09 49
        E 13 b3 09 59
        E 13 b3 09 63
        E 13 b3 09 2f
        E 13 b3 09 40
        E 13 b3 09 45
        E 13 b3 09 35
        E 13 b3 09 5f
        E 13 b3 09 0f
        E 13 b3 09 24
        E 13 b3 09 43
        E 3 b3 09 10
        E 3 b3 09 39
        E 3 b3 09 25
        E 3 b3 09 06
        E 3 b3 09 36
        E 3 b3 09 30
        E 3 b3 09 07
        E 3 b3 09 06
        E 3 b3 09 24
        E 3 b3 09 48
        E 3 b3 09 3c
        E 3 b3 09 42
        E 3 b3 09 2f
        E 3 b3 09 08
        E 3 b3 09 0e
        E 3 b3 09 33
        E 3 b3 09 2a
        E 3 b3 09 15
        E 3 b3 09 0f
        E 3 b3 09 14
        E 3 b3 09 3b
        E 3 b3 09 23
        E 3 b3 09 12
        E 3 b3 09 2b
        E 3 b3 09 4b
        E 3 b3 09 00
        E 3 b3 09 09
        E 3 b3 09 1f
        E 3 b3 09 19
        E 3 b3 09 3e
        E 3 b3 09 10
        E 3 b3 09 04
        E 3 b3 09 0c
        E 3 b3 09 0d
        E 3 b3 09 45
        E 3 b3 09 13
        E 3 b3 09 00
        E 3 b3 09 38
        E 3 b3 09 1a
        E 3 b3 09 0f
        E 3 b3 09 1e
        E 3 b3 09 13
        E 3 b3 09 40
        E 3 b3 09 40
        E 3 b3 09 4c
        E 3 b3 09 3f
        E 3 b3 09 21
        E 3 b3 09 46
        E 3 b3 09 36
        E 3 b3 09 09
        E 3 b3 09 21
        E 3 b3 09 28
        E 3 b3 09 48
        E 3 b3 09 3a
        E 3 b3 09 29
        E 3 b3 09 2a
        E 3 b3 09 03
        E 3 b3 09 07
        E 3 b3 09 46
        E 3 b3 09 3d
        E 3 b3 09 20
        E 3 b3 09 18
        E 3 b3 09 0a
        E 3 b3 09 22
        E 3 b3 09 16
        E 3 b3 09 12
        E 3 b3 09 1c
        E 3 b3 09 27
        E 3 b3 09 2e
        E 3 b3 09 31
        E 3 b3 09 0c
        E 3 b3 09 2d
        E 3 b3 09 43
        E 3 b3 09 27
        E 3 b3 09 2c
        E 3 b3 09 01
        E 3 b3 09 05
        E 3 b3 09 4b
        E 3 b3 09 31
        E 3 b3 09 0d
        E 3 b3 09 45
        E 3 b3 09 18
        E 3 b3 09 1d
        E 3 b3 09 25
        E 3 b3 09 1e
        E 3 b3 09 33
        E 3 b3 09 3d
        E 3 b3 09 16
        E 3 b3 09 2b
        E 3 b3 09 11
        E 3 b3 09 44
        E 3 b3 09 3f
        E 3 b3 09 22
        E 3 b3 09 1b
        E 3 b3 09 3c
        E 3 b3 09 1c
        E 3 b3 09 35
        E 3 b3 09 0a
        E 3 b3 09 01
        E 3 b3 09 19
        E 3 b3 09 26
        E 3 b3 09 41
        E 3 b3 09 3a
        E 3 b3 09 02
        E 3 b3 09 42
        E 3 b3 09 37
        E 3 b3 09 04
        E 3 b3 09 17
        E 3 b3 09 2d
        E 3 b3 09 39
        E 3 b3 09 49
        E 3 b3 09 2e
        E 3 b3 09 1f
        E 3 b3 09 15
        E 3 b3 09 34
        E 3 b3 09 37
        E 3 b3 09 43
        E 3 b3 09 4a
        E 3 b3 09 24
        E 3 b3 09 30
        E 3 b3 09 34
        E 3 b3 09 28
        E 3 b3 09 47
        E 3 b3 09 0b
        E 3 b3 09 1b
        E 3 b3 09 32
        E 13 b3 09 0b
        E 13 b3 09 26
        E 13 b3 09 19
        E 13 b3 09 04
        E 13 b3 09 24
        E 13 b3 09 20
        E 13 b3 09 04
        E 13 b3 09 04
        E 13 b3 09 18
        E 13 b3 09 30
        E 13 b3 09 28
        E 13 b3 09 2c
        E 13 b3 09 1f
        E 13 b3 09 05
        E 13 b3 09 09
        E 13 b3 09 22
        E 13 b3 09 1c
        E 13 b3 09 0e
        E 13 b3 09 0a
        E 13 b3 09 0d
        E 13 b3 09 27
        E 13 b3 09 17
        E 13 b3 09 0c
        E 13 b3 09 1d
        E 13 b3 09 32
        E 13 b3 09 00
        E 13 b3 09 06
        E 13 b3 09 14
        E 13 b3 09 11
        E 13 b3 09 29
        E 13 b3 09 0a
        E 13 b3 09 03
        E 13 b3 09 08
        E 13 b3 09 08
        E 13 b3 09 2e
        E 13 b3 09 0c
        E 13 b3 09 00
        E 13 b3 09 25
        E 13 b3 09 11
        E 13 b3 09 0a
        E 13 b3 09 14
        E 13 b3 09 0d
        E 13 b3 09 2b
        E 13 b3 09 2a
        E 13 b3 09 32
        E 13 b3 09 2a
        E 13 b3 09 16
        E 13 b3 09 2f
        E 13 b3 09 24
        E 13 b3 09 06
        E 13 b3 09 16
        E 13 b3 09 1b
        E 13 b3 09 30
        E 13 b3 09 26
        E 13 b3 09 1b
        E 13 b3 09 1c
        E 13 b3 09 02
        E 13 b3 09 05
        E 13 b3 09 2e
        E 13 b3 09 28
        E 13 b3 09 15
        E 13 b3 09 10
        E 13 b3 09 06
        E 13 b3 09 16
        E 13 b3 09 0f
        E 13 b3 09 0c
        E 13 b3 09 13
        E 13 b3 09 1a
        E 13 b3 09 1e
        E 13 b3 09 20
        E 13 b3 09 08
        E 13 b3 09 1e
        E 13 b3 09 2d
        E 13 b3 09 1a
        E 13 b3 09 1d
        E 13 b3 09 01
        E 13 b3 09 03
        E 13 b3 09 32
        E 13 b3 09 21
        E 13 b3 09 09
        E 13 b3 09 2e
        E 13 b3 09 10
        E 13 b3 09 13
        E 13 b3 09 18
        E 13 b3 09 14
        E 13 b3 09 22
        E 13 b3 09 29
        E 13 b3 09 0e
        E 13 b3 09 1c
        E 13 b3 09 0b
        E 13 b3 09 2d
        E 13 b3 09 2a
        E 13 b3 09 17
        E 13 b3 09 12
        E 13 b3 09 28
        E 13 b3 09 12
        E 13 b3 09 23
        E 13 b3 09 07
        E 13 b3 09 00
        E 13 b3 09 10
        E 13 b3 09 19
        E 13 b3 09 2b
        E 13 b3 09 27
        E 13 b3 09 01
        E 13 b3 09 2c
        E 13 b3 09 25
        E 13 b3 09 02
        E 13 b3 09 0f
        E 13 b3 09 1e
        E 13 b3 09 26
        E 13 b3 09 30
        E 13 b3 09 1f
        E 13 b3 09 15
        E 13 b3 09 0e
        E 13 b3 09 23
        E 13 b3 09 24
        E 13 b3 09 2c
        E 13 b3 09 31
        E 13 b3 09 18
        E 13 b3 09 20
        E 13 b3 09 22
        E 13 b3 09 1a
        E 13 b3 09 2f
        E 13 b3 09 07
        E 13 b3 09 12
        E 13 b3 09 21
        E 7 b3 09 13
        E 7 b3 09 43
        E 7 b3 09 2c
        E 7 b3 09 07
        E 7 b3 09 3e
        E 7 b3 09 38
        E 7 b3 09 08
        E 7 b3 09 07
        E 7 b3 09 2a
        E 7 b3 09 54
        E 7 b3 09 46
        E 7 b3 09 4d
        E 7 b3 09 37
        E 7 b3 09 09
        E 7 b3 09 10
        E 7 b3 09 3c
        E 7 b3 09 31
        E 7 b3 09 19
        E 7 b3 09 11
        E 7 b3 09 17
        E 7 b3 09 45
        E 7 b3 09 29
        E 7 b3 09 15
        E 7 b3 09 33
        E 7 b3 09 58
        E 7 b3 09 00
        E 7 b3 09 0b
        E 7 b3 09 24
        E 7 b3 09 1e
        E 7 b3 09 48
        E 7 b3 09 12
        E 7 b3 09 05
        E 7 b3 09 0e
        E 7 b3 09 0f
        E 7 b3 09 50
        E 7 b3 09 16
        E 7 b3 09 00
        E 7 b3 09 41
        E 7 b3 09 1e
        E 7 b3 09 12
        E 7 b3 09 23
        E 7 b3 09 17
        E 7 b3 09 4b
        E 7 b3 09 4a
        E 7 b3 09 58
        E 7 b3 09 4a
        E 7 b3 09 26
        E 7 b3 09 52
        E 7 b3 09 3f
        E 7 b3 09 0a
        E 7 b3 09 27
        E 7 b3 09 2f
        E 7 b3 09 54
        E 7 b3 09 43
        E 7 b3 09 30
        E 7 b3 09 31
        E 7 b3 09 04
        E 7 b3 09 09
        E 7 b3 09 51
        E 7 b3 09 47
        E 7 b3 09 25
        E 7 b3 09 1c
        E 7 b3 09 0b
        E 7 b3 09 27
        E 7 b3 09 1a
        E 7 b3 09 15
        E 7 b3 09 21
        E 7 b3 09 2e
        E 7 b3 09 35
        E 7 b3 09 39
        E 7 b3 09 0e
        E 7 b3 09 35
        E 7 b3 09 4f
        E 7 b3 09 2d
        E 7 b3 09 33
        E 7 b3 09 02
        E 7 b3 09 06
        E 7 b3 09 57
        E 7 b3 09 3a
        E 7 b3 09 10
        E 7 b3 09 51
        E 7 b3 09 1c
        E 7 b3 09 22
        E 7 b3 09 2b
        E 7 b3 09 23
        E 7 b3 09 3b
        E 7 b3 09 48
        E 7 b3 09 19
        E 7 b3 09 32
        E 7 b3 09 14
        E 7 b3 09 4f
        E 7 b3 09 49
        E 7 b3 09 28
        E 7 b3 09 20
        E 7 b3 09 46
        E 7 b3 09 20
        E 7 b3 09 3e
        E 7 b3 09 0c
        E 7 b3 09 01
        E 7 b3 09 1d
        E 7 b3 09 2c
        E 7 b3 09 4c
        E 7 b3 09 44
        E 7 b3 09 02
        E 7 b3 09 4d
        E 7 b3 09 41
        E 7 b3 09 04
        E 7 b3 09 1b
        E 7 b3 09 34
        E 7 b3 09 42
        E 7 b3 09 55
        E 7 b3 09 36
        E 7 b3 09 25
        E 7 b3 09 18
        E 7 b3 09 3d
        E 7 b3 09 40
        E 7 b3 09 4e
        E 7 b3 09 56
        E 7 b3 09 2a
        E 7 b3 09 38
        E 7 b3 09 3c
        E 7 b3 09 2e
        E 7 b3 09 53
        E 7 b3 09 0d
        E 7 b3 09 1f
        E 7 b3 09 3a
        E 1 b3 09 0b
        E 1 b3 09 26
        E 1 b3 09 19
        E 1 b3 09 04
        E 1 b3 09 24
        E 1 b3 09 20
        E 1 b3 09 04
        E 1 b3 09 04
        E 1 b3 09 18
        E 1 b3 09 30
        E 1 b3 09 28
        E 1 b3 09 2c
        E 1 b3 09 1f
        E 1 b3 09 05
        E 1 b3 09 09
        E 1 b3 09 22
        E 1 b3 09 1c
        E 1 b3 09 0e
        E 1 b3 09 0a
        E 1 b3 09 0d
        E 1 b3 09 27
        E 1 b3 09 17
        E 1 b3 09 0c
        E 1 b3 09 1d
        E 1 b3 09 32
        E 1 b3 09 00
        E 1 b3 09 06
        E 1 b3 09 14
        E 1 b3 09 11
        E 1 b3 09 29
        E 1 b3 09 0a
        E 1 b3 09 03
        E 1 b3 09 08
        E 1 b3 09 08
        E 1 b3 09 2e
        E 1 b3 09 0c
        E 1 b3 09 00
        E 1 b3 09 25
        E 1 b3 09 11
        E 1 b3 09 0a
        E 1 b3 09 14
        E 1 b3 09 0d
        E 1 b3 09 2b
        E 1 b3 09 2a
        E 1 b3 09 32
        E 1 b3 09 2a
        E 1 b3 09 16
        E 1 b3 09 2f
        E 1 b3 09 24
        E 1 b3 09 06
        E 1 b3 09 16
        E 1 b3 09 1b
        E 1 b3 09 30
        E 1 b3 09 26
        E 1 b3 09 1b
        E 1 b3 09 1c
        E 1 b3 09 02
        E 1 b3 09 05
        E 1 b3 09 2e
        E 1 b3 09 28
        E 1 b3 09 15
        E 1 b3 09 10
        E 1 b3 09 06
        E 1 b3 09 16
        E 1 b3 09 0f
        E 1 b3 09 0c
        E 1 b3 09 13
        E 1 b3 09 1a
        E 1 b3 09 1e
        E 1 b3 09 20
        E 1 b3 09 08
        E 1 b3 09 1e
        E 1 b3 09 2d
        E 1 b3 09 1a
        E 1 b3 09 1d
        E 1 b3 09 01
        E 1 b3 09 03
        E 1 b3 09 32
        E 1 b3 09 21
        E 1 b3 09 09
        E 1 b3 09 2e
        E 1 b3 09 10
        E 1 b3 09 13
        E 1 b3 09 18
        E 1 b3 09 14
        E 1 b3 09 22
        E 1 b3 09 29
        E 1 b3 09 0e
        E 1 b3 09 1c
        E 1 b3 09 0b
        E 1 b3 09 2d
        E 1 b3 09 2a
        E 1 b3 09 17
        E 1 b3 09 12
        E 1 b3 09 28
        E 1 b3 09 12
        E 1 b3 09 23
        E 1 b3 09 07
        E 1 b3 09 00
        E 1 b3 09 10
        E 1 b3 09 19
        E 1 b3 09 2b
        E 1 b3 09 27
        E 1 b3 09 01
        E 1 b3 09 2c
        E 1 b3 09 25
        E 1 b3 09 02
        E 1 b3 09 0f
        E 1 b3 09 1e
        E 1 b3 09 26
        E 1 b3 09 30
        E 1 b3 09 1f
        E 1 b3 09 15
        E 1 b3 09 0e
        E 1 b3 09 23
        E 1 b3 09 24
        E 1 b3 09 2c
        E 1 b3 09 31
        E 1 b3 09 18
        E 1 b3 09 20
        E 1 b3 09 22
        E 1 b3 09 1a
        E 1 b3 09 2f
        E 1 b3 09 07
        E 1 b3 09 12
        E 1 b3 09 21
        E 4 b3 09 16
        E 4 b3 09 4c
        E 4 b3 09 32
        E 4 b3 09 07
        E 4 b3 09 48
        E 4 b3 09 3f
        E 4 b3 09 09
        E 4 b3 09 08
        E 4 b3 09 30
        E 4 b3 09 5f
        E 4 b3 09 50
        E 4 b3 09 58
        E 4 b3 09 3f
        E 4 b3 09 0b
        E 4 b3 09 13
        E 4 b3 09 44
        E 4 b3 09 37
        E 4 b3 09 1c
        E 4 b3 09 14
        E 4 b3 09 1b
        E 4 b3 09 4f
        E 4 b3 09 2f
        E 4 b3 09 17
        E 4 b3 09 3a
        E 4 b3 09 64
        E 4 b3 09 00
        E 4 b3 09 0c
        E 4 b3 09 29
        E 4 b3 09 22
        E 4 b3 09 53
        E 4 b3 09 15
        E 4 b3 09 06
        E 4 b3 09 0f
        E 4 b3 09 11
        E 4 b3 09 5b
        E 4 b3 09 19
        E 4 b3 09 00
        E 4 b3 09 4b
        E 4 b3 09 23
        E 4 b3 09 14
        E 4 b3 09 28
        E 4 b3 09 1a
        E 4 b3 09 56
        E 4 b3 09 55
        E 4 b3 09 65
        E 4 b3 09 54
        E 4 b3 09 2b
        E 4 b3 09 5e
        E 4 b3 09 48
        E 4 b3 09 0b
        E 4 b3 09 2c
        E 4 b3 09 36
        E 4 b3 09 60
        E 4 b3 09 4d
        E 4 b3 09 37
        E 4 b3 09 38
        E 4 b3 09 04
        E 4 b3 09 0a
        E 4 b3 09 5d
        E 4 b3 09 51
        E 4 b3 09 2b
        E 4 b3 09 1f
        E 4 b3 09 0d
        E 4 b3 09 2d
        E 4 b3 09 1e
        E 4 b3 09 18
        E 4 b3 09 26
        E 4 b3 09 34
        E 4 b3 09 3d
        E 4 b3 09 41
        E 4 b3 09 10
        E 4 b3 09 3c
        E 4 b3 09 5a
        E 4 b3 09 33
        E 4 b3 09 3b
        E 4 b3 09 02
        E 4 b3 09 07
        E 4 b3 09 63
        E 4 b3 09 42
        E 4 b3 09 12
        E 4 b3 09 5c
        E 4 b3 09 20
        E 4 b3 09 27
        E 4 b3 09 31
        E 4 b3 09 28
        E 4 b3 09 44
        E 4 b3 09 52
        E 4 b3 09 1d
        E 4 b3 09 39
        E 4 b3 09 17
        E 4 b3 09 5b
        E 4 b3 09 54
        E 4 b3 09 2e
        E 4 b3 09 24
        E 4 b3 09 50
        E 4 b3 09 25
        E 4 b3 09 47
        E 4 b3 09 0e
        E 4 b3 09 01
        E 4 b3 09 21
        E 4 b3 09 33
        E 4 b3 09 57
        E 4 b3 09 4e
        E 4 b3 09 03
        E 4 b3 09 57
        E 4 b3 09 4a
        E 4 b3 09 05
        E 4 b3 09 1f
        E 4 b3 09 3b
        E 4 b3 09 4c
        E 4 b3 09 61
        E 4 b3 09 3e
        E 4 b3 09 2a
        E 4 b3 09 1b
        E 4 b3 09 46
        E 4 b3 09 49
        E 4 b3 09 59
        E 4 b3 09 63
        E 4 b3 09 2f
        E 4 b3 09 40
        E 4 b3 09 45
        E 4 b3 09 35
        E 4 b3 09 5f
        E 4 b3 09 0f
        E 4 b3 09 24
        E 4 b3 09 43
        E 13 b3 09 16
        E 13 b3 09 4c
        E 13 b3 09 32
        E 13 b3 09 07
        E 13 b3 09 48
        E 13 b3 09 3f
        E 13 b3 09 09
        E 13 b3 09 08
        E 13 b3 09 30
        E 13 b3 09 5f
        E 13 b3 09 50
        E 13 b3 09 58
        E 13 b3 09 3f
        E 13 b3 09 0b
        E 13 b3 09 13
        E 13 b3 09 44
        E 13 b3 09 37
        E 13 b3 09 1c
        E 13 b3 09 14
        E 13 b3 09 1b
        E 13 b3 09 4f
        E 13 b3 09 2f
        E 13 b3 09 17
        E 13 b3 09 3a
        E 13 b3 09 64
        E 13 b3 09 00
        E 13 b3 09 0c
        E 13 b3 09 29
        E 13 b3 09 22
        E 13 b3 09 53
        E 13 b3 09 15
        E 13 b3 09 06
        E 13 b3 09 0f
        E 13 b3 09 11
        E 13 b3 09 5b
        E 13 b3 09 19
        E 13 b3 09 00
        E 13 b3 09 4b
        E 13 b3 09 23
        E 13 b3 09 14
        E 13 b3 09 28
        E 13 b3 09 1a
        E 13 b3 09 56
        E 13 b3 09 55
        E 13 b3 09 65
        E 13 b3 09 54
        E 13 b3 09 2b
        E 13 b3 09 5e
        E 13 b3 09 48
        E 13 b3 09 0b
        E 13 b3 09 2c
        E 13 b3 09 36
        E 13 b3 09 60
        E 13 b3 09 4d
        E 13 b3 09 37
        E 13 b3 09 38
        E 13 b3 09 04
        E 13 b3 09 0a
        E 13 b3 09 5d
        E 13 b3 09 51
        E 13 b3 09 2b
        E 13 b3 09 1f
        E 13 b3 09 0d
        E 13 b3 09 2d
        E 13 b3 09 1e
        E 13 b3 09 18
        E 13 b3 09 26
        E 13 b3 09 34
        E 13 b3 09 3d
        E 13 b3 09 41
        E 13 b3 09 10
        E 13 b3 09 3c
        E 13 b3 09 5a
        E 13 b3 09 33
        E 13 b3 09 3b
        E 13 b3 09 02
        E 13 b3 09 07
        E 13 b3 09 63
        E 13 b3 09 42
        E 13 b3 09 12
        E 13 b3 09 5c
        E 13 b3 09 20
        E 13 b3 09 27
        E 13 b3 09 31
        E 13 b3 09 28
        E 13 b3 09 44
        E 13 b3 09 52
        E 13 b3 09 1d
        E 13 b3 09 39
        E 13 b3 09 17
        E 13 b3 09 5b
        E 13 b3 09 54
        E 13 b3 09 2e
        E 13 b3 09 24
        E 13 b3 09 50
        E 13 b3 09 25
        E 13 b3 09 47
        E 13 b3 09 0e
        E 13 b3 09 01
        E 13 b3 09 21
        E 13 b3 09 33
        E 13 b3 09 57
        E 13 b3 09 4e
        E 13 b3 09 03
        E 13 b3 09 57
        E 13 b3 09 4a
        E 13 b3 09 05
        E 13 b3 09 1f
        E 13 b3 09 3b
        E 13 b3 09 4c
        E 13 b3 09 61
        E 13 b3 09 3e
        E 13 b3 09 2a
        E 13 b3 09 1b
        E 13 b3 09 46
        E 13 b3 09 49
        E 13 b3 09 59
        E 13 b3 09 63
        E 13 b3 09 2f
        E 13 b3 09 40
        E 13 b3 09 45
        E 13 b3 09 35
        E 13 b3 09 5f
        E 13 b3 09 0f
        E 13 b3 09 24
        E 13 b3 09 43
        E 3 b3 09 10
        E 3 b3 09 39
        E 3 b3 09 25
        E 3 b3 09 06
        E 3 b3 09 36
        E 3 b3 09 30
        E 3 b3 09 07
        E 3 b3 09 06
        E 3 b3 09 24
        E 3 b3 09 48
        E 3 b3 09 3c
        E 3 b3 09 42
        E 3 b3 09 2f
        E 3 b3 09 08
        E 3 b3 09 0e
        E 3 b3 09 33
        E 3 b3 09 2a
        E 3 b3 09 15
        E 3 b3 09 0f
        E 3 b3 09 14
        E 3 b3 09 3b
        E 3 b3 09 23
        E 3 b3 09 12
        E 3 b3 09 2b
        E 3 b3 09 4b
        E 3 b3 09 00
        E 3 b3 09 09
        E 3 b3 09 1f
        E 3 b3 09 19
        E 3 b3 09 3e
        E 3 b3 09 10
        E 3 b3 09 04
        E 3 b3 09 0c
        E 3 b3 09 0d
        E 3 b3 09 45
        E 3 b3 09 13
        E 3 b3 09 00
        E 3 b3 09 38
        E 3 b3 09 1a
        E 3 b3 09 0f
        E 3 b3 09 1e
        E 3 b3 09 13
        E 3 b3 09 40
        E 3 b3 09 40
        E 3 b3 09 4c
        E 3 b3 09 3f
        E 3 b3 09 21
        E 3 b3 09 46
        E 3 b3 09 36
        E 3 b3 09 09
        E 3 b3 09 21
        E 3 b3 09 28
        E 3 b3 09 48
        E 3 b3 09 3a
        E 3 b3 09 29
        E 3 b3 09 2a
        E 3 b3 09 03
        E 3 b3 09 07
        E 3 b3 09 46
        E 3 b3 09 3d
        E 3 b3 09 20
        E 3 b3 09 18
        E 3 b3 09 0a
        E 3 b3 09 22
        E 3 b3 09 16
        E 3 b3 09 12
        E 3 b3 09 1c
        E 3 b3 09 27
        E 3 b3 09 2e
        E 3 b3 09 31
        E 3 b3 09 0c
        E 3 b3 09 2d
        E 3 b3 09 43
        E 3 b3 09 27
        E 3 b3 09 2c
        E 3 b3 09 01
        E 3 b3 09 05
        E 3 b3 09 4b
        E 3 b3 09 31
        E 3 b3 09 0d
        E 3 b3 09 45
        E 3 b3 09 18
        E 3 b3 09 1d
        E 3 b3 09 25
        E 3 b3 09 1e
        E 3 b3 09 33
        E 3 b3 09 3d
        E 3 b3 09 16
        E 3 b3 09 2b
        E 3 b3 09 11
        E 3 b3 09 44
        E 3 b3 09 3f
        E 3 b3 09 22
        E 3 b3 09 1b
        E 3 b3 09 3c
        E 3 b3 09 1c
        E 3 b3 09 35
        E 3 b3 09 0a
        E 3 b3 09 01
        E 3 b3 09 19
        E 3 b3 09 26
        E 3 b3 09 41
        E 3 b3 09 3a
        E 3 b3 09 02
        E 3 b3 09 42
        E 3 b3 09 37
        E 3 b3 09 04
        E 3 b3 09 17
        E 3 b3 09 2d
        E 3 b3 09 39
        E 3 b3 09 49
        E 3 b3 09 2e
        E 3 b3 09 1f
        E 3 b3 09 15
        E 3 b3 09 34
        E 3 b3 09 37
        E 3 b3 09 43
        E 3 b3 09 4a
        E 3 b3 09 24
        E 3 b3 09 30
        E 3 b3 09 34
        E 3 b3 09 28
        E 3 b3 09 47
        E 3 b3 09 0b
        E 3 b3 09 1b
        E 3 b3 09 32
        E 13 b3 09 0b
        E 13 b3 09 26
        E 13 b3 09 19
        E 13 b3 09 04
        E 13 b3 09 24
        E 13 b3 09 20
        E 13 b3 09 04
        E 13 b3 09 04
        E 13 b3 09 18
        E 13 b3 09 30
        E 13 b3 09 28
        E 13 b3 09 2c
        E 13 b3 09 1f
        E 13 b3 09 05
        E 13 b3 09 09
        E 13 b3 09 22
        E 13 b3 09 1c
        E 13 b3 09 0e
        E 13 b3 09 0a
        E 13 b3 09 0d
        E 13 b3 09 27
        E 13 b3 09 17
        E 13 b3 09 0c
        E 13 b3 09 1d
        E 13 b3 09 32
        E 13 b3 09 00
        E 13 b3 09 06
        E 13 b3 09 14
        E 13 b3 09 11
        E 13 b3 09 29
        E 13 b3 09 0a
        E 13 b3 09 03
        E 13 b3 09 08
        E 13 b3 09 08
        E 13 b3 09 2e
        E 13 b3 09 0c
        E 13 b3 09 00
        E 13 b3 09 25
        E 13 b3 09 11
        E 13 b3 09 0a
        E 13 b3 09 14
        E 13 b3 09 0d
        E 13 b3 09 2b
        E 13 b3 09 2a
        E 13 b3 09 32
        E 13 b3 09 2a
        E 13 b3 09 16
        E 13 b3 09 2f
        E 13 b3 09 24
        E 13 b3 09 06
        E 13 b3 09 16
        E 13 b3 09 1b
        E 13 b3 09 30
        E 13 b3 09 26
        E 13 b3 09 1b
        E 13 b3 09 1c
        E 13 b3 09 02
        E 13 b3 09 05
        E 13 b3 09 2e
        E 13 b3 09 28
        E 13 b3 09 15
        E 13 b3 09 10
        E 13 b3 09 06
        E 13 b3 09 16
        E 13 b3 09 0f
        E 13 b3 09 0c
        E 13 b3 09 13
        E 13 b3 09 1a
        E 13 b3 09 1e
        E 13 b3 09 20
        E 13 b3 09 08
        E 13 b3 09 1e
        E 13 b3 09 2d
        E 13 b3 09 1a
        E 13 b3 09 1d
        E 13 b3 09 01
        E 13 b3 09 03
        E 13 b3 09 32
        E 13 b3 09 21
        E 13 b3 09 09
        E 13 b3 09 2e
        E 13 b3 09 10
        E 13 b3 09 13
        E 13 b3 09 18
        E 13 b3 09 14
        E 13 b3 09 22
        E 13 b3 09 29
        E 13 b3 09 0e
        E 13 b3 09 1c
        E 13 b3 09 0b
        E 13 b3 09 2d
        E 13 b3 09 2a
        E 13 b3 09 17
        E 13 b3 09 12
        E 13 b3 09 28
        E 13 b3 09 12
        E 13 b3 09 23
        E 13 b3 09 07
        E 13 b3 09 00
        E 13 b3 09 10
        E 13 b3 09 19
        E 13 b3 09 2b
        E 13 b3 09 27
        E 13 b3 09 01
        E 13 b3 09 2c
        E 13 b3 09 25
        E 13 b3 09 02
        E 13 b3 09 0f
        E 13 b3 09 1e
        E 13 b3 09 26
        E 13 b3 09 30
        E 13 b3 09 1f
        E 13 b3 09 15
        E 13 b3 09 0e
        E 13 b3 09 23
        E 13 b3 09 24
        E 13 b3 09 2c
        E 13 b3 09 31
        E 13 b3 09 18
        E 13 b3 09 20
        E 13 b3 09 22
        E 13 b3 09 1a
        E 13 b3 09 2f
        E 13 b3 09 07
        E 13 b3 09 12
        E 13 b3 09 21
        E 7 b3 09 13
        E 7 b3 09 43
        E 7 b3 09 2c
        E 7 b3 09 07
        E 7 b3 09 3e
        E 7 b3 09 38
        E 7 b3 09 08
        E 7 b3 09 07
        E 7 b3 09 2a
        E 7 b3 09 54
        E 7 b3 09 46
        E 7 b3 09 4d
        E 7 b3 09 37
        E 7 b3 09 09
        E 7 b3 09 10
        E 7 b3 09 3c
        E 7 b3 09 31
        E 7 b3 09 19
        E 7 b3 09 11
        E 7 b3 09 17
        E 7 b3 09 45
        E 7 b3 09 29
        E 7 b3 09 15
        E 7 b3 09 33
        E 7 b3 09 58
        E 7 b3 09 00
        E 7 b3 09 0b
        E 7 b3 09 24
        E 7 b3 09 1e
        E 7 b3 09 48
        E 7 b3 09 12
        E 7 b3 09 05
        E 7 b3 09 0e
        E 7 b3 09 0f
        E 7 b3 09 50
        E 7 b3 09 16
        E 7 b3 09 00
        E 7 b3 09 41
        E 7 b3 09 1e
        E 7 b3 09 12
        E 7 b3 09 23
        E 7 b3 09 17
        E 7 b3 09 4b
        E 7 b3 09 4a
        E 7 b3 09 58
        E 7 b3 09 4a
        E 7 b3 09 26
        E 7 b3 09 52
        E 7 b3 09 3f
        E 7 b3 09 0a
        E 7 b3 09 27
        E 7 b3 09 2f
        E 7 b3 09 54
        E 7 b3 09 43
        E 7 b3 09 30
        E 7 b3 09 31
        E 7 b3 09 04
        E 7 b3 09 09
        E 7 b3 09 51
        E 7 b3 09 47
        E 7 b3 09 25
        E 7 b3 09 1c
        E 7 b3 09 0b
        E 7 b3 09 27
        E 7 b3 09 1a
        E 7 b3 09 15
        E 7 b3 09 21
        E 7 b3 09 2e
        E 7 b3 09 35
        E 7 b3 09 39
        E 7 b3 09 0e
        E 7 b3 09 35
        E 7 b3 09 4f
        E 7 b3 09 2d
        E 7 b3 09 33
        E 7 b3 09 02
        E 7 b3 09 06
        E 7 b3 09 57
        E 7 b3 09 3a
        E 7 b3 09 10
        E 7 b3 09 51
        E 7 b3 09 1c
        E 7 b3 09 22
        E 7 b3 09 2b
        E 7 b3 09 23
        E 7 b3 09 3b
        E 7 b3 09 48
        E 7 b3 09 19
        E 7 b3 09 32
        E 7 b3 09 14
        E 7 b3 09 4f
        E 7 b3 09 49
        E 7 b3 09 28
        E 7 b3 09 20
        E 7 b3 09 46
        E 7 b3 09 20
        E 7 b3 09 3e
        E 7 b3 09 0c
        E 7 b3 09 01
        E 7 b3 09 1d
        E 7 b3 09 2c
        E 7 b3 09 4c
        E 7 b3 09 44
        E 7 b3 09 02
        E 7 b3 09 4d
        E 7 b3 09 41
        E 7 b3 09 04
        E 7 b3 09 1b
        E 7 b3 09 34
        E 7 b3 09 42
        E 7 b3 09 55
        E 7 b3 09 36
        E 7 b3 09 25
        E 7 b3 09 18
        E 7 b3 09 3d
        E 7 b3 09 40
        E 7 b3 09 4e
        E 7 b3 09 56
        E 7 b3 09 2a
        E 7 b3 09 38
        E 7 b3 09 3c
        E 7 b3 09 2e
        E 7 b3 09 53
        E 7 b3 09 0d
        E 7 b3 09 1f
        E 7 b3 09 3a
        E 1 b3 09 0b
        E 1 b3 09 26
        E 1 b3 09 19
        E 1 b3 09 04
        E 1 b3 09 24
        E 1 b3 09 20
        E 1 b3 09 04
        E 1 b3 09 04
        E 1 b3 09 18
        E 1 b3 09 30
        E 1 b3 09 28
        E 1 b3 09 2c
        E 1 b3 09 1f
        E 1 b3 09 05
        E 1 b3 09 09
        E 1 b3 09 22
        E 1 b3 09 1c
        E 1 b3 09 0e
        E 1 b3 09 0a
        E 1 b3 09 0d
        E 1 b3 09 27
        E 1 b3 09 17
        E 1 b3 09 0c
        E 1 b3 09 1d
        E 1 b3 09 32
        E 1 b3 09 00
        E 1 b3 09 06
        E 1 b3 09 14
        E 1 b3 09 11
        E 1 b3 09 29
        E 1 b3 09 0a
        E 1 b3 09 03
        E 1 b3 09 08
        E 1 b3 09 08
        E 1 b3 09 2e
        E 1 b3 09 0c
        E 1 b3 09 00
        E 1 b3 09 25
        E 1 b3 09 11
        E 1 b3 09 0a
        E 1 b3 09 14
        E 1 b3 09 0d
        E 1 b3 09 2b
        E 1 b3 09 2a
        E 1 b3 09 32
        E 1 b3 09 2a
        E 1 b3 09 16
        E 1 b3 09 2f
        E 1 b3 09 24
        E 1 b3 09 06
        E 1 b3 09 16
        E 1 b3 09 1b
        E 1 b3 09 30
        E 1 b3 09 26
        E 1 b3 09 1b
        E 1 b3 09 1c
        E 1 b3 09 02
        E 1 b3 09 05
        E 1 b3 09 2e
        E 1 b3 09 28
        E 1 b3 09 15
        E 1 b3 09 10
        E 1 b3 09 06
        E 1 b3 09 16
        E 1 b3 09 0f
        E 1 b3 09 0c
        E 1 b3 09 13
        E 1 b3 09 1a
        E 1 b3 09 1e
        E 1 b3 09 20
        E 1 b3 09 08
        E 1 b3 09 1e
        E 1 b3 09 2d
        E 1 b3 09 1a
        E 1 b3 09 1d
        E 1 b3 09 01
        E 1 b3 09 03
        E 1 b3 09 32
        E 1 b3 09 21
        E 1 b3 09 09
        E 1 b3 09 2e
        E 1 b3 09 10
        E 1 b3 09 13
        E 1 b3 09 18
        E 1 b3 09 14
        E 1 b3 09 22
        E 1 b3 09 29
        E 1 b3 09 0e
        E 1 b3 09 1c
        E 1 b3 09 0b
        E 1 b3 09 2d
        E 1 b3 09 2a
        E 1 b3 09 17
        E 1 b3 09 12
        E 1 b3 09 28
        E 1 b3 09 12
        E 1 b3 09 23
        E 1 b3 09 07
        E 1 b3 09 00
        E 1 b3 09 10
        E 1 b3 09 19
        E 1 b3 09 2b
        E 1 b3 09 27
        E 1 b3 09 01
        E 1 b3 09 2c
        E 1 b3 09 25
        E 1 b3 09 02
        E 1 b3 09 0f
        E 1 b3 09 1e
        E 1 b3 09 26
        E 1 b3 09 30
        E 1 b3 09 1f
        E 1 b3 09 15
        E 1 b3 09 0e
        E 1 b3 09 23
        E 1 b3 09 24
        E 1 b3 09 2c
        E 1 b3 09 31
        E 1 b3 09 18
        E 1 b3 09 20
        E 1 b3 09 22
        E 1 b3 09 1a
        E 1 b3 09 2f
        E 1 b3 09 07
        E 1 b3 09 12
        E 1 b3 09 21
        E 4 b3 09 16
        E 4 b3 09 4c
        E 4 b3 09 32
        E 4 b3 09 07
        E 4 b3 09 48
        E 4 b3 09 3f
        E 4 b3 09 09
        E 4 b3 09 08
        E 4 b3 09 30
        E 4 b3 09 5f
        E 4 b3 09 50
        E 4 b3 09 58
        E 4 b3 09 3f
        E 4 b3 09 0b
        E 4 b3 09 13
        E 4 b3 09 44
        E 4 b3 09 37
        E 4 b3 09 1c
        E 4 b3 09 14
        E 4 b3 09 1b
        E 4 b3 09 4f
        E 4 b3 09 2f
        E 4 b3 09 17
        E 4 b3 09 3a
        E 4 b3 09 64
        E 4 b3 09 00
        E 4 b3 09 0c
        E 4 b3 09 29
        E 4 b3 09 22
        E 4 b3 09 53
        E 4 b3 09 15
        E 4 b3 09 06
        E 4 b3 09 0f
        E 4 b3 09 11
        E 4 b3 09 5b
        E 4 b3 09 19
        E 4 b3 09 00
        E 4 b3 09 4b
        E 4 b3 09 23
        E 4 b3 09 14
        E 4 b3 09 28
        E 4 b3 09 1a
        E 4 b3 09 56
        E 4 b3 09 55
        E 4 b3 09 65
        E 4 b3 09 54
        E 4 b3 09 2b
        E 4 b3 09 5e
        E 4 b3 09 48
        E 4 b3 09 0b
        E 4 b3 09 2c
        E 4 b3 09 36
        E 4 b3 09 60
        E 4 b3 09 4d
        E 4 b3 09 37
        E 4 b3 09 38
        E 4 b3 09 04
        E 4 b3 09 0a
        E 4 b3 09 5d
        E 4 b3 09 51
        E 4 b3 09 2b
        E 4 b3 09 1f
        E 4 b3 09 0d
        E 4 b3 09 2d
        E 4 b3 09 1e
        E 4 b3 09 18
        E 4 b3 09 26
        E 4 b3 09 34
        E 4 b3 09 3d
        E 4 b3 09 41
        E 4 b3 09 10
        E 4 b3 09 3c
        E 4 b3 09 5a
        E 4 b3 09 33
        E 4 b3 09 3b
        E 4 b3 09 02
        E 4 b3 09 07
        E 4 b3 09 63
        E 4 b3 09 42
        E 4 b3 09 12
        E 4 b3 09 5c
        E 4 b3 09 20
        E 4 b3 09 27
        E 4 b3 09 31
        E 4 b3 09 28
        E 4 b3 09 44
        E 4 b3 09 52
        E 4 b3 09 1d
        E 4 b3 09 39
        E 4 b3 09 17
        E 4 b3 09 5b
        E 4 b3 09 54
        E 4 b3 09 2e
        E 4 b3 09 24
        E 4 b3 09 50
        E 4 b3 09 25
        E 4 b3 09 47
        E 4 b3 09 0e
        E 4 b3 09 01
        E 4 b3 09 21
        E 4 b3 09 33
        E 4 b3 09 57
        E 4 b3 09 4e
        E 4 b3 09 03
        E 4 b3 09 57
        E 4 b3 09 4a
        E 4 b3 09 05
        E 4 b3 09 1f
        E 4 b3 09 3b
        E 4 b3 09 4c
        E 4 b3 09 61
        E 4 b3 09 3e
        E 4 b3 09 2a
        E 4 b3 09 1b
        E 4 b3 09 46
        E 4 b3 09 49
        E 4 b3 09 59
        E 4 b3 09 63
        E 4 b3 09 2f
        E 4 b3 09 40
        E 4 b3 09 45
        E 4 b3 09 35
        E 4 b3 09 5f
        E 4 b3 09 0f
        E 4 b3 09 24
        E 4 b3 09 43
        E 13 b3 09 16
        E 13 b3 09 4c
        E 13 b3 09 32
        E 13 b3 09 07
        E 13 b3 09 48
        E 13 b3 09 3f
        E 13 b3 09 09
        E 13 b3 09 08
        E 13 b3 09 30
        E 13 b3 09 5f
        E 13 b3 09 50
        E 13 b3 09 58
        E 13 b3 09 3f
        E 13 b3 09 0b
        E 13 b3 09 13
        E 13 b3 09 44
        E 13 b3 09 37
        E 13 b3 09 1c
        E 13 b3 09 14
        E 13 b3 09 1b
        E 13 b3 09 4f
        E 13 b3 09 2f
        E 13 b3 09 17
        E 13 b3 09 3a
        E 13 b3 09 64
        E 13 b3 09 00
        E 13 b3 09 0c
        E 13 b3 09 29
        E 13 b3 09 22
        E 13 b3 09 53
        E 13 b3 09 15
        E 13 b3 09 06
        E 13 b3 09 0f
        E 13 b3 09 11
        E 13 b3 09 5b
        E 13 b3 09 19
        E 13 b3 09 00
        E 13 b3 09 4b
        E 13 b3 09 23
        E 13 b3 09 14
        E 13 b3 09 28
        E 13 b3 09 1a
        E 13 b3 09 56
        E 13 b3 09 55
        E 13 b3 09 65
        E 13 b3 09 54
        E 13 b3 09 2b
        E 13 b3 09 5e
        E 13 b3 09 48
        E 13 b3 09 0b
        E 13 b3 09 2c
        E 13 b3 09 36
        E 13 b3 09 60
        E 13 b3 09 4d
        E 13 b3 09 37
        E 13 b3 09 38
        E 13 b3 09 04
        E 13 b3 09 0a
        E 13 b3 09 5d
        E 13 b3 09 51
        E 13 b3 09 2b
        E 13 b3 09 1f
        E 13 b3 09 0d
        E 13 b3 09 2d
        E 13 b3 09 1e
        E 13 b3 09 18
        E 13 b3 09 26
        E 13 b3 09 34
        E 13 b3 09 3d
        E 13 b3 09 41
        E 13 b3 09 10
        E 13 b3 09 3c
        E 13 b3 09 5a
        E 13 b3 09 33
        E 13 b3 09 3b
        E 13 b3 09 02
        E 13 b3 09 07
        E 13 b3 09 63
        E 13 b3 09 42
        E 13 b3 09 12
        E 13 b3 09 5c
        E 13 b3 09 20
        E 13 b3 09 27
        E 13 b3 09 31
        E 13 b3 09 28
        E 13 b3 09 44
        E 13 b3 09 52
        E 13 b3 09 1d
        E 13 b3 09 39
        E 13 b3 09 17
        E 13 b3 09 5b
        E 13 b3 09 54
        E 13 b3 09 2e
        E 13 b3 09 24
        E 13 b3 09 50
        E 13 b3 09 25
        E 13 b3 09 47
        E 13 b3 09 0e
        E 13 b3 09 01
        E 13 b3 09 21
        E 13 b3 09 33
        E 13 b3 09 57
        E 13 b3 09 4e
        E 13 b3 09 03
        E 13 b3 09 57
        E 13 b3 09 4a
        E 13 b3 09 05
        E 13 b3 09 1f
        E 13 b3 09 3b
        E 13 b3 09 4c
        E 13 b3 09 61
        E 13 b3 09 3e
        E 13 b3 09 2a
        E 13 b3 09 1b
        E 13 b3 09 46
        E 13 b3 09 49
        E 13 b3 09 59
        E 13 b3 09 63
        E 13 b3 09 2f
        E 13 b3 09 40
        E 13 b3 09 45
        E 13 b3 09 35
        E 13 b3 09 5f
        E 13 b3 09 0f
        E 13 b3 09 24
        E 13 b3 09 43
        E 10 b3 09 01
        E 10 b3 09 02
        E 10 b3 09 04
        E 10 b3 09 05
        E 10 b3 09 07
        E 10 b3 09 08
        E 10 b3 09 09
        E 10 b3 09 0b
        E 10 b3 09 0c
        E 10 b3 09 0e
        E 10 b3 09 0f
        E 10 b3 09 10
        E 10 b3 09 12
        E 10 b3 09 13
        E 10 b3 09 15
        E 10 b3 09 16
        E 10 b3 09 17
        E 10 b3 09 19
        E 10 b3 09 1a
        E 10 b3 09 1c
        E 10 b3 09 1d
        E 10 b3 09 1e
        E 10 b3 09 20
        E 10 b3 09 21
        E 10 b3 09 23
        E 10 b3 09 24
        E 10 b3 09 25
        E 10 b3 09 27
        E 10 b3 09 28
        E 10 b3 09 2a
        E 10 b3 09 2b
        E 10 b3 09 2c
        E 10 b3 09 2e
        E 10 b3 09 2f
        E 10 b3 09 31
        E 10 b3 09 32
        E 10 b3 09 33
        E 10 b3 09 35
        E 10 b3 09 36
        E 10 b3 09 38
        E 10 b3 09 39
        E 10 b3 09 3a
        E 10 b3 09 3c
        E 10 b3 09 3d
        E 10 b3 09 3e
        E 10 b3 09 40
        E 10 b3 09 41
        E 10 b3 09 43
        E 10 b3 09 44
        E 10 b3 09 46
        E 10 b3 09 47
        E 10 b3 09 48
        E 10 b3 09 4a
        E 10 b3 09 4b
        E 10 b3 09 4d
        E 10 b3 09 4e
        E 10 b3 09 4f
        E 10 b3 09 51
        E 10 b3 09 52
        E 10 b3 09 54
        E 10 b3 09 55
        E 10 b3 09 56
        E 10 b3 09 58
        E 10 b3 09 58
        E 10 b3 09 58
        E 10 b3 09 56
        E 10 b3 09 55
        E 10 b3 09 54
        E 10 b3 09 52
        E 10 b3 09 51
        E 10 b3 09 4f
        E 10 b3 09 4e
        E 10 b3 09 4d
        E 10 b3 09 4b
        E 10 b3 09 4a
        E 10 b3 09 48
        E 10 b3 09 47
        E 10 b3 09 46
        E 10 b3 09 44
        E 10 b3 09 43
        E 10 b3 09 41
        E 10 b3 09 40
        E 10 b3 09 3e
        E 10 b3 09 3d
        E 10 b3 09 3c
        E 10 b3 09 3a
        E 10 b3 09 39
        E 10 b3 09 38
        E 10 b3 09 36
        E 10 b3 09 35
        E 10 b3 09 33
        E 10 b3 09 32
        E 10 b3 09 31
        E 10 b3 09 2f
        E 10 b3 09 2e
        E 10 b3 09 2c
        E 10 b3 09 2b
        E 10 b3 09 2a
        E 10 b3 09 28
        E 10 b3 09 27
        E 10 b3 09 25
        E 10 b3 09 24
        E 10 b3 09 23
        E 10 b3 09 21
        E 10 b3 09 20
        E 10 b3 09 1e
        E 10 b3 09 1d
        E 10 b3 09 1c
        E 10 b3 09 1a
        E 10 b3 09 19
        E 10 b3 09 17
        E 10 b3 09 16
        E 10 b3 09 15
        E 10 b3 09 13
        E 10 b3 09 12
        E 10 b3 09 10
        E 10 b3 09 0f
        E 10 b3 09 0e
        E 10 b3 09 0c
        E 10 b3 09 0b
        E 10 b3 09 09
        E 10 b3 09 08
        E 10 b3 09 07
        E 10 b3 09 05
        E 10 b3 09 04
        E 10 b3 09 02
        E 10 b3 09 01
        E 10 b3 09 00
        E 2 b3 09 00
        E 2 b3 09 01
        E 2 b3 09 02
        E 2 b3 09 03
        E 2 b3 09 04
        E 2 b3 09 04
        E 2 b3 09 05
        E 2 b3 09 06
        E 2 b3 09 07
        E 2 b3 09 08
        E 2 b3 09 08
        E 2 b3 09 09
        E 2 b3 09 0a
        E 2 b3 09 0b
        E 2 b3 09 0c
        E 2 b3 09 0c
        E 2 b3 09 0d
        E 2 b3 09 0e
        E 2 b3 09 0f
        E 2 b3 09 10
        E 2 b3 09 10
        E 2 b3 09 11
        E 2 b3 09 12
        E 2 b3 09 13
        E 2 b3 09 14
        E 2 b3 09 14
        E 2 b3 09 15
        E 2 b3 09 16
        E 2 b3 09 17
        E 2 b3 09 18
        E 2 b3 09 18
        E 2 b3 09 19
        E 2 b3 09 1a
        E 2 b3 09 1b
        E 2 b3 09 1c
        E 2 b3 09 1c
        E 2 b3 09 1d
        E 2 b3 09 1e
        E 2 b3 09 1f
        E 2 b3 09 20
        E 2 b3 09 20
        E 2 b3 09 21
        E 2 b3 09 22
        E 2 b3 09 23
        E 2 b3 09 24
        E 2 b3 09 24
        E 2 b3 09 25
        E 2 b3 09 26
        E 2 b3 09 27
        E 2 b3 09 28
        E 2 b3 09 28
        E 2 b3 09 29
        E 2 b3 09 2a
        E 2 b3 09 2b
        E 2 b3 09 2c
        E 2 b3 09 2c
        E 2 b3 09 2d
        E 2 b3 09 2e
        E 2 b3 09 2f
        E 2 b3 09 30
        E 2 b3 09 30
        E 2 b3 09 31
        E 2 b3 09 32
        E 2 b3 09 32
        E 2 b3 09 32
        E 2 b3 09 31
        E 2 b3 09 30
        E 2 b3 09 30
        E 2 b3 09 2f
        E 2 b3 09 2e
        E 2 b3 09 2d
        E 2 b3 09 2c
        E 2 b3 09 2c
        E 2 b3 09 2b
        E 2 b3 09 2a
        E 2 b3 09 29
        E 2 b3 09 28
        E 2 b3 09 28
        E 2 b3 09 27
        E 2 b3 09 26
        E 2 b3 09 25
        E 2 b3 09 24
        E 2 b3 09 24
        E 2 b3 09 23
        E 2 b3 09 22
        E 2 b3 09 21
        E 2 b3 09 20
        E 2 b3 09 20
        E 2 b3 09 1f
        E 2 b3 09 1e
        E 2 b3 09 1d
        E 2 b3 09 1c
        E 2 b3 09 1c
        E 2 b3 09 1b
        E 2 b3 09 1a
        E 2 b3 09 19
        E 2 b3 09 18
        E 2 b3 09 18
        E 2 b3 09 17
        E 2 b3 09 16
        E 2 b3 09 15
        E 2 b3 09 14
        E 2 b3 09 14
        E 2 b3 09 13
        E 2 b3 09 12
        E 2 b3 09 11
        E 2 b3 09 10
        E 2 b3 09 10
        E 2 b3 09 0f
        E 2 b3 09 0e
        E 2 b3 09 0d
        E 2 b3 09 0c
        E 2 b3 09 0c
        E 2 b3 09 0b
        E 2 b3 09 0a
        E 2 b3 09 09
        E 2 b3 09 08
        E 2 b3 09 08
        E 2 b3 09 07
        E 2 b3 09 06
        E 2 b3 09 05
        E 2 b3 09 04
        E 2 b3 09 04
        E 2 b3 09 03
        E 2 b3 09 02
        E 2 b3 09 01
        E 2 b3 09 00
        E 2 b3 09 00
        E 6 b3 09 01
        E 6 b3 09 03
        E 6 b3 09 04
        E 6 b3 09 06
        E 6 b3 09 07
        E 6 b3 09 09
        E 6 b3 09 0b
        E 6 b3 09 0c
        E 6 b3 09 0e
        E 6 b3 09 0f
        E 6 b3 09 11
        E 6 b3 09 13
        E 6 b3 09 14
        E 6 b3 09 16
        E 6 b3 09 17
        E 6 b3 09 19
        E 6 b3 09 1b
        E 6 b3 09 1c
        E 6 b3 09 1e
        E 6 b3 09 1f
        E 6 b3 09 21
        E 6 b3 09 23
        E 6 b3 09 24
        E 6 b3 09 26
        E 6 b3 09 28
        E 6 b3 09 29
        E 6 b3 09 2b
        E 6 b3 09 2c
        E 6 b3 09 2e
        E 6 b3 09 2f
        E 6 b3 09 31
        E 6 b3 09 33
        E 6 b3 09 34
        E 6 b3 09 36
        E 6 b3 09 37
        E 6 b3 09 39
        E 6 b3 09 3b
        E 6 b3 09 3c
        E 6 b3 09 3e
        E 6 b3 09 3f
        E 6 b3 09 41
        E 6 b3 09 43
        E 6 b3 09 44
        E 6 b3 09 46
        E 6 b3 09 48
        E 6 b3 09 49
        E 6 b3 09 4b
        E 6 b3 09 4c
        E 6 b3 09 4e
        E 6 b3 09 50
        E 6 b3 09 51
        E 6 b3 09 53
        E 6 b3 09 54
        E 6 b3 09 56
        E 6 b3 09 57
        E 6 b3 09 59
        E 6 b3 09 5b
        E 6 b3 09 5c
        E 6 b3 09 5e
        E 6 b3 09 5f
        E 6 b3 09 61
        E 6 b3 09 63
        E 6 b3 09 64
        E 6 b3 09 65
        E 6 b3 09 64
        E 6 b3 09 63
        E 6 b3 09 61
        E 6 b3 09 5f
        E 6 b3 09 5e
        E 6 b3 09 5c
        E 6 b3 09 5b
        E 6 b3 09 59
        E 6 b3 09 57
        E 6 b3 09 56
        E 6 b3 09 54
        E 6 b3 09 53
        E 6 b3 09 51
        E 6 b3 09 50
        E 6 b3 09 4e
        E 6 b3 09 4c
        E 6 b3 09 4b
        E 6 b3 09 49
        E 6 b3 09 48
        E 6 b3 09 46
        E 6 b3 09 44
        E 6 b3 09 43
        E 6 b3 09 41
        E 6 b3 09 3f
        E 6 b3 09 3e
        E 6 b3 09 3c
        E 6 b3 09 3b
        E 6 b3 09 39
        E 6 b3 09 37
        E 6 b3 09 36
        E 6 b3 09 34
        E 6 b3 09 33
        E 6 b3 09 31
        E 6 b3 09 2f
        E 6 b3 09 2e
        E 6 b3 09 2c
        E 6 b3 09 2b
        E 6 b3 09 29
        E 6 b3 09 28
        E 6 b3 09 26
        E 6 b3 09 24
        E 6 b3 09 23
        E 6 b3 09 21
        E 6 b3 09 1f
        E 6 b3 09 1e
        E 6 b3 09 1c
        E 6 b3 09 1b
        E 6 b3 09 19
        E 6 b3 09 17
        E 6 b3 09 16
        E 6 b3 09 14
        E 6 b3 09 13
        E 6 b3 09 11
        E 6 b3 09 0f
        E 6 b3 09 0e
        E 6 b3 09 0c
        E 6 b3 09 0b
        E 6 b3 09 09
        E 6 b3 09 07
        E 6 b3 09 06
        E 6 b3 09 04
        E 6 b3 09 03
        E 6 b3 09 01
        E 6 b3 09 00
        E 18 b3 09 01
        E 18 b3 09 03
        E 18 b3 09 04
        E 18 b3 09 06
        E 18 b3 09 07
        E 18 b3 09 09
        E 18 b3 09 0b
        E 18 b3 09 0c
        E 18 b3 09 0e
        E 18 b3 09 0f
        E 18 b3 09 11
        E 18 b3 09 13
        E 18 b3 09 14
        E 18 b3 09 16
        E 18 b3 09 17
        E 18 b3 09 19
        E 18 b3 09 1b
        E 18 b3 09 1c
        E 18 b3 09 1e
        E 18 b3 09 1f
        E 18 b3 09 21
        E 18 b3 09 23
        E 18 b3 09 24
        E 18 b3 09 26
        E 18 b3 09 28
        E 18 b3 09 29
        E 18 b3 09 2b
        E 18 b3 09 2c
        E 18 b3 09 2e
        E 18 b3 09 2f
        E 18 b3 09 31
        E 18 b3 09 33
        E 18 b3 09 34
        E 18 b3 09 36
        E 18 b3 09 37
        E 18 b3 09 39
        E 18 b3 09 3b
        E 18 b3 09 3c
        E 18 b3 09 3e
        E 18 b3 09 3f
        E 18 b3 09 41
        E 18 b3 09 43
        E 18 b3 09 44
        E 18 b3 09 46
        E 18 b3 09 48
        E 18 b3 09 49
        E 18 b3 09 4b
        E 18 b3 09 4c
        E 18 b3 09 4e
        E 18 b3 09 50
        E 18 b3 09 51
        E 18 b3 09 53
        E 18 b3 09 54
        E 18 b3 09 56
        E 18 b3 09 57
        E 18 b3 09 59
        E 18 b3 09 5b
        E 18 b3 09 5c
        E 18 b3 09 5e
        E 18 b3 09 5f
        E 18 b3 09 61
        E 18 b3 09 63
        E 18 b3 09 64
        E 18 b3 09 65
        E 18 b3 09 64
        E 18 b3 09 63
        E 18 b3 09 61
        E 18 b3 09 5f
        E 18 b3 09 5e
        E 18 b3 09 5c
        E 18 b3 09 5b
        E 18 b3 09 59
        E 18 b3 09 57
        E 18 b3 09 56
        E 18 b3 09 54
        E 18 b3 09 53
        E 18 b3 09 51
        E 18 b3 09 50
        E 18 b3 09 4e
        E 18 b3 09 4c
        E 18 b3 09 4b
        E 18 b3 09 49
        E 18 b3 09 48
        E 18 b3 09 46
        E 18 b3 09 44
        E 18 b3 09 43
        E 18 b3 09 41
        E 18 b3 09 3f
        E 18 b3 09 3e
        E 18 b3 09 3c
        E 18 b3 09 3b
        E 18 b3 09 39
        E 18 b3 09 37
        E 18 b3 09 36
        E 18 b3 09 34
        E 18 b3 09 33
        E 18 b3 09 31
        E 18 b3 09 2f
        E 18 b3 09 2e
        E 18 b3 09 2c
        E 18 b3 09 2b
        E 18 b3 09 29
        E 18 b3 09 28
        E 18 b3 09 26
        E 18 b3 09 24
        E 18 b3 09 23
        E 18 b3 09 21
        E 18 b3 09 1f
        E 18 b3 09 1e
        E 18 b3 09 1c
        E 18 b3 09 1b
        E 18 b3 09 19
        E 18 b3 09 17
        E 18 b3 09 16
        E 18 b3 09 14
        E 18 b3 09 13
        E 18 b3 09 11
        E 18 b3 09 0f
        E 18 b3 09 0e
        E 18 b3 09 0c
        E 18 b3 09 0b
        E 18 b3 09 09
        E 18 b3 09 07
        E 18 b3 09 06
        E 18 b3 09 04
        E 18 b3 09 03
        E 18 b3 09 01
        E 18 b3 09 00
        E 4 b3 09 01
        E 4 b3 09 02
        E 4 b3 09 03
        E 4 b3 09 04
        E 4 b3 09 06
        E 4 b3 09 07
        E 4 b3 09 08
        E 4 b3 09 09
        E 4 b3 09 0a
        E 4 b3 09 0c
        E 4 b3 09 0d
        E 4 b3 09 0e
        E 4 b3 09 0f
        E 4 b3 09 10
        E 4 b3 09 12
        E 4 b3 09 13
        E 4 b3 09 14
        E 4 b3 09 15
        E 4 b3 09 16
        E 4 b3 09 18
        E 4 b3 09 19
        E 4 b3 09 1a
        E 4 b3 09 1b
        E 4 b3 09 1c
        E 4 b3 09 1e
        E 4 b3 09 1f
        E 4 b3 09 20
        E 4 b3 09 21
        E 4 b3 09 22
        E 4 b3 09 24
        E 4 b3 09 25
        E 4 b3 09 26
        E 4 b3 09 27
        E 4 b3 09 28
        E 4 b3 09 2a
        E 4 b3 09 2b
        E 4 b3 09 2c
        E 4 b3 09 2d
        E 4 b3 09 2e
        E 4 b3 09 30
        E 4 b3 09 31
        E 4 b3 09 32
        E 4 b3 09 33
        E 4 b3 09 34
        E 4 b3 09 36
        E 4 b3 09 37
        E 4 b3 09 38
        E 4 b3 09 39
        E 4 b3 09 3a
        E 4 b3 09 3c
        E 4 b3 09 3d
        E 4 b3 09 3e
        E 4 b3 09 3f
        E 4 b3 09 40
        E 4 b3 09 42
        E 4 b3 09 43
        E 4 b3 09 44
        E 4 b3 09 45
        E 4 b3 09 46
        E 4 b3 09 48
        E 4 b3 09 49
        E 4 b3 09 4a
        E 4 b3 09 4b
        E 4 b3 09 4c
        E 4 b3 09 4b
        E 4 b3 09 4a
        E 4 b3 09 49
        E 4 b3 09 48
        E 4 b3 09 46
        E 4 b3 09 45
        E 4 b3 09 44
        E 4 b3 09 43
        E 4 b3 09 42
        E 4 b3 09 40
        E 4 b3 09 3f
        E 4 b3 09 3e
        E 4 b3 09 3d
        E 4 b3 09 3c
        E 4 b3 09 3a
        E 4 b3 09 39
        E 4 b3 09 38
        E 4 b3 09 37
        E 4 b3 09 36
        E 4 b3 09 34
        E 4 b3 09 33
        E 4 b3 09 32
        E 4 b3 09 31
        E 4 b3 09 30
        E 4 b3 09 2e
        E 4 b3 09 2d
        E 4 b3 09 2c
        E 4 b3 09 2b
        E 4 b3 09 2a
        E 4 b3 09 28
        E 4 b3 09 27
        E 4 b3 09 26
        E 4 b3 09 25
        E 4 b3 09 24
        E 4 b3 09 22
        E 4 b3 09 21
        E 4 b3 09 20
        E 4 b3 09 1f
        E 4 b3 09 1e
        E 4 b3 09 1c
        E 4 b3 09 1b
        E 4 b3 09 1a
        E 4 b3 09 19
        E 4 b3 09 18
        E 4 b3 09 16
        E 4 b3 09 15
        E 4 b3 09 14
        E 4 b3 09 13
        E 4 b3 09 12
        E 4 b3 09 10
        E 4 b3 09 0f
        E 4 b3 09 0e
        E 4 b3 09 0d
        E 4 b3 09 0c
        E 4 b3 09 0a
        E 4 b3 09 09
        E 4 b3 09 08
        E 4 b3 09 07
        E 4 b3 09 06
        E 4 b3 09 04
        E 4 b3 09 03
        E 4 b3 09 02
        E 4 b3 09 01
        E 4 b3 09 00
        E 18 b3 09 00
        E 18 b3 09 01
        E 18 b3 09 02
        E 18 b3 09 03
        E 18 b3 09 04
        E 18 b3 09 04
        E 18 b3 09 05
        E 18 b3 09 06
        E 18 b3 09 07
        E 18 b3 09 08
        E 18 b3 09 08
        E 18 b3 09 09
        E 18 b3 09 0a
        E 18 b3 09 0b
        E 18 b3 09 0c
        E 18 b3 09 0c
        E 18 b3 09 0d
        E 18 b3 09 0e
        E 18 b3 09 0f
        E 18 b3 09 10
        E 18 b3 09 10
        E 18 b3 09 11
        E 18 b3 09 12
        E 18 b3 09 13
        E 18 b3 09 14
        E 18 b3 09 14
        E 18 b3 09 15
        E 18 b3 09 16
        E 18 b3 09 17
        E 18 b3 09 18
        E 18 b3 09 18
        E 18 b3 09 19
        E 18 b3 09 1a
        E 18 b3 09 1b
        E 18 b3 09 1c
        E 18 b3 09 1c
        E 18 b3 09 1d
        E 18 b3 09 1e
        E 18 b3 09 1f
        E 18 b3 09 20
        E 18 b3 09 20
        E 18 b3 09 21
        E 18 b3 09 22
        E 18 b3 09 23
        E 18 b3 09 24
        E 18 b3 09 24
        E 18 b3 09 25
        E 18 b3 09 26
        E 18 b3 09 27
        E 18 b3 09 28
        E 18 b3 09 28
        E 18 b3 09 29
        E 18 b3 09 2a
        E 18 b3 09 2b
        E 18 b3 09 2c
        E 18 b3 09 2c
        E 18 b3 09 2d
        E 18 b3 09 2e
        E 18 b3 09 2f
        E 18 b3 09 30
        E 18 b3 09 30
        E 18 b3 09 31
        E 18 b3 09 32
        E 18 b3 09 32
        E 18 b3 09 32
        E 18 b3 09 31
        E 18 b3 09 30
        E 18 b3 09 30
        E 18 b3 09 2f
        E 18 b3 09 2e
        E 18 b3 09 2d
        E 18 b3 09 2c
        E 18 b3 09 2c
        E 18 b3 09 2b
        E 18 b3 09 2a
        E 18 b3 09 29
        E 18 b3 09 28
        E 18 b3 09 28
        E 18 b3 09 27
        E 18 b3 09 26
        E 18 b3 09 25
        E 18 b3 09 24
        E 18 b3 09 24
        E 18 b3 09 23
        E 18 b3 09 22
        E 18 b3 09 21
        E 18 b3 09 20
        E 18 b3 09 20
        E 18 b3 09 1f
        E 18 b3 09 1e
        E 18 b3 09 1d
        E 18 b3 09 1c
        E 18 b3 09 1c
        E 18 b3 09 1b
        E 18 b3 09 1a
        E 18 b3 09 19
        E 18 b3 09 18
        E 18 b3 09 18
        E 18 b3 09 17
        E 18 b3 09 16
        E 18 b3 09 15
        E 18 b3 09 14
        E 18 b3 09 14
        E 18 b3 09 13
        E 18 b3 09 12
        E 18 b3 09 11
        E 18 b3 09 10
        E 18 b3 09 10
        E 18 b3 09 0f
        E 18 b3 09 0e
        E 18 b3 09 0d
        E 18 b3 09 0c
        E 18 b3 09 0c
        E 18 b3 09 0b
        E 18 b3 09 0a
        E 18 b3 09 09
        E 18 b3 09 08
        E 18 b3 09 08
        E 18 b3 09 07
        E 18 b3 09 06
        E 18 b3 09 05
        E 18 b3 09 04
        E 18 b3 09 04
        E 18 b3 09 03
        E 18 b3 09 02
        E 18 b3 09 01
        E 18 b3 09 00
        E 18 b3 09 00
        E 10 b3 09 01
        E 10 b3 09 02
        E 10 b3 09 04
        E 10 b3 09 05
        E 10 b3 09 07
        E 10 b3 09 08
        E 10 b3 09 09
        E 10 b3 09 0b
        E 10 b3 09 0c
        E 10 b3 09 0e
        E 10 b3 09 0f
        E 10 b3 09 10
        E 10 b3 09 12
        E 10 b3 09 13
        E 10 b3 09 15
        E 10 b3 09 16
        E 10 b3 09 17
        E 10 b3 09 19
        E 10 b3 09 1a
        E 10 b3 09 1c
        E 10 b3 09 1d
        E 10 b3 09 1e
        E 10 b3 09 20
        E 10 b3 09 21
        E 10 b3 09 23
        E 10 b3 09 24
        E 10 b3 09 25
        E 10 b3 09 27
        E 10 b3 09 28
        E 10 b3 09 2a
        E 10 b3 09 2b
        E 10 b3 09 2c
        E 10 b3 09 2e
        E 10 b3 09 2f
        E 10 b3 09 31
        E 10 b3 09 32
        E 10 b3 09 33
        E 10 b3 09 35
        E 10 b3 09 36
        E 10 b3 09 38
        E 10 b3 09 39
        E 10 b3 09 3a
        E 10 b3 09 3c
        E 10 b3 09 3d
        E 10 b3 09 3e
        E 10 b3 09 40
        E 10 b3 09 41
        E 10 b3 09 43
        E 10 b3 09 44
        E 10 b3 09 46
        E 10 b3 09 47
        E 10 b3 09 48
        E 10 b3 09 4a
        E 10 b3 09 4b
        E 10 b3 09 4d
        E 10 b3 09 4e
        E 10 b3 09 4f
        E 10 b3 09 51
        E 10 b3 09 52
        E 10 b3 09 54
        E 10 b3 09 55
        E 10 b3 09 56
        E 10 b3 09 58
        E 10 b3 09 58
        E 10 b3 09 58
        E 10 b3 09 56
        E 10 b3 09 55
        E 10 b3 09 54
        E 10 b3 09 52
        E 10 b3 09 51
        E 10 b3 09 4f
        E 10 b3 09 4e
        E 10 b3 09 4d
        E 10 b3 09 4b
        E 10 b3 09 4a
        E 10 b3 09 48
        E 10 b3 09 47
        E 10 b3 09 46
        E 10 b3 09 44
        E 10 b3 09 43
        E 10 b3 09 41
        E 10 b3 09 40
        E 10 b3 09 3e
        E 10 b3 09 3d
        E 10 b3 09 3c
        E 10 b3 09 3a
        E 10 b3 09 39
        E 10 b3 09 38
        E 10 b3 09 36
        E 10 b3 09 35
        E 10 b3 09 33
        E 10 b3 09 32
        E 10 b3 09 31
        E 10 b3 09 2f
        E 10 b3 09 2e
        E 10 b3 09 2c
        E 10 b3 09 2b
        E 10 b3 09 2a
        E 10 b3 09 28
        E 10 b3 09 27
        E 10 b3 09 25
        E 10 b3 09 24
        E 10 b3 09 23
        E 10 b3 09 21
        E 10 b3 09 20
        E 10 b3 09 1e
        E 10 b3 09 1d
        E 10 b3 09 1c
        E 10 b3 09 1a
        E 10 b3 09 19
        E 10 b3 09 17
        E 10 b3 09 16
        E 10 b3 09 15
        E 10 b3 09 13
        E 10 b3 09 12
        E 10 b3 09 10
        E 10 b3 09 0f
        E 10 b3 09 0e
        E 10 b3 09 0c
        E 10 b3 09 0b
        E 10 b3 09 09
        E 10 b3 09 08
        E 10 b3 09 07
        E 10 b3 09 05
        E 10 b3 09 04
        E 10 b3 09 02
        E 10 b3 09 01
        E 10 b3 09 00
        E 2 b3 09 00
        E 2 b3 09 01
        E 2 b3 09 02
        E 2 b3 09 03
        E 2 b3 09 04
        E 2 b3 09 04
        E 2 b3 09 05
        E 2 b3 09 06
        E 2 b3 09 07
        E 2 b3 09 08
        E 2 b3 09 08
        E 2 b3 09 09
        E 2 b3 09 0a
        E 2 b3 09 0b
        E 2 b3 09 0c
        E 2 b3 09 0c
        E 2 b3 09 0d
        E 2 b3 09 0e
        E 2 b3 09 0f
        E 2 b3 09 10
        E 2 b3 09 10
        E 2 b3 09 11
        E 2 b3 09 12
        E 2 b3 09 13
        E 2 b3 09 14
        E 2 b3 09 14
        E 2 b3 09 15
        E 2 b3 09 16
        E 2 b3 09 17
        E 2 b3 09 18
        E 2 b3 09 18
        E 2 b3 09 19
        E 2 b3 09 1a
        E 2 b3 09 1b
        E 2 b3 09 1c
        E 2 b3 09 1c
        E 2 b3 09 1d
        E 2 b3 09 1e
        E 2 b3 09 1f
        E 2 b3 09 20
        E 2 b3 09 20
        E 2 b3 09 21
        E 2 b3 09 22
        E 2 b3 09 23
        E 2 b3 09 24
        E 2 b3 09 24
        E 2 b3 09 25
        E 2 b3 09 26
        E 2 b3 09 27
        E 2 b3 09 28
        E 2 b3 09 28
        E 2 b3 09 29
        E 2 b3 09 2a
        E 2 b3 09 2b
        E 2 b3 09 2c
        E 2 b3 09 2c
        E 2 b3 09 2d
        E 2 b3 09 2e
        E 2 b3 09 2f
        E 2 b3 09 30
        E 2 b3 09 30
        E 2 b3 09 31
        E 2 b3 09 32
        E 2 b3 09 32
        E 2 b3 09 32
        E 2 b3 09 31
        E 2 b3 09 30
        E 2 b3 09 30
        E 2 b3 09 2f
        E 2 b3 09 2e
        E 2 b3 09 2d
        E 2 b3 09 2c
        E 2 b3 09 2c
        E 2 b3 09 2b
        E 2 b3 09 2a
        E 2 b3 09 29
        E 2 b3 09 28
        E 2 b3 09 28
        E 2 b3 09 27
        E 2 b3 09 26
        E 2 b3 09 25
        E 2 b3 09 24
        E 2 b3 09 24
        E 2 b3 09 23
        E 2 b3 09 22
        E 2 b3 09 21
        E 2 b3 09 20
        E 2 b3 09 20
        E 2 b3 09 1f
        E 2 b3 09 1e
        E 2 b3 09 1d
        E 2 b3 09 1c
        E 2 b3 09 1c
        E 2 b3 09 1b
        E 2 b3 09 1a
        E 2 b3 09 19
        E 2 b3 09 18
        E 2 b3 09 18
        E 2 b3 09 17
        E 2 b3 09 16
        E 2 b3 09 15
        E 2 b3 09 14
        E 2 b3 09 14
        E 2 b3 09 13
        E 2 b3 09 12
        E 2 b3 09 11
        E 2 b3 09 10
        E 2 b3 09 10
        E 2 b3 09 0f
        E 2 b3 09 0e
        E 2 b3 09 0d
        E 2 b3 09 0c
        E 2 b3 09 0c
        E 2 b3 09 0b
        E 2 b3 09 0a
        E 2 b3 09 09
        E 2 b3 09 08
        E 2 b3 09 08
        E 2 b3 09 07
        E 2 b3 09 06
        E 2 b3 09 05
        E 2 b3 09 04
        E 2 b3 09 04
        E 2 b3 09 03
        E 2 b3 09 02
        E 2 b3 09 01
        E 2 b3 09 00
        E 2 b3 09 00
        E 6 b3 09 01
        E 6 b3 09 03
        E 6 b3 09 04
        E 6 b3 09 06
        E 6 b3 09 07
        E 6 b3 09 09
        E 6 b3 09 0b
        E 6 b3 09 0c
        E 6 b3 09 0e
        E 6 b3 09 0f
        E 6 b3 09 11
        E 6 b3 09 13
        E 6 b3 09 14
        E 6 b3 09 16
        E 6 b3 09 17
        E 6 b3 09 19
        E 6 b3 09 1b
        E 6 b3 09 1c
        E 6 b3 09 1e
        E 6 b3 09 1f
        E 6 b3 09 21
        E 6 b3 09 23
        E 6 b3 09 24
        E 6 b3 09 26
        E 6 b3 09 28
        E 6 b3 09 29
        E 6 b3 09 2b
        E 6 b3 09 2c
        E 6 b3 09 2e
        E 6 b3 09 2f
        E 6 b3 09 31
        E 6 b3 09 33
        E 6 b3 09 34
        E 6 b3 09 36
        E 6 b3 09 37
        E 6 b3 09 39
        E 6 b3 09 3b
        E 6 b3 09 3c
        E 6 b3 09 3e
        E 6 b3 09 3f
        E 6 b3 09 41
        E 6 b3 09 43
        E 6 b3 09 44
        E 6 b3 09 46
        E 6 b3 09 48
        E 6 b3 09 49
        E 6 b3 09 4b
        E 6 b3 09 4c
        E 6 b3 09 4e
        E 6 b3 09 50
        E 6 b3 09 51
        E 6 b3 09 53
        E 6 b3 09 54
        E 6 b3 09 56
        E 6 b3 09 57
        E 6 b3 09 59
        E 6 b3 09 5b
        E 6 b3 09 5c
        E 6 b3 09 5e
        E 6 b3 09 5f
        E 6 b3 09 61
        E 6 b3 09 63
        E 6 b3 09 64
        E 6 b3 09 65
        E 6 b3 09 64
        E 6 b3 09 63
        E 6 b3 09 61
        E 6 b3 09 5f
        E 6 b3 09 5e
        E 6 b3 09 5c
        E 6 b3 09 5b
        E 6 b3 09 59
        E 6 b3 09 57
        E 6 b3 09 56
        E 6 b3 09 54
        E 6 b3 09 53
        E 6 b3 09 51
        E 6 b3 09 50
        E 6 b3 09 4e
        E 6 b3 09 4c
        E 6 b3 09 4b
        E 6 b3 09 49
        E 6 b3 09 48
        E 6 b3 09 46
        E 6 b3 09 44
        E 6 b3 09 43
        E 6 b3 09 41
        E 6 b3 09 3f
        E 6 b3 09 3e
        E 6 b3 09 3c
        E 6 b3 09 3b
        E 6 b3 09 39
        E 6 b3 09 37
        E 6 b3 09 36
        E 6 b3 09 34
        E 6 b3 09 33
        E 6 b3 09 31
        E 6 b3 09 2f
        E 6 b3 09 2e
        E 6 b3 09 2c
        E 6 b3 09 2b
        E 6 b3 09 29
        E 6 b3 09 28
        E 6 b3 09 26
        E 6 b3 09 24
        E 6 b3 09 23
        E 6 b3 09 21
        E 6 b3 09 1f
        E 6 b3 09 1e
        E 6 b3 09 1c
        E 6 b3 09 1b
        E 6 b3 09 19
        E 6 b3 09 17
        E 6 b3 09 16
        E 6 b3 09 14
        E 6 b3 09 13
        E 6 b3 09 11
        E 6 b3 09 0f
        E 6 b3 09 0e
        E 6 b3 09 0c
        E 6 b3 09 0b
        E 6 b3 09 09
        E 6 b3 09 07
        E 6 b3 09 06
        E 6 b3 09 04
        E 6 b3 09 03
        E 6 b3 09 01
        E 6 b3 09 00
        E 84 b0 7b 00
        CCINTERP 32
        CHASE_CC_TAKEOFFS 1
        GUID {9AAAAD31-C2AB-2B43-9BCD-402DBDE41A2B}
        IGNTEMPO 0 120 4 4
        SRCCOLOR 149
        VELLANE 3 601 0
        VELLANE -1 196 0
        CFGEDITVIEW 0 0.008186 62 12 0 -1 0 0 0 0.5
        KEYSNAP 0
        TRACKSEL 252
        EVTFILTER 0 -1 -1 -1 -1 0 0 0 0 -1 -1 -1 -1 0 -1 0 -1 -1
        CFGEDIT 1 1 0 1 0 0 1 1 1 1 1 0.125 0 0 1792 1095 0 0 0 0 0 0 0 0 0 0.5 0 0 1 64
      >
    >
  >
  <TRACK {100921C3-D148-DF45-9584-CED53E4833B8}
    NAME "germ-x hand sanitizer"
    PEAKCOL 16576
    BEAT -1
    AUTOMODE 0
    VOLPAN 1 0 -1 -1 1
    MUTESOLO 0 0 0
    IPHASE 0
    PLAYOFFS 0 1
    ISBUS 0 0
    BUSCOMP 0 0 0 0 0
    SHOWINMIX 1 0.6667 0.5 1 0.5 0 -1 0
    FREEMODE 0
    SEL 0
    REC 0 0 1 0 0 0 0
    VU 2
    TRACKHEIGHT 0 1 0 0 -1 0
    INQ 0 0 0 0.5 100 0 0 100
    NCHAN 2
    FX 1
    TRACKID {100921C3-D148-DF45-9584-CED53E4833B8}
    PERF 0
    MIDIOUT -1
    MAINSEND 1 0
    <ITEM
      POSITION 0
      SNAPOFFS 0
      LENGTH 789.72894
      LOOP 1
      ALLTAKES 0
      FADEIN 1 0 0 1 0 0
      FADEOUT 1 0 0 1 0 0
      MUTE 0 0
      SEL 0
      IGUID {FCDCBCA7-EE4E-224C-A032-6A8AE7ABF397}
      IID 17
      NAME "germ-x hand sanitizer.mid"
      VOLPAN 1 0 1 -1
      SOFFS 0 0
      PLAYRATE 1 1 0 -1 0 0.0025
      CHANMODE 0
      GUID {C9EDA35A-6163-5D44-90DD-219B0973A760}
      <SOURCE MIDI
        HASDATA 1 128 QN
        CCINTERP 32
        POOLEDEVTS {690D3DC3-1B7A-8740-B4BE-26FE99C993EA}
        E 16 b4 06 01
        E 16 b4 06 02
        E 16 b4 06 03
        E 16 b4 06 04
        E 16 b4 06 05
        E 16 b4 06 06
        E 16 b4 06 07
        E 16 b4 06 08
        E 16 b4 06 09
        E 16 b4 06 0a
        E 16 b4 06 0b
        E 16 b4 06 0c
        E 16 b4 06 0d
        E 16 b4 06 0e
        E 16 b4 06 0f
        E 16 b4 06 10
        E 16 b4 06 11
        E 16 b4 06 12
        E 16 b4 06 13
        E 16 b4 06 14
        E 16 b4 06 15
        E 16 b4 06 16
        E 16 b4 06 17
        E 16 b4 06 18
        E 16 b4 06 19
        E 16 b4 06 1a
        E 16 b4 06 1b
        E 16 b4 06 1c
        E 16 b4 06 1d
        E 16 b4 06 1e
        E 16 b4 06 1f
        E 16 b4 06 20
        E 16 b4 06 21
        E 16 b4 06 22
        E 16 b4 06 23
        E 16 b4 06 24
        E 16 b4 06 25
        E 16 b4 06 26
        E 16 b4 06 27
        E 16 b4 06 28
        E 16 b4 06 29
        E 16 b4 06 2a
        E 16 b4 06 2b
        E 16 b4 06 2c
        E 16 b4 06 2d
        E 16 b4 06 2e
        E 16 b4 06 2f
        E 16 b4 06 30
        E 16 b4 06 31
        E 16 b4 06 32
        E 16 b4 06 33
        E 16 b4 06 34
        E 16 b4 06 35
        E 16 b4 06 36
        E 16 b4 06 37
        E 16 b4 06 38
        E 16 b4 06 39
        E 16 b4 06 3a
        E 16 b4 06 3b
        E 16 b4 06 3c
        E 16 b4 06 3d
        E 16 b4 06 3e
        E 16 b4 06 3f
        E 16 b4 06 3f
        E 16 b4 06 3f
        E 16 b4 06 3e
        E 16 b4 06 3d
        E 16 b4 06 3c
        E 16 b4 06 3b
        E 16 b4 06 3a
        E 16 b4 06 39
        E 16 b4 06 38
        E 16 b4 06 37
        E 16 b4 06 36
        E 16 b4 06 35
        E 16 b4 06 34
        E 16 b4 06 33
        E 16 b4 06 32
        E 16 b4 06 31
        E 16 b4 06 30
        E 16 b4 06 2f
        E 16 b4 06 2e
        E 16 b4 06 2d
        E 16 b4 06 2c
        E 16 b4 06 2b
        E 16 b4 06 2a
        E 16 b4 06 29
        E 16 b4 06 28
        E 16 b4 06 27
        E 16 b4 06 26
        E 16 b4 06 25
        E 16 b4 06 24
        E 16 b4 06 23
        E 16 b4 06 22
        E 16 b4 06 21
        E 16 b4 06 20
        E 16 b4 06 1f
        E 16 b4 06 1e
        E 16 b4 06 1d
        E 16 b4 06 1c
        E 16 b4 06 1b
        E 16 b4 06 1a
        E 16 b4 06 19
        E 16 b4 06 18
        E 16 b4 06 17
        E 16 b4 06 16
        E 16 b4 06 15
        E 16 b4 06 14
        E 16 b4 06 13
        E 16 b4 06 12
        E 16 b4 06 11
        E 16 b4 06 10
        E 16 b4 06 0f
        E 16 b4 06 0e
        E 16 b4 06 0d
        E 16 b4 06 0c
        E 16 b4 06 0b
        E 16 b4 06 0a
        E 16 b4 06 09
        E 16 b4 06 08
        E 16 b4 06 07
        E 16 b4 06 06
        E 16 b4 06 05
        E 16 b4 06 04
        E 16 b4 06 03
        E 16 b4 06 02
        E 16 b4 06 01
        E 16 b4 06 00
        E 31 b4 06 00
        E 31 b4 06 00
        E 31 b4 06 00
        E 31 b4 06 00
        E 31 b4 06 01
        E 31 b4 06 01
        E 31 b4 06 01
        E 31 b4 06 01
        E 31 b4 06 01
        E 31 b4 06 02
        E 31 b4 06 02
        E 31 b4 06 02
        E 31 b4 06 02
        E 31 b4 06 02
        E 31 b4 06 03
        E 31 b4 06 03
        E 31 b4 06 03
        E 31 b4 06 03
        E 31 b4 06 03
        E 31 b4 06 04
        E 31 b4 06 04
        E 31 b4 06 04
        E 31 b4 06 04
        E 31 b4 06 04
        E 31 b4 06 05
        E 31 b4 06 05
        E 31 b4 06 05
        E 31 b4 06 05
        E 31 b4 06 05
        E 31 b4 06 06
        E 31 b4 06 06
        E 31 b4 06 06
        E 31 b4 06 06
        E 31 b4 06 06
        E 31 b4 06 07
        E 31 b4 06 07
        E 31 b4 06 07
        E 31 b4 06 07
        E 31 b4 06 07
        E 31 b4 06 08
        E 31 b4 06 08
        E 31 b4 06 08
        E 31 b4 06 08
        E 31 b4 06 08
        E 31 b4 06 09
        E 31 b4 06 09
        E 31 b4 06 09
        E 31 b4 06 09
        E 31 b4 06 09
        E 31 b4 06 0a
        E 31 b4 06 0a
        E 31 b4 06 0a
        E 31 b4 06 0a
        E 31 b4 06 0a
        E 31 b4 06 0b
        E 31 b4 06 0b
        E 31 b4 06 0b
        E 31 b4 06 0b
        E 31 b4 06 0b
        E 31 b4 06 0c
        E 31 b4 06 0c
        E 31 b4 06 0c
        E 31 b4 06 0c
        E 31 b4 06 0c
        E 31 b4 06 0c
        E 31 b4 06 0c
        E 31 b4 06 0c
        E 31 b4 06 0c
        E 31 b4 06 0b
        E 31 b4 06 0b
        E 31 b4 06 0b
        E 31 b4 06 0b
        E 31 b4 06 0b
        E 31 b4 06 0a
        E 31 b4 06 0a
        E 31 b4 06 0a
        E 31 b4 06 0a
        E 31 b4 06 0a
        E 31 b4 06 09
        E 31 b4 06 09
        E 31 b4 06 09
        E 31 b4 06 09
        E 31 b4 06 09
        E 31 b4 06 08
        E 31 b4 06 08
        E 31 b4 06 08
        E 31 b4 06 08
        E 31 b4 06 08
        E 31 b4 06 07
        E 31 b4 06 07
        E 31 b4 06 07
        E 31 b4 06 07
        E 31 b4 06 07
        E 31 b4 06 06
        E 31 b4 06 06
        E 31 b4 06 06
        E 31 b4 06 06
        E 31 b4 06 06
        E 31 b4 06 05
        E 31 b4 06 05
        E 31 b4 06 05
        E 31 b4 06 05
        E 31 b4 06 05
        E 31 b4 06 04
        E 31 b4 06 04
        E 31 b4 06 04
        E 31 b4 06 04
        E 31 b4 06 04
        E 31 b4 06 03
        E 31 b4 06 03
        E 31 b4 06 03
        E 31 b4 06 03
        E 31 b4 06 03
        E 31 b4 06 02
        E 31 b4 06 02
        E 31 b4 06 02
        E 31 b4 06 02
        E 31 b4 06 02
        E 31 b4 06 01
        E 31 b4 06 01
        E 31 b4 06 01
        E 31 b4 06 01
        E 31 b4 06 01
        E 31 b4 06 00
        E 31 b4 06 00
        E 31 b4 06 00
        E 31 b4 06 00
        E 31 b4 06 00
        E 31 b4 06 00
        E 31 b4 06 01
        E 31 b4 06 01
        E 31 b4 06 02
        E 31 b4 06 03
        E 31 b4 06 03
        E 31 b4 06 04
        E 31 b4 06 04
        E 31 b4 06 05
        E 31 b4 06 06
        E 31 b4 06 06
        E 31 b4 06 07
        E 31 b4 06 07
        E 31 b4 06 08
        E 31 b4 06 09
        E 31 b4 06 09
        E 31 b4 06 0a
        E 31 b4 06 0a
        E 31 b4 06 0b
        E 31 b4 06 0c
        E 31 b4 06 0c
        E 31 b4 06 0d
        E 31 b4 06 0d
        E 31 b4 06 0e
        E 31 b4 06 0f
        E 31 b4 06 0f
        E 31 b4 06 10
        E 31 b4 06 10
        E 31 b4 06 11
        E 31 b4 06 12
        E 31 b4 06 12
        E 31 b4 06 13
        E 31 b4 06 13
        E 31 b4 06 14
        E 31 b4 06 15
        E 31 b4 06 15
        E 31 b4 06 16
        E 31 b4 06 16
        E 31 b4 06 17
        E 31 b4 06 18
        E 31 b4 06 18
        E 31 b4 06 19
        E 31 b4 06 19
        E 31 b4 06 1a
        E 31 b4 06 1b
        E 31 b4 06 1b
        E 31 b4 06 1c
        E 31 b4 06 1c
        E 31 b4 06 1d
        E 31 b4 06 1e
        E 31 b4 06 1e
        E 31 b4 06 1f
        E 31 b4 06 1f
        E 31 b4 06 20
        E 31 b4 06 21
        E 31 b4 06 21
        E 31 b4 06 22
        E 31 b4 06 22
        E 31 b4 06 23
        E 31 b4 06 24
        E 31 b4 06 24
        E 31 b4 06 25
        E 31 b4 06 25
        E 31 b4 06 26
        E 31 b4 06 25
        E 31 b4 06 25
        E 31 b4 06 24
        E 31 b4 06 24
        E 31 b4 06 23
        E 31 b4 06 22
        E 31 b4 06 22
        E 31 b4 06 21
        E 31 b4 06 21
        E 31 b4 06 20
        E 31 b4 06 1f
        E 31 b4 06 1f
        E 31 b4 06 1e
        E 31 b4 06 1e
        E 31 b4 06 1d
        E 31 b4 06 1c
        E 31 b4 06 1c
        E 31 b4 06 1b
        E 31 b4 06 1b
        E 31 b4 06 1a
        E 31 b4 06 19
        E 31 b4 06 19
        E 31 b4 06 18
        E 31 b4 06 18
        E 31 b4 06 17
        E 31 b4 06 16
        E 31 b4 06 16
        E 31 b4 06 15
        E 31 b4 06 15
        E 31 b4 06 14
        E 31 b4 06 13
        E 31 b4 06 13
        E 31 b4 06 12
        E 31 b4 06 12
        E 31 b4 06 11
        E 31 b4 06 10
        E 31 b4 06 10
        E 31 b4 06 0f
        E 31 b4 06 0f
        E 31 b4 06 0e
        E 31 b4 06 0d
        E 31 b4 06 0d
        E 31 b4 06 0c
        E 31 b4 06 0c
        E 31 b4 06 0b
        E 31 b4 06 0a
        E 31 b4 06 0a
        E 31 b4 06 09
        E 31 b4 06 09
        E 31 b4 06 08
        E 31 b4 06 07
        E 31 b4 06 07
        E 31 b4 06 06
        E 31 b4 06 06
        E 31 b4 06 05
        E 31 b4 06 04
        E 31 b4 06 04
        E 31 b4 06 03
        E 31 b4 06 03
        E 31 b4 06 02
        E 31 b4 06 01
        E 31 b4 06 01
        E 31 b4 06 00
        E 31 b4 06 00
        E 24 b4 06 01
        E 24 b4 06 03
        E 24 b4 06 05
        E 24 b4 06 07
        E 24 b4 06 09
        E 24 b4 06 0a
        E 24 b4 06 0c
        E 24 b4 06 0e
        E 24 b4 06 10
        E 24 b4 06 12
        E 24 b4 06 13
        E 24 b4 06 15
        E 24 b4 06 17
        E 24 b4 06 19
        E 24 b4 06 1b
        E 24 b4 06 1c
        E 24 b4 06 1e
        E 24 b4 06 20
        E 24 b4 06 22
        E 24 b4 06 24
        E 24 b4 06 25
        E 24 b4 06 27
        E 24 b4 06 29
        E 24 b4 06 2b
        E 24 b4 06 2d
        E 24 b4 06 2e
        E 24 b4 06 30
        E 24 b4 06 32
        E 24 b4 06 34
        E 24 b4 06 36
        E 24 b4 06 37
        E 24 b4 06 39
        E 24 b4 06 3b
        E 24 b4 06 3d
        E 24 b4 06 3f
        E 24 b4 06 40
        E 24 b4 06 42
        E 24 b4 06 44
        E 24 b4 06 46
        E 24 b4 06 48
        E 24 b4 06 49
        E 24 b4 06 4b
        E 24 b4 06 4d
        E 24 b4 06 4f
        E 24 b4 06 51
        E 24 b4 06 52
        E 24 b4 06 54
        E 24 b4 06 56
        E 24 b4 06 58
        E 24 b4 06 5a
        E 24 b4 06 5b
        E 24 b4 06 5d
        E 24 b4 06 5f
        E 24 b4 06 61
        E 24 b4 06 63
        E 24 b4 06 64
        E 24 b4 06 66
        E 24 b4 06 68
        E 24 b4 06 6a
        E 24 b4 06 6c
        E 24 b4 06 6d
        E 24 b4 06 6f
        E 24 b4 06 71
        E 24 b4 06 72
        E 24 b4 06 71
        E 24 b4 06 6f
        E 24 b4 06 6d
        E 24 b4 06 6c
        E 24 b4 06 6a
        E 24 b4 06 68
        E 24 b4 06 66
        E 24 b4 06 64
        E 24 b4 06 63
        E 24 b4 06 61
        E 24 b4 06 5f
        E 24 b4 06 5d
        E 24 b4 06 5b
        E 24 b4 06 5a
        E 24 b4 06 58
        E 24 b4 06 56
        E 24 b4 06 54
        E 24 b4 06 52
        E 24 b4 06 51
        E 24 b4 06 4f
        E 24 b4 06 4d
        E 24 b4 06 4b
        E 24 b4 06 49
        E 24 b4 06 48
        E 24 b4 06 46
        E 24 b4 06 44
        E 24 b4 06 42
        E 24 b4 06 40
        E 24 b4 06 3f
        E 24 b4 06 3d
        E 24 b4 06 3b
        E 24 b4 06 39
        E 24 b4 06 37
        E 24 b4 06 36
        E 24 b4 06 34
        E 24 b4 06 32
        E 24 b4 06 30
        E 24 b4 06 2e
        E 24 b4 06 2d
        E 24 b4 06 2b
        E 24 b4 06 29
        E 24 b4 06 27
        E 24 b4 06 25
        E 24 b4 06 24
        E 24 b4 06 22
        E 24 b4 06 20
        E 24 b4 06 1e
        E 24 b4 06 1c
        E 24 b4 06 1b
        E 24 b4 06 19
        E 24 b4 06 17
        E 24 b4 06 15
        E 24 b4 06 13
        E 24 b4 06 12
        E 24 b4 06 10
        E 24 b4 06 0e
        E 24 b4 06 0c
        E 24 b4 06 0a
        E 24 b4 06 09
        E 24 b4 06 07
        E 24 b4 06 05
        E 24 b4 06 03
        E 24 b4 06 01
        E 24 b4 06 00
        E 16 b4 06 00
        E 16 b4 06 00
        E 16 b4 06 01
        E 16 b4 06 01
        E 16 b4 06 02
        E 16 b4 06 02
        E 16 b4 06 02
        E 16 b4 06 03
        E 16 b4 06 03
        E 16 b4 06 04
        E 16 b4 06 04
        E 16 b4 06 04
        E 16 b4 06 05
        E 16 b4 06 05
        E 16 b4 06 06
        E 16 b4 06 06
        E 16 b4 06 06
        E 16 b4 06 07
        E 16 b4 06 07
        E 16 b4 06 08
        E 16 b4 06 08
        E 16 b4 06 08
        E 16 b4 06 09
        E 16 b4 06 09
        E 16 b4 06 0a
        E 16 b4 06 0a
        E 16 b4 06 0a
        E 16 b4 06 0b
        E 16 b4 06 0b
        E 16 b4 06 0c
        E 16 b4 06 0c
        E 16 b4 06 0c
        E 16 b4 06 0d
        E 16 b4 06 0d
        E 16 b4 06 0e
        E 16 b4 06 0e
        E 16 b4 06 0e
        E 16 b4 06 0f
        E 16 b4 06 0f
        E 16 b4 06 10
        E 16 b4 06 10
        E 16 b4 06 10
        E 16 b4 06 11
        E 16 b4 06 11
        E 16 b4 06 12
        E 16 b4 06 12
        E 16 b4 06 12
        E 16 b4 06 13
        E 16 b4 06 13
        E 16 b4 06 14
        E 16 b4 06 14
        E 16 b4 06 14
        E 16 b4 06 15
        E 16 b4 06 15
        E 16 b4 06 16
        E 16 b4 06 16
        E 16 b4 06 16
        E 16 b4 06 17
        E 16 b4 06 17
        E 16 b4 06 18
        E 16 b4 06 18
        E 16 b4 06 18
        E 16 b4 06 19
        E 16 b4 06 19
        E 16 b4 06 19
        E 16 b4 06 18
        E 16 b4 06 18
        E 16 b4 06 18
        E 16 b4 06 17
        E 16 b4 06 17
        E 16 b4 06 16
        E 16 b4 06 16
        E 16 b4 06 16
        E 16 b4 06 15
        E 16 b4 06 15
        E 16 b4 06 14
        E 16 b4 06 14
        E 16 b4 06 14
        E 16 b4 06 13
        E 16 b4 06 13
        E 16 b4 06 12
        E 16 b4 06 12
        E 16 b4 06 12
        E 16 b4 06 11
        E 16 b4 06 11
        E 16 b4 06 10
        E 16 b4 06 10
        E 16 b4 06 10
        E 16 b4 06 0f
        E 16 b4 06 0f
        E 16 b4 06 0e
        E 16 b4 06 0e
        E 16 b4 06 0e
        E 16 b4 06 0d
        E 16 b4 06 0d
        E 16 b4 06 0c
        E 16 b4 06 0c
        E 16 b4 06 0c
        E 16 b4 06 0b
        E 16 b4 06 0b
        E 16 b4 06 0a
        E 16 b4 06 0a
        E 16 b4 06 0a
        E 16 b4 06 09
        E 16 b4 06 09
        E 16 b4 06 08
        E 16 b4 06 08
        E 16 b4 06 08
        E 16 b4 06 07
        E 16 b4 06 07
        E 16 b4 06 06
        E 16 b4 06 06
        E 16 b4 06 06
        E 16 b4 06 05
        E 16 b4 06 05
        E 16 b4 06 04
        E 16 b4 06 04
        E 16 b4 06 04
        E 16 b4 06 03
        E 16 b4 06 03
        E 16 b4 06 02
        E 16 b4 06 02
        E 16 b4 06 02
        E 16 b4 06 01
        E 16 b4 06 01
        E 16 b4 06 00
        E 16 b4 06 00
        E 16 b4 06 00
        E 28 b4 06 01
        E 28 b4 06 03
        E 28 b4 06 05
        E 28 b4 06 07
        E 28 b4 06 09
        E 28 b4 06 0a
        E 28 b4 06 0c
        E 28 b4 06 0e
        E 28 b4 06 10
        E 28 b4 06 12
        E 28 b4 06 13
        E 28 b4 06 15
        E 28 b4 06 17
        E 28 b4 06 19
        E 28 b4 06 1b
        E 28 b4 06 1c
        E 28 b4 06 1e
        E 28 b4 06 20
        E 28 b4 06 22
        E 28 b4 06 24
        E 28 b4 06 25
        E 28 b4 06 27
        E 28 b4 06 29
        E 28 b4 06 2b
        E 28 b4 06 2d
        E 28 b4 06 2e
        E 28 b4 06 30
        E 28 b4 06 32
        E 28 b4 06 34
        E 28 b4 06 36
        E 28 b4 06 37
        E 28 b4 06 39
        E 28 b4 06 3b
        E 28 b4 06 3d
        E 28 b4 06 3f
        E 28 b4 06 40
        E 28 b4 06 42
        E 28 b4 06 44
        E 28 b4 06 46
        E 28 b4 06 48
        E 28 b4 06 49
        E 28 b4 06 4b
        E 28 b4 06 4d
        E 28 b4 06 4f
        E 28 b4 06 51
        E 28 b4 06 52
        E 28 b4 06 54
        E 28 b4 06 56
        E 28 b4 06 58
        E 28 b4 06 5a
        E 28 b4 06 5b
        E 28 b4 06 5d
        E 28 b4 06 5f
        E 28 b4 06 61
        E 28 b4 06 63
        E 28 b4 06 64
        E 28 b4 06 66
        E 28 b4 06 68
        E 28 b4 06 6a
        E 28 b4 06 6c
        E 28 b4 06 6d
        E 28 b4 06 6f
        E 28 b4 06 71
        E 28 b4 06 72
        E 28 b4 06 71
        E 28 b4 06 6f
        E 28 b4 06 6d
        E 28 b4 06 6c
        E 28 b4 06 6a
        E 28 b4 06 68
        E 28 b4 06 66
        E 28 b4 06 64
        E 28 b4 06 63
        E 28 b4 06 61
        E 28 b4 06 5f
        E 28 b4 06 5d
        E 28 b4 06 5b
        E 28 b4 06 5a
        E 28 b4 06 58
        E 28 b4 06 56
        E 28 b4 06 54
        E 28 b4 06 52
        E 28 b4 06 51
        E 28 b4 06 4f
        E 28 b4 06 4d
        E 28 b4 06 4b
        E 28 b4 06 49
        E 28 b4 06 48
        E 28 b4 06 46
        E 28 b4 06 44
        E 28 b4 06 42
        E 28 b4 06 40
        E 28 b4 06 3f
        E 28 b4 06 3d
        E 28 b4 06 3b
        E 28 b4 06 39
        E 28 b4 06 37
        E 28 b4 06 36
        E 28 b4 06 34
        E 28 b4 06 32
        E 28 b4 06 30
        E 28 b4 06 2e
        E 28 b4 06 2d
        E 28 b4 06 2b
        E 28 b4 06 29
        E 28 b4 06 27
        E 28 b4 06 25
        E 28 b4 06 24
        E 28 b4 06 22
        E 28 b4 06 20
        E 28 b4 06 1e
        E 28 b4 06 1c
        E 28 b4 06 1b
        E 28 b4 06 19
        E 28 b4 06 17
        E 28 b4 06 15
        E 28 b4 06 13
        E 28 b4 06 12
        E 28 b4 06 10
        E 28 b4 06 0e
        E 28 b4 06 0c
        E 28 b4 06 0a
        E 28 b4 06 09
        E 28 b4 06 07
        E 28 b4 06 05
        E 28 b4 06 03
        E 28 b4 06 01
        E 28 b4 06 00
        E 16 b4 06 01
        E 16 b4 06 02
        E 16 b4 06 03
        E 16 b4 06 04
        E 16 b4 06 05
        E 16 b4 06 06
        E 16 b4 06 07
        E 16 b4 06 08
        E 16 b4 06 09
        E 16 b4 06 0a
        E 16 b4 06 0b
        E 16 b4 06 0c
        E 16 b4 06 0d
        E 16 b4 06 0e
        E 16 b4 06 0f
        E 16 b4 06 10
        E 16 b4 06 11
        E 16 b4 06 12
        E 16 b4 06 13
        E 16 b4 06 14
        E 16 b4 06 15
        E 16 b4 06 16
        E 16 b4 06 17
        E 16 b4 06 18
        E 16 b4 06 19
        E 16 b4 06 1a
        E 16 b4 06 1b
        E 16 b4 06 1c
        E 16 b4 06 1d
        E 16 b4 06 1e
        E 16 b4 06 1f
        E 16 b4 06 20
        E 16 b4 06 21
        E 16 b4 06 22
        E 16 b4 06 23
        E 16 b4 06 24
        E 16 b4 06 25
        E 16 b4 06 26
        E 16 b4 06 27
        E 16 b4 06 28
        E 16 b4 06 29
        E 16 b4 06 2a
        E 16 b4 06 2b
        E 16 b4 06 2c
        E 16 b4 06 2d
        E 16 b4 06 2e
        E 16 b4 06 2f
        E 16 b4 06 30
        E 16 b4 06 31
        E 16 b4 06 32
        E 16 b4 06 33
        E 16 b4 06 34
        E 16 b4 06 35
        E 16 b4 06 36
        E 16 b4 06 37
        E 16 b4 06 38
        E 16 b4 06 39
        E 16 b4 06 3a
        E 16 b4 06 3b
        E 16 b4 06 3c
        E 16 b4 06 3d
        E 16 b4 06 3e
        E 16 b4 06 3f
        E 16 b4 06 3f
        E 16 b4 06 3f
        E 16 b4 06 3e
        E 16 b4 06 3d
        E 16 b4 06 3c
        E 16 b4 06 3b
        E 16 b4 06 3a
        E 16 b4 06 39
        E 16 b4 06 38
        E 16 b4 06 37
        E 16 b4 06 36
        E 16 b4 06 35
        E 16 b4 06 34
        E 16 b4 06 33
        E 16 b4 06 32
        E 16 b4 06 31
        E 16 b4 06 30
        E 16 b4 06 2f
        E 16 b4 06 2e
        E 16 b4 06 2d
        E 16 b4 06 2c
        E 16 b4 06 2b
        E 16 b4 06 2a
        E 16 b4 06 29
        E 16 b4 06 28
        E 16 b4 06 27
        E 16 b4 06 26
        E 16 b4 06 25
        E 16 b4 06 24
        E 16 b4 06 23
        E 16 b4 06 22
        E 16 b4 06 21
        E 16 b4 06 20
        E 16 b4 06 1f
        E 16 b4 06 1e
        E 16 b4 06 1d
        E 16 b4 06 1c
        E 16 b4 06 1b
        E 16 b4 06 1a
        E 16 b4 06 19
        E 16 b4 06 18
        E 16 b4 06 17
        E 16 b4 06 16
        E 16 b4 06 15
        E 16 b4 06 14
        E 16 b4 06 13
        E 16 b4 06 12
        E 16 b4 06 11
        E 16 b4 06 10
        E 16 b4 06 0f
        E 16 b4 06 0e
        E 16 b4 06 0d
        E 16 b4 06 0c
        E 16 b4 06 0b
        E 16 b4 06 0a
        E 16 b4 06 09
        E 16 b4 06 08
        E 16 b4 06 07
        E 16 b4 06 06
        E 16 b4 06 05
        E 16 b4 06 04
        E 16 b4 06 03
        E 16 b4 06 02
        E 16 b4 06 01
        E 16 b4 06 00
        E 31 b4 06 00
        E 31 b4 06 00
        E 31 b4 06 00
        E 31 b4 06 00
        E 31 b4 06 01
        E 31 b4 06 01
        E 31 b4 06 01
        E 31 b4 06 01
        E 31 b4 06 01
        E 31 b4 06 02
        E 31 b4 06 02
        E 31 b4 06 02
        E 31 b4 06 02
        E 31 b4 06 02
        E 31 b4 06 03
        E 31 b4 06 03
        E 31 b4 06 03
        E 31 b4 06 03
        E 31 b4 06 03
        E 31 b4 06 04
        E 31 b4 06 04
        E 31 b4 06 04
        E 31 b4 06 04
        E 31 b4 06 04
        E 31 b4 06 05
        E 31 b4 06 05
        E 31 b4 06 05
        E 31 b4 06 05
        E 31 b4 06 05
        E 31 b4 06 06
        E 31 b4 06 06
        E 31 b4 06 06
        E 31 b4 06 06
        E 31 b4 06 06
        E 31 b4 06 07
        E 31 b4 06 07
        E 31 b4 06 07
        E 31 b4 06 07
        E 31 b4 06 07
        E 31 b4 06 08
        E 31 b4 06 08
        E 31 b4 06 08
        E 31 b4 06 08
        E 31 b4 06 08
        E 31 b4 06 09
        E 31 b4 06 09
        E 31 b4 06 09
        E 31 b4 06 09
        E 31 b4 06 09
        E 31 b4 06 0a
        E 31 b4 06 0a
        E 31 b4 06 0a
        E 31 b4 06 0a
        E 31 b4 06 0a
        E 31 b4 06 0b
        E 31 b4 06 0b
        E 31 b4 06 0b
        E 31 b4 06 0b
        E 31 b4 06 0b
        E 31 b4 06 0c
        E 31 b4 06 0c
        E 31 b4 06 0c
        E 31 b4 06 0c
        E 31 b4 06 0c
        E 31 b4 06 0c
        E 31 b4 06 0c
        E 31 b4 06 0c
        E 31 b4 06 0c
        E 31 b4 06 0b
        E 31 b4 06 0b
        E 31 b4 06 0b
        E 31 b4 06 0b
        E 31 b4 06 0b
        E 31 b4 06 0a
        E 31 b4 06 0a
        E 31 b4 06 0a
        E 31 b4 06 0a
        E 31 b4 06 0a
        E 31 b4 06 09
        E 31 b4 06 09
        E 31 b4 06 09
        E 31 b4 06 09
        E 31 b4 06 09
        E 31 b4 06 08
        E 31 b4 06 08
        E 31 b4 06 08
        E 31 b4 06 08
        E 31 b4 06 08
        E 31 b4 06 07
        E 31 b4 06 07
        E 31 b4 06 07
        E 31 b4 06 07
        E 31 b4 06 07
        E 31 b4 06 06
        E 31 b4 06 06
        E 31 b4 06 06
        E 31 b4 06 06
        E 31 b4 06 06
        E 31 b4 06 05
        E 31 b4 06 05
        E 31 b4 06 05
        E 31 b4 06 05
        E 31 b4 06 05
        E 31 b4 06 04
        E 31 b4 06 04
        E 31 b4 06 04
        E 31 b4 06 04
        E 31 b4 06 04
        E 31 b4 06 03
        E 31 b4 06 03
        E 31 b4 06 03
        E 31 b4 06 03
        E 31 b4 06 03
        E 31 b4 06 02
        E 31 b4 06 02
        E 31 b4 06 02
        E 31 b4 06 02
        E 31 b4 06 02
        E 31 b4 06 01
        E 31 b4 06 01
        E 31 b4 06 01
        E 31 b4 06 01
        E 31 b4 06 01
        E 31 b4 06 00
        E 31 b4 06 00
        E 31 b4 06 00
        E 31 b4 06 00
        E 31 b4 06 00
        E 31 b4 06 00
        E 31 b4 06 01
        E 31 b4 06 01
        E 31 b4 06 02
        E 31 b4 06 03
        E 31 b4 06 03
        E 31 b4 06 04
        E 31 b4 06 04
        E 31 b4 06 05
        E 31 b4 06 06
        E 31 b4 06 06
        E 31 b4 06 07
        E 31 b4 06 07
        E 31 b4 06 08
        E 31 b4 06 09
        E 31 b4 06 09
        E 31 b4 06 0a
        E 31 b4 06 0a
        E 31 b4 06 0b
        E 31 b4 06 0c
        E 31 b4 06 0c
        E 31 b4 06 0d
        E 31 b4 06 0d
        E 31 b4 06 0e
        E 31 b4 06 0f
        E 31 b4 06 0f
        E 31 b4 06 10
        E 31 b4 06 10
        E 31 b4 06 11
        E 31 b4 06 12
        E 31 b4 06 12
        E 31 b4 06 13
        E 31 b4 06 13
        E 31 b4 06 14
        E 31 b4 06 15
        E 31 b4 06 15
        E 31 b4 06 16
        E 31 b4 06 16
        E 31 b4 06 17
        E 31 b4 06 18
        E 31 b4 06 18
        E 31 b4 06 19
        E 31 b4 06 19
        E 31 b4 06 1a
        E 31 b4 06 1b
        E 31 b4 06 1b
        E 31 b4 06 1c
        E 31 b4 06 1c
        E 31 b4 06 1d
        E 31 b4 06 1e
        E 31 b4 06 1e
        E 31 b4 06 1f
        E 31 b4 06 1f
        E 31 b4 06 20
        E 31 b4 06 21
        E 31 b4 06 21
        E 31 b4 06 22
        E 31 b4 06 22
        E 31 b4 06 23
        E 31 b4 06 24
        E 31 b4 06 24
        E 31 b4 06 25
        E 31 b4 06 25
        E 31 b4 06 26
        E 31 b4 06 25
        E 31 b4 06 25
        E 31 b4 06 24
        E 31 b4 06 24
        E 31 b4 06 23
        E 31 b4 06 22
        E 31 b4 06 22
        E 31 b4 06 21
        E 31 b4 06 21
        E 31 b4 06 20
        E 31 b4 06 1f
        E 31 b4 06 1f
        E 31 b4 06 1e
        E 31 b4 06 1e
        E 31 b4 06 1d
        E 31 b4 06 1c
        E 31 b4 06 1c
        E 31 b4 06 1b
        E 31 b4 06 1b
        E 31 b4 06 1a
        E 31 b4 06 19
        E 31 b4 06 19
        E 31 b4 06 18
        E 31 b4 06 18
        E 31 b4 06 17
        E 31 b4 06 16
        E 31 b4 06 16
        E 31 b4 06 15
        E 31 b4 06 15
        E 31 b4 06 14
        E 31 b4 06 13
        E 31 b4 06 13
        E 31 b4 06 12
        E 31 b4 06 12
        E 31 b4 06 11
        E 31 b4 06 10
        E 31 b4 06 10
        E 31 b4 06 0f
        E 31 b4 06 0f
        E 31 b4 06 0e
        E 31 b4 06 0d
        E 31 b4 06 0d
        E 31 b4 06 0c
        E 31 b4 06 0c
        E 31 b4 06 0b
        E 31 b4 06 0a
        E 31 b4 06 0a
        E 31 b4 06 09
        E 31 b4 06 09
        E 31 b4 06 08
        E 31 b4 06 07
        E 31 b4 06 07
        E 31 b4 06 06
        E 31 b4 06 06
        E 31 b4 06 05
        E 31 b4 06 04
        E 31 b4 06 04
        E 31 b4 06 03
        E 31 b4 06 03
        E 31 b4 06 02
        E 31 b4 06 01
        E 31 b4 06 01
        E 31 b4 06 00
        E 31 b4 06 00
        E 24 b4 06 01
        E 24 b4 06 03
        E 24 b4 06 05
        E 24 b4 06 07
        E 24 b4 06 09
        E 24 b4 06 0a
        E 24 b4 06 0c
        E 24 b4 06 0e
        E 24 b4 06 10
        E 24 b4 06 12
        E 24 b4 06 13
        E 24 b4 06 15
        E 24 b4 06 17
        E 24 b4 06 19
        E 24 b4 06 1b
        E 24 b4 06 1c
        E 24 b4 06 1e
        E 24 b4 06 20
        E 24 b4 06 22
        E 24 b4 06 24
        E 24 b4 06 25
        E 24 b4 06 27
        E 24 b4 06 29
        E 24 b4 06 2b
        E 24 b4 06 2d
        E 24 b4 06 2e
        E 24 b4 06 30
        E 24 b4 06 32
        E 24 b4 06 34
        E 24 b4 06 36
        E 24 b4 06 37
        E 24 b4 06 39
        E 24 b4 06 3b
        E 24 b4 06 3d
        E 24 b4 06 3f
        E 24 b4 06 40
        E 24 b4 06 42
        E 24 b4 06 44
        E 24 b4 06 46
        E 24 b4 06 48
        E 24 b4 06 49
        E 24 b4 06 4b
        E 24 b4 06 4d
        E 24 b4 06 4f
        E 24 b4 06 51
        E 24 b4 06 52
        E 24 b4 06 54
        E 24 b4 06 56
        E 24 b4 06 58
        E 24 b4 06 5a
        E 24 b4 06 5b
        E 24 b4 06 5d
        E 24 b4 06 5f
        E 24 b4 06 61
        E 24 b4 06 63
        E 24 b4 06 64
        E 24 b4 06 66
        E 24 b4 06 68
        E 24 b4 06 6a
        E 24 b4 06 6c
        E 24 b4 06 6d
        E 24 b4 06 6f
        E 24 b4 06 71
        E 24 b4 06 72
        E 24 b4 06 71
        E 24 b4 06 6f
        E 24 b4 06 6d
        E 24 b4 06 6c
        E 24 b4 06 6a
        E 24 b4 06 68
        E 24 b4 06 66
        E 24 b4 06 64
        E 24 b4 06 63
        E 24 b4 06 61
        E 24 b4 06 5f
        E 24 b4 06 5d
        E 24 b4 06 5b
        E 24 b4 06 5a
        E 24 b4 06 58
        E 24 b4 06 56
        E 24 b4 06 54
        E 24 b4 06 52
        E 24 b4 06 51
        E 24 b4 06 4f
        E 24 b4 06 4d
        E 24 b4 06 4b
        E 24 b4 06 49
        E 24 b4 06 48
        E 24 b4 06 46
        E 24 b4 06 44
        E 24 b4 06 42
        E 24 b4 06 40
        E 24 b4 06 3f
        E 24 b4 06 3d
        E 24 b4 06 3b
        E 24 b4 06 39
        E 24 b4 06 37
        E 24 b4 06 36
        E 24 b4 06 34
        E 24 b4 06 32
        E 24 b4 06 30
        E 24 b4 06 2e
        E 24 b4 06 2d
        E 24 b4 06 2b
        E 24 b4 06 29
        E 24 b4 06 27
        E 24 b4 06 25
        E 24 b4 06 24
        E 24 b4 06 22
        E 24 b4 06 20
        E 24 b4 06 1e
        E 24 b4 06 1c
        E 24 b4 06 1b
        E 24 b4 06 19
        E 24 b4 06 17
        E 24 b4 06 15
        E 24 b4 06 13
        E 24 b4 06 12
        E 24 b4 06 10
        E 24 b4 06 0e
        E 24 b4 06 0c
        E 24 b4 06 0a
        E 24 b4 06 09
        E 24 b4 06 07
        E 24 b4 06 05
        E 24 b4 06 03
        E 24 b4 06 01
        E 24 b4 06 00
        E 16 b4 06 00
        E 16 b4 06 00
        E 16 b4 06 01
        E 16 b4 06 01
        E 16 b4 06 02
        E 16 b4 06 02
        E 16 b4 06 02
        E 16 b4 06 03
        E 16 b4 06 03
        E 16 b4 06 04
        E 16 b4 06 04
        E 16 b4 06 04
        E 16 b4 06 05
        E 16 b4 06 05
        E 16 b4 06 06
        E 16 b4 06 06
        E 16 b4 06 06
        E 16 b4 06 07
        E 16 b4 06 07
        E 16 b4 06 08
        E 16 b4 06 08
        E 16 b4 06 08
        E 16 b4 06 09
        E 16 b4 06 09
        E 16 b4 06 0a
        E 16 b4 06 0a
        E 16 b4 06 0a
        E 16 b4 06 0b
        E 16 b4 06 0b
        E 16 b4 06 0c
        E 16 b4 06 0c
        E 16 b4 06 0c
        E 16 b4 06 0d
        E 16 b4 06 0d
        E 16 b4 06 0e
        E 16 b4 06 0e
        E 16 b4 06 0e
        E 16 b4 06 0f
        E 16 b4 06 0f
        E 16 b4 06 10
        E 16 b4 06 10
        E 16 b4 06 10
        E 16 b4 06 11
        E 16 b4 06 11
        E 16 b4 06 12
        E 16 b4 06 12
        E 16 b4 06 12
        E 16 b4 06 13
        E 16 b4 06 13
        E 16 b4 06 14
        E 16 b4 06 14
        E 16 b4 06 14
        E 16 b4 06 15
        E 16 b4 06 15
        E 16 b4 06 16
        E 16 b4 06 16
        E 16 b4 06 16
        E 16 b4 06 17
        E 16 b4 06 17
        E 16 b4 06 18
        E 16 b4 06 18
        E 16 b4 06 18
        E 16 b4 06 19
        E 16 b4 06 19
        E 16 b4 06 19
        E 16 b4 06 18
        E 16 b4 06 18
        E 16 b4 06 18
        E 16 b4 06 17
        E 16 b4 06 17
        E 16 b4 06 16
        E 16 b4 06 16
        E 16 b4 06 16
        E 16 b4 06 15
        E 16 b4 06 15
        E 16 b4 06 14
        E 16 b4 06 14
        E 16 b4 06 14
        E 16 b4 06 13
        E 16 b4 06 13
        E 16 b4 06 12
        E 16 b4 06 12
        E 16 b4 06 12
        E 16 b4 06 11
        E 16 b4 06 11
        E 16 b4 06 10
        E 16 b4 06 10
        E 16 b4 06 10
        E 16 b4 06 0f
        E 16 b4 06 0f
        E 16 b4 06 0e
        E 16 b4 06 0e
        E 16 b4 06 0e
        E 16 b4 06 0d
        E 16 b4 06 0d
        E 16 b4 06 0c
        E 16 b4 06 0c
        E 16 b4 06 0c
        E 16 b4 06 0b
        E 16 b4 06 0b
        E 16 b4 06 0a
        E 16 b4 06 0a
        E 16 b4 06 0a
        E 16 b4 06 09
        E 16 b4 06 09
        E 16 b4 06 08
        E 16 b4 06 08
        E 16 b4 06 08
        E 16 b4 06 07
        E 16 b4 06 07
        E 16 b4 06 06
        E 16 b4 06 06
        E 16 b4 06 06
        E 16 b4 06 05
        E 16 b4 06 05
        E 16 b4 06 04
        E 16 b4 06 04
        E 16 b4 06 04
        E 16 b4 06 03
        E 16 b4 06 03
        E 16 b4 06 02
        E 16 b4 06 02
        E 16 b4 06 02
        E 16 b4 06 01
        E 16 b4 06 01
        E 16 b4 06 00
        E 16 b4 06 00
        E 16 b4 06 00
        E 28 b4 06 01
        E 28 b4 06 03
        E 28 b4 06 05
        E 28 b4 06 07
        E 28 b4 06 09
        E 28 b4 06 0a
        E 28 b4 06 0c
        E 28 b4 06 0e
        E 28 b4 06 10
        E 28 b4 06 12
        E 28 b4 06 13
        E 28 b4 06 15
        E 28 b4 06 17
        E 28 b4 06 19
        E 28 b4 06 1b
        E 28 b4 06 1c
        E 28 b4 06 1e
        E 28 b4 06 20
        E 28 b4 06 22
        E 28 b4 06 24
        E 28 b4 06 25
        E 28 b4 06 27
        E 28 b4 06 29
        E 28 b4 06 2b
        E 28 b4 06 2d
        E 28 b4 06 2e
        E 28 b4 06 30
        E 28 b4 06 32
        E 28 b4 06 34
        E 28 b4 06 36
        E 28 b4 06 37
        E 28 b4 06 39
        E 28 b4 06 3b
        E 28 b4 06 3d
        E 28 b4 06 3f
        E 28 b4 06 40
        E 28 b4 06 42
        E 28 b4 06 44
        E 28 b4 06 46
        E 28 b4 06 48
        E 28 b4 06 49
        E 28 b4 06 4b
        E 28 b4 06 4d
        E 28 b4 06 4f
        E 28 b4 06 51
        E 28 b4 06 52
        E 28 b4 06 54
        E 28 b4 06 56
        E 28 b4 06 58
        E 28 b4 06 5a
        E 28 b4 06 5b
        E 28 b4 06 5d
        E 28 b4 06 5f
        E 28 b4 06 61
        E 28 b4 06 63
        E 28 b4 06 64
        E 28 b4 06 66
        E 28 b4 06 68
        E 28 b4 06 6a
        E 28 b4 06 6c
        E 28 b4 06 6d
        E 28 b4 06 6f
        E 28 b4 06 71
        E 28 b4 06 72
        E 28 b4 06 71
        E 28 b4 06 6f
        E 28 b4 06 6d
        E 28 b4 06 6c
        E 28 b4 06 6a
        E 28 b4 06 68
        E 28 b4 06 66
        E 28 b4 06 64
        E 28 b4 06 63
        E 28 b4 06 61
        E 28 b4 06 5f
        E 28 b4 06 5d
        E 28 b4 06 5b
        E 28 b4 06 5a
        E 28 b4 06 58
        E 28 b4 06 56
        E 28 b4 06 54
        E 28 b4 06 52
        E 28 b4 06 51
        E 28 b4 06 4f
        E 28 b4 06 4d
        E 28 b4 06 4b
        E 28 b4 06 49
        E 28 b4 06 48
        E 28 b4 06 46
        E 28 b4 06 44
        E 28 b4 06 42
        E 28 b4 06 40
        E 28 b4 06 3f
        E 28 b4 06 3d
        E 28 b4 06 3b
        E 28 b4 06 39
        E 28 b4 06 37
        E 28 b4 06 36
        E 28 b4 06 34
        E 28 b4 06 32
        E 28 b4 06 30
        E 28 b4 06 2e
        E 28 b4 06 2d
        E 28 b4 06 2b
        E 28 b4 06 29
        E 28 b4 06 27
        E 28 b4 06 25
        E 28 b4 06 24
        E 28 b4 06 22
        E 28 b4 06 20
        E 28 b4 06 1e
        E 28 b4 06 1c
        E 28 b4 06 1b
        E 28 b4 06 19
        E 28 b4 06 17
        E 28 b4 06 15
        E 28 b4 06 13
        E 28 b4 06 12
        E 28 b4 06 10
        E 28 b4 06 0e
        E 28 b4 06 0c
        E 28 b4 06 0a
        E 28 b4 06 09
        E 28 b4 06 07
        E 28 b4 06 05
        E 28 b4 06 03
        E 28 b4 06 01
        E 28 b4 06 00
        E 16 b4 06 01
        E 16 b4 06 02
        E 16 b4 06 03
        E 16 b4 06 04
        E 16 b4 06 05
        E 16 b4 06 06
        E 16 b4 06 07
        E 16 b4 06 08
        E 16 b4 06 09
        E 16 b4 06 0a
        E 16 b4 06 0b
        E 16 b4 06 0c
        E 16 b4 06 0d
        E 16 b4 06 0e
        E 16 b4 06 0f
        E 16 b4 06 10
        E 16 b4 06 11
        E 16 b4 06 12
        E 16 b4 06 13
        E 16 b4 06 14
        E 16 b4 06 15
        E 16 b4 06 16
        E 16 b4 06 17
        E 16 b4 06 18
        E 16 b4 06 19
        E 16 b4 06 1a
        E 16 b4 06 1b
        E 16 b4 06 1c
        E 16 b4 06 1d
        E 16 b4 06 1e
        E 16 b4 06 1f
        E 16 b4 06 20
        E 16 b4 06 21
        E 16 b4 06 22
        E 16 b4 06 23
        E 16 b4 06 24
        E 16 b4 06 25
        E 16 b4 06 26
        E 16 b4 06 27
        E 16 b4 06 28
        E 16 b4 06 29
        E 16 b4 06 2a
        E 16 b4 06 2b
        E 16 b4 06 2c
        E 16 b4 06 2d
        E 16 b4 06 2e
        E 16 b4 06 2f
        E 16 b4 06 30
        E 16 b4 06 31
        E 16 b4 06 32
        E 16 b4 06 33
        E 16 b4 06 34
        E 16 b4 06 35
        E 16 b4 06 36
        E 16 b4 06 37
        E 16 b4 06 38
        E 16 b4 06 39
        E 16 b4 06 3a
        E 16 b4 06 3b
        E 16 b4 06 3c
        E 16 b4 06 3d
        E 16 b4 06 3e
        E 16 b4 06 3f
        E 16 b4 06 3f
        E 16 b4 06 3f
        E 16 b4 06 3e
        E 16 b4 06 3d
        E 16 b4 06 3c
        E 16 b4 06 3b
        E 16 b4 06 3a
        E 16 b4 06 39
        E 16 b4 06 38
        E 16 b4 06 37
        E 16 b4 06 36
        E 16 b4 06 35
        E 16 b4 06 34
        E 16 b4 06 33
        E 16 b4 06 32
        E 16 b4 06 31
        E 16 b4 06 30
        E 16 b4 06 2f
        E 16 b4 06 2e
        E 16 b4 06 2d
        E 16 b4 06 2c
        E 16 b4 06 2b
        E 16 b4 06 2a
        E 16 b4 06 29
        E 16 b4 06 28
        E 16 b4 06 27
        E 16 b4 06 26
        E 16 b4 06 25
        E 16 b4 06 24
        E 16 b4 06 23
        E 16 b4 06 22
        E 16 b4 06 21
        E 16 b4 06 20
        E 16 b4 06 1f
        E 16 b4 06 1e
        E 16 b4 06 1d
        E 16 b4 06 1c
        E 16 b4 06 1b
        E 16 b4 06 1a
        E 16 b4 06 19
        E 16 b4 06 18
        E 16 b4 06 17
        E 16 b4 06 16
        E 16 b4 06 15
        E 16 b4 06 14
        E 16 b4 06 13
        E 16 b4 06 12
        E 16 b4 06 11
        E 16 b4 06 10
        E 16 b4 06 0f
        E 16 b4 06 0e
        E 16 b4 06 0d
        E 16 b4 06 0c
        E 16 b4 06 0b
        E 16 b4 06 0a
        E 16 b4 06 09
        E 16 b4 06 08
        E 16 b4 06 07
        E 16 b4 06 06
        E 16 b4 06 05
        E 16 b4 06 04
        E 16 b4 06 03
        E 16 b4 06 02
        E 16 b4 06 01
        E 16 b4 06 00
        E 31 b4 06 00
        E 31 b4 06 00
        E 31 b4 06 00
        E 31 b4 06 00
        E 31 b4 06 01
        E 31 b4 06 01
        E 31 b4 06 01
        E 31 b4 06 01
        E 31 b4 06 01
        E 31 b4 06 02
        E 31 b4 06 02
        E 31 b4 06 02
        E 31 b4 06 02
        E 31 b4 06 02
        E 31 b4 06 03
        E 31 b4 06 03
        E 31 b4 06 03
        E 31 b4 06 03
        E 31 b4 06 03
        E 31 b4 06 04
        E 31 b4 06 04
        E 31 b4 06 04
        E 31 b4 06 04
        E 31 b4 06 04
        E 31 b4 06 05
        E 31 b4 06 05
        E 31 b4 06 05
        E 31 b4 06 05
        E 31 b4 06 05
        E 31 b4 06 06
        E 31 b4 06 06
        E 31 b4 06 06
        E 31 b4 06 06
        E 31 b4 06 06
        E 31 b4 06 07
        E 31 b4 06 07
        E 31 b4 06 07
        E 31 b4 06 07
        E 31 b4 06 07
        E 31 b4 06 08
        E 31 b4 06 08
        E 31 b4 06 08
        E 31 b4 06 08
        E 31 b4 06 08
        E 31 b4 06 09
        E 31 b4 06 09
        E 31 b4 06 09
        E 31 b4 06 09
        E 31 b4 06 09
        E 31 b4 06 0a
        E 31 b4 06 0a
        E 31 b4 06 0a
        E 31 b4 06 0a
        E 31 b4 06 0a
        E 31 b4 06 0b
        E 31 b4 06 0b
        E 31 b4 06 0b
        E 31 b4 06 0b
        E 31 b4 06 0b
        E 31 b4 06 0c
        E 31 b4 06 0c
        E 31 b4 06 0c
        E 31 b4 06 0c
        E 31 b4 06 0c
        E 31 b4 06 0c
        E 31 b4 06 0c
        E 31 b4 06 0c
        E 31 b4 06 0c
        E 31 b4 06 0b
        E 31 b4 06 0b
        E 31 b4 06 0b
        E 31 b4 06 0b
        E 31 b4 06 0b
        E 31 b4 06 0a
        E 31 b4 06 0a
        E 31 b4 06 0a
        E 31 b4 06 0a
        E 31 b4 06 0a
        E 31 b4 06 09
        E 31 b4 06 09
        E 31 b4 06 09
        E 31 b4 06 09
        E 31 b4 06 09
        E 31 b4 06 08
        E 31 b4 06 08
        E 31 b4 06 08
        E 31 b4 06 08
        E 31 b4 06 08
        E 31 b4 06 07
        E 31 b4 06 07
        E 31 b4 06 07
        E 31 b4 06 07
        E 31 b4 06 07
        E 31 b4 06 06
        E 31 b4 06 06
        E 31 b4 06 06
        E 31 b4 06 06
        E 31 b4 06 06
        E 31 b4 06 05
        E 31 b4 06 05
        E 31 b4 06 05
        E 31 b4 06 05
        E 31 b4 06 05
        E 31 b4 06 04
        E 31 b4 06 04
        E 31 b4 06 04
        E 31 b4 06 04
        E 31 b4 06 04
        E 31 b4 06 03
        E 31 b4 06 03
        E 31 b4 06 03
        E 31 b4 06 03
        E 31 b4 06 03
        E 31 b4 06 02
        E 31 b4 06 02
        E 31 b4 06 02
        E 31 b4 06 02
        E 31 b4 06 02
        E 31 b4 06 01
        E 31 b4 06 01
        E 31 b4 06 01
        E 31 b4 06 01
        E 31 b4 06 01
        E 31 b4 06 00
        E 31 b4 06 00
        E 31 b4 06 00
        E 31 b4 06 00
        E 31 b4 06 00
        E 31 b4 06 00
        E 31 b4 06 01
        E 31 b4 06 01
        E 31 b4 06 02
        E 31 b4 06 03
        E 31 b4 06 03
        E 31 b4 06 04
        E 31 b4 06 04
        E 31 b4 06 05
        E 31 b4 06 06
        E 31 b4 06 06
        E 31 b4 06 07
        E 31 b4 06 07
        E 31 b4 06 08
        E 31 b4 06 09
        E 31 b4 06 09
        E 31 b4 06 0a
        E 31 b4 06 0a
        E 31 b4 06 0b
        E 31 b4 06 0c
        E 31 b4 06 0c
        E 31 b4 06 0d
        E 31 b4 06 0d
        E 31 b4 06 0e
        E 31 b4 06 0f
        E 31 b4 06 0f
        E 31 b4 06 10
        E 31 b4 06 10
        E 31 b4 06 11
        E 31 b4 06 12
        E 31 b4 06 12
        E 31 b4 06 13
        E 31 b4 06 13
        E 31 b4 06 14
        E 31 b4 06 15
        E 31 b4 06 15
        E 31 b4 06 16
        E 31 b4 06 16
        E 31 b4 06 17
        E 31 b4 06 18
        E 31 b4 06 18
        E 31 b4 06 19
        E 31 b4 06 19
        E 31 b4 06 1a
        E 31 b4 06 1b
        E 31 b4 06 1b
        E 31 b4 06 1c
        E 31 b4 06 1c
        E 31 b4 06 1d
        E 31 b4 06 1e
        E 31 b4 06 1e
        E 31 b4 06 1f
        E 31 b4 06 1f
        E 31 b4 06 20
        E 31 b4 06 21
        E 31 b4 06 21
        E 31 b4 06 22
        E 31 b4 06 22
        E 31 b4 06 23
        E 31 b4 06 24
        E 31 b4 06 24
        E 31 b4 06 25
        E 31 b4 06 25
        E 31 b4 06 26
        E 31 b4 06 25
        E 31 b4 06 25
        E 31 b4 06 24
        E 31 b4 06 24
        E 31 b4 06 23
        E 31 b4 06 22
        E 31 b4 06 22
        E 31 b4 06 21
        E 31 b4 06 21
        E 31 b4 06 20
        E 31 b4 06 1f
        E 31 b4 06 1f
        E 31 b4 06 1e
        E 31 b4 06 1e
        E 31 b4 06 1d
        E 31 b4 06 1c
        E 31 b4 06 1c
        E 31 b4 06 1b
        E 31 b4 06 1b
        E 31 b4 06 1a
        E 31 b4 06 19
        E 31 b4 06 19
        E 31 b4 06 18
        E 31 b4 06 18
        E 31 b4 06 17
        E 31 b4 06 16
        E 31 b4 06 16
        E 31 b4 06 15
        E 31 b4 06 15
        E 31 b4 06 14
        E 31 b4 06 13
        E 31 b4 06 13
        E 31 b4 06 12
        E 31 b4 06 12
        E 31 b4 06 11
        E 31 b4 06 10
        E 31 b4 06 10
        E 31 b4 06 0f
        E 31 b4 06 0f
        E 31 b4 06 0e
        E 31 b4 06 0d
        E 31 b4 06 0d
        E 31 b4 06 0c
        E 31 b4 06 0c
        E 31 b4 06 0b
        E 31 b4 06 0a
        E 31 b4 06 0a
        E 31 b4 06 09
        E 31 b4 06 09
        E 31 b4 06 08
        E 31 b4 06 07
        E 31 b4 06 07
        E 31 b4 06 06
        E 31 b4 06 06
        E 31 b4 06 05
        E 31 b4 06 04
        E 31 b4 06 04
        E 31 b4 06 03
        E 31 b4 06 03
        E 31 b4 06 02
        E 31 b4 06 01
        E 31 b4 06 01
        E 31 b4 06 00
        E 31 b4 06 00
        E 24 b4 06 01
        E 24 b4 06 03
        E 24 b4 06 05
        E 24 b4 06 07
        E 24 b4 06 09
        E 24 b4 06 0a
        E 24 b4 06 0c
        E 24 b4 06 0e
        E 24 b4 06 10
        E 24 b4 06 12
        E 24 b4 06 13
        E 24 b4 06 15
        E 24 b4 06 17
        E 24 b4 06 19
        E 24 b4 06 1b
        E 24 b4 06 1c
        E 24 b4 06 1e
        E 24 b4 06 20
        E 24 b4 06 22
        E 24 b4 06 24
        E 24 b4 06 25
        E 24 b4 06 27
        E 24 b4 06 29
        E 24 b4 06 2b
        E 24 b4 06 2d
        E 24 b4 06 2e
        E 24 b4 06 30
        E 24 b4 06 32
        E 24 b4 06 34
        E 24 b4 06 36
        E 24 b4 06 37
        E 24 b4 06 39
        E 24 b4 06 3b
        E 24 b4 06 3d
        E 24 b4 06 3f
        E 24 b4 06 40
        E 24 b4 06 42
        E 24 b4 06 44
        E 24 b4 06 46
        E 24 b4 06 48
        E 24 b4 06 49
        E 24 b4 06 4b
        E 24 b4 06 4d
        E 24 b4 06 4f
        E 24 b4 06 51
        E 24 b4 06 52
        E 24 b4 06 54
        E 24 b4 06 56
        E 24 b4 06 58
        E 24 b4 06 5a
        E 24 b4 06 5b
        E 24 b4 06 5d
        E 24 b4 06 5f
        E 24 b4 06 61
        E 24 b4 06 63
        E 24 b4 06 64
        E 24 b4 06 66
        E 24 b4 06 68
        E 24 b4 06 6a
        E 24 b4 06 6c
        E 24 b4 06 6d
        E 24 b4 06 6f
        E 24 b4 06 71
        E 24 b4 06 72
        E 24 b4 06 71
        E 24 b4 06 6f
        E 24 b4 06 6d
        E 24 b4 06 6c
        E 24 b4 06 6a
        E 24 b4 06 68
        E 24 b4 06 66
        E 24 b4 06 64
        E 24 b4 06 63
        E 24 b4 06 61
        E 24 b4 06 5f
        E 24 b4 06 5d
        E 24 b4 06 5b
        E 24 b4 06 5a
        E 24 b4 06 58
        E 24 b4 06 56
        E 24 b4 06 54
        E 24 b4 06 52
        E 24 b4 06 51
        E 24 b4 06 4f
        E 24 b4 06 4d
        E 24 b4 06 4b
        E 24 b4 06 49
        E 24 b4 06 48
        E 24 b4 06 46
        E 24 b4 06 44
        E 24 b4 06 42
        E 24 b4 06 40
        E 24 b4 06 3f
        E 24 b4 06 3d
        E 24 b4 06 3b
        E 24 b4 06 39
        E 24 b4 06 37
        E 24 b4 06 36
        E 24 b4 06 34
        E 24 b4 06 32
        E 24 b4 06 30
        E 24 b4 06 2e
        E 24 b4 06 2d
        E 24 b4 06 2b
        E 24 b4 06 29
        E 24 b4 06 27
        E 24 b4 06 25
        E 24 b4 06 24
        E 24 b4 06 22
        E 24 b4 06 20
        E 24 b4 06 1e
        E 24 b4 06 1c
        E 24 b4 06 1b
        E 24 b4 06 19
        E 24 b4 06 17
        E 24 b4 06 15
        E 24 b4 06 13
        E 24 b4 06 12
        E 24 b4 06 10
        E 24 b4 06 0e
        E 24 b4 06 0c
        E 24 b4 06 0a
        E 24 b4 06 09
        E 24 b4 06 07
        E 24 b4 06 05
        E 24 b4 06 03
        E 24 b4 06 01
        E 24 b4 06 00
        E 16 b4 06 00
        E 16 b4 06 00
        E 16 b4 06 01
        E 16 b4 06 01
        E 16 b4 06 02
        E 16 b4 06 02
        E 16 b4 06 02
        E 16 b4 06 03
        E 16 b4 06 03
        E 16 b4 06 04
        E 16 b4 06 04
        E 16 b4 06 04
        E 16 b4 06 05
        E 16 b4 06 05
        E 16 b4 06 06
        E 16 b4 06 06
        E 16 b4 06 06
        E 16 b4 06 07
        E 16 b4 06 07
        E 16 b4 06 08
        E 16 b4 06 08
        E 16 b4 06 08
        E 16 b4 06 09
        E 16 b4 06 09
        E 16 b4 06 0a
        E 16 b4 06 0a
        E 16 b4 06 0a
        E 16 b4 06 0b
        E 16 b4 06 0b
        E 16 b4 06 0c
        E 16 b4 06 0c
        E 16 b4 06 0c
        E 16 b4 06 0d
        E 16 b4 06 0d
        E 16 b4 06 0e
        E 16 b4 06 0e
        E 16 b4 06 0e
        E 16 b4 06 0f
        E 16 b4 06 0f
        E 16 b4 06 10
        E 16 b4 06 10
        E 16 b4 06 10
        E 16 b4 06 11
        E 16 b4 06 11
        E 16 b4 06 12
        E 16 b4 06 12
        E 16 b4 06 12
        E 16 b4 06 13
        E 16 b4 06 13
        E 16 b4 06 14
        E 16 b4 06 14
        E 16 b4 06 14
        E 16 b4 06 15
        E 16 b4 06 15
        E 16 b4 06 16
        E 16 b4 06 16
        E 16 b4 06 16
        E 16 b4 06 17
        E 16 b4 06 17
        E 16 b4 06 18
        E 16 b4 06 18
        E 16 b4 06 18
        E 16 b4 06 19
        E 16 b4 06 19
        E 16 b4 06 19
        E 16 b4 06 18
        E 16 b4 06 18
        E 16 b4 06 18
        E 16 b4 06 17
        E 16 b4 06 17
        E 16 b4 06 16
        E 16 b4 06 16
        E 16 b4 06 16
        E 16 b4 06 15
        E 16 b4 06 15
        E 16 b4 06 14
        E 16 b4 06 14
        E 16 b4 06 14
        E 16 b4 06 13
        E 16 b4 06 13
        E 16 b4 06 12
        E 16 b4 06 12
        E 16 b4 06 12
        E 16 b4 06 11
        E 16 b4 06 11
        E 16 b4 06 10
        E 16 b4 06 10
        E 16 b4 06 10
        E 16 b4 06 0f
        E 16 b4 06 0f
        E 16 b4 06 0e
        E 16 b4 06 0e
        E 16 b4 06 0e
        E 16 b4 06 0d
        E 16 b4 06 0d
        E 16 b4 06 0c
        E 16 b4 06 0c
        E 16 b4 06 0c
        E 16 b4 06 0b
        E 16 b4 06 0b
        E 16 b4 06 0a
        E 16 b4 06 0a
        E 16 b4 06 0a
        E 16 b4 06 09
        E 16 b4 06 09
        E 16 b4 06 08
        E 16 b4 06 08
        E 16 b4 06 08
        E 16 b4 06 07
        E 16 b4 06 07
        E 16 b4 06 06
        E 16 b4 06 06
        E 16 b4 06 06
        E 16 b4 06 05
        E 16 b4 06 05
        E 16 b4 06 04
        E 16 b4 06 04
        E 16 b4 06 04
        E 16 b4 06 03
        E 16 b4 06 03
        E 16 b4 06 02
        E 16 b4 06 02
        E 16 b4 06 02
        E 16 b4 06 01
        E 16 b4 06 01
        E 16 b4 06 00
        E 16 b4 06 00
        E 16 b4 06 00
        E 28 b4 06 01
        E 28 b4 06 03
        E 28 b4 06 05
        E 28 b4 06 07
        E 28 b4 06 09
        E 28 b4 06 0a
        E 28 b4 06 0c
        E 28 b4 06 0e
        E 28 b4 06 10
        E 28 b4 06 12
        E 28 b4 06 13
        E 28 b4 06 15
        E 28 b4 06 17
        E 28 b4 06 19
        E 28 b4 06 1b
        E 28 b4 06 1c
        E 28 b4 06 1e
        E 28 b4 06 20
        E 28 b4 06 22
        E 28 b4 06 24
        E 28 b4 06 25
        E 28 b4 06 27
        E 28 b4 06 29
        E 28 b4 06 2b
        E 28 b4 06 2d
        E 28 b4 06 2e
        E 28 b4 06 30
        E 28 b4 06 32
        E 28 b4 06 34
        E 28 b4 06 36
        E 28 b4 06 37
        E 28 b4 06 39
        E 28 b4 06 3b
        E 28 b4 06 3d
        E 28 b4 06 3f
        E 28 b4 06 40
        E 28 b4 06 42
        E 28 b4 06 44
        E 28 b4 06 46
        E 28 b4 06 48
        E 28 b4 06 49
        E 28 b4 06 4b
        E 28 b4 06 4d
        E 28 b4 06 4f
        E 28 b4 06 51
        E 28 b4 06 52
        E 28 b4 06 54
        E 28 b4 06 56
        E 28 b4 06 58
        E 28 b4 06 5a
        E 28 b4 06 5b
        E 28 b4 06 5d
        E 28 b4 06 5f
        E 28 b4 06 61
        E 28 b4 06 63
        E 28 b4 06 64
        E 28 b4 06 66
        E 28 b4 06 68
        E 28 b4 06 6a
        E 28 b4 06 6c
        E 28 b4 06 6d
        E 28 b4 06 6f
        E 28 b4 06 71
        E 28 b4 06 72
        E 28 b4 06 71
        E 28 b4 06 6f
        E 28 b4 06 6d
        E 28 b4 06 6c
        E 28 b4 06 6a
        E 28 b4 06 68
        E 28 b4 06 66
        E 28 b4 06 64
        E 28 b4 06 63
        E 28 b4 06 61
        E 28 b4 06 5f
        E 28 b4 06 5d
        E 28 b4 06 5b
        E 28 b4 06 5a
        E 28 b4 06 58
        E 28 b4 06 56
        E 28 b4 06 54
        E 28 b4 06 52
        E 28 b4 06 51
        E 28 b4 06 4f
        E 28 b4 06 4d
        E 28 b4 06 4b
        E 28 b4 06 49
        E 28 b4 06 48
        E 28 b4 06 46
        E 28 b4 06 44
        E 28 b4 06 42
        E 28 b4 06 40
        E 28 b4 06 3f
        E 28 b4 06 3d
        E 28 b4 06 3b
        E 28 b4 06 39
        E 28 b4 06 37
        E 28 b4 06 36
        E 28 b4 06 34
        E 28 b4 06 32
        E 28 b4 06 30
        E 28 b4 06 2e
        E 28 b4 06 2d
        E 28 b4 06 2b
        E 28 b4 06 29
        E 28 b4 06 27
        E 28 b4 06 25
        E 28 b4 06 24
        E 28 b4 06 22
        E 28 b4 06 20
        E 28 b4 06 1e
        E 28 b4 06 1c
        E 28 b4 06 1b
        E 28 b4 06 19
        E 28 b4 06 17
        E 28 b4 06 15
        E 28 b4 06 13
        E 28 b4 06 12
        E 28 b4 06 10
        E 28 b4 06 0e
        E 28 b4 06 0c
        E 28 b4 06 0a
        E 28 b4 06 09
        E 28 b4 06 07
        E 28 b4 06 05
        E 28 b4 06 03
        E 28 b4 06 01
        E 28 b4 06 00
        E 16 b4 06 01
        E 16 b4 06 02
        E 16 b4 06 03
        E 16 b4 06 04
        E 16 b4 06 05
        E 16 b4 06 06
        E 16 b4 06 07
        E 16 b4 06 08
        E 16 b4 06 09
        E 16 b4 06 0a
        E 16 b4 06 0b
        E 16 b4 06 0c
        E 16 b4 06 0d
        E 16 b4 06 0e
        E 16 b4 06 0f
        E 16 b4 06 10
        E 16 b4 06 11
        E 16 b4 06 12
        E 16 b4 06 13
        E 16 b4 06 14
        E 16 b4 06 15
        E 16 b4 06 16
        E 16 b4 06 17
        E 16 b4 06 18
        E 16 b4 06 19
        E 16 b4 06 1a
        E 16 b4 06 1b
        E 16 b4 06 1c
        E 16 b4 06 1d
        E 16 b4 06 1e
        E 16 b4 06 1f
        E 16 b4 06 20
        E 16 b4 06 21
        E 16 b4 06 22
        E 16 b4 06 23
        E 16 b4 06 24
        E 16 b4 06 25
        E 16 b4 06 26
        E 16 b4 06 27
        E 16 b4 06 28
        E 16 b4 06 29
        E 16 b4 06 2a
        E 16 b4 06 2b
        E 16 b4 06 2c
        E 16 b4 06 2d
        E 16 b4 06 2e
        E 16 b4 06 2f
        E 16 b4 06 30
        E 16 b4 06 31
        E 16 b4 06 32
        E 16 b4 06 33
        E 16 b4 06 34
        E 16 b4 06 35
        E 16 b4 06 36
        E 16 b4 06 37
        E 16 b4 06 38
        E 16 b4 06 39
        E 16 b4 06 3a
        E 16 b4 06 3b
        E 16 b4 06 3c
        E 16 b4 06 3d
        E 16 b4 06 3e
        E 16 b4 06 3f
        E 16 b4 06 3f
        E 16 b4 06 3f
        E 16 b4 06 3e
        E 16 b4 06 3d
        E 16 b4 06 3c
        E 16 b4 06 3b
        E 16 b4 06 3a
        E 16 b4 06 39
        E 16 b4 06 38
        E 16 b4 06 37
        E 16 b4 06 36
        E 16 b4 06 35
        E 16 b4 06 34
        E 16 b4 06 33
        E 16 b4 06 32
        E 16 b4 06 31
        E 16 b4 06 30
        E 16 b4 06 2f
        E 16 b4 06 2e
        E 16 b4 06 2d
        E 16 b4 06 2c
        E 16 b4 06 2b
        E 16 b4 06 2a
        E 16 b4 06 29
        E 16 b4 06 28
        E 16 b4 06 27
        E 16 b4 06 26
        E 16 b4 06 25
        E 16 b4 06 24
        E 16 b4 06 23
        E 16 b4 06 22
        E 16 b4 06 21
        E 16 b4 06 20
        E 16 b4 06 1f
        E 16 b4 06 1e
        E 16 b4 06 1d
        E 16 b4 06 1c
        E 16 b4 06 1b
        E 16 b4 06 1a
        E 16 b4 06 19
        E 16 b4 06 18
        E 16 b4 06 17
        E 16 b4 06 16
        E 16 b4 06 15
        E 16 b4 06 14
        E 16 b4 06 13
        E 16 b4 06 12
        E 16 b4 06 11
        E 16 b4 06 10
        E 16 b4 06 0f
        E 16 b4 06 0e
        E 16 b4 06 0d
        E 16 b4 06 0c
        E 16 b4 06 0b
        E 16 b4 06 0a
        E 16 b4 06 09
        E 16 b4 06 08
        E 16 b4 06 07
        E 16 b4 06 06
        E 16 b4 06 05
        E 16 b4 06 04
        E 16 b4 06 03
        E 16 b4 06 02
        E 16 b4 06 01
        E 16 b4 06 00
        E 31 b4 06 00
        E 31 b4 06 00
        E 31 b4 06 00
        E 31 b4 06 00
        E 31 b4 06 01
        E 31 b4 06 01
        E 31 b4 06 01
        E 31 b4 06 01
        E 31 b4 06 01
        E 31 b4 06 02
        E 31 b4 06 02
        E 31 b4 06 02
        E 31 b4 06 02
        E 31 b4 06 02
        E 31 b4 06 03
        E 31 b4 06 03
        E 31 b4 06 03
        E 31 b4 06 03
        E 31 b4 06 03
        E 31 b4 06 04
        E 31 b4 06 04
        E 31 b4 06 04
        E 31 b4 06 04
        E 31 b4 06 04
        E 31 b4 06 05
        E 31 b4 06 05
        E 31 b4 06 05
        E 31 b4 06 05
        E 31 b4 06 05
        E 31 b4 06 06
        E 31 b4 06 06
        E 31 b4 06 06
        E 31 b4 06 06
        E 31 b4 06 06
        E 31 b4 06 07
        E 31 b4 06 07
        E 31 b4 06 07
        E 31 b4 06 07
        E 31 b4 06 07
        E 31 b4 06 08
        E 31 b4 06 08
        E 31 b4 06 08
        E 31 b4 06 08
        E 31 b4 06 08
        E 31 b4 06 09
        E 31 b4 06 09
        E 31 b4 06 09
        E 31 b4 06 09
        E 31 b4 06 09
        E 31 b4 06 0a
        E 31 b4 06 0a
        E 31 b4 06 0a
        E 31 b4 06 0a
        E 31 b4 06 0a
        E 31 b4 06 0b
        E 31 b4 06 0b
        E 31 b4 06 0b
        E 31 b4 06 0b
        E 31 b4 06 0b
        E 31 b4 06 0c
        E 31 b4 06 0c
        E 31 b4 06 0c
        E 31 b4 06 0c
        E 31 b4 06 0c
        E 31 b4 06 0c
        E 31 b4 06 0c
        E 31 b4 06 0c
        E 31 b4 06 0c
        E 31 b4 06 0b
        E 31 b4 06 0b
        E 31 b4 06 0b
        E 31 b4 06 0b
        E 31 b4 06 0b
        E 31 b4 06 0a
        E 31 b4 06 0a
        E 31 b4 06 0a
        E 31 b4 06 0a
        E 31 b4 06 0a
        E 31 b4 06 09
        E 31 b4 06 09
        E 31 b4 06 09
        E 31 b4 06 09
        E 31 b4 06 09
        E 31 b4 06 08
        E 31 b4 06 08
        E 31 b4 06 08
        E 31 b4 06 08
        E 31 b4 06 08
        E 31 b4 06 07
        E 31 b4 06 07
        E 31 b4 06 07
        E 31 b4 06 07
        E 31 b4 06 07
        E 31 b4 06 06
        E 31 b4 06 06
        E 31 b4 06 06
        E 31 b4 06 06
        E 31 b4 06 06
        E 31 b4 06 05
        E 31 b4 06 05
        E 31 b4 06 05
        E 31 b4 06 05
        E 31 b4 06 05
        E 31 b4 06 04
        E 31 b4 06 04
        E 31 b4 06 04
        E 31 b4 06 04
        E 31 b4 06 04
        E 31 b4 06 03
        E 31 b4 06 03
        E 31 b4 06 03
        E 31 b4 06 03
        E 31 b4 06 03
        E 31 b4 06 02
        E 31 b4 06 02
        E 31 b4 06 02
        E 31 b4 06 02
        E 31 b4 06 02
        E 31 b4 06 01
        E 31 b4 06 01
        E 31 b4 06 01
        E 31 b4 06 01
        E 31 b4 06 01
        E 31 b4 06 00
        E 31 b4 06 00
        E 31 b4 06 00
        E 31 b4 06 00
        E 31 b4 06 00
        E 31 b4 06 00
        E 31 b4 06 01
        E 31 b4 06 01
        E 31 b4 06 02
        E 31 b4 06 03
        E 31 b4 06 03
        E 31 b4 06 04
        E 31 b4 06 04
        E 31 b4 06 05
        E 31 b4 06 06
        E 31 b4 06 06
        E 31 b4 06 07
        E 31 b4 06 07
        E 31 b4 06 08
        E 31 b4 06 09
        E 31 b4 06 09
        E 31 b4 06 0a
        E 31 b4 06 0a
        E 31 b4 06 0b
        E 31 b4 06 0c
        E 31 b4 06 0c
        E 31 b4 06 0d
        E 31 b4 06 0d
        E 31 b4 06 0e
        E 31 b4 06 0f
        E 31 b4 06 0f
        E 31 b4 06 10
        E 31 b4 06 10
        E 31 b4 06 11
        E 31 b4 06 12
        E 31 b4 06 12
        E 31 b4 06 13
        E 31 b4 06 13
        E 31 b4 06 14
        E 31 b4 06 15
        E 31 b4 06 15
        E 31 b4 06 16
        E 31 b4 06 16
        E 31 b4 06 17
        E 31 b4 06 18
        E 31 b4 06 18
        E 31 b4 06 19
        E 31 b4 06 19
        E 31 b4 06 1a
        E 31 b4 06 1b
        E 31 b4 06 1b
        E 31 b4 06 1c
        E 31 b4 06 1c
        E 31 b4 06 1d
        E 31 b4 06 1e
        E 31 b4 06 1e
        E 31 b4 06 1f
        E 31 b4 06 1f
        E 31 b4 06 20
        E 31 b4 06 21
        E 31 b4 06 21
        E 31 b4 06 22
        E 31 b4 06 22
        E 31 b4 06 23
        E 31 b4 06 24
        E 31 b4 06 24
        E 31 b4 06 25
        E 31 b4 06 25
        E 31 b4 06 26
        E 31 b4 06 25
        E 31 b4 06 25
        E 31 b4 06 24
        E 31 b4 06 24
        E 31 b4 06 23
        E 31 b4 06 22
        E 31 b4 06 22
        E 31 b4 06 21
        E 31 b4 06 21
        E 31 b4 06 20
        E 31 b4 06 1f
        E 31 b4 06 1f
        E 31 b4 06 1e
        E 31 b4 06 1e
        E 31 b4 06 1d
        E 31 b4 06 1c
        E 31 b4 06 1c
        E 31 b4 06 1b
        E 31 b4 06 1b
        E 31 b4 06 1a
        E 31 b4 06 19
        E 31 b4 06 19
        E 31 b4 06 18
        E 31 b4 06 18
        E 31 b4 06 17
        E 31 b4 06 16
        E 31 b4 06 16
        E 31 b4 06 15
        E 31 b4 06 15
        E 31 b4 06 14
        E 31 b4 06 13
        E 31 b4 06 13
        E 31 b4 06 12
        E 31 b4 06 12
        E 31 b4 06 11
        E 31 b4 06 10
        E 31 b4 06 10
        E 31 b4 06 0f
        E 31 b4 06 0f
        E 31 b4 06 0e
        E 31 b4 06 0d
        E 31 b4 06 0d
        E 31 b4 06 0c
        E 31 b4 06 0c
        E 31 b4 06 0b
        E 31 b4 06 0a
        E 31 b4 06 0a
        E 31 b4 06 09
        E 31 b4 06 09
        E 31 b4 06 08
        E 31 b4 06 07
        E 31 b4 06 07
        E 31 b4 06 06
        E 31 b4 06 06
        E 31 b4 06 05
        E 31 b4 06 04
        E 31 b4 06 04
        E 31 b4 06 03
        E 31 b4 06 03
        E 31 b4 06 02
        E 31 b4 06 01
        E 31 b4 06 01
        E 31 b4 06 00
        E 31 b4 06 00
        E 35 b4 06 39
        E 35 b4 06 3c
        E 35 b4 06 3f
        E 35 b4 06 41
        E 35 b4 06 44
        E 35 b4 06 47
        E 35 b4 06 49
        E 35 b4 06 4c
        E 35 b4 06 4f
        E 35 b4 06 51
        E 35 b4 06 54
        E 35 b4 06 56
        E 35 b4 06 59
        E 35 b4 06 5b
        E 35 b4 06 5d
        E 35 b4 06 5f
        E 35 b4 06 62
        E 35 b4 06 63
        E 35 b4 06 65
        E 35 b4 06 67
        E 35 b4 06 69
        E 35 b4 06 6a
        E 35 b4 06 6c
        E 35 b4 06 6c
        E 35 b4 06 6d
        E 35 b4 06 6e
        E 35 b4 06 6f
        E 35 b4 06 70
        E 35 b4 06 71
        E 35 b4 06 71
        E 35 b4 06 72
        E 35 b4 06 72
        E 35 b4 06 72
        E 35 b4 06 72
        E 35 b4 06 72
        E 35 b4 06 71
        E 35 b4 06 71
        E 35 b4 06 70
        E 35 b4 06 6f
        E 35 b4 06 6e
        E 35 b4 06 6d
        E 35 b4 06 6c
        E 35 b4 06 6b
        E 35 b4 06 69
        E 35 b4 06 68
        E 35 b4 06 66
        E 35 b4 06 64
        E 35 b4 06 63
        E 35 b4 06 61
        E 35 b4 06 5e
        E 35 b4 06 5c
        E 35 b4 06 5a
        E 35 b4 06 58
        E 35 b4 06 55
        E 35 b4 06 52
        E 35 b4 06 50
        E 35 b4 06 4e
        E 35 b4 06 4b
        E 35 b4 06 48
        E 35 b4 06 46
        E 35 b4 06 42
        E 35 b4 06 3f
        E 35 b4 06 3d
        E 35 b4 06 3a
        E 35 b4 06 37
        E 35 b4 06 35
        E 35 b4 06 32
        E 35 b4 06 2f
        E 35 b4 06 2c
        E 35 b4 06 29
        E 35 b4 06 26
        E 35 b4 06 24
        E 35 b4 06 22
        E 35 b4 06 1f
        E 35 b4 06 1c
        E 35 b4 06 1a
        E 35 b4 06 18
        E 35 b4 06 15
        E 35 b4 06 13
        E 35 b4 06 11
        E 35 b4 06 0f
        E 35 b4 06 0d
        E 35 b4 06 0b
        E 35 b4 06 09
        E 35 b4 06 09
        E 35 b4 06 07
        E 35 b4 06 06
        E 35 b4 06 04
        E 35 b4 06 03
        E 35 b4 06 02
        E 35 b4 06 01
        E 35 b4 06 00
        E 35 b4 06 00
        E 35 b4 06 00
        E 35 b4 06 00
        E 35 b4 06 00
        E 35 b4 06 00
        E 35 b4 06 00
        E 35 b4 06 00
        E 35 b4 06 00
        E 35 b4 06 01
        E 35 b4 06 02
        E 35 b4 06 03
        E 35 b4 06 04
        E 35 b4 06 05
        E 35 b4 06 06
        E 35 b4 06 08
        E 35 b4 06 09
        E 35 b4 06 0a
        E 35 b4 06 0c
        E 35 b4 06 0e
        E 35 b4 06 10
        E 35 b4 06 12
        E 35 b4 06 14
        E 35 b4 06 16
        E 35 b4 06 19
        E 35 b4 06 1b
        E 35 b4 06 1d
        E 35 b4 06 20
        E 35 b4 06 23
        E 35 b4 06 25
        E 35 b4 06 28
        E 35 b4 06 2b
        E 35 b4 06 2d
        E 35 b4 06 30
        E 35 b4 06 33
        E 35 b4 06 36
        E 35 b4 06 39
        E 20 b4 06 20
        E 20 b4 06 21
        E 20 b4 06 23
        E 20 b4 06 24
        E 20 b4 06 26
        E 20 b4 06 27
        E 20 b4 06 29
        E 20 b4 06 2a
        E 20 b4 06 2c
        E 20 b4 06 2d
        E 20 b4 06 2f
        E 20 b4 06 30
        E 20 b4 06 31
        E 20 b4 06 33
        E 20 b4 06 34
        E 20 b4 06 35
        E 20 b4 06 36
        E 20 b4 06 37
        E 20 b4 06 38
        E 20 b4 06 39
        E 20 b4 06 3a
        E 20 b4 06 3b
        E 20 b4 06 3c
        E 20 b4 06 3c
        E 20 b4 06 3d
        E 20 b4 06 3d
        E 20 b4 06 3e
        E 20 b4 06 3e
        E 20 b4 06 3f
        E 20 b4 06 3f
        E 20 b4 06 3f
        E 20 b4 06 3f
        E 20 b4 06 3f
        E 20 b4 06 3f
        E 20 b4 06 3f
        E 20 b4 06 3f
        E 20 b4 06 3f
        E 20 b4 06 3e
        E 20 b4 06 3e
        E 20 b4 06 3d
        E 20 b4 06 3d
        E 20 b4 06 3c
        E 20 b4 06 3b
        E 20 b4 06 3a
        E 20 b4 06 3a
        E 20 b4 06 39
        E 20 b4 06 38
        E 20 b4 06 37
        E 20 b4 06 36
        E 20 b4 06 34
        E 20 b4 06 33
        E 20 b4 06 32
        E 20 b4 06 31
        E 20 b4 06 2f
        E 20 b4 06 2e
        E 20 b4 06 2c
        E 20 b4 06 2b
        E 20 b4 06 2a
        E 20 b4 06 28
        E 20 b4 06 27
        E 20 b4 06 25
        E 20 b4 06 23
        E 20 b4 06 22
        E 20 b4 06 20
        E 20 b4 06 1f
        E 20 b4 06 1d
        E 20 b4 06 1c
        E 20 b4 06 1a
        E 20 b4 06 18
        E 20 b4 06 17
        E 20 b4 06 15
        E 20 b4 06 14
        E 20 b4 06 13
        E 20 b4 06 11
        E 20 b4 06 10
        E 20 b4 06 0e
        E 20 b4 06 0d
        E 20 b4 06 0c
        E 20 b4 06 0b
        E 20 b4 06 09
        E 20 b4 06 08
        E 20 b4 06 07
        E 20 b4 06 06
        E 20 b4 06 05
        E 20 b4 06 05
        E 20 b4 06 04
        E 20 b4 06 03
        E 20 b4 06 02
        E 20 b4 06 02
        E 20 b4 06 01
        E 20 b4 06 01
        E 20 b4 06 00
        E 20 b4 06 00
        E 20 b4 06 00
        E 20 b4 06 00
        E 20 b4 06 00
        E 20 b4 06 00
        E 20 b4 06 00
        E 20 b4 06 00
        E 20 b4 06 00
        E 20 b4 06 01
        E 20 b4 06 01
        E 20 b4 06 02
        E 20 b4 06 02
        E 20 b4 06 03
        E 20 b4 06 03
        E 20 b4 06 04
        E 20 b4 06 05
        E 20 b4 06 06
        E 20 b4 06 07
        E 20 b4 06 08
        E 20 b4 06 09
        E 20 b4 06 0a
        E 20 b4 06 0b
        E 20 b4 06 0c
        E 20 b4 06 0e
        E 20 b4 06 0f
        E 20 b4 06 10
        E 20 b4 06 12
        E 20 b4 06 13
        E 20 b4 06 15
        E 20 b4 06 16
        E 20 b4 06 18
        E 20 b4 06 19
        E 20 b4 06 1b
        E 20 b4 06 1c
        E 20 b4 06 1e
        E 20 b4 06 20
        E 40 b4 06 06
        E 40 b4 06 06
        E 40 b4 06 07
        E 40 b4 06 07
        E 40 b4 06 07
        E 40 b4 06 07
        E 40 b4 06 08
        E 40 b4 06 08
        E 40 b4 06 08
        E 40 b4 06 09
        E 40 b4 06 09
        E 40 b4 06 09
        E 40 b4 06 09
        E 40 b4 06 0a
        E 40 b4 06 0a
        E 40 b4 06 0a
        E 40 b4 06 0a
        E 40 b4 06 0b
        E 40 b4 06 0b
        E 40 b4 06 0b
        E 40 b4 06 0b
        E 40 b4 06 0b
        E 40 b4 06 0c
        E 40 b4 06 0c
        E 40 b4 06 0c
        E 40 b4 06 0c
        E 40 b4 06 0c
        E 40 b4 06 0c
        E 40 b4 06 0c
        E 40 b4 06 0c
        E 40 b4 06 0c
        E 40 b4 06 0c
        E 40 b4 06 0c
        E 40 b4 06 0c
        E 40 b4 06 0c
        E 40 b4 06 0c
        E 40 b4 06 0c
        E 40 b4 06 0c
        E 40 b4 06 0c
        E 40 b4 06 0c
        E 40 b4 06 0c
        E 40 b4 06 0c
        E 40 b4 06 0b
        E 40 b4 06 0b
        E 40 b4 06 0b
        E 40 b4 06 0b
        E 40 b4 06 0b
        E 40 b4 06 0b
        E 40 b4 06 0a
        E 40 b4 06 0a
        E 40 b4 06 0a
        E 40 b4 06 0a
        E 40 b4 06 09
        E 40 b4 06 09
        E 40 b4 06 09
        E 40 b4 06 08
        E 40 b4 06 08
        E 40 b4 06 08
        E 40 b4 06 08
        E 40 b4 06 07
        E 40 b4 06 07
        E 40 b4 06 07
        E 40 b4 06 06
        E 40 b4 06 06
        E 40 b4 06 06
        E 40 b4 06 05
        E 40 b4 06 05
        E 40 b4 06 05
        E 40 b4 06 04
        E 40 b4 06 04
        E 40 b4 06 04
        E 40 b4 06 04
        E 40 b4 06 03
        E 40 b4 06 03
        E 40 b4 06 03
        E 40 b4 06 02
        E 40 b4 06 02
        E 40 b4 06 02
        E 40 b4 06 02
        E 40 b4 06 01
        E 40 b4 06 01
        E 40 b4 06 01
        E 40 b4 06 01
        E 40 b4 06 01
        E 40 b4 06 01
        E 40 b4 06 00
        E 40 b4 06 00
        E 40 b4 06 00
        E 40 b4 06 00
        E 40 b4 06 00
        E 40 b4 06 00
        E 40 b4 06 00
        E 40 b4 06 00
        E 40 b4 06 00
        E 40 b4 06 00
        E 40 b4 06 00
        E 40 b4 06 00
        E 40 b4 06 00
        E 40 b4 06 00
        E 40 b4 06 00
        E 40 b4 06 00
        E 40 b4 06 00
        E 40 b4 06 00
        E 40 b4 06 00
        E 40 b4 06 00
        E 40 b4 06 00
        E 40 b4 06 00
        E 40 b4 06 01
        E 40 b4 06 01
        E 40 b4 06 01
        E 40 b4 06 01
        E 40 b4 06 01
        E 40 b4 06 02
        E 40 b4 06 02
        E 40 b4 06 02
        E 40 b4 06 02
        E 40 b4 06 03
        E 40 b4 06 03
        E 40 b4 06 03
        E 40 b4 06 03
        E 40 b4 06 04
        E 40 b4 06 04
        E 40 b4 06 04
        E 40 b4 06 05
        E 40 b4 06 05
        E 40 b4 06 05
        E 40 b4 06 06
        E 40 b4 06 06
        E 40 b4 06 13
        E 40 b4 06 14
        E 40 b4 06 15
        E 40 b4 06 15
        E 40 b4 06 16
        E 40 b4 06 17
        E 40 b4 06 18
        E 40 b4 06 19
        E 40 b4 06 1a
        E 40 b4 06 1b
        E 40 b4 06 1c
        E 40 b4 06 1c
        E 40 b4 06 1d
        E 40 b4 06 1e
        E 40 b4 06 1f
        E 40 b4 06 1f
        E 40 b4 06 20
        E 40 b4 06 21
        E 40 b4 06 21
        E 40 b4 06 22
        E 40 b4 06 23
        E 40 b4 06 23
        E 40 b4 06 24
        E 40 b4 06 24
        E 40 b4 06 24
        E 40 b4 06 24
        E 40 b4 06 25
        E 40 b4 06 25
        E 40 b4 06 25
        E 40 b4 06 25
        E 40 b4 06 26
        E 40 b4 06 26
        E 40 b4 06 26
        E 40 b4 06 26
        E 40 b4 06 26
        E 40 b4 06 25
        E 40 b4 06 25
        E 40 b4 06 25
        E 40 b4 06 25
        E 40 b4 06 24
        E 40 b4 06 24
        E 40 b4 06 24
        E 40 b4 06 23
        E 40 b4 06 23
        E 40 b4 06 22
        E 40 b4 06 22
        E 40 b4 06 21
        E 40 b4 06 21
        E 40 b4 06 20
        E 40 b4 06 1f
        E 40 b4 06 1e
        E 40 b4 06 1e
        E 40 b4 06 1d
        E 40 b4 06 1c
        E 40 b4 06 1b
        E 40 b4 06 1a
        E 40 b4 06 1a
        E 40 b4 06 19
        E 40 b4 06 18
        E 40 b4 06 17
        E 40 b4 06 16
        E 40 b4 06 15
        E 40 b4 06 14
        E 40 b4 06 13
        E 40 b4 06 12
        E 40 b4 06 11
        E 40 b4 06 10
        E 40 b4 06 0f
        E 40 b4 06 0e
        E 40 b4 06 0d
        E 40 b4 06 0c
        E 40 b4 06 0c
        E 40 b4 06 0b
        E 40 b4 06 0a
        E 40 b4 06 09
        E 40 b4 06 08
        E 40 b4 06 08
        E 40 b4 06 07
        E 40 b4 06 06
        E 40 b4 06 05
        E 40 b4 06 05
        E 40 b4 06 04
        E 40 b4 06 03
        E 40 b4 06 03
        E 40 b4 06 03
        E 40 b4 06 02
        E 40 b4 06 02
        E 40 b4 06 01
        E 40 b4 06 01
        E 40 b4 06 00
        E 40 b4 06 00
        E 40 b4 06 00
        E 40 b4 06 00
        E 40 b4 06 00
        E 40 b4 06 00
        E 40 b4 06 00
        E 40 b4 06 00
        E 40 b4 06 00
        E 40 b4 06 00
        E 40 b4 06 00
        E 40 b4 06 00
        E 40 b4 06 00
        E 40 b4 06 01
        E 40 b4 06 01
        E 40 b4 06 01
        E 40 b4 06 02
        E 40 b4 06 02
        E 40 b4 06 03
        E 40 b4 06 03
        E 40 b4 06 04
        E 40 b4 06 04
        E 40 b4 06 05
        E 40 b4 06 06
        E 40 b4 06 06
        E 40 b4 06 07
        E 40 b4 06 08
        E 40 b4 06 09
        E 40 b4 06 09
        E 40 b4 06 0a
        E 40 b4 06 0b
        E 40 b4 06 0c
        E 40 b4 06 0d
        E 40 b4 06 0e
        E 40 b4 06 0f
        E 40 b4 06 10
        E 40 b4 06 11
        E 40 b4 06 12
        E 40 b4 06 13
        E 35 b4 06 39
        E 35 b4 06 3c
        E 35 b4 06 3f
        E 35 b4 06 41
        E 35 b4 06 44
        E 35 b4 06 47
        E 35 b4 06 49
        E 35 b4 06 4c
        E 35 b4 06 4f
        E 35 b4 06 51
        E 35 b4 06 54
        E 35 b4 06 56
        E 35 b4 06 59
        E 35 b4 06 5b
        E 35 b4 06 5d
        E 35 b4 06 5f
        E 35 b4 06 62
        E 35 b4 06 63
        E 35 b4 06 65
        E 35 b4 06 67
        E 35 b4 06 69
        E 35 b4 06 6a
        E 35 b4 06 6c
        E 35 b4 06 6c
        E 35 b4 06 6d
        E 35 b4 06 6e
        E 35 b4 06 6f
        E 35 b4 06 70
        E 35 b4 06 71
        E 35 b4 06 71
        E 35 b4 06 72
        E 35 b4 06 72
        E 35 b4 06 72
        E 35 b4 06 72
        E 35 b4 06 72
        E 35 b4 06 71
        E 35 b4 06 71
        E 35 b4 06 70
        E 35 b4 06 6f
        E 35 b4 06 6e
        E 35 b4 06 6d
        E 35 b4 06 6c
        E 35 b4 06 6b
        E 35 b4 06 69
        E 35 b4 06 68
        E 35 b4 06 66
        E 35 b4 06 64
        E 35 b4 06 63
        E 35 b4 06 61
        E 35 b4 06 5e
        E 35 b4 06 5c
        E 35 b4 06 5a
        E 35 b4 06 58
        E 35 b4 06 55
        E 35 b4 06 52
        E 35 b4 06 50
        E 35 b4 06 4e
        E 35 b4 06 4b
        E 35 b4 06 48
        E 35 b4 06 46
        E 35 b4 06 42
        E 35 b4 06 3f
        E 35 b4 06 3d
        E 35 b4 06 3a
        E 35 b4 06 37
        E 35 b4 06 35
        E 35 b4 06 32
        E 35 b4 06 2f
        E 35 b4 06 2c
        E 35 b4 06 29
        E 35 b4 06 26
        E 35 b4 06 24
        E 35 b4 06 22
        E 35 b4 06 1f
        E 35 b4 06 1c
        E 35 b4 06 1a
        E 35 b4 06 18
        E 35 b4 06 15
        E 35 b4 06 13
        E 35 b4 06 11
        E 35 b4 06 0f
        E 35 b4 06 0d
        E 35 b4 06 0b
        E 35 b4 06 09
        E 35 b4 06 09
        E 35 b4 06 07
        E 35 b4 06 06
        E 35 b4 06 04
        E 35 b4 06 03
        E 35 b4 06 02
        E 35 b4 06 01
        E 35 b4 06 00
        E 35 b4 06 00
        E 35 b4 06 00
        E 35 b4 06 00
        E 35 b4 06 00
        E 35 b4 06 00
        E 35 b4 06 00
        E 35 b4 06 00
        E 35 b4 06 00
        E 35 b4 06 01
        E 35 b4 06 02
        E 35 b4 06 03
        E 35 b4 06 04
        E 35 b4 06 05
        E 35 b4 06 06
        E 35 b4 06 08
        E 35 b4 06 09
        E 35 b4 06 0a
        E 35 b4 06 0c
        E 35 b4 06 0e
        E 35 b4 06 10
        E 35 b4 06 12
        E 35 b4 06 14
        E 35 b4 06 16
        E 35 b4 06 19
        E 35 b4 06 1b
        E 35 b4 06 1d
        E 35 b4 06 20
        E 35 b4 06 23
        E 35 b4 06 25
        E 35 b4 06 28
        E 35 b4 06 2b
        E 35 b4 06 2d
        E 35 b4 06 30
        E 35 b4 06 33
        E 35 b4 06 36
        E 35 b4 06 39
        E 20 b4 06 20
        E 20 b4 06 21
        E 20 b4 06 23
        E 20 b4 06 24
        E 20 b4 06 26
        E 20 b4 06 27
        E 20 b4 06 29
        E 20 b4 06 2a
        E 20 b4 06 2c
        E 20 b4 06 2d
        E 20 b4 06 2f
        E 20 b4 06 30
        E 20 b4 06 31
        E 20 b4 06 33
        E 20 b4 06 34
        E 20 b4 06 35
        E 20 b4 06 36
        E 20 b4 06 37
        E 20 b4 06 38
        E 20 b4 06 39
        E 20 b4 06 3a
        E 20 b4 06 3b
        E 20 b4 06 3c
        E 20 b4 06 3c
        E 20 b4 06 3d
        E 20 b4 06 3d
        E 20 b4 06 3e
        E 20 b4 06 3e
        E 20 b4 06 3f
        E 20 b4 06 3f
        E 20 b4 06 3f
        E 20 b4 06 3f
        E 20 b4 06 3f
        E 20 b4 06 3f
        E 20 b4 06 3f
        E 20 b4 06 3f
        E 20 b4 06 3f
        E 20 b4 06 3e
        E 20 b4 06 3e
        E 20 b4 06 3d
        E 20 b4 06 3d
        E 20 b4 06 3c
        E 20 b4 06 3b
        E 20 b4 06 3a
        E 20 b4 06 3a
        E 20 b4 06 39
        E 20 b4 06 38
        E 20 b4 06 37
        E 20 b4 06 36
        E 20 b4 06 34
        E 20 b4 06 33
        E 20 b4 06 32
        E 20 b4 06 31
        E 20 b4 06 2f
        E 20 b4 06 2e
        E 20 b4 06 2c
        E 20 b4 06 2b
        E 20 b4 06 2a
        E 20 b4 06 28
        E 20 b4 06 27
        E 20 b4 06 25
        E 20 b4 06 23
        E 20 b4 06 22
        E 20 b4 06 20
        E 20 b4 06 1f
        E 20 b4 06 1d
        E 20 b4 06 1c
        E 20 b4 06 1a
        E 20 b4 06 18
        E 20 b4 06 17
        E 20 b4 06 15
        E 20 b4 06 14
        E 20 b4 06 13
        E 20 b4 06 11
        E 20 b4 06 10
        E 20 b4 06 0e
        E 20 b4 06 0d
        E 20 b4 06 0c
        E 20 b4 06 0b
        E 20 b4 06 09
        E 20 b4 06 08
        E 20 b4 06 07
        E 20 b4 06 06
        E 20 b4 06 05
        E 20 b4 06 05
        E 20 b4 06 04
        E 20 b4 06 03
        E 20 b4 06 02
        E 20 b4 06 02
        E 20 b4 06 01
        E 20 b4 06 01
        E 20 b4 06 00
        E 20 b4 06 00
        E 20 b4 06 00
        E 20 b4 06 00
        E 20 b4 06 00
        E 20 b4 06 00
        E 20 b4 06 00
        E 20 b4 06 00
        E 20 b4 06 00
        E 20 b4 06 01
        E 20 b4 06 01
        E 20 b4 06 02
        E 20 b4 06 02
        E 20 b4 06 03
        E 20 b4 06 03
        E 20 b4 06 04
        E 20 b4 06 05
        E 20 b4 06 06
        E 20 b4 06 07
        E 20 b4 06 08
        E 20 b4 06 09
        E 20 b4 06 0a
        E 20 b4 06 0b
        E 20 b4 06 0c
        E 20 b4 06 0e
        E 20 b4 06 0f
        E 20 b4 06 10
        E 20 b4 06 12
        E 20 b4 06 13
        E 20 b4 06 15
        E 20 b4 06 16
        E 20 b4 06 18
        E 20 b4 06 19
        E 20 b4 06 1b
        E 20 b4 06 1c
        E 20 b4 06 1e
        E 20 b4 06 20
        E 40 b4 06 06
        E 40 b4 06 06
        E 40 b4 06 07
        E 40 b4 06 07
        E 40 b4 06 07
        E 40 b4 06 07
        E 40 b4 06 08
        E 40 b4 06 08
        E 40 b4 06 08
        E 40 b4 06 09
        E 40 b4 06 09
        E 40 b4 06 09
        E 40 b4 06 09
        E 40 b4 06 0a
        E 40 b4 06 0a
        E 40 b4 06 0a
        E 40 b4 06 0a
        E 40 b4 06 0b
        E 40 b4 06 0b
        E 40 b4 06 0b
        E 40 b4 06 0b
        E 40 b4 06 0b
        E 40 b4 06 0c
        E 40 b4 06 0c
        E 40 b4 06 0c
        E 40 b4 06 0c
        E 40 b4 06 0c
        E 40 b4 06 0c
        E 40 b4 06 0c
        E 40 b4 06 0c
        E 40 b4 06 0c
        E 40 b4 06 0c
        E 40 b4 06 0c
        E 40 b4 06 0c
        E 40 b4 06 0c
        E 40 b4 06 0c
        E 40 b4 06 0c
        E 40 b4 06 0c
        E 40 b4 06 0c
        E 40 b4 06 0c
        E 40 b4 06 0c
        E 40 b4 06 0c
        E 40 b4 06 0b
        E 40 b4 06 0b
        E 40 b4 06 0b
        E 40 b4 06 0b
        E 40 b4 06 0b
        E 40 b4 06 0b
        E 40 b4 06 0a
        E 40 b4 06 0a
        E 40 b4 06 0a
        E 40 b4 06 0a
        E 40 b4 06 09
        E 40 b4 06 09
        E 40 b4 06 09
        E 40 b4 06 08
        E 40 b4 06 08
        E 40 b4 06 08
        E 40 b4 06 08
        E 40 b4 06 07
        E 40 b4 06 07
        E 40 b4 06 07
        E 40 b4 06 06
        E 40 b4 06 06
        E 40 b4 06 06
        E 40 b4 06 05
        E 40 b4 06 05
        E 40 b4 06 05
        E 40 b4 06 04
        E 40 b4 06 04
        E 40 b4 06 04
        E 40 b4 06 04
        E 40 b4 06 03
        E 40 b4 06 03
        E 40 b4 06 03
        E 40 b4 06 02
        E 40 b4 06 02
        E 40 b4 06 02
        E 40 b4 06 02
        E 40 b4 06 01
        E 40 b4 06 01
        E 40 b4 06 01
        E 40 b4 06 01
        E 40 b4 06 01
        E 40 b4 06 01
        E 40 b4 06 00
        E 40 b4 06 00
        E 40 b4 06 00
        E 40 b4 06 00
        E 40 b4 06 00
        E 40 b4 06 00
        E 40 b4 06 00
        E 40 b4 06 00
        E 40 b4 06 00
        E 40 b4 06 00
        E 40 b4 06 00
        E 40 b4 06 00
        E 40 b4 06 00
        E 40 b4 06 00
        E 40 b4 06 00
        E 40 b4 06 00
        E 40 b4 06 00
        E 40 b4 06 00
        E 40 b4 06 00
        E 40 b4 06 00
        E 40 b4 06 00
        E 40 b4 06 00
        E 40 b4 06 01
        E 40 b4 06 01
        E 40 b4 06 01
        E 40 b4 06 01
        E 40 b4 06 01
        E 40 b4 06 02
        E 40 b4 06 02
        E 40 b4 06 02
        E 40 b4 06 02
        E 40 b4 06 03
        E 40 b4 06 03
        E 40 b4 06 03
        E 40 b4 06 03
        E 40 b4 06 04
        E 40 b4 06 04
        E 40 b4 06 04
        E 40 b4 06 05
        E 40 b4 06 05
        E 40 b4 06 05
        E 40 b4 06 06
        E 40 b4 06 06
        E 40 b4 06 13
        E 40 b4 06 14
        E 40 b4 06 15
        E 40 b4 06 15
        E 40 b4 06 16
        E 40 b4 06 17
        E 40 b4 06 18
        E 40 b4 06 19
        E 40 b4 06 1a
        E 40 b4 06 1b
        E 40 b4 06 1c
        E 40 b4 06 1c
        E 40 b4 06 1d
        E 40 b4 06 1e
        E 40 b4 06 1f
        E 40 b4 06 1f
        E 40 b4 06 20
        E 40 b4 06 21
        E 40 b4 06 21
        E 40 b4 06 22
        E 40 b4 06 23
        E 40 b4 06 23
        E 40 b4 06 24
        E 40 b4 06 24
        E 40 b4 06 24
        E 40 b4 06 24
        E 40 b4 06 25
        E 40 b4 06 25
        E 40 b4 06 25
        E 40 b4 06 25
        E 40 b4 06 26
        E 40 b4 06 26
        E 40 b4 06 26
        E 40 b4 06 26
        E 40 b4 06 26
        E 40 b4 06 25
        E 40 b4 06 25
        E 40 b4 06 25
        E 40 b4 06 25
        E 40 b4 06 24
        E 40 b4 06 24
        E 40 b4 06 24
        E 40 b4 06 23
        E 40 b4 06 23
        E 40 b4 06 22
        E 40 b4 06 22
        E 40 b4 06 21
        E 40 b4 06 21
        E 40 b4 06 20
        E 40 b4 06 1f
        E 40 b4 06 1e
        E 40 b4 06 1e
        E 40 b4 06 1d
        E 40 b4 06 1c
        E 40 b4 06 1b
        E 40 b4 06 1a
        E 40 b4 06 1a
        E 40 b4 06 19
        E 40 b4 06 18
        E 40 b4 06 17
        E 40 b4 06 16
        E 40 b4 06 15
        E 40 b4 06 14
        E 40 b4 06 13
        E 40 b4 06 12
        E 40 b4 06 11
        E 40 b4 06 10
        E 40 b4 06 0f
        E 40 b4 06 0e
        E 40 b4 06 0d
        E 40 b4 06 0c
        E 40 b4 06 0c
        E 40 b4 06 0b
        E 40 b4 06 0a
        E 40 b4 06 09
        E 40 b4 06 08
        E 40 b4 06 08
        E 40 b4 06 07
        E 40 b4 06 06
        E 40 b4 06 05
        E 40 b4 06 05
        E 40 b4 06 04
        E 40 b4 06 03
        E 40 b4 06 03
        E 40 b4 06 03
        E 40 b4 06 02
        E 40 b4 06 02
        E 40 b4 06 01
        E 40 b4 06 01
        E 40 b4 06 00
        E 40 b4 06 00
        E 40 b4 06 00
        E 40 b4 06 00
        E 40 b4 06 00
        E 40 b4 06 00
        E 40 b4 06 00
        E 40 b4 06 00
        E 40 b4 06 00
        E 40 b4 06 00
        E 40 b4 06 00
        E 40 b4 06 00
        E 40 b4 06 00
        E 40 b4 06 01
        E 40 b4 06 01
        E 40 b4 06 01
        E 40 b4 06 02
        E 40 b4 06 02
        E 40 b4 06 03
        E 40 b4 06 03
        E 40 b4 06 04
        E 40 b4 06 04
        E 40 b4 06 05
        E 40 b4 06 06
        E 40 b4 06 06
        E 40 b4 06 07
        E 40 b4 06 08
        E 40 b4 06 09
        E 40 b4 06 09
        E 40 b4 06 0a
        E 40 b4 06 0b
        E 40 b4 06 0c
        E 40 b4 06 0d
        E 40 b4 06 0e
        E 40 b4 06 0f
        E 40 b4 06 10
        E 40 b4 06 11
        E 40 b4 06 12
        E 40 b4 06 13
        E 35 b4 06 39
        E 35 b4 06 3c
        E 35 b4 06 3f
        E 35 b4 06 41
        E 35 b4 06 44
        E 35 b4 06 47
        E 35 b4 06 49
        E 35 b4 06 4c
        E 35 b4 06 4f
        E 35 b4 06 51
        E 35 b4 06 54
        E 35 b4 06 56
        E 35 b4 06 59
        E 35 b4 06 5b
        E 35 b4 06 5d
        E 35 b4 06 5f
        E 35 b4 06 62
        E 35 b4 06 63
        E 35 b4 06 65
        E 35 b4 06 67
        E 35 b4 06 69
        E 35 b4 06 6a
        E 35 b4 06 6c
        E 35 b4 06 6c
        E 35 b4 06 6d
        E 35 b4 06 6e
        E 35 b4 06 6f
        E 35 b4 06 70
        E 35 b4 06 71
        E 35 b4 06 71
        E 35 b4 06 72
        E 35 b4 06 72
        E 35 b4 06 72
        E 35 b4 06 72
        E 35 b4 06 72
        E 35 b4 06 71
        E 35 b4 06 71
        E 35 b4 06 70
        E 35 b4 06 6f
        E 35 b4 06 6e
        E 35 b4 06 6d
        E 35 b4 06 6c
        E 35 b4 06 6b
        E 35 b4 06 69
        E 35 b4 06 68
        E 35 b4 06 66
        E 35 b4 06 64
        E 35 b4 06 63
        E 35 b4 06 61
        E 35 b4 06 5e
        E 35 b4 06 5c
        E 35 b4 06 5a
        E 35 b4 06 58
        E 35 b4 06 55
        E 35 b4 06 52
        E 35 b4 06 50
        E 35 b4 06 4e
        E 35 b4 06 4b
        E 35 b4 06 48
        E 35 b4 06 46
        E 35 b4 06 42
        E 35 b4 06 3f
        E 35 b4 06 3d
        E 35 b4 06 3a
        E 35 b4 06 37
        E 35 b4 06 35
        E 35 b4 06 32
        E 35 b4 06 2f
        E 35 b4 06 2c
        E 35 b4 06 29
        E 35 b4 06 26
        E 35 b4 06 24
        E 35 b4 06 22
        E 35 b4 06 1f
        E 35 b4 06 1c
        E 35 b4 06 1a
        E 35 b4 06 18
        E 35 b4 06 15
        E 35 b4 06 13
        E 35 b4 06 11
        E 35 b4 06 0f
        E 35 b4 06 0d
        E 35 b4 06 0b
        E 35 b4 06 09
        E 35 b4 06 09
        E 35 b4 06 07
        E 35 b4 06 06
        E 35 b4 06 04
        E 35 b4 06 03
        E 35 b4 06 02
        E 35 b4 06 01
        E 35 b4 06 00
        E 35 b4 06 00
        E 35 b4 06 00
        E 35 b4 06 00
        E 35 b4 06 00
        E 35 b4 06 00
        E 35 b4 06 00
        E 35 b4 06 00
        E 35 b4 06 00
        E 35 b4 06 01
        E 35 b4 06 02
        E 35 b4 06 03
        E 35 b4 06 04
        E 35 b4 06 05
        E 35 b4 06 06
        E 35 b4 06 08
        E 35 b4 06 09
        E 35 b4 06 0a
        E 35 b4 06 0c
        E 35 b4 06 0e
        E 35 b4 06 10
        E 35 b4 06 12
        E 35 b4 06 14
        E 35 b4 06 16
        E 35 b4 06 19
        E 35 b4 06 1b
        E 35 b4 06 1d
        E 35 b4 06 20
        E 35 b4 06 23
        E 35 b4 06 25
        E 35 b4 06 28
        E 35 b4 06 2b
        E 35 b4 06 2d
        E 35 b4 06 30
        E 35 b4 06 33
        E 35 b4 06 36
        E 35 b4 06 39
        E 20 b4 06 20
        E 20 b4 06 21
        E 20 b4 06 23
        E 20 b4 06 24
        E 20 b4 06 26
        E 20 b4 06 27
        E 20 b4 06 29
        E 20 b4 06 2a
        E 20 b4 06 2c
        E 20 b4 06 2d
        E 20 b4 06 2f
        E 20 b4 06 30
        E 20 b4 06 31
        E 20 b4 06 33
        E 20 b4 06 34
        E 20 b4 06 35
        E 20 b4 06 36
        E 20 b4 06 37
        E 20 b4 06 38
        E 20 b4 06 39
        E 20 b4 06 3a
        E 20 b4 06 3b
        E 20 b4 06 3c
        E 20 b4 06 3c
        E 20 b4 06 3d
        E 20 b4 06 3d
        E 20 b4 06 3e
        E 20 b4 06 3e
        E 20 b4 06 3f
        E 20 b4 06 3f
        E 20 b4 06 3f
        E 20 b4 06 3f
        E 20 b4 06 3f
        E 20 b4 06 3f
        E 20 b4 06 3f
        E 20 b4 06 3f
        E 20 b4 06 3f
        E 20 b4 06 3e
        E 20 b4 06 3e
        E 20 b4 06 3d
        E 20 b4 06 3d
        E 20 b4 06 3c
        E 20 b4 06 3b
        E 20 b4 06 3a
        E 20 b4 06 3a
        E 20 b4 06 39
        E 20 b4 06 38
        E 20 b4 06 37
        E 20 b4 06 36
        E 20 b4 06 34
        E 20 b4 06 33
        E 20 b4 06 32
        E 20 b4 06 31
        E 20 b4 06 2f
        E 20 b4 06 2e
        E 20 b4 06 2c
        E 20 b4 06 2b
        E 20 b4 06 2a
        E 20 b4 06 28
        E 20 b4 06 27
        E 20 b4 06 25
        E 20 b4 06 23
        E 20 b4 06 22
        E 20 b4 06 20
        E 20 b4 06 1f
        E 20 b4 06 1d
        E 20 b4 06 1c
        E 20 b4 06 1a
        E 20 b4 06 18
        E 20 b4 06 17
        E 20 b4 06 15
        E 20 b4 06 14
        E 20 b4 06 13
        E 20 b4 06 11
        E 20 b4 06 10
        E 20 b4 06 0e
        E 20 b4 06 0d
        E 20 b4 06 0c
        E 20 b4 06 0b
        E 20 b4 06 09
        E 20 b4 06 08
        E 20 b4 06 07
        E 20 b4 06 06
        E 20 b4 06 05
        E 20 b4 06 05
        E 20 b4 06 04
        E 20 b4 06 03
        E 20 b4 06 02
        E 20 b4 06 02
        E 20 b4 06 01
        E 20 b4 06 01
        E 20 b4 06 00
        E 20 b4 06 00
        E 20 b4 06 00
        E 20 b4 06 00
        E 20 b4 06 00
        E 20 b4 06 00
        E 20 b4 06 00
        E 20 b4 06 00
        E 20 b4 06 00
        E 20 b4 06 01
        E 20 b4 06 01
        E 20 b4 06 02
        E 20 b4 06 02
        E 20 b4 06 03
        E 20 b4 06 03
        E 20 b4 06 04
        E 20 b4 06 05
        E 20 b4 06 06
        E 20 b4 06 07
        E 20 b4 06 08
        E 20 b4 06 09
        E 20 b4 06 0a
        E 20 b4 06 0b
        E 20 b4 06 0c
        E 20 b4 06 0e
        E 20 b4 06 0f
        E 20 b4 06 10
        E 20 b4 06 12
        E 20 b4 06 13
        E 20 b4 06 15
        E 20 b4 06 16
        E 20 b4 06 18
        E 20 b4 06 19
        E 20 b4 06 1b
        E 20 b4 06 1c
        E 20 b4 06 1e
        E 20 b4 06 20
        E 40 b4 06 06
        E 40 b4 06 06
        E 40 b4 06 07
        E 40 b4 06 07
        E 40 b4 06 07
        E 40 b4 06 07
        E 40 b4 06 08
        E 40 b4 06 08
        E 40 b4 06 08
        E 40 b4 06 09
        E 40 b4 06 09
        E 40 b4 06 09
        E 40 b4 06 09
        E 40 b4 06 0a
        E 40 b4 06 0a
        E 40 b4 06 0a
        E 40 b4 06 0a
        E 40 b4 06 0b
        E 40 b4 06 0b
        E 40 b4 06 0b
        E 40 b4 06 0b
        E 40 b4 06 0b
        E 40 b4 06 0c
        E 40 b4 06 0c
        E 40 b4 06 0c
        E 40 b4 06 0c
        E 40 b4 06 0c
        E 40 b4 06 0c
        E 40 b4 06 0c
        E 40 b4 06 0c
        E 40 b4 06 0c
        E 40 b4 06 0c
        E 40 b4 06 0c
        E 40 b4 06 0c
        E 40 b4 06 0c
        E 40 b4 06 0c
        E 40 b4 06 0c
        E 40 b4 06 0c
        E 40 b4 06 0c
        E 40 b4 06 0c
        E 40 b4 06 0c
        E 40 b4 06 0c
        E 40 b4 06 0b
        E 40 b4 06 0b
        E 40 b4 06 0b
        E 40 b4 06 0b
        E 40 b4 06 0b
        E 40 b4 06 0b
        E 40 b4 06 0a
        E 40 b4 06 0a
        E 40 b4 06 0a
        E 40 b4 06 0a
        E 40 b4 06 09
        E 40 b4 06 09
        E 40 b4 06 09
        E 40 b4 06 08
        E 40 b4 06 08
        E 40 b4 06 08
        E 40 b4 06 08
        E 40 b4 06 07
        E 40 b4 06 07
        E 40 b4 06 07
        E 40 b4 06 06
        E 40 b4 06 06
        E 40 b4 06 06
        E 40 b4 06 05
        E 40 b4 06 05
        E 40 b4 06 05
        E 40 b4 06 04
        E 40 b4 06 04
        E 40 b4 06 04
        E 40 b4 06 04
        E 40 b4 06 03
        E 40 b4 06 03
        E 40 b4 06 03
        E 40 b4 06 02
        E 40 b4 06 02
        E 40 b4 06 02
        E 40 b4 06 02
        E 40 b4 06 01
        E 40 b4 06 01
        E 40 b4 06 01
        E 40 b4 06 01
        E 40 b4 06 01
        E 40 b4 06 01
        E 40 b4 06 00
        E 40 b4 06 00
        E 40 b4 06 00
        E 40 b4 06 00
        E 40 b4 06 00
        E 40 b4 06 00
        E 40 b4 06 00
        E 40 b4 06 00
        E 40 b4 06 00
        E 40 b4 06 00
        E 40 b4 06 00
        E 40 b4 06 00
        E 40 b4 06 00
        E 40 b4 06 00
        E 40 b4 06 00
        E 40 b4 06 00
        E 40 b4 06 00
        E 40 b4 06 00
        E 40 b4 06 00
        E 40 b4 06 00
        E 40 b4 06 00
        E 40 b4 06 00
        E 40 b4 06 01
        E 40 b4 06 01
        E 40 b4 06 01
        E 40 b4 06 01
        E 40 b4 06 01
        E 40 b4 06 02
        E 40 b4 06 02
        E 40 b4 06 02
        E 40 b4 06 02
        E 40 b4 06 03
        E 40 b4 06 03
        E 40 b4 06 03
        E 40 b4 06 03
        E 40 b4 06 04
        E 40 b4 06 04
        E 40 b4 06 04
        E 40 b4 06 05
        E 40 b4 06 05
        E 40 b4 06 05
        E 40 b4 06 06
        E 40 b4 06 06
        E 40 b4 06 13
        E 40 b4 06 14
        E 40 b4 06 15
        E 40 b4 06 15
        E 40 b4 06 16
        E 40 b4 06 17
        E 40 b4 06 18
        E 40 b4 06 19
        E 40 b4 06 1a
        E 40 b4 06 1b
        E 40 b4 06 1c
        E 40 b4 06 1c
        E 40 b4 06 1d
        E 40 b4 06 1e
        E 40 b4 06 1f
        E 40 b4 06 1f
        E 40 b4 06 20
        E 40 b4 06 21
        E 40 b4 06 21
        E 40 b4 06 22
        E 40 b4 06 23
        E 40 b4 06 23
        E 40 b4 06 24
        E 40 b4 06 24
        E 40 b4 06 24
        E 40 b4 06 24
        E 40 b4 06 25
        E 40 b4 06 25
        E 40 b4 06 25
        E 40 b4 06 25
        E 40 b4 06 26
        E 40 b4 06 26
        E 40 b4 06 26
        E 40 b4 06 26
        E 40 b4 06 26
        E 40 b4 06 25
        E 40 b4 06 25
        E 40 b4 06 25
        E 40 b4 06 25
        E 40 b4 06 24
        E 40 b4 06 24
        E 40 b4 06 24
        E 40 b4 06 23
        E 40 b4 06 23
        E 40 b4 06 22
        E 40 b4 06 22
        E 40 b4 06 21
        E 40 b4 06 21
        E 40 b4 06 20
        E 40 b4 06 1f
        E 40 b4 06 1e
        E 40 b4 06 1e
        E 40 b4 06 1d
        E 40 b4 06 1c
        E 40 b4 06 1b
        E 40 b4 06 1a
        E 40 b4 06 1a
        E 40 b4 06 19
        E 40 b4 06 18
        E 40 b4 06 17
        E 40 b4 06 16
        E 40 b4 06 15
        E 40 b4 06 14
        E 40 b4 06 13
        E 40 b4 06 12
        E 40 b4 06 11
        E 40 b4 06 10
        E 40 b4 06 0f
        E 40 b4 06 0e
        E 40 b4 06 0d
        E 40 b4 06 0c
        E 40 b4 06 0c
        E 40 b4 06 0b
        E 40 b4 06 0a
        E 40 b4 06 09
        E 40 b4 06 08
        E 40 b4 06 08
        E 40 b4 06 07
        E 40 b4 06 06
        E 40 b4 06 05
        E 40 b4 06 05
        E 40 b4 06 04
        E 40 b4 06 03
        E 40 b4 06 03
        E 40 b4 06 03
        E 40 b4 06 02
        E 40 b4 06 02
        E 40 b4 06 01
        E 40 b4 06 01
        E 40 b4 06 00
        E 40 b4 06 00
        E 40 b4 06 00
        E 40 b4 06 00
        E 40 b4 06 00
        E 40 b4 06 00
        E 40 b4 06 00
        E 40 b4 06 00
        E 40 b4 06 00
        E 40 b4 06 00
        E 40 b4 06 00
        E 40 b4 06 00
        E 40 b4 06 00
        E 40 b4 06 01
        E 40 b4 06 01
        E 40 b4 06 01
        E 40 b4 06 02
        E 40 b4 06 02
        E 40 b4 06 03
        E 40 b4 06 03
        E 40 b4 06 04
        E 40 b4 06 04
        E 40 b4 06 05
        E 40 b4 06 06
        E 40 b4 06 06
        E 40 b4 06 07
        E 40 b4 06 08
        E 40 b4 06 09
        E 40 b4 06 09
        E 40 b4 06 0a
        E 40 b4 06 0b
        E 40 b4 06 0c
        E 40 b4 06 0d
        E 40 b4 06 0e
        E 40 b4 06 0f
        E 40 b4 06 10
        E 40 b4 06 11
        E 40 b4 06 12
        E 40 b4 06 13
        E 35 b4 06 39
        E 35 b4 06 3c
        E 35 b4 06 3f
        E 35 b4 06 41
        E 35 b4 06 44
        E 35 b4 06 47
        E 35 b4 06 49
        E 35 b4 06 4c
        E 35 b4 06 4f
        E 35 b4 06 51
        E 35 b4 06 54
        E 35 b4 06 56
        E 35 b4 06 59
        E 35 b4 06 5b
        E 35 b4 06 5d
        E 35 b4 06 5f
        E 35 b4 06 62
        E 35 b4 06 63
        E 35 b4 06 65
        E 35 b4 06 67
        E 35 b4 06 69
        E 35 b4 06 6a
        E 35 b4 06 6c
        E 35 b4 06 6c
        E 35 b4 06 6d
        E 35 b4 06 6e
        E 35 b4 06 6f
        E 35 b4 06 70
        E 35 b4 06 71
        E 35 b4 06 71
        E 35 b4 06 72
        E 35 b4 06 72
        E 35 b4 06 72
        E 35 b4 06 72
        E 35 b4 06 72
        E 35 b4 06 71
        E 35 b4 06 71
        E 35 b4 06 70
        E 35 b4 06 6f
        E 35 b4 06 6e
        E 35 b4 06 6d
        E 35 b4 06 6c
        E 35 b4 06 6b
        E 35 b4 06 69
        E 35 b4 06 68
        E 35 b4 06 66
        E 35 b4 06 64
        E 35 b4 06 63
        E 35 b4 06 61
        E 35 b4 06 5e
        E 35 b4 06 5c
        E 35 b4 06 5a
        E 35 b4 06 58
        E 35 b4 06 55
        E 35 b4 06 52
        E 35 b4 06 50
        E 35 b4 06 4e
        E 35 b4 06 4b
        E 35 b4 06 48
        E 35 b4 06 46
        E 35 b4 06 42
        E 35 b4 06 3f
        E 35 b4 06 3d
        E 35 b4 06 3a
        E 35 b4 06 37
        E 35 b4 06 35
        E 35 b4 06 32
        E 35 b4 06 2f
        E 35 b4 06 2c
        E 35 b4 06 29
        E 35 b4 06 26
        E 35 b4 06 24
        E 35 b4 06 22
        E 35 b4 06 1f
        E 35 b4 06 1c
        E 35 b4 06 1a
        E 35 b4 06 18
        E 35 b4 06 15
        E 35 b4 06 13
        E 35 b4 06 11
        E 35 b4 06 0f
        E 35 b4 06 0d
        E 35 b4 06 0b
        E 35 b4 06 09
        E 35 b4 06 09
        E 35 b4 06 07
        E 35 b4 06 06
        E 35 b4 06 04
        E 35 b4 06 03
        E 35 b4 06 02
        E 35 b4 06 01
        E 35 b4 06 00
        E 35 b4 06 00
        E 35 b4 06 00
        E 35 b4 06 00
        E 35 b4 06 00
        E 35 b4 06 00
        E 35 b4 06 00
        E 35 b4 06 00
        E 35 b4 06 00
        E 35 b4 06 01
        E 35 b4 06 02
        E 35 b4 06 03
        E 35 b4 06 04
        E 35 b4 06 05
        E 35 b4 06 06
        E 35 b4 06 08
        E 35 b4 06 09
        E 35 b4 06 0a
        E 35 b4 06 0c
        E 35 b4 06 0e
        E 35 b4 06 10
        E 35 b4 06 12
        E 35 b4 06 14
        E 35 b4 06 16
        E 35 b4 06 19
        E 35 b4 06 1b
        E 35 b4 06 1d
        E 35 b4 06 20
        E 35 b4 06 23
        E 35 b4 06 25
        E 35 b4 06 28
        E 35 b4 06 2b
        E 35 b4 06 2d
        E 35 b4 06 30
        E 35 b4 06 33
        E 35 b4 06 36
        E 35 b4 06 39
        E 20 b4 06 20
        E 20 b4 06 21
        E 20 b4 06 23
        E 20 b4 06 24
        E 20 b4 06 26
        E 20 b4 06 27
        E 20 b4 06 29
        E 20 b4 06 2a
        E 20 b4 06 2c
        E 20 b4 06 2d
        E 20 b4 06 2f
        E 20 b4 06 30
        E 20 b4 06 31
        E 20 b4 06 33
        E 20 b4 06 34
        E 20 b4 06 35
        E 20 b4 06 36
        E 20 b4 06 37
        E 20 b4 06 38
        E 20 b4 06 39
        E 20 b4 06 3a
        E 20 b4 06 3b
        E 20 b4 06 3c
        E 20 b4 06 3c
        E 20 b4 06 3d
        E 20 b4 06 3d
        E 20 b4 06 3e
        E 20 b4 06 3e
        E 20 b4 06 3f
        E 20 b4 06 3f
        E 20 b4 06 3f
        E 20 b4 06 3f
        E 20 b4 06 3f
        E 20 b4 06 3f
        E 20 b4 06 3f
        E 20 b4 06 3f
        E 20 b4 06 3f
        E 20 b4 06 3e
        E 20 b4 06 3e
        E 20 b4 06 3d
        E 20 b4 06 3d
        E 20 b4 06 3c
        E 20 b4 06 3b
        E 20 b4 06 3a
        E 20 b4 06 3a
        E 20 b4 06 39
        E 20 b4 06 38
        E 20 b4 06 37
        E 20 b4 06 36
        E 20 b4 06 34
        E 20 b4 06 33
        E 20 b4 06 32
        E 20 b4 06 31
        E 20 b4 06 2f
        E 20 b4 06 2e
        E 20 b4 06 2c
        E 20 b4 06 2b
        E 20 b4 06 2a
        E 20 b4 06 28
        E 20 b4 06 27
        E 20 b4 06 25
        E 20 b4 06 23
        E 20 b4 06 22
        E 20 b4 06 20
        E 20 b4 06 1f
        E 20 b4 06 1d
        E 20 b4 06 1c
        E 20 b4 06 1a
        E 20 b4 06 18
        E 20 b4 06 17
        E 20 b4 06 15
        E 20 b4 06 14
        E 20 b4 06 13
        E 20 b4 06 11
        E 20 b4 06 10
        E 20 b4 06 0e
        E 20 b4 06 0d
        E 20 b4 06 0c
        E 20 b4 06 0b
        E 20 b4 06 09
        E 20 b4 06 08
        E 20 b4 06 07
        E 20 b4 06 06
        E 20 b4 06 05
        E 20 b4 06 05
        E 20 b4 06 04
        E 20 b4 06 03
        E 20 b4 06 02
        E 20 b4 06 02
        E 20 b4 06 01
        E 20 b4 06 01
        E 20 b4 06 00
        E 20 b4 06 00
        E 20 b4 06 00
        E 20 b4 06 00
        E 20 b4 06 00
        E 20 b4 06 00
        E 20 b4 06 00
        E 20 b4 06 00
        E 20 b4 06 00
        E 20 b4 06 01
        E 20 b4 06 01
        E 20 b4 06 02
        E 20 b4 06 02
        E 20 b4 06 03
        E 20 b4 06 03
        E 20 b4 06 04
        E 20 b4 06 05
        E 20 b4 06 06
        E 20 b4 06 07
        E 20 b4 06 08
        E 20 b4 06 09
        E 20 b4 06 0a
        E 20 b4 06 0b
        E 20 b4 06 0c
        E 20 b4 06 0e
        E 20 b4 06 0f
        E 20 b4 06 10
        E 20 b4 06 12
        E 20 b4 06 13
        E 20 b4 06 15
        E 20 b4 06 16
        E 20 b4 06 18
        E 20 b4 06 19
        E 20 b4 06 1b
        E 20 b4 06 1c
        E 20 b4 06 1e
        E 20 b4 06 20
        E 40 b4 06 06
        E 40 b4 06 06
        E 40 b4 06 07
        E 40 b4 06 07
        E 40 b4 06 07
        E 40 b4 06 07
        E 40 b4 06 08
        E 40 b4 06 08
        E 40 b4 06 08
        E 40 b4 06 09
        E 40 b4 06 09
        E 40 b4 06 09
        E 40 b4 06 09
        E 40 b4 06 0a
        E 40 b4 06 0a
        E 40 b4 06 0a
        E 40 b4 06 0a
        E 40 b4 06 0b
        E 40 b4 06 0b
        E 40 b4 06 0b
        E 40 b4 06 0b
        E 40 b4 06 0b
        E 40 b4 06 0c
        E 40 b4 06 0c
        E 40 b4 06 0c
        E 40 b4 06 0c
        E 40 b4 06 0c
        E 40 b4 06 0c
        E 40 b4 06 0c
        E 40 b4 06 0c
        E 40 b4 06 0c
        E 40 b4 06 0c
        E 40 b4 06 0c
        E 40 b4 06 0c
        E 40 b4 06 0c
        E 40 b4 06 0c
        E 40 b4 06 0c
        E 40 b4 06 0c
        E 40 b4 06 0c
        E 40 b4 06 0c
        E 40 b4 06 0c
        E 40 b4 06 0c
        E 40 b4 06 0b
        E 40 b4 06 0b
        E 40 b4 06 0b
        E 40 b4 06 0b
        E 40 b4 06 0b
        E 40 b4 06 0b
        E 40 b4 06 0a
        E 40 b4 06 0a
        E 40 b4 06 0a
        E 40 b4 06 0a
        E 40 b4 06 09
        E 40 b4 06 09
        E 40 b4 06 09
        E 40 b4 06 08
        E 40 b4 06 08
        E 40 b4 06 08
        E 40 b4 06 08
        E 40 b4 06 07
        E 40 b4 06 07
        E 40 b4 06 07
        E 40 b4 06 06
        E 40 b4 06 06
        E 40 b4 06 06
        E 40 b4 06 05
        E 40 b4 06 05
        E 40 b4 06 05
        E 40 b4 06 04
        E 40 b4 06 04
        E 40 b4 06 04
        E 40 b4 06 04
        E 40 b4 06 03
        E 40 b4 06 03
        E 40 b4 06 03
        E 40 b4 06 02
        E 40 b4 06 02
        E 40 b4 06 02
        E 40 b4 06 02
        E 40 b4 06 01
        E 40 b4 06 01
        E 40 b4 06 01
        E 40 b4 06 01
        E 40 b4 06 01
        E 40 b4 06 01
        E 40 b4 06 00
        E 40 b4 06 00
        E 40 b4 06 00
        E 40 b4 06 00
        E 40 b4 06 00
        E 40 b4 06 00
        E 40 b4 06 00
        E 40 b4 06 00
        E 40 b4 06 00
        E 40 b4 06 00
        E 40 b4 06 00
        E 40 b4 06 00
        E 40 b4 06 00
        E 40 b4 06 00
        E 40 b4 06 00
        E 40 b4 06 00
        E 40 b4 06 00
        E 40 b4 06 00
        E 40 b4 06 00
        E 40 b4 06 00
        E 40 b4 06 00
        E 40 b4 06 00
        E 40 b4 06 01
        E 40 b4 06 01
        E 40 b4 06 01
        E 40 b4 06 01
        E 40 b4 06 01
        E 40 b4 06 02
        E 40 b4 06 02
        E 40 b4 06 02
        E 40 b4 06 02
        E 40 b4 06 03
        E 40 b4 06 03
        E 40 b4 06 03
        E 40 b4 06 03
        E 40 b4 06 04
        E 40 b4 06 04
        E 40 b4 06 04
        E 40 b4 06 05
        E 40 b4 06 05
        E 40 b4 06 05
        E 40 b4 06 06
        E 40 b4 06 06
        E 40 b4 06 13
        E 40 b4 06 14
        E 40 b4 06 15
        E 40 b4 06 15
        E 40 b4 06 16
        E 40 b4 06 17
        E 40 b4 06 18
        E 40 b4 06 19
        E 40 b4 06 1a
        E 40 b4 06 1b
        E 40 b4 06 1c
        E 40 b4 06 1c
        E 40 b4 06 1d
        E 40 b4 06 1e
        E 40 b4 06 1f
        E 40 b4 06 1f
        E 40 b4 06 20
        E 40 b4 06 21
        E 40 b4 06 21
        E 40 b4 06 22
        E 40 b4 06 23
        E 40 b4 06 23
        E 40 b4 06 24
        E 40 b4 06 24
        E 40 b4 06 24
        E 40 b4 06 24
        E 40 b4 06 25
        E 40 b4 06 25
        E 40 b4 06 25
        E 40 b4 06 25
        E 40 b4 06 26
        E 40 b4 06 26
        E 40 b4 06 26
        E 40 b4 06 26
        E 40 b4 06 26
        E 40 b4 06 25
        E 40 b4 06 25
        E 40 b4 06 25
        E 40 b4 06 25
        E 40 b4 06 24
        E 40 b4 06 24
        E 40 b4 06 24
        E 40 b4 06 23
        E 40 b4 06 23
        E 40 b4 06 22
        E 40 b4 06 22
        E 40 b4 06 21
        E 40 b4 06 21
        E 40 b4 06 20
        E 40 b4 06 1f
        E 40 b4 06 1e
        E 40 b4 06 1e
        E 40 b4 06 1d
        E 40 b4 06 1c
        E 40 b4 06 1b
        E 40 b4 06 1a
        E 40 b4 06 1a
        E 40 b4 06 19
        E 40 b4 06 18
        E 40 b4 06 17
        E 40 b4 06 16
        E 40 b4 06 15
        E 40 b4 06 14
        E 40 b4 06 13
        E 40 b4 06 12
        E 40 b4 06 11
        E 40 b4 06 10
        E 40 b4 06 0f
        E 40 b4 06 0e
        E 40 b4 06 0d
        E 40 b4 06 0c
        E 40 b4 06 0c
        E 40 b4 06 0b
        E 40 b4 06 0a
        E 40 b4 06 09
        E 40 b4 06 08
        E 40 b4 06 08
        E 40 b4 06 07
        E 40 b4 06 06
        E 40 b4 06 05
        E 40 b4 06 05
        E 40 b4 06 04
        E 40 b4 06 03
        E 40 b4 06 03
        E 40 b4 06 03
        E 40 b4 06 02
        E 40 b4 06 02
        E 40 b4 06 01
        E 40 b4 06 01
        E 40 b4 06 00
        E 40 b4 06 00
        E 40 b4 06 00
        E 40 b4 06 00
        E 40 b4 06 00
        E 40 b4 06 00
        E 40 b4 06 00
        E 40 b4 06 00
        E 40 b4 06 00
        E 40 b4 06 00
        E 40 b4 06 00
        E 40 b4 06 00
        E 40 b4 06 00
        E 40 b4 06 01
        E 40 b4 06 01
        E 40 b4 06 01
        E 40 b4 06 02
        E 40 b4 06 02
        E 40 b4 06 03
        E 40 b4 06 03
        E 40 b4 06 04
        E 40 b4 06 04
        E 40 b4 06 05
        E 40 b4 06 06
        E 40 b4 06 06
        E 40 b4 06 07
        E 40 b4 06 08
        E 40 b4 06 09
        E 40 b4 06 09
        E 40 b4 06 0a
        E 40 b4 06 0b
        E 40 b4 06 0c
        E 40 b4 06 0d
        E 40 b4 06 0e
        E 40 b4 06 0f
        E 40 b4 06 10
        E 40 b4 06 11
        E 40 b4 06 12
        E 40 b4 06 13
        E 35 b4 06 39
        E 35 b4 06 3c
        E 35 b4 06 3f
        E 35 b4 06 41
        E 35 b4 06 44
        E 35 b4 06 47
        E 35 b4 06 49
        E 35 b4 06 4c
        E 35 b4 06 4f
        E 35 b4 06 51
        E 35 b4 06 54
        E 35 b4 06 56
        E 35 b4 06 59
        E 35 b4 06 5b
        E 35 b4 06 5d
        E 35 b4 06 5f
        E 35 b4 06 62
        E 35 b4 06 63
        E 35 b4 06 65
        E 35 b4 06 67
        E 35 b4 06 69
        E 35 b4 06 6a
        E 35 b4 06 6c
        E 35 b4 06 6c
        E 35 b4 06 6d
        E 35 b4 06 6e
        E 35 b4 06 6f
        E 35 b4 06 70
        E 35 b4 06 71
        E 35 b4 06 71
        E 35 b4 06 72
        E 35 b4 06 72
        E 35 b4 06 72
        E 35 b4 06 72
        E 35 b4 06 72
        E 35 b4 06 71
        E 35 b4 06 71
        E 35 b4 06 70
        E 35 b4 06 6f
        E 35 b4 06 6e
        E 35 b4 06 6d
        E 35 b4 06 6c
        E 35 b4 06 6b
        E 35 b4 06 69
        E 35 b4 06 68
        E 35 b4 06 66
        E 35 b4 06 64
        E 35 b4 06 63
        E 35 b4 06 61
        E 35 b4 06 5e
        E 35 b4 06 5c
        E 35 b4 06 5a
        E 35 b4 06 58
        E 35 b4 06 55
        E 35 b4 06 52
        E 35 b4 06 50
        E 35 b4 06 4e
        E 35 b4 06 4b
        E 35 b4 06 48
        E 35 b4 06 46
        E 35 b4 06 42
        E 35 b4 06 3f
        E 35 b4 06 3d
        E 35 b4 06 3a
        E 35 b4 06 37
        E 35 b4 06 35
        E 35 b4 06 32
        E 35 b4 06 2f
        E 35 b4 06 2c
        E 35 b4 06 29
        E 35 b4 06 26
        E 35 b4 06 24
        E 35 b4 06 22
        E 35 b4 06 1f
        E 35 b4 06 1c
        E 35 b4 06 1a
        E 35 b4 06 18
        E 35 b4 06 15
        E 35 b4 06 13
        E 35 b4 06 11
        E 35 b4 06 0f
        E 35 b4 06 0d
        E 35 b4 06 0b
        E 35 b4 06 09
        E 35 b4 06 09
        E 35 b4 06 07
        E 35 b4 06 06
        E 35 b4 06 04
        E 35 b4 06 03
        E 35 b4 06 02
        E 35 b4 06 01
        E 35 b4 06 00
        E 35 b4 06 00
        E 35 b4 06 00
        E 35 b4 06 00
        E 35 b4 06 00
        E 35 b4 06 00
        E 35 b4 06 00
        E 35 b4 06 00
        E 35 b4 06 00
        E 35 b4 06 01
        E 35 b4 06 02
        E 35 b4 06 03
        E 35 b4 06 04
        E 35 b4 06 05
        E 35 b4 06 06
        E 35 b4 06 08
        E 35 b4 06 09
        E 35 b4 06 0a
        E 35 b4 06 0c
        E 35 b4 06 0e
        E 35 b4 06 10
        E 35 b4 06 12
        E 35 b4 06 14
        E 35 b4 06 16
        E 35 b4 06 19
        E 35 b4 06 1b
        E 35 b4 06 1d
        E 35 b4 06 20
        E 35 b4 06 23
        E 35 b4 06 25
        E 35 b4 06 28
        E 35 b4 06 2b
        E 35 b4 06 2d
        E 35 b4 06 30
        E 35 b4 06 33
        E 35 b4 06 36
        E 35 b4 06 39
        E 20 b4 06 20
        E 20 b4 06 21
        E 20 b4 06 23
        E 20 b4 06 24
        E 20 b4 06 26
        E 20 b4 06 27
        E 20 b4 06 29
        E 20 b4 06 2a
        E 20 b4 06 2c
        E 20 b4 06 2d
        E 20 b4 06 2f
        E 20 b4 06 30
        E 20 b4 06 31
        E 20 b4 06 33
        E 20 b4 06 34
        E 20 b4 06 35
        E 20 b4 06 36
        E 20 b4 06 37
        E 20 b4 06 38
        E 20 b4 06 39
        E 20 b4 06 3a
        E 20 b4 06 3b
        E 20 b4 06 3c
        E 20 b4 06 3c
        E 20 b4 06 3d
        E 20 b4 06 3d
        E 20 b4 06 3e
        E 20 b4 06 3e
        E 20 b4 06 3f
        E 20 b4 06 3f
        E 20 b4 06 3f
        E 20 b4 06 3f
        E 20 b4 06 3f
        E 20 b4 06 3f
        E 20 b4 06 3f
        E 20 b4 06 3f
        E 20 b4 06 3f
        E 20 b4 06 3e
        E 20 b4 06 3e
        E 20 b4 06 3d
        E 20 b4 06 3d
        E 20 b4 06 3c
        E 20 b4 06 3b
        E 20 b4 06 3a
        E 20 b4 06 3a
        E 20 b4 06 39
        E 20 b4 06 38
        E 20 b4 06 37
        E 20 b4 06 36
        E 20 b4 06 34
        E 20 b4 06 33
        E 20 b4 06 32
        E 20 b4 06 31
        E 20 b4 06 2f
        E 20 b4 06 2e
        E 20 b4 06 2c
        E 20 b4 06 2b
        E 20 b4 06 2a
        E 20 b4 06 28
        E 20 b4 06 27
        E 20 b4 06 25
        E 20 b4 06 23
        E 20 b4 06 22
        E 20 b4 06 20
        E 20 b4 06 1f
        E 20 b4 06 1d
        E 20 b4 06 1c
        E 20 b4 06 1a
        E 20 b4 06 18
        E 20 b4 06 17
        E 20 b4 06 15
        E 20 b4 06 14
        E 20 b4 06 13
        E 20 b4 06 11
        E 20 b4 06 10
        E 20 b4 06 0e
        E 20 b4 06 0d
        E 20 b4 06 0c
        E 20 b4 06 0b
        E 20 b4 06 09
        E 20 b4 06 08
        E 20 b4 06 07
        E 20 b4 06 06
        E 20 b4 06 05
        E 20 b4 06 05
        E 20 b4 06 04
        E 20 b4 06 03
        E 20 b4 06 02
        E 20 b4 06 02
        E 20 b4 06 01
        E 20 b4 06 01
        E 20 b4 06 00
        E 20 b4 06 00
        E 20 b4 06 00
        E 20 b4 06 00
        E 20 b4 06 00
        E 20 b4 06 00
        E 20 b4 06 00
        E 20 b4 06 00
        E 20 b4 06 00
        E 20 b4 06 01
        E 20 b4 06 01
        E 20 b4 06 02
        E 20 b4 06 02
        E 20 b4 06 03
        E 20 b4 06 03
        E 20 b4 06 04
        E 20 b4 06 05
        E 20 b4 06 06
        E 20 b4 06 07
        E 20 b4 06 08
        E 20 b4 06 09
        E 20 b4 06 0a
        E 20 b4 06 0b
        E 20 b4 06 0c
        E 20 b4 06 0e
        E 20 b4 06 0f
        E 20 b4 06 10
        E 20 b4 06 12
        E 20 b4 06 13
        E 20 b4 06 15
        E 20 b4 06 16
        E 20 b4 06 18
        E 20 b4 06 19
        E 20 b4 06 1b
        E 20 b4 06 1c
        E 20 b4 06 1e
        E 20 b4 06 20
        E 40 b4 06 06
        E 40 b4 06 06
        E 40 b4 06 07
        E 40 b4 06 07
        E 40 b4 06 07
        E 40 b4 06 07
        E 40 b4 06 08
        E 40 b4 06 08
        E 40 b4 06 08
        E 40 b4 06 09
        E 40 b4 06 09
        E 40 b4 06 09
        E 40 b4 06 09
        E 40 b4 06 0a
        E 40 b4 06 0a
        E 40 b4 06 0a
        E 40 b4 06 0a
        E 40 b4 06 0b
        E 40 b4 06 0b
        E 40 b4 06 0b
        E 40 b4 06 0b
        E 40 b4 06 0b
        E 40 b4 06 0c
        E 40 b4 06 0c
        E 40 b4 06 0c
        E 40 b4 06 0c
        E 40 b4 06 0c
        E 40 b4 06 0c
        E 40 b4 06 0c
        E 40 b4 06 0c
        E 40 b4 06 0c
        E 40 b4 06 0c
        E 40 b4 06 0c
        E 40 b4 06 0c
        E 40 b4 06 0c
        E 40 b4 06 0c
        E 40 b4 06 0c
        E 40 b4 06 0c
        E 40 b4 06 0c
        E 40 b4 06 0c
        E 40 b4 06 0c
        E 40 b4 06 0c
        E 40 b4 06 0b
        E 40 b4 06 0b
        E 40 b4 06 0b
        E 40 b4 06 0b
        E 40 b4 06 0b
        E 40 b4 06 0b
        E 40 b4 06 0a
        E 40 b4 06 0a
        E 40 b4 06 0a
        E 40 b4 06 0a
        E 40 b4 06 09
        E 40 b4 06 09
        E 40 b4 06 09
        E 40 b4 06 08
        E 40 b4 06 08
        E 40 b4 06 08
        E 40 b4 06 08
        E 40 b4 06 07
        E 40 b4 06 07
        E 40 b4 06 07
        E 40 b4 06 06
        E 40 b4 06 06
        E 40 b4 06 06
        E 40 b4 06 05
        E 40 b4 06 05
        E 40 b4 06 05
        E 40 b4 06 04
        E 40 b4 06 04
        E 40 b4 06 04
        E 40 b4 06 04
        E 40 b4 06 03
        E 40 b4 06 03
        E 40 b4 06 03
        E 40 b4 06 02
        E 40 b4 06 02
        E 40 b4 06 02
        E 40 b4 06 02
        E 40 b4 06 01
        E 40 b4 06 01
        E 40 b4 06 01
        E 40 b4 06 01
        E 40 b4 06 01
        E 40 b4 06 01
        E 40 b4 06 00
        E 40 b4 06 00
        E 40 b4 06 00
        E 40 b4 06 00
        E 40 b4 06 00
        E 40 b4 06 00
        E 40 b4 06 00
        E 40 b4 06 00
        E 40 b4 06 00
        E 40 b4 06 00
        E 40 b4 06 00
        E 40 b4 06 00
        E 40 b4 06 00
        E 40 b4 06 00
        E 40 b4 06 00
        E 40 b4 06 00
        E 40 b4 06 00
        E 40 b4 06 00
        E 40 b4 06 00
        E 40 b4 06 00
        E 40 b4 06 00
        E 40 b4 06 00
        E 40 b4 06 01
        E 40 b4 06 01
        E 40 b4 06 01
        E 40 b4 06 01
        E 40 b4 06 01
        E 40 b4 06 02
        E 40 b4 06 02
        E 40 b4 06 02
        E 40 b4 06 02
        E 40 b4 06 03
        E 40 b4 06 03
        E 40 b4 06 03
        E 40 b4 06 03
        E 40 b4 06 04
        E 40 b4 06 04
        E 40 b4 06 04
        E 40 b4 06 05
        E 40 b4 06 05
        E 40 b4 06 05
        E 40 b4 06 06
        E 40 b4 06 06
        E 40 b4 06 13
        E 40 b4 06 14
        E 40 b4 06 15
        E 40 b4 06 15
        E 40 b4 06 16
        E 40 b4 06 17
        E 40 b4 06 18
        E 40 b4 06 19
        E 40 b4 06 1a
        E 40 b4 06 1b
        E 40 b4 06 1c
        E 40 b4 06 1c
        E 40 b4 06 1d
        E 40 b4 06 1e
        E 40 b4 06 1f
        E 40 b4 06 1f
        E 40 b4 06 20
        E 40 b4 06 21
        E 40 b4 06 21
        E 40 b4 06 22
        E 40 b4 06 23
        E 40 b4 06 23
        E 40 b4 06 24
        E 40 b4 06 24
        E 40 b4 06 24
        E 40 b4 06 24
        E 40 b4 06 25
        E 40 b4 06 25
        E 40 b4 06 25
        E 40 b4 06 25
        E 40 b4 06 26
        E 40 b4 06 26
        E 40 b4 06 26
        E 40 b4 06 26
        E 40 b4 06 26
        E 40 b4 06 25
        E 40 b4 06 25
        E 40 b4 06 25
        E 40 b4 06 25
        E 40 b4 06 24
        E 40 b4 06 24
        E 40 b4 06 24
        E 40 b4 06 23
        E 40 b4 06 23
        E 40 b4 06 22
        E 40 b4 06 22
        E 40 b4 06 21
        E 40 b4 06 21
        E 40 b4 06 20
        E 40 b4 06 1f
        E 40 b4 06 1e
        E 40 b4 06 1e
        E 40 b4 06 1d
        E 40 b4 06 1c
        E 40 b4 06 1b
        E 40 b4 06 1a
        E 40 b4 06 1a
        E 40 b4 06 19
        E 40 b4 06 18
        E 40 b4 06 17
        E 40 b4 06 16
        E 40 b4 06 15
        E 40 b4 06 14
        E 40 b4 06 13
        E 40 b4 06 12
        E 40 b4 06 11
        E 40 b4 06 10
        E 40 b4 06 0f
        E 40 b4 06 0e
        E 40 b4 06 0d
        E 40 b4 06 0c
        E 40 b4 06 0c
        E 40 b4 06 0b
        E 40 b4 06 0a
        E 40 b4 06 09
        E 40 b4 06 08
        E 40 b4 06 08
        E 40 b4 06 07
        E 40 b4 06 06
        E 40 b4 06 05
        E 40 b4 06 05
        E 40 b4 06 04
        E 40 b4 06 03
        E 40 b4 06 03
        E 40 b4 06 03
        E 40 b4 06 02
        E 40 b4 06 02
        E 40 b4 06 01
        E 40 b4 06 01
        E 40 b4 06 00
        E 40 b4 06 00
        E 40 b4 06 00
        E 40 b4 06 00
        E 40 b4 06 00
        E 40 b4 06 00
        E 40 b4 06 00
        E 40 b4 06 00
        E 40 b4 06 00
        E 40 b4 06 00
        E 40 b4 06 00
        E 40 b4 06 00
        E 40 b4 06 00
        E 40 b4 06 01
        E 40 b4 06 01
        E 40 b4 06 01
        E 40 b4 06 02
        E 40 b4 06 02
        E 40 b4 06 03
        E 40 b4 06 03
        E 40 b4 06 04
        E 40 b4 06 04
        E 40 b4 06 05
        E 40 b4 06 06
        E 40 b4 06 06
        E 40 b4 06 07
        E 40 b4 06 08
        E 40 b4 06 09
        E 40 b4 06 09
        E 40 b4 06 0a
        E 40 b4 06 0b
        E 40 b4 06 0c
        E 40 b4 06 0d
        E 40 b4 06 0e
        E 40 b4 06 0f
        E 40 b4 06 10
        E 40 b4 06 11
        E 40 b4 06 12
        E 40 b4 06 13
        E 35 b4 06 39
        E 35 b4 06 3c
        E 35 b4 06 3f
        E 35 b4 06 41
        E 35 b4 06 44
        E 35 b4 06 47
        E 35 b4 06 49
        E 35 b4 06 4c
        E 35 b4 06 4f
        E 35 b4 06 51
        E 35 b4 06 54
        E 35 b4 06 56
        E 35 b4 06 59
        E 35 b4 06 5b
        E 35 b4 06 5d
        E 35 b4 06 5f
        E 35 b4 06 62
        E 35 b4 06 63
        E 35 b4 06 65
        E 35 b4 06 67
        E 35 b4 06 69
        E 35 b4 06 6a
        E 35 b4 06 6c
        E 35 b4 06 6c
        E 35 b4 06 6d
        E 35 b4 06 6e
        E 35 b4 06 6f
        E 35 b4 06 70
        E 35 b4 06 71
        E 35 b4 06 71
        E 35 b4 06 72
        E 35 b4 06 72
        E 35 b4 06 72
        E 35 b4 06 72
        E 35 b4 06 72
        E 35 b4 06 71
        E 35 b4 06 71
        E 35 b4 06 70
        E 35 b4 06 6f
        E 35 b4 06 6e
        E 35 b4 06 6d
        E 35 b4 06 6c
        E 35 b4 06 6b
        E 35 b4 06 69
        E 35 b4 06 68
        E 35 b4 06 66
        E 35 b4 06 64
        E 35 b4 06 63
        E 35 b4 06 61
        E 35 b4 06 5e
        E 35 b4 06 5c
        E 35 b4 06 5a
        E 35 b4 06 58
        E 35 b4 06 55
        E 35 b4 06 52
        E 35 b4 06 50
        E 35 b4 06 4e
        E 35 b4 06 4b
        E 35 b4 06 48
        E 35 b4 06 46
        E 35 b4 06 42
        E 35 b4 06 3f
        E 35 b4 06 3d
        E 35 b4 06 3a
        E 35 b4 06 37
        E 35 b4 06 35
        E 35 b4 06 32
        E 35 b4 06 2f
        E 35 b4 06 2c
        E 35 b4 06 29
        E 35 b4 06 26
        E 35 b4 06 24
        E 35 b4 06 22
        E 35 b4 06 1f
        E 35 b4 06 1c
        E 35 b4 06 1a
        E 35 b4 06 18
        E 35 b4 06 15
        E 35 b4 06 13
        E 35 b4 06 11
        E 35 b4 06 0f
        E 35 b4 06 0d
        E 35 b4 06 0b
        E 35 b4 06 09
        E 35 b4 06 09
        E 35 b4 06 07
        E 35 b4 06 06
        E 35 b4 06 04
        E 35 b4 06 03
        E 35 b4 06 02
        E 35 b4 06 01
        E 35 b4 06 00
        E 35 b4 06 00
        E 35 b4 06 00
        E 35 b4 06 00
        E 35 b4 06 00
        E 35 b4 06 00
        E 35 b4 06 00
        E 35 b4 06 00
        E 35 b4 06 00
        E 35 b4 06 01
        E 35 b4 06 02
        E 35 b4 06 03
        E 35 b4 06 04
        E 35 b4 06 05
        E 35 b4 06 06
        E 35 b4 06 08
        E 35 b4 06 09
        E 35 b4 06 0a
        E 35 b4 06 0c
        E 35 b4 06 0e
        E 35 b4 06 10
        E 35 b4 06 12
        E 35 b4 06 14
        E 35 b4 06 16
        E 35 b4 06 19
        E 35 b4 06 1b
        E 35 b4 06 1d
        E 35 b4 06 20
        E 35 b4 06 23
        E 35 b4 06 25
        E 35 b4 06 28
        E 35 b4 06 2b
        E 35 b4 06 2d
        E 35 b4 06 30
        E 35 b4 06 33
        E 35 b4 06 36
        E 35 b4 06 39
        E 20 b4 06 20
        E 20 b4 06 21
        E 20 b4 06 23
        E 20 b4 06 24
        E 20 b4 06 26
        E 20 b4 06 27
        E 20 b4 06 29
        E 20 b4 06 2a
        E 20 b4 06 2c
        E 20 b4 06 2d
        E 20 b4 06 2f
        E 20 b4 06 30
        E 20 b4 06 31
        E 20 b4 06 33
        E 20 b4 06 34
        E 20 b4 06 35
        E 20 b4 06 36
        E 20 b4 06 37
        E 20 b4 06 38
        E 20 b4 06 39
        E 20 b4 06 3a
        E 20 b4 06 3b
        E 20 b4 06 3c
        E 20 b4 06 3c
        E 20 b4 06 3d
        E 20 b4 06 3d
        E 20 b4 06 3e
        E 20 b4 06 3e
        E 20 b4 06 3f
        E 20 b4 06 3f
        E 20 b4 06 3f
        E 20 b4 06 3f
        E 20 b4 06 3f
        E 20 b4 06 3f
        E 20 b4 06 3f
        E 20 b4 06 3f
        E 20 b4 06 3f
        E 20 b4 06 3e
        E 20 b4 06 3e
        E 20 b4 06 3d
        E 20 b4 06 3d
        E 20 b4 06 3c
        E 20 b4 06 3b
        E 20 b4 06 3a
        E 20 b4 06 3a
        E 20 b4 06 39
        E 20 b4 06 38
        E 20 b4 06 37
        E 20 b4 06 36
        E 20 b4 06 34
        E 20 b4 06 33
        E 20 b4 06 32
        E 20 b4 06 31
        E 20 b4 06 2f
        E 20 b4 06 2e
        E 20 b4 06 2c
        E 20 b4 06 2b
        E 20 b4 06 2a
        E 20 b4 06 28
        E 20 b4 06 27
        E 20 b4 06 25
        E 20 b4 06 23
        E 20 b4 06 22
        E 20 b4 06 20
        E 20 b4 06 1f
        E 20 b4 06 1d
        E 20 b4 06 1c
        E 20 b4 06 1a
        E 20 b4 06 18
        E 20 b4 06 17
        E 20 b4 06 15
        E 20 b4 06 14
        E 20 b4 06 13
        E 20 b4 06 11
        E 20 b4 06 10
        E 20 b4 06 0e
        E 20 b4 06 0d
        E 20 b4 06 0c
        E 20 b4 06 0b
        E 20 b4 06 09
        E 20 b4 06 08
        E 20 b4 06 07
        E 20 b4 06 06
        E 20 b4 06 05
        E 20 b4 06 05
        E 20 b4 06 04
        E 20 b4 06 03
        E 20 b4 06 02
        E 20 b4 06 02
        E 20 b4 06 01
        E 20 b4 06 01
        E 20 b4 06 00
        E 20 b4 06 00
        E 20 b4 06 00
        E 20 b4 06 00
        E 20 b4 06 00
        E 20 b4 06 00
        E 20 b4 06 00
        E 20 b4 06 00
        E 20 b4 06 00
        E 20 b4 06 01
        E 20 b4 06 01
        E 20 b4 06 02
        E 20 b4 06 02
        E 20 b4 06 03
        E 20 b4 06 03
        E 20 b4 06 04
        E 20 b4 06 05
        E 20 b4 06 06
        E 20 b4 06 07
        E 20 b4 06 08
        E 20 b4 06 09
        E 20 b4 06 0a
        E 20 b4 06 0b
        E 20 b4 06 0c
        E 20 b4 06 0e
        E 20 b4 06 0f
        E 20 b4 06 10
        E 20 b4 06 12
        E 20 b4 06 13
        E 20 b4 06 15
        E 20 b4 06 16
        E 20 b4 06 18
        E 20 b4 06 19
        E 20 b4 06 1b
        E 20 b4 06 1c
        E 20 b4 06 1e
        E 20 b4 06 20
        E 40 b4 06 06
        E 40 b4 06 06
        E 40 b4 06 07
        E 40 b4 06 07
        E 40 b4 06 07
        E 40 b4 06 07
        E 40 b4 06 08
        E 40 b4 06 08
        E 40 b4 06 08
        E 40 b4 06 09
        E 40 b4 06 09
        E 40 b4 06 09
        E 40 b4 06 09
        E 40 b4 06 0a
        E 40 b4 06 0a
        E 40 b4 06 0a
        E 40 b4 06 0a
        E 40 b4 06 0b
        E 40 b4 06 0b
        E 40 b4 06 0b
        E 40 b4 06 0b
        E 40 b4 06 0b
        E 40 b4 06 0c
        E 40 b4 06 0c
        E 40 b4 06 0c
        E 40 b4 06 0c
        E 40 b4 06 0c
        E 40 b4 06 0c
        E 40 b4 06 0c
        E 40 b4 06 0c
        E 40 b4 06 0c
        E 40 b4 06 0c
        E 40 b4 06 0c
        E 40 b4 06 0c
        E 40 b4 06 0c
        E 40 b4 06 0c
        E 40 b4 06 0c
        E 40 b4 06 0c
        E 40 b4 06 0c
        E 40 b4 06 0c
        E 40 b4 06 0c
        E 40 b4 06 0c
        E 40 b4 06 0b
        E 40 b4 06 0b
        E 40 b4 06 0b
        E 40 b4 06 0b
        E 40 b4 06 0b
        E 40 b4 06 0b
        E 40 b4 06 0a
        E 40 b4 06 0a
        E 40 b4 06 0a
        E 40 b4 06 0a
        E 40 b4 06 09
        E 40 b4 06 09
        E 40 b4 06 09
        E 40 b4 06 08
        E 40 b4 06 08
        E 40 b4 06 08
        E 40 b4 06 08
        E 40 b4 06 07
        E 40 b4 06 07
        E 40 b4 06 07
        E 40 b4 06 06
        E 40 b4 06 06
        E 40 b4 06 06
        E 40 b4 06 05
        E 40 b4 06 05
        E 40 b4 06 05
        E 40 b4 06 04
        E 40 b4 06 04
        E 40 b4 06 04
        E 40 b4 06 04
        E 40 b4 06 03
        E 40 b4 06 03
        E 40 b4 06 03
        E 40 b4 06 02
        E 40 b4 06 02
        E 40 b4 06 02
        E 40 b4 06 02
        E 40 b4 06 01
        E 40 b4 06 01
        E 40 b4 06 01
        E 40 b4 06 01
        E 40 b4 06 01
        E 40 b4 06 01
        E 40 b4 06 00
        E 40 b4 06 00
        E 40 b4 06 00
        E 40 b4 06 00
        E 40 b4 06 00
        E 40 b4 06 00
        E 40 b4 06 00
        E 40 b4 06 00
        E 40 b4 06 00
        E 40 b4 06 00
        E 40 b4 06 00
        E 40 b4 06 00
        E 40 b4 06 00
        E 40 b4 06 00
        E 40 b4 06 00
        E 40 b4 06 00
        E 40 b4 06 00
        E 40 b4 06 00
        E 40 b4 06 00
        E 40 b4 06 00
        E 40 b4 06 00
        E 40 b4 06 00
        E 40 b4 06 01
        E 40 b4 06 01
        E 40 b4 06 01
        E 40 b4 06 01
        E 40 b4 06 01
        E 40 b4 06 02
        E 40 b4 06 02
        E 40 b4 06 02
        E 40 b4 06 02
        E 40 b4 06 03
        E 40 b4 06 03
        E 40 b4 06 03
        E 40 b4 06 03
        E 40 b4 06 04
        E 40 b4 06 04
        E 40 b4 06 04
        E 40 b4 06 05
        E 40 b4 06 05
        E 40 b4 06 05
        E 40 b4 06 06
        E 40 b4 06 06
        E 40 b4 06 13
        E 40 b4 06 14
        E 40 b4 06 15
        E 40 b4 06 15
        E 40 b4 06 16
        E 40 b4 06 17
        E 40 b4 06 18
        E 40 b4 06 19
        E 40 b4 06 1a
        E 40 b4 06 1b
        E 40 b4 06 1c
        E 40 b4 06 1c
        E 40 b4 06 1d
        E 40 b4 06 1e
        E 40 b4 06 1f
        E 40 b4 06 1f
        E 40 b4 06 20
        E 40 b4 06 21
        E 40 b4 06 21
        E 40 b4 06 22
        E 40 b4 06 23
        E 40 b4 06 23
        E 40 b4 06 24
        E 40 b4 06 24
        E 40 b4 06 24
        E 40 b4 06 24
        E 40 b4 06 25
        E 40 b4 06 25
        E 40 b4 06 25
        E 40 b4 06 25
        E 40 b4 06 26
        E 40 b4 06 26
        E 40 b4 06 26
        E 40 b4 06 26
        E 40 b4 06 26
        E 40 b4 06 25
        E 40 b4 06 25
        E 40 b4 06 25
        E 40 b4 06 25
        E 40 b4 06 24
        E 40 b4 06 24
        E 40 b4 06 24
        E 40 b4 06 23
        E 40 b4 06 23
        E 40 b4 06 22
        E 40 b4 06 22
        E 40 b4 06 21
        E 40 b4 06 21
        E 40 b4 06 20
        E 40 b4 06 1f
        E 40 b4 06 1e
        E 40 b4 06 1e
        E 40 b4 06 1d
        E 40 b4 06 1c
        E 40 b4 06 1b
        E 40 b4 06 1a
        E 40 b4 06 1a
        E 40 b4 06 19
        E 40 b4 06 18
        E 40 b4 06 17
        E 40 b4 06 16
        E 40 b4 06 15
        E 40 b4 06 14
        E 40 b4 06 13
        E 40 b4 06 12
        E 40 b4 06 11
        E 40 b4 06 10
        E 40 b4 06 0f
        E 40 b4 06 0e
        E 40 b4 06 0d
        E 40 b4 06 0c
        E 40 b4 06 0c
        E 40 b4 06 0b
        E 40 b4 06 0a
        E 40 b4 06 09
        E 40 b4 06 08
        E 40 b4 06 08
        E 40 b4 06 07
        E 40 b4 06 06
        E 40 b4 06 05
        E 40 b4 06 05
        E 40 b4 06 04
        E 40 b4 06 03
        E 40 b4 06 03
        E 40 b4 06 03
        E 40 b4 06 02
        E 40 b4 06 02
        E 40 b4 06 01
        E 40 b4 06 01
        E 40 b4 06 00
        E 40 b4 06 00
        E 40 b4 06 00
        E 40 b4 06 00
        E 40 b4 06 00
        E 40 b4 06 00
        E 40 b4 06 00
        E 40 b4 06 00
        E 40 b4 06 00
        E 40 b4 06 00
        E 40 b4 06 00
        E 40 b4 06 00
        E 40 b4 06 00
        E 40 b4 06 01
        E 40 b4 06 01
        E 40 b4 06 01
        E 40 b4 06 02
        E 40 b4 06 02
        E 40 b4 06 03
        E 40 b4 06 03
        E 40 b4 06 04
        E 40 b4 06 04
        E 40 b4 06 05
        E 40 b4 06 06
        E 40 b4 06 06
        E 40 b4 06 07
        E 40 b4 06 08
        E 40 b4 06 09
        E 40 b4 06 09
        E 40 b4 06 0a
        E 40 b4 06 0b
        E 40 b4 06 0c
        E 40 b4 06 0d
        E 40 b4 06 0e
        E 40 b4 06 0f
        E 40 b4 06 10
        E 40 b4 06 11
        E 40 b4 06 12
        E 40 b4 06 13
        E 35 b4 06 39
        E 35 b4 06 3c
        E 35 b4 06 3f
        E 35 b4 06 41
        E 35 b4 06 44
        E 35 b4 06 47
        E 35 b4 06 49
        E 35 b4 06 4c
        E 35 b4 06 4f
        E 35 b4 06 51
        E 35 b4 06 54
        E 35 b4 06 56
        E 35 b4 06 59
        E 35 b4 06 5b
        E 35 b4 06 5d
        E 35 b4 06 5f
        E 35 b4 06 62
        E 35 b4 06 63
        E 35 b4 06 65
        E 35 b4 06 67
        E 35 b4 06 69
        E 35 b4 06 6a
        E 35 b4 06 6c
        E 35 b4 06 6c
        E 35 b4 06 6d
        E 35 b4 06 6e
        E 35 b4 06 6f
        E 35 b4 06 70
        E 35 b4 06 71
        E 35 b4 06 71
        E 35 b4 06 72
        E 35 b4 06 72
        E 35 b4 06 72
        E 35 b4 06 72
        E 35 b4 06 72
        E 35 b4 06 71
        E 35 b4 06 71
        E 35 b4 06 70
        E 35 b4 06 6f
        E 35 b4 06 6e
        E 35 b4 06 6d
        E 35 b4 06 6c
        E 35 b4 06 6b
        E 35 b4 06 69
        E 35 b4 06 68
        E 35 b4 06 66
        E 35 b4 06 64
        E 35 b4 06 63
        E 35 b4 06 61
        E 35 b4 06 5e
        E 35 b4 06 5c
        E 35 b4 06 5a
        E 35 b4 06 58
        E 35 b4 06 55
        E 35 b4 06 52
        E 35 b4 06 50
        E 35 b4 06 4e
        E 35 b4 06 4b
        E 35 b4 06 48
        E 35 b4 06 46
        E 35 b4 06 42
        E 35 b4 06 3f
        E 35 b4 06 3d
        E 35 b4 06 3a
        E 35 b4 06 37
        E 35 b4 06 35
        E 35 b4 06 32
        E 35 b4 06 2f
        E 35 b4 06 2c
        E 35 b4 06 29
        E 35 b4 06 26
        E 35 b4 06 24
        E 35 b4 06 22
        E 35 b4 06 1f
        E 35 b4 06 1c
        E 35 b4 06 1a
        E 35 b4 06 18
        E 35 b4 06 15
        E 35 b4 06 13
        E 35 b4 06 11
        E 35 b4 06 0f
        E 35 b4 06 0d
        E 35 b4 06 0b
        E 35 b4 06 09
        E 35 b4 06 09
        E 35 b4 06 07
        E 35 b4 06 06
        E 35 b4 06 04
        E 35 b4 06 03
        E 35 b4 06 02
        E 35 b4 06 01
        E 35 b4 06 00
        E 35 b4 06 00
        E 35 b4 06 00
        E 35 b4 06 00
        E 35 b4 06 00
        E 35 b4 06 00
        E 35 b4 06 00
        E 35 b4 06 00
        E 35 b4 06 00
        E 35 b4 06 01
        E 35 b4 06 02
        E 35 b4 06 03
        E 35 b4 06 04
        E 35 b4 06 05
        E 35 b4 06 06
        E 35 b4 06 08
        E 35 b4 06 09
        E 35 b4 06 0a
        E 35 b4 06 0c
        E 35 b4 06 0e
        E 35 b4 06 10
        E 35 b4 06 12
        E 35 b4 06 14
        E 35 b4 06 16
        E 35 b4 06 19
        E 35 b4 06 1b
        E 35 b4 06 1d
        E 35 b4 06 20
        E 35 b4 06 23
        E 35 b4 06 25
        E 35 b4 06 28
        E 35 b4 06 2b
        E 35 b4 06 2d
        E 35 b4 06 30
        E 35 b4 06 33
        E 35 b4 06 36
        E 35 b4 06 39
        E 20 b4 06 20
        E 20 b4 06 21
        E 20 b4 06 23
        E 20 b4 06 24
        E 20 b4 06 26
        E 20 b4 06 27
        E 20 b4 06 29
        E 20 b4 06 2a
        E 20 b4 06 2c
        E 20 b4 06 2d
        E 20 b4 06 2f
        E 20 b4 06 30
        E 20 b4 06 31
        E 20 b4 06 33
        E 20 b4 06 34
        E 20 b4 06 35
        E 20 b4 06 36
        E 20 b4 06 37
        E 20 b4 06 38
        E 20 b4 06 39
        E 20 b4 06 3a
        E 20 b4 06 3b
        E 20 b4 06 3c
        E 20 b4 06 3c
        E 20 b4 06 3d
        E 20 b4 06 3d
        E 20 b4 06 3e
        E 20 b4 06 3e
        E 20 b4 06 3f
        E 20 b4 06 3f
        E 20 b4 06 3f
        E 20 b4 06 3f
        E 20 b4 06 3f
        E 20 b4 06 3f
        E 20 b4 06 3f
        E 20 b4 06 3f
        E 20 b4 06 3f
        E 20 b4 06 3e
        E 20 b4 06 3e
        E 20 b4 06 3d
        E 20 b4 06 3d
        E 20 b4 06 3c
        E 20 b4 06 3b
        E 20 b4 06 3a
        E 20 b4 06 3a
        E 20 b4 06 39
        E 20 b4 06 38
        E 20 b4 06 37
        E 20 b4 06 36
        E 20 b4 06 34
        E 20 b4 06 33
        E 20 b4 06 32
        E 20 b4 06 31
        E 20 b4 06 2f
        E 20 b4 06 2e
        E 20 b4 06 2c
        E 20 b4 06 2b
        E 20 b4 06 2a
        E 20 b4 06 28
        E 20 b4 06 27
        E 20 b4 06 25
        E 20 b4 06 23
        E 20 b4 06 22
        E 20 b4 06 20
        E 20 b4 06 1f
        E 20 b4 06 1d
        E 20 b4 06 1c
        E 20 b4 06 1a
        E 20 b4 06 18
        E 20 b4 06 17
        E 20 b4 06 15
        E 20 b4 06 14
        E 20 b4 06 13
        E 20 b4 06 11
        E 20 b4 06 10
        E 20 b4 06 0e
        E 20 b4 06 0d
        E 20 b4 06 0c
        E 20 b4 06 0b
        E 20 b4 06 09
        E 20 b4 06 08
        E 20 b4 06 07
        E 20 b4 06 06
        E 20 b4 06 05
        E 20 b4 06 05
        E 20 b4 06 04
        E 20 b4 06 03
        E 20 b4 06 02
        E 20 b4 06 02
        E 20 b4 06 01
        E 20 b4 06 01
        E 20 b4 06 00
        E 20 b4 06 00
        E 20 b4 06 00
        E 20 b4 06 00
        E 20 b4 06 00
        E 20 b4 06 00
        E 20 b4 06 00
        E 20 b4 06 00
        E 20 b4 06 00
        E 20 b4 06 01
        E 20 b4 06 01
        E 20 b4 06 02
        E 20 b4 06 02
        E 20 b4 06 03
        E 20 b4 06 03
        E 20 b4 06 04
        E 20 b4 06 05
        E 20 b4 06 06
        E 20 b4 06 07
        E 20 b4 06 08
        E 20 b4 06 09
        E 20 b4 06 0a
        E 20 b4 06 0b
        E 20 b4 06 0c
        E 20 b4 06 0e
        E 20 b4 06 0f
        E 20 b4 06 10
        E 20 b4 06 12
        E 20 b4 06 13
        E 20 b4 06 15
        E 20 b4 06 16
        E 20 b4 06 18
        E 20 b4 06 19
        E 20 b4 06 1b
        E 20 b4 06 1c
        E 20 b4 06 1e
        E 20 b4 06 20
        E 40 b4 06 06
        E 40 b4 06 06
        E 40 b4 06 07
        E 40 b4 06 07
        E 40 b4 06 07
        E 40 b4 06 07
        E 40 b4 06 08
        E 40 b4 06 08
        E 40 b4 06 08
        E 40 b4 06 09
        E 40 b4 06 09
        E 40 b4 06 09
        E 40 b4 06 09
        E 40 b4 06 0a
        E 40 b4 06 0a
        E 40 b4 06 0a
        E 40 b4 06 0a
        E 40 b4 06 0b
        E 40 b4 06 0b
        E 40 b4 06 0b
        E 40 b4 06 0b
        E 40 b4 06 0b
        E 40 b4 06 0c
        E 40 b4 06 0c
        E 40 b4 06 0c
        E 40 b4 06 0c
        E 40 b4 06 0c
        E 40 b4 06 0c
        E 40 b4 06 0c
        E 40 b4 06 0c
        E 40 b4 06 0c
        E 40 b4 06 0c
        E 40 b4 06 0c
        E 40 b4 06 0c
        E 40 b4 06 0c
        E 40 b4 06 0c
        E 40 b4 06 0c
        E 40 b4 06 0c
        E 40 b4 06 0c
        E 40 b4 06 0c
        E 40 b4 06 0c
        E 40 b4 06 0c
        E 40 b4 06 0b
        E 40 b4 06 0b
        E 40 b4 06 0b
        E 40 b4 06 0b
        E 40 b4 06 0b
        E 40 b4 06 0b
        E 40 b4 06 0a
        E 40 b4 06 0a
        E 40 b4 06 0a
        E 40 b4 06 0a
        E 40 b4 06 09
        E 40 b4 06 09
        E 40 b4 06 09
        E 40 b4 06 08
        E 40 b4 06 08
        E 40 b4 06 08
        E 40 b4 06 08
        E 40 b4 06 07
        E 40 b4 06 07
        E 40 b4 06 07
        E 40 b4 06 06
        E 40 b4 06 06
        E 40 b4 06 06
        E 40 b4 06 05
        E 40 b4 06 05
        E 40 b4 06 05
        E 40 b4 06 04
        E 40 b4 06 04
        E 40 b4 06 04
        E 40 b4 06 04
        E 40 b4 06 03
        E 40 b4 06 03
        E 40 b4 06 03
        E 40 b4 06 02
        E 40 b4 06 02
        E 40 b4 06 02
        E 40 b4 06 02
        E 40 b4 06 01
        E 40 b4 06 01
        E 40 b4 06 01
        E 40 b4 06 01
        E 40 b4 06 01
        E 40 b4 06 01
        E 40 b4 06 00
        E 40 b4 06 00
        E 40 b4 06 00
        E 40 b4 06 00
        E 40 b4 06 00
        E 40 b4 06 00
        E 40 b4 06 00
        E 40 b4 06 00
        E 40 b4 06 00
        E 40 b4 06 00
        E 40 b4 06 00
        E 40 b4 06 00
        E 40 b4 06 00
        E 40 b4 06 00
        E 40 b4 06 00
        E 40 b4 06 00
        E 40 b4 06 00
        E 40 b4 06 00
        E 40 b4 06 00
        E 40 b4 06 00
        E 40 b4 06 00
        E 40 b4 06 00
        E 40 b4 06 01
        E 40 b4 06 01
        E 40 b4 06 01
        E 40 b4 06 01
        E 40 b4 06 01
        E 40 b4 06 02
        E 40 b4 06 02
        E 40 b4 06 02
        E 40 b4 06 02
        E 40 b4 06 03
        E 40 b4 06 03
        E 40 b4 06 03
        E 40 b4 06 03
        E 40 b4 06 04
        E 40 b4 06 04
        E 40 b4 06 04
        E 40 b4 06 05
        E 40 b4 06 05
        E 40 b4 06 05
        E 40 b4 06 06
        E 40 b4 06 06
        E 40 b4 06 13
        E 40 b4 06 14
        E 40 b4 06 15
        E 40 b4 06 15
        E 40 b4 06 16
        E 40 b4 06 17
        E 40 b4 06 18
        E 40 b4 06 19
        E 40 b4 06 1a
        E 40 b4 06 1b
        E 40 b4 06 1c
        E 40 b4 06 1c
        E 40 b4 06 1d
        E 40 b4 06 1e
        E 40 b4 06 1f
        E 40 b4 06 1f
        E 40 b4 06 20
        E 40 b4 06 21
        E 40 b4 06 21
        E 40 b4 06 22
        E 40 b4 06 23
        E 40 b4 06 23
        E 40 b4 06 24
        E 40 b4 06 24
        E 40 b4 06 24
        E 40 b4 06 24
        E 40 b4 06 25
        E 40 b4 06 25
        E 40 b4 06 25
        E 40 b4 06 25
        E 40 b4 06 26
        E 40 b4 06 26
        E 40 b4 06 26
        E 40 b4 06 26
        E 40 b4 06 26
        E 40 b4 06 25
        E 40 b4 06 25
        E 40 b4 06 25
        E 40 b4 06 25
        E 40 b4 06 24
        E 40 b4 06 24
        E 40 b4 06 24
        E 40 b4 06 23
        E 40 b4 06 23
        E 40 b4 06 22
        E 40 b4 06 22
        E 40 b4 06 21
        E 40 b4 06 21
        E 40 b4 06 20
        E 40 b4 06 1f
        E 40 b4 06 1e
        E 40 b4 06 1e
        E 40 b4 06 1d
        E 40 b4 06 1c
        E 40 b4 06 1b
        E 40 b4 06 1a
        E 40 b4 06 1a
        E 40 b4 06 19
        E 40 b4 06 18
        E 40 b4 06 17
        E 40 b4 06 16
        E 40 b4 06 15
        E 40 b4 06 14
        E 40 b4 06 13
        E 40 b4 06 12
        E 40 b4 06 11
        E 40 b4 06 10
        E 40 b4 06 0f
        E 40 b4 06 0e
        E 40 b4 06 0d
        E 40 b4 06 0c
        E 40 b4 06 0c
        E 40 b4 06 0b
        E 40 b4 06 0a
        E 40 b4 06 09
        E 40 b4 06 08
        E 40 b4 06 08
        E 40 b4 06 07
        E 40 b4 06 06
        E 40 b4 06 05
        E 40 b4 06 05
        E 40 b4 06 04
        E 40 b4 06 03
        E 40 b4 06 03
        E 40 b4 06 03
        E 40 b4 06 02
        E 40 b4 06 02
        E 40 b4 06 01
        E 40 b4 06 01
        E 40 b4 06 00
        E 40 b4 06 00
        E 40 b4 06 00
        E 40 b4 06 00
        E 40 b4 06 00
        E 40 b4 06 00
        E 40 b4 06 00
        E 40 b4 06 00
        E 40 b4 06 00
        E 40 b4 06 00
        E 40 b4 06 00
        E 40 b4 06 00
        E 40 b4 06 00
        E 40 b4 06 01
        E 40 b4 06 01
        E 40 b4 06 01
        E 40 b4 06 02
        E 40 b4 06 02
        E 40 b4 06 03
        E 40 b4 06 03
        E 40 b4 06 04
        E 40 b4 06 04
        E 40 b4 06 05
        E 40 b4 06 06
        E 40 b4 06 06
        E 40 b4 06 07
        E 40 b4 06 08
        E 40 b4 06 09
        E 40 b4 06 09
        E 40 b4 06 0a
        E 40 b4 06 0b
        E 40 b4 06 0c
        E 40 b4 06 0d
        E 40 b4 06 0e
        E 40 b4 06 0f
        E 40 b4 06 10
        E 40 b4 06 11
        E 40 b4 06 12
        E 39 b4 06 13
        E 1 b0 7b 00
        CCINTERP 32
        CHASE_CC_TAKEOFFS 1
        GUID {CD991792-FEC3-264E-9449-23DED3017FB1}
        IGNTEMPO 0 120 4 4
        SRCCOLOR 150
        VELLANE 3 601 0
        VELLANE -1 196 0
        CFGEDITVIEW 0 0.008186 62 12 0 -1 0 0 0 0.5
        KEYSNAP 0
        TRACKSEL 252
        EVTFILTER 0 -1 -1 -1 -1 0 0 0 0 -1 -1 -1 -1 0 -1 0 -1 -1
        CFGEDIT 1 1 0 1 0 0 1 1 1 1 1 0.125 0 0 1792 1095 0 0 0 0 0 0 0 0 0 0.5 0 0 1 64
      >
    >
  >
  <TRACK {7B39EBE1-6330-094B-B65F-478B32A6C4CC}
    NAME "germ-x hand sanitizer"
    PEAKCOL 16576
    BEAT -1
    AUTOMODE 0
    VOLPAN 1 0 -1 -1 1
    MUTESOLO 0 0 0
    IPHASE 0
    PLAYOFFS 0 1
    ISBUS 0 0
    BUSCOMP 0 0 0 0 0
    SHOWINMIX 1 0.6667 0.5 1 0.5 0 -1 0
    FREEMODE 0
    SEL 0
    REC 0 0 1 0 0 0 0
    VU 2
    TRACKHEIGHT 0 1 0 0 -1 0
    INQ 0 0 0 0.5 100 0 0 100
    NCHAN 2
    FX 1
    TRACKID {7B39EBE1-6330-094B-B65F-478B32A6C4CC}
    PERF 0
    MIDIOUT -1
    MAINSEND 1 0
    <ITEM
      POSITION 0
      SNAPOFFS 0
      LENGTH 1225.40418
      LOOP 1
      ALLTAKES 0
      FADEIN 1 0 0 1 0 0
      FADEOUT 1 0 0 1 0 0
      MUTE 0 0
      SEL 0
      IGUID {6A6BE3A4-4B7F-0C4A-A676-5834043A99DE}
      IID 18
      NAME "germ-x hand sanitizer.mid"
      VOLPAN 1 0 1 -1
      SOFFS 0 0
      PLAYRATE 1 1 0 -1 0 0.0025
      CHANMODE 0
      GUID {0448AAB7-0BBA-5845-8FC5-DFA7521D6DBA}
      <SOURCE MIDI
        HASDATA 1 128 QN
        CCINTERP 32
        POOLEDEVTS {43A915FC-8156-E844-9409-C7AD5A3F9ACC}
        E 7 b5 02 0b
        E 7 b5 02 26
        E 7 b5 02 19
        E 7 b5 02 04
        E 7 b5 02 24
        E 7 b5 02 20
        E 7 b5 02 04
        E 7 b5 02 04
        E 7 b5 02 18
        E 7 b5 02 30
        E 7 b5 02 28
        E 7 b5 02 2c
        E 7 b5 02 1f
        E 7 b5 02 05
        E 7 b5 02 09
        E 7 b5 02 22
        E 7 b5 02 1c
        E 7 b5 02 0e
        E 7 b5 02 0a
        E 7 b5 02 0d
        E 7 b5 02 27
        E 7 b5 02 17
        E 7 b5 02 0c
        E 7 b5 02 1d
        E 7 b5 02 32
        E 7 b5 02 00
        E 7 b5 02 06
        E 7 b5 02 14
        E 7 b5 02 11
        E 7 b5 02 29
        E 7 b5 02 0a
        E 7 b5 02 03
        E 7 b5 02 08
        E 7 b5 02 08
        E 7 b5 02 2e
        E 7 b5 02 0c
        E 7 b5 02 00
        E 7 b5 02 25
        E 7 b5 02 11
        E 7 b5 02 0a
        E 7 b5 02 14
        E 7 b5 02 0d
        E 7 b5 02 2b
        E 7 b5 02 2a
        E 7 b5 02 32
        E 7 b5 02 2a
        E 7 b5 02 16
        E 7 b5 02 2f
        E 7 b5 02 24
        E 7 b5 02 06
        E 7 b5 02 16
        E 7 b5 02 1b
        E 7 b5 02 30
        E 7 b5 02 26
        E 7 b5 02 1b
        E 7 b5 02 1c
        E 7 b5 02 02
        E 7 b5 02 05
        E 7 b5 02 2e
        E 7 b5 02 28
        E 7 b5 02 15
        E 7 b5 02 10
        E 7 b5 02 06
        E 7 b5 02 16
        E 7 b5 02 0f
        E 7 b5 02 0c
        E 7 b5 02 13
        E 7 b5 02 1a
        E 7 b5 02 1e
        E 7 b5 02 20
        E 7 b5 02 08
        E 7 b5 02 1e
        E 7 b5 02 2d
        E 7 b5 02 1a
        E 7 b5 02 1d
        E 7 b5 02 01
        E 7 b5 02 03
        E 7 b5 02 32
        E 7 b5 02 21
        E 7 b5 02 09
        E 7 b5 02 2e
        E 7 b5 02 10
        E 7 b5 02 13
        E 7 b5 02 18
        E 7 b5 02 14
        E 7 b5 02 22
        E 7 b5 02 29
        E 7 b5 02 0e
        E 7 b5 02 1c
        E 7 b5 02 0b
        E 7 b5 02 2d
        E 7 b5 02 2a
        E 7 b5 02 17
        E 7 b5 02 12
        E 7 b5 02 28
        E 7 b5 02 12
        E 7 b5 02 23
        E 7 b5 02 07
        E 7 b5 02 00
        E 7 b5 02 10
        E 7 b5 02 19
        E 7 b5 02 2b
        E 7 b5 02 27
        E 7 b5 02 01
        E 7 b5 02 2c
        E 7 b5 02 25
        E 7 b5 02 02
        E 7 b5 02 0f
        E 7 b5 02 1e
        E 7 b5 02 26
        E 7 b5 02 30
        E 7 b5 02 1f
        E 7 b5 02 15
        E 7 b5 02 0e
        E 7 b5 02 23
        E 7 b5 02 24
        E 7 b5 02 2c
        E 7 b5 02 31
        E 7 b5 02 18
        E 7 b5 02 20
        E 7 b5 02 22
        E 7 b5 02 1a
        E 7 b5 02 2f
        E 7 b5 02 07
        E 7 b5 02 12
        E 7 b5 02 21
        E 23 b5 02 16
        E 23 b5 02 4c
        E 23 b5 02 32
        E 23 b5 02 07
        E 23 b5 02 48
        E 23 b5 02 3f
        E 23 b5 02 09
        E 23 b5 02 08
        E 23 b5 02 30
        E 23 b5 02 5f
        E 23 b5 02 50
        E 23 b5 02 58
        E 23 b5 02 3f
        E 23 b5 02 0b
        E 23 b5 02 13
        E 23 b5 02 44
        E 23 b5 02 37
        E 23 b5 02 1c
        E 23 b5 02 14
        E 23 b5 02 1b
        E 23 b5 02 4f
        E 23 b5 02 2f
        E 23 b5 02 17
        E 23 b5 02 3a
        E 23 b5 02 64
        E 23 b5 02 00
        E 23 b5 02 0c
        E 23 b5 02 29
        E 23 b5 02 22
        E 23 b5 02 53
        E 23 b5 02 15
        E 23 b5 02 06
        E 23 b5 02 0f
        E 23 b5 02 11
        E 23 b5 02 5b
        E 23 b5 02 19
        E 23 b5 02 00
        E 23 b5 02 4b
        E 23 b5 02 23
        E 23 b5 02 14
        E 23 b5 02 28
        E 23 b5 02 1a
        E 23 b5 02 56
        E 23 b5 02 55
        E 23 b5 02 65
        E 23 b5 02 54
        E 23 b5 02 2b
        E 23 b5 02 5e
        E 23 b5 02 48
        E 23 b5 02 0b
        E 23 b5 02 2c
        E 23 b5 02 36
        E 23 b5 02 60
        E 23 b5 02 4d
        E 23 b5 02 37
        E 23 b5 02 38
        E 23 b5 02 04
        E 23 b5 02 0a
        E 23 b5 02 5d
        E 23 b5 02 51
        E 23 b5 02 2b
        E 23 b5 02 1f
        E 23 b5 02 0d
        E 23 b5 02 2d
        E 23 b5 02 1e
        E 23 b5 02 18
        E 23 b5 02 26
        E 23 b5 02 34
        E 23 b5 02 3d
        E 23 b5 02 41
        E 23 b5 02 10
        E 23 b5 02 3c
        E 23 b5 02 5a
        E 23 b5 02 33
        E 23 b5 02 3b
        E 23 b5 02 02
        E 23 b5 02 07
        E 23 b5 02 63
        E 23 b5 02 42
        E 23 b5 02 12
        E 23 b5 02 5c
        E 23 b5 02 20
        E 23 b5 02 27
        E 23 b5 02 31
        E 23 b5 02 28
        E 23 b5 02 44
        E 23 b5 02 52
        E 23 b5 02 1d
        E 23 b5 02 39
        E 23 b5 02 17
        E 23 b5 02 5b
        E 23 b5 02 54
        E 23 b5 02 2e
        E 23 b5 02 24
        E 23 b5 02 50
        E 23 b5 02 25
        E 23 b5 02 47
        E 23 b5 02 0e
        E 23 b5 02 01
        E 23 b5 02 21
        E 23 b5 02 33
        E 23 b5 02 57
        E 23 b5 02 4e
        E 23 b5 02 03
        E 23 b5 02 57
        E 23 b5 02 4a
        E 23 b5 02 05
        E 23 b5 02 1f
        E 23 b5 02 3b
        E 23 b5 02 4c
        E 23 b5 02 61
        E 23 b5 02 3e
        E 23 b5 02 2a
        E 23 b5 02 1b
        E 23 b5 02 46
        E 23 b5 02 49
        E 23 b5 02 59
        E 23 b5 02 63
        E 23 b5 02 2f
        E 23 b5 02 40
        E 23 b5 02 45
        E 23 b5 02 35
        E 23 b5 02 5f
        E 23 b5 02 0f
        E 23 b5 02 24
        E 23 b5 02 43
        E 71 b5 02 16
        E 71 b5 02 4c
        E 71 b5 02 32
        E 71 b5 02 07
        E 71 b5 02 48
        E 71 b5 02 3f
        E 71 b5 02 09
        E 71 b5 02 08
        E 71 b5 02 30
        E 71 b5 02 5f
        E 71 b5 02 50
        E 71 b5 02 58
        E 71 b5 02 3f
        E 71 b5 02 0b
        E 71 b5 02 13
        E 71 b5 02 44
        E 71 b5 02 37
        E 71 b5 02 1c
        E 71 b5 02 14
        E 71 b5 02 1b
        E 71 b5 02 4f
        E 71 b5 02 2f
        E 71 b5 02 17
        E 71 b5 02 3a
        E 71 b5 02 64
        E 71 b5 02 00
        E 71 b5 02 0c
        E 71 b5 02 29
        E 71 b5 02 22
        E 71 b5 02 53
        E 71 b5 02 15
        E 71 b5 02 06
        E 71 b5 02 0f
        E 71 b5 02 11
        E 71 b5 02 5b
        E 71 b5 02 19
        E 71 b5 02 00
        E 71 b5 02 4b
        E 71 b5 02 23
        E 71 b5 02 14
        E 71 b5 02 28
        E 71 b5 02 1a
        E 71 b5 02 56
        E 71 b5 02 55
        E 71 b5 02 65
        E 71 b5 02 54
        E 71 b5 02 2b
        E 71 b5 02 5e
        E 71 b5 02 48
        E 71 b5 02 0b
        E 71 b5 02 2c
        E 71 b5 02 36
        E 71 b5 02 60
        E 71 b5 02 4d
        E 71 b5 02 37
        E 71 b5 02 38
        E 71 b5 02 04
        E 71 b5 02 0a
        E 71 b5 02 5d
        E 71 b5 02 51
        E 71 b5 02 2b
        E 71 b5 02 1f
        E 71 b5 02 0d
        E 71 b5 02 2d
        E 71 b5 02 1e
        E 71 b5 02 18
        E 71 b5 02 26
        E 71 b5 02 34
        E 71 b5 02 3d
        E 71 b5 02 41
        E 71 b5 02 10
        E 71 b5 02 3c
        E 71 b5 02 5a
        E 71 b5 02 33
        E 71 b5 02 3b
        E 71 b5 02 02
        E 71 b5 02 07
        E 71 b5 02 63
        E 71 b5 02 42
        E 71 b5 02 12
        E 71 b5 02 5c
        E 71 b5 02 20
        E 71 b5 02 27
        E 71 b5 02 31
        E 71 b5 02 28
        E 71 b5 02 44
        E 71 b5 02 52
        E 71 b5 02 1d
        E 71 b5 02 39
        E 71 b5 02 17
        E 71 b5 02 5b
        E 71 b5 02 54
        E 71 b5 02 2e
        E 71 b5 02 24
        E 71 b5 02 50
        E 71 b5 02 25
        E 71 b5 02 47
        E 71 b5 02 0e
        E 71 b5 02 01
        E 71 b5 02 21
        E 71 b5 02 33
        E 71 b5 02 57
        E 71 b5 02 4e
        E 71 b5 02 03
        E 71 b5 02 57
        E 71 b5 02 4a
        E 71 b5 02 05
        E 71 b5 02 1f
        E 71 b5 02 3b
        E 71 b5 02 4c
        E 71 b5 02 61
        E 71 b5 02 3e
        E 71 b5 02 2a
        E 71 b5 02 1b
        E 71 b5 02 46
        E 71 b5 02 49
        E 71 b5 02 59
        E 71 b5 02 63
        E 71 b5 02 2f
        E 71 b5 02 40
        E 71 b5 02 45
        E 71 b5 02 35
        E 71 b5 02 5f
        E 71 b5 02 0f
        E 71 b5 02 24
        E 71 b5 02 43
        E 15 b5 02 10
        E 15 b5 02 39
        E 15 b5 02 25
        E 15 b5 02 06
        E 15 b5 02 36
        E 15 b5 02 30
        E 15 b5 02 07
        E 15 b5 02 06
        E 15 b5 02 24
        E 15 b5 02 48
        E 15 b5 02 3c
        E 15 b5 02 42
        E 15 b5 02 2f
        E 15 b5 02 08
        E 15 b5 02 0e
        E 15 b5 02 33
        E 15 b5 02 2a
        E 15 b5 02 15
        E 15 b5 02 0f
        E 15 b5 02 14
        E 15 b5 02 3b
        E 15 b5 02 23
        E 15 b5 02 12
        E 15 b5 02 2b
        E 15 b5 02 4b
        E 15 b5 02 00
        E 15 b5 02 09
        E 15 b5 02 1f
        E 15 b5 02 19
        E 15 b5 02 3e
        E 15 b5 02 10
        E 15 b5 02 04
        E 15 b5 02 0c
        E 15 b5 02 0d
        E 15 b5 02 45
        E 15 b5 02 13
        E 15 b5 02 00
        E 15 b5 02 38
        E 15 b5 02 1a
        E 15 b5 02 0f
        E 15 b5 02 1e
        E 15 b5 02 13
        E 15 b5 02 40
        E 15 b5 02 40
        E 15 b5 02 4c
        E 15 b5 02 3f
        E 15 b5 02 21
        E 15 b5 02 46
        E 15 b5 02 36
        E 15 b5 02 09
        E 15 b5 02 21
        E 15 b5 02 28
        E 15 b5 02 48
        E 15 b5 02 3a
        E 15 b5 02 29
        E 15 b5 02 2a
        E 15 b5 02 03
        E 15 b5 02 07
        E 15 b5 02 46
        E 15 b5 02 3d
        E 15 b5 02 20
        E 15 b5 02 18
        E 15 b5 02 0a
        E 15 b5 02 22
        E 15 b5 02 16
        E 15 b5 02 12
        E 15 b5 02 1c
        E 15 b5 02 27
        E 15 b5 02 2e
        E 15 b5 02 31
        E 15 b5 02 0c
        E 15 b5 02 2d
        E 15 b5 02 43
        E 15 b5 02 27
        E 15 b5 02 2c
        E 15 b5 02 01
        E 15 b5 02 05
        E 15 b5 02 4b
        E 15 b5 02 31
        E 15 b5 02 0d
        E 15 b5 02 45
        E 15 b5 02 18
        E 15 b5 02 1d
        E 15 b5 02 25
        E 15 b5 02 1e
        E 15 b5 02 33
        E 15 b5 02 3d
        E 15 b5 02 16
        E 15 b5 02 2b
        E 15 b5 02 11
        E 15 b5 02 44
        E 15 b5 02 3f
        E 15 b5 02 22
        E 15 b5 02 1b
        E 15 b5 02 3c
        E 15 b5 02 1c
        E 15 b5 02 35
        E 15 b5 02 0a
        E 15 b5 02 01
        E 15 b5 02 19
        E 15 b5 02 26
        E 15 b5 02 41
        E 15 b5 02 3a
        E 15 b5 02 02
        E 15 b5 02 42
        E 15 b5 02 37
        E 15 b5 02 04
        E 15 b5 02 17
        E 15 b5 02 2d
        E 15 b5 02 39
        E 15 b5 02 49
        E 15 b5 02 2e
        E 15 b5 02 1f
        E 15 b5 02 15
        E 15 b5 02 34
        E 15 b5 02 37
        E 15 b5 02 43
        E 15 b5 02 4a
        E 15 b5 02 24
        E 15 b5 02 30
        E 15 b5 02 34
        E 15 b5 02 28
        E 15 b5 02 47
        E 15 b5 02 0b
        E 15 b5 02 1b
        E 15 b5 02 32
        E 71 b5 02 0b
        E 71 b5 02 26
        E 71 b5 02 19
        E 71 b5 02 04
        E 71 b5 02 24
        E 71 b5 02 20
        E 71 b5 02 04
        E 71 b5 02 04
        E 71 b5 02 18
        E 71 b5 02 30
        E 71 b5 02 28
        E 71 b5 02 2c
        E 71 b5 02 1f
        E 71 b5 02 05
        E 71 b5 02 09
        E 71 b5 02 22
        E 71 b5 02 1c
        E 71 b5 02 0e
        E 71 b5 02 0a
        E 71 b5 02 0d
        E 71 b5 02 27
        E 71 b5 02 17
        E 71 b5 02 0c
        E 71 b5 02 1d
        E 71 b5 02 32
        E 71 b5 02 00
        E 71 b5 02 06
        E 71 b5 02 14
        E 71 b5 02 11
        E 71 b5 02 29
        E 71 b5 02 0a
        E 71 b5 02 03
        E 71 b5 02 08
        E 71 b5 02 08
        E 71 b5 02 2e
        E 71 b5 02 0c
        E 71 b5 02 00
        E 71 b5 02 25
        E 71 b5 02 11
        E 71 b5 02 0a
        E 71 b5 02 14
        E 71 b5 02 0d
        E 71 b5 02 2b
        E 71 b5 02 2a
        E 71 b5 02 32
        E 71 b5 02 2a
        E 71 b5 02 16
        E 71 b5 02 2f
        E 71 b5 02 24
        E 71 b5 02 06
        E 71 b5 02 16
        E 71 b5 02 1b
        E 71 b5 02 30
        E 71 b5 02 26
        E 71 b5 02 1b
        E 71 b5 02 1c
        E 71 b5 02 02
        E 71 b5 02 05
        E 71 b5 02 2e
        E 71 b5 02 28
        E 71 b5 02 15
        E 71 b5 02 10
        E 71 b5 02 06
        E 71 b5 02 16
        E 71 b5 02 0f
        E 71 b5 02 0c
        E 71 b5 02 13
        E 71 b5 02 1a
        E 71 b5 02 1e
        E 71 b5 02 20
        E 71 b5 02 08
        E 71 b5 02 1e
        E 71 b5 02 2d
        E 71 b5 02 1a
        E 71 b5 02 1d
        E 71 b5 02 01
        E 71 b5 02 03
        E 71 b5 02 32
        E 71 b5 02 21
        E 71 b5 02 09
        E 71 b5 02 2e
        E 71 b5 02 10
        E 71 b5 02 13
        E 71 b5 02 18
        E 71 b5 02 14
        E 71 b5 02 22
        E 71 b5 02 29
        E 71 b5 02 0e
        E 71 b5 02 1c
        E 71 b5 02 0b
        E 71 b5 02 2d
        E 71 b5 02 2a
        E 71 b5 02 17
        E 71 b5 02 12
        E 71 b5 02 28
        E 71 b5 02 12
        E 71 b5 02 23
        E 71 b5 02 07
        E 71 b5 02 00
        E 71 b5 02 10
        E 71 b5 02 19
        E 71 b5 02 2b
        E 71 b5 02 27
        E 71 b5 02 01
        E 71 b5 02 2c
        E 71 b5 02 25
        E 71 b5 02 02
        E 71 b5 02 0f
        E 71 b5 02 1e
        E 71 b5 02 26
        E 71 b5 02 30
        E 71 b5 02 1f
        E 71 b5 02 15
        E 71 b5 02 0e
        E 71 b5 02 23
        E 71 b5 02 24
        E 71 b5 02 2c
        E 71 b5 02 31
        E 71 b5 02 18
        E 71 b5 02 20
        E 71 b5 02 22
        E 71 b5 02 1a
        E 71 b5 02 2f
        E 71 b5 02 07
        E 71 b5 02 12
        E 71 b5 02 21
        E 39 b5 02 13
        E 39 b5 02 43
        E 39 b5 02 2c
        E 39 b5 02 07
        E 39 b5 02 3e
        E 39 b5 02 38
        E 39 b5 02 08
        E 39 b5 02 07
        E 39 b5 02 2a
        E 39 b5 02 54
        E 39 b5 02 46
        E 39 b5 02 4d
        E 39 b5 02 37
        E 39 b5 02 09
        E 39 b5 02 10
        E 39 b5 02 3c
        E 39 b5 02 31
        E 39 b5 02 19
        E 39 b5 02 11
        E 39 b5 02 17
        E 39 b5 02 45
        E 39 b5 02 29
        E 39 b5 02 15
        E 39 b5 02 33
        E 39 b5 02 58
        E 39 b5 02 00
        E 39 b5 02 0b
        E 39 b5 02 24
        E 39 b5 02 1e
        E 39 b5 02 48
        E 39 b5 02 12
        E 39 b5 02 05
        E 39 b5 02 0e
        E 39 b5 02 0f
        E 39 b5 02 50
        E 39 b5 02 16
        E 39 b5 02 00
        E 39 b5 02 41
        E 39 b5 02 1e
        E 39 b5 02 12
        E 39 b5 02 23
        E 39 b5 02 17
        E 39 b5 02 4b
        E 39 b5 02 4a
        E 39 b5 02 58
        E 39 b5 02 4a
        E 39 b5 02 26
        E 39 b5 02 52
        E 39 b5 02 3f
        E 39 b5 02 0a
        E 39 b5 02 27
        E 39 b5 02 2f
        E 39 b5 02 54
        E 39 b5 02 43
        E 39 b5 02 30
        E 39 b5 02 31
        E 39 b5 02 04
        E 39 b5 02 09
        E 39 b5 02 51
        E 39 b5 02 47
        E 39 b5 02 25
        E 39 b5 02 1c
        E 39 b5 02 0b
        E 39 b5 02 27
        E 39 b5 02 1a
        E 39 b5 02 15
        E 39 b5 02 21
        E 39 b5 02 2e
        E 39 b5 02 35
        E 39 b5 02 39
        E 39 b5 02 0e
        E 39 b5 02 35
        E 39 b5 02 4f
        E 39 b5 02 2d
        E 39 b5 02 33
        E 39 b5 02 02
        E 39 b5 02 06
        E 39 b5 02 57
        E 39 b5 02 3a
        E 39 b5 02 10
        E 39 b5 02 51
        E 39 b5 02 1c
        E 39 b5 02 22
        E 39 b5 02 2b
        E 39 b5 02 23
        E 39 b5 02 3b
        E 39 b5 02 48
        E 39 b5 02 19
        E 39 b5 02 32
        E 39 b5 02 14
        E 39 b5 02 4f
        E 39 b5 02 49
        E 39 b5 02 28
        E 39 b5 02 20
        E 39 b5 02 46
        E 39 b5 02 20
        E 39 b5 02 3e
        E 39 b5 02 0c
        E 39 b5 02 01
        E 39 b5 02 1d
        E 39 b5 02 2c
        E 39 b5 02 4c
        E 39 b5 02 44
        E 39 b5 02 02
        E 39 b5 02 4d
        E 39 b5 02 41
        E 39 b5 02 04
        E 39 b5 02 1b
        E 39 b5 02 34
        E 39 b5 02 42
        E 39 b5 02 55
        E 39 b5 02 36
        E 39 b5 02 25
        E 39 b5 02 18
        E 39 b5 02 3d
        E 39 b5 02 40
        E 39 b5 02 4e
        E 39 b5 02 56
        E 39 b5 02 2a
        E 39 b5 02 38
        E 39 b5 02 3c
        E 39 b5 02 2e
        E 39 b5 02 53
        E 39 b5 02 0d
        E 39 b5 02 1f
        E 39 b5 02 3a
        E 7 b5 02 0b
        E 7 b5 02 26
        E 7 b5 02 19
        E 7 b5 02 04
        E 7 b5 02 24
        E 7 b5 02 20
        E 7 b5 02 04
        E 7 b5 02 04
        E 7 b5 02 18
        E 7 b5 02 30
        E 7 b5 02 28
        E 7 b5 02 2c
        E 7 b5 02 1f
        E 7 b5 02 05
        E 7 b5 02 09
        E 7 b5 02 22
        E 7 b5 02 1c
        E 7 b5 02 0e
        E 7 b5 02 0a
        E 7 b5 02 0d
        E 7 b5 02 27
        E 7 b5 02 17
        E 7 b5 02 0c
        E 7 b5 02 1d
        E 7 b5 02 32
        E 7 b5 02 00
        E 7 b5 02 06
        E 7 b5 02 14
        E 7 b5 02 11
        E 7 b5 02 29
        E 7 b5 02 0a
        E 7 b5 02 03
        E 7 b5 02 08
        E 7 b5 02 08
        E 7 b5 02 2e
        E 7 b5 02 0c
        E 7 b5 02 00
        E 7 b5 02 25
        E 7 b5 02 11
        E 7 b5 02 0a
        E 7 b5 02 14
        E 7 b5 02 0d
        E 7 b5 02 2b
        E 7 b5 02 2a
        E 7 b5 02 32
        E 7 b5 02 2a
        E 7 b5 02 16
        E 7 b5 02 2f
        E 7 b5 02 24
        E 7 b5 02 06
        E 7 b5 02 16
        E 7 b5 02 1b
        E 7 b5 02 30
        E 7 b5 02 26
        E 7 b5 02 1b
        E 7 b5 02 1c
        E 7 b5 02 02
        E 7 b5 02 05
        E 7 b5 02 2e
        E 7 b5 02 28
        E 7 b5 02 15
        E 7 b5 02 10
        E 7 b5 02 06
        E 7 b5 02 16
        E 7 b5 02 0f
        E 7 b5 02 0c
        E 7 b5 02 13
        E 7 b5 02 1a
        E 7 b5 02 1e
        E 7 b5 02 20
        E 7 b5 02 08
        E 7 b5 02 1e
        E 7 b5 02 2d
        E 7 b5 02 1a
        E 7 b5 02 1d
        E 7 b5 02 01
        E 7 b5 02 03
        E 7 b5 02 32
        E 7 b5 02 21
        E 7 b5 02 09
        E 7 b5 02 2e
        E 7 b5 02 10
        E 7 b5 02 13
        E 7 b5 02 18
        E 7 b5 02 14
        E 7 b5 02 22
        E 7 b5 02 29
        E 7 b5 02 0e
        E 7 b5 02 1c
        E 7 b5 02 0b
        E 7 b5 02 2d
        E 7 b5 02 2a
        E 7 b5 02 17
        E 7 b5 02 12
        E 7 b5 02 28
        E 7 b5 02 12
        E 7 b5 02 23
        E 7 b5 02 07
        E 7 b5 02 00
        E 7 b5 02 10
        E 7 b5 02 19
        E 7 b5 02 2b
        E 7 b5 02 27
        E 7 b5 02 01
        E 7 b5 02 2c
        E 7 b5 02 25
        E 7 b5 02 02
        E 7 b5 02 0f
        E 7 b5 02 1e
        E 7 b5 02 26
        E 7 b5 02 30
        E 7 b5 02 1f
        E 7 b5 02 15
        E 7 b5 02 0e
        E 7 b5 02 23
        E 7 b5 02 24
        E 7 b5 02 2c
        E 7 b5 02 31
        E 7 b5 02 18
        E 7 b5 02 20
        E 7 b5 02 22
        E 7 b5 02 1a
        E 7 b5 02 2f
        E 7 b5 02 07
        E 7 b5 02 12
        E 7 b5 02 21
        E 23 b5 02 16
        E 23 b5 02 4c
        E 23 b5 02 32
        E 23 b5 02 07
        E 23 b5 02 48
        E 23 b5 02 3f
        E 23 b5 02 09
        E 23 b5 02 08
        E 23 b5 02 30
        E 23 b5 02 5f
        E 23 b5 02 50
        E 23 b5 02 58
        E 23 b5 02 3f
        E 23 b5 02 0b
        E 23 b5 02 13
        E 23 b5 02 44
        E 23 b5 02 37
        E 23 b5 02 1c
        E 23 b5 02 14
        E 23 b5 02 1b
        E 23 b5 02 4f
        E 23 b5 02 2f
        E 23 b5 02 17
        E 23 b5 02 3a
        E 23 b5 02 64
        E 23 b5 02 00
        E 23 b5 02 0c
        E 23 b5 02 29
        E 23 b5 02 22
        E 23 b5 02 53
        E 23 b5 02 15
        E 23 b5 02 06
        E 23 b5 02 0f
        E 23 b5 02 11
        E 23 b5 02 5b
        E 23 b5 02 19
        E 23 b5 02 00
        E 23 b5 02 4b
        E 23 b5 02 23
        E 23 b5 02 14
        E 23 b5 02 28
        E 23 b5 02 1a
        E 23 b5 02 56
        E 23 b5 02 55
        E 23 b5 02 65
        E 23 b5 02 54
        E 23 b5 02 2b
        E 23 b5 02 5e
        E 23 b5 02 48
        E 23 b5 02 0b
        E 23 b5 02 2c
        E 23 b5 02 36
        E 23 b5 02 60
        E 23 b5 02 4d
        E 23 b5 02 37
        E 23 b5 02 38
        E 23 b5 02 04
        E 23 b5 02 0a
        E 23 b5 02 5d
        E 23 b5 02 51
        E 23 b5 02 2b
        E 23 b5 02 1f
        E 23 b5 02 0d
        E 23 b5 02 2d
        E 23 b5 02 1e
        E 23 b5 02 18
        E 23 b5 02 26
        E 23 b5 02 34
        E 23 b5 02 3d
        E 23 b5 02 41
        E 23 b5 02 10
        E 23 b5 02 3c
        E 23 b5 02 5a
        E 23 b5 02 33
        E 23 b5 02 3b
        E 23 b5 02 02
        E 23 b5 02 07
        E 23 b5 02 63
        E 23 b5 02 42
        E 23 b5 02 12
        E 23 b5 02 5c
        E 23 b5 02 20
        E 23 b5 02 27
        E 23 b5 02 31
        E 23 b5 02 28
        E 23 b5 02 44
        E 23 b5 02 52
        E 23 b5 02 1d
        E 23 b5 02 39
        E 23 b5 02 17
        E 23 b5 02 5b
        E 23 b5 02 54
        E 23 b5 02 2e
        E 23 b5 02 24
        E 23 b5 02 50
        E 23 b5 02 25
        E 23 b5 02 47
        E 23 b5 02 0e
        E 23 b5 02 01
        E 23 b5 02 21
        E 23 b5 02 33
        E 23 b5 02 57
        E 23 b5 02 4e
        E 23 b5 02 03
        E 23 b5 02 57
        E 23 b5 02 4a
        E 23 b5 02 05
        E 23 b5 02 1f
        E 23 b5 02 3b
        E 23 b5 02 4c
        E 23 b5 02 61
        E 23 b5 02 3e
        E 23 b5 02 2a
        E 23 b5 02 1b
        E 23 b5 02 46
        E 23 b5 02 49
        E 23 b5 02 59
        E 23 b5 02 63
        E 23 b5 02 2f
        E 23 b5 02 40
        E 23 b5 02 45
        E 23 b5 02 35
        E 23 b5 02 5f
        E 23 b5 02 0f
        E 23 b5 02 24
        E 23 b5 02 43
        E 71 b5 02 16
        E 71 b5 02 4c
        E 71 b5 02 32
        E 71 b5 02 07
        E 71 b5 02 48
        E 71 b5 02 3f
        E 71 b5 02 09
        E 71 b5 02 08
        E 71 b5 02 30
        E 71 b5 02 5f
        E 71 b5 02 50
        E 71 b5 02 58
        E 71 b5 02 3f
        E 71 b5 02 0b
        E 71 b5 02 13
        E 71 b5 02 44
        E 71 b5 02 37
        E 71 b5 02 1c
        E 71 b5 02 14
        E 71 b5 02 1b
        E 71 b5 02 4f
        E 71 b5 02 2f
        E 71 b5 02 17
        E 71 b5 02 3a
        E 71 b5 02 64
        E 71 b5 02 00
        E 71 b5 02 0c
        E 71 b5 02 29
        E 71 b5 02 22
        E 71 b5 02 53
        E 71 b5 02 15
        E 71 b5 02 06
        E 71 b5 02 0f
        E 71 b5 02 11
        E 71 b5 02 5b
        E 71 b5 02 19
        E 71 b5 02 00
        E 71 b5 02 4b
        E 71 b5 02 23
        E 71 b5 02 14
        E 71 b5 02 28
        E 71 b5 02 1a
        E 71 b5 02 56
        E 71 b5 02 55
        E 71 b5 02 65
        E 71 b5 02 54
        E 71 b5 02 2b
        E 71 b5 02 5e
        E 71 b5 02 48
        E 71 b5 02 0b
        E 71 b5 02 2c
        E 71 b5 02 36
        E 71 b5 02 60
        E 71 b5 02 4d
        E 71 b5 02 37
        E 71 b5 02 38
        E 71 b5 02 04
        E 71 b5 02 0a
        E 71 b5 02 5d
        E 71 b5 02 51
        E 71 b5 02 2b
        E 71 b5 02 1f
        E 71 b5 02 0d
        E 71 b5 02 2d
        E 71 b5 02 1e
        E 71 b5 02 18
        E 71 b5 02 26
        E 71 b5 02 34
        E 71 b5 02 3d
        E 71 b5 02 41
        E 71 b5 02 10
        E 71 b5 02 3c
        E 71 b5 02 5a
        E 71 b5 02 33
        E 71 b5 02 3b
        E 71 b5 02 02
        E 71 b5 02 07
        E 71 b5 02 63
        E 71 b5 02 42
        E 71 b5 02 12
        E 71 b5 02 5c
        E 71 b5 02 20
        E 71 b5 02 27
        E 71 b5 02 31
        E 71 b5 02 28
        E 71 b5 02 44
        E 71 b5 02 52
        E 71 b5 02 1d
        E 71 b5 02 39
        E 71 b5 02 17
        E 71 b5 02 5b
        E 71 b5 02 54
        E 71 b5 02 2e
        E 71 b5 02 24
        E 71 b5 02 50
        E 71 b5 02 25
        E 71 b5 02 47
        E 71 b5 02 0e
        E 71 b5 02 01
        E 71 b5 02 21
        E 71 b5 02 33
        E 71 b5 02 57
        E 71 b5 02 4e
        E 71 b5 02 03
        E 71 b5 02 57
        E 71 b5 02 4a
        E 71 b5 02 05
        E 71 b5 02 1f
        E 71 b5 02 3b
        E 71 b5 02 4c
        E 71 b5 02 61
        E 71 b5 02 3e
        E 71 b5 02 2a
        E 71 b5 02 1b
        E 71 b5 02 46
        E 71 b5 02 49
        E 71 b5 02 59
        E 71 b5 02 63
        E 71 b5 02 2f
        E 71 b5 02 40
        E 71 b5 02 45
        E 71 b5 02 35
        E 71 b5 02 5f
        E 71 b5 02 0f
        E 71 b5 02 24
        E 71 b5 02 43
        E 15 b5 02 10
        E 15 b5 02 39
        E 15 b5 02 25
        E 15 b5 02 06
        E 15 b5 02 36
        E 15 b5 02 30
        E 15 b5 02 07
        E 15 b5 02 06
        E 15 b5 02 24
        E 15 b5 02 48
        E 15 b5 02 3c
        E 15 b5 02 42
        E 15 b5 02 2f
        E 15 b5 02 08
        E 15 b5 02 0e
        E 15 b5 02 33
        E 15 b5 02 2a
        E 15 b5 02 15
        E 15 b5 02 0f
        E 15 b5 02 14
        E 15 b5 02 3b
        E 15 b5 02 23
        E 15 b5 02 12
        E 15 b5 02 2b
        E 15 b5 02 4b
        E 15 b5 02 00
        E 15 b5 02 09
        E 15 b5 02 1f
        E 15 b5 02 19
        E 15 b5 02 3e
        E 15 b5 02 10
        E 15 b5 02 04
        E 15 b5 02 0c
        E 15 b5 02 0d
        E 15 b5 02 45
        E 15 b5 02 13
        E 15 b5 02 00
        E 15 b5 02 38
        E 15 b5 02 1a
        E 15 b5 02 0f
        E 15 b5 02 1e
        E 15 b5 02 13
        E 15 b5 02 40
        E 15 b5 02 40
        E 15 b5 02 4c
        E 15 b5 02 3f
        E 15 b5 02 21
        E 15 b5 02 46
        E 15 b5 02 36
        E 15 b5 02 09
        E 15 b5 02 21
        E 15 b5 02 28
        E 15 b5 02 48
        E 15 b5 02 3a
        E 15 b5 02 29
        E 15 b5 02 2a
        E 15 b5 02 03
        E 15 b5 02 07
        E 15 b5 02 46
        E 15 b5 02 3d
        E 15 b5 02 20
        E 15 b5 02 18
        E 15 b5 02 0a
        E 15 b5 02 22
        E 15 b5 02 16
        E 15 b5 02 12
        E 15 b5 02 1c
        E 15 b5 02 27
        E 15 b5 02 2e
        E 15 b5 02 31
        E 15 b5 02 0c
        E 15 b5 02 2d
        E 15 b5 02 43
        E 15 b5 02 27
        E 15 b5 02 2c
        E 15 b5 02 01
        E 15 b5 02 05
        E 15 b5 02 4b
        E 15 b5 02 31
        E 15 b5 02 0d
        E 15 b5 02 45
        E 15 b5 02 18
        E 15 b5 02 1d
        E 15 b5 02 25
        E 15 b5 02 1e
        E 15 b5 02 33
        E 15 b5 02 3d
        E 15 b5 02 16
        E 15 b5 02 2b
        E 15 b5 02 11
        E 15 b5 02 44
        E 15 b5 02 3f
        E 15 b5 02 22
        E 15 b5 02 1b
        E 15 b5 02 3c
        E 15 b5 02 1c
        E 15 b5 02 35
        E 15 b5 02 0a
        E 15 b5 02 01
        E 15 b5 02 19
        E 15 b5 02 26
        E 15 b5 02 41
        E 15 b5 02 3a
        E 15 b5 02 02
        E 15 b5 02 42
        E 15 b5 02 37
        E 15 b5 02 04
        E 15 b5 02 17
        E 15 b5 02 2d
        E 15 b5 02 39
        E 15 b5 02 49
        E 15 b5 02 2e
        E 15 b5 02 1f
        E 15 b5 02 15
        E 15 b5 02 34
        E 15 b5 02 37
        E 15 b5 02 43
        E 15 b5 02 4a
        E 15 b5 02 24
        E 15 b5 02 30
        E 15 b5 02 34
        E 15 b5 02 28
        E 15 b5 02 47
        E 15 b5 02 0b
        E 15 b5 02 1b
        E 15 b5 02 32
        E 71 b5 02 0b
        E 71 b5 02 26
        E 71 b5 02 19
        E 71 b5 02 04
        E 71 b5 02 24
        E 71 b5 02 20
        E 71 b5 02 04
        E 71 b5 02 04
        E 71 b5 02 18
        E 71 b5 02 30
        E 71 b5 02 28
        E 71 b5 02 2c
        E 71 b5 02 1f
        E 71 b5 02 05
        E 71 b5 02 09
        E 71 b5 02 22
        E 71 b5 02 1c
        E 71 b5 02 0e
        E 71 b5 02 0a
        E 71 b5 02 0d
        E 71 b5 02 27
        E 71 b5 02 17
        E 71 b5 02 0c
        E 71 b5 02 1d
        E 71 b5 02 32
        E 71 b5 02 00
        E 71 b5 02 06
        E 71 b5 02 14
        E 71 b5 02 11
        E 71 b5 02 29
        E 71 b5 02 0a
        E 71 b5 02 03
        E 71 b5 02 08
        E 71 b5 02 08
        E 71 b5 02 2e
        E 71 b5 02 0c
        E 71 b5 02 00
        E 71 b5 02 25
        E 71 b5 02 11
        E 71 b5 02 0a
        E 71 b5 02 14
        E 71 b5 02 0d
        E 71 b5 02 2b
        E 71 b5 02 2a
        E 71 b5 02 32
        E 71 b5 02 2a
        E 71 b5 02 16
        E 71 b5 02 2f
        E 71 b5 02 24
        E 71 b5 02 06
        E 71 b5 02 16
        E 71 b5 02 1b
        E 71 b5 02 30
        E 71 b5 02 26
        E 71 b5 02 1b
        E 71 b5 02 1c
        E 71 b5 02 02
        E 71 b5 02 05
        E 71 b5 02 2e
        E 71 b5 02 28
        E 71 b5 02 15
        E 71 b5 02 10
        E 71 b5 02 06
        E 71 b5 02 16
        E 71 b5 02 0f
        E 71 b5 02 0c
        E 71 b5 02 13
        E 71 b5 02 1a
        E 71 b5 02 1e
        E 71 b5 02 20
        E 71 b5 02 08
        E 71 b5 02 1e
        E 71 b5 02 2d
        E 71 b5 02 1a
        E 71 b5 02 1d
        E 71 b5 02 01
        E 71 b5 02 03
        E 71 b5 02 32
        E 71 b5 02 21
        E 71 b5 02 09
        E 71 b5 02 2e
        E 71 b5 02 10
        E 71 b5 02 13
        E 71 b5 02 18
        E 71 b5 02 14
        E 71 b5 02 22
        E 71 b5 02 29
        E 71 b5 02 0e
        E 71 b5 02 1c
        E 71 b5 02 0b
        E 71 b5 02 2d
        E 71 b5 02 2a
        E 71 b5 02 17
        E 71 b5 02 12
        E 71 b5 02 28
        E 71 b5 02 12
        E 71 b5 02 23
        E 71 b5 02 07
        E 71 b5 02 00
        E 71 b5 02 10
        E 71 b5 02 19
        E 71 b5 02 2b
        E 71 b5 02 27
        E 71 b5 02 01
        E 71 b5 02 2c
        E 71 b5 02 25
        E 71 b5 02 02
        E 71 b5 02 0f
        E 71 b5 02 1e
        E 71 b5 02 26
        E 71 b5 02 30
        E 71 b5 02 1f
        E 71 b5 02 15
        E 71 b5 02 0e
        E 71 b5 02 23
        E 71 b5 02 24
        E 71 b5 02 2c
        E 71 b5 02 31
        E 71 b5 02 18
        E 71 b5 02 20
        E 71 b5 02 22
        E 71 b5 02 1a
        E 71 b5 02 2f
        E 71 b5 02 07
        E 71 b5 02 12
        E 71 b5 02 21
        E 39 b5 02 13
        E 39 b5 02 43
        E 39 b5 02 2c
        E 39 b5 02 07
        E 39 b5 02 3e
        E 39 b5 02 38
        E 39 b5 02 08
        E 39 b5 02 07
        E 39 b5 02 2a
        E 39 b5 02 54
        E 39 b5 02 46
        E 39 b5 02 4d
        E 39 b5 02 37
        E 39 b5 02 09
        E 39 b5 02 10
        E 39 b5 02 3c
        E 39 b5 02 31
        E 39 b5 02 19
        E 39 b5 02 11
        E 39 b5 02 17
        E 39 b5 02 45
        E 39 b5 02 29
        E 39 b5 02 15
        E 39 b5 02 33
        E 39 b5 02 58
        E 39 b5 02 00
        E 39 b5 02 0b
        E 39 b5 02 24
        E 39 b5 02 1e
        E 39 b5 02 48
        E 39 b5 02 12
        E 39 b5 02 05
        E 39 b5 02 0e
        E 39 b5 02 0f
        E 39 b5 02 50
        E 39 b5 02 16
        E 39 b5 02 00
        E 39 b5 02 41
        E 39 b5 02 1e
        E 39 b5 02 12
        E 39 b5 02 23
        E 39 b5 02 17
        E 39 b5 02 4b
        E 39 b5 02 4a
        E 39 b5 02 58
        E 39 b5 02 4a
        E 39 b5 02 26
        E 39 b5 02 52
        E 39 b5 02 3f
        E 39 b5 02 0a
        E 39 b5 02 27
        E 39 b5 02 2f
        E 39 b5 02 54
        E 39 b5 02 43
        E 39 b5 02 30
        E 39 b5 02 31
        E 39 b5 02 04
        E 39 b5 02 09
        E 39 b5 02 51
        E 39 b5 02 47
        E 39 b5 02 25
        E 39 b5 02 1c
        E 39 b5 02 0b
        E 39 b5 02 27
        E 39 b5 02 1a
        E 39 b5 02 15
        E 39 b5 02 21
        E 39 b5 02 2e
        E 39 b5 02 35
        E 39 b5 02 39
        E 39 b5 02 0e
        E 39 b5 02 35
        E 39 b5 02 4f
        E 39 b5 02 2d
        E 39 b5 02 33
        E 39 b5 02 02
        E 39 b5 02 06
        E 39 b5 02 57
        E 39 b5 02 3a
        E 39 b5 02 10
        E 39 b5 02 51
        E 39 b5 02 1c
        E 39 b5 02 22
        E 39 b5 02 2b
        E 39 b5 02 23
        E 39 b5 02 3b
        E 39 b5 02 48
        E 39 b5 02 19
        E 39 b5 02 32
        E 39 b5 02 14
        E 39 b5 02 4f
        E 39 b5 02 49
        E 39 b5 02 28
        E 39 b5 02 20
        E 39 b5 02 46
        E 39 b5 02 20
        E 39 b5 02 3e
        E 39 b5 02 0c
        E 39 b5 02 01
        E 39 b5 02 1d
        E 39 b5 02 2c
        E 39 b5 02 4c
        E 39 b5 02 44
        E 39 b5 02 02
        E 39 b5 02 4d
        E 39 b5 02 41
        E 39 b5 02 04
        E 39 b5 02 1b
        E 39 b5 02 34
        E 39 b5 02 42
        E 39 b5 02 55
        E 39 b5 02 36
        E 39 b5 02 25
        E 39 b5 02 18
        E 39 b5 02 3d
        E 39 b5 02 40
        E 39 b5 02 4e
        E 39 b5 02 56
        E 39 b5 02 2a
        E 39 b5 02 38
        E 39 b5 02 3c
        E 39 b5 02 2e
        E 39 b5 02 53
        E 39 b5 02 0d
        E 39 b5 02 1f
        E 39 b5 02 3a
        E 7 b5 02 0b
        E 7 b5 02 26
        E 7 b5 02 19
        E 7 b5 02 04
        E 7 b5 02 24
        E 7 b5 02 20
        E 7 b5 02 04
        E 7 b5 02 04
        E 7 b5 02 18
        E 7 b5 02 30
        E 7 b5 02 28
        E 7 b5 02 2c
        E 7 b5 02 1f
        E 7 b5 02 05
        E 7 b5 02 09
        E 7 b5 02 22
        E 7 b5 02 1c
        E 7 b5 02 0e
        E 7 b5 02 0a
        E 7 b5 02 0d
        E 7 b5 02 27
        E 7 b5 02 17
        E 7 b5 02 0c
        E 7 b5 02 1d
        E 7 b5 02 32
        E 7 b5 02 00
        E 7 b5 02 06
        E 7 b5 02 14
        E 7 b5 02 11
        E 7 b5 02 29
        E 7 b5 02 0a
        E 7 b5 02 03
        E 7 b5 02 08
        E 7 b5 02 08
        E 7 b5 02 2e
        E 7 b5 02 0c
        E 7 b5 02 00
        E 7 b5 02 25
        E 7 b5 02 11
        E 7 b5 02 0a
        E 7 b5 02 14
        E 7 b5 02 0d
        E 7 b5 02 2b
        E 7 b5 02 2a
        E 7 b5 02 32
        E 7 b5 02 2a
        E 7 b5 02 16
        E 7 b5 02 2f
        E 7 b5 02 24
        E 7 b5 02 06
        E 7 b5 02 16
        E 7 b5 02 1b
        E 7 b5 02 30
        E 7 b5 02 26
        E 7 b5 02 1b
        E 7 b5 02 1c
        E 7 b5 02 02
        E 7 b5 02 05
        E 7 b5 02 2e
        E 7 b5 02 28
        E 7 b5 02 15
        E 7 b5 02 10
        E 7 b5 02 06
        E 7 b5 02 16
        E 7 b5 02 0f
        E 7 b5 02 0c
        E 7 b5 02 13
        E 7 b5 02 1a
        E 7 b5 02 1e
        E 7 b5 02 20
        E 7 b5 02 08
        E 7 b5 02 1e
        E 7 b5 02 2d
        E 7 b5 02 1a
        E 7 b5 02 1d
        E 7 b5 02 01
        E 7 b5 02 03
        E 7 b5 02 32
        E 7 b5 02 21
        E 7 b5 02 09
        E 7 b5 02 2e
        E 7 b5 02 10
        E 7 b5 02 13
        E 7 b5 02 18
        E 7 b5 02 14
        E 7 b5 02 22
        E 7 b5 02 29
        E 7 b5 02 0e
        E 7 b5 02 1c
        E 7 b5 02 0b
        E 7 b5 02 2d
        E 7 b5 02 2a
        E 7 b5 02 17
        E 7 b5 02 12
        E 7 b5 02 28
        E 7 b5 02 12
        E 7 b5 02 23
        E 7 b5 02 07
        E 7 b5 02 00
        E 7 b5 02 10
        E 7 b5 02 19
        E 7 b5 02 2b
        E 7 b5 02 27
        E 7 b5 02 01
        E 7 b5 02 2c
        E 7 b5 02 25
        E 7 b5 02 02
        E 7 b5 02 0f
        E 7 b5 02 1e
        E 7 b5 02 26
        E 7 b5 02 30
        E 7 b5 02 1f
        E 7 b5 02 15
        E 7 b5 02 0e
        E 7 b5 02 23
        E 7 b5 02 24
        E 7 b5 02 2c
        E 7 b5 02 31
        E 7 b5 02 18
        E 7 b5 02 20
        E 7 b5 02 22
        E 7 b5 02 1a
        E 7 b5 02 2f
        E 7 b5 02 07
        E 7 b5 02 12
        E 7 b5 02 21
        E 23 b5 02 16
        E 23 b5 02 4c
        E 23 b5 02 32
        E 23 b5 02 07
        E 23 b5 02 48
        E 23 b5 02 3f
        E 23 b5 02 09
        E 23 b5 02 08
        E 23 b5 02 30
        E 23 b5 02 5f
        E 23 b5 02 50
        E 23 b5 02 58
        E 23 b5 02 3f
        E 23 b5 02 0b
        E 23 b5 02 13
        E 23 b5 02 44
        E 23 b5 02 37
        E 23 b5 02 1c
        E 23 b5 02 14
        E 23 b5 02 1b
        E 23 b5 02 4f
        E 23 b5 02 2f
        E 23 b5 02 17
        E 23 b5 02 3a
        E 23 b5 02 64
        E 23 b5 02 00
        E 23 b5 02 0c
        E 23 b5 02 29
        E 23 b5 02 22
        E 23 b5 02 53
        E 23 b5 02 15
        E 23 b5 02 06
        E 23 b5 02 0f
        E 23 b5 02 11
        E 23 b5 02 5b
        E 23 b5 02 19
        E 23 b5 02 00
        E 23 b5 02 4b
        E 23 b5 02 23
        E 23 b5 02 14
        E 23 b5 02 28
        E 23 b5 02 1a
        E 23 b5 02 56
        E 23 b5 02 55
        E 23 b5 02 65
        E 23 b5 02 54
        E 23 b5 02 2b
        E 23 b5 02 5e
        E 23 b5 02 48
        E 23 b5 02 0b
        E 23 b5 02 2c
        E 23 b5 02 36
        E 23 b5 02 60
        E 23 b5 02 4d
        E 23 b5 02 37
        E 23 b5 02 38
        E 23 b5 02 04
        E 23 b5 02 0a
        E 23 b5 02 5d
        E 23 b5 02 51
        E 23 b5 02 2b
        E 23 b5 02 1f
        E 23 b5 02 0d
        E 23 b5 02 2d
        E 23 b5 02 1e
        E 23 b5 02 18
        E 23 b5 02 26
        E 23 b5 02 34
        E 23 b5 02 3d
        E 23 b5 02 41
        E 23 b5 02 10
        E 23 b5 02 3c
        E 23 b5 02 5a
        E 23 b5 02 33
        E 23 b5 02 3b
        E 23 b5 02 02
        E 23 b5 02 07
        E 23 b5 02 63
        E 23 b5 02 42
        E 23 b5 02 12
        E 23 b5 02 5c
        E 23 b5 02 20
        E 23 b5 02 27
        E 23 b5 02 31
        E 23 b5 02 28
        E 23 b5 02 44
        E 23 b5 02 52
        E 23 b5 02 1d
        E 23 b5 02 39
        E 23 b5 02 17
        E 23 b5 02 5b
        E 23 b5 02 54
        E 23 b5 02 2e
        E 23 b5 02 24
        E 23 b5 02 50
        E 23 b5 02 25
        E 23 b5 02 47
        E 23 b5 02 0e
        E 23 b5 02 01
        E 23 b5 02 21
        E 23 b5 02 33
        E 23 b5 02 57
        E 23 b5 02 4e
        E 23 b5 02 03
        E 23 b5 02 57
        E 23 b5 02 4a
        E 23 b5 02 05
        E 23 b5 02 1f
        E 23 b5 02 3b
        E 23 b5 02 4c
        E 23 b5 02 61
        E 23 b5 02 3e
        E 23 b5 02 2a
        E 23 b5 02 1b
        E 23 b5 02 46
        E 23 b5 02 49
        E 23 b5 02 59
        E 23 b5 02 63
        E 23 b5 02 2f
        E 23 b5 02 40
        E 23 b5 02 45
        E 23 b5 02 35
        E 23 b5 02 5f
        E 23 b5 02 0f
        E 23 b5 02 24
        E 23 b5 02 43
        E 71 b5 02 16
        E 71 b5 02 4c
        E 71 b5 02 32
        E 71 b5 02 07
        E 71 b5 02 48
        E 71 b5 02 3f
        E 71 b5 02 09
        E 71 b5 02 08
        E 71 b5 02 30
        E 71 b5 02 5f
        E 71 b5 02 50
        E 71 b5 02 58
        E 71 b5 02 3f
        E 71 b5 02 0b
        E 71 b5 02 13
        E 71 b5 02 44
        E 71 b5 02 37
        E 71 b5 02 1c
        E 71 b5 02 14
        E 71 b5 02 1b
        E 71 b5 02 4f
        E 71 b5 02 2f
        E 71 b5 02 17
        E 71 b5 02 3a
        E 71 b5 02 64
        E 71 b5 02 00
        E 71 b5 02 0c
        E 71 b5 02 29
        E 71 b5 02 22
        E 71 b5 02 53
        E 71 b5 02 15
        E 71 b5 02 06
        E 71 b5 02 0f
        E 71 b5 02 11
        E 71 b5 02 5b
        E 71 b5 02 19
        E 71 b5 02 00
        E 71 b5 02 4b
        E 71 b5 02 23
        E 71 b5 02 14
        E 71 b5 02 28
        E 71 b5 02 1a
        E 71 b5 02 56
        E 71 b5 02 55
        E 71 b5 02 65
        E 71 b5 02 54
        E 71 b5 02 2b
        E 71 b5 02 5e
        E 71 b5 02 48
        E 71 b5 02 0b
        E 71 b5 02 2c
        E 71 b5 02 36
        E 71 b5 02 60
        E 71 b5 02 4d
        E 71 b5 02 37
        E 71 b5 02 38
        E 71 b5 02 04
        E 71 b5 02 0a
        E 71 b5 02 5d
        E 71 b5 02 51
        E 71 b5 02 2b
        E 71 b5 02 1f
        E 71 b5 02 0d
        E 71 b5 02 2d
        E 71 b5 02 1e
        E 71 b5 02 18
        E 71 b5 02 26
        E 71 b5 02 34
        E 71 b5 02 3d
        E 71 b5 02 41
        E 71 b5 02 10
        E 71 b5 02 3c
        E 71 b5 02 5a
        E 71 b5 02 33
        E 71 b5 02 3b
        E 71 b5 02 02
        E 71 b5 02 07
        E 71 b5 02 63
        E 71 b5 02 42
        E 71 b5 02 12
        E 71 b5 02 5c
        E 71 b5 02 20
        E 71 b5 02 27
        E 71 b5 02 31
        E 71 b5 02 28
        E 71 b5 02 44
        E 71 b5 02 52
        E 71 b5 02 1d
        E 71 b5 02 39
        E 71 b5 02 17
        E 71 b5 02 5b
        E 71 b5 02 54
        E 71 b5 02 2e
        E 71 b5 02 24
        E 71 b5 02 50
        E 71 b5 02 25
        E 71 b5 02 47
        E 71 b5 02 0e
        E 71 b5 02 01
        E 71 b5 02 21
        E 71 b5 02 33
        E 71 b5 02 57
        E 71 b5 02 4e
        E 71 b5 02 03
        E 71 b5 02 57
        E 71 b5 02 4a
        E 71 b5 02 05
        E 71 b5 02 1f
        E 71 b5 02 3b
        E 71 b5 02 4c
        E 71 b5 02 61
        E 71 b5 02 3e
        E 71 b5 02 2a
        E 71 b5 02 1b
        E 71 b5 02 46
        E 71 b5 02 49
        E 71 b5 02 59
        E 71 b5 02 63
        E 71 b5 02 2f
        E 71 b5 02 40
        E 71 b5 02 45
        E 71 b5 02 35
        E 71 b5 02 5f
        E 71 b5 02 0f
        E 71 b5 02 24
        E 71 b5 02 43
        E 15 b5 02 10
        E 15 b5 02 39
        E 15 b5 02 25
        E 15 b5 02 06
        E 15 b5 02 36
        E 15 b5 02 30
        E 15 b5 02 07
        E 15 b5 02 06
        E 15 b5 02 24
        E 15 b5 02 48
        E 15 b5 02 3c
        E 15 b5 02 42
        E 15 b5 02 2f
        E 15 b5 02 08
        E 15 b5 02 0e
        E 15 b5 02 33
        E 15 b5 02 2a
        E 15 b5 02 15
        E 15 b5 02 0f
        E 15 b5 02 14
        E 15 b5 02 3b
        E 15 b5 02 23
        E 15 b5 02 12
        E 15 b5 02 2b
        E 15 b5 02 4b
        E 15 b5 02 00
        E 15 b5 02 09
        E 15 b5 02 1f
        E 15 b5 02 19
        E 15 b5 02 3e
        E 15 b5 02 10
        E 15 b5 02 04
        E 15 b5 02 0c
        E 15 b5 02 0d
        E 15 b5 02 45
        E 15 b5 02 13
        E 15 b5 02 00
        E 15 b5 02 38
        E 15 b5 02 1a
        E 15 b5 02 0f
        E 15 b5 02 1e
        E 15 b5 02 13
        E 15 b5 02 40
        E 15 b5 02 40
        E 15 b5 02 4c
        E 15 b5 02 3f
        E 15 b5 02 21
        E 15 b5 02 46
        E 15 b5 02 36
        E 15 b5 02 09
        E 15 b5 02 21
        E 15 b5 02 28
        E 15 b5 02 48
        E 15 b5 02 3a
        E 15 b5 02 29
        E 15 b5 02 2a
        E 15 b5 02 03
        E 15 b5 02 07
        E 15 b5 02 46
        E 15 b5 02 3d
        E 15 b5 02 20
        E 15 b5 02 18
        E 15 b5 02 0a
        E 15 b5 02 22
        E 15 b5 02 16
        E 15 b5 02 12
        E 15 b5 02 1c
        E 15 b5 02 27
        E 15 b5 02 2e
        E 15 b5 02 31
        E 15 b5 02 0c
        E 15 b5 02 2d
        E 15 b5 02 43
        E 15 b5 02 27
        E 15 b5 02 2c
        E 15 b5 02 01
        E 15 b5 02 05
        E 15 b5 02 4b
        E 15 b5 02 31
        E 15 b5 02 0d
        E 15 b5 02 45
        E 15 b5 02 18
        E 15 b5 02 1d
        E 15 b5 02 25
        E 15 b5 02 1e
        E 15 b5 02 33
        E 15 b5 02 3d
        E 15 b5 02 16
        E 15 b5 02 2b
        E 15 b5 02 11
        E 15 b5 02 44
        E 15 b5 02 3f
        E 15 b5 02 22
        E 15 b5 02 1b
        E 15 b5 02 3c
        E 15 b5 02 1c
        E 15 b5 02 35
        E 15 b5 02 0a
        E 15 b5 02 01
        E 15 b5 02 19
        E 15 b5 02 26
        E 15 b5 02 41
        E 15 b5 02 3a
        E 15 b5 02 02
        E 15 b5 02 42
        E 15 b5 02 37
        E 15 b5 02 04
        E 15 b5 02 17
        E 15 b5 02 2d
        E 15 b5 02 39
        E 15 b5 02 49
        E 15 b5 02 2e
        E 15 b5 02 1f
        E 15 b5 02 15
        E 15 b5 02 34
        E 15 b5 02 37
        E 15 b5 02 43
        E 15 b5 02 4a
        E 15 b5 02 24
        E 15 b5 02 30
        E 15 b5 02 34
        E 15 b5 02 28
        E 15 b5 02 47
        E 15 b5 02 0b
        E 15 b5 02 1b
        E 15 b5 02 32
        E 7 b5 02 0b
        E 7 b5 02 26
        E 7 b5 02 19
        E 7 b5 02 04
        E 7 b5 02 24
        E 7 b5 02 20
        E 7 b5 02 04
        E 7 b5 02 04
        E 7 b5 02 18
        E 7 b5 02 30
        E 7 b5 02 28
        E 7 b5 02 2c
        E 7 b5 02 1f
        E 7 b5 02 05
        E 7 b5 02 09
        E 7 b5 02 22
        E 7 b5 02 1c
        E 7 b5 02 0e
        E 7 b5 02 0a
        E 7 b5 02 0d
        E 7 b5 02 27
        E 7 b5 02 17
        E 7 b5 02 0c
        E 7 b5 02 1d
        E 7 b5 02 32
        E 7 b5 02 00
        E 7 b5 02 06
        E 7 b5 02 14
        E 7 b5 02 11
        E 7 b5 02 29
        E 7 b5 02 0a
        E 7 b5 02 03
        E 7 b5 02 08
        E 7 b5 02 08
        E 7 b5 02 2e
        E 7 b5 02 0c
        E 7 b5 02 00
        E 7 b5 02 25
        E 7 b5 02 11
        E 7 b5 02 0a
        E 7 b5 02 14
        E 7 b5 02 0d
        E 7 b5 02 2b
        E 7 b5 02 2a
        E 7 b5 02 32
        E 7 b5 02 2a
        E 7 b5 02 16
        E 7 b5 02 2f
        E 7 b5 02 24
        E 7 b5 02 06
        E 7 b5 02 16
        E 7 b5 02 1b
        E 7 b5 02 30
        E 7 b5 02 26
        E 7 b5 02 1b
        E 7 b5 02 1c
        E 7 b5 02 02
        E 7 b5 02 05
        E 7 b5 02 2e
        E 7 b5 02 28
        E 7 b5 02 15
        E 7 b5 02 10
        E 7 b5 02 06
        E 7 b5 02 16
        E 7 b5 02 0f
        E 7 b5 02 0c
        E 7 b5 02 13
        E 7 b5 02 1a
        E 7 b5 02 1e
        E 7 b5 02 20
        E 7 b5 02 08
        E 7 b5 02 1e
        E 7 b5 02 2d
        E 7 b5 02 1a
        E 7 b5 02 1d
        E 7 b5 02 01
        E 7 b5 02 03
        E 7 b5 02 32
        E 7 b5 02 21
        E 7 b5 02 09
        E 7 b5 02 2e
        E 7 b5 02 10
        E 7 b5 02 13
        E 7 b5 02 18
        E 7 b5 02 14
        E 7 b5 02 22
        E 7 b5 02 29
        E 7 b5 02 0e
        E 7 b5 02 1c
        E 7 b5 02 0b
        E 7 b5 02 2d
        E 7 b5 02 2a
        E 7 b5 02 17
        E 7 b5 02 12
        E 7 b5 02 28
        E 7 b5 02 12
        E 7 b5 02 23
        E 7 b5 02 07
        E 7 b5 02 00
        E 7 b5 02 10
        E 7 b5 02 19
        E 7 b5 02 2b
        E 7 b5 02 27
        E 7 b5 02 01
        E 7 b5 02 2c
        E 7 b5 02 25
        E 7 b5 02 02
        E 7 b5 02 0f
        E 7 b5 02 1e
        E 7 b5 02 26
        E 7 b5 02 30
        E 7 b5 02 1f
        E 7 b5 02 15
        E 7 b5 02 0e
        E 7 b5 02 23
        E 7 b5 02 24
        E 7 b5 02 2c
        E 7 b5 02 31
        E 7 b5 02 18
        E 7 b5 02 20
        E 7 b5 02 22
        E 7 b5 02 1a
        E 7 b5 02 2f
        E 7 b5 02 07
        E 7 b5 02 12
        E 7 b5 02 21
        E 23 b5 02 16
        E 23 b5 02 4c
        E 23 b5 02 32
        E 23 b5 02 07
        E 23 b5 02 48
        E 23 b5 02 3f
        E 23 b5 02 09
        E 23 b5 02 08
        E 23 b5 02 30
        E 23 b5 02 5f
        E 23 b5 02 50
        E 23 b5 02 58
        E 23 b5 02 3f
        E 23 b5 02 0b
        E 23 b5 02 13
        E 23 b5 02 44
        E 23 b5 02 37
        E 23 b5 02 1c
        E 23 b5 02 14
        E 23 b5 02 1b
        E 23 b5 02 4f
        E 23 b5 02 2f
        E 23 b5 02 17
        E 23 b5 02 3a
        E 23 b5 02 64
        E 23 b5 02 00
        E 23 b5 02 0c
        E 23 b5 02 29
        E 23 b5 02 22
        E 23 b5 02 53
        E 23 b5 02 15
        E 23 b5 02 06
        E 23 b5 02 0f
        E 23 b5 02 11
        E 23 b5 02 5b
        E 23 b5 02 19
        E 23 b5 02 00
        E 23 b5 02 4b
        E 23 b5 02 23
        E 23 b5 02 14
        E 23 b5 02 28
        E 23 b5 02 1a
        E 23 b5 02 56
        E 23 b5 02 55
        E 23 b5 02 65
        E 23 b5 02 54
        E 23 b5 02 2b
        E 23 b5 02 5e
        E 23 b5 02 48
        E 23 b5 02 0b
        E 23 b5 02 2c
        E 23 b5 02 36
        E 23 b5 02 60
        E 23 b5 02 4d
        E 23 b5 02 37
        E 23 b5 02 38
        E 23 b5 02 04
        E 23 b5 02 0a
        E 23 b5 02 5d
        E 23 b5 02 51
        E 23 b5 02 2b
        E 23 b5 02 1f
        E 23 b5 02 0d
        E 23 b5 02 2d
        E 23 b5 02 1e
        E 23 b5 02 18
        E 23 b5 02 26
        E 23 b5 02 34
        E 23 b5 02 3d
        E 23 b5 02 41
        E 23 b5 02 10
        E 23 b5 02 3c
        E 23 b5 02 5a
        E 23 b5 02 33
        E 23 b5 02 3b
        E 23 b5 02 02
        E 23 b5 02 07
        E 23 b5 02 63
        E 23 b5 02 42
        E 23 b5 02 12
        E 23 b5 02 5c
        E 23 b5 02 20
        E 23 b5 02 27
        E 23 b5 02 31
        E 23 b5 02 28
        E 23 b5 02 44
        E 23 b5 02 52
        E 23 b5 02 1d
        E 23 b5 02 39
        E 23 b5 02 17
        E 23 b5 02 5b
        E 23 b5 02 54
        E 23 b5 02 2e
        E 23 b5 02 24
        E 23 b5 02 50
        E 23 b5 02 25
        E 23 b5 02 47
        E 23 b5 02 0e
        E 23 b5 02 01
        E 23 b5 02 21
        E 23 b5 02 33
        E 23 b5 02 57
        E 23 b5 02 4e
        E 23 b5 02 03
        E 23 b5 02 57
        E 23 b5 02 4a
        E 23 b5 02 05
        E 23 b5 02 1f
        E 23 b5 02 3b
        E 23 b5 02 4c
        E 23 b5 02 61
        E 23 b5 02 3e
        E 23 b5 02 2a
        E 23 b5 02 1b
        E 23 b5 02 46
        E 23 b5 02 49
        E 23 b5 02 59
        E 23 b5 02 63
        E 23 b5 02 2f
        E 23 b5 02 40
        E 23 b5 02 45
        E 23 b5 02 35
        E 23 b5 02 5f
        E 23 b5 02 0f
        E 23 b5 02 24
        E 23 b5 02 43
        E 71 b5 02 16
        E 71 b5 02 4c
        E 71 b5 02 32
        E 71 b5 02 07
        E 71 b5 02 48
        E 71 b5 02 3f
        E 71 b5 02 09
        E 71 b5 02 08
        E 71 b5 02 30
        E 71 b5 02 5f
        E 71 b5 02 50
        E 71 b5 02 58
        E 71 b5 02 3f
        E 71 b5 02 0b
        E 71 b5 02 13
        E 71 b5 02 44
        E 71 b5 02 37
        E 71 b5 02 1c
        E 71 b5 02 14
        E 71 b5 02 1b
        E 71 b5 02 4f
        E 71 b5 02 2f
        E 71 b5 02 17
        E 71 b5 02 3a
        E 71 b5 02 64
        E 71 b5 02 00
        E 71 b5 02 0c
        E 71 b5 02 29
        E 71 b5 02 22
        E 71 b5 02 53
        E 71 b5 02 15
        E 71 b5 02 06
        E 71 b5 02 0f
        E 71 b5 02 11
        E 71 b5 02 5b
        E 71 b5 02 19
        E 71 b5 02 00
        E 71 b5 02 4b
        E 71 b5 02 23
        E 71 b5 02 14
        E 71 b5 02 28
        E 71 b5 02 1a
        E 71 b5 02 56
        E 71 b5 02 55
        E 71 b5 02 65
        E 71 b5 02 54
        E 71 b5 02 2b
        E 71 b5 02 5e
        E 71 b5 02 48
        E 71 b5 02 0b
        E 71 b5 02 2c
        E 71 b5 02 36
        E 71 b5 02 60
        E 71 b5 02 4d
        E 71 b5 02 37
        E 71 b5 02 38
        E 71 b5 02 04
        E 71 b5 02 0a
        E 71 b5 02 5d
        E 71 b5 02 51
        E 71 b5 02 2b
        E 71 b5 02 1f
        E 71 b5 02 0d
        E 71 b5 02 2d
        E 71 b5 02 1e
        E 71 b5 02 18
        E 71 b5 02 26
        E 71 b5 02 34
        E 71 b5 02 3d
        E 71 b5 02 41
        E 71 b5 02 10
        E 71 b5 02 3c
        E 71 b5 02 5a
        E 71 b5 02 33
        E 71 b5 02 3b
        E 71 b5 02 02
        E 71 b5 02 07
        E 71 b5 02 63
        E 71 b5 02 42
        E 71 b5 02 12
        E 71 b5 02 5c
        E 71 b5 02 20
        E 71 b5 02 27
        E 71 b5 02 31
        E 71 b5 02 28
        E 71 b5 02 44
        E 71 b5 02 52
        E 71 b5 02 1d
        E 71 b5 02 39
        E 71 b5 02 17
        E 71 b5 02 5b
        E 71 b5 02 54
        E 71 b5 02 2e
        E 71 b5 02 24
        E 71 b5 02 50
        E 71 b5 02 25
        E 71 b5 02 47
        E 71 b5 02 0e
        E 71 b5 02 01
        E 71 b5 02 21
        E 71 b5 02 33
        E 71 b5 02 57
        E 71 b5 02 4e
        E 71 b5 02 03
        E 71 b5 02 57
        E 71 b5 02 4a
        E 71 b5 02 05
        E 71 b5 02 1f
        E 71 b5 02 3b
        E 71 b5 02 4c
        E 71 b5 02 61
        E 71 b5 02 3e
        E 71 b5 02 2a
        E 71 b5 02 1b
        E 71 b5 02 46
        E 71 b5 02 49
        E 71 b5 02 59
        E 71 b5 02 63
        E 71 b5 02 2f
        E 71 b5 02 40
        E 71 b5 02 45
        E 71 b5 02 35
        E 71 b5 02 5f
        E 71 b5 02 0f
        E 71 b5 02 24
        E 71 b5 02 43
        E 15 b5 02 10
        E 15 b5 02 39
        E 15 b5 02 25
        E 15 b5 02 06
        E 15 b5 02 36
        E 15 b5 02 30
        E 15 b5 02 07
        E 15 b5 02 06
        E 15 b5 02 24
        E 15 b5 02 48
        E 15 b5 02 3c
        E 15 b5 02 42
        E 15 b5 02 2f
        E 15 b5 02 08
        E 15 b5 02 0e
        E 15 b5 02 33
        E 15 b5 02 2a
        E 15 b5 02 15
        E 15 b5 02 0f
        E 15 b5 02 14
        E 15 b5 02 3b
        E 15 b5 02 23
        E 15 b5 02 12
        E 15 b5 02 2b
        E 15 b5 02 4b
        E 15 b5 02 00
        E 15 b5 02 09
        E 15 b5 02 1f
        E 15 b5 02 19
        E 15 b5 02 3e
        E 15 b5 02 10
        E 15 b5 02 04
        E 15 b5 02 0c
        E 15 b5 02 0d
        E 15 b5 02 45
        E 15 b5 02 13
        E 15 b5 02 00
        E 15 b5 02 38
        E 15 b5 02 1a
        E 15 b5 02 0f
        E 15 b5 02 1e
        E 15 b5 02 13
        E 15 b5 02 40
        E 15 b5 02 40
        E 15 b5 02 4c
        E 15 b5 02 3f
        E 15 b5 02 21
        E 15 b5 02 46
        E 15 b5 02 36
        E 15 b5 02 09
        E 15 b5 02 21
        E 15 b5 02 28
        E 15 b5 02 48
        E 15 b5 02 3a
        E 15 b5 02 29
        E 15 b5 02 2a
        E 15 b5 02 03
        E 15 b5 02 07
        E 15 b5 02 46
        E 15 b5 02 3d
        E 15 b5 02 20
        E 15 b5 02 18
        E 15 b5 02 0a
        E 15 b5 02 22
        E 15 b5 02 16
        E 15 b5 02 12
        E 15 b5 02 1c
        E 15 b5 02 27
        E 15 b5 02 2e
        E 15 b5 02 31
        E 15 b5 02 0c
        E 15 b5 02 2d
        E 15 b5 02 43
        E 15 b5 02 27
        E 15 b5 02 2c
        E 15 b5 02 01
        E 15 b5 02 05
        E 15 b5 02 4b
        E 15 b5 02 31
        E 15 b5 02 0d
        E 15 b5 02 45
        E 15 b5 02 18
        E 15 b5 02 1d
        E 15 b5 02 25
        E 15 b5 02 1e
        E 15 b5 02 33
        E 15 b5 02 3d
        E 15 b5 02 16
        E 15 b5 02 2b
        E 15 b5 02 11
        E 15 b5 02 44
        E 15 b5 02 3f
        E 15 b5 02 22
        E 15 b5 02 1b
        E 15 b5 02 3c
        E 15 b5 02 1c
        E 15 b5 02 35
        E 15 b5 02 0a
        E 15 b5 02 01
        E 15 b5 02 19
        E 15 b5 02 26
        E 15 b5 02 41
        E 15 b5 02 3a
        E 15 b5 02 02
        E 15 b5 02 42
        E 15 b5 02 37
        E 15 b5 02 04
        E 15 b5 02 17
        E 15 b5 02 2d
        E 15 b5 02 39
        E 15 b5 02 49
        E 15 b5 02 2e
        E 15 b5 02 1f
        E 15 b5 02 15
        E 15 b5 02 34
        E 15 b5 02 37
        E 15 b5 02 43
        E 15 b5 02 4a
        E 15 b5 02 24
        E 15 b5 02 30
        E 15 b5 02 34
        E 15 b5 02 28
        E 15 b5 02 47
        E 15 b5 02 0b
        E 15 b5 02 1b
        E 15 b5 02 32
        E 71 b5 02 0b
        E 71 b5 02 26
        E 71 b5 02 19
        E 71 b5 02 04
        E 71 b5 02 24
        E 71 b5 02 20
        E 71 b5 02 04
        E 71 b5 02 04
        E 71 b5 02 18
        E 71 b5 02 30
        E 71 b5 02 28
        E 71 b5 02 2c
        E 71 b5 02 1f
        E 71 b5 02 05
        E 71 b5 02 09
        E 71 b5 02 22
        E 71 b5 02 1c
        E 71 b5 02 0e
        E 71 b5 02 0a
        E 71 b5 02 0d
        E 71 b5 02 27
        E 71 b5 02 17
        E 71 b5 02 0c
        E 71 b5 02 1d
        E 71 b5 02 32
        E 71 b5 02 00
        E 71 b5 02 06
        E 71 b5 02 14
        E 71 b5 02 11
        E 71 b5 02 29
        E 71 b5 02 0a
        E 71 b5 02 03
        E 71 b5 02 08
        E 71 b5 02 08
        E 71 b5 02 2e
        E 71 b5 02 0c
        E 71 b5 02 00
        E 71 b5 02 25
        E 71 b5 02 11
        E 71 b5 02 0a
        E 71 b5 02 14
        E 71 b5 02 0d
        E 71 b5 02 2b
        E 71 b5 02 2a
        E 71 b5 02 32
        E 71 b5 02 2a
        E 71 b5 02 16
        E 71 b5 02 2f
        E 71 b5 02 24
        E 71 b5 02 06
        E 71 b5 02 16
        E 71 b5 02 1b
        E 71 b5 02 30
        E 71 b5 02 26
        E 71 b5 02 1b
        E 71 b5 02 1c
        E 71 b5 02 02
        E 71 b5 02 05
        E 71 b5 02 2e
        E 71 b5 02 28
        E 71 b5 02 15
        E 71 b5 02 10
        E 71 b5 02 06
        E 71 b5 02 16
        E 71 b5 02 0f
        E 71 b5 02 0c
        E 71 b5 02 13
        E 71 b5 02 1a
        E 71 b5 02 1e
        E 71 b5 02 20
        E 71 b5 02 08
        E 71 b5 02 1e
        E 71 b5 02 2d
        E 71 b5 02 1a
        E 71 b5 02 1d
        E 71 b5 02 01
        E 71 b5 02 03
        E 71 b5 02 32
        E 71 b5 02 21
        E 71 b5 02 09
        E 71 b5 02 2e
        E 71 b5 02 10
        E 71 b5 02 13
        E 71 b5 02 18
        E 71 b5 02 14
        E 71 b5 02 22
        E 71 b5 02 29
        E 71 b5 02 0e
        E 71 b5 02 1c
        E 71 b5 02 0b
        E 71 b5 02 2d
        E 71 b5 02 2a
        E 71 b5 02 17
        E 71 b5 02 12
        E 71 b5 02 28
        E 71 b5 02 12
        E 71 b5 02 23
        E 71 b5 02 07
        E 71 b5 02 00
        E 71 b5 02 10
        E 71 b5 02 19
        E 71 b5 02 2b
        E 71 b5 02 27
        E 71 b5 02 01
        E 71 b5 02 2c
        E 71 b5 02 25
        E 71 b5 02 02
        E 71 b5 02 0f
        E 71 b5 02 1e
        E 71 b5 02 26
        E 71 b5 02 30
        E 71 b5 02 1f
        E 71 b5 02 15
        E 71 b5 02 0e
        E 71 b5 02 23
        E 71 b5 02 24
        E 71 b5 02 2c
        E 71 b5 02 31
        E 71 b5 02 18
        E 71 b5 02 20
        E 71 b5 02 22
        E 71 b5 02 1a
        E 71 b5 02 2f
        E 71 b5 02 07
        E 71 b5 02 12
        E 71 b5 02 21
        E 39 b5 02 13
        E 39 b5 02 43
        E 39 b5 02 2c
        E 39 b5 02 07
        E 39 b5 02 3e
        E 39 b5 02 38
        E 39 b5 02 08
        E 39 b5 02 07
        E 39 b5 02 2a
        E 39 b5 02 54
        E 39 b5 02 46
        E 39 b5 02 4d
        E 39 b5 02 37
        E 39 b5 02 09
        E 39 b5 02 10
        E 39 b5 02 3c
        E 39 b5 02 31
        E 39 b5 02 19
        E 39 b5 02 11
        E 39 b5 02 17
        E 39 b5 02 45
        E 39 b5 02 29
        E 39 b5 02 15
        E 39 b5 02 33
        E 39 b5 02 58
        E 39 b5 02 00
        E 39 b5 02 0b
        E 39 b5 02 24
        E 39 b5 02 1e
        E 39 b5 02 48
        E 39 b5 02 12
        E 39 b5 02 05
        E 39 b5 02 0e
        E 39 b5 02 0f
        E 39 b5 02 50
        E 39 b5 02 16
        E 39 b5 02 00
        E 39 b5 02 41
        E 39 b5 02 1e
        E 39 b5 02 12
        E 39 b5 02 23
        E 39 b5 02 17
        E 39 b5 02 4b
        E 39 b5 02 4a
        E 39 b5 02 58
        E 39 b5 02 4a
        E 39 b5 02 26
        E 39 b5 02 52
        E 39 b5 02 3f
        E 39 b5 02 0a
        E 39 b5 02 27
        E 39 b5 02 2f
        E 39 b5 02 54
        E 39 b5 02 43
        E 39 b5 02 30
        E 39 b5 02 31
        E 39 b5 02 04
        E 39 b5 02 09
        E 39 b5 02 51
        E 39 b5 02 47
        E 39 b5 02 25
        E 39 b5 02 1c
        E 39 b5 02 0b
        E 39 b5 02 27
        E 39 b5 02 1a
        E 39 b5 02 15
        E 39 b5 02 21
        E 39 b5 02 2e
        E 39 b5 02 35
        E 39 b5 02 39
        E 39 b5 02 0e
        E 39 b5 02 35
        E 39 b5 02 4f
        E 39 b5 02 2d
        E 39 b5 02 33
        E 39 b5 02 02
        E 39 b5 02 06
        E 39 b5 02 57
        E 39 b5 02 3a
        E 39 b5 02 10
        E 39 b5 02 51
        E 39 b5 02 1c
        E 39 b5 02 22
        E 39 b5 02 2b
        E 39 b5 02 23
        E 39 b5 02 3b
        E 39 b5 02 48
        E 39 b5 02 19
        E 39 b5 02 32
        E 39 b5 02 14
        E 39 b5 02 4f
        E 39 b5 02 49
        E 39 b5 02 28
        E 39 b5 02 20
        E 39 b5 02 46
        E 39 b5 02 20
        E 39 b5 02 3e
        E 39 b5 02 0c
        E 39 b5 02 01
        E 39 b5 02 1d
        E 39 b5 02 2c
        E 39 b5 02 4c
        E 39 b5 02 44
        E 39 b5 02 02
        E 39 b5 02 4d
        E 39 b5 02 41
        E 39 b5 02 04
        E 39 b5 02 1b
        E 39 b5 02 34
        E 39 b5 02 42
        E 39 b5 02 55
        E 39 b5 02 36
        E 39 b5 02 25
        E 39 b5 02 18
        E 39 b5 02 3d
        E 39 b5 02 40
        E 39 b5 02 4e
        E 39 b5 02 56
        E 39 b5 02 2a
        E 39 b5 02 38
        E 39 b5 02 3c
        E 39 b5 02 2e
        E 39 b5 02 53
        E 39 b5 02 0d
        E 39 b5 02 1f
        E 39 b5 02 3a
        E 7 b5 02 0b
        E 7 b5 02 26
        E 7 b5 02 19
        E 7 b5 02 04
        E 7 b5 02 24
        E 7 b5 02 20
        E 7 b5 02 04
        E 7 b5 02 04
        E 7 b5 02 18
        E 7 b5 02 30
        E 7 b5 02 28
        E 7 b5 02 2c
        E 7 b5 02 1f
        E 7 b5 02 05
        E 7 b5 02 09
        E 7 b5 02 22
        E 7 b5 02 1c
        E 7 b5 02 0e
        E 7 b5 02 0a
        E 7 b5 02 0d
        E 7 b5 02 27
        E 7 b5 02 17
        E 7 b5 02 0c
        E 7 b5 02 1d
        E 7 b5 02 32
        E 7 b5 02 00
        E 7 b5 02 06
        E 7 b5 02 14
        E 7 b5 02 11
        E 7 b5 02 29
        E 7 b5 02 0a
        E 7 b5 02 03
        E 7 b5 02 08
        E 7 b5 02 08
        E 7 b5 02 2e
        E 7 b5 02 0c
        E 7 b5 02 00
        E 7 b5 02 25
        E 7 b5 02 11
        E 7 b5 02 0a
        E 7 b5 02 14
        E 7 b5 02 0d
        E 7 b5 02 2b
        E 7 b5 02 2a
        E 7 b5 02 32
        E 7 b5 02 2a
        E 7 b5 02 16
        E 7 b5 02 2f
        E 7 b5 02 24
        E 7 b5 02 06
        E 7 b5 02 16
        E 7 b5 02 1b
        E 7 b5 02 30
        E 7 b5 02 26
        E 7 b5 02 1b
        E 7 b5 02 1c
        E 7 b5 02 02
        E 7 b5 02 05
        E 7 b5 02 2e
        E 7 b5 02 28
        E 7 b5 02 15
        E 7 b5 02 10
        E 7 b5 02 06
        E 7 b5 02 16
        E 7 b5 02 0f
        E 7 b5 02 0c
        E 7 b5 02 13
        E 7 b5 02 1a
        E 7 b5 02 1e
        E 7 b5 02 20
        E 7 b5 02 08
        E 7 b5 02 1e
        E 7 b5 02 2d
        E 7 b5 02 1a
        E 7 b5 02 1d
        E 7 b5 02 01
        E 7 b5 02 03
        E 7 b5 02 32
        E 7 b5 02 21
        E 7 b5 02 09
        E 7 b5 02 2e
        E 7 b5 02 10
        E 7 b5 02 13
        E 7 b5 02 18
        E 7 b5 02 14
        E 7 b5 02 22
        E 7 b5 02 29
        E 7 b5 02 0e
        E 7 b5 02 1c
        E 7 b5 02 0b
        E 7 b5 02 2d
        E 7 b5 02 2a
        E 7 b5 02 17
        E 7 b5 02 12
        E 7 b5 02 28
        E 7 b5 02 12
        E 7 b5 02 23
        E 7 b5 02 07
        E 7 b5 02 00
        E 7 b5 02 10
        E 7 b5 02 19
        E 7 b5 02 2b
        E 7 b5 02 27
        E 7 b5 02 01
        E 7 b5 02 2c
        E 7 b5 02 25
        E 7 b5 02 02
        E 7 b5 02 0f
        E 7 b5 02 1e
        E 7 b5 02 26
        E 7 b5 02 30
        E 7 b5 02 1f
        E 7 b5 02 15
        E 7 b5 02 0e
        E 7 b5 02 23
        E 7 b5 02 24
        E 7 b5 02 2c
        E 7 b5 02 31
        E 7 b5 02 18
        E 7 b5 02 20
        E 7 b5 02 22
        E 7 b5 02 1a
        E 7 b5 02 2f
        E 7 b5 02 07
        E 7 b5 02 12
        E 7 b5 02 21
        E 23 b5 02 16
        E 23 b5 02 4c
        E 23 b5 02 32
        E 23 b5 02 07
        E 23 b5 02 48
        E 23 b5 02 3f
        E 23 b5 02 09
        E 23 b5 02 08
        E 23 b5 02 30
        E 23 b5 02 5f
        E 23 b5 02 50
        E 23 b5 02 58
        E 23 b5 02 3f
        E 23 b5 02 0b
        E 23 b5 02 13
        E 23 b5 02 44
        E 23 b5 02 37
        E 23 b5 02 1c
        E 23 b5 02 14
        E 23 b5 02 1b
        E 23 b5 02 4f
        E 23 b5 02 2f
        E 23 b5 02 17
        E 23 b5 02 3a
        E 23 b5 02 64
        E 23 b5 02 00
        E 23 b5 02 0c
        E 23 b5 02 29
        E 23 b5 02 22
        E 23 b5 02 53
        E 23 b5 02 15
        E 23 b5 02 06
        E 23 b5 02 0f
        E 23 b5 02 11
        E 23 b5 02 5b
        E 23 b5 02 19
        E 23 b5 02 00
        E 23 b5 02 4b
        E 23 b5 02 23
        E 23 b5 02 14
        E 23 b5 02 28
        E 23 b5 02 1a
        E 23 b5 02 56
        E 23 b5 02 55
        E 23 b5 02 65
        E 23 b5 02 54
        E 23 b5 02 2b
        E 23 b5 02 5e
        E 23 b5 02 48
        E 23 b5 02 0b
        E 23 b5 02 2c
        E 23 b5 02 36
        E 23 b5 02 60
        E 23 b5 02 4d
        E 23 b5 02 37
        E 23 b5 02 38
        E 23 b5 02 04
        E 23 b5 02 0a
        E 23 b5 02 5d
        E 23 b5 02 51
        E 23 b5 02 2b
        E 23 b5 02 1f
        E 23 b5 02 0d
        E 23 b5 02 2d
        E 23 b5 02 1e
        E 23 b5 02 18
        E 23 b5 02 26
        E 23 b5 02 34
        E 23 b5 02 3d
        E 23 b5 02 41
        E 23 b5 02 10
        E 23 b5 02 3c
        E 23 b5 02 5a
        E 23 b5 02 33
        E 23 b5 02 3b
        E 23 b5 02 02
        E 23 b5 02 07
        E 23 b5 02 63
        E 23 b5 02 42
        E 23 b5 02 12
        E 23 b5 02 5c
        E 23 b5 02 20
        E 23 b5 02 27
        E 23 b5 02 31
        E 23 b5 02 28
        E 23 b5 02 44
        E 23 b5 02 52
        E 23 b5 02 1d
        E 23 b5 02 39
        E 23 b5 02 17
        E 23 b5 02 5b
        E 23 b5 02 54
        E 23 b5 02 2e
        E 23 b5 02 24
        E 23 b5 02 50
        E 23 b5 02 25
        E 23 b5 02 47
        E 23 b5 02 0e
        E 23 b5 02 01
        E 23 b5 02 21
        E 23 b5 02 33
        E 23 b5 02 57
        E 23 b5 02 4e
        E 23 b5 02 03
        E 23 b5 02 57
        E 23 b5 02 4a
        E 23 b5 02 05
        E 23 b5 02 1f
        E 23 b5 02 3b
        E 23 b5 02 4c
        E 23 b5 02 61
        E 23 b5 02 3e
        E 23 b5 02 2a
        E 23 b5 02 1b
        E 23 b5 02 46
        E 23 b5 02 49
        E 23 b5 02 59
        E 23 b5 02 63
        E 23 b5 02 2f
        E 23 b5 02 40
        E 23 b5 02 45
        E 23 b5 02 35
        E 23 b5 02 5f
        E 23 b5 02 0f
        E 23 b5 02 24
        E 23 b5 02 43
        E 71 b5 02 16
        E 71 b5 02 4c
        E 71 b5 02 32
        E 71 b5 02 07
        E 71 b5 02 48
        E 71 b5 02 3f
        E 71 b5 02 09
        E 71 b5 02 08
        E 71 b5 02 30
        E 71 b5 02 5f
        E 71 b5 02 50
        E 71 b5 02 58
        E 71 b5 02 3f
        E 71 b5 02 0b
        E 71 b5 02 13
        E 71 b5 02 44
        E 71 b5 02 37
        E 71 b5 02 1c
        E 71 b5 02 14
        E 71 b5 02 1b
        E 71 b5 02 4f
        E 71 b5 02 2f
        E 71 b5 02 17
        E 71 b5 02 3a
        E 71 b5 02 64
        E 71 b5 02 00
        E 71 b5 02 0c
        E 71 b5 02 29
        E 71 b5 02 22
        E 71 b5 02 53
        E 71 b5 02 15
        E 71 b5 02 06
        E 71 b5 02 0f
        E 71 b5 02 11
        E 71 b5 02 5b
        E 71 b5 02 19
        E 71 b5 02 00
        E 71 b5 02 4b
        E 71 b5 02 23
        E 71 b5 02 14
        E 71 b5 02 28
        E 71 b5 02 1a
        E 71 b5 02 56
        E 71 b5 02 55
        E 71 b5 02 65
        E 71 b5 02 54
        E 71 b5 02 2b
        E 71 b5 02 5e
        E 71 b5 02 48
        E 71 b5 02 0b
        E 71 b5 02 2c
        E 71 b5 02 36
        E 71 b5 02 60
        E 71 b5 02 4d
        E 71 b5 02 37
        E 71 b5 02 38
        E 71 b5 02 04
        E 71 b5 02 0a
        E 71 b5 02 5d
        E 71 b5 02 51
        E 71 b5 02 2b
        E 71 b5 02 1f
        E 71 b5 02 0d
        E 71 b5 02 2d
        E 71 b5 02 1e
        E 71 b5 02 18
        E 71 b5 02 26
        E 71 b5 02 34
        E 71 b5 02 3d
        E 71 b5 02 41
        E 71 b5 02 10
        E 71 b5 02 3c
        E 71 b5 02 5a
        E 71 b5 02 33
        E 71 b5 02 3b
        E 71 b5 02 02
        E 71 b5 02 07
        E 71 b5 02 63
        E 71 b5 02 42
        E 71 b5 02 12
        E 71 b5 02 5c
        E 71 b5 02 20
        E 71 b5 02 27
        E 71 b5 02 31
        E 71 b5 02 28
        E 71 b5 02 44
        E 71 b5 02 52
        E 71 b5 02 1d
        E 71 b5 02 39
        E 71 b5 02 17
        E 71 b5 02 5b
        E 71 b5 02 54
        E 71 b5 02 2e
        E 71 b5 02 24
        E 71 b5 02 50
        E 71 b5 02 25
        E 71 b5 02 47
        E 71 b5 02 0e
        E 71 b5 02 01
        E 71 b5 02 21
        E 71 b5 02 33
        E 71 b5 02 57
        E 71 b5 02 4e
        E 71 b5 02 03
        E 71 b5 02 57
        E 71 b5 02 4a
        E 71 b5 02 05
        E 71 b5 02 1f
        E 71 b5 02 3b
        E 71 b5 02 4c
        E 71 b5 02 61
        E 71 b5 02 3e
        E 71 b5 02 2a
        E 71 b5 02 1b
        E 71 b5 02 46
        E 71 b5 02 49
        E 71 b5 02 59
        E 71 b5 02 63
        E 71 b5 02 2f
        E 71 b5 02 40
        E 71 b5 02 45
        E 71 b5 02 35
        E 71 b5 02 5f
        E 71 b5 02 0f
        E 71 b5 02 24
        E 71 b5 02 43
        E 15 b5 02 10
        E 15 b5 02 39
        E 15 b5 02 25
        E 15 b5 02 06
        E 15 b5 02 36
        E 15 b5 02 30
        E 15 b5 02 07
        E 15 b5 02 06
        E 15 b5 02 24
        E 15 b5 02 48
        E 15 b5 02 3c
        E 15 b5 02 42
        E 15 b5 02 2f
        E 15 b5 02 08
        E 15 b5 02 0e
        E 15 b5 02 33
        E 15 b5 02 2a
        E 15 b5 02 15
        E 15 b5 02 0f
        E 15 b5 02 14
        E 15 b5 02 3b
        E 15 b5 02 23
        E 15 b5 02 12
        E 15 b5 02 2b
        E 15 b5 02 4b
        E 15 b5 02 00
        E 15 b5 02 09
        E 15 b5 02 1f
        E 15 b5 02 19
        E 15 b5 02 3e
        E 15 b5 02 10
        E 15 b5 02 04
        E 15 b5 02 0c
        E 15 b5 02 0d
        E 15 b5 02 45
        E 15 b5 02 13
        E 15 b5 02 00
        E 15 b5 02 38
        E 15 b5 02 1a
        E 15 b5 02 0f
        E 15 b5 02 1e
        E 15 b5 02 13
        E 15 b5 02 40
        E 15 b5 02 40
        E 15 b5 02 4c
        E 15 b5 02 3f
        E 15 b5 02 21
        E 15 b5 02 46
        E 15 b5 02 36
        E 15 b5 02 09
        E 15 b5 02 21
        E 15 b5 02 28
        E 15 b5 02 48
        E 15 b5 02 3a
        E 15 b5 02 29
        E 15 b5 02 2a
        E 15 b5 02 03
        E 15 b5 02 07
        E 15 b5 02 46
        E 15 b5 02 3d
        E 15 b5 02 20
        E 15 b5 02 18
        E 15 b5 02 0a
        E 15 b5 02 22
        E 15 b5 02 16
        E 15 b5 02 12
        E 15 b5 02 1c
        E 15 b5 02 27
        E 15 b5 02 2e
        E 15 b5 02 31
        E 15 b5 02 0c
        E 15 b5 02 2d
        E 15 b5 02 43
        E 15 b5 02 27
        E 15 b5 02 2c
        E 15 b5 02 01
        E 15 b5 02 05
        E 15 b5 02 4b
        E 15 b5 02 31
        E 15 b5 02 0d
        E 15 b5 02 45
        E 15 b5 02 18
        E 15 b5 02 1d
        E 15 b5 02 25
        E 15 b5 02 1e
        E 15 b5 02 33
        E 15 b5 02 3d
        E 15 b5 02 16
        E 15 b5 02 2b
        E 15 b5 02 11
        E 15 b5 02 44
        E 15 b5 02 3f
        E 15 b5 02 22
        E 15 b5 02 1b
        E 15 b5 02 3c
        E 15 b5 02 1c
        E 15 b5 02 35
        E 15 b5 02 0a
        E 15 b5 02 01
        E 15 b5 02 19
        E 15 b5 02 26
        E 15 b5 02 41
        E 15 b5 02 3a
        E 15 b5 02 02
        E 15 b5 02 42
        E 15 b5 02 37
        E 15 b5 02 04
        E 15 b5 02 17
        E 15 b5 02 2d
        E 15 b5 02 39
        E 15 b5 02 49
        E 15 b5 02 2e
        E 15 b5 02 1f
        E 15 b5 02 15
        E 15 b5 02 34
        E 15 b5 02 37
        E 15 b5 02 43
        E 15 b5 02 4a
        E 15 b5 02 24
        E 15 b5 02 30
        E 15 b5 02 34
        E 15 b5 02 28
        E 15 b5 02 47
        E 15 b5 02 0b
        E 15 b5 02 1b
        E 15 b5 02 32
        E 71 b5 02 0b
        E 71 b5 02 26
        E 71 b5 02 19
        E 71 b5 02 04
        E 71 b5 02 24
        E 71 b5 02 20
        E 71 b5 02 04
        E 71 b5 02 04
        E 71 b5 02 18
        E 71 b5 02 30
        E 71 b5 02 28
        E 71 b5 02 2c
        E 71 b5 02 1f
        E 71 b5 02 05
        E 71 b5 02 09
        E 71 b5 02 22
        E 71 b5 02 1c
        E 71 b5 02 0e
        E 71 b5 02 0a
        E 71 b5 02 0d
        E 71 b5 02 27
        E 71 b5 02 17
        E 71 b5 02 0c
        E 71 b5 02 1d
        E 71 b5 02 32
        E 71 b5 02 00
        E 71 b5 02 06
        E 71 b5 02 14
        E 71 b5 02 11
        E 71 b5 02 29
        E 71 b5 02 0a
        E 71 b5 02 03
        E 71 b5 02 08
        E 71 b5 02 08
        E 71 b5 02 2e
        E 71 b5 02 0c
        E 71 b5 02 00
        E 71 b5 02 25
        E 71 b5 02 11
        E 71 b5 02 0a
        E 71 b5 02 14
        E 71 b5 02 0d
        E 71 b5 02 2b
        E 71 b5 02 2a
        E 71 b5 02 32
        E 71 b5 02 2a
        E 71 b5 02 16
        E 71 b5 02 2f
        E 71 b5 02 24
        E 71 b5 02 06
        E 71 b5 02 16
        E 71 b5 02 1b
        E 71 b5 02 30
        E 71 b5 02 26
        E 71 b5 02 1b
        E 71 b5 02 1c
        E 71 b5 02 02
        E 71 b5 02 05
        E 71 b5 02 2e
        E 71 b5 02 28
        E 71 b5 02 15
        E 71 b5 02 10
        E 71 b5 02 06
        E 71 b5 02 16
        E 71 b5 02 0f
        E 71 b5 02 0c
        E 71 b5 02 13
        E 71 b5 02 1a
        E 71 b5 02 1e
        E 71 b5 02 20
        E 71 b5 02 08
        E 71 b5 02 1e
        E 71 b5 02 2d
        E 71 b5 02 1a
        E 71 b5 02 1d
        E 71 b5 02 01
        E 71 b5 02 03
        E 71 b5 02 32
        E 71 b5 02 21
        E 71 b5 02 09
        E 71 b5 02 2e
        E 71 b5 02 10
        E 71 b5 02 13
        E 71 b5 02 18
        E 71 b5 02 14
        E 71 b5 02 22
        E 71 b5 02 29
        E 71 b5 02 0e
        E 71 b5 02 1c
        E 71 b5 02 0b
        E 71 b5 02 2d
        E 71 b5 02 2a
        E 71 b5 02 17
        E 71 b5 02 12
        E 71 b5 02 28
        E 71 b5 02 12
        E 71 b5 02 23
        E 71 b5 02 07
        E 71 b5 02 00
        E 71 b5 02 10
        E 71 b5 02 19
        E 71 b5 02 2b
        E 71 b5 02 27
        E 71 b5 02 01
        E 71 b5 02 2c
        E 71 b5 02 25
        E 71 b5 02 02
        E 71 b5 02 0f
        E 71 b5 02 1e
        E 71 b5 02 26
        E 71 b5 02 30
        E 71 b5 02 1f
        E 71 b5 02 15
        E 71 b5 02 0e
        E 71 b5 02 23
        E 71 b5 02 24
        E 71 b5 02 2c
        E 71 b5 02 31
        E 71 b5 02 18
        E 71 b5 02 20
        E 71 b5 02 22
        E 71 b5 02 1a
        E 71 b5 02 2f
        E 71 b5 02 07
        E 71 b5 02 12
        E 71 b5 02 21
        E 39 b5 02 13
        E 39 b5 02 43
        E 39 b5 02 2c
        E 39 b5 02 07
        E 39 b5 02 3e
        E 39 b5 02 38
        E 39 b5 02 08
        E 39 b5 02 07
        E 39 b5 02 2a
        E 39 b5 02 54
        E 39 b5 02 46
        E 39 b5 02 4d
        E 39 b5 02 37
        E 39 b5 02 09
        E 39 b5 02 10
        E 39 b5 02 3c
        E 39 b5 02 31
        E 39 b5 02 19
        E 39 b5 02 11
        E 39 b5 02 17
        E 39 b5 02 45
        E 39 b5 02 29
        E 39 b5 02 15
        E 39 b5 02 33
        E 39 b5 02 58
        E 39 b5 02 00
        E 39 b5 02 0b
        E 39 b5 02 24
        E 39 b5 02 1e
        E 39 b5 02 48
        E 39 b5 02 12
        E 39 b5 02 05
        E 39 b5 02 0e
        E 39 b5 02 0f
        E 39 b5 02 50
        E 39 b5 02 16
        E 39 b5 02 00
        E 39 b5 02 41
        E 39 b5 02 1e
        E 39 b5 02 12
        E 39 b5 02 23
        E 39 b5 02 17
        E 39 b5 02 4b
        E 39 b5 02 4a
        E 39 b5 02 58
        E 39 b5 02 4a
        E 39 b5 02 26
        E 39 b5 02 52
        E 39 b5 02 3f
        E 39 b5 02 0a
        E 39 b5 02 27
        E 39 b5 02 2f
        E 39 b5 02 54
        E 39 b5 02 43
        E 39 b5 02 30
        E 39 b5 02 31
        E 39 b5 02 04
        E 39 b5 02 09
        E 39 b5 02 51
        E 39 b5 02 47
        E 39 b5 02 25
        E 39 b5 02 1c
        E 39 b5 02 0b
        E 39 b5 02 27
        E 39 b5 02 1a
        E 39 b5 02 15
        E 39 b5 02 21
        E 39 b5 02 2e
        E 39 b5 02 35
        E 39 b5 02 39
        E 39 b5 02 0e
        E 39 b5 02 35
        E 39 b5 02 4f
        E 39 b5 02 2d
        E 39 b5 02 33
        E 39 b5 02 02
        E 39 b5 02 06
        E 39 b5 02 57
        E 39 b5 02 3a
        E 39 b5 02 10
        E 39 b5 02 51
        E 39 b5 02 1c
        E 39 b5 02 22
        E 39 b5 02 2b
        E 39 b5 02 23
        E 39 b5 02 3b
        E 39 b5 02 48
        E 39 b5 02 19
        E 39 b5 02 32
        E 39 b5 02 14
        E 39 b5 02 4f
        E 39 b5 02 49
        E 39 b5 02 28
        E 39 b5 02 20
        E 39 b5 02 46
        E 39 b5 02 20
        E 39 b5 02 3e
        E 39 b5 02 0c
        E 39 b5 02 01
        E 39 b5 02 1d
        E 39 b5 02 2c
        E 39 b5 02 4c
        E 39 b5 02 44
        E 39 b5 02 02
        E 39 b5 02 4d
        E 39 b5 02 41
        E 39 b5 02 04
        E 39 b5 02 1b
        E 39 b5 02 34
        E 39 b5 02 42
        E 39 b5 02 55
        E 39 b5 02 36
        E 39 b5 02 25
        E 39 b5 02 18
        E 39 b5 02 3d
        E 39 b5 02 40
        E 39 b5 02 4e
        E 39 b5 02 56
        E 39 b5 02 2a
        E 39 b5 02 38
        E 39 b5 02 3c
        E 39 b5 02 2e
        E 39 b5 02 53
        E 39 b5 02 0d
        E 39 b5 02 1f
        E 39 b5 02 3a
        E 7 b5 02 0b
        E 7 b5 02 26
        E 7 b5 02 19
        E 7 b5 02 04
        E 7 b5 02 24
        E 7 b5 02 20
        E 7 b5 02 04
        E 7 b5 02 04
        E 7 b5 02 18
        E 7 b5 02 30
        E 7 b5 02 28
        E 7 b5 02 2c
        E 7 b5 02 1f
        E 7 b5 02 05
        E 7 b5 02 09
        E 7 b5 02 22
        E 7 b5 02 1c
        E 7 b5 02 0e
        E 7 b5 02 0a
        E 7 b5 02 0d
        E 7 b5 02 27
        E 7 b5 02 17
        E 7 b5 02 0c
        E 7 b5 02 1d
        E 7 b5 02 32
        E 7 b5 02 00
        E 7 b5 02 06
        E 7 b5 02 14
        E 7 b5 02 11
        E 7 b5 02 29
        E 7 b5 02 0a
        E 7 b5 02 03
        E 7 b5 02 08
        E 7 b5 02 08
        E 7 b5 02 2e
        E 7 b5 02 0c
        E 7 b5 02 00
        E 7 b5 02 25
        E 7 b5 02 11
        E 7 b5 02 0a
        E 7 b5 02 14
        E 7 b5 02 0d
        E 7 b5 02 2b
        E 7 b5 02 2a
        E 7 b5 02 32
        E 7 b5 02 2a
        E 7 b5 02 16
        E 7 b5 02 2f
        E 7 b5 02 24
        E 7 b5 02 06
        E 7 b5 02 16
        E 7 b5 02 1b
        E 7 b5 02 30
        E 7 b5 02 26
        E 7 b5 02 1b
        E 7 b5 02 1c
        E 7 b5 02 02
        E 7 b5 02 05
        E 7 b5 02 2e
        E 7 b5 02 28
        E 7 b5 02 15
        E 7 b5 02 10
        E 7 b5 02 06
        E 7 b5 02 16
        E 7 b5 02 0f
        E 7 b5 02 0c
        E 7 b5 02 13
        E 7 b5 02 1a
        E 7 b5 02 1e
        E 7 b5 02 20
        E 7 b5 02 08
        E 7 b5 02 1e
        E 7 b5 02 2d
        E 7 b5 02 1a
        E 7 b5 02 1d
        E 7 b5 02 01
        E 7 b5 02 03
        E 7 b5 02 32
        E 7 b5 02 21
        E 7 b5 02 09
        E 7 b5 02 2e
        E 7 b5 02 10
        E 7 b5 02 13
        E 7 b5 02 18
        E 7 b5 02 14
        E 7 b5 02 22
        E 7 b5 02 29
        E 7 b5 02 0e
        E 7 b5 02 1c
        E 7 b5 02 0b
        E 7 b5 02 2d
        E 7 b5 02 2a
        E 7 b5 02 17
        E 7 b5 02 12
        E 7 b5 02 28
        E 7 b5 02 12
        E 7 b5 02 23
        E 7 b5 02 07
        E 7 b5 02 00
        E 7 b5 02 10
        E 7 b5 02 19
        E 7 b5 02 2b
        E 7 b5 02 27
        E 7 b5 02 01
        E 7 b5 02 2c
        E 7 b5 02 25
        E 7 b5 02 02
        E 7 b5 02 0f
        E 7 b5 02 1e
        E 7 b5 02 26
        E 7 b5 02 30
        E 7 b5 02 1f
        E 7 b5 02 15
        E 7 b5 02 0e
        E 7 b5 02 23
        E 7 b5 02 24
        E 7 b5 02 2c
        E 7 b5 02 31
        E 7 b5 02 18
        E 7 b5 02 20
        E 7 b5 02 22
        E 7 b5 02 1a
        E 7 b5 02 2f
        E 7 b5 02 07
        E 7 b5 02 12
        E 7 b5 02 21
        E 23 b5 02 16
        E 23 b5 02 4c
        E 23 b5 02 32
        E 23 b5 02 07
        E 23 b5 02 48
        E 23 b5 02 3f
        E 23 b5 02 09
        E 23 b5 02 08
        E 23 b5 02 30
        E 23 b5 02 5f
        E 23 b5 02 50
        E 23 b5 02 58
        E 23 b5 02 3f
        E 23 b5 02 0b
        E 23 b5 02 13
        E 23 b5 02 44
        E 23 b5 02 37
        E 23 b5 02 1c
        E 23 b5 02 14
        E 23 b5 02 1b
        E 23 b5 02 4f
        E 23 b5 02 2f
        E 23 b5 02 17
        E 23 b5 02 3a
        E 23 b5 02 64
        E 23 b5 02 00
        E 23 b5 02 0c
        E 23 b5 02 29
        E 23 b5 02 22
        E 23 b5 02 53
        E 23 b5 02 15
        E 23 b5 02 06
        E 23 b5 02 0f
        E 23 b5 02 11
        E 23 b5 02 5b
        E 23 b5 02 19
        E 23 b5 02 00
        E 23 b5 02 4b
        E 23 b5 02 23
        E 23 b5 02 14
        E 23 b5 02 28
        E 23 b5 02 1a
        E 23 b5 02 56
        E 23 b5 02 55
        E 23 b5 02 65
        E 23 b5 02 54
        E 23 b5 02 2b
        E 23 b5 02 5e
        E 23 b5 02 48
        E 23 b5 02 0b
        E 23 b5 02 2c
        E 23 b5 02 36
        E 23 b5 02 60
        E 23 b5 02 4d
        E 23 b5 02 37
        E 23 b5 02 38
        E 23 b5 02 04
        E 23 b5 02 0a
        E 23 b5 02 5d
        E 23 b5 02 51
        E 23 b5 02 2b
        E 23 b5 02 1f
        E 23 b5 02 0d
        E 23 b5 02 2d
        E 23 b5 02 1e
        E 23 b5 02 18
        E 23 b5 02 26
        E 23 b5 02 34
        E 23 b5 02 3d
        E 23 b5 02 41
        E 23 b5 02 10
        E 23 b5 02 3c
        E 23 b5 02 5a
        E 23 b5 02 33
        E 23 b5 02 3b
        E 23 b5 02 02
        E 23 b5 02 07
        E 23 b5 02 63
        E 23 b5 02 42
        E 23 b5 02 12
        E 23 b5 02 5c
        E 23 b5 02 20
        E 23 b5 02 27
        E 23 b5 02 31
        E 23 b5 02 28
        E 23 b5 02 44
        E 23 b5 02 52
        E 23 b5 02 1d
        E 23 b5 02 39
        E 23 b5 02 17
        E 23 b5 02 5b
        E 23 b5 02 54
        E 23 b5 02 2e
        E 23 b5 02 24
        E 23 b5 02 50
        E 23 b5 02 25
        E 23 b5 02 47
        E 23 b5 02 0e
        E 23 b5 02 01
        E 23 b5 02 21
        E 23 b5 02 33
        E 23 b5 02 57
        E 23 b5 02 4e
        E 23 b5 02 03
        E 23 b5 02 57
        E 23 b5 02 4a
        E 23 b5 02 05
        E 23 b5 02 1f
        E 23 b5 02 3b
        E 23 b5 02 4c
        E 23 b5 02 61
        E 23 b5 02 3e
        E 23 b5 02 2a
        E 23 b5 02 1b
        E 23 b5 02 46
        E 23 b5 02 49
        E 23 b5 02 59
        E 23 b5 02 63
        E 23 b5 02 2f
        E 23 b5 02 40
        E 23 b5 02 45
        E 23 b5 02 35
        E 23 b5 02 5f
        E 23 b5 02 0f
        E 23 b5 02 24
        E 23 b5 02 43
        E 71 b5 02 16
        E 71 b5 02 4c
        E 71 b5 02 32
        E 71 b5 02 07
        E 71 b5 02 48
        E 71 b5 02 3f
        E 71 b5 02 09
        E 71 b5 02 08
        E 71 b5 02 30
        E 71 b5 02 5f
        E 71 b5 02 50
        E 71 b5 02 58
        E 71 b5 02 3f
        E 71 b5 02 0b
        E 71 b5 02 13
        E 71 b5 02 44
        E 71 b5 02 37
        E 71 b5 02 1c
        E 71 b5 02 14
        E 71 b5 02 1b
        E 71 b5 02 4f
        E 71 b5 02 2f
        E 71 b5 02 17
        E 71 b5 02 3a
        E 71 b5 02 64
        E 71 b5 02 00
        E 71 b5 02 0c
        E 71 b5 02 29
        E 71 b5 02 22
        E 71 b5 02 53
        E 71 b5 02 15
        E 71 b5 02 06
        E 71 b5 02 0f
        E 71 b5 02 11
        E 71 b5 02 5b
        E 71 b5 02 19
        E 71 b5 02 00
        E 71 b5 02 4b
        E 71 b5 02 23
        E 71 b5 02 14
        E 71 b5 02 28
        E 71 b5 02 1a
        E 71 b5 02 56
        E 71 b5 02 55
        E 71 b5 02 65
        E 71 b5 02 54
        E 71 b5 02 2b
        E 71 b5 02 5e
        E 71 b5 02 48
        E 71 b5 02 0b
        E 71 b5 02 2c
        E 71 b5 02 36
        E 71 b5 02 60
        E 71 b5 02 4d
        E 71 b5 02 37
        E 71 b5 02 38
        E 71 b5 02 04
        E 71 b5 02 0a
        E 71 b5 02 5d
        E 71 b5 02 51
        E 71 b5 02 2b
        E 71 b5 02 1f
        E 71 b5 02 0d
        E 71 b5 02 2d
        E 71 b5 02 1e
        E 71 b5 02 18
        E 71 b5 02 26
        E 71 b5 02 34
        E 71 b5 02 3d
        E 71 b5 02 41
        E 71 b5 02 10
        E 71 b5 02 3c
        E 71 b5 02 5a
        E 71 b5 02 33
        E 71 b5 02 3b
        E 71 b5 02 02
        E 71 b5 02 07
        E 71 b5 02 63
        E 71 b5 02 42
        E 71 b5 02 12
        E 71 b5 02 5c
        E 71 b5 02 20
        E 71 b5 02 27
        E 71 b5 02 31
        E 71 b5 02 28
        E 71 b5 02 44
        E 71 b5 02 52
        E 71 b5 02 1d
        E 71 b5 02 39
        E 71 b5 02 17
        E 71 b5 02 5b
        E 71 b5 02 54
        E 71 b5 02 2e
        E 71 b5 02 24
        E 71 b5 02 50
        E 71 b5 02 25
        E 71 b5 02 47
        E 71 b5 02 0e
        E 71 b5 02 01
        E 71 b5 02 21
        E 71 b5 02 33
        E 71 b5 02 57
        E 71 b5 02 4e
        E 71 b5 02 03
        E 71 b5 02 57
        E 71 b5 02 4a
        E 71 b5 02 05
        E 71 b5 02 1f
        E 71 b5 02 3b
        E 71 b5 02 4c
        E 71 b5 02 61
        E 71 b5 02 3e
        E 71 b5 02 2a
        E 71 b5 02 1b
        E 71 b5 02 46
        E 71 b5 02 49
        E 71 b5 02 59
        E 71 b5 02 63
        E 71 b5 02 2f
        E 71 b5 02 40
        E 71 b5 02 45
        E 71 b5 02 35
        E 71 b5 02 5f
        E 71 b5 02 0f
        E 71 b5 02 24
        E 71 b5 02 43
        E 15 b5 02 10
        E 15 b5 02 39
        E 15 b5 02 25
        E 15 b5 02 06
        E 15 b5 02 36
        E 15 b5 02 30
        E 15 b5 02 07
        E 15 b5 02 06
        E 15 b5 02 24
        E 15 b5 02 48
        E 15 b5 02 3c
        E 15 b5 02 42
        E 15 b5 02 2f
        E 15 b5 02 08
        E 15 b5 02 0e
        E 15 b5 02 33
        E 15 b5 02 2a
        E 15 b5 02 15
        E 15 b5 02 0f
        E 15 b5 02 14
        E 15 b5 02 3b
        E 15 b5 02 23
        E 15 b5 02 12
        E 15 b5 02 2b
        E 15 b5 02 4b
        E 15 b5 02 00
        E 15 b5 02 09
        E 15 b5 02 1f
        E 15 b5 02 19
        E 15 b5 02 3e
        E 15 b5 02 10
        E 15 b5 02 04
        E 15 b5 02 0c
        E 15 b5 02 0d
        E 15 b5 02 45
        E 15 b5 02 13
        E 15 b5 02 00
        E 15 b5 02 38
        E 15 b5 02 1a
        E 15 b5 02 0f
        E 15 b5 02 1e
        E 15 b5 02 13
        E 15 b5 02 40
        E 15 b5 02 40
        E 15 b5 02 4c
        E 15 b5 02 3f
        E 15 b5 02 21
        E 15 b5 02 46
        E 15 b5 02 36
        E 15 b5 02 09
        E 15 b5 02 21
        E 15 b5 02 28
        E 15 b5 02 48
        E 15 b5 02 3a
        E 15 b5 02 29
        E 15 b5 02 2a
        E 15 b5 02 03
        E 15 b5 02 07
        E 15 b5 02 46
        E 15 b5 02 3d
        E 15 b5 02 20
        E 15 b5 02 18
        E 15 b5 02 0a
        E 15 b5 02 22
        E 15 b5 02 16
        E 15 b5 02 12
        E 15 b5 02 1c
        E 15 b5 02 27
        E 15 b5 02 2e
        E 15 b5 02 31
        E 15 b5 02 0c
        E 15 b5 02 2d
        E 15 b5 02 43
        E 15 b5 02 27
        E 15 b5 02 2c
        E 15 b5 02 01
        E 15 b5 02 05
        E 15 b5 02 4b
        E 15 b5 02 31
        E 15 b5 02 0d
        E 15 b5 02 45
        E 15 b5 02 18
        E 15 b5 02 1d
        E 15 b5 02 25
        E 15 b5 02 1e
        E 15 b5 02 33
        E 15 b5 02 3d
        E 15 b5 02 16
        E 15 b5 02 2b
        E 15 b5 02 11
        E 15 b5 02 44
        E 15 b5 02 3f
        E 15 b5 02 22
        E 15 b5 02 1b
        E 15 b5 02 3c
        E 15 b5 02 1c
        E 15 b5 02 35
        E 15 b5 02 0a
        E 15 b5 02 01
        E 15 b5 02 19
        E 15 b5 02 26
        E 15 b5 02 41
        E 15 b5 02 3a
        E 15 b5 02 02
        E 15 b5 02 42
        E 15 b5 02 37
        E 15 b5 02 04
        E 15 b5 02 17
        E 15 b5 02 2d
        E 15 b5 02 39
        E 15 b5 02 49
        E 15 b5 02 2e
        E 15 b5 02 1f
        E 15 b5 02 15
        E 15 b5 02 34
        E 15 b5 02 37
        E 15 b5 02 43
        E 15 b5 02 4a
        E 15 b5 02 24
        E 15 b5 02 30
        E 15 b5 02 34
        E 15 b5 02 28
        E 15 b5 02 47
        E 15 b5 02 0b
        E 15 b5 02 1b
        E 15 b5 02 32
        E 7 b5 02 0b
        E 7 b5 02 26
        E 7 b5 02 19
        E 7 b5 02 04
        E 7 b5 02 24
        E 7 b5 02 20
        E 7 b5 02 04
        E 7 b5 02 04
        E 7 b5 02 18
        E 7 b5 02 30
        E 7 b5 02 28
        E 7 b5 02 2c
        E 7 b5 02 1f
        E 7 b5 02 05
        E 7 b5 02 09
        E 7 b5 02 22
        E 7 b5 02 1c
        E 7 b5 02 0e
        E 7 b5 02 0a
        E 7 b5 02 0d
        E 7 b5 02 27
        E 7 b5 02 17
        E 7 b5 02 0c
        E 7 b5 02 1d
        E 7 b5 02 32
        E 7 b5 02 00
        E 7 b5 02 06
        E 7 b5 02 14
        E 7 b5 02 11
        E 7 b5 02 29
        E 7 b5 02 0a
        E 7 b5 02 03
        E 7 b5 02 08
        E 7 b5 02 08
        E 7 b5 02 2e
        E 7 b5 02 0c
        E 7 b5 02 00
        E 7 b5 02 25
        E 7 b5 02 11
        E 7 b5 02 0a
        E 7 b5 02 14
        E 7 b5 02 0d
        E 7 b5 02 2b
        E 7 b5 02 2a
        E 7 b5 02 32
        E 7 b5 02 2a
        E 7 b5 02 16
        E 7 b5 02 2f
        E 7 b5 02 24
        E 7 b5 02 06
        E 7 b5 02 16
        E 7 b5 02 1b
        E 7 b5 02 30
        E 7 b5 02 26
        E 7 b5 02 1b
        E 7 b5 02 1c
        E 7 b5 02 02
        E 7 b5 02 05
        E 7 b5 02 2e
        E 7 b5 02 28
        E 7 b5 02 15
        E 7 b5 02 10
        E 7 b5 02 06
        E 7 b5 02 16
        E 7 b5 02 0f
        E 7 b5 02 0c
        E 7 b5 02 13
        E 7 b5 02 1a
        E 7 b5 02 1e
        E 7 b5 02 20
        E 7 b5 02 08
        E 7 b5 02 1e
        E 7 b5 02 2d
        E 7 b5 02 1a
        E 7 b5 02 1d
        E 7 b5 02 01
        E 7 b5 02 03
        E 7 b5 02 32
        E 7 b5 02 21
        E 7 b5 02 09
        E 7 b5 02 2e
        E 7 b5 02 10
        E 7 b5 02 13
        E 7 b5 02 18
        E 7 b5 02 14
        E 7 b5 02 22
        E 7 b5 02 29
        E 7 b5 02 0e
        E 7 b5 02 1c
        E 7 b5 02 0b
        E 7 b5 02 2d
        E 7 b5 02 2a
        E 7 b5 02 17
        E 7 b5 02 12
        E 7 b5 02 28
        E 7 b5 02 12
        E 7 b5 02 23
        E 7 b5 02 07
        E 7 b5 02 00
        E 7 b5 02 10
        E 7 b5 02 19
        E 7 b5 02 2b
        E 7 b5 02 27
        E 7 b5 02 01
        E 7 b5 02 2c
        E 7 b5 02 25
        E 7 b5 02 02
        E 7 b5 02 0f
        E 7 b5 02 1e
        E 7 b5 02 26
        E 7 b5 02 30
        E 7 b5 02 1f
        E 7 b5 02 15
        E 7 b5 02 0e
        E 7 b5 02 23
        E 7 b5 02 24
        E 7 b5 02 2c
        E 7 b5 02 31
        E 7 b5 02 18
        E 7 b5 02 20
        E 7 b5 02 22
        E 7 b5 02 1a
        E 7 b5 02 2f
        E 7 b5 02 07
        E 7 b5 02 12
        E 7 b5 02 21
        E 23 b5 02 16
        E 23 b5 02 4c
        E 23 b5 02 32
        E 23 b5 02 07
        E 23 b5 02 48
        E 23 b5 02 3f
        E 23 b5 02 09
        E 23 b5 02 08
        E 23 b5 02 30
        E 23 b5 02 5f
        E 23 b5 02 50
        E 23 b5 02 58
        E 23 b5 02 3f
        E 23 b5 02 0b
        E 23 b5 02 13
        E 23 b5 02 44
        E 23 b5 02 37
        E 23 b5 02 1c
        E 23 b5 02 14
        E 23 b5 02 1b
        E 23 b5 02 4f
        E 23 b5 02 2f
        E 23 b5 02 17
        E 23 b5 02 3a
        E 23 b5 02 64
        E 23 b5 02 00
        E 23 b5 02 0c
        E 23 b5 02 29
        E 23 b5 02 22
        E 23 b5 02 53
        E 23 b5 02 15
        E 23 b5 02 06
        E 23 b5 02 0f
        E 23 b5 02 11
        E 23 b5 02 5b
        E 23 b5 02 19
        E 23 b5 02 00
        E 23 b5 02 4b
        E 23 b5 02 23
        E 23 b5 02 14
        E 23 b5 02 28
        E 23 b5 02 1a
        E 23 b5 02 56
        E 23 b5 02 55
        E 23 b5 02 65
        E 23 b5 02 54
        E 23 b5 02 2b
        E 23 b5 02 5e
        E 23 b5 02 48
        E 23 b5 02 0b
        E 23 b5 02 2c
        E 23 b5 02 36
        E 23 b5 02 60
        E 23 b5 02 4d
        E 23 b5 02 37
        E 23 b5 02 38
        E 23 b5 02 04
        E 23 b5 02 0a
        E 23 b5 02 5d
        E 23 b5 02 51
        E 23 b5 02 2b
        E 23 b5 02 1f
        E 23 b5 02 0d
        E 23 b5 02 2d
        E 23 b5 02 1e
        E 23 b5 02 18
        E 23 b5 02 26
        E 23 b5 02 34
        E 23 b5 02 3d
        E 23 b5 02 41
        E 23 b5 02 10
        E 23 b5 02 3c
        E 23 b5 02 5a
        E 23 b5 02 33
        E 23 b5 02 3b
        E 23 b5 02 02
        E 23 b5 02 07
        E 23 b5 02 63
        E 23 b5 02 42
        E 23 b5 02 12
        E 23 b5 02 5c
        E 23 b5 02 20
        E 23 b5 02 27
        E 23 b5 02 31
        E 23 b5 02 28
        E 23 b5 02 44
        E 23 b5 02 52
        E 23 b5 02 1d
        E 23 b5 02 39
        E 23 b5 02 17
        E 23 b5 02 5b
        E 23 b5 02 54
        E 23 b5 02 2e
        E 23 b5 02 24
        E 23 b5 02 50
        E 23 b5 02 25
        E 23 b5 02 47
        E 23 b5 02 0e
        E 23 b5 02 01
        E 23 b5 02 21
        E 23 b5 02 33
        E 23 b5 02 57
        E 23 b5 02 4e
        E 23 b5 02 03
        E 23 b5 02 57
        E 23 b5 02 4a
        E 23 b5 02 05
        E 23 b5 02 1f
        E 23 b5 02 3b
        E 23 b5 02 4c
        E 23 b5 02 61
        E 23 b5 02 3e
        E 23 b5 02 2a
        E 23 b5 02 1b
        E 23 b5 02 46
        E 23 b5 02 49
        E 23 b5 02 59
        E 23 b5 02 63
        E 23 b5 02 2f
        E 23 b5 02 40
        E 23 b5 02 45
        E 23 b5 02 35
        E 23 b5 02 5f
        E 23 b5 02 0f
        E 23 b5 02 24
        E 23 b5 02 43
        E 71 b5 02 16
        E 71 b5 02 4c
        E 71 b5 02 32
        E 71 b5 02 07
        E 71 b5 02 48
        E 71 b5 02 3f
        E 71 b5 02 09
        E 71 b5 02 08
        E 71 b5 02 30
        E 71 b5 02 5f
        E 71 b5 02 50
        E 71 b5 02 58
        E 71 b5 02 3f
        E 71 b5 02 0b
        E 71 b5 02 13
        E 71 b5 02 44
        E 71 b5 02 37
        E 71 b5 02 1c
        E 71 b5 02 14
        E 71 b5 02 1b
        E 71 b5 02 4f
        E 71 b5 02 2f
        E 71 b5 02 17
        E 71 b5 02 3a
        E 71 b5 02 64
        E 71 b5 02 00
        E 71 b5 02 0c
        E 71 b5 02 29
        E 71 b5 02 22
        E 71 b5 02 53
        E 71 b5 02 15
        E 71 b5 02 06
        E 71 b5 02 0f
        E 71 b5 02 11
        E 71 b5 02 5b
        E 71 b5 02 19
        E 71 b5 02 00
        E 71 b5 02 4b
        E 71 b5 02 23
        E 71 b5 02 14
        E 71 b5 02 28
        E 71 b5 02 1a
        E 71 b5 02 56
        E 71 b5 02 55
        E 71 b5 02 65
        E 71 b5 02 54
        E 71 b5 02 2b
        E 71 b5 02 5e
        E 71 b5 02 48
        E 71 b5 02 0b
        E 71 b5 02 2c
        E 71 b5 02 36
        E 71 b5 02 60
        E 71 b5 02 4d
        E 71 b5 02 37
        E 71 b5 02 38
        E 71 b5 02 04
        E 71 b5 02 0a
        E 71 b5 02 5d
        E 71 b5 02 51
        E 71 b5 02 2b
        E 71 b5 02 1f
        E 71 b5 02 0d
        E 71 b5 02 2d
        E 71 b5 02 1e
        E 71 b5 02 18
        E 71 b5 02 26
        E 71 b5 02 34
        E 71 b5 02 3d
        E 71 b5 02 41
        E 71 b5 02 10
        E 71 b5 02 3c
        E 71 b5 02 5a
        E 71 b5 02 33
        E 71 b5 02 3b
        E 71 b5 02 02
        E 71 b5 02 07
        E 71 b5 02 63
        E 71 b5 02 42
        E 71 b5 02 12
        E 71 b5 02 5c
        E 71 b5 02 20
        E 71 b5 02 27
        E 71 b5 02 31
        E 71 b5 02 28
        E 71 b5 02 44
        E 71 b5 02 52
        E 71 b5 02 1d
        E 71 b5 02 39
        E 71 b5 02 17
        E 71 b5 02 5b
        E 71 b5 02 54
        E 71 b5 02 2e
        E 71 b5 02 24
        E 71 b5 02 50
        E 71 b5 02 25
        E 71 b5 02 47
        E 71 b5 02 0e
        E 71 b5 02 01
        E 71 b5 02 21
        E 71 b5 02 33
        E 71 b5 02 57
        E 71 b5 02 4e
        E 71 b5 02 03
        E 71 b5 02 57
        E 71 b5 02 4a
        E 71 b5 02 05
        E 71 b5 02 1f
        E 71 b5 02 3b
        E 71 b5 02 4c
        E 71 b5 02 61
        E 71 b5 02 3e
        E 71 b5 02 2a
        E 71 b5 02 1b
        E 71 b5 02 46
        E 71 b5 02 49
        E 71 b5 02 59
        E 71 b5 02 63
        E 71 b5 02 2f
        E 71 b5 02 40
        E 71 b5 02 45
        E 71 b5 02 35
        E 71 b5 02 5f
        E 71 b5 02 0f
        E 71 b5 02 24
        E 71 b5 02 43
        E 15 b5 02 10
        E 15 b5 02 39
        E 15 b5 02 25
        E 15 b5 02 06
        E 15 b5 02 36
        E 15 b5 02 30
        E 15 b5 02 07
        E 15 b5 02 06
        E 15 b5 02 24
        E 15 b5 02 48
        E 15 b5 02 3c
        E 15 b5 02 42
        E 15 b5 02 2f
        E 15 b5 02 08
        E 15 b5 02 0e
        E 15 b5 02 33
        E 15 b5 02 2a
        E 15 b5 02 15
        E 15 b5 02 0f
        E 15 b5 02 14
        E 15 b5 02 3b
        E 15 b5 02 23
        E 15 b5 02 12
        E 15 b5 02 2b
        E 15 b5 02 4b
        E 15 b5 02 00
        E 15 b5 02 09
        E 15 b5 02 1f
        E 15 b5 02 19
        E 15 b5 02 3e
        E 15 b5 02 10
        E 15 b5 02 04
        E 15 b5 02 0c
        E 15 b5 02 0d
        E 15 b5 02 45
        E 15 b5 02 13
        E 15 b5 02 00
        E 15 b5 02 38
        E 15 b5 02 1a
        E 15 b5 02 0f
        E 15 b5 02 1e
        E 15 b5 02 13
        E 15 b5 02 40
        E 15 b5 02 40
        E 15 b5 02 4c
        E 15 b5 02 3f
        E 15 b5 02 21
        E 15 b5 02 46
        E 15 b5 02 36
        E 15 b5 02 09
        E 15 b5 02 21
        E 15 b5 02 28
        E 15 b5 02 48
        E 15 b5 02 3a
        E 15 b5 02 29
        E 15 b5 02 2a
        E 15 b5 02 03
        E 15 b5 02 07
        E 15 b5 02 46
        E 15 b5 02 3d
        E 15 b5 02 20
        E 15 b5 02 18
        E 15 b5 02 0a
        E 15 b5 02 22
        E 15 b5 02 16
        E 15 b5 02 12
        E 15 b5 02 1c
        E 15 b5 02 27
        E 15 b5 02 2e
        E 15 b5 02 31
        E 15 b5 02 0c
        E 15 b5 02 2d
        E 15 b5 02 43
        E 15 b5 02 27
        E 15 b5 02 2c
        E 15 b5 02 01
        E 15 b5 02 05
        E 15 b5 02 4b
        E 15 b5 02 31
        E 15 b5 02 0d
        E 15 b5 02 45
        E 15 b5 02 18
        E 15 b5 02 1d
        E 15 b5 02 25
        E 15 b5 02 1e
        E 15 b5 02 33
        E 15 b5 02 3d
        E 15 b5 02 16
        E 15 b5 02 2b
        E 15 b5 02 11
        E 15 b5 02 44
        E 15 b5 02 3f
        E 15 b5 02 22
        E 15 b5 02 1b
        E 15 b5 02 3c
        E 15 b5 02 1c
        E 15 b5 02 35
        E 15 b5 02 0a
        E 15 b5 02 01
        E 15 b5 02 19
        E 15 b5 02 26
        E 15 b5 02 41
        E 15 b5 02 3a
        E 15 b5 02 02
        E 15 b5 02 42
        E 15 b5 02 37
        E 15 b5 02 04
        E 15 b5 02 17
        E 15 b5 02 2d
        E 15 b5 02 39
        E 15 b5 02 49
        E 15 b5 02 2e
        E 15 b5 02 1f
        E 15 b5 02 15
        E 15 b5 02 34
        E 15 b5 02 37
        E 15 b5 02 43
        E 15 b5 02 4a
        E 15 b5 02 24
        E 15 b5 02 30
        E 15 b5 02 34
        E 15 b5 02 28
        E 15 b5 02 47
        E 15 b5 02 0b
        E 15 b5 02 1b
        E 15 b5 02 32
        E 71 b5 02 0b
        E 71 b5 02 26
        E 71 b5 02 19
        E 71 b5 02 04
        E 71 b5 02 24
        E 71 b5 02 20
        E 71 b5 02 04
        E 71 b5 02 04
        E 71 b5 02 18
        E 71 b5 02 30
        E 71 b5 02 28
        E 71 b5 02 2c
        E 71 b5 02 1f
        E 71 b5 02 05
        E 71 b5 02 09
        E 71 b5 02 22
        E 71 b5 02 1c
        E 71 b5 02 0e
        E 71 b5 02 0a
        E 71 b5 02 0d
        E 71 b5 02 27
        E 71 b5 02 17
        E 71 b5 02 0c
        E 71 b5 02 1d
        E 71 b5 02 32
        E 71 b5 02 00
        E 71 b5 02 06
        E 71 b5 02 14
        E 71 b5 02 11
        E 71 b5 02 29
        E 71 b5 02 0a
        E 71 b5 02 03
        E 71 b5 02 08
        E 71 b5 02 08
        E 71 b5 02 2e
        E 71 b5 02 0c
        E 71 b5 02 00
        E 71 b5 02 25
        E 71 b5 02 11
        E 71 b5 02 0a
        E 71 b5 02 14
        E 71 b5 02 0d
        E 71 b5 02 2b
        E 71 b5 02 2a
        E 71 b5 02 32
        E 71 b5 02 2a
        E 71 b5 02 16
        E 71 b5 02 2f
        E 71 b5 02 24
        E 71 b5 02 06
        E 71 b5 02 16
        E 71 b5 02 1b
        E 71 b5 02 30
        E 71 b5 02 26
        E 71 b5 02 1b
        E 71 b5 02 1c
        E 71 b5 02 02
        E 71 b5 02 05
        E 71 b5 02 2e
        E 71 b5 02 28
        E 71 b5 02 15
        E 71 b5 02 10
        E 71 b5 02 06
        E 71 b5 02 16
        E 71 b5 02 0f
        E 71 b5 02 0c
        E 71 b5 02 13
        E 71 b5 02 1a
        E 71 b5 02 1e
        E 71 b5 02 20
        E 71 b5 02 08
        E 71 b5 02 1e
        E 71 b5 02 2d
        E 71 b5 02 1a
        E 71 b5 02 1d
        E 71 b5 02 01
        E 71 b5 02 03
        E 71 b5 02 32
        E 71 b5 02 21
        E 71 b5 02 09
        E 71 b5 02 2e
        E 71 b5 02 10
        E 71 b5 02 13
        E 71 b5 02 18
        E 71 b5 02 14
        E 71 b5 02 22
        E 71 b5 02 29
        E 71 b5 02 0e
        E 71 b5 02 1c
        E 71 b5 02 0b
        E 71 b5 02 2d
        E 71 b5 02 2a
        E 71 b5 02 17
        E 71 b5 02 12
        E 71 b5 02 28
        E 71 b5 02 12
        E 71 b5 02 23
        E 71 b5 02 07
        E 71 b5 02 00
        E 71 b5 02 10
        E 71 b5 02 19
        E 71 b5 02 2b
        E 71 b5 02 27
        E 71 b5 02 01
        E 71 b5 02 2c
        E 71 b5 02 25
        E 71 b5 02 02
        E 71 b5 02 0f
        E 71 b5 02 1e
        E 71 b5 02 26
        E 71 b5 02 30
        E 71 b5 02 1f
        E 71 b5 02 15
        E 71 b5 02 0e
        E 71 b5 02 23
        E 71 b5 02 24
        E 71 b5 02 2c
        E 71 b5 02 31
        E 71 b5 02 18
        E 71 b5 02 20
        E 71 b5 02 22
        E 71 b5 02 1a
        E 71 b5 02 2f
        E 71 b5 02 07
        E 71 b5 02 12
        E 71 b5 02 21
        E 39 b5 02 13
        E 39 b5 02 43
        E 39 b5 02 2c
        E 39 b5 02 07
        E 39 b5 02 3e
        E 39 b5 02 38
        E 39 b5 02 08
        E 39 b5 02 07
        E 39 b5 02 2a
        E 39 b5 02 54
        E 39 b5 02 46
        E 39 b5 02 4d
        E 39 b5 02 37
        E 39 b5 02 09
        E 39 b5 02 10
        E 39 b5 02 3c
        E 39 b5 02 31
        E 39 b5 02 19
        E 39 b5 02 11
        E 39 b5 02 17
        E 39 b5 02 45
        E 39 b5 02 29
        E 39 b5 02 15
        E 39 b5 02 33
        E 39 b5 02 58
        E 39 b5 02 00
        E 39 b5 02 0b
        E 39 b5 02 24
        E 39 b5 02 1e
        E 39 b5 02 48
        E 39 b5 02 12
        E 39 b5 02 05
        E 39 b5 02 0e
        E 39 b5 02 0f
        E 39 b5 02 50
        E 39 b5 02 16
        E 39 b5 02 00
        E 39 b5 02 41
        E 39 b5 02 1e
        E 39 b5 02 12
        E 39 b5 02 23
        E 39 b5 02 17
        E 39 b5 02 4b
        E 39 b5 02 4a
        E 39 b5 02 58
        E 39 b5 02 4a
        E 39 b5 02 26
        E 39 b5 02 52
        E 39 b5 02 3f
        E 39 b5 02 0a
        E 39 b5 02 27
        E 39 b5 02 2f
        E 39 b5 02 54
        E 39 b5 02 43
        E 39 b5 02 30
        E 39 b5 02 31
        E 39 b5 02 04
        E 39 b5 02 09
        E 39 b5 02 51
        E 39 b5 02 47
        E 39 b5 02 25
        E 39 b5 02 1c
        E 39 b5 02 0b
        E 39 b5 02 27
        E 39 b5 02 1a
        E 39 b5 02 15
        E 39 b5 02 21
        E 39 b5 02 2e
        E 39 b5 02 35
        E 39 b5 02 39
        E 39 b5 02 0e
        E 39 b5 02 35
        E 39 b5 02 4f
        E 39 b5 02 2d
        E 39 b5 02 33
        E 39 b5 02 02
        E 39 b5 02 06
        E 39 b5 02 57
        E 39 b5 02 3a
        E 39 b5 02 10
        E 39 b5 02 51
        E 39 b5 02 1c
        E 39 b5 02 22
        E 39 b5 02 2b
        E 39 b5 02 23
        E 39 b5 02 3b
        E 39 b5 02 48
        E 39 b5 02 19
        E 39 b5 02 32
        E 39 b5 02 14
        E 39 b5 02 4f
        E 39 b5 02 49
        E 39 b5 02 28
        E 39 b5 02 20
        E 39 b5 02 46
        E 39 b5 02 20
        E 39 b5 02 3e
        E 39 b5 02 0c
        E 39 b5 02 01
        E 39 b5 02 1d
        E 39 b5 02 2c
        E 39 b5 02 4c
        E 39 b5 02 44
        E 39 b5 02 02
        E 39 b5 02 4d
        E 39 b5 02 41
        E 39 b5 02 04
        E 39 b5 02 1b
        E 39 b5 02 34
        E 39 b5 02 42
        E 39 b5 02 55
        E 39 b5 02 36
        E 39 b5 02 25
        E 39 b5 02 18
        E 39 b5 02 3d
        E 39 b5 02 40
        E 39 b5 02 4e
        E 39 b5 02 56
        E 39 b5 02 2a
        E 39 b5 02 38
        E 39 b5 02 3c
        E 39 b5 02 2e
        E 39 b5 02 53
        E 39 b5 02 0d
        E 39 b5 02 1f
        E 39 b5 02 3a
        E 7 b5 02 0b
        E 7 b5 02 26
        E 7 b5 02 19
        E 7 b5 02 04
        E 7 b5 02 24
        E 7 b5 02 20
        E 7 b5 02 04
        E 7 b5 02 04
        E 7 b5 02 18
        E 7 b5 02 30
        E 7 b5 02 28
        E 7 b5 02 2c
        E 7 b5 02 1f
        E 7 b5 02 05
        E 7 b5 02 09
        E 7 b5 02 22
        E 7 b5 02 1c
        E 7 b5 02 0e
        E 7 b5 02 0a
        E 7 b5 02 0d
        E 7 b5 02 27
        E 7 b5 02 17
        E 7 b5 02 0c
        E 7 b5 02 1d
        E 7 b5 02 32
        E 7 b5 02 00
        E 7 b5 02 06
        E 7 b5 02 14
        E 7 b5 02 11
        E 7 b5 02 29
        E 7 b5 02 0a
        E 7 b5 02 03
        E 7 b5 02 08
        E 7 b5 02 08
        E 7 b5 02 2e
        E 7 b5 02 0c
        E 7 b5 02 00
        E 7 b5 02 25
        E 7 b5 02 11
        E 7 b5 02 0a
        E 7 b5 02 14
        E 7 b5 02 0d
        E 7 b5 02 2b
        E 7 b5 02 2a
        E 7 b5 02 32
        E 7 b5 02 2a
        E 7 b5 02 16
        E 7 b5 02 2f
        E 7 b5 02 24
        E 7 b5 02 06
        E 7 b5 02 16
        E 7 b5 02 1b
        E 7 b5 02 30
        E 7 b5 02 26
        E 7 b5 02 1b
        E 7 b5 02 1c
        E 7 b5 02 02
        E 7 b5 02 05
        E 7 b5 02 2e
        E 7 b5 02 28
        E 7 b5 02 15
        E 7 b5 02 10
        E 7 b5 02 06
        E 7 b5 02 16
        E 7 b5 02 0f
        E 7 b5 02 0c
        E 7 b5 02 13
        E 7 b5 02 1a
        E 7 b5 02 1e
        E 7 b5 02 20
        E 7 b5 02 08
        E 7 b5 02 1e
        E 7 b5 02 2d
        E 7 b5 02 1a
        E 7 b5 02 1d
        E 7 b5 02 01
        E 7 b5 02 03
        E 7 b5 02 32
        E 7 b5 02 21
        E 7 b5 02 09
        E 7 b5 02 2e
        E 7 b5 02 10
        E 7 b5 02 13
        E 7 b5 02 18
        E 7 b5 02 14
        E 7 b5 02 22
        E 7 b5 02 29
        E 7 b5 02 0e
        E 7 b5 02 1c
        E 7 b5 02 0b
        E 7 b5 02 2d
        E 7 b5 02 2a
        E 7 b5 02 17
        E 7 b5 02 12
        E 7 b5 02 28
        E 7 b5 02 12
        E 7 b5 02 23
        E 7 b5 02 07
        E 7 b5 02 00
        E 7 b5 02 10
        E 7 b5 02 19
        E 7 b5 02 2b
        E 7 b5 02 27
        E 7 b5 02 01
        E 7 b5 02 2c
        E 7 b5 02 25
        E 7 b5 02 02
        E 7 b5 02 0f
        E 7 b5 02 1e
        E 7 b5 02 26
        E 7 b5 02 30
        E 7 b5 02 1f
        E 7 b5 02 15
        E 7 b5 02 0e
        E 7 b5 02 23
        E 7 b5 02 24
        E 7 b5 02 2c
        E 7 b5 02 31
        E 7 b5 02 18
        E 7 b5 02 20
        E 7 b5 02 22
        E 7 b5 02 1a
        E 7 b5 02 2f
        E 7 b5 02 07
        E 7 b5 02 12
        E 7 b5 02 21
        E 23 b5 02 16
        E 23 b5 02 4c
        E 23 b5 02 32
        E 23 b5 02 07
        E 23 b5 02 48
        E 23 b5 02 3f
        E 23 b5 02 09
        E 23 b5 02 08
        E 23 b5 02 30
        E 23 b5 02 5f
        E 23 b5 02 50
        E 23 b5 02 58
        E 23 b5 02 3f
        E 23 b5 02 0b
        E 23 b5 02 13
        E 23 b5 02 44
        E 23 b5 02 37
        E 23 b5 02 1c
        E 23 b5 02 14
        E 23 b5 02 1b
        E 23 b5 02 4f
        E 23 b5 02 2f
        E 23 b5 02 17
        E 23 b5 02 3a
        E 23 b5 02 64
        E 23 b5 02 00
        E 23 b5 02 0c
        E 23 b5 02 29
        E 23 b5 02 22
        E 23 b5 02 53
        E 23 b5 02 15
        E 23 b5 02 06
        E 23 b5 02 0f
        E 23 b5 02 11
        E 23 b5 02 5b
        E 23 b5 02 19
        E 23 b5 02 00
        E 23 b5 02 4b
        E 23 b5 02 23
        E 23 b5 02 14
        E 23 b5 02 28
        E 23 b5 02 1a
        E 23 b5 02 56
        E 23 b5 02 55
        E 23 b5 02 65
        E 23 b5 02 54
        E 23 b5 02 2b
        E 23 b5 02 5e
        E 23 b5 02 48
        E 23 b5 02 0b
        E 23 b5 02 2c
        E 23 b5 02 36
        E 23 b5 02 60
        E 23 b5 02 4d
        E 23 b5 02 37
        E 23 b5 02 38
        E 23 b5 02 04
        E 23 b5 02 0a
        E 23 b5 02 5d
        E 23 b5 02 51
        E 23 b5 02 2b
        E 23 b5 02 1f
        E 23 b5 02 0d
        E 23 b5 02 2d
        E 23 b5 02 1e
        E 23 b5 02 18
        E 23 b5 02 26
        E 23 b5 02 34
        E 23 b5 02 3d
        E 23 b5 02 41
        E 23 b5 02 10
        E 23 b5 02 3c
        E 23 b5 02 5a
        E 23 b5 02 33
        E 23 b5 02 3b
        E 23 b5 02 02
        E 23 b5 02 07
        E 23 b5 02 63
        E 23 b5 02 42
        E 23 b5 02 12
        E 23 b5 02 5c
        E 23 b5 02 20
        E 23 b5 02 27
        E 23 b5 02 31
        E 23 b5 02 28
        E 23 b5 02 44
        E 23 b5 02 52
        E 23 b5 02 1d
        E 23 b5 02 39
        E 23 b5 02 17
        E 23 b5 02 5b
        E 23 b5 02 54
        E 23 b5 02 2e
        E 23 b5 02 24
        E 23 b5 02 50
        E 23 b5 02 25
        E 23 b5 02 47
        E 23 b5 02 0e
        E 23 b5 02 01
        E 23 b5 02 21
        E 23 b5 02 33
        E 23 b5 02 57
        E 23 b5 02 4e
        E 23 b5 02 03
        E 23 b5 02 57
        E 23 b5 02 4a
        E 23 b5 02 05
        E 23 b5 02 1f
        E 23 b5 02 3b
        E 23 b5 02 4c
        E 23 b5 02 61
        E 23 b5 02 3e
        E 23 b5 02 2a
        E 23 b5 02 1b
        E 23 b5 02 46
        E 23 b5 02 49
        E 23 b5 02 59
        E 23 b5 02 63
        E 23 b5 02 2f
        E 23 b5 02 40
        E 23 b5 02 45
        E 23 b5 02 35
        E 23 b5 02 5f
        E 23 b5 02 0f
        E 23 b5 02 24
        E 23 b5 02 43
        E 71 b5 02 16
        E 71 b5 02 4c
        E 71 b5 02 32
        E 71 b5 02 07
        E 71 b5 02 48
        E 71 b5 02 3f
        E 71 b5 02 09
        E 71 b5 02 08
        E 71 b5 02 30
        E 71 b5 02 5f
        E 71 b5 02 50
        E 71 b5 02 58
        E 71 b5 02 3f
        E 71 b5 02 0b
        E 71 b5 02 13
        E 71 b5 02 44
        E 71 b5 02 37
        E 71 b5 02 1c
        E 71 b5 02 14
        E 71 b5 02 1b
        E 71 b5 02 4f
        E 71 b5 02 2f
        E 71 b5 02 17
        E 71 b5 02 3a
        E 71 b5 02 64
        E 71 b5 02 00
        E 71 b5 02 0c
        E 71 b5 02 29
        E 71 b5 02 22
        E 71 b5 02 53
        E 71 b5 02 15
        E 71 b5 02 06
        E 71 b5 02 0f
        E 71 b5 02 11
        E 71 b5 02 5b
        E 71 b5 02 19
        E 71 b5 02 00
        E 71 b5 02 4b
        E 71 b5 02 23
        E 71 b5 02 14
        E 71 b5 02 28
        E 71 b5 02 1a
        E 71 b5 02 56
        E 71 b5 02 55
        E 71 b5 02 65
        E 71 b5 02 54
        E 71 b5 02 2b
        E 71 b5 02 5e
        E 71 b5 02 48
        E 71 b5 02 0b
        E 71 b5 02 2c
        E 71 b5 02 36
        E 71 b5 02 60
        E 71 b5 02 4d
        E 71 b5 02 37
        E 71 b5 02 38
        E 71 b5 02 04
        E 71 b5 02 0a
        E 71 b5 02 5d
        E 71 b5 02 51
        E 71 b5 02 2b
        E 71 b5 02 1f
        E 71 b5 02 0d
        E 71 b5 02 2d
        E 71 b5 02 1e
        E 71 b5 02 18
        E 71 b5 02 26
        E 71 b5 02 34
        E 71 b5 02 3d
        E 71 b5 02 41
        E 71 b5 02 10
        E 71 b5 02 3c
        E 71 b5 02 5a
        E 71 b5 02 33
        E 71 b5 02 3b
        E 71 b5 02 02
        E 71 b5 02 07
        E 71 b5 02 63
        E 71 b5 02 42
        E 71 b5 02 12
        E 71 b5 02 5c
        E 71 b5 02 20
        E 71 b5 02 27
        E 71 b5 02 31
        E 71 b5 02 28
        E 71 b5 02 44
        E 71 b5 02 52
        E 71 b5 02 1d
        E 71 b5 02 39
        E 71 b5 02 17
        E 71 b5 02 5b
        E 71 b5 02 54
        E 71 b5 02 2e
        E 71 b5 02 24
        E 71 b5 02 50
        E 71 b5 02 25
        E 71 b5 02 47
        E 71 b5 02 0e
        E 71 b5 02 01
        E 71 b5 02 21
        E 71 b5 02 33
        E 71 b5 02 57
        E 71 b5 02 4e
        E 71 b5 02 03
        E 71 b5 02 57
        E 71 b5 02 4a
        E 71 b5 02 05
        E 71 b5 02 1f
        E 71 b5 02 3b
        E 71 b5 02 4c
        E 71 b5 02 61
        E 71 b5 02 3e
        E 71 b5 02 2a
        E 71 b5 02 1b
        E 71 b5 02 46
        E 71 b5 02 49
        E 71 b5 02 59
        E 71 b5 02 63
        E 71 b5 02 2f
        E 71 b5 02 40
        E 71 b5 02 45
        E 71 b5 02 35
        E 71 b5 02 5f
        E 71 b5 02 0f
        E 71 b5 02 24
        E 71 b5 02 43
        E 15 b5 02 10
        E 15 b5 02 39
        E 15 b5 02 25
        E 15 b5 02 06
        E 15 b5 02 36
        E 15 b5 02 30
        E 15 b5 02 07
        E 15 b5 02 06
        E 15 b5 02 24
        E 15 b5 02 48
        E 15 b5 02 3c
        E 15 b5 02 42
        E 15 b5 02 2f
        E 15 b5 02 08
        E 15 b5 02 0e
        E 15 b5 02 33
        E 15 b5 02 2a
        E 15 b5 02 15
        E 15 b5 02 0f
        E 15 b5 02 14
        E 15 b5 02 3b
        E 15 b5 02 23
        E 15 b5 02 12
        E 15 b5 02 2b
        E 15 b5 02 4b
        E 15 b5 02 00
        E 15 b5 02 09
        E 15 b5 02 1f
        E 15 b5 02 19
        E 15 b5 02 3e
        E 15 b5 02 10
        E 15 b5 02 04
        E 15 b5 02 0c
        E 15 b5 02 0d
        E 15 b5 02 45
        E 15 b5 02 13
        E 15 b5 02 00
        E 15 b5 02 38
        E 15 b5 02 1a
        E 15 b5 02 0f
        E 15 b5 02 1e
        E 15 b5 02 13
        E 15 b5 02 40
        E 15 b5 02 40
        E 15 b5 02 4c
        E 15 b5 02 3f
        E 15 b5 02 21
        E 15 b5 02 46
        E 15 b5 02 36
        E 15 b5 02 09
        E 15 b5 02 21
        E 15 b5 02 28
        E 15 b5 02 48
        E 15 b5 02 3a
        E 15 b5 02 29
        E 15 b5 02 2a
        E 15 b5 02 03
        E 15 b5 02 07
        E 15 b5 02 46
        E 15 b5 02 3d
        E 15 b5 02 20
        E 15 b5 02 18
        E 15 b5 02 0a
        E 15 b5 02 22
        E 15 b5 02 16
        E 15 b5 02 12
        E 15 b5 02 1c
        E 15 b5 02 27
        E 15 b5 02 2e
        E 15 b5 02 31
        E 15 b5 02 0c
        E 15 b5 02 2d
        E 15 b5 02 43
        E 15 b5 02 27
        E 15 b5 02 2c
        E 15 b5 02 01
        E 15 b5 02 05
        E 15 b5 02 4b
        E 15 b5 02 31
        E 15 b5 02 0d
        E 15 b5 02 45
        E 15 b5 02 18
        E 15 b5 02 1d
        E 15 b5 02 25
        E 15 b5 02 1e
        E 15 b5 02 33
        E 15 b5 02 3d
        E 15 b5 02 16
        E 15 b5 02 2b
        E 15 b5 02 11
        E 15 b5 02 44
        E 15 b5 02 3f
        E 15 b5 02 22
        E 15 b5 02 1b
        E 15 b5 02 3c
        E 15 b5 02 1c
        E 15 b5 02 35
        E 15 b5 02 0a
        E 15 b5 02 01
        E 15 b5 02 19
        E 15 b5 02 26
        E 15 b5 02 41
        E 15 b5 02 3a
        E 15 b5 02 02
        E 15 b5 02 42
        E 15 b5 02 37
        E 15 b5 02 04
        E 15 b5 02 17
        E 15 b5 02 2d
        E 15 b5 02 39
        E 15 b5 02 49
        E 15 b5 02 2e
        E 15 b5 02 1f
        E 15 b5 02 15
        E 15 b5 02 34
        E 15 b5 02 37
        E 15 b5 02 43
        E 15 b5 02 4a
        E 15 b5 02 24
        E 15 b5 02 30
        E 15 b5 02 34
        E 15 b5 02 28
        E 15 b5 02 47
        E 15 b5 02 0b
        E 15 b5 02 1b
        E 15 b5 02 32
        E 71 b5 02 0b
        E 71 b5 02 26
        E 71 b5 02 19
        E 71 b5 02 04
        E 71 b5 02 24
        E 71 b5 02 20
        E 71 b5 02 04
        E 71 b5 02 04
        E 71 b5 02 18
        E 71 b5 02 30
        E 71 b5 02 28
        E 71 b5 02 2c
        E 71 b5 02 1f
        E 71 b5 02 05
        E 71 b5 02 09
        E 71 b5 02 22
        E 71 b5 02 1c
        E 71 b5 02 0e
        E 71 b5 02 0a
        E 71 b5 02 0d
        E 71 b5 02 27
        E 71 b5 02 17
        E 71 b5 02 0c
        E 71 b5 02 1d
        E 71 b5 02 32
        E 71 b5 02 00
        E 71 b5 02 06
        E 71 b5 02 14
        E 71 b5 02 11
        E 71 b5 02 29
        E 71 b5 02 0a
        E 71 b5 02 03
        E 71 b5 02 08
        E 71 b5 02 08
        E 71 b5 02 2e
        E 71 b5 02 0c
        E 71 b5 02 00
        E 71 b5 02 25
        E 71 b5 02 11
        E 71 b5 02 0a
        E 71 b5 02 14
        E 71 b5 02 0d
        E 71 b5 02 2b
        E 71 b5 02 2a
        E 71 b5 02 32
        E 71 b5 02 2a
        E 71 b5 02 16
        E 71 b5 02 2f
        E 71 b5 02 24
        E 71 b5 02 06
        E 71 b5 02 16
        E 71 b5 02 1b
        E 71 b5 02 30
        E 71 b5 02 26
        E 71 b5 02 1b
        E 71 b5 02 1c
        E 71 b5 02 02
        E 71 b5 02 05
        E 71 b5 02 2e
        E 71 b5 02 28
        E 71 b5 02 15
        E 71 b5 02 10
        E 71 b5 02 06
        E 71 b5 02 16
        E 71 b5 02 0f
        E 71 b5 02 0c
        E 71 b5 02 13
        E 71 b5 02 1a
        E 71 b5 02 1e
        E 71 b5 02 20
        E 71 b5 02 08
        E 71 b5 02 1e
        E 71 b5 02 2d
        E 71 b5 02 1a
        E 71 b5 02 1d
        E 71 b5 02 01
        E 71 b5 02 03
        E 71 b5 02 32
        E 71 b5 02 21
        E 71 b5 02 09
        E 71 b5 02 2e
        E 71 b5 02 10
        E 71 b5 02 13
        E 71 b5 02 18
        E 71 b5 02 14
        E 71 b5 02 22
        E 71 b5 02 29
        E 71 b5 02 0e
        E 71 b5 02 1c
        E 71 b5 02 0b
        E 71 b5 02 2d
        E 71 b5 02 2a
        E 71 b5 02 17
        E 71 b5 02 12
        E 71 b5 02 28
        E 71 b5 02 12
        E 71 b5 02 23
        E 71 b5 02 07
        E 71 b5 02 00
        E 71 b5 02 10
        E 71 b5 02 19
        E 71 b5 02 2b
        E 71 b5 02 27
        E 71 b5 02 01
        E 71 b5 02 2c
        E 71 b5 02 25
        E 71 b5 02 02
        E 71 b5 02 0f
        E 71 b5 02 1e
        E 71 b5 02 26
        E 71 b5 02 30
        E 71 b5 02 1f
        E 71 b5 02 15
        E 71 b5 02 0e
        E 71 b5 02 23
        E 71 b5 02 24
        E 71 b5 02 2c
        E 71 b5 02 31
        E 71 b5 02 18
        E 71 b5 02 20
        E 71 b5 02 22
        E 71 b5 02 1a
        E 71 b5 02 2f
        E 71 b5 02 07
        E 71 b5 02 12
        E 71 b5 02 21
        E 39 b5 02 13
        E 39 b5 02 43
        E 39 b5 02 2c
        E 39 b5 02 07
        E 39 b5 02 3e
        E 39 b5 02 38
        E 39 b5 02 08
        E 39 b5 02 07
        E 39 b5 02 2a
        E 39 b5 02 54
        E 39 b5 02 46
        E 39 b5 02 4d
        E 39 b5 02 37
        E 39 b5 02 09
        E 39 b5 02 10
        E 39 b5 02 3c
        E 39 b5 02 31
        E 39 b5 02 19
        E 39 b5 02 11
        E 39 b5 02 17
        E 39 b5 02 45
        E 39 b5 02 29
        E 39 b5 02 15
        E 39 b5 02 33
        E 39 b5 02 58
        E 39 b5 02 00
        E 39 b5 02 0b
        E 39 b5 02 24
        E 39 b5 02 1e
        E 39 b5 02 48
        E 39 b5 02 12
        E 39 b5 02 05
        E 39 b5 02 0e
        E 39 b5 02 0f
        E 39 b5 02 50
        E 39 b5 02 16
        E 39 b5 02 00
        E 39 b5 02 41
        E 39 b5 02 1e
        E 39 b5 02 12
        E 39 b5 02 23
        E 39 b5 02 17
        E 39 b5 02 4b
        E 39 b5 02 4a
        E 39 b5 02 58
        E 39 b5 02 4a
        E 39 b5 02 26
        E 39 b5 02 52
        E 39 b5 02 3f
        E 39 b5 02 0a
        E 39 b5 02 27
        E 39 b5 02 2f
        E 39 b5 02 54
        E 39 b5 02 43
        E 39 b5 02 30
        E 39 b5 02 31
        E 39 b5 02 04
        E 39 b5 02 09
        E 39 b5 02 51
        E 39 b5 02 47
        E 39 b5 02 25
        E 39 b5 02 1c
        E 39 b5 02 0b
        E 39 b5 02 27
        E 39 b5 02 1a
        E 39 b5 02 15
        E 39 b5 02 21
        E 39 b5 02 2e
        E 39 b5 02 35
        E 39 b5 02 39
        E 39 b5 02 0e
        E 39 b5 02 35
        E 39 b5 02 4f
        E 39 b5 02 2d
        E 39 b5 02 33
        E 39 b5 02 02
        E 39 b5 02 06
        E 39 b5 02 57
        E 39 b5 02 3a
        E 39 b5 02 10
        E 39 b5 02 51
        E 39 b5 02 1c
        E 39 b5 02 22
        E 39 b5 02 2b
        E 39 b5 02 23
        E 39 b5 02 3b
        E 39 b5 02 48
        E 39 b5 02 19
        E 39 b5 02 32
        E 39 b5 02 14
        E 39 b5 02 4f
        E 39 b5 02 49
        E 39 b5 02 28
        E 39 b5 02 20
        E 39 b5 02 46
        E 39 b5 02 20
        E 39 b5 02 3e
        E 39 b5 02 0c
        E 39 b5 02 01
        E 39 b5 02 1d
        E 39 b5 02 2c
        E 39 b5 02 4c
        E 39 b5 02 44
        E 39 b5 02 02
        E 39 b5 02 4d
        E 39 b5 02 41
        E 39 b5 02 04
        E 39 b5 02 1b
        E 39 b5 02 34
        E 39 b5 02 42
        E 39 b5 02 55
        E 39 b5 02 36
        E 39 b5 02 25
        E 39 b5 02 18
        E 39 b5 02 3d
        E 39 b5 02 40
        E 39 b5 02 4e
        E 39 b5 02 56
        E 39 b5 02 2a
        E 39 b5 02 38
        E 39 b5 02 3c
        E 39 b5 02 2e
        E 39 b5 02 53
        E 39 b5 02 0d
        E 39 b5 02 1f
        E 39 b5 02 3a
        E 7 b5 02 0b
        E 7 b5 02 26
        E 7 b5 02 19
        E 7 b5 02 04
        E 7 b5 02 24
        E 7 b5 02 20
        E 7 b5 02 04
        E 7 b5 02 04
        E 7 b5 02 18
        E 7 b5 02 30
        E 7 b5 02 28
        E 7 b5 02 2c
        E 7 b5 02 1f
        E 7 b5 02 05
        E 7 b5 02 09
        E 7 b5 02 22
        E 7 b5 02 1c
        E 7 b5 02 0e
        E 7 b5 02 0a
        E 7 b5 02 0d
        E 7 b5 02 27
        E 7 b5 02 17
        E 7 b5 02 0c
        E 7 b5 02 1d
        E 7 b5 02 32
        E 7 b5 02 00
        E 7 b5 02 06
        E 7 b5 02 14
        E 7 b5 02 11
        E 7 b5 02 29
        E 7 b5 02 0a
        E 7 b5 02 03
        E 7 b5 02 08
        E 7 b5 02 08
        E 7 b5 02 2e
        E 7 b5 02 0c
        E 7 b5 02 00
        E 7 b5 02 25
        E 7 b5 02 11
        E 7 b5 02 0a
        E 7 b5 02 14
        E 7 b5 02 0d
        E 7 b5 02 2b
        E 7 b5 02 2a
        E 7 b5 02 32
        E 7 b5 02 2a
        E 7 b5 02 16
        E 7 b5 02 2f
        E 7 b5 02 24
        E 7 b5 02 06
        E 7 b5 02 16
        E 7 b5 02 1b
        E 7 b5 02 30
        E 7 b5 02 26
        E 7 b5 02 1b
        E 7 b5 02 1c
        E 7 b5 02 02
        E 7 b5 02 05
        E 7 b5 02 2e
        E 7 b5 02 28
        E 7 b5 02 15
        E 7 b5 02 10
        E 7 b5 02 06
        E 7 b5 02 16
        E 7 b5 02 0f
        E 7 b5 02 0c
        E 7 b5 02 13
        E 7 b5 02 1a
        E 7 b5 02 1e
        E 7 b5 02 20
        E 7 b5 02 08
        E 7 b5 02 1e
        E 7 b5 02 2d
        E 7 b5 02 1a
        E 7 b5 02 1d
        E 7 b5 02 01
        E 7 b5 02 03
        E 7 b5 02 32
        E 7 b5 02 21
        E 7 b5 02 09
        E 7 b5 02 2e
        E 7 b5 02 10
        E 7 b5 02 13
        E 7 b5 02 18
        E 7 b5 02 14
        E 7 b5 02 22
        E 7 b5 02 29
        E 7 b5 02 0e
        E 7 b5 02 1c
        E 7 b5 02 0b
        E 7 b5 02 2d
        E 7 b5 02 2a
        E 7 b5 02 17
        E 7 b5 02 12
        E 7 b5 02 28
        E 7 b5 02 12
        E 7 b5 02 23
        E 7 b5 02 07
        E 7 b5 02 00
        E 7 b5 02 10
        E 7 b5 02 19
        E 7 b5 02 2b
        E 7 b5 02 27
        E 7 b5 02 01
        E 7 b5 02 2c
        E 7 b5 02 25
        E 7 b5 02 02
        E 7 b5 02 0f
        E 7 b5 02 1e
        E 7 b5 02 26
        E 7 b5 02 30
        E 7 b5 02 1f
        E 7 b5 02 15
        E 7 b5 02 0e
        E 7 b5 02 23
        E 7 b5 02 24
        E 7 b5 02 2c
        E 7 b5 02 31
        E 7 b5 02 18
        E 7 b5 02 20
        E 7 b5 02 22
        E 7 b5 02 1a
        E 7 b5 02 2f
        E 7 b5 02 07
        E 7 b5 02 12
        E 7 b5 02 21
        E 23 b5 02 16
        E 23 b5 02 4c
        E 23 b5 02 32
        E 23 b5 02 07
        E 23 b5 02 48
        E 23 b5 02 3f
        E 23 b5 02 09
        E 23 b5 02 08
        E 23 b5 02 30
        E 23 b5 02 5f
        E 23 b5 02 50
        E 23 b5 02 58
        E 23 b5 02 3f
        E 23 b5 02 0b
        E 23 b5 02 13
        E 23 b5 02 44
        E 23 b5 02 37
        E 23 b5 02 1c
        E 23 b5 02 14
        E 23 b5 02 1b
        E 23 b5 02 4f
        E 23 b5 02 2f
        E 23 b5 02 17
        E 23 b5 02 3a
        E 23 b5 02 64
        E 23 b5 02 00
        E 23 b5 02 0c
        E 23 b5 02 29
        E 23 b5 02 22
        E 23 b5 02 53
        E 23 b5 02 15
        E 23 b5 02 06
        E 23 b5 02 0f
        E 23 b5 02 11
        E 23 b5 02 5b
        E 23 b5 02 19
        E 23 b5 02 00
        E 23 b5 02 4b
        E 23 b5 02 23
        E 23 b5 02 14
        E 23 b5 02 28
        E 23 b5 02 1a
        E 23 b5 02 56
        E 23 b5 02 55
        E 23 b5 02 65
        E 23 b5 02 54
        E 23 b5 02 2b
        E 23 b5 02 5e
        E 23 b5 02 48
        E 23 b5 02 0b
        E 23 b5 02 2c
        E 23 b5 02 36
        E 23 b5 02 60
        E 23 b5 02 4d
        E 23 b5 02 37
        E 23 b5 02 38
        E 23 b5 02 04
        E 23 b5 02 0a
        E 23 b5 02 5d
        E 23 b5 02 51
        E 23 b5 02 2b
        E 23 b5 02 1f
        E 23 b5 02 0d
        E 23 b5 02 2d
        E 23 b5 02 1e
        E 23 b5 02 18
        E 23 b5 02 26
        E 23 b5 02 34
        E 23 b5 02 3d
        E 23 b5 02 41
        E 23 b5 02 10
        E 23 b5 02 3c
        E 23 b5 02 5a
        E 23 b5 02 33
        E 23 b5 02 3b
        E 23 b5 02 02
        E 23 b5 02 07
        E 23 b5 02 63
        E 23 b5 02 42
        E 23 b5 02 12
        E 23 b5 02 5c
        E 23 b5 02 20
        E 23 b5 02 27
        E 23 b5 02 31
        E 23 b5 02 28
        E 23 b5 02 44
        E 23 b5 02 52
        E 23 b5 02 1d
        E 23 b5 02 39
        E 23 b5 02 17
        E 23 b5 02 5b
        E 23 b5 02 54
        E 23 b5 02 2e
        E 23 b5 02 24
        E 23 b5 02 50
        E 23 b5 02 25
        E 23 b5 02 47
        E 23 b5 02 0e
        E 23 b5 02 01
        E 23 b5 02 21
        E 23 b5 02 33
        E 23 b5 02 57
        E 23 b5 02 4e
        E 23 b5 02 03
        E 23 b5 02 57
        E 23 b5 02 4a
        E 23 b5 02 05
        E 23 b5 02 1f
        E 23 b5 02 3b
        E 23 b5 02 4c
        E 23 b5 02 61
        E 23 b5 02 3e
        E 23 b5 02 2a
        E 23 b5 02 1b
        E 23 b5 02 46
        E 23 b5 02 49
        E 23 b5 02 59
        E 23 b5 02 63
        E 23 b5 02 2f
        E 23 b5 02 40
        E 23 b5 02 45
        E 23 b5 02 35
        E 23 b5 02 5f
        E 23 b5 02 0f
        E 23 b5 02 24
        E 23 b5 02 43
        E 71 b5 02 16
        E 71 b5 02 4c
        E 71 b5 02 32
        E 71 b5 02 07
        E 71 b5 02 48
        E 71 b5 02 3f
        E 71 b5 02 09
        E 71 b5 02 08
        E 71 b5 02 30
        E 71 b5 02 5f
        E 71 b5 02 50
        E 71 b5 02 58
        E 71 b5 02 3f
        E 71 b5 02 0b
        E 71 b5 02 13
        E 71 b5 02 44
        E 71 b5 02 37
        E 71 b5 02 1c
        E 71 b5 02 14
        E 71 b5 02 1b
        E 71 b5 02 4f
        E 71 b5 02 2f
        E 71 b5 02 17
        E 71 b5 02 3a
        E 71 b5 02 64
        E 71 b5 02 00
        E 71 b5 02 0c
        E 71 b5 02 29
        E 71 b5 02 22
        E 71 b5 02 53
        E 71 b5 02 15
        E 71 b5 02 06
        E 71 b5 02 0f
        E 71 b5 02 11
        E 71 b5 02 5b
        E 71 b5 02 19
        E 71 b5 02 00
        E 71 b5 02 4b
        E 71 b5 02 23
        E 71 b5 02 14
        E 71 b5 02 28
        E 71 b5 02 1a
        E 71 b5 02 56
        E 71 b5 02 55
        E 71 b5 02 65
        E 71 b5 02 54
        E 71 b5 02 2b
        E 71 b5 02 5e
        E 71 b5 02 48
        E 71 b5 02 0b
        E 71 b5 02 2c
        E 71 b5 02 36
        E 71 b5 02 60
        E 71 b5 02 4d
        E 71 b5 02 37
        E 71 b5 02 38
        E 71 b5 02 04
        E 71 b5 02 0a
        E 71 b5 02 5d
        E 71 b5 02 51
        E 71 b5 02 2b
        E 71 b5 02 1f
        E 71 b5 02 0d
        E 71 b5 02 2d
        E 71 b5 02 1e
        E 71 b5 02 18
        E 71 b5 02 26
        E 71 b5 02 34
        E 71 b5 02 3d
        E 71 b5 02 41
        E 71 b5 02 10
        E 71 b5 02 3c
        E 71 b5 02 5a
        E 71 b5 02 33
        E 71 b5 02 3b
        E 71 b5 02 02
        E 71 b5 02 07
        E 71 b5 02 63
        E 71 b5 02 42
        E 71 b5 02 12
        E 71 b5 02 5c
        E 71 b5 02 20
        E 71 b5 02 27
        E 71 b5 02 31
        E 71 b5 02 28
        E 71 b5 02 44
        E 71 b5 02 52
        E 71 b5 02 1d
        E 71 b5 02 39
        E 71 b5 02 17
        E 71 b5 02 5b
        E 71 b5 02 54
        E 71 b5 02 2e
        E 71 b5 02 24
        E 71 b5 02 50
        E 71 b5 02 25
        E 71 b5 02 47
        E 71 b5 02 0e
        E 71 b5 02 01
        E 71 b5 02 21
        E 71 b5 02 33
        E 71 b5 02 57
        E 71 b5 02 4e
        E 71 b5 02 03
        E 71 b5 02 57
        E 71 b5 02 4a
        E 71 b5 02 05
        E 71 b5 02 1f
        E 71 b5 02 3b
        E 71 b5 02 4c
        E 71 b5 02 61
        E 71 b5 02 3e
        E 71 b5 02 2a
        E 71 b5 02 1b
        E 71 b5 02 46
        E 71 b5 02 49
        E 71 b5 02 59
        E 71 b5 02 63
        E 71 b5 02 2f
        E 71 b5 02 40
        E 71 b5 02 45
        E 71 b5 02 35
        E 71 b5 02 5f
        E 71 b5 02 0f
        E 71 b5 02 24
        E 71 b5 02 43
        E 15 b5 02 10
        E 15 b5 02 39
        E 15 b5 02 25
        E 15 b5 02 06
        E 15 b5 02 36
        E 15 b5 02 30
        E 15 b5 02 07
        E 15 b5 02 06
        E 15 b5 02 24
        E 15 b5 02 48
        E 15 b5 02 3c
        E 15 b5 02 42
        E 15 b5 02 2f
        E 15 b5 02 08
        E 15 b5 02 0e
        E 15 b5 02 33
        E 15 b5 02 2a
        E 15 b5 02 15
        E 15 b5 02 0f
        E 15 b5 02 14
        E 15 b5 02 3b
        E 15 b5 02 23
        E 15 b5 02 12
        E 15 b5 02 2b
        E 15 b5 02 4b
        E 15 b5 02 00
        E 15 b5 02 09
        E 15 b5 02 1f
        E 15 b5 02 19
        E 15 b5 02 3e
        E 15 b5 02 10
        E 15 b5 02 04
        E 15 b5 02 0c
        E 15 b5 02 0d
        E 15 b5 02 45
        E 15 b5 02 13
        E 15 b5 02 00
        E 15 b5 02 38
        E 15 b5 02 1a
        E 15 b5 02 0f
        E 15 b5 02 1e
        E 15 b5 02 13
        E 15 b5 02 40
        E 15 b5 02 40
        E 15 b5 02 4c
        E 15 b5 02 3f
        E 15 b5 02 21
        E 15 b5 02 46
        E 15 b5 02 36
        E 15 b5 02 09
        E 15 b5 02 21
        E 15 b5 02 28
        E 15 b5 02 48
        E 15 b5 02 3a
        E 15 b5 02 29
        E 15 b5 02 2a
        E 15 b5 02 03
        E 15 b5 02 07
        E 15 b5 02 46
        E 15 b5 02 3d
        E 15 b5 02 20
        E 15 b5 02 18
        E 15 b5 02 0a
        E 15 b5 02 22
        E 15 b5 02 16
        E 15 b5 02 12
        E 15 b5 02 1c
        E 15 b5 02 27
        E 15 b5 02 2e
        E 15 b5 02 31
        E 15 b5 02 0c
        E 15 b5 02 2d
        E 15 b5 02 43
        E 15 b5 02 27
        E 15 b5 02 2c
        E 15 b5 02 01
        E 15 b5 02 05
        E 15 b5 02 4b
        E 15 b5 02 31
        E 15 b5 02 0d
        E 15 b5 02 45
        E 15 b5 02 18
        E 15 b5 02 1d
        E 15 b5 02 25
        E 15 b5 02 1e
        E 15 b5 02 33
        E 15 b5 02 3d
        E 15 b5 02 16
        E 15 b5 02 2b
        E 15 b5 02 11
        E 15 b5 02 44
        E 15 b5 02 3f
        E 15 b5 02 22
        E 15 b5 02 1b
        E 15 b5 02 3c
        E 15 b5 02 1c
        E 15 b5 02 35
        E 15 b5 02 0a
        E 15 b5 02 01
        E 15 b5 02 19
        E 15 b5 02 26
        E 15 b5 02 41
        E 15 b5 02 3a
        E 15 b5 02 02
        E 15 b5 02 42
        E 15 b5 02 37
        E 15 b5 02 04
        E 15 b5 02 17
        E 15 b5 02 2d
        E 15 b5 02 39
        E 15 b5 02 49
        E 15 b5 02 2e
        E 15 b5 02 1f
        E 15 b5 02 15
        E 15 b5 02 34
        E 15 b5 02 37
        E 15 b5 02 43
        E 15 b5 02 4a
        E 15 b5 02 24
        E 15 b5 02 30
        E 15 b5 02 34
        E 15 b5 02 28
        E 15 b5 02 47
        E 15 b5 02 0b
        E 15 b5 02 1b
        E 15 b5 02 32
        E 7 b5 02 0b
        E 7 b5 02 26
        E 7 b5 02 19
        E 7 b5 02 04
        E 7 b5 02 24
        E 7 b5 02 20
        E 7 b5 02 04
        E 7 b5 02 04
        E 7 b5 02 18
        E 7 b5 02 30
        E 7 b5 02 28
        E 7 b5 02 2c
        E 7 b5 02 1f
        E 7 b5 02 05
        E 7 b5 02 09
        E 7 b5 02 22
        E 7 b5 02 1c
        E 7 b5 02 0e
        E 7 b5 02 0a
        E 7 b5 02 0d
        E 7 b5 02 27
        E 7 b5 02 17
        E 7 b5 02 0c
        E 7 b5 02 1d
        E 7 b5 02 32
        E 7 b5 02 00
        E 7 b5 02 06
        E 7 b5 02 14
        E 7 b5 02 11
        E 7 b5 02 29
        E 7 b5 02 0a
        E 7 b5 02 03
        E 7 b5 02 08
        E 7 b5 02 08
        E 7 b5 02 2e
        E 7 b5 02 0c
        E 7 b5 02 00
        E 7 b5 02 25
        E 7 b5 02 11
        E 7 b5 02 0a
        E 7 b5 02 14
        E 7 b5 02 0d
        E 7 b5 02 2b
        E 7 b5 02 2a
        E 7 b5 02 32
        E 7 b5 02 2a
        E 7 b5 02 16
        E 7 b5 02 2f
        E 7 b5 02 24
        E 7 b5 02 06
        E 7 b5 02 16
        E 7 b5 02 1b
        E 7 b5 02 30
        E 7 b5 02 26
        E 7 b5 02 1b
        E 7 b5 02 1c
        E 7 b5 02 02
        E 7 b5 02 05
        E 7 b5 02 2e
        E 7 b5 02 28
        E 7 b5 02 15
        E 7 b5 02 10
        E 7 b5 02 06
        E 7 b5 02 16
        E 7 b5 02 0f
        E 7 b5 02 0c
        E 7 b5 02 13
        E 7 b5 02 1a
        E 7 b5 02 1e
        E 7 b5 02 20
        E 7 b5 02 08
        E 7 b5 02 1e
        E 7 b5 02 2d
        E 7 b5 02 1a
        E 7 b5 02 1d
        E 7 b5 02 01
        E 7 b5 02 03
        E 7 b5 02 32
        E 7 b5 02 21
        E 7 b5 02 09
        E 7 b5 02 2e
        E 7 b5 02 10
        E 7 b5 02 13
        E 7 b5 02 18
        E 7 b5 02 14
        E 7 b5 02 22
        E 7 b5 02 29
        E 7 b5 02 0e
        E 7 b5 02 1c
        E 7 b5 02 0b
        E 7 b5 02 2d
        E 7 b5 02 2a
        E 7 b5 02 17
        E 7 b5 02 12
        E 7 b5 02 28
        E 7 b5 02 12
        E 7 b5 02 23
        E 7 b5 02 07
        E 7 b5 02 00
        E 7 b5 02 10
        E 7 b5 02 19
        E 7 b5 02 2b
        E 7 b5 02 27
        E 7 b5 02 01
        E 7 b5 02 2c
        E 7 b5 02 25
        E 7 b5 02 02
        E 7 b5 02 0f
        E 7 b5 02 1e
        E 7 b5 02 26
        E 7 b5 02 30
        E 7 b5 02 1f
        E 7 b5 02 15
        E 7 b5 02 0e
        E 7 b5 02 23
        E 7 b5 02 24
        E 7 b5 02 2c
        E 7 b5 02 31
        E 7 b5 02 18
        E 7 b5 02 20
        E 7 b5 02 22
        E 7 b5 02 1a
        E 7 b5 02 2f
        E 7 b5 02 07
        E 7 b5 02 12
        E 7 b5 02 21
        E 23 b5 02 16
        E 23 b5 02 4c
        E 23 b5 02 32
        E 23 b5 02 07
        E 23 b5 02 48
        E 23 b5 02 3f
        E 23 b5 02 09
        E 23 b5 02 08
        E 23 b5 02 30
        E 23 b5 02 5f
        E 23 b5 02 50
        E 23 b5 02 58
        E 23 b5 02 3f
        E 23 b5 02 0b
        E 23 b5 02 13
        E 23 b5 02 44
        E 23 b5 02 37
        E 23 b5 02 1c
        E 23 b5 02 14
        E 23 b5 02 1b
        E 23 b5 02 4f
        E 23 b5 02 2f
        E 23 b5 02 17
        E 23 b5 02 3a
        E 23 b5 02 64
        E 23 b5 02 00
        E 23 b5 02 0c
        E 23 b5 02 29
        E 23 b5 02 22
        E 23 b5 02 53
        E 23 b5 02 15
        E 23 b5 02 06
        E 23 b5 02 0f
        E 23 b5 02 11
        E 23 b5 02 5b
        E 23 b5 02 19
        E 23 b5 02 00
        E 23 b5 02 4b
        E 23 b5 02 23
        E 23 b5 02 14
        E 23 b5 02 28
        E 23 b5 02 1a
        E 23 b5 02 56
        E 23 b5 02 55
        E 23 b5 02 65
        E 23 b5 02 54
        E 23 b5 02 2b
        E 23 b5 02 5e
        E 23 b5 02 48
        E 23 b5 02 0b
        E 23 b5 02 2c
        E 23 b5 02 36
        E 23 b5 02 60
        E 23 b5 02 4d
        E 23 b5 02 37
        E 23 b5 02 38
        E 23 b5 02 04
        E 23 b5 02 0a
        E 23 b5 02 5d
        E 23 b5 02 51
        E 23 b5 02 2b
        E 23 b5 02 1f
        E 23 b5 02 0d
        E 23 b5 02 2d
        E 23 b5 02 1e
        E 23 b5 02 18
        E 23 b5 02 26
        E 23 b5 02 34
        E 23 b5 02 3d
        E 23 b5 02 41
        E 23 b5 02 10
        E 23 b5 02 3c
        E 23 b5 02 5a
        E 23 b5 02 33
        E 23 b5 02 3b
        E 23 b5 02 02
        E 23 b5 02 07
        E 23 b5 02 63
        E 23 b5 02 42
        E 23 b5 02 12
        E 23 b5 02 5c
        E 23 b5 02 20
        E 23 b5 02 27
        E 23 b5 02 31
        E 23 b5 02 28
        E 23 b5 02 44
        E 23 b5 02 52
        E 23 b5 02 1d
        E 23 b5 02 39
        E 23 b5 02 17
        E 23 b5 02 5b
        E 23 b5 02 54
        E 23 b5 02 2e
        E 23 b5 02 24
        E 23 b5 02 50
        E 23 b5 02 25
        E 23 b5 02 47
        E 23 b5 02 0e
        E 23 b5 02 01
        E 23 b5 02 21
        E 23 b5 02 33
        E 23 b5 02 57
        E 23 b5 02 4e
        E 23 b5 02 03
        E 23 b5 02 57
        E 23 b5 02 4a
        E 23 b5 02 05
        E 23 b5 02 1f
        E 23 b5 02 3b
        E 23 b5 02 4c
        E 23 b5 02 61
        E 23 b5 02 3e
        E 23 b5 02 2a
        E 23 b5 02 1b
        E 23 b5 02 46
        E 23 b5 02 49
        E 23 b5 02 59
        E 23 b5 02 63
        E 23 b5 02 2f
        E 23 b5 02 40
        E 23 b5 02 45
        E 23 b5 02 35
        E 23 b5 02 5f
        E 23 b5 02 0f
        E 23 b5 02 24
        E 23 b5 02 43
        E 71 b5 02 16
        E 71 b5 02 4c
        E 71 b5 02 32
        E 71 b5 02 07
        E 71 b5 02 48
        E 71 b5 02 3f
        E 71 b5 02 09
        E 71 b5 02 08
        E 71 b5 02 30
        E 71 b5 02 5f
        E 71 b5 02 50
        E 71 b5 02 58
        E 71 b5 02 3f
        E 71 b5 02 0b
        E 71 b5 02 13
        E 71 b5 02 44
        E 71 b5 02 37
        E 71 b5 02 1c
        E 71 b5 02 14
        E 71 b5 02 1b
        E 71 b5 02 4f
        E 71 b5 02 2f
        E 71 b5 02 17
        E 71 b5 02 3a
        E 71 b5 02 64
        E 71 b5 02 00
        E 71 b5 02 0c
        E 71 b5 02 29
        E 71 b5 02 22
        E 71 b5 02 53
        E 71 b5 02 15
        E 71 b5 02 06
        E 71 b5 02 0f
        E 71 b5 02 11
        E 71 b5 02 5b
        E 71 b5 02 19
        E 71 b5 02 00
        E 71 b5 02 4b
        E 71 b5 02 23
        E 71 b5 02 14
        E 71 b5 02 28
        E 71 b5 02 1a
        E 71 b5 02 56
        E 71 b5 02 55
        E 71 b5 02 65
        E 71 b5 02 54
        E 71 b5 02 2b
        E 71 b5 02 5e
        E 71 b5 02 48
        E 71 b5 02 0b
        E 71 b5 02 2c
        E 71 b5 02 36
        E 71 b5 02 60
        E 71 b5 02 4d
        E 71 b5 02 37
        E 71 b5 02 38
        E 71 b5 02 04
        E 71 b5 02 0a
        E 71 b5 02 5d
        E 71 b5 02 51
        E 71 b5 02 2b
        E 71 b5 02 1f
        E 71 b5 02 0d
        E 71 b5 02 2d
        E 71 b5 02 1e
        E 71 b5 02 18
        E 71 b5 02 26
        E 71 b5 02 34
        E 71 b5 02 3d
        E 71 b5 02 41
        E 71 b5 02 10
        E 71 b5 02 3c
        E 71 b5 02 5a
        E 71 b5 02 33
        E 71 b5 02 3b
        E 71 b5 02 02
        E 71 b5 02 07
        E 71 b5 02 63
        E 71 b5 02 42
        E 71 b5 02 12
        E 71 b5 02 5c
        E 71 b5 02 20
        E 71 b5 02 27
        E 71 b5 02 31
        E 71 b5 02 28
        E 71 b5 02 44
        E 71 b5 02 52
        E 71 b5 02 1d
        E 71 b5 02 39
        E 71 b5 02 17
        E 71 b5 02 5b
        E 71 b5 02 54
        E 71 b5 02 2e
        E 71 b5 02 24
        E 71 b5 02 50
        E 71 b5 02 25
        E 71 b5 02 47
        E 71 b5 02 0e
        E 71 b5 02 01
        E 71 b5 02 21
        E 71 b5 02 33
        E 71 b5 02 57
        E 71 b5 02 4e
        E 71 b5 02 03
        E 71 b5 02 57
        E 71 b5 02 4a
        E 71 b5 02 05
        E 71 b5 02 1f
        E 71 b5 02 3b
        E 71 b5 02 4c
        E 71 b5 02 61
        E 71 b5 02 3e
        E 71 b5 02 2a
        E 71 b5 02 1b
        E 71 b5 02 46
        E 71 b5 02 49
        E 71 b5 02 59
        E 71 b5 02 63
        E 71 b5 02 2f
        E 71 b5 02 40
        E 71 b5 02 45
        E 71 b5 02 35
        E 71 b5 02 5f
        E 71 b5 02 0f
        E 71 b5 02 24
        E 71 b5 02 43
        E 15 b5 02 10
        E 15 b5 02 39
        E 15 b5 02 25
        E 15 b5 02 06
        E 15 b5 02 36
        E 15 b5 02 30
        E 15 b5 02 07
        E 15 b5 02 06
        E 15 b5 02 24
        E 15 b5 02 48
        E 15 b5 02 3c
        E 15 b5 02 42
        E 15 b5 02 2f
        E 15 b5 02 08
        E 15 b5 02 0e
        E 15 b5 02 33
        E 15 b5 02 2a
        E 15 b5 02 15
        E 15 b5 02 0f
        E 15 b5 02 14
        E 15 b5 02 3b
        E 15 b5 02 23
        E 15 b5 02 12
        E 15 b5 02 2b
        E 15 b5 02 4b
        E 15 b5 02 00
        E 15 b5 02 09
        E 15 b5 02 1f
        E 15 b5 02 19
        E 15 b5 02 3e
        E 15 b5 02 10
        E 15 b5 02 04
        E 15 b5 02 0c
        E 15 b5 02 0d
        E 15 b5 02 45
        E 15 b5 02 13
        E 15 b5 02 00
        E 15 b5 02 38
        E 15 b5 02 1a
        E 15 b5 02 0f
        E 15 b5 02 1e
        E 15 b5 02 13
        E 15 b5 02 40
        E 15 b5 02 40
        E 15 b5 02 4c
        E 15 b5 02 3f
        E 15 b5 02 21
        E 15 b5 02 46
        E 15 b5 02 36
        E 15 b5 02 09
        E 15 b5 02 21
        E 15 b5 02 28
        E 15 b5 02 48
        E 15 b5 02 3a
        E 15 b5 02 29
        E 15 b5 02 2a
        E 15 b5 02 03
        E 15 b5 02 07
        E 15 b5 02 46
        E 15 b5 02 3d
        E 15 b5 02 20
        E 15 b5 02 18
        E 15 b5 02 0a
        E 15 b5 02 22
        E 15 b5 02 16
        E 15 b5 02 12
        E 15 b5 02 1c
        E 15 b5 02 27
        E 15 b5 02 2e
        E 15 b5 02 31
        E 15 b5 02 0c
        E 15 b5 02 2d
        E 15 b5 02 43
        E 15 b5 02 27
        E 15 b5 02 2c
        E 15 b5 02 01
        E 15 b5 02 05
        E 15 b5 02 4b
        E 15 b5 02 31
        E 15 b5 02 0d
        E 15 b5 02 45
        E 15 b5 02 18
        E 15 b5 02 1d
        E 15 b5 02 25
        E 15 b5 02 1e
        E 15 b5 02 33
        E 15 b5 02 3d
        E 15 b5 02 16
        E 15 b5 02 2b
        E 15 b5 02 11
        E 15 b5 02 44
        E 15 b5 02 3f
        E 15 b5 02 22
        E 15 b5 02 1b
        E 15 b5 02 3c
        E 15 b5 02 1c
        E 15 b5 02 35
        E 15 b5 02 0a
        E 15 b5 02 01
        E 15 b5 02 19
        E 15 b5 02 26
        E 15 b5 02 41
        E 15 b5 02 3a
        E 15 b5 02 02
        E 15 b5 02 42
        E 15 b5 02 37
        E 15 b5 02 04
        E 15 b5 02 17
        E 15 b5 02 2d
        E 15 b5 02 39
        E 15 b5 02 49
        E 15 b5 02 2e
        E 15 b5 02 1f
        E 15 b5 02 15
        E 15 b5 02 34
        E 15 b5 02 37
        E 15 b5 02 43
        E 15 b5 02 4a
        E 15 b5 02 24
        E 15 b5 02 30
        E 15 b5 02 34
        E 15 b5 02 28
        E 15 b5 02 47
        E 15 b5 02 0b
        E 15 b5 02 1b
        E 15 b5 02 32
        E 71 b5 02 0b
        E 71 b5 02 26
        E 71 b5 02 19
        E 71 b5 02 04
        E 71 b5 02 24
        E 71 b5 02 20
        E 71 b5 02 04
        E 71 b5 02 04
        E 71 b5 02 18
        E 71 b5 02 30
        E 71 b5 02 28
        E 71 b5 02 2c
        E 71 b5 02 1f
        E 71 b5 02 05
        E 71 b5 02 09
        E 71 b5 02 22
        E 71 b5 02 1c
        E 71 b5 02 0e
        E 71 b5 02 0a
        E 71 b5 02 0d
        E 71 b5 02 27
        E 71 b5 02 17
        E 71 b5 02 0c
        E 71 b5 02 1d
        E 71 b5 02 32
        E 71 b5 02 00
        E 71 b5 02 06
        E 71 b5 02 14
        E 71 b5 02 11
        E 71 b5 02 29
        E 71 b5 02 0a
        E 71 b5 02 03
        E 71 b5 02 08
        E 71 b5 02 08
        E 71 b5 02 2e
        E 71 b5 02 0c
        E 71 b5 02 00
        E 71 b5 02 25
        E 71 b5 02 11
        E 71 b5 02 0a
        E 71 b5 02 14
        E 71 b5 02 0d
        E 71 b5 02 2b
        E 71 b5 02 2a
        E 71 b5 02 32
        E 71 b5 02 2a
        E 71 b5 02 16
        E 71 b5 02 2f
        E 71 b5 02 24
        E 71 b5 02 06
        E 71 b5 02 16
        E 71 b5 02 1b
        E 71 b5 02 30
        E 71 b5 02 26
        E 71 b5 02 1b
        E 71 b5 02 1c
        E 71 b5 02 02
        E 71 b5 02 05
        E 71 b5 02 2e
        E 71 b5 02 28
        E 71 b5 02 15
        E 71 b5 02 10
        E 71 b5 02 06
        E 71 b5 02 16
        E 71 b5 02 0f
        E 71 b5 02 0c
        E 71 b5 02 13
        E 71 b5 02 1a
        E 71 b5 02 1e
        E 71 b5 02 20
        E 71 b5 02 08
        E 71 b5 02 1e
        E 71 b5 02 2d
        E 71 b5 02 1a
        E 71 b5 02 1d
        E 71 b5 02 01
        E 71 b5 02 03
        E 71 b5 02 32
        E 71 b5 02 21
        E 71 b5 02 09
        E 71 b5 02 2e
        E 71 b5 02 10
        E 71 b5 02 13
        E 71 b5 02 18
        E 71 b5 02 14
        E 71 b5 02 22
        E 71 b5 02 29
        E 71 b5 02 0e
        E 71 b5 02 1c
        E 71 b5 02 0b
        E 71 b5 02 2d
        E 71 b5 02 2a
        E 71 b5 02 17
        E 71 b5 02 12
        E 71 b5 02 28
        E 71 b5 02 12
        E 71 b5 02 23
        E 71 b5 02 07
        E 71 b5 02 00
        E 71 b5 02 10
        E 71 b5 02 19
        E 71 b5 02 2b
        E 71 b5 02 27
        E 71 b5 02 01
        E 71 b5 02 2c
        E 71 b5 02 25
        E 71 b5 02 02
        E 71 b5 02 0f
        E 71 b5 02 1e
        E 71 b5 02 26
        E 71 b5 02 30
        E 71 b5 02 1f
        E 71 b5 02 15
        E 71 b5 02 0e
        E 71 b5 02 23
        E 71 b5 02 24
        E 71 b5 02 2c
        E 71 b5 02 31
        E 71 b5 02 18
        E 71 b5 02 20
        E 71 b5 02 22
        E 71 b5 02 1a
        E 71 b5 02 2f
        E 71 b5 02 07
        E 71 b5 02 12
        E 71 b5 02 21
        E 39 b5 02 13
        E 39 b5 02 43
        E 39 b5 02 2c
        E 39 b5 02 07
        E 39 b5 02 3e
        E 39 b5 02 38
        E 39 b5 02 08
        E 39 b5 02 07
        E 39 b5 02 2a
        E 39 b5 02 54
        E 39 b5 02 46
        E 39 b5 02 4d
        E 39 b5 02 37
        E 39 b5 02 09
        E 39 b5 02 10
        E 39 b5 02 3c
        E 39 b5 02 31
        E 39 b5 02 19
        E 39 b5 02 11
        E 39 b5 02 17
        E 39 b5 02 45
        E 39 b5 02 29
        E 39 b5 02 15
        E 39 b5 02 33
        E 39 b5 02 58
        E 39 b5 02 00
        E 39 b5 02 0b
        E 39 b5 02 24
        E 39 b5 02 1e
        E 39 b5 02 48
        E 39 b5 02 12
        E 39 b5 02 05
        E 39 b5 02 0e
        E 39 b5 02 0f
        E 39 b5 02 50
        E 39 b5 02 16
        E 39 b5 02 00
        E 39 b5 02 41
        E 39 b5 02 1e
        E 39 b5 02 12
        E 39 b5 02 23
        E 39 b5 02 17
        E 39 b5 02 4b
        E 39 b5 02 4a
        E 39 b5 02 58
        E 39 b5 02 4a
        E 39 b5 02 26
        E 39 b5 02 52
        E 39 b5 02 3f
        E 39 b5 02 0a
        E 39 b5 02 27
        E 39 b5 02 2f
        E 39 b5 02 54
        E 39 b5 02 43
        E 39 b5 02 30
        E 39 b5 02 31
        E 39 b5 02 04
        E 39 b5 02 09
        E 39 b5 02 51
        E 39 b5 02 47
        E 39 b5 02 25
        E 39 b5 02 1c
        E 39 b5 02 0b
        E 39 b5 02 27
        E 39 b5 02 1a
        E 39 b5 02 15
        E 39 b5 02 21
        E 39 b5 02 2e
        E 39 b5 02 35
        E 39 b5 02 39
        E 39 b5 02 0e
        E 39 b5 02 35
        E 39 b5 02 4f
        E 39 b5 02 2d
        E 39 b5 02 33
        E 39 b5 02 02
        E 39 b5 02 06
        E 39 b5 02 57
        E 39 b5 02 3a
        E 39 b5 02 10
        E 39 b5 02 51
        E 39 b5 02 1c
        E 39 b5 02 22
        E 39 b5 02 2b
        E 39 b5 02 23
        E 39 b5 02 3b
        E 39 b5 02 48
        E 39 b5 02 19
        E 39 b5 02 32
        E 39 b5 02 14
        E 39 b5 02 4f
        E 39 b5 02 49
        E 39 b5 02 28
        E 39 b5 02 20
        E 39 b5 02 46
        E 39 b5 02 20
        E 39 b5 02 3e
        E 39 b5 02 0c
        E 39 b5 02 01
        E 39 b5 02 1d
        E 39 b5 02 2c
        E 39 b5 02 4c
        E 39 b5 02 44
        E 39 b5 02 02
        E 39 b5 02 4d
        E 39 b5 02 41
        E 39 b5 02 04
        E 39 b5 02 1b
        E 39 b5 02 34
        E 39 b5 02 42
        E 39 b5 02 55
        E 39 b5 02 36
        E 39 b5 02 25
        E 39 b5 02 18
        E 39 b5 02 3d
        E 39 b5 02 40
        E 39 b5 02 4e
        E 39 b5 02 56
        E 39 b5 02 2a
        E 39 b5 02 38
        E 39 b5 02 3c
        E 39 b5 02 2e
        E 39 b5 02 53
        E 39 b5 02 0d
        E 39 b5 02 1f
        E 39 b5 02 3a
        E 7 b5 02 0b
        E 7 b5 02 26
        E 7 b5 02 19
        E 7 b5 02 04
        E 7 b5 02 24
        E 7 b5 02 20
        E 7 b5 02 04
        E 7 b5 02 04
        E 7 b5 02 18
        E 7 b5 02 30
        E 7 b5 02 28
        E 7 b5 02 2c
        E 7 b5 02 1f
        E 7 b5 02 05
        E 7 b5 02 09
        E 7 b5 02 22
        E 7 b5 02 1c
        E 7 b5 02 0e
        E 7 b5 02 0a
        E 7 b5 02 0d
        E 7 b5 02 27
        E 7 b5 02 17
        E 7 b5 02 0c
        E 7 b5 02 1d
        E 7 b5 02 32
        E 7 b5 02 00
        E 7 b5 02 06
        E 7 b5 02 14
        E 7 b5 02 11
        E 7 b5 02 29
        E 7 b5 02 0a
        E 7 b5 02 03
        E 7 b5 02 08
        E 7 b5 02 08
        E 7 b5 02 2e
        E 7 b5 02 0c
        E 7 b5 02 00
        E 7 b5 02 25
        E 7 b5 02 11
        E 7 b5 02 0a
        E 7 b5 02 14
        E 7 b5 02 0d
        E 7 b5 02 2b
        E 7 b5 02 2a
        E 7 b5 02 32
        E 7 b5 02 2a
        E 7 b5 02 16
        E 7 b5 02 2f
        E 7 b5 02 24
        E 7 b5 02 06
        E 7 b5 02 16
        E 7 b5 02 1b
        E 7 b5 02 30
        E 7 b5 02 26
        E 7 b5 02 1b
        E 7 b5 02 1c
        E 7 b5 02 02
        E 7 b5 02 05
        E 7 b5 02 2e
        E 7 b5 02 28
        E 7 b5 02 15
        E 7 b5 02 10
        E 7 b5 02 06
        E 7 b5 02 16
        E 7 b5 02 0f
        E 7 b5 02 0c
        E 7 b5 02 13
        E 7 b5 02 1a
        E 7 b5 02 1e
        E 7 b5 02 20
        E 7 b5 02 08
        E 7 b5 02 1e
        E 7 b5 02 2d
        E 7 b5 02 1a
        E 7 b5 02 1d
        E 7 b5 02 01
        E 7 b5 02 03
        E 7 b5 02 32
        E 7 b5 02 21
        E 7 b5 02 09
        E 7 b5 02 2e
        E 7 b5 02 10
        E 7 b5 02 13
        E 7 b5 02 18
        E 7 b5 02 14
        E 7 b5 02 22
        E 7 b5 02 29
        E 7 b5 02 0e
        E 7 b5 02 1c
        E 7 b5 02 0b
        E 7 b5 02 2d
        E 7 b5 02 2a
        E 7 b5 02 17
        E 7 b5 02 12
        E 7 b5 02 28
        E 7 b5 02 12
        E 7 b5 02 23
        E 7 b5 02 07
        E 7 b5 02 00
        E 7 b5 02 10
        E 7 b5 02 19
        E 7 b5 02 2b
        E 7 b5 02 27
        E 7 b5 02 01
        E 7 b5 02 2c
        E 7 b5 02 25
        E 7 b5 02 02
        E 7 b5 02 0f
        E 7 b5 02 1e
        E 7 b5 02 26
        E 7 b5 02 30
        E 7 b5 02 1f
        E 7 b5 02 15
        E 7 b5 02 0e
        E 7 b5 02 23
        E 7 b5 02 24
        E 7 b5 02 2c
        E 7 b5 02 31
        E 7 b5 02 18
        E 7 b5 02 20
        E 7 b5 02 22
        E 7 b5 02 1a
        E 7 b5 02 2f
        E 7 b5 02 07
        E 7 b5 02 12
        E 7 b5 02 21
        E 23 b5 02 16
        E 23 b5 02 4c
        E 23 b5 02 32
        E 23 b5 02 07
        E 23 b5 02 48
        E 23 b5 02 3f
        E 23 b5 02 09
        E 23 b5 02 08
        E 23 b5 02 30
        E 23 b5 02 5f
        E 23 b5 02 50
        E 23 b5 02 58
        E 23 b5 02 3f
        E 23 b5 02 0b
        E 23 b5 02 13
        E 23 b5 02 44
        E 23 b5 02 37
        E 23 b5 02 1c
        E 23 b5 02 14
        E 23 b5 02 1b
        E 23 b5 02 4f
        E 23 b5 02 2f
        E 23 b5 02 17
        E 23 b5 02 3a
        E 23 b5 02 64
        E 23 b5 02 00
        E 23 b5 02 0c
        E 23 b5 02 29
        E 23 b5 02 22
        E 23 b5 02 53
        E 23 b5 02 15
        E 23 b5 02 06
        E 23 b5 02 0f
        E 23 b5 02 11
        E 23 b5 02 5b
        E 23 b5 02 19
        E 23 b5 02 00
        E 23 b5 02 4b
        E 23 b5 02 23
        E 23 b5 02 14
        E 23 b5 02 28
        E 23 b5 02 1a
        E 23 b5 02 56
        E 23 b5 02 55
        E 23 b5 02 65
        E 23 b5 02 54
        E 23 b5 02 2b
        E 23 b5 02 5e
        E 23 b5 02 48
        E 23 b5 02 0b
        E 23 b5 02 2c
        E 23 b5 02 36
        E 23 b5 02 60
        E 23 b5 02 4d
        E 23 b5 02 37
        E 23 b5 02 38
        E 23 b5 02 04
        E 23 b5 02 0a
        E 23 b5 02 5d
        E 23 b5 02 51
        E 23 b5 02 2b
        E 23 b5 02 1f
        E 23 b5 02 0d
        E 23 b5 02 2d
        E 23 b5 02 1e
        E 23 b5 02 18
        E 23 b5 02 26
        E 23 b5 02 34
        E 23 b5 02 3d
        E 23 b5 02 41
        E 23 b5 02 10
        E 23 b5 02 3c
        E 23 b5 02 5a
        E 23 b5 02 33
        E 23 b5 02 3b
        E 23 b5 02 02
        E 23 b5 02 07
        E 23 b5 02 63
        E 23 b5 02 42
        E 23 b5 02 12
        E 23 b5 02 5c
        E 23 b5 02 20
        E 23 b5 02 27
        E 23 b5 02 31
        E 23 b5 02 28
        E 23 b5 02 44
        E 23 b5 02 52
        E 23 b5 02 1d
        E 23 b5 02 39
        E 23 b5 02 17
        E 23 b5 02 5b
        E 23 b5 02 54
        E 23 b5 02 2e
        E 23 b5 02 24
        E 23 b5 02 50
        E 23 b5 02 25
        E 23 b5 02 47
        E 23 b5 02 0e
        E 23 b5 02 01
        E 23 b5 02 21
        E 23 b5 02 33
        E 23 b5 02 57
        E 23 b5 02 4e
        E 23 b5 02 03
        E 23 b5 02 57
        E 23 b5 02 4a
        E 23 b5 02 05
        E 23 b5 02 1f
        E 23 b5 02 3b
        E 23 b5 02 4c
        E 23 b5 02 61
        E 23 b5 02 3e
        E 23 b5 02 2a
        E 23 b5 02 1b
        E 23 b5 02 46
        E 23 b5 02 49
        E 23 b5 02 59
        E 23 b5 02 63
        E 23 b5 02 2f
        E 23 b5 02 40
        E 23 b5 02 45
        E 23 b5 02 35
        E 23 b5 02 5f
        E 23 b5 02 0f
        E 23 b5 02 24
        E 23 b5 02 43
        E 71 b5 02 16
        E 71 b5 02 4c
        E 71 b5 02 32
        E 71 b5 02 07
        E 71 b5 02 48
        E 71 b5 02 3f
        E 71 b5 02 09
        E 71 b5 02 08
        E 71 b5 02 30
        E 71 b5 02 5f
        E 71 b5 02 50
        E 71 b5 02 58
        E 71 b5 02 3f
        E 71 b5 02 0b
        E 71 b5 02 13
        E 71 b5 02 44
        E 71 b5 02 37
        E 71 b5 02 1c
        E 71 b5 02 14
        E 71 b5 02 1b
        E 71 b5 02 4f
        E 71 b5 02 2f
        E 71 b5 02 17
        E 71 b5 02 3a
        E 71 b5 02 64
        E 71 b5 02 00
        E 71 b5 02 0c
        E 71 b5 02 29
        E 71 b5 02 22
        E 71 b5 02 53
        E 71 b5 02 15
        E 71 b5 02 06
        E 71 b5 02 0f
        E 71 b5 02 11
        E 71 b5 02 5b
        E 71 b5 02 19
        E 71 b5 02 00
        E 71 b5 02 4b
        E 71 b5 02 23
        E 71 b5 02 14
        E 71 b5 02 28
        E 71 b5 02 1a
        E 71 b5 02 56
        E 71 b5 02 55
        E 71 b5 02 65
        E 71 b5 02 54
        E 71 b5 02 2b
        E 71 b5 02 5e
        E 71 b5 02 48
        E 71 b5 02 0b
        E 71 b5 02 2c
        E 71 b5 02 36
        E 71 b5 02 60
        E 71 b5 02 4d
        E 71 b5 02 37
        E 71 b5 02 38
        E 71 b5 02 04
        E 71 b5 02 0a
        E 71 b5 02 5d
        E 71 b5 02 51
        E 71 b5 02 2b
        E 71 b5 02 1f
        E 71 b5 02 0d
        E 71 b5 02 2d
        E 71 b5 02 1e
        E 71 b5 02 18
        E 71 b5 02 26
        E 71 b5 02 34
        E 71 b5 02 3d
        E 71 b5 02 41
        E 71 b5 02 10
        E 71 b5 02 3c
        E 71 b5 02 5a
        E 71 b5 02 33
        E 71 b5 02 3b
        E 71 b5 02 02
        E 71 b5 02 07
        E 71 b5 02 63
        E 71 b5 02 42
        E 71 b5 02 12
        E 71 b5 02 5c
        E 71 b5 02 20
        E 71 b5 02 27
        E 71 b5 02 31
        E 71 b5 02 28
        E 71 b5 02 44
        E 71 b5 02 52
        E 71 b5 02 1d
        E 71 b5 02 39
        E 71 b5 02 17
        E 71 b5 02 5b
        E 71 b5 02 54
        E 71 b5 02 2e
        E 71 b5 02 24
        E 71 b5 02 50
        E 71 b5 02 25
        E 71 b5 02 47
        E 71 b5 02 0e
        E 71 b5 02 01
        E 71 b5 02 21
        E 71 b5 02 33
        E 71 b5 02 57
        E 71 b5 02 4e
        E 71 b5 02 03
        E 71 b5 02 57
        E 71 b5 02 4a
        E 71 b5 02 05
        E 71 b5 02 1f
        E 71 b5 02 3b
        E 71 b5 02 4c
        E 71 b5 02 61
        E 71 b5 02 3e
        E 71 b5 02 2a
        E 71 b5 02 1b
        E 71 b5 02 46
        E 71 b5 02 49
        E 71 b5 02 59
        E 71 b5 02 63
        E 71 b5 02 2f
        E 71 b5 02 40
        E 71 b5 02 45
        E 71 b5 02 35
        E 71 b5 02 5f
        E 71 b5 02 0f
        E 71 b5 02 24
        E 71 b5 02 43
        E 15 b5 02 10
        E 15 b5 02 39
        E 15 b5 02 25
        E 15 b5 02 06
        E 15 b5 02 36
        E 15 b5 02 30
        E 15 b5 02 07
        E 15 b5 02 06
        E 15 b5 02 24
        E 15 b5 02 48
        E 15 b5 02 3c
        E 15 b5 02 42
        E 15 b5 02 2f
        E 15 b5 02 08
        E 15 b5 02 0e
        E 15 b5 02 33
        E 15 b5 02 2a
        E 15 b5 02 15
        E 15 b5 02 0f
        E 15 b5 02 14
        E 15 b5 02 3b
        E 15 b5 02 23
        E 15 b5 02 12
        E 15 b5 02 2b
        E 15 b5 02 4b
        E 15 b5 02 00
        E 15 b5 02 09
        E 15 b5 02 1f
        E 15 b5 02 19
        E 15 b5 02 3e
        E 15 b5 02 10
        E 15 b5 02 04
        E 15 b5 02 0c
        E 15 b5 02 0d
        E 15 b5 02 45
        E 15 b5 02 13
        E 15 b5 02 00
        E 15 b5 02 38
        E 15 b5 02 1a
        E 15 b5 02 0f
        E 15 b5 02 1e
        E 15 b5 02 13
        E 15 b5 02 40
        E 15 b5 02 40
        E 15 b5 02 4c
        E 15 b5 02 3f
        E 15 b5 02 21
        E 15 b5 02 46
        E 15 b5 02 36
        E 15 b5 02 09
        E 15 b5 02 21
        E 15 b5 02 28
        E 15 b5 02 48
        E 15 b5 02 3a
        E 15 b5 02 29
        E 15 b5 02 2a
        E 15 b5 02 03
        E 15 b5 02 07
        E 15 b5 02 46
        E 15 b5 02 3d
        E 15 b5 02 20
        E 15 b5 02 18
        E 15 b5 02 0a
        E 15 b5 02 22
        E 15 b5 02 16
        E 15 b5 02 12
        E 15 b5 02 1c
        E 15 b5 02 27
        E 15 b5 02 2e
        E 15 b5 02 31
        E 15 b5 02 0c
        E 15 b5 02 2d
        E 15 b5 02 43
        E 15 b5 02 27
        E 15 b5 02 2c
        E 15 b5 02 01
        E 15 b5 02 05
        E 15 b5 02 4b
        E 15 b5 02 31
        E 15 b5 02 0d
        E 15 b5 02 45
        E 15 b5 02 18
        E 15 b5 02 1d
        E 15 b5 02 25
        E 15 b5 02 1e
        E 15 b5 02 33
        E 15 b5 02 3d
        E 15 b5 02 16
        E 15 b5 02 2b
        E 15 b5 02 11
        E 15 b5 02 44
        E 15 b5 02 3f
        E 15 b5 02 22
        E 15 b5 02 1b
        E 15 b5 02 3c
        E 15 b5 02 1c
        E 15 b5 02 35
        E 15 b5 02 0a
        E 15 b5 02 01
        E 15 b5 02 19
        E 15 b5 02 26
        E 15 b5 02 41
        E 15 b5 02 3a
        E 15 b5 02 02
        E 15 b5 02 42
        E 15 b5 02 37
        E 15 b5 02 04
        E 15 b5 02 17
        E 15 b5 02 2d
        E 15 b5 02 39
        E 15 b5 02 49
        E 15 b5 02 2e
        E 15 b5 02 1f
        E 15 b5 02 15
        E 15 b5 02 34
        E 15 b5 02 37
        E 15 b5 02 43
        E 15 b5 02 4a
        E 15 b5 02 24
        E 15 b5 02 30
        E 15 b5 02 34
        E 15 b5 02 28
        E 15 b5 02 47
        E 15 b5 02 0b
        E 15 b5 02 1b
        E 15 b5 02 32
        E 71 b5 02 0b
        E 71 b5 02 26
        E 71 b5 02 19
        E 71 b5 02 04
        E 71 b5 02 24
        E 71 b5 02 20
        E 71 b5 02 04
        E 71 b5 02 04
        E 71 b5 02 18
        E 71 b5 02 30
        E 71 b5 02 28
        E 71 b5 02 2c
        E 71 b5 02 1f
        E 71 b5 02 05
        E 71 b5 02 09
        E 71 b5 02 22
        E 71 b5 02 1c
        E 71 b5 02 0e
        E 71 b5 02 0a
        E 71 b5 02 0d
        E 71 b5 02 27
        E 71 b5 02 17
        E 71 b5 02 0c
        E 71 b5 02 1d
        E 71 b5 02 32
        E 71 b5 02 00
        E 71 b5 02 06
        E 71 b5 02 14
        E 71 b5 02 11
        E 71 b5 02 29
        E 71 b5 02 0a
        E 71 b5 02 03
        E 71 b5 02 08
        E 71 b5 02 08
        E 71 b5 02 2e
        E 71 b5 02 0c
        E 71 b5 02 00
        E 71 b5 02 25
        E 71 b5 02 11
        E 71 b5 02 0a
        E 71 b5 02 14
        E 71 b5 02 0d
        E 71 b5 02 2b
        E 71 b5 02 2a
        E 71 b5 02 32
        E 71 b5 02 2a
        E 71 b5 02 16
        E 71 b5 02 2f
        E 71 b5 02 24
        E 71 b5 02 06
        E 71 b5 02 16
        E 71 b5 02 1b
        E 71 b5 02 30
        E 71 b5 02 26
        E 71 b5 02 1b
        E 71 b5 02 1c
        E 71 b5 02 02
        E 71 b5 02 05
        E 71 b5 02 2e
        E 71 b5 02 28
        E 71 b5 02 15
        E 71 b5 02 10
        E 71 b5 02 06
        E 71 b5 02 16
        E 71 b5 02 0f
        E 71 b5 02 0c
        E 71 b5 02 13
        E 71 b5 02 1a
        E 71 b5 02 1e
        E 71 b5 02 20
        E 71 b5 02 08
        E 71 b5 02 1e
        E 71 b5 02 2d
        E 71 b5 02 1a
        E 71 b5 02 1d
        E 71 b5 02 01
        E 71 b5 02 03
        E 71 b5 02 32
        E 71 b5 02 21
        E 71 b5 02 09
        E 71 b5 02 2e
        E 71 b5 02 10
        E 71 b5 02 13
        E 71 b5 02 18
        E 71 b5 02 14
        E 71 b5 02 22
        E 71 b5 02 29
        E 71 b5 02 0e
        E 71 b5 02 1c
        E 71 b5 02 0b
        E 71 b5 02 2d
        E 71 b5 02 2a
        E 71 b5 02 17
        E 71 b5 02 12
        E 71 b5 02 28
        E 71 b5 02 12
        E 71 b5 02 23
        E 71 b5 02 07
        E 71 b5 02 00
        E 71 b5 02 10
        E 71 b5 02 19
        E 71 b5 02 2b
        E 71 b5 02 27
        E 71 b5 02 01
        E 71 b5 02 2c
        E 71 b5 02 25
        E 71 b5 02 02
        E 71 b5 02 0f
        E 71 b5 02 1e
        E 71 b5 02 26
        E 71 b5 02 30
        E 71 b5 02 1f
        E 71 b5 02 15
        E 71 b5 02 0e
        E 71 b5 02 23
        E 71 b5 02 24
        E 71 b5 02 2c
        E 71 b5 02 31
        E 71 b5 02 18
        E 71 b5 02 20
        E 71 b5 02 22
        E 71 b5 02 1a
        E 71 b5 02 2f
        E 71 b5 02 07
        E 71 b5 02 12
        E 71 b5 02 21
        E 39 b5 02 13
        E 39 b5 02 43
        E 39 b5 02 2c
        E 39 b5 02 07
        E 39 b5 02 3e
        E 39 b5 02 38
        E 39 b5 02 08
        E 39 b5 02 07
        E 39 b5 02 2a
        E 39 b5 02 54
        E 39 b5 02 46
        E 39 b5 02 4d
        E 39 b5 02 37
        E 39 b5 02 09
        E 39 b5 02 10
        E 39 b5 02 3c
        E 39 b5 02 31
        E 39 b5 02 19
        E 39 b5 02 11
        E 39 b5 02 17
        E 39 b5 02 45
        E 39 b5 02 29
        E 39 b5 02 15
        E 39 b5 02 33
        E 39 b5 02 58
        E 39 b5 02 00
        E 39 b5 02 0b
        E 39 b5 02 24
        E 39 b5 02 1e
        E 39 b5 02 48
        E 39 b5 02 12
        E 39 b5 02 05
        E 39 b5 02 0e
        E 39 b5 02 0f
        E 39 b5 02 50
        E 39 b5 02 16
        E 39 b5 02 00
        E 39 b5 02 41
        E 39 b5 02 1e
        E 39 b5 02 12
        E 39 b5 02 23
        E 39 b5 02 17
        E 39 b5 02 4b
        E 39 b5 02 4a
        E 39 b5 02 58
        E 39 b5 02 4a
        E 39 b5 02 26
        E 39 b5 02 52
        E 39 b5 02 3f
        E 39 b5 02 0a
        E 39 b5 02 27
        E 39 b5 02 2f
        E 39 b5 02 54
        E 39 b5 02 43
        E 39 b5 02 30
        E 39 b5 02 31
        E 39 b5 02 04
        E 39 b5 02 09
        E 39 b5 02 51
        E 39 b5 02 47
        E 39 b5 02 25
        E 39 b5 02 1c
        E 39 b5 02 0b
        E 39 b5 02 27
        E 39 b5 02 1a
        E 39 b5 02 15
        E 39 b5 02 21
        E 39 b5 02 2e
        E 39 b5 02 35
        E 39 b5 02 39
        E 39 b5 02 0e
        E 39 b5 02 35
        E 39 b5 02 4f
        E 39 b5 02 2d
        E 39 b5 02 33
        E 39 b5 02 02
        E 39 b5 02 06
        E 39 b5 02 57
        E 39 b5 02 3a
        E 39 b5 02 10
        E 39 b5 02 51
        E 39 b5 02 1c
        E 39 b5 02 22
        E 39 b5 02 2b
        E 39 b5 02 23
        E 39 b5 02 3b
        E 39 b5 02 48
        E 39 b5 02 19
        E 39 b5 02 32
        E 39 b5 02 14
        E 39 b5 02 4f
        E 39 b5 02 49
        E 39 b5 02 28
        E 39 b5 02 20
        E 39 b5 02 46
        E 39 b5 02 20
        E 39 b5 02 3e
        E 39 b5 02 0c
        E 39 b5 02 01
        E 39 b5 02 1d
        E 39 b5 02 2c
        E 39 b5 02 4c
        E 39 b5 02 44
        E 39 b5 02 02
        E 39 b5 02 4d
        E 39 b5 02 41
        E 39 b5 02 04
        E 39 b5 02 1b
        E 39 b5 02 34
        E 39 b5 02 42
        E 39 b5 02 55
        E 39 b5 02 36
        E 39 b5 02 25
        E 39 b5 02 18
        E 39 b5 02 3d
        E 39 b5 02 40
        E 39 b5 02 4e
        E 39 b5 02 56
        E 39 b5 02 2a
        E 39 b5 02 38
        E 39 b5 02 3c
        E 39 b5 02 2e
        E 39 b5 02 53
        E 39 b5 02 0d
        E 39 b5 02 1f
        E 39 b5 02 3a
        E 7 b5 02 0b
        E 7 b5 02 26
        E 7 b5 02 19
        E 7 b5 02 04
        E 7 b5 02 24
        E 7 b5 02 20
        E 7 b5 02 04
        E 7 b5 02 04
        E 7 b5 02 18
        E 7 b5 02 30
        E 7 b5 02 28
        E 7 b5 02 2c
        E 7 b5 02 1f
        E 7 b5 02 05
        E 7 b5 02 09
        E 7 b5 02 22
        E 7 b5 02 1c
        E 7 b5 02 0e
        E 7 b5 02 0a
        E 7 b5 02 0d
        E 7 b5 02 27
        E 7 b5 02 17
        E 7 b5 02 0c
        E 7 b5 02 1d
        E 7 b5 02 32
        E 7 b5 02 00
        E 7 b5 02 06
        E 7 b5 02 14
        E 7 b5 02 11
        E 7 b5 02 29
        E 7 b5 02 0a
        E 7 b5 02 03
        E 7 b5 02 08
        E 7 b5 02 08
        E 7 b5 02 2e
        E 7 b5 02 0c
        E 7 b5 02 00
        E 7 b5 02 25
        E 7 b5 02 11
        E 7 b5 02 0a
        E 7 b5 02 14
        E 7 b5 02 0d
        E 7 b5 02 2b
        E 7 b5 02 2a
        E 7 b5 02 32
        E 7 b5 02 2a
        E 7 b5 02 16
        E 7 b5 02 2f
        E 7 b5 02 24
        E 7 b5 02 06
        E 7 b5 02 16
        E 7 b5 02 1b
        E 7 b5 02 30
        E 7 b5 02 26
        E 7 b5 02 1b
        E 7 b5 02 1c
        E 7 b5 02 02
        E 7 b5 02 05
        E 7 b5 02 2e
        E 7 b5 02 28
        E 7 b5 02 15
        E 7 b5 02 10
        E 7 b5 02 06
        E 7 b5 02 16
        E 7 b5 02 0f
        E 7 b5 02 0c
        E 7 b5 02 13
        E 7 b5 02 1a
        E 7 b5 02 1e
        E 7 b5 02 20
        E 7 b5 02 08
        E 7 b5 02 1e
        E 7 b5 02 2d
        E 7 b5 02 1a
        E 7 b5 02 1d
        E 7 b5 02 01
        E 7 b5 02 03
        E 7 b5 02 32
        E 7 b5 02 21
        E 7 b5 02 09
        E 7 b5 02 2e
        E 7 b5 02 10
        E 7 b5 02 13
        E 7 b5 02 18
        E 7 b5 02 14
        E 7 b5 02 22
        E 7 b5 02 29
        E 7 b5 02 0e
        E 7 b5 02 1c
        E 7 b5 02 0b
        E 7 b5 02 2d
        E 7 b5 02 2a
        E 7 b5 02 17
        E 7 b5 02 12
        E 7 b5 02 28
        E 7 b5 02 12
        E 7 b5 02 23
        E 7 b5 02 07
        E 7 b5 02 00
        E 7 b5 02 10
        E 7 b5 02 19
        E 7 b5 02 2b
        E 7 b5 02 27
        E 7 b5 02 01
        E 7 b5 02 2c
        E 7 b5 02 25
        E 7 b5 02 02
        E 7 b5 02 0f
        E 7 b5 02 1e
        E 7 b5 02 26
        E 7 b5 02 30
        E 7 b5 02 1f
        E 7 b5 02 15
        E 7 b5 02 0e
        E 7 b5 02 23
        E 7 b5 02 24
        E 7 b5 02 2c
        E 7 b5 02 31
        E 7 b5 02 18
        E 7 b5 02 20
        E 7 b5 02 22
        E 7 b5 02 1a
        E 7 b5 02 2f
        E 7 b5 02 07
        E 7 b5 02 12
        E 7 b5 02 21
        E 23 b5 02 16
        E 23 b5 02 4c
        E 23 b5 02 32
        E 23 b5 02 07
        E 23 b5 02 48
        E 23 b5 02 3f
        E 23 b5 02 09
        E 23 b5 02 08
        E 23 b5 02 30
        E 23 b5 02 5f
        E 23 b5 02 50
        E 23 b5 02 58
        E 23 b5 02 3f
        E 23 b5 02 0b
        E 23 b5 02 13
        E 23 b5 02 44
        E 23 b5 02 37
        E 23 b5 02 1c
        E 23 b5 02 14
        E 23 b5 02 1b
        E 23 b5 02 4f
        E 23 b5 02 2f
        E 23 b5 02 17
        E 23 b5 02 3a
        E 23 b5 02 64
        E 23 b5 02 00
        E 23 b5 02 0c
        E 23 b5 02 29
        E 23 b5 02 22
        E 23 b5 02 53
        E 23 b5 02 15
        E 23 b5 02 06
        E 23 b5 02 0f
        E 23 b5 02 11
        E 23 b5 02 5b
        E 23 b5 02 19
        E 23 b5 02 00
        E 23 b5 02 4b
        E 23 b5 02 23
        E 23 b5 02 14
        E 23 b5 02 28
        E 23 b5 02 1a
        E 23 b5 02 56
        E 23 b5 02 55
        E 23 b5 02 65
        E 23 b5 02 54
        E 23 b5 02 2b
        E 23 b5 02 5e
        E 23 b5 02 48
        E 23 b5 02 0b
        E 23 b5 02 2c
        E 23 b5 02 36
        E 23 b5 02 60
        E 23 b5 02 4d
        E 23 b5 02 37
        E 23 b5 02 38
        E 23 b5 02 04
        E 23 b5 02 0a
        E 23 b5 02 5d
        E 23 b5 02 51
        E 23 b5 02 2b
        E 23 b5 02 1f
        E 23 b5 02 0d
        E 23 b5 02 2d
        E 23 b5 02 1e
        E 23 b5 02 18
        E 23 b5 02 26
        E 23 b5 02 34
        E 23 b5 02 3d
        E 23 b5 02 41
        E 23 b5 02 10
        E 23 b5 02 3c
        E 23 b5 02 5a
        E 23 b5 02 33
        E 23 b5 02 3b
        E 23 b5 02 02
        E 23 b5 02 07
        E 23 b5 02 63
        E 23 b5 02 42
        E 23 b5 02 12
        E 23 b5 02 5c
        E 23 b5 02 20
        E 23 b5 02 27
        E 23 b5 02 31
        E 23 b5 02 28
        E 23 b5 02 44
        E 23 b5 02 52
        E 23 b5 02 1d
        E 23 b5 02 39
        E 23 b5 02 17
        E 23 b5 02 5b
        E 23 b5 02 54
        E 23 b5 02 2e
        E 23 b5 02 24
        E 23 b5 02 50
        E 23 b5 02 25
        E 23 b5 02 47
        E 23 b5 02 0e
        E 23 b5 02 01
        E 23 b5 02 21
        E 23 b5 02 33
        E 23 b5 02 57
        E 23 b5 02 4e
        E 23 b5 02 03
        E 23 b5 02 57
        E 23 b5 02 4a
        E 23 b5 02 05
        E 23 b5 02 1f
        E 23 b5 02 3b
        E 23 b5 02 4c
        E 23 b5 02 61
        E 23 b5 02 3e
        E 23 b5 02 2a
        E 23 b5 02 1b
        E 23 b5 02 46
        E 23 b5 02 49
        E 23 b5 02 59
        E 23 b5 02 63
        E 23 b5 02 2f
        E 23 b5 02 40
        E 23 b5 02 45
        E 23 b5 02 35
        E 23 b5 02 5f
        E 23 b5 02 0f
        E 23 b5 02 24
        E 23 b5 02 43
        E 71 b5 02 16
        E 71 b5 02 4c
        E 71 b5 02 32
        E 71 b5 02 07
        E 71 b5 02 48
        E 71 b5 02 3f
        E 71 b5 02 09
        E 71 b5 02 08
        E 71 b5 02 30
        E 71 b5 02 5f
        E 71 b5 02 50
        E 71 b5 02 58
        E 71 b5 02 3f
        E 71 b5 02 0b
        E 71 b5 02 13
        E 71 b5 02 44
        E 71 b5 02 37
        E 71 b5 02 1c
        E 71 b5 02 14
        E 71 b5 02 1b
        E 71 b5 02 4f
        E 71 b5 02 2f
        E 71 b5 02 17
        E 71 b5 02 3a
        E 71 b5 02 64
        E 71 b5 02 00
        E 71 b5 02 0c
        E 71 b5 02 29
        E 71 b5 02 22
        E 71 b5 02 53
        E 71 b5 02 15
        E 71 b5 02 06
        E 71 b5 02 0f
        E 71 b5 02 11
        E 71 b5 02 5b
        E 71 b5 02 19
        E 71 b5 02 00
        E 71 b5 02 4b
        E 71 b5 02 23
        E 71 b5 02 14
        E 71 b5 02 28
        E 71 b5 02 1a
        E 71 b5 02 56
        E 71 b5 02 55
        E 71 b5 02 65
        E 71 b5 02 54
        E 71 b5 02 2b
        E 71 b5 02 5e
        E 71 b5 02 48
        E 71 b5 02 0b
        E 71 b5 02 2c
        E 71 b5 02 36
        E 71 b5 02 60
        E 71 b5 02 4d
        E 71 b5 02 37
        E 71 b5 02 38
        E 71 b5 02 04
        E 71 b5 02 0a
        E 71 b5 02 5d
        E 71 b5 02 51
        E 71 b5 02 2b
        E 71 b5 02 1f
        E 71 b5 02 0d
        E 71 b5 02 2d
        E 71 b5 02 1e
        E 71 b5 02 18
        E 71 b5 02 26
        E 71 b5 02 34
        E 71 b5 02 3d
        E 71 b5 02 41
        E 71 b5 02 10
        E 71 b5 02 3c
        E 71 b5 02 5a
        E 71 b5 02 33
        E 71 b5 02 3b
        E 71 b5 02 02
        E 71 b5 02 07
        E 71 b5 02 63
        E 71 b5 02 42
        E 71 b5 02 12
        E 71 b5 02 5c
        E 71 b5 02 20
        E 71 b5 02 27
        E 71 b5 02 31
        E 71 b5 02 28
        E 71 b5 02 44
        E 71 b5 02 52
        E 71 b5 02 1d
        E 71 b5 02 39
        E 71 b5 02 17
        E 71 b5 02 5b
        E 71 b5 02 54
        E 71 b5 02 2e
        E 71 b5 02 24
        E 71 b5 02 50
        E 71 b5 02 25
        E 71 b5 02 47
        E 71 b5 02 0e
        E 71 b5 02 01
        E 71 b5 02 21
        E 71 b5 02 33
        E 71 b5 02 57
        E 71 b5 02 4e
        E 71 b5 02 03
        E 71 b5 02 57
        E 71 b5 02 4a
        E 71 b5 02 05
        E 71 b5 02 1f
        E 71 b5 02 3b
        E 71 b5 02 4c
        E 71 b5 02 61
        E 71 b5 02 3e
        E 71 b5 02 2a
        E 71 b5 02 1b
        E 71 b5 02 46
        E 71 b5 02 49
        E 71 b5 02 59
        E 71 b5 02 63
        E 71 b5 02 2f
        E 71 b5 02 40
        E 71 b5 02 45
        E 71 b5 02 35
        E 71 b5 02 5f
        E 71 b5 02 0f
        E 71 b5 02 24
        E 71 b5 02 43
        E 15 b5 02 10
        E 15 b5 02 39
        E 15 b5 02 25
        E 15 b5 02 06
        E 15 b5 02 36
        E 15 b5 02 30
        E 15 b5 02 07
        E 15 b5 02 06
        E 15 b5 02 24
        E 15 b5 02 48
        E 15 b5 02 3c
        E 15 b5 02 42
        E 15 b5 02 2f
        E 15 b5 02 08
        E 15 b5 02 0e
        E 15 b5 02 33
        E 15 b5 02 2a
        E 15 b5 02 15
        E 15 b5 02 0f
        E 15 b5 02 14
        E 15 b5 02 3b
        E 15 b5 02 23
        E 15 b5 02 12
        E 15 b5 02 2b
        E 15 b5 02 4b
        E 15 b5 02 00
        E 15 b5 02 09
        E 15 b5 02 1f
        E 15 b5 02 19
        E 15 b5 02 3e
        E 15 b5 02 10
        E 15 b5 02 04
        E 15 b5 02 0c
        E 15 b5 02 0d
        E 15 b5 02 45
        E 15 b5 02 13
        E 15 b5 02 00
        E 15 b5 02 38
        E 15 b5 02 1a
        E 15 b5 02 0f
        E 15 b5 02 1e
        E 15 b5 02 13
        E 15 b5 02 40
        E 15 b5 02 40
        E 15 b5 02 4c
        E 15 b5 02 3f
        E 15 b5 02 21
        E 15 b5 02 46
        E 15 b5 02 36
        E 15 b5 02 09
        E 15 b5 02 21
        E 15 b5 02 28
        E 15 b5 02 48
        E 15 b5 02 3a
        E 15 b5 02 29
        E 15 b5 02 2a
        E 15 b5 02 03
        E 15 b5 02 07
        E 15 b5 02 46
        E 15 b5 02 3d
        E 15 b5 02 20
        E 15 b5 02 18
        E 15 b5 02 0a
        E 15 b5 02 22
        E 15 b5 02 16
        E 15 b5 02 12
        E 15 b5 02 1c
        E 15 b5 02 27
        E 15 b5 02 2e
        E 15 b5 02 31
        E 15 b5 02 0c
        E 15 b5 02 2d
        E 15 b5 02 43
        E 15 b5 02 27
        E 15 b5 02 2c
        E 15 b5 02 01
        E 15 b5 02 05
        E 15 b5 02 4b
        E 15 b5 02 31
        E 15 b5 02 0d
        E 15 b5 02 45
        E 15 b5 02 18
        E 15 b5 02 1d
        E 15 b5 02 25
        E 15 b5 02 1e
        E 15 b5 02 33
        E 15 b5 02 3d
        E 15 b5 02 16
        E 15 b5 02 2b
        E 15 b5 02 11
        E 15 b5 02 44
        E 15 b5 02 3f
        E 15 b5 02 22
        E 15 b5 02 1b
        E 15 b5 02 3c
        E 15 b5 02 1c
        E 15 b5 02 35
        E 15 b5 02 0a
        E 15 b5 02 01
        E 15 b5 02 19
        E 15 b5 02 26
        E 15 b5 02 41
        E 15 b5 02 3a
        E 15 b5 02 02
        E 15 b5 02 42
        E 15 b5 02 37
        E 15 b5 02 04
        E 15 b5 02 17
        E 15 b5 02 2d
        E 15 b5 02 39
        E 15 b5 02 49
        E 15 b5 02 2e
        E 15 b5 02 1f
        E 15 b5 02 15
        E 15 b5 02 34
        E 15 b5 02 37
        E 15 b5 02 43
        E 15 b5 02 4a
        E 15 b5 02 24
        E 15 b5 02 30
        E 15 b5 02 34
        E 15 b5 02 28
        E 15 b5 02 47
        E 15 b5 02 0b
        E 15 b5 02 1b
        E 15 b5 02 32
        E 7 b5 02 0b
        E 7 b5 02 26
        E 7 b5 02 19
        E 7 b5 02 04
        E 7 b5 02 24
        E 7 b5 02 20
        E 7 b5 02 04
        E 7 b5 02 04
        E 7 b5 02 18
        E 7 b5 02 30
        E 7 b5 02 28
        E 7 b5 02 2c
        E 7 b5 02 1f
        E 7 b5 02 05
        E 7 b5 02 09
        E 7 b5 02 22
        E 7 b5 02 1c
        E 7 b5 02 0e
        E 7 b5 02 0a
        E 7 b5 02 0d
        E 7 b5 02 27
        E 7 b5 02 17
        E 7 b5 02 0c
        E 7 b5 02 1d
        E 7 b5 02 32
        E 7 b5 02 00
        E 7 b5 02 06
        E 7 b5 02 14
        E 7 b5 02 11
        E 7 b5 02 29
        E 7 b5 02 0a
        E 7 b5 02 03
        E 7 b5 02 08
        E 7 b5 02 08
        E 7 b5 02 2e
        E 7 b5 02 0c
        E 7 b5 02 00
        E 7 b5 02 25
        E 7 b5 02 11
        E 7 b5 02 0a
        E 7 b5 02 14
        E 7 b5 02 0d
        E 7 b5 02 2b
        E 7 b5 02 2a
        E 7 b5 02 32
        E 7 b5 02 2a
        E 7 b5 02 16
        E 7 b5 02 2f
        E 7 b5 02 24
        E 7 b5 02 06
        E 7 b5 02 16
        E 7 b5 02 1b
        E 7 b5 02 30
        E 7 b5 02 26
        E 7 b5 02 1b
        E 7 b5 02 1c
        E 7 b5 02 02
        E 7 b5 02 05
        E 7 b5 02 2e
        E 7 b5 02 28
        E 7 b5 02 15
        E 7 b5 02 10
        E 7 b5 02 06
        E 7 b5 02 16
        E 7 b5 02 0f
        E 7 b5 02 0c
        E 7 b5 02 13
        E 7 b5 02 1a
        E 7 b5 02 1e
        E 7 b5 02 20
        E 7 b5 02 08
        E 7 b5 02 1e
        E 7 b5 02 2d
        E 7 b5 02 1a
        E 7 b5 02 1d
        E 7 b5 02 01
        E 7 b5 02 03
        E 7 b5 02 32
        E 7 b5 02 21
        E 7 b5 02 09
        E 7 b5 02 2e
        E 7 b5 02 10
        E 7 b5 02 13
        E 7 b5 02 18
        E 7 b5 02 14
        E 7 b5 02 22
        E 7 b5 02 29
        E 7 b5 02 0e
        E 7 b5 02 1c
        E 7 b5 02 0b
        E 7 b5 02 2d
        E 7 b5 02 2a
        E 7 b5 02 17
        E 7 b5 02 12
        E 7 b5 02 28
        E 7 b5 02 12
        E 7 b5 02 23
        E 7 b5 02 07
        E 7 b5 02 00
        E 7 b5 02 10
        E 7 b5 02 19
        E 7 b5 02 2b
        E 7 b5 02 27
        E 7 b5 02 01
        E 7 b5 02 2c
        E 7 b5 02 25
        E 7 b5 02 02
        E 7 b5 02 0f
        E 7 b5 02 1e
        E 7 b5 02 26
        E 7 b5 02 30
        E 7 b5 02 1f
        E 7 b5 02 15
        E 7 b5 02 0e
        E 7 b5 02 23
        E 7 b5 02 24
        E 7 b5 02 2c
        E 7 b5 02 31
        E 7 b5 02 18
        E 7 b5 02 20
        E 7 b5 02 22
        E 7 b5 02 1a
        E 7 b5 02 2f
        E 7 b5 02 07
        E 7 b5 02 12
        E 7 b5 02 21
        E 23 b5 02 16
        E 23 b5 02 4c
        E 23 b5 02 32
        E 23 b5 02 07
        E 23 b5 02 48
        E 23 b5 02 3f
        E 23 b5 02 09
        E 23 b5 02 08
        E 23 b5 02 30
        E 23 b5 02 5f
        E 23 b5 02 50
        E 23 b5 02 58
        E 23 b5 02 3f
        E 23 b5 02 0b
        E 23 b5 02 13
        E 23 b5 02 44
        E 23 b5 02 37
        E 23 b5 02 1c
        E 23 b5 02 14
        E 23 b5 02 1b
        E 23 b5 02 4f
        E 23 b5 02 2f
        E 23 b5 02 17
        E 23 b5 02 3a
        E 23 b5 02 64
        E 23 b5 02 00
        E 23 b5 02 0c
        E 23 b5 02 29
        E 23 b5 02 22
        E 23 b5 02 53
        E 23 b5 02 15
        E 23 b5 02 06
        E 23 b5 02 0f
        E 23 b5 02 11
        E 23 b5 02 5b
        E 23 b5 02 19
        E 23 b5 02 00
        E 23 b5 02 4b
        E 23 b5 02 23
        E 23 b5 02 14
        E 23 b5 02 28
        E 23 b5 02 1a
        E 23 b5 02 56
        E 23 b5 02 55
        E 23 b5 02 65
        E 23 b5 02 54
        E 23 b5 02 2b
        E 23 b5 02 5e
        E 23 b5 02 48
        E 23 b5 02 0b
        E 23 b5 02 2c
        E 23 b5 02 36
        E 23 b5 02 60
        E 23 b5 02 4d
        E 23 b5 02 37
        E 23 b5 02 38
        E 23 b5 02 04
        E 23 b5 02 0a
        E 23 b5 02 5d
        E 23 b5 02 51
        E 23 b5 02 2b
        E 23 b5 02 1f
        E 23 b5 02 0d
        E 23 b5 02 2d
        E 23 b5 02 1e
        E 23 b5 02 18
        E 23 b5 02 26
        E 23 b5 02 34
        E 23 b5 02 3d
        E 23 b5 02 41
        E 23 b5 02 10
        E 23 b5 02 3c
        E 23 b5 02 5a
        E 23 b5 02 33
        E 23 b5 02 3b
        E 23 b5 02 02
        E 23 b5 02 07
        E 23 b5 02 63
        E 23 b5 02 42
        E 23 b5 02 12
        E 23 b5 02 5c
        E 23 b5 02 20
        E 23 b5 02 27
        E 23 b5 02 31
        E 23 b5 02 28
        E 23 b5 02 44
        E 23 b5 02 52
        E 23 b5 02 1d
        E 23 b5 02 39
        E 23 b5 02 17
        E 23 b5 02 5b
        E 23 b5 02 54
        E 23 b5 02 2e
        E 23 b5 02 24
        E 23 b5 02 50
        E 23 b5 02 25
        E 23 b5 02 47
        E 23 b5 02 0e
        E 23 b5 02 01
        E 23 b5 02 21
        E 23 b5 02 33
        E 23 b5 02 57
        E 23 b5 02 4e
        E 23 b5 02 03
        E 23 b5 02 57
        E 23 b5 02 4a
        E 23 b5 02 05
        E 23 b5 02 1f
        E 23 b5 02 3b
        E 23 b5 02 4c
        E 23 b5 02 61
        E 23 b5 02 3e
        E 23 b5 02 2a
        E 23 b5 02 1b
        E 23 b5 02 46
        E 23 b5 02 49
        E 23 b5 02 59
        E 23 b5 02 63
        E 23 b5 02 2f
        E 23 b5 02 40
        E 23 b5 02 45
        E 23 b5 02 35
        E 23 b5 02 5f
        E 23 b5 02 0f
        E 23 b5 02 24
        E 23 b5 02 43
        E 124 b0 7b 00
        CCINTERP 32
        CHASE_CC_TAKEOFFS 1
        GUID {FBC62D25-7424-0A4B-98C3-8FBD1EE74705}
        IGNTEMPO 0 120 4 4
        SRCCOLOR 151
        VELLANE 3 601 0
        VELLANE -1 196 0
        CFGEDITVIEW 0 0.008186 62 12 0 -1 0 0 0 0.5
        KEYSNAP 0
        TRACKSEL 252
        EVTFILTER 0 -1 -1 -1 -1 0 0 0 0 -1 -1 -1 -1 0 -1 0 -1 -1
        CFGEDIT 1 1 0 1 0 0 1 1 1 1 1 0.125 0 0 1792 1095 0 0 0 0 0 0 0 0 0 0.5 0 0 1 64
      >
    >
  >
  <TRACK {33435D8F-02A6-1E46-BA97-3F580AEB8ADC}
    NAME "germ-x hand sanitizer"
    PEAKCOL 16576
    BEAT -1
    AUTOMODE 0
    VOLPAN 1 0 -1 -1 1
    MUTESOLO 0 0 0
    IPHASE 0
    PLAYOFFS 0 1
    ISBUS 0 0
    BUSCOMP 0 0 0 0 0
    SHOWINMIX 1 0.6667 0.5 1 0.5 0 -1 0
    FREEMODE 0
    SEL 0
    REC 0 0 1 0 0 0 0
    VU 2
    TRACKHEIGHT 0 1 0 0 -1 0
    INQ 0 0 0 0.5 100 0 0 100
    NCHAN 2
    FX 1
    TRACKID {33435D8F-02A6-1E46-BA97-3F580AEB8ADC}
    PERF 0
    MIDIOUT -1
    MAINSEND 1 0
    <ITEM
      POSITION 0
      SNAPOFFS 0
      LENGTH 227.0268
      LOOP 1
      ALLTAKES 0
      FADEIN 1 0 0 1 0 0
      FADEOUT 1 0 0 1 0 0
      MUTE 0 0
      SEL 0
      IGUID {6E46BB84-CE24-3A42-B025-57800BEEF75A}
      IID 19
      NAME "germ-x hand sanitizer.mid"
      VOLPAN 1 0 1 -1
      SOFFS 0 0
      PLAYRATE 1 1 0 -1 0 0.0025
      CHANMODE 0
      GUID {272B4147-4038-D44E-A8FE-DAA0AFCBCD03}
      <SOURCE MIDI
        HASDATA 1 128 QN
        CCINTERP 32
        POOLEDEVTS {F5726CF5-5CAE-4F4A-BCBA-FCF4F3CCBBAA}
        E 48 b6 04 06
        E 48 b6 04 06
        E 48 b6 04 07
        E 48 b6 04 07
        E 48 b6 04 07
        E 48 b6 04 07
        E 48 b6 04 08
        E 48 b6 04 08
        E 48 b6 04 08
        E 48 b6 04 09
        E 48 b6 04 09
        E 48 b6 04 09
        E 48 b6 04 09
        E 48 b6 04 0a
        E 48 b6 04 0a
        E 48 b6 04 0a
        E 48 b6 04 0a
        E 48 b6 04 0b
        E 48 b6 04 0b
        E 48 b6 04 0b
        E 48 b6 04 0b
        E 48 b6 04 0b
        E 48 b6 04 0c
        E 48 b6 04 0c
        E 48 b6 04 0c
        E 48 b6 04 0c
        E 48 b6 04 0c
        E 48 b6 04 0c
        E 48 b6 04 0c
        E 48 b6 04 0c
        E 48 b6 04 0c
        E 48 b6 04 0c
        E 48 b6 04 0c
        E 48 b6 04 0c
        E 48 b6 04 0c
        E 48 b6 04 0c
        E 48 b6 04 0c
        E 48 b6 04 0c
        E 48 b6 04 0c
        E 48 b6 04 0c
        E 48 b6 04 0c
        E 48 b6 04 0c
        E 48 b6 04 0b
        E 48 b6 04 0b
        E 48 b6 04 0b
        E 48 b6 04 0b
        E 48 b6 04 0b
        E 48 b6 04 0b
        E 48 b6 04 0a
        E 48 b6 04 0a
        E 48 b6 04 0a
        E 48 b6 04 0a
        E 48 b6 04 09
        E 48 b6 04 09
        E 48 b6 04 09
        E 48 b6 04 08
        E 48 b6 04 08
        E 48 b6 04 08
        E 48 b6 04 08
        E 48 b6 04 07
        E 48 b6 04 07
        E 48 b6 04 07
        E 48 b6 04 06
        E 48 b6 04 06
        E 48 b6 04 06
        E 48 b6 04 05
        E 48 b6 04 05
        E 48 b6 04 05
        E 48 b6 04 04
        E 48 b6 04 04
        E 48 b6 04 04
        E 48 b6 04 04
        E 48 b6 04 03
        E 48 b6 04 03
        E 48 b6 04 03
        E 48 b6 04 02
        E 48 b6 04 02
        E 48 b6 04 02
        E 48 b6 04 02
        E 48 b6 04 01
        E 48 b6 04 01
        E 48 b6 04 01
        E 48 b6 04 01
        E 48 b6 04 01
        E 48 b6 04 01
        E 48 b6 04 00
        E 48 b6 04 00
        E 48 b6 04 00
        E 48 b6 04 00
        E 48 b6 04 00
        E 48 b6 04 00
        E 48 b6 04 00
        E 48 b6 04 00
        E 48 b6 04 00
        E 48 b6 04 00
        E 48 b6 04 00
        E 48 b6 04 00
        E 48 b6 04 00
        E 48 b6 04 00
        E 48 b6 04 00
        E 48 b6 04 00
        E 48 b6 04 00
        E 48 b6 04 00
        E 48 b6 04 00
        E 48 b6 04 00
        E 48 b6 04 00
        E 48 b6 04 00
        E 48 b6 04 01
        E 48 b6 04 01
        E 48 b6 04 01
        E 48 b6 04 01
        E 48 b6 04 01
        E 48 b6 04 02
        E 48 b6 04 02
        E 48 b6 04 02
        E 48 b6 04 02
        E 48 b6 04 03
        E 48 b6 04 03
        E 48 b6 04 03
        E 48 b6 04 03
        E 48 b6 04 04
        E 48 b6 04 04
        E 48 b6 04 04
        E 48 b6 04 05
        E 48 b6 04 05
        E 48 b6 04 05
        E 48 b6 04 06
        E 48 b6 04 06
        E 48 b6 04 13
        E 48 b6 04 14
        E 48 b6 04 15
        E 48 b6 04 15
        E 48 b6 04 16
        E 48 b6 04 17
        E 48 b6 04 18
        E 48 b6 04 19
        E 48 b6 04 1a
        E 48 b6 04 1b
        E 48 b6 04 1c
        E 48 b6 04 1c
        E 48 b6 04 1d
        E 48 b6 04 1e
        E 48 b6 04 1f
        E 48 b6 04 1f
        E 48 b6 04 20
        E 48 b6 04 21
        E 48 b6 04 21
        E 48 b6 04 22
        E 48 b6 04 23
        E 48 b6 04 23
        E 48 b6 04 24
        E 48 b6 04 24
        E 48 b6 04 24
        E 48 b6 04 24
        E 48 b6 04 25
        E 48 b6 04 25
        E 48 b6 04 25
        E 48 b6 04 25
        E 48 b6 04 26
        E 48 b6 04 26
        E 48 b6 04 26
        E 48 b6 04 26
        E 48 b6 04 26
        E 48 b6 04 25
        E 48 b6 04 25
        E 48 b6 04 25
        E 48 b6 04 25
        E 48 b6 04 24
        E 48 b6 04 24
        E 48 b6 04 24
        E 48 b6 04 23
        E 48 b6 04 23
        E 48 b6 04 22
        E 48 b6 04 22
        E 48 b6 04 21
        E 48 b6 04 21
        E 48 b6 04 20
        E 48 b6 04 1f
        E 48 b6 04 1e
        E 48 b6 04 1e
        E 48 b6 04 1d
        E 48 b6 04 1c
        E 48 b6 04 1b
        E 48 b6 04 1a
        E 48 b6 04 1a
        E 48 b6 04 19
        E 48 b6 04 18
        E 48 b6 04 17
        E 48 b6 04 16
        E 48 b6 04 15
        E 48 b6 04 14
        E 48 b6 04 13
        E 48 b6 04 12
        E 48 b6 04 11
        E 48 b6 04 10
        E 48 b6 04 0f
        E 48 b6 04 0e
        E 48 b6 04 0d
        E 48 b6 04 0c
        E 48 b6 04 0c
        E 48 b6 04 0b
        E 48 b6 04 0a
        E 48 b6 04 09
        E 48 b6 04 08
        E 48 b6 04 08
        E 48 b6 04 07
        E 48 b6 04 06
        E 48 b6 04 05
        E 48 b6 04 05
        E 48 b6 04 04
        E 48 b6 04 03
        E 48 b6 04 03
        E 48 b6 04 03
        E 48 b6 04 02
        E 48 b6 04 02
        E 48 b6 04 01
        E 48 b6 04 01
        E 48 b6 04 00
        E 48 b6 04 00
        E 48 b6 04 00
        E 48 b6 04 00
        E 48 b6 04 00
        E 48 b6 04 00
        E 48 b6 04 00
        E 48 b6 04 00
        E 48 b6 04 00
        E 48 b6 04 00
        E 48 b6 04 00
        E 48 b6 04 00
        E 48 b6 04 00
        E 48 b6 04 01
        E 48 b6 04 01
        E 48 b6 04 01
        E 48 b6 04 02
        E 48 b6 04 02
        E 48 b6 04 03
        E 48 b6 04 03
        E 48 b6 04 04
        E 48 b6 04 04
        E 48 b6 04 05
        E 48 b6 04 06
        E 48 b6 04 06
        E 48 b6 04 07
        E 48 b6 04 08
        E 48 b6 04 09
        E 48 b6 04 09
        E 48 b6 04 0a
        E 48 b6 04 0b
        E 48 b6 04 0c
        E 48 b6 04 0d
        E 48 b6 04 0e
        E 48 b6 04 0f
        E 48 b6 04 10
        E 48 b6 04 11
        E 48 b6 04 12
        E 48 b6 04 13
        E 36 b6 04 39
        E 36 b6 04 3c
        E 36 b6 04 3f
        E 36 b6 04 41
        E 36 b6 04 44
        E 36 b6 04 47
        E 36 b6 04 49
        E 36 b6 04 4c
        E 36 b6 04 4f
        E 36 b6 04 51
        E 36 b6 04 54
        E 36 b6 04 56
        E 36 b6 04 59
        E 36 b6 04 5b
        E 36 b6 04 5d
        E 36 b6 04 5f
        E 36 b6 04 62
        E 36 b6 04 63
        E 36 b6 04 65
        E 36 b6 04 67
        E 36 b6 04 69
        E 36 b6 04 6a
        E 36 b6 04 6c
        E 36 b6 04 6c
        E 36 b6 04 6d
        E 36 b6 04 6e
        E 36 b6 04 6f
        E 36 b6 04 70
        E 36 b6 04 71
        E 36 b6 04 71
        E 36 b6 04 72
        E 36 b6 04 72
        E 36 b6 04 72
        E 36 b6 04 72
        E 36 b6 04 72
        E 36 b6 04 71
        E 36 b6 04 71
        E 36 b6 04 70
        E 36 b6 04 6f
        E 36 b6 04 6e
        E 36 b6 04 6d
        E 36 b6 04 6c
        E 36 b6 04 6b
        E 36 b6 04 69
        E 36 b6 04 68
        E 36 b6 04 66
        E 36 b6 04 64
        E 36 b6 04 63
        E 36 b6 04 61
        E 36 b6 04 5e
        E 36 b6 04 5c
        E 36 b6 04 5a
        E 36 b6 04 58
        E 36 b6 04 55
        E 36 b6 04 52
        E 36 b6 04 50
        E 36 b6 04 4e
        E 36 b6 04 4b
        E 36 b6 04 48
        E 36 b6 04 46
        E 36 b6 04 42
        E 36 b6 04 3f
        E 36 b6 04 3d
        E 36 b6 04 3a
        E 36 b6 04 37
        E 36 b6 04 35
        E 36 b6 04 32
        E 36 b6 04 2f
        E 36 b6 04 2c
        E 36 b6 04 29
        E 36 b6 04 26
        E 36 b6 04 24
        E 36 b6 04 22
        E 36 b6 04 1f
        E 36 b6 04 1c
        E 36 b6 04 1a
        E 36 b6 04 18
        E 36 b6 04 15
        E 36 b6 04 13
        E 36 b6 04 11
        E 36 b6 04 0f
        E 36 b6 04 0d
        E 36 b6 04 0b
        E 36 b6 04 09
        E 36 b6 04 09
        E 36 b6 04 07
        E 36 b6 04 06
        E 36 b6 04 04
        E 36 b6 04 03
        E 36 b6 04 02
        E 36 b6 04 01
        E 36 b6 04 00
        E 36 b6 04 00
        E 36 b6 04 00
        E 36 b6 04 00
        E 36 b6 04 00
        E 36 b6 04 00
        E 36 b6 04 00
        E 36 b6 04 00
        E 36 b6 04 00
        E 36 b6 04 01
        E 36 b6 04 02
        E 36 b6 04 03
        E 36 b6 04 04
        E 36 b6 04 05
        E 36 b6 04 06
        E 36 b6 04 08
        E 36 b6 04 09
        E 36 b6 04 0a
        E 36 b6 04 0c
        E 36 b6 04 0e
        E 36 b6 04 10
        E 36 b6 04 12
        E 36 b6 04 14
        E 36 b6 04 16
        E 36 b6 04 19
        E 36 b6 04 1b
        E 36 b6 04 1d
        E 36 b6 04 20
        E 36 b6 04 23
        E 36 b6 04 25
        E 36 b6 04 28
        E 36 b6 04 2b
        E 36 b6 04 2d
        E 36 b6 04 30
        E 36 b6 04 33
        E 36 b6 04 36
        E 36 b6 04 39
        E 24 b6 04 0c
        E 24 b6 04 0d
        E 24 b6 04 0e
        E 24 b6 04 0e
        E 24 b6 04 0f
        E 24 b6 04 0f
        E 24 b6 04 10
        E 24 b6 04 11
        E 24 b6 04 11
        E 24 b6 04 12
        E 24 b6 04 12
        E 24 b6 04 13
        E 24 b6 04 13
        E 24 b6 04 14
        E 24 b6 04 14
        E 24 b6 04 15
        E 24 b6 04 15
        E 24 b6 04 16
        E 24 b6 04 16
        E 24 b6 04 17
        E 24 b6 04 17
        E 24 b6 04 17
        E 24 b6 04 18
        E 24 b6 04 18
        E 24 b6 04 18
        E 24 b6 04 18
        E 24 b6 04 18
        E 24 b6 04 19
        E 24 b6 04 19
        E 24 b6 04 19
        E 24 b6 04 19
        E 24 b6 04 19
        E 24 b6 04 19
        E 24 b6 04 19
        E 24 b6 04 19
        E 24 b6 04 19
        E 24 b6 04 19
        E 24 b6 04 19
        E 24 b6 04 18
        E 24 b6 04 18
        E 24 b6 04 18
        E 24 b6 04 18
        E 24 b6 04 17
        E 24 b6 04 17
        E 24 b6 04 17
        E 24 b6 04 16
        E 24 b6 04 16
        E 24 b6 04 16
        E 24 b6 04 15
        E 24 b6 04 15
        E 24 b6 04 14
        E 24 b6 04 14
        E 24 b6 04 13
        E 24 b6 04 13
        E 24 b6 04 12
        E 24 b6 04 11
        E 24 b6 04 11
        E 24 b6 04 10
        E 24 b6 04 10
        E 24 b6 04 0f
        E 24 b6 04 0e
        E 24 b6 04 0e
        E 24 b6 04 0d
        E 24 b6 04 0d
        E 24 b6 04 0c
        E 24 b6 04 0b
        E 24 b6 04 0b
        E 24 b6 04 0a
        E 24 b6 04 09
        E 24 b6 04 09
        E 24 b6 04 08
        E 24 b6 04 08
        E 24 b6 04 07
        E 24 b6 04 07
        E 24 b6 04 06
        E 24 b6 04 05
        E 24 b6 04 05
        E 24 b6 04 04
        E 24 b6 04 04
        E 24 b6 04 03
        E 24 b6 04 03
        E 24 b6 04 03
        E 24 b6 04 02
        E 24 b6 04 02
        E 24 b6 04 02
        E 24 b6 04 01
        E 24 b6 04 01
        E 24 b6 04 01
        E 24 b6 04 00
        E 24 b6 04 00
        E 24 b6 04 00
        E 24 b6 04 00
        E 24 b6 04 00
        E 24 b6 04 00
        E 24 b6 04 00
        E 24 b6 04 00
        E 24 b6 04 00
        E 24 b6 04 00
        E 24 b6 04 00
        E 24 b6 04 00
        E 24 b6 04 00
        E 24 b6 04 00
        E 24 b6 04 00
        E 24 b6 04 01
        E 24 b6 04 01
        E 24 b6 04 01
        E 24 b6 04 01
        E 24 b6 04 02
        E 24 b6 04 02
        E 24 b6 04 02
        E 24 b6 04 03
        E 24 b6 04 03
        E 24 b6 04 04
        E 24 b6 04 04
        E 24 b6 04 05
        E 24 b6 04 05
        E 24 b6 04 06
        E 24 b6 04 06
        E 24 b6 04 07
        E 24 b6 04 07
        E 24 b6 04 08
        E 24 b6 04 09
        E 24 b6 04 09
        E 24 b6 04 0a
        E 24 b6 04 0a
        E 24 b6 04 0b
        E 24 b6 04 0c
        E 24 b6 04 0c
        E 42 b6 04 39
        E 42 b6 04 3c
        E 42 b6 04 3f
        E 42 b6 04 41
        E 42 b6 04 44
        E 42 b6 04 47
        E 42 b6 04 49
        E 42 b6 04 4c
        E 42 b6 04 4f
        E 42 b6 04 51
        E 42 b6 04 54
        E 42 b6 04 56
        E 42 b6 04 59
        E 42 b6 04 5b
        E 42 b6 04 5d
        E 42 b6 04 5f
        E 42 b6 04 62
        E 42 b6 04 63
        E 42 b6 04 65
        E 42 b6 04 67
        E 42 b6 04 69
        E 42 b6 04 6a
        E 42 b6 04 6c
        E 42 b6 04 6c
        E 42 b6 04 6d
        E 42 b6 04 6e
        E 42 b6 04 6f
        E 42 b6 04 70
        E 42 b6 04 71
        E 42 b6 04 71
        E 42 b6 04 72
        E 42 b6 04 72
        E 42 b6 04 72
        E 42 b6 04 72
        E 42 b6 04 72
        E 42 b6 04 71
        E 42 b6 04 71
        E 42 b6 04 70
        E 42 b6 04 6f
        E 42 b6 04 6e
        E 42 b6 04 6d
        E 42 b6 04 6c
        E 42 b6 04 6b
        E 42 b6 04 69
        E 42 b6 04 68
        E 42 b6 04 66
        E 42 b6 04 64
        E 42 b6 04 63
        E 42 b6 04 61
        E 42 b6 04 5e
        E 42 b6 04 5c
        E 42 b6 04 5a
        E 42 b6 04 58
        E 42 b6 04 55
        E 42 b6 04 52
        E 42 b6 04 50
        E 42 b6 04 4e
        E 42 b6 04 4b
        E 42 b6 04 48
        E 42 b6 04 46
        E 42 b6 04 42
        E 42 b6 04 3f
        E 42 b6 04 3d
        E 42 b6 04 3a
        E 42 b6 04 37
        E 42 b6 04 35
        E 42 b6 04 32
        E 42 b6 04 2f
        E 42 b6 04 2c
        E 42 b6 04 29
        E 42 b6 04 26
        E 42 b6 04 24
        E 42 b6 04 22
        E 42 b6 04 1f
        E 42 b6 04 1c
        E 42 b6 04 1a
        E 42 b6 04 18
        E 42 b6 04 15
        E 42 b6 04 13
        E 42 b6 04 11
        E 42 b6 04 0f
        E 42 b6 04 0d
        E 42 b6 04 0b
        E 42 b6 04 09
        E 42 b6 04 09
        E 42 b6 04 07
        E 42 b6 04 06
        E 42 b6 04 04
        E 42 b6 04 03
        E 42 b6 04 02
        E 42 b6 04 01
        E 42 b6 04 00
        E 42 b6 04 00
        E 42 b6 04 00
        E 42 b6 04 00
        E 42 b6 04 00
        E 42 b6 04 00
        E 42 b6 04 00
        E 42 b6 04 00
        E 42 b6 04 00
        E 42 b6 04 01
        E 42 b6 04 02
        E 42 b6 04 03
        E 42 b6 04 04
        E 42 b6 04 05
        E 42 b6 04 06
        E 42 b6 04 08
        E 42 b6 04 09
        E 42 b6 04 0a
        E 42 b6 04 0c
        E 42 b6 04 0e
        E 42 b6 04 10
        E 42 b6 04 12
        E 42 b6 04 14
        E 42 b6 04 16
        E 42 b6 04 19
        E 42 b6 04 1b
        E 42 b6 04 1d
        E 42 b6 04 20
        E 42 b6 04 23
        E 42 b6 04 25
        E 42 b6 04 28
        E 42 b6 04 2b
        E 42 b6 04 2d
        E 42 b6 04 30
        E 42 b6 04 33
        E 42 b6 04 36
        E 42 b6 04 39
        E 24 b6 04 20
        E 24 b6 04 21
        E 24 b6 04 23
        E 24 b6 04 24
        E 24 b6 04 26
        E 24 b6 04 27
        E 24 b6 04 29
        E 24 b6 04 2a
        E 24 b6 04 2c
        E 24 b6 04 2d
        E 24 b6 04 2f
        E 24 b6 04 30
        E 24 b6 04 31
        E 24 b6 04 33
        E 24 b6 04 34
        E 24 b6 04 35
        E 24 b6 04 36
        E 24 b6 04 37
        E 24 b6 04 38
        E 24 b6 04 39
        E 24 b6 04 3a
        E 24 b6 04 3b
        E 24 b6 04 3c
        E 24 b6 04 3c
        E 24 b6 04 3d
        E 24 b6 04 3d
        E 24 b6 04 3e
        E 24 b6 04 3e
        E 24 b6 04 3f
        E 24 b6 04 3f
        E 24 b6 04 3f
        E 24 b6 04 3f
        E 24 b6 04 3f
        E 24 b6 04 3f
        E 24 b6 04 3f
        E 24 b6 04 3f
        E 24 b6 04 3f
        E 24 b6 04 3e
        E 24 b6 04 3e
        E 24 b6 04 3d
        E 24 b6 04 3d
        E 24 b6 04 3c
        E 24 b6 04 3b
        E 24 b6 04 3a
        E 24 b6 04 3a
        E 24 b6 04 39
        E 24 b6 04 38
        E 24 b6 04 37
        E 24 b6 04 36
        E 24 b6 04 34
        E 24 b6 04 33
        E 24 b6 04 32
        E 24 b6 04 31
        E 24 b6 04 2f
        E 24 b6 04 2e
        E 24 b6 04 2c
        E 24 b6 04 2b
        E 24 b6 04 2a
        E 24 b6 04 28
        E 24 b6 04 27
        E 24 b6 04 25
        E 24 b6 04 23
        E 24 b6 04 22
        E 24 b6 04 20
        E 24 b6 04 1f
        E 24 b6 04 1d
        E 24 b6 04 1c
        E 24 b6 04 1a
        E 24 b6 04 18
        E 24 b6 04 17
        E 24 b6 04 15
        E 24 b6 04 14
        E 24 b6 04 13
        E 24 b6 04 11
        E 24 b6 04 10
        E 24 b6 04 0e
        E 24 b6 04 0d
        E 24 b6 04 0c
        E 24 b6 04 0b
        E 24 b6 04 09
        E 24 b6 04 08
        E 24 b6 04 07
        E 24 b6 04 06
        E 24 b6 04 05
        E 24 b6 04 05
        E 24 b6 04 04
        E 24 b6 04 03
        E 24 b6 04 02
        E 24 b6 04 02
        E 24 b6 04 01
        E 24 b6 04 01
        E 24 b6 04 00
        E 24 b6 04 00
        E 24 b6 04 00
        E 24 b6 04 00
        E 24 b6 04 00
        E 24 b6 04 00
        E 24 b6 04 00
        E 24 b6 04 00
        E 24 b6 04 00
        E 24 b6 04 01
        E 24 b6 04 01
        E 24 b6 04 02
        E 24 b6 04 02
        E 24 b6 04 03
        E 24 b6 04 03
        E 24 b6 04 04
        E 24 b6 04 05
        E 24 b6 04 06
        E 24 b6 04 07
        E 24 b6 04 08
        E 24 b6 04 09
        E 24 b6 04 0a
        E 24 b6 04 0b
        E 24 b6 04 0c
        E 24 b6 04 0e
        E 24 b6 04 0f
        E 24 b6 04 10
        E 24 b6 04 12
        E 24 b6 04 13
        E 24 b6 04 15
        E 24 b6 04 16
        E 24 b6 04 18
        E 24 b6 04 19
        E 24 b6 04 1b
        E 24 b6 04 1c
        E 24 b6 04 1e
        E 24 b6 04 20
        E 48 b6 04 06
        E 48 b6 04 06
        E 48 b6 04 07
        E 48 b6 04 07
        E 48 b6 04 07
        E 48 b6 04 07
        E 48 b6 04 08
        E 48 b6 04 08
        E 48 b6 04 08
        E 48 b6 04 09
        E 48 b6 04 09
        E 48 b6 04 09
        E 48 b6 04 09
        E 48 b6 04 0a
        E 48 b6 04 0a
        E 48 b6 04 0a
        E 48 b6 04 0a
        E 48 b6 04 0b
        E 48 b6 04 0b
        E 48 b6 04 0b
        E 48 b6 04 0b
        E 48 b6 04 0b
        E 48 b6 04 0c
        E 48 b6 04 0c
        E 48 b6 04 0c
        E 48 b6 04 0c
        E 48 b6 04 0c
        E 48 b6 04 0c
        E 48 b6 04 0c
        E 48 b6 04 0c
        E 48 b6 04 0c
        E 48 b6 04 0c
        E 48 b6 04 0c
        E 48 b6 04 0c
        E 48 b6 04 0c
        E 48 b6 04 0c
        E 48 b6 04 0c
        E 48 b6 04 0c
        E 48 b6 04 0c
        E 48 b6 04 0c
        E 48 b6 04 0c
        E 48 b6 04 0c
        E 48 b6 04 0b
        E 48 b6 04 0b
        E 48 b6 04 0b
        E 48 b6 04 0b
        E 48 b6 04 0b
        E 48 b6 04 0b
        E 48 b6 04 0a
        E 48 b6 04 0a
        E 48 b6 04 0a
        E 48 b6 04 0a
        E 48 b6 04 09
        E 48 b6 04 09
        E 48 b6 04 09
        E 48 b6 04 08
        E 48 b6 04 08
        E 48 b6 04 08
        E 48 b6 04 08
        E 48 b6 04 07
        E 48 b6 04 07
        E 48 b6 04 07
        E 48 b6 04 06
        E 48 b6 04 06
        E 48 b6 04 06
        E 48 b6 04 05
        E 48 b6 04 05
        E 48 b6 04 05
        E 48 b6 04 04
        E 48 b6 04 04
        E 48 b6 04 04
        E 48 b6 04 04
        E 48 b6 04 03
        E 48 b6 04 03
        E 48 b6 04 03
        E 48 b6 04 02
        E 48 b6 04 02
        E 48 b6 04 02
        E 48 b6 04 02
        E 48 b6 04 01
        E 48 b6 04 01
        E 48 b6 04 01
        E 48 b6 04 01
        E 48 b6 04 01
        E 48 b6 04 01
        E 48 b6 04 00
        E 48 b6 04 00
        E 48 b6 04 00
        E 48 b6 04 00
        E 48 b6 04 00
        E 48 b6 04 00
        E 48 b6 04 00
        E 48 b6 04 00
        E 48 b6 04 00
        E 48 b6 04 00
        E 48 b6 04 00
        E 48 b6 04 00
        E 48 b6 04 00
        E 48 b6 04 00
        E 48 b6 04 00
        E 48 b6 04 00
        E 48 b6 04 00
        E 48 b6 04 00
        E 48 b6 04 00
        E 48 b6 04 00
        E 48 b6 04 00
        E 48 b6 04 00
        E 48 b6 04 01
        E 48 b6 04 01
        E 48 b6 04 01
        E 48 b6 04 01
        E 48 b6 04 01
        E 48 b6 04 02
        E 48 b6 04 02
        E 48 b6 04 02
        E 48 b6 04 02
        E 48 b6 04 03
        E 48 b6 04 03
        E 48 b6 04 03
        E 48 b6 04 03
        E 48 b6 04 04
        E 48 b6 04 04
        E 48 b6 04 04
        E 48 b6 04 05
        E 48 b6 04 05
        E 48 b6 04 05
        E 48 b6 04 06
        E 48 b6 04 06
        E 48 b6 04 13
        E 48 b6 04 14
        E 48 b6 04 15
        E 48 b6 04 15
        E 48 b6 04 16
        E 48 b6 04 17
        E 48 b6 04 18
        E 48 b6 04 19
        E 48 b6 04 1a
        E 48 b6 04 1b
        E 48 b6 04 1c
        E 48 b6 04 1c
        E 48 b6 04 1d
        E 48 b6 04 1e
        E 48 b6 04 1f
        E 48 b6 04 1f
        E 48 b6 04 20
        E 48 b6 04 21
        E 48 b6 04 21
        E 48 b6 04 22
        E 48 b6 04 23
        E 48 b6 04 23
        E 48 b6 04 24
        E 48 b6 04 24
        E 48 b6 04 24
        E 48 b6 04 24
        E 48 b6 04 25
        E 48 b6 04 25
        E 48 b6 04 25
        E 48 b6 04 25
        E 48 b6 04 26
        E 48 b6 04 26
        E 48 b6 04 26
        E 48 b6 04 26
        E 48 b6 04 26
        E 48 b6 04 25
        E 48 b6 04 25
        E 48 b6 04 25
        E 48 b6 04 25
        E 48 b6 04 24
        E 48 b6 04 24
        E 48 b6 04 24
        E 48 b6 04 23
        E 48 b6 04 23
        E 48 b6 04 22
        E 48 b6 04 22
        E 48 b6 04 21
        E 48 b6 04 21
        E 48 b6 04 20
        E 48 b6 04 1f
        E 48 b6 04 1e
        E 48 b6 04 1e
        E 48 b6 04 1d
        E 48 b6 04 1c
        E 48 b6 04 1b
        E 48 b6 04 1a
        E 48 b6 04 1a
        E 48 b6 04 19
        E 48 b6 04 18
        E 48 b6 04 17
        E 48 b6 04 16
        E 48 b6 04 15
        E 48 b6 04 14
        E 48 b6 04 13
        E 48 b6 04 12
        E 48 b6 04 11
        E 48 b6 04 10
        E 48 b6 04 0f
        E 48 b6 04 0e
        E 48 b6 04 0d
        E 48 b6 04 0c
        E 48 b6 04 0c
        E 48 b6 04 0b
        E 48 b6 04 0a
        E 48 b6 04 09
        E 48 b6 04 08
        E 48 b6 04 08
        E 48 b6 04 07
        E 48 b6 04 06
        E 48 b6 04 05
        E 48 b6 04 05
        E 48 b6 04 04
        E 48 b6 04 03
        E 48 b6 04 03
        E 48 b6 04 03
        E 48 b6 04 02
        E 48 b6 04 02
        E 48 b6 04 01
        E 48 b6 04 01
        E 48 b6 04 00
        E 48 b6 04 00
        E 48 b6 04 00
        E 48 b6 04 00
        E 48 b6 04 00
        E 48 b6 04 00
        E 48 b6 04 00
        E 48 b6 04 00
        E 48 b6 04 00
        E 48 b6 04 00
        E 48 b6 04 00
        E 48 b6 04 00
        E 48 b6 04 00
        E 48 b6 04 01
        E 48 b6 04 01
        E 48 b6 04 01
        E 48 b6 04 02
        E 48 b6 04 02
        E 48 b6 04 03
        E 48 b6 04 03
        E 48 b6 04 04
        E 48 b6 04 04
        E 48 b6 04 05
        E 48 b6 04 06
        E 48 b6 04 06
        E 48 b6 04 07
        E 48 b6 04 08
        E 48 b6 04 09
        E 48 b6 04 09
        E 48 b6 04 0a
        E 48 b6 04 0b
        E 48 b6 04 0c
        E 48 b6 04 0d
        E 48 b6 04 0e
        E 48 b6 04 0f
        E 48 b6 04 10
        E 48 b6 04 11
        E 48 b6 04 12
        E 48 b6 04 13
        E 36 b6 04 39
        E 36 b6 04 3c
        E 36 b6 04 3f
        E 36 b6 04 41
        E 36 b6 04 44
        E 36 b6 04 47
        E 36 b6 04 49
        E 36 b6 04 4c
        E 36 b6 04 4f
        E 36 b6 04 51
        E 36 b6 04 54
        E 36 b6 04 56
        E 36 b6 04 59
        E 36 b6 04 5b
        E 36 b6 04 5d
        E 36 b6 04 5f
        E 36 b6 04 62
        E 36 b6 04 63
        E 36 b6 04 65
        E 36 b6 04 67
        E 36 b6 04 69
        E 36 b6 04 6a
        E 36 b6 04 6c
        E 36 b6 04 6c
        E 36 b6 04 6d
        E 36 b6 04 6e
        E 36 b6 04 6f
        E 36 b6 04 70
        E 36 b6 04 71
        E 36 b6 04 71
        E 36 b6 04 72
        E 36 b6 04 72
        E 36 b6 04 72
        E 36 b6 04 72
        E 36 b6 04 72
        E 36 b6 04 71
        E 36 b6 04 71
        E 36 b6 04 70
        E 36 b6 04 6f
        E 36 b6 04 6e
        E 36 b6 04 6d
        E 36 b6 04 6c
        E 36 b6 04 6b
        E 36 b6 04 69
        E 36 b6 04 68
        E 36 b6 04 66
        E 36 b6 04 64
        E 36 b6 04 63
        E 36 b6 04 61
        E 36 b6 04 5e
        E 36 b6 04 5c
        E 36 b6 04 5a
        E 36 b6 04 58
        E 36 b6 04 55
        E 36 b6 04 52
        E 36 b6 04 50
        E 36 b6 04 4e
        E 36 b6 04 4b
        E 36 b6 04 48
        E 36 b6 04 46
        E 36 b6 04 42
        E 36 b6 04 3f
        E 36 b6 04 3d
        E 36 b6 04 3a
        E 36 b6 04 37
        E 36 b6 04 35
        E 36 b6 04 32
        E 36 b6 04 2f
        E 36 b6 04 2c
        E 36 b6 04 29
        E 36 b6 04 26
        E 36 b6 04 24
        E 36 b6 04 22
        E 36 b6 04 1f
        E 36 b6 04 1c
        E 36 b6 04 1a
        E 36 b6 04 18
        E 36 b6 04 15
        E 36 b6 04 13
        E 36 b6 04 11
        E 36 b6 04 0f
        E 36 b6 04 0d
        E 36 b6 04 0b
        E 36 b6 04 09
        E 36 b6 04 09
        E 36 b6 04 07
        E 36 b6 04 06
        E 36 b6 04 04
        E 36 b6 04 03
        E 36 b6 04 02
        E 36 b6 04 01
        E 36 b6 04 00
        E 36 b6 04 00
        E 36 b6 04 00
        E 36 b6 04 00
        E 36 b6 04 00
        E 36 b6 04 00
        E 36 b6 04 00
        E 36 b6 04 00
        E 36 b6 04 00
        E 36 b6 04 01
        E 36 b6 04 02
        E 36 b6 04 03
        E 36 b6 04 04
        E 36 b6 04 05
        E 36 b6 04 06
        E 36 b6 04 08
        E 36 b6 04 09
        E 36 b6 04 0a
        E 36 b6 04 0c
        E 36 b6 04 0e
        E 36 b6 04 10
        E 36 b6 04 12
        E 36 b6 04 14
        E 36 b6 04 16
        E 36 b6 04 19
        E 36 b6 04 1b
        E 36 b6 04 1d
        E 36 b6 04 20
        E 36 b6 04 23
        E 36 b6 04 25
        E 36 b6 04 28
        E 36 b6 04 2b
        E 36 b6 04 2d
        E 36 b6 04 30
        E 36 b6 04 33
        E 36 b6 04 36
        E 36 b6 04 39
        E 24 b6 04 0c
        E 24 b6 04 0d
        E 24 b6 04 0e
        E 24 b6 04 0e
        E 24 b6 04 0f
        E 24 b6 04 0f
        E 24 b6 04 10
        E 24 b6 04 11
        E 24 b6 04 11
        E 24 b6 04 12
        E 24 b6 04 12
        E 24 b6 04 13
        E 24 b6 04 13
        E 24 b6 04 14
        E 24 b6 04 14
        E 24 b6 04 15
        E 24 b6 04 15
        E 24 b6 04 16
        E 24 b6 04 16
        E 24 b6 04 17
        E 24 b6 04 17
        E 24 b6 04 17
        E 24 b6 04 18
        E 24 b6 04 18
        E 24 b6 04 18
        E 24 b6 04 18
        E 24 b6 04 18
        E 24 b6 04 19
        E 24 b6 04 19
        E 24 b6 04 19
        E 24 b6 04 19
        E 24 b6 04 19
        E 24 b6 04 19
        E 24 b6 04 19
        E 24 b6 04 19
        E 24 b6 04 19
        E 24 b6 04 19
        E 24 b6 04 19
        E 24 b6 04 18
        E 24 b6 04 18
        E 24 b6 04 18
        E 24 b6 04 18
        E 24 b6 04 17
        E 24 b6 04 17
        E 24 b6 04 17
        E 24 b6 04 16
        E 24 b6 04 16
        E 24 b6 04 16
        E 24 b6 04 15
        E 24 b6 04 15
        E 24 b6 04 14
        E 24 b6 04 14
        E 24 b6 04 13
        E 24 b6 04 13
        E 24 b6 04 12
        E 24 b6 04 11
        E 24 b6 04 11
        E 24 b6 04 10
        E 24 b6 04 10
        E 24 b6 04 0f
        E 24 b6 04 0e
        E 24 b6 04 0e
        E 24 b6 04 0d
        E 24 b6 04 0d
        E 24 b6 04 0c
        E 24 b6 04 0b
        E 24 b6 04 0b
        E 24 b6 04 0a
        E 24 b6 04 09
        E 24 b6 04 09
        E 24 b6 04 08
        E 24 b6 04 08
        E 24 b6 04 07
        E 24 b6 04 07
        E 24 b6 04 06
        E 24 b6 04 05
        E 24 b6 04 05
        E 24 b6 04 04
        E 24 b6 04 04
        E 24 b6 04 03
        E 24 b6 04 03
        E 24 b6 04 03
        E 24 b6 04 02
        E 24 b6 04 02
        E 24 b6 04 02
        E 24 b6 04 01
        E 24 b6 04 01
        E 24 b6 04 01
        E 24 b6 04 00
        E 24 b6 04 00
        E 24 b6 04 00
        E 24 b6 04 00
        E 24 b6 04 00
        E 24 b6 04 00
        E 24 b6 04 00
        E 24 b6 04 00
        E 24 b6 04 00
        E 24 b6 04 00
        E 24 b6 04 00
        E 24 b6 04 00
        E 24 b6 04 00
        E 24 b6 04 00
        E 24 b6 04 00
        E 24 b6 04 01
        E 24 b6 04 01
        E 24 b6 04 01
        E 24 b6 04 01
        E 24 b6 04 02
        E 24 b6 04 02
        E 24 b6 04 02
        E 24 b6 04 03
        E 24 b6 04 03
        E 24 b6 04 04
        E 24 b6 04 04
        E 24 b6 04 05
        E 24 b6 04 05
        E 24 b6 04 06
        E 24 b6 04 06
        E 24 b6 04 07
        E 24 b6 04 07
        E 24 b6 04 08
        E 24 b6 04 09
        E 24 b6 04 09
        E 24 b6 04 0a
        E 24 b6 04 0a
        E 24 b6 04 0b
        E 24 b6 04 0c
        E 24 b6 04 0c
        E 42 b6 04 39
        E 42 b6 04 3c
        E 42 b6 04 3f
        E 42 b6 04 41
        E 42 b6 04 44
        E 42 b6 04 47
        E 42 b6 04 49
        E 42 b6 04 4c
        E 42 b6 04 4f
        E 42 b6 04 51
        E 42 b6 04 54
        E 42 b6 04 56
        E 42 b6 04 59
        E 42 b6 04 5b
        E 42 b6 04 5d
        E 42 b6 04 5f
        E 42 b6 04 62
        E 42 b6 04 63
        E 42 b6 04 65
        E 42 b6 04 67
        E 42 b6 04 69
        E 42 b6 04 6a
        E 42 b6 04 6c
        E 42 b6 04 6c
        E 42 b6 04 6d
        E 42 b6 04 6e
        E 42 b6 04 6f
        E 42 b6 04 70
        E 42 b6 04 71
        E 42 b6 04 71
        E 42 b6 04 72
        E 42 b6 04 72
        E 42 b6 04 72
        E 42 b6 04 72
        E 42 b6 04 72
        E 42 b6 04 71
        E 42 b6 04 71
        E 42 b6 04 70
        E 42 b6 04 6f
        E 42 b6 04 6e
        E 42 b6 04 6d
        E 42 b6 04 6c
        E 42 b6 04 6b
        E 42 b6 04 69
        E 42 b6 04 68
        E 42 b6 04 66
        E 42 b6 04 64
        E 42 b6 04 63
        E 42 b6 04 61
        E 42 b6 04 5e
        E 42 b6 04 5c
        E 42 b6 04 5a
        E 42 b6 04 58
        E 42 b6 04 55
        E 42 b6 04 52
        E 42 b6 04 50
        E 42 b6 04 4e
        E 42 b6 04 4b
        E 42 b6 04 48
        E 42 b6 04 46
        E 42 b6 04 42
        E 42 b6 04 3f
        E 42 b6 04 3d
        E 42 b6 04 3a
        E 42 b6 04 37
        E 42 b6 04 35
        E 42 b6 04 32
        E 42 b6 04 2f
        E 42 b6 04 2c
        E 42 b6 04 29
        E 42 b6 04 26
        E 42 b6 04 24
        E 42 b6 04 22
        E 42 b6 04 1f
        E 42 b6 04 1c
        E 42 b6 04 1a
        E 42 b6 04 18
        E 42 b6 04 15
        E 42 b6 04 13
        E 42 b6 04 11
        E 42 b6 04 0f
        E 42 b6 04 0d
        E 42 b6 04 0b
        E 42 b6 04 09
        E 42 b6 04 09
        E 42 b6 04 07
        E 42 b6 04 06
        E 42 b6 04 04
        E 42 b6 04 03
        E 42 b6 04 02
        E 42 b6 04 01
        E 42 b6 04 00
        E 42 b6 04 00
        E 42 b6 04 00
        E 42 b6 04 00
        E 42 b6 04 00
        E 42 b6 04 00
        E 42 b6 04 00
        E 42 b6 04 00
        E 42 b6 04 00
        E 42 b6 04 01
        E 42 b6 04 02
        E 42 b6 04 03
        E 42 b6 04 04
        E 42 b6 04 05
        E 42 b6 04 06
        E 42 b6 04 08
        E 42 b6 04 09
        E 42 b6 04 0a
        E 42 b6 04 0c
        E 42 b6 04 0e
        E 42 b6 04 10
        E 42 b6 04 12
        E 42 b6 04 14
        E 42 b6 04 16
        E 42 b6 04 19
        E 42 b6 04 1b
        E 42 b6 04 1d
        E 42 b6 04 20
        E 42 b6 04 23
        E 42 b6 04 25
        E 42 b6 04 28
        E 42 b6 04 2b
        E 42 b6 04 2d
        E 42 b6 04 30
        E 42 b6 04 33
        E 42 b6 04 36
        E 41 b6 04 39
        E 1 b0 7b 00
        CCINTERP 32
        CHASE_CC_TAKEOFFS 1
        GUID {CB183C92-D894-F24C-9F98-DD331CE49F70}
        IGNTEMPO 0 120 4 4
        SRCCOLOR 152
        VELLANE 3 601 0
        VELLANE -1 196 0
        CFGEDITVIEW 0 0.008186 62 12 0 -1 0 0 0 0.5
        KEYSNAP 0
        TRACKSEL 252
        EVTFILTER 0 -1 -1 -1 -1 0 0 0 0 -1 -1 -1 -1 0 -1 0 -1 -1
        CFGEDIT 1 1 0 1 0 0 1 1 1 1 1 0.125 0 0 1792 1095 0 0 0 0 0 0 0 0 0 0.5 0 0 1 64
      >
    >
  >
  <TRACK {15F3F994-ACD3-664B-B845-AA669EF0533C}
    NAME "germ-x hand sanitizer"
    PEAKCOL 16576
    BEAT -1
    AUTOMODE 0
    VOLPAN 1 0 -1 -1 1
    MUTESOLO 0 0 0
    IPHASE 0
    PLAYOFFS 0 1
    ISBUS 0 0
    BUSCOMP 0 0 0 0 0
    SHOWINMIX 1 0.6667 0.5 1 0.5 0 -1 0
    FREEMODE 0
    SEL 0
    REC 0 0 1 0 0 0 0
    VU 2
    TRACKHEIGHT 0 1 0 0 -1 0
    INQ 0 0 0 0.5 100 0 0 100
    NCHAN 2
    FX 1
    TRACKID {15F3F994-ACD3-664B-B845-AA669EF0533C}
    PERF 0
    MIDIOUT -1
    MAINSEND 1 0
    <ITEM
      POSITION 0
      SNAPOFFS 0
      LENGTH 703.78308
      LOOP 1
      ALLTAKES 0
      FADEIN 1 0 0 1 0 0
      FADEOUT 1 0 0 1 0 0
      MUTE 0 0
      SEL 0
      IGUID {F28AFFFC-6999-814A-9AC1-4B36A9A5D4F1}
      IID 20
      NAME "germ-x hand sanitizer.mid"
      VOLPAN 1 0 1 -1
      SOFFS 0 0
      PLAYRATE 1 1 0 -1 0 0.0025
      CHANMODE 0
      GUID {497C323D-A67B-BA48-B75F-03995DE69C64}
      <SOURCE MIDI
        HASDATA 1 128 QN
        CCINTERP 32
        POOLEDEVTS {AC2CE67C-43DE-484C-9CFA-59F46AF041F6}
        E 13 b7 09 65
        E 13 b7 09 65
        E 13 b7 09 65
        E 13 b7 09 65
        E 13 b7 09 65
        E 13 b7 09 65
        E 13 b7 09 65
        E 13 b7 09 65
        E 13 b7 09 65
        E 13 b7 09 65
        E 13 b7 09 65
        E 13 b7 09 65
        E 13 b7 09 65
        E 13 b7 09 65
        E 13 b7 09 65
        E 13 b7 09 65
        E 13 b7 09 65
        E 13 b7 09 65
        E 13 b7 09 65
        E 13 b7 09 65
        E 13 b7 09 65
        E 13 b7 09 65
        E 13 b7 09 65
        E 13 b7 09 65
        E 13 b7 09 65
        E 13 b7 09 65
        E 13 b7 09 65
        E 13 b7 09 65
        E 13 b7 09 65
        E 13 b7 09 65
        E 13 b7 09 65
        E 13 b7 09 65
        E 13 b7 09 65
        E 13 b7 09 65
        E 13 b7 09 65
        E 13 b7 09 65
        E 13 b7 09 65
        E 13 b7 09 65
        E 13 b7 09 65
        E 13 b7 09 65
        E 13 b7 09 65
        E 13 b7 09 65
        E 13 b7 09 65
        E 13 b7 09 65
        E 13 b7 09 65
        E 13 b7 09 65
        E 13 b7 09 65
        E 13 b7 09 65
        E 13 b7 09 65
        E 13 b7 09 65
        E 13 b7 09 65
        E 13 b7 09 65
        E 13 b7 09 65
        E 13 b7 09 65
        E 13 b7 09 65
        E 13 b7 09 65
        E 13 b7 09 65
        E 13 b7 09 65
        E 13 b7 09 65
        E 13 b7 09 65
        E 13 b7 09 65
        E 13 b7 09 65
        E 13 b7 09 65
        E 13 b7 09 00
        E 13 b7 09 00
        E 13 b7 09 00
        E 13 b7 09 00
        E 13 b7 09 00
        E 13 b7 09 00
        E 13 b7 09 00
        E 13 b7 09 00
        E 13 b7 09 00
        E 13 b7 09 00
        E 13 b7 09 00
        E 13 b7 09 00
        E 13 b7 09 00
        E 13 b7 09 00
        E 13 b7 09 00
        E 13 b7 09 00
        E 13 b7 09 00
        E 13 b7 09 00
        E 13 b7 09 00
        E 13 b7 09 00
        E 13 b7 09 00
        E 13 b7 09 00
        E 13 b7 09 00
        E 13 b7 09 00
        E 13 b7 09 00
        E 13 b7 09 00
        E 13 b7 09 00
        E 13 b7 09 00
        E 13 b7 09 00
        E 13 b7 09 00
        E 13 b7 09 00
        E 13 b7 09 00
        E 13 b7 09 00
        E 13 b7 09 00
        E 13 b7 09 00
        E 13 b7 09 00
        E 13 b7 09 00
        E 13 b7 09 00
        E 13 b7 09 00
        E 13 b7 09 00
        E 13 b7 09 00
        E 13 b7 09 00
        E 13 b7 09 00
        E 13 b7 09 00
        E 13 b7 09 00
        E 13 b7 09 00
        E 13 b7 09 00
        E 13 b7 09 00
        E 13 b7 09 00
        E 13 b7 09 00
        E 13 b7 09 00
        E 13 b7 09 00
        E 13 b7 09 00
        E 13 b7 09 00
        E 13 b7 09 00
        E 13 b7 09 00
        E 13 b7 09 00
        E 13 b7 09 00
        E 13 b7 09 00
        E 13 b7 09 00
        E 13 b7 09 00
        E 13 b7 09 00
        E 13 b7 09 00
        E 13 b7 09 00
        E 39 b7 09 65
        E 39 b7 09 65
        E 39 b7 09 65
        E 39 b7 09 65
        E 39 b7 09 65
        E 39 b7 09 65
        E 39 b7 09 65
        E 39 b7 09 65
        E 39 b7 09 65
        E 39 b7 09 65
        E 39 b7 09 65
        E 39 b7 09 65
        E 39 b7 09 65
        E 39 b7 09 65
        E 39 b7 09 65
        E 39 b7 09 65
        E 39 b7 09 65
        E 39 b7 09 65
        E 39 b7 09 65
        E 39 b7 09 65
        E 39 b7 09 65
        E 39 b7 09 65
        E 39 b7 09 65
        E 39 b7 09 65
        E 39 b7 09 65
        E 39 b7 09 65
        E 39 b7 09 65
        E 39 b7 09 65
        E 39 b7 09 65
        E 39 b7 09 65
        E 39 b7 09 65
        E 39 b7 09 65
        E 39 b7 09 65
        E 39 b7 09 65
        E 39 b7 09 65
        E 39 b7 09 65
        E 39 b7 09 65
        E 39 b7 09 65
        E 39 b7 09 65
        E 39 b7 09 65
        E 39 b7 09 65
        E 39 b7 09 65
        E 39 b7 09 65
        E 39 b7 09 65
        E 39 b7 09 65
        E 39 b7 09 65
        E 39 b7 09 65
        E 39 b7 09 65
        E 39 b7 09 65
        E 39 b7 09 65
        E 39 b7 09 65
        E 39 b7 09 65
        E 39 b7 09 65
        E 39 b7 09 65
        E 39 b7 09 65
        E 39 b7 09 65
        E 39 b7 09 65
        E 39 b7 09 65
        E 39 b7 09 65
        E 39 b7 09 65
        E 39 b7 09 65
        E 39 b7 09 65
        E 39 b7 09 65
        E 39 b7 09 00
        E 39 b7 09 00
        E 39 b7 09 00
        E 39 b7 09 00
        E 39 b7 09 00
        E 39 b7 09 00
        E 39 b7 09 00
        E 39 b7 09 00
        E 39 b7 09 00
        E 39 b7 09 00
        E 39 b7 09 00
        E 39 b7 09 00
        E 39 b7 09 00
        E 39 b7 09 00
        E 39 b7 09 00
        E 39 b7 09 00
        E 39 b7 09 00
        E 39 b7 09 00
        E 39 b7 09 00
        E 39 b7 09 00
        E 39 b7 09 00
        E 39 b7 09 00
        E 39 b7 09 00
        E 39 b7 09 00
        E 39 b7 09 00
        E 39 b7 09 00
        E 39 b7 09 00
        E 39 b7 09 00
        E 39 b7 09 00
        E 39 b7 09 00
        E 39 b7 09 00
        E 39 b7 09 00
        E 39 b7 09 00
        E 39 b7 09 00
        E 39 b7 09 00
        E 39 b7 09 00
        E 39 b7 09 00
        E 39 b7 09 00
        E 39 b7 09 00
        E 39 b7 09 00
        E 39 b7 09 00
        E 39 b7 09 00
        E 39 b7 09 00
        E 39 b7 09 00
        E 39 b7 09 00
        E 39 b7 09 00
        E 39 b7 09 00
        E 39 b7 09 00
        E 39 b7 09 00
        E 39 b7 09 00
        E 39 b7 09 00
        E 39 b7 09 00
        E 39 b7 09 00
        E 39 b7 09 00
        E 39 b7 09 00
        E 39 b7 09 00
        E 39 b7 09 00
        E 39 b7 09 00
        E 39 b7 09 00
        E 39 b7 09 00
        E 39 b7 09 00
        E 39 b7 09 00
        E 39 b7 09 00
        E 39 b7 09 00
        E 8 b7 09 4c
        E 8 b7 09 4c
        E 8 b7 09 4c
        E 8 b7 09 4c
        E 8 b7 09 4c
        E 8 b7 09 4c
        E 8 b7 09 4c
        E 8 b7 09 4c
        E 8 b7 09 4c
        E 8 b7 09 4c
        E 8 b7 09 4c
        E 8 b7 09 4c
        E 8 b7 09 4c
        E 8 b7 09 4c
        E 8 b7 09 4c
        E 8 b7 09 4c
        E 8 b7 09 4c
        E 8 b7 09 4c
        E 8 b7 09 4c
        E 8 b7 09 4c
        E 8 b7 09 4c
        E 8 b7 09 4c
        E 8 b7 09 4c
        E 8 b7 09 4c
        E 8 b7 09 4c
        E 8 b7 09 4c
        E 8 b7 09 4c
        E 8 b7 09 4c
        E 8 b7 09 4c
        E 8 b7 09 4c
        E 8 b7 09 4c
        E 8 b7 09 4c
        E 8 b7 09 4c
        E 8 b7 09 4c
        E 8 b7 09 4c
        E 8 b7 09 4c
        E 8 b7 09 4c
        E 8 b7 09 4c
        E 8 b7 09 4c
        E 8 b7 09 4c
        E 8 b7 09 4c
        E 8 b7 09 4c
        E 8 b7 09 4c
        E 8 b7 09 4c
        E 8 b7 09 4c
        E 8 b7 09 4c
        E 8 b7 09 4c
        E 8 b7 09 4c
        E 8 b7 09 4c
        E 8 b7 09 4c
        E 8 b7 09 4c
        E 8 b7 09 4c
        E 8 b7 09 4c
        E 8 b7 09 4c
        E 8 b7 09 4c
        E 8 b7 09 4c
        E 8 b7 09 4c
        E 8 b7 09 4c
        E 8 b7 09 4c
        E 8 b7 09 4c
        E 8 b7 09 4c
        E 8 b7 09 4c
        E 8 b7 09 4c
        E 8 b7 09 00
        E 8 b7 09 00
        E 8 b7 09 00
        E 8 b7 09 00
        E 8 b7 09 00
        E 8 b7 09 00
        E 8 b7 09 00
        E 8 b7 09 00
        E 8 b7 09 00
        E 8 b7 09 00
        E 8 b7 09 00
        E 8 b7 09 00
        E 8 b7 09 00
        E 8 b7 09 00
        E 8 b7 09 00
        E 8 b7 09 00
        E 8 b7 09 00
        E 8 b7 09 00
        E 8 b7 09 00
        E 8 b7 09 00
        E 8 b7 09 00
        E 8 b7 09 00
        E 8 b7 09 00
        E 8 b7 09 00
        E 8 b7 09 00
        E 8 b7 09 00
        E 8 b7 09 00
        E 8 b7 09 00
        E 8 b7 09 00
        E 8 b7 09 00
        E 8 b7 09 00
        E 8 b7 09 00
        E 8 b7 09 00
        E 8 b7 09 00
        E 8 b7 09 00
        E 8 b7 09 00
        E 8 b7 09 00
        E 8 b7 09 00
        E 8 b7 09 00
        E 8 b7 09 00
        E 8 b7 09 00
        E 8 b7 09 00
        E 8 b7 09 00
        E 8 b7 09 00
        E 8 b7 09 00
        E 8 b7 09 00
        E 8 b7 09 00
        E 8 b7 09 00
        E 8 b7 09 00
        E 8 b7 09 00
        E 8 b7 09 00
        E 8 b7 09 00
        E 8 b7 09 00
        E 8 b7 09 00
        E 8 b7 09 00
        E 8 b7 09 00
        E 8 b7 09 00
        E 8 b7 09 00
        E 8 b7 09 00
        E 8 b7 09 00
        E 8 b7 09 00
        E 8 b7 09 00
        E 8 b7 09 00
        E 8 b7 09 00
        E 39 b7 09 32
        E 39 b7 09 32
        E 39 b7 09 32
        E 39 b7 09 32
        E 39 b7 09 32
        E 39 b7 09 32
        E 39 b7 09 32
        E 39 b7 09 32
        E 39 b7 09 32
        E 39 b7 09 32
        E 39 b7 09 32
        E 39 b7 09 32
        E 39 b7 09 32
        E 39 b7 09 32
        E 39 b7 09 32
        E 39 b7 09 32
        E 39 b7 09 32
        E 39 b7 09 32
        E 39 b7 09 32
        E 39 b7 09 32
        E 39 b7 09 32
        E 39 b7 09 32
        E 39 b7 09 32
        E 39 b7 09 32
        E 39 b7 09 32
        E 39 b7 09 32
        E 39 b7 09 32
        E 39 b7 09 32
        E 39 b7 09 32
        E 39 b7 09 32
        E 39 b7 09 32
        E 39 b7 09 32
        E 39 b7 09 32
        E 39 b7 09 32
        E 39 b7 09 32
        E 39 b7 09 32
        E 39 b7 09 32
        E 39 b7 09 32
        E 39 b7 09 32
        E 39 b7 09 32
        E 39 b7 09 32
        E 39 b7 09 32
        E 39 b7 09 32
        E 39 b7 09 32
        E 39 b7 09 32
        E 39 b7 09 32
        E 39 b7 09 32
        E 39 b7 09 32
        E 39 b7 09 32
        E 39 b7 09 32
        E 39 b7 09 32
        E 39 b7 09 32
        E 39 b7 09 32
        E 39 b7 09 32
        E 39 b7 09 32
        E 39 b7 09 32
        E 39 b7 09 32
        E 39 b7 09 32
        E 39 b7 09 32
        E 39 b7 09 32
        E 39 b7 09 32
        E 39 b7 09 32
        E 39 b7 09 32
        E 39 b7 09 00
        E 39 b7 09 00
        E 39 b7 09 00
        E 39 b7 09 00
        E 39 b7 09 00
        E 39 b7 09 00
        E 39 b7 09 00
        E 39 b7 09 00
        E 39 b7 09 00
        E 39 b7 09 00
        E 39 b7 09 00
        E 39 b7 09 00
        E 39 b7 09 00
        E 39 b7 09 00
        E 39 b7 09 00
        E 39 b7 09 00
        E 39 b7 09 00
        E 39 b7 09 00
        E 39 b7 09 00
        E 39 b7 09 00
        E 39 b7 09 00
        E 39 b7 09 00
        E 39 b7 09 00
        E 39 b7 09 00
        E 39 b7 09 00
        E 39 b7 09 00
        E 39 b7 09 00
        E 39 b7 09 00
        E 39 b7 09 00
        E 39 b7 09 00
        E 39 b7 09 00
        E 39 b7 09 00
        E 39 b7 09 00
        E 39 b7 09 00
        E 39 b7 09 00
        E 39 b7 09 00
        E 39 b7 09 00
        E 39 b7 09 00
        E 39 b7 09 00
        E 39 b7 09 00
        E 39 b7 09 00
        E 39 b7 09 00
        E 39 b7 09 00
        E 39 b7 09 00
        E 39 b7 09 00
        E 39 b7 09 00
        E 39 b7 09 00
        E 39 b7 09 00
        E 39 b7 09 00
        E 39 b7 09 00
        E 39 b7 09 00
        E 39 b7 09 00
        E 39 b7 09 00
        E 39 b7 09 00
        E 39 b7 09 00
        E 39 b7 09 00
        E 39 b7 09 00
        E 39 b7 09 00
        E 39 b7 09 00
        E 39 b7 09 00
        E 39 b7 09 00
        E 39 b7 09 00
        E 39 b7 09 00
        E 39 b7 09 00
        E 22 b7 09 58
        E 22 b7 09 58
        E 22 b7 09 58
        E 22 b7 09 58
        E 22 b7 09 58
        E 22 b7 09 58
        E 22 b7 09 58
        E 22 b7 09 58
        E 22 b7 09 58
        E 22 b7 09 58
        E 22 b7 09 58
        E 22 b7 09 58
        E 22 b7 09 58
        E 22 b7 09 58
        E 22 b7 09 58
        E 22 b7 09 58
        E 22 b7 09 58
        E 22 b7 09 58
        E 22 b7 09 58
        E 22 b7 09 58
        E 22 b7 09 58
        E 22 b7 09 58
        E 22 b7 09 58
        E 22 b7 09 58
        E 22 b7 09 58
        E 22 b7 09 58
        E 22 b7 09 58
        E 22 b7 09 58
        E 22 b7 09 58
        E 22 b7 09 58
        E 22 b7 09 58
        E 22 b7 09 58
        E 22 b7 09 58
        E 22 b7 09 58
        E 22 b7 09 58
        E 22 b7 09 58
        E 22 b7 09 58
        E 22 b7 09 58
        E 22 b7 09 58
        E 22 b7 09 58
        E 22 b7 09 58
        E 22 b7 09 58
        E 22 b7 09 58
        E 22 b7 09 58
        E 22 b7 09 58
        E 22 b7 09 58
        E 22 b7 09 58
        E 22 b7 09 58
        E 22 b7 09 58
        E 22 b7 09 58
        E 22 b7 09 58
        E 22 b7 09 58
        E 22 b7 09 58
        E 22 b7 09 58
        E 22 b7 09 58
        E 22 b7 09 58
        E 22 b7 09 58
        E 22 b7 09 58
        E 22 b7 09 58
        E 22 b7 09 58
        E 22 b7 09 58
        E 22 b7 09 58
        E 22 b7 09 58
        E 22 b7 09 00
        E 22 b7 09 00
        E 22 b7 09 00
        E 22 b7 09 00
        E 22 b7 09 00
        E 22 b7 09 00
        E 22 b7 09 00
        E 22 b7 09 00
        E 22 b7 09 00
        E 22 b7 09 00
        E 22 b7 09 00
        E 22 b7 09 00
        E 22 b7 09 00
        E 22 b7 09 00
        E 22 b7 09 00
        E 22 b7 09 00
        E 22 b7 09 00
        E 22 b7 09 00
        E 22 b7 09 00
        E 22 b7 09 00
        E 22 b7 09 00
        E 22 b7 09 00
        E 22 b7 09 00
        E 22 b7 09 00
        E 22 b7 09 00
        E 22 b7 09 00
        E 22 b7 09 00
        E 22 b7 09 00
        E 22 b7 09 00
        E 22 b7 09 00
        E 22 b7 09 00
        E 22 b7 09 00
        E 22 b7 09 00
        E 22 b7 09 00
        E 22 b7 09 00
        E 22 b7 09 00
        E 22 b7 09 00
        E 22 b7 09 00
        E 22 b7 09 00
        E 22 b7 09 00
        E 22 b7 09 00
        E 22 b7 09 00
        E 22 b7 09 00
        E 22 b7 09 00
        E 22 b7 09 00
        E 22 b7 09 00
        E 22 b7 09 00
        E 22 b7 09 00
        E 22 b7 09 00
        E 22 b7 09 00
        E 22 b7 09 00
        E 22 b7 09 00
        E 22 b7 09 00
        E 22 b7 09 00
        E 22 b7 09 00
        E 22 b7 09 00
        E 22 b7 09 00
        E 22 b7 09 00
        E 22 b7 09 00
        E 22 b7 09 00
        E 22 b7 09 00
        E 22 b7 09 00
        E 22 b7 09 00
        E 22 b7 09 00
        E 4 b7 09 32
        E 4 b7 09 32
        E 4 b7 09 32
        E 4 b7 09 32
        E 4 b7 09 32
        E 4 b7 09 32
        E 4 b7 09 32
        E 4 b7 09 32
        E 4 b7 09 32
        E 4 b7 09 32
        E 4 b7 09 32
        E 4 b7 09 32
        E 4 b7 09 32
        E 4 b7 09 32
        E 4 b7 09 32
        E 4 b7 09 32
        E 4 b7 09 32
        E 4 b7 09 32
        E 4 b7 09 32
        E 4 b7 09 32
        E 4 b7 09 32
        E 4 b7 09 32
        E 4 b7 09 32
        E 4 b7 09 32
        E 4 b7 09 32
        E 4 b7 09 32
        E 4 b7 09 32
        E 4 b7 09 32
        E 4 b7 09 32
        E 4 b7 09 32
        E 4 b7 09 32
        E 4 b7 09 32
        E 4 b7 09 32
        E 4 b7 09 32
        E 4 b7 09 32
        E 4 b7 09 32
        E 4 b7 09 32
        E 4 b7 09 32
        E 4 b7 09 32
        E 4 b7 09 32
        E 4 b7 09 32
        E 4 b7 09 32
        E 4 b7 09 32
        E 4 b7 09 32
        E 4 b7 09 32
        E 4 b7 09 32
        E 4 b7 09 32
        E 4 b7 09 32
        E 4 b7 09 32
        E 4 b7 09 32
        E 4 b7 09 32
        E 4 b7 09 32
        E 4 b7 09 32
        E 4 b7 09 32
        E 4 b7 09 32
        E 4 b7 09 32
        E 4 b7 09 32
        E 4 b7 09 32
        E 4 b7 09 32
        E 4 b7 09 32
        E 4 b7 09 32
        E 4 b7 09 32
        E 4 b7 09 32
        E 4 b7 09 00
        E 4 b7 09 00
        E 4 b7 09 00
        E 4 b7 09 00
        E 4 b7 09 00
        E 4 b7 09 00
        E 4 b7 09 00
        E 4 b7 09 00
        E 4 b7 09 00
        E 4 b7 09 00
        E 4 b7 09 00
        E 4 b7 09 00
        E 4 b7 09 00
        E 4 b7 09 00
        E 4 b7 09 00
        E 4 b7 09 00
        E 4 b7 09 00
        E 4 b7 09 00
        E 4 b7 09 00
        E 4 b7 09 00
        E 4 b7 09 00
        E 4 b7 09 00
        E 4 b7 09 00
        E 4 b7 09 00
        E 4 b7 09 00
        E 4 b7 09 00
        E 4 b7 09 00
        E 4 b7 09 00
        E 4 b7 09 00
        E 4 b7 09 00
        E 4 b7 09 00
        E 4 b7 09 00
        E 4 b7 09 00
        E 4 b7 09 00
        E 4 b7 09 00
        E 4 b7 09 00
        E 4 b7 09 00
        E 4 b7 09 00
        E 4 b7 09 00
        E 4 b7 09 00
        E 4 b7 09 00
        E 4 b7 09 00
        E 4 b7 09 00
        E 4 b7 09 00
        E 4 b7 09 00
        E 4 b7 09 00
        E 4 b7 09 00
        E 4 b7 09 00
        E 4 b7 09 00
        E 4 b7 09 00
        E 4 b7 09 00
        E 4 b7 09 00
        E 4 b7 09 00
        E 4 b7 09 00
        E 4 b7 09 00
        E 4 b7 09 00
        E 4 b7 09 00
        E 4 b7 09 00
        E 4 b7 09 00
        E 4 b7 09 00
        E 4 b7 09 00
        E 4 b7 09 00
        E 4 b7 09 00
        E 4 b7 09 00
        E 13 b7 09 65
        E 13 b7 09 65
        E 13 b7 09 65
        E 13 b7 09 65
        E 13 b7 09 65
        E 13 b7 09 65
        E 13 b7 09 65
        E 13 b7 09 65
        E 13 b7 09 65
        E 13 b7 09 65
        E 13 b7 09 65
        E 13 b7 09 65
        E 13 b7 09 65
        E 13 b7 09 65
        E 13 b7 09 65
        E 13 b7 09 65
        E 13 b7 09 65
        E 13 b7 09 65
        E 13 b7 09 65
        E 13 b7 09 65
        E 13 b7 09 65
        E 13 b7 09 65
        E 13 b7 09 65
        E 13 b7 09 65
        E 13 b7 09 65
        E 13 b7 09 65
        E 13 b7 09 65
        E 13 b7 09 65
        E 13 b7 09 65
        E 13 b7 09 65
        E 13 b7 09 65
        E 13 b7 09 65
        E 13 b7 09 65
        E 13 b7 09 65
        E 13 b7 09 65
        E 13 b7 09 65
        E 13 b7 09 65
        E 13 b7 09 65
        E 13 b7 09 65
        E 13 b7 09 65
        E 13 b7 09 65
        E 13 b7 09 65
        E 13 b7 09 65
        E 13 b7 09 65
        E 13 b7 09 65
        E 13 b7 09 65
        E 13 b7 09 65
        E 13 b7 09 65
        E 13 b7 09 65
        E 13 b7 09 65
        E 13 b7 09 65
        E 13 b7 09 65
        E 13 b7 09 65
        E 13 b7 09 65
        E 13 b7 09 65
        E 13 b7 09 65
        E 13 b7 09 65
        E 13 b7 09 65
        E 13 b7 09 65
        E 13 b7 09 65
        E 13 b7 09 65
        E 13 b7 09 65
        E 13 b7 09 65
        E 13 b7 09 00
        E 13 b7 09 00
        E 13 b7 09 00
        E 13 b7 09 00
        E 13 b7 09 00
        E 13 b7 09 00
        E 13 b7 09 00
        E 13 b7 09 00
        E 13 b7 09 00
        E 13 b7 09 00
        E 13 b7 09 00
        E 13 b7 09 00
        E 13 b7 09 00
        E 13 b7 09 00
        E 13 b7 09 00
        E 13 b7 09 00
        E 13 b7 09 00
        E 13 b7 09 00
        E 13 b7 09 00
        E 13 b7 09 00
        E 13 b7 09 00
        E 13 b7 09 00
        E 13 b7 09 00
        E 13 b7 09 00
        E 13 b7 09 00
        E 13 b7 09 00
        E 13 b7 09 00
        E 13 b7 09 00
        E 13 b7 09 00
        E 13 b7 09 00
        E 13 b7 09 00
        E 13 b7 09 00
        E 13 b7 09 00
        E 13 b7 09 00
        E 13 b7 09 00
        E 13 b7 09 00
        E 13 b7 09 00
        E 13 b7 09 00
        E 13 b7 09 00
        E 13 b7 09 00
        E 13 b7 09 00
        E 13 b7 09 00
        E 13 b7 09 00
        E 13 b7 09 00
        E 13 b7 09 00
        E 13 b7 09 00
        E 13 b7 09 00
        E 13 b7 09 00
        E 13 b7 09 00
        E 13 b7 09 00
        E 13 b7 09 00
        E 13 b7 09 00
        E 13 b7 09 00
        E 13 b7 09 00
        E 13 b7 09 00
        E 13 b7 09 00
        E 13 b7 09 00
        E 13 b7 09 00
        E 13 b7 09 00
        E 13 b7 09 00
        E 13 b7 09 00
        E 13 b7 09 00
        E 13 b7 09 00
        E 13 b7 09 00
        E 39 b7 09 65
        E 39 b7 09 65
        E 39 b7 09 65
        E 39 b7 09 65
        E 39 b7 09 65
        E 39 b7 09 65
        E 39 b7 09 65
        E 39 b7 09 65
        E 39 b7 09 65
        E 39 b7 09 65
        E 39 b7 09 65
        E 39 b7 09 65
        E 39 b7 09 65
        E 39 b7 09 65
        E 39 b7 09 65
        E 39 b7 09 65
        E 39 b7 09 65
        E 39 b7 09 65
        E 39 b7 09 65
        E 39 b7 09 65
        E 39 b7 09 65
        E 39 b7 09 65
        E 39 b7 09 65
        E 39 b7 09 65
        E 39 b7 09 65
        E 39 b7 09 65
        E 39 b7 09 65
        E 39 b7 09 65
        E 39 b7 09 65
        E 39 b7 09 65
        E 39 b7 09 65
        E 39 b7 09 65
        E 39 b7 09 65
        E 39 b7 09 65
        E 39 b7 09 65
        E 39 b7 09 65
        E 39 b7 09 65
        E 39 b7 09 65
        E 39 b7 09 65
        E 39 b7 09 65
        E 39 b7 09 65
        E 39 b7 09 65
        E 39 b7 09 65
        E 39 b7 09 65
        E 39 b7 09 65
        E 39 b7 09 65
        E 39 b7 09 65
        E 39 b7 09 65
        E 39 b7 09 65
        E 39 b7 09 65
        E 39 b7 09 65
        E 39 b7 09 65
        E 39 b7 09 65
        E 39 b7 09 65
        E 39 b7 09 65
        E 39 b7 09 65
        E 39 b7 09 65
        E 39 b7 09 65
        E 39 b7 09 65
        E 39 b7 09 65
        E 39 b7 09 65
        E 39 b7 09 65
        E 39 b7 09 65
        E 39 b7 09 00
        E 39 b7 09 00
        E 39 b7 09 00
        E 39 b7 09 00
        E 39 b7 09 00
        E 39 b7 09 00
        E 39 b7 09 00
        E 39 b7 09 00
        E 39 b7 09 00
        E 39 b7 09 00
        E 39 b7 09 00
        E 39 b7 09 00
        E 39 b7 09 00
        E 39 b7 09 00
        E 39 b7 09 00
        E 39 b7 09 00
        E 39 b7 09 00
        E 39 b7 09 00
        E 39 b7 09 00
        E 39 b7 09 00
        E 39 b7 09 00
        E 39 b7 09 00
        E 39 b7 09 00
        E 39 b7 09 00
        E 39 b7 09 00
        E 39 b7 09 00
        E 39 b7 09 00
        E 39 b7 09 00
        E 39 b7 09 00
        E 39 b7 09 00
        E 39 b7 09 00
        E 39 b7 09 00
        E 39 b7 09 00
        E 39 b7 09 00
        E 39 b7 09 00
        E 39 b7 09 00
        E 39 b7 09 00
        E 39 b7 09 00
        E 39 b7 09 00
        E 39 b7 09 00
        E 39 b7 09 00
        E 39 b7 09 00
        E 39 b7 09 00
        E 39 b7 09 00
        E 39 b7 09 00
        E 39 b7 09 00
        E 39 b7 09 00
        E 39 b7 09 00
        E 39 b7 09 00
        E 39 b7 09 00
        E 39 b7 09 00
        E 39 b7 09 00
        E 39 b7 09 00
        E 39 b7 09 00
        E 39 b7 09 00
        E 39 b7 09 00
        E 39 b7 09 00
        E 39 b7 09 00
        E 39 b7 09 00
        E 39 b7 09 00
        E 39 b7 09 00
        E 39 b7 09 00
        E 39 b7 09 00
        E 39 b7 09 00
        E 8 b7 09 4c
        E 8 b7 09 4c
        E 8 b7 09 4c
        E 8 b7 09 4c
        E 8 b7 09 4c
        E 8 b7 09 4c
        E 8 b7 09 4c
        E 8 b7 09 4c
        E 8 b7 09 4c
        E 8 b7 09 4c
        E 8 b7 09 4c
        E 8 b7 09 4c
        E 8 b7 09 4c
        E 8 b7 09 4c
        E 8 b7 09 4c
        E 8 b7 09 4c
        E 8 b7 09 4c
        E 8 b7 09 4c
        E 8 b7 09 4c
        E 8 b7 09 4c
        E 8 b7 09 4c
        E 8 b7 09 4c
        E 8 b7 09 4c
        E 8 b7 09 4c
        E 8 b7 09 4c
        E 8 b7 09 4c
        E 8 b7 09 4c
        E 8 b7 09 4c
        E 8 b7 09 4c
        E 8 b7 09 4c
        E 8 b7 09 4c
        E 8 b7 09 4c
        E 8 b7 09 4c
        E 8 b7 09 4c
        E 8 b7 09 4c
        E 8 b7 09 4c
        E 8 b7 09 4c
        E 8 b7 09 4c
        E 8 b7 09 4c
        E 8 b7 09 4c
        E 8 b7 09 4c
        E 8 b7 09 4c
        E 8 b7 09 4c
        E 8 b7 09 4c
        E 8 b7 09 4c
        E 8 b7 09 4c
        E 8 b7 09 4c
        E 8 b7 09 4c
        E 8 b7 09 4c
        E 8 b7 09 4c
        E 8 b7 09 4c
        E 8 b7 09 4c
        E 8 b7 09 4c
        E 8 b7 09 4c
        E 8 b7 09 4c
        E 8 b7 09 4c
        E 8 b7 09 4c
        E 8 b7 09 4c
        E 8 b7 09 4c
        E 8 b7 09 4c
        E 8 b7 09 4c
        E 8 b7 09 4c
        E 8 b7 09 4c
        E 8 b7 09 00
        E 8 b7 09 00
        E 8 b7 09 00
        E 8 b7 09 00
        E 8 b7 09 00
        E 8 b7 09 00
        E 8 b7 09 00
        E 8 b7 09 00
        E 8 b7 09 00
        E 8 b7 09 00
        E 8 b7 09 00
        E 8 b7 09 00
        E 8 b7 09 00
        E 8 b7 09 00
        E 8 b7 09 00
        E 8 b7 09 00
        E 8 b7 09 00
        E 8 b7 09 00
        E 8 b7 09 00
        E 8 b7 09 00
        E 8 b7 09 00
        E 8 b7 09 00
        E 8 b7 09 00
        E 8 b7 09 00
        E 8 b7 09 00
        E 8 b7 09 00
        E 8 b7 09 00
        E 8 b7 09 00
        E 8 b7 09 00
        E 8 b7 09 00
        E 8 b7 09 00
        E 8 b7 09 00
        E 8 b7 09 00
        E 8 b7 09 00
        E 8 b7 09 00
        E 8 b7 09 00
        E 8 b7 09 00
        E 8 b7 09 00
        E 8 b7 09 00
        E 8 b7 09 00
        E 8 b7 09 00
        E 8 b7 09 00
        E 8 b7 09 00
        E 8 b7 09 00
        E 8 b7 09 00
        E 8 b7 09 00
        E 8 b7 09 00
        E 8 b7 09 00
        E 8 b7 09 00
        E 8 b7 09 00
        E 8 b7 09 00
        E 8 b7 09 00
        E 8 b7 09 00
        E 8 b7 09 00
        E 8 b7 09 00
        E 8 b7 09 00
        E 8 b7 09 00
        E 8 b7 09 00
        E 8 b7 09 00
        E 8 b7 09 00
        E 8 b7 09 00
        E 8 b7 09 00
        E 8 b7 09 00
        E 8 b7 09 00
        E 7 b7 09 0b
        E 7 b7 09 26
        E 7 b7 09 19
        E 7 b7 09 04
        E 7 b7 09 24
        E 7 b7 09 20
        E 7 b7 09 04
        E 7 b7 09 04
        E 7 b7 09 18
        E 7 b7 09 30
        E 7 b7 09 28
        E 7 b7 09 2c
        E 7 b7 09 1f
        E 7 b7 09 05
        E 7 b7 09 09
        E 7 b7 09 22
        E 7 b7 09 1c
        E 7 b7 09 0e
        E 7 b7 09 0a
        E 7 b7 09 0d
        E 7 b7 09 27
        E 7 b7 09 17
        E 7 b7 09 0c
        E 7 b7 09 1d
        E 7 b7 09 32
        E 7 b7 09 00
        E 7 b7 09 06
        E 7 b7 09 14
        E 7 b7 09 11
        E 7 b7 09 29
        E 7 b7 09 0a
        E 7 b7 09 03
        E 7 b7 09 08
        E 7 b7 09 08
        E 7 b7 09 2e
        E 7 b7 09 0c
        E 7 b7 09 00
        E 7 b7 09 25
        E 7 b7 09 11
        E 7 b7 09 0a
        E 7 b7 09 14
        E 7 b7 09 0d
        E 7 b7 09 2b
        E 7 b7 09 2a
        E 7 b7 09 32
        E 7 b7 09 2a
        E 7 b7 09 16
        E 7 b7 09 2f
        E 7 b7 09 24
        E 7 b7 09 06
        E 7 b7 09 16
        E 7 b7 09 1b
        E 7 b7 09 30
        E 7 b7 09 26
        E 7 b7 09 1b
        E 7 b7 09 1c
        E 7 b7 09 02
        E 7 b7 09 05
        E 7 b7 09 2e
        E 7 b7 09 28
        E 7 b7 09 15
        E 7 b7 09 10
        E 7 b7 09 06
        E 7 b7 09 16
        E 7 b7 09 0f
        E 7 b7 09 0c
        E 7 b7 09 13
        E 7 b7 09 1a
        E 7 b7 09 1e
        E 7 b7 09 20
        E 7 b7 09 08
        E 7 b7 09 1e
        E 7 b7 09 2d
        E 7 b7 09 1a
        E 7 b7 09 1d
        E 7 b7 09 01
        E 7 b7 09 03
        E 7 b7 09 32
        E 7 b7 09 21
        E 7 b7 09 09
        E 7 b7 09 2e
        E 7 b7 09 10
        E 7 b7 09 13
        E 7 b7 09 18
        E 7 b7 09 14
        E 7 b7 09 22
        E 7 b7 09 29
        E 7 b7 09 0e
        E 7 b7 09 1c
        E 7 b7 09 0b
        E 7 b7 09 2d
        E 7 b7 09 2a
        E 7 b7 09 17
        E 7 b7 09 12
        E 7 b7 09 28
        E 7 b7 09 12
        E 7 b7 09 23
        E 7 b7 09 07
        E 7 b7 09 00
        E 7 b7 09 10
        E 7 b7 09 19
        E 7 b7 09 2b
        E 7 b7 09 27
        E 7 b7 09 01
        E 7 b7 09 2c
        E 7 b7 09 25
        E 7 b7 09 02
        E 7 b7 09 0f
        E 7 b7 09 1e
        E 7 b7 09 26
        E 7 b7 09 30
        E 7 b7 09 1f
        E 7 b7 09 15
        E 7 b7 09 0e
        E 7 b7 09 23
        E 7 b7 09 24
        E 7 b7 09 2c
        E 7 b7 09 31
        E 7 b7 09 18
        E 7 b7 09 20
        E 7 b7 09 22
        E 7 b7 09 1a
        E 7 b7 09 2f
        E 7 b7 09 07
        E 7 b7 09 12
        E 7 b7 09 21
        E 23 b7 09 16
        E 23 b7 09 4c
        E 23 b7 09 32
        E 23 b7 09 07
        E 23 b7 09 48
        E 23 b7 09 3f
        E 23 b7 09 09
        E 23 b7 09 08
        E 23 b7 09 30
        E 23 b7 09 5f
        E 23 b7 09 50
        E 23 b7 09 58
        E 23 b7 09 3f
        E 23 b7 09 0b
        E 23 b7 09 13
        E 23 b7 09 44
        E 23 b7 09 37
        E 23 b7 09 1c
        E 23 b7 09 14
        E 23 b7 09 1b
        E 23 b7 09 4f
        E 23 b7 09 2f
        E 23 b7 09 17
        E 23 b7 09 3a
        E 23 b7 09 64
        E 23 b7 09 00
        E 23 b7 09 0c
        E 23 b7 09 29
        E 23 b7 09 22
        E 23 b7 09 53
        E 23 b7 09 15
        E 23 b7 09 06
        E 23 b7 09 0f
        E 23 b7 09 11
        E 23 b7 09 5b
        E 23 b7 09 19
        E 23 b7 09 00
        E 23 b7 09 4b
        E 23 b7 09 23
        E 23 b7 09 14
        E 23 b7 09 28
        E 23 b7 09 1a
        E 23 b7 09 56
        E 23 b7 09 55
        E 23 b7 09 65
        E 23 b7 09 54
        E 23 b7 09 2b
        E 23 b7 09 5e
        E 23 b7 09 48
        E 23 b7 09 0b
        E 23 b7 09 2c
        E 23 b7 09 36
        E 23 b7 09 60
        E 23 b7 09 4d
        E 23 b7 09 37
        E 23 b7 09 38
        E 23 b7 09 04
        E 23 b7 09 0a
        E 23 b7 09 5d
        E 23 b7 09 51
        E 23 b7 09 2b
        E 23 b7 09 1f
        E 23 b7 09 0d
        E 23 b7 09 2d
        E 23 b7 09 1e
        E 23 b7 09 18
        E 23 b7 09 26
        E 23 b7 09 34
        E 23 b7 09 3d
        E 23 b7 09 41
        E 23 b7 09 10
        E 23 b7 09 3c
        E 23 b7 09 5a
        E 23 b7 09 33
        E 23 b7 09 3b
        E 23 b7 09 02
        E 23 b7 09 07
        E 23 b7 09 63
        E 23 b7 09 42
        E 23 b7 09 12
        E 23 b7 09 5c
        E 23 b7 09 20
        E 23 b7 09 27
        E 23 b7 09 31
        E 23 b7 09 28
        E 23 b7 09 44
        E 23 b7 09 52
        E 23 b7 09 1d
        E 23 b7 09 39
        E 23 b7 09 17
        E 23 b7 09 5b
        E 23 b7 09 54
        E 23 b7 09 2e
        E 23 b7 09 24
        E 23 b7 09 50
        E 23 b7 09 25
        E 23 b7 09 47
        E 23 b7 09 0e
        E 23 b7 09 01
        E 23 b7 09 21
        E 23 b7 09 33
        E 23 b7 09 57
        E 23 b7 09 4e
        E 23 b7 09 03
        E 23 b7 09 57
        E 23 b7 09 4a
        E 23 b7 09 05
        E 23 b7 09 1f
        E 23 b7 09 3b
        E 23 b7 09 4c
        E 23 b7 09 61
        E 23 b7 09 3e
        E 23 b7 09 2a
        E 23 b7 09 1b
        E 23 b7 09 46
        E 23 b7 09 49
        E 23 b7 09 59
        E 23 b7 09 63
        E 23 b7 09 2f
        E 23 b7 09 40
        E 23 b7 09 45
        E 23 b7 09 35
        E 23 b7 09 5f
        E 23 b7 09 0f
        E 23 b7 09 24
        E 23 b7 09 43
        E 71 b7 09 16
        E 71 b7 09 4c
        E 71 b7 09 32
        E 71 b7 09 07
        E 71 b7 09 48
        E 71 b7 09 3f
        E 71 b7 09 09
        E 71 b7 09 08
        E 71 b7 09 30
        E 71 b7 09 5f
        E 71 b7 09 50
        E 71 b7 09 58
        E 71 b7 09 3f
        E 71 b7 09 0b
        E 71 b7 09 13
        E 71 b7 09 44
        E 71 b7 09 37
        E 71 b7 09 1c
        E 71 b7 09 14
        E 71 b7 09 1b
        E 71 b7 09 4f
        E 71 b7 09 2f
        E 71 b7 09 17
        E 71 b7 09 3a
        E 71 b7 09 64
        E 71 b7 09 00
        E 71 b7 09 0c
        E 71 b7 09 29
        E 71 b7 09 22
        E 71 b7 09 53
        E 71 b7 09 15
        E 71 b7 09 06
        E 71 b7 09 0f
        E 71 b7 09 11
        E 71 b7 09 5b
        E 71 b7 09 19
        E 71 b7 09 00
        E 71 b7 09 4b
        E 71 b7 09 23
        E 71 b7 09 14
        E 71 b7 09 28
        E 71 b7 09 1a
        E 71 b7 09 56
        E 71 b7 09 55
        E 71 b7 09 65
        E 71 b7 09 54
        E 71 b7 09 2b
        E 71 b7 09 5e
        E 71 b7 09 48
        E 71 b7 09 0b
        E 71 b7 09 2c
        E 71 b7 09 36
        E 71 b7 09 60
        E 71 b7 09 4d
        E 71 b7 09 37
        E 71 b7 09 38
        E 71 b7 09 04
        E 71 b7 09 0a
        E 71 b7 09 5d
        E 71 b7 09 51
        E 71 b7 09 2b
        E 71 b7 09 1f
        E 71 b7 09 0d
        E 71 b7 09 2d
        E 71 b7 09 1e
        E 71 b7 09 18
        E 71 b7 09 26
        E 71 b7 09 34
        E 71 b7 09 3d
        E 71 b7 09 41
        E 71 b7 09 10
        E 71 b7 09 3c
        E 71 b7 09 5a
        E 71 b7 09 33
        E 71 b7 09 3b
        E 71 b7 09 02
        E 71 b7 09 07
        E 71 b7 09 63
        E 71 b7 09 42
        E 71 b7 09 12
        E 71 b7 09 5c
        E 71 b7 09 20
        E 71 b7 09 27
        E 71 b7 09 31
        E 71 b7 09 28
        E 71 b7 09 44
        E 71 b7 09 52
        E 71 b7 09 1d
        E 71 b7 09 39
        E 71 b7 09 17
        E 71 b7 09 5b
        E 71 b7 09 54
        E 71 b7 09 2e
        E 71 b7 09 24
        E 71 b7 09 50
        E 71 b7 09 25
        E 71 b7 09 47
        E 71 b7 09 0e
        E 71 b7 09 01
        E 71 b7 09 21
        E 71 b7 09 33
        E 71 b7 09 57
        E 71 b7 09 4e
        E 71 b7 09 03
        E 71 b7 09 57
        E 71 b7 09 4a
        E 71 b7 09 05
        E 71 b7 09 1f
        E 71 b7 09 3b
        E 71 b7 09 4c
        E 71 b7 09 61
        E 71 b7 09 3e
        E 71 b7 09 2a
        E 71 b7 09 1b
        E 71 b7 09 46
        E 71 b7 09 49
        E 71 b7 09 59
        E 71 b7 09 63
        E 71 b7 09 2f
        E 71 b7 09 40
        E 71 b7 09 45
        E 71 b7 09 35
        E 71 b7 09 5f
        E 71 b7 09 0f
        E 71 b7 09 24
        E 71 b7 09 43
        E 15 b7 09 10
        E 15 b7 09 39
        E 15 b7 09 25
        E 15 b7 09 06
        E 15 b7 09 36
        E 15 b7 09 30
        E 15 b7 09 07
        E 15 b7 09 06
        E 15 b7 09 24
        E 15 b7 09 48
        E 15 b7 09 3c
        E 15 b7 09 42
        E 15 b7 09 2f
        E 15 b7 09 08
        E 15 b7 09 0e
        E 15 b7 09 33
        E 15 b7 09 2a
        E 15 b7 09 15
        E 15 b7 09 0f
        E 15 b7 09 14
        E 15 b7 09 3b
        E 15 b7 09 23
        E 15 b7 09 12
        E 15 b7 09 2b
        E 15 b7 09 4b
        E 15 b7 09 00
        E 15 b7 09 09
        E 15 b7 09 1f
        E 15 b7 09 19
        E 15 b7 09 3e
        E 15 b7 09 10
        E 15 b7 09 04
        E 15 b7 09 0c
        E 15 b7 09 0d
        E 15 b7 09 45
        E 15 b7 09 13
        E 15 b7 09 00
        E 15 b7 09 38
        E 15 b7 09 1a
        E 15 b7 09 0f
        E 15 b7 09 1e
        E 15 b7 09 13
        E 15 b7 09 40
        E 15 b7 09 40
        E 15 b7 09 4c
        E 15 b7 09 3f
        E 15 b7 09 21
        E 15 b7 09 46
        E 15 b7 09 36
        E 15 b7 09 09
        E 15 b7 09 21
        E 15 b7 09 28
        E 15 b7 09 48
        E 15 b7 09 3a
        E 15 b7 09 29
        E 15 b7 09 2a
        E 15 b7 09 03
        E 15 b7 09 07
        E 15 b7 09 46
        E 15 b7 09 3d
        E 15 b7 09 20
        E 15 b7 09 18
        E 15 b7 09 0a
        E 15 b7 09 22
        E 15 b7 09 16
        E 15 b7 09 12
        E 15 b7 09 1c
        E 15 b7 09 27
        E 15 b7 09 2e
        E 15 b7 09 31
        E 15 b7 09 0c
        E 15 b7 09 2d
        E 15 b7 09 43
        E 15 b7 09 27
        E 15 b7 09 2c
        E 15 b7 09 01
        E 15 b7 09 05
        E 15 b7 09 4b
        E 15 b7 09 31
        E 15 b7 09 0d
        E 15 b7 09 45
        E 15 b7 09 18
        E 15 b7 09 1d
        E 15 b7 09 25
        E 15 b7 09 1e
        E 15 b7 09 33
        E 15 b7 09 3d
        E 15 b7 09 16
        E 15 b7 09 2b
        E 15 b7 09 11
        E 15 b7 09 44
        E 15 b7 09 3f
        E 15 b7 09 22
        E 15 b7 09 1b
        E 15 b7 09 3c
        E 15 b7 09 1c
        E 15 b7 09 35
        E 15 b7 09 0a
        E 15 b7 09 01
        E 15 b7 09 19
        E 15 b7 09 26
        E 15 b7 09 41
        E 15 b7 09 3a
        E 15 b7 09 02
        E 15 b7 09 42
        E 15 b7 09 37
        E 15 b7 09 04
        E 15 b7 09 17
        E 15 b7 09 2d
        E 15 b7 09 39
        E 15 b7 09 49
        E 15 b7 09 2e
        E 15 b7 09 1f
        E 15 b7 09 15
        E 15 b7 09 34
        E 15 b7 09 37
        E 15 b7 09 43
        E 15 b7 09 4a
        E 15 b7 09 24
        E 15 b7 09 30
        E 15 b7 09 34
        E 15 b7 09 28
        E 15 b7 09 47
        E 15 b7 09 0b
        E 15 b7 09 1b
        E 15 b7 09 32
        E 71 b7 09 0b
        E 71 b7 09 26
        E 71 b7 09 19
        E 71 b7 09 04
        E 71 b7 09 24
        E 71 b7 09 20
        E 71 b7 09 04
        E 71 b7 09 04
        E 71 b7 09 18
        E 71 b7 09 30
        E 71 b7 09 28
        E 71 b7 09 2c
        E 71 b7 09 1f
        E 71 b7 09 05
        E 71 b7 09 09
        E 71 b7 09 22
        E 71 b7 09 1c
        E 71 b7 09 0e
        E 71 b7 09 0a
        E 71 b7 09 0d
        E 71 b7 09 27
        E 71 b7 09 17
        E 71 b7 09 0c
        E 71 b7 09 1d
        E 71 b7 09 32
        E 71 b7 09 00
        E 71 b7 09 06
        E 71 b7 09 14
        E 71 b7 09 11
        E 71 b7 09 29
        E 71 b7 09 0a
        E 71 b7 09 03
        E 71 b7 09 08
        E 71 b7 09 08
        E 71 b7 09 2e
        E 71 b7 09 0c
        E 71 b7 09 00
        E 71 b7 09 25
        E 71 b7 09 11
        E 71 b7 09 0a
        E 71 b7 09 14
        E 71 b7 09 0d
        E 71 b7 09 2b
        E 71 b7 09 2a
        E 71 b7 09 32
        E 71 b7 09 2a
        E 71 b7 09 16
        E 71 b7 09 2f
        E 71 b7 09 24
        E 71 b7 09 06
        E 71 b7 09 16
        E 71 b7 09 1b
        E 71 b7 09 30
        E 71 b7 09 26
        E 71 b7 09 1b
        E 71 b7 09 1c
        E 71 b7 09 02
        E 71 b7 09 05
        E 71 b7 09 2e
        E 71 b7 09 28
        E 71 b7 09 15
        E 71 b7 09 10
        E 71 b7 09 06
        E 71 b7 09 16
        E 71 b7 09 0f
        E 71 b7 09 0c
        E 71 b7 09 13
        E 71 b7 09 1a
        E 71 b7 09 1e
        E 71 b7 09 20
        E 71 b7 09 08
        E 71 b7 09 1e
        E 71 b7 09 2d
        E 71 b7 09 1a
        E 71 b7 09 1d
        E 71 b7 09 01
        E 71 b7 09 03
        E 71 b7 09 32
        E 71 b7 09 21
        E 71 b7 09 09
        E 71 b7 09 2e
        E 71 b7 09 10
        E 71 b7 09 13
        E 71 b7 09 18
        E 71 b7 09 14
        E 71 b7 09 22
        E 71 b7 09 29
        E 71 b7 09 0e
        E 71 b7 09 1c
        E 71 b7 09 0b
        E 71 b7 09 2d
        E 71 b7 09 2a
        E 71 b7 09 17
        E 71 b7 09 12
        E 71 b7 09 28
        E 71 b7 09 12
        E 71 b7 09 23
        E 71 b7 09 07
        E 71 b7 09 00
        E 71 b7 09 10
        E 71 b7 09 19
        E 71 b7 09 2b
        E 71 b7 09 27
        E 71 b7 09 01
        E 71 b7 09 2c
        E 71 b7 09 25
        E 71 b7 09 02
        E 71 b7 09 0f
        E 71 b7 09 1e
        E 71 b7 09 26
        E 71 b7 09 30
        E 71 b7 09 1f
        E 71 b7 09 15
        E 71 b7 09 0e
        E 71 b7 09 23
        E 71 b7 09 24
        E 71 b7 09 2c
        E 71 b7 09 31
        E 71 b7 09 18
        E 71 b7 09 20
        E 71 b7 09 22
        E 71 b7 09 1a
        E 71 b7 09 2f
        E 71 b7 09 07
        E 71 b7 09 12
        E 71 b7 09 21
        E 39 b7 09 13
        E 39 b7 09 43
        E 39 b7 09 2c
        E 39 b7 09 07
        E 39 b7 09 3e
        E 39 b7 09 38
        E 39 b7 09 08
        E 39 b7 09 07
        E 39 b7 09 2a
        E 39 b7 09 54
        E 39 b7 09 46
        E 39 b7 09 4d
        E 39 b7 09 37
        E 39 b7 09 09
        E 39 b7 09 10
        E 39 b7 09 3c
        E 39 b7 09 31
        E 39 b7 09 19
        E 39 b7 09 11
        E 39 b7 09 17
        E 39 b7 09 45
        E 39 b7 09 29
        E 39 b7 09 15
        E 39 b7 09 33
        E 39 b7 09 58
        E 39 b7 09 00
        E 39 b7 09 0b
        E 39 b7 09 24
        E 39 b7 09 1e
        E 39 b7 09 48
        E 39 b7 09 12
        E 39 b7 09 05
        E 39 b7 09 0e
        E 39 b7 09 0f
        E 39 b7 09 50
        E 39 b7 09 16
        E 39 b7 09 00
        E 39 b7 09 41
        E 39 b7 09 1e
        E 39 b7 09 12
        E 39 b7 09 23
        E 39 b7 09 17
        E 39 b7 09 4b
        E 39 b7 09 4a
        E 39 b7 09 58
        E 39 b7 09 4a
        E 39 b7 09 26
        E 39 b7 09 52
        E 39 b7 09 3f
        E 39 b7 09 0a
        E 39 b7 09 27
        E 39 b7 09 2f
        E 39 b7 09 54
        E 39 b7 09 43
        E 39 b7 09 30
        E 39 b7 09 31
        E 39 b7 09 04
        E 39 b7 09 09
        E 39 b7 09 51
        E 39 b7 09 47
        E 39 b7 09 25
        E 39 b7 09 1c
        E 39 b7 09 0b
        E 39 b7 09 27
        E 39 b7 09 1a
        E 39 b7 09 15
        E 39 b7 09 21
        E 39 b7 09 2e
        E 39 b7 09 35
        E 39 b7 09 39
        E 39 b7 09 0e
        E 39 b7 09 35
        E 39 b7 09 4f
        E 39 b7 09 2d
        E 39 b7 09 33
        E 39 b7 09 02
        E 39 b7 09 06
        E 39 b7 09 57
        E 39 b7 09 3a
        E 39 b7 09 10
        E 39 b7 09 51
        E 39 b7 09 1c
        E 39 b7 09 22
        E 39 b7 09 2b
        E 39 b7 09 23
        E 39 b7 09 3b
        E 39 b7 09 48
        E 39 b7 09 19
        E 39 b7 09 32
        E 39 b7 09 14
        E 39 b7 09 4f
        E 39 b7 09 49
        E 39 b7 09 28
        E 39 b7 09 20
        E 39 b7 09 46
        E 39 b7 09 20
        E 39 b7 09 3e
        E 39 b7 09 0c
        E 39 b7 09 01
        E 39 b7 09 1d
        E 39 b7 09 2c
        E 39 b7 09 4c
        E 39 b7 09 44
        E 39 b7 09 02
        E 39 b7 09 4d
        E 39 b7 09 41
        E 39 b7 09 04
        E 39 b7 09 1b
        E 39 b7 09 34
        E 39 b7 09 42
        E 39 b7 09 55
        E 39 b7 09 36
        E 39 b7 09 25
        E 39 b7 09 18
        E 39 b7 09 3d
        E 39 b7 09 40
        E 39 b7 09 4e
        E 39 b7 09 56
        E 39 b7 09 2a
        E 39 b7 09 38
        E 39 b7 09 3c
        E 39 b7 09 2e
        E 39 b7 09 53
        E 39 b7 09 0d
        E 39 b7 09 1f
        E 39 b7 09 3a
        E 7 b7 09 0b
        E 7 b7 09 26
        E 7 b7 09 19
        E 7 b7 09 04
        E 7 b7 09 24
        E 7 b7 09 20
        E 7 b7 09 04
        E 7 b7 09 04
        E 7 b7 09 18
        E 7 b7 09 30
        E 7 b7 09 28
        E 7 b7 09 2c
        E 7 b7 09 1f
        E 7 b7 09 05
        E 7 b7 09 09
        E 7 b7 09 22
        E 7 b7 09 1c
        E 7 b7 09 0e
        E 7 b7 09 0a
        E 7 b7 09 0d
        E 7 b7 09 27
        E 7 b7 09 17
        E 7 b7 09 0c
        E 7 b7 09 1d
        E 7 b7 09 32
        E 7 b7 09 00
        E 7 b7 09 06
        E 7 b7 09 14
        E 7 b7 09 11
        E 7 b7 09 29
        E 7 b7 09 0a
        E 7 b7 09 03
        E 7 b7 09 08
        E 7 b7 09 08
        E 7 b7 09 2e
        E 7 b7 09 0c
        E 7 b7 09 00
        E 7 b7 09 25
        E 7 b7 09 11
        E 7 b7 09 0a
        E 7 b7 09 14
        E 7 b7 09 0d
        E 7 b7 09 2b
        E 7 b7 09 2a
        E 7 b7 09 32
        E 7 b7 09 2a
        E 7 b7 09 16
        E 7 b7 09 2f
        E 7 b7 09 24
        E 7 b7 09 06
        E 7 b7 09 16
        E 7 b7 09 1b
        E 7 b7 09 30
        E 7 b7 09 26
        E 7 b7 09 1b
        E 7 b7 09 1c
        E 7 b7 09 02
        E 7 b7 09 05
        E 7 b7 09 2e
        E 7 b7 09 28
        E 7 b7 09 15
        E 7 b7 09 10
        E 7 b7 09 06
        E 7 b7 09 16
        E 7 b7 09 0f
        E 7 b7 09 0c
        E 7 b7 09 13
        E 7 b7 09 1a
        E 7 b7 09 1e
        E 7 b7 09 20
        E 7 b7 09 08
        E 7 b7 09 1e
        E 7 b7 09 2d
        E 7 b7 09 1a
        E 7 b7 09 1d
        E 7 b7 09 01
        E 7 b7 09 03
        E 7 b7 09 32
        E 7 b7 09 21
        E 7 b7 09 09
        E 7 b7 09 2e
        E 7 b7 09 10
        E 7 b7 09 13
        E 7 b7 09 18
        E 7 b7 09 14
        E 7 b7 09 22
        E 7 b7 09 29
        E 7 b7 09 0e
        E 7 b7 09 1c
        E 7 b7 09 0b
        E 7 b7 09 2d
        E 7 b7 09 2a
        E 7 b7 09 17
        E 7 b7 09 12
        E 7 b7 09 28
        E 7 b7 09 12
        E 7 b7 09 23
        E 7 b7 09 07
        E 7 b7 09 00
        E 7 b7 09 10
        E 7 b7 09 19
        E 7 b7 09 2b
        E 7 b7 09 27
        E 7 b7 09 01
        E 7 b7 09 2c
        E 7 b7 09 25
        E 7 b7 09 02
        E 7 b7 09 0f
        E 7 b7 09 1e
        E 7 b7 09 26
        E 7 b7 09 30
        E 7 b7 09 1f
        E 7 b7 09 15
        E 7 b7 09 0e
        E 7 b7 09 23
        E 7 b7 09 24
        E 7 b7 09 2c
        E 7 b7 09 31
        E 7 b7 09 18
        E 7 b7 09 20
        E 7 b7 09 22
        E 7 b7 09 1a
        E 7 b7 09 2f
        E 7 b7 09 07
        E 7 b7 09 12
        E 7 b7 09 21
        E 23 b7 09 16
        E 23 b7 09 4c
        E 23 b7 09 32
        E 23 b7 09 07
        E 23 b7 09 48
        E 23 b7 09 3f
        E 23 b7 09 09
        E 23 b7 09 08
        E 23 b7 09 30
        E 23 b7 09 5f
        E 23 b7 09 50
        E 23 b7 09 58
        E 23 b7 09 3f
        E 23 b7 09 0b
        E 23 b7 09 13
        E 23 b7 09 44
        E 23 b7 09 37
        E 23 b7 09 1c
        E 23 b7 09 14
        E 23 b7 09 1b
        E 23 b7 09 4f
        E 23 b7 09 2f
        E 23 b7 09 17
        E 23 b7 09 3a
        E 23 b7 09 64
        E 23 b7 09 00
        E 23 b7 09 0c
        E 23 b7 09 29
        E 23 b7 09 22
        E 23 b7 09 53
        E 23 b7 09 15
        E 23 b7 09 06
        E 23 b7 09 0f
        E 23 b7 09 11
        E 23 b7 09 5b
        E 23 b7 09 19
        E 23 b7 09 00
        E 23 b7 09 4b
        E 23 b7 09 23
        E 23 b7 09 14
        E 23 b7 09 28
        E 23 b7 09 1a
        E 23 b7 09 56
        E 23 b7 09 55
        E 23 b7 09 65
        E 23 b7 09 54
        E 23 b7 09 2b
        E 23 b7 09 5e
        E 23 b7 09 48
        E 23 b7 09 0b
        E 23 b7 09 2c
        E 23 b7 09 36
        E 23 b7 09 60
        E 23 b7 09 4d
        E 23 b7 09 37
        E 23 b7 09 38
        E 23 b7 09 04
        E 23 b7 09 0a
        E 23 b7 09 5d
        E 23 b7 09 51
        E 23 b7 09 2b
        E 23 b7 09 1f
        E 23 b7 09 0d
        E 23 b7 09 2d
        E 23 b7 09 1e
        E 23 b7 09 18
        E 23 b7 09 26
        E 23 b7 09 34
        E 23 b7 09 3d
        E 23 b7 09 41
        E 23 b7 09 10
        E 23 b7 09 3c
        E 23 b7 09 5a
        E 23 b7 09 33
        E 23 b7 09 3b
        E 23 b7 09 02
        E 23 b7 09 07
        E 23 b7 09 63
        E 23 b7 09 42
        E 23 b7 09 12
        E 23 b7 09 5c
        E 23 b7 09 20
        E 23 b7 09 27
        E 23 b7 09 31
        E 23 b7 09 28
        E 23 b7 09 44
        E 23 b7 09 52
        E 23 b7 09 1d
        E 23 b7 09 39
        E 23 b7 09 17
        E 23 b7 09 5b
        E 23 b7 09 54
        E 23 b7 09 2e
        E 23 b7 09 24
        E 23 b7 09 50
        E 23 b7 09 25
        E 23 b7 09 47
        E 23 b7 09 0e
        E 23 b7 09 01
        E 23 b7 09 21
        E 23 b7 09 33
        E 23 b7 09 57
        E 23 b7 09 4e
        E 23 b7 09 03
        E 23 b7 09 57
        E 23 b7 09 4a
        E 23 b7 09 05
        E 23 b7 09 1f
        E 23 b7 09 3b
        E 23 b7 09 4c
        E 23 b7 09 61
        E 23 b7 09 3e
        E 23 b7 09 2a
        E 23 b7 09 1b
        E 23 b7 09 46
        E 23 b7 09 49
        E 23 b7 09 59
        E 23 b7 09 63
        E 23 b7 09 2f
        E 23 b7 09 40
        E 23 b7 09 45
        E 23 b7 09 35
        E 23 b7 09 5f
        E 23 b7 09 0f
        E 23 b7 09 24
        E 23 b7 09 43
        E 71 b7 09 16
        E 71 b7 09 4c
        E 71 b7 09 32
        E 71 b7 09 07
        E 71 b7 09 48
        E 71 b7 09 3f
        E 71 b7 09 09
        E 71 b7 09 08
        E 71 b7 09 30
        E 71 b7 09 5f
        E 71 b7 09 50
        E 71 b7 09 58
        E 71 b7 09 3f
        E 71 b7 09 0b
        E 71 b7 09 13
        E 71 b7 09 44
        E 71 b7 09 37
        E 71 b7 09 1c
        E 71 b7 09 14
        E 71 b7 09 1b
        E 71 b7 09 4f
        E 71 b7 09 2f
        E 71 b7 09 17
        E 71 b7 09 3a
        E 71 b7 09 64
        E 71 b7 09 00
        E 71 b7 09 0c
        E 71 b7 09 29
        E 71 b7 09 22
        E 71 b7 09 53
        E 71 b7 09 15
        E 71 b7 09 06
        E 71 b7 09 0f
        E 71 b7 09 11
        E 71 b7 09 5b
        E 71 b7 09 19
        E 71 b7 09 00
        E 71 b7 09 4b
        E 71 b7 09 23
        E 71 b7 09 14
        E 71 b7 09 28
        E 71 b7 09 1a
        E 71 b7 09 56
        E 71 b7 09 55
        E 71 b7 09 65
        E 71 b7 09 54
        E 71 b7 09 2b
        E 71 b7 09 5e
        E 71 b7 09 48
        E 71 b7 09 0b
        E 71 b7 09 2c
        E 71 b7 09 36
        E 71 b7 09 60
        E 71 b7 09 4d
        E 71 b7 09 37
        E 71 b7 09 38
        E 71 b7 09 04
        E 71 b7 09 0a
        E 71 b7 09 5d
        E 71 b7 09 51
        E 71 b7 09 2b
        E 71 b7 09 1f
        E 71 b7 09 0d
        E 71 b7 09 2d
        E 71 b7 09 1e
        E 71 b7 09 18
        E 71 b7 09 26
        E 71 b7 09 34
        E 71 b7 09 3d
        E 71 b7 09 41
        E 71 b7 09 10
        E 71 b7 09 3c
        E 71 b7 09 5a
        E 71 b7 09 33
        E 71 b7 09 3b
        E 71 b7 09 02
        E 71 b7 09 07
        E 71 b7 09 63
        E 71 b7 09 42
        E 71 b7 09 12
        E 71 b7 09 5c
        E 71 b7 09 20
        E 71 b7 09 27
        E 71 b7 09 31
        E 71 b7 09 28
        E 71 b7 09 44
        E 71 b7 09 52
        E 71 b7 09 1d
        E 71 b7 09 39
        E 71 b7 09 17
        E 71 b7 09 5b
        E 71 b7 09 54
        E 71 b7 09 2e
        E 71 b7 09 24
        E 71 b7 09 50
        E 71 b7 09 25
        E 71 b7 09 47
        E 71 b7 09 0e
        E 71 b7 09 01
        E 71 b7 09 21
        E 71 b7 09 33
        E 71 b7 09 57
        E 71 b7 09 4e
        E 71 b7 09 03
        E 71 b7 09 57
        E 71 b7 09 4a
        E 71 b7 09 05
        E 71 b7 09 1f
        E 71 b7 09 3b
        E 71 b7 09 4c
        E 71 b7 09 61
        E 71 b7 09 3e
        E 71 b7 09 2a
        E 71 b7 09 1b
        E 71 b7 09 46
        E 71 b7 09 49
        E 71 b7 09 59
        E 71 b7 09 63
        E 71 b7 09 2f
        E 71 b7 09 40
        E 71 b7 09 45
        E 71 b7 09 35
        E 71 b7 09 5f
        E 71 b7 09 0f
        E 71 b7 09 24
        E 71 b7 09 43
        E 15 b7 09 10
        E 15 b7 09 39
        E 15 b7 09 25
        E 15 b7 09 06
        E 15 b7 09 36
        E 15 b7 09 30
        E 15 b7 09 07
        E 15 b7 09 06
        E 15 b7 09 24
        E 15 b7 09 48
        E 15 b7 09 3c
        E 15 b7 09 42
        E 15 b7 09 2f
        E 15 b7 09 08
        E 15 b7 09 0e
        E 15 b7 09 33
        E 15 b7 09 2a
        E 15 b7 09 15
        E 15 b7 09 0f
        E 15 b7 09 14
        E 15 b7 09 3b
        E 15 b7 09 23
        E 15 b7 09 12
        E 15 b7 09 2b
        E 15 b7 09 4b
        E 15 b7 09 00
        E 15 b7 09 09
        E 15 b7 09 1f
        E 15 b7 09 19
        E 15 b7 09 3e
        E 15 b7 09 10
        E 15 b7 09 04
        E 15 b7 09 0c
        E 15 b7 09 0d
        E 15 b7 09 45
        E 15 b7 09 13
        E 15 b7 09 00
        E 15 b7 09 38
        E 15 b7 09 1a
        E 15 b7 09 0f
        E 15 b7 09 1e
        E 15 b7 09 13
        E 15 b7 09 40
        E 15 b7 09 40
        E 15 b7 09 4c
        E 15 b7 09 3f
        E 15 b7 09 21
        E 15 b7 09 46
        E 15 b7 09 36
        E 15 b7 09 09
        E 15 b7 09 21
        E 15 b7 09 28
        E 15 b7 09 48
        E 15 b7 09 3a
        E 15 b7 09 29
        E 15 b7 09 2a
        E 15 b7 09 03
        E 15 b7 09 07
        E 15 b7 09 46
        E 15 b7 09 3d
        E 15 b7 09 20
        E 15 b7 09 18
        E 15 b7 09 0a
        E 15 b7 09 22
        E 15 b7 09 16
        E 15 b7 09 12
        E 15 b7 09 1c
        E 15 b7 09 27
        E 15 b7 09 2e
        E 15 b7 09 31
        E 15 b7 09 0c
        E 15 b7 09 2d
        E 15 b7 09 43
        E 15 b7 09 27
        E 15 b7 09 2c
        E 15 b7 09 01
        E 15 b7 09 05
        E 15 b7 09 4b
        E 15 b7 09 31
        E 15 b7 09 0d
        E 15 b7 09 45
        E 15 b7 09 18
        E 15 b7 09 1d
        E 15 b7 09 25
        E 15 b7 09 1e
        E 15 b7 09 33
        E 15 b7 09 3d
        E 15 b7 09 16
        E 15 b7 09 2b
        E 15 b7 09 11
        E 15 b7 09 44
        E 15 b7 09 3f
        E 15 b7 09 22
        E 15 b7 09 1b
        E 15 b7 09 3c
        E 15 b7 09 1c
        E 15 b7 09 35
        E 15 b7 09 0a
        E 15 b7 09 01
        E 15 b7 09 19
        E 15 b7 09 26
        E 15 b7 09 41
        E 15 b7 09 3a
        E 15 b7 09 02
        E 15 b7 09 42
        E 15 b7 09 37
        E 15 b7 09 04
        E 15 b7 09 17
        E 15 b7 09 2d
        E 15 b7 09 39
        E 15 b7 09 49
        E 15 b7 09 2e
        E 15 b7 09 1f
        E 15 b7 09 15
        E 15 b7 09 34
        E 15 b7 09 37
        E 15 b7 09 43
        E 15 b7 09 4a
        E 15 b7 09 24
        E 15 b7 09 30
        E 15 b7 09 34
        E 15 b7 09 28
        E 15 b7 09 47
        E 15 b7 09 0b
        E 15 b7 09 1b
        E 15 b7 09 32
        E 71 b7 09 0b
        E 71 b7 09 26
        E 71 b7 09 19
        E 71 b7 09 04
        E 71 b7 09 24
        E 71 b7 09 20
        E 71 b7 09 04
        E 71 b7 09 04
        E 71 b7 09 18
        E 71 b7 09 30
        E 71 b7 09 28
        E 71 b7 09 2c
        E 71 b7 09 1f
        E 71 b7 09 05
        E 71 b7 09 09
        E 71 b7 09 22
        E 71 b7 09 1c
        E 71 b7 09 0e
        E 71 b7 09 0a
        E 71 b7 09 0d
        E 71 b7 09 27
        E 71 b7 09 17
        E 71 b7 09 0c
        E 71 b7 09 1d
        E 71 b7 09 32
        E 71 b7 09 00
        E 71 b7 09 06
        E 71 b7 09 14
        E 71 b7 09 11
        E 71 b7 09 29
        E 71 b7 09 0a
        E 71 b7 09 03
        E 71 b7 09 08
        E 71 b7 09 08
        E 71 b7 09 2e
        E 71 b7 09 0c
        E 71 b7 09 00
        E 71 b7 09 25
        E 71 b7 09 11
        E 71 b7 09 0a
        E 71 b7 09 14
        E 71 b7 09 0d
        E 71 b7 09 2b
        E 71 b7 09 2a
        E 71 b7 09 32
        E 71 b7 09 2a
        E 71 b7 09 16
        E 71 b7 09 2f
        E 71 b7 09 24
        E 71 b7 09 06
        E 71 b7 09 16
        E 71 b7 09 1b
        E 71 b7 09 30
        E 71 b7 09 26
        E 71 b7 09 1b
        E 71 b7 09 1c
        E 71 b7 09 02
        E 71 b7 09 05
        E 71 b7 09 2e
        E 71 b7 09 28
        E 71 b7 09 15
        E 71 b7 09 10
        E 71 b7 09 06
        E 71 b7 09 16
        E 71 b7 09 0f
        E 71 b7 09 0c
        E 71 b7 09 13
        E 71 b7 09 1a
        E 71 b7 09 1e
        E 71 b7 09 20
        E 71 b7 09 08
        E 71 b7 09 1e
        E 71 b7 09 2d
        E 71 b7 09 1a
        E 71 b7 09 1d
        E 71 b7 09 01
        E 71 b7 09 03
        E 71 b7 09 32
        E 71 b7 09 21
        E 71 b7 09 09
        E 71 b7 09 2e
        E 71 b7 09 10
        E 71 b7 09 13
        E 71 b7 09 18
        E 71 b7 09 14
        E 71 b7 09 22
        E 71 b7 09 29
        E 71 b7 09 0e
        E 71 b7 09 1c
        E 71 b7 09 0b
        E 71 b7 09 2d
        E 71 b7 09 2a
        E 71 b7 09 17
        E 71 b7 09 12
        E 71 b7 09 28
        E 71 b7 09 12
        E 71 b7 09 23
        E 71 b7 09 07
        E 71 b7 09 00
        E 71 b7 09 10
        E 71 b7 09 19
        E 71 b7 09 2b
        E 71 b7 09 27
        E 71 b7 09 01
        E 71 b7 09 2c
        E 71 b7 09 25
        E 71 b7 09 02
        E 71 b7 09 0f
        E 71 b7 09 1e
        E 71 b7 09 26
        E 71 b7 09 30
        E 71 b7 09 1f
        E 71 b7 09 15
        E 71 b7 09 0e
        E 71 b7 09 23
        E 71 b7 09 24
        E 71 b7 09 2c
        E 71 b7 09 31
        E 71 b7 09 18
        E 71 b7 09 20
        E 71 b7 09 22
        E 71 b7 09 1a
        E 71 b7 09 2f
        E 71 b7 09 07
        E 71 b7 09 12
        E 71 b7 09 21
        E 39 b7 09 13
        E 39 b7 09 43
        E 39 b7 09 2c
        E 39 b7 09 07
        E 39 b7 09 3e
        E 39 b7 09 38
        E 39 b7 09 08
        E 39 b7 09 07
        E 39 b7 09 2a
        E 39 b7 09 54
        E 39 b7 09 46
        E 39 b7 09 4d
        E 39 b7 09 37
        E 39 b7 09 09
        E 39 b7 09 10
        E 39 b7 09 3c
        E 39 b7 09 31
        E 39 b7 09 19
        E 39 b7 09 11
        E 39 b7 09 17
        E 39 b7 09 45
        E 39 b7 09 29
        E 39 b7 09 15
        E 39 b7 09 33
        E 39 b7 09 58
        E 39 b7 09 00
        E 39 b7 09 0b
        E 39 b7 09 24
        E 39 b7 09 1e
        E 39 b7 09 48
        E 39 b7 09 12
        E 39 b7 09 05
        E 39 b7 09 0e
        E 39 b7 09 0f
        E 39 b7 09 50
        E 39 b7 09 16
        E 39 b7 09 00
        E 39 b7 09 41
        E 39 b7 09 1e
        E 39 b7 09 12
        E 39 b7 09 23
        E 39 b7 09 17
        E 39 b7 09 4b
        E 39 b7 09 4a
        E 39 b7 09 58
        E 39 b7 09 4a
        E 39 b7 09 26
        E 39 b7 09 52
        E 39 b7 09 3f
        E 39 b7 09 0a
        E 39 b7 09 27
        E 39 b7 09 2f
        E 39 b7 09 54
        E 39 b7 09 43
        E 39 b7 09 30
        E 39 b7 09 31
        E 39 b7 09 04
        E 39 b7 09 09
        E 39 b7 09 51
        E 39 b7 09 47
        E 39 b7 09 25
        E 39 b7 09 1c
        E 39 b7 09 0b
        E 39 b7 09 27
        E 39 b7 09 1a
        E 39 b7 09 15
        E 39 b7 09 21
        E 39 b7 09 2e
        E 39 b7 09 35
        E 39 b7 09 39
        E 39 b7 09 0e
        E 39 b7 09 35
        E 39 b7 09 4f
        E 39 b7 09 2d
        E 39 b7 09 33
        E 39 b7 09 02
        E 39 b7 09 06
        E 39 b7 09 57
        E 39 b7 09 3a
        E 39 b7 09 10
        E 39 b7 09 51
        E 39 b7 09 1c
        E 39 b7 09 22
        E 39 b7 09 2b
        E 39 b7 09 23
        E 39 b7 09 3b
        E 39 b7 09 48
        E 39 b7 09 19
        E 39 b7 09 32
        E 39 b7 09 14
        E 39 b7 09 4f
        E 39 b7 09 49
        E 39 b7 09 28
        E 39 b7 09 20
        E 39 b7 09 46
        E 39 b7 09 20
        E 39 b7 09 3e
        E 39 b7 09 0c
        E 39 b7 09 01
        E 39 b7 09 1d
        E 39 b7 09 2c
        E 39 b7 09 4c
        E 39 b7 09 44
        E 39 b7 09 02
        E 39 b7 09 4d
        E 39 b7 09 41
        E 39 b7 09 04
        E 39 b7 09 1b
        E 39 b7 09 34
        E 39 b7 09 42
        E 39 b7 09 55
        E 39 b7 09 36
        E 39 b7 09 25
        E 39 b7 09 18
        E 39 b7 09 3d
        E 39 b7 09 40
        E 39 b7 09 4e
        E 39 b7 09 56
        E 39 b7 09 2a
        E 39 b7 09 38
        E 39 b7 09 3c
        E 39 b7 09 2e
        E 39 b7 09 53
        E 39 b7 09 0d
        E 39 b7 09 1f
        E 39 b7 09 3a
        E 7 b7 09 0b
        E 7 b7 09 26
        E 7 b7 09 19
        E 7 b7 09 04
        E 7 b7 09 24
        E 7 b7 09 20
        E 7 b7 09 04
        E 7 b7 09 04
        E 7 b7 09 18
        E 7 b7 09 30
        E 7 b7 09 28
        E 7 b7 09 2c
        E 7 b7 09 1f
        E 7 b7 09 05
        E 7 b7 09 09
        E 7 b7 09 22
        E 7 b7 09 1c
        E 7 b7 09 0e
        E 7 b7 09 0a
        E 7 b7 09 0d
        E 7 b7 09 27
        E 7 b7 09 17
        E 7 b7 09 0c
        E 7 b7 09 1d
        E 7 b7 09 32
        E 7 b7 09 00
        E 7 b7 09 06
        E 7 b7 09 14
        E 7 b7 09 11
        E 7 b7 09 29
        E 7 b7 09 0a
        E 7 b7 09 03
        E 7 b7 09 08
        E 7 b7 09 08
        E 7 b7 09 2e
        E 7 b7 09 0c
        E 7 b7 09 00
        E 7 b7 09 25
        E 7 b7 09 11
        E 7 b7 09 0a
        E 7 b7 09 14
        E 7 b7 09 0d
        E 7 b7 09 2b
        E 7 b7 09 2a
        E 7 b7 09 32
        E 7 b7 09 2a
        E 7 b7 09 16
        E 7 b7 09 2f
        E 7 b7 09 24
        E 7 b7 09 06
        E 7 b7 09 16
        E 7 b7 09 1b
        E 7 b7 09 30
        E 7 b7 09 26
        E 7 b7 09 1b
        E 7 b7 09 1c
        E 7 b7 09 02
        E 7 b7 09 05
        E 7 b7 09 2e
        E 7 b7 09 28
        E 7 b7 09 15
        E 7 b7 09 10
        E 7 b7 09 06
        E 7 b7 09 16
        E 7 b7 09 0f
        E 7 b7 09 0c
        E 7 b7 09 13
        E 7 b7 09 1a
        E 7 b7 09 1e
        E 7 b7 09 20
        E 7 b7 09 08
        E 7 b7 09 1e
        E 7 b7 09 2d
        E 7 b7 09 1a
        E 7 b7 09 1d
        E 7 b7 09 01
        E 7 b7 09 03
        E 7 b7 09 32
        E 7 b7 09 21
        E 7 b7 09 09
        E 7 b7 09 2e
        E 7 b7 09 10
        E 7 b7 09 13
        E 7 b7 09 18
        E 7 b7 09 14
        E 7 b7 09 22
        E 7 b7 09 29
        E 7 b7 09 0e
        E 7 b7 09 1c
        E 7 b7 09 0b
        E 7 b7 09 2d
        E 7 b7 09 2a
        E 7 b7 09 17
        E 7 b7 09 12
        E 7 b7 09 28
        E 7 b7 09 12
        E 7 b7 09 23
        E 7 b7 09 07
        E 7 b7 09 00
        E 7 b7 09 10
        E 7 b7 09 19
        E 7 b7 09 2b
        E 7 b7 09 27
        E 7 b7 09 01
        E 7 b7 09 2c
        E 7 b7 09 25
        E 7 b7 09 02
        E 7 b7 09 0f
        E 7 b7 09 1e
        E 7 b7 09 26
        E 7 b7 09 30
        E 7 b7 09 1f
        E 7 b7 09 15
        E 7 b7 09 0e
        E 7 b7 09 23
        E 7 b7 09 24
        E 7 b7 09 2c
        E 7 b7 09 31
        E 7 b7 09 18
        E 7 b7 09 20
        E 7 b7 09 22
        E 7 b7 09 1a
        E 7 b7 09 2f
        E 7 b7 09 07
        E 7 b7 09 12
        E 7 b7 09 21
        E 23 b7 09 16
        E 23 b7 09 4c
        E 23 b7 09 32
        E 23 b7 09 07
        E 23 b7 09 48
        E 23 b7 09 3f
        E 23 b7 09 09
        E 23 b7 09 08
        E 23 b7 09 30
        E 23 b7 09 5f
        E 23 b7 09 50
        E 23 b7 09 58
        E 23 b7 09 3f
        E 23 b7 09 0b
        E 23 b7 09 13
        E 23 b7 09 44
        E 23 b7 09 37
        E 23 b7 09 1c
        E 23 b7 09 14
        E 23 b7 09 1b
        E 23 b7 09 4f
        E 23 b7 09 2f
        E 23 b7 09 17
        E 23 b7 09 3a
        E 23 b7 09 64
        E 23 b7 09 00
        E 23 b7 09 0c
        E 23 b7 09 29
        E 23 b7 09 22
        E 23 b7 09 53
        E 23 b7 09 15
        E 23 b7 09 06
        E 23 b7 09 0f
        E 23 b7 09 11
        E 23 b7 09 5b
        E 23 b7 09 19
        E 23 b7 09 00
        E 23 b7 09 4b
        E 23 b7 09 23
        E 23 b7 09 14
        E 23 b7 09 28
        E 23 b7 09 1a
        E 23 b7 09 56
        E 23 b7 09 55
        E 23 b7 09 65
        E 23 b7 09 54
        E 23 b7 09 2b
        E 23 b7 09 5e
        E 23 b7 09 48
        E 23 b7 09 0b
        E 23 b7 09 2c
        E 23 b7 09 36
        E 23 b7 09 60
        E 23 b7 09 4d
        E 23 b7 09 37
        E 23 b7 09 38
        E 23 b7 09 04
        E 23 b7 09 0a
        E 23 b7 09 5d
        E 23 b7 09 51
        E 23 b7 09 2b
        E 23 b7 09 1f
        E 23 b7 09 0d
        E 23 b7 09 2d
        E 23 b7 09 1e
        E 23 b7 09 18
        E 23 b7 09 26
        E 23 b7 09 34
        E 23 b7 09 3d
        E 23 b7 09 41
        E 23 b7 09 10
        E 23 b7 09 3c
        E 23 b7 09 5a
        E 23 b7 09 33
        E 23 b7 09 3b
        E 23 b7 09 02
        E 23 b7 09 07
        E 23 b7 09 63
        E 23 b7 09 42
        E 23 b7 09 12
        E 23 b7 09 5c
        E 23 b7 09 20
        E 23 b7 09 27
        E 23 b7 09 31
        E 23 b7 09 28
        E 23 b7 09 44
        E 23 b7 09 52
        E 23 b7 09 1d
        E 23 b7 09 39
        E 23 b7 09 17
        E 23 b7 09 5b
        E 23 b7 09 54
        E 23 b7 09 2e
        E 23 b7 09 24
        E 23 b7 09 50
        E 23 b7 09 25
        E 23 b7 09 47
        E 23 b7 09 0e
        E 23 b7 09 01
        E 23 b7 09 21
        E 23 b7 09 33
        E 23 b7 09 57
        E 23 b7 09 4e
        E 23 b7 09 03
        E 23 b7 09 57
        E 23 b7 09 4a
        E 23 b7 09 05
        E 23 b7 09 1f
        E 23 b7 09 3b
        E 23 b7 09 4c
        E 23 b7 09 61
        E 23 b7 09 3e
        E 23 b7 09 2a
        E 23 b7 09 1b
        E 23 b7 09 46
        E 23 b7 09 49
        E 23 b7 09 59
        E 23 b7 09 63
        E 23 b7 09 2f
        E 23 b7 09 40
        E 23 b7 09 45
        E 23 b7 09 35
        E 23 b7 09 5f
        E 23 b7 09 0f
        E 23 b7 09 24
        E 23 b7 09 43
        E 71 b7 09 16
        E 71 b7 09 4c
        E 71 b7 09 32
        E 71 b7 09 07
        E 71 b7 09 48
        E 71 b7 09 3f
        E 71 b7 09 09
        E 71 b7 09 08
        E 71 b7 09 30
        E 71 b7 09 5f
        E 71 b7 09 50
        E 71 b7 09 58
        E 71 b7 09 3f
        E 71 b7 09 0b
        E 71 b7 09 13
        E 71 b7 09 44
        E 71 b7 09 37
        E 71 b7 09 1c
        E 71 b7 09 14
        E 71 b7 09 1b
        E 71 b7 09 4f
        E 71 b7 09 2f
        E 71 b7 09 17
        E 71 b7 09 3a
        E 71 b7 09 64
        E 71 b7 09 00
        E 71 b7 09 0c
        E 71 b7 09 29
        E 71 b7 09 22
        E 71 b7 09 53
        E 71 b7 09 15
        E 71 b7 09 06
        E 71 b7 09 0f
        E 71 b7 09 11
        E 71 b7 09 5b
        E 71 b7 09 19
        E 71 b7 09 00
        E 71 b7 09 4b
        E 71 b7 09 23
        E 71 b7 09 14
        E 71 b7 09 28
        E 71 b7 09 1a
        E 71 b7 09 56
        E 71 b7 09 55
        E 71 b7 09 65
        E 71 b7 09 54
        E 71 b7 09 2b
        E 71 b7 09 5e
        E 71 b7 09 48
        E 71 b7 09 0b
        E 71 b7 09 2c
        E 71 b7 09 36
        E 71 b7 09 60
        E 71 b7 09 4d
        E 71 b7 09 37
        E 71 b7 09 38
        E 71 b7 09 04
        E 71 b7 09 0a
        E 71 b7 09 5d
        E 71 b7 09 51
        E 71 b7 09 2b
        E 71 b7 09 1f
        E 71 b7 09 0d
        E 71 b7 09 2d
        E 71 b7 09 1e
        E 71 b7 09 18
        E 71 b7 09 26
        E 71 b7 09 34
        E 71 b7 09 3d
        E 71 b7 09 41
        E 71 b7 09 10
        E 71 b7 09 3c
        E 71 b7 09 5a
        E 71 b7 09 33
        E 71 b7 09 3b
        E 71 b7 09 02
        E 71 b7 09 07
        E 71 b7 09 63
        E 71 b7 09 42
        E 71 b7 09 12
        E 71 b7 09 5c
        E 71 b7 09 20
        E 71 b7 09 27
        E 71 b7 09 31
        E 71 b7 09 28
        E 71 b7 09 44
        E 71 b7 09 52
        E 71 b7 09 1d
        E 71 b7 09 39
        E 71 b7 09 17
        E 71 b7 09 5b
        E 71 b7 09 54
        E 71 b7 09 2e
        E 71 b7 09 24
        E 71 b7 09 50
        E 71 b7 09 25
        E 71 b7 09 47
        E 71 b7 09 0e
        E 71 b7 09 01
        E 71 b7 09 21
        E 71 b7 09 33
        E 71 b7 09 57
        E 71 b7 09 4e
        E 71 b7 09 03
        E 71 b7 09 57
        E 71 b7 09 4a
        E 71 b7 09 05
        E 71 b7 09 1f
        E 71 b7 09 3b
        E 71 b7 09 4c
        E 71 b7 09 61
        E 71 b7 09 3e
        E 71 b7 09 2a
        E 71 b7 09 1b
        E 71 b7 09 46
        E 71 b7 09 49
        E 71 b7 09 59
        E 71 b7 09 63
        E 71 b7 09 2f
        E 71 b7 09 40
        E 71 b7 09 45
        E 71 b7 09 35
        E 71 b7 09 5f
        E 71 b7 09 0f
        E 71 b7 09 24
        E 71 b7 09 43
        E 15 b7 09 10
        E 15 b7 09 39
        E 15 b7 09 25
        E 15 b7 09 06
        E 15 b7 09 36
        E 15 b7 09 30
        E 15 b7 09 07
        E 15 b7 09 06
        E 15 b7 09 24
        E 15 b7 09 48
        E 15 b7 09 3c
        E 15 b7 09 42
        E 15 b7 09 2f
        E 15 b7 09 08
        E 15 b7 09 0e
        E 15 b7 09 33
        E 15 b7 09 2a
        E 15 b7 09 15
        E 15 b7 09 0f
        E 15 b7 09 14
        E 15 b7 09 3b
        E 15 b7 09 23
        E 15 b7 09 12
        E 15 b7 09 2b
        E 15 b7 09 4b
        E 15 b7 09 00
        E 15 b7 09 09
        E 15 b7 09 1f
        E 15 b7 09 19
        E 15 b7 09 3e
        E 15 b7 09 10
        E 15 b7 09 04
        E 15 b7 09 0c
        E 15 b7 09 0d
        E 15 b7 09 45
        E 15 b7 09 13
        E 15 b7 09 00
        E 15 b7 09 38
        E 15 b7 09 1a
        E 15 b7 09 0f
        E 15 b7 09 1e
        E 15 b7 09 13
        E 15 b7 09 40
        E 15 b7 09 40
        E 15 b7 09 4c
        E 15 b7 09 3f
        E 15 b7 09 21
        E 15 b7 09 46
        E 15 b7 09 36
        E 15 b7 09 09
        E 15 b7 09 21
        E 15 b7 09 28
        E 15 b7 09 48
        E 15 b7 09 3a
        E 15 b7 09 29
        E 15 b7 09 2a
        E 15 b7 09 03
        E 15 b7 09 07
        E 15 b7 09 46
        E 15 b7 09 3d
        E 15 b7 09 20
        E 15 b7 09 18
        E 15 b7 09 0a
        E 15 b7 09 22
        E 15 b7 09 16
        E 15 b7 09 12
        E 15 b7 09 1c
        E 15 b7 09 27
        E 15 b7 09 2e
        E 15 b7 09 31
        E 15 b7 09 0c
        E 15 b7 09 2d
        E 15 b7 09 43
        E 15 b7 09 27
        E 15 b7 09 2c
        E 15 b7 09 01
        E 15 b7 09 05
        E 15 b7 09 4b
        E 15 b7 09 31
        E 15 b7 09 0d
        E 15 b7 09 45
        E 15 b7 09 18
        E 15 b7 09 1d
        E 15 b7 09 25
        E 15 b7 09 1e
        E 15 b7 09 33
        E 15 b7 09 3d
        E 15 b7 09 16
        E 15 b7 09 2b
        E 15 b7 09 11
        E 15 b7 09 44
        E 15 b7 09 3f
        E 15 b7 09 22
        E 15 b7 09 1b
        E 15 b7 09 3c
        E 15 b7 09 1c
        E 15 b7 09 35
        E 15 b7 09 0a
        E 15 b7 09 01
        E 15 b7 09 19
        E 15 b7 09 26
        E 15 b7 09 41
        E 15 b7 09 3a
        E 15 b7 09 02
        E 15 b7 09 42
        E 15 b7 09 37
        E 15 b7 09 04
        E 15 b7 09 17
        E 15 b7 09 2d
        E 15 b7 09 39
        E 15 b7 09 49
        E 15 b7 09 2e
        E 15 b7 09 1f
        E 15 b7 09 15
        E 15 b7 09 34
        E 15 b7 09 37
        E 15 b7 09 43
        E 15 b7 09 4a
        E 15 b7 09 24
        E 15 b7 09 30
        E 15 b7 09 34
        E 15 b7 09 28
        E 15 b7 09 47
        E 15 b7 09 0b
        E 15 b7 09 1b
        E 15 b7 09 32
        E 7 b7 09 0b
        E 7 b7 09 26
        E 7 b7 09 19
        E 7 b7 09 04
        E 7 b7 09 24
        E 7 b7 09 20
        E 7 b7 09 04
        E 7 b7 09 04
        E 7 b7 09 18
        E 7 b7 09 30
        E 7 b7 09 28
        E 7 b7 09 2c
        E 7 b7 09 1f
        E 7 b7 09 05
        E 7 b7 09 09
        E 7 b7 09 22
        E 7 b7 09 1c
        E 7 b7 09 0e
        E 7 b7 09 0a
        E 7 b7 09 0d
        E 7 b7 09 27
        E 7 b7 09 17
        E 7 b7 09 0c
        E 7 b7 09 1d
        E 7 b7 09 32
        E 7 b7 09 00
        E 7 b7 09 06
        E 7 b7 09 14
        E 7 b7 09 11
        E 7 b7 09 29
        E 7 b7 09 0a
        E 7 b7 09 03
        E 7 b7 09 08
        E 7 b7 09 08
        E 7 b7 09 2e
        E 7 b7 09 0c
        E 7 b7 09 00
        E 7 b7 09 25
        E 7 b7 09 11
        E 7 b7 09 0a
        E 7 b7 09 14
        E 7 b7 09 0d
        E 7 b7 09 2b
        E 7 b7 09 2a
        E 7 b7 09 32
        E 7 b7 09 2a
        E 7 b7 09 16
        E 7 b7 09 2f
        E 7 b7 09 24
        E 7 b7 09 06
        E 7 b7 09 16
        E 7 b7 09 1b
        E 7 b7 09 30
        E 7 b7 09 26
        E 7 b7 09 1b
        E 7 b7 09 1c
        E 7 b7 09 02
        E 7 b7 09 05
        E 7 b7 09 2e
        E 7 b7 09 28
        E 7 b7 09 15
        E 7 b7 09 10
        E 7 b7 09 06
        E 7 b7 09 16
        E 7 b7 09 0f
        E 7 b7 09 0c
        E 7 b7 09 13
        E 7 b7 09 1a
        E 7 b7 09 1e
        E 7 b7 09 20
        E 7 b7 09 08
        E 7 b7 09 1e
        E 7 b7 09 2d
        E 7 b7 09 1a
        E 7 b7 09 1d
        E 7 b7 09 01
        E 7 b7 09 03
        E 7 b7 09 32
        E 7 b7 09 21
        E 7 b7 09 09
        E 7 b7 09 2e
        E 7 b7 09 10
        E 7 b7 09 13
        E 7 b7 09 18
        E 7 b7 09 14
        E 7 b7 09 22
        E 7 b7 09 29
        E 7 b7 09 0e
        E 7 b7 09 1c
        E 7 b7 09 0b
        E 7 b7 09 2d
        E 7 b7 09 2a
        E 7 b7 09 17
        E 7 b7 09 12
        E 7 b7 09 28
        E 7 b7 09 12
        E 7 b7 09 23
        E 7 b7 09 07
        E 7 b7 09 00
        E 7 b7 09 10
        E 7 b7 09 19
        E 7 b7 09 2b
        E 7 b7 09 27
        E 7 b7 09 01
        E 7 b7 09 2c
        E 7 b7 09 25
        E 7 b7 09 02
        E 7 b7 09 0f
        E 7 b7 09 1e
        E 7 b7 09 26
        E 7 b7 09 30
        E 7 b7 09 1f
        E 7 b7 09 15
        E 7 b7 09 0e
        E 7 b7 09 23
        E 7 b7 09 24
        E 7 b7 09 2c
        E 7 b7 09 31
        E 7 b7 09 18
        E 7 b7 09 20
        E 7 b7 09 22
        E 7 b7 09 1a
        E 7 b7 09 2f
        E 7 b7 09 07
        E 7 b7 09 12
        E 7 b7 09 21
        E 23 b7 09 16
        E 23 b7 09 4c
        E 23 b7 09 32
        E 23 b7 09 07
        E 23 b7 09 48
        E 23 b7 09 3f
        E 23 b7 09 09
        E 23 b7 09 08
        E 23 b7 09 30
        E 23 b7 09 5f
        E 23 b7 09 50
        E 23 b7 09 58
        E 23 b7 09 3f
        E 23 b7 09 0b
        E 23 b7 09 13
        E 23 b7 09 44
        E 23 b7 09 37
        E 23 b7 09 1c
        E 23 b7 09 14
        E 23 b7 09 1b
        E 23 b7 09 4f
        E 23 b7 09 2f
        E 23 b7 09 17
        E 23 b7 09 3a
        E 23 b7 09 64
        E 23 b7 09 00
        E 23 b7 09 0c
        E 23 b7 09 29
        E 23 b7 09 22
        E 23 b7 09 53
        E 23 b7 09 15
        E 23 b7 09 06
        E 23 b7 09 0f
        E 23 b7 09 11
        E 23 b7 09 5b
        E 23 b7 09 19
        E 23 b7 09 00
        E 23 b7 09 4b
        E 23 b7 09 23
        E 23 b7 09 14
        E 23 b7 09 28
        E 23 b7 09 1a
        E 23 b7 09 56
        E 23 b7 09 55
        E 23 b7 09 65
        E 23 b7 09 54
        E 23 b7 09 2b
        E 23 b7 09 5e
        E 23 b7 09 48
        E 23 b7 09 0b
        E 23 b7 09 2c
        E 23 b7 09 36
        E 23 b7 09 60
        E 23 b7 09 4d
        E 23 b7 09 37
        E 23 b7 09 38
        E 23 b7 09 04
        E 23 b7 09 0a
        E 23 b7 09 5d
        E 23 b7 09 51
        E 23 b7 09 2b
        E 23 b7 09 1f
        E 23 b7 09 0d
        E 23 b7 09 2d
        E 23 b7 09 1e
        E 23 b7 09 18
        E 23 b7 09 26
        E 23 b7 09 34
        E 23 b7 09 3d
        E 23 b7 09 41
        E 23 b7 09 10
        E 23 b7 09 3c
        E 23 b7 09 5a
        E 23 b7 09 33
        E 23 b7 09 3b
        E 23 b7 09 02
        E 23 b7 09 07
        E 23 b7 09 63
        E 23 b7 09 42
        E 23 b7 09 12
        E 23 b7 09 5c
        E 23 b7 09 20
        E 23 b7 09 27
        E 23 b7 09 31
        E 23 b7 09 28
        E 23 b7 09 44
        E 23 b7 09 52
        E 23 b7 09 1d
        E 23 b7 09 39
        E 23 b7 09 17
        E 23 b7 09 5b
        E 23 b7 09 54
        E 23 b7 09 2e
        E 23 b7 09 24
        E 23 b7 09 50
        E 23 b7 09 25
        E 23 b7 09 47
        E 23 b7 09 0e
        E 23 b7 09 01
        E 23 b7 09 21
        E 23 b7 09 33
        E 23 b7 09 57
        E 23 b7 09 4e
        E 23 b7 09 03
        E 23 b7 09 57
        E 23 b7 09 4a
        E 23 b7 09 05
        E 23 b7 09 1f
        E 23 b7 09 3b
        E 23 b7 09 4c
        E 23 b7 09 61
        E 23 b7 09 3e
        E 23 b7 09 2a
        E 23 b7 09 1b
        E 23 b7 09 46
        E 23 b7 09 49
        E 23 b7 09 59
        E 23 b7 09 63
        E 23 b7 09 2f
        E 23 b7 09 40
        E 23 b7 09 45
        E 23 b7 09 35
        E 23 b7 09 5f
        E 23 b7 09 0f
        E 23 b7 09 24
        E 23 b7 09 43
        E 71 b7 09 16
        E 71 b7 09 4c
        E 71 b7 09 32
        E 71 b7 09 07
        E 71 b7 09 48
        E 71 b7 09 3f
        E 71 b7 09 09
        E 71 b7 09 08
        E 71 b7 09 30
        E 71 b7 09 5f
        E 71 b7 09 50
        E 71 b7 09 58
        E 71 b7 09 3f
        E 71 b7 09 0b
        E 71 b7 09 13
        E 71 b7 09 44
        E 71 b7 09 37
        E 71 b7 09 1c
        E 71 b7 09 14
        E 71 b7 09 1b
        E 71 b7 09 4f
        E 71 b7 09 2f
        E 71 b7 09 17
        E 71 b7 09 3a
        E 71 b7 09 64
        E 71 b7 09 00
        E 71 b7 09 0c
        E 71 b7 09 29
        E 71 b7 09 22
        E 71 b7 09 53
        E 71 b7 09 15
        E 71 b7 09 06
        E 71 b7 09 0f
        E 71 b7 09 11
        E 71 b7 09 5b
        E 71 b7 09 19
        E 71 b7 09 00
        E 71 b7 09 4b
        E 71 b7 09 23
        E 71 b7 09 14
        E 71 b7 09 28
        E 71 b7 09 1a
        E 71 b7 09 56
        E 71 b7 09 55
        E 71 b7 09 65
        E 71 b7 09 54
        E 71 b7 09 2b
        E 71 b7 09 5e
        E 71 b7 09 48
        E 71 b7 09 0b
        E 71 b7 09 2c
        E 71 b7 09 36
        E 71 b7 09 60
        E 71 b7 09 4d
        E 71 b7 09 37
        E 71 b7 09 38
        E 71 b7 09 04
        E 71 b7 09 0a
        E 71 b7 09 5d
        E 71 b7 09 51
        E 71 b7 09 2b
        E 71 b7 09 1f
        E 71 b7 09 0d
        E 71 b7 09 2d
        E 71 b7 09 1e
        E 71 b7 09 18
        E 71 b7 09 26
        E 71 b7 09 34
        E 71 b7 09 3d
        E 71 b7 09 41
        E 71 b7 09 10
        E 71 b7 09 3c
        E 71 b7 09 5a
        E 71 b7 09 33
        E 71 b7 09 3b
        E 71 b7 09 02
        E 71 b7 09 07
        E 71 b7 09 63
        E 71 b7 09 42
        E 71 b7 09 12
        E 71 b7 09 5c
        E 71 b7 09 20
        E 71 b7 09 27
        E 71 b7 09 31
        E 71 b7 09 28
        E 71 b7 09 44
        E 71 b7 09 52
        E 71 b7 09 1d
        E 71 b7 09 39
        E 71 b7 09 17
        E 71 b7 09 5b
        E 71 b7 09 54
        E 71 b7 09 2e
        E 71 b7 09 24
        E 71 b7 09 50
        E 71 b7 09 25
        E 71 b7 09 47
        E 71 b7 09 0e
        E 71 b7 09 01
        E 71 b7 09 21
        E 71 b7 09 33
        E 71 b7 09 57
        E 71 b7 09 4e
        E 71 b7 09 03
        E 71 b7 09 57
        E 71 b7 09 4a
        E 71 b7 09 05
        E 71 b7 09 1f
        E 71 b7 09 3b
        E 71 b7 09 4c
        E 71 b7 09 61
        E 71 b7 09 3e
        E 71 b7 09 2a
        E 71 b7 09 1b
        E 71 b7 09 46
        E 71 b7 09 49
        E 71 b7 09 59
        E 71 b7 09 63
        E 71 b7 09 2f
        E 71 b7 09 40
        E 71 b7 09 45
        E 71 b7 09 35
        E 71 b7 09 5f
        E 71 b7 09 0f
        E 71 b7 09 24
        E 71 b7 09 43
        E 15 b7 09 10
        E 15 b7 09 39
        E 15 b7 09 25
        E 15 b7 09 06
        E 15 b7 09 36
        E 15 b7 09 30
        E 15 b7 09 07
        E 15 b7 09 06
        E 15 b7 09 24
        E 15 b7 09 48
        E 15 b7 09 3c
        E 15 b7 09 42
        E 15 b7 09 2f
        E 15 b7 09 08
        E 15 b7 09 0e
        E 15 b7 09 33
        E 15 b7 09 2a
        E 15 b7 09 15
        E 15 b7 09 0f
        E 15 b7 09 14
        E 15 b7 09 3b
        E 15 b7 09 23
        E 15 b7 09 12
        E 15 b7 09 2b
        E 15 b7 09 4b
        E 15 b7 09 00
        E 15 b7 09 09
        E 15 b7 09 1f
        E 15 b7 09 19
        E 15 b7 09 3e
        E 15 b7 09 10
        E 15 b7 09 04
        E 15 b7 09 0c
        E 15 b7 09 0d
        E 15 b7 09 45
        E 15 b7 09 13
        E 15 b7 09 00
        E 15 b7 09 38
        E 15 b7 09 1a
        E 15 b7 09 0f
        E 15 b7 09 1e
        E 15 b7 09 13
        E 15 b7 09 40
        E 15 b7 09 40
        E 15 b7 09 4c
        E 15 b7 09 3f
        E 15 b7 09 21
        E 15 b7 09 46
        E 15 b7 09 36
        E 15 b7 09 09
        E 15 b7 09 21
        E 15 b7 09 28
        E 15 b7 09 48
        E 15 b7 09 3a
        E 15 b7 09 29
        E 15 b7 09 2a
        E 15 b7 09 03
        E 15 b7 09 07
        E 15 b7 09 46
        E 15 b7 09 3d
        E 15 b7 09 20
        E 15 b7 09 18
        E 15 b7 09 0a
        E 15 b7 09 22
        E 15 b7 09 16
        E 15 b7 09 12
        E 15 b7 09 1c
        E 15 b7 09 27
        E 15 b7 09 2e
        E 15 b7 09 31
        E 15 b7 09 0c
        E 15 b7 09 2d
        E 15 b7 09 43
        E 15 b7 09 27
        E 15 b7 09 2c
        E 15 b7 09 01
        E 15 b7 09 05
        E 15 b7 09 4b
        E 15 b7 09 31
        E 15 b7 09 0d
        E 15 b7 09 45
        E 15 b7 09 18
        E 15 b7 09 1d
        E 15 b7 09 25
        E 15 b7 09 1e
        E 15 b7 09 33
        E 15 b7 09 3d
        E 15 b7 09 16
        E 15 b7 09 2b
        E 15 b7 09 11
        E 15 b7 09 44
        E 15 b7 09 3f
        E 15 b7 09 22
        E 15 b7 09 1b
        E 15 b7 09 3c
        E 15 b7 09 1c
        E 15 b7 09 35
        E 15 b7 09 0a
        E 15 b7 09 01
        E 15 b7 09 19
        E 15 b7 09 26
        E 15 b7 09 41
        E 15 b7 09 3a
        E 15 b7 09 02
        E 15 b7 09 42
        E 15 b7 09 37
        E 15 b7 09 04
        E 15 b7 09 17
        E 15 b7 09 2d
        E 15 b7 09 39
        E 15 b7 09 49
        E 15 b7 09 2e
        E 15 b7 09 1f
        E 15 b7 09 15
        E 15 b7 09 34
        E 15 b7 09 37
        E 15 b7 09 43
        E 15 b7 09 4a
        E 15 b7 09 24
        E 15 b7 09 30
        E 15 b7 09 34
        E 15 b7 09 28
        E 15 b7 09 47
        E 15 b7 09 0b
        E 15 b7 09 1b
        E 15 b7 09 32
        E 71 b7 09 0b
        E 71 b7 09 26
        E 71 b7 09 19
        E 71 b7 09 04
        E 71 b7 09 24
        E 71 b7 09 20
        E 71 b7 09 04
        E 71 b7 09 04
        E 71 b7 09 18
        E 71 b7 09 30
        E 71 b7 09 28
        E 71 b7 09 2c
        E 71 b7 09 1f
        E 71 b7 09 05
        E 71 b7 09 09
        E 71 b7 09 22
        E 71 b7 09 1c
        E 71 b7 09 0e
        E 71 b7 09 0a
        E 71 b7 09 0d
        E 71 b7 09 27
        E 71 b7 09 17
        E 71 b7 09 0c
        E 71 b7 09 1d
        E 71 b7 09 32
        E 71 b7 09 00
        E 71 b7 09 06
        E 71 b7 09 14
        E 71 b7 09 11
        E 71 b7 09 29
        E 71 b7 09 0a
        E 71 b7 09 03
        E 71 b7 09 08
        E 71 b7 09 08
        E 71 b7 09 2e
        E 71 b7 09 0c
        E 71 b7 09 00
        E 71 b7 09 25
        E 71 b7 09 11
        E 71 b7 09 0a
        E 71 b7 09 14
        E 71 b7 09 0d
        E 71 b7 09 2b
        E 71 b7 09 2a
        E 71 b7 09 32
        E 71 b7 09 2a
        E 71 b7 09 16
        E 71 b7 09 2f
        E 71 b7 09 24
        E 71 b7 09 06
        E 71 b7 09 16
        E 71 b7 09 1b
        E 71 b7 09 30
        E 71 b7 09 26
        E 71 b7 09 1b
        E 71 b7 09 1c
        E 71 b7 09 02
        E 71 b7 09 05
        E 71 b7 09 2e
        E 71 b7 09 28
        E 71 b7 09 15
        E 71 b7 09 10
        E 71 b7 09 06
        E 71 b7 09 16
        E 71 b7 09 0f
        E 71 b7 09 0c
        E 71 b7 09 13
        E 71 b7 09 1a
        E 71 b7 09 1e
        E 71 b7 09 20
        E 71 b7 09 08
        E 71 b7 09 1e
        E 71 b7 09 2d
        E 71 b7 09 1a
        E 71 b7 09 1d
        E 71 b7 09 01
        E 71 b7 09 03
        E 71 b7 09 32
        E 71 b7 09 21
        E 71 b7 09 09
        E 71 b7 09 2e
        E 71 b7 09 10
        E 71 b7 09 13
        E 71 b7 09 18
        E 71 b7 09 14
        E 71 b7 09 22
        E 71 b7 09 29
        E 71 b7 09 0e
        E 71 b7 09 1c
        E 71 b7 09 0b
        E 71 b7 09 2d
        E 71 b7 09 2a
        E 71 b7 09 17
        E 71 b7 09 12
        E 71 b7 09 28
        E 71 b7 09 12
        E 71 b7 09 23
        E 71 b7 09 07
        E 71 b7 09 00
        E 71 b7 09 10
        E 71 b7 09 19
        E 71 b7 09 2b
        E 71 b7 09 27
        E 71 b7 09 01
        E 71 b7 09 2c
        E 71 b7 09 25
        E 71 b7 09 02
        E 71 b7 09 0f
        E 71 b7 09 1e
        E 71 b7 09 26
        E 71 b7 09 30
        E 71 b7 09 1f
        E 71 b7 09 15
        E 71 b7 09 0e
        E 71 b7 09 23
        E 71 b7 09 24
        E 71 b7 09 2c
        E 71 b7 09 31
        E 71 b7 09 18
        E 71 b7 09 20
        E 71 b7 09 22
        E 71 b7 09 1a
        E 71 b7 09 2f
        E 71 b7 09 07
        E 71 b7 09 12
        E 71 b7 09 21
        E 39 b7 09 13
        E 39 b7 09 43
        E 39 b7 09 2c
        E 39 b7 09 07
        E 39 b7 09 3e
        E 39 b7 09 38
        E 39 b7 09 08
        E 39 b7 09 07
        E 39 b7 09 2a
        E 39 b7 09 54
        E 39 b7 09 46
        E 39 b7 09 4d
        E 39 b7 09 37
        E 39 b7 09 09
        E 39 b7 09 10
        E 39 b7 09 3c
        E 39 b7 09 31
        E 39 b7 09 19
        E 39 b7 09 11
        E 39 b7 09 17
        E 39 b7 09 45
        E 39 b7 09 29
        E 39 b7 09 15
        E 39 b7 09 33
        E 39 b7 09 58
        E 39 b7 09 00
        E 39 b7 09 0b
        E 39 b7 09 24
        E 39 b7 09 1e
        E 39 b7 09 48
        E 39 b7 09 12
        E 39 b7 09 05
        E 39 b7 09 0e
        E 39 b7 09 0f
        E 39 b7 09 50
        E 39 b7 09 16
        E 39 b7 09 00
        E 39 b7 09 41
        E 39 b7 09 1e
        E 39 b7 09 12
        E 39 b7 09 23
        E 39 b7 09 17
        E 39 b7 09 4b
        E 39 b7 09 4a
        E 39 b7 09 58
        E 39 b7 09 4a
        E 39 b7 09 26
        E 39 b7 09 52
        E 39 b7 09 3f
        E 39 b7 09 0a
        E 39 b7 09 27
        E 39 b7 09 2f
        E 39 b7 09 54
        E 39 b7 09 43
        E 39 b7 09 30
        E 39 b7 09 31
        E 39 b7 09 04
        E 39 b7 09 09
        E 39 b7 09 51
        E 39 b7 09 47
        E 39 b7 09 25
        E 39 b7 09 1c
        E 39 b7 09 0b
        E 39 b7 09 27
        E 39 b7 09 1a
        E 39 b7 09 15
        E 39 b7 09 21
        E 39 b7 09 2e
        E 39 b7 09 35
        E 39 b7 09 39
        E 39 b7 09 0e
        E 39 b7 09 35
        E 39 b7 09 4f
        E 39 b7 09 2d
        E 39 b7 09 33
        E 39 b7 09 02
        E 39 b7 09 06
        E 39 b7 09 57
        E 39 b7 09 3a
        E 39 b7 09 10
        E 39 b7 09 51
        E 39 b7 09 1c
        E 39 b7 09 22
        E 39 b7 09 2b
        E 39 b7 09 23
        E 39 b7 09 3b
        E 39 b7 09 48
        E 39 b7 09 19
        E 39 b7 09 32
        E 39 b7 09 14
        E 39 b7 09 4f
        E 39 b7 09 49
        E 39 b7 09 28
        E 39 b7 09 20
        E 39 b7 09 46
        E 39 b7 09 20
        E 39 b7 09 3e
        E 39 b7 09 0c
        E 39 b7 09 01
        E 39 b7 09 1d
        E 39 b7 09 2c
        E 39 b7 09 4c
        E 39 b7 09 44
        E 39 b7 09 02
        E 39 b7 09 4d
        E 39 b7 09 41
        E 39 b7 09 04
        E 39 b7 09 1b
        E 39 b7 09 34
        E 39 b7 09 42
        E 39 b7 09 55
        E 39 b7 09 36
        E 39 b7 09 25
        E 39 b7 09 18
        E 39 b7 09 3d
        E 39 b7 09 40
        E 39 b7 09 4e
        E 39 b7 09 56
        E 39 b7 09 2a
        E 39 b7 09 38
        E 39 b7 09 3c
        E 39 b7 09 2e
        E 39 b7 09 53
        E 39 b7 09 0d
        E 39 b7 09 1f
        E 39 b7 09 3a
        E 7 b7 09 0b
        E 7 b7 09 26
        E 7 b7 09 19
        E 7 b7 09 04
        E 7 b7 09 24
        E 7 b7 09 20
        E 7 b7 09 04
        E 7 b7 09 04
        E 7 b7 09 18
        E 7 b7 09 30
        E 7 b7 09 28
        E 7 b7 09 2c
        E 7 b7 09 1f
        E 7 b7 09 05
        E 7 b7 09 09
        E 7 b7 09 22
        E 7 b7 09 1c
        E 7 b7 09 0e
        E 7 b7 09 0a
        E 7 b7 09 0d
        E 7 b7 09 27
        E 7 b7 09 17
        E 7 b7 09 0c
        E 7 b7 09 1d
        E 7 b7 09 32
        E 7 b7 09 00
        E 7 b7 09 06
        E 7 b7 09 14
        E 7 b7 09 11
        E 7 b7 09 29
        E 7 b7 09 0a
        E 7 b7 09 03
        E 7 b7 09 08
        E 7 b7 09 08
        E 7 b7 09 2e
        E 7 b7 09 0c
        E 7 b7 09 00
        E 7 b7 09 25
        E 7 b7 09 11
        E 7 b7 09 0a
        E 7 b7 09 14
        E 7 b7 09 0d
        E 7 b7 09 2b
        E 7 b7 09 2a
        E 7 b7 09 32
        E 7 b7 09 2a
        E 7 b7 09 16
        E 7 b7 09 2f
        E 7 b7 09 24
        E 7 b7 09 06
        E 7 b7 09 16
        E 7 b7 09 1b
        E 7 b7 09 30
        E 7 b7 09 26
        E 7 b7 09 1b
        E 7 b7 09 1c
        E 7 b7 09 02
        E 7 b7 09 05
        E 7 b7 09 2e
        E 7 b7 09 28
        E 7 b7 09 15
        E 7 b7 09 10
        E 7 b7 09 06
        E 7 b7 09 16
        E 7 b7 09 0f
        E 7 b7 09 0c
        E 7 b7 09 13
        E 7 b7 09 1a
        E 7 b7 09 1e
        E 7 b7 09 20
        E 7 b7 09 08
        E 7 b7 09 1e
        E 7 b7 09 2d
        E 7 b7 09 1a
        E 7 b7 09 1d
        E 7 b7 09 01
        E 7 b7 09 03
        E 7 b7 09 32
        E 7 b7 09 21
        E 7 b7 09 09
        E 7 b7 09 2e
        E 7 b7 09 10
        E 7 b7 09 13
        E 7 b7 09 18
        E 7 b7 09 14
        E 7 b7 09 22
        E 7 b7 09 29
        E 7 b7 09 0e
        E 7 b7 09 1c
        E 7 b7 09 0b
        E 7 b7 09 2d
        E 7 b7 09 2a
        E 7 b7 09 17
        E 7 b7 09 12
        E 7 b7 09 28
        E 7 b7 09 12
        E 7 b7 09 23
        E 7 b7 09 07
        E 7 b7 09 00
        E 7 b7 09 10
        E 7 b7 09 19
        E 7 b7 09 2b
        E 7 b7 09 27
        E 7 b7 09 01
        E 7 b7 09 2c
        E 7 b7 09 25
        E 7 b7 09 02
        E 7 b7 09 0f
        E 7 b7 09 1e
        E 7 b7 09 26
        E 7 b7 09 30
        E 7 b7 09 1f
        E 7 b7 09 15
        E 7 b7 09 0e
        E 7 b7 09 23
        E 7 b7 09 24
        E 7 b7 09 2c
        E 7 b7 09 31
        E 7 b7 09 18
        E 7 b7 09 20
        E 7 b7 09 22
        E 7 b7 09 1a
        E 7 b7 09 2f
        E 7 b7 09 07
        E 7 b7 09 12
        E 7 b7 09 21
        E 23 b7 09 16
        E 23 b7 09 4c
        E 23 b7 09 32
        E 23 b7 09 07
        E 23 b7 09 48
        E 23 b7 09 3f
        E 23 b7 09 09
        E 23 b7 09 08
        E 23 b7 09 30
        E 23 b7 09 5f
        E 23 b7 09 50
        E 23 b7 09 58
        E 23 b7 09 3f
        E 23 b7 09 0b
        E 23 b7 09 13
        E 23 b7 09 44
        E 23 b7 09 37
        E 23 b7 09 1c
        E 23 b7 09 14
        E 23 b7 09 1b
        E 23 b7 09 4f
        E 23 b7 09 2f
        E 23 b7 09 17
        E 23 b7 09 3a
        E 23 b7 09 64
        E 23 b7 09 00
        E 23 b7 09 0c
        E 23 b7 09 29
        E 23 b7 09 22
        E 23 b7 09 53
        E 23 b7 09 15
        E 23 b7 09 06
        E 23 b7 09 0f
        E 23 b7 09 11
        E 23 b7 09 5b
        E 23 b7 09 19
        E 23 b7 09 00
        E 23 b7 09 4b
        E 23 b7 09 23
        E 23 b7 09 14
        E 23 b7 09 28
        E 23 b7 09 1a
        E 23 b7 09 56
        E 23 b7 09 55
        E 23 b7 09 65
        E 23 b7 09 54
        E 23 b7 09 2b
        E 23 b7 09 5e
        E 23 b7 09 48
        E 23 b7 09 0b
        E 23 b7 09 2c
        E 23 b7 09 36
        E 23 b7 09 60
        E 23 b7 09 4d
        E 23 b7 09 37
        E 23 b7 09 38
        E 23 b7 09 04
        E 23 b7 09 0a
        E 23 b7 09 5d
        E 23 b7 09 51
        E 23 b7 09 2b
        E 23 b7 09 1f
        E 23 b7 09 0d
        E 23 b7 09 2d
        E 23 b7 09 1e
        E 23 b7 09 18
        E 23 b7 09 26
        E 23 b7 09 34
        E 23 b7 09 3d
        E 23 b7 09 41
        E 23 b7 09 10
        E 23 b7 09 3c
        E 23 b7 09 5a
        E 23 b7 09 33
        E 23 b7 09 3b
        E 23 b7 09 02
        E 23 b7 09 07
        E 23 b7 09 63
        E 23 b7 09 42
        E 23 b7 09 12
        E 23 b7 09 5c
        E 23 b7 09 20
        E 23 b7 09 27
        E 23 b7 09 31
        E 23 b7 09 28
        E 23 b7 09 44
        E 23 b7 09 52
        E 23 b7 09 1d
        E 23 b7 09 39
        E 23 b7 09 17
        E 23 b7 09 5b
        E 23 b7 09 54
        E 23 b7 09 2e
        E 23 b7 09 24
        E 23 b7 09 50
        E 23 b7 09 25
        E 23 b7 09 47
        E 23 b7 09 0e
        E 23 b7 09 01
        E 23 b7 09 21
        E 23 b7 09 33
        E 23 b7 09 57
        E 23 b7 09 4e
        E 23 b7 09 03
        E 23 b7 09 57
        E 23 b7 09 4a
        E 23 b7 09 05
        E 23 b7 09 1f
        E 23 b7 09 3b
        E 23 b7 09 4c
        E 23 b7 09 61
        E 23 b7 09 3e
        E 23 b7 09 2a
        E 23 b7 09 1b
        E 23 b7 09 46
        E 23 b7 09 49
        E 23 b7 09 59
        E 23 b7 09 63
        E 23 b7 09 2f
        E 23 b7 09 40
        E 23 b7 09 45
        E 23 b7 09 35
        E 23 b7 09 5f
        E 23 b7 09 0f
        E 23 b7 09 24
        E 23 b7 09 43
        E 71 b7 09 16
        E 71 b7 09 4c
        E 71 b7 09 32
        E 71 b7 09 07
        E 71 b7 09 48
        E 71 b7 09 3f
        E 71 b7 09 09
        E 71 b7 09 08
        E 71 b7 09 30
        E 71 b7 09 5f
        E 71 b7 09 50
        E 71 b7 09 58
        E 71 b7 09 3f
        E 71 b7 09 0b
        E 71 b7 09 13
        E 71 b7 09 44
        E 71 b7 09 37
        E 71 b7 09 1c
        E 71 b7 09 14
        E 71 b7 09 1b
        E 71 b7 09 4f
        E 71 b7 09 2f
        E 71 b7 09 17
        E 71 b7 09 3a
        E 71 b7 09 64
        E 71 b7 09 00
        E 71 b7 09 0c
        E 71 b7 09 29
        E 71 b7 09 22
        E 71 b7 09 53
        E 71 b7 09 15
        E 71 b7 09 06
        E 71 b7 09 0f
        E 71 b7 09 11
        E 71 b7 09 5b
        E 71 b7 09 19
        E 71 b7 09 00
        E 71 b7 09 4b
        E 71 b7 09 23
        E 71 b7 09 14
        E 71 b7 09 28
        E 71 b7 09 1a
        E 71 b7 09 56
        E 71 b7 09 55
        E 71 b7 09 65
        E 71 b7 09 54
        E 71 b7 09 2b
        E 71 b7 09 5e
        E 71 b7 09 48
        E 71 b7 09 0b
        E 71 b7 09 2c
        E 71 b7 09 36
        E 71 b7 09 60
        E 71 b7 09 4d
        E 71 b7 09 37
        E 71 b7 09 38
        E 71 b7 09 04
        E 71 b7 09 0a
        E 71 b7 09 5d
        E 71 b7 09 51
        E 71 b7 09 2b
        E 71 b7 09 1f
        E 71 b7 09 0d
        E 71 b7 09 2d
        E 71 b7 09 1e
        E 71 b7 09 18
        E 71 b7 09 26
        E 71 b7 09 34
        E 71 b7 09 3d
        E 71 b7 09 41
        E 71 b7 09 10
        E 71 b7 09 3c
        E 71 b7 09 5a
        E 71 b7 09 33
        E 71 b7 09 3b
        E 71 b7 09 02
        E 71 b7 09 07
        E 71 b7 09 63
        E 71 b7 09 42
        E 71 b7 09 12
        E 71 b7 09 5c
        E 71 b7 09 20
        E 71 b7 09 27
        E 71 b7 09 31
        E 71 b7 09 28
        E 71 b7 09 44
        E 71 b7 09 52
        E 71 b7 09 1d
        E 71 b7 09 39
        E 71 b7 09 17
        E 71 b7 09 5b
        E 71 b7 09 54
        E 71 b7 09 2e
        E 71 b7 09 24
        E 71 b7 09 50
        E 71 b7 09 25
        E 71 b7 09 47
        E 71 b7 09 0e
        E 71 b7 09 01
        E 71 b7 09 21
        E 71 b7 09 33
        E 71 b7 09 57
        E 71 b7 09 4e
        E 71 b7 09 03
        E 71 b7 09 57
        E 71 b7 09 4a
        E 71 b7 09 05
        E 71 b7 09 1f
        E 71 b7 09 3b
        E 71 b7 09 4c
        E 71 b7 09 61
        E 71 b7 09 3e
        E 71 b7 09 2a
        E 71 b7 09 1b
        E 71 b7 09 46
        E 71 b7 09 49
        E 71 b7 09 59
        E 71 b7 09 63
        E 71 b7 09 2f
        E 71 b7 09 40
        E 71 b7 09 45
        E 71 b7 09 35
        E 71 b7 09 5f
        E 71 b7 09 0f
        E 71 b7 09 24
        E 71 b7 09 43
        E 15 b7 09 10
        E 15 b7 09 39
        E 15 b7 09 25
        E 15 b7 09 06
        E 15 b7 09 36
        E 15 b7 09 30
        E 15 b7 09 07
        E 15 b7 09 06
        E 15 b7 09 24
        E 15 b7 09 48
        E 15 b7 09 3c
        E 15 b7 09 42
        E 15 b7 09 2f
        E 15 b7 09 08
        E 15 b7 09 0e
        E 15 b7 09 33
        E 15 b7 09 2a
        E 15 b7 09 15
        E 15 b7 09 0f
        E 15 b7 09 14
        E 15 b7 09 3b
        E 15 b7 09 23
        E 15 b7 09 12
        E 15 b7 09 2b
        E 15 b7 09 4b
        E 15 b7 09 00
        E 15 b7 09 09
        E 15 b7 09 1f
        E 15 b7 09 19
        E 15 b7 09 3e
        E 15 b7 09 10
        E 15 b7 09 04
        E 15 b7 09 0c
        E 15 b7 09 0d
        E 15 b7 09 45
        E 15 b7 09 13
        E 15 b7 09 00
        E 15 b7 09 38
        E 15 b7 09 1a
        E 15 b7 09 0f
        E 15 b7 09 1e
        E 15 b7 09 13
        E 15 b7 09 40
        E 15 b7 09 40
        E 15 b7 09 4c
        E 15 b7 09 3f
        E 15 b7 09 21
        E 15 b7 09 46
        E 15 b7 09 36
        E 15 b7 09 09
        E 15 b7 09 21
        E 15 b7 09 28
        E 15 b7 09 48
        E 15 b7 09 3a
        E 15 b7 09 29
        E 15 b7 09 2a
        E 15 b7 09 03
        E 15 b7 09 07
        E 15 b7 09 46
        E 15 b7 09 3d
        E 15 b7 09 20
        E 15 b7 09 18
        E 15 b7 09 0a
        E 15 b7 09 22
        E 15 b7 09 16
        E 15 b7 09 12
        E 15 b7 09 1c
        E 15 b7 09 27
        E 15 b7 09 2e
        E 15 b7 09 31
        E 15 b7 09 0c
        E 15 b7 09 2d
        E 15 b7 09 43
        E 15 b7 09 27
        E 15 b7 09 2c
        E 15 b7 09 01
        E 15 b7 09 05
        E 15 b7 09 4b
        E 15 b7 09 31
        E 15 b7 09 0d
        E 15 b7 09 45
        E 15 b7 09 18
        E 15 b7 09 1d
        E 15 b7 09 25
        E 15 b7 09 1e
        E 15 b7 09 33
        E 15 b7 09 3d
        E 15 b7 09 16
        E 15 b7 09 2b
        E 15 b7 09 11
        E 15 b7 09 44
        E 15 b7 09 3f
        E 15 b7 09 22
        E 15 b7 09 1b
        E 15 b7 09 3c
        E 15 b7 09 1c
        E 15 b7 09 35
        E 15 b7 09 0a
        E 15 b7 09 01
        E 15 b7 09 19
        E 15 b7 09 26
        E 15 b7 09 41
        E 15 b7 09 3a
        E 15 b7 09 02
        E 15 b7 09 42
        E 15 b7 09 37
        E 15 b7 09 04
        E 15 b7 09 17
        E 15 b7 09 2d
        E 15 b7 09 39
        E 15 b7 09 49
        E 15 b7 09 2e
        E 15 b7 09 1f
        E 15 b7 09 15
        E 15 b7 09 34
        E 15 b7 09 37
        E 15 b7 09 43
        E 15 b7 09 4a
        E 15 b7 09 24
        E 15 b7 09 30
        E 15 b7 09 34
        E 15 b7 09 28
        E 15 b7 09 47
        E 15 b7 09 0b
        E 15 b7 09 1b
        E 15 b7 09 32
        E 71 b7 09 0b
        E 71 b7 09 26
        E 71 b7 09 19
        E 71 b7 09 04
        E 71 b7 09 24
        E 71 b7 09 20
        E 71 b7 09 04
        E 71 b7 09 04
        E 71 b7 09 18
        E 71 b7 09 30
        E 71 b7 09 28
        E 71 b7 09 2c
        E 71 b7 09 1f
        E 71 b7 09 05
        E 71 b7 09 09
        E 71 b7 09 22
        E 71 b7 09 1c
        E 71 b7 09 0e
        E 71 b7 09 0a
        E 71 b7 09 0d
        E 71 b7 09 27
        E 71 b7 09 17
        E 71 b7 09 0c
        E 71 b7 09 1d
        E 71 b7 09 32
        E 71 b7 09 00
        E 71 b7 09 06
        E 71 b7 09 14
        E 71 b7 09 11
        E 71 b7 09 29
        E 71 b7 09 0a
        E 71 b7 09 03
        E 71 b7 09 08
        E 71 b7 09 08
        E 71 b7 09 2e
        E 71 b7 09 0c
        E 71 b7 09 00
        E 71 b7 09 25
        E 71 b7 09 11
        E 71 b7 09 0a
        E 71 b7 09 14
        E 71 b7 09 0d
        E 71 b7 09 2b
        E 71 b7 09 2a
        E 71 b7 09 32
        E 71 b7 09 2a
        E 71 b7 09 16
        E 71 b7 09 2f
        E 71 b7 09 24
        E 71 b7 09 06
        E 71 b7 09 16
        E 71 b7 09 1b
        E 71 b7 09 30
        E 71 b7 09 26
        E 71 b7 09 1b
        E 71 b7 09 1c
        E 71 b7 09 02
        E 71 b7 09 05
        E 71 b7 09 2e
        E 71 b7 09 28
        E 71 b7 09 15
        E 71 b7 09 10
        E 71 b7 09 06
        E 71 b7 09 16
        E 71 b7 09 0f
        E 71 b7 09 0c
        E 71 b7 09 13
        E 71 b7 09 1a
        E 71 b7 09 1e
        E 71 b7 09 20
        E 71 b7 09 08
        E 71 b7 09 1e
        E 71 b7 09 2d
        E 71 b7 09 1a
        E 71 b7 09 1d
        E 71 b7 09 01
        E 71 b7 09 03
        E 71 b7 09 32
        E 71 b7 09 21
        E 71 b7 09 09
        E 71 b7 09 2e
        E 71 b7 09 10
        E 71 b7 09 13
        E 71 b7 09 18
        E 71 b7 09 14
        E 71 b7 09 22
        E 71 b7 09 29
        E 71 b7 09 0e
        E 71 b7 09 1c
        E 71 b7 09 0b
        E 71 b7 09 2d
        E 71 b7 09 2a
        E 71 b7 09 17
        E 71 b7 09 12
        E 71 b7 09 28
        E 71 b7 09 12
        E 71 b7 09 23
        E 71 b7 09 07
        E 71 b7 09 00
        E 71 b7 09 10
        E 71 b7 09 19
        E 71 b7 09 2b
        E 71 b7 09 27
        E 71 b7 09 01
        E 71 b7 09 2c
        E 71 b7 09 25
        E 71 b7 09 02
        E 71 b7 09 0f
        E 71 b7 09 1e
        E 71 b7 09 26
        E 71 b7 09 30
        E 71 b7 09 1f
        E 71 b7 09 15
        E 71 b7 09 0e
        E 71 b7 09 23
        E 71 b7 09 24
        E 71 b7 09 2c
        E 71 b7 09 31
        E 71 b7 09 18
        E 71 b7 09 20
        E 71 b7 09 22
        E 71 b7 09 1a
        E 71 b7 09 2f
        E 71 b7 09 07
        E 71 b7 09 12
        E 71 b7 09 21
        E 39 b7 09 13
        E 39 b7 09 43
        E 39 b7 09 2c
        E 39 b7 09 07
        E 39 b7 09 3e
        E 39 b7 09 38
        E 39 b7 09 08
        E 39 b7 09 07
        E 39 b7 09 2a
        E 39 b7 09 54
        E 39 b7 09 46
        E 39 b7 09 4d
        E 39 b7 09 37
        E 39 b7 09 09
        E 39 b7 09 10
        E 39 b7 09 3c
        E 39 b7 09 31
        E 39 b7 09 19
        E 39 b7 09 11
        E 39 b7 09 17
        E 39 b7 09 45
        E 39 b7 09 29
        E 39 b7 09 15
        E 39 b7 09 33
        E 39 b7 09 58
        E 39 b7 09 00
        E 39 b7 09 0b
        E 39 b7 09 24
        E 39 b7 09 1e
        E 39 b7 09 48
        E 39 b7 09 12
        E 39 b7 09 05
        E 39 b7 09 0e
        E 39 b7 09 0f
        E 39 b7 09 50
        E 39 b7 09 16
        E 39 b7 09 00
        E 39 b7 09 41
        E 39 b7 09 1e
        E 39 b7 09 12
        E 39 b7 09 23
        E 39 b7 09 17
        E 39 b7 09 4b
        E 39 b7 09 4a
        E 39 b7 09 58
        E 39 b7 09 4a
        E 39 b7 09 26
        E 39 b7 09 52
        E 39 b7 09 3f
        E 39 b7 09 0a
        E 39 b7 09 27
        E 39 b7 09 2f
        E 39 b7 09 54
        E 39 b7 09 43
        E 39 b7 09 30
        E 39 b7 09 31
        E 39 b7 09 04
        E 39 b7 09 09
        E 39 b7 09 51
        E 39 b7 09 47
        E 39 b7 09 25
        E 39 b7 09 1c
        E 39 b7 09 0b
        E 39 b7 09 27
        E 39 b7 09 1a
        E 39 b7 09 15
        E 39 b7 09 21
        E 39 b7 09 2e
        E 39 b7 09 35
        E 39 b7 09 39
        E 39 b7 09 0e
        E 39 b7 09 35
        E 39 b7 09 4f
        E 39 b7 09 2d
        E 39 b7 09 33
        E 39 b7 09 02
        E 39 b7 09 06
        E 39 b7 09 57
        E 39 b7 09 3a
        E 39 b7 09 10
        E 39 b7 09 51
        E 39 b7 09 1c
        E 39 b7 09 22
        E 39 b7 09 2b
        E 39 b7 09 23
        E 39 b7 09 3b
        E 39 b7 09 48
        E 39 b7 09 19
        E 39 b7 09 32
        E 39 b7 09 14
        E 39 b7 09 4f
        E 39 b7 09 49
        E 39 b7 09 28
        E 39 b7 09 20
        E 39 b7 09 46
        E 39 b7 09 20
        E 39 b7 09 3e
        E 39 b7 09 0c
        E 39 b7 09 01
        E 39 b7 09 1d
        E 39 b7 09 2c
        E 39 b7 09 4c
        E 39 b7 09 44
        E 39 b7 09 02
        E 39 b7 09 4d
        E 39 b7 09 41
        E 39 b7 09 04
        E 39 b7 09 1b
        E 39 b7 09 34
        E 39 b7 09 42
        E 39 b7 09 55
        E 39 b7 09 36
        E 39 b7 09 25
        E 39 b7 09 18
        E 39 b7 09 3d
        E 39 b7 09 40
        E 39 b7 09 4e
        E 39 b7 09 56
        E 39 b7 09 2a
        E 39 b7 09 38
        E 39 b7 09 3c
        E 39 b7 09 2e
        E 39 b7 09 53
        E 39 b7 09 0d
        E 39 b7 09 1f
        E 39 b7 09 3a
        E 7 b7 09 0b
        E 7 b7 09 26
        E 7 b7 09 19
        E 7 b7 09 04
        E 7 b7 09 24
        E 7 b7 09 20
        E 7 b7 09 04
        E 7 b7 09 04
        E 7 b7 09 18
        E 7 b7 09 30
        E 7 b7 09 28
        E 7 b7 09 2c
        E 7 b7 09 1f
        E 7 b7 09 05
        E 7 b7 09 09
        E 7 b7 09 22
        E 7 b7 09 1c
        E 7 b7 09 0e
        E 7 b7 09 0a
        E 7 b7 09 0d
        E 7 b7 09 27
        E 7 b7 09 17
        E 7 b7 09 0c
        E 7 b7 09 1d
        E 7 b7 09 32
        E 7 b7 09 00
        E 7 b7 09 06
        E 7 b7 09 14
        E 7 b7 09 11
        E 7 b7 09 29
        E 7 b7 09 0a
        E 7 b7 09 03
        E 7 b7 09 08
        E 7 b7 09 08
        E 7 b7 09 2e
        E 7 b7 09 0c
        E 7 b7 09 00
        E 7 b7 09 25
        E 7 b7 09 11
        E 7 b7 09 0a
        E 7 b7 09 14
        E 7 b7 09 0d
        E 7 b7 09 2b
        E 7 b7 09 2a
        E 7 b7 09 32
        E 7 b7 09 2a
        E 7 b7 09 16
        E 7 b7 09 2f
        E 7 b7 09 24
        E 7 b7 09 06
        E 7 b7 09 16
        E 7 b7 09 1b
        E 7 b7 09 30
        E 7 b7 09 26
        E 7 b7 09 1b
        E 7 b7 09 1c
        E 7 b7 09 02
        E 7 b7 09 05
        E 7 b7 09 2e
        E 7 b7 09 28
        E 7 b7 09 15
        E 7 b7 09 10
        E 7 b7 09 06
        E 7 b7 09 16
        E 7 b7 09 0f
        E 7 b7 09 0c
        E 7 b7 09 13
        E 7 b7 09 1a
        E 7 b7 09 1e
        E 7 b7 09 20
        E 7 b7 09 08
        E 7 b7 09 1e
        E 7 b7 09 2d
        E 7 b7 09 1a
        E 7 b7 09 1d
        E 7 b7 09 01
        E 7 b7 09 03
        E 7 b7 09 32
        E 7 b7 09 21
        E 7 b7 09 09
        E 7 b7 09 2e
        E 7 b7 09 10
        E 7 b7 09 13
        E 7 b7 09 18
        E 7 b7 09 14
        E 7 b7 09 22
        E 7 b7 09 29
        E 7 b7 09 0e
        E 7 b7 09 1c
        E 7 b7 09 0b
        E 7 b7 09 2d
        E 7 b7 09 2a
        E 7 b7 09 17
        E 7 b7 09 12
        E 7 b7 09 28
        E 7 b7 09 12
        E 7 b7 09 23
        E 7 b7 09 07
        E 7 b7 09 00
        E 7 b7 09 10
        E 7 b7 09 19
        E 7 b7 09 2b
        E 7 b7 09 27
        E 7 b7 09 01
        E 7 b7 09 2c
        E 7 b7 09 25
        E 7 b7 09 02
        E 7 b7 09 0f
        E 7 b7 09 1e
        E 7 b7 09 26
        E 7 b7 09 30
        E 7 b7 09 1f
        E 7 b7 09 15
        E 7 b7 09 0e
        E 7 b7 09 23
        E 7 b7 09 24
        E 7 b7 09 2c
        E 7 b7 09 31
        E 7 b7 09 18
        E 7 b7 09 20
        E 7 b7 09 22
        E 7 b7 09 1a
        E 7 b7 09 2f
        E 7 b7 09 07
        E 7 b7 09 12
        E 7 b7 09 21
        E 23 b7 09 16
        E 23 b7 09 4c
        E 23 b7 09 32
        E 23 b7 09 07
        E 23 b7 09 48
        E 23 b7 09 3f
        E 23 b7 09 09
        E 23 b7 09 08
        E 23 b7 09 30
        E 23 b7 09 5f
        E 23 b7 09 50
        E 23 b7 09 58
        E 23 b7 09 3f
        E 23 b7 09 0b
        E 23 b7 09 13
        E 23 b7 09 44
        E 23 b7 09 37
        E 23 b7 09 1c
        E 23 b7 09 14
        E 23 b7 09 1b
        E 23 b7 09 4f
        E 23 b7 09 2f
        E 23 b7 09 17
        E 23 b7 09 3a
        E 23 b7 09 64
        E 23 b7 09 00
        E 23 b7 09 0c
        E 23 b7 09 29
        E 23 b7 09 22
        E 23 b7 09 53
        E 23 b7 09 15
        E 23 b7 09 06
        E 23 b7 09 0f
        E 23 b7 09 11
        E 23 b7 09 5b
        E 23 b7 09 19
        E 23 b7 09 00
        E 23 b7 09 4b
        E 23 b7 09 23
        E 23 b7 09 14
        E 23 b7 09 28
        E 23 b7 09 1a
        E 23 b7 09 56
        E 23 b7 09 55
        E 23 b7 09 65
        E 23 b7 09 54
        E 23 b7 09 2b
        E 23 b7 09 5e
        E 23 b7 09 48
        E 23 b7 09 0b
        E 23 b7 09 2c
        E 23 b7 09 36
        E 23 b7 09 60
        E 23 b7 09 4d
        E 23 b7 09 37
        E 23 b7 09 38
        E 23 b7 09 04
        E 23 b7 09 0a
        E 23 b7 09 5d
        E 23 b7 09 51
        E 23 b7 09 2b
        E 23 b7 09 1f
        E 23 b7 09 0d
        E 23 b7 09 2d
        E 23 b7 09 1e
        E 23 b7 09 18
        E 23 b7 09 26
        E 23 b7 09 34
        E 23 b7 09 3d
        E 23 b7 09 41
        E 23 b7 09 10
        E 23 b7 09 3c
        E 23 b7 09 5a
        E 23 b7 09 33
        E 23 b7 09 3b
        E 23 b7 09 02
        E 23 b7 09 07
        E 23 b7 09 63
        E 23 b7 09 42
        E 23 b7 09 12
        E 23 b7 09 5c
        E 23 b7 09 20
        E 23 b7 09 27
        E 23 b7 09 31
        E 23 b7 09 28
        E 23 b7 09 44
        E 23 b7 09 52
        E 23 b7 09 1d
        E 23 b7 09 39
        E 23 b7 09 17
        E 23 b7 09 5b
        E 23 b7 09 54
        E 23 b7 09 2e
        E 23 b7 09 24
        E 23 b7 09 50
        E 23 b7 09 25
        E 23 b7 09 47
        E 23 b7 09 0e
        E 23 b7 09 01
        E 23 b7 09 21
        E 23 b7 09 33
        E 23 b7 09 57
        E 23 b7 09 4e
        E 23 b7 09 03
        E 23 b7 09 57
        E 23 b7 09 4a
        E 23 b7 09 05
        E 23 b7 09 1f
        E 23 b7 09 3b
        E 23 b7 09 4c
        E 23 b7 09 61
        E 23 b7 09 3e
        E 23 b7 09 2a
        E 23 b7 09 1b
        E 23 b7 09 46
        E 23 b7 09 49
        E 23 b7 09 59
        E 23 b7 09 63
        E 23 b7 09 2f
        E 23 b7 09 40
        E 23 b7 09 45
        E 23 b7 09 35
        E 23 b7 09 5f
        E 23 b7 09 0f
        E 23 b7 09 24
        E 23 b7 09 43
        E 71 b7 09 16
        E 71 b7 09 4c
        E 71 b7 09 32
        E 71 b7 09 07
        E 71 b7 09 48
        E 71 b7 09 3f
        E 71 b7 09 09
        E 71 b7 09 08
        E 71 b7 09 30
        E 71 b7 09 5f
        E 71 b7 09 50
        E 71 b7 09 58
        E 71 b7 09 3f
        E 71 b7 09 0b
        E 71 b7 09 13
        E 71 b7 09 44
        E 71 b7 09 37
        E 71 b7 09 1c
        E 71 b7 09 14
        E 71 b7 09 1b
        E 71 b7 09 4f
        E 71 b7 09 2f
        E 71 b7 09 17
        E 71 b7 09 3a
        E 71 b7 09 64
        E 71 b7 09 00
        E 71 b7 09 0c
        E 71 b7 09 29
        E 71 b7 09 22
        E 71 b7 09 53
        E 71 b7 09 15
        E 71 b7 09 06
        E 71 b7 09 0f
        E 71 b7 09 11
        E 71 b7 09 5b
        E 71 b7 09 19
        E 71 b7 09 00
        E 71 b7 09 4b
        E 71 b7 09 23
        E 71 b7 09 14
        E 71 b7 09 28
        E 71 b7 09 1a
        E 71 b7 09 56
        E 71 b7 09 55
        E 71 b7 09 65
        E 71 b7 09 54
        E 71 b7 09 2b
        E 71 b7 09 5e
        E 71 b7 09 48
        E 71 b7 09 0b
        E 71 b7 09 2c
        E 71 b7 09 36
        E 71 b7 09 60
        E 71 b7 09 4d
        E 71 b7 09 37
        E 71 b7 09 38
        E 71 b7 09 04
        E 71 b7 09 0a
        E 71 b7 09 5d
        E 71 b7 09 51
        E 71 b7 09 2b
        E 71 b7 09 1f
        E 71 b7 09 0d
        E 71 b7 09 2d
        E 71 b7 09 1e
        E 71 b7 09 18
        E 71 b7 09 26
        E 71 b7 09 34
        E 71 b7 09 3d
        E 71 b7 09 41
        E 71 b7 09 10
        E 71 b7 09 3c
        E 71 b7 09 5a
        E 71 b7 09 33
        E 71 b7 09 3b
        E 71 b7 09 02
        E 71 b7 09 07
        E 71 b7 09 63
        E 71 b7 09 42
        E 71 b7 09 12
        E 71 b7 09 5c
        E 71 b7 09 20
        E 71 b7 09 27
        E 71 b7 09 31
        E 71 b7 09 28
        E 71 b7 09 44
        E 71 b7 09 52
        E 71 b7 09 1d
        E 71 b7 09 39
        E 71 b7 09 17
        E 71 b7 09 5b
        E 71 b7 09 54
        E 71 b7 09 2e
        E 71 b7 09 24
        E 71 b7 09 50
        E 71 b7 09 25
        E 71 b7 09 47
        E 71 b7 09 0e
        E 71 b7 09 01
        E 71 b7 09 21
        E 71 b7 09 33
        E 71 b7 09 57
        E 71 b7 09 4e
        E 71 b7 09 03
        E 71 b7 09 57
        E 71 b7 09 4a
        E 71 b7 09 05
        E 71 b7 09 1f
        E 71 b7 09 3b
        E 71 b7 09 4c
        E 71 b7 09 61
        E 71 b7 09 3e
        E 71 b7 09 2a
        E 71 b7 09 1b
        E 71 b7 09 46
        E 71 b7 09 49
        E 71 b7 09 59
        E 71 b7 09 63
        E 71 b7 09 2f
        E 71 b7 09 40
        E 71 b7 09 45
        E 71 b7 09 35
        E 71 b7 09 5f
        E 71 b7 09 0f
        E 71 b7 09 24
        E 71 b7 09 43
        E 15 b7 09 10
        E 15 b7 09 39
        E 15 b7 09 25
        E 15 b7 09 06
        E 15 b7 09 36
        E 15 b7 09 30
        E 15 b7 09 07
        E 15 b7 09 06
        E 15 b7 09 24
        E 15 b7 09 48
        E 15 b7 09 3c
        E 15 b7 09 42
        E 15 b7 09 2f
        E 15 b7 09 08
        E 15 b7 09 0e
        E 15 b7 09 33
        E 15 b7 09 2a
        E 15 b7 09 15
        E 15 b7 09 0f
        E 15 b7 09 14
        E 15 b7 09 3b
        E 15 b7 09 23
        E 15 b7 09 12
        E 15 b7 09 2b
        E 15 b7 09 4b
        E 15 b7 09 00
        E 15 b7 09 09
        E 15 b7 09 1f
        E 15 b7 09 19
        E 15 b7 09 3e
        E 15 b7 09 10
        E 15 b7 09 04
        E 15 b7 09 0c
        E 15 b7 09 0d
        E 15 b7 09 45
        E 15 b7 09 13
        E 15 b7 09 00
        E 15 b7 09 38
        E 15 b7 09 1a
        E 15 b7 09 0f
        E 15 b7 09 1e
        E 15 b7 09 13
        E 15 b7 09 40
        E 15 b7 09 40
        E 15 b7 09 4c
        E 15 b7 09 3f
        E 15 b7 09 21
        E 15 b7 09 46
        E 15 b7 09 36
        E 15 b7 09 09
        E 15 b7 09 21
        E 15 b7 09 28
        E 15 b7 09 48
        E 15 b7 09 3a
        E 15 b7 09 29
        E 15 b7 09 2a
        E 15 b7 09 03
        E 15 b7 09 07
        E 15 b7 09 46
        E 15 b7 09 3d
        E 15 b7 09 20
        E 15 b7 09 18
        E 15 b7 09 0a
        E 15 b7 09 22
        E 15 b7 09 16
        E 15 b7 09 12
        E 15 b7 09 1c
        E 15 b7 09 27
        E 15 b7 09 2e
        E 15 b7 09 31
        E 15 b7 09 0c
        E 15 b7 09 2d
        E 15 b7 09 43
        E 15 b7 09 27
        E 15 b7 09 2c
        E 15 b7 09 01
        E 15 b7 09 05
        E 15 b7 09 4b
        E 15 b7 09 31
        E 15 b7 09 0d
        E 15 b7 09 45
        E 15 b7 09 18
        E 15 b7 09 1d
        E 15 b7 09 25
        E 15 b7 09 1e
        E 15 b7 09 33
        E 15 b7 09 3d
        E 15 b7 09 16
        E 15 b7 09 2b
        E 15 b7 09 11
        E 15 b7 09 44
        E 15 b7 09 3f
        E 15 b7 09 22
        E 15 b7 09 1b
        E 15 b7 09 3c
        E 15 b7 09 1c
        E 15 b7 09 35
        E 15 b7 09 0a
        E 15 b7 09 01
        E 15 b7 09 19
        E 15 b7 09 26
        E 15 b7 09 41
        E 15 b7 09 3a
        E 15 b7 09 02
        E 15 b7 09 42
        E 15 b7 09 37
        E 15 b7 09 04
        E 15 b7 09 17
        E 15 b7 09 2d
        E 15 b7 09 39
        E 15 b7 09 49
        E 15 b7 09 2e
        E 15 b7 09 1f
        E 15 b7 09 15
        E 15 b7 09 34
        E 15 b7 09 37
        E 15 b7 09 43
        E 15 b7 09 4a
        E 15 b7 09 24
        E 15 b7 09 30
        E 15 b7 09 34
        E 15 b7 09 28
        E 15 b7 09 47
        E 15 b7 09 0b
        E 15 b7 09 1b
        E 15 b7 09 32
        E 25 b0 7b 00
        CCINTERP 32
        CHASE_CC_TAKEOFFS 1
        GUID {D93AA025-1287-7341-AEC8-2E7A13F4DFF2}
        IGNTEMPO 0 120 4 4
        SRCCOLOR 153
        VELLANE 3 601 0
        VELLANE -1 196 0
        CFGEDITVIEW 0 0.008186 62 12 0 -1 0 0 0 0.5
        KEYSNAP 0
        TRACKSEL 252
        EVTFILTER 0 -1 -1 -1 -1 0 0 0 0 -1 -1 -1 -1 0 -1 0 -1 -1
        CFGEDIT 1 1 0 1 0 0 1 1 1 1 1 0.125 0 0 1792 1095 0 0 0 0 0 0 0 0 0 0.5 0 0 1 64
      >
    >
  >
  <TRACK {47C2841B-BB36-874E-9569-8CF0E9A964FE}
    NAME "germ-x hand sanitizer"
    PEAKCOL 16576
    BEAT -1
    AUTOMODE 0
    VOLPAN 1 0 -1 -1 1
    MUTESOLO 0 0 0
    IPHASE 0
    PLAYOFFS 0 1
    ISBUS 0 0
    BUSCOMP 0 0 0 0 0
    SHOWINMIX 1 0.6667 0.5 1 0.5 -1 -1 -1
    FREEMODE 0
    SEL 0
    REC 0 0 1 0 0 0 0
    VU 2
    TRACKHEIGHT 0 1 0 0 -1 0
    INQ 0 0 0 0.5 100 0 0 100
    NCHAN 2
    FX 1
    TRACKID {47C2841B-BB36-874E-9569-8CF0E9A964FE}
    PERF 0
    MIDIOUT -1
    MAINSEND 1 0
    <ITEM
      POSITION 0
      SNAPOFFS 0
      LENGTH 725.40468
      LOOP 1
      ALLTAKES 0
      FADEIN 1 0 0 1 0 0
      FADEOUT 1 0 0 1 0 0
      MUTE 0 0
      SEL 0
      IGUID {A4CADBA7-B15F-3C4D-A13C-E7E6F8FFB715}
      IID 21
      NAME "germ-x hand sanitizer.mid"
      VOLPAN 1 0 1 -1
      SOFFS 0 0
      PLAYRATE 1 1 0 -1 0 0.0025
      CHANMODE 0
      GUID {66F0F77B-72DF-3446-9A5A-C40D054AF9C0}
      <SOURCE MIDI
        HASDATA 1 128 QN
        CCINTERP 32
        POOLEDEVTS {1ABB5804-27AF-054B-AD44-FE41BC45FA8C}
        E 9 b8 07 13
        E 9 b8 07 14
        E 9 b8 07 15
        E 9 b8 07 15
        E 9 b8 07 16
        E 9 b8 07 17
        E 9 b8 07 18
        E 9 b8 07 19
        E 9 b8 07 1a
        E 9 b8 07 1b
        E 9 b8 07 1c
        E 9 b8 07 1c
        E 9 b8 07 1d
        E 9 b8 07 1e
        E 9 b8 07 1f
        E 9 b8 07 1f
        E 9 b8 07 20
        E 9 b8 07 21
        E 9 b8 07 21
        E 9 b8 07 22
        E 9 b8 07 23
        E 9 b8 07 23
        E 9 b8 07 24
        E 9 b8 07 24
        E 9 b8 07 24
        E 9 b8 07 24
        E 9 b8 07 25
        E 9 b8 07 25
        E 9 b8 07 25
        E 9 b8 07 25
        E 9 b8 07 26
        E 9 b8 07 26
        E 9 b8 07 26
        E 9 b8 07 26
        E 9 b8 07 26
        E 9 b8 07 25
        E 9 b8 07 25
        E 9 b8 07 25
        E 9 b8 07 25
        E 9 b8 07 24
        E 9 b8 07 24
        E 9 b8 07 24
        E 9 b8 07 23
        E 9 b8 07 23
        E 9 b8 07 22
        E 9 b8 07 22
        E 9 b8 07 21
        E 9 b8 07 21
        E 9 b8 07 20
        E 9 b8 07 1f
        E 9 b8 07 1e
        E 9 b8 07 1e
        E 9 b8 07 1d
        E 9 b8 07 1c
        E 9 b8 07 1b
        E 9 b8 07 1a
        E 9 b8 07 1a
        E 9 b8 07 19
        E 9 b8 07 18
        E 9 b8 07 17
        E 9 b8 07 16
        E 9 b8 07 15
        E 9 b8 07 14
        E 9 b8 07 13
        E 9 b8 07 12
        E 9 b8 07 11
        E 9 b8 07 10
        E 9 b8 07 0f
        E 9 b8 07 0e
        E 9 b8 07 0d
        E 9 b8 07 0c
        E 9 b8 07 0c
        E 9 b8 07 0b
        E 9 b8 07 0a
        E 9 b8 07 09
        E 9 b8 07 08
        E 9 b8 07 08
        E 9 b8 07 07
        E 9 b8 07 06
        E 9 b8 07 05
        E 9 b8 07 05
        E 9 b8 07 04
        E 9 b8 07 03
        E 9 b8 07 03
        E 9 b8 07 03
        E 9 b8 07 02
        E 9 b8 07 02
        E 9 b8 07 01
        E 9 b8 07 01
        E 9 b8 07 00
        E 9 b8 07 00
        E 9 b8 07 00
        E 9 b8 07 00
        E 9 b8 07 00
        E 9 b8 07 00
        E 9 b8 07 00
        E 9 b8 07 00
        E 9 b8 07 00
        E 9 b8 07 00
        E 9 b8 07 00
        E 9 b8 07 00
        E 9 b8 07 00
        E 9 b8 07 01
        E 9 b8 07 01
        E 9 b8 07 01
        E 9 b8 07 02
        E 9 b8 07 02
        E 9 b8 07 03
        E 9 b8 07 03
        E 9 b8 07 04
        E 9 b8 07 04
        E 9 b8 07 05
        E 9 b8 07 06
        E 9 b8 07 06
        E 9 b8 07 07
        E 9 b8 07 08
        E 9 b8 07 09
        E 9 b8 07 09
        E 9 b8 07 0a
        E 9 b8 07 0b
        E 9 b8 07 0c
        E 9 b8 07 0d
        E 9 b8 07 0e
        E 9 b8 07 0f
        E 9 b8 07 10
        E 9 b8 07 11
        E 9 b8 07 12
        E 9 b8 07 13
        E 7 b8 07 39
        E 7 b8 07 3c
        E 7 b8 07 3f
        E 7 b8 07 41
        E 7 b8 07 44
        E 7 b8 07 47
        E 7 b8 07 49
        E 7 b8 07 4c
        E 7 b8 07 4f
        E 7 b8 07 51
        E 7 b8 07 54
        E 7 b8 07 56
        E 7 b8 07 59
        E 7 b8 07 5b
        E 7 b8 07 5d
        E 7 b8 07 5f
        E 7 b8 07 62
        E 7 b8 07 63
        E 7 b8 07 65
        E 7 b8 07 67
        E 7 b8 07 69
        E 7 b8 07 6a
        E 7 b8 07 6c
        E 7 b8 07 6c
        E 7 b8 07 6d
        E 7 b8 07 6e
        E 7 b8 07 6f
        E 7 b8 07 70
        E 7 b8 07 71
        E 7 b8 07 71
        E 7 b8 07 72
        E 7 b8 07 72
        E 7 b8 07 72
        E 7 b8 07 72
        E 7 b8 07 72
        E 7 b8 07 71
        E 7 b8 07 71
        E 7 b8 07 70
        E 7 b8 07 6f
        E 7 b8 07 6e
        E 7 b8 07 6d
        E 7 b8 07 6c
        E 7 b8 07 6b
        E 7 b8 07 69
        E 7 b8 07 68
        E 7 b8 07 66
        E 7 b8 07 64
        E 7 b8 07 63
        E 7 b8 07 61
        E 7 b8 07 5e
        E 7 b8 07 5c
        E 7 b8 07 5a
        E 7 b8 07 58
        E 7 b8 07 55
        E 7 b8 07 52
        E 7 b8 07 50
        E 7 b8 07 4e
        E 7 b8 07 4b
        E 7 b8 07 48
        E 7 b8 07 46
        E 7 b8 07 42
        E 7 b8 07 3f
        E 7 b8 07 3d
        E 7 b8 07 3a
        E 7 b8 07 37
        E 7 b8 07 35
        E 7 b8 07 32
        E 7 b8 07 2f
        E 7 b8 07 2c
        E 7 b8 07 29
        E 7 b8 07 26
        E 7 b8 07 24
        E 7 b8 07 22
        E 7 b8 07 1f
        E 7 b8 07 1c
        E 7 b8 07 1a
        E 7 b8 07 18
        E 7 b8 07 15
        E 7 b8 07 13
        E 7 b8 07 11
        E 7 b8 07 0f
        E 7 b8 07 0d
        E 7 b8 07 0b
        E 7 b8 07 09
        E 7 b8 07 09
        E 7 b8 07 07
        E 7 b8 07 06
        E 7 b8 07 04
        E 7 b8 07 03
        E 7 b8 07 02
        E 7 b8 07 01
        E 7 b8 07 00
        E 7 b8 07 00
        E 7 b8 07 00
        E 7 b8 07 00
        E 7 b8 07 00
        E 7 b8 07 00
        E 7 b8 07 00
        E 7 b8 07 00
        E 7 b8 07 00
        E 7 b8 07 01
        E 7 b8 07 02
        E 7 b8 07 03
        E 7 b8 07 04
        E 7 b8 07 05
        E 7 b8 07 06
        E 7 b8 07 08
        E 7 b8 07 09
        E 7 b8 07 0a
        E 7 b8 07 0c
        E 7 b8 07 0e
        E 7 b8 07 10
        E 7 b8 07 12
        E 7 b8 07 14
        E 7 b8 07 16
        E 7 b8 07 19
        E 7 b8 07 1b
        E 7 b8 07 1d
        E 7 b8 07 20
        E 7 b8 07 23
        E 7 b8 07 25
        E 7 b8 07 28
        E 7 b8 07 2b
        E 7 b8 07 2d
        E 7 b8 07 30
        E 7 b8 07 33
        E 7 b8 07 36
        E 7 b8 07 39
        E 16 b8 07 01
        E 16 b8 07 02
        E 16 b8 07 03
        E 16 b8 07 04
        E 16 b8 07 05
        E 16 b8 07 06
        E 16 b8 07 07
        E 16 b8 07 08
        E 16 b8 07 09
        E 16 b8 07 0a
        E 16 b8 07 0b
        E 16 b8 07 0c
        E 16 b8 07 0d
        E 16 b8 07 0e
        E 16 b8 07 0f
        E 16 b8 07 10
        E 16 b8 07 11
        E 16 b8 07 12
        E 16 b8 07 13
        E 16 b8 07 14
        E 16 b8 07 15
        E 16 b8 07 16
        E 16 b8 07 17
        E 16 b8 07 18
        E 16 b8 07 19
        E 16 b8 07 1a
        E 16 b8 07 1b
        E 16 b8 07 1c
        E 16 b8 07 1d
        E 16 b8 07 1e
        E 16 b8 07 1f
        E 16 b8 07 20
        E 16 b8 07 21
        E 16 b8 07 22
        E 16 b8 07 23
        E 16 b8 07 24
        E 16 b8 07 25
        E 16 b8 07 26
        E 16 b8 07 27
        E 16 b8 07 28
        E 16 b8 07 29
        E 16 b8 07 2a
        E 16 b8 07 2b
        E 16 b8 07 2c
        E 16 b8 07 2d
        E 16 b8 07 2e
        E 16 b8 07 2f
        E 16 b8 07 30
        E 16 b8 07 31
        E 16 b8 07 32
        E 16 b8 07 33
        E 16 b8 07 34
        E 16 b8 07 35
        E 16 b8 07 36
        E 16 b8 07 37
        E 16 b8 07 38
        E 16 b8 07 39
        E 16 b8 07 3a
        E 16 b8 07 3b
        E 16 b8 07 3c
        E 16 b8 07 3d
        E 16 b8 07 3e
        E 16 b8 07 3f
        E 16 b8 07 3f
        E 16 b8 07 3f
        E 16 b8 07 3e
        E 16 b8 07 3d
        E 16 b8 07 3c
        E 16 b8 07 3b
        E 16 b8 07 3a
        E 16 b8 07 39
        E 16 b8 07 38
        E 16 b8 07 37
        E 16 b8 07 36
        E 16 b8 07 35
        E 16 b8 07 34
        E 16 b8 07 33
        E 16 b8 07 32
        E 16 b8 07 31
        E 16 b8 07 30
        E 16 b8 07 2f
        E 16 b8 07 2e
        E 16 b8 07 2d
        E 16 b8 07 2c
        E 16 b8 07 2b
        E 16 b8 07 2a
        E 16 b8 07 29
        E 16 b8 07 28
        E 16 b8 07 27
        E 16 b8 07 26
        E 16 b8 07 25
        E 16 b8 07 24
        E 16 b8 07 23
        E 16 b8 07 22
        E 16 b8 07 21
        E 16 b8 07 20
        E 16 b8 07 1f
        E 16 b8 07 1e
        E 16 b8 07 1d
        E 16 b8 07 1c
        E 16 b8 07 1b
        E 16 b8 07 1a
        E 16 b8 07 19
        E 16 b8 07 18
        E 16 b8 07 17
        E 16 b8 07 16
        E 16 b8 07 15
        E 16 b8 07 14
        E 16 b8 07 13
        E 16 b8 07 12
        E 16 b8 07 11
        E 16 b8 07 10
        E 16 b8 07 0f
        E 16 b8 07 0e
        E 16 b8 07 0d
        E 16 b8 07 0c
        E 16 b8 07 0b
        E 16 b8 07 0a
        E 16 b8 07 09
        E 16 b8 07 08
        E 16 b8 07 07
        E 16 b8 07 06
        E 16 b8 07 05
        E 16 b8 07 04
        E 16 b8 07 03
        E 16 b8 07 02
        E 16 b8 07 01
        E 16 b8 07 00
        E 31 b8 07 00
        E 31 b8 07 00
        E 31 b8 07 00
        E 31 b8 07 00
        E 31 b8 07 01
        E 31 b8 07 01
        E 31 b8 07 01
        E 31 b8 07 01
        E 31 b8 07 01
        E 31 b8 07 02
        E 31 b8 07 02
        E 31 b8 07 02
        E 31 b8 07 02
        E 31 b8 07 02
        E 31 b8 07 03
        E 31 b8 07 03
        E 31 b8 07 03
        E 31 b8 07 03
        E 31 b8 07 03
        E 31 b8 07 04
        E 31 b8 07 04
        E 31 b8 07 04
        E 31 b8 07 04
        E 31 b8 07 04
        E 31 b8 07 05
        E 31 b8 07 05
        E 31 b8 07 05
        E 31 b8 07 05
        E 31 b8 07 05
        E 31 b8 07 06
        E 31 b8 07 06
        E 31 b8 07 06
        E 31 b8 07 06
        E 31 b8 07 06
        E 31 b8 07 07
        E 31 b8 07 07
        E 31 b8 07 07
        E 31 b8 07 07
        E 31 b8 07 07
        E 31 b8 07 08
        E 31 b8 07 08
        E 31 b8 07 08
        E 31 b8 07 08
        E 31 b8 07 08
        E 31 b8 07 09
        E 31 b8 07 09
        E 31 b8 07 09
        E 31 b8 07 09
        E 31 b8 07 09
        E 31 b8 07 0a
        E 31 b8 07 0a
        E 31 b8 07 0a
        E 31 b8 07 0a
        E 31 b8 07 0a
        E 31 b8 07 0b
        E 31 b8 07 0b
        E 31 b8 07 0b
        E 31 b8 07 0b
        E 31 b8 07 0b
        E 31 b8 07 0c
        E 31 b8 07 0c
        E 31 b8 07 0c
        E 31 b8 07 0c
        E 31 b8 07 0c
        E 31 b8 07 0c
        E 31 b8 07 0c
        E 31 b8 07 0c
        E 31 b8 07 0c
        E 31 b8 07 0b
        E 31 b8 07 0b
        E 31 b8 07 0b
        E 31 b8 07 0b
        E 31 b8 07 0b
        E 31 b8 07 0a
        E 31 b8 07 0a
        E 31 b8 07 0a
        E 31 b8 07 0a
        E 31 b8 07 0a
        E 31 b8 07 09
        E 31 b8 07 09
        E 31 b8 07 09
        E 31 b8 07 09
        E 31 b8 07 09
        E 31 b8 07 08
        E 31 b8 07 08
        E 31 b8 07 08
        E 31 b8 07 08
        E 31 b8 07 08
        E 31 b8 07 07
        E 31 b8 07 07
        E 31 b8 07 07
        E 31 b8 07 07
        E 31 b8 07 07
        E 31 b8 07 06
        E 31 b8 07 06
        E 31 b8 07 06
        E 31 b8 07 06
        E 31 b8 07 06
        E 31 b8 07 05
        E 31 b8 07 05
        E 31 b8 07 05
        E 31 b8 07 05
        E 31 b8 07 05
        E 31 b8 07 04
        E 31 b8 07 04
        E 31 b8 07 04
        E 31 b8 07 04
        E 31 b8 07 04
        E 31 b8 07 03
        E 31 b8 07 03
        E 31 b8 07 03
        E 31 b8 07 03
        E 31 b8 07 03
        E 31 b8 07 02
        E 31 b8 07 02
        E 31 b8 07 02
        E 31 b8 07 02
        E 31 b8 07 02
        E 31 b8 07 01
        E 31 b8 07 01
        E 31 b8 07 01
        E 31 b8 07 01
        E 31 b8 07 01
        E 31 b8 07 00
        E 31 b8 07 00
        E 31 b8 07 00
        E 31 b8 07 00
        E 31 b8 07 00
        E 31 b8 07 00
        E 31 b8 07 01
        E 31 b8 07 01
        E 31 b8 07 02
        E 31 b8 07 03
        E 31 b8 07 03
        E 31 b8 07 04
        E 31 b8 07 04
        E 31 b8 07 05
        E 31 b8 07 06
        E 31 b8 07 06
        E 31 b8 07 07
        E 31 b8 07 07
        E 31 b8 07 08
        E 31 b8 07 09
        E 31 b8 07 09
        E 31 b8 07 0a
        E 31 b8 07 0a
        E 31 b8 07 0b
        E 31 b8 07 0c
        E 31 b8 07 0c
        E 31 b8 07 0d
        E 31 b8 07 0d
        E 31 b8 07 0e
        E 31 b8 07 0f
        E 31 b8 07 0f
        E 31 b8 07 10
        E 31 b8 07 10
        E 31 b8 07 11
        E 31 b8 07 12
        E 31 b8 07 12
        E 31 b8 07 13
        E 31 b8 07 13
        E 31 b8 07 14
        E 31 b8 07 15
        E 31 b8 07 15
        E 31 b8 07 16
        E 31 b8 07 16
        E 31 b8 07 17
        E 31 b8 07 18
        E 31 b8 07 18
        E 31 b8 07 19
        E 31 b8 07 19
        E 31 b8 07 1a
        E 31 b8 07 1b
        E 31 b8 07 1b
        E 31 b8 07 1c
        E 31 b8 07 1c
        E 31 b8 07 1d
        E 31 b8 07 1e
        E 31 b8 07 1e
        E 31 b8 07 1f
        E 31 b8 07 1f
        E 31 b8 07 20
        E 31 b8 07 21
        E 31 b8 07 21
        E 31 b8 07 22
        E 31 b8 07 22
        E 31 b8 07 23
        E 31 b8 07 24
        E 31 b8 07 24
        E 31 b8 07 25
        E 31 b8 07 25
        E 31 b8 07 26
        E 31 b8 07 25
        E 31 b8 07 25
        E 31 b8 07 24
        E 31 b8 07 24
        E 31 b8 07 23
        E 31 b8 07 22
        E 31 b8 07 22
        E 31 b8 07 21
        E 31 b8 07 21
        E 31 b8 07 20
        E 31 b8 07 1f
        E 31 b8 07 1f
        E 31 b8 07 1e
        E 31 b8 07 1e
        E 31 b8 07 1d
        E 31 b8 07 1c
        E 31 b8 07 1c
        E 31 b8 07 1b
        E 31 b8 07 1b
        E 31 b8 07 1a
        E 31 b8 07 19
        E 31 b8 07 19
        E 31 b8 07 18
        E 31 b8 07 18
        E 31 b8 07 17
        E 31 b8 07 16
        E 31 b8 07 16
        E 31 b8 07 15
        E 31 b8 07 15
        E 31 b8 07 14
        E 31 b8 07 13
        E 31 b8 07 13
        E 31 b8 07 12
        E 31 b8 07 12
        E 31 b8 07 11
        E 31 b8 07 10
        E 31 b8 07 10
        E 31 b8 07 0f
        E 31 b8 07 0f
        E 31 b8 07 0e
        E 31 b8 07 0d
        E 31 b8 07 0d
        E 31 b8 07 0c
        E 31 b8 07 0c
        E 31 b8 07 0b
        E 31 b8 07 0a
        E 31 b8 07 0a
        E 31 b8 07 09
        E 31 b8 07 09
        E 31 b8 07 08
        E 31 b8 07 07
        E 31 b8 07 07
        E 31 b8 07 06
        E 31 b8 07 06
        E 31 b8 07 05
        E 31 b8 07 04
        E 31 b8 07 04
        E 31 b8 07 03
        E 31 b8 07 03
        E 31 b8 07 02
        E 31 b8 07 01
        E 31 b8 07 01
        E 31 b8 07 00
        E 31 b8 07 00
        E 24 b8 07 01
        E 24 b8 07 03
        E 24 b8 07 05
        E 24 b8 07 07
        E 24 b8 07 09
        E 24 b8 07 0a
        E 24 b8 07 0c
        E 24 b8 07 0e
        E 24 b8 07 10
        E 24 b8 07 12
        E 24 b8 07 13
        E 24 b8 07 15
        E 24 b8 07 17
        E 24 b8 07 19
        E 24 b8 07 1b
        E 24 b8 07 1c
        E 24 b8 07 1e
        E 24 b8 07 20
        E 24 b8 07 22
        E 24 b8 07 24
        E 24 b8 07 25
        E 24 b8 07 27
        E 24 b8 07 29
        E 24 b8 07 2b
        E 24 b8 07 2d
        E 24 b8 07 2e
        E 24 b8 07 30
        E 24 b8 07 32
        E 24 b8 07 34
        E 24 b8 07 36
        E 24 b8 07 37
        E 24 b8 07 39
        E 24 b8 07 3b
        E 24 b8 07 3d
        E 24 b8 07 3f
        E 24 b8 07 40
        E 24 b8 07 42
        E 24 b8 07 44
        E 24 b8 07 46
        E 24 b8 07 48
        E 24 b8 07 49
        E 24 b8 07 4b
        E 24 b8 07 4d
        E 24 b8 07 4f
        E 24 b8 07 51
        E 24 b8 07 52
        E 24 b8 07 54
        E 24 b8 07 56
        E 24 b8 07 58
        E 24 b8 07 5a
        E 24 b8 07 5b
        E 24 b8 07 5d
        E 24 b8 07 5f
        E 24 b8 07 61
        E 24 b8 07 63
        E 24 b8 07 64
        E 24 b8 07 66
        E 24 b8 07 68
        E 24 b8 07 6a
        E 24 b8 07 6c
        E 24 b8 07 6d
        E 24 b8 07 6f
        E 24 b8 07 71
        E 24 b8 07 72
        E 24 b8 07 71
        E 24 b8 07 6f
        E 24 b8 07 6d
        E 24 b8 07 6c
        E 24 b8 07 6a
        E 24 b8 07 68
        E 24 b8 07 66
        E 24 b8 07 64
        E 24 b8 07 63
        E 24 b8 07 61
        E 24 b8 07 5f
        E 24 b8 07 5d
        E 24 b8 07 5b
        E 24 b8 07 5a
        E 24 b8 07 58
        E 24 b8 07 56
        E 24 b8 07 54
        E 24 b8 07 52
        E 24 b8 07 51
        E 24 b8 07 4f
        E 24 b8 07 4d
        E 24 b8 07 4b
        E 24 b8 07 49
        E 24 b8 07 48
        E 24 b8 07 46
        E 24 b8 07 44
        E 24 b8 07 42
        E 24 b8 07 40
        E 24 b8 07 3f
        E 24 b8 07 3d
        E 24 b8 07 3b
        E 24 b8 07 39
        E 24 b8 07 37
        E 24 b8 07 36
        E 24 b8 07 34
        E 24 b8 07 32
        E 24 b8 07 30
        E 24 b8 07 2e
        E 24 b8 07 2d
        E 24 b8 07 2b
        E 24 b8 07 29
        E 24 b8 07 27
        E 24 b8 07 25
        E 24 b8 07 24
        E 24 b8 07 22
        E 24 b8 07 20
        E 24 b8 07 1e
        E 24 b8 07 1c
        E 24 b8 07 1b
        E 24 b8 07 19
        E 24 b8 07 17
        E 24 b8 07 15
        E 24 b8 07 13
        E 24 b8 07 12
        E 24 b8 07 10
        E 24 b8 07 0e
        E 24 b8 07 0c
        E 24 b8 07 0a
        E 24 b8 07 09
        E 24 b8 07 07
        E 24 b8 07 05
        E 24 b8 07 03
        E 24 b8 07 01
        E 24 b8 07 00
        E 16 b8 07 00
        E 16 b8 07 00
        E 16 b8 07 01
        E 16 b8 07 01
        E 16 b8 07 02
        E 16 b8 07 02
        E 16 b8 07 02
        E 16 b8 07 03
        E 16 b8 07 03
        E 16 b8 07 04
        E 16 b8 07 04
        E 16 b8 07 04
        E 16 b8 07 05
        E 16 b8 07 05
        E 16 b8 07 06
        E 16 b8 07 06
        E 16 b8 07 06
        E 16 b8 07 07
        E 16 b8 07 07
        E 16 b8 07 08
        E 16 b8 07 08
        E 16 b8 07 08
        E 16 b8 07 09
        E 16 b8 07 09
        E 16 b8 07 0a
        E 16 b8 07 0a
        E 16 b8 07 0a
        E 16 b8 07 0b
        E 16 b8 07 0b
        E 16 b8 07 0c
        E 16 b8 07 0c
        E 16 b8 07 0c
        E 16 b8 07 0d
        E 16 b8 07 0d
        E 16 b8 07 0e
        E 16 b8 07 0e
        E 16 b8 07 0e
        E 16 b8 07 0f
        E 16 b8 07 0f
        E 16 b8 07 10
        E 16 b8 07 10
        E 16 b8 07 10
        E 16 b8 07 11
        E 16 b8 07 11
        E 16 b8 07 12
        E 16 b8 07 12
        E 16 b8 07 12
        E 16 b8 07 13
        E 16 b8 07 13
        E 16 b8 07 14
        E 16 b8 07 14
        E 16 b8 07 14
        E 16 b8 07 15
        E 16 b8 07 15
        E 16 b8 07 16
        E 16 b8 07 16
        E 16 b8 07 16
        E 16 b8 07 17
        E 16 b8 07 17
        E 16 b8 07 18
        E 16 b8 07 18
        E 16 b8 07 18
        E 16 b8 07 19
        E 16 b8 07 19
        E 16 b8 07 19
        E 16 b8 07 18
        E 16 b8 07 18
        E 16 b8 07 18
        E 16 b8 07 17
        E 16 b8 07 17
        E 16 b8 07 16
        E 16 b8 07 16
        E 16 b8 07 16
        E 16 b8 07 15
        E 16 b8 07 15
        E 16 b8 07 14
        E 16 b8 07 14
        E 16 b8 07 14
        E 16 b8 07 13
        E 16 b8 07 13
        E 16 b8 07 12
        E 16 b8 07 12
        E 16 b8 07 12
        E 16 b8 07 11
        E 16 b8 07 11
        E 16 b8 07 10
        E 16 b8 07 10
        E 16 b8 07 10
        E 16 b8 07 0f
        E 16 b8 07 0f
        E 16 b8 07 0e
        E 16 b8 07 0e
        E 16 b8 07 0e
        E 16 b8 07 0d
        E 16 b8 07 0d
        E 16 b8 07 0c
        E 16 b8 07 0c
        E 16 b8 07 0c
        E 16 b8 07 0b
        E 16 b8 07 0b
        E 16 b8 07 0a
        E 16 b8 07 0a
        E 16 b8 07 0a
        E 16 b8 07 09
        E 16 b8 07 09
        E 16 b8 07 08
        E 16 b8 07 08
        E 16 b8 07 08
        E 16 b8 07 07
        E 16 b8 07 07
        E 16 b8 07 06
        E 16 b8 07 06
        E 16 b8 07 06
        E 16 b8 07 05
        E 16 b8 07 05
        E 16 b8 07 04
        E 16 b8 07 04
        E 16 b8 07 04
        E 16 b8 07 03
        E 16 b8 07 03
        E 16 b8 07 02
        E 16 b8 07 02
        E 16 b8 07 02
        E 16 b8 07 01
        E 16 b8 07 01
        E 16 b8 07 00
        E 16 b8 07 00
        E 16 b8 07 00
        E 28 b8 07 01
        E 28 b8 07 03
        E 28 b8 07 05
        E 28 b8 07 07
        E 28 b8 07 09
        E 28 b8 07 0a
        E 28 b8 07 0c
        E 28 b8 07 0e
        E 28 b8 07 10
        E 28 b8 07 12
        E 28 b8 07 13
        E 28 b8 07 15
        E 28 b8 07 17
        E 28 b8 07 19
        E 28 b8 07 1b
        E 28 b8 07 1c
        E 28 b8 07 1e
        E 28 b8 07 20
        E 28 b8 07 22
        E 28 b8 07 24
        E 28 b8 07 25
        E 28 b8 07 27
        E 28 b8 07 29
        E 28 b8 07 2b
        E 28 b8 07 2d
        E 28 b8 07 2e
        E 28 b8 07 30
        E 28 b8 07 32
        E 28 b8 07 34
        E 28 b8 07 36
        E 28 b8 07 37
        E 28 b8 07 39
        E 28 b8 07 3b
        E 28 b8 07 3d
        E 28 b8 07 3f
        E 28 b8 07 40
        E 28 b8 07 42
        E 28 b8 07 44
        E 28 b8 07 46
        E 28 b8 07 48
        E 28 b8 07 49
        E 28 b8 07 4b
        E 28 b8 07 4d
        E 28 b8 07 4f
        E 28 b8 07 51
        E 28 b8 07 52
        E 28 b8 07 54
        E 28 b8 07 56
        E 28 b8 07 58
        E 28 b8 07 5a
        E 28 b8 07 5b
        E 28 b8 07 5d
        E 28 b8 07 5f
        E 28 b8 07 61
        E 28 b8 07 63
        E 28 b8 07 64
        E 28 b8 07 66
        E 28 b8 07 68
        E 28 b8 07 6a
        E 28 b8 07 6c
        E 28 b8 07 6d
        E 28 b8 07 6f
        E 28 b8 07 71
        E 28 b8 07 72
        E 28 b8 07 71
        E 28 b8 07 6f
        E 28 b8 07 6d
        E 28 b8 07 6c
        E 28 b8 07 6a
        E 28 b8 07 68
        E 28 b8 07 66
        E 28 b8 07 64
        E 28 b8 07 63
        E 28 b8 07 61
        E 28 b8 07 5f
        E 28 b8 07 5d
        E 28 b8 07 5b
        E 28 b8 07 5a
        E 28 b8 07 58
        E 28 b8 07 56
        E 28 b8 07 54
        E 28 b8 07 52
        E 28 b8 07 51
        E 28 b8 07 4f
        E 28 b8 07 4d
        E 28 b8 07 4b
        E 28 b8 07 49
        E 28 b8 07 48
        E 28 b8 07 46
        E 28 b8 07 44
        E 28 b8 07 42
        E 28 b8 07 40
        E 28 b8 07 3f
        E 28 b8 07 3d
        E 28 b8 07 3b
        E 28 b8 07 39
        E 28 b8 07 37
        E 28 b8 07 36
        E 28 b8 07 34
        E 28 b8 07 32
        E 28 b8 07 30
        E 28 b8 07 2e
        E 28 b8 07 2d
        E 28 b8 07 2b
        E 28 b8 07 29
        E 28 b8 07 27
        E 28 b8 07 25
        E 28 b8 07 24
        E 28 b8 07 22
        E 28 b8 07 20
        E 28 b8 07 1e
        E 28 b8 07 1c
        E 28 b8 07 1b
        E 28 b8 07 19
        E 28 b8 07 17
        E 28 b8 07 15
        E 28 b8 07 13
        E 28 b8 07 12
        E 28 b8 07 10
        E 28 b8 07 0e
        E 28 b8 07 0c
        E 28 b8 07 0a
        E 28 b8 07 09
        E 28 b8 07 07
        E 28 b8 07 05
        E 28 b8 07 03
        E 28 b8 07 01
        E 28 b8 07 00
        E 16 b8 07 01
        E 16 b8 07 02
        E 16 b8 07 03
        E 16 b8 07 04
        E 16 b8 07 05
        E 16 b8 07 06
        E 16 b8 07 07
        E 16 b8 07 08
        E 16 b8 07 09
        E 16 b8 07 0a
        E 16 b8 07 0b
        E 16 b8 07 0c
        E 16 b8 07 0d
        E 16 b8 07 0e
        E 16 b8 07 0f
        E 16 b8 07 10
        E 16 b8 07 11
        E 16 b8 07 12
        E 16 b8 07 13
        E 16 b8 07 14
        E 16 b8 07 15
        E 16 b8 07 16
        E 16 b8 07 17
        E 16 b8 07 18
        E 16 b8 07 19
        E 16 b8 07 1a
        E 16 b8 07 1b
        E 16 b8 07 1c
        E 16 b8 07 1d
        E 16 b8 07 1e
        E 16 b8 07 1f
        E 16 b8 07 20
        E 16 b8 07 21
        E 16 b8 07 22
        E 16 b8 07 23
        E 16 b8 07 24
        E 16 b8 07 25
        E 16 b8 07 26
        E 16 b8 07 27
        E 16 b8 07 28
        E 16 b8 07 29
        E 16 b8 07 2a
        E 16 b8 07 2b
        E 16 b8 07 2c
        E 16 b8 07 2d
        E 16 b8 07 2e
        E 16 b8 07 2f
        E 16 b8 07 30
        E 16 b8 07 31
        E 16 b8 07 32
        E 16 b8 07 33
        E 16 b8 07 34
        E 16 b8 07 35
        E 16 b8 07 36
        E 16 b8 07 37
        E 16 b8 07 38
        E 16 b8 07 39
        E 16 b8 07 3a
        E 16 b8 07 3b
        E 16 b8 07 3c
        E 16 b8 07 3d
        E 16 b8 07 3e
        E 16 b8 07 3f
        E 16 b8 07 3f
        E 16 b8 07 3f
        E 16 b8 07 3e
        E 16 b8 07 3d
        E 16 b8 07 3c
        E 16 b8 07 3b
        E 16 b8 07 3a
        E 16 b8 07 39
        E 16 b8 07 38
        E 16 b8 07 37
        E 16 b8 07 36
        E 16 b8 07 35
        E 16 b8 07 34
        E 16 b8 07 33
        E 16 b8 07 32
        E 16 b8 07 31
        E 16 b8 07 30
        E 16 b8 07 2f
        E 16 b8 07 2e
        E 16 b8 07 2d
        E 16 b8 07 2c
        E 16 b8 07 2b
        E 16 b8 07 2a
        E 16 b8 07 29
        E 16 b8 07 28
        E 16 b8 07 27
        E 16 b8 07 26
        E 16 b8 07 25
        E 16 b8 07 24
        E 16 b8 07 23
        E 16 b8 07 22
        E 16 b8 07 21
        E 16 b8 07 20
        E 16 b8 07 1f
        E 16 b8 07 1e
        E 16 b8 07 1d
        E 16 b8 07 1c
        E 16 b8 07 1b
        E 16 b8 07 1a
        E 16 b8 07 19
        E 16 b8 07 18
        E 16 b8 07 17
        E 16 b8 07 16
        E 16 b8 07 15
        E 16 b8 07 14
        E 16 b8 07 13
        E 16 b8 07 12
        E 16 b8 07 11
        E 16 b8 07 10
        E 16 b8 07 0f
        E 16 b8 07 0e
        E 16 b8 07 0d
        E 16 b8 07 0c
        E 16 b8 07 0b
        E 16 b8 07 0a
        E 16 b8 07 09
        E 16 b8 07 08
        E 16 b8 07 07
        E 16 b8 07 06
        E 16 b8 07 05
        E 16 b8 07 04
        E 16 b8 07 03
        E 16 b8 07 02
        E 16 b8 07 01
        E 16 b8 07 00
        E 31 b8 07 00
        E 31 b8 07 00
        E 31 b8 07 00
        E 31 b8 07 00
        E 31 b8 07 01
        E 31 b8 07 01
        E 31 b8 07 01
        E 31 b8 07 01
        E 31 b8 07 01
        E 31 b8 07 02
        E 31 b8 07 02
        E 31 b8 07 02
        E 31 b8 07 02
        E 31 b8 07 02
        E 31 b8 07 03
        E 31 b8 07 03
        E 31 b8 07 03
        E 31 b8 07 03
        E 31 b8 07 03
        E 31 b8 07 04
        E 31 b8 07 04
        E 31 b8 07 04
        E 31 b8 07 04
        E 31 b8 07 04
        E 31 b8 07 05
        E 31 b8 07 05
        E 31 b8 07 05
        E 31 b8 07 05
        E 31 b8 07 05
        E 31 b8 07 06
        E 31 b8 07 06
        E 31 b8 07 06
        E 31 b8 07 06
        E 31 b8 07 06
        E 31 b8 07 07
        E 31 b8 07 07
        E 31 b8 07 07
        E 31 b8 07 07
        E 31 b8 07 07
        E 31 b8 07 08
        E 31 b8 07 08
        E 31 b8 07 08
        E 31 b8 07 08
        E 31 b8 07 08
        E 31 b8 07 09
        E 31 b8 07 09
        E 31 b8 07 09
        E 31 b8 07 09
        E 31 b8 07 09
        E 31 b8 07 0a
        E 31 b8 07 0a
        E 31 b8 07 0a
        E 31 b8 07 0a
        E 31 b8 07 0a
        E 31 b8 07 0b
        E 31 b8 07 0b
        E 31 b8 07 0b
        E 31 b8 07 0b
        E 31 b8 07 0b
        E 31 b8 07 0c
        E 31 b8 07 0c
        E 31 b8 07 0c
        E 31 b8 07 0c
        E 31 b8 07 0c
        E 31 b8 07 0c
        E 31 b8 07 0c
        E 31 b8 07 0c
        E 31 b8 07 0c
        E 31 b8 07 0b
        E 31 b8 07 0b
        E 31 b8 07 0b
        E 31 b8 07 0b
        E 31 b8 07 0b
        E 31 b8 07 0a
        E 31 b8 07 0a
        E 31 b8 07 0a
        E 31 b8 07 0a
        E 31 b8 07 0a
        E 31 b8 07 09
        E 31 b8 07 09
        E 31 b8 07 09
        E 31 b8 07 09
        E 31 b8 07 09
        E 31 b8 07 08
        E 31 b8 07 08
        E 31 b8 07 08
        E 31 b8 07 08
        E 31 b8 07 08
        E 31 b8 07 07
        E 31 b8 07 07
        E 31 b8 07 07
        E 31 b8 07 07
        E 31 b8 07 07
        E 31 b8 07 06
        E 31 b8 07 06
        E 31 b8 07 06
        E 31 b8 07 06
        E 31 b8 07 06
        E 31 b8 07 05
        E 31 b8 07 05
        E 31 b8 07 05
        E 31 b8 07 05
        E 31 b8 07 05
        E 31 b8 07 04
        E 31 b8 07 04
        E 31 b8 07 04
        E 31 b8 07 04
        E 31 b8 07 04
        E 31 b8 07 03
        E 31 b8 07 03
        E 31 b8 07 03
        E 31 b8 07 03
        E 31 b8 07 03
        E 31 b8 07 02
        E 31 b8 07 02
        E 31 b8 07 02
        E 31 b8 07 02
        E 31 b8 07 02
        E 31 b8 07 01
        E 31 b8 07 01
        E 31 b8 07 01
        E 31 b8 07 01
        E 31 b8 07 01
        E 31 b8 07 00
        E 31 b8 07 00
        E 31 b8 07 00
        E 31 b8 07 00
        E 31 b8 07 00
        E 31 b8 07 00
        E 31 b8 07 01
        E 31 b8 07 01
        E 31 b8 07 02
        E 31 b8 07 03
        E 31 b8 07 03
        E 31 b8 07 04
        E 31 b8 07 04
        E 31 b8 07 05
        E 31 b8 07 06
        E 31 b8 07 06
        E 31 b8 07 07
        E 31 b8 07 07
        E 31 b8 07 08
        E 31 b8 07 09
        E 31 b8 07 09
        E 31 b8 07 0a
        E 31 b8 07 0a
        E 31 b8 07 0b
        E 31 b8 07 0c
        E 31 b8 07 0c
        E 31 b8 07 0d
        E 31 b8 07 0d
        E 31 b8 07 0e
        E 31 b8 07 0f
        E 31 b8 07 0f
        E 31 b8 07 10
        E 31 b8 07 10
        E 31 b8 07 11
        E 31 b8 07 12
        E 31 b8 07 12
        E 31 b8 07 13
        E 31 b8 07 13
        E 31 b8 07 14
        E 31 b8 07 15
        E 31 b8 07 15
        E 31 b8 07 16
        E 31 b8 07 16
        E 31 b8 07 17
        E 31 b8 07 18
        E 31 b8 07 18
        E 31 b8 07 19
        E 31 b8 07 19
        E 31 b8 07 1a
        E 31 b8 07 1b
        E 31 b8 07 1b
        E 31 b8 07 1c
        E 31 b8 07 1c
        E 31 b8 07 1d
        E 31 b8 07 1e
        E 31 b8 07 1e
        E 31 b8 07 1f
        E 31 b8 07 1f
        E 31 b8 07 20
        E 31 b8 07 21
        E 31 b8 07 21
        E 31 b8 07 22
        E 31 b8 07 22
        E 31 b8 07 23
        E 31 b8 07 24
        E 31 b8 07 24
        E 31 b8 07 25
        E 31 b8 07 25
        E 31 b8 07 26
        E 31 b8 07 25
        E 31 b8 07 25
        E 31 b8 07 24
        E 31 b8 07 24
        E 31 b8 07 23
        E 31 b8 07 22
        E 31 b8 07 22
        E 31 b8 07 21
        E 31 b8 07 21
        E 31 b8 07 20
        E 31 b8 07 1f
        E 31 b8 07 1f
        E 31 b8 07 1e
        E 31 b8 07 1e
        E 31 b8 07 1d
        E 31 b8 07 1c
        E 31 b8 07 1c
        E 31 b8 07 1b
        E 31 b8 07 1b
        E 31 b8 07 1a
        E 31 b8 07 19
        E 31 b8 07 19
        E 31 b8 07 18
        E 31 b8 07 18
        E 31 b8 07 17
        E 31 b8 07 16
        E 31 b8 07 16
        E 31 b8 07 15
        E 31 b8 07 15
        E 31 b8 07 14
        E 31 b8 07 13
        E 31 b8 07 13
        E 31 b8 07 12
        E 31 b8 07 12
        E 31 b8 07 11
        E 31 b8 07 10
        E 31 b8 07 10
        E 31 b8 07 0f
        E 31 b8 07 0f
        E 31 b8 07 0e
        E 31 b8 07 0d
        E 31 b8 07 0d
        E 31 b8 07 0c
        E 31 b8 07 0c
        E 31 b8 07 0b
        E 31 b8 07 0a
        E 31 b8 07 0a
        E 31 b8 07 09
        E 31 b8 07 09
        E 31 b8 07 08
        E 31 b8 07 07
        E 31 b8 07 07
        E 31 b8 07 06
        E 31 b8 07 06
        E 31 b8 07 05
        E 31 b8 07 04
        E 31 b8 07 04
        E 31 b8 07 03
        E 31 b8 07 03
        E 31 b8 07 02
        E 31 b8 07 01
        E 31 b8 07 01
        E 31 b8 07 00
        E 31 b8 07 00
        E 24 b8 07 01
        E 24 b8 07 03
        E 24 b8 07 05
        E 24 b8 07 07
        E 24 b8 07 09
        E 24 b8 07 0a
        E 24 b8 07 0c
        E 24 b8 07 0e
        E 24 b8 07 10
        E 24 b8 07 12
        E 24 b8 07 13
        E 24 b8 07 15
        E 24 b8 07 17
        E 24 b8 07 19
        E 24 b8 07 1b
        E 24 b8 07 1c
        E 24 b8 07 1e
        E 24 b8 07 20
        E 24 b8 07 22
        E 24 b8 07 24
        E 24 b8 07 25
        E 24 b8 07 27
        E 24 b8 07 29
        E 24 b8 07 2b
        E 24 b8 07 2d
        E 24 b8 07 2e
        E 24 b8 07 30
        E 24 b8 07 32
        E 24 b8 07 34
        E 24 b8 07 36
        E 24 b8 07 37
        E 24 b8 07 39
        E 24 b8 07 3b
        E 24 b8 07 3d
        E 24 b8 07 3f
        E 24 b8 07 40
        E 24 b8 07 42
        E 24 b8 07 44
        E 24 b8 07 46
        E 24 b8 07 48
        E 24 b8 07 49
        E 24 b8 07 4b
        E 24 b8 07 4d
        E 24 b8 07 4f
        E 24 b8 07 51
        E 24 b8 07 52
        E 24 b8 07 54
        E 24 b8 07 56
        E 24 b8 07 58
        E 24 b8 07 5a
        E 24 b8 07 5b
        E 24 b8 07 5d
        E 24 b8 07 5f
        E 24 b8 07 61
        E 24 b8 07 63
        E 24 b8 07 64
        E 24 b8 07 66
        E 24 b8 07 68
        E 24 b8 07 6a
        E 24 b8 07 6c
        E 24 b8 07 6d
        E 24 b8 07 6f
        E 24 b8 07 71
        E 24 b8 07 72
        E 24 b8 07 71
        E 24 b8 07 6f
        E 24 b8 07 6d
        E 24 b8 07 6c
        E 24 b8 07 6a
        E 24 b8 07 68
        E 24 b8 07 66
        E 24 b8 07 64
        E 24 b8 07 63
        E 24 b8 07 61
        E 24 b8 07 5f
        E 24 b8 07 5d
        E 24 b8 07 5b
        E 24 b8 07 5a
        E 24 b8 07 58
        E 24 b8 07 56
        E 24 b8 07 54
        E 24 b8 07 52
        E 24 b8 07 51
        E 24 b8 07 4f
        E 24 b8 07 4d
        E 24 b8 07 4b
        E 24 b8 07 49
        E 24 b8 07 48
        E 24 b8 07 46
        E 24 b8 07 44
        E 24 b8 07 42
        E 24 b8 07 40
        E 24 b8 07 3f
        E 24 b8 07 3d
        E 24 b8 07 3b
        E 24 b8 07 39
        E 24 b8 07 37
        E 24 b8 07 36
        E 24 b8 07 34
        E 24 b8 07 32
        E 24 b8 07 30
        E 24 b8 07 2e
        E 24 b8 07 2d
        E 24 b8 07 2b
        E 24 b8 07 29
        E 24 b8 07 27
        E 24 b8 07 25
        E 24 b8 07 24
        E 24 b8 07 22
        E 24 b8 07 20
        E 24 b8 07 1e
        E 24 b8 07 1c
        E 24 b8 07 1b
        E 24 b8 07 19
        E 24 b8 07 17
        E 24 b8 07 15
        E 24 b8 07 13
        E 24 b8 07 12
        E 24 b8 07 10
        E 24 b8 07 0e
        E 24 b8 07 0c
        E 24 b8 07 0a
        E 24 b8 07 09
        E 24 b8 07 07
        E 24 b8 07 05
        E 24 b8 07 03
        E 24 b8 07 01
        E 24 b8 07 00
        E 16 b8 07 00
        E 16 b8 07 00
        E 16 b8 07 01
        E 16 b8 07 01
        E 16 b8 07 02
        E 16 b8 07 02
        E 16 b8 07 02
        E 16 b8 07 03
        E 16 b8 07 03
        E 16 b8 07 04
        E 16 b8 07 04
        E 16 b8 07 04
        E 16 b8 07 05
        E 16 b8 07 05
        E 16 b8 07 06
        E 16 b8 07 06
        E 16 b8 07 06
        E 16 b8 07 07
        E 16 b8 07 07
        E 16 b8 07 08
        E 16 b8 07 08
        E 16 b8 07 08
        E 16 b8 07 09
        E 16 b8 07 09
        E 16 b8 07 0a
        E 16 b8 07 0a
        E 16 b8 07 0a
        E 16 b8 07 0b
        E 16 b8 07 0b
        E 16 b8 07 0c
        E 16 b8 07 0c
        E 16 b8 07 0c
        E 16 b8 07 0d
        E 16 b8 07 0d
        E 16 b8 07 0e
        E 16 b8 07 0e
        E 16 b8 07 0e
        E 16 b8 07 0f
        E 16 b8 07 0f
        E 16 b8 07 10
        E 16 b8 07 10
        E 16 b8 07 10
        E 16 b8 07 11
        E 16 b8 07 11
        E 16 b8 07 12
        E 16 b8 07 12
        E 16 b8 07 12
        E 16 b8 07 13
        E 16 b8 07 13
        E 16 b8 07 14
        E 16 b8 07 14
        E 16 b8 07 14
        E 16 b8 07 15
        E 16 b8 07 15
        E 16 b8 07 16
        E 16 b8 07 16
        E 16 b8 07 16
        E 16 b8 07 17
        E 16 b8 07 17
        E 16 b8 07 18
        E 16 b8 07 18
        E 16 b8 07 18
        E 16 b8 07 19
        E 16 b8 07 19
        E 16 b8 07 19
        E 16 b8 07 18
        E 16 b8 07 18
        E 16 b8 07 18
        E 16 b8 07 17
        E 16 b8 07 17
        E 16 b8 07 16
        E 16 b8 07 16
        E 16 b8 07 16
        E 16 b8 07 15
        E 16 b8 07 15
        E 16 b8 07 14
        E 16 b8 07 14
        E 16 b8 07 14
        E 16 b8 07 13
        E 16 b8 07 13
        E 16 b8 07 12
        E 16 b8 07 12
        E 16 b8 07 12
        E 16 b8 07 11
        E 16 b8 07 11
        E 16 b8 07 10
        E 16 b8 07 10
        E 16 b8 07 10
        E 16 b8 07 0f
        E 16 b8 07 0f
        E 16 b8 07 0e
        E 16 b8 07 0e
        E 16 b8 07 0e
        E 16 b8 07 0d
        E 16 b8 07 0d
        E 16 b8 07 0c
        E 16 b8 07 0c
        E 16 b8 07 0c
        E 16 b8 07 0b
        E 16 b8 07 0b
        E 16 b8 07 0a
        E 16 b8 07 0a
        E 16 b8 07 0a
        E 16 b8 07 09
        E 16 b8 07 09
        E 16 b8 07 08
        E 16 b8 07 08
        E 16 b8 07 08
        E 16 b8 07 07
        E 16 b8 07 07
        E 16 b8 07 06
        E 16 b8 07 06
        E 16 b8 07 06
        E 16 b8 07 05
        E 16 b8 07 05
        E 16 b8 07 04
        E 16 b8 07 04
        E 16 b8 07 04
        E 16 b8 07 03
        E 16 b8 07 03
        E 16 b8 07 02
        E 16 b8 07 02
        E 16 b8 07 02
        E 16 b8 07 01
        E 16 b8 07 01
        E 16 b8 07 00
        E 16 b8 07 00
        E 16 b8 07 00
        E 28 b8 07 01
        E 28 b8 07 03
        E 28 b8 07 05
        E 28 b8 07 07
        E 28 b8 07 09
        E 28 b8 07 0a
        E 28 b8 07 0c
        E 28 b8 07 0e
        E 28 b8 07 10
        E 28 b8 07 12
        E 28 b8 07 13
        E 28 b8 07 15
        E 28 b8 07 17
        E 28 b8 07 19
        E 28 b8 07 1b
        E 28 b8 07 1c
        E 28 b8 07 1e
        E 28 b8 07 20
        E 28 b8 07 22
        E 28 b8 07 24
        E 28 b8 07 25
        E 28 b8 07 27
        E 28 b8 07 29
        E 28 b8 07 2b
        E 28 b8 07 2d
        E 28 b8 07 2e
        E 28 b8 07 30
        E 28 b8 07 32
        E 28 b8 07 34
        E 28 b8 07 36
        E 28 b8 07 37
        E 28 b8 07 39
        E 28 b8 07 3b
        E 28 b8 07 3d
        E 28 b8 07 3f
        E 28 b8 07 40
        E 28 b8 07 42
        E 28 b8 07 44
        E 28 b8 07 46
        E 28 b8 07 48
        E 28 b8 07 49
        E 28 b8 07 4b
        E 28 b8 07 4d
        E 28 b8 07 4f
        E 28 b8 07 51
        E 28 b8 07 52
        E 28 b8 07 54
        E 28 b8 07 56
        E 28 b8 07 58
        E 28 b8 07 5a
        E 28 b8 07 5b
        E 28 b8 07 5d
        E 28 b8 07 5f
        E 28 b8 07 61
        E 28 b8 07 63
        E 28 b8 07 64
        E 28 b8 07 66
        E 28 b8 07 68
        E 28 b8 07 6a
        E 28 b8 07 6c
        E 28 b8 07 6d
        E 28 b8 07 6f
        E 28 b8 07 71
        E 28 b8 07 72
        E 28 b8 07 71
        E 28 b8 07 6f
        E 28 b8 07 6d
        E 28 b8 07 6c
        E 28 b8 07 6a
        E 28 b8 07 68
        E 28 b8 07 66
        E 28 b8 07 64
        E 28 b8 07 63
        E 28 b8 07 61
        E 28 b8 07 5f
        E 28 b8 07 5d
        E 28 b8 07 5b
        E 28 b8 07 5a
        E 28 b8 07 58
        E 28 b8 07 56
        E 28 b8 07 54
        E 28 b8 07 52
        E 28 b8 07 51
        E 28 b8 07 4f
        E 28 b8 07 4d
        E 28 b8 07 4b
        E 28 b8 07 49
        E 28 b8 07 48
        E 28 b8 07 46
        E 28 b8 07 44
        E 28 b8 07 42
        E 28 b8 07 40
        E 28 b8 07 3f
        E 28 b8 07 3d
        E 28 b8 07 3b
        E 28 b8 07 39
        E 28 b8 07 37
        E 28 b8 07 36
        E 28 b8 07 34
        E 28 b8 07 32
        E 28 b8 07 30
        E 28 b8 07 2e
        E 28 b8 07 2d
        E 28 b8 07 2b
        E 28 b8 07 29
        E 28 b8 07 27
        E 28 b8 07 25
        E 28 b8 07 24
        E 28 b8 07 22
        E 28 b8 07 20
        E 28 b8 07 1e
        E 28 b8 07 1c
        E 28 b8 07 1b
        E 28 b8 07 19
        E 28 b8 07 17
        E 28 b8 07 15
        E 28 b8 07 13
        E 28 b8 07 12
        E 28 b8 07 10
        E 28 b8 07 0e
        E 28 b8 07 0c
        E 28 b8 07 0a
        E 28 b8 07 09
        E 28 b8 07 07
        E 28 b8 07 05
        E 28 b8 07 03
        E 28 b8 07 01
        E 28 b8 07 00
        E 16 b8 07 01
        E 16 b8 07 02
        E 16 b8 07 03
        E 16 b8 07 04
        E 16 b8 07 05
        E 16 b8 07 06
        E 16 b8 07 07
        E 16 b8 07 08
        E 16 b8 07 09
        E 16 b8 07 0a
        E 16 b8 07 0b
        E 16 b8 07 0c
        E 16 b8 07 0d
        E 16 b8 07 0e
        E 16 b8 07 0f
        E 16 b8 07 10
        E 16 b8 07 11
        E 16 b8 07 12
        E 16 b8 07 13
        E 16 b8 07 14
        E 16 b8 07 15
        E 16 b8 07 16
        E 16 b8 07 17
        E 16 b8 07 18
        E 16 b8 07 19
        E 16 b8 07 1a
        E 16 b8 07 1b
        E 16 b8 07 1c
        E 16 b8 07 1d
        E 16 b8 07 1e
        E 16 b8 07 1f
        E 16 b8 07 20
        E 16 b8 07 21
        E 16 b8 07 22
        E 16 b8 07 23
        E 16 b8 07 24
        E 16 b8 07 25
        E 16 b8 07 26
        E 16 b8 07 27
        E 16 b8 07 28
        E 16 b8 07 29
        E 16 b8 07 2a
        E 16 b8 07 2b
        E 16 b8 07 2c
        E 16 b8 07 2d
        E 16 b8 07 2e
        E 16 b8 07 2f
        E 16 b8 07 30
        E 16 b8 07 31
        E 16 b8 07 32
        E 16 b8 07 33
        E 16 b8 07 34
        E 16 b8 07 35
        E 16 b8 07 36
        E 16 b8 07 37
        E 16 b8 07 38
        E 16 b8 07 39
        E 16 b8 07 3a
        E 16 b8 07 3b
        E 16 b8 07 3c
        E 16 b8 07 3d
        E 16 b8 07 3e
        E 16 b8 07 3f
        E 16 b8 07 3f
        E 16 b8 07 3f
        E 16 b8 07 3e
        E 16 b8 07 3d
        E 16 b8 07 3c
        E 16 b8 07 3b
        E 16 b8 07 3a
        E 16 b8 07 39
        E 16 b8 07 38
        E 16 b8 07 37
        E 16 b8 07 36
        E 16 b8 07 35
        E 16 b8 07 34
        E 16 b8 07 33
        E 16 b8 07 32
        E 16 b8 07 31
        E 16 b8 07 30
        E 16 b8 07 2f
        E 16 b8 07 2e
        E 16 b8 07 2d
        E 16 b8 07 2c
        E 16 b8 07 2b
        E 16 b8 07 2a
        E 16 b8 07 29
        E 16 b8 07 28
        E 16 b8 07 27
        E 16 b8 07 26
        E 16 b8 07 25
        E 16 b8 07 24
        E 16 b8 07 23
        E 16 b8 07 22
        E 16 b8 07 21
        E 16 b8 07 20
        E 16 b8 07 1f
        E 16 b8 07 1e
        E 16 b8 07 1d
        E 16 b8 07 1c
        E 16 b8 07 1b
        E 16 b8 07 1a
        E 16 b8 07 19
        E 16 b8 07 18
        E 16 b8 07 17
        E 16 b8 07 16
        E 16 b8 07 15
        E 16 b8 07 14
        E 16 b8 07 13
        E 16 b8 07 12
        E 16 b8 07 11
        E 16 b8 07 10
        E 16 b8 07 0f
        E 16 b8 07 0e
        E 16 b8 07 0d
        E 16 b8 07 0c
        E 16 b8 07 0b
        E 16 b8 07 0a
        E 16 b8 07 09
        E 16 b8 07 08
        E 16 b8 07 07
        E 16 b8 07 06
        E 16 b8 07 05
        E 16 b8 07 04
        E 16 b8 07 03
        E 16 b8 07 02
        E 16 b8 07 01
        E 16 b8 07 00
        E 31 b8 07 00
        E 31 b8 07 00
        E 31 b8 07 00
        E 31 b8 07 00
        E 31 b8 07 01
        E 31 b8 07 01
        E 31 b8 07 01
        E 31 b8 07 01
        E 31 b8 07 01
        E 31 b8 07 02
        E 31 b8 07 02
        E 31 b8 07 02
        E 31 b8 07 02
        E 31 b8 07 02
        E 31 b8 07 03
        E 31 b8 07 03
        E 31 b8 07 03
        E 31 b8 07 03
        E 31 b8 07 03
        E 31 b8 07 04
        E 31 b8 07 04
        E 31 b8 07 04
        E 31 b8 07 04
        E 31 b8 07 04
        E 31 b8 07 05
        E 31 b8 07 05
        E 31 b8 07 05
        E 31 b8 07 05
        E 31 b8 07 05
        E 31 b8 07 06
        E 31 b8 07 06
        E 31 b8 07 06
        E 31 b8 07 06
        E 31 b8 07 06
        E 31 b8 07 07
        E 31 b8 07 07
        E 31 b8 07 07
        E 31 b8 07 07
        E 31 b8 07 07
        E 31 b8 07 08
        E 31 b8 07 08
        E 31 b8 07 08
        E 31 b8 07 08
        E 31 b8 07 08
        E 31 b8 07 09
        E 31 b8 07 09
        E 31 b8 07 09
        E 31 b8 07 09
        E 31 b8 07 09
        E 31 b8 07 0a
        E 31 b8 07 0a
        E 31 b8 07 0a
        E 31 b8 07 0a
        E 31 b8 07 0a
        E 31 b8 07 0b
        E 31 b8 07 0b
        E 31 b8 07 0b
        E 31 b8 07 0b
        E 31 b8 07 0b
        E 31 b8 07 0c
        E 31 b8 07 0c
        E 31 b8 07 0c
        E 31 b8 07 0c
        E 31 b8 07 0c
        E 31 b8 07 0c
        E 31 b8 07 0c
        E 31 b8 07 0c
        E 31 b8 07 0c
        E 31 b8 07 0b
        E 31 b8 07 0b
        E 31 b8 07 0b
        E 31 b8 07 0b
        E 31 b8 07 0b
        E 31 b8 07 0a
        E 31 b8 07 0a
        E 31 b8 07 0a
        E 31 b8 07 0a
        E 31 b8 07 0a
        E 31 b8 07 09
        E 31 b8 07 09
        E 31 b8 07 09
        E 31 b8 07 09
        E 31 b8 07 09
        E 31 b8 07 08
        E 31 b8 07 08
        E 31 b8 07 08
        E 31 b8 07 08
        E 31 b8 07 08
        E 31 b8 07 07
        E 31 b8 07 07
        E 31 b8 07 07
        E 31 b8 07 07
        E 31 b8 07 07
        E 31 b8 07 06
        E 31 b8 07 06
        E 31 b8 07 06
        E 31 b8 07 06
        E 31 b8 07 06
        E 31 b8 07 05
        E 31 b8 07 05
        E 31 b8 07 05
        E 31 b8 07 05
        E 31 b8 07 05
        E 31 b8 07 04
        E 31 b8 07 04
        E 31 b8 07 04
        E 31 b8 07 04
        E 31 b8 07 04
        E 31 b8 07 03
        E 31 b8 07 03
        E 31 b8 07 03
        E 31 b8 07 03
        E 31 b8 07 03
        E 31 b8 07 02
        E 31 b8 07 02
        E 31 b8 07 02
        E 31 b8 07 02
        E 31 b8 07 02
        E 31 b8 07 01
        E 31 b8 07 01
        E 31 b8 07 01
        E 31 b8 07 01
        E 31 b8 07 01
        E 31 b8 07 00
        E 31 b8 07 00
        E 31 b8 07 00
        E 31 b8 07 00
        E 31 b8 07 00
        E 31 b8 07 00
        E 31 b8 07 01
        E 31 b8 07 01
        E 31 b8 07 02
        E 31 b8 07 03
        E 31 b8 07 03
        E 31 b8 07 04
        E 31 b8 07 04
        E 31 b8 07 05
        E 31 b8 07 06
        E 31 b8 07 06
        E 31 b8 07 07
        E 31 b8 07 07
        E 31 b8 07 08
        E 31 b8 07 09
        E 31 b8 07 09
        E 31 b8 07 0a
        E 31 b8 07 0a
        E 31 b8 07 0b
        E 31 b8 07 0c
        E 31 b8 07 0c
        E 31 b8 07 0d
        E 31 b8 07 0d
        E 31 b8 07 0e
        E 31 b8 07 0f
        E 31 b8 07 0f
        E 31 b8 07 10
        E 31 b8 07 10
        E 31 b8 07 11
        E 31 b8 07 12
        E 31 b8 07 12
        E 31 b8 07 13
        E 31 b8 07 13
        E 31 b8 07 14
        E 31 b8 07 15
        E 31 b8 07 15
        E 31 b8 07 16
        E 31 b8 07 16
        E 31 b8 07 17
        E 31 b8 07 18
        E 31 b8 07 18
        E 31 b8 07 19
        E 31 b8 07 19
        E 31 b8 07 1a
        E 31 b8 07 1b
        E 31 b8 07 1b
        E 31 b8 07 1c
        E 31 b8 07 1c
        E 31 b8 07 1d
        E 31 b8 07 1e
        E 31 b8 07 1e
        E 31 b8 07 1f
        E 31 b8 07 1f
        E 31 b8 07 20
        E 31 b8 07 21
        E 31 b8 07 21
        E 31 b8 07 22
        E 31 b8 07 22
        E 31 b8 07 23
        E 31 b8 07 24
        E 31 b8 07 24
        E 31 b8 07 25
        E 31 b8 07 25
        E 31 b8 07 26
        E 31 b8 07 25
        E 31 b8 07 25
        E 31 b8 07 24
        E 31 b8 07 24
        E 31 b8 07 23
        E 31 b8 07 22
        E 31 b8 07 22
        E 31 b8 07 21
        E 31 b8 07 21
        E 31 b8 07 20
        E 31 b8 07 1f
        E 31 b8 07 1f
        E 31 b8 07 1e
        E 31 b8 07 1e
        E 31 b8 07 1d
        E 31 b8 07 1c
        E 31 b8 07 1c
        E 31 b8 07 1b
        E 31 b8 07 1b
        E 31 b8 07 1a
        E 31 b8 07 19
        E 31 b8 07 19
        E 31 b8 07 18
        E 31 b8 07 18
        E 31 b8 07 17
        E 31 b8 07 16
        E 31 b8 07 16
        E 31 b8 07 15
        E 31 b8 07 15
        E 31 b8 07 14
        E 31 b8 07 13
        E 31 b8 07 13
        E 31 b8 07 12
        E 31 b8 07 12
        E 31 b8 07 11
        E 31 b8 07 10
        E 31 b8 07 10
        E 31 b8 07 0f
        E 31 b8 07 0f
        E 31 b8 07 0e
        E 31 b8 07 0d
        E 31 b8 07 0d
        E 31 b8 07 0c
        E 31 b8 07 0c
        E 31 b8 07 0b
        E 31 b8 07 0a
        E 31 b8 07 0a
        E 31 b8 07 09
        E 31 b8 07 09
        E 31 b8 07 08
        E 31 b8 07 07
        E 31 b8 07 07
        E 31 b8 07 06
        E 31 b8 07 06
        E 31 b8 07 05
        E 31 b8 07 04
        E 31 b8 07 04
        E 31 b8 07 03
        E 31 b8 07 03
        E 31 b8 07 02
        E 31 b8 07 01
        E 31 b8 07 01
        E 31 b8 07 00
        E 31 b8 07 00
        E 24 b8 07 01
        E 24 b8 07 03
        E 24 b8 07 05
        E 24 b8 07 07
        E 24 b8 07 09
        E 24 b8 07 0a
        E 24 b8 07 0c
        E 24 b8 07 0e
        E 24 b8 07 10
        E 24 b8 07 12
        E 24 b8 07 13
        E 24 b8 07 15
        E 24 b8 07 17
        E 24 b8 07 19
        E 24 b8 07 1b
        E 24 b8 07 1c
        E 24 b8 07 1e
        E 24 b8 07 20
        E 24 b8 07 22
        E 24 b8 07 24
        E 24 b8 07 25
        E 24 b8 07 27
        E 24 b8 07 29
        E 24 b8 07 2b
        E 24 b8 07 2d
        E 24 b8 07 2e
        E 24 b8 07 30
        E 24 b8 07 32
        E 24 b8 07 34
        E 24 b8 07 36
        E 24 b8 07 37
        E 24 b8 07 39
        E 24 b8 07 3b
        E 24 b8 07 3d
        E 24 b8 07 3f
        E 24 b8 07 40
        E 24 b8 07 42
        E 24 b8 07 44
        E 24 b8 07 46
        E 24 b8 07 48
        E 24 b8 07 49
        E 24 b8 07 4b
        E 24 b8 07 4d
        E 24 b8 07 4f
        E 24 b8 07 51
        E 24 b8 07 52
        E 24 b8 07 54
        E 24 b8 07 56
        E 24 b8 07 58
        E 24 b8 07 5a
        E 24 b8 07 5b
        E 24 b8 07 5d
        E 24 b8 07 5f
        E 24 b8 07 61
        E 24 b8 07 63
        E 24 b8 07 64
        E 24 b8 07 66
        E 24 b8 07 68
        E 24 b8 07 6a
        E 24 b8 07 6c
        E 24 b8 07 6d
        E 24 b8 07 6f
        E 24 b8 07 71
        E 24 b8 07 72
        E 24 b8 07 71
        E 24 b8 07 6f
        E 24 b8 07 6d
        E 24 b8 07 6c
        E 24 b8 07 6a
        E 24 b8 07 68
        E 24 b8 07 66
        E 24 b8 07 64
        E 24 b8 07 63
        E 24 b8 07 61
        E 24 b8 07 5f
        E 24 b8 07 5d
        E 24 b8 07 5b
        E 24 b8 07 5a
        E 24 b8 07 58
        E 24 b8 07 56
        E 24 b8 07 54
        E 24 b8 07 52
        E 24 b8 07 51
        E 24 b8 07 4f
        E 24 b8 07 4d
        E 24 b8 07 4b
        E 24 b8 07 49
        E 24 b8 07 48
        E 24 b8 07 46
        E 24 b8 07 44
        E 24 b8 07 42
        E 24 b8 07 40
        E 24 b8 07 3f
        E 24 b8 07 3d
        E 24 b8 07 3b
        E 24 b8 07 39
        E 24 b8 07 37
        E 24 b8 07 36
        E 24 b8 07 34
        E 24 b8 07 32
        E 24 b8 07 30
        E 24 b8 07 2e
        E 24 b8 07 2d
        E 24 b8 07 2b
        E 24 b8 07 29
        E 24 b8 07 27
        E 24 b8 07 25
        E 24 b8 07 24
        E 24 b8 07 22
        E 24 b8 07 20
        E 24 b8 07 1e
        E 24 b8 07 1c
        E 24 b8 07 1b
        E 24 b8 07 19
        E 24 b8 07 17
        E 24 b8 07 15
        E 24 b8 07 13
        E 24 b8 07 12
        E 24 b8 07 10
        E 24 b8 07 0e
        E 24 b8 07 0c
        E 24 b8 07 0a
        E 24 b8 07 09
        E 24 b8 07 07
        E 24 b8 07 05
        E 24 b8 07 03
        E 24 b8 07 01
        E 24 b8 07 00
        E 16 b8 07 00
        E 16 b8 07 00
        E 16 b8 07 01
        E 16 b8 07 01
        E 16 b8 07 02
        E 16 b8 07 02
        E 16 b8 07 02
        E 16 b8 07 03
        E 16 b8 07 03
        E 16 b8 07 04
        E 16 b8 07 04
        E 16 b8 07 04
        E 16 b8 07 05
        E 16 b8 07 05
        E 16 b8 07 06
        E 16 b8 07 06
        E 16 b8 07 06
        E 16 b8 07 07
        E 16 b8 07 07
        E 16 b8 07 08
        E 16 b8 07 08
        E 16 b8 07 08
        E 16 b8 07 09
        E 16 b8 07 09
        E 16 b8 07 0a
        E 16 b8 07 0a
        E 16 b8 07 0a
        E 16 b8 07 0b
        E 16 b8 07 0b
        E 16 b8 07 0c
        E 16 b8 07 0c
        E 16 b8 07 0c
        E 16 b8 07 0d
        E 16 b8 07 0d
        E 16 b8 07 0e
        E 16 b8 07 0e
        E 16 b8 07 0e
        E 16 b8 07 0f
        E 16 b8 07 0f
        E 16 b8 07 10
        E 16 b8 07 10
        E 16 b8 07 10
        E 16 b8 07 11
        E 16 b8 07 11
        E 16 b8 07 12
        E 16 b8 07 12
        E 16 b8 07 12
        E 16 b8 07 13
        E 16 b8 07 13
        E 16 b8 07 14
        E 16 b8 07 14
        E 16 b8 07 14
        E 16 b8 07 15
        E 16 b8 07 15
        E 16 b8 07 16
        E 16 b8 07 16
        E 16 b8 07 16
        E 16 b8 07 17
        E 16 b8 07 17
        E 16 b8 07 18
        E 16 b8 07 18
        E 16 b8 07 18
        E 16 b8 07 19
        E 16 b8 07 19
        E 16 b8 07 19
        E 16 b8 07 18
        E 16 b8 07 18
        E 16 b8 07 18
        E 16 b8 07 17
        E 16 b8 07 17
        E 16 b8 07 16
        E 16 b8 07 16
        E 16 b8 07 16
        E 16 b8 07 15
        E 16 b8 07 15
        E 16 b8 07 14
        E 16 b8 07 14
        E 16 b8 07 14
        E 16 b8 07 13
        E 16 b8 07 13
        E 16 b8 07 12
        E 16 b8 07 12
        E 16 b8 07 12
        E 16 b8 07 11
        E 16 b8 07 11
        E 16 b8 07 10
        E 16 b8 07 10
        E 16 b8 07 10
        E 16 b8 07 0f
        E 16 b8 07 0f
        E 16 b8 07 0e
        E 16 b8 07 0e
        E 16 b8 07 0e
        E 16 b8 07 0d
        E 16 b8 07 0d
        E 16 b8 07 0c
        E 16 b8 07 0c
        E 16 b8 07 0c
        E 16 b8 07 0b
        E 16 b8 07 0b
        E 16 b8 07 0a
        E 16 b8 07 0a
        E 16 b8 07 0a
        E 16 b8 07 09
        E 16 b8 07 09
        E 16 b8 07 08
        E 16 b8 07 08
        E 16 b8 07 08
        E 16 b8 07 07
        E 16 b8 07 07
        E 16 b8 07 06
        E 16 b8 07 06
        E 16 b8 07 06
        E 16 b8 07 05
        E 16 b8 07 05
        E 16 b8 07 04
        E 16 b8 07 04
        E 16 b8 07 04
        E 16 b8 07 03
        E 16 b8 07 03
        E 16 b8 07 02
        E 16 b8 07 02
        E 16 b8 07 02
        E 16 b8 07 01
        E 16 b8 07 01
        E 16 b8 07 00
        E 16 b8 07 00
        E 16 b8 07 00
        E 28 b8 07 01
        E 28 b8 07 03
        E 28 b8 07 05
        E 28 b8 07 07
        E 28 b8 07 09
        E 28 b8 07 0a
        E 28 b8 07 0c
        E 28 b8 07 0e
        E 28 b8 07 10
        E 28 b8 07 12
        E 28 b8 07 13
        E 28 b8 07 15
        E 28 b8 07 17
        E 28 b8 07 19
        E 28 b8 07 1b
        E 28 b8 07 1c
        E 28 b8 07 1e
        E 28 b8 07 20
        E 28 b8 07 22
        E 28 b8 07 24
        E 28 b8 07 25
        E 28 b8 07 27
        E 28 b8 07 29
        E 28 b8 07 2b
        E 28 b8 07 2d
        E 28 b8 07 2e
        E 28 b8 07 30
        E 28 b8 07 32
        E 28 b8 07 34
        E 28 b8 07 36
        E 28 b8 07 37
        E 28 b8 07 39
        E 28 b8 07 3b
        E 28 b8 07 3d
        E 28 b8 07 3f
        E 28 b8 07 40
        E 28 b8 07 42
        E 28 b8 07 44
        E 28 b8 07 46
        E 28 b8 07 48
        E 28 b8 07 49
        E 28 b8 07 4b
        E 28 b8 07 4d
        E 28 b8 07 4f
        E 28 b8 07 51
        E 28 b8 07 52
        E 28 b8 07 54
        E 28 b8 07 56
        E 28 b8 07 58
        E 28 b8 07 5a
        E 28 b8 07 5b
        E 28 b8 07 5d
        E 28 b8 07 5f
        E 28 b8 07 61
        E 28 b8 07 63
        E 28 b8 07 64
        E 28 b8 07 66
        E 28 b8 07 68
        E 28 b8 07 6a
        E 28 b8 07 6c
        E 28 b8 07 6d
        E 28 b8 07 6f
        E 28 b8 07 71
        E 28 b8 07 72
        E 28 b8 07 71
        E 28 b8 07 6f
        E 28 b8 07 6d
        E 28 b8 07 6c
        E 28 b8 07 6a
        E 28 b8 07 68
        E 28 b8 07 66
        E 28 b8 07 64
        E 28 b8 07 63
        E 28 b8 07 61
        E 28 b8 07 5f
        E 28 b8 07 5d
        E 28 b8 07 5b
        E 28 b8 07 5a
        E 28 b8 07 58
        E 28 b8 07 56
        E 28 b8 07 54
        E 28 b8 07 52
        E 28 b8 07 51
        E 28 b8 07 4f
        E 28 b8 07 4d
        E 28 b8 07 4b
        E 28 b8 07 49
        E 28 b8 07 48
        E 28 b8 07 46
        E 28 b8 07 44
        E 28 b8 07 42
        E 28 b8 07 40
        E 28 b8 07 3f
        E 28 b8 07 3d
        E 28 b8 07 3b
        E 28 b8 07 39
        E 28 b8 07 37
        E 28 b8 07 36
        E 28 b8 07 34
        E 28 b8 07 32
        E 28 b8 07 30
        E 28 b8 07 2e
        E 28 b8 07 2d
        E 28 b8 07 2b
        E 28 b8 07 29
        E 28 b8 07 27
        E 28 b8 07 25
        E 28 b8 07 24
        E 28 b8 07 22
        E 28 b8 07 20
        E 28 b8 07 1e
        E 28 b8 07 1c
        E 28 b8 07 1b
        E 28 b8 07 19
        E 28 b8 07 17
        E 28 b8 07 15
        E 28 b8 07 13
        E 28 b8 07 12
        E 28 b8 07 10
        E 28 b8 07 0e
        E 28 b8 07 0c
        E 28 b8 07 0a
        E 28 b8 07 09
        E 28 b8 07 07
        E 28 b8 07 05
        E 28 b8 07 03
        E 28 b8 07 01
        E 28 b8 07 00
        E 16 b8 07 01
        E 16 b8 07 02
        E 16 b8 07 03
        E 16 b8 07 04
        E 16 b8 07 05
        E 16 b8 07 06
        E 16 b8 07 07
        E 16 b8 07 08
        E 16 b8 07 09
        E 16 b8 07 0a
        E 16 b8 07 0b
        E 16 b8 07 0c
        E 16 b8 07 0d
        E 16 b8 07 0e
        E 16 b8 07 0f
        E 16 b8 07 10
        E 16 b8 07 11
        E 16 b8 07 12
        E 16 b8 07 13
        E 16 b8 07 14
        E 16 b8 07 15
        E 16 b8 07 16
        E 16 b8 07 17
        E 16 b8 07 18
        E 16 b8 07 19
        E 16 b8 07 1a
        E 16 b8 07 1b
        E 16 b8 07 1c
        E 16 b8 07 1d
        E 16 b8 07 1e
        E 16 b8 07 1f
        E 16 b8 07 20
        E 16 b8 07 21
        E 16 b8 07 22
        E 16 b8 07 23
        E 16 b8 07 24
        E 16 b8 07 25
        E 16 b8 07 26
        E 16 b8 07 27
        E 16 b8 07 28
        E 16 b8 07 29
        E 16 b8 07 2a
        E 16 b8 07 2b
        E 16 b8 07 2c
        E 16 b8 07 2d
        E 16 b8 07 2e
        E 16 b8 07 2f
        E 16 b8 07 30
        E 16 b8 07 31
        E 16 b8 07 32
        E 16 b8 07 33
        E 16 b8 07 34
        E 16 b8 07 35
        E 16 b8 07 36
        E 16 b8 07 37
        E 16 b8 07 38
        E 16 b8 07 39
        E 16 b8 07 3a
        E 16 b8 07 3b
        E 16 b8 07 3c
        E 16 b8 07 3d
        E 16 b8 07 3e
        E 16 b8 07 3f
        E 16 b8 07 3f
        E 16 b8 07 3f
        E 16 b8 07 3e
        E 16 b8 07 3d
        E 16 b8 07 3c
        E 16 b8 07 3b
        E 16 b8 07 3a
        E 16 b8 07 39
        E 16 b8 07 38
        E 16 b8 07 37
        E 16 b8 07 36
        E 16 b8 07 35
        E 16 b8 07 34
        E 16 b8 07 33
        E 16 b8 07 32
        E 16 b8 07 31
        E 16 b8 07 30
        E 16 b8 07 2f
        E 16 b8 07 2e
        E 16 b8 07 2d
        E 16 b8 07 2c
        E 16 b8 07 2b
        E 16 b8 07 2a
        E 16 b8 07 29
        E 16 b8 07 28
        E 16 b8 07 27
        E 16 b8 07 26
        E 16 b8 07 25
        E 16 b8 07 24
        E 16 b8 07 23
        E 16 b8 07 22
        E 16 b8 07 21
        E 16 b8 07 20
        E 16 b8 07 1f
        E 16 b8 07 1e
        E 16 b8 07 1d
        E 16 b8 07 1c
        E 16 b8 07 1b
        E 16 b8 07 1a
        E 16 b8 07 19
        E 16 b8 07 18
        E 16 b8 07 17
        E 16 b8 07 16
        E 16 b8 07 15
        E 16 b8 07 14
        E 16 b8 07 13
        E 16 b8 07 12
        E 16 b8 07 11
        E 16 b8 07 10
        E 16 b8 07 0f
        E 16 b8 07 0e
        E 16 b8 07 0d
        E 16 b8 07 0c
        E 16 b8 07 0b
        E 16 b8 07 0a
        E 16 b8 07 09
        E 16 b8 07 08
        E 16 b8 07 07
        E 16 b8 07 06
        E 16 b8 07 05
        E 16 b8 07 04
        E 16 b8 07 03
        E 16 b8 07 02
        E 16 b8 07 01
        E 16 b8 07 00
        E 31 b8 07 00
        E 31 b8 07 00
        E 31 b8 07 00
        E 31 b8 07 00
        E 31 b8 07 01
        E 31 b8 07 01
        E 31 b8 07 01
        E 31 b8 07 01
        E 31 b8 07 01
        E 31 b8 07 02
        E 31 b8 07 02
        E 31 b8 07 02
        E 31 b8 07 02
        E 31 b8 07 02
        E 31 b8 07 03
        E 31 b8 07 03
        E 31 b8 07 03
        E 31 b8 07 03
        E 31 b8 07 03
        E 31 b8 07 04
        E 31 b8 07 04
        E 31 b8 07 04
        E 31 b8 07 04
        E 31 b8 07 04
        E 31 b8 07 05
        E 31 b8 07 05
        E 31 b8 07 05
        E 31 b8 07 05
        E 31 b8 07 05
        E 31 b8 07 06
        E 31 b8 07 06
        E 31 b8 07 06
        E 31 b8 07 06
        E 31 b8 07 06
        E 31 b8 07 07
        E 31 b8 07 07
        E 31 b8 07 07
        E 31 b8 07 07
        E 31 b8 07 07
        E 31 b8 07 08
        E 31 b8 07 08
        E 31 b8 07 08
        E 31 b8 07 08
        E 31 b8 07 08
        E 31 b8 07 09
        E 31 b8 07 09
        E 31 b8 07 09
        E 31 b8 07 09
        E 31 b8 07 09
        E 31 b8 07 0a
        E 31 b8 07 0a
        E 31 b8 07 0a
        E 31 b8 07 0a
        E 31 b8 07 0a
        E 31 b8 07 0b
        E 31 b8 07 0b
        E 31 b8 07 0b
        E 31 b8 07 0b
        E 31 b8 07 0b
        E 31 b8 07 0c
        E 31 b8 07 0c
        E 31 b8 07 0c
        E 31 b8 07 0c
        E 31 b8 07 0c
        E 31 b8 07 0c
        E 31 b8 07 0c
        E 31 b8 07 0c
        E 31 b8 07 0c
        E 31 b8 07 0b
        E 31 b8 07 0b
        E 31 b8 07 0b
        E 31 b8 07 0b
        E 31 b8 07 0b
        E 31 b8 07 0a
        E 31 b8 07 0a
        E 31 b8 07 0a
        E 31 b8 07 0a
        E 31 b8 07 0a
        E 31 b8 07 09
        E 31 b8 07 09
        E 31 b8 07 09
        E 31 b8 07 09
        E 31 b8 07 09
        E 31 b8 07 08
        E 31 b8 07 08
        E 31 b8 07 08
        E 31 b8 07 08
        E 31 b8 07 08
        E 31 b8 07 07
        E 31 b8 07 07
        E 31 b8 07 07
        E 31 b8 07 07
        E 31 b8 07 07
        E 31 b8 07 06
        E 31 b8 07 06
        E 31 b8 07 06
        E 31 b8 07 06
        E 31 b8 07 06
        E 31 b8 07 05
        E 31 b8 07 05
        E 31 b8 07 05
        E 31 b8 07 05
        E 31 b8 07 05
        E 31 b8 07 04
        E 31 b8 07 04
        E 31 b8 07 04
        E 31 b8 07 04
        E 31 b8 07 04
        E 31 b8 07 03
        E 31 b8 07 03
        E 31 b8 07 03
        E 31 b8 07 03
        E 31 b8 07 03
        E 31 b8 07 02
        E 31 b8 07 02
        E 31 b8 07 02
        E 31 b8 07 02
        E 31 b8 07 02
        E 31 b8 07 01
        E 31 b8 07 01
        E 31 b8 07 01
        E 31 b8 07 01
        E 31 b8 07 01
        E 31 b8 07 00
        E 31 b8 07 00
        E 31 b8 07 00
        E 31 b8 07 00
        E 31 b8 07 00
        E 31 b8 07 00
        E 31 b8 07 01
        E 31 b8 07 01
        E 31 b8 07 02
        E 31 b8 07 03
        E 31 b8 07 03
        E 31 b8 07 04
        E 31 b8 07 04
        E 31 b8 07 05
        E 31 b8 07 06
        E 31 b8 07 06
        E 31 b8 07 07
        E 31 b8 07 07
        E 31 b8 07 08
        E 31 b8 07 09
        E 31 b8 07 09
        E 31 b8 07 0a
        E 31 b8 07 0a
        E 31 b8 07 0b
        E 31 b8 07 0c
        E 31 b8 07 0c
        E 31 b8 07 0d
        E 31 b8 07 0d
        E 31 b8 07 0e
        E 31 b8 07 0f
        E 31 b8 07 0f
        E 31 b8 07 10
        E 31 b8 07 10
        E 31 b8 07 11
        E 31 b8 07 12
        E 31 b8 07 12
        E 31 b8 07 13
        E 31 b8 07 13
        E 31 b8 07 14
        E 31 b8 07 15
        E 31 b8 07 15
        E 31 b8 07 16
        E 31 b8 07 16
        E 31 b8 07 17
        E 31 b8 07 18
        E 31 b8 07 18
        E 31 b8 07 19
        E 31 b8 07 19
        E 31 b8 07 1a
        E 31 b8 07 1b
        E 31 b8 07 1b
        E 31 b8 07 1c
        E 31 b8 07 1c
        E 31 b8 07 1d
        E 31 b8 07 1e
        E 31 b8 07 1e
        E 31 b8 07 1f
        E 31 b8 07 1f
        E 31 b8 07 20
        E 31 b8 07 21
        E 31 b8 07 21
        E 31 b8 07 22
        E 31 b8 07 22
        E 31 b8 07 23
        E 31 b8 07 24
        E 31 b8 07 24
        E 31 b8 07 25
        E 31 b8 07 25
        E 31 b8 07 26
        E 31 b8 07 25
        E 31 b8 07 25
        E 31 b8 07 24
        E 31 b8 07 24
        E 31 b8 07 23
        E 31 b8 07 22
        E 31 b8 07 22
        E 31 b8 07 21
        E 31 b8 07 21
        E 31 b8 07 20
        E 31 b8 07 1f
        E 31 b8 07 1f
        E 31 b8 07 1e
        E 31 b8 07 1e
        E 31 b8 07 1d
        E 31 b8 07 1c
        E 31 b8 07 1c
        E 31 b8 07 1b
        E 31 b8 07 1b
        E 31 b8 07 1a
        E 31 b8 07 19
        E 31 b8 07 19
        E 31 b8 07 18
        E 31 b8 07 18
        E 31 b8 07 17
        E 31 b8 07 16
        E 31 b8 07 16
        E 31 b8 07 15
        E 31 b8 07 15
        E 31 b8 07 14
        E 31 b8 07 13
        E 31 b8 07 13
        E 31 b8 07 12
        E 31 b8 07 12
        E 31 b8 07 11
        E 31 b8 07 10
        E 31 b8 07 10
        E 31 b8 07 0f
        E 31 b8 07 0f
        E 31 b8 07 0e
        E 31 b8 07 0d
        E 31 b8 07 0d
        E 31 b8 07 0c
        E 31 b8 07 0c
        E 31 b8 07 0b
        E 31 b8 07 0a
        E 31 b8 07 0a
        E 31 b8 07 09
        E 31 b8 07 09
        E 31 b8 07 08
        E 31 b8 07 07
        E 31 b8 07 07
        E 31 b8 07 06
        E 31 b8 07 06
        E 31 b8 07 05
        E 31 b8 07 04
        E 31 b8 07 04
        E 31 b8 07 03
        E 31 b8 07 03
        E 31 b8 07 02
        E 31 b8 07 01
        E 31 b8 07 01
        E 31 b8 07 00
        E 31 b8 07 00
        E 35 b8 07 39
        E 35 b8 07 3c
        E 35 b8 07 3f
        E 35 b8 07 41
        E 35 b8 07 44
        E 35 b8 07 47
        E 35 b8 07 49
        E 35 b8 07 4c
        E 35 b8 07 4f
        E 35 b8 07 51
        E 35 b8 07 54
        E 35 b8 07 56
        E 35 b8 07 59
        E 35 b8 07 5b
        E 35 b8 07 5d
        E 35 b8 07 5f
        E 35 b8 07 62
        E 35 b8 07 63
        E 35 b8 07 65
        E 35 b8 07 67
        E 35 b8 07 69
        E 35 b8 07 6a
        E 35 b8 07 6c
        E 35 b8 07 6c
        E 35 b8 07 6d
        E 35 b8 07 6e
        E 35 b8 07 6f
        E 35 b8 07 70
        E 35 b8 07 71
        E 35 b8 07 71
        E 35 b8 07 72
        E 35 b8 07 72
        E 35 b8 07 72
        E 35 b8 07 72
        E 35 b8 07 72
        E 35 b8 07 71
        E 35 b8 07 71
        E 35 b8 07 70
        E 35 b8 07 6f
        E 35 b8 07 6e
        E 35 b8 07 6d
        E 35 b8 07 6c
        E 35 b8 07 6b
        E 35 b8 07 69
        E 35 b8 07 68
        E 35 b8 07 66
        E 35 b8 07 64
        E 35 b8 07 63
        E 35 b8 07 61
        E 35 b8 07 5e
        E 35 b8 07 5c
        E 35 b8 07 5a
        E 35 b8 07 58
        E 35 b8 07 55
        E 35 b8 07 52
        E 35 b8 07 50
        E 35 b8 07 4e
        E 35 b8 07 4b
        E 35 b8 07 48
        E 35 b8 07 46
        E 35 b8 07 42
        E 35 b8 07 3f
        E 35 b8 07 3d
        E 35 b8 07 3a
        E 35 b8 07 37
        E 35 b8 07 35
        E 35 b8 07 32
        E 35 b8 07 2f
        E 35 b8 07 2c
        E 35 b8 07 29
        E 35 b8 07 26
        E 35 b8 07 24
        E 35 b8 07 22
        E 35 b8 07 1f
        E 35 b8 07 1c
        E 35 b8 07 1a
        E 35 b8 07 18
        E 35 b8 07 15
        E 35 b8 07 13
        E 35 b8 07 11
        E 35 b8 07 0f
        E 35 b8 07 0d
        E 35 b8 07 0b
        E 35 b8 07 09
        E 35 b8 07 09
        E 35 b8 07 07
        E 35 b8 07 06
        E 35 b8 07 04
        E 35 b8 07 03
        E 35 b8 07 02
        E 35 b8 07 01
        E 35 b8 07 00
        E 35 b8 07 00
        E 35 b8 07 00
        E 35 b8 07 00
        E 35 b8 07 00
        E 35 b8 07 00
        E 35 b8 07 00
        E 35 b8 07 00
        E 35 b8 07 00
        E 35 b8 07 01
        E 35 b8 07 02
        E 35 b8 07 03
        E 35 b8 07 04
        E 35 b8 07 05
        E 35 b8 07 06
        E 35 b8 07 08
        E 35 b8 07 09
        E 35 b8 07 0a
        E 35 b8 07 0c
        E 35 b8 07 0e
        E 35 b8 07 10
        E 35 b8 07 12
        E 35 b8 07 14
        E 35 b8 07 16
        E 35 b8 07 19
        E 35 b8 07 1b
        E 35 b8 07 1d
        E 35 b8 07 20
        E 35 b8 07 23
        E 35 b8 07 25
        E 35 b8 07 28
        E 35 b8 07 2b
        E 35 b8 07 2d
        E 35 b8 07 30
        E 35 b8 07 33
        E 35 b8 07 36
        E 35 b8 07 39
        E 20 b8 07 20
        E 20 b8 07 21
        E 20 b8 07 23
        E 20 b8 07 24
        E 20 b8 07 26
        E 20 b8 07 27
        E 20 b8 07 29
        E 20 b8 07 2a
        E 20 b8 07 2c
        E 20 b8 07 2d
        E 20 b8 07 2f
        E 20 b8 07 30
        E 20 b8 07 31
        E 20 b8 07 33
        E 20 b8 07 34
        E 20 b8 07 35
        E 20 b8 07 36
        E 20 b8 07 37
        E 20 b8 07 38
        E 20 b8 07 39
        E 20 b8 07 3a
        E 20 b8 07 3b
        E 20 b8 07 3c
        E 20 b8 07 3c
        E 20 b8 07 3d
        E 20 b8 07 3d
        E 20 b8 07 3e
        E 20 b8 07 3e
        E 20 b8 07 3f
        E 20 b8 07 3f
        E 20 b8 07 3f
        E 20 b8 07 3f
        E 20 b8 07 3f
        E 20 b8 07 3f
        E 20 b8 07 3f
        E 20 b8 07 3f
        E 20 b8 07 3f
        E 20 b8 07 3e
        E 20 b8 07 3e
        E 20 b8 07 3d
        E 20 b8 07 3d
        E 20 b8 07 3c
        E 20 b8 07 3b
        E 20 b8 07 3a
        E 20 b8 07 3a
        E 20 b8 07 39
        E 20 b8 07 38
        E 20 b8 07 37
        E 20 b8 07 36
        E 20 b8 07 34
        E 20 b8 07 33
        E 20 b8 07 32
        E 20 b8 07 31
        E 20 b8 07 2f
        E 20 b8 07 2e
        E 20 b8 07 2c
        E 20 b8 07 2b
        E 20 b8 07 2a
        E 20 b8 07 28
        E 20 b8 07 27
        E 20 b8 07 25
        E 20 b8 07 23
        E 20 b8 07 22
        E 20 b8 07 20
        E 20 b8 07 1f
        E 20 b8 07 1d
        E 20 b8 07 1c
        E 20 b8 07 1a
        E 20 b8 07 18
        E 20 b8 07 17
        E 20 b8 07 15
        E 20 b8 07 14
        E 20 b8 07 13
        E 20 b8 07 11
        E 20 b8 07 10
        E 20 b8 07 0e
        E 20 b8 07 0d
        E 20 b8 07 0c
        E 20 b8 07 0b
        E 20 b8 07 09
        E 20 b8 07 08
        E 20 b8 07 07
        E 20 b8 07 06
        E 20 b8 07 05
        E 20 b8 07 05
        E 20 b8 07 04
        E 20 b8 07 03
        E 20 b8 07 02
        E 20 b8 07 02
        E 20 b8 07 01
        E 20 b8 07 01
        E 20 b8 07 00
        E 20 b8 07 00
        E 20 b8 07 00
        E 20 b8 07 00
        E 20 b8 07 00
        E 20 b8 07 00
        E 20 b8 07 00
        E 20 b8 07 00
        E 20 b8 07 00
        E 20 b8 07 01
        E 20 b8 07 01
        E 20 b8 07 02
        E 20 b8 07 02
        E 20 b8 07 03
        E 20 b8 07 03
        E 20 b8 07 04
        E 20 b8 07 05
        E 20 b8 07 06
        E 20 b8 07 07
        E 20 b8 07 08
        E 20 b8 07 09
        E 20 b8 07 0a
        E 20 b8 07 0b
        E 20 b8 07 0c
        E 20 b8 07 0e
        E 20 b8 07 0f
        E 20 b8 07 10
        E 20 b8 07 12
        E 20 b8 07 13
        E 20 b8 07 15
        E 20 b8 07 16
        E 20 b8 07 18
        E 20 b8 07 19
        E 20 b8 07 1b
        E 20 b8 07 1c
        E 20 b8 07 1e
        E 20 b8 07 20
        E 40 b8 07 06
        E 40 b8 07 06
        E 40 b8 07 07
        E 40 b8 07 07
        E 40 b8 07 07
        E 40 b8 07 07
        E 40 b8 07 08
        E 40 b8 07 08
        E 40 b8 07 08
        E 40 b8 07 09
        E 40 b8 07 09
        E 40 b8 07 09
        E 40 b8 07 09
        E 40 b8 07 0a
        E 40 b8 07 0a
        E 40 b8 07 0a
        E 40 b8 07 0a
        E 40 b8 07 0b
        E 40 b8 07 0b
        E 40 b8 07 0b
        E 40 b8 07 0b
        E 40 b8 07 0b
        E 40 b8 07 0c
        E 40 b8 07 0c
        E 40 b8 07 0c
        E 40 b8 07 0c
        E 40 b8 07 0c
        E 40 b8 07 0c
        E 40 b8 07 0c
        E 40 b8 07 0c
        E 40 b8 07 0c
        E 40 b8 07 0c
        E 40 b8 07 0c
        E 40 b8 07 0c
        E 40 b8 07 0c
        E 40 b8 07 0c
        E 40 b8 07 0c
        E 40 b8 07 0c
        E 40 b8 07 0c
        E 40 b8 07 0c
        E 40 b8 07 0c
        E 40 b8 07 0c
        E 40 b8 07 0b
        E 40 b8 07 0b
        E 40 b8 07 0b
        E 40 b8 07 0b
        E 40 b8 07 0b
        E 40 b8 07 0b
        E 40 b8 07 0a
        E 40 b8 07 0a
        E 40 b8 07 0a
        E 40 b8 07 0a
        E 40 b8 07 09
        E 40 b8 07 09
        E 40 b8 07 09
        E 40 b8 07 08
        E 40 b8 07 08
        E 40 b8 07 08
        E 40 b8 07 08
        E 40 b8 07 07
        E 40 b8 07 07
        E 40 b8 07 07
        E 40 b8 07 06
        E 40 b8 07 06
        E 40 b8 07 06
        E 40 b8 07 05
        E 40 b8 07 05
        E 40 b8 07 05
        E 40 b8 07 04
        E 40 b8 07 04
        E 40 b8 07 04
        E 40 b8 07 04
        E 40 b8 07 03
        E 40 b8 07 03
        E 40 b8 07 03
        E 40 b8 07 02
        E 40 b8 07 02
        E 40 b8 07 02
        E 40 b8 07 02
        E 40 b8 07 01
        E 40 b8 07 01
        E 40 b8 07 01
        E 40 b8 07 01
        E 40 b8 07 01
        E 40 b8 07 01
        E 40 b8 07 00
        E 40 b8 07 00
        E 40 b8 07 00
        E 40 b8 07 00
        E 40 b8 07 00
        E 40 b8 07 00
        E 40 b8 07 00
        E 40 b8 07 00
        E 40 b8 07 00
        E 40 b8 07 00
        E 40 b8 07 00
        E 40 b8 07 00
        E 40 b8 07 00
        E 40 b8 07 00
        E 40 b8 07 00
        E 40 b8 07 00
        E 40 b8 07 00
        E 40 b8 07 00
        E 40 b8 07 00
        E 40 b8 07 00
        E 40 b8 07 00
        E 40 b8 07 00
        E 40 b8 07 01
        E 40 b8 07 01
        E 40 b8 07 01
        E 40 b8 07 01
        E 40 b8 07 01
        E 40 b8 07 02
        E 40 b8 07 02
        E 40 b8 07 02
        E 40 b8 07 02
        E 40 b8 07 03
        E 40 b8 07 03
        E 40 b8 07 03
        E 40 b8 07 03
        E 40 b8 07 04
        E 40 b8 07 04
        E 40 b8 07 04
        E 40 b8 07 05
        E 40 b8 07 05
        E 40 b8 07 05
        E 40 b8 07 06
        E 40 b8 07 06
        E 40 b8 07 13
        E 40 b8 07 14
        E 40 b8 07 15
        E 40 b8 07 15
        E 40 b8 07 16
        E 40 b8 07 17
        E 40 b8 07 18
        E 40 b8 07 19
        E 40 b8 07 1a
        E 40 b8 07 1b
        E 40 b8 07 1c
        E 40 b8 07 1c
        E 40 b8 07 1d
        E 40 b8 07 1e
        E 40 b8 07 1f
        E 40 b8 07 1f
        E 40 b8 07 20
        E 40 b8 07 21
        E 40 b8 07 21
        E 40 b8 07 22
        E 40 b8 07 23
        E 40 b8 07 23
        E 40 b8 07 24
        E 40 b8 07 24
        E 40 b8 07 24
        E 40 b8 07 24
        E 40 b8 07 25
        E 40 b8 07 25
        E 40 b8 07 25
        E 40 b8 07 25
        E 40 b8 07 26
        E 40 b8 07 26
        E 40 b8 07 26
        E 40 b8 07 26
        E 40 b8 07 26
        E 40 b8 07 25
        E 40 b8 07 25
        E 40 b8 07 25
        E 40 b8 07 25
        E 40 b8 07 24
        E 40 b8 07 24
        E 40 b8 07 24
        E 40 b8 07 23
        E 40 b8 07 23
        E 40 b8 07 22
        E 40 b8 07 22
        E 40 b8 07 21
        E 40 b8 07 21
        E 40 b8 07 20
        E 40 b8 07 1f
        E 40 b8 07 1e
        E 40 b8 07 1e
        E 40 b8 07 1d
        E 40 b8 07 1c
        E 40 b8 07 1b
        E 40 b8 07 1a
        E 40 b8 07 1a
        E 40 b8 07 19
        E 40 b8 07 18
        E 40 b8 07 17
        E 40 b8 07 16
        E 40 b8 07 15
        E 40 b8 07 14
        E 40 b8 07 13
        E 40 b8 07 12
        E 40 b8 07 11
        E 40 b8 07 10
        E 40 b8 07 0f
        E 40 b8 07 0e
        E 40 b8 07 0d
        E 40 b8 07 0c
        E 40 b8 07 0c
        E 40 b8 07 0b
        E 40 b8 07 0a
        E 40 b8 07 09
        E 40 b8 07 08
        E 40 b8 07 08
        E 40 b8 07 07
        E 40 b8 07 06
        E 40 b8 07 05
        E 40 b8 07 05
        E 40 b8 07 04
        E 40 b8 07 03
        E 40 b8 07 03
        E 40 b8 07 03
        E 40 b8 07 02
        E 40 b8 07 02
        E 40 b8 07 01
        E 40 b8 07 01
        E 40 b8 07 00
        E 40 b8 07 00
        E 40 b8 07 00
        E 40 b8 07 00
        E 40 b8 07 00
        E 40 b8 07 00
        E 40 b8 07 00
        E 40 b8 07 00
        E 40 b8 07 00
        E 40 b8 07 00
        E 40 b8 07 00
        E 40 b8 07 00
        E 40 b8 07 00
        E 40 b8 07 01
        E 40 b8 07 01
        E 40 b8 07 01
        E 40 b8 07 02
        E 40 b8 07 02
        E 40 b8 07 03
        E 40 b8 07 03
        E 40 b8 07 04
        E 40 b8 07 04
        E 40 b8 07 05
        E 40 b8 07 06
        E 40 b8 07 06
        E 40 b8 07 07
        E 40 b8 07 08
        E 40 b8 07 09
        E 40 b8 07 09
        E 40 b8 07 0a
        E 40 b8 07 0b
        E 40 b8 07 0c
        E 40 b8 07 0d
        E 40 b8 07 0e
        E 40 b8 07 0f
        E 40 b8 07 10
        E 40 b8 07 11
        E 40 b8 07 12
        E 40 b8 07 13
        E 35 b8 07 39
        E 35 b8 07 3c
        E 35 b8 07 3f
        E 35 b8 07 41
        E 35 b8 07 44
        E 35 b8 07 47
        E 35 b8 07 49
        E 35 b8 07 4c
        E 35 b8 07 4f
        E 35 b8 07 51
        E 35 b8 07 54
        E 35 b8 07 56
        E 35 b8 07 59
        E 35 b8 07 5b
        E 35 b8 07 5d
        E 35 b8 07 5f
        E 35 b8 07 62
        E 35 b8 07 63
        E 35 b8 07 65
        E 35 b8 07 67
        E 35 b8 07 69
        E 35 b8 07 6a
        E 35 b8 07 6c
        E 35 b8 07 6c
        E 35 b8 07 6d
        E 35 b8 07 6e
        E 35 b8 07 6f
        E 35 b8 07 70
        E 35 b8 07 71
        E 35 b8 07 71
        E 35 b8 07 72
        E 35 b8 07 72
        E 35 b8 07 72
        E 35 b8 07 72
        E 35 b8 07 72
        E 35 b8 07 71
        E 35 b8 07 71
        E 35 b8 07 70
        E 35 b8 07 6f
        E 35 b8 07 6e
        E 35 b8 07 6d
        E 35 b8 07 6c
        E 35 b8 07 6b
        E 35 b8 07 69
        E 35 b8 07 68
        E 35 b8 07 66
        E 35 b8 07 64
        E 35 b8 07 63
        E 35 b8 07 61
        E 35 b8 07 5e
        E 35 b8 07 5c
        E 35 b8 07 5a
        E 35 b8 07 58
        E 35 b8 07 55
        E 35 b8 07 52
        E 35 b8 07 50
        E 35 b8 07 4e
        E 35 b8 07 4b
        E 35 b8 07 48
        E 35 b8 07 46
        E 35 b8 07 42
        E 35 b8 07 3f
        E 35 b8 07 3d
        E 35 b8 07 3a
        E 35 b8 07 37
        E 35 b8 07 35
        E 35 b8 07 32
        E 35 b8 07 2f
        E 35 b8 07 2c
        E 35 b8 07 29
        E 35 b8 07 26
        E 35 b8 07 24
        E 35 b8 07 22
        E 35 b8 07 1f
        E 35 b8 07 1c
        E 35 b8 07 1a
        E 35 b8 07 18
        E 35 b8 07 15
        E 35 b8 07 13
        E 35 b8 07 11
        E 35 b8 07 0f
        E 35 b8 07 0d
        E 35 b8 07 0b
        E 35 b8 07 09
        E 35 b8 07 09
        E 35 b8 07 07
        E 35 b8 07 06
        E 35 b8 07 04
        E 35 b8 07 03
        E 35 b8 07 02
        E 35 b8 07 01
        E 35 b8 07 00
        E 35 b8 07 00
        E 35 b8 07 00
        E 35 b8 07 00
        E 35 b8 07 00
        E 35 b8 07 00
        E 35 b8 07 00
        E 35 b8 07 00
        E 35 b8 07 00
        E 35 b8 07 01
        E 35 b8 07 02
        E 35 b8 07 03
        E 35 b8 07 04
        E 35 b8 07 05
        E 35 b8 07 06
        E 35 b8 07 08
        E 35 b8 07 09
        E 35 b8 07 0a
        E 35 b8 07 0c
        E 35 b8 07 0e
        E 35 b8 07 10
        E 35 b8 07 12
        E 35 b8 07 14
        E 35 b8 07 16
        E 35 b8 07 19
        E 35 b8 07 1b
        E 35 b8 07 1d
        E 35 b8 07 20
        E 35 b8 07 23
        E 35 b8 07 25
        E 35 b8 07 28
        E 35 b8 07 2b
        E 35 b8 07 2d
        E 35 b8 07 30
        E 35 b8 07 33
        E 35 b8 07 36
        E 35 b8 07 39
        E 20 b8 07 20
        E 20 b8 07 21
        E 20 b8 07 23
        E 20 b8 07 24
        E 20 b8 07 26
        E 20 b8 07 27
        E 20 b8 07 29
        E 20 b8 07 2a
        E 20 b8 07 2c
        E 20 b8 07 2d
        E 20 b8 07 2f
        E 20 b8 07 30
        E 20 b8 07 31
        E 20 b8 07 33
        E 20 b8 07 34
        E 20 b8 07 35
        E 20 b8 07 36
        E 20 b8 07 37
        E 20 b8 07 38
        E 20 b8 07 39
        E 20 b8 07 3a
        E 20 b8 07 3b
        E 20 b8 07 3c
        E 20 b8 07 3c
        E 20 b8 07 3d
        E 20 b8 07 3d
        E 20 b8 07 3e
        E 20 b8 07 3e
        E 20 b8 07 3f
        E 20 b8 07 3f
        E 20 b8 07 3f
        E 20 b8 07 3f
        E 20 b8 07 3f
        E 20 b8 07 3f
        E 20 b8 07 3f
        E 20 b8 07 3f
        E 20 b8 07 3f
        E 20 b8 07 3e
        E 20 b8 07 3e
        E 20 b8 07 3d
        E 20 b8 07 3d
        E 20 b8 07 3c
        E 20 b8 07 3b
        E 20 b8 07 3a
        E 20 b8 07 3a
        E 20 b8 07 39
        E 20 b8 07 38
        E 20 b8 07 37
        E 20 b8 07 36
        E 20 b8 07 34
        E 20 b8 07 33
        E 20 b8 07 32
        E 20 b8 07 31
        E 20 b8 07 2f
        E 20 b8 07 2e
        E 20 b8 07 2c
        E 20 b8 07 2b
        E 20 b8 07 2a
        E 20 b8 07 28
        E 20 b8 07 27
        E 20 b8 07 25
        E 20 b8 07 23
        E 20 b8 07 22
        E 20 b8 07 20
        E 20 b8 07 1f
        E 20 b8 07 1d
        E 20 b8 07 1c
        E 20 b8 07 1a
        E 20 b8 07 18
        E 20 b8 07 17
        E 20 b8 07 15
        E 20 b8 07 14
        E 20 b8 07 13
        E 20 b8 07 11
        E 20 b8 07 10
        E 20 b8 07 0e
        E 20 b8 07 0d
        E 20 b8 07 0c
        E 20 b8 07 0b
        E 20 b8 07 09
        E 20 b8 07 08
        E 20 b8 07 07
        E 20 b8 07 06
        E 20 b8 07 05
        E 20 b8 07 05
        E 20 b8 07 04
        E 20 b8 07 03
        E 20 b8 07 02
        E 20 b8 07 02
        E 20 b8 07 01
        E 20 b8 07 01
        E 20 b8 07 00
        E 20 b8 07 00
        E 20 b8 07 00
        E 20 b8 07 00
        E 20 b8 07 00
        E 20 b8 07 00
        E 20 b8 07 00
        E 20 b8 07 00
        E 20 b8 07 00
        E 20 b8 07 01
        E 20 b8 07 01
        E 20 b8 07 02
        E 20 b8 07 02
        E 20 b8 07 03
        E 20 b8 07 03
        E 20 b8 07 04
        E 20 b8 07 05
        E 20 b8 07 06
        E 20 b8 07 07
        E 20 b8 07 08
        E 20 b8 07 09
        E 20 b8 07 0a
        E 20 b8 07 0b
        E 20 b8 07 0c
        E 20 b8 07 0e
        E 20 b8 07 0f
        E 20 b8 07 10
        E 20 b8 07 12
        E 20 b8 07 13
        E 20 b8 07 15
        E 20 b8 07 16
        E 20 b8 07 18
        E 20 b8 07 19
        E 20 b8 07 1b
        E 20 b8 07 1c
        E 20 b8 07 1e
        E 20 b8 07 20
        E 40 b8 07 06
        E 40 b8 07 06
        E 40 b8 07 07
        E 40 b8 07 07
        E 40 b8 07 07
        E 40 b8 07 07
        E 40 b8 07 08
        E 40 b8 07 08
        E 40 b8 07 08
        E 40 b8 07 09
        E 40 b8 07 09
        E 40 b8 07 09
        E 40 b8 07 09
        E 40 b8 07 0a
        E 40 b8 07 0a
        E 40 b8 07 0a
        E 40 b8 07 0a
        E 40 b8 07 0b
        E 40 b8 07 0b
        E 40 b8 07 0b
        E 40 b8 07 0b
        E 40 b8 07 0b
        E 40 b8 07 0c
        E 40 b8 07 0c
        E 40 b8 07 0c
        E 40 b8 07 0c
        E 40 b8 07 0c
        E 40 b8 07 0c
        E 40 b8 07 0c
        E 40 b8 07 0c
        E 40 b8 07 0c
        E 40 b8 07 0c
        E 40 b8 07 0c
        E 40 b8 07 0c
        E 40 b8 07 0c
        E 40 b8 07 0c
        E 40 b8 07 0c
        E 40 b8 07 0c
        E 40 b8 07 0c
        E 40 b8 07 0c
        E 40 b8 07 0c
        E 40 b8 07 0c
        E 40 b8 07 0b
        E 40 b8 07 0b
        E 40 b8 07 0b
        E 40 b8 07 0b
        E 40 b8 07 0b
        E 40 b8 07 0b
        E 40 b8 07 0a
        E 40 b8 07 0a
        E 40 b8 07 0a
        E 40 b8 07 0a
        E 40 b8 07 09
        E 40 b8 07 09
        E 40 b8 07 09
        E 40 b8 07 08
        E 40 b8 07 08
        E 40 b8 07 08
        E 40 b8 07 08
        E 40 b8 07 07
        E 40 b8 07 07
        E 40 b8 07 07
        E 40 b8 07 06
        E 40 b8 07 06
        E 40 b8 07 06
        E 40 b8 07 05
        E 40 b8 07 05
        E 40 b8 07 05
        E 40 b8 07 04
        E 40 b8 07 04
        E 40 b8 07 04
        E 40 b8 07 04
        E 40 b8 07 03
        E 40 b8 07 03
        E 40 b8 07 03
        E 40 b8 07 02
        E 40 b8 07 02
        E 40 b8 07 02
        E 40 b8 07 02
        E 40 b8 07 01
        E 40 b8 07 01
        E 40 b8 07 01
        E 40 b8 07 01
        E 40 b8 07 01
        E 40 b8 07 01
        E 40 b8 07 00
        E 40 b8 07 00
        E 40 b8 07 00
        E 40 b8 07 00
        E 40 b8 07 00
        E 40 b8 07 00
        E 40 b8 07 00
        E 40 b8 07 00
        E 40 b8 07 00
        E 40 b8 07 00
        E 40 b8 07 00
        E 40 b8 07 00
        E 40 b8 07 00
        E 40 b8 07 00
        E 40 b8 07 00
        E 40 b8 07 00
        E 40 b8 07 00
        E 40 b8 07 00
        E 40 b8 07 00
        E 40 b8 07 00
        E 40 b8 07 00
        E 40 b8 07 00
        E 40 b8 07 01
        E 40 b8 07 01
        E 40 b8 07 01
        E 40 b8 07 01
        E 40 b8 07 01
        E 40 b8 07 02
        E 40 b8 07 02
        E 40 b8 07 02
        E 40 b8 07 02
        E 40 b8 07 03
        E 40 b8 07 03
        E 40 b8 07 03
        E 40 b8 07 03
        E 40 b8 07 04
        E 40 b8 07 04
        E 40 b8 07 04
        E 40 b8 07 05
        E 40 b8 07 05
        E 40 b8 07 05
        E 40 b8 07 06
        E 40 b8 07 06
        E 40 b8 07 13
        E 40 b8 07 14
        E 40 b8 07 15
        E 40 b8 07 15
        E 40 b8 07 16
        E 40 b8 07 17
        E 40 b8 07 18
        E 40 b8 07 19
        E 40 b8 07 1a
        E 40 b8 07 1b
        E 40 b8 07 1c
        E 40 b8 07 1c
        E 40 b8 07 1d
        E 40 b8 07 1e
        E 40 b8 07 1f
        E 40 b8 07 1f
        E 40 b8 07 20
        E 40 b8 07 21
        E 40 b8 07 21
        E 40 b8 07 22
        E 40 b8 07 23
        E 40 b8 07 23
        E 40 b8 07 24
        E 40 b8 07 24
        E 40 b8 07 24
        E 40 b8 07 24
        E 40 b8 07 25
        E 40 b8 07 25
        E 40 b8 07 25
        E 40 b8 07 25
        E 40 b8 07 26
        E 40 b8 07 26
        E 40 b8 07 26
        E 40 b8 07 26
        E 40 b8 07 26
        E 40 b8 07 25
        E 40 b8 07 25
        E 40 b8 07 25
        E 40 b8 07 25
        E 40 b8 07 24
        E 40 b8 07 24
        E 40 b8 07 24
        E 40 b8 07 23
        E 40 b8 07 23
        E 40 b8 07 22
        E 40 b8 07 22
        E 40 b8 07 21
        E 40 b8 07 21
        E 40 b8 07 20
        E 40 b8 07 1f
        E 40 b8 07 1e
        E 40 b8 07 1e
        E 40 b8 07 1d
        E 40 b8 07 1c
        E 40 b8 07 1b
        E 40 b8 07 1a
        E 40 b8 07 1a
        E 40 b8 07 19
        E 40 b8 07 18
        E 40 b8 07 17
        E 40 b8 07 16
        E 40 b8 07 15
        E 40 b8 07 14
        E 40 b8 07 13
        E 40 b8 07 12
        E 40 b8 07 11
        E 40 b8 07 10
        E 40 b8 07 0f
        E 40 b8 07 0e
        E 40 b8 07 0d
        E 40 b8 07 0c
        E 40 b8 07 0c
        E 40 b8 07 0b
        E 40 b8 07 0a
        E 40 b8 07 09
        E 40 b8 07 08
        E 40 b8 07 08
        E 40 b8 07 07
        E 40 b8 07 06
        E 40 b8 07 05
        E 40 b8 07 05
        E 40 b8 07 04
        E 40 b8 07 03
        E 40 b8 07 03
        E 40 b8 07 03
        E 40 b8 07 02
        E 40 b8 07 02
        E 40 b8 07 01
        E 40 b8 07 01
        E 40 b8 07 00
        E 40 b8 07 00
        E 40 b8 07 00
        E 40 b8 07 00
        E 40 b8 07 00
        E 40 b8 07 00
        E 40 b8 07 00
        E 40 b8 07 00
        E 40 b8 07 00
        E 40 b8 07 00
        E 40 b8 07 00
        E 40 b8 07 00
        E 40 b8 07 00
        E 40 b8 07 01
        E 40 b8 07 01
        E 40 b8 07 01
        E 40 b8 07 02
        E 40 b8 07 02
        E 40 b8 07 03
        E 40 b8 07 03
        E 40 b8 07 04
        E 40 b8 07 04
        E 40 b8 07 05
        E 40 b8 07 06
        E 40 b8 07 06
        E 40 b8 07 07
        E 40 b8 07 08
        E 40 b8 07 09
        E 40 b8 07 09
        E 40 b8 07 0a
        E 40 b8 07 0b
        E 40 b8 07 0c
        E 40 b8 07 0d
        E 40 b8 07 0e
        E 40 b8 07 0f
        E 40 b8 07 10
        E 40 b8 07 11
        E 40 b8 07 12
        E 40 b8 07 13
        E 35 b8 07 39
        E 35 b8 07 3c
        E 35 b8 07 3f
        E 35 b8 07 41
        E 35 b8 07 44
        E 35 b8 07 47
        E 35 b8 07 49
        E 35 b8 07 4c
        E 35 b8 07 4f
        E 35 b8 07 51
        E 35 b8 07 54
        E 35 b8 07 56
        E 35 b8 07 59
        E 35 b8 07 5b
        E 35 b8 07 5d
        E 35 b8 07 5f
        E 35 b8 07 62
        E 35 b8 07 63
        E 35 b8 07 65
        E 35 b8 07 67
        E 35 b8 07 69
        E 35 b8 07 6a
        E 35 b8 07 6c
        E 35 b8 07 6c
        E 35 b8 07 6d
        E 35 b8 07 6e
        E 35 b8 07 6f
        E 35 b8 07 70
        E 35 b8 07 71
        E 35 b8 07 71
        E 35 b8 07 72
        E 35 b8 07 72
        E 35 b8 07 72
        E 35 b8 07 72
        E 35 b8 07 72
        E 35 b8 07 71
        E 35 b8 07 71
        E 35 b8 07 70
        E 35 b8 07 6f
        E 35 b8 07 6e
        E 35 b8 07 6d
        E 35 b8 07 6c
        E 35 b8 07 6b
        E 35 b8 07 69
        E 35 b8 07 68
        E 35 b8 07 66
        E 35 b8 07 64
        E 35 b8 07 63
        E 35 b8 07 61
        E 35 b8 07 5e
        E 35 b8 07 5c
        E 35 b8 07 5a
        E 35 b8 07 58
        E 35 b8 07 55
        E 35 b8 07 52
        E 35 b8 07 50
        E 35 b8 07 4e
        E 35 b8 07 4b
        E 35 b8 07 48
        E 35 b8 07 46
        E 35 b8 07 42
        E 35 b8 07 3f
        E 35 b8 07 3d
        E 35 b8 07 3a
        E 35 b8 07 37
        E 35 b8 07 35
        E 35 b8 07 32
        E 35 b8 07 2f
        E 35 b8 07 2c
        E 35 b8 07 29
        E 35 b8 07 26
        E 35 b8 07 24
        E 35 b8 07 22
        E 35 b8 07 1f
        E 35 b8 07 1c
        E 35 b8 07 1a
        E 35 b8 07 18
        E 35 b8 07 15
        E 35 b8 07 13
        E 35 b8 07 11
        E 35 b8 07 0f
        E 35 b8 07 0d
        E 35 b8 07 0b
        E 35 b8 07 09
        E 35 b8 07 09
        E 35 b8 07 07
        E 35 b8 07 06
        E 35 b8 07 04
        E 35 b8 07 03
        E 35 b8 07 02
        E 35 b8 07 01
        E 35 b8 07 00
        E 35 b8 07 00
        E 35 b8 07 00
        E 35 b8 07 00
        E 35 b8 07 00
        E 35 b8 07 00
        E 35 b8 07 00
        E 35 b8 07 00
        E 35 b8 07 00
        E 35 b8 07 01
        E 35 b8 07 02
        E 35 b8 07 03
        E 35 b8 07 04
        E 35 b8 07 05
        E 35 b8 07 06
        E 35 b8 07 08
        E 35 b8 07 09
        E 35 b8 07 0a
        E 35 b8 07 0c
        E 35 b8 07 0e
        E 35 b8 07 10
        E 35 b8 07 12
        E 35 b8 07 14
        E 35 b8 07 16
        E 35 b8 07 19
        E 35 b8 07 1b
        E 35 b8 07 1d
        E 35 b8 07 20
        E 35 b8 07 23
        E 35 b8 07 25
        E 35 b8 07 28
        E 35 b8 07 2b
        E 35 b8 07 2d
        E 35 b8 07 30
        E 35 b8 07 33
        E 35 b8 07 36
        E 35 b8 07 39
        E 20 b8 07 20
        E 20 b8 07 21
        E 20 b8 07 23
        E 20 b8 07 24
        E 20 b8 07 26
        E 20 b8 07 27
        E 20 b8 07 29
        E 20 b8 07 2a
        E 20 b8 07 2c
        E 20 b8 07 2d
        E 20 b8 07 2f
        E 20 b8 07 30
        E 20 b8 07 31
        E 20 b8 07 33
        E 20 b8 07 34
        E 20 b8 07 35
        E 20 b8 07 36
        E 20 b8 07 37
        E 20 b8 07 38
        E 20 b8 07 39
        E 20 b8 07 3a
        E 20 b8 07 3b
        E 20 b8 07 3c
        E 20 b8 07 3c
        E 20 b8 07 3d
        E 20 b8 07 3d
        E 20 b8 07 3e
        E 20 b8 07 3e
        E 20 b8 07 3f
        E 20 b8 07 3f
        E 20 b8 07 3f
        E 20 b8 07 3f
        E 20 b8 07 3f
        E 20 b8 07 3f
        E 20 b8 07 3f
        E 20 b8 07 3f
        E 20 b8 07 3f
        E 20 b8 07 3e
        E 20 b8 07 3e
        E 20 b8 07 3d
        E 20 b8 07 3d
        E 20 b8 07 3c
        E 20 b8 07 3b
        E 20 b8 07 3a
        E 20 b8 07 3a
        E 20 b8 07 39
        E 20 b8 07 38
        E 20 b8 07 37
        E 20 b8 07 36
        E 20 b8 07 34
        E 20 b8 07 33
        E 20 b8 07 32
        E 20 b8 07 31
        E 20 b8 07 2f
        E 20 b8 07 2e
        E 20 b8 07 2c
        E 20 b8 07 2b
        E 20 b8 07 2a
        E 20 b8 07 28
        E 20 b8 07 27
        E 20 b8 07 25
        E 20 b8 07 23
        E 20 b8 07 22
        E 20 b8 07 20
        E 20 b8 07 1f
        E 20 b8 07 1d
        E 20 b8 07 1c
        E 20 b8 07 1a
        E 20 b8 07 18
        E 20 b8 07 17
        E 20 b8 07 15
        E 20 b8 07 14
        E 20 b8 07 13
        E 20 b8 07 11
        E 20 b8 07 10
        E 20 b8 07 0e
        E 20 b8 07 0d
        E 20 b8 07 0c
        E 20 b8 07 0b
        E 20 b8 07 09
        E 20 b8 07 08
        E 20 b8 07 07
        E 20 b8 07 06
        E 20 b8 07 05
        E 20 b8 07 05
        E 20 b8 07 04
        E 20 b8 07 03
        E 20 b8 07 02
        E 20 b8 07 02
        E 20 b8 07 01
        E 20 b8 07 01
        E 20 b8 07 00
        E 20 b8 07 00
        E 20 b8 07 00
        E 20 b8 07 00
        E 20 b8 07 00
        E 20 b8 07 00
        E 20 b8 07 00
        E 20 b8 07 00
        E 20 b8 07 00
        E 20 b8 07 01
        E 20 b8 07 01
        E 20 b8 07 02
        E 20 b8 07 02
        E 20 b8 07 03
        E 20 b8 07 03
        E 20 b8 07 04
        E 20 b8 07 05
        E 20 b8 07 06
        E 20 b8 07 07
        E 20 b8 07 08
        E 20 b8 07 09
        E 20 b8 07 0a
        E 20 b8 07 0b
        E 20 b8 07 0c
        E 20 b8 07 0e
        E 20 b8 07 0f
        E 20 b8 07 10
        E 20 b8 07 12
        E 20 b8 07 13
        E 20 b8 07 15
        E 20 b8 07 16
        E 20 b8 07 18
        E 20 b8 07 19
        E 20 b8 07 1b
        E 20 b8 07 1c
        E 20 b8 07 1e
        E 20 b8 07 20
        E 40 b8 07 06
        E 40 b8 07 06
        E 40 b8 07 07
        E 40 b8 07 07
        E 40 b8 07 07
        E 40 b8 07 07
        E 40 b8 07 08
        E 40 b8 07 08
        E 40 b8 07 08
        E 40 b8 07 09
        E 40 b8 07 09
        E 40 b8 07 09
        E 40 b8 07 09
        E 40 b8 07 0a
        E 40 b8 07 0a
        E 40 b8 07 0a
        E 40 b8 07 0a
        E 40 b8 07 0b
        E 40 b8 07 0b
        E 40 b8 07 0b
        E 40 b8 07 0b
        E 40 b8 07 0b
        E 40 b8 07 0c
        E 40 b8 07 0c
        E 40 b8 07 0c
        E 40 b8 07 0c
        E 40 b8 07 0c
        E 40 b8 07 0c
        E 40 b8 07 0c
        E 40 b8 07 0c
        E 40 b8 07 0c
        E 40 b8 07 0c
        E 40 b8 07 0c
        E 40 b8 07 0c
        E 40 b8 07 0c
        E 40 b8 07 0c
        E 40 b8 07 0c
        E 40 b8 07 0c
        E 40 b8 07 0c
        E 40 b8 07 0c
        E 40 b8 07 0c
        E 40 b8 07 0c
        E 40 b8 07 0b
        E 40 b8 07 0b
        E 40 b8 07 0b
        E 40 b8 07 0b
        E 40 b8 07 0b
        E 40 b8 07 0b
        E 40 b8 07 0a
        E 40 b8 07 0a
        E 40 b8 07 0a
        E 40 b8 07 0a
        E 40 b8 07 09
        E 40 b8 07 09
        E 40 b8 07 09
        E 40 b8 07 08
        E 40 b8 07 08
        E 40 b8 07 08
        E 40 b8 07 08
        E 40 b8 07 07
        E 40 b8 07 07
        E 40 b8 07 07
        E 40 b8 07 06
        E 40 b8 07 06
        E 40 b8 07 06
        E 40 b8 07 05
        E 40 b8 07 05
        E 40 b8 07 05
        E 40 b8 07 04
        E 40 b8 07 04
        E 40 b8 07 04
        E 40 b8 07 04
        E 40 b8 07 03
        E 40 b8 07 03
        E 40 b8 07 03
        E 40 b8 07 02
        E 40 b8 07 02
        E 40 b8 07 02
        E 40 b8 07 02
        E 40 b8 07 01
        E 40 b8 07 01
        E 40 b8 07 01
        E 40 b8 07 01
        E 40 b8 07 01
        E 40 b8 07 01
        E 40 b8 07 00
        E 40 b8 07 00
        E 40 b8 07 00
        E 40 b8 07 00
        E 40 b8 07 00
        E 40 b8 07 00
        E 40 b8 07 00
        E 40 b8 07 00
        E 40 b8 07 00
        E 40 b8 07 00
        E 40 b8 07 00
        E 40 b8 07 00
        E 40 b8 07 00
        E 40 b8 07 00
        E 40 b8 07 00
        E 40 b8 07 00
        E 40 b8 07 00
        E 40 b8 07 00
        E 40 b8 07 00
        E 40 b8 07 00
        E 40 b8 07 00
        E 40 b8 07 00
        E 40 b8 07 01
        E 40 b8 07 01
        E 40 b8 07 01
        E 40 b8 07 01
        E 40 b8 07 01
        E 40 b8 07 02
        E 40 b8 07 02
        E 40 b8 07 02
        E 40 b8 07 02
        E 40 b8 07 03
        E 40 b8 07 03
        E 40 b8 07 03
        E 40 b8 07 03
        E 40 b8 07 04
        E 40 b8 07 04
        E 40 b8 07 04
        E 40 b8 07 05
        E 40 b8 07 05
        E 40 b8 07 05
        E 40 b8 07 06
        E 40 b8 07 06
        E 40 b8 07 13
        E 40 b8 07 14
        E 40 b8 07 15
        E 40 b8 07 15
        E 40 b8 07 16
        E 40 b8 07 17
        E 40 b8 07 18
        E 40 b8 07 19
        E 40 b8 07 1a
        E 40 b8 07 1b
        E 40 b8 07 1c
        E 40 b8 07 1c
        E 40 b8 07 1d
        E 40 b8 07 1e
        E 40 b8 07 1f
        E 40 b8 07 1f
        E 40 b8 07 20
        E 40 b8 07 21
        E 40 b8 07 21
        E 40 b8 07 22
        E 40 b8 07 23
        E 40 b8 07 23
        E 40 b8 07 24
        E 40 b8 07 24
        E 40 b8 07 24
        E 40 b8 07 24
        E 40 b8 07 25
        E 40 b8 07 25
        E 40 b8 07 25
        E 40 b8 07 25
        E 40 b8 07 26
        E 40 b8 07 26
        E 40 b8 07 26
        E 40 b8 07 26
        E 40 b8 07 26
        E 40 b8 07 25
        E 40 b8 07 25
        E 40 b8 07 25
        E 40 b8 07 25
        E 40 b8 07 24
        E 40 b8 07 24
        E 40 b8 07 24
        E 40 b8 07 23
        E 40 b8 07 23
        E 40 b8 07 22
        E 40 b8 07 22
        E 40 b8 07 21
        E 40 b8 07 21
        E 40 b8 07 20
        E 40 b8 07 1f
        E 40 b8 07 1e
        E 40 b8 07 1e
        E 40 b8 07 1d
        E 40 b8 07 1c
        E 40 b8 07 1b
        E 40 b8 07 1a
        E 40 b8 07 1a
        E 40 b8 07 19
        E 40 b8 07 18
        E 40 b8 07 17
        E 40 b8 07 16
        E 40 b8 07 15
        E 40 b8 07 14
        E 40 b8 07 13
        E 40 b8 07 12
        E 40 b8 07 11
        E 40 b8 07 10
        E 40 b8 07 0f
        E 40 b8 07 0e
        E 40 b8 07 0d
        E 40 b8 07 0c
        E 40 b8 07 0c
        E 40 b8 07 0b
        E 40 b8 07 0a
        E 40 b8 07 09
        E 40 b8 07 08
        E 40 b8 07 08
        E 40 b8 07 07
        E 40 b8 07 06
        E 40 b8 07 05
        E 40 b8 07 05
        E 40 b8 07 04
        E 40 b8 07 03
        E 40 b8 07 03
        E 40 b8 07 03
        E 40 b8 07 02
        E 40 b8 07 02
        E 40 b8 07 01
        E 40 b8 07 01
        E 40 b8 07 00
        E 40 b8 07 00
        E 40 b8 07 00
        E 40 b8 07 00
        E 40 b8 07 00
        E 40 b8 07 00
        E 40 b8 07 00
        E 40 b8 07 00
        E 40 b8 07 00
        E 40 b8 07 00
        E 40 b8 07 00
        E 40 b8 07 00
        E 40 b8 07 00
        E 40 b8 07 01
        E 40 b8 07 01
        E 40 b8 07 01
        E 40 b8 07 02
        E 40 b8 07 02
        E 40 b8 07 03
        E 40 b8 07 03
        E 40 b8 07 04
        E 40 b8 07 04
        E 40 b8 07 05
        E 40 b8 07 06
        E 40 b8 07 06
        E 40 b8 07 07
        E 40 b8 07 08
        E 40 b8 07 09
        E 40 b8 07 09
        E 40 b8 07 0a
        E 40 b8 07 0b
        E 40 b8 07 0c
        E 40 b8 07 0d
        E 40 b8 07 0e
        E 40 b8 07 0f
        E 40 b8 07 10
        E 40 b8 07 11
        E 40 b8 07 12
        E 40 b8 07 13
        E 35 b8 07 39
        E 35 b8 07 3c
        E 35 b8 07 3f
        E 35 b8 07 41
        E 35 b8 07 44
        E 35 b8 07 47
        E 35 b8 07 49
        E 35 b8 07 4c
        E 35 b8 07 4f
        E 35 b8 07 51
        E 35 b8 07 54
        E 35 b8 07 56
        E 35 b8 07 59
        E 35 b8 07 5b
        E 35 b8 07 5d
        E 35 b8 07 5f
        E 35 b8 07 62
        E 35 b8 07 63
        E 35 b8 07 65
        E 35 b8 07 67
        E 35 b8 07 69
        E 35 b8 07 6a
        E 35 b8 07 6c
        E 35 b8 07 6c
        E 35 b8 07 6d
        E 35 b8 07 6e
        E 35 b8 07 6f
        E 35 b8 07 70
        E 35 b8 07 71
        E 35 b8 07 71
        E 35 b8 07 72
        E 35 b8 07 72
        E 35 b8 07 72
        E 35 b8 07 72
        E 35 b8 07 72
        E 35 b8 07 71
        E 35 b8 07 71
        E 35 b8 07 70
        E 35 b8 07 6f
        E 35 b8 07 6e
        E 35 b8 07 6d
        E 35 b8 07 6c
        E 35 b8 07 6b
        E 35 b8 07 69
        E 35 b8 07 68
        E 35 b8 07 66
        E 35 b8 07 64
        E 35 b8 07 63
        E 35 b8 07 61
        E 35 b8 07 5e
        E 35 b8 07 5c
        E 35 b8 07 5a
        E 35 b8 07 58
        E 35 b8 07 55
        E 35 b8 07 52
        E 35 b8 07 50
        E 35 b8 07 4e
        E 35 b8 07 4b
        E 35 b8 07 48
        E 35 b8 07 46
        E 35 b8 07 42
        E 35 b8 07 3f
        E 35 b8 07 3d
        E 35 b8 07 3a
        E 35 b8 07 37
        E 35 b8 07 35
        E 35 b8 07 32
        E 35 b8 07 2f
        E 35 b8 07 2c
        E 35 b8 07 29
        E 35 b8 07 26
        E 35 b8 07 24
        E 35 b8 07 22
        E 35 b8 07 1f
        E 35 b8 07 1c
        E 35 b8 07 1a
        E 35 b8 07 18
        E 35 b8 07 15
        E 35 b8 07 13
        E 35 b8 07 11
        E 35 b8 07 0f
        E 35 b8 07 0d
        E 35 b8 07 0b
        E 35 b8 07 09
        E 35 b8 07 09
        E 35 b8 07 07
        E 35 b8 07 06
        E 35 b8 07 04
        E 35 b8 07 03
        E 35 b8 07 02
        E 35 b8 07 01
        E 35 b8 07 00
        E 35 b8 07 00
        E 35 b8 07 00
        E 35 b8 07 00
        E 35 b8 07 00
        E 35 b8 07 00
        E 35 b8 07 00
        E 35 b8 07 00
        E 35 b8 07 00
        E 35 b8 07 01
        E 35 b8 07 02
        E 35 b8 07 03
        E 35 b8 07 04
        E 35 b8 07 05
        E 35 b8 07 06
        E 35 b8 07 08
        E 35 b8 07 09
        E 35 b8 07 0a
        E 35 b8 07 0c
        E 35 b8 07 0e
        E 35 b8 07 10
        E 35 b8 07 12
        E 35 b8 07 14
        E 35 b8 07 16
        E 35 b8 07 19
        E 35 b8 07 1b
        E 35 b8 07 1d
        E 35 b8 07 20
        E 35 b8 07 23
        E 35 b8 07 25
        E 35 b8 07 28
        E 35 b8 07 2b
        E 35 b8 07 2d
        E 35 b8 07 30
        E 35 b8 07 33
        E 35 b8 07 36
        E 35 b8 07 39
        E 20 b8 07 20
        E 20 b8 07 21
        E 20 b8 07 23
        E 20 b8 07 24
        E 20 b8 07 26
        E 20 b8 07 27
        E 20 b8 07 29
        E 20 b8 07 2a
        E 20 b8 07 2c
        E 20 b8 07 2d
        E 20 b8 07 2f
        E 20 b8 07 30
        E 20 b8 07 31
        E 20 b8 07 33
        E 20 b8 07 34
        E 20 b8 07 35
        E 20 b8 07 36
        E 20 b8 07 37
        E 20 b8 07 38
        E 20 b8 07 39
        E 20 b8 07 3a
        E 20 b8 07 3b
        E 20 b8 07 3c
        E 20 b8 07 3c
        E 20 b8 07 3d
        E 20 b8 07 3d
        E 20 b8 07 3e
        E 20 b8 07 3e
        E 20 b8 07 3f
        E 20 b8 07 3f
        E 20 b8 07 3f
        E 20 b8 07 3f
        E 20 b8 07 3f
        E 20 b8 07 3f
        E 20 b8 07 3f
        E 20 b8 07 3f
        E 20 b8 07 3f
        E 20 b8 07 3e
        E 20 b8 07 3e
        E 20 b8 07 3d
        E 20 b8 07 3d
        E 20 b8 07 3c
        E 20 b8 07 3b
        E 20 b8 07 3a
        E 20 b8 07 3a
        E 20 b8 07 39
        E 20 b8 07 38
        E 20 b8 07 37
        E 20 b8 07 36
        E 20 b8 07 34
        E 20 b8 07 33
        E 20 b8 07 32
        E 20 b8 07 31
        E 20 b8 07 2f
        E 20 b8 07 2e
        E 20 b8 07 2c
        E 20 b8 07 2b
        E 20 b8 07 2a
        E 20 b8 07 28
        E 20 b8 07 27
        E 20 b8 07 25
        E 20 b8 07 23
        E 20 b8 07 22
        E 20 b8 07 20
        E 20 b8 07 1f
        E 20 b8 07 1d
        E 20 b8 07 1c
        E 20 b8 07 1a
        E 20 b8 07 18
        E 20 b8 07 17
        E 20 b8 07 15
        E 20 b8 07 14
        E 20 b8 07 13
        E 20 b8 07 11
        E 20 b8 07 10
        E 20 b8 07 0e
        E 20 b8 07 0d
        E 20 b8 07 0c
        E 20 b8 07 0b
        E 20 b8 07 09
        E 20 b8 07 08
        E 20 b8 07 07
        E 20 b8 07 06
        E 20 b8 07 05
        E 20 b8 07 05
        E 20 b8 07 04
        E 20 b8 07 03
        E 20 b8 07 02
        E 20 b8 07 02
        E 20 b8 07 01
        E 20 b8 07 01
        E 20 b8 07 00
        E 20 b8 07 00
        E 20 b8 07 00
        E 20 b8 07 00
        E 20 b8 07 00
        E 20 b8 07 00
        E 20 b8 07 00
        E 20 b8 07 00
        E 20 b8 07 00
        E 20 b8 07 01
        E 20 b8 07 01
        E 20 b8 07 02
        E 20 b8 07 02
        E 20 b8 07 03
        E 20 b8 07 03
        E 20 b8 07 04
        E 20 b8 07 05
        E 20 b8 07 06
        E 20 b8 07 07
        E 20 b8 07 08
        E 20 b8 07 09
        E 20 b8 07 0a
        E 20 b8 07 0b
        E 20 b8 07 0c
        E 20 b8 07 0e
        E 20 b8 07 0f
        E 20 b8 07 10
        E 20 b8 07 12
        E 20 b8 07 13
        E 20 b8 07 15
        E 20 b8 07 16
        E 20 b8 07 18
        E 20 b8 07 19
        E 20 b8 07 1b
        E 20 b8 07 1c
        E 20 b8 07 1e
        E 20 b8 07 20
        E 40 b8 07 06
        E 40 b8 07 06
        E 40 b8 07 07
        E 40 b8 07 07
        E 40 b8 07 07
        E 40 b8 07 07
        E 40 b8 07 08
        E 40 b8 07 08
        E 40 b8 07 08
        E 40 b8 07 09
        E 40 b8 07 09
        E 40 b8 07 09
        E 40 b8 07 09
        E 40 b8 07 0a
        E 40 b8 07 0a
        E 40 b8 07 0a
        E 40 b8 07 0a
        E 40 b8 07 0b
        E 40 b8 07 0b
        E 40 b8 07 0b
        E 40 b8 07 0b
        E 40 b8 07 0b
        E 40 b8 07 0c
        E 40 b8 07 0c
        E 40 b8 07 0c
        E 40 b8 07 0c
        E 40 b8 07 0c
        E 40 b8 07 0c
        E 40 b8 07 0c
        E 40 b8 07 0c
        E 40 b8 07 0c
        E 40 b8 07 0c
        E 40 b8 07 0c
        E 40 b8 07 0c
        E 40 b8 07 0c
        E 40 b8 07 0c
        E 40 b8 07 0c
        E 40 b8 07 0c
        E 40 b8 07 0c
        E 40 b8 07 0c
        E 40 b8 07 0c
        E 40 b8 07 0c
        E 40 b8 07 0b
        E 40 b8 07 0b
        E 40 b8 07 0b
        E 40 b8 07 0b
        E 40 b8 07 0b
        E 40 b8 07 0b
        E 40 b8 07 0a
        E 40 b8 07 0a
        E 40 b8 07 0a
        E 40 b8 07 0a
        E 40 b8 07 09
        E 40 b8 07 09
        E 40 b8 07 09
        E 40 b8 07 08
        E 40 b8 07 08
        E 40 b8 07 08
        E 40 b8 07 08
        E 40 b8 07 07
        E 40 b8 07 07
        E 40 b8 07 07
        E 40 b8 07 06
        E 40 b8 07 06
        E 40 b8 07 06
        E 40 b8 07 05
        E 40 b8 07 05
        E 40 b8 07 05
        E 40 b8 07 04
        E 40 b8 07 04
        E 40 b8 07 04
        E 40 b8 07 04
        E 40 b8 07 03
        E 40 b8 07 03
        E 40 b8 07 03
        E 40 b8 07 02
        E 40 b8 07 02
        E 40 b8 07 02
        E 40 b8 07 02
        E 40 b8 07 01
        E 40 b8 07 01
        E 40 b8 07 01
        E 40 b8 07 01
        E 40 b8 07 01
        E 40 b8 07 01
        E 40 b8 07 00
        E 40 b8 07 00
        E 40 b8 07 00
        E 40 b8 07 00
        E 40 b8 07 00
        E 40 b8 07 00
        E 40 b8 07 00
        E 40 b8 07 00
        E 40 b8 07 00
        E 40 b8 07 00
        E 40 b8 07 00
        E 40 b8 07 00
        E 40 b8 07 00
        E 40 b8 07 00
        E 40 b8 07 00
        E 40 b8 07 00
        E 40 b8 07 00
        E 40 b8 07 00
        E 40 b8 07 00
        E 40 b8 07 00
        E 40 b8 07 00
        E 40 b8 07 00
        E 40 b8 07 01
        E 40 b8 07 01
        E 40 b8 07 01
        E 40 b8 07 01
        E 40 b8 07 01
        E 40 b8 07 02
        E 40 b8 07 02
        E 40 b8 07 02
        E 40 b8 07 02
        E 40 b8 07 03
        E 40 b8 07 03
        E 40 b8 07 03
        E 40 b8 07 03
        E 40 b8 07 04
        E 40 b8 07 04
        E 40 b8 07 04
        E 40 b8 07 05
        E 40 b8 07 05
        E 40 b8 07 05
        E 40 b8 07 06
        E 40 b8 07 06
        E 40 b8 07 13
        E 40 b8 07 14
        E 40 b8 07 15
        E 40 b8 07 15
        E 40 b8 07 16
        E 40 b8 07 17
        E 40 b8 07 18
        E 40 b8 07 19
        E 40 b8 07 1a
        E 40 b8 07 1b
        E 40 b8 07 1c
        E 40 b8 07 1c
        E 40 b8 07 1d
        E 40 b8 07 1e
        E 40 b8 07 1f
        E 40 b8 07 1f
        E 40 b8 07 20
        E 40 b8 07 21
        E 40 b8 07 21
        E 40 b8 07 22
        E 40 b8 07 23
        E 40 b8 07 23
        E 40 b8 07 24
        E 40 b8 07 24
        E 40 b8 07 24
        E 40 b8 07 24
        E 40 b8 07 25
        E 40 b8 07 25
        E 40 b8 07 25
        E 40 b8 07 25
        E 40 b8 07 26
        E 40 b8 07 26
        E 40 b8 07 26
        E 40 b8 07 26
        E 40 b8 07 26
        E 40 b8 07 25
        E 40 b8 07 25
        E 40 b8 07 25
        E 40 b8 07 25
        E 40 b8 07 24
        E 40 b8 07 24
        E 40 b8 07 24
        E 40 b8 07 23
        E 40 b8 07 23
        E 40 b8 07 22
        E 40 b8 07 22
        E 40 b8 07 21
        E 40 b8 07 21
        E 40 b8 07 20
        E 40 b8 07 1f
        E 40 b8 07 1e
        E 40 b8 07 1e
        E 40 b8 07 1d
        E 40 b8 07 1c
        E 40 b8 07 1b
        E 40 b8 07 1a
        E 40 b8 07 1a
        E 40 b8 07 19
        E 40 b8 07 18
        E 40 b8 07 17
        E 40 b8 07 16
        E 40 b8 07 15
        E 40 b8 07 14
        E 40 b8 07 13
        E 40 b8 07 12
        E 40 b8 07 11
        E 40 b8 07 10
        E 40 b8 07 0f
        E 40 b8 07 0e
        E 40 b8 07 0d
        E 40 b8 07 0c
        E 40 b8 07 0c
        E 40 b8 07 0b
        E 40 b8 07 0a
        E 40 b8 07 09
        E 40 b8 07 08
        E 40 b8 07 08
        E 40 b8 07 07
        E 40 b8 07 06
        E 40 b8 07 05
        E 40 b8 07 05
        E 40 b8 07 04
        E 40 b8 07 03
        E 40 b8 07 03
        E 40 b8 07 03
        E 40 b8 07 02
        E 40 b8 07 02
        E 40 b8 07 01
        E 40 b8 07 01
        E 40 b8 07 00
        E 40 b8 07 00
        E 40 b8 07 00
        E 40 b8 07 00
        E 40 b8 07 00
        E 40 b8 07 00
        E 40 b8 07 00
        E 40 b8 07 00
        E 40 b8 07 00
        E 40 b8 07 00
        E 40 b8 07 00
        E 40 b8 07 00
        E 40 b8 07 00
        E 40 b8 07 01
        E 40 b8 07 01
        E 40 b8 07 01
        E 40 b8 07 02
        E 40 b8 07 02
        E 40 b8 07 03
        E 40 b8 07 03
        E 40 b8 07 04
        E 40 b8 07 04
        E 40 b8 07 05
        E 40 b8 07 06
        E 40 b8 07 06
        E 40 b8 07 07
        E 40 b8 07 08
        E 40 b8 07 09
        E 40 b8 07 09
        E 40 b8 07 0a
        E 40 b8 07 0b
        E 40 b8 07 0c
        E 40 b8 07 0d
        E 40 b8 07 0e
        E 40 b8 07 0f
        E 40 b8 07 10
        E 40 b8 07 11
        E 40 b8 07 12
        E 40 b8 07 13
        E 35 b8 07 39
        E 35 b8 07 3c
        E 35 b8 07 3f
        E 35 b8 07 41
        E 35 b8 07 44
        E 35 b8 07 47
        E 35 b8 07 49
        E 35 b8 07 4c
        E 35 b8 07 4f
        E 35 b8 07 51
        E 35 b8 07 54
        E 35 b8 07 56
        E 35 b8 07 59
        E 35 b8 07 5b
        E 35 b8 07 5d
        E 35 b8 07 5f
        E 35 b8 07 62
        E 35 b8 07 63
        E 35 b8 07 65
        E 35 b8 07 67
        E 35 b8 07 69
        E 35 b8 07 6a
        E 35 b8 07 6c
        E 35 b8 07 6c
        E 35 b8 07 6d
        E 35 b8 07 6e
        E 35 b8 07 6f
        E 35 b8 07 70
        E 35 b8 07 71
        E 35 b8 07 71
        E 35 b8 07 72
        E 35 b8 07 72
        E 35 b8 07 72
        E 35 b8 07 72
        E 35 b8 07 72
        E 35 b8 07 71
        E 35 b8 07 71
        E 35 b8 07 70
        E 35 b8 07 6f
        E 35 b8 07 6e
        E 35 b8 07 6d
        E 35 b8 07 6c
        E 35 b8 07 6b
        E 35 b8 07 69
        E 35 b8 07 68
        E 35 b8 07 66
        E 35 b8 07 64
        E 35 b8 07 63
        E 35 b8 07 61
        E 35 b8 07 5e
        E 35 b8 07 5c
        E 35 b8 07 5a
        E 35 b8 07 58
        E 35 b8 07 55
        E 35 b8 07 52
        E 35 b8 07 50
        E 35 b8 07 4e
        E 35 b8 07 4b
        E 35 b8 07 48
        E 35 b8 07 46
        E 35 b8 07 42
        E 35 b8 07 3f
        E 35 b8 07 3d
        E 35 b8 07 3a
        E 35 b8 07 37
        E 35 b8 07 35
        E 35 b8 07 32
        E 35 b8 07 2f
        E 35 b8 07 2c
        E 35 b8 07 29
        E 35 b8 07 26
        E 35 b8 07 24
        E 35 b8 07 22
        E 35 b8 07 1f
        E 35 b8 07 1c
        E 35 b8 07 1a
        E 35 b8 07 18
        E 35 b8 07 15
        E 35 b8 07 13
        E 35 b8 07 11
        E 35 b8 07 0f
        E 35 b8 07 0d
        E 35 b8 07 0b
        E 35 b8 07 09
        E 35 b8 07 09
        E 35 b8 07 07
        E 35 b8 07 06
        E 35 b8 07 04
        E 35 b8 07 03
        E 35 b8 07 02
        E 35 b8 07 01
        E 35 b8 07 00
        E 35 b8 07 00
        E 35 b8 07 00
        E 35 b8 07 00
        E 35 b8 07 00
        E 35 b8 07 00
        E 35 b8 07 00
        E 35 b8 07 00
        E 35 b8 07 00
        E 35 b8 07 01
        E 35 b8 07 02
        E 35 b8 07 03
        E 35 b8 07 04
        E 35 b8 07 05
        E 35 b8 07 06
        E 35 b8 07 08
        E 35 b8 07 09
        E 35 b8 07 0a
        E 35 b8 07 0c
        E 35 b8 07 0e
        E 35 b8 07 10
        E 35 b8 07 12
        E 35 b8 07 14
        E 35 b8 07 16
        E 35 b8 07 19
        E 35 b8 07 1b
        E 35 b8 07 1d
        E 35 b8 07 20
        E 35 b8 07 23
        E 35 b8 07 25
        E 35 b8 07 28
        E 35 b8 07 2b
        E 35 b8 07 2d
        E 35 b8 07 30
        E 35 b8 07 33
        E 35 b8 07 36
        E 35 b8 07 39
        E 20 b8 07 20
        E 20 b8 07 21
        E 20 b8 07 23
        E 20 b8 07 24
        E 20 b8 07 26
        E 20 b8 07 27
        E 20 b8 07 29
        E 20 b8 07 2a
        E 20 b8 07 2c
        E 20 b8 07 2d
        E 20 b8 07 2f
        E 20 b8 07 30
        E 20 b8 07 31
        E 20 b8 07 33
        E 20 b8 07 34
        E 20 b8 07 35
        E 20 b8 07 36
        E 20 b8 07 37
        E 20 b8 07 38
        E 20 b8 07 39
        E 20 b8 07 3a
        E 20 b8 07 3b
        E 20 b8 07 3c
        E 20 b8 07 3c
        E 20 b8 07 3d
        E 20 b8 07 3d
        E 20 b8 07 3e
        E 20 b8 07 3e
        E 20 b8 07 3f
        E 20 b8 07 3f
        E 20 b8 07 3f
        E 20 b8 07 3f
        E 20 b8 07 3f
        E 20 b8 07 3f
        E 20 b8 07 3f
        E 20 b8 07 3f
        E 20 b8 07 3f
        E 20 b8 07 3e
        E 20 b8 07 3e
        E 20 b8 07 3d
        E 20 b8 07 3d
        E 20 b8 07 3c
        E 20 b8 07 3b
        E 20 b8 07 3a
        E 20 b8 07 3a
        E 20 b8 07 39
        E 20 b8 07 38
        E 20 b8 07 37
        E 20 b8 07 36
        E 20 b8 07 34
        E 20 b8 07 33
        E 20 b8 07 32
        E 20 b8 07 31
        E 20 b8 07 2f
        E 20 b8 07 2e
        E 20 b8 07 2c
        E 20 b8 07 2b
        E 20 b8 07 2a
        E 20 b8 07 28
        E 20 b8 07 27
        E 20 b8 07 25
        E 20 b8 07 23
        E 20 b8 07 22
        E 20 b8 07 20
        E 20 b8 07 1f
        E 20 b8 07 1d
        E 20 b8 07 1c
        E 20 b8 07 1a
        E 20 b8 07 18
        E 20 b8 07 17
        E 20 b8 07 15
        E 20 b8 07 14
        E 20 b8 07 13
        E 20 b8 07 11
        E 20 b8 07 10
        E 20 b8 07 0e
        E 20 b8 07 0d
        E 20 b8 07 0c
        E 20 b8 07 0b
        E 20 b8 07 09
        E 20 b8 07 08
        E 20 b8 07 07
        E 20 b8 07 06
        E 20 b8 07 05
        E 20 b8 07 05
        E 20 b8 07 04
        E 20 b8 07 03
        E 20 b8 07 02
        E 20 b8 07 02
        E 20 b8 07 01
        E 20 b8 07 01
        E 20 b8 07 00
        E 20 b8 07 00
        E 20 b8 07 00
        E 20 b8 07 00
        E 20 b8 07 00
        E 20 b8 07 00
        E 20 b8 07 00
        E 20 b8 07 00
        E 20 b8 07 00
        E 20 b8 07 01
        E 20 b8 07 01
        E 20 b8 07 02
        E 20 b8 07 02
        E 20 b8 07 03
        E 20 b8 07 03
        E 20 b8 07 04
        E 20 b8 07 05
        E 20 b8 07 06
        E 20 b8 07 07
        E 20 b8 07 08
        E 20 b8 07 09
        E 20 b8 07 0a
        E 20 b8 07 0b
        E 20 b8 07 0c
        E 20 b8 07 0e
        E 20 b8 07 0f
        E 20 b8 07 10
        E 20 b8 07 12
        E 20 b8 07 13
        E 20 b8 07 15
        E 20 b8 07 16
        E 20 b8 07 18
        E 20 b8 07 19
        E 20 b8 07 1b
        E 20 b8 07 1c
        E 20 b8 07 1e
        E 20 b8 07 20
        E 40 b8 07 06
        E 40 b8 07 06
        E 40 b8 07 07
        E 40 b8 07 07
        E 40 b8 07 07
        E 40 b8 07 07
        E 40 b8 07 08
        E 40 b8 07 08
        E 40 b8 07 08
        E 40 b8 07 09
        E 40 b8 07 09
        E 40 b8 07 09
        E 40 b8 07 09
        E 40 b8 07 0a
        E 40 b8 07 0a
        E 40 b8 07 0a
        E 40 b8 07 0a
        E 40 b8 07 0b
        E 40 b8 07 0b
        E 40 b8 07 0b
        E 40 b8 07 0b
        E 40 b8 07 0b
        E 40 b8 07 0c
        E 40 b8 07 0c
        E 40 b8 07 0c
        E 40 b8 07 0c
        E 40 b8 07 0c
        E 40 b8 07 0c
        E 40 b8 07 0c
        E 40 b8 07 0c
        E 40 b8 07 0c
        E 40 b8 07 0c
        E 40 b8 07 0c
        E 40 b8 07 0c
        E 40 b8 07 0c
        E 40 b8 07 0c
        E 40 b8 07 0c
        E 40 b8 07 0c
        E 40 b8 07 0c
        E 40 b8 07 0c
        E 40 b8 07 0c
        E 40 b8 07 0c
        E 40 b8 07 0b
        E 40 b8 07 0b
        E 40 b8 07 0b
        E 40 b8 07 0b
        E 40 b8 07 0b
        E 40 b8 07 0b
        E 40 b8 07 0a
        E 40 b8 07 0a
        E 40 b8 07 0a
        E 40 b8 07 0a
        E 40 b8 07 09
        E 40 b8 07 09
        E 40 b8 07 09
        E 40 b8 07 08
        E 40 b8 07 08
        E 40 b8 07 08
        E 40 b8 07 08
        E 40 b8 07 07
        E 40 b8 07 07
        E 40 b8 07 07
        E 40 b8 07 06
        E 40 b8 07 06
        E 40 b8 07 06
        E 40 b8 07 05
        E 40 b8 07 05
        E 40 b8 07 05
        E 40 b8 07 04
        E 40 b8 07 04
        E 40 b8 07 04
        E 40 b8 07 04
        E 40 b8 07 03
        E 40 b8 07 03
        E 40 b8 07 03
        E 40 b8 07 02
        E 40 b8 07 02
        E 40 b8 07 02
        E 40 b8 07 02
        E 40 b8 07 01
        E 40 b8 07 01
        E 40 b8 07 01
        E 40 b8 07 01
        E 40 b8 07 01
        E 40 b8 07 01
        E 40 b8 07 00
        E 40 b8 07 00
        E 40 b8 07 00
        E 40 b8 07 00
        E 40 b8 07 00
        E 40 b8 07 00
        E 40 b8 07 00
        E 40 b8 07 00
        E 40 b8 07 00
        E 40 b8 07 00
        E 40 b8 07 00
        E 40 b8 07 00
        E 40 b8 07 00
        E 40 b8 07 00
        E 40 b8 07 00
        E 40 b8 07 00
        E 40 b8 07 00
        E 40 b8 07 00
        E 40 b8 07 00
        E 40 b8 07 00
        E 40 b8 07 00
        E 40 b8 07 00
        E 40 b8 07 01
        E 40 b8 07 01
        E 40 b8 07 01
        E 40 b8 07 01
        E 40 b8 07 01
        E 40 b8 07 02
        E 40 b8 07 02
        E 40 b8 07 02
        E 40 b8 07 02
        E 40 b8 07 03
        E 40 b8 07 03
        E 40 b8 07 03
        E 40 b8 07 03
        E 40 b8 07 04
        E 40 b8 07 04
        E 40 b8 07 04
        E 40 b8 07 05
        E 40 b8 07 05
        E 40 b8 07 05
        E 40 b8 07 06
        E 40 b8 07 06
        E 40 b8 07 13
        E 40 b8 07 14
        E 40 b8 07 15
        E 40 b8 07 15
        E 40 b8 07 16
        E 40 b8 07 17
        E 40 b8 07 18
        E 40 b8 07 19
        E 40 b8 07 1a
        E 40 b8 07 1b
        E 40 b8 07 1c
        E 40 b8 07 1c
        E 40 b8 07 1d
        E 40 b8 07 1e
        E 40 b8 07 1f
        E 40 b8 07 1f
        E 40 b8 07 20
        E 40 b8 07 21
        E 40 b8 07 21
        E 40 b8 07 22
        E 40 b8 07 23
        E 40 b8 07 23
        E 40 b8 07 24
        E 40 b8 07 24
        E 40 b8 07 24
        E 40 b8 07 24
        E 40 b8 07 25
        E 40 b8 07 25
        E 40 b8 07 25
        E 40 b8 07 25
        E 40 b8 07 26
        E 40 b8 07 26
        E 40 b8 07 26
        E 40 b8 07 26
        E 40 b8 07 26
        E 40 b8 07 25
        E 40 b8 07 25
        E 40 b8 07 25
        E 40 b8 07 25
        E 40 b8 07 24
        E 40 b8 07 24
        E 40 b8 07 24
        E 40 b8 07 23
        E 40 b8 07 23
        E 40 b8 07 22
        E 40 b8 07 22
        E 40 b8 07 21
        E 40 b8 07 21
        E 40 b8 07 20
        E 40 b8 07 1f
        E 40 b8 07 1e
        E 40 b8 07 1e
        E 40 b8 07 1d
        E 40 b8 07 1c
        E 40 b8 07 1b
        E 40 b8 07 1a
        E 40 b8 07 1a
        E 40 b8 07 19
        E 40 b8 07 18
        E 40 b8 07 17
        E 40 b8 07 16
        E 40 b8 07 15
        E 40 b8 07 14
        E 40 b8 07 13
        E 40 b8 07 12
        E 40 b8 07 11
        E 40 b8 07 10
        E 40 b8 07 0f
        E 40 b8 07 0e
        E 40 b8 07 0d
        E 40 b8 07 0c
        E 40 b8 07 0c
        E 40 b8 07 0b
        E 40 b8 07 0a
        E 40 b8 07 09
        E 40 b8 07 08
        E 40 b8 07 08
        E 40 b8 07 07
        E 40 b8 07 06
        E 40 b8 07 05
        E 40 b8 07 05
        E 40 b8 07 04
        E 40 b8 07 03
        E 40 b8 07 03
        E 40 b8 07 03
        E 40 b8 07 02
        E 40 b8 07 02
        E 40 b8 07 01
        E 40 b8 07 01
        E 40 b8 07 00
        E 40 b8 07 00
        E 40 b8 07 00
        E 40 b8 07 00
        E 40 b8 07 00
        E 40 b8 07 00
        E 40 b8 07 00
        E 40 b8 07 00
        E 40 b8 07 00
        E 40 b8 07 00
        E 40 b8 07 00
        E 40 b8 07 00
        E 40 b8 07 00
        E 40 b8 07 01
        E 40 b8 07 01
        E 40 b8 07 01
        E 40 b8 07 02
        E 40 b8 07 02
        E 40 b8 07 03
        E 40 b8 07 03
        E 40 b8 07 04
        E 40 b8 07 04
        E 40 b8 07 05
        E 40 b8 07 06
        E 40 b8 07 06
        E 40 b8 07 07
        E 40 b8 07 08
        E 40 b8 07 09
        E 40 b8 07 09
        E 40 b8 07 0a
        E 40 b8 07 0b
        E 40 b8 07 0c
        E 40 b8 07 0d
        E 40 b8 07 0e
        E 40 b8 07 0f
        E 40 b8 07 10
        E 40 b8 07 11
        E 40 b8 07 12
        E 40 b8 07 13
        E 35 b8 07 39
        E 35 b8 07 3c
        E 35 b8 07 3f
        E 35 b8 07 41
        E 35 b8 07 44
        E 35 b8 07 47
        E 35 b8 07 49
        E 35 b8 07 4c
        E 35 b8 07 4f
        E 35 b8 07 51
        E 35 b8 07 54
        E 35 b8 07 56
        E 35 b8 07 59
        E 35 b8 07 5b
        E 35 b8 07 5d
        E 35 b8 07 5f
        E 35 b8 07 62
        E 35 b8 07 63
        E 35 b8 07 65
        E 35 b8 07 67
        E 35 b8 07 69
        E 35 b8 07 6a
        E 35 b8 07 6c
        E 35 b8 07 6c
        E 35 b8 07 6d
        E 35 b8 07 6e
        E 35 b8 07 6f
        E 35 b8 07 70
        E 35 b8 07 71
        E 35 b8 07 71
        E 35 b8 07 72
        E 35 b8 07 72
        E 35 b8 07 72
        E 35 b8 07 72
        E 35 b8 07 72
        E 35 b8 07 71
        E 35 b8 07 71
        E 35 b8 07 70
        E 35 b8 07 6f
        E 35 b8 07 6e
        E 35 b8 07 6d
        E 35 b8 07 6c
        E 35 b8 07 6b
        E 35 b8 07 69
        E 35 b8 07 68
        E 35 b8 07 66
        E 35 b8 07 64
        E 35 b8 07 63
        E 35 b8 07 61
        E 35 b8 07 5e
        E 35 b8 07 5c
        E 35 b8 07 5a
        E 35 b8 07 58
        E 35 b8 07 55
        E 35 b8 07 52
        E 35 b8 07 50
        E 35 b8 07 4e
        E 35 b8 07 4b
        E 35 b8 07 48
        E 35 b8 07 46
        E 35 b8 07 42
        E 35 b8 07 3f
        E 35 b8 07 3d
        E 35 b8 07 3a
        E 35 b8 07 37
        E 35 b8 07 35
        E 35 b8 07 32
        E 35 b8 07 2f
        E 35 b8 07 2c
        E 35 b8 07 29
        E 35 b8 07 26
        E 35 b8 07 24
        E 35 b8 07 22
        E 35 b8 07 1f
        E 35 b8 07 1c
        E 35 b8 07 1a
        E 35 b8 07 18
        E 35 b8 07 15
        E 35 b8 07 13
        E 35 b8 07 11
        E 35 b8 07 0f
        E 35 b8 07 0d
        E 35 b8 07 0b
        E 35 b8 07 09
        E 35 b8 07 09
        E 35 b8 07 07
        E 35 b8 07 06
        E 35 b8 07 04
        E 35 b8 07 03
        E 35 b8 07 02
        E 35 b8 07 01
        E 35 b8 07 00
        E 35 b8 07 00
        E 35 b8 07 00
        E 35 b8 07 00
        E 35 b8 07 00
        E 35 b8 07 00
        E 35 b8 07 00
        E 35 b8 07 00
        E 35 b8 07 00
        E 35 b8 07 01
        E 35 b8 07 02
        E 35 b8 07 03
        E 35 b8 07 04
        E 35 b8 07 05
        E 35 b8 07 06
        E 35 b8 07 08
        E 35 b8 07 09
        E 35 b8 07 0a
        E 35 b8 07 0c
        E 35 b8 07 0e
        E 35 b8 07 10
        E 35 b8 07 12
        E 35 b8 07 14
        E 35 b8 07 16
        E 35 b8 07 19
        E 35 b8 07 1b
        E 35 b8 07 1d
        E 35 b8 07 20
        E 35 b8 07 23
        E 35 b8 07 25
        E 35 b8 07 28
        E 35 b8 07 2b
        E 35 b8 07 2d
        E 35 b8 07 30
        E 35 b8 07 33
        E 35 b8 07 36
        E 35 b8 07 39
        E 20 b8 07 20
        E 20 b8 07 21
        E 20 b8 07 23
        E 20 b8 07 24
        E 20 b8 07 26
        E 20 b8 07 27
        E 20 b8 07 29
        E 20 b8 07 2a
        E 20 b8 07 2c
        E 20 b8 07 2d
        E 20 b8 07 2f
        E 20 b8 07 30
        E 20 b8 07 31
        E 20 b8 07 33
        E 20 b8 07 34
        E 20 b8 07 35
        E 20 b8 07 36
        E 20 b8 07 37
        E 20 b8 07 38
        E 20 b8 07 39
        E 20 b8 07 3a
        E 20 b8 07 3b
        E 20 b8 07 3c
        E 20 b8 07 3c
        E 20 b8 07 3d
        E 20 b8 07 3d
        E 20 b8 07 3e
        E 20 b8 07 3e
        E 20 b8 07 3f
        E 20 b8 07 3f
        E 20 b8 07 3f
        E 20 b8 07 3f
        E 20 b8 07 3f
        E 20 b8 07 3f
        E 20 b8 07 3f
        E 20 b8 07 3f
        E 20 b8 07 3f
        E 20 b8 07 3e
        E 20 b8 07 3e
        E 20 b8 07 3d
        E 20 b8 07 3d
        E 20 b8 07 3c
        E 20 b8 07 3b
        E 20 b8 07 3a
        E 20 b8 07 3a
        E 20 b8 07 39
        E 20 b8 07 38
        E 20 b8 07 37
        E 20 b8 07 36
        E 20 b8 07 34
        E 20 b8 07 33
        E 20 b8 07 32
        E 20 b8 07 31
        E 20 b8 07 2f
        E 20 b8 07 2e
        E 20 b8 07 2c
        E 20 b8 07 2b
        E 20 b8 07 2a
        E 20 b8 07 28
        E 20 b8 07 27
        E 20 b8 07 25
        E 20 b8 07 23
        E 20 b8 07 22
        E 20 b8 07 20
        E 20 b8 07 1f
        E 20 b8 07 1d
        E 20 b8 07 1c
        E 20 b8 07 1a
        E 20 b8 07 18
        E 20 b8 07 17
        E 20 b8 07 15
        E 20 b8 07 14
        E 20 b8 07 13
        E 20 b8 07 11
        E 20 b8 07 10
        E 20 b8 07 0e
        E 20 b8 07 0d
        E 20 b8 07 0c
        E 20 b8 07 0b
        E 20 b8 07 09
        E 20 b8 07 08
        E 20 b8 07 07
        E 20 b8 07 06
        E 20 b8 07 05
        E 20 b8 07 05
        E 20 b8 07 04
        E 20 b8 07 03
        E 20 b8 07 02
        E 20 b8 07 02
        E 20 b8 07 01
        E 20 b8 07 01
        E 20 b8 07 00
        E 20 b8 07 00
        E 20 b8 07 00
        E 20 b8 07 00
        E 20 b8 07 00
        E 20 b8 07 00
        E 20 b8 07 00
        E 20 b8 07 00
        E 20 b8 07 00
        E 20 b8 07 01
        E 20 b8 07 01
        E 20 b8 07 02
        E 20 b8 07 02
        E 20 b8 07 03
        E 20 b8 07 03
        E 20 b8 07 04
        E 20 b8 07 05
        E 20 b8 07 06
        E 20 b8 07 07
        E 20 b8 07 08
        E 20 b8 07 09
        E 20 b8 07 0a
        E 20 b8 07 0b
        E 20 b8 07 0c
        E 20 b8 07 0e
        E 20 b8 07 0f
        E 20 b8 07 10
        E 20 b8 07 12
        E 20 b8 07 13
        E 20 b8 07 15
        E 20 b8 07 16
        E 20 b8 07 18
        E 20 b8 07 19
        E 20 b8 07 1b
        E 20 b8 07 1c
        E 20 b8 07 1e
        E 20 b8 07 20
        E 40 b8 07 06
        E 40 b8 07 06
        E 40 b8 07 07
        E 40 b8 07 07
        E 40 b8 07 07
        E 40 b8 07 07
        E 40 b8 07 08
        E 40 b8 07 08
        E 40 b8 07 08
        E 40 b8 07 09
        E 40 b8 07 09
        E 40 b8 07 09
        E 40 b8 07 09
        E 40 b8 07 0a
        E 40 b8 07 0a
        E 40 b8 07 0a
        E 40 b8 07 0a
        E 40 b8 07 0b
        E 40 b8 07 0b
        E 40 b8 07 0b
        E 40 b8 07 0b
        E 40 b8 07 0b
        E 40 b8 07 0c
        E 40 b8 07 0c
        E 40 b8 07 0c
        E 40 b8 07 0c
        E 40 b8 07 0c
        E 40 b8 07 0c
        E 40 b8 07 0c
        E 40 b8 07 0c
        E 40 b8 07 0c
        E 40 b8 07 0c
        E 40 b8 07 0c
        E 40 b8 07 0c
        E 40 b8 07 0c
        E 40 b8 07 0c
        E 40 b8 07 0c
        E 40 b8 07 0c
        E 40 b8 07 0c
        E 40 b8 07 0c
        E 40 b8 07 0c
        E 40 b8 07 0c
        E 40 b8 07 0b
        E 40 b8 07 0b
        E 40 b8 07 0b
        E 40 b8 07 0b
        E 40 b8 07 0b
        E 40 b8 07 0b
        E 40 b8 07 0a
        E 40 b8 07 0a
        E 40 b8 07 0a
        E 40 b8 07 0a
        E 40 b8 07 09
        E 40 b8 07 09
        E 40 b8 07 09
        E 40 b8 07 08
        E 40 b8 07 08
        E 40 b8 07 08
        E 40 b8 07 08
        E 40 b8 07 07
        E 40 b8 07 07
        E 40 b8 07 07
        E 40 b8 07 06
        E 40 b8 07 06
        E 40 b8 07 06
        E 40 b8 07 05
        E 40 b8 07 05
        E 40 b8 07 05
        E 40 b8 07 04
        E 40 b8 07 04
        E 40 b8 07 04
        E 40 b8 07 04
        E 40 b8 07 03
        E 40 b8 07 03
        E 40 b8 07 03
        E 40 b8 07 02
        E 40 b8 07 02
        E 40 b8 07 02
        E 40 b8 07 02
        E 40 b8 07 01
        E 40 b8 07 01
        E 40 b8 07 01
        E 40 b8 07 01
        E 40 b8 07 01
        E 40 b8 07 01
        E 40 b8 07 00
        E 40 b8 07 00
        E 40 b8 07 00
        E 40 b8 07 00
        E 40 b8 07 00
        E 40 b8 07 00
        E 40 b8 07 00
        E 40 b8 07 00
        E 40 b8 07 00
        E 40 b8 07 00
        E 40 b8 07 00
        E 40 b8 07 00
        E 40 b8 07 00
        E 40 b8 07 00
        E 40 b8 07 00
        E 40 b8 07 00
        E 40 b8 07 00
        E 40 b8 07 00
        E 40 b8 07 00
        E 40 b8 07 00
        E 40 b8 07 00
        E 40 b8 07 00
        E 40 b8 07 01
        E 40 b8 07 01
        E 40 b8 07 01
        E 40 b8 07 01
        E 40 b8 07 01
        E 40 b8 07 02
        E 40 b8 07 02
        E 40 b8 07 02
        E 40 b8 07 02
        E 40 b8 07 03
        E 40 b8 07 03
        E 40 b8 07 03
        E 40 b8 07 03
        E 40 b8 07 04
        E 40 b8 07 04
        E 40 b8 07 04
        E 40 b8 07 05
        E 40 b8 07 05
        E 40 b8 07 05
        E 40 b8 07 06
        E 40 b8 07 06
        E 40 b8 07 13
        E 40 b8 07 14
        E 40 b8 07 15
        E 40 b8 07 15
        E 40 b8 07 16
        E 40 b8 07 17
        E 40 b8 07 18
        E 40 b8 07 19
        E 40 b8 07 1a
        E 40 b8 07 1b
        E 40 b8 07 1c
        E 40 b8 07 1c
        E 40 b8 07 1d
        E 40 b8 07 1e
        E 40 b8 07 1f
        E 40 b8 07 1f
        E 40 b8 07 20
        E 40 b8 07 21
        E 40 b8 07 21
        E 40 b8 07 22
        E 40 b8 07 23
        E 40 b8 07 23
        E 40 b8 07 24
        E 40 b8 07 24
        E 40 b8 07 24
        E 40 b8 07 24
        E 40 b8 07 25
        E 40 b8 07 25
        E 40 b8 07 25
        E 40 b8 07 25
        E 40 b8 07 26
        E 40 b8 07 26
        E 40 b8 07 26
        E 40 b8 07 26
        E 40 b8 07 26
        E 40 b8 07 25
        E 40 b8 07 25
        E 40 b8 07 25
        E 40 b8 07 25
        E 40 b8 07 24
        E 40 b8 07 24
        E 40 b8 07 24
        E 40 b8 07 23
        E 40 b8 07 23
        E 40 b8 07 22
        E 40 b8 07 22
        E 40 b8 07 21
        E 40 b8 07 21
        E 40 b8 07 20
        E 40 b8 07 1f
        E 40 b8 07 1e
        E 40 b8 07 1e
        E 40 b8 07 1d
        E 40 b8 07 1c
        E 40 b8 07 1b
        E 40 b8 07 1a
        E 40 b8 07 1a
        E 40 b8 07 19
        E 40 b8 07 18
        E 40 b8 07 17
        E 40 b8 07 16
        E 40 b8 07 15
        E 40 b8 07 14
        E 40 b8 07 13
        E 40 b8 07 12
        E 40 b8 07 11
        E 40 b8 07 10
        E 40 b8 07 0f
        E 40 b8 07 0e
        E 40 b8 07 0d
        E 40 b8 07 0c
        E 40 b8 07 0c
        E 40 b8 07 0b
        E 40 b8 07 0a
        E 40 b8 07 09
        E 40 b8 07 08
        E 40 b8 07 08
        E 40 b8 07 07
        E 40 b8 07 06
        E 40 b8 07 05
        E 40 b8 07 05
        E 40 b8 07 04
        E 40 b8 07 03
        E 40 b8 07 03
        E 40 b8 07 03
        E 40 b8 07 02
        E 40 b8 07 02
        E 40 b8 07 01
        E 40 b8 07 01
        E 40 b8 07 00
        E 40 b8 07 00
        E 40 b8 07 00
        E 40 b8 07 00
        E 40 b8 07 00
        E 40 b8 07 00
        E 40 b8 07 00
        E 40 b8 07 00
        E 40 b8 07 00
        E 40 b8 07 00
        E 40 b8 07 00
        E 40 b8 07 00
        E 40 b8 07 00
        E 40 b8 07 01
        E 40 b8 07 01
        E 40 b8 07 01
        E 40 b8 07 02
        E 40 b8 07 02
        E 40 b8 07 03
        E 40 b8 07 03
        E 40 b8 07 04
        E 40 b8 07 04
        E 40 b8 07 05
        E 40 b8 07 06
        E 40 b8 07 06
        E 40 b8 07 07
        E 40 b8 07 08
        E 40 b8 07 09
        E 40 b8 07 09
        E 40 b8 07 0a
        E 40 b8 07 0b
        E 40 b8 07 0c
        E 40 b8 07 0d
        E 40 b8 07 0e
        E 40 b8 07 0f
        E 40 b8 07 10
        E 40 b8 07 11
        E 40 b8 07 12
        E 39 b8 07 13
        E 1 b0 7b 00
        CCINTERP 32
        CHASE_CC_TAKEOFFS 1
        GUID {56C8E368-14EB-2040-8952-781919ED93D2}
        IGNTEMPO 0 120 4 4
        SRCCOLOR 154
        VELLANE 3 601 0
        VELLANE -1 196 0
        CFGEDITVIEW 0 0.008186 62 12 0 -1 0 0 0 0.5
        KEYSNAP 0
        TRACKSEL 252
        EVTFILTER 0 -1 -1 -1 -1 0 0 0 0 -1 -1 -1 -1 0 -1 0 -1 -1
        CFGEDIT 1 1 0 1 0 0 1 1 1 1 1 0.125 0 0 1792 1095 0 0 0 0 0 0 0 0 0 0.5 0 0 1 64
      >
    >
  >
  <TRACK {F36126DB-B120-AD4A-B274-63DDD34635CC}
    NAME "germ-x hand sanitizer"
    PEAKCOL 16576
    BEAT -1
    AUTOMODE 0
    VOLPAN 1 0 -1 -1 1
    MUTESOLO 0 0 0
    IPHASE 0
    PLAYOFFS 0 1
    ISBUS 0 0
    BUSCOMP 0 0 0 0 0
    SHOWINMIX 1 0.6667 0.5 1 0.5 -1 -1 -1
    FREEMODE 0
    SEL 0
    REC 0 0 1 0 0 0 0
    VU 2
    TRACKHEIGHT 0 1 0 0 -1 0
    INQ 0 0 0 0.5 100 0 0 100
    NCHAN 2
    FX 1
    TRACKID {F36126DB-B120-AD4A-B274-63DDD34635CC}
    PERF 0
    MIDIOUT -1
    MAINSEND 1 0
    <ITEM
      POSITION 0
      SNAPOFFS 0
      LENGTH 819.99918
      LOOP 1
      ALLTAKES 0
      FADEIN 1 0 0 1 0 0
      FADEOUT 1 0 0 1 0 0
      MUTE 0 0
      SEL 0
      IGUID {8050424F-4524-2D43-8825-F3A462D8E8AD}
      IID 22
      NAME "germ-x hand sanitizer.mid"
      VOLPAN 1 0 1 -1
      SOFFS 0 0
      PLAYRATE 1 1 0 -1 0 0.0025
      CHANMODE 0
      GUID {B1F49B52-11CD-0E4F-8579-82EC31352050}
      <SOURCE MIDI
        HASDATA 1 128 QN
        CCINTERP 32
        POOLEDEVTS {E81CA5D7-9FAC-6043-9B21-7BC90F4ED673}
        E 13 b9 05 16
        E 13 b9 05 4c
        E 13 b9 05 32
        E 13 b9 05 07
        E 13 b9 05 48
        E 13 b9 05 3f
        E 13 b9 05 09
        E 13 b9 05 08
        E 13 b9 05 30
        E 13 b9 05 5f
        E 13 b9 05 50
        E 13 b9 05 58
        E 13 b9 05 3f
        E 13 b9 05 0b
        E 13 b9 05 13
        E 13 b9 05 44
        E 13 b9 05 37
        E 13 b9 05 1c
        E 13 b9 05 14
        E 13 b9 05 1b
        E 13 b9 05 4f
        E 13 b9 05 2f
        E 13 b9 05 17
        E 13 b9 05 3a
        E 13 b9 05 64
        E 13 b9 05 00
        E 13 b9 05 0c
        E 13 b9 05 29
        E 13 b9 05 22
        E 13 b9 05 53
        E 13 b9 05 15
        E 13 b9 05 06
        E 13 b9 05 0f
        E 13 b9 05 11
        E 13 b9 05 5b
        E 13 b9 05 19
        E 13 b9 05 00
        E 13 b9 05 4b
        E 13 b9 05 23
        E 13 b9 05 14
        E 13 b9 05 28
        E 13 b9 05 1a
        E 13 b9 05 56
        E 13 b9 05 55
        E 13 b9 05 65
        E 13 b9 05 54
        E 13 b9 05 2b
        E 13 b9 05 5e
        E 13 b9 05 48
        E 13 b9 05 0b
        E 13 b9 05 2c
        E 13 b9 05 36
        E 13 b9 05 60
        E 13 b9 05 4d
        E 13 b9 05 37
        E 13 b9 05 38
        E 13 b9 05 04
        E 13 b9 05 0a
        E 13 b9 05 5d
        E 13 b9 05 51
        E 13 b9 05 2b
        E 13 b9 05 1f
        E 13 b9 05 0d
        E 13 b9 05 2d
        E 13 b9 05 1e
        E 13 b9 05 18
        E 13 b9 05 26
        E 13 b9 05 34
        E 13 b9 05 3d
        E 13 b9 05 41
        E 13 b9 05 10
        E 13 b9 05 3c
        E 13 b9 05 5a
        E 13 b9 05 33
        E 13 b9 05 3b
        E 13 b9 05 02
        E 13 b9 05 07
        E 13 b9 05 63
        E 13 b9 05 42
        E 13 b9 05 12
        E 13 b9 05 5c
        E 13 b9 05 20
        E 13 b9 05 27
        E 13 b9 05 31
        E 13 b9 05 28
        E 13 b9 05 44
        E 13 b9 05 52
        E 13 b9 05 1d
        E 13 b9 05 39
        E 13 b9 05 17
        E 13 b9 05 5b
        E 13 b9 05 54
        E 13 b9 05 2e
        E 13 b9 05 24
        E 13 b9 05 50
        E 13 b9 05 25
        E 13 b9 05 47
        E 13 b9 05 0e
        E 13 b9 05 01
        E 13 b9 05 21
        E 13 b9 05 33
        E 13 b9 05 57
        E 13 b9 05 4e
        E 13 b9 05 03
        E 13 b9 05 57
        E 13 b9 05 4a
        E 13 b9 05 05
        E 13 b9 05 1f
        E 13 b9 05 3b
        E 13 b9 05 4c
        E 13 b9 05 61
        E 13 b9 05 3e
        E 13 b9 05 2a
        E 13 b9 05 1b
        E 13 b9 05 46
        E 13 b9 05 49
        E 13 b9 05 59
        E 13 b9 05 63
        E 13 b9 05 2f
        E 13 b9 05 40
        E 13 b9 05 45
        E 13 b9 05 35
        E 13 b9 05 5f
        E 13 b9 05 0f
        E 13 b9 05 24
        E 13 b9 05 43
        E 3 b9 05 10
        E 3 b9 05 39
        E 3 b9 05 25
        E 3 b9 05 06
        E 3 b9 05 36
        E 3 b9 05 30
        E 3 b9 05 07
        E 3 b9 05 06
        E 3 b9 05 24
        E 3 b9 05 48
        E 3 b9 05 3c
        E 3 b9 05 42
        E 3 b9 05 2f
        E 3 b9 05 08
        E 3 b9 05 0e
        E 3 b9 05 33
        E 3 b9 05 2a
        E 3 b9 05 15
        E 3 b9 05 0f
        E 3 b9 05 14
        E 3 b9 05 3b
        E 3 b9 05 23
        E 3 b9 05 12
        E 3 b9 05 2b
        E 3 b9 05 4b
        E 3 b9 05 00
        E 3 b9 05 09
        E 3 b9 05 1f
        E 3 b9 05 19
        E 3 b9 05 3e
        E 3 b9 05 10
        E 3 b9 05 04
        E 3 b9 05 0c
        E 3 b9 05 0d
        E 3 b9 05 45
        E 3 b9 05 13
        E 3 b9 05 00
        E 3 b9 05 38
        E 3 b9 05 1a
        E 3 b9 05 0f
        E 3 b9 05 1e
        E 3 b9 05 13
        E 3 b9 05 40
        E 3 b9 05 40
        E 3 b9 05 4c
        E 3 b9 05 3f
        E 3 b9 05 21
        E 3 b9 05 46
        E 3 b9 05 36
        E 3 b9 05 09
        E 3 b9 05 21
        E 3 b9 05 28
        E 3 b9 05 48
        E 3 b9 05 3a
        E 3 b9 05 29
        E 3 b9 05 2a
        E 3 b9 05 03
        E 3 b9 05 07
        E 3 b9 05 46
        E 3 b9 05 3d
        E 3 b9 05 20
        E 3 b9 05 18
        E 3 b9 05 0a
        E 3 b9 05 22
        E 3 b9 05 16
        E 3 b9 05 12
        E 3 b9 05 1c
        E 3 b9 05 27
        E 3 b9 05 2e
        E 3 b9 05 31
        E 3 b9 05 0c
        E 3 b9 05 2d
        E 3 b9 05 43
        E 3 b9 05 27
        E 3 b9 05 2c
        E 3 b9 05 01
        E 3 b9 05 05
        E 3 b9 05 4b
        E 3 b9 05 31
        E 3 b9 05 0d
        E 3 b9 05 45
        E 3 b9 05 18
        E 3 b9 05 1d
        E 3 b9 05 25
        E 3 b9 05 1e
        E 3 b9 05 33
        E 3 b9 05 3d
        E 3 b9 05 16
        E 3 b9 05 2b
        E 3 b9 05 11
        E 3 b9 05 44
        E 3 b9 05 3f
        E 3 b9 05 22
        E 3 b9 05 1b
        E 3 b9 05 3c
        E 3 b9 05 1c
        E 3 b9 05 35
        E 3 b9 05 0a
        E 3 b9 05 01
        E 3 b9 05 19
        E 3 b9 05 26
        E 3 b9 05 41
        E 3 b9 05 3a
        E 3 b9 05 02
        E 3 b9 05 42
        E 3 b9 05 37
        E 3 b9 05 04
        E 3 b9 05 17
        E 3 b9 05 2d
        E 3 b9 05 39
        E 3 b9 05 49
        E 3 b9 05 2e
        E 3 b9 05 1f
        E 3 b9 05 15
        E 3 b9 05 34
        E 3 b9 05 37
        E 3 b9 05 43
        E 3 b9 05 4a
        E 3 b9 05 24
        E 3 b9 05 30
        E 3 b9 05 34
        E 3 b9 05 28
        E 3 b9 05 47
        E 3 b9 05 0b
        E 3 b9 05 1b
        E 3 b9 05 32
        E 13 b9 05 0b
        E 13 b9 05 26
        E 13 b9 05 19
        E 13 b9 05 04
        E 13 b9 05 24
        E 13 b9 05 20
        E 13 b9 05 04
        E 13 b9 05 04
        E 13 b9 05 18
        E 13 b9 05 30
        E 13 b9 05 28
        E 13 b9 05 2c
        E 13 b9 05 1f
        E 13 b9 05 05
        E 13 b9 05 09
        E 13 b9 05 22
        E 13 b9 05 1c
        E 13 b9 05 0e
        E 13 b9 05 0a
        E 13 b9 05 0d
        E 13 b9 05 27
        E 13 b9 05 17
        E 13 b9 05 0c
        E 13 b9 05 1d
        E 13 b9 05 32
        E 13 b9 05 00
        E 13 b9 05 06
        E 13 b9 05 14
        E 13 b9 05 11
        E 13 b9 05 29
        E 13 b9 05 0a
        E 13 b9 05 03
        E 13 b9 05 08
        E 13 b9 05 08
        E 13 b9 05 2e
        E 13 b9 05 0c
        E 13 b9 05 00
        E 13 b9 05 25
        E 13 b9 05 11
        E 13 b9 05 0a
        E 13 b9 05 14
        E 13 b9 05 0d
        E 13 b9 05 2b
        E 13 b9 05 2a
        E 13 b9 05 32
        E 13 b9 05 2a
        E 13 b9 05 16
        E 13 b9 05 2f
        E 13 b9 05 24
        E 13 b9 05 06
        E 13 b9 05 16
        E 13 b9 05 1b
        E 13 b9 05 30
        E 13 b9 05 26
        E 13 b9 05 1b
        E 13 b9 05 1c
        E 13 b9 05 02
        E 13 b9 05 05
        E 13 b9 05 2e
        E 13 b9 05 28
        E 13 b9 05 15
        E 13 b9 05 10
        E 13 b9 05 06
        E 13 b9 05 16
        E 13 b9 05 0f
        E 13 b9 05 0c
        E 13 b9 05 13
        E 13 b9 05 1a
        E 13 b9 05 1e
        E 13 b9 05 20
        E 13 b9 05 08
        E 13 b9 05 1e
        E 13 b9 05 2d
        E 13 b9 05 1a
        E 13 b9 05 1d
        E 13 b9 05 01
        E 13 b9 05 03
        E 13 b9 05 32
        E 13 b9 05 21
        E 13 b9 05 09
        E 13 b9 05 2e
        E 13 b9 05 10
        E 13 b9 05 13
        E 13 b9 05 18
        E 13 b9 05 14
        E 13 b9 05 22
        E 13 b9 05 29
        E 13 b9 05 0e
        E 13 b9 05 1c
        E 13 b9 05 0b
        E 13 b9 05 2d
        E 13 b9 05 2a
        E 13 b9 05 17
        E 13 b9 05 12
        E 13 b9 05 28
        E 13 b9 05 12
        E 13 b9 05 23
        E 13 b9 05 07
        E 13 b9 05 00
        E 13 b9 05 10
        E 13 b9 05 19
        E 13 b9 05 2b
        E 13 b9 05 27
        E 13 b9 05 01
        E 13 b9 05 2c
        E 13 b9 05 25
        E 13 b9 05 02
        E 13 b9 05 0f
        E 13 b9 05 1e
        E 13 b9 05 26
        E 13 b9 05 30
        E 13 b9 05 1f
        E 13 b9 05 15
        E 13 b9 05 0e
        E 13 b9 05 23
        E 13 b9 05 24
        E 13 b9 05 2c
        E 13 b9 05 31
        E 13 b9 05 18
        E 13 b9 05 20
        E 13 b9 05 22
        E 13 b9 05 1a
        E 13 b9 05 2f
        E 13 b9 05 07
        E 13 b9 05 12
        E 13 b9 05 21
        E 7 b9 05 13
        E 7 b9 05 43
        E 7 b9 05 2c
        E 7 b9 05 07
        E 7 b9 05 3e
        E 7 b9 05 38
        E 7 b9 05 08
        E 7 b9 05 07
        E 7 b9 05 2a
        E 7 b9 05 54
        E 7 b9 05 46
        E 7 b9 05 4d
        E 7 b9 05 37
        E 7 b9 05 09
        E 7 b9 05 10
        E 7 b9 05 3c
        E 7 b9 05 31
        E 7 b9 05 19
        E 7 b9 05 11
        E 7 b9 05 17
        E 7 b9 05 45
        E 7 b9 05 29
        E 7 b9 05 15
        E 7 b9 05 33
        E 7 b9 05 58
        E 7 b9 05 00
        E 7 b9 05 0b
        E 7 b9 05 24
        E 7 b9 05 1e
        E 7 b9 05 48
        E 7 b9 05 12
        E 7 b9 05 05
        E 7 b9 05 0e
        E 7 b9 05 0f
        E 7 b9 05 50
        E 7 b9 05 16
        E 7 b9 05 00
        E 7 b9 05 41
        E 7 b9 05 1e
        E 7 b9 05 12
        E 7 b9 05 23
        E 7 b9 05 17
        E 7 b9 05 4b
        E 7 b9 05 4a
        E 7 b9 05 58
        E 7 b9 05 4a
        E 7 b9 05 26
        E 7 b9 05 52
        E 7 b9 05 3f
        E 7 b9 05 0a
        E 7 b9 05 27
        E 7 b9 05 2f
        E 7 b9 05 54
        E 7 b9 05 43
        E 7 b9 05 30
        E 7 b9 05 31
        E 7 b9 05 04
        E 7 b9 05 09
        E 7 b9 05 51
        E 7 b9 05 47
        E 7 b9 05 25
        E 7 b9 05 1c
        E 7 b9 05 0b
        E 7 b9 05 27
        E 7 b9 05 1a
        E 7 b9 05 15
        E 7 b9 05 21
        E 7 b9 05 2e
        E 7 b9 05 35
        E 7 b9 05 39
        E 7 b9 05 0e
        E 7 b9 05 35
        E 7 b9 05 4f
        E 7 b9 05 2d
        E 7 b9 05 33
        E 7 b9 05 02
        E 7 b9 05 06
        E 7 b9 05 57
        E 7 b9 05 3a
        E 7 b9 05 10
        E 7 b9 05 51
        E 7 b9 05 1c
        E 7 b9 05 22
        E 7 b9 05 2b
        E 7 b9 05 23
        E 7 b9 05 3b
        E 7 b9 05 48
        E 7 b9 05 19
        E 7 b9 05 32
        E 7 b9 05 14
        E 7 b9 05 4f
        E 7 b9 05 49
        E 7 b9 05 28
        E 7 b9 05 20
        E 7 b9 05 46
        E 7 b9 05 20
        E 7 b9 05 3e
        E 7 b9 05 0c
        E 7 b9 05 01
        E 7 b9 05 1d
        E 7 b9 05 2c
        E 7 b9 05 4c
        E 7 b9 05 44
        E 7 b9 05 02
        E 7 b9 05 4d
        E 7 b9 05 41
        E 7 b9 05 04
        E 7 b9 05 1b
        E 7 b9 05 34
        E 7 b9 05 42
        E 7 b9 05 55
        E 7 b9 05 36
        E 7 b9 05 25
        E 7 b9 05 18
        E 7 b9 05 3d
        E 7 b9 05 40
        E 7 b9 05 4e
        E 7 b9 05 56
        E 7 b9 05 2a
        E 7 b9 05 38
        E 7 b9 05 3c
        E 7 b9 05 2e
        E 7 b9 05 53
        E 7 b9 05 0d
        E 7 b9 05 1f
        E 7 b9 05 3a
        E 1 b9 05 0b
        E 1 b9 05 26
        E 1 b9 05 19
        E 1 b9 05 04
        E 1 b9 05 24
        E 1 b9 05 20
        E 1 b9 05 04
        E 1 b9 05 04
        E 1 b9 05 18
        E 1 b9 05 30
        E 1 b9 05 28
        E 1 b9 05 2c
        E 1 b9 05 1f
        E 1 b9 05 05
        E 1 b9 05 09
        E 1 b9 05 22
        E 1 b9 05 1c
        E 1 b9 05 0e
        E 1 b9 05 0a
        E 1 b9 05 0d
        E 1 b9 05 27
        E 1 b9 05 17
        E 1 b9 05 0c
        E 1 b9 05 1d
        E 1 b9 05 32
        E 1 b9 05 00
        E 1 b9 05 06
        E 1 b9 05 14
        E 1 b9 05 11
        E 1 b9 05 29
        E 1 b9 05 0a
        E 1 b9 05 03
        E 1 b9 05 08
        E 1 b9 05 08
        E 1 b9 05 2e
        E 1 b9 05 0c
        E 1 b9 05 00
        E 1 b9 05 25
        E 1 b9 05 11
        E 1 b9 05 0a
        E 1 b9 05 14
        E 1 b9 05 0d
        E 1 b9 05 2b
        E 1 b9 05 2a
        E 1 b9 05 32
        E 1 b9 05 2a
        E 1 b9 05 16
        E 1 b9 05 2f
        E 1 b9 05 24
        E 1 b9 05 06
        E 1 b9 05 16
        E 1 b9 05 1b
        E 1 b9 05 30
        E 1 b9 05 26
        E 1 b9 05 1b
        E 1 b9 05 1c
        E 1 b9 05 02
        E 1 b9 05 05
        E 1 b9 05 2e
        E 1 b9 05 28
        E 1 b9 05 15
        E 1 b9 05 10
        E 1 b9 05 06
        E 1 b9 05 16
        E 1 b9 05 0f
        E 1 b9 05 0c
        E 1 b9 05 13
        E 1 b9 05 1a
        E 1 b9 05 1e
        E 1 b9 05 20
        E 1 b9 05 08
        E 1 b9 05 1e
        E 1 b9 05 2d
        E 1 b9 05 1a
        E 1 b9 05 1d
        E 1 b9 05 01
        E 1 b9 05 03
        E 1 b9 05 32
        E 1 b9 05 21
        E 1 b9 05 09
        E 1 b9 05 2e
        E 1 b9 05 10
        E 1 b9 05 13
        E 1 b9 05 18
        E 1 b9 05 14
        E 1 b9 05 22
        E 1 b9 05 29
        E 1 b9 05 0e
        E 1 b9 05 1c
        E 1 b9 05 0b
        E 1 b9 05 2d
        E 1 b9 05 2a
        E 1 b9 05 17
        E 1 b9 05 12
        E 1 b9 05 28
        E 1 b9 05 12
        E 1 b9 05 23
        E 1 b9 05 07
        E 1 b9 05 00
        E 1 b9 05 10
        E 1 b9 05 19
        E 1 b9 05 2b
        E 1 b9 05 27
        E 1 b9 05 01
        E 1 b9 05 2c
        E 1 b9 05 25
        E 1 b9 05 02
        E 1 b9 05 0f
        E 1 b9 05 1e
        E 1 b9 05 26
        E 1 b9 05 30
        E 1 b9 05 1f
        E 1 b9 05 15
        E 1 b9 05 0e
        E 1 b9 05 23
        E 1 b9 05 24
        E 1 b9 05 2c
        E 1 b9 05 31
        E 1 b9 05 18
        E 1 b9 05 20
        E 1 b9 05 22
        E 1 b9 05 1a
        E 1 b9 05 2f
        E 1 b9 05 07
        E 1 b9 05 12
        E 1 b9 05 21
        E 4 b9 05 16
        E 4 b9 05 4c
        E 4 b9 05 32
        E 4 b9 05 07
        E 4 b9 05 48
        E 4 b9 05 3f
        E 4 b9 05 09
        E 4 b9 05 08
        E 4 b9 05 30
        E 4 b9 05 5f
        E 4 b9 05 50
        E 4 b9 05 58
        E 4 b9 05 3f
        E 4 b9 05 0b
        E 4 b9 05 13
        E 4 b9 05 44
        E 4 b9 05 37
        E 4 b9 05 1c
        E 4 b9 05 14
        E 4 b9 05 1b
        E 4 b9 05 4f
        E 4 b9 05 2f
        E 4 b9 05 17
        E 4 b9 05 3a
        E 4 b9 05 64
        E 4 b9 05 00
        E 4 b9 05 0c
        E 4 b9 05 29
        E 4 b9 05 22
        E 4 b9 05 53
        E 4 b9 05 15
        E 4 b9 05 06
        E 4 b9 05 0f
        E 4 b9 05 11
        E 4 b9 05 5b
        E 4 b9 05 19
        E 4 b9 05 00
        E 4 b9 05 4b
        E 4 b9 05 23
        E 4 b9 05 14
        E 4 b9 05 28
        E 4 b9 05 1a
        E 4 b9 05 56
        E 4 b9 05 55
        E 4 b9 05 65
        E 4 b9 05 54
        E 4 b9 05 2b
        E 4 b9 05 5e
        E 4 b9 05 48
        E 4 b9 05 0b
        E 4 b9 05 2c
        E 4 b9 05 36
        E 4 b9 05 60
        E 4 b9 05 4d
        E 4 b9 05 37
        E 4 b9 05 38
        E 4 b9 05 04
        E 4 b9 05 0a
        E 4 b9 05 5d
        E 4 b9 05 51
        E 4 b9 05 2b
        E 4 b9 05 1f
        E 4 b9 05 0d
        E 4 b9 05 2d
        E 4 b9 05 1e
        E 4 b9 05 18
        E 4 b9 05 26
        E 4 b9 05 34
        E 4 b9 05 3d
        E 4 b9 05 41
        E 4 b9 05 10
        E 4 b9 05 3c
        E 4 b9 05 5a
        E 4 b9 05 33
        E 4 b9 05 3b
        E 4 b9 05 02
        E 4 b9 05 07
        E 4 b9 05 63
        E 4 b9 05 42
        E 4 b9 05 12
        E 4 b9 05 5c
        E 4 b9 05 20
        E 4 b9 05 27
        E 4 b9 05 31
        E 4 b9 05 28
        E 4 b9 05 44
        E 4 b9 05 52
        E 4 b9 05 1d
        E 4 b9 05 39
        E 4 b9 05 17
        E 4 b9 05 5b
        E 4 b9 05 54
        E 4 b9 05 2e
        E 4 b9 05 24
        E 4 b9 05 50
        E 4 b9 05 25
        E 4 b9 05 47
        E 4 b9 05 0e
        E 4 b9 05 01
        E 4 b9 05 21
        E 4 b9 05 33
        E 4 b9 05 57
        E 4 b9 05 4e
        E 4 b9 05 03
        E 4 b9 05 57
        E 4 b9 05 4a
        E 4 b9 05 05
        E 4 b9 05 1f
        E 4 b9 05 3b
        E 4 b9 05 4c
        E 4 b9 05 61
        E 4 b9 05 3e
        E 4 b9 05 2a
        E 4 b9 05 1b
        E 4 b9 05 46
        E 4 b9 05 49
        E 4 b9 05 59
        E 4 b9 05 63
        E 4 b9 05 2f
        E 4 b9 05 40
        E 4 b9 05 45
        E 4 b9 05 35
        E 4 b9 05 5f
        E 4 b9 05 0f
        E 4 b9 05 24
        E 4 b9 05 43
        E 13 b9 05 16
        E 13 b9 05 4c
        E 13 b9 05 32
        E 13 b9 05 07
        E 13 b9 05 48
        E 13 b9 05 3f
        E 13 b9 05 09
        E 13 b9 05 08
        E 13 b9 05 30
        E 13 b9 05 5f
        E 13 b9 05 50
        E 13 b9 05 58
        E 13 b9 05 3f
        E 13 b9 05 0b
        E 13 b9 05 13
        E 13 b9 05 44
        E 13 b9 05 37
        E 13 b9 05 1c
        E 13 b9 05 14
        E 13 b9 05 1b
        E 13 b9 05 4f
        E 13 b9 05 2f
        E 13 b9 05 17
        E 13 b9 05 3a
        E 13 b9 05 64
        E 13 b9 05 00
        E 13 b9 05 0c
        E 13 b9 05 29
        E 13 b9 05 22
        E 13 b9 05 53
        E 13 b9 05 15
        E 13 b9 05 06
        E 13 b9 05 0f
        E 13 b9 05 11
        E 13 b9 05 5b
        E 13 b9 05 19
        E 13 b9 05 00
        E 13 b9 05 4b
        E 13 b9 05 23
        E 13 b9 05 14
        E 13 b9 05 28
        E 13 b9 05 1a
        E 13 b9 05 56
        E 13 b9 05 55
        E 13 b9 05 65
        E 13 b9 05 54
        E 13 b9 05 2b
        E 13 b9 05 5e
        E 13 b9 05 48
        E 13 b9 05 0b
        E 13 b9 05 2c
        E 13 b9 05 36
        E 13 b9 05 60
        E 13 b9 05 4d
        E 13 b9 05 37
        E 13 b9 05 38
        E 13 b9 05 04
        E 13 b9 05 0a
        E 13 b9 05 5d
        E 13 b9 05 51
        E 13 b9 05 2b
        E 13 b9 05 1f
        E 13 b9 05 0d
        E 13 b9 05 2d
        E 13 b9 05 1e
        E 13 b9 05 18
        E 13 b9 05 26
        E 13 b9 05 34
        E 13 b9 05 3d
        E 13 b9 05 41
        E 13 b9 05 10
        E 13 b9 05 3c
        E 13 b9 05 5a
        E 13 b9 05 33
        E 13 b9 05 3b
        E 13 b9 05 02
        E 13 b9 05 07
        E 13 b9 05 63
        E 13 b9 05 42
        E 13 b9 05 12
        E 13 b9 05 5c
        E 13 b9 05 20
        E 13 b9 05 27
        E 13 b9 05 31
        E 13 b9 05 28
        E 13 b9 05 44
        E 13 b9 05 52
        E 13 b9 05 1d
        E 13 b9 05 39
        E 13 b9 05 17
        E 13 b9 05 5b
        E 13 b9 05 54
        E 13 b9 05 2e
        E 13 b9 05 24
        E 13 b9 05 50
        E 13 b9 05 25
        E 13 b9 05 47
        E 13 b9 05 0e
        E 13 b9 05 01
        E 13 b9 05 21
        E 13 b9 05 33
        E 13 b9 05 57
        E 13 b9 05 4e
        E 13 b9 05 03
        E 13 b9 05 57
        E 13 b9 05 4a
        E 13 b9 05 05
        E 13 b9 05 1f
        E 13 b9 05 3b
        E 13 b9 05 4c
        E 13 b9 05 61
        E 13 b9 05 3e
        E 13 b9 05 2a
        E 13 b9 05 1b
        E 13 b9 05 46
        E 13 b9 05 49
        E 13 b9 05 59
        E 13 b9 05 63
        E 13 b9 05 2f
        E 13 b9 05 40
        E 13 b9 05 45
        E 13 b9 05 35
        E 13 b9 05 5f
        E 13 b9 05 0f
        E 13 b9 05 24
        E 13 b9 05 43
        E 3 b9 05 10
        E 3 b9 05 39
        E 3 b9 05 25
        E 3 b9 05 06
        E 3 b9 05 36
        E 3 b9 05 30
        E 3 b9 05 07
        E 3 b9 05 06
        E 3 b9 05 24
        E 3 b9 05 48
        E 3 b9 05 3c
        E 3 b9 05 42
        E 3 b9 05 2f
        E 3 b9 05 08
        E 3 b9 05 0e
        E 3 b9 05 33
        E 3 b9 05 2a
        E 3 b9 05 15
        E 3 b9 05 0f
        E 3 b9 05 14
        E 3 b9 05 3b
        E 3 b9 05 23
        E 3 b9 05 12
        E 3 b9 05 2b
        E 3 b9 05 4b
        E 3 b9 05 00
        E 3 b9 05 09
        E 3 b9 05 1f
        E 3 b9 05 19
        E 3 b9 05 3e
        E 3 b9 05 10
        E 3 b9 05 04
        E 3 b9 05 0c
        E 3 b9 05 0d
        E 3 b9 05 45
        E 3 b9 05 13
        E 3 b9 05 00
        E 3 b9 05 38
        E 3 b9 05 1a
        E 3 b9 05 0f
        E 3 b9 05 1e
        E 3 b9 05 13
        E 3 b9 05 40
        E 3 b9 05 40
        E 3 b9 05 4c
        E 3 b9 05 3f
        E 3 b9 05 21
        E 3 b9 05 46
        E 3 b9 05 36
        E 3 b9 05 09
        E 3 b9 05 21
        E 3 b9 05 28
        E 3 b9 05 48
        E 3 b9 05 3a
        E 3 b9 05 29
        E 3 b9 05 2a
        E 3 b9 05 03
        E 3 b9 05 07
        E 3 b9 05 46
        E 3 b9 05 3d
        E 3 b9 05 20
        E 3 b9 05 18
        E 3 b9 05 0a
        E 3 b9 05 22
        E 3 b9 05 16
        E 3 b9 05 12
        E 3 b9 05 1c
        E 3 b9 05 27
        E 3 b9 05 2e
        E 3 b9 05 31
        E 3 b9 05 0c
        E 3 b9 05 2d
        E 3 b9 05 43
        E 3 b9 05 27
        E 3 b9 05 2c
        E 3 b9 05 01
        E 3 b9 05 05
        E 3 b9 05 4b
        E 3 b9 05 31
        E 3 b9 05 0d
        E 3 b9 05 45
        E 3 b9 05 18
        E 3 b9 05 1d
        E 3 b9 05 25
        E 3 b9 05 1e
        E 3 b9 05 33
        E 3 b9 05 3d
        E 3 b9 05 16
        E 3 b9 05 2b
        E 3 b9 05 11
        E 3 b9 05 44
        E 3 b9 05 3f
        E 3 b9 05 22
        E 3 b9 05 1b
        E 3 b9 05 3c
        E 3 b9 05 1c
        E 3 b9 05 35
        E 3 b9 05 0a
        E 3 b9 05 01
        E 3 b9 05 19
        E 3 b9 05 26
        E 3 b9 05 41
        E 3 b9 05 3a
        E 3 b9 05 02
        E 3 b9 05 42
        E 3 b9 05 37
        E 3 b9 05 04
        E 3 b9 05 17
        E 3 b9 05 2d
        E 3 b9 05 39
        E 3 b9 05 49
        E 3 b9 05 2e
        E 3 b9 05 1f
        E 3 b9 05 15
        E 3 b9 05 34
        E 3 b9 05 37
        E 3 b9 05 43
        E 3 b9 05 4a
        E 3 b9 05 24
        E 3 b9 05 30
        E 3 b9 05 34
        E 3 b9 05 28
        E 3 b9 05 47
        E 3 b9 05 0b
        E 3 b9 05 1b
        E 3 b9 05 32
        E 13 b9 05 0b
        E 13 b9 05 26
        E 13 b9 05 19
        E 13 b9 05 04
        E 13 b9 05 24
        E 13 b9 05 20
        E 13 b9 05 04
        E 13 b9 05 04
        E 13 b9 05 18
        E 13 b9 05 30
        E 13 b9 05 28
        E 13 b9 05 2c
        E 13 b9 05 1f
        E 13 b9 05 05
        E 13 b9 05 09
        E 13 b9 05 22
        E 13 b9 05 1c
        E 13 b9 05 0e
        E 13 b9 05 0a
        E 13 b9 05 0d
        E 13 b9 05 27
        E 13 b9 05 17
        E 13 b9 05 0c
        E 13 b9 05 1d
        E 13 b9 05 32
        E 13 b9 05 00
        E 13 b9 05 06
        E 13 b9 05 14
        E 13 b9 05 11
        E 13 b9 05 29
        E 13 b9 05 0a
        E 13 b9 05 03
        E 13 b9 05 08
        E 13 b9 05 08
        E 13 b9 05 2e
        E 13 b9 05 0c
        E 13 b9 05 00
        E 13 b9 05 25
        E 13 b9 05 11
        E 13 b9 05 0a
        E 13 b9 05 14
        E 13 b9 05 0d
        E 13 b9 05 2b
        E 13 b9 05 2a
        E 13 b9 05 32
        E 13 b9 05 2a
        E 13 b9 05 16
        E 13 b9 05 2f
        E 13 b9 05 24
        E 13 b9 05 06
        E 13 b9 05 16
        E 13 b9 05 1b
        E 13 b9 05 30
        E 13 b9 05 26
        E 13 b9 05 1b
        E 13 b9 05 1c
        E 13 b9 05 02
        E 13 b9 05 05
        E 13 b9 05 2e
        E 13 b9 05 28
        E 13 b9 05 15
        E 13 b9 05 10
        E 13 b9 05 06
        E 13 b9 05 16
        E 13 b9 05 0f
        E 13 b9 05 0c
        E 13 b9 05 13
        E 13 b9 05 1a
        E 13 b9 05 1e
        E 13 b9 05 20
        E 13 b9 05 08
        E 13 b9 05 1e
        E 13 b9 05 2d
        E 13 b9 05 1a
        E 13 b9 05 1d
        E 13 b9 05 01
        E 13 b9 05 03
        E 13 b9 05 32
        E 13 b9 05 21
        E 13 b9 05 09
        E 13 b9 05 2e
        E 13 b9 05 10
        E 13 b9 05 13
        E 13 b9 05 18
        E 13 b9 05 14
        E 13 b9 05 22
        E 13 b9 05 29
        E 13 b9 05 0e
        E 13 b9 05 1c
        E 13 b9 05 0b
        E 13 b9 05 2d
        E 13 b9 05 2a
        E 13 b9 05 17
        E 13 b9 05 12
        E 13 b9 05 28
        E 13 b9 05 12
        E 13 b9 05 23
        E 13 b9 05 07
        E 13 b9 05 00
        E 13 b9 05 10
        E 13 b9 05 19
        E 13 b9 05 2b
        E 13 b9 05 27
        E 13 b9 05 01
        E 13 b9 05 2c
        E 13 b9 05 25
        E 13 b9 05 02
        E 13 b9 05 0f
        E 13 b9 05 1e
        E 13 b9 05 26
        E 13 b9 05 30
        E 13 b9 05 1f
        E 13 b9 05 15
        E 13 b9 05 0e
        E 13 b9 05 23
        E 13 b9 05 24
        E 13 b9 05 2c
        E 13 b9 05 31
        E 13 b9 05 18
        E 13 b9 05 20
        E 13 b9 05 22
        E 13 b9 05 1a
        E 13 b9 05 2f
        E 13 b9 05 07
        E 13 b9 05 12
        E 13 b9 05 21
        E 7 b9 05 13
        E 7 b9 05 43
        E 7 b9 05 2c
        E 7 b9 05 07
        E 7 b9 05 3e
        E 7 b9 05 38
        E 7 b9 05 08
        E 7 b9 05 07
        E 7 b9 05 2a
        E 7 b9 05 54
        E 7 b9 05 46
        E 7 b9 05 4d
        E 7 b9 05 37
        E 7 b9 05 09
        E 7 b9 05 10
        E 7 b9 05 3c
        E 7 b9 05 31
        E 7 b9 05 19
        E 7 b9 05 11
        E 7 b9 05 17
        E 7 b9 05 45
        E 7 b9 05 29
        E 7 b9 05 15
        E 7 b9 05 33
        E 7 b9 05 58
        E 7 b9 05 00
        E 7 b9 05 0b
        E 7 b9 05 24
        E 7 b9 05 1e
        E 7 b9 05 48
        E 7 b9 05 12
        E 7 b9 05 05
        E 7 b9 05 0e
        E 7 b9 05 0f
        E 7 b9 05 50
        E 7 b9 05 16
        E 7 b9 05 00
        E 7 b9 05 41
        E 7 b9 05 1e
        E 7 b9 05 12
        E 7 b9 05 23
        E 7 b9 05 17
        E 7 b9 05 4b
        E 7 b9 05 4a
        E 7 b9 05 58
        E 7 b9 05 4a
        E 7 b9 05 26
        E 7 b9 05 52
        E 7 b9 05 3f
        E 7 b9 05 0a
        E 7 b9 05 27
        E 7 b9 05 2f
        E 7 b9 05 54
        E 7 b9 05 43
        E 7 b9 05 30
        E 7 b9 05 31
        E 7 b9 05 04
        E 7 b9 05 09
        E 7 b9 05 51
        E 7 b9 05 47
        E 7 b9 05 25
        E 7 b9 05 1c
        E 7 b9 05 0b
        E 7 b9 05 27
        E 7 b9 05 1a
        E 7 b9 05 15
        E 7 b9 05 21
        E 7 b9 05 2e
        E 7 b9 05 35
        E 7 b9 05 39
        E 7 b9 05 0e
        E 7 b9 05 35
        E 7 b9 05 4f
        E 7 b9 05 2d
        E 7 b9 05 33
        E 7 b9 05 02
        E 7 b9 05 06
        E 7 b9 05 57
        E 7 b9 05 3a
        E 7 b9 05 10
        E 7 b9 05 51
        E 7 b9 05 1c
        E 7 b9 05 22
        E 7 b9 05 2b
        E 7 b9 05 23
        E 7 b9 05 3b
        E 7 b9 05 48
        E 7 b9 05 19
        E 7 b9 05 32
        E 7 b9 05 14
        E 7 b9 05 4f
        E 7 b9 05 49
        E 7 b9 05 28
        E 7 b9 05 20
        E 7 b9 05 46
        E 7 b9 05 20
        E 7 b9 05 3e
        E 7 b9 05 0c
        E 7 b9 05 01
        E 7 b9 05 1d
        E 7 b9 05 2c
        E 7 b9 05 4c
        E 7 b9 05 44
        E 7 b9 05 02
        E 7 b9 05 4d
        E 7 b9 05 41
        E 7 b9 05 04
        E 7 b9 05 1b
        E 7 b9 05 34
        E 7 b9 05 42
        E 7 b9 05 55
        E 7 b9 05 36
        E 7 b9 05 25
        E 7 b9 05 18
        E 7 b9 05 3d
        E 7 b9 05 40
        E 7 b9 05 4e
        E 7 b9 05 56
        E 7 b9 05 2a
        E 7 b9 05 38
        E 7 b9 05 3c
        E 7 b9 05 2e
        E 7 b9 05 53
        E 7 b9 05 0d
        E 7 b9 05 1f
        E 7 b9 05 3a
        E 1 b9 05 0b
        E 1 b9 05 26
        E 1 b9 05 19
        E 1 b9 05 04
        E 1 b9 05 24
        E 1 b9 05 20
        E 1 b9 05 04
        E 1 b9 05 04
        E 1 b9 05 18
        E 1 b9 05 30
        E 1 b9 05 28
        E 1 b9 05 2c
        E 1 b9 05 1f
        E 1 b9 05 05
        E 1 b9 05 09
        E 1 b9 05 22
        E 1 b9 05 1c
        E 1 b9 05 0e
        E 1 b9 05 0a
        E 1 b9 05 0d
        E 1 b9 05 27
        E 1 b9 05 17
        E 1 b9 05 0c
        E 1 b9 05 1d
        E 1 b9 05 32
        E 1 b9 05 00
        E 1 b9 05 06
        E 1 b9 05 14
        E 1 b9 05 11
        E 1 b9 05 29
        E 1 b9 05 0a
        E 1 b9 05 03
        E 1 b9 05 08
        E 1 b9 05 08
        E 1 b9 05 2e
        E 1 b9 05 0c
        E 1 b9 05 00
        E 1 b9 05 25
        E 1 b9 05 11
        E 1 b9 05 0a
        E 1 b9 05 14
        E 1 b9 05 0d
        E 1 b9 05 2b
        E 1 b9 05 2a
        E 1 b9 05 32
        E 1 b9 05 2a
        E 1 b9 05 16
        E 1 b9 05 2f
        E 1 b9 05 24
        E 1 b9 05 06
        E 1 b9 05 16
        E 1 b9 05 1b
        E 1 b9 05 30
        E 1 b9 05 26
        E 1 b9 05 1b
        E 1 b9 05 1c
        E 1 b9 05 02
        E 1 b9 05 05
        E 1 b9 05 2e
        E 1 b9 05 28
        E 1 b9 05 15
        E 1 b9 05 10
        E 1 b9 05 06
        E 1 b9 05 16
        E 1 b9 05 0f
        E 1 b9 05 0c
        E 1 b9 05 13
        E 1 b9 05 1a
        E 1 b9 05 1e
        E 1 b9 05 20
        E 1 b9 05 08
        E 1 b9 05 1e
        E 1 b9 05 2d
        E 1 b9 05 1a
        E 1 b9 05 1d
        E 1 b9 05 01
        E 1 b9 05 03
        E 1 b9 05 32
        E 1 b9 05 21
        E 1 b9 05 09
        E 1 b9 05 2e
        E 1 b9 05 10
        E 1 b9 05 13
        E 1 b9 05 18
        E 1 b9 05 14
        E 1 b9 05 22
        E 1 b9 05 29
        E 1 b9 05 0e
        E 1 b9 05 1c
        E 1 b9 05 0b
        E 1 b9 05 2d
        E 1 b9 05 2a
        E 1 b9 05 17
        E 1 b9 05 12
        E 1 b9 05 28
        E 1 b9 05 12
        E 1 b9 05 23
        E 1 b9 05 07
        E 1 b9 05 00
        E 1 b9 05 10
        E 1 b9 05 19
        E 1 b9 05 2b
        E 1 b9 05 27
        E 1 b9 05 01
        E 1 b9 05 2c
        E 1 b9 05 25
        E 1 b9 05 02
        E 1 b9 05 0f
        E 1 b9 05 1e
        E 1 b9 05 26
        E 1 b9 05 30
        E 1 b9 05 1f
        E 1 b9 05 15
        E 1 b9 05 0e
        E 1 b9 05 23
        E 1 b9 05 24
        E 1 b9 05 2c
        E 1 b9 05 31
        E 1 b9 05 18
        E 1 b9 05 20
        E 1 b9 05 22
        E 1 b9 05 1a
        E 1 b9 05 2f
        E 1 b9 05 07
        E 1 b9 05 12
        E 1 b9 05 21
        E 4 b9 05 16
        E 4 b9 05 4c
        E 4 b9 05 32
        E 4 b9 05 07
        E 4 b9 05 48
        E 4 b9 05 3f
        E 4 b9 05 09
        E 4 b9 05 08
        E 4 b9 05 30
        E 4 b9 05 5f
        E 4 b9 05 50
        E 4 b9 05 58
        E 4 b9 05 3f
        E 4 b9 05 0b
        E 4 b9 05 13
        E 4 b9 05 44
        E 4 b9 05 37
        E 4 b9 05 1c
        E 4 b9 05 14
        E 4 b9 05 1b
        E 4 b9 05 4f
        E 4 b9 05 2f
        E 4 b9 05 17
        E 4 b9 05 3a
        E 4 b9 05 64
        E 4 b9 05 00
        E 4 b9 05 0c
        E 4 b9 05 29
        E 4 b9 05 22
        E 4 b9 05 53
        E 4 b9 05 15
        E 4 b9 05 06
        E 4 b9 05 0f
        E 4 b9 05 11
        E 4 b9 05 5b
        E 4 b9 05 19
        E 4 b9 05 00
        E 4 b9 05 4b
        E 4 b9 05 23
        E 4 b9 05 14
        E 4 b9 05 28
        E 4 b9 05 1a
        E 4 b9 05 56
        E 4 b9 05 55
        E 4 b9 05 65
        E 4 b9 05 54
        E 4 b9 05 2b
        E 4 b9 05 5e
        E 4 b9 05 48
        E 4 b9 05 0b
        E 4 b9 05 2c
        E 4 b9 05 36
        E 4 b9 05 60
        E 4 b9 05 4d
        E 4 b9 05 37
        E 4 b9 05 38
        E 4 b9 05 04
        E 4 b9 05 0a
        E 4 b9 05 5d
        E 4 b9 05 51
        E 4 b9 05 2b
        E 4 b9 05 1f
        E 4 b9 05 0d
        E 4 b9 05 2d
        E 4 b9 05 1e
        E 4 b9 05 18
        E 4 b9 05 26
        E 4 b9 05 34
        E 4 b9 05 3d
        E 4 b9 05 41
        E 4 b9 05 10
        E 4 b9 05 3c
        E 4 b9 05 5a
        E 4 b9 05 33
        E 4 b9 05 3b
        E 4 b9 05 02
        E 4 b9 05 07
        E 4 b9 05 63
        E 4 b9 05 42
        E 4 b9 05 12
        E 4 b9 05 5c
        E 4 b9 05 20
        E 4 b9 05 27
        E 4 b9 05 31
        E 4 b9 05 28
        E 4 b9 05 44
        E 4 b9 05 52
        E 4 b9 05 1d
        E 4 b9 05 39
        E 4 b9 05 17
        E 4 b9 05 5b
        E 4 b9 05 54
        E 4 b9 05 2e
        E 4 b9 05 24
        E 4 b9 05 50
        E 4 b9 05 25
        E 4 b9 05 47
        E 4 b9 05 0e
        E 4 b9 05 01
        E 4 b9 05 21
        E 4 b9 05 33
        E 4 b9 05 57
        E 4 b9 05 4e
        E 4 b9 05 03
        E 4 b9 05 57
        E 4 b9 05 4a
        E 4 b9 05 05
        E 4 b9 05 1f
        E 4 b9 05 3b
        E 4 b9 05 4c
        E 4 b9 05 61
        E 4 b9 05 3e
        E 4 b9 05 2a
        E 4 b9 05 1b
        E 4 b9 05 46
        E 4 b9 05 49
        E 4 b9 05 59
        E 4 b9 05 63
        E 4 b9 05 2f
        E 4 b9 05 40
        E 4 b9 05 45
        E 4 b9 05 35
        E 4 b9 05 5f
        E 4 b9 05 0f
        E 4 b9 05 24
        E 4 b9 05 43
        E 13 b9 05 16
        E 13 b9 05 4c
        E 13 b9 05 32
        E 13 b9 05 07
        E 13 b9 05 48
        E 13 b9 05 3f
        E 13 b9 05 09
        E 13 b9 05 08
        E 13 b9 05 30
        E 13 b9 05 5f
        E 13 b9 05 50
        E 13 b9 05 58
        E 13 b9 05 3f
        E 13 b9 05 0b
        E 13 b9 05 13
        E 13 b9 05 44
        E 13 b9 05 37
        E 13 b9 05 1c
        E 13 b9 05 14
        E 13 b9 05 1b
        E 13 b9 05 4f
        E 13 b9 05 2f
        E 13 b9 05 17
        E 13 b9 05 3a
        E 13 b9 05 64
        E 13 b9 05 00
        E 13 b9 05 0c
        E 13 b9 05 29
        E 13 b9 05 22
        E 13 b9 05 53
        E 13 b9 05 15
        E 13 b9 05 06
        E 13 b9 05 0f
        E 13 b9 05 11
        E 13 b9 05 5b
        E 13 b9 05 19
        E 13 b9 05 00
        E 13 b9 05 4b
        E 13 b9 05 23
        E 13 b9 05 14
        E 13 b9 05 28
        E 13 b9 05 1a
        E 13 b9 05 56
        E 13 b9 05 55
        E 13 b9 05 65
        E 13 b9 05 54
        E 13 b9 05 2b
        E 13 b9 05 5e
        E 13 b9 05 48
        E 13 b9 05 0b
        E 13 b9 05 2c
        E 13 b9 05 36
        E 13 b9 05 60
        E 13 b9 05 4d
        E 13 b9 05 37
        E 13 b9 05 38
        E 13 b9 05 04
        E 13 b9 05 0a
        E 13 b9 05 5d
        E 13 b9 05 51
        E 13 b9 05 2b
        E 13 b9 05 1f
        E 13 b9 05 0d
        E 13 b9 05 2d
        E 13 b9 05 1e
        E 13 b9 05 18
        E 13 b9 05 26
        E 13 b9 05 34
        E 13 b9 05 3d
        E 13 b9 05 41
        E 13 b9 05 10
        E 13 b9 05 3c
        E 13 b9 05 5a
        E 13 b9 05 33
        E 13 b9 05 3b
        E 13 b9 05 02
        E 13 b9 05 07
        E 13 b9 05 63
        E 13 b9 05 42
        E 13 b9 05 12
        E 13 b9 05 5c
        E 13 b9 05 20
        E 13 b9 05 27
        E 13 b9 05 31
        E 13 b9 05 28
        E 13 b9 05 44
        E 13 b9 05 52
        E 13 b9 05 1d
        E 13 b9 05 39
        E 13 b9 05 17
        E 13 b9 05 5b
        E 13 b9 05 54
        E 13 b9 05 2e
        E 13 b9 05 24
        E 13 b9 05 50
        E 13 b9 05 25
        E 13 b9 05 47
        E 13 b9 05 0e
        E 13 b9 05 01
        E 13 b9 05 21
        E 13 b9 05 33
        E 13 b9 05 57
        E 13 b9 05 4e
        E 13 b9 05 03
        E 13 b9 05 57
        E 13 b9 05 4a
        E 13 b9 05 05
        E 13 b9 05 1f
        E 13 b9 05 3b
        E 13 b9 05 4c
        E 13 b9 05 61
        E 13 b9 05 3e
        E 13 b9 05 2a
        E 13 b9 05 1b
        E 13 b9 05 46
        E 13 b9 05 49
        E 13 b9 05 59
        E 13 b9 05 63
        E 13 b9 05 2f
        E 13 b9 05 40
        E 13 b9 05 45
        E 13 b9 05 35
        E 13 b9 05 5f
        E 13 b9 05 0f
        E 13 b9 05 24
        E 13 b9 05 43
        E 3 b9 05 10
        E 3 b9 05 39
        E 3 b9 05 25
        E 3 b9 05 06
        E 3 b9 05 36
        E 3 b9 05 30
        E 3 b9 05 07
        E 3 b9 05 06
        E 3 b9 05 24
        E 3 b9 05 48
        E 3 b9 05 3c
        E 3 b9 05 42
        E 3 b9 05 2f
        E 3 b9 05 08
        E 3 b9 05 0e
        E 3 b9 05 33
        E 3 b9 05 2a
        E 3 b9 05 15
        E 3 b9 05 0f
        E 3 b9 05 14
        E 3 b9 05 3b
        E 3 b9 05 23
        E 3 b9 05 12
        E 3 b9 05 2b
        E 3 b9 05 4b
        E 3 b9 05 00
        E 3 b9 05 09
        E 3 b9 05 1f
        E 3 b9 05 19
        E 3 b9 05 3e
        E 3 b9 05 10
        E 3 b9 05 04
        E 3 b9 05 0c
        E 3 b9 05 0d
        E 3 b9 05 45
        E 3 b9 05 13
        E 3 b9 05 00
        E 3 b9 05 38
        E 3 b9 05 1a
        E 3 b9 05 0f
        E 3 b9 05 1e
        E 3 b9 05 13
        E 3 b9 05 40
        E 3 b9 05 40
        E 3 b9 05 4c
        E 3 b9 05 3f
        E 3 b9 05 21
        E 3 b9 05 46
        E 3 b9 05 36
        E 3 b9 05 09
        E 3 b9 05 21
        E 3 b9 05 28
        E 3 b9 05 48
        E 3 b9 05 3a
        E 3 b9 05 29
        E 3 b9 05 2a
        E 3 b9 05 03
        E 3 b9 05 07
        E 3 b9 05 46
        E 3 b9 05 3d
        E 3 b9 05 20
        E 3 b9 05 18
        E 3 b9 05 0a
        E 3 b9 05 22
        E 3 b9 05 16
        E 3 b9 05 12
        E 3 b9 05 1c
        E 3 b9 05 27
        E 3 b9 05 2e
        E 3 b9 05 31
        E 3 b9 05 0c
        E 3 b9 05 2d
        E 3 b9 05 43
        E 3 b9 05 27
        E 3 b9 05 2c
        E 3 b9 05 01
        E 3 b9 05 05
        E 3 b9 05 4b
        E 3 b9 05 31
        E 3 b9 05 0d
        E 3 b9 05 45
        E 3 b9 05 18
        E 3 b9 05 1d
        E 3 b9 05 25
        E 3 b9 05 1e
        E 3 b9 05 33
        E 3 b9 05 3d
        E 3 b9 05 16
        E 3 b9 05 2b
        E 3 b9 05 11
        E 3 b9 05 44
        E 3 b9 05 3f
        E 3 b9 05 22
        E 3 b9 05 1b
        E 3 b9 05 3c
        E 3 b9 05 1c
        E 3 b9 05 35
        E 3 b9 05 0a
        E 3 b9 05 01
        E 3 b9 05 19
        E 3 b9 05 26
        E 3 b9 05 41
        E 3 b9 05 3a
        E 3 b9 05 02
        E 3 b9 05 42
        E 3 b9 05 37
        E 3 b9 05 04
        E 3 b9 05 17
        E 3 b9 05 2d
        E 3 b9 05 39
        E 3 b9 05 49
        E 3 b9 05 2e
        E 3 b9 05 1f
        E 3 b9 05 15
        E 3 b9 05 34
        E 3 b9 05 37
        E 3 b9 05 43
        E 3 b9 05 4a
        E 3 b9 05 24
        E 3 b9 05 30
        E 3 b9 05 34
        E 3 b9 05 28
        E 3 b9 05 47
        E 3 b9 05 0b
        E 3 b9 05 1b
        E 3 b9 05 32
        E 13 b9 05 0b
        E 13 b9 05 26
        E 13 b9 05 19
        E 13 b9 05 04
        E 13 b9 05 24
        E 13 b9 05 20
        E 13 b9 05 04
        E 13 b9 05 04
        E 13 b9 05 18
        E 13 b9 05 30
        E 13 b9 05 28
        E 13 b9 05 2c
        E 13 b9 05 1f
        E 13 b9 05 05
        E 13 b9 05 09
        E 13 b9 05 22
        E 13 b9 05 1c
        E 13 b9 05 0e
        E 13 b9 05 0a
        E 13 b9 05 0d
        E 13 b9 05 27
        E 13 b9 05 17
        E 13 b9 05 0c
        E 13 b9 05 1d
        E 13 b9 05 32
        E 13 b9 05 00
        E 13 b9 05 06
        E 13 b9 05 14
        E 13 b9 05 11
        E 13 b9 05 29
        E 13 b9 05 0a
        E 13 b9 05 03
        E 13 b9 05 08
        E 13 b9 05 08
        E 13 b9 05 2e
        E 13 b9 05 0c
        E 13 b9 05 00
        E 13 b9 05 25
        E 13 b9 05 11
        E 13 b9 05 0a
        E 13 b9 05 14
        E 13 b9 05 0d
        E 13 b9 05 2b
        E 13 b9 05 2a
        E 13 b9 05 32
        E 13 b9 05 2a
        E 13 b9 05 16
        E 13 b9 05 2f
        E 13 b9 05 24
        E 13 b9 05 06
        E 13 b9 05 16
        E 13 b9 05 1b
        E 13 b9 05 30
        E 13 b9 05 26
        E 13 b9 05 1b
        E 13 b9 05 1c
        E 13 b9 05 02
        E 13 b9 05 05
        E 13 b9 05 2e
        E 13 b9 05 28
        E 13 b9 05 15
        E 13 b9 05 10
        E 13 b9 05 06
        E 13 b9 05 16
        E 13 b9 05 0f
        E 13 b9 05 0c
        E 13 b9 05 13
        E 13 b9 05 1a
        E 13 b9 05 1e
        E 13 b9 05 20
        E 13 b9 05 08
        E 13 b9 05 1e
        E 13 b9 05 2d
        E 13 b9 05 1a
        E 13 b9 05 1d
        E 13 b9 05 01
        E 13 b9 05 03
        E 13 b9 05 32
        E 13 b9 05 21
        E 13 b9 05 09
        E 13 b9 05 2e
        E 13 b9 05 10
        E 13 b9 05 13
        E 13 b9 05 18
        E 13 b9 05 14
        E 13 b9 05 22
        E 13 b9 05 29
        E 13 b9 05 0e
        E 13 b9 05 1c
        E 13 b9 05 0b
        E 13 b9 05 2d
        E 13 b9 05 2a
        E 13 b9 05 17
        E 13 b9 05 12
        E 13 b9 05 28
        E 13 b9 05 12
        E 13 b9 05 23
        E 13 b9 05 07
        E 13 b9 05 00
        E 13 b9 05 10
        E 13 b9 05 19
        E 13 b9 05 2b
        E 13 b9 05 27
        E 13 b9 05 01
        E 13 b9 05 2c
        E 13 b9 05 25
        E 13 b9 05 02
        E 13 b9 05 0f
        E 13 b9 05 1e
        E 13 b9 05 26
        E 13 b9 05 30
        E 13 b9 05 1f
        E 13 b9 05 15
        E 13 b9 05 0e
        E 13 b9 05 23
        E 13 b9 05 24
        E 13 b9 05 2c
        E 13 b9 05 31
        E 13 b9 05 18
        E 13 b9 05 20
        E 13 b9 05 22
        E 13 b9 05 1a
        E 13 b9 05 2f
        E 13 b9 05 07
        E 13 b9 05 12
        E 13 b9 05 21
        E 7 b9 05 13
        E 7 b9 05 43
        E 7 b9 05 2c
        E 7 b9 05 07
        E 7 b9 05 3e
        E 7 b9 05 38
        E 7 b9 05 08
        E 7 b9 05 07
        E 7 b9 05 2a
        E 7 b9 05 54
        E 7 b9 05 46
        E 7 b9 05 4d
        E 7 b9 05 37
        E 7 b9 05 09
        E 7 b9 05 10
        E 7 b9 05 3c
        E 7 b9 05 31
        E 7 b9 05 19
        E 7 b9 05 11
        E 7 b9 05 17
        E 7 b9 05 45
        E 7 b9 05 29
        E 7 b9 05 15
        E 7 b9 05 33
        E 7 b9 05 58
        E 7 b9 05 00
        E 7 b9 05 0b
        E 7 b9 05 24
        E 7 b9 05 1e
        E 7 b9 05 48
        E 7 b9 05 12
        E 7 b9 05 05
        E 7 b9 05 0e
        E 7 b9 05 0f
        E 7 b9 05 50
        E 7 b9 05 16
        E 7 b9 05 00
        E 7 b9 05 41
        E 7 b9 05 1e
        E 7 b9 05 12
        E 7 b9 05 23
        E 7 b9 05 17
        E 7 b9 05 4b
        E 7 b9 05 4a
        E 7 b9 05 58
        E 7 b9 05 4a
        E 7 b9 05 26
        E 7 b9 05 52
        E 7 b9 05 3f
        E 7 b9 05 0a
        E 7 b9 05 27
        E 7 b9 05 2f
        E 7 b9 05 54
        E 7 b9 05 43
        E 7 b9 05 30
        E 7 b9 05 31
        E 7 b9 05 04
        E 7 b9 05 09
        E 7 b9 05 51
        E 7 b9 05 47
        E 7 b9 05 25
        E 7 b9 05 1c
        E 7 b9 05 0b
        E 7 b9 05 27
        E 7 b9 05 1a
        E 7 b9 05 15
        E 7 b9 05 21
        E 7 b9 05 2e
        E 7 b9 05 35
        E 7 b9 05 39
        E 7 b9 05 0e
        E 7 b9 05 35
        E 7 b9 05 4f
        E 7 b9 05 2d
        E 7 b9 05 33
        E 7 b9 05 02
        E 7 b9 05 06
        E 7 b9 05 57
        E 7 b9 05 3a
        E 7 b9 05 10
        E 7 b9 05 51
        E 7 b9 05 1c
        E 7 b9 05 22
        E 7 b9 05 2b
        E 7 b9 05 23
        E 7 b9 05 3b
        E 7 b9 05 48
        E 7 b9 05 19
        E 7 b9 05 32
        E 7 b9 05 14
        E 7 b9 05 4f
        E 7 b9 05 49
        E 7 b9 05 28
        E 7 b9 05 20
        E 7 b9 05 46
        E 7 b9 05 20
        E 7 b9 05 3e
        E 7 b9 05 0c
        E 7 b9 05 01
        E 7 b9 05 1d
        E 7 b9 05 2c
        E 7 b9 05 4c
        E 7 b9 05 44
        E 7 b9 05 02
        E 7 b9 05 4d
        E 7 b9 05 41
        E 7 b9 05 04
        E 7 b9 05 1b
        E 7 b9 05 34
        E 7 b9 05 42
        E 7 b9 05 55
        E 7 b9 05 36
        E 7 b9 05 25
        E 7 b9 05 18
        E 7 b9 05 3d
        E 7 b9 05 40
        E 7 b9 05 4e
        E 7 b9 05 56
        E 7 b9 05 2a
        E 7 b9 05 38
        E 7 b9 05 3c
        E 7 b9 05 2e
        E 7 b9 05 53
        E 7 b9 05 0d
        E 7 b9 05 1f
        E 7 b9 05 3a
        E 1 b9 05 0b
        E 1 b9 05 26
        E 1 b9 05 19
        E 1 b9 05 04
        E 1 b9 05 24
        E 1 b9 05 20
        E 1 b9 05 04
        E 1 b9 05 04
        E 1 b9 05 18
        E 1 b9 05 30
        E 1 b9 05 28
        E 1 b9 05 2c
        E 1 b9 05 1f
        E 1 b9 05 05
        E 1 b9 05 09
        E 1 b9 05 22
        E 1 b9 05 1c
        E 1 b9 05 0e
        E 1 b9 05 0a
        E 1 b9 05 0d
        E 1 b9 05 27
        E 1 b9 05 17
        E 1 b9 05 0c
        E 1 b9 05 1d
        E 1 b9 05 32
        E 1 b9 05 00
        E 1 b9 05 06
        E 1 b9 05 14
        E 1 b9 05 11
        E 1 b9 05 29
        E 1 b9 05 0a
        E 1 b9 05 03
        E 1 b9 05 08
        E 1 b9 05 08
        E 1 b9 05 2e
        E 1 b9 05 0c
        E 1 b9 05 00
        E 1 b9 05 25
        E 1 b9 05 11
        E 1 b9 05 0a
        E 1 b9 05 14
        E 1 b9 05 0d
        E 1 b9 05 2b
        E 1 b9 05 2a
        E 1 b9 05 32
        E 1 b9 05 2a
        E 1 b9 05 16
        E 1 b9 05 2f
        E 1 b9 05 24
        E 1 b9 05 06
        E 1 b9 05 16
        E 1 b9 05 1b
        E 1 b9 05 30
        E 1 b9 05 26
        E 1 b9 05 1b
        E 1 b9 05 1c
        E 1 b9 05 02
        E 1 b9 05 05
        E 1 b9 05 2e
        E 1 b9 05 28
        E 1 b9 05 15
        E 1 b9 05 10
        E 1 b9 05 06
        E 1 b9 05 16
        E 1 b9 05 0f
        E 1 b9 05 0c
        E 1 b9 05 13
        E 1 b9 05 1a
        E 1 b9 05 1e
        E 1 b9 05 20
        E 1 b9 05 08
        E 1 b9 05 1e
        E 1 b9 05 2d
        E 1 b9 05 1a
        E 1 b9 05 1d
        E 1 b9 05 01
        E 1 b9 05 03
        E 1 b9 05 32
        E 1 b9 05 21
        E 1 b9 05 09
        E 1 b9 05 2e
        E 1 b9 05 10
        E 1 b9 05 13
        E 1 b9 05 18
        E 1 b9 05 14
        E 1 b9 05 22
        E 1 b9 05 29
        E 1 b9 05 0e
        E 1 b9 05 1c
        E 1 b9 05 0b
        E 1 b9 05 2d
        E 1 b9 05 2a
        E 1 b9 05 17
        E 1 b9 05 12
        E 1 b9 05 28
        E 1 b9 05 12
        E 1 b9 05 23
        E 1 b9 05 07
        E 1 b9 05 00
        E 1 b9 05 10
        E 1 b9 05 19
        E 1 b9 05 2b
        E 1 b9 05 27
        E 1 b9 05 01
        E 1 b9 05 2c
        E 1 b9 05 25
        E 1 b9 05 02
        E 1 b9 05 0f
        E 1 b9 05 1e
        E 1 b9 05 26
        E 1 b9 05 30
        E 1 b9 05 1f
        E 1 b9 05 15
        E 1 b9 05 0e
        E 1 b9 05 23
        E 1 b9 05 24
        E 1 b9 05 2c
        E 1 b9 05 31
        E 1 b9 05 18
        E 1 b9 05 20
        E 1 b9 05 22
        E 1 b9 05 1a
        E 1 b9 05 2f
        E 1 b9 05 07
        E 1 b9 05 12
        E 1 b9 05 21
        E 4 b9 05 16
        E 4 b9 05 4c
        E 4 b9 05 32
        E 4 b9 05 07
        E 4 b9 05 48
        E 4 b9 05 3f
        E 4 b9 05 09
        E 4 b9 05 08
        E 4 b9 05 30
        E 4 b9 05 5f
        E 4 b9 05 50
        E 4 b9 05 58
        E 4 b9 05 3f
        E 4 b9 05 0b
        E 4 b9 05 13
        E 4 b9 05 44
        E 4 b9 05 37
        E 4 b9 05 1c
        E 4 b9 05 14
        E 4 b9 05 1b
        E 4 b9 05 4f
        E 4 b9 05 2f
        E 4 b9 05 17
        E 4 b9 05 3a
        E 4 b9 05 64
        E 4 b9 05 00
        E 4 b9 05 0c
        E 4 b9 05 29
        E 4 b9 05 22
        E 4 b9 05 53
        E 4 b9 05 15
        E 4 b9 05 06
        E 4 b9 05 0f
        E 4 b9 05 11
        E 4 b9 05 5b
        E 4 b9 05 19
        E 4 b9 05 00
        E 4 b9 05 4b
        E 4 b9 05 23
        E 4 b9 05 14
        E 4 b9 05 28
        E 4 b9 05 1a
        E 4 b9 05 56
        E 4 b9 05 55
        E 4 b9 05 65
        E 4 b9 05 54
        E 4 b9 05 2b
        E 4 b9 05 5e
        E 4 b9 05 48
        E 4 b9 05 0b
        E 4 b9 05 2c
        E 4 b9 05 36
        E 4 b9 05 60
        E 4 b9 05 4d
        E 4 b9 05 37
        E 4 b9 05 38
        E 4 b9 05 04
        E 4 b9 05 0a
        E 4 b9 05 5d
        E 4 b9 05 51
        E 4 b9 05 2b
        E 4 b9 05 1f
        E 4 b9 05 0d
        E 4 b9 05 2d
        E 4 b9 05 1e
        E 4 b9 05 18
        E 4 b9 05 26
        E 4 b9 05 34
        E 4 b9 05 3d
        E 4 b9 05 41
        E 4 b9 05 10
        E 4 b9 05 3c
        E 4 b9 05 5a
        E 4 b9 05 33
        E 4 b9 05 3b
        E 4 b9 05 02
        E 4 b9 05 07
        E 4 b9 05 63
        E 4 b9 05 42
        E 4 b9 05 12
        E 4 b9 05 5c
        E 4 b9 05 20
        E 4 b9 05 27
        E 4 b9 05 31
        E 4 b9 05 28
        E 4 b9 05 44
        E 4 b9 05 52
        E 4 b9 05 1d
        E 4 b9 05 39
        E 4 b9 05 17
        E 4 b9 05 5b
        E 4 b9 05 54
        E 4 b9 05 2e
        E 4 b9 05 24
        E 4 b9 05 50
        E 4 b9 05 25
        E 4 b9 05 47
        E 4 b9 05 0e
        E 4 b9 05 01
        E 4 b9 05 21
        E 4 b9 05 33
        E 4 b9 05 57
        E 4 b9 05 4e
        E 4 b9 05 03
        E 4 b9 05 57
        E 4 b9 05 4a
        E 4 b9 05 05
        E 4 b9 05 1f
        E 4 b9 05 3b
        E 4 b9 05 4c
        E 4 b9 05 61
        E 4 b9 05 3e
        E 4 b9 05 2a
        E 4 b9 05 1b
        E 4 b9 05 46
        E 4 b9 05 49
        E 4 b9 05 59
        E 4 b9 05 63
        E 4 b9 05 2f
        E 4 b9 05 40
        E 4 b9 05 45
        E 4 b9 05 35
        E 4 b9 05 5f
        E 4 b9 05 0f
        E 4 b9 05 24
        E 4 b9 05 43
        E 13 b9 05 16
        E 13 b9 05 4c
        E 13 b9 05 32
        E 13 b9 05 07
        E 13 b9 05 48
        E 13 b9 05 3f
        E 13 b9 05 09
        E 13 b9 05 08
        E 13 b9 05 30
        E 13 b9 05 5f
        E 13 b9 05 50
        E 13 b9 05 58
        E 13 b9 05 3f
        E 13 b9 05 0b
        E 13 b9 05 13
        E 13 b9 05 44
        E 13 b9 05 37
        E 13 b9 05 1c
        E 13 b9 05 14
        E 13 b9 05 1b
        E 13 b9 05 4f
        E 13 b9 05 2f
        E 13 b9 05 17
        E 13 b9 05 3a
        E 13 b9 05 64
        E 13 b9 05 00
        E 13 b9 05 0c
        E 13 b9 05 29
        E 13 b9 05 22
        E 13 b9 05 53
        E 13 b9 05 15
        E 13 b9 05 06
        E 13 b9 05 0f
        E 13 b9 05 11
        E 13 b9 05 5b
        E 13 b9 05 19
        E 13 b9 05 00
        E 13 b9 05 4b
        E 13 b9 05 23
        E 13 b9 05 14
        E 13 b9 05 28
        E 13 b9 05 1a
        E 13 b9 05 56
        E 13 b9 05 55
        E 13 b9 05 65
        E 13 b9 05 54
        E 13 b9 05 2b
        E 13 b9 05 5e
        E 13 b9 05 48
        E 13 b9 05 0b
        E 13 b9 05 2c
        E 13 b9 05 36
        E 13 b9 05 60
        E 13 b9 05 4d
        E 13 b9 05 37
        E 13 b9 05 38
        E 13 b9 05 04
        E 13 b9 05 0a
        E 13 b9 05 5d
        E 13 b9 05 51
        E 13 b9 05 2b
        E 13 b9 05 1f
        E 13 b9 05 0d
        E 13 b9 05 2d
        E 13 b9 05 1e
        E 13 b9 05 18
        E 13 b9 05 26
        E 13 b9 05 34
        E 13 b9 05 3d
        E 13 b9 05 41
        E 13 b9 05 10
        E 13 b9 05 3c
        E 13 b9 05 5a
        E 13 b9 05 33
        E 13 b9 05 3b
        E 13 b9 05 02
        E 13 b9 05 07
        E 13 b9 05 63
        E 13 b9 05 42
        E 13 b9 05 12
        E 13 b9 05 5c
        E 13 b9 05 20
        E 13 b9 05 27
        E 13 b9 05 31
        E 13 b9 05 28
        E 13 b9 05 44
        E 13 b9 05 52
        E 13 b9 05 1d
        E 13 b9 05 39
        E 13 b9 05 17
        E 13 b9 05 5b
        E 13 b9 05 54
        E 13 b9 05 2e
        E 13 b9 05 24
        E 13 b9 05 50
        E 13 b9 05 25
        E 13 b9 05 47
        E 13 b9 05 0e
        E 13 b9 05 01
        E 13 b9 05 21
        E 13 b9 05 33
        E 13 b9 05 57
        E 13 b9 05 4e
        E 13 b9 05 03
        E 13 b9 05 57
        E 13 b9 05 4a
        E 13 b9 05 05
        E 13 b9 05 1f
        E 13 b9 05 3b
        E 13 b9 05 4c
        E 13 b9 05 61
        E 13 b9 05 3e
        E 13 b9 05 2a
        E 13 b9 05 1b
        E 13 b9 05 46
        E 13 b9 05 49
        E 13 b9 05 59
        E 13 b9 05 63
        E 13 b9 05 2f
        E 13 b9 05 40
        E 13 b9 05 45
        E 13 b9 05 35
        E 13 b9 05 5f
        E 13 b9 05 0f
        E 13 b9 05 24
        E 13 b9 05 43
        E 10 b9 05 01
        E 10 b9 05 02
        E 10 b9 05 04
        E 10 b9 05 05
        E 10 b9 05 07
        E 10 b9 05 08
        E 10 b9 05 09
        E 10 b9 05 0b
        E 10 b9 05 0c
        E 10 b9 05 0e
        E 10 b9 05 0f
        E 10 b9 05 10
        E 10 b9 05 12
        E 10 b9 05 13
        E 10 b9 05 15
        E 10 b9 05 16
        E 10 b9 05 17
        E 10 b9 05 19
        E 10 b9 05 1a
        E 10 b9 05 1c
        E 10 b9 05 1d
        E 10 b9 05 1e
        E 10 b9 05 20
        E 10 b9 05 21
        E 10 b9 05 23
        E 10 b9 05 24
        E 10 b9 05 25
        E 10 b9 05 27
        E 10 b9 05 28
        E 10 b9 05 2a
        E 10 b9 05 2b
        E 10 b9 05 2c
        E 10 b9 05 2e
        E 10 b9 05 2f
        E 10 b9 05 31
        E 10 b9 05 32
        E 10 b9 05 33
        E 10 b9 05 35
        E 10 b9 05 36
        E 10 b9 05 38
        E 10 b9 05 39
        E 10 b9 05 3a
        E 10 b9 05 3c
        E 10 b9 05 3d
        E 10 b9 05 3e
        E 10 b9 05 40
        E 10 b9 05 41
        E 10 b9 05 43
        E 10 b9 05 44
        E 10 b9 05 46
        E 10 b9 05 47
        E 10 b9 05 48
        E 10 b9 05 4a
        E 10 b9 05 4b
        E 10 b9 05 4d
        E 10 b9 05 4e
        E 10 b9 05 4f
        E 10 b9 05 51
        E 10 b9 05 52
        E 10 b9 05 54
        E 10 b9 05 55
        E 10 b9 05 56
        E 10 b9 05 58
        E 10 b9 05 58
        E 10 b9 05 58
        E 10 b9 05 56
        E 10 b9 05 55
        E 10 b9 05 54
        E 10 b9 05 52
        E 10 b9 05 51
        E 10 b9 05 4f
        E 10 b9 05 4e
        E 10 b9 05 4d
        E 10 b9 05 4b
        E 10 b9 05 4a
        E 10 b9 05 48
        E 10 b9 05 47
        E 10 b9 05 46
        E 10 b9 05 44
        E 10 b9 05 43
        E 10 b9 05 41
        E 10 b9 05 40
        E 10 b9 05 3e
        E 10 b9 05 3d
        E 10 b9 05 3c
        E 10 b9 05 3a
        E 10 b9 05 39
        E 10 b9 05 38
        E 10 b9 05 36
        E 10 b9 05 35
        E 10 b9 05 33
        E 10 b9 05 32
        E 10 b9 05 31
        E 10 b9 05 2f
        E 10 b9 05 2e
        E 10 b9 05 2c
        E 10 b9 05 2b
        E 10 b9 05 2a
        E 10 b9 05 28
        E 10 b9 05 27
        E 10 b9 05 25
        E 10 b9 05 24
        E 10 b9 05 23
        E 10 b9 05 21
        E 10 b9 05 20
        E 10 b9 05 1e
        E 10 b9 05 1d
        E 10 b9 05 1c
        E 10 b9 05 1a
        E 10 b9 05 19
        E 10 b9 05 17
        E 10 b9 05 16
        E 10 b9 05 15
        E 10 b9 05 13
        E 10 b9 05 12
        E 10 b9 05 10
        E 10 b9 05 0f
        E 10 b9 05 0e
        E 10 b9 05 0c
        E 10 b9 05 0b
        E 10 b9 05 09
        E 10 b9 05 08
        E 10 b9 05 07
        E 10 b9 05 05
        E 10 b9 05 04
        E 10 b9 05 02
        E 10 b9 05 01
        E 10 b9 05 00
        E 2 b9 05 00
        E 2 b9 05 01
        E 2 b9 05 02
        E 2 b9 05 03
        E 2 b9 05 04
        E 2 b9 05 04
        E 2 b9 05 05
        E 2 b9 05 06
        E 2 b9 05 07
        E 2 b9 05 08
        E 2 b9 05 08
        E 2 b9 05 09
        E 2 b9 05 0a
        E 2 b9 05 0b
        E 2 b9 05 0c
        E 2 b9 05 0c
        E 2 b9 05 0d
        E 2 b9 05 0e
        E 2 b9 05 0f
        E 2 b9 05 10
        E 2 b9 05 10
        E 2 b9 05 11
        E 2 b9 05 12
        E 2 b9 05 13
        E 2 b9 05 14
        E 2 b9 05 14
        E 2 b9 05 15
        E 2 b9 05 16
        E 2 b9 05 17
        E 2 b9 05 18
        E 2 b9 05 18
        E 2 b9 05 19
        E 2 b9 05 1a
        E 2 b9 05 1b
        E 2 b9 05 1c
        E 2 b9 05 1c
        E 2 b9 05 1d
        E 2 b9 05 1e
        E 2 b9 05 1f
        E 2 b9 05 20
        E 2 b9 05 20
        E 2 b9 05 21
        E 2 b9 05 22
        E 2 b9 05 23
        E 2 b9 05 24
        E 2 b9 05 24
        E 2 b9 05 25
        E 2 b9 05 26
        E 2 b9 05 27
        E 2 b9 05 28
        E 2 b9 05 28
        E 2 b9 05 29
        E 2 b9 05 2a
        E 2 b9 05 2b
        E 2 b9 05 2c
        E 2 b9 05 2c
        E 2 b9 05 2d
        E 2 b9 05 2e
        E 2 b9 05 2f
        E 2 b9 05 30
        E 2 b9 05 30
        E 2 b9 05 31
        E 2 b9 05 32
        E 2 b9 05 32
        E 2 b9 05 32
        E 2 b9 05 31
        E 2 b9 05 30
        E 2 b9 05 30
        E 2 b9 05 2f
        E 2 b9 05 2e
        E 2 b9 05 2d
        E 2 b9 05 2c
        E 2 b9 05 2c
        E 2 b9 05 2b
        E 2 b9 05 2a
        E 2 b9 05 29
        E 2 b9 05 28
        E 2 b9 05 28
        E 2 b9 05 27
        E 2 b9 05 26
        E 2 b9 05 25
        E 2 b9 05 24
        E 2 b9 05 24
        E 2 b9 05 23
        E 2 b9 05 22
        E 2 b9 05 21
        E 2 b9 05 20
        E 2 b9 05 20
        E 2 b9 05 1f
        E 2 b9 05 1e
        E 2 b9 05 1d
        E 2 b9 05 1c
        E 2 b9 05 1c
        E 2 b9 05 1b
        E 2 b9 05 1a
        E 2 b9 05 19
        E 2 b9 05 18
        E 2 b9 05 18
        E 2 b9 05 17
        E 2 b9 05 16
        E 2 b9 05 15
        E 2 b9 05 14
        E 2 b9 05 14
        E 2 b9 05 13
        E 2 b9 05 12
        E 2 b9 05 11
        E 2 b9 05 10
        E 2 b9 05 10
        E 2 b9 05 0f
        E 2 b9 05 0e
        E 2 b9 05 0d
        E 2 b9 05 0c
        E 2 b9 05 0c
        E 2 b9 05 0b
        E 2 b9 05 0a
        E 2 b9 05 09
        E 2 b9 05 08
        E 2 b9 05 08
        E 2 b9 05 07
        E 2 b9 05 06
        E 2 b9 05 05
        E 2 b9 05 04
        E 2 b9 05 04
        E 2 b9 05 03
        E 2 b9 05 02
        E 2 b9 05 01
        E 2 b9 05 00
        E 2 b9 05 00
        E 6 b9 05 01
        E 6 b9 05 03
        E 6 b9 05 04
        E 6 b9 05 06
        E 6 b9 05 07
        E 6 b9 05 09
        E 6 b9 05 0b
        E 6 b9 05 0c
        E 6 b9 05 0e
        E 6 b9 05 0f
        E 6 b9 05 11
        E 6 b9 05 13
        E 6 b9 05 14
        E 6 b9 05 16
        E 6 b9 05 17
        E 6 b9 05 19
        E 6 b9 05 1b
        E 6 b9 05 1c
        E 6 b9 05 1e
        E 6 b9 05 1f
        E 6 b9 05 21
        E 6 b9 05 23
        E 6 b9 05 24
        E 6 b9 05 26
        E 6 b9 05 28
        E 6 b9 05 29
        E 6 b9 05 2b
        E 6 b9 05 2c
        E 6 b9 05 2e
        E 6 b9 05 2f
        E 6 b9 05 31
        E 6 b9 05 33
        E 6 b9 05 34
        E 6 b9 05 36
        E 6 b9 05 37
        E 6 b9 05 39
        E 6 b9 05 3b
        E 6 b9 05 3c
        E 6 b9 05 3e
        E 6 b9 05 3f
        E 6 b9 05 41
        E 6 b9 05 43
        E 6 b9 05 44
        E 6 b9 05 46
        E 6 b9 05 48
        E 6 b9 05 49
        E 6 b9 05 4b
        E 6 b9 05 4c
        E 6 b9 05 4e
        E 6 b9 05 50
        E 6 b9 05 51
        E 6 b9 05 53
        E 6 b9 05 54
        E 6 b9 05 56
        E 6 b9 05 57
        E 6 b9 05 59
        E 6 b9 05 5b
        E 6 b9 05 5c
        E 6 b9 05 5e
        E 6 b9 05 5f
        E 6 b9 05 61
        E 6 b9 05 63
        E 6 b9 05 64
        E 6 b9 05 65
        E 6 b9 05 64
        E 6 b9 05 63
        E 6 b9 05 61
        E 6 b9 05 5f
        E 6 b9 05 5e
        E 6 b9 05 5c
        E 6 b9 05 5b
        E 6 b9 05 59
        E 6 b9 05 57
        E 6 b9 05 56
        E 6 b9 05 54
        E 6 b9 05 53
        E 6 b9 05 51
        E 6 b9 05 50
        E 6 b9 05 4e
        E 6 b9 05 4c
        E 6 b9 05 4b
        E 6 b9 05 49
        E 6 b9 05 48
        E 6 b9 05 46
        E 6 b9 05 44
        E 6 b9 05 43
        E 6 b9 05 41
        E 6 b9 05 3f
        E 6 b9 05 3e
        E 6 b9 05 3c
        E 6 b9 05 3b
        E 6 b9 05 39
        E 6 b9 05 37
        E 6 b9 05 36
        E 6 b9 05 34
        E 6 b9 05 33
        E 6 b9 05 31
        E 6 b9 05 2f
        E 6 b9 05 2e
        E 6 b9 05 2c
        E 6 b9 05 2b
        E 6 b9 05 29
        E 6 b9 05 28
        E 6 b9 05 26
        E 6 b9 05 24
        E 6 b9 05 23
        E 6 b9 05 21
        E 6 b9 05 1f
        E 6 b9 05 1e
        E 6 b9 05 1c
        E 6 b9 05 1b
        E 6 b9 05 19
        E 6 b9 05 17
        E 6 b9 05 16
        E 6 b9 05 14
        E 6 b9 05 13
        E 6 b9 05 11
        E 6 b9 05 0f
        E 6 b9 05 0e
        E 6 b9 05 0c
        E 6 b9 05 0b
        E 6 b9 05 09
        E 6 b9 05 07
        E 6 b9 05 06
        E 6 b9 05 04
        E 6 b9 05 03
        E 6 b9 05 01
        E 6 b9 05 00
        E 18 b9 05 01
        E 18 b9 05 03
        E 18 b9 05 04
        E 18 b9 05 06
        E 18 b9 05 07
        E 18 b9 05 09
        E 18 b9 05 0b
        E 18 b9 05 0c
        E 18 b9 05 0e
        E 18 b9 05 0f
        E 18 b9 05 11
        E 18 b9 05 13
        E 18 b9 05 14
        E 18 b9 05 16
        E 18 b9 05 17
        E 18 b9 05 19
        E 18 b9 05 1b
        E 18 b9 05 1c
        E 18 b9 05 1e
        E 18 b9 05 1f
        E 18 b9 05 21
        E 18 b9 05 23
        E 18 b9 05 24
        E 18 b9 05 26
        E 18 b9 05 28
        E 18 b9 05 29
        E 18 b9 05 2b
        E 18 b9 05 2c
        E 18 b9 05 2e
        E 18 b9 05 2f
        E 18 b9 05 31
        E 18 b9 05 33
        E 18 b9 05 34
        E 18 b9 05 36
        E 18 b9 05 37
        E 18 b9 05 39
        E 18 b9 05 3b
        E 18 b9 05 3c
        E 18 b9 05 3e
        E 18 b9 05 3f
        E 18 b9 05 41
        E 18 b9 05 43
        E 18 b9 05 44
        E 18 b9 05 46
        E 18 b9 05 48
        E 18 b9 05 49
        E 18 b9 05 4b
        E 18 b9 05 4c
        E 18 b9 05 4e
        E 18 b9 05 50
        E 18 b9 05 51
        E 18 b9 05 53
        E 18 b9 05 54
        E 18 b9 05 56
        E 18 b9 05 57
        E 18 b9 05 59
        E 18 b9 05 5b
        E 18 b9 05 5c
        E 18 b9 05 5e
        E 18 b9 05 5f
        E 18 b9 05 61
        E 18 b9 05 63
        E 18 b9 05 64
        E 18 b9 05 65
        E 18 b9 05 64
        E 18 b9 05 63
        E 18 b9 05 61
        E 18 b9 05 5f
        E 18 b9 05 5e
        E 18 b9 05 5c
        E 18 b9 05 5b
        E 18 b9 05 59
        E 18 b9 05 57
        E 18 b9 05 56
        E 18 b9 05 54
        E 18 b9 05 53
        E 18 b9 05 51
        E 18 b9 05 50
        E 18 b9 05 4e
        E 18 b9 05 4c
        E 18 b9 05 4b
        E 18 b9 05 49
        E 18 b9 05 48
        E 18 b9 05 46
        E 18 b9 05 44
        E 18 b9 05 43
        E 18 b9 05 41
        E 18 b9 05 3f
        E 18 b9 05 3e
        E 18 b9 05 3c
        E 18 b9 05 3b
        E 18 b9 05 39
        E 18 b9 05 37
        E 18 b9 05 36
        E 18 b9 05 34
        E 18 b9 05 33
        E 18 b9 05 31
        E 18 b9 05 2f
        E 18 b9 05 2e
        E 18 b9 05 2c
        E 18 b9 05 2b
        E 18 b9 05 29
        E 18 b9 05 28
        E 18 b9 05 26
        E 18 b9 05 24
        E 18 b9 05 23
        E 18 b9 05 21
        E 18 b9 05 1f
        E 18 b9 05 1e
        E 18 b9 05 1c
        E 18 b9 05 1b
        E 18 b9 05 19
        E 18 b9 05 17
        E 18 b9 05 16
        E 18 b9 05 14
        E 18 b9 05 13
        E 18 b9 05 11
        E 18 b9 05 0f
        E 18 b9 05 0e
        E 18 b9 05 0c
        E 18 b9 05 0b
        E 18 b9 05 09
        E 18 b9 05 07
        E 18 b9 05 06
        E 18 b9 05 04
        E 18 b9 05 03
        E 18 b9 05 01
        E 18 b9 05 00
        E 4 b9 05 01
        E 4 b9 05 02
        E 4 b9 05 03
        E 4 b9 05 04
        E 4 b9 05 06
        E 4 b9 05 07
        E 4 b9 05 08
        E 4 b9 05 09
        E 4 b9 05 0a
        E 4 b9 05 0c
        E 4 b9 05 0d
        E 4 b9 05 0e
        E 4 b9 05 0f
        E 4 b9 05 10
        E 4 b9 05 12
        E 4 b9 05 13
        E 4 b9 05 14
        E 4 b9 05 15
        E 4 b9 05 16
        E 4 b9 05 18
        E 4 b9 05 19
        E 4 b9 05 1a
        E 4 b9 05 1b
        E 4 b9 05 1c
        E 4 b9 05 1e
        E 4 b9 05 1f
        E 4 b9 05 20
        E 4 b9 05 21
        E 4 b9 05 22
        E 4 b9 05 24
        E 4 b9 05 25
        E 4 b9 05 26
        E 4 b9 05 27
        E 4 b9 05 28
        E 4 b9 05 2a
        E 4 b9 05 2b
        E 4 b9 05 2c
        E 4 b9 05 2d
        E 4 b9 05 2e
        E 4 b9 05 30
        E 4 b9 05 31
        E 4 b9 05 32
        E 4 b9 05 33
        E 4 b9 05 34
        E 4 b9 05 36
        E 4 b9 05 37
        E 4 b9 05 38
        E 4 b9 05 39
        E 4 b9 05 3a
        E 4 b9 05 3c
        E 4 b9 05 3d
        E 4 b9 05 3e
        E 4 b9 05 3f
        E 4 b9 05 40
        E 4 b9 05 42
        E 4 b9 05 43
        E 4 b9 05 44
        E 4 b9 05 45
        E 4 b9 05 46
        E 4 b9 05 48
        E 4 b9 05 49
        E 4 b9 05 4a
        E 4 b9 05 4b
        E 4 b9 05 4c
        E 4 b9 05 4b
        E 4 b9 05 4a
        E 4 b9 05 49
        E 4 b9 05 48
        E 4 b9 05 46
        E 4 b9 05 45
        E 4 b9 05 44
        E 4 b9 05 43
        E 4 b9 05 42
        E 4 b9 05 40
        E 4 b9 05 3f
        E 4 b9 05 3e
        E 4 b9 05 3d
        E 4 b9 05 3c
        E 4 b9 05 3a
        E 4 b9 05 39
        E 4 b9 05 38
        E 4 b9 05 37
        E 4 b9 05 36
        E 4 b9 05 34
        E 4 b9 05 33
        E 4 b9 05 32
        E 4 b9 05 31
        E 4 b9 05 30
        E 4 b9 05 2e
        E 4 b9 05 2d
        E 4 b9 05 2c
        E 4 b9 05 2b
        E 4 b9 05 2a
        E 4 b9 05 28
        E 4 b9 05 27
        E 4 b9 05 26
        E 4 b9 05 25
        E 4 b9 05 24
        E 4 b9 05 22
        E 4 b9 05 21
        E 4 b9 05 20
        E 4 b9 05 1f
        E 4 b9 05 1e
        E 4 b9 05 1c
        E 4 b9 05 1b
        E 4 b9 05 1a
        E 4 b9 05 19
        E 4 b9 05 18
        E 4 b9 05 16
        E 4 b9 05 15
        E 4 b9 05 14
        E 4 b9 05 13
        E 4 b9 05 12
        E 4 b9 05 10
        E 4 b9 05 0f
        E 4 b9 05 0e
        E 4 b9 05 0d
        E 4 b9 05 0c
        E 4 b9 05 0a
        E 4 b9 05 09
        E 4 b9 05 08
        E 4 b9 05 07
        E 4 b9 05 06
        E 4 b9 05 04
        E 4 b9 05 03
        E 4 b9 05 02
        E 4 b9 05 01
        E 4 b9 05 00
        E 18 b9 05 00
        E 18 b9 05 01
        E 18 b9 05 02
        E 18 b9 05 03
        E 18 b9 05 04
        E 18 b9 05 04
        E 18 b9 05 05
        E 18 b9 05 06
        E 18 b9 05 07
        E 18 b9 05 08
        E 18 b9 05 08
        E 18 b9 05 09
        E 18 b9 05 0a
        E 18 b9 05 0b
        E 18 b9 05 0c
        E 18 b9 05 0c
        E 18 b9 05 0d
        E 18 b9 05 0e
        E 18 b9 05 0f
        E 18 b9 05 10
        E 18 b9 05 10
        E 18 b9 05 11
        E 18 b9 05 12
        E 18 b9 05 13
        E 18 b9 05 14
        E 18 b9 05 14
        E 18 b9 05 15
        E 18 b9 05 16
        E 18 b9 05 17
        E 18 b9 05 18
        E 18 b9 05 18
        E 18 b9 05 19
        E 18 b9 05 1a
        E 18 b9 05 1b
        E 18 b9 05 1c
        E 18 b9 05 1c
        E 18 b9 05 1d
        E 18 b9 05 1e
        E 18 b9 05 1f
        E 18 b9 05 20
        E 18 b9 05 20
        E 18 b9 05 21
        E 18 b9 05 22
        E 18 b9 05 23
        E 18 b9 05 24
        E 18 b9 05 24
        E 18 b9 05 25
        E 18 b9 05 26
        E 18 b9 05 27
        E 18 b9 05 28
        E 18 b9 05 28
        E 18 b9 05 29
        E 18 b9 05 2a
        E 18 b9 05 2b
        E 18 b9 05 2c
        E 18 b9 05 2c
        E 18 b9 05 2d
        E 18 b9 05 2e
        E 18 b9 05 2f
        E 18 b9 05 30
        E 18 b9 05 30
        E 18 b9 05 31
        E 18 b9 05 32
        E 18 b9 05 32
        E 18 b9 05 32
        E 18 b9 05 31
        E 18 b9 05 30
        E 18 b9 05 30
        E 18 b9 05 2f
        E 18 b9 05 2e
        E 18 b9 05 2d
        E 18 b9 05 2c
        E 18 b9 05 2c
        E 18 b9 05 2b
        E 18 b9 05 2a
        E 18 b9 05 29
        E 18 b9 05 28
        E 18 b9 05 28
        E 18 b9 05 27
        E 18 b9 05 26
        E 18 b9 05 25
        E 18 b9 05 24
        E 18 b9 05 24
        E 18 b9 05 23
        E 18 b9 05 22
        E 18 b9 05 21
        E 18 b9 05 20
        E 18 b9 05 20
        E 18 b9 05 1f
        E 18 b9 05 1e
        E 18 b9 05 1d
        E 18 b9 05 1c
        E 18 b9 05 1c
        E 18 b9 05 1b
        E 18 b9 05 1a
        E 18 b9 05 19
        E 18 b9 05 18
        E 18 b9 05 18
        E 18 b9 05 17
        E 18 b9 05 16
        E 18 b9 05 15
        E 18 b9 05 14
        E 18 b9 05 14
        E 18 b9 05 13
        E 18 b9 05 12
        E 18 b9 05 11
        E 18 b9 05 10
        E 18 b9 05 10
        E 18 b9 05 0f
        E 18 b9 05 0e
        E 18 b9 05 0d
        E 18 b9 05 0c
        E 18 b9 05 0c
        E 18 b9 05 0b
        E 18 b9 05 0a
        E 18 b9 05 09
        E 18 b9 05 08
        E 18 b9 05 08
        E 18 b9 05 07
        E 18 b9 05 06
        E 18 b9 05 05
        E 18 b9 05 04
        E 18 b9 05 04
        E 18 b9 05 03
        E 18 b9 05 02
        E 18 b9 05 01
        E 18 b9 05 00
        E 18 b9 05 00
        E 10 b9 05 01
        E 10 b9 05 02
        E 10 b9 05 04
        E 10 b9 05 05
        E 10 b9 05 07
        E 10 b9 05 08
        E 10 b9 05 09
        E 10 b9 05 0b
        E 10 b9 05 0c
        E 10 b9 05 0e
        E 10 b9 05 0f
        E 10 b9 05 10
        E 10 b9 05 12
        E 10 b9 05 13
        E 10 b9 05 15
        E 10 b9 05 16
        E 10 b9 05 17
        E 10 b9 05 19
        E 10 b9 05 1a
        E 10 b9 05 1c
        E 10 b9 05 1d
        E 10 b9 05 1e
        E 10 b9 05 20
        E 10 b9 05 21
        E 10 b9 05 23
        E 10 b9 05 24
        E 10 b9 05 25
        E 10 b9 05 27
        E 10 b9 05 28
        E 10 b9 05 2a
        E 10 b9 05 2b
        E 10 b9 05 2c
        E 10 b9 05 2e
        E 10 b9 05 2f
        E 10 b9 05 31
        E 10 b9 05 32
        E 10 b9 05 33
        E 10 b9 05 35
        E 10 b9 05 36
        E 10 b9 05 38
        E 10 b9 05 39
        E 10 b9 05 3a
        E 10 b9 05 3c
        E 10 b9 05 3d
        E 10 b9 05 3e
        E 10 b9 05 40
        E 10 b9 05 41
        E 10 b9 05 43
        E 10 b9 05 44
        E 10 b9 05 46
        E 10 b9 05 47
        E 10 b9 05 48
        E 10 b9 05 4a
        E 10 b9 05 4b
        E 10 b9 05 4d
        E 10 b9 05 4e
        E 10 b9 05 4f
        E 10 b9 05 51
        E 10 b9 05 52
        E 10 b9 05 54
        E 10 b9 05 55
        E 10 b9 05 56
        E 10 b9 05 58
        E 10 b9 05 58
        E 10 b9 05 58
        E 10 b9 05 56
        E 10 b9 05 55
        E 10 b9 05 54
        E 10 b9 05 52
        E 10 b9 05 51
        E 10 b9 05 4f
        E 10 b9 05 4e
        E 10 b9 05 4d
        E 10 b9 05 4b
        E 10 b9 05 4a
        E 10 b9 05 48
        E 10 b9 05 47
        E 10 b9 05 46
        E 10 b9 05 44
        E 10 b9 05 43
        E 10 b9 05 41
        E 10 b9 05 40
        E 10 b9 05 3e
        E 10 b9 05 3d
        E 10 b9 05 3c
        E 10 b9 05 3a
        E 10 b9 05 39
        E 10 b9 05 38
        E 10 b9 05 36
        E 10 b9 05 35
        E 10 b9 05 33
        E 10 b9 05 32
        E 10 b9 05 31
        E 10 b9 05 2f
        E 10 b9 05 2e
        E 10 b9 05 2c
        E 10 b9 05 2b
        E 10 b9 05 2a
        E 10 b9 05 28
        E 10 b9 05 27
        E 10 b9 05 25
        E 10 b9 05 24
        E 10 b9 05 23
        E 10 b9 05 21
        E 10 b9 05 20
        E 10 b9 05 1e
        E 10 b9 05 1d
        E 10 b9 05 1c
        E 10 b9 05 1a
        E 10 b9 05 19
        E 10 b9 05 17
        E 10 b9 05 16
        E 10 b9 05 15
        E 10 b9 05 13
        E 10 b9 05 12
        E 10 b9 05 10
        E 10 b9 05 0f
        E 10 b9 05 0e
        E 10 b9 05 0c
        E 10 b9 05 0b
        E 10 b9 05 09
        E 10 b9 05 08
        E 10 b9 05 07
        E 10 b9 05 05
        E 10 b9 05 04
        E 10 b9 05 02
        E 10 b9 05 01
        E 10 b9 05 00
        E 2 b9 05 00
        E 2 b9 05 01
        E 2 b9 05 02
        E 2 b9 05 03
        E 2 b9 05 04
        E 2 b9 05 04
        E 2 b9 05 05
        E 2 b9 05 06
        E 2 b9 05 07
        E 2 b9 05 08
        E 2 b9 05 08
        E 2 b9 05 09
        E 2 b9 05 0a
        E 2 b9 05 0b
        E 2 b9 05 0c
        E 2 b9 05 0c
        E 2 b9 05 0d
        E 2 b9 05 0e
        E 2 b9 05 0f
        E 2 b9 05 10
        E 2 b9 05 10
        E 2 b9 05 11
        E 2 b9 05 12
        E 2 b9 05 13
        E 2 b9 05 14
        E 2 b9 05 14
        E 2 b9 05 15
        E 2 b9 05 16
        E 2 b9 05 17
        E 2 b9 05 18
        E 2 b9 05 18
        E 2 b9 05 19
        E 2 b9 05 1a
        E 2 b9 05 1b
        E 2 b9 05 1c
        E 2 b9 05 1c
        E 2 b9 05 1d
        E 2 b9 05 1e
        E 2 b9 05 1f
        E 2 b9 05 20
        E 2 b9 05 20
        E 2 b9 05 21
        E 2 b9 05 22
        E 2 b9 05 23
        E 2 b9 05 24
        E 2 b9 05 24
        E 2 b9 05 25
        E 2 b9 05 26
        E 2 b9 05 27
        E 2 b9 05 28
        E 2 b9 05 28
        E 2 b9 05 29
        E 2 b9 05 2a
        E 2 b9 05 2b
        E 2 b9 05 2c
        E 2 b9 05 2c
        E 2 b9 05 2d
        E 2 b9 05 2e
        E 2 b9 05 2f
        E 2 b9 05 30
        E 2 b9 05 30
        E 2 b9 05 31
        E 2 b9 05 32
        E 2 b9 05 32
        E 2 b9 05 32
        E 2 b9 05 31
        E 2 b9 05 30
        E 2 b9 05 30
        E 2 b9 05 2f
        E 2 b9 05 2e
        E 2 b9 05 2d
        E 2 b9 05 2c
        E 2 b9 05 2c
        E 2 b9 05 2b
        E 2 b9 05 2a
        E 2 b9 05 29
        E 2 b9 05 28
        E 2 b9 05 28
        E 2 b9 05 27
        E 2 b9 05 26
        E 2 b9 05 25
        E 2 b9 05 24
        E 2 b9 05 24
        E 2 b9 05 23
        E 2 b9 05 22
        E 2 b9 05 21
        E 2 b9 05 20
        E 2 b9 05 20
        E 2 b9 05 1f
        E 2 b9 05 1e
        E 2 b9 05 1d
        E 2 b9 05 1c
        E 2 b9 05 1c
        E 2 b9 05 1b
        E 2 b9 05 1a
        E 2 b9 05 19
        E 2 b9 05 18
        E 2 b9 05 18
        E 2 b9 05 17
        E 2 b9 05 16
        E 2 b9 05 15
        E 2 b9 05 14
        E 2 b9 05 14
        E 2 b9 05 13
        E 2 b9 05 12
        E 2 b9 05 11
        E 2 b9 05 10
        E 2 b9 05 10
        E 2 b9 05 0f
        E 2 b9 05 0e
        E 2 b9 05 0d
        E 2 b9 05 0c
        E 2 b9 05 0c
        E 2 b9 05 0b
        E 2 b9 05 0a
        E 2 b9 05 09
        E 2 b9 05 08
        E 2 b9 05 08
        E 2 b9 05 07
        E 2 b9 05 06
        E 2 b9 05 05
        E 2 b9 05 04
        E 2 b9 05 04
        E 2 b9 05 03
        E 2 b9 05 02
        E 2 b9 05 01
        E 2 b9 05 00
        E 2 b9 05 00
        E 6 b9 05 01
        E 6 b9 05 03
        E 6 b9 05 04
        E 6 b9 05 06
        E 6 b9 05 07
        E 6 b9 05 09
        E 6 b9 05 0b
        E 6 b9 05 0c
        E 6 b9 05 0e
        E 6 b9 05 0f
        E 6 b9 05 11
        E 6 b9 05 13
        E 6 b9 05 14
        E 6 b9 05 16
        E 6 b9 05 17
        E 6 b9 05 19
        E 6 b9 05 1b
        E 6 b9 05 1c
        E 6 b9 05 1e
        E 6 b9 05 1f
        E 6 b9 05 21
        E 6 b9 05 23
        E 6 b9 05 24
        E 6 b9 05 26
        E 6 b9 05 28
        E 6 b9 05 29
        E 6 b9 05 2b
        E 6 b9 05 2c
        E 6 b9 05 2e
        E 6 b9 05 2f
        E 6 b9 05 31
        E 6 b9 05 33
        E 6 b9 05 34
        E 6 b9 05 36
        E 6 b9 05 37
        E 6 b9 05 39
        E 6 b9 05 3b
        E 6 b9 05 3c
        E 6 b9 05 3e
        E 6 b9 05 3f
        E 6 b9 05 41
        E 6 b9 05 43
        E 6 b9 05 44
        E 6 b9 05 46
        E 6 b9 05 48
        E 6 b9 05 49
        E 6 b9 05 4b
        E 6 b9 05 4c
        E 6 b9 05 4e
        E 6 b9 05 50
        E 6 b9 05 51
        E 6 b9 05 53
        E 6 b9 05 54
        E 6 b9 05 56
        E 6 b9 05 57
        E 6 b9 05 59
        E 6 b9 05 5b
        E 6 b9 05 5c
        E 6 b9 05 5e
        E 6 b9 05 5f
        E 6 b9 05 61
        E 6 b9 05 63
        E 6 b9 05 64
        E 6 b9 05 65
        E 6 b9 05 64
        E 6 b9 05 63
        E 6 b9 05 61
        E 6 b9 05 5f
        E 6 b9 05 5e
        E 6 b9 05 5c
        E 6 b9 05 5b
        E 6 b9 05 59
        E 6 b9 05 57
        E 6 b9 05 56
        E 6 b9 05 54
        E 6 b9 05 53
        E 6 b9 05 51
        E 6 b9 05 50
        E 6 b9 05 4e
        E 6 b9 05 4c
        E 6 b9 05 4b
        E 6 b9 05 49
        E 6 b9 05 48
        E 6 b9 05 46
        E 6 b9 05 44
        E 6 b9 05 43
        E 6 b9 05 41
        E 6 b9 05 3f
        E 6 b9 05 3e
        E 6 b9 05 3c
        E 6 b9 05 3b
        E 6 b9 05 39
        E 6 b9 05 37
        E 6 b9 05 36
        E 6 b9 05 34
        E 6 b9 05 33
        E 6 b9 05 31
        E 6 b9 05 2f
        E 6 b9 05 2e
        E 6 b9 05 2c
        E 6 b9 05 2b
        E 6 b9 05 29
        E 6 b9 05 28
        E 6 b9 05 26
        E 6 b9 05 24
        E 6 b9 05 23
        E 6 b9 05 21
        E 6 b9 05 1f
        E 6 b9 05 1e
        E 6 b9 05 1c
        E 6 b9 05 1b
        E 6 b9 05 19
        E 6 b9 05 17
        E 6 b9 05 16
        E 6 b9 05 14
        E 6 b9 05 13
        E 6 b9 05 11
        E 6 b9 05 0f
        E 6 b9 05 0e
        E 6 b9 05 0c
        E 6 b9 05 0b
        E 6 b9 05 09
        E 6 b9 05 07
        E 6 b9 05 06
        E 6 b9 05 04
        E 6 b9 05 03
        E 6 b9 05 01
        E 6 b9 05 00
        E 70 b9 05 0b
        E 70 b9 05 26
        E 70 b9 05 19
        E 70 b9 05 04
        E 70 b9 05 24
        E 70 b9 05 20
        E 70 b9 05 04
        E 70 b9 05 04
        E 70 b9 05 18
        E 70 b9 05 30
        E 70 b9 05 28
        E 70 b9 05 2c
        E 70 b9 05 1f
        E 70 b9 05 05
        E 70 b9 05 09
        E 70 b9 05 22
        E 70 b9 05 1c
        E 70 b9 05 0e
        E 70 b9 05 0a
        E 70 b9 05 0d
        E 70 b9 05 27
        E 70 b9 05 17
        E 70 b9 05 0c
        E 70 b9 05 1d
        E 70 b9 05 32
        E 70 b9 05 00
        E 70 b9 05 06
        E 70 b9 05 14
        E 70 b9 05 11
        E 70 b9 05 29
        E 70 b9 05 0a
        E 70 b9 05 03
        E 70 b9 05 08
        E 70 b9 05 08
        E 70 b9 05 2e
        E 70 b9 05 0c
        E 70 b9 05 00
        E 70 b9 05 25
        E 70 b9 05 11
        E 70 b9 05 0a
        E 70 b9 05 14
        E 70 b9 05 0d
        E 70 b9 05 2b
        E 70 b9 05 2a
        E 70 b9 05 32
        E 70 b9 05 2a
        E 70 b9 05 16
        E 70 b9 05 2f
        E 70 b9 05 24
        E 70 b9 05 06
        E 70 b9 05 16
        E 70 b9 05 1b
        E 70 b9 05 30
        E 70 b9 05 26
        E 70 b9 05 1b
        E 70 b9 05 1c
        E 70 b9 05 02
        E 70 b9 05 05
        E 70 b9 05 2e
        E 70 b9 05 28
        E 70 b9 05 15
        E 70 b9 05 10
        E 70 b9 05 06
        E 70 b9 05 16
        E 70 b9 05 0f
        E 70 b9 05 0c
        E 70 b9 05 13
        E 70 b9 05 1a
        E 70 b9 05 1e
        E 70 b9 05 20
        E 70 b9 05 08
        E 70 b9 05 1e
        E 70 b9 05 2d
        E 70 b9 05 1a
        E 70 b9 05 1d
        E 70 b9 05 01
        E 70 b9 05 03
        E 70 b9 05 32
        E 70 b9 05 21
        E 70 b9 05 09
        E 70 b9 05 2e
        E 70 b9 05 10
        E 70 b9 05 13
        E 70 b9 05 18
        E 70 b9 05 14
        E 70 b9 05 22
        E 70 b9 05 29
        E 70 b9 05 0e
        E 70 b9 05 1c
        E 70 b9 05 0b
        E 70 b9 05 2d
        E 70 b9 05 2a
        E 70 b9 05 17
        E 70 b9 05 12
        E 70 b9 05 28
        E 70 b9 05 12
        E 70 b9 05 23
        E 70 b9 05 07
        E 70 b9 05 00
        E 70 b9 05 10
        E 70 b9 05 19
        E 70 b9 05 2b
        E 70 b9 05 27
        E 70 b9 05 01
        E 70 b9 05 2c
        E 70 b9 05 25
        E 70 b9 05 02
        E 70 b9 05 0f
        E 70 b9 05 1e
        E 70 b9 05 26
        E 70 b9 05 30
        E 70 b9 05 1f
        E 70 b9 05 15
        E 70 b9 05 0e
        E 70 b9 05 23
        E 70 b9 05 24
        E 70 b9 05 2c
        E 70 b9 05 31
        E 70 b9 05 18
        E 70 b9 05 20
        E 70 b9 05 22
        E 70 b9 05 1a
        E 70 b9 05 2f
        E 70 b9 05 07
        E 70 b9 05 12
        E 70 b9 05 21
        E 39 b9 05 13
        E 39 b9 05 43
        E 39 b9 05 2c
        E 39 b9 05 07
        E 39 b9 05 3e
        E 39 b9 05 38
        E 39 b9 05 08
        E 39 b9 05 07
        E 39 b9 05 2a
        E 39 b9 05 54
        E 39 b9 05 46
        E 39 b9 05 4d
        E 39 b9 05 37
        E 39 b9 05 09
        E 39 b9 05 10
        E 39 b9 05 3c
        E 39 b9 05 31
        E 39 b9 05 19
        E 39 b9 05 11
        E 39 b9 05 17
        E 39 b9 05 45
        E 39 b9 05 29
        E 39 b9 05 15
        E 39 b9 05 33
        E 39 b9 05 58
        E 39 b9 05 00
        E 39 b9 05 0b
        E 39 b9 05 24
        E 39 b9 05 1e
        E 39 b9 05 48
        E 39 b9 05 12
        E 39 b9 05 05
        E 39 b9 05 0e
        E 39 b9 05 0f
        E 39 b9 05 50
        E 39 b9 05 16
        E 39 b9 05 00
        E 39 b9 05 41
        E 39 b9 05 1e
        E 39 b9 05 12
        E 39 b9 05 23
        E 39 b9 05 17
        E 39 b9 05 4b
        E 39 b9 05 4a
        E 39 b9 05 58
        E 39 b9 05 4a
        E 39 b9 05 26
        E 39 b9 05 52
        E 39 b9 05 3f
        E 39 b9 05 0a
        E 39 b9 05 27
        E 39 b9 05 2f
        E 39 b9 05 54
        E 39 b9 05 43
        E 39 b9 05 30
        E 39 b9 05 31
        E 39 b9 05 04
        E 39 b9 05 09
        E 39 b9 05 51
        E 39 b9 05 47
        E 39 b9 05 25
        E 39 b9 05 1c
        E 39 b9 05 0b
        E 39 b9 05 27
        E 39 b9 05 1a
        E 39 b9 05 15
        E 39 b9 05 21
        E 39 b9 05 2e
        E 39 b9 05 35
        E 39 b9 05 39
        E 39 b9 05 0e
        E 39 b9 05 35
        E 39 b9 05 4f
        E 39 b9 05 2d
        E 39 b9 05 33
        E 39 b9 05 02
        E 39 b9 05 06
        E 39 b9 05 57
        E 39 b9 05 3a
        E 39 b9 05 10
        E 39 b9 05 51
        E 39 b9 05 1c
        E 39 b9 05 22
        E 39 b9 05 2b
        E 39 b9 05 23
        E 39 b9 05 3b
        E 39 b9 05 48
        E 39 b9 05 19
        E 39 b9 05 32
        E 39 b9 05 14
        E 39 b9 05 4f
        E 39 b9 05 49
        E 39 b9 05 28
        E 39 b9 05 20
        E 39 b9 05 46
        E 39 b9 05 20
        E 39 b9 05 3e
        E 39 b9 05 0c
        E 39 b9 05 01
        E 39 b9 05 1d
        E 39 b9 05 2c
        E 39 b9 05 4c
        E 39 b9 05 44
        E 39 b9 05 02
        E 39 b9 05 4d
        E 39 b9 05 41
        E 39 b9 05 04
        E 39 b9 05 1b
        E 39 b9 05 34
        E 39 b9 05 42
        E 39 b9 05 55
        E 39 b9 05 36
        E 39 b9 05 25
        E 39 b9 05 18
        E 39 b9 05 3d
        E 39 b9 05 40
        E 39 b9 05 4e
        E 39 b9 05 56
        E 39 b9 05 2a
        E 39 b9 05 38
        E 39 b9 05 3c
        E 39 b9 05 2e
        E 39 b9 05 53
        E 39 b9 05 0d
        E 39 b9 05 1f
        E 39 b9 05 3a
        E 7 b9 05 0b
        E 7 b9 05 26
        E 7 b9 05 19
        E 7 b9 05 04
        E 7 b9 05 24
        E 7 b9 05 20
        E 7 b9 05 04
        E 7 b9 05 04
        E 7 b9 05 18
        E 7 b9 05 30
        E 7 b9 05 28
        E 7 b9 05 2c
        E 7 b9 05 1f
        E 7 b9 05 05
        E 7 b9 05 09
        E 7 b9 05 22
        E 7 b9 05 1c
        E 7 b9 05 0e
        E 7 b9 05 0a
        E 7 b9 05 0d
        E 7 b9 05 27
        E 7 b9 05 17
        E 7 b9 05 0c
        E 7 b9 05 1d
        E 7 b9 05 32
        E 7 b9 05 00
        E 7 b9 05 06
        E 7 b9 05 14
        E 7 b9 05 11
        E 7 b9 05 29
        E 7 b9 05 0a
        E 7 b9 05 03
        E 7 b9 05 08
        E 7 b9 05 08
        E 7 b9 05 2e
        E 7 b9 05 0c
        E 7 b9 05 00
        E 7 b9 05 25
        E 7 b9 05 11
        E 7 b9 05 0a
        E 7 b9 05 14
        E 7 b9 05 0d
        E 7 b9 05 2b
        E 7 b9 05 2a
        E 7 b9 05 32
        E 7 b9 05 2a
        E 7 b9 05 16
        E 7 b9 05 2f
        E 7 b9 05 24
        E 7 b9 05 06
        E 7 b9 05 16
        E 7 b9 05 1b
        E 7 b9 05 30
        E 7 b9 05 26
        E 7 b9 05 1b
        E 7 b9 05 1c
        E 7 b9 05 02
        E 7 b9 05 05
        E 7 b9 05 2e
        E 7 b9 05 28
        E 7 b9 05 15
        E 7 b9 05 10
        E 7 b9 05 06
        E 7 b9 05 16
        E 7 b9 05 0f
        E 7 b9 05 0c
        E 7 b9 05 13
        E 7 b9 05 1a
        E 7 b9 05 1e
        E 7 b9 05 20
        E 7 b9 05 08
        E 7 b9 05 1e
        E 7 b9 05 2d
        E 7 b9 05 1a
        E 7 b9 05 1d
        E 7 b9 05 01
        E 7 b9 05 03
        E 7 b9 05 32
        E 7 b9 05 21
        E 7 b9 05 09
        E 7 b9 05 2e
        E 7 b9 05 10
        E 7 b9 05 13
        E 7 b9 05 18
        E 7 b9 05 14
        E 7 b9 05 22
        E 7 b9 05 29
        E 7 b9 05 0e
        E 7 b9 05 1c
        E 7 b9 05 0b
        E 7 b9 05 2d
        E 7 b9 05 2a
        E 7 b9 05 17
        E 7 b9 05 12
        E 7 b9 05 28
        E 7 b9 05 12
        E 7 b9 05 23
        E 7 b9 05 07
        E 7 b9 05 00
        E 7 b9 05 10
        E 7 b9 05 19
        E 7 b9 05 2b
        E 7 b9 05 27
        E 7 b9 05 01
        E 7 b9 05 2c
        E 7 b9 05 25
        E 7 b9 05 02
        E 7 b9 05 0f
        E 7 b9 05 1e
        E 7 b9 05 26
        E 7 b9 05 30
        E 7 b9 05 1f
        E 7 b9 05 15
        E 7 b9 05 0e
        E 7 b9 05 23
        E 7 b9 05 24
        E 7 b9 05 2c
        E 7 b9 05 31
        E 7 b9 05 18
        E 7 b9 05 20
        E 7 b9 05 22
        E 7 b9 05 1a
        E 7 b9 05 2f
        E 7 b9 05 07
        E 7 b9 05 12
        E 7 b9 05 21
        E 23 b9 05 16
        E 23 b9 05 4c
        E 23 b9 05 32
        E 23 b9 05 07
        E 23 b9 05 48
        E 23 b9 05 3f
        E 23 b9 05 09
        E 23 b9 05 08
        E 23 b9 05 30
        E 23 b9 05 5f
        E 23 b9 05 50
        E 23 b9 05 58
        E 23 b9 05 3f
        E 23 b9 05 0b
        E 23 b9 05 13
        E 23 b9 05 44
        E 23 b9 05 37
        E 23 b9 05 1c
        E 23 b9 05 14
        E 23 b9 05 1b
        E 23 b9 05 4f
        E 23 b9 05 2f
        E 23 b9 05 17
        E 23 b9 05 3a
        E 23 b9 05 64
        E 23 b9 05 00
        E 23 b9 05 0c
        E 23 b9 05 29
        E 23 b9 05 22
        E 23 b9 05 53
        E 23 b9 05 15
        E 23 b9 05 06
        E 23 b9 05 0f
        E 23 b9 05 11
        E 23 b9 05 5b
        E 23 b9 05 19
        E 23 b9 05 00
        E 23 b9 05 4b
        E 23 b9 05 23
        E 23 b9 05 14
        E 23 b9 05 28
        E 23 b9 05 1a
        E 23 b9 05 56
        E 23 b9 05 55
        E 23 b9 05 65
        E 23 b9 05 54
        E 23 b9 05 2b
        E 23 b9 05 5e
        E 23 b9 05 48
        E 23 b9 05 0b
        E 23 b9 05 2c
        E 23 b9 05 36
        E 23 b9 05 60
        E 23 b9 05 4d
        E 23 b9 05 37
        E 23 b9 05 38
        E 23 b9 05 04
        E 23 b9 05 0a
        E 23 b9 05 5d
        E 23 b9 05 51
        E 23 b9 05 2b
        E 23 b9 05 1f
        E 23 b9 05 0d
        E 23 b9 05 2d
        E 23 b9 05 1e
        E 23 b9 05 18
        E 23 b9 05 26
        E 23 b9 05 34
        E 23 b9 05 3d
        E 23 b9 05 41
        E 23 b9 05 10
        E 23 b9 05 3c
        E 23 b9 05 5a
        E 23 b9 05 33
        E 23 b9 05 3b
        E 23 b9 05 02
        E 23 b9 05 07
        E 23 b9 05 63
        E 23 b9 05 42
        E 23 b9 05 12
        E 23 b9 05 5c
        E 23 b9 05 20
        E 23 b9 05 27
        E 23 b9 05 31
        E 23 b9 05 28
        E 23 b9 05 44
        E 23 b9 05 52
        E 23 b9 05 1d
        E 23 b9 05 39
        E 23 b9 05 17
        E 23 b9 05 5b
        E 23 b9 05 54
        E 23 b9 05 2e
        E 23 b9 05 24
        E 23 b9 05 50
        E 23 b9 05 25
        E 23 b9 05 47
        E 23 b9 05 0e
        E 23 b9 05 01
        E 23 b9 05 21
        E 23 b9 05 33
        E 23 b9 05 57
        E 23 b9 05 4e
        E 23 b9 05 03
        E 23 b9 05 57
        E 23 b9 05 4a
        E 23 b9 05 05
        E 23 b9 05 1f
        E 23 b9 05 3b
        E 23 b9 05 4c
        E 23 b9 05 61
        E 23 b9 05 3e
        E 23 b9 05 2a
        E 23 b9 05 1b
        E 23 b9 05 46
        E 23 b9 05 49
        E 23 b9 05 59
        E 23 b9 05 63
        E 23 b9 05 2f
        E 23 b9 05 40
        E 23 b9 05 45
        E 23 b9 05 35
        E 23 b9 05 5f
        E 23 b9 05 0f
        E 23 b9 05 24
        E 23 b9 05 43
        E 70 b9 05 16
        E 70 b9 05 4c
        E 70 b9 05 32
        E 70 b9 05 07
        E 70 b9 05 48
        E 70 b9 05 3f
        E 70 b9 05 09
        E 70 b9 05 08
        E 70 b9 05 30
        E 70 b9 05 5f
        E 70 b9 05 50
        E 70 b9 05 58
        E 70 b9 05 3f
        E 70 b9 05 0b
        E 70 b9 05 13
        E 70 b9 05 44
        E 70 b9 05 37
        E 70 b9 05 1c
        E 70 b9 05 14
        E 70 b9 05 1b
        E 70 b9 05 4f
        E 70 b9 05 2f
        E 70 b9 05 17
        E 70 b9 05 3a
        E 70 b9 05 64
        E 70 b9 05 00
        E 70 b9 05 0c
        E 70 b9 05 29
        E 70 b9 05 22
        E 70 b9 05 53
        E 70 b9 05 15
        E 70 b9 05 06
        E 70 b9 05 0f
        E 70 b9 05 11
        E 70 b9 05 5b
        E 70 b9 05 19
        E 70 b9 05 00
        E 70 b9 05 4b
        E 70 b9 05 23
        E 70 b9 05 14
        E 70 b9 05 28
        E 70 b9 05 1a
        E 70 b9 05 56
        E 70 b9 05 55
        E 70 b9 05 65
        E 70 b9 05 54
        E 70 b9 05 2b
        E 70 b9 05 5e
        E 70 b9 05 48
        E 70 b9 05 0b
        E 70 b9 05 2c
        E 70 b9 05 36
        E 70 b9 05 60
        E 70 b9 05 4d
        E 70 b9 05 37
        E 70 b9 05 38
        E 70 b9 05 04
        E 70 b9 05 0a
        E 70 b9 05 5d
        E 70 b9 05 51
        E 70 b9 05 2b
        E 70 b9 05 1f
        E 70 b9 05 0d
        E 70 b9 05 2d
        E 70 b9 05 1e
        E 70 b9 05 18
        E 70 b9 05 26
        E 70 b9 05 34
        E 70 b9 05 3d
        E 70 b9 05 41
        E 70 b9 05 10
        E 70 b9 05 3c
        E 70 b9 05 5a
        E 70 b9 05 33
        E 70 b9 05 3b
        E 70 b9 05 02
        E 70 b9 05 07
        E 70 b9 05 63
        E 70 b9 05 42
        E 70 b9 05 12
        E 70 b9 05 5c
        E 70 b9 05 20
        E 70 b9 05 27
        E 70 b9 05 31
        E 70 b9 05 28
        E 70 b9 05 44
        E 70 b9 05 52
        E 70 b9 05 1d
        E 70 b9 05 39
        E 70 b9 05 17
        E 70 b9 05 5b
        E 70 b9 05 54
        E 70 b9 05 2e
        E 70 b9 05 24
        E 70 b9 05 50
        E 70 b9 05 25
        E 70 b9 05 47
        E 70 b9 05 0e
        E 70 b9 05 01
        E 70 b9 05 21
        E 70 b9 05 33
        E 70 b9 05 57
        E 70 b9 05 4e
        E 70 b9 05 03
        E 70 b9 05 57
        E 70 b9 05 4a
        E 70 b9 05 05
        E 70 b9 05 1f
        E 70 b9 05 3b
        E 70 b9 05 4c
        E 70 b9 05 61
        E 70 b9 05 3e
        E 70 b9 05 2a
        E 70 b9 05 1b
        E 70 b9 05 46
        E 70 b9 05 49
        E 70 b9 05 59
        E 70 b9 05 63
        E 70 b9 05 2f
        E 70 b9 05 40
        E 70 b9 05 45
        E 70 b9 05 35
        E 70 b9 05 5f
        E 70 b9 05 0f
        E 70 b9 05 24
        E 70 b9 05 43
        E 15 b9 05 10
        E 15 b9 05 39
        E 15 b9 05 25
        E 15 b9 05 06
        E 15 b9 05 36
        E 15 b9 05 30
        E 15 b9 05 07
        E 15 b9 05 06
        E 15 b9 05 24
        E 15 b9 05 48
        E 15 b9 05 3c
        E 15 b9 05 42
        E 15 b9 05 2f
        E 15 b9 05 08
        E 15 b9 05 0e
        E 15 b9 05 33
        E 15 b9 05 2a
        E 15 b9 05 15
        E 15 b9 05 0f
        E 15 b9 05 14
        E 15 b9 05 3b
        E 15 b9 05 23
        E 15 b9 05 12
        E 15 b9 05 2b
        E 15 b9 05 4b
        E 15 b9 05 00
        E 15 b9 05 09
        E 15 b9 05 1f
        E 15 b9 05 19
        E 15 b9 05 3e
        E 15 b9 05 10
        E 15 b9 05 04
        E 15 b9 05 0c
        E 15 b9 05 0d
        E 15 b9 05 45
        E 15 b9 05 13
        E 15 b9 05 00
        E 15 b9 05 38
        E 15 b9 05 1a
        E 15 b9 05 0f
        E 15 b9 05 1e
        E 15 b9 05 13
        E 15 b9 05 40
        E 15 b9 05 40
        E 15 b9 05 4c
        E 15 b9 05 3f
        E 15 b9 05 21
        E 15 b9 05 46
        E 15 b9 05 36
        E 15 b9 05 09
        E 15 b9 05 21
        E 15 b9 05 28
        E 15 b9 05 48
        E 15 b9 05 3a
        E 15 b9 05 29
        E 15 b9 05 2a
        E 15 b9 05 03
        E 15 b9 05 07
        E 15 b9 05 46
        E 15 b9 05 3d
        E 15 b9 05 20
        E 15 b9 05 18
        E 15 b9 05 0a
        E 15 b9 05 22
        E 15 b9 05 16
        E 15 b9 05 12
        E 15 b9 05 1c
        E 15 b9 05 27
        E 15 b9 05 2e
        E 15 b9 05 31
        E 15 b9 05 0c
        E 15 b9 05 2d
        E 15 b9 05 43
        E 15 b9 05 27
        E 15 b9 05 2c
        E 15 b9 05 01
        E 15 b9 05 05
        E 15 b9 05 4b
        E 15 b9 05 31
        E 15 b9 05 0d
        E 15 b9 05 45
        E 15 b9 05 18
        E 15 b9 05 1d
        E 15 b9 05 25
        E 15 b9 05 1e
        E 15 b9 05 33
        E 15 b9 05 3d
        E 15 b9 05 16
        E 15 b9 05 2b
        E 15 b9 05 11
        E 15 b9 05 44
        E 15 b9 05 3f
        E 15 b9 05 22
        E 15 b9 05 1b
        E 15 b9 05 3c
        E 15 b9 05 1c
        E 15 b9 05 35
        E 15 b9 05 0a
        E 15 b9 05 01
        E 15 b9 05 19
        E 15 b9 05 26
        E 15 b9 05 41
        E 15 b9 05 3a
        E 15 b9 05 02
        E 15 b9 05 42
        E 15 b9 05 37
        E 15 b9 05 04
        E 15 b9 05 17
        E 15 b9 05 2d
        E 15 b9 05 39
        E 15 b9 05 49
        E 15 b9 05 2e
        E 15 b9 05 1f
        E 15 b9 05 15
        E 15 b9 05 34
        E 15 b9 05 37
        E 15 b9 05 43
        E 15 b9 05 4a
        E 15 b9 05 24
        E 15 b9 05 30
        E 15 b9 05 34
        E 15 b9 05 28
        E 15 b9 05 47
        E 15 b9 05 0b
        E 15 b9 05 1b
        E 15 b9 05 32
        E 70 b9 05 0b
        E 70 b9 05 26
        E 70 b9 05 19
        E 70 b9 05 04
        E 70 b9 05 24
        E 70 b9 05 20
        E 70 b9 05 04
        E 70 b9 05 04
        E 70 b9 05 18
        E 70 b9 05 30
        E 70 b9 05 28
        E 70 b9 05 2c
        E 70 b9 05 1f
        E 70 b9 05 05
        E 70 b9 05 09
        E 70 b9 05 22
        E 70 b9 05 1c
        E 70 b9 05 0e
        E 70 b9 05 0a
        E 70 b9 05 0d
        E 70 b9 05 27
        E 70 b9 05 17
        E 70 b9 05 0c
        E 70 b9 05 1d
        E 70 b9 05 32
        E 70 b9 05 00
        E 70 b9 05 06
        E 70 b9 05 14
        E 70 b9 05 11
        E 70 b9 05 29
        E 70 b9 05 0a
        E 70 b9 05 03
        E 70 b9 05 08
        E 70 b9 05 08
        E 70 b9 05 2e
        E 70 b9 05 0c
        E 70 b9 05 00
        E 70 b9 05 25
        E 70 b9 05 11
        E 70 b9 05 0a
        E 70 b9 05 14
        E 70 b9 05 0d
        E 70 b9 05 2b
        E 70 b9 05 2a
        E 70 b9 05 32
        E 70 b9 05 2a
        E 70 b9 05 16
        E 70 b9 05 2f
        E 70 b9 05 24
        E 70 b9 05 06
        E 70 b9 05 16
        E 70 b9 05 1b
        E 70 b9 05 30
        E 70 b9 05 26
        E 70 b9 05 1b
        E 70 b9 05 1c
        E 70 b9 05 02
        E 70 b9 05 05
        E 70 b9 05 2e
        E 70 b9 05 28
        E 70 b9 05 15
        E 70 b9 05 10
        E 70 b9 05 06
        E 70 b9 05 16
        E 70 b9 05 0f
        E 70 b9 05 0c
        E 70 b9 05 13
        E 70 b9 05 1a
        E 70 b9 05 1e
        E 70 b9 05 20
        E 70 b9 05 08
        E 70 b9 05 1e
        E 70 b9 05 2d
        E 70 b9 05 1a
        E 70 b9 05 1d
        E 70 b9 05 01
        E 70 b9 05 03
        E 70 b9 05 32
        E 70 b9 05 21
        E 70 b9 05 09
        E 70 b9 05 2e
        E 70 b9 05 10
        E 70 b9 05 13
        E 70 b9 05 18
        E 70 b9 05 14
        E 70 b9 05 22
        E 70 b9 05 29
        E 70 b9 05 0e
        E 70 b9 05 1c
        E 70 b9 05 0b
        E 70 b9 05 2d
        E 70 b9 05 2a
        E 70 b9 05 17
        E 70 b9 05 12
        E 70 b9 05 28
        E 70 b9 05 12
        E 70 b9 05 23
        E 70 b9 05 07
        E 70 b9 05 00
        E 70 b9 05 10
        E 70 b9 05 19
        E 70 b9 05 2b
        E 70 b9 05 27
        E 70 b9 05 01
        E 70 b9 05 2c
        E 70 b9 05 25
        E 70 b9 05 02
        E 70 b9 05 0f
        E 70 b9 05 1e
        E 70 b9 05 26
        E 70 b9 05 30
        E 70 b9 05 1f
        E 70 b9 05 15
        E 70 b9 05 0e
        E 70 b9 05 23
        E 70 b9 05 24
        E 70 b9 05 2c
        E 70 b9 05 31
        E 70 b9 05 18
        E 70 b9 05 20
        E 70 b9 05 22
        E 70 b9 05 1a
        E 70 b9 05 2f
        E 70 b9 05 07
        E 70 b9 05 12
        E 70 b9 05 21
        E 39 b9 05 13
        E 39 b9 05 43
        E 39 b9 05 2c
        E 39 b9 05 07
        E 39 b9 05 3e
        E 39 b9 05 38
        E 39 b9 05 08
        E 39 b9 05 07
        E 39 b9 05 2a
        E 39 b9 05 54
        E 39 b9 05 46
        E 39 b9 05 4d
        E 39 b9 05 37
        E 39 b9 05 09
        E 39 b9 05 10
        E 39 b9 05 3c
        E 39 b9 05 31
        E 39 b9 05 19
        E 39 b9 05 11
        E 39 b9 05 17
        E 39 b9 05 45
        E 39 b9 05 29
        E 39 b9 05 15
        E 39 b9 05 33
        E 39 b9 05 58
        E 39 b9 05 00
        E 39 b9 05 0b
        E 39 b9 05 24
        E 39 b9 05 1e
        E 39 b9 05 48
        E 39 b9 05 12
        E 39 b9 05 05
        E 39 b9 05 0e
        E 39 b9 05 0f
        E 39 b9 05 50
        E 39 b9 05 16
        E 39 b9 05 00
        E 39 b9 05 41
        E 39 b9 05 1e
        E 39 b9 05 12
        E 39 b9 05 23
        E 39 b9 05 17
        E 39 b9 05 4b
        E 39 b9 05 4a
        E 39 b9 05 58
        E 39 b9 05 4a
        E 39 b9 05 26
        E 39 b9 05 52
        E 39 b9 05 3f
        E 39 b9 05 0a
        E 39 b9 05 27
        E 39 b9 05 2f
        E 39 b9 05 54
        E 39 b9 05 43
        E 39 b9 05 30
        E 39 b9 05 31
        E 39 b9 05 04
        E 39 b9 05 09
        E 39 b9 05 51
        E 39 b9 05 47
        E 39 b9 05 25
        E 39 b9 05 1c
        E 39 b9 05 0b
        E 39 b9 05 27
        E 39 b9 05 1a
        E 39 b9 05 15
        E 39 b9 05 21
        E 39 b9 05 2e
        E 39 b9 05 35
        E 39 b9 05 39
        E 39 b9 05 0e
        E 39 b9 05 35
        E 39 b9 05 4f
        E 39 b9 05 2d
        E 39 b9 05 33
        E 39 b9 05 02
        E 39 b9 05 06
        E 39 b9 05 57
        E 39 b9 05 3a
        E 39 b9 05 10
        E 39 b9 05 51
        E 39 b9 05 1c
        E 39 b9 05 22
        E 39 b9 05 2b
        E 39 b9 05 23
        E 39 b9 05 3b
        E 39 b9 05 48
        E 39 b9 05 19
        E 39 b9 05 32
        E 39 b9 05 14
        E 39 b9 05 4f
        E 39 b9 05 49
        E 39 b9 05 28
        E 39 b9 05 20
        E 39 b9 05 46
        E 39 b9 05 20
        E 39 b9 05 3e
        E 39 b9 05 0c
        E 39 b9 05 01
        E 39 b9 05 1d
        E 39 b9 05 2c
        E 39 b9 05 4c
        E 39 b9 05 44
        E 39 b9 05 02
        E 39 b9 05 4d
        E 39 b9 05 41
        E 39 b9 05 04
        E 39 b9 05 1b
        E 39 b9 05 34
        E 39 b9 05 42
        E 39 b9 05 55
        E 39 b9 05 36
        E 39 b9 05 25
        E 39 b9 05 18
        E 39 b9 05 3d
        E 39 b9 05 40
        E 39 b9 05 4e
        E 39 b9 05 56
        E 39 b9 05 2a
        E 39 b9 05 38
        E 39 b9 05 3c
        E 39 b9 05 2e
        E 39 b9 05 53
        E 39 b9 05 0d
        E 39 b9 05 1f
        E 39 b9 05 3a
        E 7 b9 05 0b
        E 7 b9 05 26
        E 7 b9 05 19
        E 7 b9 05 04
        E 7 b9 05 24
        E 7 b9 05 20
        E 7 b9 05 04
        E 7 b9 05 04
        E 7 b9 05 18
        E 7 b9 05 30
        E 7 b9 05 28
        E 7 b9 05 2c
        E 7 b9 05 1f
        E 7 b9 05 05
        E 7 b9 05 09
        E 7 b9 05 22
        E 7 b9 05 1c
        E 7 b9 05 0e
        E 7 b9 05 0a
        E 7 b9 05 0d
        E 7 b9 05 27
        E 7 b9 05 17
        E 7 b9 05 0c
        E 7 b9 05 1d
        E 7 b9 05 32
        E 7 b9 05 00
        E 7 b9 05 06
        E 7 b9 05 14
        E 7 b9 05 11
        E 7 b9 05 29
        E 7 b9 05 0a
        E 7 b9 05 03
        E 7 b9 05 08
        E 7 b9 05 08
        E 7 b9 05 2e
        E 7 b9 05 0c
        E 7 b9 05 00
        E 7 b9 05 25
        E 7 b9 05 11
        E 7 b9 05 0a
        E 7 b9 05 14
        E 7 b9 05 0d
        E 7 b9 05 2b
        E 7 b9 05 2a
        E 7 b9 05 32
        E 7 b9 05 2a
        E 7 b9 05 16
        E 7 b9 05 2f
        E 7 b9 05 24
        E 7 b9 05 06
        E 7 b9 05 16
        E 7 b9 05 1b
        E 7 b9 05 30
        E 7 b9 05 26
        E 7 b9 05 1b
        E 7 b9 05 1c
        E 7 b9 05 02
        E 7 b9 05 05
        E 7 b9 05 2e
        E 7 b9 05 28
        E 7 b9 05 15
        E 7 b9 05 10
        E 7 b9 05 06
        E 7 b9 05 16
        E 7 b9 05 0f
        E 7 b9 05 0c
        E 7 b9 05 13
        E 7 b9 05 1a
        E 7 b9 05 1e
        E 7 b9 05 20
        E 7 b9 05 08
        E 7 b9 05 1e
        E 7 b9 05 2d
        E 7 b9 05 1a
        E 7 b9 05 1d
        E 7 b9 05 01
        E 7 b9 05 03
        E 7 b9 05 32
        E 7 b9 05 21
        E 7 b9 05 09
        E 7 b9 05 2e
        E 7 b9 05 10
        E 7 b9 05 13
        E 7 b9 05 18
        E 7 b9 05 14
        E 7 b9 05 22
        E 7 b9 05 29
        E 7 b9 05 0e
        E 7 b9 05 1c
        E 7 b9 05 0b
        E 7 b9 05 2d
        E 7 b9 05 2a
        E 7 b9 05 17
        E 7 b9 05 12
        E 7 b9 05 28
        E 7 b9 05 12
        E 7 b9 05 23
        E 7 b9 05 07
        E 7 b9 05 00
        E 7 b9 05 10
        E 7 b9 05 19
        E 7 b9 05 2b
        E 7 b9 05 27
        E 7 b9 05 01
        E 7 b9 05 2c
        E 7 b9 05 25
        E 7 b9 05 02
        E 7 b9 05 0f
        E 7 b9 05 1e
        E 7 b9 05 26
        E 7 b9 05 30
        E 7 b9 05 1f
        E 7 b9 05 15
        E 7 b9 05 0e
        E 7 b9 05 23
        E 7 b9 05 24
        E 7 b9 05 2c
        E 7 b9 05 31
        E 7 b9 05 18
        E 7 b9 05 20
        E 7 b9 05 22
        E 7 b9 05 1a
        E 7 b9 05 2f
        E 7 b9 05 07
        E 7 b9 05 12
        E 7 b9 05 21
        E 23 b9 05 16
        E 23 b9 05 4c
        E 23 b9 05 32
        E 23 b9 05 07
        E 23 b9 05 48
        E 23 b9 05 3f
        E 23 b9 05 09
        E 23 b9 05 08
        E 23 b9 05 30
        E 23 b9 05 5f
        E 23 b9 05 50
        E 23 b9 05 58
        E 23 b9 05 3f
        E 23 b9 05 0b
        E 23 b9 05 13
        E 23 b9 05 44
        E 23 b9 05 37
        E 23 b9 05 1c
        E 23 b9 05 14
        E 23 b9 05 1b
        E 23 b9 05 4f
        E 23 b9 05 2f
        E 23 b9 05 17
        E 23 b9 05 3a
        E 23 b9 05 64
        E 23 b9 05 00
        E 23 b9 05 0c
        E 23 b9 05 29
        E 23 b9 05 22
        E 23 b9 05 53
        E 23 b9 05 15
        E 23 b9 05 06
        E 23 b9 05 0f
        E 23 b9 05 11
        E 23 b9 05 5b
        E 23 b9 05 19
        E 23 b9 05 00
        E 23 b9 05 4b
        E 23 b9 05 23
        E 23 b9 05 14
        E 23 b9 05 28
        E 23 b9 05 1a
        E 23 b9 05 56
        E 23 b9 05 55
        E 23 b9 05 65
        E 23 b9 05 54
        E 23 b9 05 2b
        E 23 b9 05 5e
        E 23 b9 05 48
        E 23 b9 05 0b
        E 23 b9 05 2c
        E 23 b9 05 36
        E 23 b9 05 60
        E 23 b9 05 4d
        E 23 b9 05 37
        E 23 b9 05 38
        E 23 b9 05 04
        E 23 b9 05 0a
        E 23 b9 05 5d
        E 23 b9 05 51
        E 23 b9 05 2b
        E 23 b9 05 1f
        E 23 b9 05 0d
        E 23 b9 05 2d
        E 23 b9 05 1e
        E 23 b9 05 18
        E 23 b9 05 26
        E 23 b9 05 34
        E 23 b9 05 3d
        E 23 b9 05 41
        E 23 b9 05 10
        E 23 b9 05 3c
        E 23 b9 05 5a
        E 23 b9 05 33
        E 23 b9 05 3b
        E 23 b9 05 02
        E 23 b9 05 07
        E 23 b9 05 63
        E 23 b9 05 42
        E 23 b9 05 12
        E 23 b9 05 5c
        E 23 b9 05 20
        E 23 b9 05 27
        E 23 b9 05 31
        E 23 b9 05 28
        E 23 b9 05 44
        E 23 b9 05 52
        E 23 b9 05 1d
        E 23 b9 05 39
        E 23 b9 05 17
        E 23 b9 05 5b
        E 23 b9 05 54
        E 23 b9 05 2e
        E 23 b9 05 24
        E 23 b9 05 50
        E 23 b9 05 25
        E 23 b9 05 47
        E 23 b9 05 0e
        E 23 b9 05 01
        E 23 b9 05 21
        E 23 b9 05 33
        E 23 b9 05 57
        E 23 b9 05 4e
        E 23 b9 05 03
        E 23 b9 05 57
        E 23 b9 05 4a
        E 23 b9 05 05
        E 23 b9 05 1f
        E 23 b9 05 3b
        E 23 b9 05 4c
        E 23 b9 05 61
        E 23 b9 05 3e
        E 23 b9 05 2a
        E 23 b9 05 1b
        E 23 b9 05 46
        E 23 b9 05 49
        E 23 b9 05 59
        E 23 b9 05 63
        E 23 b9 05 2f
        E 23 b9 05 40
        E 23 b9 05 45
        E 23 b9 05 35
        E 23 b9 05 5f
        E 23 b9 05 0f
        E 23 b9 05 24
        E 23 b9 05 43
        E 70 b9 05 16
        E 70 b9 05 4c
        E 70 b9 05 32
        E 70 b9 05 07
        E 70 b9 05 48
        E 70 b9 05 3f
        E 70 b9 05 09
        E 70 b9 05 08
        E 70 b9 05 30
        E 70 b9 05 5f
        E 70 b9 05 50
        E 70 b9 05 58
        E 70 b9 05 3f
        E 70 b9 05 0b
        E 70 b9 05 13
        E 70 b9 05 44
        E 70 b9 05 37
        E 70 b9 05 1c
        E 70 b9 05 14
        E 70 b9 05 1b
        E 70 b9 05 4f
        E 70 b9 05 2f
        E 70 b9 05 17
        E 70 b9 05 3a
        E 70 b9 05 64
        E 70 b9 05 00
        E 70 b9 05 0c
        E 70 b9 05 29
        E 70 b9 05 22
        E 70 b9 05 53
        E 70 b9 05 15
        E 70 b9 05 06
        E 70 b9 05 0f
        E 70 b9 05 11
        E 70 b9 05 5b
        E 70 b9 05 19
        E 70 b9 05 00
        E 70 b9 05 4b
        E 70 b9 05 23
        E 70 b9 05 14
        E 70 b9 05 28
        E 70 b9 05 1a
        E 70 b9 05 56
        E 70 b9 05 55
        E 70 b9 05 65
        E 70 b9 05 54
        E 70 b9 05 2b
        E 70 b9 05 5e
        E 70 b9 05 48
        E 70 b9 05 0b
        E 70 b9 05 2c
        E 70 b9 05 36
        E 70 b9 05 60
        E 70 b9 05 4d
        E 70 b9 05 37
        E 70 b9 05 38
        E 70 b9 05 04
        E 70 b9 05 0a
        E 70 b9 05 5d
        E 70 b9 05 51
        E 70 b9 05 2b
        E 70 b9 05 1f
        E 70 b9 05 0d
        E 70 b9 05 2d
        E 70 b9 05 1e
        E 70 b9 05 18
        E 70 b9 05 26
        E 70 b9 05 34
        E 70 b9 05 3d
        E 70 b9 05 41
        E 70 b9 05 10
        E 70 b9 05 3c
        E 70 b9 05 5a
        E 70 b9 05 33
        E 70 b9 05 3b
        E 70 b9 05 02
        E 70 b9 05 07
        E 70 b9 05 63
        E 70 b9 05 42
        E 70 b9 05 12
        E 70 b9 05 5c
        E 70 b9 05 20
        E 70 b9 05 27
        E 70 b9 05 31
        E 70 b9 05 28
        E 70 b9 05 44
        E 70 b9 05 52
        E 70 b9 05 1d
        E 70 b9 05 39
        E 70 b9 05 17
        E 70 b9 05 5b
        E 70 b9 05 54
        E 70 b9 05 2e
        E 70 b9 05 24
        E 70 b9 05 50
        E 70 b9 05 25
        E 70 b9 05 47
        E 70 b9 05 0e
        E 70 b9 05 01
        E 70 b9 05 21
        E 70 b9 05 33
        E 70 b9 05 57
        E 70 b9 05 4e
        E 70 b9 05 03
        E 70 b9 05 57
        E 70 b9 05 4a
        E 70 b9 05 05
        E 70 b9 05 1f
        E 70 b9 05 3b
        E 70 b9 05 4c
        E 70 b9 05 61
        E 70 b9 05 3e
        E 70 b9 05 2a
        E 70 b9 05 1b
        E 70 b9 05 46
        E 70 b9 05 49
        E 70 b9 05 59
        E 70 b9 05 63
        E 70 b9 05 2f
        E 70 b9 05 40
        E 70 b9 05 45
        E 70 b9 05 35
        E 70 b9 05 5f
        E 70 b9 05 0f
        E 70 b9 05 24
        E 70 b9 05 43
        E 15 b9 05 10
        E 15 b9 05 39
        E 15 b9 05 25
        E 15 b9 05 06
        E 15 b9 05 36
        E 15 b9 05 30
        E 15 b9 05 07
        E 15 b9 05 06
        E 15 b9 05 24
        E 15 b9 05 48
        E 15 b9 05 3c
        E 15 b9 05 42
        E 15 b9 05 2f
        E 15 b9 05 08
        E 15 b9 05 0e
        E 15 b9 05 33
        E 15 b9 05 2a
        E 15 b9 05 15
        E 15 b9 05 0f
        E 15 b9 05 14
        E 15 b9 05 3b
        E 15 b9 05 23
        E 15 b9 05 12
        E 15 b9 05 2b
        E 15 b9 05 4b
        E 15 b9 05 00
        E 15 b9 05 09
        E 15 b9 05 1f
        E 15 b9 05 19
        E 15 b9 05 3e
        E 15 b9 05 10
        E 15 b9 05 04
        E 15 b9 05 0c
        E 15 b9 05 0d
        E 15 b9 05 45
        E 15 b9 05 13
        E 15 b9 05 00
        E 15 b9 05 38
        E 15 b9 05 1a
        E 15 b9 05 0f
        E 15 b9 05 1e
        E 15 b9 05 13
        E 15 b9 05 40
        E 15 b9 05 40
        E 15 b9 05 4c
        E 15 b9 05 3f
        E 15 b9 05 21
        E 15 b9 05 46
        E 15 b9 05 36
        E 15 b9 05 09
        E 15 b9 05 21
        E 15 b9 05 28
        E 15 b9 05 48
        E 15 b9 05 3a
        E 15 b9 05 29
        E 15 b9 05 2a
        E 15 b9 05 03
        E 15 b9 05 07
        E 15 b9 05 46
        E 15 b9 05 3d
        E 15 b9 05 20
        E 15 b9 05 18
        E 15 b9 05 0a
        E 15 b9 05 22
        E 15 b9 05 16
        E 15 b9 05 12
        E 15 b9 05 1c
        E 15 b9 05 27
        E 15 b9 05 2e
        E 15 b9 05 31
        E 15 b9 05 0c
        E 15 b9 05 2d
        E 15 b9 05 43
        E 15 b9 05 27
        E 15 b9 05 2c
        E 15 b9 05 01
        E 15 b9 05 05
        E 15 b9 05 4b
        E 15 b9 05 31
        E 15 b9 05 0d
        E 15 b9 05 45
        E 15 b9 05 18
        E 15 b9 05 1d
        E 15 b9 05 25
        E 15 b9 05 1e
        E 15 b9 05 33
        E 15 b9 05 3d
        E 15 b9 05 16
        E 15 b9 05 2b
        E 15 b9 05 11
        E 15 b9 05 44
        E 15 b9 05 3f
        E 15 b9 05 22
        E 15 b9 05 1b
        E 15 b9 05 3c
        E 15 b9 05 1c
        E 15 b9 05 35
        E 15 b9 05 0a
        E 15 b9 05 01
        E 15 b9 05 19
        E 15 b9 05 26
        E 15 b9 05 41
        E 15 b9 05 3a
        E 15 b9 05 02
        E 15 b9 05 42
        E 15 b9 05 37
        E 15 b9 05 04
        E 15 b9 05 17
        E 15 b9 05 2d
        E 15 b9 05 39
        E 15 b9 05 49
        E 15 b9 05 2e
        E 15 b9 05 1f
        E 15 b9 05 15
        E 15 b9 05 34
        E 15 b9 05 37
        E 15 b9 05 43
        E 15 b9 05 4a
        E 15 b9 05 24
        E 15 b9 05 30
        E 15 b9 05 34
        E 15 b9 05 28
        E 15 b9 05 47
        E 15 b9 05 0b
        E 15 b9 05 1b
        E 15 b9 05 32
        E 70 b9 05 0b
        E 70 b9 05 26
        E 70 b9 05 19
        E 70 b9 05 04
        E 70 b9 05 24
        E 70 b9 05 20
        E 70 b9 05 04
        E 70 b9 05 04
        E 70 b9 05 18
        E 70 b9 05 30
        E 70 b9 05 28
        E 70 b9 05 2c
        E 70 b9 05 1f
        E 70 b9 05 05
        E 70 b9 05 09
        E 70 b9 05 22
        E 70 b9 05 1c
        E 70 b9 05 0e
        E 70 b9 05 0a
        E 70 b9 05 0d
        E 70 b9 05 27
        E 70 b9 05 17
        E 70 b9 05 0c
        E 70 b9 05 1d
        E 70 b9 05 32
        E 70 b9 05 00
        E 70 b9 05 06
        E 70 b9 05 14
        E 70 b9 05 11
        E 70 b9 05 29
        E 70 b9 05 0a
        E 70 b9 05 03
        E 70 b9 05 08
        E 70 b9 05 08
        E 70 b9 05 2e
        E 70 b9 05 0c
        E 70 b9 05 00
        E 70 b9 05 25
        E 70 b9 05 11
        E 70 b9 05 0a
        E 70 b9 05 14
        E 70 b9 05 0d
        E 70 b9 05 2b
        E 70 b9 05 2a
        E 70 b9 05 32
        E 70 b9 05 2a
        E 70 b9 05 16
        E 70 b9 05 2f
        E 70 b9 05 24
        E 70 b9 05 06
        E 70 b9 05 16
        E 70 b9 05 1b
        E 70 b9 05 30
        E 70 b9 05 26
        E 70 b9 05 1b
        E 70 b9 05 1c
        E 70 b9 05 02
        E 70 b9 05 05
        E 70 b9 05 2e
        E 70 b9 05 28
        E 70 b9 05 15
        E 70 b9 05 10
        E 70 b9 05 06
        E 70 b9 05 16
        E 70 b9 05 0f
        E 70 b9 05 0c
        E 70 b9 05 13
        E 70 b9 05 1a
        E 70 b9 05 1e
        E 70 b9 05 20
        E 70 b9 05 08
        E 70 b9 05 1e
        E 70 b9 05 2d
        E 70 b9 05 1a
        E 70 b9 05 1d
        E 70 b9 05 01
        E 70 b9 05 03
        E 70 b9 05 32
        E 70 b9 05 21
        E 70 b9 05 09
        E 70 b9 05 2e
        E 70 b9 05 10
        E 70 b9 05 13
        E 70 b9 05 18
        E 70 b9 05 14
        E 70 b9 05 22
        E 70 b9 05 29
        E 70 b9 05 0e
        E 70 b9 05 1c
        E 70 b9 05 0b
        E 70 b9 05 2d
        E 70 b9 05 2a
        E 70 b9 05 17
        E 70 b9 05 12
        E 70 b9 05 28
        E 70 b9 05 12
        E 70 b9 05 23
        E 70 b9 05 07
        E 70 b9 05 00
        E 70 b9 05 10
        E 70 b9 05 19
        E 70 b9 05 2b
        E 70 b9 05 27
        E 70 b9 05 01
        E 70 b9 05 2c
        E 70 b9 05 25
        E 70 b9 05 02
        E 70 b9 05 0f
        E 70 b9 05 1e
        E 70 b9 05 26
        E 70 b9 05 30
        E 70 b9 05 1f
        E 70 b9 05 15
        E 70 b9 05 0e
        E 70 b9 05 23
        E 70 b9 05 24
        E 70 b9 05 2c
        E 70 b9 05 31
        E 70 b9 05 18
        E 70 b9 05 20
        E 70 b9 05 22
        E 70 b9 05 1a
        E 70 b9 05 2f
        E 70 b9 05 07
        E 70 b9 05 12
        E 70 b9 05 21
        E 39 b9 05 13
        E 39 b9 05 43
        E 39 b9 05 2c
        E 39 b9 05 07
        E 39 b9 05 3e
        E 39 b9 05 38
        E 39 b9 05 08
        E 39 b9 05 07
        E 39 b9 05 2a
        E 39 b9 05 54
        E 39 b9 05 46
        E 39 b9 05 4d
        E 39 b9 05 37
        E 39 b9 05 09
        E 39 b9 05 10
        E 39 b9 05 3c
        E 39 b9 05 31
        E 39 b9 05 19
        E 39 b9 05 11
        E 39 b9 05 17
        E 39 b9 05 45
        E 39 b9 05 29
        E 39 b9 05 15
        E 39 b9 05 33
        E 39 b9 05 58
        E 39 b9 05 00
        E 39 b9 05 0b
        E 39 b9 05 24
        E 39 b9 05 1e
        E 39 b9 05 48
        E 39 b9 05 12
        E 39 b9 05 05
        E 39 b9 05 0e
        E 39 b9 05 0f
        E 39 b9 05 50
        E 39 b9 05 16
        E 39 b9 05 00
        E 39 b9 05 41
        E 39 b9 05 1e
        E 39 b9 05 12
        E 39 b9 05 23
        E 39 b9 05 17
        E 39 b9 05 4b
        E 39 b9 05 4a
        E 39 b9 05 58
        E 39 b9 05 4a
        E 39 b9 05 26
        E 39 b9 05 52
        E 39 b9 05 3f
        E 39 b9 05 0a
        E 39 b9 05 27
        E 39 b9 05 2f
        E 39 b9 05 54
        E 39 b9 05 43
        E 39 b9 05 30
        E 39 b9 05 31
        E 39 b9 05 04
        E 39 b9 05 09
        E 39 b9 05 51
        E 39 b9 05 47
        E 39 b9 05 25
        E 39 b9 05 1c
        E 39 b9 05 0b
        E 39 b9 05 27
        E 39 b9 05 1a
        E 39 b9 05 15
        E 39 b9 05 21
        E 39 b9 05 2e
        E 39 b9 05 35
        E 39 b9 05 39
        E 39 b9 05 0e
        E 39 b9 05 35
        E 39 b9 05 4f
        E 39 b9 05 2d
        E 39 b9 05 33
        E 39 b9 05 02
        E 39 b9 05 06
        E 39 b9 05 57
        E 39 b9 05 3a
        E 39 b9 05 10
        E 39 b9 05 51
        E 39 b9 05 1c
        E 39 b9 05 22
        E 39 b9 05 2b
        E 39 b9 05 23
        E 39 b9 05 3b
        E 39 b9 05 48
        E 39 b9 05 19
        E 39 b9 05 32
        E 39 b9 05 14
        E 39 b9 05 4f
        E 39 b9 05 49
        E 39 b9 05 28
        E 39 b9 05 20
        E 39 b9 05 46
        E 39 b9 05 20
        E 39 b9 05 3e
        E 39 b9 05 0c
        E 39 b9 05 01
        E 39 b9 05 1d
        E 39 b9 05 2c
        E 39 b9 05 4c
        E 39 b9 05 44
        E 39 b9 05 02
        E 39 b9 05 4d
        E 39 b9 05 41
        E 39 b9 05 04
        E 39 b9 05 1b
        E 39 b9 05 34
        E 39 b9 05 42
        E 39 b9 05 55
        E 39 b9 05 36
        E 39 b9 05 25
        E 39 b9 05 18
        E 39 b9 05 3d
        E 39 b9 05 40
        E 39 b9 05 4e
        E 39 b9 05 56
        E 39 b9 05 2a
        E 39 b9 05 38
        E 39 b9 05 3c
        E 39 b9 05 2e
        E 39 b9 05 53
        E 39 b9 05 0d
        E 39 b9 05 1f
        E 39 b9 05 3a
        E 13 b9 05 16
        E 13 b9 05 4c
        E 13 b9 05 32
        E 13 b9 05 07
        E 13 b9 05 48
        E 13 b9 05 3f
        E 13 b9 05 09
        E 13 b9 05 08
        E 13 b9 05 30
        E 13 b9 05 5f
        E 13 b9 05 50
        E 13 b9 05 58
        E 13 b9 05 3f
        E 13 b9 05 0b
        E 13 b9 05 13
        E 13 b9 05 44
        E 13 b9 05 37
        E 13 b9 05 1c
        E 13 b9 05 14
        E 13 b9 05 1b
        E 13 b9 05 4f
        E 13 b9 05 2f
        E 13 b9 05 17
        E 13 b9 05 3a
        E 13 b9 05 64
        E 13 b9 05 00
        E 13 b9 05 0c
        E 13 b9 05 29
        E 13 b9 05 22
        E 13 b9 05 53
        E 13 b9 05 15
        E 13 b9 05 06
        E 13 b9 05 0f
        E 13 b9 05 11
        E 13 b9 05 5b
        E 13 b9 05 19
        E 13 b9 05 00
        E 13 b9 05 4b
        E 13 b9 05 23
        E 13 b9 05 14
        E 13 b9 05 28
        E 13 b9 05 1a
        E 13 b9 05 56
        E 13 b9 05 55
        E 13 b9 05 65
        E 13 b9 05 54
        E 13 b9 05 2b
        E 13 b9 05 5e
        E 13 b9 05 48
        E 13 b9 05 0b
        E 13 b9 05 2c
        E 13 b9 05 36
        E 13 b9 05 60
        E 13 b9 05 4d
        E 13 b9 05 37
        E 13 b9 05 38
        E 13 b9 05 04
        E 13 b9 05 0a
        E 13 b9 05 5d
        E 13 b9 05 51
        E 13 b9 05 2b
        E 13 b9 05 1f
        E 13 b9 05 0d
        E 13 b9 05 2d
        E 13 b9 05 1e
        E 13 b9 05 18
        E 13 b9 05 26
        E 13 b9 05 34
        E 13 b9 05 3d
        E 13 b9 05 41
        E 13 b9 05 10
        E 13 b9 05 3c
        E 13 b9 05 5a
        E 13 b9 05 33
        E 13 b9 05 3b
        E 13 b9 05 02
        E 13 b9 05 07
        E 13 b9 05 63
        E 13 b9 05 42
        E 13 b9 05 12
        E 13 b9 05 5c
        E 13 b9 05 20
        E 13 b9 05 27
        E 13 b9 05 31
        E 13 b9 05 28
        E 13 b9 05 44
        E 13 b9 05 52
        E 13 b9 05 1d
        E 13 b9 05 39
        E 13 b9 05 17
        E 13 b9 05 5b
        E 13 b9 05 54
        E 13 b9 05 2e
        E 13 b9 05 24
        E 13 b9 05 50
        E 13 b9 05 25
        E 13 b9 05 47
        E 13 b9 05 0e
        E 13 b9 05 01
        E 13 b9 05 21
        E 13 b9 05 33
        E 13 b9 05 57
        E 13 b9 05 4e
        E 13 b9 05 03
        E 13 b9 05 57
        E 13 b9 05 4a
        E 13 b9 05 05
        E 13 b9 05 1f
        E 13 b9 05 3b
        E 13 b9 05 4c
        E 13 b9 05 61
        E 13 b9 05 3e
        E 13 b9 05 2a
        E 13 b9 05 1b
        E 13 b9 05 46
        E 13 b9 05 49
        E 13 b9 05 59
        E 13 b9 05 63
        E 13 b9 05 2f
        E 13 b9 05 40
        E 13 b9 05 45
        E 13 b9 05 35
        E 13 b9 05 5f
        E 13 b9 05 0f
        E 13 b9 05 24
        E 13 b9 05 43
        E 3 b9 05 10
        E 3 b9 05 39
        E 3 b9 05 25
        E 3 b9 05 06
        E 3 b9 05 36
        E 3 b9 05 30
        E 3 b9 05 07
        E 3 b9 05 06
        E 3 b9 05 24
        E 3 b9 05 48
        E 3 b9 05 3c
        E 3 b9 05 42
        E 3 b9 05 2f
        E 3 b9 05 08
        E 3 b9 05 0e
        E 3 b9 05 33
        E 3 b9 05 2a
        E 3 b9 05 15
        E 3 b9 05 0f
        E 3 b9 05 14
        E 3 b9 05 3b
        E 3 b9 05 23
        E 3 b9 05 12
        E 3 b9 05 2b
        E 3 b9 05 4b
        E 3 b9 05 00
        E 3 b9 05 09
        E 3 b9 05 1f
        E 3 b9 05 19
        E 3 b9 05 3e
        E 3 b9 05 10
        E 3 b9 05 04
        E 3 b9 05 0c
        E 3 b9 05 0d
        E 3 b9 05 45
        E 3 b9 05 13
        E 3 b9 05 00
        E 3 b9 05 38
        E 3 b9 05 1a
        E 3 b9 05 0f
        E 3 b9 05 1e
        E 3 b9 05 13
        E 3 b9 05 40
        E 3 b9 05 40
        E 3 b9 05 4c
        E 3 b9 05 3f
        E 3 b9 05 21
        E 3 b9 05 46
        E 3 b9 05 36
        E 3 b9 05 09
        E 3 b9 05 21
        E 3 b9 05 28
        E 3 b9 05 48
        E 3 b9 05 3a
        E 3 b9 05 29
        E 3 b9 05 2a
        E 3 b9 05 03
        E 3 b9 05 07
        E 3 b9 05 46
        E 3 b9 05 3d
        E 3 b9 05 20
        E 3 b9 05 18
        E 3 b9 05 0a
        E 3 b9 05 22
        E 3 b9 05 16
        E 3 b9 05 12
        E 3 b9 05 1c
        E 3 b9 05 27
        E 3 b9 05 2e
        E 3 b9 05 31
        E 3 b9 05 0c
        E 3 b9 05 2d
        E 3 b9 05 43
        E 3 b9 05 27
        E 3 b9 05 2c
        E 3 b9 05 01
        E 3 b9 05 05
        E 3 b9 05 4b
        E 3 b9 05 31
        E 3 b9 05 0d
        E 3 b9 05 45
        E 3 b9 05 18
        E 3 b9 05 1d
        E 3 b9 05 25
        E 3 b9 05 1e
        E 3 b9 05 33
        E 3 b9 05 3d
        E 3 b9 05 16
        E 3 b9 05 2b
        E 3 b9 05 11
        E 3 b9 05 44
        E 3 b9 05 3f
        E 3 b9 05 22
        E 3 b9 05 1b
        E 3 b9 05 3c
        E 3 b9 05 1c
        E 3 b9 05 35
        E 3 b9 05 0a
        E 3 b9 05 01
        E 3 b9 05 19
        E 3 b9 05 26
        E 3 b9 05 41
        E 3 b9 05 3a
        E 3 b9 05 02
        E 3 b9 05 42
        E 3 b9 05 37
        E 3 b9 05 04
        E 3 b9 05 17
        E 3 b9 05 2d
        E 3 b9 05 39
        E 3 b9 05 49
        E 3 b9 05 2e
        E 3 b9 05 1f
        E 3 b9 05 15
        E 3 b9 05 34
        E 3 b9 05 37
        E 3 b9 05 43
        E 3 b9 05 4a
        E 3 b9 05 24
        E 3 b9 05 30
        E 3 b9 05 34
        E 3 b9 05 28
        E 3 b9 05 47
        E 3 b9 05 0b
        E 3 b9 05 1b
        E 3 b9 05 32
        E 13 b9 05 0b
        E 13 b9 05 26
        E 13 b9 05 19
        E 13 b9 05 04
        E 13 b9 05 24
        E 13 b9 05 20
        E 13 b9 05 04
        E 13 b9 05 04
        E 13 b9 05 18
        E 13 b9 05 30
        E 13 b9 05 28
        E 13 b9 05 2c
        E 13 b9 05 1f
        E 13 b9 05 05
        E 13 b9 05 09
        E 13 b9 05 22
        E 13 b9 05 1c
        E 13 b9 05 0e
        E 13 b9 05 0a
        E 13 b9 05 0d
        E 13 b9 05 27
        E 13 b9 05 17
        E 13 b9 05 0c
        E 13 b9 05 1d
        E 13 b9 05 32
        E 13 b9 05 00
        E 13 b9 05 06
        E 13 b9 05 14
        E 13 b9 05 11
        E 13 b9 05 29
        E 13 b9 05 0a
        E 13 b9 05 03
        E 13 b9 05 08
        E 13 b9 05 08
        E 13 b9 05 2e
        E 13 b9 05 0c
        E 13 b9 05 00
        E 13 b9 05 25
        E 13 b9 05 11
        E 13 b9 05 0a
        E 13 b9 05 14
        E 13 b9 05 0d
        E 13 b9 05 2b
        E 13 b9 05 2a
        E 13 b9 05 32
        E 13 b9 05 2a
        E 13 b9 05 16
        E 13 b9 05 2f
        E 13 b9 05 24
        E 13 b9 05 06
        E 13 b9 05 16
        E 13 b9 05 1b
        E 13 b9 05 30
        E 13 b9 05 26
        E 13 b9 05 1b
        E 13 b9 05 1c
        E 13 b9 05 02
        E 13 b9 05 05
        E 13 b9 05 2e
        E 13 b9 05 28
        E 13 b9 05 15
        E 13 b9 05 10
        E 13 b9 05 06
        E 13 b9 05 16
        E 13 b9 05 0f
        E 13 b9 05 0c
        E 13 b9 05 13
        E 13 b9 05 1a
        E 13 b9 05 1e
        E 13 b9 05 20
        E 13 b9 05 08
        E 13 b9 05 1e
        E 13 b9 05 2d
        E 13 b9 05 1a
        E 13 b9 05 1d
        E 13 b9 05 01
        E 13 b9 05 03
        E 13 b9 05 32
        E 13 b9 05 21
        E 13 b9 05 09
        E 13 b9 05 2e
        E 13 b9 05 10
        E 13 b9 05 13
        E 13 b9 05 18
        E 13 b9 05 14
        E 13 b9 05 22
        E 13 b9 05 29
        E 13 b9 05 0e
        E 13 b9 05 1c
        E 13 b9 05 0b
        E 13 b9 05 2d
        E 13 b9 05 2a
        E 13 b9 05 17
        E 13 b9 05 12
        E 13 b9 05 28
        E 13 b9 05 12
        E 13 b9 05 23
        E 13 b9 05 07
        E 13 b9 05 00
        E 13 b9 05 10
        E 13 b9 05 19
        E 13 b9 05 2b
        E 13 b9 05 27
        E 13 b9 05 01
        E 13 b9 05 2c
        E 13 b9 05 25
        E 13 b9 05 02
        E 13 b9 05 0f
        E 13 b9 05 1e
        E 13 b9 05 26
        E 13 b9 05 30
        E 13 b9 05 1f
        E 13 b9 05 15
        E 13 b9 05 0e
        E 13 b9 05 23
        E 13 b9 05 24
        E 13 b9 05 2c
        E 13 b9 05 31
        E 13 b9 05 18
        E 13 b9 05 20
        E 13 b9 05 22
        E 13 b9 05 1a
        E 13 b9 05 2f
        E 13 b9 05 07
        E 13 b9 05 12
        E 13 b9 05 21
        E 7 b9 05 13
        E 7 b9 05 43
        E 7 b9 05 2c
        E 7 b9 05 07
        E 7 b9 05 3e
        E 7 b9 05 38
        E 7 b9 05 08
        E 7 b9 05 07
        E 7 b9 05 2a
        E 7 b9 05 54
        E 7 b9 05 46
        E 7 b9 05 4d
        E 7 b9 05 37
        E 7 b9 05 09
        E 7 b9 05 10
        E 7 b9 05 3c
        E 7 b9 05 31
        E 7 b9 05 19
        E 7 b9 05 11
        E 7 b9 05 17
        E 7 b9 05 45
        E 7 b9 05 29
        E 7 b9 05 15
        E 7 b9 05 33
        E 7 b9 05 58
        E 7 b9 05 00
        E 7 b9 05 0b
        E 7 b9 05 24
        E 7 b9 05 1e
        E 7 b9 05 48
        E 7 b9 05 12
        E 7 b9 05 05
        E 7 b9 05 0e
        E 7 b9 05 0f
        E 7 b9 05 50
        E 7 b9 05 16
        E 7 b9 05 00
        E 7 b9 05 41
        E 7 b9 05 1e
        E 7 b9 05 12
        E 7 b9 05 23
        E 7 b9 05 17
        E 7 b9 05 4b
        E 7 b9 05 4a
        E 7 b9 05 58
        E 7 b9 05 4a
        E 7 b9 05 26
        E 7 b9 05 52
        E 7 b9 05 3f
        E 7 b9 05 0a
        E 7 b9 05 27
        E 7 b9 05 2f
        E 7 b9 05 54
        E 7 b9 05 43
        E 7 b9 05 30
        E 7 b9 05 31
        E 7 b9 05 04
        E 7 b9 05 09
        E 7 b9 05 51
        E 7 b9 05 47
        E 7 b9 05 25
        E 7 b9 05 1c
        E 7 b9 05 0b
        E 7 b9 05 27
        E 7 b9 05 1a
        E 7 b9 05 15
        E 7 b9 05 21
        E 7 b9 05 2e
        E 7 b9 05 35
        E 7 b9 05 39
        E 7 b9 05 0e
        E 7 b9 05 35
        E 7 b9 05 4f
        E 7 b9 05 2d
        E 7 b9 05 33
        E 7 b9 05 02
        E 7 b9 05 06
        E 7 b9 05 57
        E 7 b9 05 3a
        E 7 b9 05 10
        E 7 b9 05 51
        E 7 b9 05 1c
        E 7 b9 05 22
        E 7 b9 05 2b
        E 7 b9 05 23
        E 7 b9 05 3b
        E 7 b9 05 48
        E 7 b9 05 19
        E 7 b9 05 32
        E 7 b9 05 14
        E 7 b9 05 4f
        E 7 b9 05 49
        E 7 b9 05 28
        E 7 b9 05 20
        E 7 b9 05 46
        E 7 b9 05 20
        E 7 b9 05 3e
        E 7 b9 05 0c
        E 7 b9 05 01
        E 7 b9 05 1d
        E 7 b9 05 2c
        E 7 b9 05 4c
        E 7 b9 05 44
        E 7 b9 05 02
        E 7 b9 05 4d
        E 7 b9 05 41
        E 7 b9 05 04
        E 7 b9 05 1b
        E 7 b9 05 34
        E 7 b9 05 42
        E 7 b9 05 55
        E 7 b9 05 36
        E 7 b9 05 25
        E 7 b9 05 18
        E 7 b9 05 3d
        E 7 b9 05 40
        E 7 b9 05 4e
        E 7 b9 05 56
        E 7 b9 05 2a
        E 7 b9 05 38
        E 7 b9 05 3c
        E 7 b9 05 2e
        E 7 b9 05 53
        E 7 b9 05 0d
        E 7 b9 05 1f
        E 7 b9 05 3a
        E 1 b9 05 0b
        E 1 b9 05 26
        E 1 b9 05 19
        E 1 b9 05 04
        E 1 b9 05 24
        E 1 b9 05 20
        E 1 b9 05 04
        E 1 b9 05 04
        E 1 b9 05 18
        E 1 b9 05 30
        E 1 b9 05 28
        E 1 b9 05 2c
        E 1 b9 05 1f
        E 1 b9 05 05
        E 1 b9 05 09
        E 1 b9 05 22
        E 1 b9 05 1c
        E 1 b9 05 0e
        E 1 b9 05 0a
        E 1 b9 05 0d
        E 1 b9 05 27
        E 1 b9 05 17
        E 1 b9 05 0c
        E 1 b9 05 1d
        E 1 b9 05 32
        E 1 b9 05 00
        E 1 b9 05 06
        E 1 b9 05 14
        E 1 b9 05 11
        E 1 b9 05 29
        E 1 b9 05 0a
        E 1 b9 05 03
        E 1 b9 05 08
        E 1 b9 05 08
        E 1 b9 05 2e
        E 1 b9 05 0c
        E 1 b9 05 00
        E 1 b9 05 25
        E 1 b9 05 11
        E 1 b9 05 0a
        E 1 b9 05 14
        E 1 b9 05 0d
        E 1 b9 05 2b
        E 1 b9 05 2a
        E 1 b9 05 32
        E 1 b9 05 2a
        E 1 b9 05 16
        E 1 b9 05 2f
        E 1 b9 05 24
        E 1 b9 05 06
        E 1 b9 05 16
        E 1 b9 05 1b
        E 1 b9 05 30
        E 1 b9 05 26
        E 1 b9 05 1b
        E 1 b9 05 1c
        E 1 b9 05 02
        E 1 b9 05 05
        E 1 b9 05 2e
        E 1 b9 05 28
        E 1 b9 05 15
        E 1 b9 05 10
        E 1 b9 05 06
        E 1 b9 05 16
        E 1 b9 05 0f
        E 1 b9 05 0c
        E 1 b9 05 13
        E 1 b9 05 1a
        E 1 b9 05 1e
        E 1 b9 05 20
        E 1 b9 05 08
        E 1 b9 05 1e
        E 1 b9 05 2d
        E 1 b9 05 1a
        E 1 b9 05 1d
        E 1 b9 05 01
        E 1 b9 05 03
        E 1 b9 05 32
        E 1 b9 05 21
        E 1 b9 05 09
        E 1 b9 05 2e
        E 1 b9 05 10
        E 1 b9 05 13
        E 1 b9 05 18
        E 1 b9 05 14
        E 1 b9 05 22
        E 1 b9 05 29
        E 1 b9 05 0e
        E 1 b9 05 1c
        E 1 b9 05 0b
        E 1 b9 05 2d
        E 1 b9 05 2a
        E 1 b9 05 17
        E 1 b9 05 12
        E 1 b9 05 28
        E 1 b9 05 12
        E 1 b9 05 23
        E 1 b9 05 07
        E 1 b9 05 00
        E 1 b9 05 10
        E 1 b9 05 19
        E 1 b9 05 2b
        E 1 b9 05 27
        E 1 b9 05 01
        E 1 b9 05 2c
        E 1 b9 05 25
        E 1 b9 05 02
        E 1 b9 05 0f
        E 1 b9 05 1e
        E 1 b9 05 26
        E 1 b9 05 30
        E 1 b9 05 1f
        E 1 b9 05 15
        E 1 b9 05 0e
        E 1 b9 05 23
        E 1 b9 05 24
        E 1 b9 05 2c
        E 1 b9 05 31
        E 1 b9 05 18
        E 1 b9 05 20
        E 1 b9 05 22
        E 1 b9 05 1a
        E 1 b9 05 2f
        E 1 b9 05 07
        E 1 b9 05 12
        E 1 b9 05 21
        E 4 b9 05 16
        E 4 b9 05 4c
        E 4 b9 05 32
        E 4 b9 05 07
        E 4 b9 05 48
        E 4 b9 05 3f
        E 4 b9 05 09
        E 4 b9 05 08
        E 4 b9 05 30
        E 4 b9 05 5f
        E 4 b9 05 50
        E 4 b9 05 58
        E 4 b9 05 3f
        E 4 b9 05 0b
        E 4 b9 05 13
        E 4 b9 05 44
        E 4 b9 05 37
        E 4 b9 05 1c
        E 4 b9 05 14
        E 4 b9 05 1b
        E 4 b9 05 4f
        E 4 b9 05 2f
        E 4 b9 05 17
        E 4 b9 05 3a
        E 4 b9 05 64
        E 4 b9 05 00
        E 4 b9 05 0c
        E 4 b9 05 29
        E 4 b9 05 22
        E 4 b9 05 53
        E 4 b9 05 15
        E 4 b9 05 06
        E 4 b9 05 0f
        E 4 b9 05 11
        E 4 b9 05 5b
        E 4 b9 05 19
        E 4 b9 05 00
        E 4 b9 05 4b
        E 4 b9 05 23
        E 4 b9 05 14
        E 4 b9 05 28
        E 4 b9 05 1a
        E 4 b9 05 56
        E 4 b9 05 55
        E 4 b9 05 65
        E 4 b9 05 54
        E 4 b9 05 2b
        E 4 b9 05 5e
        E 4 b9 05 48
        E 4 b9 05 0b
        E 4 b9 05 2c
        E 4 b9 05 36
        E 4 b9 05 60
        E 4 b9 05 4d
        E 4 b9 05 37
        E 4 b9 05 38
        E 4 b9 05 04
        E 4 b9 05 0a
        E 4 b9 05 5d
        E 4 b9 05 51
        E 4 b9 05 2b
        E 4 b9 05 1f
        E 4 b9 05 0d
        E 4 b9 05 2d
        E 4 b9 05 1e
        E 4 b9 05 18
        E 4 b9 05 26
        E 4 b9 05 34
        E 4 b9 05 3d
        E 4 b9 05 41
        E 4 b9 05 10
        E 4 b9 05 3c
        E 4 b9 05 5a
        E 4 b9 05 33
        E 4 b9 05 3b
        E 4 b9 05 02
        E 4 b9 05 07
        E 4 b9 05 63
        E 4 b9 05 42
        E 4 b9 05 12
        E 4 b9 05 5c
        E 4 b9 05 20
        E 4 b9 05 27
        E 4 b9 05 31
        E 4 b9 05 28
        E 4 b9 05 44
        E 4 b9 05 52
        E 4 b9 05 1d
        E 4 b9 05 39
        E 4 b9 05 17
        E 4 b9 05 5b
        E 4 b9 05 54
        E 4 b9 05 2e
        E 4 b9 05 24
        E 4 b9 05 50
        E 4 b9 05 25
        E 4 b9 05 47
        E 4 b9 05 0e
        E 4 b9 05 01
        E 4 b9 05 21
        E 4 b9 05 33
        E 4 b9 05 57
        E 4 b9 05 4e
        E 4 b9 05 03
        E 4 b9 05 57
        E 4 b9 05 4a
        E 4 b9 05 05
        E 4 b9 05 1f
        E 4 b9 05 3b
        E 4 b9 05 4c
        E 4 b9 05 61
        E 4 b9 05 3e
        E 4 b9 05 2a
        E 4 b9 05 1b
        E 4 b9 05 46
        E 4 b9 05 49
        E 4 b9 05 59
        E 4 b9 05 63
        E 4 b9 05 2f
        E 4 b9 05 40
        E 4 b9 05 45
        E 4 b9 05 35
        E 4 b9 05 5f
        E 4 b9 05 0f
        E 4 b9 05 24
        E 4 b9 05 43
        E 13 b9 05 16
        E 13 b9 05 4c
        E 13 b9 05 32
        E 13 b9 05 07
        E 13 b9 05 48
        E 13 b9 05 3f
        E 13 b9 05 09
        E 13 b9 05 08
        E 13 b9 05 30
        E 13 b9 05 5f
        E 13 b9 05 50
        E 13 b9 05 58
        E 13 b9 05 3f
        E 13 b9 05 0b
        E 13 b9 05 13
        E 13 b9 05 44
        E 13 b9 05 37
        E 13 b9 05 1c
        E 13 b9 05 14
        E 13 b9 05 1b
        E 13 b9 05 4f
        E 13 b9 05 2f
        E 13 b9 05 17
        E 13 b9 05 3a
        E 13 b9 05 64
        E 13 b9 05 00
        E 13 b9 05 0c
        E 13 b9 05 29
        E 13 b9 05 22
        E 13 b9 05 53
        E 13 b9 05 15
        E 13 b9 05 06
        E 13 b9 05 0f
        E 13 b9 05 11
        E 13 b9 05 5b
        E 13 b9 05 19
        E 13 b9 05 00
        E 13 b9 05 4b
        E 13 b9 05 23
        E 13 b9 05 14
        E 13 b9 05 28
        E 13 b9 05 1a
        E 13 b9 05 56
        E 13 b9 05 55
        E 13 b9 05 65
        E 13 b9 05 54
        E 13 b9 05 2b
        E 13 b9 05 5e
        E 13 b9 05 48
        E 13 b9 05 0b
        E 13 b9 05 2c
        E 13 b9 05 36
        E 13 b9 05 60
        E 13 b9 05 4d
        E 13 b9 05 37
        E 13 b9 05 38
        E 13 b9 05 04
        E 13 b9 05 0a
        E 13 b9 05 5d
        E 13 b9 05 51
        E 13 b9 05 2b
        E 13 b9 05 1f
        E 13 b9 05 0d
        E 13 b9 05 2d
        E 13 b9 05 1e
        E 13 b9 05 18
        E 13 b9 05 26
        E 13 b9 05 34
        E 13 b9 05 3d
        E 13 b9 05 41
        E 13 b9 05 10
        E 13 b9 05 3c
        E 13 b9 05 5a
        E 13 b9 05 33
        E 13 b9 05 3b
        E 13 b9 05 02
        E 13 b9 05 07
        E 13 b9 05 63
        E 13 b9 05 42
        E 13 b9 05 12
        E 13 b9 05 5c
        E 13 b9 05 20
        E 13 b9 05 27
        E 13 b9 05 31
        E 13 b9 05 28
        E 13 b9 05 44
        E 13 b9 05 52
        E 13 b9 05 1d
        E 13 b9 05 39
        E 13 b9 05 17
        E 13 b9 05 5b
        E 13 b9 05 54
        E 13 b9 05 2e
        E 13 b9 05 24
        E 13 b9 05 50
        E 13 b9 05 25
        E 13 b9 05 47
        E 13 b9 05 0e
        E 13 b9 05 01
        E 13 b9 05 21
        E 13 b9 05 33
        E 13 b9 05 57
        E 13 b9 05 4e
        E 13 b9 05 03
        E 13 b9 05 57
        E 13 b9 05 4a
        E 13 b9 05 05
        E 13 b9 05 1f
        E 13 b9 05 3b
        E 13 b9 05 4c
        E 13 b9 05 61
        E 13 b9 05 3e
        E 13 b9 05 2a
        E 13 b9 05 1b
        E 13 b9 05 46
        E 13 b9 05 49
        E 13 b9 05 59
        E 13 b9 05 63
        E 13 b9 05 2f
        E 13 b9 05 40
        E 13 b9 05 45
        E 13 b9 05 35
        E 13 b9 05 5f
        E 13 b9 05 0f
        E 13 b9 05 24
        E 13 b9 05 43
        E 3 b9 05 10
        E 3 b9 05 39
        E 3 b9 05 25
        E 3 b9 05 06
        E 3 b9 05 36
        E 3 b9 05 30
        E 3 b9 05 07
        E 3 b9 05 06
        E 3 b9 05 24
        E 3 b9 05 48
        E 3 b9 05 3c
        E 3 b9 05 42
        E 3 b9 05 2f
        E 3 b9 05 08
        E 3 b9 05 0e
        E 3 b9 05 33
        E 3 b9 05 2a
        E 3 b9 05 15
        E 3 b9 05 0f
        E 3 b9 05 14
        E 3 b9 05 3b
        E 3 b9 05 23
        E 3 b9 05 12
        E 3 b9 05 2b
        E 3 b9 05 4b
        E 3 b9 05 00
        E 3 b9 05 09
        E 3 b9 05 1f
        E 3 b9 05 19
        E 3 b9 05 3e
        E 3 b9 05 10
        E 3 b9 05 04
        E 3 b9 05 0c
        E 3 b9 05 0d
        E 3 b9 05 45
        E 3 b9 05 13
        E 3 b9 05 00
        E 3 b9 05 38
        E 3 b9 05 1a
        E 3 b9 05 0f
        E 3 b9 05 1e
        E 3 b9 05 13
        E 3 b9 05 40
        E 3 b9 05 40
        E 3 b9 05 4c
        E 3 b9 05 3f
        E 3 b9 05 21
        E 3 b9 05 46
        E 3 b9 05 36
        E 3 b9 05 09
        E 3 b9 05 21
        E 3 b9 05 28
        E 3 b9 05 48
        E 3 b9 05 3a
        E 3 b9 05 29
        E 3 b9 05 2a
        E 3 b9 05 03
        E 3 b9 05 07
        E 3 b9 05 46
        E 3 b9 05 3d
        E 3 b9 05 20
        E 3 b9 05 18
        E 3 b9 05 0a
        E 3 b9 05 22
        E 3 b9 05 16
        E 3 b9 05 12
        E 3 b9 05 1c
        E 3 b9 05 27
        E 3 b9 05 2e
        E 3 b9 05 31
        E 3 b9 05 0c
        E 3 b9 05 2d
        E 3 b9 05 43
        E 3 b9 05 27
        E 3 b9 05 2c
        E 3 b9 05 01
        E 3 b9 05 05
        E 3 b9 05 4b
        E 3 b9 05 31
        E 3 b9 05 0d
        E 3 b9 05 45
        E 3 b9 05 18
        E 3 b9 05 1d
        E 3 b9 05 25
        E 3 b9 05 1e
        E 3 b9 05 33
        E 3 b9 05 3d
        E 3 b9 05 16
        E 3 b9 05 2b
        E 3 b9 05 11
        E 3 b9 05 44
        E 3 b9 05 3f
        E 3 b9 05 22
        E 3 b9 05 1b
        E 3 b9 05 3c
        E 3 b9 05 1c
        E 3 b9 05 35
        E 3 b9 05 0a
        E 3 b9 05 01
        E 3 b9 05 19
        E 3 b9 05 26
        E 3 b9 05 41
        E 3 b9 05 3a
        E 3 b9 05 02
        E 3 b9 05 42
        E 3 b9 05 37
        E 3 b9 05 04
        E 3 b9 05 17
        E 3 b9 05 2d
        E 3 b9 05 39
        E 3 b9 05 49
        E 3 b9 05 2e
        E 3 b9 05 1f
        E 3 b9 05 15
        E 3 b9 05 34
        E 3 b9 05 37
        E 3 b9 05 43
        E 3 b9 05 4a
        E 3 b9 05 24
        E 3 b9 05 30
        E 3 b9 05 34
        E 3 b9 05 28
        E 3 b9 05 47
        E 3 b9 05 0b
        E 3 b9 05 1b
        E 3 b9 05 32
        E 13 b9 05 0b
        E 13 b9 05 26
        E 13 b9 05 19
        E 13 b9 05 04
        E 13 b9 05 24
        E 13 b9 05 20
        E 13 b9 05 04
        E 13 b9 05 04
        E 13 b9 05 18
        E 13 b9 05 30
        E 13 b9 05 28
        E 13 b9 05 2c
        E 13 b9 05 1f
        E 13 b9 05 05
        E 13 b9 05 09
        E 13 b9 05 22
        E 13 b9 05 1c
        E 13 b9 05 0e
        E 13 b9 05 0a
        E 13 b9 05 0d
        E 13 b9 05 27
        E 13 b9 05 17
        E 13 b9 05 0c
        E 13 b9 05 1d
        E 13 b9 05 32
        E 13 b9 05 00
        E 13 b9 05 06
        E 13 b9 05 14
        E 13 b9 05 11
        E 13 b9 05 29
        E 13 b9 05 0a
        E 13 b9 05 03
        E 13 b9 05 08
        E 13 b9 05 08
        E 13 b9 05 2e
        E 13 b9 05 0c
        E 13 b9 05 00
        E 13 b9 05 25
        E 13 b9 05 11
        E 13 b9 05 0a
        E 13 b9 05 14
        E 13 b9 05 0d
        E 13 b9 05 2b
        E 13 b9 05 2a
        E 13 b9 05 32
        E 13 b9 05 2a
        E 13 b9 05 16
        E 13 b9 05 2f
        E 13 b9 05 24
        E 13 b9 05 06
        E 13 b9 05 16
        E 13 b9 05 1b
        E 13 b9 05 30
        E 13 b9 05 26
        E 13 b9 05 1b
        E 13 b9 05 1c
        E 13 b9 05 02
        E 13 b9 05 05
        E 13 b9 05 2e
        E 13 b9 05 28
        E 13 b9 05 15
        E 13 b9 05 10
        E 13 b9 05 06
        E 13 b9 05 16
        E 13 b9 05 0f
        E 13 b9 05 0c
        E 13 b9 05 13
        E 13 b9 05 1a
        E 13 b9 05 1e
        E 13 b9 05 20
        E 13 b9 05 08
        E 13 b9 05 1e
        E 13 b9 05 2d
        E 13 b9 05 1a
        E 13 b9 05 1d
        E 13 b9 05 01
        E 13 b9 05 03
        E 13 b9 05 32
        E 13 b9 05 21
        E 13 b9 05 09
        E 13 b9 05 2e
        E 13 b9 05 10
        E 13 b9 05 13
        E 13 b9 05 18
        E 13 b9 05 14
        E 13 b9 05 22
        E 13 b9 05 29
        E 13 b9 05 0e
        E 13 b9 05 1c
        E 13 b9 05 0b
        E 13 b9 05 2d
        E 13 b9 05 2a
        E 13 b9 05 17
        E 13 b9 05 12
        E 13 b9 05 28
        E 13 b9 05 12
        E 13 b9 05 23
        E 13 b9 05 07
        E 13 b9 05 00
        E 13 b9 05 10
        E 13 b9 05 19
        E 13 b9 05 2b
        E 13 b9 05 27
        E 13 b9 05 01
        E 13 b9 05 2c
        E 13 b9 05 25
        E 13 b9 05 02
        E 13 b9 05 0f
        E 13 b9 05 1e
        E 13 b9 05 26
        E 13 b9 05 30
        E 13 b9 05 1f
        E 13 b9 05 15
        E 13 b9 05 0e
        E 13 b9 05 23
        E 13 b9 05 24
        E 13 b9 05 2c
        E 13 b9 05 31
        E 13 b9 05 18
        E 13 b9 05 20
        E 13 b9 05 22
        E 13 b9 05 1a
        E 13 b9 05 2f
        E 13 b9 05 07
        E 13 b9 05 12
        E 13 b9 05 21
        E 7 b9 05 13
        E 7 b9 05 43
        E 7 b9 05 2c
        E 7 b9 05 07
        E 7 b9 05 3e
        E 7 b9 05 38
        E 7 b9 05 08
        E 7 b9 05 07
        E 7 b9 05 2a
        E 7 b9 05 54
        E 7 b9 05 46
        E 7 b9 05 4d
        E 7 b9 05 37
        E 7 b9 05 09
        E 7 b9 05 10
        E 7 b9 05 3c
        E 7 b9 05 31
        E 7 b9 05 19
        E 7 b9 05 11
        E 7 b9 05 17
        E 7 b9 05 45
        E 7 b9 05 29
        E 7 b9 05 15
        E 7 b9 05 33
        E 7 b9 05 58
        E 7 b9 05 00
        E 7 b9 05 0b
        E 7 b9 05 24
        E 7 b9 05 1e
        E 7 b9 05 48
        E 7 b9 05 12
        E 7 b9 05 05
        E 7 b9 05 0e
        E 7 b9 05 0f
        E 7 b9 05 50
        E 7 b9 05 16
        E 7 b9 05 00
        E 7 b9 05 41
        E 7 b9 05 1e
        E 7 b9 05 12
        E 7 b9 05 23
        E 7 b9 05 17
        E 7 b9 05 4b
        E 7 b9 05 4a
        E 7 b9 05 58
        E 7 b9 05 4a
        E 7 b9 05 26
        E 7 b9 05 52
        E 7 b9 05 3f
        E 7 b9 05 0a
        E 7 b9 05 27
        E 7 b9 05 2f
        E 7 b9 05 54
        E 7 b9 05 43
        E 7 b9 05 30
        E 7 b9 05 31
        E 7 b9 05 04
        E 7 b9 05 09
        E 7 b9 05 51
        E 7 b9 05 47
        E 7 b9 05 25
        E 7 b9 05 1c
        E 7 b9 05 0b
        E 7 b9 05 27
        E 7 b9 05 1a
        E 7 b9 05 15
        E 7 b9 05 21
        E 7 b9 05 2e
        E 7 b9 05 35
        E 7 b9 05 39
        E 7 b9 05 0e
        E 7 b9 05 35
        E 7 b9 05 4f
        E 7 b9 05 2d
        E 7 b9 05 33
        E 7 b9 05 02
        E 7 b9 05 06
        E 7 b9 05 57
        E 7 b9 05 3a
        E 7 b9 05 10
        E 7 b9 05 51
        E 7 b9 05 1c
        E 7 b9 05 22
        E 7 b9 05 2b
        E 7 b9 05 23
        E 7 b9 05 3b
        E 7 b9 05 48
        E 7 b9 05 19
        E 7 b9 05 32
        E 7 b9 05 14
        E 7 b9 05 4f
        E 7 b9 05 49
        E 7 b9 05 28
        E 7 b9 05 20
        E 7 b9 05 46
        E 7 b9 05 20
        E 7 b9 05 3e
        E 7 b9 05 0c
        E 7 b9 05 01
        E 7 b9 05 1d
        E 7 b9 05 2c
        E 7 b9 05 4c
        E 7 b9 05 44
        E 7 b9 05 02
        E 7 b9 05 4d
        E 7 b9 05 41
        E 7 b9 05 04
        E 7 b9 05 1b
        E 7 b9 05 34
        E 7 b9 05 42
        E 7 b9 05 55
        E 7 b9 05 36
        E 7 b9 05 25
        E 7 b9 05 18
        E 7 b9 05 3d
        E 7 b9 05 40
        E 7 b9 05 4e
        E 7 b9 05 56
        E 7 b9 05 2a
        E 7 b9 05 38
        E 7 b9 05 3c
        E 7 b9 05 2e
        E 7 b9 05 53
        E 7 b9 05 0d
        E 7 b9 05 1f
        E 7 b9 05 3a
        E 1 b9 05 0b
        E 1 b9 05 26
        E 1 b9 05 19
        E 1 b9 05 04
        E 1 b9 05 24
        E 1 b9 05 20
        E 1 b9 05 04
        E 1 b9 05 04
        E 1 b9 05 18
        E 1 b9 05 30
        E 1 b9 05 28
        E 1 b9 05 2c
        E 1 b9 05 1f
        E 1 b9 05 05
        E 1 b9 05 09
        E 1 b9 05 22
        E 1 b9 05 1c
        E 1 b9 05 0e
        E 1 b9 05 0a
        E 1 b9 05 0d
        E 1 b9 05 27
        E 1 b9 05 17
        E 1 b9 05 0c
        E 1 b9 05 1d
        E 1 b9 05 32
        E 1 b9 05 00
        E 1 b9 05 06
        E 1 b9 05 14
        E 1 b9 05 11
        E 1 b9 05 29
        E 1 b9 05 0a
        E 1 b9 05 03
        E 1 b9 05 08
        E 1 b9 05 08
        E 1 b9 05 2e
        E 1 b9 05 0c
        E 1 b9 05 00
        E 1 b9 05 25
        E 1 b9 05 11
        E 1 b9 05 0a
        E 1 b9 05 14
        E 1 b9 05 0d
        E 1 b9 05 2b
        E 1 b9 05 2a
        E 1 b9 05 32
        E 1 b9 05 2a
        E 1 b9 05 16
        E 1 b9 05 2f
        E 1 b9 05 24
        E 1 b9 05 06
        E 1 b9 05 16
        E 1 b9 05 1b
        E 1 b9 05 30
        E 1 b9 05 26
        E 1 b9 05 1b
        E 1 b9 05 1c
        E 1 b9 05 02
        E 1 b9 05 05
        E 1 b9 05 2e
        E 1 b9 05 28
        E 1 b9 05 15
        E 1 b9 05 10
        E 1 b9 05 06
        E 1 b9 05 16
        E 1 b9 05 0f
        E 1 b9 05 0c
        E 1 b9 05 13
        E 1 b9 05 1a
        E 1 b9 05 1e
        E 1 b9 05 20
        E 1 b9 05 08
        E 1 b9 05 1e
        E 1 b9 05 2d
        E 1 b9 05 1a
        E 1 b9 05 1d
        E 1 b9 05 01
        E 1 b9 05 03
        E 1 b9 05 32
        E 1 b9 05 21
        E 1 b9 05 09
        E 1 b9 05 2e
        E 1 b9 05 10
        E 1 b9 05 13
        E 1 b9 05 18
        E 1 b9 05 14
        E 1 b9 05 22
        E 1 b9 05 29
        E 1 b9 05 0e
        E 1 b9 05 1c
        E 1 b9 05 0b
        E 1 b9 05 2d
        E 1 b9 05 2a
        E 1 b9 05 17
        E 1 b9 05 12
        E 1 b9 05 28
        E 1 b9 05 12
        E 1 b9 05 23
        E 1 b9 05 07
        E 1 b9 05 00
        E 1 b9 05 10
        E 1 b9 05 19
        E 1 b9 05 2b
        E 1 b9 05 27
        E 1 b9 05 01
        E 1 b9 05 2c
        E 1 b9 05 25
        E 1 b9 05 02
        E 1 b9 05 0f
        E 1 b9 05 1e
        E 1 b9 05 26
        E 1 b9 05 30
        E 1 b9 05 1f
        E 1 b9 05 15
        E 1 b9 05 0e
        E 1 b9 05 23
        E 1 b9 05 24
        E 1 b9 05 2c
        E 1 b9 05 31
        E 1 b9 05 18
        E 1 b9 05 20
        E 1 b9 05 22
        E 1 b9 05 1a
        E 1 b9 05 2f
        E 1 b9 05 07
        E 1 b9 05 12
        E 1 b9 05 21
        E 4 b9 05 16
        E 4 b9 05 4c
        E 4 b9 05 32
        E 4 b9 05 07
        E 4 b9 05 48
        E 4 b9 05 3f
        E 4 b9 05 09
        E 4 b9 05 08
        E 4 b9 05 30
        E 4 b9 05 5f
        E 4 b9 05 50
        E 4 b9 05 58
        E 4 b9 05 3f
        E 4 b9 05 0b
        E 4 b9 05 13
        E 4 b9 05 44
        E 4 b9 05 37
        E 4 b9 05 1c
        E 4 b9 05 14
        E 4 b9 05 1b
        E 4 b9 05 4f
        E 4 b9 05 2f
        E 4 b9 05 17
        E 4 b9 05 3a
        E 4 b9 05 64
        E 4 b9 05 00
        E 4 b9 05 0c
        E 4 b9 05 29
        E 4 b9 05 22
        E 4 b9 05 53
        E 4 b9 05 15
        E 4 b9 05 06
        E 4 b9 05 0f
        E 4 b9 05 11
        E 4 b9 05 5b
        E 4 b9 05 19
        E 4 b9 05 00
        E 4 b9 05 4b
        E 4 b9 05 23
        E 4 b9 05 14
        E 4 b9 05 28
        E 4 b9 05 1a
        E 4 b9 05 56
        E 4 b9 05 55
        E 4 b9 05 65
        E 4 b9 05 54
        E 4 b9 05 2b
        E 4 b9 05 5e
        E 4 b9 05 48
        E 4 b9 05 0b
        E 4 b9 05 2c
        E 4 b9 05 36
        E 4 b9 05 60
        E 4 b9 05 4d
        E 4 b9 05 37
        E 4 b9 05 38
        E 4 b9 05 04
        E 4 b9 05 0a
        E 4 b9 05 5d
        E 4 b9 05 51
        E 4 b9 05 2b
        E 4 b9 05 1f
        E 4 b9 05 0d
        E 4 b9 05 2d
        E 4 b9 05 1e
        E 4 b9 05 18
        E 4 b9 05 26
        E 4 b9 05 34
        E 4 b9 05 3d
        E 4 b9 05 41
        E 4 b9 05 10
        E 4 b9 05 3c
        E 4 b9 05 5a
        E 4 b9 05 33
        E 4 b9 05 3b
        E 4 b9 05 02
        E 4 b9 05 07
        E 4 b9 05 63
        E 4 b9 05 42
        E 4 b9 05 12
        E 4 b9 05 5c
        E 4 b9 05 20
        E 4 b9 05 27
        E 4 b9 05 31
        E 4 b9 05 28
        E 4 b9 05 44
        E 4 b9 05 52
        E 4 b9 05 1d
        E 4 b9 05 39
        E 4 b9 05 17
        E 4 b9 05 5b
        E 4 b9 05 54
        E 4 b9 05 2e
        E 4 b9 05 24
        E 4 b9 05 50
        E 4 b9 05 25
        E 4 b9 05 47
        E 4 b9 05 0e
        E 4 b9 05 01
        E 4 b9 05 21
        E 4 b9 05 33
        E 4 b9 05 57
        E 4 b9 05 4e
        E 4 b9 05 03
        E 4 b9 05 57
        E 4 b9 05 4a
        E 4 b9 05 05
        E 4 b9 05 1f
        E 4 b9 05 3b
        E 4 b9 05 4c
        E 4 b9 05 61
        E 4 b9 05 3e
        E 4 b9 05 2a
        E 4 b9 05 1b
        E 4 b9 05 46
        E 4 b9 05 49
        E 4 b9 05 59
        E 4 b9 05 63
        E 4 b9 05 2f
        E 4 b9 05 40
        E 4 b9 05 45
        E 4 b9 05 35
        E 4 b9 05 5f
        E 4 b9 05 0f
        E 4 b9 05 24
        E 4 b9 05 43
        E 13 b9 05 16
        E 13 b9 05 4c
        E 13 b9 05 32
        E 13 b9 05 07
        E 13 b9 05 48
        E 13 b9 05 3f
        E 13 b9 05 09
        E 13 b9 05 08
        E 13 b9 05 30
        E 13 b9 05 5f
        E 13 b9 05 50
        E 13 b9 05 58
        E 13 b9 05 3f
        E 13 b9 05 0b
        E 13 b9 05 13
        E 13 b9 05 44
        E 13 b9 05 37
        E 13 b9 05 1c
        E 13 b9 05 14
        E 13 b9 05 1b
        E 13 b9 05 4f
        E 13 b9 05 2f
        E 13 b9 05 17
        E 13 b9 05 3a
        E 13 b9 05 64
        E 13 b9 05 00
        E 13 b9 05 0c
        E 13 b9 05 29
        E 13 b9 05 22
        E 13 b9 05 53
        E 13 b9 05 15
        E 13 b9 05 06
        E 13 b9 05 0f
        E 13 b9 05 11
        E 13 b9 05 5b
        E 13 b9 05 19
        E 13 b9 05 00
        E 13 b9 05 4b
        E 13 b9 05 23
        E 13 b9 05 14
        E 13 b9 05 28
        E 13 b9 05 1a
        E 13 b9 05 56
        E 13 b9 05 55
        E 13 b9 05 65
        E 13 b9 05 54
        E 13 b9 05 2b
        E 13 b9 05 5e
        E 13 b9 05 48
        E 13 b9 05 0b
        E 13 b9 05 2c
        E 13 b9 05 36
        E 13 b9 05 60
        E 13 b9 05 4d
        E 13 b9 05 37
        E 13 b9 05 38
        E 13 b9 05 04
        E 13 b9 05 0a
        E 13 b9 05 5d
        E 13 b9 05 51
        E 13 b9 05 2b
        E 13 b9 05 1f
        E 13 b9 05 0d
        E 13 b9 05 2d
        E 13 b9 05 1e
        E 13 b9 05 18
        E 13 b9 05 26
        E 13 b9 05 34
        E 13 b9 05 3d
        E 13 b9 05 41
        E 13 b9 05 10
        E 13 b9 05 3c
        E 13 b9 05 5a
        E 13 b9 05 33
        E 13 b9 05 3b
        E 13 b9 05 02
        E 13 b9 05 07
        E 13 b9 05 63
        E 13 b9 05 42
        E 13 b9 05 12
        E 13 b9 05 5c
        E 13 b9 05 20
        E 13 b9 05 27
        E 13 b9 05 31
        E 13 b9 05 28
        E 13 b9 05 44
        E 13 b9 05 52
        E 13 b9 05 1d
        E 13 b9 05 39
        E 13 b9 05 17
        E 13 b9 05 5b
        E 13 b9 05 54
        E 13 b9 05 2e
        E 13 b9 05 24
        E 13 b9 05 50
        E 13 b9 05 25
        E 13 b9 05 47
        E 13 b9 05 0e
        E 13 b9 05 01
        E 13 b9 05 21
        E 13 b9 05 33
        E 13 b9 05 57
        E 13 b9 05 4e
        E 13 b9 05 03
        E 13 b9 05 57
        E 13 b9 05 4a
        E 13 b9 05 05
        E 13 b9 05 1f
        E 13 b9 05 3b
        E 13 b9 05 4c
        E 13 b9 05 61
        E 13 b9 05 3e
        E 13 b9 05 2a
        E 13 b9 05 1b
        E 13 b9 05 46
        E 13 b9 05 49
        E 13 b9 05 59
        E 13 b9 05 63
        E 13 b9 05 2f
        E 13 b9 05 40
        E 13 b9 05 45
        E 13 b9 05 35
        E 13 b9 05 5f
        E 13 b9 05 0f
        E 13 b9 05 24
        E 13 b9 05 43
        E 3 b9 05 10
        E 3 b9 05 39
        E 3 b9 05 25
        E 3 b9 05 06
        E 3 b9 05 36
        E 3 b9 05 30
        E 3 b9 05 07
        E 3 b9 05 06
        E 3 b9 05 24
        E 3 b9 05 48
        E 3 b9 05 3c
        E 3 b9 05 42
        E 3 b9 05 2f
        E 3 b9 05 08
        E 3 b9 05 0e
        E 3 b9 05 33
        E 3 b9 05 2a
        E 3 b9 05 15
        E 3 b9 05 0f
        E 3 b9 05 14
        E 3 b9 05 3b
        E 3 b9 05 23
        E 3 b9 05 12
        E 3 b9 05 2b
        E 3 b9 05 4b
        E 3 b9 05 00
        E 3 b9 05 09
        E 3 b9 05 1f
        E 3 b9 05 19
        E 3 b9 05 3e
        E 3 b9 05 10
        E 3 b9 05 04
        E 3 b9 05 0c
        E 3 b9 05 0d
        E 3 b9 05 45
        E 3 b9 05 13
        E 3 b9 05 00
        E 3 b9 05 38
        E 3 b9 05 1a
        E 3 b9 05 0f
        E 3 b9 05 1e
        E 3 b9 05 13
        E 3 b9 05 40
        E 3 b9 05 40
        E 3 b9 05 4c
        E 3 b9 05 3f
        E 3 b9 05 21
        E 3 b9 05 46
        E 3 b9 05 36
        E 3 b9 05 09
        E 3 b9 05 21
        E 3 b9 05 28
        E 3 b9 05 48
        E 3 b9 05 3a
        E 3 b9 05 29
        E 3 b9 05 2a
        E 3 b9 05 03
        E 3 b9 05 07
        E 3 b9 05 46
        E 3 b9 05 3d
        E 3 b9 05 20
        E 3 b9 05 18
        E 3 b9 05 0a
        E 3 b9 05 22
        E 3 b9 05 16
        E 3 b9 05 12
        E 3 b9 05 1c
        E 3 b9 05 27
        E 3 b9 05 2e
        E 3 b9 05 31
        E 3 b9 05 0c
        E 3 b9 05 2d
        E 3 b9 05 43
        E 3 b9 05 27
        E 3 b9 05 2c
        E 3 b9 05 01
        E 3 b9 05 05
        E 3 b9 05 4b
        E 3 b9 05 31
        E 3 b9 05 0d
        E 3 b9 05 45
        E 3 b9 05 18
        E 3 b9 05 1d
        E 3 b9 05 25
        E 3 b9 05 1e
        E 3 b9 05 33
        E 3 b9 05 3d
        E 3 b9 05 16
        E 3 b9 05 2b
        E 3 b9 05 11
        E 3 b9 05 44
        E 3 b9 05 3f
        E 3 b9 05 22
        E 3 b9 05 1b
        E 3 b9 05 3c
        E 3 b9 05 1c
        E 3 b9 05 35
        E 3 b9 05 0a
        E 3 b9 05 01
        E 3 b9 05 19
        E 3 b9 05 26
        E 3 b9 05 41
        E 3 b9 05 3a
        E 3 b9 05 02
        E 3 b9 05 42
        E 3 b9 05 37
        E 3 b9 05 04
        E 3 b9 05 17
        E 3 b9 05 2d
        E 3 b9 05 39
        E 3 b9 05 49
        E 3 b9 05 2e
        E 3 b9 05 1f
        E 3 b9 05 15
        E 3 b9 05 34
        E 3 b9 05 37
        E 3 b9 05 43
        E 3 b9 05 4a
        E 3 b9 05 24
        E 3 b9 05 30
        E 3 b9 05 34
        E 3 b9 05 28
        E 3 b9 05 47
        E 3 b9 05 0b
        E 3 b9 05 1b
        E 3 b9 05 32
        E 13 b9 05 0b
        E 13 b9 05 26
        E 13 b9 05 19
        E 13 b9 05 04
        E 13 b9 05 24
        E 13 b9 05 20
        E 13 b9 05 04
        E 13 b9 05 04
        E 13 b9 05 18
        E 13 b9 05 30
        E 13 b9 05 28
        E 13 b9 05 2c
        E 13 b9 05 1f
        E 13 b9 05 05
        E 13 b9 05 09
        E 13 b9 05 22
        E 13 b9 05 1c
        E 13 b9 05 0e
        E 13 b9 05 0a
        E 13 b9 05 0d
        E 13 b9 05 27
        E 13 b9 05 17
        E 13 b9 05 0c
        E 13 b9 05 1d
        E 13 b9 05 32
        E 13 b9 05 00
        E 13 b9 05 06
        E 13 b9 05 14
        E 13 b9 05 11
        E 13 b9 05 29
        E 13 b9 05 0a
        E 13 b9 05 03
        E 13 b9 05 08
        E 13 b9 05 08
        E 13 b9 05 2e
        E 13 b9 05 0c
        E 13 b9 05 00
        E 13 b9 05 25
        E 13 b9 05 11
        E 13 b9 05 0a
        E 13 b9 05 14
        E 13 b9 05 0d
        E 13 b9 05 2b
        E 13 b9 05 2a
        E 13 b9 05 32
        E 13 b9 05 2a
        E 13 b9 05 16
        E 13 b9 05 2f
        E 13 b9 05 24
        E 13 b9 05 06
        E 13 b9 05 16
        E 13 b9 05 1b
        E 13 b9 05 30
        E 13 b9 05 26
        E 13 b9 05 1b
        E 13 b9 05 1c
        E 13 b9 05 02
        E 13 b9 05 05
        E 13 b9 05 2e
        E 13 b9 05 28
        E 13 b9 05 15
        E 13 b9 05 10
        E 13 b9 05 06
        E 13 b9 05 16
        E 13 b9 05 0f
        E 13 b9 05 0c
        E 13 b9 05 13
        E 13 b9 05 1a
        E 13 b9 05 1e
        E 13 b9 05 20
        E 13 b9 05 08
        E 13 b9 05 1e
        E 13 b9 05 2d
        E 13 b9 05 1a
        E 13 b9 05 1d
        E 13 b9 05 01
        E 13 b9 05 03
        E 13 b9 05 32
        E 13 b9 05 21
        E 13 b9 05 09
        E 13 b9 05 2e
        E 13 b9 05 10
        E 13 b9 05 13
        E 13 b9 05 18
        E 13 b9 05 14
        E 13 b9 05 22
        E 13 b9 05 29
        E 13 b9 05 0e
        E 13 b9 05 1c
        E 13 b9 05 0b
        E 13 b9 05 2d
        E 13 b9 05 2a
        E 13 b9 05 17
        E 13 b9 05 12
        E 13 b9 05 28
        E 13 b9 05 12
        E 13 b9 05 23
        E 13 b9 05 07
        E 13 b9 05 00
        E 13 b9 05 10
        E 13 b9 05 19
        E 13 b9 05 2b
        E 13 b9 05 27
        E 13 b9 05 01
        E 13 b9 05 2c
        E 13 b9 05 25
        E 13 b9 05 02
        E 13 b9 05 0f
        E 13 b9 05 1e
        E 13 b9 05 26
        E 13 b9 05 30
        E 13 b9 05 1f
        E 13 b9 05 15
        E 13 b9 05 0e
        E 13 b9 05 23
        E 13 b9 05 24
        E 13 b9 05 2c
        E 13 b9 05 31
        E 13 b9 05 18
        E 13 b9 05 20
        E 13 b9 05 22
        E 13 b9 05 1a
        E 13 b9 05 2f
        E 13 b9 05 07
        E 13 b9 05 12
        E 13 b9 05 21
        E 7 b9 05 13
        E 7 b9 05 43
        E 7 b9 05 2c
        E 7 b9 05 07
        E 7 b9 05 3e
        E 7 b9 05 38
        E 7 b9 05 08
        E 7 b9 05 07
        E 7 b9 05 2a
        E 7 b9 05 54
        E 7 b9 05 46
        E 7 b9 05 4d
        E 7 b9 05 37
        E 7 b9 05 09
        E 7 b9 05 10
        E 7 b9 05 3c
        E 7 b9 05 31
        E 7 b9 05 19
        E 7 b9 05 11
        E 7 b9 05 17
        E 7 b9 05 45
        E 7 b9 05 29
        E 7 b9 05 15
        E 7 b9 05 33
        E 7 b9 05 58
        E 7 b9 05 00
        E 7 b9 05 0b
        E 7 b9 05 24
        E 7 b9 05 1e
        E 7 b9 05 48
        E 7 b9 05 12
        E 7 b9 05 05
        E 7 b9 05 0e
        E 7 b9 05 0f
        E 7 b9 05 50
        E 7 b9 05 16
        E 7 b9 05 00
        E 7 b9 05 41
        E 7 b9 05 1e
        E 7 b9 05 12
        E 7 b9 05 23
        E 7 b9 05 17
        E 7 b9 05 4b
        E 7 b9 05 4a
        E 7 b9 05 58
        E 7 b9 05 4a
        E 7 b9 05 26
        E 7 b9 05 52
        E 7 b9 05 3f
        E 7 b9 05 0a
        E 7 b9 05 27
        E 7 b9 05 2f
        E 7 b9 05 54
        E 7 b9 05 43
        E 7 b9 05 30
        E 7 b9 05 31
        E 7 b9 05 04
        E 7 b9 05 09
        E 7 b9 05 51
        E 7 b9 05 47
        E 7 b9 05 25
        E 7 b9 05 1c
        E 7 b9 05 0b
        E 7 b9 05 27
        E 7 b9 05 1a
        E 7 b9 05 15
        E 7 b9 05 21
        E 7 b9 05 2e
        E 7 b9 05 35
        E 7 b9 05 39
        E 7 b9 05 0e
        E 7 b9 05 35
        E 7 b9 05 4f
        E 7 b9 05 2d
        E 7 b9 05 33
        E 7 b9 05 02
        E 7 b9 05 06
        E 7 b9 05 57
        E 7 b9 05 3a
        E 7 b9 05 10
        E 7 b9 05 51
        E 7 b9 05 1c
        E 7 b9 05 22
        E 7 b9 05 2b
        E 7 b9 05 23
        E 7 b9 05 3b
        E 7 b9 05 48
        E 7 b9 05 19
        E 7 b9 05 32
        E 7 b9 05 14
        E 7 b9 05 4f
        E 7 b9 05 49
        E 7 b9 05 28
        E 7 b9 05 20
        E 7 b9 05 46
        E 7 b9 05 20
        E 7 b9 05 3e
        E 7 b9 05 0c
        E 7 b9 05 01
        E 7 b9 05 1d
        E 7 b9 05 2c
        E 7 b9 05 4c
        E 7 b9 05 44
        E 7 b9 05 02
        E 7 b9 05 4d
        E 7 b9 05 41
        E 7 b9 05 04
        E 7 b9 05 1b
        E 7 b9 05 34
        E 7 b9 05 42
        E 7 b9 05 55
        E 7 b9 05 36
        E 7 b9 05 25
        E 7 b9 05 18
        E 7 b9 05 3d
        E 7 b9 05 40
        E 7 b9 05 4e
        E 7 b9 05 56
        E 7 b9 05 2a
        E 7 b9 05 38
        E 7 b9 05 3c
        E 7 b9 05 2e
        E 7 b9 05 53
        E 7 b9 05 0d
        E 7 b9 05 1f
        E 7 b9 05 3a
        E 1 b9 05 0b
        E 1 b9 05 26
        E 1 b9 05 19
        E 1 b9 05 04
        E 1 b9 05 24
        E 1 b9 05 20
        E 1 b9 05 04
        E 1 b9 05 04
        E 1 b9 05 18
        E 1 b9 05 30
        E 1 b9 05 28
        E 1 b9 05 2c
        E 1 b9 05 1f
        E 1 b9 05 05
        E 1 b9 05 09
        E 1 b9 05 22
        E 1 b9 05 1c
        E 1 b9 05 0e
        E 1 b9 05 0a
        E 1 b9 05 0d
        E 1 b9 05 27
        E 1 b9 05 17
        E 1 b9 05 0c
        E 1 b9 05 1d
        E 1 b9 05 32
        E 1 b9 05 00
        E 1 b9 05 06
        E 1 b9 05 14
        E 1 b9 05 11
        E 1 b9 05 29
        E 1 b9 05 0a
        E 1 b9 05 03
        E 1 b9 05 08
        E 1 b9 05 08
        E 1 b9 05 2e
        E 1 b9 05 0c
        E 1 b9 05 00
        E 1 b9 05 25
        E 1 b9 05 11
        E 1 b9 05 0a
        E 1 b9 05 14
        E 1 b9 05 0d
        E 1 b9 05 2b
        E 1 b9 05 2a
        E 1 b9 05 32
        E 1 b9 05 2a
        E 1 b9 05 16
        E 1 b9 05 2f
        E 1 b9 05 24
        E 1 b9 05 06
        E 1 b9 05 16
        E 1 b9 05 1b
        E 1 b9 05 30
        E 1 b9 05 26
        E 1 b9 05 1b
        E 1 b9 05 1c
        E 1 b9 05 02
        E 1 b9 05 05
        E 1 b9 05 2e
        E 1 b9 05 28
        E 1 b9 05 15
        E 1 b9 05 10
        E 1 b9 05 06
        E 1 b9 05 16
        E 1 b9 05 0f
        E 1 b9 05 0c
        E 1 b9 05 13
        E 1 b9 05 1a
        E 1 b9 05 1e
        E 1 b9 05 20
        E 1 b9 05 08
        E 1 b9 05 1e
        E 1 b9 05 2d
        E 1 b9 05 1a
        E 1 b9 05 1d
        E 1 b9 05 01
        E 1 b9 05 03
        E 1 b9 05 32
        E 1 b9 05 21
        E 1 b9 05 09
        E 1 b9 05 2e
        E 1 b9 05 10
        E 1 b9 05 13
        E 1 b9 05 18
        E 1 b9 05 14
        E 1 b9 05 22
        E 1 b9 05 29
        E 1 b9 05 0e
        E 1 b9 05 1c
        E 1 b9 05 0b
        E 1 b9 05 2d
        E 1 b9 05 2a
        E 1 b9 05 17
        E 1 b9 05 12
        E 1 b9 05 28
        E 1 b9 05 12
        E 1 b9 05 23
        E 1 b9 05 07
        E 1 b9 05 00
        E 1 b9 05 10
        E 1 b9 05 19
        E 1 b9 05 2b
        E 1 b9 05 27
        E 1 b9 05 01
        E 1 b9 05 2c
        E 1 b9 05 25
        E 1 b9 05 02
        E 1 b9 05 0f
        E 1 b9 05 1e
        E 1 b9 05 26
        E 1 b9 05 30
        E 1 b9 05 1f
        E 1 b9 05 15
        E 1 b9 05 0e
        E 1 b9 05 23
        E 1 b9 05 24
        E 1 b9 05 2c
        E 1 b9 05 31
        E 1 b9 05 18
        E 1 b9 05 20
        E 1 b9 05 22
        E 1 b9 05 1a
        E 1 b9 05 2f
        E 1 b9 05 07
        E 1 b9 05 12
        E 1 b9 05 21
        E 4 b9 05 16
        E 4 b9 05 4c
        E 4 b9 05 32
        E 4 b9 05 07
        E 4 b9 05 48
        E 4 b9 05 3f
        E 4 b9 05 09
        E 4 b9 05 08
        E 4 b9 05 30
        E 4 b9 05 5f
        E 4 b9 05 50
        E 4 b9 05 58
        E 4 b9 05 3f
        E 4 b9 05 0b
        E 4 b9 05 13
        E 4 b9 05 44
        E 4 b9 05 37
        E 4 b9 05 1c
        E 4 b9 05 14
        E 4 b9 05 1b
        E 4 b9 05 4f
        E 4 b9 05 2f
        E 4 b9 05 17
        E 4 b9 05 3a
        E 4 b9 05 64
        E 4 b9 05 00
        E 4 b9 05 0c
        E 4 b9 05 29
        E 4 b9 05 22
        E 4 b9 05 53
        E 4 b9 05 15
        E 4 b9 05 06
        E 4 b9 05 0f
        E 4 b9 05 11
        E 4 b9 05 5b
        E 4 b9 05 19
        E 4 b9 05 00
        E 4 b9 05 4b
        E 4 b9 05 23
        E 4 b9 05 14
        E 4 b9 05 28
        E 4 b9 05 1a
        E 4 b9 05 56
        E 4 b9 05 55
        E 4 b9 05 65
        E 4 b9 05 54
        E 4 b9 05 2b
        E 4 b9 05 5e
        E 4 b9 05 48
        E 4 b9 05 0b
        E 4 b9 05 2c
        E 4 b9 05 36
        E 4 b9 05 60
        E 4 b9 05 4d
        E 4 b9 05 37
        E 4 b9 05 38
        E 4 b9 05 04
        E 4 b9 05 0a
        E 4 b9 05 5d
        E 4 b9 05 51
        E 4 b9 05 2b
        E 4 b9 05 1f
        E 4 b9 05 0d
        E 4 b9 05 2d
        E 4 b9 05 1e
        E 4 b9 05 18
        E 4 b9 05 26
        E 4 b9 05 34
        E 4 b9 05 3d
        E 4 b9 05 41
        E 4 b9 05 10
        E 4 b9 05 3c
        E 4 b9 05 5a
        E 4 b9 05 33
        E 4 b9 05 3b
        E 4 b9 05 02
        E 4 b9 05 07
        E 4 b9 05 63
        E 4 b9 05 42
        E 4 b9 05 12
        E 4 b9 05 5c
        E 4 b9 05 20
        E 4 b9 05 27
        E 4 b9 05 31
        E 4 b9 05 28
        E 4 b9 05 44
        E 4 b9 05 52
        E 4 b9 05 1d
        E 4 b9 05 39
        E 4 b9 05 17
        E 4 b9 05 5b
        E 4 b9 05 54
        E 4 b9 05 2e
        E 4 b9 05 24
        E 4 b9 05 50
        E 4 b9 05 25
        E 4 b9 05 47
        E 4 b9 05 0e
        E 4 b9 05 01
        E 4 b9 05 21
        E 4 b9 05 33
        E 4 b9 05 57
        E 4 b9 05 4e
        E 4 b9 05 03
        E 4 b9 05 57
        E 4 b9 05 4a
        E 4 b9 05 05
        E 4 b9 05 1f
        E 4 b9 05 3b
        E 4 b9 05 4c
        E 4 b9 05 61
        E 4 b9 05 3e
        E 4 b9 05 2a
        E 4 b9 05 1b
        E 4 b9 05 46
        E 4 b9 05 49
        E 4 b9 05 59
        E 4 b9 05 63
        E 4 b9 05 2f
        E 4 b9 05 40
        E 4 b9 05 45
        E 4 b9 05 35
        E 4 b9 05 5f
        E 4 b9 05 0f
        E 4 b9 05 24
        E 4 b9 05 43
        E 13 b9 05 16
        E 13 b9 05 4c
        E 13 b9 05 32
        E 13 b9 05 07
        E 13 b9 05 48
        E 13 b9 05 3f
        E 13 b9 05 09
        E 13 b9 05 08
        E 13 b9 05 30
        E 13 b9 05 5f
        E 13 b9 05 50
        E 13 b9 05 58
        E 13 b9 05 3f
        E 13 b9 05 0b
        E 13 b9 05 13
        E 13 b9 05 44
        E 13 b9 05 37
        E 13 b9 05 1c
        E 13 b9 05 14
        E 13 b9 05 1b
        E 13 b9 05 4f
        E 13 b9 05 2f
        E 13 b9 05 17
        E 13 b9 05 3a
        E 13 b9 05 64
        E 13 b9 05 00
        E 13 b9 05 0c
        E 13 b9 05 29
        E 13 b9 05 22
        E 13 b9 05 53
        E 13 b9 05 15
        E 13 b9 05 06
        E 13 b9 05 0f
        E 13 b9 05 11
        E 13 b9 05 5b
        E 13 b9 05 19
        E 13 b9 05 00
        E 13 b9 05 4b
        E 13 b9 05 23
        E 13 b9 05 14
        E 13 b9 05 28
        E 13 b9 05 1a
        E 13 b9 05 56
        E 13 b9 05 55
        E 13 b9 05 65
        E 13 b9 05 54
        E 13 b9 05 2b
        E 13 b9 05 5e
        E 13 b9 05 48
        E 13 b9 05 0b
        E 13 b9 05 2c
        E 13 b9 05 36
        E 13 b9 05 60
        E 13 b9 05 4d
        E 13 b9 05 37
        E 13 b9 05 38
        E 13 b9 05 04
        E 13 b9 05 0a
        E 13 b9 05 5d
        E 13 b9 05 51
        E 13 b9 05 2b
        E 13 b9 05 1f
        E 13 b9 05 0d
        E 13 b9 05 2d
        E 13 b9 05 1e
        E 13 b9 05 18
        E 13 b9 05 26
        E 13 b9 05 34
        E 13 b9 05 3d
        E 13 b9 05 41
        E 13 b9 05 10
        E 13 b9 05 3c
        E 13 b9 05 5a
        E 13 b9 05 33
        E 13 b9 05 3b
        E 13 b9 05 02
        E 13 b9 05 07
        E 13 b9 05 63
        E 13 b9 05 42
        E 13 b9 05 12
        E 13 b9 05 5c
        E 13 b9 05 20
        E 13 b9 05 27
        E 13 b9 05 31
        E 13 b9 05 28
        E 13 b9 05 44
        E 13 b9 05 52
        E 13 b9 05 1d
        E 13 b9 05 39
        E 13 b9 05 17
        E 13 b9 05 5b
        E 13 b9 05 54
        E 13 b9 05 2e
        E 13 b9 05 24
        E 13 b9 05 50
        E 13 b9 05 25
        E 13 b9 05 47
        E 13 b9 05 0e
        E 13 b9 05 01
        E 13 b9 05 21
        E 13 b9 05 33
        E 13 b9 05 57
        E 13 b9 05 4e
        E 13 b9 05 03
        E 13 b9 05 57
        E 13 b9 05 4a
        E 13 b9 05 05
        E 13 b9 05 1f
        E 13 b9 05 3b
        E 13 b9 05 4c
        E 13 b9 05 61
        E 13 b9 05 3e
        E 13 b9 05 2a
        E 13 b9 05 1b
        E 13 b9 05 46
        E 13 b9 05 49
        E 13 b9 05 59
        E 13 b9 05 63
        E 13 b9 05 2f
        E 13 b9 05 40
        E 13 b9 05 45
        E 13 b9 05 35
        E 13 b9 05 5f
        E 13 b9 05 0f
        E 13 b9 05 24
        E 13 b9 05 43
        E 10 b9 05 01
        E 10 b9 05 02
        E 10 b9 05 04
        E 10 b9 05 05
        E 10 b9 05 07
        E 10 b9 05 08
        E 10 b9 05 09
        E 10 b9 05 0b
        E 10 b9 05 0c
        E 10 b9 05 0e
        E 10 b9 05 0f
        E 10 b9 05 10
        E 10 b9 05 12
        E 10 b9 05 13
        E 10 b9 05 15
        E 10 b9 05 16
        E 10 b9 05 17
        E 10 b9 05 19
        E 10 b9 05 1a
        E 10 b9 05 1c
        E 10 b9 05 1d
        E 10 b9 05 1e
        E 10 b9 05 20
        E 10 b9 05 21
        E 10 b9 05 23
        E 10 b9 05 24
        E 10 b9 05 25
        E 10 b9 05 27
        E 10 b9 05 28
        E 10 b9 05 2a
        E 10 b9 05 2b
        E 10 b9 05 2c
        E 10 b9 05 2e
        E 10 b9 05 2f
        E 10 b9 05 31
        E 10 b9 05 32
        E 10 b9 05 33
        E 10 b9 05 35
        E 10 b9 05 36
        E 10 b9 05 38
        E 10 b9 05 39
        E 10 b9 05 3a
        E 10 b9 05 3c
        E 10 b9 05 3d
        E 10 b9 05 3e
        E 10 b9 05 40
        E 10 b9 05 41
        E 10 b9 05 43
        E 10 b9 05 44
        E 10 b9 05 46
        E 10 b9 05 47
        E 10 b9 05 48
        E 10 b9 05 4a
        E 10 b9 05 4b
        E 10 b9 05 4d
        E 10 b9 05 4e
        E 10 b9 05 4f
        E 10 b9 05 51
        E 10 b9 05 52
        E 10 b9 05 54
        E 10 b9 05 55
        E 10 b9 05 56
        E 10 b9 05 58
        E 10 b9 05 58
        E 10 b9 05 58
        E 10 b9 05 56
        E 10 b9 05 55
        E 10 b9 05 54
        E 10 b9 05 52
        E 10 b9 05 51
        E 10 b9 05 4f
        E 10 b9 05 4e
        E 10 b9 05 4d
        E 10 b9 05 4b
        E 10 b9 05 4a
        E 10 b9 05 48
        E 10 b9 05 47
        E 10 b9 05 46
        E 10 b9 05 44
        E 10 b9 05 43
        E 10 b9 05 41
        E 10 b9 05 40
        E 10 b9 05 3e
        E 10 b9 05 3d
        E 10 b9 05 3c
        E 10 b9 05 3a
        E 10 b9 05 39
        E 10 b9 05 38
        E 10 b9 05 36
        E 10 b9 05 35
        E 10 b9 05 33
        E 10 b9 05 32
        E 10 b9 05 31
        E 10 b9 05 2f
        E 10 b9 05 2e
        E 10 b9 05 2c
        E 10 b9 05 2b
        E 10 b9 05 2a
        E 10 b9 05 28
        E 10 b9 05 27
        E 10 b9 05 25
        E 10 b9 05 24
        E 10 b9 05 23
        E 10 b9 05 21
        E 10 b9 05 20
        E 10 b9 05 1e
        E 10 b9 05 1d
        E 10 b9 05 1c
        E 10 b9 05 1a
        E 10 b9 05 19
        E 10 b9 05 17
        E 10 b9 05 16
        E 10 b9 05 15
        E 10 b9 05 13
        E 10 b9 05 12
        E 10 b9 05 10
        E 10 b9 05 0f
        E 10 b9 05 0e
        E 10 b9 05 0c
        E 10 b9 05 0b
        E 10 b9 05 09
        E 10 b9 05 08
        E 10 b9 05 07
        E 10 b9 05 05
        E 10 b9 05 04
        E 10 b9 05 02
        E 10 b9 05 01
        E 10 b9 05 00
        E 2 b9 05 00
        E 2 b9 05 01
        E 2 b9 05 02
        E 2 b9 05 03
        E 2 b9 05 04
        E 2 b9 05 04
        E 2 b9 05 05
        E 2 b9 05 06
        E 2 b9 05 07
        E 2 b9 05 08
        E 2 b9 05 08
        E 2 b9 05 09
        E 2 b9 05 0a
        E 2 b9 05 0b
        E 2 b9 05 0c
        E 2 b9 05 0c
        E 2 b9 05 0d
        E 2 b9 05 0e
        E 2 b9 05 0f
        E 2 b9 05 10
        E 2 b9 05 10
        E 2 b9 05 11
        E 2 b9 05 12
        E 2 b9 05 13
        E 2 b9 05 14
        E 2 b9 05 14
        E 2 b9 05 15
        E 2 b9 05 16
        E 2 b9 05 17
        E 2 b9 05 18
        E 2 b9 05 18
        E 2 b9 05 19
        E 2 b9 05 1a
        E 2 b9 05 1b
        E 2 b9 05 1c
        E 2 b9 05 1c
        E 2 b9 05 1d
        E 2 b9 05 1e
        E 2 b9 05 1f
        E 2 b9 05 20
        E 2 b9 05 20
        E 2 b9 05 21
        E 2 b9 05 22
        E 2 b9 05 23
        E 2 b9 05 24
        E 2 b9 05 24
        E 2 b9 05 25
        E 2 b9 05 26
        E 2 b9 05 27
        E 2 b9 05 28
        E 2 b9 05 28
        E 2 b9 05 29
        E 2 b9 05 2a
        E 2 b9 05 2b
        E 2 b9 05 2c
        E 2 b9 05 2c
        E 2 b9 05 2d
        E 2 b9 05 2e
        E 2 b9 05 2f
        E 2 b9 05 30
        E 2 b9 05 30
        E 2 b9 05 31
        E 2 b9 05 32
        E 2 b9 05 32
        E 2 b9 05 32
        E 2 b9 05 31
        E 2 b9 05 30
        E 2 b9 05 30
        E 2 b9 05 2f
        E 2 b9 05 2e
        E 2 b9 05 2d
        E 2 b9 05 2c
        E 2 b9 05 2c
        E 2 b9 05 2b
        E 2 b9 05 2a
        E 2 b9 05 29
        E 2 b9 05 28
        E 2 b9 05 28
        E 2 b9 05 27
        E 2 b9 05 26
        E 2 b9 05 25
        E 2 b9 05 24
        E 2 b9 05 24
        E 2 b9 05 23
        E 2 b9 05 22
        E 2 b9 05 21
        E 2 b9 05 20
        E 2 b9 05 20
        E 2 b9 05 1f
        E 2 b9 05 1e
        E 2 b9 05 1d
        E 2 b9 05 1c
        E 2 b9 05 1c
        E 2 b9 05 1b
        E 2 b9 05 1a
        E 2 b9 05 19
        E 2 b9 05 18
        E 2 b9 05 18
        E 2 b9 05 17
        E 2 b9 05 16
        E 2 b9 05 15
        E 2 b9 05 14
        E 2 b9 05 14
        E 2 b9 05 13
        E 2 b9 05 12
        E 2 b9 05 11
        E 2 b9 05 10
        E 2 b9 05 10
        E 2 b9 05 0f
        E 2 b9 05 0e
        E 2 b9 05 0d
        E 2 b9 05 0c
        E 2 b9 05 0c
        E 2 b9 05 0b
        E 2 b9 05 0a
        E 2 b9 05 09
        E 2 b9 05 08
        E 2 b9 05 08
        E 2 b9 05 07
        E 2 b9 05 06
        E 2 b9 05 05
        E 2 b9 05 04
        E 2 b9 05 04
        E 2 b9 05 03
        E 2 b9 05 02
        E 2 b9 05 01
        E 2 b9 05 00
        E 2 b9 05 00
        E 6 b9 05 01
        E 6 b9 05 03
        E 6 b9 05 04
        E 6 b9 05 06
        E 6 b9 05 07
        E 6 b9 05 09
        E 6 b9 05 0b
        E 6 b9 05 0c
        E 6 b9 05 0e
        E 6 b9 05 0f
        E 6 b9 05 11
        E 6 b9 05 13
        E 6 b9 05 14
        E 6 b9 05 16
        E 6 b9 05 17
        E 6 b9 05 19
        E 6 b9 05 1b
        E 6 b9 05 1c
        E 6 b9 05 1e
        E 6 b9 05 1f
        E 6 b9 05 21
        E 6 b9 05 23
        E 6 b9 05 24
        E 6 b9 05 26
        E 6 b9 05 28
        E 6 b9 05 29
        E 6 b9 05 2b
        E 6 b9 05 2c
        E 6 b9 05 2e
        E 6 b9 05 2f
        E 6 b9 05 31
        E 6 b9 05 33
        E 6 b9 05 34
        E 6 b9 05 36
        E 6 b9 05 37
        E 6 b9 05 39
        E 6 b9 05 3b
        E 6 b9 05 3c
        E 6 b9 05 3e
        E 6 b9 05 3f
        E 6 b9 05 41
        E 6 b9 05 43
        E 6 b9 05 44
        E 6 b9 05 46
        E 6 b9 05 48
        E 6 b9 05 49
        E 6 b9 05 4b
        E 6 b9 05 4c
        E 6 b9 05 4e
        E 6 b9 05 50
        E 6 b9 05 51
        E 6 b9 05 53
        E 6 b9 05 54
        E 6 b9 05 56
        E 6 b9 05 57
        E 6 b9 05 59
        E 6 b9 05 5b
        E 6 b9 05 5c
        E 6 b9 05 5e
        E 6 b9 05 5f
        E 6 b9 05 61
        E 6 b9 05 63
        E 6 b9 05 64
        E 6 b9 05 65
        E 6 b9 05 64
        E 6 b9 05 63
        E 6 b9 05 61
        E 6 b9 05 5f
        E 6 b9 05 5e
        E 6 b9 05 5c
        E 6 b9 05 5b
        E 6 b9 05 59
        E 6 b9 05 57
        E 6 b9 05 56
        E 6 b9 05 54
        E 6 b9 05 53
        E 6 b9 05 51
        E 6 b9 05 50
        E 6 b9 05 4e
        E 6 b9 05 4c
        E 6 b9 05 4b
        E 6 b9 05 49
        E 6 b9 05 48
        E 6 b9 05 46
        E 6 b9 05 44
        E 6 b9 05 43
        E 6 b9 05 41
        E 6 b9 05 3f
        E 6 b9 05 3e
        E 6 b9 05 3c
        E 6 b9 05 3b
        E 6 b9 05 39
        E 6 b9 05 37
        E 6 b9 05 36
        E 6 b9 05 34
        E 6 b9 05 33
        E 6 b9 05 31
        E 6 b9 05 2f
        E 6 b9 05 2e
        E 6 b9 05 2c
        E 6 b9 05 2b
        E 6 b9 05 29
        E 6 b9 05 28
        E 6 b9 05 26
        E 6 b9 05 24
        E 6 b9 05 23
        E 6 b9 05 21
        E 6 b9 05 1f
        E 6 b9 05 1e
        E 6 b9 05 1c
        E 6 b9 05 1b
        E 6 b9 05 19
        E 6 b9 05 17
        E 6 b9 05 16
        E 6 b9 05 14
        E 6 b9 05 13
        E 6 b9 05 11
        E 6 b9 05 0f
        E 6 b9 05 0e
        E 6 b9 05 0c
        E 6 b9 05 0b
        E 6 b9 05 09
        E 6 b9 05 07
        E 6 b9 05 06
        E 6 b9 05 04
        E 6 b9 05 03
        E 6 b9 05 01
        E 6 b9 05 00
        E 18 b9 05 01
        E 18 b9 05 03
        E 18 b9 05 04
        E 18 b9 05 06
        E 18 b9 05 07
        E 18 b9 05 09
        E 18 b9 05 0b
        E 18 b9 05 0c
        E 18 b9 05 0e
        E 18 b9 05 0f
        E 18 b9 05 11
        E 18 b9 05 13
        E 18 b9 05 14
        E 18 b9 05 16
        E 18 b9 05 17
        E 18 b9 05 19
        E 18 b9 05 1b
        E 18 b9 05 1c
        E 18 b9 05 1e
        E 18 b9 05 1f
        E 18 b9 05 21
        E 18 b9 05 23
        E 18 b9 05 24
        E 18 b9 05 26
        E 18 b9 05 28
        E 18 b9 05 29
        E 18 b9 05 2b
        E 18 b9 05 2c
        E 18 b9 05 2e
        E 18 b9 05 2f
        E 18 b9 05 31
        E 18 b9 05 33
        E 18 b9 05 34
        E 18 b9 05 36
        E 18 b9 05 37
        E 18 b9 05 39
        E 18 b9 05 3b
        E 18 b9 05 3c
        E 18 b9 05 3e
        E 18 b9 05 3f
        E 18 b9 05 41
        E 18 b9 05 43
        E 18 b9 05 44
        E 18 b9 05 46
        E 18 b9 05 48
        E 18 b9 05 49
        E 18 b9 05 4b
        E 18 b9 05 4c
        E 18 b9 05 4e
        E 18 b9 05 50
        E 18 b9 05 51
        E 18 b9 05 53
        E 18 b9 05 54
        E 18 b9 05 56
        E 18 b9 05 57
        E 18 b9 05 59
        E 18 b9 05 5b
        E 18 b9 05 5c
        E 18 b9 05 5e
        E 18 b9 05 5f
        E 18 b9 05 61
        E 18 b9 05 63
        E 18 b9 05 64
        E 18 b9 05 65
        E 18 b9 05 64
        E 18 b9 05 63
        E 18 b9 05 61
        E 18 b9 05 5f
        E 18 b9 05 5e
        E 18 b9 05 5c
        E 18 b9 05 5b
        E 18 b9 05 59
        E 18 b9 05 57
        E 18 b9 05 56
        E 18 b9 05 54
        E 18 b9 05 53
        E 18 b9 05 51
        E 18 b9 05 50
        E 18 b9 05 4e
        E 18 b9 05 4c
        E 18 b9 05 4b
        E 18 b9 05 49
        E 18 b9 05 48
        E 18 b9 05 46
        E 18 b9 05 44
        E 18 b9 05 43
        E 18 b9 05 41
        E 18 b9 05 3f
        E 18 b9 05 3e
        E 18 b9 05 3c
        E 18 b9 05 3b
        E 18 b9 05 39
        E 18 b9 05 37
        E 18 b9 05 36
        E 18 b9 05 34
        E 18 b9 05 33
        E 18 b9 05 31
        E 18 b9 05 2f
        E 18 b9 05 2e
        E 18 b9 05 2c
        E 18 b9 05 2b
        E 18 b9 05 29
        E 18 b9 05 28
        E 18 b9 05 26
        E 18 b9 05 24
        E 18 b9 05 23
        E 18 b9 05 21
        E 18 b9 05 1f
        E 18 b9 05 1e
        E 18 b9 05 1c
        E 18 b9 05 1b
        E 18 b9 05 19
        E 18 b9 05 17
        E 18 b9 05 16
        E 18 b9 05 14
        E 18 b9 05 13
        E 18 b9 05 11
        E 18 b9 05 0f
        E 18 b9 05 0e
        E 18 b9 05 0c
        E 18 b9 05 0b
        E 18 b9 05 09
        E 18 b9 05 07
        E 18 b9 05 06
        E 18 b9 05 04
        E 18 b9 05 03
        E 18 b9 05 01
        E 18 b9 05 00
        E 4 b9 05 01
        E 4 b9 05 02
        E 4 b9 05 03
        E 4 b9 05 04
        E 4 b9 05 06
        E 4 b9 05 07
        E 4 b9 05 08
        E 4 b9 05 09
        E 4 b9 05 0a
        E 4 b9 05 0c
        E 4 b9 05 0d
        E 4 b9 05 0e
        E 4 b9 05 0f
        E 4 b9 05 10
        E 4 b9 05 12
        E 4 b9 05 13
        E 4 b9 05 14
        E 4 b9 05 15
        E 4 b9 05 16
        E 4 b9 05 18
        E 4 b9 05 19
        E 4 b9 05 1a
        E 4 b9 05 1b
        E 4 b9 05 1c
        E 4 b9 05 1e
        E 4 b9 05 1f
        E 4 b9 05 20
        E 4 b9 05 21
        E 4 b9 05 22
        E 4 b9 05 24
        E 4 b9 05 25
        E 4 b9 05 26
        E 4 b9 05 27
        E 4 b9 05 28
        E 4 b9 05 2a
        E 4 b9 05 2b
        E 4 b9 05 2c
        E 4 b9 05 2d
        E 4 b9 05 2e
        E 4 b9 05 30
        E 4 b9 05 31
        E 4 b9 05 32
        E 4 b9 05 33
        E 4 b9 05 34
        E 4 b9 05 36
        E 4 b9 05 37
        E 4 b9 05 38
        E 4 b9 05 39
        E 4 b9 05 3a
        E 4 b9 05 3c
        E 4 b9 05 3d
        E 4 b9 05 3e
        E 4 b9 05 3f
        E 4 b9 05 40
        E 4 b9 05 42
        E 4 b9 05 43
        E 4 b9 05 44
        E 4 b9 05 45
        E 4 b9 05 46
        E 4 b9 05 48
        E 4 b9 05 49
        E 4 b9 05 4a
        E 4 b9 05 4b
        E 4 b9 05 4c
        E 4 b9 05 4b
        E 4 b9 05 4a
        E 4 b9 05 49
        E 4 b9 05 48
        E 4 b9 05 46
        E 4 b9 05 45
        E 4 b9 05 44
        E 4 b9 05 43
        E 4 b9 05 42
        E 4 b9 05 40
        E 4 b9 05 3f
        E 4 b9 05 3e
        E 4 b9 05 3d
        E 4 b9 05 3c
        E 4 b9 05 3a
        E 4 b9 05 39
        E 4 b9 05 38
        E 4 b9 05 37
        E 4 b9 05 36
        E 4 b9 05 34
        E 4 b9 05 33
        E 4 b9 05 32
        E 4 b9 05 31
        E 4 b9 05 30
        E 4 b9 05 2e
        E 4 b9 05 2d
        E 4 b9 05 2c
        E 4 b9 05 2b
        E 4 b9 05 2a
        E 4 b9 05 28
        E 4 b9 05 27
        E 4 b9 05 26
        E 4 b9 05 25
        E 4 b9 05 24
        E 4 b9 05 22
        E 4 b9 05 21
        E 4 b9 05 20
        E 4 b9 05 1f
        E 4 b9 05 1e
        E 4 b9 05 1c
        E 4 b9 05 1b
        E 4 b9 05 1a
        E 4 b9 05 19
        E 4 b9 05 18
        E 4 b9 05 16
        E 4 b9 05 15
        E 4 b9 05 14
        E 4 b9 05 13
        E 4 b9 05 12
        E 4 b9 05 10
        E 4 b9 05 0f
        E 4 b9 05 0e
        E 4 b9 05 0d
        E 4 b9 05 0c
        E 4 b9 05 0a
        E 4 b9 05 09
        E 4 b9 05 08
        E 4 b9 05 07
        E 4 b9 05 06
        E 4 b9 05 04
        E 4 b9 05 03
        E 4 b9 05 02
        E 4 b9 05 01
        E 4 b9 05 00
        E 18 b9 05 00
        E 18 b9 05 01
        E 18 b9 05 02
        E 18 b9 05 03
        E 18 b9 05 04
        E 18 b9 05 04
        E 18 b9 05 05
        E 18 b9 05 06
        E 18 b9 05 07
        E 18 b9 05 08
        E 18 b9 05 08
        E 18 b9 05 09
        E 18 b9 05 0a
        E 18 b9 05 0b
        E 18 b9 05 0c
        E 18 b9 05 0c
        E 18 b9 05 0d
        E 18 b9 05 0e
        E 18 b9 05 0f
        E 18 b9 05 10
        E 18 b9 05 10
        E 18 b9 05 11
        E 18 b9 05 12
        E 18 b9 05 13
        E 18 b9 05 14
        E 18 b9 05 14
        E 18 b9 05 15
        E 18 b9 05 16
        E 18 b9 05 17
        E 18 b9 05 18
        E 18 b9 05 18
        E 18 b9 05 19
        E 18 b9 05 1a
        E 18 b9 05 1b
        E 18 b9 05 1c
        E 18 b9 05 1c
        E 18 b9 05 1d
        E 18 b9 05 1e
        E 18 b9 05 1f
        E 18 b9 05 20
        E 18 b9 05 20
        E 18 b9 05 21
        E 18 b9 05 22
        E 18 b9 05 23
        E 18 b9 05 24
        E 18 b9 05 24
        E 18 b9 05 25
        E 18 b9 05 26
        E 18 b9 05 27
        E 18 b9 05 28
        E 18 b9 05 28
        E 18 b9 05 29
        E 18 b9 05 2a
        E 18 b9 05 2b
        E 18 b9 05 2c
        E 18 b9 05 2c
        E 18 b9 05 2d
        E 18 b9 05 2e
        E 18 b9 05 2f
        E 18 b9 05 30
        E 18 b9 05 30
        E 18 b9 05 31
        E 18 b9 05 32
        E 18 b9 05 32
        E 18 b9 05 32
        E 18 b9 05 31
        E 18 b9 05 30
        E 18 b9 05 30
        E 18 b9 05 2f
        E 18 b9 05 2e
        E 18 b9 05 2d
        E 18 b9 05 2c
        E 18 b9 05 2c
        E 18 b9 05 2b
        E 18 b9 05 2a
        E 18 b9 05 29
        E 18 b9 05 28
        E 18 b9 05 28
        E 18 b9 05 27
        E 18 b9 05 26
        E 18 b9 05 25
        E 18 b9 05 24
        E 18 b9 05 24
        E 18 b9 05 23
        E 18 b9 05 22
        E 18 b9 05 21
        E 18 b9 05 20
        E 18 b9 05 20
        E 18 b9 05 1f
        E 18 b9 05 1e
        E 18 b9 05 1d
        E 18 b9 05 1c
        E 18 b9 05 1c
        E 18 b9 05 1b
        E 18 b9 05 1a
        E 18 b9 05 19
        E 18 b9 05 18
        E 18 b9 05 18
        E 18 b9 05 17
        E 18 b9 05 16
        E 18 b9 05 15
        E 18 b9 05 14
        E 18 b9 05 14
        E 18 b9 05 13
        E 18 b9 05 12
        E 18 b9 05 11
        E 18 b9 05 10
        E 18 b9 05 10
        E 18 b9 05 0f
        E 18 b9 05 0e
        E 18 b9 05 0d
        E 18 b9 05 0c
        E 18 b9 05 0c
        E 18 b9 05 0b
        E 18 b9 05 0a
        E 18 b9 05 09
        E 18 b9 05 08
        E 18 b9 05 08
        E 18 b9 05 07
        E 18 b9 05 06
        E 18 b9 05 05
        E 18 b9 05 04
        E 18 b9 05 04
        E 18 b9 05 03
        E 18 b9 05 02
        E 18 b9 05 01
        E 18 b9 05 00
        E 18 b9 05 00
        E 10 b9 05 01
        E 10 b9 05 02
        E 10 b9 05 04
        E 10 b9 05 05
        E 10 b9 05 07
        E 10 b9 05 08
        E 10 b9 05 09
        E 10 b9 05 0b
        E 10 b9 05 0c
        E 10 b9 05 0e
        E 10 b9 05 0f
        E 10 b9 05 10
        E 10 b9 05 12
        E 10 b9 05 13
        E 10 b9 05 15
        E 10 b9 05 16
        E 10 b9 05 17
        E 10 b9 05 19
        E 10 b9 05 1a
        E 10 b9 05 1c
        E 10 b9 05 1d
        E 10 b9 05 1e
        E 10 b9 05 20
        E 10 b9 05 21
        E 10 b9 05 23
        E 10 b9 05 24
        E 10 b9 05 25
        E 10 b9 05 27
        E 10 b9 05 28
        E 10 b9 05 2a
        E 10 b9 05 2b
        E 10 b9 05 2c
        E 10 b9 05 2e
        E 10 b9 05 2f
        E 10 b9 05 31
        E 10 b9 05 32
        E 10 b9 05 33
        E 10 b9 05 35
        E 10 b9 05 36
        E 10 b9 05 38
        E 10 b9 05 39
        E 10 b9 05 3a
        E 10 b9 05 3c
        E 10 b9 05 3d
        E 10 b9 05 3e
        E 10 b9 05 40
        E 10 b9 05 41
        E 10 b9 05 43
        E 10 b9 05 44
        E 10 b9 05 46
        E 10 b9 05 47
        E 10 b9 05 48
        E 10 b9 05 4a
        E 10 b9 05 4b
        E 10 b9 05 4d
        E 10 b9 05 4e
        E 10 b9 05 4f
        E 10 b9 05 51
        E 10 b9 05 52
        E 10 b9 05 54
        E 10 b9 05 55
        E 10 b9 05 56
        E 10 b9 05 58
        E 10 b9 05 58
        E 10 b9 05 58
        E 10 b9 05 56
        E 10 b9 05 55
        E 10 b9 05 54
        E 10 b9 05 52
        E 10 b9 05 51
        E 10 b9 05 4f
        E 10 b9 05 4e
        E 10 b9 05 4d
        E 10 b9 05 4b
        E 10 b9 05 4a
        E 10 b9 05 48
        E 10 b9 05 47
        E 10 b9 05 46
        E 10 b9 05 44
        E 10 b9 05 43
        E 10 b9 05 41
        E 10 b9 05 40
        E 10 b9 05 3e
        E 10 b9 05 3d
        E 10 b9 05 3c
        E 10 b9 05 3a
        E 10 b9 05 39
        E 10 b9 05 38
        E 10 b9 05 36
        E 10 b9 05 35
        E 10 b9 05 33
        E 10 b9 05 32
        E 10 b9 05 31
        E 10 b9 05 2f
        E 10 b9 05 2e
        E 10 b9 05 2c
        E 10 b9 05 2b
        E 10 b9 05 2a
        E 10 b9 05 28
        E 10 b9 05 27
        E 10 b9 05 25
        E 10 b9 05 24
        E 10 b9 05 23
        E 10 b9 05 21
        E 10 b9 05 20
        E 10 b9 05 1e
        E 10 b9 05 1d
        E 10 b9 05 1c
        E 10 b9 05 1a
        E 10 b9 05 19
        E 10 b9 05 17
        E 10 b9 05 16
        E 10 b9 05 15
        E 10 b9 05 13
        E 10 b9 05 12
        E 10 b9 05 10
        E 10 b9 05 0f
        E 10 b9 05 0e
        E 10 b9 05 0c
        E 10 b9 05 0b
        E 10 b9 05 09
        E 10 b9 05 08
        E 10 b9 05 07
        E 10 b9 05 05
        E 10 b9 05 04
        E 10 b9 05 02
        E 10 b9 05 01
        E 10 b9 05 00
        E 2 b9 05 00
        E 2 b9 05 01
        E 2 b9 05 02
        E 2 b9 05 03
        E 2 b9 05 04
        E 2 b9 05 04
        E 2 b9 05 05
        E 2 b9 05 06
        E 2 b9 05 07
        E 2 b9 05 08
        E 2 b9 05 08
        E 2 b9 05 09
        E 2 b9 05 0a
        E 2 b9 05 0b
        E 2 b9 05 0c
        E 2 b9 05 0c
        E 2 b9 05 0d
        E 2 b9 05 0e
        E 2 b9 05 0f
        E 2 b9 05 10
        E 2 b9 05 10
        E 2 b9 05 11
        E 2 b9 05 12
        E 2 b9 05 13
        E 2 b9 05 14
        E 2 b9 05 14
        E 2 b9 05 15
        E 2 b9 05 16
        E 2 b9 05 17
        E 2 b9 05 18
        E 2 b9 05 18
        E 2 b9 05 19
        E 2 b9 05 1a
        E 2 b9 05 1b
        E 2 b9 05 1c
        E 2 b9 05 1c
        E 2 b9 05 1d
        E 2 b9 05 1e
        E 2 b9 05 1f
        E 2 b9 05 20
        E 2 b9 05 20
        E 2 b9 05 21
        E 2 b9 05 22
        E 2 b9 05 23
        E 2 b9 05 24
        E 2 b9 05 24
        E 2 b9 05 25
        E 2 b9 05 26
        E 2 b9 05 27
        E 2 b9 05 28
        E 2 b9 05 28
        E 2 b9 05 29
        E 2 b9 05 2a
        E 2 b9 05 2b
        E 2 b9 05 2c
        E 2 b9 05 2c
        E 2 b9 05 2d
        E 2 b9 05 2e
        E 2 b9 05 2f
        E 2 b9 05 30
        E 2 b9 05 30
        E 2 b9 05 31
        E 2 b9 05 32
        E 2 b9 05 32
        E 2 b9 05 32
        E 2 b9 05 31
        E 2 b9 05 30
        E 2 b9 05 30
        E 2 b9 05 2f
        E 2 b9 05 2e
        E 2 b9 05 2d
        E 2 b9 05 2c
        E 2 b9 05 2c
        E 2 b9 05 2b
        E 2 b9 05 2a
        E 2 b9 05 29
        E 2 b9 05 28
        E 2 b9 05 28
        E 2 b9 05 27
        E 2 b9 05 26
        E 2 b9 05 25
        E 2 b9 05 24
        E 2 b9 05 24
        E 2 b9 05 23
        E 2 b9 05 22
        E 2 b9 05 21
        E 2 b9 05 20
        E 2 b9 05 20
        E 2 b9 05 1f
        E 2 b9 05 1e
        E 2 b9 05 1d
        E 2 b9 05 1c
        E 2 b9 05 1c
        E 2 b9 05 1b
        E 2 b9 05 1a
        E 2 b9 05 19
        E 2 b9 05 18
        E 2 b9 05 18
        E 2 b9 05 17
        E 2 b9 05 16
        E 2 b9 05 15
        E 2 b9 05 14
        E 2 b9 05 14
        E 2 b9 05 13
        E 2 b9 05 12
        E 2 b9 05 11
        E 2 b9 05 10
        E 2 b9 05 10
        E 2 b9 05 0f
        E 2 b9 05 0e
        E 2 b9 05 0d
        E 2 b9 05 0c
        E 2 b9 05 0c
        E 2 b9 05 0b
        E 2 b9 05 0a
        E 2 b9 05 09
        E 2 b9 05 08
        E 2 b9 05 08
        E 2 b9 05 07
        E 2 b9 05 06
        E 2 b9 05 05
        E 2 b9 05 04
        E 2 b9 05 04
        E 2 b9 05 03
        E 2 b9 05 02
        E 2 b9 05 01
        E 2 b9 05 00
        E 2 b9 05 00
        E 6 b9 05 01
        E 6 b9 05 03
        E 6 b9 05 04
        E 6 b9 05 06
        E 6 b9 05 07
        E 6 b9 05 09
        E 6 b9 05 0b
        E 6 b9 05 0c
        E 6 b9 05 0e
        E 6 b9 05 0f
        E 6 b9 05 11
        E 6 b9 05 13
        E 6 b9 05 14
        E 6 b9 05 16
        E 6 b9 05 17
        E 6 b9 05 19
        E 6 b9 05 1b
        E 6 b9 05 1c
        E 6 b9 05 1e
        E 6 b9 05 1f
        E 6 b9 05 21
        E 6 b9 05 23
        E 6 b9 05 24
        E 6 b9 05 26
        E 6 b9 05 28
        E 6 b9 05 29
        E 6 b9 05 2b
        E 6 b9 05 2c
        E 6 b9 05 2e
        E 6 b9 05 2f
        E 6 b9 05 31
        E 6 b9 05 33
        E 6 b9 05 34
        E 6 b9 05 36
        E 6 b9 05 37
        E 6 b9 05 39
        E 6 b9 05 3b
        E 6 b9 05 3c
        E 6 b9 05 3e
        E 6 b9 05 3f
        E 6 b9 05 41
        E 6 b9 05 43
        E 6 b9 05 44
        E 6 b9 05 46
        E 6 b9 05 48
        E 6 b9 05 49
        E 6 b9 05 4b
        E 6 b9 05 4c
        E 6 b9 05 4e
        E 6 b9 05 50
        E 6 b9 05 51
        E 6 b9 05 53
        E 6 b9 05 54
        E 6 b9 05 56
        E 6 b9 05 57
        E 6 b9 05 59
        E 6 b9 05 5b
        E 6 b9 05 5c
        E 6 b9 05 5e
        E 6 b9 05 5f
        E 6 b9 05 61
        E 6 b9 05 63
        E 6 b9 05 64
        E 6 b9 05 65
        E 6 b9 05 64
        E 6 b9 05 63
        E 6 b9 05 61
        E 6 b9 05 5f
        E 6 b9 05 5e
        E 6 b9 05 5c
        E 6 b9 05 5b
        E 6 b9 05 59
        E 6 b9 05 57
        E 6 b9 05 56
        E 6 b9 05 54
        E 6 b9 05 53
        E 6 b9 05 51
        E 6 b9 05 50
        E 6 b9 05 4e
        E 6 b9 05 4c
        E 6 b9 05 4b
        E 6 b9 05 49
        E 6 b9 05 48
        E 6 b9 05 46
        E 6 b9 05 44
        E 6 b9 05 43
        E 6 b9 05 41
        E 6 b9 05 3f
        E 6 b9 05 3e
        E 6 b9 05 3c
        E 6 b9 05 3b
        E 6 b9 05 39
        E 6 b9 05 37
        E 6 b9 05 36
        E 6 b9 05 34
        E 6 b9 05 33
        E 6 b9 05 31
        E 6 b9 05 2f
        E 6 b9 05 2e
        E 6 b9 05 2c
        E 6 b9 05 2b
        E 6 b9 05 29
        E 6 b9 05 28
        E 6 b9 05 26
        E 6 b9 05 24
        E 6 b9 05 23
        E 6 b9 05 21
        E 6 b9 05 1f
        E 6 b9 05 1e
        E 6 b9 05 1c
        E 6 b9 05 1b
        E 6 b9 05 19
        E 6 b9 05 17
        E 6 b9 05 16
        E 6 b9 05 14
        E 6 b9 05 13
        E 6 b9 05 11
        E 6 b9 05 0f
        E 6 b9 05 0e
        E 6 b9 05 0c
        E 6 b9 05 0b
        E 6 b9 05 09
        E 6 b9 05 07
        E 6 b9 05 06
        E 6 b9 05 04
        E 6 b9 05 03
        E 6 b9 05 01
        E 6 b9 05 00
        E 70 b9 05 0b
        E 70 b9 05 26
        E 70 b9 05 19
        E 70 b9 05 04
        E 70 b9 05 24
        E 70 b9 05 20
        E 70 b9 05 04
        E 70 b9 05 04
        E 70 b9 05 18
        E 70 b9 05 30
        E 70 b9 05 28
        E 70 b9 05 2c
        E 70 b9 05 1f
        E 70 b9 05 05
        E 70 b9 05 09
        E 70 b9 05 22
        E 70 b9 05 1c
        E 70 b9 05 0e
        E 70 b9 05 0a
        E 70 b9 05 0d
        E 70 b9 05 27
        E 70 b9 05 17
        E 70 b9 05 0c
        E 70 b9 05 1d
        E 70 b9 05 32
        E 70 b9 05 00
        E 70 b9 05 06
        E 70 b9 05 14
        E 70 b9 05 11
        E 70 b9 05 29
        E 70 b9 05 0a
        E 70 b9 05 03
        E 70 b9 05 08
        E 70 b9 05 08
        E 70 b9 05 2e
        E 70 b9 05 0c
        E 70 b9 05 00
        E 70 b9 05 25
        E 70 b9 05 11
        E 70 b9 05 0a
        E 70 b9 05 14
        E 70 b9 05 0d
        E 70 b9 05 2b
        E 70 b9 05 2a
        E 70 b9 05 32
        E 70 b9 05 2a
        E 70 b9 05 16
        E 70 b9 05 2f
        E 70 b9 05 24
        E 70 b9 05 06
        E 70 b9 05 16
        E 70 b9 05 1b
        E 70 b9 05 30
        E 70 b9 05 26
        E 70 b9 05 1b
        E 70 b9 05 1c
        E 70 b9 05 02
        E 70 b9 05 05
        E 70 b9 05 2e
        E 70 b9 05 28
        E 70 b9 05 15
        E 70 b9 05 10
        E 70 b9 05 06
        E 70 b9 05 16
        E 70 b9 05 0f
        E 70 b9 05 0c
        E 70 b9 05 13
        E 70 b9 05 1a
        E 70 b9 05 1e
        E 70 b9 05 20
        E 70 b9 05 08
        E 70 b9 05 1e
        E 70 b9 05 2d
        E 70 b9 05 1a
        E 70 b9 05 1d
        E 70 b9 05 01
        E 70 b9 05 03
        E 70 b9 05 32
        E 70 b9 05 21
        E 70 b9 05 09
        E 70 b9 05 2e
        E 70 b9 05 10
        E 70 b9 05 13
        E 70 b9 05 18
        E 70 b9 05 14
        E 70 b9 05 22
        E 70 b9 05 29
        E 70 b9 05 0e
        E 70 b9 05 1c
        E 70 b9 05 0b
        E 70 b9 05 2d
        E 70 b9 05 2a
        E 70 b9 05 17
        E 70 b9 05 12
        E 70 b9 05 28
        E 70 b9 05 12
        E 70 b9 05 23
        E 70 b9 05 07
        E 70 b9 05 00
        E 70 b9 05 10
        E 70 b9 05 19
        E 70 b9 05 2b
        E 70 b9 05 27
        E 70 b9 05 01
        E 70 b9 05 2c
        E 70 b9 05 25
        E 70 b9 05 02
        E 70 b9 05 0f
        E 70 b9 05 1e
        E 70 b9 05 26
        E 70 b9 05 30
        E 70 b9 05 1f
        E 70 b9 05 15
        E 70 b9 05 0e
        E 70 b9 05 23
        E 70 b9 05 24
        E 70 b9 05 2c
        E 70 b9 05 31
        E 70 b9 05 18
        E 70 b9 05 20
        E 70 b9 05 22
        E 70 b9 05 1a
        E 70 b9 05 2f
        E 70 b9 05 07
        E 70 b9 05 12
        E 70 b9 05 21
        E 39 b9 05 13
        E 39 b9 05 43
        E 39 b9 05 2c
        E 39 b9 05 07
        E 39 b9 05 3e
        E 39 b9 05 38
        E 39 b9 05 08
        E 39 b9 05 07
        E 39 b9 05 2a
        E 39 b9 05 54
        E 39 b9 05 46
        E 39 b9 05 4d
        E 39 b9 05 37
        E 39 b9 05 09
        E 39 b9 05 10
        E 39 b9 05 3c
        E 39 b9 05 31
        E 39 b9 05 19
        E 39 b9 05 11
        E 39 b9 05 17
        E 39 b9 05 45
        E 39 b9 05 29
        E 39 b9 05 15
        E 39 b9 05 33
        E 39 b9 05 58
        E 39 b9 05 00
        E 39 b9 05 0b
        E 39 b9 05 24
        E 39 b9 05 1e
        E 39 b9 05 48
        E 39 b9 05 12
        E 39 b9 05 05
        E 39 b9 05 0e
        E 39 b9 05 0f
        E 39 b9 05 50
        E 39 b9 05 16
        E 39 b9 05 00
        E 39 b9 05 41
        E 39 b9 05 1e
        E 39 b9 05 12
        E 39 b9 05 23
        E 39 b9 05 17
        E 39 b9 05 4b
        E 39 b9 05 4a
        E 39 b9 05 58
        E 39 b9 05 4a
        E 39 b9 05 26
        E 39 b9 05 52
        E 39 b9 05 3f
        E 39 b9 05 0a
        E 39 b9 05 27
        E 39 b9 05 2f
        E 39 b9 05 54
        E 39 b9 05 43
        E 39 b9 05 30
        E 39 b9 05 31
        E 39 b9 05 04
        E 39 b9 05 09
        E 39 b9 05 51
        E 39 b9 05 47
        E 39 b9 05 25
        E 39 b9 05 1c
        E 39 b9 05 0b
        E 39 b9 05 27
        E 39 b9 05 1a
        E 39 b9 05 15
        E 39 b9 05 21
        E 39 b9 05 2e
        E 39 b9 05 35
        E 39 b9 05 39
        E 39 b9 05 0e
        E 39 b9 05 35
        E 39 b9 05 4f
        E 39 b9 05 2d
        E 39 b9 05 33
        E 39 b9 05 02
        E 39 b9 05 06
        E 39 b9 05 57
        E 39 b9 05 3a
        E 39 b9 05 10
        E 39 b9 05 51
        E 39 b9 05 1c
        E 39 b9 05 22
        E 39 b9 05 2b
        E 39 b9 05 23
        E 39 b9 05 3b
        E 39 b9 05 48
        E 39 b9 05 19
        E 39 b9 05 32
        E 39 b9 05 14
        E 39 b9 05 4f
        E 39 b9 05 49
        E 39 b9 05 28
        E 39 b9 05 20
        E 39 b9 05 46
        E 39 b9 05 20
        E 39 b9 05 3e
        E 39 b9 05 0c
        E 39 b9 05 01
        E 39 b9 05 1d
        E 39 b9 05 2c
        E 39 b9 05 4c
        E 39 b9 05 44
        E 39 b9 05 02
        E 39 b9 05 4d
        E 39 b9 05 41
        E 39 b9 05 04
        E 39 b9 05 1b
        E 39 b9 05 34
        E 39 b9 05 42
        E 39 b9 05 55
        E 39 b9 05 36
        E 39 b9 05 25
        E 39 b9 05 18
        E 39 b9 05 3d
        E 39 b9 05 40
        E 39 b9 05 4e
        E 39 b9 05 56
        E 39 b9 05 2a
        E 39 b9 05 38
        E 39 b9 05 3c
        E 39 b9 05 2e
        E 39 b9 05 53
        E 39 b9 05 0d
        E 39 b9 05 1f
        E 39 b9 05 3a
        E 7 b9 05 0b
        E 7 b9 05 26
        E 7 b9 05 19
        E 7 b9 05 04
        E 7 b9 05 24
        E 7 b9 05 20
        E 7 b9 05 04
        E 7 b9 05 04
        E 7 b9 05 18
        E 7 b9 05 30
        E 7 b9 05 28
        E 7 b9 05 2c
        E 7 b9 05 1f
        E 7 b9 05 05
        E 7 b9 05 09
        E 7 b9 05 22
        E 7 b9 05 1c
        E 7 b9 05 0e
        E 7 b9 05 0a
        E 7 b9 05 0d
        E 7 b9 05 27
        E 7 b9 05 17
        E 7 b9 05 0c
        E 7 b9 05 1d
        E 7 b9 05 32
        E 7 b9 05 00
        E 7 b9 05 06
        E 7 b9 05 14
        E 7 b9 05 11
        E 7 b9 05 29
        E 7 b9 05 0a
        E 7 b9 05 03
        E 7 b9 05 08
        E 7 b9 05 08
        E 7 b9 05 2e
        E 7 b9 05 0c
        E 7 b9 05 00
        E 7 b9 05 25
        E 7 b9 05 11
        E 7 b9 05 0a
        E 7 b9 05 14
        E 7 b9 05 0d
        E 7 b9 05 2b
        E 7 b9 05 2a
        E 7 b9 05 32
        E 7 b9 05 2a
        E 7 b9 05 16
        E 7 b9 05 2f
        E 7 b9 05 24
        E 7 b9 05 06
        E 7 b9 05 16
        E 7 b9 05 1b
        E 7 b9 05 30
        E 7 b9 05 26
        E 7 b9 05 1b
        E 7 b9 05 1c
        E 7 b9 05 02
        E 7 b9 05 05
        E 7 b9 05 2e
        E 7 b9 05 28
        E 7 b9 05 15
        E 7 b9 05 10
        E 7 b9 05 06
        E 7 b9 05 16
        E 7 b9 05 0f
        E 7 b9 05 0c
        E 7 b9 05 13
        E 7 b9 05 1a
        E 7 b9 05 1e
        E 7 b9 05 20
        E 7 b9 05 08
        E 7 b9 05 1e
        E 7 b9 05 2d
        E 7 b9 05 1a
        E 7 b9 05 1d
        E 7 b9 05 01
        E 7 b9 05 03
        E 7 b9 05 32
        E 7 b9 05 21
        E 7 b9 05 09
        E 7 b9 05 2e
        E 7 b9 05 10
        E 7 b9 05 13
        E 7 b9 05 18
        E 7 b9 05 14
        E 7 b9 05 22
        E 7 b9 05 29
        E 7 b9 05 0e
        E 7 b9 05 1c
        E 7 b9 05 0b
        E 7 b9 05 2d
        E 7 b9 05 2a
        E 7 b9 05 17
        E 7 b9 05 12
        E 7 b9 05 28
        E 7 b9 05 12
        E 7 b9 05 23
        E 7 b9 05 07
        E 7 b9 05 00
        E 7 b9 05 10
        E 7 b9 05 19
        E 7 b9 05 2b
        E 7 b9 05 27
        E 7 b9 05 01
        E 7 b9 05 2c
        E 7 b9 05 25
        E 7 b9 05 02
        E 7 b9 05 0f
        E 7 b9 05 1e
        E 7 b9 05 26
        E 7 b9 05 30
        E 7 b9 05 1f
        E 7 b9 05 15
        E 7 b9 05 0e
        E 7 b9 05 23
        E 7 b9 05 24
        E 7 b9 05 2c
        E 7 b9 05 31
        E 7 b9 05 18
        E 7 b9 05 20
        E 7 b9 05 22
        E 7 b9 05 1a
        E 7 b9 05 2f
        E 7 b9 05 07
        E 7 b9 05 12
        E 7 b9 05 21
        E 23 b9 05 16
        E 23 b9 05 4c
        E 23 b9 05 32
        E 23 b9 05 07
        E 23 b9 05 48
        E 23 b9 05 3f
        E 23 b9 05 09
        E 23 b9 05 08
        E 23 b9 05 30
        E 23 b9 05 5f
        E 23 b9 05 50
        E 23 b9 05 58
        E 23 b9 05 3f
        E 23 b9 05 0b
        E 23 b9 05 13
        E 23 b9 05 44
        E 23 b9 05 37
        E 23 b9 05 1c
        E 23 b9 05 14
        E 23 b9 05 1b
        E 23 b9 05 4f
        E 23 b9 05 2f
        E 23 b9 05 17
        E 23 b9 05 3a
        E 23 b9 05 64
        E 23 b9 05 00
        E 23 b9 05 0c
        E 23 b9 05 29
        E 23 b9 05 22
        E 23 b9 05 53
        E 23 b9 05 15
        E 23 b9 05 06
        E 23 b9 05 0f
        E 23 b9 05 11
        E 23 b9 05 5b
        E 23 b9 05 19
        E 23 b9 05 00
        E 23 b9 05 4b
        E 23 b9 05 23
        E 23 b9 05 14
        E 23 b9 05 28
        E 23 b9 05 1a
        E 23 b9 05 56
        E 23 b9 05 55
        E 23 b9 05 65
        E 23 b9 05 54
        E 23 b9 05 2b
        E 23 b9 05 5e
        E 23 b9 05 48
        E 23 b9 05 0b
        E 23 b9 05 2c
        E 23 b9 05 36
        E 23 b9 05 60
        E 23 b9 05 4d
        E 23 b9 05 37
        E 23 b9 05 38
        E 23 b9 05 04
        E 23 b9 05 0a
        E 23 b9 05 5d
        E 23 b9 05 51
        E 23 b9 05 2b
        E 23 b9 05 1f
        E 23 b9 05 0d
        E 23 b9 05 2d
        E 23 b9 05 1e
        E 23 b9 05 18
        E 23 b9 05 26
        E 23 b9 05 34
        E 23 b9 05 3d
        E 23 b9 05 41
        E 23 b9 05 10
        E 23 b9 05 3c
        E 23 b9 05 5a
        E 23 b9 05 33
        E 23 b9 05 3b
        E 23 b9 05 02
        E 23 b9 05 07
        E 23 b9 05 63
        E 23 b9 05 42
        E 23 b9 05 12
        E 23 b9 05 5c
        E 23 b9 05 20
        E 23 b9 05 27
        E 23 b9 05 31
        E 23 b9 05 28
        E 23 b9 05 44
        E 23 b9 05 52
        E 23 b9 05 1d
        E 23 b9 05 39
        E 23 b9 05 17
        E 23 b9 05 5b
        E 23 b9 05 54
        E 23 b9 05 2e
        E 23 b9 05 24
        E 23 b9 05 50
        E 23 b9 05 25
        E 23 b9 05 47
        E 23 b9 05 0e
        E 23 b9 05 01
        E 23 b9 05 21
        E 23 b9 05 33
        E 23 b9 05 57
        E 23 b9 05 4e
        E 23 b9 05 03
        E 23 b9 05 57
        E 23 b9 05 4a
        E 23 b9 05 05
        E 23 b9 05 1f
        E 23 b9 05 3b
        E 23 b9 05 4c
        E 23 b9 05 61
        E 23 b9 05 3e
        E 23 b9 05 2a
        E 23 b9 05 1b
        E 23 b9 05 46
        E 23 b9 05 49
        E 23 b9 05 59
        E 23 b9 05 63
        E 23 b9 05 2f
        E 23 b9 05 40
        E 23 b9 05 45
        E 23 b9 05 35
        E 23 b9 05 5f
        E 23 b9 05 0f
        E 23 b9 05 24
        E 23 b9 05 43
        E 70 b9 05 16
        E 70 b9 05 4c
        E 70 b9 05 32
        E 70 b9 05 07
        E 70 b9 05 48
        E 70 b9 05 3f
        E 70 b9 05 09
        E 70 b9 05 08
        E 70 b9 05 30
        E 70 b9 05 5f
        E 70 b9 05 50
        E 70 b9 05 58
        E 70 b9 05 3f
        E 70 b9 05 0b
        E 70 b9 05 13
        E 70 b9 05 44
        E 70 b9 05 37
        E 70 b9 05 1c
        E 70 b9 05 14
        E 70 b9 05 1b
        E 70 b9 05 4f
        E 70 b9 05 2f
        E 70 b9 05 17
        E 70 b9 05 3a
        E 70 b9 05 64
        E 70 b9 05 00
        E 70 b9 05 0c
        E 70 b9 05 29
        E 70 b9 05 22
        E 70 b9 05 53
        E 70 b9 05 15
        E 70 b9 05 06
        E 70 b9 05 0f
        E 70 b9 05 11
        E 70 b9 05 5b
        E 70 b9 05 19
        E 70 b9 05 00
        E 70 b9 05 4b
        E 70 b9 05 23
        E 70 b9 05 14
        E 70 b9 05 28
        E 70 b9 05 1a
        E 70 b9 05 56
        E 70 b9 05 55
        E 70 b9 05 65
        E 70 b9 05 54
        E 70 b9 05 2b
        E 70 b9 05 5e
        E 70 b9 05 48
        E 70 b9 05 0b
        E 70 b9 05 2c
        E 70 b9 05 36
        E 70 b9 05 60
        E 70 b9 05 4d
        E 70 b9 05 37
        E 70 b9 05 38
        E 70 b9 05 04
        E 70 b9 05 0a
        E 70 b9 05 5d
        E 70 b9 05 51
        E 70 b9 05 2b
        E 70 b9 05 1f
        E 70 b9 05 0d
        E 70 b9 05 2d
        E 70 b9 05 1e
        E 70 b9 05 18
        E 70 b9 05 26
        E 70 b9 05 34
        E 70 b9 05 3d
        E 70 b9 05 41
        E 70 b9 05 10
        E 70 b9 05 3c
        E 70 b9 05 5a
        E 70 b9 05 33
        E 70 b9 05 3b
        E 70 b9 05 02
        E 70 b9 05 07
        E 70 b9 05 63
        E 70 b9 05 42
        E 70 b9 05 12
        E 70 b9 05 5c
        E 70 b9 05 20
        E 70 b9 05 27
        E 70 b9 05 31
        E 70 b9 05 28
        E 70 b9 05 44
        E 70 b9 05 52
        E 70 b9 05 1d
        E 70 b9 05 39
        E 70 b9 05 17
        E 70 b9 05 5b
        E 70 b9 05 54
        E 70 b9 05 2e
        E 70 b9 05 24
        E 70 b9 05 50
        E 70 b9 05 25
        E 70 b9 05 47
        E 70 b9 05 0e
        E 70 b9 05 01
        E 70 b9 05 21
        E 70 b9 05 33
        E 70 b9 05 57
        E 70 b9 05 4e
        E 70 b9 05 03
        E 70 b9 05 57
        E 70 b9 05 4a
        E 70 b9 05 05
        E 70 b9 05 1f
        E 70 b9 05 3b
        E 70 b9 05 4c
        E 70 b9 05 61
        E 70 b9 05 3e
        E 70 b9 05 2a
        E 70 b9 05 1b
        E 70 b9 05 46
        E 70 b9 05 49
        E 70 b9 05 59
        E 70 b9 05 63
        E 70 b9 05 2f
        E 70 b9 05 40
        E 70 b9 05 45
        E 70 b9 05 35
        E 70 b9 05 5f
        E 70 b9 05 0f
        E 70 b9 05 24
        E 70 b9 05 43
        E 15 b9 05 10
        E 15 b9 05 39
        E 15 b9 05 25
        E 15 b9 05 06
        E 15 b9 05 36
        E 15 b9 05 30
        E 15 b9 05 07
        E 15 b9 05 06
        E 15 b9 05 24
        E 15 b9 05 48
        E 15 b9 05 3c
        E 15 b9 05 42
        E 15 b9 05 2f
        E 15 b9 05 08
        E 15 b9 05 0e
        E 15 b9 05 33
        E 15 b9 05 2a
        E 15 b9 05 15
        E 15 b9 05 0f
        E 15 b9 05 14
        E 15 b9 05 3b
        E 15 b9 05 23
        E 15 b9 05 12
        E 15 b9 05 2b
        E 15 b9 05 4b
        E 15 b9 05 00
        E 15 b9 05 09
        E 15 b9 05 1f
        E 15 b9 05 19
        E 15 b9 05 3e
        E 15 b9 05 10
        E 15 b9 05 04
        E 15 b9 05 0c
        E 15 b9 05 0d
        E 15 b9 05 45
        E 15 b9 05 13
        E 15 b9 05 00
        E 15 b9 05 38
        E 15 b9 05 1a
        E 15 b9 05 0f
        E 15 b9 05 1e
        E 15 b9 05 13
        E 15 b9 05 40
        E 15 b9 05 40
        E 15 b9 05 4c
        E 15 b9 05 3f
        E 15 b9 05 21
        E 15 b9 05 46
        E 15 b9 05 36
        E 15 b9 05 09
        E 15 b9 05 21
        E 15 b9 05 28
        E 15 b9 05 48
        E 15 b9 05 3a
        E 15 b9 05 29
        E 15 b9 05 2a
        E 15 b9 05 03
        E 15 b9 05 07
        E 15 b9 05 46
        E 15 b9 05 3d
        E 15 b9 05 20
        E 15 b9 05 18
        E 15 b9 05 0a
        E 15 b9 05 22
        E 15 b9 05 16
        E 15 b9 05 12
        E 15 b9 05 1c
        E 15 b9 05 27
        E 15 b9 05 2e
        E 15 b9 05 31
        E 15 b9 05 0c
        E 15 b9 05 2d
        E 15 b9 05 43
        E 15 b9 05 27
        E 15 b9 05 2c
        E 15 b9 05 01
        E 15 b9 05 05
        E 15 b9 05 4b
        E 15 b9 05 31
        E 15 b9 05 0d
        E 15 b9 05 45
        E 15 b9 05 18
        E 15 b9 05 1d
        E 15 b9 05 25
        E 15 b9 05 1e
        E 15 b9 05 33
        E 15 b9 05 3d
        E 15 b9 05 16
        E 15 b9 05 2b
        E 15 b9 05 11
        E 15 b9 05 44
        E 15 b9 05 3f
        E 15 b9 05 22
        E 15 b9 05 1b
        E 15 b9 05 3c
        E 15 b9 05 1c
        E 15 b9 05 35
        E 15 b9 05 0a
        E 15 b9 05 01
        E 15 b9 05 19
        E 15 b9 05 26
        E 15 b9 05 41
        E 15 b9 05 3a
        E 15 b9 05 02
        E 15 b9 05 42
        E 15 b9 05 37
        E 15 b9 05 04
        E 15 b9 05 17
        E 15 b9 05 2d
        E 15 b9 05 39
        E 15 b9 05 49
        E 15 b9 05 2e
        E 15 b9 05 1f
        E 15 b9 05 15
        E 15 b9 05 34
        E 15 b9 05 37
        E 15 b9 05 43
        E 15 b9 05 4a
        E 15 b9 05 24
        E 15 b9 05 30
        E 15 b9 05 34
        E 15 b9 05 28
        E 15 b9 05 47
        E 15 b9 05 0b
        E 15 b9 05 1b
        E 15 b9 05 32
        E 70 b9 05 0b
        E 70 b9 05 26
        E 70 b9 05 19
        E 70 b9 05 04
        E 70 b9 05 24
        E 70 b9 05 20
        E 70 b9 05 04
        E 70 b9 05 04
        E 70 b9 05 18
        E 70 b9 05 30
        E 70 b9 05 28
        E 70 b9 05 2c
        E 70 b9 05 1f
        E 70 b9 05 05
        E 70 b9 05 09
        E 70 b9 05 22
        E 70 b9 05 1c
        E 70 b9 05 0e
        E 70 b9 05 0a
        E 70 b9 05 0d
        E 70 b9 05 27
        E 70 b9 05 17
        E 70 b9 05 0c
        E 70 b9 05 1d
        E 70 b9 05 32
        E 70 b9 05 00
        E 70 b9 05 06
        E 70 b9 05 14
        E 70 b9 05 11
        E 70 b9 05 29
        E 70 b9 05 0a
        E 70 b9 05 03
        E 70 b9 05 08
        E 70 b9 05 08
        E 70 b9 05 2e
        E 70 b9 05 0c
        E 70 b9 05 00
        E 70 b9 05 25
        E 70 b9 05 11
        E 70 b9 05 0a
        E 70 b9 05 14
        E 70 b9 05 0d
        E 70 b9 05 2b
        E 70 b9 05 2a
        E 70 b9 05 32
        E 70 b9 05 2a
        E 70 b9 05 16
        E 70 b9 05 2f
        E 70 b9 05 24
        E 70 b9 05 06
        E 70 b9 05 16
        E 70 b9 05 1b
        E 70 b9 05 30
        E 70 b9 05 26
        E 70 b9 05 1b
        E 70 b9 05 1c
        E 70 b9 05 02
        E 70 b9 05 05
        E 70 b9 05 2e
        E 70 b9 05 28
        E 70 b9 05 15
        E 70 b9 05 10
        E 70 b9 05 06
        E 70 b9 05 16
        E 70 b9 05 0f
        E 70 b9 05 0c
        E 70 b9 05 13
        E 70 b9 05 1a
        E 70 b9 05 1e
        E 70 b9 05 20
        E 70 b9 05 08
        E 70 b9 05 1e
        E 70 b9 05 2d
        E 70 b9 05 1a
        E 70 b9 05 1d
        E 70 b9 05 01
        E 70 b9 05 03
        E 70 b9 05 32
        E 70 b9 05 21
        E 70 b9 05 09
        E 70 b9 05 2e
        E 70 b9 05 10
        E 70 b9 05 13
        E 70 b9 05 18
        E 70 b9 05 14
        E 70 b9 05 22
        E 70 b9 05 29
        E 70 b9 05 0e
        E 70 b9 05 1c
        E 70 b9 05 0b
        E 70 b9 05 2d
        E 70 b9 05 2a
        E 70 b9 05 17
        E 70 b9 05 12
        E 70 b9 05 28
        E 70 b9 05 12
        E 70 b9 05 23
        E 70 b9 05 07
        E 70 b9 05 00
        E 70 b9 05 10
        E 70 b9 05 19
        E 70 b9 05 2b
        E 70 b9 05 27
        E 70 b9 05 01
        E 70 b9 05 2c
        E 70 b9 05 25
        E 70 b9 05 02
        E 70 b9 05 0f
        E 70 b9 05 1e
        E 70 b9 05 26
        E 70 b9 05 30
        E 70 b9 05 1f
        E 70 b9 05 15
        E 70 b9 05 0e
        E 70 b9 05 23
        E 70 b9 05 24
        E 70 b9 05 2c
        E 70 b9 05 31
        E 70 b9 05 18
        E 70 b9 05 20
        E 70 b9 05 22
        E 70 b9 05 1a
        E 70 b9 05 2f
        E 70 b9 05 07
        E 70 b9 05 12
        E 70 b9 05 21
        E 39 b9 05 13
        E 39 b9 05 43
        E 39 b9 05 2c
        E 39 b9 05 07
        E 39 b9 05 3e
        E 39 b9 05 38
        E 39 b9 05 08
        E 39 b9 05 07
        E 39 b9 05 2a
        E 39 b9 05 54
        E 39 b9 05 46
        E 39 b9 05 4d
        E 39 b9 05 37
        E 39 b9 05 09
        E 39 b9 05 10
        E 39 b9 05 3c
        E 39 b9 05 31
        E 39 b9 05 19
        E 39 b9 05 11
        E 39 b9 05 17
        E 39 b9 05 45
        E 39 b9 05 29
        E 39 b9 05 15
        E 39 b9 05 33
        E 39 b9 05 58
        E 39 b9 05 00
        E 39 b9 05 0b
        E 39 b9 05 24
        E 39 b9 05 1e
        E 39 b9 05 48
        E 39 b9 05 12
        E 39 b9 05 05
        E 39 b9 05 0e
        E 39 b9 05 0f
        E 39 b9 05 50
        E 39 b9 05 16
        E 39 b9 05 00
        E 39 b9 05 41
        E 39 b9 05 1e
        E 39 b9 05 12
        E 39 b9 05 23
        E 39 b9 05 17
        E 39 b9 05 4b
        E 39 b9 05 4a
        E 39 b9 05 58
        E 39 b9 05 4a
        E 39 b9 05 26
        E 39 b9 05 52
        E 39 b9 05 3f
        E 39 b9 05 0a
        E 39 b9 05 27
        E 39 b9 05 2f
        E 39 b9 05 54
        E 39 b9 05 43
        E 39 b9 05 30
        E 39 b9 05 31
        E 39 b9 05 04
        E 39 b9 05 09
        E 39 b9 05 51
        E 39 b9 05 47
        E 39 b9 05 25
        E 39 b9 05 1c
        E 39 b9 05 0b
        E 39 b9 05 27
        E 39 b9 05 1a
        E 39 b9 05 15
        E 39 b9 05 21
        E 39 b9 05 2e
        E 39 b9 05 35
        E 39 b9 05 39
        E 39 b9 05 0e
        E 39 b9 05 35
        E 39 b9 05 4f
        E 39 b9 05 2d
        E 39 b9 05 33
        E 39 b9 05 02
        E 39 b9 05 06
        E 39 b9 05 57
        E 39 b9 05 3a
        E 39 b9 05 10
        E 39 b9 05 51
        E 39 b9 05 1c
        E 39 b9 05 22
        E 39 b9 05 2b
        E 39 b9 05 23
        E 39 b9 05 3b
        E 39 b9 05 48
        E 39 b9 05 19
        E 39 b9 05 32
        E 39 b9 05 14
        E 39 b9 05 4f
        E 39 b9 05 49
        E 39 b9 05 28
        E 39 b9 05 20
        E 39 b9 05 46
        E 39 b9 05 20
        E 39 b9 05 3e
        E 39 b9 05 0c
        E 39 b9 05 01
        E 39 b9 05 1d
        E 39 b9 05 2c
        E 39 b9 05 4c
        E 39 b9 05 44
        E 39 b9 05 02
        E 39 b9 05 4d
        E 39 b9 05 41
        E 39 b9 05 04
        E 39 b9 05 1b
        E 39 b9 05 34
        E 39 b9 05 42
        E 39 b9 05 55
        E 39 b9 05 36
        E 39 b9 05 25
        E 39 b9 05 18
        E 39 b9 05 3d
        E 39 b9 05 40
        E 39 b9 05 4e
        E 39 b9 05 56
        E 39 b9 05 2a
        E 39 b9 05 38
        E 39 b9 05 3c
        E 39 b9 05 2e
        E 39 b9 05 53
        E 39 b9 05 0d
        E 39 b9 05 1f
        E 39 b9 05 3a
        E 7 b9 05 0b
        E 7 b9 05 26
        E 7 b9 05 19
        E 7 b9 05 04
        E 7 b9 05 24
        E 7 b9 05 20
        E 7 b9 05 04
        E 7 b9 05 04
        E 7 b9 05 18
        E 7 b9 05 30
        E 7 b9 05 28
        E 7 b9 05 2c
        E 7 b9 05 1f
        E 7 b9 05 05
        E 7 b9 05 09
        E 7 b9 05 22
        E 7 b9 05 1c
        E 7 b9 05 0e
        E 7 b9 05 0a
        E 7 b9 05 0d
        E 7 b9 05 27
        E 7 b9 05 17
        E 7 b9 05 0c
        E 7 b9 05 1d
        E 7 b9 05 32
        E 7 b9 05 00
        E 7 b9 05 06
        E 7 b9 05 14
        E 7 b9 05 11
        E 7 b9 05 29
        E 7 b9 05 0a
        E 7 b9 05 03
        E 7 b9 05 08
        E 7 b9 05 08
        E 7 b9 05 2e
        E 7 b9 05 0c
        E 7 b9 05 00
        E 7 b9 05 25
        E 7 b9 05 11
        E 7 b9 05 0a
        E 7 b9 05 14
        E 7 b9 05 0d
        E 7 b9 05 2b
        E 7 b9 05 2a
        E 7 b9 05 32
        E 7 b9 05 2a
        E 7 b9 05 16
        E 7 b9 05 2f
        E 7 b9 05 24
        E 7 b9 05 06
        E 7 b9 05 16
        E 7 b9 05 1b
        E 7 b9 05 30
        E 7 b9 05 26
        E 7 b9 05 1b
        E 7 b9 05 1c
        E 7 b9 05 02
        E 7 b9 05 05
        E 7 b9 05 2e
        E 7 b9 05 28
        E 7 b9 05 15
        E 7 b9 05 10
        E 7 b9 05 06
        E 7 b9 05 16
        E 7 b9 05 0f
        E 7 b9 05 0c
        E 7 b9 05 13
        E 7 b9 05 1a
        E 7 b9 05 1e
        E 7 b9 05 20
        E 7 b9 05 08
        E 7 b9 05 1e
        E 7 b9 05 2d
        E 7 b9 05 1a
        E 7 b9 05 1d
        E 7 b9 05 01
        E 7 b9 05 03
        E 7 b9 05 32
        E 7 b9 05 21
        E 7 b9 05 09
        E 7 b9 05 2e
        E 7 b9 05 10
        E 7 b9 05 13
        E 7 b9 05 18
        E 7 b9 05 14
        E 7 b9 05 22
        E 7 b9 05 29
        E 7 b9 05 0e
        E 7 b9 05 1c
        E 7 b9 05 0b
        E 7 b9 05 2d
        E 7 b9 05 2a
        E 7 b9 05 17
        E 7 b9 05 12
        E 7 b9 05 28
        E 7 b9 05 12
        E 7 b9 05 23
        E 7 b9 05 07
        E 7 b9 05 00
        E 7 b9 05 10
        E 7 b9 05 19
        E 7 b9 05 2b
        E 7 b9 05 27
        E 7 b9 05 01
        E 7 b9 05 2c
        E 7 b9 05 25
        E 7 b9 05 02
        E 7 b9 05 0f
        E 7 b9 05 1e
        E 7 b9 05 26
        E 7 b9 05 30
        E 7 b9 05 1f
        E 7 b9 05 15
        E 7 b9 05 0e
        E 7 b9 05 23
        E 7 b9 05 24
        E 7 b9 05 2c
        E 7 b9 05 31
        E 7 b9 05 18
        E 7 b9 05 20
        E 7 b9 05 22
        E 7 b9 05 1a
        E 7 b9 05 2f
        E 7 b9 05 07
        E 7 b9 05 12
        E 7 b9 05 21
        E 23 b9 05 16
        E 23 b9 05 4c
        E 23 b9 05 32
        E 23 b9 05 07
        E 23 b9 05 48
        E 23 b9 05 3f
        E 23 b9 05 09
        E 23 b9 05 08
        E 23 b9 05 30
        E 23 b9 05 5f
        E 23 b9 05 50
        E 23 b9 05 58
        E 23 b9 05 3f
        E 23 b9 05 0b
        E 23 b9 05 13
        E 23 b9 05 44
        E 23 b9 05 37
        E 23 b9 05 1c
        E 23 b9 05 14
        E 23 b9 05 1b
        E 23 b9 05 4f
        E 23 b9 05 2f
        E 23 b9 05 17
        E 23 b9 05 3a
        E 23 b9 05 64
        E 23 b9 05 00
        E 23 b9 05 0c
        E 23 b9 05 29
        E 23 b9 05 22
        E 23 b9 05 53
        E 23 b9 05 15
        E 23 b9 05 06
        E 23 b9 05 0f
        E 23 b9 05 11
        E 23 b9 05 5b
        E 23 b9 05 19
        E 23 b9 05 00
        E 23 b9 05 4b
        E 23 b9 05 23
        E 23 b9 05 14
        E 23 b9 05 28
        E 23 b9 05 1a
        E 23 b9 05 56
        E 23 b9 05 55
        E 23 b9 05 65
        E 23 b9 05 54
        E 23 b9 05 2b
        E 23 b9 05 5e
        E 23 b9 05 48
        E 23 b9 05 0b
        E 23 b9 05 2c
        E 23 b9 05 36
        E 23 b9 05 60
        E 23 b9 05 4d
        E 23 b9 05 37
        E 23 b9 05 38
        E 23 b9 05 04
        E 23 b9 05 0a
        E 23 b9 05 5d
        E 23 b9 05 51
        E 23 b9 05 2b
        E 23 b9 05 1f
        E 23 b9 05 0d
        E 23 b9 05 2d
        E 23 b9 05 1e
        E 23 b9 05 18
        E 23 b9 05 26
        E 23 b9 05 34
        E 23 b9 05 3d
        E 23 b9 05 41
        E 23 b9 05 10
        E 23 b9 05 3c
        E 23 b9 05 5a
        E 23 b9 05 33
        E 23 b9 05 3b
        E 23 b9 05 02
        E 23 b9 05 07
        E 23 b9 05 63
        E 23 b9 05 42
        E 23 b9 05 12
        E 23 b9 05 5c
        E 23 b9 05 20
        E 23 b9 05 27
        E 23 b9 05 31
        E 23 b9 05 28
        E 23 b9 05 44
        E 23 b9 05 52
        E 23 b9 05 1d
        E 23 b9 05 39
        E 23 b9 05 17
        E 23 b9 05 5b
        E 23 b9 05 54
        E 23 b9 05 2e
        E 23 b9 05 24
        E 23 b9 05 50
        E 23 b9 05 25
        E 23 b9 05 47
        E 23 b9 05 0e
        E 23 b9 05 01
        E 23 b9 05 21
        E 23 b9 05 33
        E 23 b9 05 57
        E 23 b9 05 4e
        E 23 b9 05 03
        E 23 b9 05 57
        E 23 b9 05 4a
        E 23 b9 05 05
        E 23 b9 05 1f
        E 23 b9 05 3b
        E 23 b9 05 4c
        E 23 b9 05 61
        E 23 b9 05 3e
        E 23 b9 05 2a
        E 23 b9 05 1b
        E 23 b9 05 46
        E 23 b9 05 49
        E 23 b9 05 59
        E 23 b9 05 63
        E 23 b9 05 2f
        E 23 b9 05 40
        E 23 b9 05 45
        E 23 b9 05 35
        E 23 b9 05 5f
        E 23 b9 05 0f
        E 23 b9 05 24
        E 23 b9 05 43
        E 70 b9 05 16
        E 70 b9 05 4c
        E 70 b9 05 32
        E 70 b9 05 07
        E 70 b9 05 48
        E 70 b9 05 3f
        E 70 b9 05 09
        E 70 b9 05 08
        E 70 b9 05 30
        E 70 b9 05 5f
        E 70 b9 05 50
        E 70 b9 05 58
        E 70 b9 05 3f
        E 70 b9 05 0b
        E 70 b9 05 13
        E 70 b9 05 44
        E 70 b9 05 37
        E 70 b9 05 1c
        E 70 b9 05 14
        E 70 b9 05 1b
        E 70 b9 05 4f
        E 70 b9 05 2f
        E 70 b9 05 17
        E 70 b9 05 3a
        E 70 b9 05 64
        E 70 b9 05 00
        E 70 b9 05 0c
        E 70 b9 05 29
        E 70 b9 05 22
        E 70 b9 05 53
        E 70 b9 05 15
        E 70 b9 05 06
        E 70 b9 05 0f
        E 70 b9 05 11
        E 70 b9 05 5b
        E 70 b9 05 19
        E 70 b9 05 00
        E 70 b9 05 4b
        E 70 b9 05 23
        E 70 b9 05 14
        E 70 b9 05 28
        E 70 b9 05 1a
        E 70 b9 05 56
        E 70 b9 05 55
        E 70 b9 05 65
        E 70 b9 05 54
        E 70 b9 05 2b
        E 70 b9 05 5e
        E 70 b9 05 48
        E 70 b9 05 0b
        E 70 b9 05 2c
        E 70 b9 05 36
        E 70 b9 05 60
        E 70 b9 05 4d
        E 70 b9 05 37
        E 70 b9 05 38
        E 70 b9 05 04
        E 70 b9 05 0a
        E 70 b9 05 5d
        E 70 b9 05 51
        E 70 b9 05 2b
        E 70 b9 05 1f
        E 70 b9 05 0d
        E 70 b9 05 2d
        E 70 b9 05 1e
        E 70 b9 05 18
        E 70 b9 05 26
        E 70 b9 05 34
        E 70 b9 05 3d
        E 70 b9 05 41
        E 70 b9 05 10
        E 70 b9 05 3c
        E 70 b9 05 5a
        E 70 b9 05 33
        E 70 b9 05 3b
        E 70 b9 05 02
        E 70 b9 05 07
        E 70 b9 05 63
        E 70 b9 05 42
        E 70 b9 05 12
        E 70 b9 05 5c
        E 70 b9 05 20
        E 70 b9 05 27
        E 70 b9 05 31
        E 70 b9 05 28
        E 70 b9 05 44
        E 70 b9 05 52
        E 70 b9 05 1d
        E 70 b9 05 39
        E 70 b9 05 17
        E 70 b9 05 5b
        E 70 b9 05 54
        E 70 b9 05 2e
        E 70 b9 05 24
        E 70 b9 05 50
        E 70 b9 05 25
        E 70 b9 05 47
        E 70 b9 05 0e
        E 70 b9 05 01
        E 70 b9 05 21
        E 70 b9 05 33
        E 70 b9 05 57
        E 70 b9 05 4e
        E 70 b9 05 03
        E 70 b9 05 57
        E 70 b9 05 4a
        E 70 b9 05 05
        E 70 b9 05 1f
        E 70 b9 05 3b
        E 70 b9 05 4c
        E 70 b9 05 61
        E 70 b9 05 3e
        E 70 b9 05 2a
        E 70 b9 05 1b
        E 70 b9 05 46
        E 70 b9 05 49
        E 70 b9 05 59
        E 70 b9 05 63
        E 70 b9 05 2f
        E 70 b9 05 40
        E 70 b9 05 45
        E 70 b9 05 35
        E 70 b9 05 5f
        E 70 b9 05 0f
        E 70 b9 05 24
        E 70 b9 05 43
        E 15 b9 05 10
        E 15 b9 05 39
        E 15 b9 05 25
        E 15 b9 05 06
        E 15 b9 05 36
        E 15 b9 05 30
        E 15 b9 05 07
        E 15 b9 05 06
        E 15 b9 05 24
        E 15 b9 05 48
        E 15 b9 05 3c
        E 15 b9 05 42
        E 15 b9 05 2f
        E 15 b9 05 08
        E 15 b9 05 0e
        E 15 b9 05 33
        E 15 b9 05 2a
        E 15 b9 05 15
        E 15 b9 05 0f
        E 15 b9 05 14
        E 15 b9 05 3b
        E 15 b9 05 23
        E 15 b9 05 12
        E 15 b9 05 2b
        E 15 b9 05 4b
        E 15 b9 05 00
        E 15 b9 05 09
        E 15 b9 05 1f
        E 15 b9 05 19
        E 15 b9 05 3e
        E 15 b9 05 10
        E 15 b9 05 04
        E 15 b9 05 0c
        E 15 b9 05 0d
        E 15 b9 05 45
        E 15 b9 05 13
        E 15 b9 05 00
        E 15 b9 05 38
        E 15 b9 05 1a
        E 15 b9 05 0f
        E 15 b9 05 1e
        E 15 b9 05 13
        E 15 b9 05 40
        E 15 b9 05 40
        E 15 b9 05 4c
        E 15 b9 05 3f
        E 15 b9 05 21
        E 15 b9 05 46
        E 15 b9 05 36
        E 15 b9 05 09
        E 15 b9 05 21
        E 15 b9 05 28
        E 15 b9 05 48
        E 15 b9 05 3a
        E 15 b9 05 29
        E 15 b9 05 2a
        E 15 b9 05 03
        E 15 b9 05 07
        E 15 b9 05 46
        E 15 b9 05 3d
        E 15 b9 05 20
        E 15 b9 05 18
        E 15 b9 05 0a
        E 15 b9 05 22
        E 15 b9 05 16
        E 15 b9 05 12
        E 15 b9 05 1c
        E 15 b9 05 27
        E 15 b9 05 2e
        E 15 b9 05 31
        E 15 b9 05 0c
        E 15 b9 05 2d
        E 15 b9 05 43
        E 15 b9 05 27
        E 15 b9 05 2c
        E 15 b9 05 01
        E 15 b9 05 05
        E 15 b9 05 4b
        E 15 b9 05 31
        E 15 b9 05 0d
        E 15 b9 05 45
        E 15 b9 05 18
        E 15 b9 05 1d
        E 15 b9 05 25
        E 15 b9 05 1e
        E 15 b9 05 33
        E 15 b9 05 3d
        E 15 b9 05 16
        E 15 b9 05 2b
        E 15 b9 05 11
        E 15 b9 05 44
        E 15 b9 05 3f
        E 15 b9 05 22
        E 15 b9 05 1b
        E 15 b9 05 3c
        E 15 b9 05 1c
        E 15 b9 05 35
        E 15 b9 05 0a
        E 15 b9 05 01
        E 15 b9 05 19
        E 15 b9 05 26
        E 15 b9 05 41
        E 15 b9 05 3a
        E 15 b9 05 02
        E 15 b9 05 42
        E 15 b9 05 37
        E 15 b9 05 04
        E 15 b9 05 17
        E 15 b9 05 2d
        E 15 b9 05 39
        E 15 b9 05 49
        E 15 b9 05 2e
        E 15 b9 05 1f
        E 15 b9 05 15
        E 15 b9 05 34
        E 15 b9 05 37
        E 15 b9 05 43
        E 15 b9 05 4a
        E 15 b9 05 24
        E 15 b9 05 30
        E 15 b9 05 34
        E 15 b9 05 28
        E 15 b9 05 47
        E 15 b9 05 0b
        E 15 b9 05 1b
        E 15 b9 05 32
        E 70 b9 05 0b
        E 70 b9 05 26
        E 70 b9 05 19
        E 70 b9 05 04
        E 70 b9 05 24
        E 70 b9 05 20
        E 70 b9 05 04
        E 70 b9 05 04
        E 70 b9 05 18
        E 70 b9 05 30
        E 70 b9 05 28
        E 70 b9 05 2c
        E 70 b9 05 1f
        E 70 b9 05 05
        E 70 b9 05 09
        E 70 b9 05 22
        E 70 b9 05 1c
        E 70 b9 05 0e
        E 70 b9 05 0a
        E 70 b9 05 0d
        E 70 b9 05 27
        E 70 b9 05 17
        E 70 b9 05 0c
        E 70 b9 05 1d
        E 70 b9 05 32
        E 70 b9 05 00
        E 70 b9 05 06
        E 70 b9 05 14
        E 70 b9 05 11
        E 70 b9 05 29
        E 70 b9 05 0a
        E 70 b9 05 03
        E 70 b9 05 08
        E 70 b9 05 08
        E 70 b9 05 2e
        E 70 b9 05 0c
        E 70 b9 05 00
        E 70 b9 05 25
        E 70 b9 05 11
        E 70 b9 05 0a
        E 70 b9 05 14
        E 70 b9 05 0d
        E 70 b9 05 2b
        E 70 b9 05 2a
        E 70 b9 05 32
        E 70 b9 05 2a
        E 70 b9 05 16
        E 70 b9 05 2f
        E 70 b9 05 24
        E 70 b9 05 06
        E 70 b9 05 16
        E 70 b9 05 1b
        E 70 b9 05 30
        E 70 b9 05 26
        E 70 b9 05 1b
        E 70 b9 05 1c
        E 70 b9 05 02
        E 70 b9 05 05
        E 70 b9 05 2e
        E 70 b9 05 28
        E 70 b9 05 15
        E 70 b9 05 10
        E 70 b9 05 06
        E 70 b9 05 16
        E 70 b9 05 0f
        E 70 b9 05 0c
        E 70 b9 05 13
        E 70 b9 05 1a
        E 70 b9 05 1e
        E 70 b9 05 20
        E 70 b9 05 08
        E 70 b9 05 1e
        E 70 b9 05 2d
        E 70 b9 05 1a
        E 70 b9 05 1d
        E 70 b9 05 01
        E 70 b9 05 03
        E 70 b9 05 32
        E 70 b9 05 21
        E 70 b9 05 09
        E 70 b9 05 2e
        E 70 b9 05 10
        E 70 b9 05 13
        E 70 b9 05 18
        E 70 b9 05 14
        E 70 b9 05 22
        E 70 b9 05 29
        E 70 b9 05 0e
        E 70 b9 05 1c
        E 70 b9 05 0b
        E 70 b9 05 2d
        E 70 b9 05 2a
        E 70 b9 05 17
        E 70 b9 05 12
        E 70 b9 05 28
        E 70 b9 05 12
        E 70 b9 05 23
        E 70 b9 05 07
        E 70 b9 05 00
        E 70 b9 05 10
        E 70 b9 05 19
        E 70 b9 05 2b
        E 70 b9 05 27
        E 70 b9 05 01
        E 70 b9 05 2c
        E 70 b9 05 25
        E 70 b9 05 02
        E 70 b9 05 0f
        E 70 b9 05 1e
        E 70 b9 05 26
        E 70 b9 05 30
        E 70 b9 05 1f
        E 70 b9 05 15
        E 70 b9 05 0e
        E 70 b9 05 23
        E 70 b9 05 24
        E 70 b9 05 2c
        E 70 b9 05 31
        E 70 b9 05 18
        E 70 b9 05 20
        E 70 b9 05 22
        E 70 b9 05 1a
        E 70 b9 05 2f
        E 70 b9 05 07
        E 70 b9 05 12
        E 70 b9 05 21
        E 39 b9 05 13
        E 39 b9 05 43
        E 39 b9 05 2c
        E 39 b9 05 07
        E 39 b9 05 3e
        E 39 b9 05 38
        E 39 b9 05 08
        E 39 b9 05 07
        E 39 b9 05 2a
        E 39 b9 05 54
        E 39 b9 05 46
        E 39 b9 05 4d
        E 39 b9 05 37
        E 39 b9 05 09
        E 39 b9 05 10
        E 39 b9 05 3c
        E 39 b9 05 31
        E 39 b9 05 19
        E 39 b9 05 11
        E 39 b9 05 17
        E 39 b9 05 45
        E 39 b9 05 29
        E 39 b9 05 15
        E 39 b9 05 33
        E 39 b9 05 58
        E 39 b9 05 00
        E 39 b9 05 0b
        E 39 b9 05 24
        E 39 b9 05 1e
        E 39 b9 05 48
        E 39 b9 05 12
        E 39 b9 05 05
        E 39 b9 05 0e
        E 39 b9 05 0f
        E 39 b9 05 50
        E 39 b9 05 16
        E 39 b9 05 00
        E 39 b9 05 41
        E 39 b9 05 1e
        E 39 b9 05 12
        E 39 b9 05 23
        E 39 b9 05 17
        E 39 b9 05 4b
        E 39 b9 05 4a
        E 39 b9 05 58
        E 39 b9 05 4a
        E 39 b9 05 26
        E 39 b9 05 52
        E 39 b9 05 3f
        E 39 b9 05 0a
        E 39 b9 05 27
        E 39 b9 05 2f
        E 39 b9 05 54
        E 39 b9 05 43
        E 39 b9 05 30
        E 39 b9 05 31
        E 39 b9 05 04
        E 39 b9 05 09
        E 39 b9 05 51
        E 39 b9 05 47
        E 39 b9 05 25
        E 39 b9 05 1c
        E 39 b9 05 0b
        E 39 b9 05 27
        E 39 b9 05 1a
        E 39 b9 05 15
        E 39 b9 05 21
        E 39 b9 05 2e
        E 39 b9 05 35
        E 39 b9 05 39
        E 39 b9 05 0e
        E 39 b9 05 35
        E 39 b9 05 4f
        E 39 b9 05 2d
        E 39 b9 05 33
        E 39 b9 05 02
        E 39 b9 05 06
        E 39 b9 05 57
        E 39 b9 05 3a
        E 39 b9 05 10
        E 39 b9 05 51
        E 39 b9 05 1c
        E 39 b9 05 22
        E 39 b9 05 2b
        E 39 b9 05 23
        E 39 b9 05 3b
        E 39 b9 05 48
        E 39 b9 05 19
        E 39 b9 05 32
        E 39 b9 05 14
        E 39 b9 05 4f
        E 39 b9 05 49
        E 39 b9 05 28
        E 39 b9 05 20
        E 39 b9 05 46
        E 39 b9 05 20
        E 39 b9 05 3e
        E 39 b9 05 0c
        E 39 b9 05 01
        E 39 b9 05 1d
        E 39 b9 05 2c
        E 39 b9 05 4c
        E 39 b9 05 44
        E 39 b9 05 02
        E 39 b9 05 4d
        E 39 b9 05 41
        E 39 b9 05 04
        E 39 b9 05 1b
        E 39 b9 05 34
        E 39 b9 05 42
        E 39 b9 05 55
        E 39 b9 05 36
        E 39 b9 05 25
        E 39 b9 05 18
        E 39 b9 05 3d
        E 39 b9 05 40
        E 39 b9 05 4e
        E 39 b9 05 56
        E 39 b9 05 2a
        E 39 b9 05 38
        E 39 b9 05 3c
        E 39 b9 05 2e
        E 39 b9 05 53
        E 39 b9 05 0d
        E 39 b9 05 1f
        E 39 b9 05 3a
        E 84 b0 7b 00
        CCINTERP 32
        CHASE_CC_TAKEOFFS 1
        GUID {C96DB0DF-3054-934D-BDBA-BE8704F6D146}
        IGNTEMPO 0 120 4 4
        SRCCOLOR 155
        VELLANE 3 601 0
        VELLANE -1 196 0
        CFGEDITVIEW 0 0.008186 62 12 0 -1 0 0 0 0.5
        KEYSNAP 0
        TRACKSEL 252
        EVTFILTER 0 -1 -1 -1 -1 0 0 0 0 -1 -1 -1 -1 0 -1 0 -1 -1
        CFGEDIT 1 1 0 1 0 0 1 1 1 1 1 0.125 0 0 1792 1095 0 0 0 0 0 0 0 0 0 0.5 0 0 1 64
      >
    >
  >
  <TRACK {C8BB95F6-DAEA-8942-9297-F56B2E5002F8}
    NAME "germ-x hand sanitizer"
    PEAKCOL 16576
    BEAT -1
    AUTOMODE 0
    VOLPAN 1 0 -1 -1 1
    MUTESOLO 0 0 0
    IPHASE 0
    PLAYOFFS 0 1
    ISBUS 0 0
    BUSCOMP 0 0 0 0 0
    SHOWINMIX 1 0.6667 0.5 1 0.5 -1 -1 -1
    FREEMODE 0
    SEL 0
    REC 0 0 1 0 0 0 0
    VU 2
    TRACKHEIGHT 0 1 0 0 -1 0
    INQ 0 0 0 0.5 100 0 0 100
    NCHAN 2
    FX 1
    TRACKID {C8BB95F6-DAEA-8942-9297-F56B2E5002F8}
    PERF 0
    MIDIOUT -1
    MAINSEND 1 0
    <ITEM
      POSITION 0
      SNAPOFFS 0
      LENGTH 353.51316
      LOOP 1
      ALLTAKES 0
      FADEIN 1 0 0 1 0 0
      FADEOUT 1 0 0 1 0 0
      MUTE 0 0
      SEL 0
      IGUID {78E9CE72-8936-224D-B5F4-C264FE712F2E}
      IID 23
      NAME "germ-x hand sanitizer.mid"
      VOLPAN 1 0 1 -1
      SOFFS 0 0
      PLAYRATE 1 1 0 -1 0 0.0025
      CHANMODE 0
      GUID {427B8F2F-0442-4A4E-93C2-CD63BE46D1F5}
      <SOURCE MIDI
        HASDATA 1 128 QN
        CCINTERP 32
        POOLEDEVTS {2C7F5EB5-B6D2-D64D-B075-C543877EF6B1}
        E 40 ba 04 39
        E 40 ba 04 3c
        E 40 ba 04 3f
        E 40 ba 04 41
        E 40 ba 04 44
        E 40 ba 04 47
        E 40 ba 04 49
        E 40 ba 04 4c
        E 40 ba 04 4f
        E 40 ba 04 51
        E 40 ba 04 54
        E 40 ba 04 56
        E 40 ba 04 59
        E 40 ba 04 5b
        E 40 ba 04 5d
        E 40 ba 04 5f
        E 40 ba 04 62
        E 40 ba 04 63
        E 40 ba 04 65
        E 40 ba 04 67
        E 40 ba 04 69
        E 40 ba 04 6a
        E 40 ba 04 6c
        E 40 ba 04 6c
        E 40 ba 04 6d
        E 40 ba 04 6e
        E 40 ba 04 6f
        E 40 ba 04 70
        E 40 ba 04 71
        E 40 ba 04 71
        E 40 ba 04 72
        E 40 ba 04 72
        E 40 ba 04 72
        E 40 ba 04 72
        E 40 ba 04 72
        E 40 ba 04 71
        E 40 ba 04 71
        E 40 ba 04 70
        E 40 ba 04 6f
        E 40 ba 04 6e
        E 40 ba 04 6d
        E 40 ba 04 6c
        E 40 ba 04 6b
        E 40 ba 04 69
        E 40 ba 04 68
        E 40 ba 04 66
        E 40 ba 04 64
        E 40 ba 04 63
        E 40 ba 04 61
        E 40 ba 04 5e
        E 40 ba 04 5c
        E 40 ba 04 5a
        E 40 ba 04 58
        E 40 ba 04 55
        E 40 ba 04 52
        E 40 ba 04 50
        E 40 ba 04 4e
        E 40 ba 04 4b
        E 40 ba 04 48
        E 40 ba 04 46
        E 40 ba 04 42
        E 40 ba 04 3f
        E 40 ba 04 3d
        E 40 ba 04 3a
        E 40 ba 04 37
        E 40 ba 04 35
        E 40 ba 04 32
        E 40 ba 04 2f
        E 40 ba 04 2c
        E 40 ba 04 29
        E 40 ba 04 26
        E 40 ba 04 24
        E 40 ba 04 22
        E 40 ba 04 1f
        E 40 ba 04 1c
        E 40 ba 04 1a
        E 40 ba 04 18
        E 40 ba 04 15
        E 40 ba 04 13
        E 40 ba 04 11
        E 40 ba 04 0f
        E 40 ba 04 0d
        E 40 ba 04 0b
        E 40 ba 04 09
        E 40 ba 04 09
        E 40 ba 04 07
        E 40 ba 04 06
        E 40 ba 04 04
        E 40 ba 04 03
        E 40 ba 04 02
        E 40 ba 04 01
        E 40 ba 04 00
        E 40 ba 04 00
        E 40 ba 04 00
        E 40 ba 04 00
        E 40 ba 04 00
        E 40 ba 04 00
        E 40 ba 04 00
        E 40 ba 04 00
        E 40 ba 04 00
        E 40 ba 04 01
        E 40 ba 04 02
        E 40 ba 04 03
        E 40 ba 04 04
        E 40 ba 04 05
        E 40 ba 04 06
        E 40 ba 04 08
        E 40 ba 04 09
        E 40 ba 04 0a
        E 40 ba 04 0c
        E 40 ba 04 0e
        E 40 ba 04 10
        E 40 ba 04 12
        E 40 ba 04 14
        E 40 ba 04 16
        E 40 ba 04 19
        E 40 ba 04 1b
        E 40 ba 04 1d
        E 40 ba 04 20
        E 40 ba 04 23
        E 40 ba 04 25
        E 40 ba 04 28
        E 40 ba 04 2b
        E 40 ba 04 2d
        E 40 ba 04 30
        E 40 ba 04 33
        E 40 ba 04 36
        E 40 ba 04 39
        E 27 ba 04 0c
        E 27 ba 04 0d
        E 27 ba 04 0e
        E 27 ba 04 0e
        E 27 ba 04 0f
        E 27 ba 04 0f
        E 27 ba 04 10
        E 27 ba 04 11
        E 27 ba 04 11
        E 27 ba 04 12
        E 27 ba 04 12
        E 27 ba 04 13
        E 27 ba 04 13
        E 27 ba 04 14
        E 27 ba 04 14
        E 27 ba 04 15
        E 27 ba 04 15
        E 27 ba 04 16
        E 27 ba 04 16
        E 27 ba 04 17
        E 27 ba 04 17
        E 27 ba 04 17
        E 27 ba 04 18
        E 27 ba 04 18
        E 27 ba 04 18
        E 27 ba 04 18
        E 27 ba 04 18
        E 27 ba 04 19
        E 27 ba 04 19
        E 27 ba 04 19
        E 27 ba 04 19
        E 27 ba 04 19
        E 27 ba 04 19
        E 27 ba 04 19
        E 27 ba 04 19
        E 27 ba 04 19
        E 27 ba 04 19
        E 27 ba 04 19
        E 27 ba 04 18
        E 27 ba 04 18
        E 27 ba 04 18
        E 27 ba 04 18
        E 27 ba 04 17
        E 27 ba 04 17
        E 27 ba 04 17
        E 27 ba 04 16
        E 27 ba 04 16
        E 27 ba 04 16
        E 27 ba 04 15
        E 27 ba 04 15
        E 27 ba 04 14
        E 27 ba 04 14
        E 27 ba 04 13
        E 27 ba 04 13
        E 27 ba 04 12
        E 27 ba 04 11
        E 27 ba 04 11
        E 27 ba 04 10
        E 27 ba 04 10
        E 27 ba 04 0f
        E 27 ba 04 0e
        E 27 ba 04 0e
        E 27 ba 04 0d
        E 27 ba 04 0d
        E 27 ba 04 0c
        E 27 ba 04 0b
        E 27 ba 04 0b
        E 27 ba 04 0a
        E 27 ba 04 09
        E 27 ba 04 09
        E 27 ba 04 08
        E 27 ba 04 08
        E 27 ba 04 07
        E 27 ba 04 07
        E 27 ba 04 06
        E 27 ba 04 05
        E 27 ba 04 05
        E 27 ba 04 04
        E 27 ba 04 04
        E 27 ba 04 03
        E 27 ba 04 03
        E 27 ba 04 03
        E 27 ba 04 02
        E 27 ba 04 02
        E 27 ba 04 02
        E 27 ba 04 01
        E 27 ba 04 01
        E 27 ba 04 01
        E 27 ba 04 00
        E 27 ba 04 00
        E 27 ba 04 00
        E 27 ba 04 00
        E 27 ba 04 00
        E 27 ba 04 00
        E 27 ba 04 00
        E 27 ba 04 00
        E 27 ba 04 00
        E 27 ba 04 00
        E 27 ba 04 00
        E 27 ba 04 00
        E 27 ba 04 00
        E 27 ba 04 00
        E 27 ba 04 00
        E 27 ba 04 01
        E 27 ba 04 01
        E 27 ba 04 01
        E 27 ba 04 01
        E 27 ba 04 02
        E 27 ba 04 02
        E 27 ba 04 02
        E 27 ba 04 03
        E 27 ba 04 03
        E 27 ba 04 04
        E 27 ba 04 04
        E 27 ba 04 05
        E 27 ba 04 05
        E 27 ba 04 06
        E 27 ba 04 06
        E 27 ba 04 07
        E 27 ba 04 07
        E 27 ba 04 08
        E 27 ba 04 09
        E 27 ba 04 09
        E 27 ba 04 0a
        E 27 ba 04 0a
        E 27 ba 04 0b
        E 27 ba 04 0c
        E 27 ba 04 0c
        E 47 ba 04 39
        E 47 ba 04 3c
        E 47 ba 04 3f
        E 47 ba 04 41
        E 47 ba 04 44
        E 47 ba 04 47
        E 47 ba 04 49
        E 47 ba 04 4c
        E 47 ba 04 4f
        E 47 ba 04 51
        E 47 ba 04 54
        E 47 ba 04 56
        E 47 ba 04 59
        E 47 ba 04 5b
        E 47 ba 04 5d
        E 47 ba 04 5f
        E 47 ba 04 62
        E 47 ba 04 63
        E 47 ba 04 65
        E 47 ba 04 67
        E 47 ba 04 69
        E 47 ba 04 6a
        E 47 ba 04 6c
        E 47 ba 04 6c
        E 47 ba 04 6d
        E 47 ba 04 6e
        E 47 ba 04 6f
        E 47 ba 04 70
        E 47 ba 04 71
        E 47 ba 04 71
        E 47 ba 04 72
        E 47 ba 04 72
        E 47 ba 04 72
        E 47 ba 04 72
        E 47 ba 04 72
        E 47 ba 04 71
        E 47 ba 04 71
        E 47 ba 04 70
        E 47 ba 04 6f
        E 47 ba 04 6e
        E 47 ba 04 6d
        E 47 ba 04 6c
        E 47 ba 04 6b
        E 47 ba 04 69
        E 47 ba 04 68
        E 47 ba 04 66
        E 47 ba 04 64
        E 47 ba 04 63
        E 47 ba 04 61
        E 47 ba 04 5e
        E 47 ba 04 5c
        E 47 ba 04 5a
        E 47 ba 04 58
        E 47 ba 04 55
        E 47 ba 04 52
        E 47 ba 04 50
        E 47 ba 04 4e
        E 47 ba 04 4b
        E 47 ba 04 48
        E 47 ba 04 46
        E 47 ba 04 42
        E 47 ba 04 3f
        E 47 ba 04 3d
        E 47 ba 04 3a
        E 47 ba 04 37
        E 47 ba 04 35
        E 47 ba 04 32
        E 47 ba 04 2f
        E 47 ba 04 2c
        E 47 ba 04 29
        E 47 ba 04 26
        E 47 ba 04 24
        E 47 ba 04 22
        E 47 ba 04 1f
        E 47 ba 04 1c
        E 47 ba 04 1a
        E 47 ba 04 18
        E 47 ba 04 15
        E 47 ba 04 13
        E 47 ba 04 11
        E 47 ba 04 0f
        E 47 ba 04 0d
        E 47 ba 04 0b
        E 47 ba 04 09
        E 47 ba 04 09
        E 47 ba 04 07
        E 47 ba 04 06
        E 47 ba 04 04
        E 47 ba 04 03
        E 47 ba 04 02
        E 47 ba 04 01
        E 47 ba 04 00
        E 47 ba 04 00
        E 47 ba 04 00
        E 47 ba 04 00
        E 47 ba 04 00
        E 47 ba 04 00
        E 47 ba 04 00
        E 47 ba 04 00
        E 47 ba 04 00
        E 47 ba 04 01
        E 47 ba 04 02
        E 47 ba 04 03
        E 47 ba 04 04
        E 47 ba 04 05
        E 47 ba 04 06
        E 47 ba 04 08
        E 47 ba 04 09
        E 47 ba 04 0a
        E 47 ba 04 0c
        E 47 ba 04 0e
        E 47 ba 04 10
        E 47 ba 04 12
        E 47 ba 04 14
        E 47 ba 04 16
        E 47 ba 04 19
        E 47 ba 04 1b
        E 47 ba 04 1d
        E 47 ba 04 20
        E 47 ba 04 23
        E 47 ba 04 25
        E 47 ba 04 28
        E 47 ba 04 2b
        E 47 ba 04 2d
        E 47 ba 04 30
        E 47 ba 04 33
        E 47 ba 04 36
        E 47 ba 04 39
        E 27 ba 04 20
        E 27 ba 04 21
        E 27 ba 04 23
        E 27 ba 04 24
        E 27 ba 04 26
        E 27 ba 04 27
        E 27 ba 04 29
        E 27 ba 04 2a
        E 27 ba 04 2c
        E 27 ba 04 2d
        E 27 ba 04 2f
        E 27 ba 04 30
        E 27 ba 04 31
        E 27 ba 04 33
        E 27 ba 04 34
        E 27 ba 04 35
        E 27 ba 04 36
        E 27 ba 04 37
        E 27 ba 04 38
        E 27 ba 04 39
        E 27 ba 04 3a
        E 27 ba 04 3b
        E 27 ba 04 3c
        E 27 ba 04 3c
        E 27 ba 04 3d
        E 27 ba 04 3d
        E 27 ba 04 3e
        E 27 ba 04 3e
        E 27 ba 04 3f
        E 27 ba 04 3f
        E 27 ba 04 3f
        E 27 ba 04 3f
        E 27 ba 04 3f
        E 27 ba 04 3f
        E 27 ba 04 3f
        E 27 ba 04 3f
        E 27 ba 04 3f
        E 27 ba 04 3e
        E 27 ba 04 3e
        E 27 ba 04 3d
        E 27 ba 04 3d
        E 27 ba 04 3c
        E 27 ba 04 3b
        E 27 ba 04 3a
        E 27 ba 04 3a
        E 27 ba 04 39
        E 27 ba 04 38
        E 27 ba 04 37
        E 27 ba 04 36
        E 27 ba 04 34
        E 27 ba 04 33
        E 27 ba 04 32
        E 27 ba 04 31
        E 27 ba 04 2f
        E 27 ba 04 2e
        E 27 ba 04 2c
        E 27 ba 04 2b
        E 27 ba 04 2a
        E 27 ba 04 28
        E 27 ba 04 27
        E 27 ba 04 25
        E 27 ba 04 23
        E 27 ba 04 22
        E 27 ba 04 20
        E 27 ba 04 1f
        E 27 ba 04 1d
        E 27 ba 04 1c
        E 27 ba 04 1a
        E 27 ba 04 18
        E 27 ba 04 17
        E 27 ba 04 15
        E 27 ba 04 14
        E 27 ba 04 13
        E 27 ba 04 11
        E 27 ba 04 10
        E 27 ba 04 0e
        E 27 ba 04 0d
        E 27 ba 04 0c
        E 27 ba 04 0b
        E 27 ba 04 09
        E 27 ba 04 08
        E 27 ba 04 07
        E 27 ba 04 06
        E 27 ba 04 05
        E 27 ba 04 05
        E 27 ba 04 04
        E 27 ba 04 03
        E 27 ba 04 02
        E 27 ba 04 02
        E 27 ba 04 01
        E 27 ba 04 01
        E 27 ba 04 00
        E 27 ba 04 00
        E 27 ba 04 00
        E 27 ba 04 00
        E 27 ba 04 00
        E 27 ba 04 00
        E 27 ba 04 00
        E 27 ba 04 00
        E 27 ba 04 00
        E 27 ba 04 01
        E 27 ba 04 01
        E 27 ba 04 02
        E 27 ba 04 02
        E 27 ba 04 03
        E 27 ba 04 03
        E 27 ba 04 04
        E 27 ba 04 05
        E 27 ba 04 06
        E 27 ba 04 07
        E 27 ba 04 08
        E 27 ba 04 09
        E 27 ba 04 0a
        E 27 ba 04 0b
        E 27 ba 04 0c
        E 27 ba 04 0e
        E 27 ba 04 0f
        E 27 ba 04 10
        E 27 ba 04 12
        E 27 ba 04 13
        E 27 ba 04 15
        E 27 ba 04 16
        E 27 ba 04 18
        E 27 ba 04 19
        E 27 ba 04 1b
        E 27 ba 04 1c
        E 27 ba 04 1e
        E 27 ba 04 20
        E 54 ba 04 06
        E 54 ba 04 06
        E 54 ba 04 07
        E 54 ba 04 07
        E 54 ba 04 07
        E 54 ba 04 07
        E 54 ba 04 08
        E 54 ba 04 08
        E 54 ba 04 08
        E 54 ba 04 09
        E 54 ba 04 09
        E 54 ba 04 09
        E 54 ba 04 09
        E 54 ba 04 0a
        E 54 ba 04 0a
        E 54 ba 04 0a
        E 54 ba 04 0a
        E 54 ba 04 0b
        E 54 ba 04 0b
        E 54 ba 04 0b
        E 54 ba 04 0b
        E 54 ba 04 0b
        E 54 ba 04 0c
        E 54 ba 04 0c
        E 54 ba 04 0c
        E 54 ba 04 0c
        E 54 ba 04 0c
        E 54 ba 04 0c
        E 54 ba 04 0c
        E 54 ba 04 0c
        E 54 ba 04 0c
        E 54 ba 04 0c
        E 54 ba 04 0c
        E 54 ba 04 0c
        E 54 ba 04 0c
        E 54 ba 04 0c
        E 54 ba 04 0c
        E 54 ba 04 0c
        E 54 ba 04 0c
        E 54 ba 04 0c
        E 54 ba 04 0c
        E 54 ba 04 0c
        E 54 ba 04 0b
        E 54 ba 04 0b
        E 54 ba 04 0b
        E 54 ba 04 0b
        E 54 ba 04 0b
        E 54 ba 04 0b
        E 54 ba 04 0a
        E 54 ba 04 0a
        E 54 ba 04 0a
        E 54 ba 04 0a
        E 54 ba 04 09
        E 54 ba 04 09
        E 54 ba 04 09
        E 54 ba 04 08
        E 54 ba 04 08
        E 54 ba 04 08
        E 54 ba 04 08
        E 54 ba 04 07
        E 54 ba 04 07
        E 54 ba 04 07
        E 54 ba 04 06
        E 54 ba 04 06
        E 54 ba 04 06
        E 54 ba 04 05
        E 54 ba 04 05
        E 54 ba 04 05
        E 54 ba 04 04
        E 54 ba 04 04
        E 54 ba 04 04
        E 54 ba 04 04
        E 54 ba 04 03
        E 54 ba 04 03
        E 54 ba 04 03
        E 54 ba 04 02
        E 54 ba 04 02
        E 54 ba 04 02
        E 54 ba 04 02
        E 54 ba 04 01
        E 54 ba 04 01
        E 54 ba 04 01
        E 54 ba 04 01
        E 54 ba 04 01
        E 54 ba 04 01
        E 54 ba 04 00
        E 54 ba 04 00
        E 54 ba 04 00
        E 54 ba 04 00
        E 54 ba 04 00
        E 54 ba 04 00
        E 54 ba 04 00
        E 54 ba 04 00
        E 54 ba 04 00
        E 54 ba 04 00
        E 54 ba 04 00
        E 54 ba 04 00
        E 54 ba 04 00
        E 54 ba 04 00
        E 54 ba 04 00
        E 54 ba 04 00
        E 54 ba 04 00
        E 54 ba 04 00
        E 54 ba 04 00
        E 54 ba 04 00
        E 54 ba 04 00
        E 54 ba 04 00
        E 54 ba 04 01
        E 54 ba 04 01
        E 54 ba 04 01
        E 54 ba 04 01
        E 54 ba 04 01
        E 54 ba 04 02
        E 54 ba 04 02
        E 54 ba 04 02
        E 54 ba 04 02
        E 54 ba 04 03
        E 54 ba 04 03
        E 54 ba 04 03
        E 54 ba 04 03
        E 54 ba 04 04
        E 54 ba 04 04
        E 54 ba 04 04
        E 54 ba 04 05
        E 54 ba 04 05
        E 54 ba 04 05
        E 54 ba 04 06
        E 54 ba 04 06
        E 54 ba 04 13
        E 54 ba 04 14
        E 54 ba 04 15
        E 54 ba 04 15
        E 54 ba 04 16
        E 54 ba 04 17
        E 54 ba 04 18
        E 54 ba 04 19
        E 54 ba 04 1a
        E 54 ba 04 1b
        E 54 ba 04 1c
        E 54 ba 04 1c
        E 54 ba 04 1d
        E 54 ba 04 1e
        E 54 ba 04 1f
        E 54 ba 04 1f
        E 54 ba 04 20
        E 54 ba 04 21
        E 54 ba 04 21
        E 54 ba 04 22
        E 54 ba 04 23
        E 54 ba 04 23
        E 54 ba 04 24
        E 54 ba 04 24
        E 54 ba 04 24
        E 54 ba 04 24
        E 54 ba 04 25
        E 54 ba 04 25
        E 54 ba 04 25
        E 54 ba 04 25
        E 54 ba 04 26
        E 54 ba 04 26
        E 54 ba 04 26
        E 54 ba 04 26
        E 54 ba 04 26
        E 54 ba 04 25
        E 54 ba 04 25
        E 54 ba 04 25
        E 54 ba 04 25
        E 54 ba 04 24
        E 54 ba 04 24
        E 54 ba 04 24
        E 54 ba 04 23
        E 54 ba 04 23
        E 54 ba 04 22
        E 54 ba 04 22
        E 54 ba 04 21
        E 54 ba 04 21
        E 54 ba 04 20
        E 54 ba 04 1f
        E 54 ba 04 1e
        E 54 ba 04 1e
        E 54 ba 04 1d
        E 54 ba 04 1c
        E 54 ba 04 1b
        E 54 ba 04 1a
        E 54 ba 04 1a
        E 54 ba 04 19
        E 54 ba 04 18
        E 54 ba 04 17
        E 54 ba 04 16
        E 54 ba 04 15
        E 54 ba 04 14
        E 54 ba 04 13
        E 54 ba 04 12
        E 54 ba 04 11
        E 54 ba 04 10
        E 54 ba 04 0f
        E 54 ba 04 0e
        E 54 ba 04 0d
        E 54 ba 04 0c
        E 54 ba 04 0c
        E 54 ba 04 0b
        E 54 ba 04 0a
        E 54 ba 04 09
        E 54 ba 04 08
        E 54 ba 04 08
        E 54 ba 04 07
        E 54 ba 04 06
        E 54 ba 04 05
        E 54 ba 04 05
        E 54 ba 04 04
        E 54 ba 04 03
        E 54 ba 04 03
        E 54 ba 04 03
        E 54 ba 04 02
        E 54 ba 04 02
        E 54 ba 04 01
        E 54 ba 04 01
        E 54 ba 04 00
        E 54 ba 04 00
        E 54 ba 04 00
        E 54 ba 04 00
        E 54 ba 04 00
        E 54 ba 04 00
        E 54 ba 04 00
        E 54 ba 04 00
        E 54 ba 04 00
        E 54 ba 04 00
        E 54 ba 04 00
        E 54 ba 04 00
        E 54 ba 04 00
        E 54 ba 04 01
        E 54 ba 04 01
        E 54 ba 04 01
        E 54 ba 04 02
        E 54 ba 04 02
        E 54 ba 04 03
        E 54 ba 04 03
        E 54 ba 04 04
        E 54 ba 04 04
        E 54 ba 04 05
        E 54 ba 04 06
        E 54 ba 04 06
        E 54 ba 04 07
        E 54 ba 04 08
        E 54 ba 04 09
        E 54 ba 04 09
        E 54 ba 04 0a
        E 54 ba 04 0b
        E 54 ba 04 0c
        E 54 ba 04 0d
        E 54 ba 04 0e
        E 54 ba 04 0f
        E 54 ba 04 10
        E 54 ba 04 11
        E 54 ba 04 12
        E 54 ba 04 13
        E 35 ba 04 39
        E 35 ba 04 3c
        E 35 ba 04 3f
        E 35 ba 04 41
        E 35 ba 04 44
        E 35 ba 04 47
        E 35 ba 04 49
        E 35 ba 04 4c
        E 35 ba 04 4f
        E 35 ba 04 51
        E 35 ba 04 54
        E 35 ba 04 56
        E 35 ba 04 59
        E 35 ba 04 5b
        E 35 ba 04 5d
        E 35 ba 04 5f
        E 35 ba 04 62
        E 35 ba 04 63
        E 35 ba 04 65
        E 35 ba 04 67
        E 35 ba 04 69
        E 35 ba 04 6a
        E 35 ba 04 6c
        E 35 ba 04 6c
        E 35 ba 04 6d
        E 35 ba 04 6e
        E 35 ba 04 6f
        E 35 ba 04 70
        E 35 ba 04 71
        E 35 ba 04 71
        E 35 ba 04 72
        E 35 ba 04 72
        E 35 ba 04 72
        E 35 ba 04 72
        E 35 ba 04 72
        E 35 ba 04 71
        E 35 ba 04 71
        E 35 ba 04 70
        E 35 ba 04 6f
        E 35 ba 04 6e
        E 35 ba 04 6d
        E 35 ba 04 6c
        E 35 ba 04 6b
        E 35 ba 04 69
        E 35 ba 04 68
        E 35 ba 04 66
        E 35 ba 04 64
        E 35 ba 04 63
        E 35 ba 04 61
        E 35 ba 04 5e
        E 35 ba 04 5c
        E 35 ba 04 5a
        E 35 ba 04 58
        E 35 ba 04 55
        E 35 ba 04 52
        E 35 ba 04 50
        E 35 ba 04 4e
        E 35 ba 04 4b
        E 35 ba 04 48
        E 35 ba 04 46
        E 35 ba 04 42
        E 35 ba 04 3f
        E 35 ba 04 3d
        E 35 ba 04 3a
        E 35 ba 04 37
        E 35 ba 04 35
        E 35 ba 04 32
        E 35 ba 04 2f
        E 35 ba 04 2c
        E 35 ba 04 29
        E 35 ba 04 26
        E 35 ba 04 24
        E 35 ba 04 22
        E 35 ba 04 1f
        E 35 ba 04 1c
        E 35 ba 04 1a
        E 35 ba 04 18
        E 35 ba 04 15
        E 35 ba 04 13
        E 35 ba 04 11
        E 35 ba 04 0f
        E 35 ba 04 0d
        E 35 ba 04 0b
        E 35 ba 04 09
        E 35 ba 04 09
        E 35 ba 04 07
        E 35 ba 04 06
        E 35 ba 04 04
        E 35 ba 04 03
        E 35 ba 04 02
        E 35 ba 04 01
        E 35 ba 04 00
        E 35 ba 04 00
        E 35 ba 04 00
        E 35 ba 04 00
        E 35 ba 04 00
        E 35 ba 04 00
        E 35 ba 04 00
        E 35 ba 04 00
        E 35 ba 04 00
        E 35 ba 04 01
        E 35 ba 04 02
        E 35 ba 04 03
        E 35 ba 04 04
        E 35 ba 04 05
        E 35 ba 04 06
        E 35 ba 04 08
        E 35 ba 04 09
        E 35 ba 04 0a
        E 35 ba 04 0c
        E 35 ba 04 0e
        E 35 ba 04 10
        E 35 ba 04 12
        E 35 ba 04 14
        E 35 ba 04 16
        E 35 ba 04 19
        E 35 ba 04 1b
        E 35 ba 04 1d
        E 35 ba 04 20
        E 35 ba 04 23
        E 35 ba 04 25
        E 35 ba 04 28
        E 35 ba 04 2b
        E 35 ba 04 2d
        E 35 ba 04 30
        E 35 ba 04 33
        E 35 ba 04 36
        E 35 ba 04 39
        E 20 ba 04 20
        E 20 ba 04 21
        E 20 ba 04 23
        E 20 ba 04 24
        E 20 ba 04 26
        E 20 ba 04 27
        E 20 ba 04 29
        E 20 ba 04 2a
        E 20 ba 04 2c
        E 20 ba 04 2d
        E 20 ba 04 2f
        E 20 ba 04 30
        E 20 ba 04 31
        E 20 ba 04 33
        E 20 ba 04 34
        E 20 ba 04 35
        E 20 ba 04 36
        E 20 ba 04 37
        E 20 ba 04 38
        E 20 ba 04 39
        E 20 ba 04 3a
        E 20 ba 04 3b
        E 20 ba 04 3c
        E 20 ba 04 3c
        E 20 ba 04 3d
        E 20 ba 04 3d
        E 20 ba 04 3e
        E 20 ba 04 3e
        E 20 ba 04 3f
        E 20 ba 04 3f
        E 20 ba 04 3f
        E 20 ba 04 3f
        E 20 ba 04 3f
        E 20 ba 04 3f
        E 20 ba 04 3f
        E 20 ba 04 3f
        E 20 ba 04 3f
        E 20 ba 04 3e
        E 20 ba 04 3e
        E 20 ba 04 3d
        E 20 ba 04 3d
        E 20 ba 04 3c
        E 20 ba 04 3b
        E 20 ba 04 3a
        E 20 ba 04 3a
        E 20 ba 04 39
        E 20 ba 04 38
        E 20 ba 04 37
        E 20 ba 04 36
        E 20 ba 04 34
        E 20 ba 04 33
        E 20 ba 04 32
        E 20 ba 04 31
        E 20 ba 04 2f
        E 20 ba 04 2e
        E 20 ba 04 2c
        E 20 ba 04 2b
        E 20 ba 04 2a
        E 20 ba 04 28
        E 20 ba 04 27
        E 20 ba 04 25
        E 20 ba 04 23
        E 20 ba 04 22
        E 20 ba 04 20
        E 20 ba 04 1f
        E 20 ba 04 1d
        E 20 ba 04 1c
        E 20 ba 04 1a
        E 20 ba 04 18
        E 20 ba 04 17
        E 20 ba 04 15
        E 20 ba 04 14
        E 20 ba 04 13
        E 20 ba 04 11
        E 20 ba 04 10
        E 20 ba 04 0e
        E 20 ba 04 0d
        E 20 ba 04 0c
        E 20 ba 04 0b
        E 20 ba 04 09
        E 20 ba 04 08
        E 20 ba 04 07
        E 20 ba 04 06
        E 20 ba 04 05
        E 20 ba 04 05
        E 20 ba 04 04
        E 20 ba 04 03
        E 20 ba 04 02
        E 20 ba 04 02
        E 20 ba 04 01
        E 20 ba 04 01
        E 20 ba 04 00
        E 20 ba 04 00
        E 20 ba 04 00
        E 20 ba 04 00
        E 20 ba 04 00
        E 20 ba 04 00
        E 20 ba 04 00
        E 20 ba 04 00
        E 20 ba 04 00
        E 20 ba 04 01
        E 20 ba 04 01
        E 20 ba 04 02
        E 20 ba 04 02
        E 20 ba 04 03
        E 20 ba 04 03
        E 20 ba 04 04
        E 20 ba 04 05
        E 20 ba 04 06
        E 20 ba 04 07
        E 20 ba 04 08
        E 20 ba 04 09
        E 20 ba 04 0a
        E 20 ba 04 0b
        E 20 ba 04 0c
        E 20 ba 04 0e
        E 20 ba 04 0f
        E 20 ba 04 10
        E 20 ba 04 12
        E 20 ba 04 13
        E 20 ba 04 15
        E 20 ba 04 16
        E 20 ba 04 18
        E 20 ba 04 19
        E 20 ba 04 1b
        E 20 ba 04 1c
        E 20 ba 04 1e
        E 20 ba 04 20
        E 40 ba 04 06
        E 40 ba 04 06
        E 40 ba 04 07
        E 40 ba 04 07
        E 40 ba 04 07
        E 40 ba 04 07
        E 40 ba 04 08
        E 40 ba 04 08
        E 40 ba 04 08
        E 40 ba 04 09
        E 40 ba 04 09
        E 40 ba 04 09
        E 40 ba 04 09
        E 40 ba 04 0a
        E 40 ba 04 0a
        E 40 ba 04 0a
        E 40 ba 04 0a
        E 40 ba 04 0b
        E 40 ba 04 0b
        E 40 ba 04 0b
        E 40 ba 04 0b
        E 40 ba 04 0b
        E 40 ba 04 0c
        E 40 ba 04 0c
        E 40 ba 04 0c
        E 40 ba 04 0c
        E 40 ba 04 0c
        E 40 ba 04 0c
        E 40 ba 04 0c
        E 40 ba 04 0c
        E 40 ba 04 0c
        E 40 ba 04 0c
        E 40 ba 04 0c
        E 40 ba 04 0c
        E 40 ba 04 0c
        E 40 ba 04 0c
        E 40 ba 04 0c
        E 40 ba 04 0c
        E 40 ba 04 0c
        E 40 ba 04 0c
        E 40 ba 04 0c
        E 40 ba 04 0c
        E 40 ba 04 0b
        E 40 ba 04 0b
        E 40 ba 04 0b
        E 40 ba 04 0b
        E 40 ba 04 0b
        E 40 ba 04 0b
        E 40 ba 04 0a
        E 40 ba 04 0a
        E 40 ba 04 0a
        E 40 ba 04 0a
        E 40 ba 04 09
        E 40 ba 04 09
        E 40 ba 04 09
        E 40 ba 04 08
        E 40 ba 04 08
        E 40 ba 04 08
        E 40 ba 04 08
        E 40 ba 04 07
        E 40 ba 04 07
        E 40 ba 04 07
        E 40 ba 04 06
        E 40 ba 04 06
        E 40 ba 04 06
        E 40 ba 04 05
        E 40 ba 04 05
        E 40 ba 04 05
        E 40 ba 04 04
        E 40 ba 04 04
        E 40 ba 04 04
        E 40 ba 04 04
        E 40 ba 04 03
        E 40 ba 04 03
        E 40 ba 04 03
        E 40 ba 04 02
        E 40 ba 04 02
        E 40 ba 04 02
        E 40 ba 04 02
        E 40 ba 04 01
        E 40 ba 04 01
        E 40 ba 04 01
        E 40 ba 04 01
        E 40 ba 04 01
        E 40 ba 04 01
        E 40 ba 04 00
        E 40 ba 04 00
        E 40 ba 04 00
        E 40 ba 04 00
        E 40 ba 04 00
        E 40 ba 04 00
        E 40 ba 04 00
        E 40 ba 04 00
        E 40 ba 04 00
        E 40 ba 04 00
        E 40 ba 04 00
        E 40 ba 04 00
        E 40 ba 04 00
        E 40 ba 04 00
        E 40 ba 04 00
        E 40 ba 04 00
        E 40 ba 04 00
        E 40 ba 04 00
        E 40 ba 04 00
        E 40 ba 04 00
        E 40 ba 04 00
        E 40 ba 04 00
        E 40 ba 04 01
        E 40 ba 04 01
        E 40 ba 04 01
        E 40 ba 04 01
        E 40 ba 04 01
        E 40 ba 04 02
        E 40 ba 04 02
        E 40 ba 04 02
        E 40 ba 04 02
        E 40 ba 04 03
        E 40 ba 04 03
        E 40 ba 04 03
        E 40 ba 04 03
        E 40 ba 04 04
        E 40 ba 04 04
        E 40 ba 04 04
        E 40 ba 04 05
        E 40 ba 04 05
        E 40 ba 04 05
        E 40 ba 04 06
        E 40 ba 04 06
        E 40 ba 04 13
        E 40 ba 04 14
        E 40 ba 04 15
        E 40 ba 04 15
        E 40 ba 04 16
        E 40 ba 04 17
        E 40 ba 04 18
        E 40 ba 04 19
        E 40 ba 04 1a
        E 40 ba 04 1b
        E 40 ba 04 1c
        E 40 ba 04 1c
        E 40 ba 04 1d
        E 40 ba 04 1e
        E 40 ba 04 1f
        E 40 ba 04 1f
        E 40 ba 04 20
        E 40 ba 04 21
        E 40 ba 04 21
        E 40 ba 04 22
        E 40 ba 04 23
        E 40 ba 04 23
        E 40 ba 04 24
        E 40 ba 04 24
        E 40 ba 04 24
        E 40 ba 04 24
        E 40 ba 04 25
        E 40 ba 04 25
        E 40 ba 04 25
        E 40 ba 04 25
        E 40 ba 04 26
        E 40 ba 04 26
        E 40 ba 04 26
        E 40 ba 04 26
        E 40 ba 04 26
        E 40 ba 04 25
        E 40 ba 04 25
        E 40 ba 04 25
        E 40 ba 04 25
        E 40 ba 04 24
        E 40 ba 04 24
        E 40 ba 04 24
        E 40 ba 04 23
        E 40 ba 04 23
        E 40 ba 04 22
        E 40 ba 04 22
        E 40 ba 04 21
        E 40 ba 04 21
        E 40 ba 04 20
        E 40 ba 04 1f
        E 40 ba 04 1e
        E 40 ba 04 1e
        E 40 ba 04 1d
        E 40 ba 04 1c
        E 40 ba 04 1b
        E 40 ba 04 1a
        E 40 ba 04 1a
        E 40 ba 04 19
        E 40 ba 04 18
        E 40 ba 04 17
        E 40 ba 04 16
        E 40 ba 04 15
        E 40 ba 04 14
        E 40 ba 04 13
        E 40 ba 04 12
        E 40 ba 04 11
        E 40 ba 04 10
        E 40 ba 04 0f
        E 40 ba 04 0e
        E 40 ba 04 0d
        E 40 ba 04 0c
        E 40 ba 04 0c
        E 40 ba 04 0b
        E 40 ba 04 0a
        E 40 ba 04 09
        E 40 ba 04 08
        E 40 ba 04 08
        E 40 ba 04 07
        E 40 ba 04 06
        E 40 ba 04 05
        E 40 ba 04 05
        E 40 ba 04 04
        E 40 ba 04 03
        E 40 ba 04 03
        E 40 ba 04 03
        E 40 ba 04 02
        E 40 ba 04 02
        E 40 ba 04 01
        E 40 ba 04 01
        E 40 ba 04 00
        E 40 ba 04 00
        E 40 ba 04 00
        E 40 ba 04 00
        E 40 ba 04 00
        E 40 ba 04 00
        E 40 ba 04 00
        E 40 ba 04 00
        E 40 ba 04 00
        E 40 ba 04 00
        E 40 ba 04 00
        E 40 ba 04 00
        E 40 ba 04 00
        E 40 ba 04 01
        E 40 ba 04 01
        E 40 ba 04 01
        E 40 ba 04 02
        E 40 ba 04 02
        E 40 ba 04 03
        E 40 ba 04 03
        E 40 ba 04 04
        E 40 ba 04 04
        E 40 ba 04 05
        E 40 ba 04 06
        E 40 ba 04 06
        E 40 ba 04 07
        E 40 ba 04 08
        E 40 ba 04 09
        E 40 ba 04 09
        E 40 ba 04 0a
        E 40 ba 04 0b
        E 40 ba 04 0c
        E 40 ba 04 0d
        E 40 ba 04 0e
        E 40 ba 04 0f
        E 40 ba 04 10
        E 40 ba 04 11
        E 40 ba 04 12
        E 40 ba 04 13
        E 35 ba 04 39
        E 35 ba 04 3c
        E 35 ba 04 3f
        E 35 ba 04 41
        E 35 ba 04 44
        E 35 ba 04 47
        E 35 ba 04 49
        E 35 ba 04 4c
        E 35 ba 04 4f
        E 35 ba 04 51
        E 35 ba 04 54
        E 35 ba 04 56
        E 35 ba 04 59
        E 35 ba 04 5b
        E 35 ba 04 5d
        E 35 ba 04 5f
        E 35 ba 04 62
        E 35 ba 04 63
        E 35 ba 04 65
        E 35 ba 04 67
        E 35 ba 04 69
        E 35 ba 04 6a
        E 35 ba 04 6c
        E 35 ba 04 6c
        E 35 ba 04 6d
        E 35 ba 04 6e
        E 35 ba 04 6f
        E 35 ba 04 70
        E 35 ba 04 71
        E 35 ba 04 71
        E 35 ba 04 72
        E 35 ba 04 72
        E 35 ba 04 72
        E 35 ba 04 72
        E 35 ba 04 72
        E 35 ba 04 71
        E 35 ba 04 71
        E 35 ba 04 70
        E 35 ba 04 6f
        E 35 ba 04 6e
        E 35 ba 04 6d
        E 35 ba 04 6c
        E 35 ba 04 6b
        E 35 ba 04 69
        E 35 ba 04 68
        E 35 ba 04 66
        E 35 ba 04 64
        E 35 ba 04 63
        E 35 ba 04 61
        E 35 ba 04 5e
        E 35 ba 04 5c
        E 35 ba 04 5a
        E 35 ba 04 58
        E 35 ba 04 55
        E 35 ba 04 52
        E 35 ba 04 50
        E 35 ba 04 4e
        E 35 ba 04 4b
        E 35 ba 04 48
        E 35 ba 04 46
        E 35 ba 04 42
        E 35 ba 04 3f
        E 35 ba 04 3d
        E 35 ba 04 3a
        E 35 ba 04 37
        E 35 ba 04 35
        E 35 ba 04 32
        E 35 ba 04 2f
        E 35 ba 04 2c
        E 35 ba 04 29
        E 35 ba 04 26
        E 35 ba 04 24
        E 35 ba 04 22
        E 35 ba 04 1f
        E 35 ba 04 1c
        E 35 ba 04 1a
        E 35 ba 04 18
        E 35 ba 04 15
        E 35 ba 04 13
        E 35 ba 04 11
        E 35 ba 04 0f
        E 35 ba 04 0d
        E 35 ba 04 0b
        E 35 ba 04 09
        E 35 ba 04 09
        E 35 ba 04 07
        E 35 ba 04 06
        E 35 ba 04 04
        E 35 ba 04 03
        E 35 ba 04 02
        E 35 ba 04 01
        E 35 ba 04 00
        E 35 ba 04 00
        E 35 ba 04 00
        E 35 ba 04 00
        E 35 ba 04 00
        E 35 ba 04 00
        E 35 ba 04 00
        E 35 ba 04 00
        E 35 ba 04 00
        E 35 ba 04 01
        E 35 ba 04 02
        E 35 ba 04 03
        E 35 ba 04 04
        E 35 ba 04 05
        E 35 ba 04 06
        E 35 ba 04 08
        E 35 ba 04 09
        E 35 ba 04 0a
        E 35 ba 04 0c
        E 35 ba 04 0e
        E 35 ba 04 10
        E 35 ba 04 12
        E 35 ba 04 14
        E 35 ba 04 16
        E 35 ba 04 19
        E 35 ba 04 1b
        E 35 ba 04 1d
        E 35 ba 04 20
        E 35 ba 04 23
        E 35 ba 04 25
        E 35 ba 04 28
        E 35 ba 04 2b
        E 35 ba 04 2d
        E 35 ba 04 30
        E 35 ba 04 33
        E 35 ba 04 36
        E 35 ba 04 39
        E 20 ba 04 20
        E 20 ba 04 21
        E 20 ba 04 23
        E 20 ba 04 24
        E 20 ba 04 26
        E 20 ba 04 27
        E 20 ba 04 29
        E 20 ba 04 2a
        E 20 ba 04 2c
        E 20 ba 04 2d
        E 20 ba 04 2f
        E 20 ba 04 30
        E 20 ba 04 31
        E 20 ba 04 33
        E 20 ba 04 34
        E 20 ba 04 35
        E 20 ba 04 36
        E 20 ba 04 37
        E 20 ba 04 38
        E 20 ba 04 39
        E 20 ba 04 3a
        E 20 ba 04 3b
        E 20 ba 04 3c
        E 20 ba 04 3c
        E 20 ba 04 3d
        E 20 ba 04 3d
        E 20 ba 04 3e
        E 20 ba 04 3e
        E 20 ba 04 3f
        E 20 ba 04 3f
        E 20 ba 04 3f
        E 20 ba 04 3f
        E 20 ba 04 3f
        E 20 ba 04 3f
        E 20 ba 04 3f
        E 20 ba 04 3f
        E 20 ba 04 3f
        E 20 ba 04 3e
        E 20 ba 04 3e
        E 20 ba 04 3d
        E 20 ba 04 3d
        E 20 ba 04 3c
        E 20 ba 04 3b
        E 20 ba 04 3a
        E 20 ba 04 3a
        E 20 ba 04 39
        E 20 ba 04 38
        E 20 ba 04 37
        E 20 ba 04 36
        E 20 ba 04 34
        E 20 ba 04 33
        E 20 ba 04 32
        E 20 ba 04 31
        E 20 ba 04 2f
        E 20 ba 04 2e
        E 20 ba 04 2c
        E 20 ba 04 2b
        E 20 ba 04 2a
        E 20 ba 04 28
        E 20 ba 04 27
        E 20 ba 04 25
        E 20 ba 04 23
        E 20 ba 04 22
        E 20 ba 04 20
        E 20 ba 04 1f
        E 20 ba 04 1d
        E 20 ba 04 1c
        E 20 ba 04 1a
        E 20 ba 04 18
        E 20 ba 04 17
        E 20 ba 04 15
        E 20 ba 04 14
        E 20 ba 04 13
        E 20 ba 04 11
        E 20 ba 04 10
        E 20 ba 04 0e
        E 20 ba 04 0d
        E 20 ba 04 0c
        E 20 ba 04 0b
        E 20 ba 04 09
        E 20 ba 04 08
        E 20 ba 04 07
        E 20 ba 04 06
        E 20 ba 04 05
        E 20 ba 04 05
        E 20 ba 04 04
        E 20 ba 04 03
        E 20 ba 04 02
        E 20 ba 04 02
        E 20 ba 04 01
        E 20 ba 04 01
        E 20 ba 04 00
        E 20 ba 04 00
        E 20 ba 04 00
        E 20 ba 04 00
        E 20 ba 04 00
        E 20 ba 04 00
        E 20 ba 04 00
        E 20 ba 04 00
        E 20 ba 04 00
        E 20 ba 04 01
        E 20 ba 04 01
        E 20 ba 04 02
        E 20 ba 04 02
        E 20 ba 04 03
        E 20 ba 04 03
        E 20 ba 04 04
        E 20 ba 04 05
        E 20 ba 04 06
        E 20 ba 04 07
        E 20 ba 04 08
        E 20 ba 04 09
        E 20 ba 04 0a
        E 20 ba 04 0b
        E 20 ba 04 0c
        E 20 ba 04 0e
        E 20 ba 04 0f
        E 20 ba 04 10
        E 20 ba 04 12
        E 20 ba 04 13
        E 20 ba 04 15
        E 20 ba 04 16
        E 20 ba 04 18
        E 20 ba 04 19
        E 20 ba 04 1b
        E 20 ba 04 1c
        E 20 ba 04 1e
        E 20 ba 04 20
        E 40 ba 04 06
        E 40 ba 04 06
        E 40 ba 04 07
        E 40 ba 04 07
        E 40 ba 04 07
        E 40 ba 04 07
        E 40 ba 04 08
        E 40 ba 04 08
        E 40 ba 04 08
        E 40 ba 04 09
        E 40 ba 04 09
        E 40 ba 04 09
        E 40 ba 04 09
        E 40 ba 04 0a
        E 40 ba 04 0a
        E 40 ba 04 0a
        E 40 ba 04 0a
        E 40 ba 04 0b
        E 40 ba 04 0b
        E 40 ba 04 0b
        E 40 ba 04 0b
        E 40 ba 04 0b
        E 40 ba 04 0c
        E 40 ba 04 0c
        E 40 ba 04 0c
        E 40 ba 04 0c
        E 40 ba 04 0c
        E 40 ba 04 0c
        E 40 ba 04 0c
        E 40 ba 04 0c
        E 40 ba 04 0c
        E 40 ba 04 0c
        E 40 ba 04 0c
        E 40 ba 04 0c
        E 40 ba 04 0c
        E 40 ba 04 0c
        E 40 ba 04 0c
        E 40 ba 04 0c
        E 40 ba 04 0c
        E 40 ba 04 0c
        E 40 ba 04 0c
        E 40 ba 04 0c
        E 40 ba 04 0b
        E 40 ba 04 0b
        E 40 ba 04 0b
        E 40 ba 04 0b
        E 40 ba 04 0b
        E 40 ba 04 0b
        E 40 ba 04 0a
        E 40 ba 04 0a
        E 40 ba 04 0a
        E 40 ba 04 0a
        E 40 ba 04 09
        E 40 ba 04 09
        E 40 ba 04 09
        E 40 ba 04 08
        E 40 ba 04 08
        E 40 ba 04 08
        E 40 ba 04 08
        E 40 ba 04 07
        E 40 ba 04 07
        E 40 ba 04 07
        E 40 ba 04 06
        E 40 ba 04 06
        E 40 ba 04 06
        E 40 ba 04 05
        E 40 ba 04 05
        E 40 ba 04 05
        E 40 ba 04 04
        E 40 ba 04 04
        E 40 ba 04 04
        E 40 ba 04 04
        E 40 ba 04 03
        E 40 ba 04 03
        E 40 ba 04 03
        E 40 ba 04 02
        E 40 ba 04 02
        E 40 ba 04 02
        E 40 ba 04 02
        E 40 ba 04 01
        E 40 ba 04 01
        E 40 ba 04 01
        E 40 ba 04 01
        E 40 ba 04 01
        E 40 ba 04 01
        E 40 ba 04 00
        E 40 ba 04 00
        E 40 ba 04 00
        E 40 ba 04 00
        E 40 ba 04 00
        E 40 ba 04 00
        E 40 ba 04 00
        E 40 ba 04 00
        E 40 ba 04 00
        E 40 ba 04 00
        E 40 ba 04 00
        E 40 ba 04 00
        E 40 ba 04 00
        E 40 ba 04 00
        E 40 ba 04 00
        E 40 ba 04 00
        E 40 ba 04 00
        E 40 ba 04 00
        E 40 ba 04 00
        E 40 ba 04 00
        E 40 ba 04 00
        E 40 ba 04 00
        E 40 ba 04 01
        E 40 ba 04 01
        E 40 ba 04 01
        E 40 ba 04 01
        E 40 ba 04 01
        E 40 ba 04 02
        E 40 ba 04 02
        E 40 ba 04 02
        E 40 ba 04 02
        E 40 ba 04 03
        E 40 ba 04 03
        E 40 ba 04 03
        E 40 ba 04 03
        E 40 ba 04 04
        E 40 ba 04 04
        E 40 ba 04 04
        E 40 ba 04 05
        E 40 ba 04 05
        E 40 ba 04 05
        E 40 ba 04 06
        E 40 ba 04 06
        E 40 ba 04 13
        E 40 ba 04 14
        E 40 ba 04 15
        E 40 ba 04 15
        E 40 ba 04 16
        E 40 ba 04 17
        E 40 ba 04 18
        E 40 ba 04 19
        E 40 ba 04 1a
        E 40 ba 04 1b
        E 40 ba 04 1c
        E 40 ba 04 1c
        E 40 ba 04 1d
        E 40 ba 04 1e
        E 40 ba 04 1f
        E 40 ba 04 1f
        E 40 ba 04 20
        E 40 ba 04 21
        E 40 ba 04 21
        E 40 ba 04 22
        E 40 ba 04 23
        E 40 ba 04 23
        E 40 ba 04 24
        E 40 ba 04 24
        E 40 ba 04 24
        E 40 ba 04 24
        E 40 ba 04 25
        E 40 ba 04 25
        E 40 ba 04 25
        E 40 ba 04 25
        E 40 ba 04 26
        E 40 ba 04 26
        E 40 ba 04 26
        E 40 ba 04 26
        E 40 ba 04 26
        E 40 ba 04 25
        E 40 ba 04 25
        E 40 ba 04 25
        E 40 ba 04 25
        E 40 ba 04 24
        E 40 ba 04 24
        E 40 ba 04 24
        E 40 ba 04 23
        E 40 ba 04 23
        E 40 ba 04 22
        E 40 ba 04 22
        E 40 ba 04 21
        E 40 ba 04 21
        E 40 ba 04 20
        E 40 ba 04 1f
        E 40 ba 04 1e
        E 40 ba 04 1e
        E 40 ba 04 1d
        E 40 ba 04 1c
        E 40 ba 04 1b
        E 40 ba 04 1a
        E 40 ba 04 1a
        E 40 ba 04 19
        E 40 ba 04 18
        E 40 ba 04 17
        E 40 ba 04 16
        E 40 ba 04 15
        E 40 ba 04 14
        E 40 ba 04 13
        E 40 ba 04 12
        E 40 ba 04 11
        E 40 ba 04 10
        E 40 ba 04 0f
        E 40 ba 04 0e
        E 40 ba 04 0d
        E 40 ba 04 0c
        E 40 ba 04 0c
        E 40 ba 04 0b
        E 40 ba 04 0a
        E 40 ba 04 09
        E 40 ba 04 08
        E 40 ba 04 08
        E 40 ba 04 07
        E 40 ba 04 06
        E 40 ba 04 05
        E 40 ba 04 05
        E 40 ba 04 04
        E 40 ba 04 03
        E 40 ba 04 03
        E 40 ba 04 03
        E 40 ba 04 02
        E 40 ba 04 02
        E 40 ba 04 01
        E 40 ba 04 01
        E 40 ba 04 00
        E 40 ba 04 00
        E 40 ba 04 00
        E 40 ba 04 00
        E 40 ba 04 00
        E 40 ba 04 00
        E 40 ba 04 00
        E 40 ba 04 00
        E 40 ba 04 00
        E 40 ba 04 00
        E 40 ba 04 00
        E 40 ba 04 00
        E 40 ba 04 00
        E 40 ba 04 01
        E 40 ba 04 01
        E 40 ba 04 01
        E 40 ba 04 02
        E 40 ba 04 02
        E 40 ba 04 03
        E 40 ba 04 03
        E 40 ba 04 04
        E 40 ba 04 04
        E 40 ba 04 05
        E 40 ba 04 06
        E 40 ba 04 06
        E 40 ba 04 07
        E 40 ba 04 08
        E 40 ba 04 09
        E 40 ba 04 09
        E 40 ba 04 0a
        E 40 ba 04 0b
        E 40 ba 04 0c
        E 40 ba 04 0d
        E 40 ba 04 0e
        E 40 ba 04 0f
        E 40 ba 04 10
        E 40 ba 04 11
        E 40 ba 04 12
        E 40 ba 04 13
        E 35 ba 04 39
        E 35 ba 04 3c
        E 35 ba 04 3f
        E 35 ba 04 41
        E 35 ba 04 44
        E 35 ba 04 47
        E 35 ba 04 49
        E 35 ba 04 4c
        E 35 ba 04 4f
        E 35 ba 04 51
        E 35 ba 04 54
        E 35 ba 04 56
        E 35 ba 04 59
        E 35 ba 04 5b
        E 35 ba 04 5d
        E 35 ba 04 5f
        E 35 ba 04 62
        E 35 ba 04 63
        E 35 ba 04 65
        E 35 ba 04 67
        E 35 ba 04 69
        E 35 ba 04 6a
        E 35 ba 04 6c
        E 35 ba 04 6c
        E 35 ba 04 6d
        E 35 ba 04 6e
        E 35 ba 04 6f
        E 35 ba 04 70
        E 35 ba 04 71
        E 35 ba 04 71
        E 35 ba 04 72
        E 35 ba 04 72
        E 35 ba 04 72
        E 35 ba 04 72
        E 35 ba 04 72
        E 35 ba 04 71
        E 35 ba 04 71
        E 35 ba 04 70
        E 35 ba 04 6f
        E 35 ba 04 6e
        E 35 ba 04 6d
        E 35 ba 04 6c
        E 35 ba 04 6b
        E 35 ba 04 69
        E 35 ba 04 68
        E 35 ba 04 66
        E 35 ba 04 64
        E 35 ba 04 63
        E 35 ba 04 61
        E 35 ba 04 5e
        E 35 ba 04 5c
        E 35 ba 04 5a
        E 35 ba 04 58
        E 35 ba 04 55
        E 35 ba 04 52
        E 35 ba 04 50
        E 35 ba 04 4e
        E 35 ba 04 4b
        E 35 ba 04 48
        E 35 ba 04 46
        E 35 ba 04 42
        E 35 ba 04 3f
        E 35 ba 04 3d
        E 35 ba 04 3a
        E 35 ba 04 37
        E 35 ba 04 35
        E 35 ba 04 32
        E 35 ba 04 2f
        E 35 ba 04 2c
        E 35 ba 04 29
        E 35 ba 04 26
        E 35 ba 04 24
        E 35 ba 04 22
        E 35 ba 04 1f
        E 35 ba 04 1c
        E 35 ba 04 1a
        E 35 ba 04 18
        E 35 ba 04 15
        E 35 ba 04 13
        E 35 ba 04 11
        E 35 ba 04 0f
        E 35 ba 04 0d
        E 35 ba 04 0b
        E 35 ba 04 09
        E 35 ba 04 09
        E 35 ba 04 07
        E 35 ba 04 06
        E 35 ba 04 04
        E 35 ba 04 03
        E 35 ba 04 02
        E 35 ba 04 01
        E 35 ba 04 00
        E 35 ba 04 00
        E 35 ba 04 00
        E 35 ba 04 00
        E 35 ba 04 00
        E 35 ba 04 00
        E 35 ba 04 00
        E 35 ba 04 00
        E 35 ba 04 00
        E 35 ba 04 01
        E 35 ba 04 02
        E 35 ba 04 03
        E 35 ba 04 04
        E 35 ba 04 05
        E 35 ba 04 06
        E 35 ba 04 08
        E 35 ba 04 09
        E 35 ba 04 0a
        E 35 ba 04 0c
        E 35 ba 04 0e
        E 35 ba 04 10
        E 35 ba 04 12
        E 35 ba 04 14
        E 35 ba 04 16
        E 35 ba 04 19
        E 35 ba 04 1b
        E 35 ba 04 1d
        E 35 ba 04 20
        E 35 ba 04 23
        E 35 ba 04 25
        E 35 ba 04 28
        E 35 ba 04 2b
        E 35 ba 04 2d
        E 35 ba 04 30
        E 35 ba 04 33
        E 35 ba 04 36
        E 35 ba 04 39
        E 20 ba 04 20
        E 20 ba 04 21
        E 20 ba 04 23
        E 20 ba 04 24
        E 20 ba 04 26
        E 20 ba 04 27
        E 20 ba 04 29
        E 20 ba 04 2a
        E 20 ba 04 2c
        E 20 ba 04 2d
        E 20 ba 04 2f
        E 20 ba 04 30
        E 20 ba 04 31
        E 20 ba 04 33
        E 20 ba 04 34
        E 20 ba 04 35
        E 20 ba 04 36
        E 20 ba 04 37
        E 20 ba 04 38
        E 20 ba 04 39
        E 20 ba 04 3a
        E 20 ba 04 3b
        E 20 ba 04 3c
        E 20 ba 04 3c
        E 20 ba 04 3d
        E 20 ba 04 3d
        E 20 ba 04 3e
        E 20 ba 04 3e
        E 20 ba 04 3f
        E 20 ba 04 3f
        E 20 ba 04 3f
        E 20 ba 04 3f
        E 20 ba 04 3f
        E 20 ba 04 3f
        E 20 ba 04 3f
        E 20 ba 04 3f
        E 20 ba 04 3f
        E 20 ba 04 3e
        E 20 ba 04 3e
        E 20 ba 04 3d
        E 20 ba 04 3d
        E 20 ba 04 3c
        E 20 ba 04 3b
        E 20 ba 04 3a
        E 20 ba 04 3a
        E 20 ba 04 39
        E 20 ba 04 38
        E 20 ba 04 37
        E 20 ba 04 36
        E 20 ba 04 34
        E 20 ba 04 33
        E 20 ba 04 32
        E 20 ba 04 31
        E 20 ba 04 2f
        E 20 ba 04 2e
        E 20 ba 04 2c
        E 20 ba 04 2b
        E 20 ba 04 2a
        E 20 ba 04 28
        E 20 ba 04 27
        E 20 ba 04 25
        E 20 ba 04 23
        E 20 ba 04 22
        E 20 ba 04 20
        E 20 ba 04 1f
        E 20 ba 04 1d
        E 20 ba 04 1c
        E 20 ba 04 1a
        E 20 ba 04 18
        E 20 ba 04 17
        E 20 ba 04 15
        E 20 ba 04 14
        E 20 ba 04 13
        E 20 ba 04 11
        E 20 ba 04 10
        E 20 ba 04 0e
        E 20 ba 04 0d
        E 20 ba 04 0c
        E 20 ba 04 0b
        E 20 ba 04 09
        E 20 ba 04 08
        E 20 ba 04 07
        E 20 ba 04 06
        E 20 ba 04 05
        E 20 ba 04 05
        E 20 ba 04 04
        E 20 ba 04 03
        E 20 ba 04 02
        E 20 ba 04 02
        E 20 ba 04 01
        E 20 ba 04 01
        E 20 ba 04 00
        E 20 ba 04 00
        E 20 ba 04 00
        E 20 ba 04 00
        E 20 ba 04 00
        E 20 ba 04 00
        E 20 ba 04 00
        E 20 ba 04 00
        E 20 ba 04 00
        E 20 ba 04 01
        E 20 ba 04 01
        E 20 ba 04 02
        E 20 ba 04 02
        E 20 ba 04 03
        E 20 ba 04 03
        E 20 ba 04 04
        E 20 ba 04 05
        E 20 ba 04 06
        E 20 ba 04 07
        E 20 ba 04 08
        E 20 ba 04 09
        E 20 ba 04 0a
        E 20 ba 04 0b
        E 20 ba 04 0c
        E 20 ba 04 0e
        E 20 ba 04 0f
        E 20 ba 04 10
        E 20 ba 04 12
        E 20 ba 04 13
        E 20 ba 04 15
        E 20 ba 04 16
        E 20 ba 04 18
        E 20 ba 04 19
        E 20 ba 04 1b
        E 20 ba 04 1c
        E 20 ba 04 1e
        E 20 ba 04 20
        E 40 ba 04 06
        E 40 ba 04 06
        E 40 ba 04 07
        E 40 ba 04 07
        E 40 ba 04 07
        E 40 ba 04 07
        E 40 ba 04 08
        E 40 ba 04 08
        E 40 ba 04 08
        E 40 ba 04 09
        E 40 ba 04 09
        E 40 ba 04 09
        E 40 ba 04 09
        E 40 ba 04 0a
        E 40 ba 04 0a
        E 40 ba 04 0a
        E 40 ba 04 0a
        E 40 ba 04 0b
        E 40 ba 04 0b
        E 40 ba 04 0b
        E 40 ba 04 0b
        E 40 ba 04 0b
        E 40 ba 04 0c
        E 40 ba 04 0c
        E 40 ba 04 0c
        E 40 ba 04 0c
        E 40 ba 04 0c
        E 40 ba 04 0c
        E 40 ba 04 0c
        E 40 ba 04 0c
        E 40 ba 04 0c
        E 40 ba 04 0c
        E 40 ba 04 0c
        E 40 ba 04 0c
        E 40 ba 04 0c
        E 40 ba 04 0c
        E 40 ba 04 0c
        E 40 ba 04 0c
        E 40 ba 04 0c
        E 40 ba 04 0c
        E 40 ba 04 0c
        E 40 ba 04 0c
        E 40 ba 04 0b
        E 40 ba 04 0b
        E 40 ba 04 0b
        E 40 ba 04 0b
        E 40 ba 04 0b
        E 40 ba 04 0b
        E 40 ba 04 0a
        E 40 ba 04 0a
        E 40 ba 04 0a
        E 40 ba 04 0a
        E 40 ba 04 09
        E 40 ba 04 09
        E 40 ba 04 09
        E 40 ba 04 08
        E 40 ba 04 08
        E 40 ba 04 08
        E 40 ba 04 08
        E 40 ba 04 07
        E 40 ba 04 07
        E 40 ba 04 07
        E 40 ba 04 06
        E 40 ba 04 06
        E 40 ba 04 06
        E 40 ba 04 05
        E 40 ba 04 05
        E 40 ba 04 05
        E 40 ba 04 04
        E 40 ba 04 04
        E 40 ba 04 04
        E 40 ba 04 04
        E 40 ba 04 03
        E 40 ba 04 03
        E 40 ba 04 03
        E 40 ba 04 02
        E 40 ba 04 02
        E 40 ba 04 02
        E 40 ba 04 02
        E 40 ba 04 01
        E 40 ba 04 01
        E 40 ba 04 01
        E 40 ba 04 01
        E 40 ba 04 01
        E 40 ba 04 01
        E 40 ba 04 00
        E 40 ba 04 00
        E 40 ba 04 00
        E 40 ba 04 00
        E 40 ba 04 00
        E 40 ba 04 00
        E 40 ba 04 00
        E 40 ba 04 00
        E 40 ba 04 00
        E 40 ba 04 00
        E 40 ba 04 00
        E 40 ba 04 00
        E 40 ba 04 00
        E 40 ba 04 00
        E 40 ba 04 00
        E 40 ba 04 00
        E 40 ba 04 00
        E 40 ba 04 00
        E 40 ba 04 00
        E 40 ba 04 00
        E 40 ba 04 00
        E 40 ba 04 00
        E 40 ba 04 01
        E 40 ba 04 01
        E 40 ba 04 01
        E 40 ba 04 01
        E 40 ba 04 01
        E 40 ba 04 02
        E 40 ba 04 02
        E 40 ba 04 02
        E 40 ba 04 02
        E 40 ba 04 03
        E 40 ba 04 03
        E 40 ba 04 03
        E 40 ba 04 03
        E 40 ba 04 04
        E 40 ba 04 04
        E 40 ba 04 04
        E 40 ba 04 05
        E 40 ba 04 05
        E 40 ba 04 05
        E 40 ba 04 06
        E 40 ba 04 06
        E 40 ba 04 13
        E 40 ba 04 14
        E 40 ba 04 15
        E 40 ba 04 15
        E 40 ba 04 16
        E 40 ba 04 17
        E 40 ba 04 18
        E 40 ba 04 19
        E 40 ba 04 1a
        E 40 ba 04 1b
        E 40 ba 04 1c
        E 40 ba 04 1c
        E 40 ba 04 1d
        E 40 ba 04 1e
        E 40 ba 04 1f
        E 40 ba 04 1f
        E 40 ba 04 20
        E 40 ba 04 21
        E 40 ba 04 21
        E 40 ba 04 22
        E 40 ba 04 23
        E 40 ba 04 23
        E 40 ba 04 24
        E 40 ba 04 24
        E 40 ba 04 24
        E 40 ba 04 24
        E 40 ba 04 25
        E 40 ba 04 25
        E 40 ba 04 25
        E 40 ba 04 25
        E 40 ba 04 26
        E 40 ba 04 26
        E 40 ba 04 26
        E 40 ba 04 26
        E 40 ba 04 26
        E 40 ba 04 25
        E 40 ba 04 25
        E 40 ba 04 25
        E 40 ba 04 25
        E 40 ba 04 24
        E 40 ba 04 24
        E 40 ba 04 24
        E 40 ba 04 23
        E 40 ba 04 23
        E 40 ba 04 22
        E 40 ba 04 22
        E 40 ba 04 21
        E 40 ba 04 21
        E 40 ba 04 20
        E 40 ba 04 1f
        E 40 ba 04 1e
        E 40 ba 04 1e
        E 40 ba 04 1d
        E 40 ba 04 1c
        E 40 ba 04 1b
        E 40 ba 04 1a
        E 40 ba 04 1a
        E 40 ba 04 19
        E 40 ba 04 18
        E 40 ba 04 17
        E 40 ba 04 16
        E 40 ba 04 15
        E 40 ba 04 14
        E 40 ba 04 13
        E 40 ba 04 12
        E 40 ba 04 11
        E 40 ba 04 10
        E 40 ba 04 0f
        E 40 ba 04 0e
        E 40 ba 04 0d
        E 40 ba 04 0c
        E 40 ba 04 0c
        E 40 ba 04 0b
        E 40 ba 04 0a
        E 40 ba 04 09
        E 40 ba 04 08
        E 40 ba 04 08
        E 40 ba 04 07
        E 40 ba 04 06
        E 40 ba 04 05
        E 40 ba 04 05
        E 40 ba 04 04
        E 40 ba 04 03
        E 40 ba 04 03
        E 40 ba 04 03
        E 40 ba 04 02
        E 40 ba 04 02
        E 40 ba 04 01
        E 40 ba 04 01
        E 40 ba 04 00
        E 40 ba 04 00
        E 40 ba 04 00
        E 40 ba 04 00
        E 40 ba 04 00
        E 40 ba 04 00
        E 40 ba 04 00
        E 40 ba 04 00
        E 40 ba 04 00
        E 40 ba 04 00
        E 40 ba 04 00
        E 40 ba 04 00
        E 40 ba 04 00
        E 40 ba 04 01
        E 40 ba 04 01
        E 40 ba 04 01
        E 40 ba 04 02
        E 40 ba 04 02
        E 40 ba 04 03
        E 40 ba 04 03
        E 40 ba 04 04
        E 40 ba 04 04
        E 40 ba 04 05
        E 40 ba 04 06
        E 40 ba 04 06
        E 40 ba 04 07
        E 40 ba 04 08
        E 40 ba 04 09
        E 40 ba 04 09
        E 40 ba 04 0a
        E 40 ba 04 0b
        E 40 ba 04 0c
        E 40 ba 04 0d
        E 40 ba 04 0e
        E 40 ba 04 0f
        E 40 ba 04 10
        E 40 ba 04 11
        E 40 ba 04 12
        E 39 ba 04 13
        E 1 b0 7b 00
        CCINTERP 32
        CHASE_CC_TAKEOFFS 1
        GUID {83D97FE4-23B4-F447-BF57-0F15A99E65EC}
        IGNTEMPO 0 120 4 4
        SRCCOLOR 156
        VELLANE 3 601 0
        VELLANE -1 196 0
        CFGEDITVIEW 0 0.008186 62 12 0 -1 0 0 0 0.5
        KEYSNAP 0
        TRACKSEL 252
        EVTFILTER 0 -1 -1 -1 -1 0 0 0 0 -1 -1 -1 -1 0 -1 0 -1 -1
        CFGEDIT 1 1 0 1 0 0 1 1 1 1 1 0.125 0 0 1792 1095 0 0 0 0 0 0 0 0 0 0.5 0 0 1 64
      >
    >
  >
  <TRACK {24346BA8-7244-1D4E-A176-7F73100731CC}
    NAME "germ-x hand sanitizer"
    PEAKCOL 16576
    BEAT -1
    AUTOMODE 0
    VOLPAN 1 0 -1 -1 1
    MUTESOLO 0 0 0
    IPHASE 0
    PLAYOFFS 0 1
    ISBUS 0 0
    BUSCOMP 0 0 0 0 0
    SHOWINMIX 1 0.6667 0.5 1 0.5 -1 -1 -1
    FREEMODE 0
    SEL 0
    REC 0 0 1 0 0 0 0
    VU 2
    TRACKHEIGHT 0 1 0 0 -1 0
    INQ 0 0 0 0.5 100 0 0 100
    NCHAN 2
    FX 1
    TRACKID {24346BA8-7244-1D4E-A176-7F73100731CC}
    PERF 0
    MIDIOUT -1
    MAINSEND 1 0
    <ITEM
      POSITION 0
      SNAPOFFS 0
      LENGTH 747.02628
      LOOP 1
      ALLTAKES 0
      FADEIN 1 0 0 1 0 0
      FADEOUT 1 0 0 1 0 0
      MUTE 0 0
      SEL 0
      IGUID {CA72C9D8-A188-5B44-AFD1-2C1438C38FEF}
      IID 24
      NAME "germ-x hand sanitizer.mid"
      VOLPAN 1 0 1 -1
      SOFFS 0 0
      PLAYRATE 1 1 0 -1 0 0.0025
      CHANMODE 0
      GUID {596AEF0A-7013-6F40-8E8B-63D4A4E34F43}
      <SOURCE MIDI
        HASDATA 1 128 QN
        CCINTERP 32
        POOLEDEVTS {9803D075-CE91-A746-AB85-F5D393FE9BB8}
        E 6 bb 01 10
        E 6 bb 01 39
        E 6 bb 01 25
        E 6 bb 01 06
        E 6 bb 01 36
        E 6 bb 01 30
        E 6 bb 01 07
        E 6 bb 01 06
        E 6 bb 01 24
        E 6 bb 01 48
        E 6 bb 01 3c
        E 6 bb 01 42
        E 6 bb 01 2f
        E 6 bb 01 08
        E 6 bb 01 0e
        E 6 bb 01 33
        E 6 bb 01 2a
        E 6 bb 01 15
        E 6 bb 01 0f
        E 6 bb 01 14
        E 6 bb 01 3b
        E 6 bb 01 23
        E 6 bb 01 12
        E 6 bb 01 2b
        E 6 bb 01 4b
        E 6 bb 01 00
        E 6 bb 01 09
        E 6 bb 01 1f
        E 6 bb 01 19
        E 6 bb 01 3e
        E 6 bb 01 10
        E 6 bb 01 04
        E 6 bb 01 0c
        E 6 bb 01 0d
        E 6 bb 01 45
        E 6 bb 01 13
        E 6 bb 01 00
        E 6 bb 01 38
        E 6 bb 01 1a
        E 6 bb 01 0f
        E 6 bb 01 1e
        E 6 bb 01 13
        E 6 bb 01 40
        E 6 bb 01 40
        E 6 bb 01 4c
        E 6 bb 01 3f
        E 6 bb 01 21
        E 6 bb 01 46
        E 6 bb 01 36
        E 6 bb 01 09
        E 6 bb 01 21
        E 6 bb 01 28
        E 6 bb 01 48
        E 6 bb 01 3a
        E 6 bb 01 29
        E 6 bb 01 2a
        E 6 bb 01 03
        E 6 bb 01 07
        E 6 bb 01 46
        E 6 bb 01 3d
        E 6 bb 01 20
        E 6 bb 01 18
        E 6 bb 01 0a
        E 6 bb 01 22
        E 6 bb 01 16
        E 6 bb 01 12
        E 6 bb 01 1c
        E 6 bb 01 27
        E 6 bb 01 2e
        E 6 bb 01 31
        E 6 bb 01 0c
        E 6 bb 01 2d
        E 6 bb 01 43
        E 6 bb 01 27
        E 6 bb 01 2c
        E 6 bb 01 01
        E 6 bb 01 05
        E 6 bb 01 4b
        E 6 bb 01 31
        E 6 bb 01 0d
        E 6 bb 01 45
        E 6 bb 01 18
        E 6 bb 01 1d
        E 6 bb 01 25
        E 6 bb 01 1e
        E 6 bb 01 33
        E 6 bb 01 3d
        E 6 bb 01 16
        E 6 bb 01 2b
        E 6 bb 01 11
        E 6 bb 01 44
        E 6 bb 01 3f
        E 6 bb 01 22
        E 6 bb 01 1b
        E 6 bb 01 3c
        E 6 bb 01 1c
        E 6 bb 01 35
        E 6 bb 01 0a
        E 6 bb 01 01
        E 6 bb 01 19
        E 6 bb 01 26
        E 6 bb 01 41
        E 6 bb 01 3a
        E 6 bb 01 02
        E 6 bb 01 42
        E 6 bb 01 37
        E 6 bb 01 04
        E 6 bb 01 17
        E 6 bb 01 2d
        E 6 bb 01 39
        E 6 bb 01 49
        E 6 bb 01 2e
        E 6 bb 01 1f
        E 6 bb 01 15
        E 6 bb 01 34
        E 6 bb 01 37
        E 6 bb 01 43
        E 6 bb 01 4a
        E 6 bb 01 24
        E 6 bb 01 30
        E 6 bb 01 34
        E 6 bb 01 28
        E 6 bb 01 47
        E 6 bb 01 0b
        E 6 bb 01 1b
        E 6 bb 01 32
        E 27 bb 01 0b
        E 27 bb 01 26
        E 27 bb 01 19
        E 27 bb 01 04
        E 27 bb 01 24
        E 27 bb 01 20
        E 27 bb 01 04
        E 27 bb 01 04
        E 27 bb 01 18
        E 27 bb 01 30
        E 27 bb 01 28
        E 27 bb 01 2c
        E 27 bb 01 1f
        E 27 bb 01 05
        E 27 bb 01 09
        E 27 bb 01 22
        E 27 bb 01 1c
        E 27 bb 01 0e
        E 27 bb 01 0a
        E 27 bb 01 0d
        E 27 bb 01 27
        E 27 bb 01 17
        E 27 bb 01 0c
        E 27 bb 01 1d
        E 27 bb 01 32
        E 27 bb 01 00
        E 27 bb 01 06
        E 27 bb 01 14
        E 27 bb 01 11
        E 27 bb 01 29
        E 27 bb 01 0a
        E 27 bb 01 03
        E 27 bb 01 08
        E 27 bb 01 08
        E 27 bb 01 2e
        E 27 bb 01 0c
        E 27 bb 01 00
        E 27 bb 01 25
        E 27 bb 01 11
        E 27 bb 01 0a
        E 27 bb 01 14
        E 27 bb 01 0d
        E 27 bb 01 2b
        E 27 bb 01 2a
        E 27 bb 01 32
        E 27 bb 01 2a
        E 27 bb 01 16
        E 27 bb 01 2f
        E 27 bb 01 24
        E 27 bb 01 06
        E 27 bb 01 16
        E 27 bb 01 1b
        E 27 bb 01 30
        E 27 bb 01 26
        E 27 bb 01 1b
        E 27 bb 01 1c
        E 27 bb 01 02
        E 27 bb 01 05
        E 27 bb 01 2e
        E 27 bb 01 28
        E 27 bb 01 15
        E 27 bb 01 10
        E 27 bb 01 06
        E 27 bb 01 16
        E 27 bb 01 0f
        E 27 bb 01 0c
        E 27 bb 01 13
        E 27 bb 01 1a
        E 27 bb 01 1e
        E 27 bb 01 20
        E 27 bb 01 08
        E 27 bb 01 1e
        E 27 bb 01 2d
        E 27 bb 01 1a
        E 27 bb 01 1d
        E 27 bb 01 01
        E 27 bb 01 03
        E 27 bb 01 32
        E 27 bb 01 21
        E 27 bb 01 09
        E 27 bb 01 2e
        E 27 bb 01 10
        E 27 bb 01 13
        E 27 bb 01 18
        E 27 bb 01 14
        E 27 bb 01 22
        E 27 bb 01 29
        E 27 bb 01 0e
        E 27 bb 01 1c
        E 27 bb 01 0b
        E 27 bb 01 2d
        E 27 bb 01 2a
        E 27 bb 01 17
        E 27 bb 01 12
        E 27 bb 01 28
        E 27 bb 01 12
        E 27 bb 01 23
        E 27 bb 01 07
        E 27 bb 01 00
        E 27 bb 01 10
        E 27 bb 01 19
        E 27 bb 01 2b
        E 27 bb 01 27
        E 27 bb 01 01
        E 27 bb 01 2c
        E 27 bb 01 25
        E 27 bb 01 02
        E 27 bb 01 0f
        E 27 bb 01 1e
        E 27 bb 01 26
        E 27 bb 01 30
        E 27 bb 01 1f
        E 27 bb 01 15
        E 27 bb 01 0e
        E 27 bb 01 23
        E 27 bb 01 24
        E 27 bb 01 2c
        E 27 bb 01 31
        E 27 bb 01 18
        E 27 bb 01 20
        E 27 bb 01 22
        E 27 bb 01 1a
        E 27 bb 01 2f
        E 27 bb 01 07
        E 27 bb 01 12
        E 27 bb 01 21
        E 15 bb 01 13
        E 15 bb 01 43
        E 15 bb 01 2c
        E 15 bb 01 07
        E 15 bb 01 3e
        E 15 bb 01 38
        E 15 bb 01 08
        E 15 bb 01 07
        E 15 bb 01 2a
        E 15 bb 01 54
        E 15 bb 01 46
        E 15 bb 01 4d
        E 15 bb 01 37
        E 15 bb 01 09
        E 15 bb 01 10
        E 15 bb 01 3c
        E 15 bb 01 31
        E 15 bb 01 19
        E 15 bb 01 11
        E 15 bb 01 17
        E 15 bb 01 45
        E 15 bb 01 29
        E 15 bb 01 15
        E 15 bb 01 33
        E 15 bb 01 58
        E 15 bb 01 00
        E 15 bb 01 0b
        E 15 bb 01 24
        E 15 bb 01 1e
        E 15 bb 01 48
        E 15 bb 01 12
        E 15 bb 01 05
        E 15 bb 01 0e
        E 15 bb 01 0f
        E 15 bb 01 50
        E 15 bb 01 16
        E 15 bb 01 00
        E 15 bb 01 41
        E 15 bb 01 1e
        E 15 bb 01 12
        E 15 bb 01 23
        E 15 bb 01 17
        E 15 bb 01 4b
        E 15 bb 01 4a
        E 15 bb 01 58
        E 15 bb 01 4a
        E 15 bb 01 26
        E 15 bb 01 52
        E 15 bb 01 3f
        E 15 bb 01 0a
        E 15 bb 01 27
        E 15 bb 01 2f
        E 15 bb 01 54
        E 15 bb 01 43
        E 15 bb 01 30
        E 15 bb 01 31
        E 15 bb 01 04
        E 15 bb 01 09
        E 15 bb 01 51
        E 15 bb 01 47
        E 15 bb 01 25
        E 15 bb 01 1c
        E 15 bb 01 0b
        E 15 bb 01 27
        E 15 bb 01 1a
        E 15 bb 01 15
        E 15 bb 01 21
        E 15 bb 01 2e
        E 15 bb 01 35
        E 15 bb 01 39
        E 15 bb 01 0e
        E 15 bb 01 35
        E 15 bb 01 4f
        E 15 bb 01 2d
        E 15 bb 01 33
        E 15 bb 01 02
        E 15 bb 01 06
        E 15 bb 01 57
        E 15 bb 01 3a
        E 15 bb 01 10
        E 15 bb 01 51
        E 15 bb 01 1c
        E 15 bb 01 22
        E 15 bb 01 2b
        E 15 bb 01 23
        E 15 bb 01 3b
        E 15 bb 01 48
        E 15 bb 01 19
        E 15 bb 01 32
        E 15 bb 01 14
        E 15 bb 01 4f
        E 15 bb 01 49
        E 15 bb 01 28
        E 15 bb 01 20
        E 15 bb 01 46
        E 15 bb 01 20
        E 15 bb 01 3e
        E 15 bb 01 0c
        E 15 bb 01 01
        E 15 bb 01 1d
        E 15 bb 01 2c
        E 15 bb 01 4c
        E 15 bb 01 44
        E 15 bb 01 02
        E 15 bb 01 4d
        E 15 bb 01 41
        E 15 bb 01 04
        E 15 bb 01 1b
        E 15 bb 01 34
        E 15 bb 01 42
        E 15 bb 01 55
        E 15 bb 01 36
        E 15 bb 01 25
        E 15 bb 01 18
        E 15 bb 01 3d
        E 15 bb 01 40
        E 15 bb 01 4e
        E 15 bb 01 56
        E 15 bb 01 2a
        E 15 bb 01 38
        E 15 bb 01 3c
        E 15 bb 01 2e
        E 15 bb 01 53
        E 15 bb 01 0d
        E 15 bb 01 1f
        E 15 bb 01 3a
        E 3 bb 01 0b
        E 3 bb 01 26
        E 3 bb 01 19
        E 3 bb 01 04
        E 3 bb 01 24
        E 3 bb 01 20
        E 3 bb 01 04
        E 3 bb 01 04
        E 3 bb 01 18
        E 3 bb 01 30
        E 3 bb 01 28
        E 3 bb 01 2c
        E 3 bb 01 1f
        E 3 bb 01 05
        E 3 bb 01 09
        E 3 bb 01 22
        E 3 bb 01 1c
        E 3 bb 01 0e
        E 3 bb 01 0a
        E 3 bb 01 0d
        E 3 bb 01 27
        E 3 bb 01 17
        E 3 bb 01 0c
        E 3 bb 01 1d
        E 3 bb 01 32
        E 3 bb 01 00
        E 3 bb 01 06
        E 3 bb 01 14
        E 3 bb 01 11
        E 3 bb 01 29
        E 3 bb 01 0a
        E 3 bb 01 03
        E 3 bb 01 08
        E 3 bb 01 08
        E 3 bb 01 2e
        E 3 bb 01 0c
        E 3 bb 01 00
        E 3 bb 01 25
        E 3 bb 01 11
        E 3 bb 01 0a
        E 3 bb 01 14
        E 3 bb 01 0d
        E 3 bb 01 2b
        E 3 bb 01 2a
        E 3 bb 01 32
        E 3 bb 01 2a
        E 3 bb 01 16
        E 3 bb 01 2f
        E 3 bb 01 24
        E 3 bb 01 06
        E 3 bb 01 16
        E 3 bb 01 1b
        E 3 bb 01 30
        E 3 bb 01 26
        E 3 bb 01 1b
        E 3 bb 01 1c
        E 3 bb 01 02
        E 3 bb 01 05
        E 3 bb 01 2e
        E 3 bb 01 28
        E 3 bb 01 15
        E 3 bb 01 10
        E 3 bb 01 06
        E 3 bb 01 16
        E 3 bb 01 0f
        E 3 bb 01 0c
        E 3 bb 01 13
        E 3 bb 01 1a
        E 3 bb 01 1e
        E 3 bb 01 20
        E 3 bb 01 08
        E 3 bb 01 1e
        E 3 bb 01 2d
        E 3 bb 01 1a
        E 3 bb 01 1d
        E 3 bb 01 01
        E 3 bb 01 03
        E 3 bb 01 32
        E 3 bb 01 21
        E 3 bb 01 09
        E 3 bb 01 2e
        E 3 bb 01 10
        E 3 bb 01 13
        E 3 bb 01 18
        E 3 bb 01 14
        E 3 bb 01 22
        E 3 bb 01 29
        E 3 bb 01 0e
        E 3 bb 01 1c
        E 3 bb 01 0b
        E 3 bb 01 2d
        E 3 bb 01 2a
        E 3 bb 01 17
        E 3 bb 01 12
        E 3 bb 01 28
        E 3 bb 01 12
        E 3 bb 01 23
        E 3 bb 01 07
        E 3 bb 01 00
        E 3 bb 01 10
        E 3 bb 01 19
        E 3 bb 01 2b
        E 3 bb 01 27
        E 3 bb 01 01
        E 3 bb 01 2c
        E 3 bb 01 25
        E 3 bb 01 02
        E 3 bb 01 0f
        E 3 bb 01 1e
        E 3 bb 01 26
        E 3 bb 01 30
        E 3 bb 01 1f
        E 3 bb 01 15
        E 3 bb 01 0e
        E 3 bb 01 23
        E 3 bb 01 24
        E 3 bb 01 2c
        E 3 bb 01 31
        E 3 bb 01 18
        E 3 bb 01 20
        E 3 bb 01 22
        E 3 bb 01 1a
        E 3 bb 01 2f
        E 3 bb 01 07
        E 3 bb 01 12
        E 3 bb 01 21
        E 9 bb 01 16
        E 9 bb 01 4c
        E 9 bb 01 32
        E 9 bb 01 07
        E 9 bb 01 48
        E 9 bb 01 3f
        E 9 bb 01 09
        E 9 bb 01 08
        E 9 bb 01 30
        E 9 bb 01 5f
        E 9 bb 01 50
        E 9 bb 01 58
        E 9 bb 01 3f
        E 9 bb 01 0b
        E 9 bb 01 13
        E 9 bb 01 44
        E 9 bb 01 37
        E 9 bb 01 1c
        E 9 bb 01 14
        E 9 bb 01 1b
        E 9 bb 01 4f
        E 9 bb 01 2f
        E 9 bb 01 17
        E 9 bb 01 3a
        E 9 bb 01 64
        E 9 bb 01 00
        E 9 bb 01 0c
        E 9 bb 01 29
        E 9 bb 01 22
        E 9 bb 01 53
        E 9 bb 01 15
        E 9 bb 01 06
        E 9 bb 01 0f
        E 9 bb 01 11
        E 9 bb 01 5b
        E 9 bb 01 19
        E 9 bb 01 00
        E 9 bb 01 4b
        E 9 bb 01 23
        E 9 bb 01 14
        E 9 bb 01 28
        E 9 bb 01 1a
        E 9 bb 01 56
        E 9 bb 01 55
        E 9 bb 01 65
        E 9 bb 01 54
        E 9 bb 01 2b
        E 9 bb 01 5e
        E 9 bb 01 48
        E 9 bb 01 0b
        E 9 bb 01 2c
        E 9 bb 01 36
        E 9 bb 01 60
        E 9 bb 01 4d
        E 9 bb 01 37
        E 9 bb 01 38
        E 9 bb 01 04
        E 9 bb 01 0a
        E 9 bb 01 5d
        E 9 bb 01 51
        E 9 bb 01 2b
        E 9 bb 01 1f
        E 9 bb 01 0d
        E 9 bb 01 2d
        E 9 bb 01 1e
        E 9 bb 01 18
        E 9 bb 01 26
        E 9 bb 01 34
        E 9 bb 01 3d
        E 9 bb 01 41
        E 9 bb 01 10
        E 9 bb 01 3c
        E 9 bb 01 5a
        E 9 bb 01 33
        E 9 bb 01 3b
        E 9 bb 01 02
        E 9 bb 01 07
        E 9 bb 01 63
        E 9 bb 01 42
        E 9 bb 01 12
        E 9 bb 01 5c
        E 9 bb 01 20
        E 9 bb 01 27
        E 9 bb 01 31
        E 9 bb 01 28
        E 9 bb 01 44
        E 9 bb 01 52
        E 9 bb 01 1d
        E 9 bb 01 39
        E 9 bb 01 17
        E 9 bb 01 5b
        E 9 bb 01 54
        E 9 bb 01 2e
        E 9 bb 01 24
        E 9 bb 01 50
        E 9 bb 01 25
        E 9 bb 01 47
        E 9 bb 01 0e
        E 9 bb 01 01
        E 9 bb 01 21
        E 9 bb 01 33
        E 9 bb 01 57
        E 9 bb 01 4e
        E 9 bb 01 03
        E 9 bb 01 57
        E 9 bb 01 4a
        E 9 bb 01 05
        E 9 bb 01 1f
        E 9 bb 01 3b
        E 9 bb 01 4c
        E 9 bb 01 61
        E 9 bb 01 3e
        E 9 bb 01 2a
        E 9 bb 01 1b
        E 9 bb 01 46
        E 9 bb 01 49
        E 9 bb 01 59
        E 9 bb 01 63
        E 9 bb 01 2f
        E 9 bb 01 40
        E 9 bb 01 45
        E 9 bb 01 35
        E 9 bb 01 5f
        E 9 bb 01 0f
        E 9 bb 01 24
        E 9 bb 01 43
        E 27 bb 01 16
        E 27 bb 01 4c
        E 27 bb 01 32
        E 27 bb 01 07
        E 27 bb 01 48
        E 27 bb 01 3f
        E 27 bb 01 09
        E 27 bb 01 08
        E 27 bb 01 30
        E 27 bb 01 5f
        E 27 bb 01 50
        E 27 bb 01 58
        E 27 bb 01 3f
        E 27 bb 01 0b
        E 27 bb 01 13
        E 27 bb 01 44
        E 27 bb 01 37
        E 27 bb 01 1c
        E 27 bb 01 14
        E 27 bb 01 1b
        E 27 bb 01 4f
        E 27 bb 01 2f
        E 27 bb 01 17
        E 27 bb 01 3a
        E 27 bb 01 64
        E 27 bb 01 00
        E 27 bb 01 0c
        E 27 bb 01 29
        E 27 bb 01 22
        E 27 bb 01 53
        E 27 bb 01 15
        E 27 bb 01 06
        E 27 bb 01 0f
        E 27 bb 01 11
        E 27 bb 01 5b
        E 27 bb 01 19
        E 27 bb 01 00
        E 27 bb 01 4b
        E 27 bb 01 23
        E 27 bb 01 14
        E 27 bb 01 28
        E 27 bb 01 1a
        E 27 bb 01 56
        E 27 bb 01 55
        E 27 bb 01 65
        E 27 bb 01 54
        E 27 bb 01 2b
        E 27 bb 01 5e
        E 27 bb 01 48
        E 27 bb 01 0b
        E 27 bb 01 2c
        E 27 bb 01 36
        E 27 bb 01 60
        E 27 bb 01 4d
        E 27 bb 01 37
        E 27 bb 01 38
        E 27 bb 01 04
        E 27 bb 01 0a
        E 27 bb 01 5d
        E 27 bb 01 51
        E 27 bb 01 2b
        E 27 bb 01 1f
        E 27 bb 01 0d
        E 27 bb 01 2d
        E 27 bb 01 1e
        E 27 bb 01 18
        E 27 bb 01 26
        E 27 bb 01 34
        E 27 bb 01 3d
        E 27 bb 01 41
        E 27 bb 01 10
        E 27 bb 01 3c
        E 27 bb 01 5a
        E 27 bb 01 33
        E 27 bb 01 3b
        E 27 bb 01 02
        E 27 bb 01 07
        E 27 bb 01 63
        E 27 bb 01 42
        E 27 bb 01 12
        E 27 bb 01 5c
        E 27 bb 01 20
        E 27 bb 01 27
        E 27 bb 01 31
        E 27 bb 01 28
        E 27 bb 01 44
        E 27 bb 01 52
        E 27 bb 01 1d
        E 27 bb 01 39
        E 27 bb 01 17
        E 27 bb 01 5b
        E 27 bb 01 54
        E 27 bb 01 2e
        E 27 bb 01 24
        E 27 bb 01 50
        E 27 bb 01 25
        E 27 bb 01 47
        E 27 bb 01 0e
        E 27 bb 01 01
        E 27 bb 01 21
        E 27 bb 01 33
        E 27 bb 01 57
        E 27 bb 01 4e
        E 27 bb 01 03
        E 27 bb 01 57
        E 27 bb 01 4a
        E 27 bb 01 05
        E 27 bb 01 1f
        E 27 bb 01 3b
        E 27 bb 01 4c
        E 27 bb 01 61
        E 27 bb 01 3e
        E 27 bb 01 2a
        E 27 bb 01 1b
        E 27 bb 01 46
        E 27 bb 01 49
        E 27 bb 01 59
        E 27 bb 01 63
        E 27 bb 01 2f
        E 27 bb 01 40
        E 27 bb 01 45
        E 27 bb 01 35
        E 27 bb 01 5f
        E 27 bb 01 0f
        E 27 bb 01 24
        E 27 bb 01 43
        E 6 bb 01 10
        E 6 bb 01 39
        E 6 bb 01 25
        E 6 bb 01 06
        E 6 bb 01 36
        E 6 bb 01 30
        E 6 bb 01 07
        E 6 bb 01 06
        E 6 bb 01 24
        E 6 bb 01 48
        E 6 bb 01 3c
        E 6 bb 01 42
        E 6 bb 01 2f
        E 6 bb 01 08
        E 6 bb 01 0e
        E 6 bb 01 33
        E 6 bb 01 2a
        E 6 bb 01 15
        E 6 bb 01 0f
        E 6 bb 01 14
        E 6 bb 01 3b
        E 6 bb 01 23
        E 6 bb 01 12
        E 6 bb 01 2b
        E 6 bb 01 4b
        E 6 bb 01 00
        E 6 bb 01 09
        E 6 bb 01 1f
        E 6 bb 01 19
        E 6 bb 01 3e
        E 6 bb 01 10
        E 6 bb 01 04
        E 6 bb 01 0c
        E 6 bb 01 0d
        E 6 bb 01 45
        E 6 bb 01 13
        E 6 bb 01 00
        E 6 bb 01 38
        E 6 bb 01 1a
        E 6 bb 01 0f
        E 6 bb 01 1e
        E 6 bb 01 13
        E 6 bb 01 40
        E 6 bb 01 40
        E 6 bb 01 4c
        E 6 bb 01 3f
        E 6 bb 01 21
        E 6 bb 01 46
        E 6 bb 01 36
        E 6 bb 01 09
        E 6 bb 01 21
        E 6 bb 01 28
        E 6 bb 01 48
        E 6 bb 01 3a
        E 6 bb 01 29
        E 6 bb 01 2a
        E 6 bb 01 03
        E 6 bb 01 07
        E 6 bb 01 46
        E 6 bb 01 3d
        E 6 bb 01 20
        E 6 bb 01 18
        E 6 bb 01 0a
        E 6 bb 01 22
        E 6 bb 01 16
        E 6 bb 01 12
        E 6 bb 01 1c
        E 6 bb 01 27
        E 6 bb 01 2e
        E 6 bb 01 31
        E 6 bb 01 0c
        E 6 bb 01 2d
        E 6 bb 01 43
        E 6 bb 01 27
        E 6 bb 01 2c
        E 6 bb 01 01
        E 6 bb 01 05
        E 6 bb 01 4b
        E 6 bb 01 31
        E 6 bb 01 0d
        E 6 bb 01 45
        E 6 bb 01 18
        E 6 bb 01 1d
        E 6 bb 01 25
        E 6 bb 01 1e
        E 6 bb 01 33
        E 6 bb 01 3d
        E 6 bb 01 16
        E 6 bb 01 2b
        E 6 bb 01 11
        E 6 bb 01 44
        E 6 bb 01 3f
        E 6 bb 01 22
        E 6 bb 01 1b
        E 6 bb 01 3c
        E 6 bb 01 1c
        E 6 bb 01 35
        E 6 bb 01 0a
        E 6 bb 01 01
        E 6 bb 01 19
        E 6 bb 01 26
        E 6 bb 01 41
        E 6 bb 01 3a
        E 6 bb 01 02
        E 6 bb 01 42
        E 6 bb 01 37
        E 6 bb 01 04
        E 6 bb 01 17
        E 6 bb 01 2d
        E 6 bb 01 39
        E 6 bb 01 49
        E 6 bb 01 2e
        E 6 bb 01 1f
        E 6 bb 01 15
        E 6 bb 01 34
        E 6 bb 01 37
        E 6 bb 01 43
        E 6 bb 01 4a
        E 6 bb 01 24
        E 6 bb 01 30
        E 6 bb 01 34
        E 6 bb 01 28
        E 6 bb 01 47
        E 6 bb 01 0b
        E 6 bb 01 1b
        E 6 bb 01 32
        E 27 bb 01 0b
        E 27 bb 01 26
        E 27 bb 01 19
        E 27 bb 01 04
        E 27 bb 01 24
        E 27 bb 01 20
        E 27 bb 01 04
        E 27 bb 01 04
        E 27 bb 01 18
        E 27 bb 01 30
        E 27 bb 01 28
        E 27 bb 01 2c
        E 27 bb 01 1f
        E 27 bb 01 05
        E 27 bb 01 09
        E 27 bb 01 22
        E 27 bb 01 1c
        E 27 bb 01 0e
        E 27 bb 01 0a
        E 27 bb 01 0d
        E 27 bb 01 27
        E 27 bb 01 17
        E 27 bb 01 0c
        E 27 bb 01 1d
        E 27 bb 01 32
        E 27 bb 01 00
        E 27 bb 01 06
        E 27 bb 01 14
        E 27 bb 01 11
        E 27 bb 01 29
        E 27 bb 01 0a
        E 27 bb 01 03
        E 27 bb 01 08
        E 27 bb 01 08
        E 27 bb 01 2e
        E 27 bb 01 0c
        E 27 bb 01 00
        E 27 bb 01 25
        E 27 bb 01 11
        E 27 bb 01 0a
        E 27 bb 01 14
        E 27 bb 01 0d
        E 27 bb 01 2b
        E 27 bb 01 2a
        E 27 bb 01 32
        E 27 bb 01 2a
        E 27 bb 01 16
        E 27 bb 01 2f
        E 27 bb 01 24
        E 27 bb 01 06
        E 27 bb 01 16
        E 27 bb 01 1b
        E 27 bb 01 30
        E 27 bb 01 26
        E 27 bb 01 1b
        E 27 bb 01 1c
        E 27 bb 01 02
        E 27 bb 01 05
        E 27 bb 01 2e
        E 27 bb 01 28
        E 27 bb 01 15
        E 27 bb 01 10
        E 27 bb 01 06
        E 27 bb 01 16
        E 27 bb 01 0f
        E 27 bb 01 0c
        E 27 bb 01 13
        E 27 bb 01 1a
        E 27 bb 01 1e
        E 27 bb 01 20
        E 27 bb 01 08
        E 27 bb 01 1e
        E 27 bb 01 2d
        E 27 bb 01 1a
        E 27 bb 01 1d
        E 27 bb 01 01
        E 27 bb 01 03
        E 27 bb 01 32
        E 27 bb 01 21
        E 27 bb 01 09
        E 27 bb 01 2e
        E 27 bb 01 10
        E 27 bb 01 13
        E 27 bb 01 18
        E 27 bb 01 14
        E 27 bb 01 22
        E 27 bb 01 29
        E 27 bb 01 0e
        E 27 bb 01 1c
        E 27 bb 01 0b
        E 27 bb 01 2d
        E 27 bb 01 2a
        E 27 bb 01 17
        E 27 bb 01 12
        E 27 bb 01 28
        E 27 bb 01 12
        E 27 bb 01 23
        E 27 bb 01 07
        E 27 bb 01 00
        E 27 bb 01 10
        E 27 bb 01 19
        E 27 bb 01 2b
        E 27 bb 01 27
        E 27 bb 01 01
        E 27 bb 01 2c
        E 27 bb 01 25
        E 27 bb 01 02
        E 27 bb 01 0f
        E 27 bb 01 1e
        E 27 bb 01 26
        E 27 bb 01 30
        E 27 bb 01 1f
        E 27 bb 01 15
        E 27 bb 01 0e
        E 27 bb 01 23
        E 27 bb 01 24
        E 27 bb 01 2c
        E 27 bb 01 31
        E 27 bb 01 18
        E 27 bb 01 20
        E 27 bb 01 22
        E 27 bb 01 1a
        E 27 bb 01 2f
        E 27 bb 01 07
        E 27 bb 01 12
        E 27 bb 01 21
        E 15 bb 01 13
        E 15 bb 01 43
        E 15 bb 01 2c
        E 15 bb 01 07
        E 15 bb 01 3e
        E 15 bb 01 38
        E 15 bb 01 08
        E 15 bb 01 07
        E 15 bb 01 2a
        E 15 bb 01 54
        E 15 bb 01 46
        E 15 bb 01 4d
        E 15 bb 01 37
        E 15 bb 01 09
        E 15 bb 01 10
        E 15 bb 01 3c
        E 15 bb 01 31
        E 15 bb 01 19
        E 15 bb 01 11
        E 15 bb 01 17
        E 15 bb 01 45
        E 15 bb 01 29
        E 15 bb 01 15
        E 15 bb 01 33
        E 15 bb 01 58
        E 15 bb 01 00
        E 15 bb 01 0b
        E 15 bb 01 24
        E 15 bb 01 1e
        E 15 bb 01 48
        E 15 bb 01 12
        E 15 bb 01 05
        E 15 bb 01 0e
        E 15 bb 01 0f
        E 15 bb 01 50
        E 15 bb 01 16
        E 15 bb 01 00
        E 15 bb 01 41
        E 15 bb 01 1e
        E 15 bb 01 12
        E 15 bb 01 23
        E 15 bb 01 17
        E 15 bb 01 4b
        E 15 bb 01 4a
        E 15 bb 01 58
        E 15 bb 01 4a
        E 15 bb 01 26
        E 15 bb 01 52
        E 15 bb 01 3f
        E 15 bb 01 0a
        E 15 bb 01 27
        E 15 bb 01 2f
        E 15 bb 01 54
        E 15 bb 01 43
        E 15 bb 01 30
        E 15 bb 01 31
        E 15 bb 01 04
        E 15 bb 01 09
        E 15 bb 01 51
        E 15 bb 01 47
        E 15 bb 01 25
        E 15 bb 01 1c
        E 15 bb 01 0b
        E 15 bb 01 27
        E 15 bb 01 1a
        E 15 bb 01 15
        E 15 bb 01 21
        E 15 bb 01 2e
        E 15 bb 01 35
        E 15 bb 01 39
        E 15 bb 01 0e
        E 15 bb 01 35
        E 15 bb 01 4f
        E 15 bb 01 2d
        E 15 bb 01 33
        E 15 bb 01 02
        E 15 bb 01 06
        E 15 bb 01 57
        E 15 bb 01 3a
        E 15 bb 01 10
        E 15 bb 01 51
        E 15 bb 01 1c
        E 15 bb 01 22
        E 15 bb 01 2b
        E 15 bb 01 23
        E 15 bb 01 3b
        E 15 bb 01 48
        E 15 bb 01 19
        E 15 bb 01 32
        E 15 bb 01 14
        E 15 bb 01 4f
        E 15 bb 01 49
        E 15 bb 01 28
        E 15 bb 01 20
        E 15 bb 01 46
        E 15 bb 01 20
        E 15 bb 01 3e
        E 15 bb 01 0c
        E 15 bb 01 01
        E 15 bb 01 1d
        E 15 bb 01 2c
        E 15 bb 01 4c
        E 15 bb 01 44
        E 15 bb 01 02
        E 15 bb 01 4d
        E 15 bb 01 41
        E 15 bb 01 04
        E 15 bb 01 1b
        E 15 bb 01 34
        E 15 bb 01 42
        E 15 bb 01 55
        E 15 bb 01 36
        E 15 bb 01 25
        E 15 bb 01 18
        E 15 bb 01 3d
        E 15 bb 01 40
        E 15 bb 01 4e
        E 15 bb 01 56
        E 15 bb 01 2a
        E 15 bb 01 38
        E 15 bb 01 3c
        E 15 bb 01 2e
        E 15 bb 01 53
        E 15 bb 01 0d
        E 15 bb 01 1f
        E 15 bb 01 3a
        E 3 bb 01 0b
        E 3 bb 01 26
        E 3 bb 01 19
        E 3 bb 01 04
        E 3 bb 01 24
        E 3 bb 01 20
        E 3 bb 01 04
        E 3 bb 01 04
        E 3 bb 01 18
        E 3 bb 01 30
        E 3 bb 01 28
        E 3 bb 01 2c
        E 3 bb 01 1f
        E 3 bb 01 05
        E 3 bb 01 09
        E 3 bb 01 22
        E 3 bb 01 1c
        E 3 bb 01 0e
        E 3 bb 01 0a
        E 3 bb 01 0d
        E 3 bb 01 27
        E 3 bb 01 17
        E 3 bb 01 0c
        E 3 bb 01 1d
        E 3 bb 01 32
        E 3 bb 01 00
        E 3 bb 01 06
        E 3 bb 01 14
        E 3 bb 01 11
        E 3 bb 01 29
        E 3 bb 01 0a
        E 3 bb 01 03
        E 3 bb 01 08
        E 3 bb 01 08
        E 3 bb 01 2e
        E 3 bb 01 0c
        E 3 bb 01 00
        E 3 bb 01 25
        E 3 bb 01 11
        E 3 bb 01 0a
        E 3 bb 01 14
        E 3 bb 01 0d
        E 3 bb 01 2b
        E 3 bb 01 2a
        E 3 bb 01 32
        E 3 bb 01 2a
        E 3 bb 01 16
        E 3 bb 01 2f
        E 3 bb 01 24
        E 3 bb 01 06
        E 3 bb 01 16
        E 3 bb 01 1b
        E 3 bb 01 30
        E 3 bb 01 26
        E 3 bb 01 1b
        E 3 bb 01 1c
        E 3 bb 01 02
        E 3 bb 01 05
        E 3 bb 01 2e
        E 3 bb 01 28
        E 3 bb 01 15
        E 3 bb 01 10
        E 3 bb 01 06
        E 3 bb 01 16
        E 3 bb 01 0f
        E 3 bb 01 0c
        E 3 bb 01 13
        E 3 bb 01 1a
        E 3 bb 01 1e
        E 3 bb 01 20
        E 3 bb 01 08
        E 3 bb 01 1e
        E 3 bb 01 2d
        E 3 bb 01 1a
        E 3 bb 01 1d
        E 3 bb 01 01
        E 3 bb 01 03
        E 3 bb 01 32
        E 3 bb 01 21
        E 3 bb 01 09
        E 3 bb 01 2e
        E 3 bb 01 10
        E 3 bb 01 13
        E 3 bb 01 18
        E 3 bb 01 14
        E 3 bb 01 22
        E 3 bb 01 29
        E 3 bb 01 0e
        E 3 bb 01 1c
        E 3 bb 01 0b
        E 3 bb 01 2d
        E 3 bb 01 2a
        E 3 bb 01 17
        E 3 bb 01 12
        E 3 bb 01 28
        E 3 bb 01 12
        E 3 bb 01 23
        E 3 bb 01 07
        E 3 bb 01 00
        E 3 bb 01 10
        E 3 bb 01 19
        E 3 bb 01 2b
        E 3 bb 01 27
        E 3 bb 01 01
        E 3 bb 01 2c
        E 3 bb 01 25
        E 3 bb 01 02
        E 3 bb 01 0f
        E 3 bb 01 1e
        E 3 bb 01 26
        E 3 bb 01 30
        E 3 bb 01 1f
        E 3 bb 01 15
        E 3 bb 01 0e
        E 3 bb 01 23
        E 3 bb 01 24
        E 3 bb 01 2c
        E 3 bb 01 31
        E 3 bb 01 18
        E 3 bb 01 20
        E 3 bb 01 22
        E 3 bb 01 1a
        E 3 bb 01 2f
        E 3 bb 01 07
        E 3 bb 01 12
        E 3 bb 01 21
        E 9 bb 01 16
        E 9 bb 01 4c
        E 9 bb 01 32
        E 9 bb 01 07
        E 9 bb 01 48
        E 9 bb 01 3f
        E 9 bb 01 09
        E 9 bb 01 08
        E 9 bb 01 30
        E 9 bb 01 5f
        E 9 bb 01 50
        E 9 bb 01 58
        E 9 bb 01 3f
        E 9 bb 01 0b
        E 9 bb 01 13
        E 9 bb 01 44
        E 9 bb 01 37
        E 9 bb 01 1c
        E 9 bb 01 14
        E 9 bb 01 1b
        E 9 bb 01 4f
        E 9 bb 01 2f
        E 9 bb 01 17
        E 9 bb 01 3a
        E 9 bb 01 64
        E 9 bb 01 00
        E 9 bb 01 0c
        E 9 bb 01 29
        E 9 bb 01 22
        E 9 bb 01 53
        E 9 bb 01 15
        E 9 bb 01 06
        E 9 bb 01 0f
        E 9 bb 01 11
        E 9 bb 01 5b
        E 9 bb 01 19
        E 9 bb 01 00
        E 9 bb 01 4b
        E 9 bb 01 23
        E 9 bb 01 14
        E 9 bb 01 28
        E 9 bb 01 1a
        E 9 bb 01 56
        E 9 bb 01 55
        E 9 bb 01 65
        E 9 bb 01 54
        E 9 bb 01 2b
        E 9 bb 01 5e
        E 9 bb 01 48
        E 9 bb 01 0b
        E 9 bb 01 2c
        E 9 bb 01 36
        E 9 bb 01 60
        E 9 bb 01 4d
        E 9 bb 01 37
        E 9 bb 01 38
        E 9 bb 01 04
        E 9 bb 01 0a
        E 9 bb 01 5d
        E 9 bb 01 51
        E 9 bb 01 2b
        E 9 bb 01 1f
        E 9 bb 01 0d
        E 9 bb 01 2d
        E 9 bb 01 1e
        E 9 bb 01 18
        E 9 bb 01 26
        E 9 bb 01 34
        E 9 bb 01 3d
        E 9 bb 01 41
        E 9 bb 01 10
        E 9 bb 01 3c
        E 9 bb 01 5a
        E 9 bb 01 33
        E 9 bb 01 3b
        E 9 bb 01 02
        E 9 bb 01 07
        E 9 bb 01 63
        E 9 bb 01 42
        E 9 bb 01 12
        E 9 bb 01 5c
        E 9 bb 01 20
        E 9 bb 01 27
        E 9 bb 01 31
        E 9 bb 01 28
        E 9 bb 01 44
        E 9 bb 01 52
        E 9 bb 01 1d
        E 9 bb 01 39
        E 9 bb 01 17
        E 9 bb 01 5b
        E 9 bb 01 54
        E 9 bb 01 2e
        E 9 bb 01 24
        E 9 bb 01 50
        E 9 bb 01 25
        E 9 bb 01 47
        E 9 bb 01 0e
        E 9 bb 01 01
        E 9 bb 01 21
        E 9 bb 01 33
        E 9 bb 01 57
        E 9 bb 01 4e
        E 9 bb 01 03
        E 9 bb 01 57
        E 9 bb 01 4a
        E 9 bb 01 05
        E 9 bb 01 1f
        E 9 bb 01 3b
        E 9 bb 01 4c
        E 9 bb 01 61
        E 9 bb 01 3e
        E 9 bb 01 2a
        E 9 bb 01 1b
        E 9 bb 01 46
        E 9 bb 01 49
        E 9 bb 01 59
        E 9 bb 01 63
        E 9 bb 01 2f
        E 9 bb 01 40
        E 9 bb 01 45
        E 9 bb 01 35
        E 9 bb 01 5f
        E 9 bb 01 0f
        E 9 bb 01 24
        E 9 bb 01 43
        E 27 bb 01 16
        E 27 bb 01 4c
        E 27 bb 01 32
        E 27 bb 01 07
        E 27 bb 01 48
        E 27 bb 01 3f
        E 27 bb 01 09
        E 27 bb 01 08
        E 27 bb 01 30
        E 27 bb 01 5f
        E 27 bb 01 50
        E 27 bb 01 58
        E 27 bb 01 3f
        E 27 bb 01 0b
        E 27 bb 01 13
        E 27 bb 01 44
        E 27 bb 01 37
        E 27 bb 01 1c
        E 27 bb 01 14
        E 27 bb 01 1b
        E 27 bb 01 4f
        E 27 bb 01 2f
        E 27 bb 01 17
        E 27 bb 01 3a
        E 27 bb 01 64
        E 27 bb 01 00
        E 27 bb 01 0c
        E 27 bb 01 29
        E 27 bb 01 22
        E 27 bb 01 53
        E 27 bb 01 15
        E 27 bb 01 06
        E 27 bb 01 0f
        E 27 bb 01 11
        E 27 bb 01 5b
        E 27 bb 01 19
        E 27 bb 01 00
        E 27 bb 01 4b
        E 27 bb 01 23
        E 27 bb 01 14
        E 27 bb 01 28
        E 27 bb 01 1a
        E 27 bb 01 56
        E 27 bb 01 55
        E 27 bb 01 65
        E 27 bb 01 54
        E 27 bb 01 2b
        E 27 bb 01 5e
        E 27 bb 01 48
        E 27 bb 01 0b
        E 27 bb 01 2c
        E 27 bb 01 36
        E 27 bb 01 60
        E 27 bb 01 4d
        E 27 bb 01 37
        E 27 bb 01 38
        E 27 bb 01 04
        E 27 bb 01 0a
        E 27 bb 01 5d
        E 27 bb 01 51
        E 27 bb 01 2b
        E 27 bb 01 1f
        E 27 bb 01 0d
        E 27 bb 01 2d
        E 27 bb 01 1e
        E 27 bb 01 18
        E 27 bb 01 26
        E 27 bb 01 34
        E 27 bb 01 3d
        E 27 bb 01 41
        E 27 bb 01 10
        E 27 bb 01 3c
        E 27 bb 01 5a
        E 27 bb 01 33
        E 27 bb 01 3b
        E 27 bb 01 02
        E 27 bb 01 07
        E 27 bb 01 63
        E 27 bb 01 42
        E 27 bb 01 12
        E 27 bb 01 5c
        E 27 bb 01 20
        E 27 bb 01 27
        E 27 bb 01 31
        E 27 bb 01 28
        E 27 bb 01 44
        E 27 bb 01 52
        E 27 bb 01 1d
        E 27 bb 01 39
        E 27 bb 01 17
        E 27 bb 01 5b
        E 27 bb 01 54
        E 27 bb 01 2e
        E 27 bb 01 24
        E 27 bb 01 50
        E 27 bb 01 25
        E 27 bb 01 47
        E 27 bb 01 0e
        E 27 bb 01 01
        E 27 bb 01 21
        E 27 bb 01 33
        E 27 bb 01 57
        E 27 bb 01 4e
        E 27 bb 01 03
        E 27 bb 01 57
        E 27 bb 01 4a
        E 27 bb 01 05
        E 27 bb 01 1f
        E 27 bb 01 3b
        E 27 bb 01 4c
        E 27 bb 01 61
        E 27 bb 01 3e
        E 27 bb 01 2a
        E 27 bb 01 1b
        E 27 bb 01 46
        E 27 bb 01 49
        E 27 bb 01 59
        E 27 bb 01 63
        E 27 bb 01 2f
        E 27 bb 01 40
        E 27 bb 01 45
        E 27 bb 01 35
        E 27 bb 01 5f
        E 27 bb 01 0f
        E 27 bb 01 24
        E 27 bb 01 43
        E 6 bb 01 10
        E 6 bb 01 39
        E 6 bb 01 25
        E 6 bb 01 06
        E 6 bb 01 36
        E 6 bb 01 30
        E 6 bb 01 07
        E 6 bb 01 06
        E 6 bb 01 24
        E 6 bb 01 48
        E 6 bb 01 3c
        E 6 bb 01 42
        E 6 bb 01 2f
        E 6 bb 01 08
        E 6 bb 01 0e
        E 6 bb 01 33
        E 6 bb 01 2a
        E 6 bb 01 15
        E 6 bb 01 0f
        E 6 bb 01 14
        E 6 bb 01 3b
        E 6 bb 01 23
        E 6 bb 01 12
        E 6 bb 01 2b
        E 6 bb 01 4b
        E 6 bb 01 00
        E 6 bb 01 09
        E 6 bb 01 1f
        E 6 bb 01 19
        E 6 bb 01 3e
        E 6 bb 01 10
        E 6 bb 01 04
        E 6 bb 01 0c
        E 6 bb 01 0d
        E 6 bb 01 45
        E 6 bb 01 13
        E 6 bb 01 00
        E 6 bb 01 38
        E 6 bb 01 1a
        E 6 bb 01 0f
        E 6 bb 01 1e
        E 6 bb 01 13
        E 6 bb 01 40
        E 6 bb 01 40
        E 6 bb 01 4c
        E 6 bb 01 3f
        E 6 bb 01 21
        E 6 bb 01 46
        E 6 bb 01 36
        E 6 bb 01 09
        E 6 bb 01 21
        E 6 bb 01 28
        E 6 bb 01 48
        E 6 bb 01 3a
        E 6 bb 01 29
        E 6 bb 01 2a
        E 6 bb 01 03
        E 6 bb 01 07
        E 6 bb 01 46
        E 6 bb 01 3d
        E 6 bb 01 20
        E 6 bb 01 18
        E 6 bb 01 0a
        E 6 bb 01 22
        E 6 bb 01 16
        E 6 bb 01 12
        E 6 bb 01 1c
        E 6 bb 01 27
        E 6 bb 01 2e
        E 6 bb 01 31
        E 6 bb 01 0c
        E 6 bb 01 2d
        E 6 bb 01 43
        E 6 bb 01 27
        E 6 bb 01 2c
        E 6 bb 01 01
        E 6 bb 01 05
        E 6 bb 01 4b
        E 6 bb 01 31
        E 6 bb 01 0d
        E 6 bb 01 45
        E 6 bb 01 18
        E 6 bb 01 1d
        E 6 bb 01 25
        E 6 bb 01 1e
        E 6 bb 01 33
        E 6 bb 01 3d
        E 6 bb 01 16
        E 6 bb 01 2b
        E 6 bb 01 11
        E 6 bb 01 44
        E 6 bb 01 3f
        E 6 bb 01 22
        E 6 bb 01 1b
        E 6 bb 01 3c
        E 6 bb 01 1c
        E 6 bb 01 35
        E 6 bb 01 0a
        E 6 bb 01 01
        E 6 bb 01 19
        E 6 bb 01 26
        E 6 bb 01 41
        E 6 bb 01 3a
        E 6 bb 01 02
        E 6 bb 01 42
        E 6 bb 01 37
        E 6 bb 01 04
        E 6 bb 01 17
        E 6 bb 01 2d
        E 6 bb 01 39
        E 6 bb 01 49
        E 6 bb 01 2e
        E 6 bb 01 1f
        E 6 bb 01 15
        E 6 bb 01 34
        E 6 bb 01 37
        E 6 bb 01 43
        E 6 bb 01 4a
        E 6 bb 01 24
        E 6 bb 01 30
        E 6 bb 01 34
        E 6 bb 01 28
        E 6 bb 01 47
        E 6 bb 01 0b
        E 6 bb 01 1b
        E 6 bb 01 32
        E 27 bb 01 0b
        E 27 bb 01 26
        E 27 bb 01 19
        E 27 bb 01 04
        E 27 bb 01 24
        E 27 bb 01 20
        E 27 bb 01 04
        E 27 bb 01 04
        E 27 bb 01 18
        E 27 bb 01 30
        E 27 bb 01 28
        E 27 bb 01 2c
        E 27 bb 01 1f
        E 27 bb 01 05
        E 27 bb 01 09
        E 27 bb 01 22
        E 27 bb 01 1c
        E 27 bb 01 0e
        E 27 bb 01 0a
        E 27 bb 01 0d
        E 27 bb 01 27
        E 27 bb 01 17
        E 27 bb 01 0c
        E 27 bb 01 1d
        E 27 bb 01 32
        E 27 bb 01 00
        E 27 bb 01 06
        E 27 bb 01 14
        E 27 bb 01 11
        E 27 bb 01 29
        E 27 bb 01 0a
        E 27 bb 01 03
        E 27 bb 01 08
        E 27 bb 01 08
        E 27 bb 01 2e
        E 27 bb 01 0c
        E 27 bb 01 00
        E 27 bb 01 25
        E 27 bb 01 11
        E 27 bb 01 0a
        E 27 bb 01 14
        E 27 bb 01 0d
        E 27 bb 01 2b
        E 27 bb 01 2a
        E 27 bb 01 32
        E 27 bb 01 2a
        E 27 bb 01 16
        E 27 bb 01 2f
        E 27 bb 01 24
        E 27 bb 01 06
        E 27 bb 01 16
        E 27 bb 01 1b
        E 27 bb 01 30
        E 27 bb 01 26
        E 27 bb 01 1b
        E 27 bb 01 1c
        E 27 bb 01 02
        E 27 bb 01 05
        E 27 bb 01 2e
        E 27 bb 01 28
        E 27 bb 01 15
        E 27 bb 01 10
        E 27 bb 01 06
        E 27 bb 01 16
        E 27 bb 01 0f
        E 27 bb 01 0c
        E 27 bb 01 13
        E 27 bb 01 1a
        E 27 bb 01 1e
        E 27 bb 01 20
        E 27 bb 01 08
        E 27 bb 01 1e
        E 27 bb 01 2d
        E 27 bb 01 1a
        E 27 bb 01 1d
        E 27 bb 01 01
        E 27 bb 01 03
        E 27 bb 01 32
        E 27 bb 01 21
        E 27 bb 01 09
        E 27 bb 01 2e
        E 27 bb 01 10
        E 27 bb 01 13
        E 27 bb 01 18
        E 27 bb 01 14
        E 27 bb 01 22
        E 27 bb 01 29
        E 27 bb 01 0e
        E 27 bb 01 1c
        E 27 bb 01 0b
        E 27 bb 01 2d
        E 27 bb 01 2a
        E 27 bb 01 17
        E 27 bb 01 12
        E 27 bb 01 28
        E 27 bb 01 12
        E 27 bb 01 23
        E 27 bb 01 07
        E 27 bb 01 00
        E 27 bb 01 10
        E 27 bb 01 19
        E 27 bb 01 2b
        E 27 bb 01 27
        E 27 bb 01 01
        E 27 bb 01 2c
        E 27 bb 01 25
        E 27 bb 01 02
        E 27 bb 01 0f
        E 27 bb 01 1e
        E 27 bb 01 26
        E 27 bb 01 30
        E 27 bb 01 1f
        E 27 bb 01 15
        E 27 bb 01 0e
        E 27 bb 01 23
        E 27 bb 01 24
        E 27 bb 01 2c
        E 27 bb 01 31
        E 27 bb 01 18
        E 27 bb 01 20
        E 27 bb 01 22
        E 27 bb 01 1a
        E 27 bb 01 2f
        E 27 bb 01 07
        E 27 bb 01 12
        E 27 bb 01 21
        E 15 bb 01 13
        E 15 bb 01 43
        E 15 bb 01 2c
        E 15 bb 01 07
        E 15 bb 01 3e
        E 15 bb 01 38
        E 15 bb 01 08
        E 15 bb 01 07
        E 15 bb 01 2a
        E 15 bb 01 54
        E 15 bb 01 46
        E 15 bb 01 4d
        E 15 bb 01 37
        E 15 bb 01 09
        E 15 bb 01 10
        E 15 bb 01 3c
        E 15 bb 01 31
        E 15 bb 01 19
        E 15 bb 01 11
        E 15 bb 01 17
        E 15 bb 01 45
        E 15 bb 01 29
        E 15 bb 01 15
        E 15 bb 01 33
        E 15 bb 01 58
        E 15 bb 01 00
        E 15 bb 01 0b
        E 15 bb 01 24
        E 15 bb 01 1e
        E 15 bb 01 48
        E 15 bb 01 12
        E 15 bb 01 05
        E 15 bb 01 0e
        E 15 bb 01 0f
        E 15 bb 01 50
        E 15 bb 01 16
        E 15 bb 01 00
        E 15 bb 01 41
        E 15 bb 01 1e
        E 15 bb 01 12
        E 15 bb 01 23
        E 15 bb 01 17
        E 15 bb 01 4b
        E 15 bb 01 4a
        E 15 bb 01 58
        E 15 bb 01 4a
        E 15 bb 01 26
        E 15 bb 01 52
        E 15 bb 01 3f
        E 15 bb 01 0a
        E 15 bb 01 27
        E 15 bb 01 2f
        E 15 bb 01 54
        E 15 bb 01 43
        E 15 bb 01 30
        E 15 bb 01 31
        E 15 bb 01 04
        E 15 bb 01 09
        E 15 bb 01 51
        E 15 bb 01 47
        E 15 bb 01 25
        E 15 bb 01 1c
        E 15 bb 01 0b
        E 15 bb 01 27
        E 15 bb 01 1a
        E 15 bb 01 15
        E 15 bb 01 21
        E 15 bb 01 2e
        E 15 bb 01 35
        E 15 bb 01 39
        E 15 bb 01 0e
        E 15 bb 01 35
        E 15 bb 01 4f
        E 15 bb 01 2d
        E 15 bb 01 33
        E 15 bb 01 02
        E 15 bb 01 06
        E 15 bb 01 57
        E 15 bb 01 3a
        E 15 bb 01 10
        E 15 bb 01 51
        E 15 bb 01 1c
        E 15 bb 01 22
        E 15 bb 01 2b
        E 15 bb 01 23
        E 15 bb 01 3b
        E 15 bb 01 48
        E 15 bb 01 19
        E 15 bb 01 32
        E 15 bb 01 14
        E 15 bb 01 4f
        E 15 bb 01 49
        E 15 bb 01 28
        E 15 bb 01 20
        E 15 bb 01 46
        E 15 bb 01 20
        E 15 bb 01 3e
        E 15 bb 01 0c
        E 15 bb 01 01
        E 15 bb 01 1d
        E 15 bb 01 2c
        E 15 bb 01 4c
        E 15 bb 01 44
        E 15 bb 01 02
        E 15 bb 01 4d
        E 15 bb 01 41
        E 15 bb 01 04
        E 15 bb 01 1b
        E 15 bb 01 34
        E 15 bb 01 42
        E 15 bb 01 55
        E 15 bb 01 36
        E 15 bb 01 25
        E 15 bb 01 18
        E 15 bb 01 3d
        E 15 bb 01 40
        E 15 bb 01 4e
        E 15 bb 01 56
        E 15 bb 01 2a
        E 15 bb 01 38
        E 15 bb 01 3c
        E 15 bb 01 2e
        E 15 bb 01 53
        E 15 bb 01 0d
        E 15 bb 01 1f
        E 15 bb 01 3a
        E 3 bb 01 0b
        E 3 bb 01 26
        E 3 bb 01 19
        E 3 bb 01 04
        E 3 bb 01 24
        E 3 bb 01 20
        E 3 bb 01 04
        E 3 bb 01 04
        E 3 bb 01 18
        E 3 bb 01 30
        E 3 bb 01 28
        E 3 bb 01 2c
        E 3 bb 01 1f
        E 3 bb 01 05
        E 3 bb 01 09
        E 3 bb 01 22
        E 3 bb 01 1c
        E 3 bb 01 0e
        E 3 bb 01 0a
        E 3 bb 01 0d
        E 3 bb 01 27
        E 3 bb 01 17
        E 3 bb 01 0c
        E 3 bb 01 1d
        E 3 bb 01 32
        E 3 bb 01 00
        E 3 bb 01 06
        E 3 bb 01 14
        E 3 bb 01 11
        E 3 bb 01 29
        E 3 bb 01 0a
        E 3 bb 01 03
        E 3 bb 01 08
        E 3 bb 01 08
        E 3 bb 01 2e
        E 3 bb 01 0c
        E 3 bb 01 00
        E 3 bb 01 25
        E 3 bb 01 11
        E 3 bb 01 0a
        E 3 bb 01 14
        E 3 bb 01 0d
        E 3 bb 01 2b
        E 3 bb 01 2a
        E 3 bb 01 32
        E 3 bb 01 2a
        E 3 bb 01 16
        E 3 bb 01 2f
        E 3 bb 01 24
        E 3 bb 01 06
        E 3 bb 01 16
        E 3 bb 01 1b
        E 3 bb 01 30
        E 3 bb 01 26
        E 3 bb 01 1b
        E 3 bb 01 1c
        E 3 bb 01 02
        E 3 bb 01 05
        E 3 bb 01 2e
        E 3 bb 01 28
        E 3 bb 01 15
        E 3 bb 01 10
        E 3 bb 01 06
        E 3 bb 01 16
        E 3 bb 01 0f
        E 3 bb 01 0c
        E 3 bb 01 13
        E 3 bb 01 1a
        E 3 bb 01 1e
        E 3 bb 01 20
        E 3 bb 01 08
        E 3 bb 01 1e
        E 3 bb 01 2d
        E 3 bb 01 1a
        E 3 bb 01 1d
        E 3 bb 01 01
        E 3 bb 01 03
        E 3 bb 01 32
        E 3 bb 01 21
        E 3 bb 01 09
        E 3 bb 01 2e
        E 3 bb 01 10
        E 3 bb 01 13
        E 3 bb 01 18
        E 3 bb 01 14
        E 3 bb 01 22
        E 3 bb 01 29
        E 3 bb 01 0e
        E 3 bb 01 1c
        E 3 bb 01 0b
        E 3 bb 01 2d
        E 3 bb 01 2a
        E 3 bb 01 17
        E 3 bb 01 12
        E 3 bb 01 28
        E 3 bb 01 12
        E 3 bb 01 23
        E 3 bb 01 07
        E 3 bb 01 00
        E 3 bb 01 10
        E 3 bb 01 19
        E 3 bb 01 2b
        E 3 bb 01 27
        E 3 bb 01 01
        E 3 bb 01 2c
        E 3 bb 01 25
        E 3 bb 01 02
        E 3 bb 01 0f
        E 3 bb 01 1e
        E 3 bb 01 26
        E 3 bb 01 30
        E 3 bb 01 1f
        E 3 bb 01 15
        E 3 bb 01 0e
        E 3 bb 01 23
        E 3 bb 01 24
        E 3 bb 01 2c
        E 3 bb 01 31
        E 3 bb 01 18
        E 3 bb 01 20
        E 3 bb 01 22
        E 3 bb 01 1a
        E 3 bb 01 2f
        E 3 bb 01 07
        E 3 bb 01 12
        E 3 bb 01 21
        E 9 bb 01 16
        E 9 bb 01 4c
        E 9 bb 01 32
        E 9 bb 01 07
        E 9 bb 01 48
        E 9 bb 01 3f
        E 9 bb 01 09
        E 9 bb 01 08
        E 9 bb 01 30
        E 9 bb 01 5f
        E 9 bb 01 50
        E 9 bb 01 58
        E 9 bb 01 3f
        E 9 bb 01 0b
        E 9 bb 01 13
        E 9 bb 01 44
        E 9 bb 01 37
        E 9 bb 01 1c
        E 9 bb 01 14
        E 9 bb 01 1b
        E 9 bb 01 4f
        E 9 bb 01 2f
        E 9 bb 01 17
        E 9 bb 01 3a
        E 9 bb 01 64
        E 9 bb 01 00
        E 9 bb 01 0c
        E 9 bb 01 29
        E 9 bb 01 22
        E 9 bb 01 53
        E 9 bb 01 15
        E 9 bb 01 06
        E 9 bb 01 0f
        E 9 bb 01 11
        E 9 bb 01 5b
        E 9 bb 01 19
        E 9 bb 01 00
        E 9 bb 01 4b
        E 9 bb 01 23
        E 9 bb 01 14
        E 9 bb 01 28
        E 9 bb 01 1a
        E 9 bb 01 56
        E 9 bb 01 55
        E 9 bb 01 65
        E 9 bb 01 54
        E 9 bb 01 2b
        E 9 bb 01 5e
        E 9 bb 01 48
        E 9 bb 01 0b
        E 9 bb 01 2c
        E 9 bb 01 36
        E 9 bb 01 60
        E 9 bb 01 4d
        E 9 bb 01 37
        E 9 bb 01 38
        E 9 bb 01 04
        E 9 bb 01 0a
        E 9 bb 01 5d
        E 9 bb 01 51
        E 9 bb 01 2b
        E 9 bb 01 1f
        E 9 bb 01 0d
        E 9 bb 01 2d
        E 9 bb 01 1e
        E 9 bb 01 18
        E 9 bb 01 26
        E 9 bb 01 34
        E 9 bb 01 3d
        E 9 bb 01 41
        E 9 bb 01 10
        E 9 bb 01 3c
        E 9 bb 01 5a
        E 9 bb 01 33
        E 9 bb 01 3b
        E 9 bb 01 02
        E 9 bb 01 07
        E 9 bb 01 63
        E 9 bb 01 42
        E 9 bb 01 12
        E 9 bb 01 5c
        E 9 bb 01 20
        E 9 bb 01 27
        E 9 bb 01 31
        E 9 bb 01 28
        E 9 bb 01 44
        E 9 bb 01 52
        E 9 bb 01 1d
        E 9 bb 01 39
        E 9 bb 01 17
        E 9 bb 01 5b
        E 9 bb 01 54
        E 9 bb 01 2e
        E 9 bb 01 24
        E 9 bb 01 50
        E 9 bb 01 25
        E 9 bb 01 47
        E 9 bb 01 0e
        E 9 bb 01 01
        E 9 bb 01 21
        E 9 bb 01 33
        E 9 bb 01 57
        E 9 bb 01 4e
        E 9 bb 01 03
        E 9 bb 01 57
        E 9 bb 01 4a
        E 9 bb 01 05
        E 9 bb 01 1f
        E 9 bb 01 3b
        E 9 bb 01 4c
        E 9 bb 01 61
        E 9 bb 01 3e
        E 9 bb 01 2a
        E 9 bb 01 1b
        E 9 bb 01 46
        E 9 bb 01 49
        E 9 bb 01 59
        E 9 bb 01 63
        E 9 bb 01 2f
        E 9 bb 01 40
        E 9 bb 01 45
        E 9 bb 01 35
        E 9 bb 01 5f
        E 9 bb 01 0f
        E 9 bb 01 24
        E 9 bb 01 43
        E 27 bb 01 16
        E 27 bb 01 4c
        E 27 bb 01 32
        E 27 bb 01 07
        E 27 bb 01 48
        E 27 bb 01 3f
        E 27 bb 01 09
        E 27 bb 01 08
        E 27 bb 01 30
        E 27 bb 01 5f
        E 27 bb 01 50
        E 27 bb 01 58
        E 27 bb 01 3f
        E 27 bb 01 0b
        E 27 bb 01 13
        E 27 bb 01 44
        E 27 bb 01 37
        E 27 bb 01 1c
        E 27 bb 01 14
        E 27 bb 01 1b
        E 27 bb 01 4f
        E 27 bb 01 2f
        E 27 bb 01 17
        E 27 bb 01 3a
        E 27 bb 01 64
        E 27 bb 01 00
        E 27 bb 01 0c
        E 27 bb 01 29
        E 27 bb 01 22
        E 27 bb 01 53
        E 27 bb 01 15
        E 27 bb 01 06
        E 27 bb 01 0f
        E 27 bb 01 11
        E 27 bb 01 5b
        E 27 bb 01 19
        E 27 bb 01 00
        E 27 bb 01 4b
        E 27 bb 01 23
        E 27 bb 01 14
        E 27 bb 01 28
        E 27 bb 01 1a
        E 27 bb 01 56
        E 27 bb 01 55
        E 27 bb 01 65
        E 27 bb 01 54
        E 27 bb 01 2b
        E 27 bb 01 5e
        E 27 bb 01 48
        E 27 bb 01 0b
        E 27 bb 01 2c
        E 27 bb 01 36
        E 27 bb 01 60
        E 27 bb 01 4d
        E 27 bb 01 37
        E 27 bb 01 38
        E 27 bb 01 04
        E 27 bb 01 0a
        E 27 bb 01 5d
        E 27 bb 01 51
        E 27 bb 01 2b
        E 27 bb 01 1f
        E 27 bb 01 0d
        E 27 bb 01 2d
        E 27 bb 01 1e
        E 27 bb 01 18
        E 27 bb 01 26
        E 27 bb 01 34
        E 27 bb 01 3d
        E 27 bb 01 41
        E 27 bb 01 10
        E 27 bb 01 3c
        E 27 bb 01 5a
        E 27 bb 01 33
        E 27 bb 01 3b
        E 27 bb 01 02
        E 27 bb 01 07
        E 27 bb 01 63
        E 27 bb 01 42
        E 27 bb 01 12
        E 27 bb 01 5c
        E 27 bb 01 20
        E 27 bb 01 27
        E 27 bb 01 31
        E 27 bb 01 28
        E 27 bb 01 44
        E 27 bb 01 52
        E 27 bb 01 1d
        E 27 bb 01 39
        E 27 bb 01 17
        E 27 bb 01 5b
        E 27 bb 01 54
        E 27 bb 01 2e
        E 27 bb 01 24
        E 27 bb 01 50
        E 27 bb 01 25
        E 27 bb 01 47
        E 27 bb 01 0e
        E 27 bb 01 01
        E 27 bb 01 21
        E 27 bb 01 33
        E 27 bb 01 57
        E 27 bb 01 4e
        E 27 bb 01 03
        E 27 bb 01 57
        E 27 bb 01 4a
        E 27 bb 01 05
        E 27 bb 01 1f
        E 27 bb 01 3b
        E 27 bb 01 4c
        E 27 bb 01 61
        E 27 bb 01 3e
        E 27 bb 01 2a
        E 27 bb 01 1b
        E 27 bb 01 46
        E 27 bb 01 49
        E 27 bb 01 59
        E 27 bb 01 63
        E 27 bb 01 2f
        E 27 bb 01 40
        E 27 bb 01 45
        E 27 bb 01 35
        E 27 bb 01 5f
        E 27 bb 01 0f
        E 27 bb 01 24
        E 27 bb 01 43
        E 6 bb 01 10
        E 6 bb 01 39
        E 6 bb 01 25
        E 6 bb 01 06
        E 6 bb 01 36
        E 6 bb 01 30
        E 6 bb 01 07
        E 6 bb 01 06
        E 6 bb 01 24
        E 6 bb 01 48
        E 6 bb 01 3c
        E 6 bb 01 42
        E 6 bb 01 2f
        E 6 bb 01 08
        E 6 bb 01 0e
        E 6 bb 01 33
        E 6 bb 01 2a
        E 6 bb 01 15
        E 6 bb 01 0f
        E 6 bb 01 14
        E 6 bb 01 3b
        E 6 bb 01 23
        E 6 bb 01 12
        E 6 bb 01 2b
        E 6 bb 01 4b
        E 6 bb 01 00
        E 6 bb 01 09
        E 6 bb 01 1f
        E 6 bb 01 19
        E 6 bb 01 3e
        E 6 bb 01 10
        E 6 bb 01 04
        E 6 bb 01 0c
        E 6 bb 01 0d
        E 6 bb 01 45
        E 6 bb 01 13
        E 6 bb 01 00
        E 6 bb 01 38
        E 6 bb 01 1a
        E 6 bb 01 0f
        E 6 bb 01 1e
        E 6 bb 01 13
        E 6 bb 01 40
        E 6 bb 01 40
        E 6 bb 01 4c
        E 6 bb 01 3f
        E 6 bb 01 21
        E 6 bb 01 46
        E 6 bb 01 36
        E 6 bb 01 09
        E 6 bb 01 21
        E 6 bb 01 28
        E 6 bb 01 48
        E 6 bb 01 3a
        E 6 bb 01 29
        E 6 bb 01 2a
        E 6 bb 01 03
        E 6 bb 01 07
        E 6 bb 01 46
        E 6 bb 01 3d
        E 6 bb 01 20
        E 6 bb 01 18
        E 6 bb 01 0a
        E 6 bb 01 22
        E 6 bb 01 16
        E 6 bb 01 12
        E 6 bb 01 1c
        E 6 bb 01 27
        E 6 bb 01 2e
        E 6 bb 01 31
        E 6 bb 01 0c
        E 6 bb 01 2d
        E 6 bb 01 43
        E 6 bb 01 27
        E 6 bb 01 2c
        E 6 bb 01 01
        E 6 bb 01 05
        E 6 bb 01 4b
        E 6 bb 01 31
        E 6 bb 01 0d
        E 6 bb 01 45
        E 6 bb 01 18
        E 6 bb 01 1d
        E 6 bb 01 25
        E 6 bb 01 1e
        E 6 bb 01 33
        E 6 bb 01 3d
        E 6 bb 01 16
        E 6 bb 01 2b
        E 6 bb 01 11
        E 6 bb 01 44
        E 6 bb 01 3f
        E 6 bb 01 22
        E 6 bb 01 1b
        E 6 bb 01 3c
        E 6 bb 01 1c
        E 6 bb 01 35
        E 6 bb 01 0a
        E 6 bb 01 01
        E 6 bb 01 19
        E 6 bb 01 26
        E 6 bb 01 41
        E 6 bb 01 3a
        E 6 bb 01 02
        E 6 bb 01 42
        E 6 bb 01 37
        E 6 bb 01 04
        E 6 bb 01 17
        E 6 bb 01 2d
        E 6 bb 01 39
        E 6 bb 01 49
        E 6 bb 01 2e
        E 6 bb 01 1f
        E 6 bb 01 15
        E 6 bb 01 34
        E 6 bb 01 37
        E 6 bb 01 43
        E 6 bb 01 4a
        E 6 bb 01 24
        E 6 bb 01 30
        E 6 bb 01 34
        E 6 bb 01 28
        E 6 bb 01 47
        E 6 bb 01 0b
        E 6 bb 01 1b
        E 6 bb 01 32
        E 7 bb 01 0b
        E 7 bb 01 26
        E 7 bb 01 19
        E 7 bb 01 04
        E 7 bb 01 24
        E 7 bb 01 20
        E 7 bb 01 04
        E 7 bb 01 04
        E 7 bb 01 18
        E 7 bb 01 30
        E 7 bb 01 28
        E 7 bb 01 2c
        E 7 bb 01 1f
        E 7 bb 01 05
        E 7 bb 01 09
        E 7 bb 01 22
        E 7 bb 01 1c
        E 7 bb 01 0e
        E 7 bb 01 0a
        E 7 bb 01 0d
        E 7 bb 01 27
        E 7 bb 01 17
        E 7 bb 01 0c
        E 7 bb 01 1d
        E 7 bb 01 32
        E 7 bb 01 00
        E 7 bb 01 06
        E 7 bb 01 14
        E 7 bb 01 11
        E 7 bb 01 29
        E 7 bb 01 0a
        E 7 bb 01 03
        E 7 bb 01 08
        E 7 bb 01 08
        E 7 bb 01 2e
        E 7 bb 01 0c
        E 7 bb 01 00
        E 7 bb 01 25
        E 7 bb 01 11
        E 7 bb 01 0a
        E 7 bb 01 14
        E 7 bb 01 0d
        E 7 bb 01 2b
        E 7 bb 01 2a
        E 7 bb 01 32
        E 7 bb 01 2a
        E 7 bb 01 16
        E 7 bb 01 2f
        E 7 bb 01 24
        E 7 bb 01 06
        E 7 bb 01 16
        E 7 bb 01 1b
        E 7 bb 01 30
        E 7 bb 01 26
        E 7 bb 01 1b
        E 7 bb 01 1c
        E 7 bb 01 02
        E 7 bb 01 05
        E 7 bb 01 2e
        E 7 bb 01 28
        E 7 bb 01 15
        E 7 bb 01 10
        E 7 bb 01 06
        E 7 bb 01 16
        E 7 bb 01 0f
        E 7 bb 01 0c
        E 7 bb 01 13
        E 7 bb 01 1a
        E 7 bb 01 1e
        E 7 bb 01 20
        E 7 bb 01 08
        E 7 bb 01 1e
        E 7 bb 01 2d
        E 7 bb 01 1a
        E 7 bb 01 1d
        E 7 bb 01 01
        E 7 bb 01 03
        E 7 bb 01 32
        E 7 bb 01 21
        E 7 bb 01 09
        E 7 bb 01 2e
        E 7 bb 01 10
        E 7 bb 01 13
        E 7 bb 01 18
        E 7 bb 01 14
        E 7 bb 01 22
        E 7 bb 01 29
        E 7 bb 01 0e
        E 7 bb 01 1c
        E 7 bb 01 0b
        E 7 bb 01 2d
        E 7 bb 01 2a
        E 7 bb 01 17
        E 7 bb 01 12
        E 7 bb 01 28
        E 7 bb 01 12
        E 7 bb 01 23
        E 7 bb 01 07
        E 7 bb 01 00
        E 7 bb 01 10
        E 7 bb 01 19
        E 7 bb 01 2b
        E 7 bb 01 27
        E 7 bb 01 01
        E 7 bb 01 2c
        E 7 bb 01 25
        E 7 bb 01 02
        E 7 bb 01 0f
        E 7 bb 01 1e
        E 7 bb 01 26
        E 7 bb 01 30
        E 7 bb 01 1f
        E 7 bb 01 15
        E 7 bb 01 0e
        E 7 bb 01 23
        E 7 bb 01 24
        E 7 bb 01 2c
        E 7 bb 01 31
        E 7 bb 01 18
        E 7 bb 01 20
        E 7 bb 01 22
        E 7 bb 01 1a
        E 7 bb 01 2f
        E 7 bb 01 07
        E 7 bb 01 12
        E 7 bb 01 21
        E 23 bb 01 16
        E 23 bb 01 4c
        E 23 bb 01 32
        E 23 bb 01 07
        E 23 bb 01 48
        E 23 bb 01 3f
        E 23 bb 01 09
        E 23 bb 01 08
        E 23 bb 01 30
        E 23 bb 01 5f
        E 23 bb 01 50
        E 23 bb 01 58
        E 23 bb 01 3f
        E 23 bb 01 0b
        E 23 bb 01 13
        E 23 bb 01 44
        E 23 bb 01 37
        E 23 bb 01 1c
        E 23 bb 01 14
        E 23 bb 01 1b
        E 23 bb 01 4f
        E 23 bb 01 2f
        E 23 bb 01 17
        E 23 bb 01 3a
        E 23 bb 01 64
        E 23 bb 01 00
        E 23 bb 01 0c
        E 23 bb 01 29
        E 23 bb 01 22
        E 23 bb 01 53
        E 23 bb 01 15
        E 23 bb 01 06
        E 23 bb 01 0f
        E 23 bb 01 11
        E 23 bb 01 5b
        E 23 bb 01 19
        E 23 bb 01 00
        E 23 bb 01 4b
        E 23 bb 01 23
        E 23 bb 01 14
        E 23 bb 01 28
        E 23 bb 01 1a
        E 23 bb 01 56
        E 23 bb 01 55
        E 23 bb 01 65
        E 23 bb 01 54
        E 23 bb 01 2b
        E 23 bb 01 5e
        E 23 bb 01 48
        E 23 bb 01 0b
        E 23 bb 01 2c
        E 23 bb 01 36
        E 23 bb 01 60
        E 23 bb 01 4d
        E 23 bb 01 37
        E 23 bb 01 38
        E 23 bb 01 04
        E 23 bb 01 0a
        E 23 bb 01 5d
        E 23 bb 01 51
        E 23 bb 01 2b
        E 23 bb 01 1f
        E 23 bb 01 0d
        E 23 bb 01 2d
        E 23 bb 01 1e
        E 23 bb 01 18
        E 23 bb 01 26
        E 23 bb 01 34
        E 23 bb 01 3d
        E 23 bb 01 41
        E 23 bb 01 10
        E 23 bb 01 3c
        E 23 bb 01 5a
        E 23 bb 01 33
        E 23 bb 01 3b
        E 23 bb 01 02
        E 23 bb 01 07
        E 23 bb 01 63
        E 23 bb 01 42
        E 23 bb 01 12
        E 23 bb 01 5c
        E 23 bb 01 20
        E 23 bb 01 27
        E 23 bb 01 31
        E 23 bb 01 28
        E 23 bb 01 44
        E 23 bb 01 52
        E 23 bb 01 1d
        E 23 bb 01 39
        E 23 bb 01 17
        E 23 bb 01 5b
        E 23 bb 01 54
        E 23 bb 01 2e
        E 23 bb 01 24
        E 23 bb 01 50
        E 23 bb 01 25
        E 23 bb 01 47
        E 23 bb 01 0e
        E 23 bb 01 01
        E 23 bb 01 21
        E 23 bb 01 33
        E 23 bb 01 57
        E 23 bb 01 4e
        E 23 bb 01 03
        E 23 bb 01 57
        E 23 bb 01 4a
        E 23 bb 01 05
        E 23 bb 01 1f
        E 23 bb 01 3b
        E 23 bb 01 4c
        E 23 bb 01 61
        E 23 bb 01 3e
        E 23 bb 01 2a
        E 23 bb 01 1b
        E 23 bb 01 46
        E 23 bb 01 49
        E 23 bb 01 59
        E 23 bb 01 63
        E 23 bb 01 2f
        E 23 bb 01 40
        E 23 bb 01 45
        E 23 bb 01 35
        E 23 bb 01 5f
        E 23 bb 01 0f
        E 23 bb 01 24
        E 23 bb 01 43
        E 71 bb 01 16
        E 71 bb 01 4c
        E 71 bb 01 32
        E 71 bb 01 07
        E 71 bb 01 48
        E 71 bb 01 3f
        E 71 bb 01 09
        E 71 bb 01 08
        E 71 bb 01 30
        E 71 bb 01 5f
        E 71 bb 01 50
        E 71 bb 01 58
        E 71 bb 01 3f
        E 71 bb 01 0b
        E 71 bb 01 13
        E 71 bb 01 44
        E 71 bb 01 37
        E 71 bb 01 1c
        E 71 bb 01 14
        E 71 bb 01 1b
        E 71 bb 01 4f
        E 71 bb 01 2f
        E 71 bb 01 17
        E 71 bb 01 3a
        E 71 bb 01 64
        E 71 bb 01 00
        E 71 bb 01 0c
        E 71 bb 01 29
        E 71 bb 01 22
        E 71 bb 01 53
        E 71 bb 01 15
        E 71 bb 01 06
        E 71 bb 01 0f
        E 71 bb 01 11
        E 71 bb 01 5b
        E 71 bb 01 19
        E 71 bb 01 00
        E 71 bb 01 4b
        E 71 bb 01 23
        E 71 bb 01 14
        E 71 bb 01 28
        E 71 bb 01 1a
        E 71 bb 01 56
        E 71 bb 01 55
        E 71 bb 01 65
        E 71 bb 01 54
        E 71 bb 01 2b
        E 71 bb 01 5e
        E 71 bb 01 48
        E 71 bb 01 0b
        E 71 bb 01 2c
        E 71 bb 01 36
        E 71 bb 01 60
        E 71 bb 01 4d
        E 71 bb 01 37
        E 71 bb 01 38
        E 71 bb 01 04
        E 71 bb 01 0a
        E 71 bb 01 5d
        E 71 bb 01 51
        E 71 bb 01 2b
        E 71 bb 01 1f
        E 71 bb 01 0d
        E 71 bb 01 2d
        E 71 bb 01 1e
        E 71 bb 01 18
        E 71 bb 01 26
        E 71 bb 01 34
        E 71 bb 01 3d
        E 71 bb 01 41
        E 71 bb 01 10
        E 71 bb 01 3c
        E 71 bb 01 5a
        E 71 bb 01 33
        E 71 bb 01 3b
        E 71 bb 01 02
        E 71 bb 01 07
        E 71 bb 01 63
        E 71 bb 01 42
        E 71 bb 01 12
        E 71 bb 01 5c
        E 71 bb 01 20
        E 71 bb 01 27
        E 71 bb 01 31
        E 71 bb 01 28
        E 71 bb 01 44
        E 71 bb 01 52
        E 71 bb 01 1d
        E 71 bb 01 39
        E 71 bb 01 17
        E 71 bb 01 5b
        E 71 bb 01 54
        E 71 bb 01 2e
        E 71 bb 01 24
        E 71 bb 01 50
        E 71 bb 01 25
        E 71 bb 01 47
        E 71 bb 01 0e
        E 71 bb 01 01
        E 71 bb 01 21
        E 71 bb 01 33
        E 71 bb 01 57
        E 71 bb 01 4e
        E 71 bb 01 03
        E 71 bb 01 57
        E 71 bb 01 4a
        E 71 bb 01 05
        E 71 bb 01 1f
        E 71 bb 01 3b
        E 71 bb 01 4c
        E 71 bb 01 61
        E 71 bb 01 3e
        E 71 bb 01 2a
        E 71 bb 01 1b
        E 71 bb 01 46
        E 71 bb 01 49
        E 71 bb 01 59
        E 71 bb 01 63
        E 71 bb 01 2f
        E 71 bb 01 40
        E 71 bb 01 45
        E 71 bb 01 35
        E 71 bb 01 5f
        E 71 bb 01 0f
        E 71 bb 01 24
        E 71 bb 01 43
        E 15 bb 01 10
        E 15 bb 01 39
        E 15 bb 01 25
        E 15 bb 01 06
        E 15 bb 01 36
        E 15 bb 01 30
        E 15 bb 01 07
        E 15 bb 01 06
        E 15 bb 01 24
        E 15 bb 01 48
        E 15 bb 01 3c
        E 15 bb 01 42
        E 15 bb 01 2f
        E 15 bb 01 08
        E 15 bb 01 0e
        E 15 bb 01 33
        E 15 bb 01 2a
        E 15 bb 01 15
        E 15 bb 01 0f
        E 15 bb 01 14
        E 15 bb 01 3b
        E 15 bb 01 23
        E 15 bb 01 12
        E 15 bb 01 2b
        E 15 bb 01 4b
        E 15 bb 01 00
        E 15 bb 01 09
        E 15 bb 01 1f
        E 15 bb 01 19
        E 15 bb 01 3e
        E 15 bb 01 10
        E 15 bb 01 04
        E 15 bb 01 0c
        E 15 bb 01 0d
        E 15 bb 01 45
        E 15 bb 01 13
        E 15 bb 01 00
        E 15 bb 01 38
        E 15 bb 01 1a
        E 15 bb 01 0f
        E 15 bb 01 1e
        E 15 bb 01 13
        E 15 bb 01 40
        E 15 bb 01 40
        E 15 bb 01 4c
        E 15 bb 01 3f
        E 15 bb 01 21
        E 15 bb 01 46
        E 15 bb 01 36
        E 15 bb 01 09
        E 15 bb 01 21
        E 15 bb 01 28
        E 15 bb 01 48
        E 15 bb 01 3a
        E 15 bb 01 29
        E 15 bb 01 2a
        E 15 bb 01 03
        E 15 bb 01 07
        E 15 bb 01 46
        E 15 bb 01 3d
        E 15 bb 01 20
        E 15 bb 01 18
        E 15 bb 01 0a
        E 15 bb 01 22
        E 15 bb 01 16
        E 15 bb 01 12
        E 15 bb 01 1c
        E 15 bb 01 27
        E 15 bb 01 2e
        E 15 bb 01 31
        E 15 bb 01 0c
        E 15 bb 01 2d
        E 15 bb 01 43
        E 15 bb 01 27
        E 15 bb 01 2c
        E 15 bb 01 01
        E 15 bb 01 05
        E 15 bb 01 4b
        E 15 bb 01 31
        E 15 bb 01 0d
        E 15 bb 01 45
        E 15 bb 01 18
        E 15 bb 01 1d
        E 15 bb 01 25
        E 15 bb 01 1e
        E 15 bb 01 33
        E 15 bb 01 3d
        E 15 bb 01 16
        E 15 bb 01 2b
        E 15 bb 01 11
        E 15 bb 01 44
        E 15 bb 01 3f
        E 15 bb 01 22
        E 15 bb 01 1b
        E 15 bb 01 3c
        E 15 bb 01 1c
        E 15 bb 01 35
        E 15 bb 01 0a
        E 15 bb 01 01
        E 15 bb 01 19
        E 15 bb 01 26
        E 15 bb 01 41
        E 15 bb 01 3a
        E 15 bb 01 02
        E 15 bb 01 42
        E 15 bb 01 37
        E 15 bb 01 04
        E 15 bb 01 17
        E 15 bb 01 2d
        E 15 bb 01 39
        E 15 bb 01 49
        E 15 bb 01 2e
        E 15 bb 01 1f
        E 15 bb 01 15
        E 15 bb 01 34
        E 15 bb 01 37
        E 15 bb 01 43
        E 15 bb 01 4a
        E 15 bb 01 24
        E 15 bb 01 30
        E 15 bb 01 34
        E 15 bb 01 28
        E 15 bb 01 47
        E 15 bb 01 0b
        E 15 bb 01 1b
        E 15 bb 01 32
        E 71 bb 01 0b
        E 71 bb 01 26
        E 71 bb 01 19
        E 71 bb 01 04
        E 71 bb 01 24
        E 71 bb 01 20
        E 71 bb 01 04
        E 71 bb 01 04
        E 71 bb 01 18
        E 71 bb 01 30
        E 71 bb 01 28
        E 71 bb 01 2c
        E 71 bb 01 1f
        E 71 bb 01 05
        E 71 bb 01 09
        E 71 bb 01 22
        E 71 bb 01 1c
        E 71 bb 01 0e
        E 71 bb 01 0a
        E 71 bb 01 0d
        E 71 bb 01 27
        E 71 bb 01 17
        E 71 bb 01 0c
        E 71 bb 01 1d
        E 71 bb 01 32
        E 71 bb 01 00
        E 71 bb 01 06
        E 71 bb 01 14
        E 71 bb 01 11
        E 71 bb 01 29
        E 71 bb 01 0a
        E 71 bb 01 03
        E 71 bb 01 08
        E 71 bb 01 08
        E 71 bb 01 2e
        E 71 bb 01 0c
        E 71 bb 01 00
        E 71 bb 01 25
        E 71 bb 01 11
        E 71 bb 01 0a
        E 71 bb 01 14
        E 71 bb 01 0d
        E 71 bb 01 2b
        E 71 bb 01 2a
        E 71 bb 01 32
        E 71 bb 01 2a
        E 71 bb 01 16
        E 71 bb 01 2f
        E 71 bb 01 24
        E 71 bb 01 06
        E 71 bb 01 16
        E 71 bb 01 1b
        E 71 bb 01 30
        E 71 bb 01 26
        E 71 bb 01 1b
        E 71 bb 01 1c
        E 71 bb 01 02
        E 71 bb 01 05
        E 71 bb 01 2e
        E 71 bb 01 28
        E 71 bb 01 15
        E 71 bb 01 10
        E 71 bb 01 06
        E 71 bb 01 16
        E 71 bb 01 0f
        E 71 bb 01 0c
        E 71 bb 01 13
        E 71 bb 01 1a
        E 71 bb 01 1e
        E 71 bb 01 20
        E 71 bb 01 08
        E 71 bb 01 1e
        E 71 bb 01 2d
        E 71 bb 01 1a
        E 71 bb 01 1d
        E 71 bb 01 01
        E 71 bb 01 03
        E 71 bb 01 32
        E 71 bb 01 21
        E 71 bb 01 09
        E 71 bb 01 2e
        E 71 bb 01 10
        E 71 bb 01 13
        E 71 bb 01 18
        E 71 bb 01 14
        E 71 bb 01 22
        E 71 bb 01 29
        E 71 bb 01 0e
        E 71 bb 01 1c
        E 71 bb 01 0b
        E 71 bb 01 2d
        E 71 bb 01 2a
        E 71 bb 01 17
        E 71 bb 01 12
        E 71 bb 01 28
        E 71 bb 01 12
        E 71 bb 01 23
        E 71 bb 01 07
        E 71 bb 01 00
        E 71 bb 01 10
        E 71 bb 01 19
        E 71 bb 01 2b
        E 71 bb 01 27
        E 71 bb 01 01
        E 71 bb 01 2c
        E 71 bb 01 25
        E 71 bb 01 02
        E 71 bb 01 0f
        E 71 bb 01 1e
        E 71 bb 01 26
        E 71 bb 01 30
        E 71 bb 01 1f
        E 71 bb 01 15
        E 71 bb 01 0e
        E 71 bb 01 23
        E 71 bb 01 24
        E 71 bb 01 2c
        E 71 bb 01 31
        E 71 bb 01 18
        E 71 bb 01 20
        E 71 bb 01 22
        E 71 bb 01 1a
        E 71 bb 01 2f
        E 71 bb 01 07
        E 71 bb 01 12
        E 71 bb 01 21
        E 39 bb 01 13
        E 39 bb 01 43
        E 39 bb 01 2c
        E 39 bb 01 07
        E 39 bb 01 3e
        E 39 bb 01 38
        E 39 bb 01 08
        E 39 bb 01 07
        E 39 bb 01 2a
        E 39 bb 01 54
        E 39 bb 01 46
        E 39 bb 01 4d
        E 39 bb 01 37
        E 39 bb 01 09
        E 39 bb 01 10
        E 39 bb 01 3c
        E 39 bb 01 31
        E 39 bb 01 19
        E 39 bb 01 11
        E 39 bb 01 17
        E 39 bb 01 45
        E 39 bb 01 29
        E 39 bb 01 15
        E 39 bb 01 33
        E 39 bb 01 58
        E 39 bb 01 00
        E 39 bb 01 0b
        E 39 bb 01 24
        E 39 bb 01 1e
        E 39 bb 01 48
        E 39 bb 01 12
        E 39 bb 01 05
        E 39 bb 01 0e
        E 39 bb 01 0f
        E 39 bb 01 50
        E 39 bb 01 16
        E 39 bb 01 00
        E 39 bb 01 41
        E 39 bb 01 1e
        E 39 bb 01 12
        E 39 bb 01 23
        E 39 bb 01 17
        E 39 bb 01 4b
        E 39 bb 01 4a
        E 39 bb 01 58
        E 39 bb 01 4a
        E 39 bb 01 26
        E 39 bb 01 52
        E 39 bb 01 3f
        E 39 bb 01 0a
        E 39 bb 01 27
        E 39 bb 01 2f
        E 39 bb 01 54
        E 39 bb 01 43
        E 39 bb 01 30
        E 39 bb 01 31
        E 39 bb 01 04
        E 39 bb 01 09
        E 39 bb 01 51
        E 39 bb 01 47
        E 39 bb 01 25
        E 39 bb 01 1c
        E 39 bb 01 0b
        E 39 bb 01 27
        E 39 bb 01 1a
        E 39 bb 01 15
        E 39 bb 01 21
        E 39 bb 01 2e
        E 39 bb 01 35
        E 39 bb 01 39
        E 39 bb 01 0e
        E 39 bb 01 35
        E 39 bb 01 4f
        E 39 bb 01 2d
        E 39 bb 01 33
        E 39 bb 01 02
        E 39 bb 01 06
        E 39 bb 01 57
        E 39 bb 01 3a
        E 39 bb 01 10
        E 39 bb 01 51
        E 39 bb 01 1c
        E 39 bb 01 22
        E 39 bb 01 2b
        E 39 bb 01 23
        E 39 bb 01 3b
        E 39 bb 01 48
        E 39 bb 01 19
        E 39 bb 01 32
        E 39 bb 01 14
        E 39 bb 01 4f
        E 39 bb 01 49
        E 39 bb 01 28
        E 39 bb 01 20
        E 39 bb 01 46
        E 39 bb 01 20
        E 39 bb 01 3e
        E 39 bb 01 0c
        E 39 bb 01 01
        E 39 bb 01 1d
        E 39 bb 01 2c
        E 39 bb 01 4c
        E 39 bb 01 44
        E 39 bb 01 02
        E 39 bb 01 4d
        E 39 bb 01 41
        E 39 bb 01 04
        E 39 bb 01 1b
        E 39 bb 01 34
        E 39 bb 01 42
        E 39 bb 01 55
        E 39 bb 01 36
        E 39 bb 01 25
        E 39 bb 01 18
        E 39 bb 01 3d
        E 39 bb 01 40
        E 39 bb 01 4e
        E 39 bb 01 56
        E 39 bb 01 2a
        E 39 bb 01 38
        E 39 bb 01 3c
        E 39 bb 01 2e
        E 39 bb 01 53
        E 39 bb 01 0d
        E 39 bb 01 1f
        E 39 bb 01 3a
        E 7 bb 01 0b
        E 7 bb 01 26
        E 7 bb 01 19
        E 7 bb 01 04
        E 7 bb 01 24
        E 7 bb 01 20
        E 7 bb 01 04
        E 7 bb 01 04
        E 7 bb 01 18
        E 7 bb 01 30
        E 7 bb 01 28
        E 7 bb 01 2c
        E 7 bb 01 1f
        E 7 bb 01 05
        E 7 bb 01 09
        E 7 bb 01 22
        E 7 bb 01 1c
        E 7 bb 01 0e
        E 7 bb 01 0a
        E 7 bb 01 0d
        E 7 bb 01 27
        E 7 bb 01 17
        E 7 bb 01 0c
        E 7 bb 01 1d
        E 7 bb 01 32
        E 7 bb 01 00
        E 7 bb 01 06
        E 7 bb 01 14
        E 7 bb 01 11
        E 7 bb 01 29
        E 7 bb 01 0a
        E 7 bb 01 03
        E 7 bb 01 08
        E 7 bb 01 08
        E 7 bb 01 2e
        E 7 bb 01 0c
        E 7 bb 01 00
        E 7 bb 01 25
        E 7 bb 01 11
        E 7 bb 01 0a
        E 7 bb 01 14
        E 7 bb 01 0d
        E 7 bb 01 2b
        E 7 bb 01 2a
        E 7 bb 01 32
        E 7 bb 01 2a
        E 7 bb 01 16
        E 7 bb 01 2f
        E 7 bb 01 24
        E 7 bb 01 06
        E 7 bb 01 16
        E 7 bb 01 1b
        E 7 bb 01 30
        E 7 bb 01 26
        E 7 bb 01 1b
        E 7 bb 01 1c
        E 7 bb 01 02
        E 7 bb 01 05
        E 7 bb 01 2e
        E 7 bb 01 28
        E 7 bb 01 15
        E 7 bb 01 10
        E 7 bb 01 06
        E 7 bb 01 16
        E 7 bb 01 0f
        E 7 bb 01 0c
        E 7 bb 01 13
        E 7 bb 01 1a
        E 7 bb 01 1e
        E 7 bb 01 20
        E 7 bb 01 08
        E 7 bb 01 1e
        E 7 bb 01 2d
        E 7 bb 01 1a
        E 7 bb 01 1d
        E 7 bb 01 01
        E 7 bb 01 03
        E 7 bb 01 32
        E 7 bb 01 21
        E 7 bb 01 09
        E 7 bb 01 2e
        E 7 bb 01 10
        E 7 bb 01 13
        E 7 bb 01 18
        E 7 bb 01 14
        E 7 bb 01 22
        E 7 bb 01 29
        E 7 bb 01 0e
        E 7 bb 01 1c
        E 7 bb 01 0b
        E 7 bb 01 2d
        E 7 bb 01 2a
        E 7 bb 01 17
        E 7 bb 01 12
        E 7 bb 01 28
        E 7 bb 01 12
        E 7 bb 01 23
        E 7 bb 01 07
        E 7 bb 01 00
        E 7 bb 01 10
        E 7 bb 01 19
        E 7 bb 01 2b
        E 7 bb 01 27
        E 7 bb 01 01
        E 7 bb 01 2c
        E 7 bb 01 25
        E 7 bb 01 02
        E 7 bb 01 0f
        E 7 bb 01 1e
        E 7 bb 01 26
        E 7 bb 01 30
        E 7 bb 01 1f
        E 7 bb 01 15
        E 7 bb 01 0e
        E 7 bb 01 23
        E 7 bb 01 24
        E 7 bb 01 2c
        E 7 bb 01 31
        E 7 bb 01 18
        E 7 bb 01 20
        E 7 bb 01 22
        E 7 bb 01 1a
        E 7 bb 01 2f
        E 7 bb 01 07
        E 7 bb 01 12
        E 7 bb 01 21
        E 23 bb 01 16
        E 23 bb 01 4c
        E 23 bb 01 32
        E 23 bb 01 07
        E 23 bb 01 48
        E 23 bb 01 3f
        E 23 bb 01 09
        E 23 bb 01 08
        E 23 bb 01 30
        E 23 bb 01 5f
        E 23 bb 01 50
        E 23 bb 01 58
        E 23 bb 01 3f
        E 23 bb 01 0b
        E 23 bb 01 13
        E 23 bb 01 44
        E 23 bb 01 37
        E 23 bb 01 1c
        E 23 bb 01 14
        E 23 bb 01 1b
        E 23 bb 01 4f
        E 23 bb 01 2f
        E 23 bb 01 17
        E 23 bb 01 3a
        E 23 bb 01 64
        E 23 bb 01 00
        E 23 bb 01 0c
        E 23 bb 01 29
        E 23 bb 01 22
        E 23 bb 01 53
        E 23 bb 01 15
        E 23 bb 01 06
        E 23 bb 01 0f
        E 23 bb 01 11
        E 23 bb 01 5b
        E 23 bb 01 19
        E 23 bb 01 00
        E 23 bb 01 4b
        E 23 bb 01 23
        E 23 bb 01 14
        E 23 bb 01 28
        E 23 bb 01 1a
        E 23 bb 01 56
        E 23 bb 01 55
        E 23 bb 01 65
        E 23 bb 01 54
        E 23 bb 01 2b
        E 23 bb 01 5e
        E 23 bb 01 48
        E 23 bb 01 0b
        E 23 bb 01 2c
        E 23 bb 01 36
        E 23 bb 01 60
        E 23 bb 01 4d
        E 23 bb 01 37
        E 23 bb 01 38
        E 23 bb 01 04
        E 23 bb 01 0a
        E 23 bb 01 5d
        E 23 bb 01 51
        E 23 bb 01 2b
        E 23 bb 01 1f
        E 23 bb 01 0d
        E 23 bb 01 2d
        E 23 bb 01 1e
        E 23 bb 01 18
        E 23 bb 01 26
        E 23 bb 01 34
        E 23 bb 01 3d
        E 23 bb 01 41
        E 23 bb 01 10
        E 23 bb 01 3c
        E 23 bb 01 5a
        E 23 bb 01 33
        E 23 bb 01 3b
        E 23 bb 01 02
        E 23 bb 01 07
        E 23 bb 01 63
        E 23 bb 01 42
        E 23 bb 01 12
        E 23 bb 01 5c
        E 23 bb 01 20
        E 23 bb 01 27
        E 23 bb 01 31
        E 23 bb 01 28
        E 23 bb 01 44
        E 23 bb 01 52
        E 23 bb 01 1d
        E 23 bb 01 39
        E 23 bb 01 17
        E 23 bb 01 5b
        E 23 bb 01 54
        E 23 bb 01 2e
        E 23 bb 01 24
        E 23 bb 01 50
        E 23 bb 01 25
        E 23 bb 01 47
        E 23 bb 01 0e
        E 23 bb 01 01
        E 23 bb 01 21
        E 23 bb 01 33
        E 23 bb 01 57
        E 23 bb 01 4e
        E 23 bb 01 03
        E 23 bb 01 57
        E 23 bb 01 4a
        E 23 bb 01 05
        E 23 bb 01 1f
        E 23 bb 01 3b
        E 23 bb 01 4c
        E 23 bb 01 61
        E 23 bb 01 3e
        E 23 bb 01 2a
        E 23 bb 01 1b
        E 23 bb 01 46
        E 23 bb 01 49
        E 23 bb 01 59
        E 23 bb 01 63
        E 23 bb 01 2f
        E 23 bb 01 40
        E 23 bb 01 45
        E 23 bb 01 35
        E 23 bb 01 5f
        E 23 bb 01 0f
        E 23 bb 01 24
        E 23 bb 01 43
        E 71 bb 01 16
        E 71 bb 01 4c
        E 71 bb 01 32
        E 71 bb 01 07
        E 71 bb 01 48
        E 71 bb 01 3f
        E 71 bb 01 09
        E 71 bb 01 08
        E 71 bb 01 30
        E 71 bb 01 5f
        E 71 bb 01 50
        E 71 bb 01 58
        E 71 bb 01 3f
        E 71 bb 01 0b
        E 71 bb 01 13
        E 71 bb 01 44
        E 71 bb 01 37
        E 71 bb 01 1c
        E 71 bb 01 14
        E 71 bb 01 1b
        E 71 bb 01 4f
        E 71 bb 01 2f
        E 71 bb 01 17
        E 71 bb 01 3a
        E 71 bb 01 64
        E 71 bb 01 00
        E 71 bb 01 0c
        E 71 bb 01 29
        E 71 bb 01 22
        E 71 bb 01 53
        E 71 bb 01 15
        E 71 bb 01 06
        E 71 bb 01 0f
        E 71 bb 01 11
        E 71 bb 01 5b
        E 71 bb 01 19
        E 71 bb 01 00
        E 71 bb 01 4b
        E 71 bb 01 23
        E 71 bb 01 14
        E 71 bb 01 28
        E 71 bb 01 1a
        E 71 bb 01 56
        E 71 bb 01 55
        E 71 bb 01 65
        E 71 bb 01 54
        E 71 bb 01 2b
        E 71 bb 01 5e
        E 71 bb 01 48
        E 71 bb 01 0b
        E 71 bb 01 2c
        E 71 bb 01 36
        E 71 bb 01 60
        E 71 bb 01 4d
        E 71 bb 01 37
        E 71 bb 01 38
        E 71 bb 01 04
        E 71 bb 01 0a
        E 71 bb 01 5d
        E 71 bb 01 51
        E 71 bb 01 2b
        E 71 bb 01 1f
        E 71 bb 01 0d
        E 71 bb 01 2d
        E 71 bb 01 1e
        E 71 bb 01 18
        E 71 bb 01 26
        E 71 bb 01 34
        E 71 bb 01 3d
        E 71 bb 01 41
        E 71 bb 01 10
        E 71 bb 01 3c
        E 71 bb 01 5a
        E 71 bb 01 33
        E 71 bb 01 3b
        E 71 bb 01 02
        E 71 bb 01 07
        E 71 bb 01 63
        E 71 bb 01 42
        E 71 bb 01 12
        E 71 bb 01 5c
        E 71 bb 01 20
        E 71 bb 01 27
        E 71 bb 01 31
        E 71 bb 01 28
        E 71 bb 01 44
        E 71 bb 01 52
        E 71 bb 01 1d
        E 71 bb 01 39
        E 71 bb 01 17
        E 71 bb 01 5b
        E 71 bb 01 54
        E 71 bb 01 2e
        E 71 bb 01 24
        E 71 bb 01 50
        E 71 bb 01 25
        E 71 bb 01 47
        E 71 bb 01 0e
        E 71 bb 01 01
        E 71 bb 01 21
        E 71 bb 01 33
        E 71 bb 01 57
        E 71 bb 01 4e
        E 71 bb 01 03
        E 71 bb 01 57
        E 71 bb 01 4a
        E 71 bb 01 05
        E 71 bb 01 1f
        E 71 bb 01 3b
        E 71 bb 01 4c
        E 71 bb 01 61
        E 71 bb 01 3e
        E 71 bb 01 2a
        E 71 bb 01 1b
        E 71 bb 01 46
        E 71 bb 01 49
        E 71 bb 01 59
        E 71 bb 01 63
        E 71 bb 01 2f
        E 71 bb 01 40
        E 71 bb 01 45
        E 71 bb 01 35
        E 71 bb 01 5f
        E 71 bb 01 0f
        E 71 bb 01 24
        E 71 bb 01 43
        E 15 bb 01 10
        E 15 bb 01 39
        E 15 bb 01 25
        E 15 bb 01 06
        E 15 bb 01 36
        E 15 bb 01 30
        E 15 bb 01 07
        E 15 bb 01 06
        E 15 bb 01 24
        E 15 bb 01 48
        E 15 bb 01 3c
        E 15 bb 01 42
        E 15 bb 01 2f
        E 15 bb 01 08
        E 15 bb 01 0e
        E 15 bb 01 33
        E 15 bb 01 2a
        E 15 bb 01 15
        E 15 bb 01 0f
        E 15 bb 01 14
        E 15 bb 01 3b
        E 15 bb 01 23
        E 15 bb 01 12
        E 15 bb 01 2b
        E 15 bb 01 4b
        E 15 bb 01 00
        E 15 bb 01 09
        E 15 bb 01 1f
        E 15 bb 01 19
        E 15 bb 01 3e
        E 15 bb 01 10
        E 15 bb 01 04
        E 15 bb 01 0c
        E 15 bb 01 0d
        E 15 bb 01 45
        E 15 bb 01 13
        E 15 bb 01 00
        E 15 bb 01 38
        E 15 bb 01 1a
        E 15 bb 01 0f
        E 15 bb 01 1e
        E 15 bb 01 13
        E 15 bb 01 40
        E 15 bb 01 40
        E 15 bb 01 4c
        E 15 bb 01 3f
        E 15 bb 01 21
        E 15 bb 01 46
        E 15 bb 01 36
        E 15 bb 01 09
        E 15 bb 01 21
        E 15 bb 01 28
        E 15 bb 01 48
        E 15 bb 01 3a
        E 15 bb 01 29
        E 15 bb 01 2a
        E 15 bb 01 03
        E 15 bb 01 07
        E 15 bb 01 46
        E 15 bb 01 3d
        E 15 bb 01 20
        E 15 bb 01 18
        E 15 bb 01 0a
        E 15 bb 01 22
        E 15 bb 01 16
        E 15 bb 01 12
        E 15 bb 01 1c
        E 15 bb 01 27
        E 15 bb 01 2e
        E 15 bb 01 31
        E 15 bb 01 0c
        E 15 bb 01 2d
        E 15 bb 01 43
        E 15 bb 01 27
        E 15 bb 01 2c
        E 15 bb 01 01
        E 15 bb 01 05
        E 15 bb 01 4b
        E 15 bb 01 31
        E 15 bb 01 0d
        E 15 bb 01 45
        E 15 bb 01 18
        E 15 bb 01 1d
        E 15 bb 01 25
        E 15 bb 01 1e
        E 15 bb 01 33
        E 15 bb 01 3d
        E 15 bb 01 16
        E 15 bb 01 2b
        E 15 bb 01 11
        E 15 bb 01 44
        E 15 bb 01 3f
        E 15 bb 01 22
        E 15 bb 01 1b
        E 15 bb 01 3c
        E 15 bb 01 1c
        E 15 bb 01 35
        E 15 bb 01 0a
        E 15 bb 01 01
        E 15 bb 01 19
        E 15 bb 01 26
        E 15 bb 01 41
        E 15 bb 01 3a
        E 15 bb 01 02
        E 15 bb 01 42
        E 15 bb 01 37
        E 15 bb 01 04
        E 15 bb 01 17
        E 15 bb 01 2d
        E 15 bb 01 39
        E 15 bb 01 49
        E 15 bb 01 2e
        E 15 bb 01 1f
        E 15 bb 01 15
        E 15 bb 01 34
        E 15 bb 01 37
        E 15 bb 01 43
        E 15 bb 01 4a
        E 15 bb 01 24
        E 15 bb 01 30
        E 15 bb 01 34
        E 15 bb 01 28
        E 15 bb 01 47
        E 15 bb 01 0b
        E 15 bb 01 1b
        E 15 bb 01 32
        E 71 bb 01 0b
        E 71 bb 01 26
        E 71 bb 01 19
        E 71 bb 01 04
        E 71 bb 01 24
        E 71 bb 01 20
        E 71 bb 01 04
        E 71 bb 01 04
        E 71 bb 01 18
        E 71 bb 01 30
        E 71 bb 01 28
        E 71 bb 01 2c
        E 71 bb 01 1f
        E 71 bb 01 05
        E 71 bb 01 09
        E 71 bb 01 22
        E 71 bb 01 1c
        E 71 bb 01 0e
        E 71 bb 01 0a
        E 71 bb 01 0d
        E 71 bb 01 27
        E 71 bb 01 17
        E 71 bb 01 0c
        E 71 bb 01 1d
        E 71 bb 01 32
        E 71 bb 01 00
        E 71 bb 01 06
        E 71 bb 01 14
        E 71 bb 01 11
        E 71 bb 01 29
        E 71 bb 01 0a
        E 71 bb 01 03
        E 71 bb 01 08
        E 71 bb 01 08
        E 71 bb 01 2e
        E 71 bb 01 0c
        E 71 bb 01 00
        E 71 bb 01 25
        E 71 bb 01 11
        E 71 bb 01 0a
        E 71 bb 01 14
        E 71 bb 01 0d
        E 71 bb 01 2b
        E 71 bb 01 2a
        E 71 bb 01 32
        E 71 bb 01 2a
        E 71 bb 01 16
        E 71 bb 01 2f
        E 71 bb 01 24
        E 71 bb 01 06
        E 71 bb 01 16
        E 71 bb 01 1b
        E 71 bb 01 30
        E 71 bb 01 26
        E 71 bb 01 1b
        E 71 bb 01 1c
        E 71 bb 01 02
        E 71 bb 01 05
        E 71 bb 01 2e
        E 71 bb 01 28
        E 71 bb 01 15
        E 71 bb 01 10
        E 71 bb 01 06
        E 71 bb 01 16
        E 71 bb 01 0f
        E 71 bb 01 0c
        E 71 bb 01 13
        E 71 bb 01 1a
        E 71 bb 01 1e
        E 71 bb 01 20
        E 71 bb 01 08
        E 71 bb 01 1e
        E 71 bb 01 2d
        E 71 bb 01 1a
        E 71 bb 01 1d
        E 71 bb 01 01
        E 71 bb 01 03
        E 71 bb 01 32
        E 71 bb 01 21
        E 71 bb 01 09
        E 71 bb 01 2e
        E 71 bb 01 10
        E 71 bb 01 13
        E 71 bb 01 18
        E 71 bb 01 14
        E 71 bb 01 22
        E 71 bb 01 29
        E 71 bb 01 0e
        E 71 bb 01 1c
        E 71 bb 01 0b
        E 71 bb 01 2d
        E 71 bb 01 2a
        E 71 bb 01 17
        E 71 bb 01 12
        E 71 bb 01 28
        E 71 bb 01 12
        E 71 bb 01 23
        E 71 bb 01 07
        E 71 bb 01 00
        E 71 bb 01 10
        E 71 bb 01 19
        E 71 bb 01 2b
        E 71 bb 01 27
        E 71 bb 01 01
        E 71 bb 01 2c
        E 71 bb 01 25
        E 71 bb 01 02
        E 71 bb 01 0f
        E 71 bb 01 1e
        E 71 bb 01 26
        E 71 bb 01 30
        E 71 bb 01 1f
        E 71 bb 01 15
        E 71 bb 01 0e
        E 71 bb 01 23
        E 71 bb 01 24
        E 71 bb 01 2c
        E 71 bb 01 31
        E 71 bb 01 18
        E 71 bb 01 20
        E 71 bb 01 22
        E 71 bb 01 1a
        E 71 bb 01 2f
        E 71 bb 01 07
        E 71 bb 01 12
        E 71 bb 01 21
        E 39 bb 01 13
        E 39 bb 01 43
        E 39 bb 01 2c
        E 39 bb 01 07
        E 39 bb 01 3e
        E 39 bb 01 38
        E 39 bb 01 08
        E 39 bb 01 07
        E 39 bb 01 2a
        E 39 bb 01 54
        E 39 bb 01 46
        E 39 bb 01 4d
        E 39 bb 01 37
        E 39 bb 01 09
        E 39 bb 01 10
        E 39 bb 01 3c
        E 39 bb 01 31
        E 39 bb 01 19
        E 39 bb 01 11
        E 39 bb 01 17
        E 39 bb 01 45
        E 39 bb 01 29
        E 39 bb 01 15
        E 39 bb 01 33
        E 39 bb 01 58
        E 39 bb 01 00
        E 39 bb 01 0b
        E 39 bb 01 24
        E 39 bb 01 1e
        E 39 bb 01 48
        E 39 bb 01 12
        E 39 bb 01 05
        E 39 bb 01 0e
        E 39 bb 01 0f
        E 39 bb 01 50
        E 39 bb 01 16
        E 39 bb 01 00
        E 39 bb 01 41
        E 39 bb 01 1e
        E 39 bb 01 12
        E 39 bb 01 23
        E 39 bb 01 17
        E 39 bb 01 4b
        E 39 bb 01 4a
        E 39 bb 01 58
        E 39 bb 01 4a
        E 39 bb 01 26
        E 39 bb 01 52
        E 39 bb 01 3f
        E 39 bb 01 0a
        E 39 bb 01 27
        E 39 bb 01 2f
        E 39 bb 01 54
        E 39 bb 01 43
        E 39 bb 01 30
        E 39 bb 01 31
        E 39 bb 01 04
        E 39 bb 01 09
        E 39 bb 01 51
        E 39 bb 01 47
        E 39 bb 01 25
        E 39 bb 01 1c
        E 39 bb 01 0b
        E 39 bb 01 27
        E 39 bb 01 1a
        E 39 bb 01 15
        E 39 bb 01 21
        E 39 bb 01 2e
        E 39 bb 01 35
        E 39 bb 01 39
        E 39 bb 01 0e
        E 39 bb 01 35
        E 39 bb 01 4f
        E 39 bb 01 2d
        E 39 bb 01 33
        E 39 bb 01 02
        E 39 bb 01 06
        E 39 bb 01 57
        E 39 bb 01 3a
        E 39 bb 01 10
        E 39 bb 01 51
        E 39 bb 01 1c
        E 39 bb 01 22
        E 39 bb 01 2b
        E 39 bb 01 23
        E 39 bb 01 3b
        E 39 bb 01 48
        E 39 bb 01 19
        E 39 bb 01 32
        E 39 bb 01 14
        E 39 bb 01 4f
        E 39 bb 01 49
        E 39 bb 01 28
        E 39 bb 01 20
        E 39 bb 01 46
        E 39 bb 01 20
        E 39 bb 01 3e
        E 39 bb 01 0c
        E 39 bb 01 01
        E 39 bb 01 1d
        E 39 bb 01 2c
        E 39 bb 01 4c
        E 39 bb 01 44
        E 39 bb 01 02
        E 39 bb 01 4d
        E 39 bb 01 41
        E 39 bb 01 04
        E 39 bb 01 1b
        E 39 bb 01 34
        E 39 bb 01 42
        E 39 bb 01 55
        E 39 bb 01 36
        E 39 bb 01 25
        E 39 bb 01 18
        E 39 bb 01 3d
        E 39 bb 01 40
        E 39 bb 01 4e
        E 39 bb 01 56
        E 39 bb 01 2a
        E 39 bb 01 38
        E 39 bb 01 3c
        E 39 bb 01 2e
        E 39 bb 01 53
        E 39 bb 01 0d
        E 39 bb 01 1f
        E 39 bb 01 3a
        E 7 bb 01 0b
        E 7 bb 01 26
        E 7 bb 01 19
        E 7 bb 01 04
        E 7 bb 01 24
        E 7 bb 01 20
        E 7 bb 01 04
        E 7 bb 01 04
        E 7 bb 01 18
        E 7 bb 01 30
        E 7 bb 01 28
        E 7 bb 01 2c
        E 7 bb 01 1f
        E 7 bb 01 05
        E 7 bb 01 09
        E 7 bb 01 22
        E 7 bb 01 1c
        E 7 bb 01 0e
        E 7 bb 01 0a
        E 7 bb 01 0d
        E 7 bb 01 27
        E 7 bb 01 17
        E 7 bb 01 0c
        E 7 bb 01 1d
        E 7 bb 01 32
        E 7 bb 01 00
        E 7 bb 01 06
        E 7 bb 01 14
        E 7 bb 01 11
        E 7 bb 01 29
        E 7 bb 01 0a
        E 7 bb 01 03
        E 7 bb 01 08
        E 7 bb 01 08
        E 7 bb 01 2e
        E 7 bb 01 0c
        E 7 bb 01 00
        E 7 bb 01 25
        E 7 bb 01 11
        E 7 bb 01 0a
        E 7 bb 01 14
        E 7 bb 01 0d
        E 7 bb 01 2b
        E 7 bb 01 2a
        E 7 bb 01 32
        E 7 bb 01 2a
        E 7 bb 01 16
        E 7 bb 01 2f
        E 7 bb 01 24
        E 7 bb 01 06
        E 7 bb 01 16
        E 7 bb 01 1b
        E 7 bb 01 30
        E 7 bb 01 26
        E 7 bb 01 1b
        E 7 bb 01 1c
        E 7 bb 01 02
        E 7 bb 01 05
        E 7 bb 01 2e
        E 7 bb 01 28
        E 7 bb 01 15
        E 7 bb 01 10
        E 7 bb 01 06
        E 7 bb 01 16
        E 7 bb 01 0f
        E 7 bb 01 0c
        E 7 bb 01 13
        E 7 bb 01 1a
        E 7 bb 01 1e
        E 7 bb 01 20
        E 7 bb 01 08
        E 7 bb 01 1e
        E 7 bb 01 2d
        E 7 bb 01 1a
        E 7 bb 01 1d
        E 7 bb 01 01
        E 7 bb 01 03
        E 7 bb 01 32
        E 7 bb 01 21
        E 7 bb 01 09
        E 7 bb 01 2e
        E 7 bb 01 10
        E 7 bb 01 13
        E 7 bb 01 18
        E 7 bb 01 14
        E 7 bb 01 22
        E 7 bb 01 29
        E 7 bb 01 0e
        E 7 bb 01 1c
        E 7 bb 01 0b
        E 7 bb 01 2d
        E 7 bb 01 2a
        E 7 bb 01 17
        E 7 bb 01 12
        E 7 bb 01 28
        E 7 bb 01 12
        E 7 bb 01 23
        E 7 bb 01 07
        E 7 bb 01 00
        E 7 bb 01 10
        E 7 bb 01 19
        E 7 bb 01 2b
        E 7 bb 01 27
        E 7 bb 01 01
        E 7 bb 01 2c
        E 7 bb 01 25
        E 7 bb 01 02
        E 7 bb 01 0f
        E 7 bb 01 1e
        E 7 bb 01 26
        E 7 bb 01 30
        E 7 bb 01 1f
        E 7 bb 01 15
        E 7 bb 01 0e
        E 7 bb 01 23
        E 7 bb 01 24
        E 7 bb 01 2c
        E 7 bb 01 31
        E 7 bb 01 18
        E 7 bb 01 20
        E 7 bb 01 22
        E 7 bb 01 1a
        E 7 bb 01 2f
        E 7 bb 01 07
        E 7 bb 01 12
        E 7 bb 01 21
        E 23 bb 01 16
        E 23 bb 01 4c
        E 23 bb 01 32
        E 23 bb 01 07
        E 23 bb 01 48
        E 23 bb 01 3f
        E 23 bb 01 09
        E 23 bb 01 08
        E 23 bb 01 30
        E 23 bb 01 5f
        E 23 bb 01 50
        E 23 bb 01 58
        E 23 bb 01 3f
        E 23 bb 01 0b
        E 23 bb 01 13
        E 23 bb 01 44
        E 23 bb 01 37
        E 23 bb 01 1c
        E 23 bb 01 14
        E 23 bb 01 1b
        E 23 bb 01 4f
        E 23 bb 01 2f
        E 23 bb 01 17
        E 23 bb 01 3a
        E 23 bb 01 64
        E 23 bb 01 00
        E 23 bb 01 0c
        E 23 bb 01 29
        E 23 bb 01 22
        E 23 bb 01 53
        E 23 bb 01 15
        E 23 bb 01 06
        E 23 bb 01 0f
        E 23 bb 01 11
        E 23 bb 01 5b
        E 23 bb 01 19
        E 23 bb 01 00
        E 23 bb 01 4b
        E 23 bb 01 23
        E 23 bb 01 14
        E 23 bb 01 28
        E 23 bb 01 1a
        E 23 bb 01 56
        E 23 bb 01 55
        E 23 bb 01 65
        E 23 bb 01 54
        E 23 bb 01 2b
        E 23 bb 01 5e
        E 23 bb 01 48
        E 23 bb 01 0b
        E 23 bb 01 2c
        E 23 bb 01 36
        E 23 bb 01 60
        E 23 bb 01 4d
        E 23 bb 01 37
        E 23 bb 01 38
        E 23 bb 01 04
        E 23 bb 01 0a
        E 23 bb 01 5d
        E 23 bb 01 51
        E 23 bb 01 2b
        E 23 bb 01 1f
        E 23 bb 01 0d
        E 23 bb 01 2d
        E 23 bb 01 1e
        E 23 bb 01 18
        E 23 bb 01 26
        E 23 bb 01 34
        E 23 bb 01 3d
        E 23 bb 01 41
        E 23 bb 01 10
        E 23 bb 01 3c
        E 23 bb 01 5a
        E 23 bb 01 33
        E 23 bb 01 3b
        E 23 bb 01 02
        E 23 bb 01 07
        E 23 bb 01 63
        E 23 bb 01 42
        E 23 bb 01 12
        E 23 bb 01 5c
        E 23 bb 01 20
        E 23 bb 01 27
        E 23 bb 01 31
        E 23 bb 01 28
        E 23 bb 01 44
        E 23 bb 01 52
        E 23 bb 01 1d
        E 23 bb 01 39
        E 23 bb 01 17
        E 23 bb 01 5b
        E 23 bb 01 54
        E 23 bb 01 2e
        E 23 bb 01 24
        E 23 bb 01 50
        E 23 bb 01 25
        E 23 bb 01 47
        E 23 bb 01 0e
        E 23 bb 01 01
        E 23 bb 01 21
        E 23 bb 01 33
        E 23 bb 01 57
        E 23 bb 01 4e
        E 23 bb 01 03
        E 23 bb 01 57
        E 23 bb 01 4a
        E 23 bb 01 05
        E 23 bb 01 1f
        E 23 bb 01 3b
        E 23 bb 01 4c
        E 23 bb 01 61
        E 23 bb 01 3e
        E 23 bb 01 2a
        E 23 bb 01 1b
        E 23 bb 01 46
        E 23 bb 01 49
        E 23 bb 01 59
        E 23 bb 01 63
        E 23 bb 01 2f
        E 23 bb 01 40
        E 23 bb 01 45
        E 23 bb 01 35
        E 23 bb 01 5f
        E 23 bb 01 0f
        E 23 bb 01 24
        E 23 bb 01 43
        E 71 bb 01 16
        E 71 bb 01 4c
        E 71 bb 01 32
        E 71 bb 01 07
        E 71 bb 01 48
        E 71 bb 01 3f
        E 71 bb 01 09
        E 71 bb 01 08
        E 71 bb 01 30
        E 71 bb 01 5f
        E 71 bb 01 50
        E 71 bb 01 58
        E 71 bb 01 3f
        E 71 bb 01 0b
        E 71 bb 01 13
        E 71 bb 01 44
        E 71 bb 01 37
        E 71 bb 01 1c
        E 71 bb 01 14
        E 71 bb 01 1b
        E 71 bb 01 4f
        E 71 bb 01 2f
        E 71 bb 01 17
        E 71 bb 01 3a
        E 71 bb 01 64
        E 71 bb 01 00
        E 71 bb 01 0c
        E 71 bb 01 29
        E 71 bb 01 22
        E 71 bb 01 53
        E 71 bb 01 15
        E 71 bb 01 06
        E 71 bb 01 0f
        E 71 bb 01 11
        E 71 bb 01 5b
        E 71 bb 01 19
        E 71 bb 01 00
        E 71 bb 01 4b
        E 71 bb 01 23
        E 71 bb 01 14
        E 71 bb 01 28
        E 71 bb 01 1a
        E 71 bb 01 56
        E 71 bb 01 55
        E 71 bb 01 65
        E 71 bb 01 54
        E 71 bb 01 2b
        E 71 bb 01 5e
        E 71 bb 01 48
        E 71 bb 01 0b
        E 71 bb 01 2c
        E 71 bb 01 36
        E 71 bb 01 60
        E 71 bb 01 4d
        E 71 bb 01 37
        E 71 bb 01 38
        E 71 bb 01 04
        E 71 bb 01 0a
        E 71 bb 01 5d
        E 71 bb 01 51
        E 71 bb 01 2b
        E 71 bb 01 1f
        E 71 bb 01 0d
        E 71 bb 01 2d
        E 71 bb 01 1e
        E 71 bb 01 18
        E 71 bb 01 26
        E 71 bb 01 34
        E 71 bb 01 3d
        E 71 bb 01 41
        E 71 bb 01 10
        E 71 bb 01 3c
        E 71 bb 01 5a
        E 71 bb 01 33
        E 71 bb 01 3b
        E 71 bb 01 02
        E 71 bb 01 07
        E 71 bb 01 63
        E 71 bb 01 42
        E 71 bb 01 12
        E 71 bb 01 5c
        E 71 bb 01 20
        E 71 bb 01 27
        E 71 bb 01 31
        E 71 bb 01 28
        E 71 bb 01 44
        E 71 bb 01 52
        E 71 bb 01 1d
        E 71 bb 01 39
        E 71 bb 01 17
        E 71 bb 01 5b
        E 71 bb 01 54
        E 71 bb 01 2e
        E 71 bb 01 24
        E 71 bb 01 50
        E 71 bb 01 25
        E 71 bb 01 47
        E 71 bb 01 0e
        E 71 bb 01 01
        E 71 bb 01 21
        E 71 bb 01 33
        E 71 bb 01 57
        E 71 bb 01 4e
        E 71 bb 01 03
        E 71 bb 01 57
        E 71 bb 01 4a
        E 71 bb 01 05
        E 71 bb 01 1f
        E 71 bb 01 3b
        E 71 bb 01 4c
        E 71 bb 01 61
        E 71 bb 01 3e
        E 71 bb 01 2a
        E 71 bb 01 1b
        E 71 bb 01 46
        E 71 bb 01 49
        E 71 bb 01 59
        E 71 bb 01 63
        E 71 bb 01 2f
        E 71 bb 01 40
        E 71 bb 01 45
        E 71 bb 01 35
        E 71 bb 01 5f
        E 71 bb 01 0f
        E 71 bb 01 24
        E 71 bb 01 43
        E 15 bb 01 10
        E 15 bb 01 39
        E 15 bb 01 25
        E 15 bb 01 06
        E 15 bb 01 36
        E 15 bb 01 30
        E 15 bb 01 07
        E 15 bb 01 06
        E 15 bb 01 24
        E 15 bb 01 48
        E 15 bb 01 3c
        E 15 bb 01 42
        E 15 bb 01 2f
        E 15 bb 01 08
        E 15 bb 01 0e
        E 15 bb 01 33
        E 15 bb 01 2a
        E 15 bb 01 15
        E 15 bb 01 0f
        E 15 bb 01 14
        E 15 bb 01 3b
        E 15 bb 01 23
        E 15 bb 01 12
        E 15 bb 01 2b
        E 15 bb 01 4b
        E 15 bb 01 00
        E 15 bb 01 09
        E 15 bb 01 1f
        E 15 bb 01 19
        E 15 bb 01 3e
        E 15 bb 01 10
        E 15 bb 01 04
        E 15 bb 01 0c
        E 15 bb 01 0d
        E 15 bb 01 45
        E 15 bb 01 13
        E 15 bb 01 00
        E 15 bb 01 38
        E 15 bb 01 1a
        E 15 bb 01 0f
        E 15 bb 01 1e
        E 15 bb 01 13
        E 15 bb 01 40
        E 15 bb 01 40
        E 15 bb 01 4c
        E 15 bb 01 3f
        E 15 bb 01 21
        E 15 bb 01 46
        E 15 bb 01 36
        E 15 bb 01 09
        E 15 bb 01 21
        E 15 bb 01 28
        E 15 bb 01 48
        E 15 bb 01 3a
        E 15 bb 01 29
        E 15 bb 01 2a
        E 15 bb 01 03
        E 15 bb 01 07
        E 15 bb 01 46
        E 15 bb 01 3d
        E 15 bb 01 20
        E 15 bb 01 18
        E 15 bb 01 0a
        E 15 bb 01 22
        E 15 bb 01 16
        E 15 bb 01 12
        E 15 bb 01 1c
        E 15 bb 01 27
        E 15 bb 01 2e
        E 15 bb 01 31
        E 15 bb 01 0c
        E 15 bb 01 2d
        E 15 bb 01 43
        E 15 bb 01 27
        E 15 bb 01 2c
        E 15 bb 01 01
        E 15 bb 01 05
        E 15 bb 01 4b
        E 15 bb 01 31
        E 15 bb 01 0d
        E 15 bb 01 45
        E 15 bb 01 18
        E 15 bb 01 1d
        E 15 bb 01 25
        E 15 bb 01 1e
        E 15 bb 01 33
        E 15 bb 01 3d
        E 15 bb 01 16
        E 15 bb 01 2b
        E 15 bb 01 11
        E 15 bb 01 44
        E 15 bb 01 3f
        E 15 bb 01 22
        E 15 bb 01 1b
        E 15 bb 01 3c
        E 15 bb 01 1c
        E 15 bb 01 35
        E 15 bb 01 0a
        E 15 bb 01 01
        E 15 bb 01 19
        E 15 bb 01 26
        E 15 bb 01 41
        E 15 bb 01 3a
        E 15 bb 01 02
        E 15 bb 01 42
        E 15 bb 01 37
        E 15 bb 01 04
        E 15 bb 01 17
        E 15 bb 01 2d
        E 15 bb 01 39
        E 15 bb 01 49
        E 15 bb 01 2e
        E 15 bb 01 1f
        E 15 bb 01 15
        E 15 bb 01 34
        E 15 bb 01 37
        E 15 bb 01 43
        E 15 bb 01 4a
        E 15 bb 01 24
        E 15 bb 01 30
        E 15 bb 01 34
        E 15 bb 01 28
        E 15 bb 01 47
        E 15 bb 01 0b
        E 15 bb 01 1b
        E 15 bb 01 32
        E 7 bb 01 0b
        E 7 bb 01 26
        E 7 bb 01 19
        E 7 bb 01 04
        E 7 bb 01 24
        E 7 bb 01 20
        E 7 bb 01 04
        E 7 bb 01 04
        E 7 bb 01 18
        E 7 bb 01 30
        E 7 bb 01 28
        E 7 bb 01 2c
        E 7 bb 01 1f
        E 7 bb 01 05
        E 7 bb 01 09
        E 7 bb 01 22
        E 7 bb 01 1c
        E 7 bb 01 0e
        E 7 bb 01 0a
        E 7 bb 01 0d
        E 7 bb 01 27
        E 7 bb 01 17
        E 7 bb 01 0c
        E 7 bb 01 1d
        E 7 bb 01 32
        E 7 bb 01 00
        E 7 bb 01 06
        E 7 bb 01 14
        E 7 bb 01 11
        E 7 bb 01 29
        E 7 bb 01 0a
        E 7 bb 01 03
        E 7 bb 01 08
        E 7 bb 01 08
        E 7 bb 01 2e
        E 7 bb 01 0c
        E 7 bb 01 00
        E 7 bb 01 25
        E 7 bb 01 11
        E 7 bb 01 0a
        E 7 bb 01 14
        E 7 bb 01 0d
        E 7 bb 01 2b
        E 7 bb 01 2a
        E 7 bb 01 32
        E 7 bb 01 2a
        E 7 bb 01 16
        E 7 bb 01 2f
        E 7 bb 01 24
        E 7 bb 01 06
        E 7 bb 01 16
        E 7 bb 01 1b
        E 7 bb 01 30
        E 7 bb 01 26
        E 7 bb 01 1b
        E 7 bb 01 1c
        E 7 bb 01 02
        E 7 bb 01 05
        E 7 bb 01 2e
        E 7 bb 01 28
        E 7 bb 01 15
        E 7 bb 01 10
        E 7 bb 01 06
        E 7 bb 01 16
        E 7 bb 01 0f
        E 7 bb 01 0c
        E 7 bb 01 13
        E 7 bb 01 1a
        E 7 bb 01 1e
        E 7 bb 01 20
        E 7 bb 01 08
        E 7 bb 01 1e
        E 7 bb 01 2d
        E 7 bb 01 1a
        E 7 bb 01 1d
        E 7 bb 01 01
        E 7 bb 01 03
        E 7 bb 01 32
        E 7 bb 01 21
        E 7 bb 01 09
        E 7 bb 01 2e
        E 7 bb 01 10
        E 7 bb 01 13
        E 7 bb 01 18
        E 7 bb 01 14
        E 7 bb 01 22
        E 7 bb 01 29
        E 7 bb 01 0e
        E 7 bb 01 1c
        E 7 bb 01 0b
        E 7 bb 01 2d
        E 7 bb 01 2a
        E 7 bb 01 17
        E 7 bb 01 12
        E 7 bb 01 28
        E 7 bb 01 12
        E 7 bb 01 23
        E 7 bb 01 07
        E 7 bb 01 00
        E 7 bb 01 10
        E 7 bb 01 19
        E 7 bb 01 2b
        E 7 bb 01 27
        E 7 bb 01 01
        E 7 bb 01 2c
        E 7 bb 01 25
        E 7 bb 01 02
        E 7 bb 01 0f
        E 7 bb 01 1e
        E 7 bb 01 26
        E 7 bb 01 30
        E 7 bb 01 1f
        E 7 bb 01 15
        E 7 bb 01 0e
        E 7 bb 01 23
        E 7 bb 01 24
        E 7 bb 01 2c
        E 7 bb 01 31
        E 7 bb 01 18
        E 7 bb 01 20
        E 7 bb 01 22
        E 7 bb 01 1a
        E 7 bb 01 2f
        E 7 bb 01 07
        E 7 bb 01 12
        E 7 bb 01 21
        E 23 bb 01 16
        E 23 bb 01 4c
        E 23 bb 01 32
        E 23 bb 01 07
        E 23 bb 01 48
        E 23 bb 01 3f
        E 23 bb 01 09
        E 23 bb 01 08
        E 23 bb 01 30
        E 23 bb 01 5f
        E 23 bb 01 50
        E 23 bb 01 58
        E 23 bb 01 3f
        E 23 bb 01 0b
        E 23 bb 01 13
        E 23 bb 01 44
        E 23 bb 01 37
        E 23 bb 01 1c
        E 23 bb 01 14
        E 23 bb 01 1b
        E 23 bb 01 4f
        E 23 bb 01 2f
        E 23 bb 01 17
        E 23 bb 01 3a
        E 23 bb 01 64
        E 23 bb 01 00
        E 23 bb 01 0c
        E 23 bb 01 29
        E 23 bb 01 22
        E 23 bb 01 53
        E 23 bb 01 15
        E 23 bb 01 06
        E 23 bb 01 0f
        E 23 bb 01 11
        E 23 bb 01 5b
        E 23 bb 01 19
        E 23 bb 01 00
        E 23 bb 01 4b
        E 23 bb 01 23
        E 23 bb 01 14
        E 23 bb 01 28
        E 23 bb 01 1a
        E 23 bb 01 56
        E 23 bb 01 55
        E 23 bb 01 65
        E 23 bb 01 54
        E 23 bb 01 2b
        E 23 bb 01 5e
        E 23 bb 01 48
        E 23 bb 01 0b
        E 23 bb 01 2c
        E 23 bb 01 36
        E 23 bb 01 60
        E 23 bb 01 4d
        E 23 bb 01 37
        E 23 bb 01 38
        E 23 bb 01 04
        E 23 bb 01 0a
        E 23 bb 01 5d
        E 23 bb 01 51
        E 23 bb 01 2b
        E 23 bb 01 1f
        E 23 bb 01 0d
        E 23 bb 01 2d
        E 23 bb 01 1e
        E 23 bb 01 18
        E 23 bb 01 26
        E 23 bb 01 34
        E 23 bb 01 3d
        E 23 bb 01 41
        E 23 bb 01 10
        E 23 bb 01 3c
        E 23 bb 01 5a
        E 23 bb 01 33
        E 23 bb 01 3b
        E 23 bb 01 02
        E 23 bb 01 07
        E 23 bb 01 63
        E 23 bb 01 42
        E 23 bb 01 12
        E 23 bb 01 5c
        E 23 bb 01 20
        E 23 bb 01 27
        E 23 bb 01 31
        E 23 bb 01 28
        E 23 bb 01 44
        E 23 bb 01 52
        E 23 bb 01 1d
        E 23 bb 01 39
        E 23 bb 01 17
        E 23 bb 01 5b
        E 23 bb 01 54
        E 23 bb 01 2e
        E 23 bb 01 24
        E 23 bb 01 50
        E 23 bb 01 25
        E 23 bb 01 47
        E 23 bb 01 0e
        E 23 bb 01 01
        E 23 bb 01 21
        E 23 bb 01 33
        E 23 bb 01 57
        E 23 bb 01 4e
        E 23 bb 01 03
        E 23 bb 01 57
        E 23 bb 01 4a
        E 23 bb 01 05
        E 23 bb 01 1f
        E 23 bb 01 3b
        E 23 bb 01 4c
        E 23 bb 01 61
        E 23 bb 01 3e
        E 23 bb 01 2a
        E 23 bb 01 1b
        E 23 bb 01 46
        E 23 bb 01 49
        E 23 bb 01 59
        E 23 bb 01 63
        E 23 bb 01 2f
        E 23 bb 01 40
        E 23 bb 01 45
        E 23 bb 01 35
        E 23 bb 01 5f
        E 23 bb 01 0f
        E 23 bb 01 24
        E 23 bb 01 43
        E 71 bb 01 16
        E 71 bb 01 4c
        E 71 bb 01 32
        E 71 bb 01 07
        E 71 bb 01 48
        E 71 bb 01 3f
        E 71 bb 01 09
        E 71 bb 01 08
        E 71 bb 01 30
        E 71 bb 01 5f
        E 71 bb 01 50
        E 71 bb 01 58
        E 71 bb 01 3f
        E 71 bb 01 0b
        E 71 bb 01 13
        E 71 bb 01 44
        E 71 bb 01 37
        E 71 bb 01 1c
        E 71 bb 01 14
        E 71 bb 01 1b
        E 71 bb 01 4f
        E 71 bb 01 2f
        E 71 bb 01 17
        E 71 bb 01 3a
        E 71 bb 01 64
        E 71 bb 01 00
        E 71 bb 01 0c
        E 71 bb 01 29
        E 71 bb 01 22
        E 71 bb 01 53
        E 71 bb 01 15
        E 71 bb 01 06
        E 71 bb 01 0f
        E 71 bb 01 11
        E 71 bb 01 5b
        E 71 bb 01 19
        E 71 bb 01 00
        E 71 bb 01 4b
        E 71 bb 01 23
        E 71 bb 01 14
        E 71 bb 01 28
        E 71 bb 01 1a
        E 71 bb 01 56
        E 71 bb 01 55
        E 71 bb 01 65
        E 71 bb 01 54
        E 71 bb 01 2b
        E 71 bb 01 5e
        E 71 bb 01 48
        E 71 bb 01 0b
        E 71 bb 01 2c
        E 71 bb 01 36
        E 71 bb 01 60
        E 71 bb 01 4d
        E 71 bb 01 37
        E 71 bb 01 38
        E 71 bb 01 04
        E 71 bb 01 0a
        E 71 bb 01 5d
        E 71 bb 01 51
        E 71 bb 01 2b
        E 71 bb 01 1f
        E 71 bb 01 0d
        E 71 bb 01 2d
        E 71 bb 01 1e
        E 71 bb 01 18
        E 71 bb 01 26
        E 71 bb 01 34
        E 71 bb 01 3d
        E 71 bb 01 41
        E 71 bb 01 10
        E 71 bb 01 3c
        E 71 bb 01 5a
        E 71 bb 01 33
        E 71 bb 01 3b
        E 71 bb 01 02
        E 71 bb 01 07
        E 71 bb 01 63
        E 71 bb 01 42
        E 71 bb 01 12
        E 71 bb 01 5c
        E 71 bb 01 20
        E 71 bb 01 27
        E 71 bb 01 31
        E 71 bb 01 28
        E 71 bb 01 44
        E 71 bb 01 52
        E 71 bb 01 1d
        E 71 bb 01 39
        E 71 bb 01 17
        E 71 bb 01 5b
        E 71 bb 01 54
        E 71 bb 01 2e
        E 71 bb 01 24
        E 71 bb 01 50
        E 71 bb 01 25
        E 71 bb 01 47
        E 71 bb 01 0e
        E 71 bb 01 01
        E 71 bb 01 21
        E 71 bb 01 33
        E 71 bb 01 57
        E 71 bb 01 4e
        E 71 bb 01 03
        E 71 bb 01 57
        E 71 bb 01 4a
        E 71 bb 01 05
        E 71 bb 01 1f
        E 71 bb 01 3b
        E 71 bb 01 4c
        E 71 bb 01 61
        E 71 bb 01 3e
        E 71 bb 01 2a
        E 71 bb 01 1b
        E 71 bb 01 46
        E 71 bb 01 49
        E 71 bb 01 59
        E 71 bb 01 63
        E 71 bb 01 2f
        E 71 bb 01 40
        E 71 bb 01 45
        E 71 bb 01 35
        E 71 bb 01 5f
        E 71 bb 01 0f
        E 71 bb 01 24
        E 71 bb 01 43
        E 15 bb 01 10
        E 15 bb 01 39
        E 15 bb 01 25
        E 15 bb 01 06
        E 15 bb 01 36
        E 15 bb 01 30
        E 15 bb 01 07
        E 15 bb 01 06
        E 15 bb 01 24
        E 15 bb 01 48
        E 15 bb 01 3c
        E 15 bb 01 42
        E 15 bb 01 2f
        E 15 bb 01 08
        E 15 bb 01 0e
        E 15 bb 01 33
        E 15 bb 01 2a
        E 15 bb 01 15
        E 15 bb 01 0f
        E 15 bb 01 14
        E 15 bb 01 3b
        E 15 bb 01 23
        E 15 bb 01 12
        E 15 bb 01 2b
        E 15 bb 01 4b
        E 15 bb 01 00
        E 15 bb 01 09
        E 15 bb 01 1f
        E 15 bb 01 19
        E 15 bb 01 3e
        E 15 bb 01 10
        E 15 bb 01 04
        E 15 bb 01 0c
        E 15 bb 01 0d
        E 15 bb 01 45
        E 15 bb 01 13
        E 15 bb 01 00
        E 15 bb 01 38
        E 15 bb 01 1a
        E 15 bb 01 0f
        E 15 bb 01 1e
        E 15 bb 01 13
        E 15 bb 01 40
        E 15 bb 01 40
        E 15 bb 01 4c
        E 15 bb 01 3f
        E 15 bb 01 21
        E 15 bb 01 46
        E 15 bb 01 36
        E 15 bb 01 09
        E 15 bb 01 21
        E 15 bb 01 28
        E 15 bb 01 48
        E 15 bb 01 3a
        E 15 bb 01 29
        E 15 bb 01 2a
        E 15 bb 01 03
        E 15 bb 01 07
        E 15 bb 01 46
        E 15 bb 01 3d
        E 15 bb 01 20
        E 15 bb 01 18
        E 15 bb 01 0a
        E 15 bb 01 22
        E 15 bb 01 16
        E 15 bb 01 12
        E 15 bb 01 1c
        E 15 bb 01 27
        E 15 bb 01 2e
        E 15 bb 01 31
        E 15 bb 01 0c
        E 15 bb 01 2d
        E 15 bb 01 43
        E 15 bb 01 27
        E 15 bb 01 2c
        E 15 bb 01 01
        E 15 bb 01 05
        E 15 bb 01 4b
        E 15 bb 01 31
        E 15 bb 01 0d
        E 15 bb 01 45
        E 15 bb 01 18
        E 15 bb 01 1d
        E 15 bb 01 25
        E 15 bb 01 1e
        E 15 bb 01 33
        E 15 bb 01 3d
        E 15 bb 01 16
        E 15 bb 01 2b
        E 15 bb 01 11
        E 15 bb 01 44
        E 15 bb 01 3f
        E 15 bb 01 22
        E 15 bb 01 1b
        E 15 bb 01 3c
        E 15 bb 01 1c
        E 15 bb 01 35
        E 15 bb 01 0a
        E 15 bb 01 01
        E 15 bb 01 19
        E 15 bb 01 26
        E 15 bb 01 41
        E 15 bb 01 3a
        E 15 bb 01 02
        E 15 bb 01 42
        E 15 bb 01 37
        E 15 bb 01 04
        E 15 bb 01 17
        E 15 bb 01 2d
        E 15 bb 01 39
        E 15 bb 01 49
        E 15 bb 01 2e
        E 15 bb 01 1f
        E 15 bb 01 15
        E 15 bb 01 34
        E 15 bb 01 37
        E 15 bb 01 43
        E 15 bb 01 4a
        E 15 bb 01 24
        E 15 bb 01 30
        E 15 bb 01 34
        E 15 bb 01 28
        E 15 bb 01 47
        E 15 bb 01 0b
        E 15 bb 01 1b
        E 15 bb 01 32
        E 71 bb 01 0b
        E 71 bb 01 26
        E 71 bb 01 19
        E 71 bb 01 04
        E 71 bb 01 24
        E 71 bb 01 20
        E 71 bb 01 04
        E 71 bb 01 04
        E 71 bb 01 18
        E 71 bb 01 30
        E 71 bb 01 28
        E 71 bb 01 2c
        E 71 bb 01 1f
        E 71 bb 01 05
        E 71 bb 01 09
        E 71 bb 01 22
        E 71 bb 01 1c
        E 71 bb 01 0e
        E 71 bb 01 0a
        E 71 bb 01 0d
        E 71 bb 01 27
        E 71 bb 01 17
        E 71 bb 01 0c
        E 71 bb 01 1d
        E 71 bb 01 32
        E 71 bb 01 00
        E 71 bb 01 06
        E 71 bb 01 14
        E 71 bb 01 11
        E 71 bb 01 29
        E 71 bb 01 0a
        E 71 bb 01 03
        E 71 bb 01 08
        E 71 bb 01 08
        E 71 bb 01 2e
        E 71 bb 01 0c
        E 71 bb 01 00
        E 71 bb 01 25
        E 71 bb 01 11
        E 71 bb 01 0a
        E 71 bb 01 14
        E 71 bb 01 0d
        E 71 bb 01 2b
        E 71 bb 01 2a
        E 71 bb 01 32
        E 71 bb 01 2a
        E 71 bb 01 16
        E 71 bb 01 2f
        E 71 bb 01 24
        E 71 bb 01 06
        E 71 bb 01 16
        E 71 bb 01 1b
        E 71 bb 01 30
        E 71 bb 01 26
        E 71 bb 01 1b
        E 71 bb 01 1c
        E 71 bb 01 02
        E 71 bb 01 05
        E 71 bb 01 2e
        E 71 bb 01 28
        E 71 bb 01 15
        E 71 bb 01 10
        E 71 bb 01 06
        E 71 bb 01 16
        E 71 bb 01 0f
        E 71 bb 01 0c
        E 71 bb 01 13
        E 71 bb 01 1a
        E 71 bb 01 1e
        E 71 bb 01 20
        E 71 bb 01 08
        E 71 bb 01 1e
        E 71 bb 01 2d
        E 71 bb 01 1a
        E 71 bb 01 1d
        E 71 bb 01 01
        E 71 bb 01 03
        E 71 bb 01 32
        E 71 bb 01 21
        E 71 bb 01 09
        E 71 bb 01 2e
        E 71 bb 01 10
        E 71 bb 01 13
        E 71 bb 01 18
        E 71 bb 01 14
        E 71 bb 01 22
        E 71 bb 01 29
        E 71 bb 01 0e
        E 71 bb 01 1c
        E 71 bb 01 0b
        E 71 bb 01 2d
        E 71 bb 01 2a
        E 71 bb 01 17
        E 71 bb 01 12
        E 71 bb 01 28
        E 71 bb 01 12
        E 71 bb 01 23
        E 71 bb 01 07
        E 71 bb 01 00
        E 71 bb 01 10
        E 71 bb 01 19
        E 71 bb 01 2b
        E 71 bb 01 27
        E 71 bb 01 01
        E 71 bb 01 2c
        E 71 bb 01 25
        E 71 bb 01 02
        E 71 bb 01 0f
        E 71 bb 01 1e
        E 71 bb 01 26
        E 71 bb 01 30
        E 71 bb 01 1f
        E 71 bb 01 15
        E 71 bb 01 0e
        E 71 bb 01 23
        E 71 bb 01 24
        E 71 bb 01 2c
        E 71 bb 01 31
        E 71 bb 01 18
        E 71 bb 01 20
        E 71 bb 01 22
        E 71 bb 01 1a
        E 71 bb 01 2f
        E 71 bb 01 07
        E 71 bb 01 12
        E 71 bb 01 21
        E 39 bb 01 13
        E 39 bb 01 43
        E 39 bb 01 2c
        E 39 bb 01 07
        E 39 bb 01 3e
        E 39 bb 01 38
        E 39 bb 01 08
        E 39 bb 01 07
        E 39 bb 01 2a
        E 39 bb 01 54
        E 39 bb 01 46
        E 39 bb 01 4d
        E 39 bb 01 37
        E 39 bb 01 09
        E 39 bb 01 10
        E 39 bb 01 3c
        E 39 bb 01 31
        E 39 bb 01 19
        E 39 bb 01 11
        E 39 bb 01 17
        E 39 bb 01 45
        E 39 bb 01 29
        E 39 bb 01 15
        E 39 bb 01 33
        E 39 bb 01 58
        E 39 bb 01 00
        E 39 bb 01 0b
        E 39 bb 01 24
        E 39 bb 01 1e
        E 39 bb 01 48
        E 39 bb 01 12
        E 39 bb 01 05
        E 39 bb 01 0e
        E 39 bb 01 0f
        E 39 bb 01 50
        E 39 bb 01 16
        E 39 bb 01 00
        E 39 bb 01 41
        E 39 bb 01 1e
        E 39 bb 01 12
        E 39 bb 01 23
        E 39 bb 01 17
        E 39 bb 01 4b
        E 39 bb 01 4a
        E 39 bb 01 58
        E 39 bb 01 4a
        E 39 bb 01 26
        E 39 bb 01 52
        E 39 bb 01 3f
        E 39 bb 01 0a
        E 39 bb 01 27
        E 39 bb 01 2f
        E 39 bb 01 54
        E 39 bb 01 43
        E 39 bb 01 30
        E 39 bb 01 31
        E 39 bb 01 04
        E 39 bb 01 09
        E 39 bb 01 51
        E 39 bb 01 47
        E 39 bb 01 25
        E 39 bb 01 1c
        E 39 bb 01 0b
        E 39 bb 01 27
        E 39 bb 01 1a
        E 39 bb 01 15
        E 39 bb 01 21
        E 39 bb 01 2e
        E 39 bb 01 35
        E 39 bb 01 39
        E 39 bb 01 0e
        E 39 bb 01 35
        E 39 bb 01 4f
        E 39 bb 01 2d
        E 39 bb 01 33
        E 39 bb 01 02
        E 39 bb 01 06
        E 39 bb 01 57
        E 39 bb 01 3a
        E 39 bb 01 10
        E 39 bb 01 51
        E 39 bb 01 1c
        E 39 bb 01 22
        E 39 bb 01 2b
        E 39 bb 01 23
        E 39 bb 01 3b
        E 39 bb 01 48
        E 39 bb 01 19
        E 39 bb 01 32
        E 39 bb 01 14
        E 39 bb 01 4f
        E 39 bb 01 49
        E 39 bb 01 28
        E 39 bb 01 20
        E 39 bb 01 46
        E 39 bb 01 20
        E 39 bb 01 3e
        E 39 bb 01 0c
        E 39 bb 01 01
        E 39 bb 01 1d
        E 39 bb 01 2c
        E 39 bb 01 4c
        E 39 bb 01 44
        E 39 bb 01 02
        E 39 bb 01 4d
        E 39 bb 01 41
        E 39 bb 01 04
        E 39 bb 01 1b
        E 39 bb 01 34
        E 39 bb 01 42
        E 39 bb 01 55
        E 39 bb 01 36
        E 39 bb 01 25
        E 39 bb 01 18
        E 39 bb 01 3d
        E 39 bb 01 40
        E 39 bb 01 4e
        E 39 bb 01 56
        E 39 bb 01 2a
        E 39 bb 01 38
        E 39 bb 01 3c
        E 39 bb 01 2e
        E 39 bb 01 53
        E 39 bb 01 0d
        E 39 bb 01 1f
        E 39 bb 01 3a
        E 7 bb 01 0b
        E 7 bb 01 26
        E 7 bb 01 19
        E 7 bb 01 04
        E 7 bb 01 24
        E 7 bb 01 20
        E 7 bb 01 04
        E 7 bb 01 04
        E 7 bb 01 18
        E 7 bb 01 30
        E 7 bb 01 28
        E 7 bb 01 2c
        E 7 bb 01 1f
        E 7 bb 01 05
        E 7 bb 01 09
        E 7 bb 01 22
        E 7 bb 01 1c
        E 7 bb 01 0e
        E 7 bb 01 0a
        E 7 bb 01 0d
        E 7 bb 01 27
        E 7 bb 01 17
        E 7 bb 01 0c
        E 7 bb 01 1d
        E 7 bb 01 32
        E 7 bb 01 00
        E 7 bb 01 06
        E 7 bb 01 14
        E 7 bb 01 11
        E 7 bb 01 29
        E 7 bb 01 0a
        E 7 bb 01 03
        E 7 bb 01 08
        E 7 bb 01 08
        E 7 bb 01 2e
        E 7 bb 01 0c
        E 7 bb 01 00
        E 7 bb 01 25
        E 7 bb 01 11
        E 7 bb 01 0a
        E 7 bb 01 14
        E 7 bb 01 0d
        E 7 bb 01 2b
        E 7 bb 01 2a
        E 7 bb 01 32
        E 7 bb 01 2a
        E 7 bb 01 16
        E 7 bb 01 2f
        E 7 bb 01 24
        E 7 bb 01 06
        E 7 bb 01 16
        E 7 bb 01 1b
        E 7 bb 01 30
        E 7 bb 01 26
        E 7 bb 01 1b
        E 7 bb 01 1c
        E 7 bb 01 02
        E 7 bb 01 05
        E 7 bb 01 2e
        E 7 bb 01 28
        E 7 bb 01 15
        E 7 bb 01 10
        E 7 bb 01 06
        E 7 bb 01 16
        E 7 bb 01 0f
        E 7 bb 01 0c
        E 7 bb 01 13
        E 7 bb 01 1a
        E 7 bb 01 1e
        E 7 bb 01 20
        E 7 bb 01 08
        E 7 bb 01 1e
        E 7 bb 01 2d
        E 7 bb 01 1a
        E 7 bb 01 1d
        E 7 bb 01 01
        E 7 bb 01 03
        E 7 bb 01 32
        E 7 bb 01 21
        E 7 bb 01 09
        E 7 bb 01 2e
        E 7 bb 01 10
        E 7 bb 01 13
        E 7 bb 01 18
        E 7 bb 01 14
        E 7 bb 01 22
        E 7 bb 01 29
        E 7 bb 01 0e
        E 7 bb 01 1c
        E 7 bb 01 0b
        E 7 bb 01 2d
        E 7 bb 01 2a
        E 7 bb 01 17
        E 7 bb 01 12
        E 7 bb 01 28
        E 7 bb 01 12
        E 7 bb 01 23
        E 7 bb 01 07
        E 7 bb 01 00
        E 7 bb 01 10
        E 7 bb 01 19
        E 7 bb 01 2b
        E 7 bb 01 27
        E 7 bb 01 01
        E 7 bb 01 2c
        E 7 bb 01 25
        E 7 bb 01 02
        E 7 bb 01 0f
        E 7 bb 01 1e
        E 7 bb 01 26
        E 7 bb 01 30
        E 7 bb 01 1f
        E 7 bb 01 15
        E 7 bb 01 0e
        E 7 bb 01 23
        E 7 bb 01 24
        E 7 bb 01 2c
        E 7 bb 01 31
        E 7 bb 01 18
        E 7 bb 01 20
        E 7 bb 01 22
        E 7 bb 01 1a
        E 7 bb 01 2f
        E 7 bb 01 07
        E 7 bb 01 12
        E 7 bb 01 21
        E 23 bb 01 16
        E 23 bb 01 4c
        E 23 bb 01 32
        E 23 bb 01 07
        E 23 bb 01 48
        E 23 bb 01 3f
        E 23 bb 01 09
        E 23 bb 01 08
        E 23 bb 01 30
        E 23 bb 01 5f
        E 23 bb 01 50
        E 23 bb 01 58
        E 23 bb 01 3f
        E 23 bb 01 0b
        E 23 bb 01 13
        E 23 bb 01 44
        E 23 bb 01 37
        E 23 bb 01 1c
        E 23 bb 01 14
        E 23 bb 01 1b
        E 23 bb 01 4f
        E 23 bb 01 2f
        E 23 bb 01 17
        E 23 bb 01 3a
        E 23 bb 01 64
        E 23 bb 01 00
        E 23 bb 01 0c
        E 23 bb 01 29
        E 23 bb 01 22
        E 23 bb 01 53
        E 23 bb 01 15
        E 23 bb 01 06
        E 23 bb 01 0f
        E 23 bb 01 11
        E 23 bb 01 5b
        E 23 bb 01 19
        E 23 bb 01 00
        E 23 bb 01 4b
        E 23 bb 01 23
        E 23 bb 01 14
        E 23 bb 01 28
        E 23 bb 01 1a
        E 23 bb 01 56
        E 23 bb 01 55
        E 23 bb 01 65
        E 23 bb 01 54
        E 23 bb 01 2b
        E 23 bb 01 5e
        E 23 bb 01 48
        E 23 bb 01 0b
        E 23 bb 01 2c
        E 23 bb 01 36
        E 23 bb 01 60
        E 23 bb 01 4d
        E 23 bb 01 37
        E 23 bb 01 38
        E 23 bb 01 04
        E 23 bb 01 0a
        E 23 bb 01 5d
        E 23 bb 01 51
        E 23 bb 01 2b
        E 23 bb 01 1f
        E 23 bb 01 0d
        E 23 bb 01 2d
        E 23 bb 01 1e
        E 23 bb 01 18
        E 23 bb 01 26
        E 23 bb 01 34
        E 23 bb 01 3d
        E 23 bb 01 41
        E 23 bb 01 10
        E 23 bb 01 3c
        E 23 bb 01 5a
        E 23 bb 01 33
        E 23 bb 01 3b
        E 23 bb 01 02
        E 23 bb 01 07
        E 23 bb 01 63
        E 23 bb 01 42
        E 23 bb 01 12
        E 23 bb 01 5c
        E 23 bb 01 20
        E 23 bb 01 27
        E 23 bb 01 31
        E 23 bb 01 28
        E 23 bb 01 44
        E 23 bb 01 52
        E 23 bb 01 1d
        E 23 bb 01 39
        E 23 bb 01 17
        E 23 bb 01 5b
        E 23 bb 01 54
        E 23 bb 01 2e
        E 23 bb 01 24
        E 23 bb 01 50
        E 23 bb 01 25
        E 23 bb 01 47
        E 23 bb 01 0e
        E 23 bb 01 01
        E 23 bb 01 21
        E 23 bb 01 33
        E 23 bb 01 57
        E 23 bb 01 4e
        E 23 bb 01 03
        E 23 bb 01 57
        E 23 bb 01 4a
        E 23 bb 01 05
        E 23 bb 01 1f
        E 23 bb 01 3b
        E 23 bb 01 4c
        E 23 bb 01 61
        E 23 bb 01 3e
        E 23 bb 01 2a
        E 23 bb 01 1b
        E 23 bb 01 46
        E 23 bb 01 49
        E 23 bb 01 59
        E 23 bb 01 63
        E 23 bb 01 2f
        E 23 bb 01 40
        E 23 bb 01 45
        E 23 bb 01 35
        E 23 bb 01 5f
        E 23 bb 01 0f
        E 23 bb 01 24
        E 23 bb 01 43
        E 71 bb 01 16
        E 71 bb 01 4c
        E 71 bb 01 32
        E 71 bb 01 07
        E 71 bb 01 48
        E 71 bb 01 3f
        E 71 bb 01 09
        E 71 bb 01 08
        E 71 bb 01 30
        E 71 bb 01 5f
        E 71 bb 01 50
        E 71 bb 01 58
        E 71 bb 01 3f
        E 71 bb 01 0b
        E 71 bb 01 13
        E 71 bb 01 44
        E 71 bb 01 37
        E 71 bb 01 1c
        E 71 bb 01 14
        E 71 bb 01 1b
        E 71 bb 01 4f
        E 71 bb 01 2f
        E 71 bb 01 17
        E 71 bb 01 3a
        E 71 bb 01 64
        E 71 bb 01 00
        E 71 bb 01 0c
        E 71 bb 01 29
        E 71 bb 01 22
        E 71 bb 01 53
        E 71 bb 01 15
        E 71 bb 01 06
        E 71 bb 01 0f
        E 71 bb 01 11
        E 71 bb 01 5b
        E 71 bb 01 19
        E 71 bb 01 00
        E 71 bb 01 4b
        E 71 bb 01 23
        E 71 bb 01 14
        E 71 bb 01 28
        E 71 bb 01 1a
        E 71 bb 01 56
        E 71 bb 01 55
        E 71 bb 01 65
        E 71 bb 01 54
        E 71 bb 01 2b
        E 71 bb 01 5e
        E 71 bb 01 48
        E 71 bb 01 0b
        E 71 bb 01 2c
        E 71 bb 01 36
        E 71 bb 01 60
        E 71 bb 01 4d
        E 71 bb 01 37
        E 71 bb 01 38
        E 71 bb 01 04
        E 71 bb 01 0a
        E 71 bb 01 5d
        E 71 bb 01 51
        E 71 bb 01 2b
        E 71 bb 01 1f
        E 71 bb 01 0d
        E 71 bb 01 2d
        E 71 bb 01 1e
        E 71 bb 01 18
        E 71 bb 01 26
        E 71 bb 01 34
        E 71 bb 01 3d
        E 71 bb 01 41
        E 71 bb 01 10
        E 71 bb 01 3c
        E 71 bb 01 5a
        E 71 bb 01 33
        E 71 bb 01 3b
        E 71 bb 01 02
        E 71 bb 01 07
        E 71 bb 01 63
        E 71 bb 01 42
        E 71 bb 01 12
        E 71 bb 01 5c
        E 71 bb 01 20
        E 71 bb 01 27
        E 71 bb 01 31
        E 71 bb 01 28
        E 71 bb 01 44
        E 71 bb 01 52
        E 71 bb 01 1d
        E 71 bb 01 39
        E 71 bb 01 17
        E 71 bb 01 5b
        E 71 bb 01 54
        E 71 bb 01 2e
        E 71 bb 01 24
        E 71 bb 01 50
        E 71 bb 01 25
        E 71 bb 01 47
        E 71 bb 01 0e
        E 71 bb 01 01
        E 71 bb 01 21
        E 71 bb 01 33
        E 71 bb 01 57
        E 71 bb 01 4e
        E 71 bb 01 03
        E 71 bb 01 57
        E 71 bb 01 4a
        E 71 bb 01 05
        E 71 bb 01 1f
        E 71 bb 01 3b
        E 71 bb 01 4c
        E 71 bb 01 61
        E 71 bb 01 3e
        E 71 bb 01 2a
        E 71 bb 01 1b
        E 71 bb 01 46
        E 71 bb 01 49
        E 71 bb 01 59
        E 71 bb 01 63
        E 71 bb 01 2f
        E 71 bb 01 40
        E 71 bb 01 45
        E 71 bb 01 35
        E 71 bb 01 5f
        E 71 bb 01 0f
        E 71 bb 01 24
        E 71 bb 01 43
        E 15 bb 01 10
        E 15 bb 01 39
        E 15 bb 01 25
        E 15 bb 01 06
        E 15 bb 01 36
        E 15 bb 01 30
        E 15 bb 01 07
        E 15 bb 01 06
        E 15 bb 01 24
        E 15 bb 01 48
        E 15 bb 01 3c
        E 15 bb 01 42
        E 15 bb 01 2f
        E 15 bb 01 08
        E 15 bb 01 0e
        E 15 bb 01 33
        E 15 bb 01 2a
        E 15 bb 01 15
        E 15 bb 01 0f
        E 15 bb 01 14
        E 15 bb 01 3b
        E 15 bb 01 23
        E 15 bb 01 12
        E 15 bb 01 2b
        E 15 bb 01 4b
        E 15 bb 01 00
        E 15 bb 01 09
        E 15 bb 01 1f
        E 15 bb 01 19
        E 15 bb 01 3e
        E 15 bb 01 10
        E 15 bb 01 04
        E 15 bb 01 0c
        E 15 bb 01 0d
        E 15 bb 01 45
        E 15 bb 01 13
        E 15 bb 01 00
        E 15 bb 01 38
        E 15 bb 01 1a
        E 15 bb 01 0f
        E 15 bb 01 1e
        E 15 bb 01 13
        E 15 bb 01 40
        E 15 bb 01 40
        E 15 bb 01 4c
        E 15 bb 01 3f
        E 15 bb 01 21
        E 15 bb 01 46
        E 15 bb 01 36
        E 15 bb 01 09
        E 15 bb 01 21
        E 15 bb 01 28
        E 15 bb 01 48
        E 15 bb 01 3a
        E 15 bb 01 29
        E 15 bb 01 2a
        E 15 bb 01 03
        E 15 bb 01 07
        E 15 bb 01 46
        E 15 bb 01 3d
        E 15 bb 01 20
        E 15 bb 01 18
        E 15 bb 01 0a
        E 15 bb 01 22
        E 15 bb 01 16
        E 15 bb 01 12
        E 15 bb 01 1c
        E 15 bb 01 27
        E 15 bb 01 2e
        E 15 bb 01 31
        E 15 bb 01 0c
        E 15 bb 01 2d
        E 15 bb 01 43
        E 15 bb 01 27
        E 15 bb 01 2c
        E 15 bb 01 01
        E 15 bb 01 05
        E 15 bb 01 4b
        E 15 bb 01 31
        E 15 bb 01 0d
        E 15 bb 01 45
        E 15 bb 01 18
        E 15 bb 01 1d
        E 15 bb 01 25
        E 15 bb 01 1e
        E 15 bb 01 33
        E 15 bb 01 3d
        E 15 bb 01 16
        E 15 bb 01 2b
        E 15 bb 01 11
        E 15 bb 01 44
        E 15 bb 01 3f
        E 15 bb 01 22
        E 15 bb 01 1b
        E 15 bb 01 3c
        E 15 bb 01 1c
        E 15 bb 01 35
        E 15 bb 01 0a
        E 15 bb 01 01
        E 15 bb 01 19
        E 15 bb 01 26
        E 15 bb 01 41
        E 15 bb 01 3a
        E 15 bb 01 02
        E 15 bb 01 42
        E 15 bb 01 37
        E 15 bb 01 04
        E 15 bb 01 17
        E 15 bb 01 2d
        E 15 bb 01 39
        E 15 bb 01 49
        E 15 bb 01 2e
        E 15 bb 01 1f
        E 15 bb 01 15
        E 15 bb 01 34
        E 15 bb 01 37
        E 15 bb 01 43
        E 15 bb 01 4a
        E 15 bb 01 24
        E 15 bb 01 30
        E 15 bb 01 34
        E 15 bb 01 28
        E 15 bb 01 47
        E 15 bb 01 0b
        E 15 bb 01 1b
        E 15 bb 01 32
        E 71 bb 01 0b
        E 71 bb 01 26
        E 71 bb 01 19
        E 71 bb 01 04
        E 71 bb 01 24
        E 71 bb 01 20
        E 71 bb 01 04
        E 71 bb 01 04
        E 71 bb 01 18
        E 71 bb 01 30
        E 71 bb 01 28
        E 71 bb 01 2c
        E 71 bb 01 1f
        E 71 bb 01 05
        E 71 bb 01 09
        E 71 bb 01 22
        E 71 bb 01 1c
        E 71 bb 01 0e
        E 71 bb 01 0a
        E 71 bb 01 0d
        E 71 bb 01 27
        E 71 bb 01 17
        E 71 bb 01 0c
        E 71 bb 01 1d
        E 71 bb 01 32
        E 71 bb 01 00
        E 71 bb 01 06
        E 71 bb 01 14
        E 71 bb 01 11
        E 71 bb 01 29
        E 71 bb 01 0a
        E 71 bb 01 03
        E 71 bb 01 08
        E 71 bb 01 08
        E 71 bb 01 2e
        E 71 bb 01 0c
        E 71 bb 01 00
        E 71 bb 01 25
        E 71 bb 01 11
        E 71 bb 01 0a
        E 71 bb 01 14
        E 71 bb 01 0d
        E 71 bb 01 2b
        E 71 bb 01 2a
        E 71 bb 01 32
        E 71 bb 01 2a
        E 71 bb 01 16
        E 71 bb 01 2f
        E 71 bb 01 24
        E 71 bb 01 06
        E 71 bb 01 16
        E 71 bb 01 1b
        E 71 bb 01 30
        E 71 bb 01 26
        E 71 bb 01 1b
        E 71 bb 01 1c
        E 71 bb 01 02
        E 71 bb 01 05
        E 71 bb 01 2e
        E 71 bb 01 28
        E 71 bb 01 15
        E 71 bb 01 10
        E 71 bb 01 06
        E 71 bb 01 16
        E 71 bb 01 0f
        E 71 bb 01 0c
        E 71 bb 01 13
        E 71 bb 01 1a
        E 71 bb 01 1e
        E 71 bb 01 20
        E 71 bb 01 08
        E 71 bb 01 1e
        E 71 bb 01 2d
        E 71 bb 01 1a
        E 71 bb 01 1d
        E 71 bb 01 01
        E 71 bb 01 03
        E 71 bb 01 32
        E 71 bb 01 21
        E 71 bb 01 09
        E 71 bb 01 2e
        E 71 bb 01 10
        E 71 bb 01 13
        E 71 bb 01 18
        E 71 bb 01 14
        E 71 bb 01 22
        E 71 bb 01 29
        E 71 bb 01 0e
        E 71 bb 01 1c
        E 71 bb 01 0b
        E 71 bb 01 2d
        E 71 bb 01 2a
        E 71 bb 01 17
        E 71 bb 01 12
        E 71 bb 01 28
        E 71 bb 01 12
        E 71 bb 01 23
        E 71 bb 01 07
        E 71 bb 01 00
        E 71 bb 01 10
        E 71 bb 01 19
        E 71 bb 01 2b
        E 71 bb 01 27
        E 71 bb 01 01
        E 71 bb 01 2c
        E 71 bb 01 25
        E 71 bb 01 02
        E 71 bb 01 0f
        E 71 bb 01 1e
        E 71 bb 01 26
        E 71 bb 01 30
        E 71 bb 01 1f
        E 71 bb 01 15
        E 71 bb 01 0e
        E 71 bb 01 23
        E 71 bb 01 24
        E 71 bb 01 2c
        E 71 bb 01 31
        E 71 bb 01 18
        E 71 bb 01 20
        E 71 bb 01 22
        E 71 bb 01 1a
        E 71 bb 01 2f
        E 71 bb 01 07
        E 71 bb 01 12
        E 71 bb 01 21
        E 39 bb 01 13
        E 39 bb 01 43
        E 39 bb 01 2c
        E 39 bb 01 07
        E 39 bb 01 3e
        E 39 bb 01 38
        E 39 bb 01 08
        E 39 bb 01 07
        E 39 bb 01 2a
        E 39 bb 01 54
        E 39 bb 01 46
        E 39 bb 01 4d
        E 39 bb 01 37
        E 39 bb 01 09
        E 39 bb 01 10
        E 39 bb 01 3c
        E 39 bb 01 31
        E 39 bb 01 19
        E 39 bb 01 11
        E 39 bb 01 17
        E 39 bb 01 45
        E 39 bb 01 29
        E 39 bb 01 15
        E 39 bb 01 33
        E 39 bb 01 58
        E 39 bb 01 00
        E 39 bb 01 0b
        E 39 bb 01 24
        E 39 bb 01 1e
        E 39 bb 01 48
        E 39 bb 01 12
        E 39 bb 01 05
        E 39 bb 01 0e
        E 39 bb 01 0f
        E 39 bb 01 50
        E 39 bb 01 16
        E 39 bb 01 00
        E 39 bb 01 41
        E 39 bb 01 1e
        E 39 bb 01 12
        E 39 bb 01 23
        E 39 bb 01 17
        E 39 bb 01 4b
        E 39 bb 01 4a
        E 39 bb 01 58
        E 39 bb 01 4a
        E 39 bb 01 26
        E 39 bb 01 52
        E 39 bb 01 3f
        E 39 bb 01 0a
        E 39 bb 01 27
        E 39 bb 01 2f
        E 39 bb 01 54
        E 39 bb 01 43
        E 39 bb 01 30
        E 39 bb 01 31
        E 39 bb 01 04
        E 39 bb 01 09
        E 39 bb 01 51
        E 39 bb 01 47
        E 39 bb 01 25
        E 39 bb 01 1c
        E 39 bb 01 0b
        E 39 bb 01 27
        E 39 bb 01 1a
        E 39 bb 01 15
        E 39 bb 01 21
        E 39 bb 01 2e
        E 39 bb 01 35
        E 39 bb 01 39
        E 39 bb 01 0e
        E 39 bb 01 35
        E 39 bb 01 4f
        E 39 bb 01 2d
        E 39 bb 01 33
        E 39 bb 01 02
        E 39 bb 01 06
        E 39 bb 01 57
        E 39 bb 01 3a
        E 39 bb 01 10
        E 39 bb 01 51
        E 39 bb 01 1c
        E 39 bb 01 22
        E 39 bb 01 2b
        E 39 bb 01 23
        E 39 bb 01 3b
        E 39 bb 01 48
        E 39 bb 01 19
        E 39 bb 01 32
        E 39 bb 01 14
        E 39 bb 01 4f
        E 39 bb 01 49
        E 39 bb 01 28
        E 39 bb 01 20
        E 39 bb 01 46
        E 39 bb 01 20
        E 39 bb 01 3e
        E 39 bb 01 0c
        E 39 bb 01 01
        E 39 bb 01 1d
        E 39 bb 01 2c
        E 39 bb 01 4c
        E 39 bb 01 44
        E 39 bb 01 02
        E 39 bb 01 4d
        E 39 bb 01 41
        E 39 bb 01 04
        E 39 bb 01 1b
        E 39 bb 01 34
        E 39 bb 01 42
        E 39 bb 01 55
        E 39 bb 01 36
        E 39 bb 01 25
        E 39 bb 01 18
        E 39 bb 01 3d
        E 39 bb 01 40
        E 39 bb 01 4e
        E 39 bb 01 56
        E 39 bb 01 2a
        E 39 bb 01 38
        E 39 bb 01 3c
        E 39 bb 01 2e
        E 39 bb 01 53
        E 39 bb 01 0d
        E 39 bb 01 1f
        E 39 bb 01 3a
        E 7 bb 01 0b
        E 7 bb 01 26
        E 7 bb 01 19
        E 7 bb 01 04
        E 7 bb 01 24
        E 7 bb 01 20
        E 7 bb 01 04
        E 7 bb 01 04
        E 7 bb 01 18
        E 7 bb 01 30
        E 7 bb 01 28
        E 7 bb 01 2c
        E 7 bb 01 1f
        E 7 bb 01 05
        E 7 bb 01 09
        E 7 bb 01 22
        E 7 bb 01 1c
        E 7 bb 01 0e
        E 7 bb 01 0a
        E 7 bb 01 0d
        E 7 bb 01 27
        E 7 bb 01 17
        E 7 bb 01 0c
        E 7 bb 01 1d
        E 7 bb 01 32
        E 7 bb 01 00
        E 7 bb 01 06
        E 7 bb 01 14
        E 7 bb 01 11
        E 7 bb 01 29
        E 7 bb 01 0a
        E 7 bb 01 03
        E 7 bb 01 08
        E 7 bb 01 08
        E 7 bb 01 2e
        E 7 bb 01 0c
        E 7 bb 01 00
        E 7 bb 01 25
        E 7 bb 01 11
        E 7 bb 01 0a
        E 7 bb 01 14
        E 7 bb 01 0d
        E 7 bb 01 2b
        E 7 bb 01 2a
        E 7 bb 01 32
        E 7 bb 01 2a
        E 7 bb 01 16
        E 7 bb 01 2f
        E 7 bb 01 24
        E 7 bb 01 06
        E 7 bb 01 16
        E 7 bb 01 1b
        E 7 bb 01 30
        E 7 bb 01 26
        E 7 bb 01 1b
        E 7 bb 01 1c
        E 7 bb 01 02
        E 7 bb 01 05
        E 7 bb 01 2e
        E 7 bb 01 28
        E 7 bb 01 15
        E 7 bb 01 10
        E 7 bb 01 06
        E 7 bb 01 16
        E 7 bb 01 0f
        E 7 bb 01 0c
        E 7 bb 01 13
        E 7 bb 01 1a
        E 7 bb 01 1e
        E 7 bb 01 20
        E 7 bb 01 08
        E 7 bb 01 1e
        E 7 bb 01 2d
        E 7 bb 01 1a
        E 7 bb 01 1d
        E 7 bb 01 01
        E 7 bb 01 03
        E 7 bb 01 32
        E 7 bb 01 21
        E 7 bb 01 09
        E 7 bb 01 2e
        E 7 bb 01 10
        E 7 bb 01 13
        E 7 bb 01 18
        E 7 bb 01 14
        E 7 bb 01 22
        E 7 bb 01 29
        E 7 bb 01 0e
        E 7 bb 01 1c
        E 7 bb 01 0b
        E 7 bb 01 2d
        E 7 bb 01 2a
        E 7 bb 01 17
        E 7 bb 01 12
        E 7 bb 01 28
        E 7 bb 01 12
        E 7 bb 01 23
        E 7 bb 01 07
        E 7 bb 01 00
        E 7 bb 01 10
        E 7 bb 01 19
        E 7 bb 01 2b
        E 7 bb 01 27
        E 7 bb 01 01
        E 7 bb 01 2c
        E 7 bb 01 25
        E 7 bb 01 02
        E 7 bb 01 0f
        E 7 bb 01 1e
        E 7 bb 01 26
        E 7 bb 01 30
        E 7 bb 01 1f
        E 7 bb 01 15
        E 7 bb 01 0e
        E 7 bb 01 23
        E 7 bb 01 24
        E 7 bb 01 2c
        E 7 bb 01 31
        E 7 bb 01 18
        E 7 bb 01 20
        E 7 bb 01 22
        E 7 bb 01 1a
        E 7 bb 01 2f
        E 7 bb 01 07
        E 7 bb 01 12
        E 7 bb 01 21
        E 23 bb 01 16
        E 23 bb 01 4c
        E 23 bb 01 32
        E 23 bb 01 07
        E 23 bb 01 48
        E 23 bb 01 3f
        E 23 bb 01 09
        E 23 bb 01 08
        E 23 bb 01 30
        E 23 bb 01 5f
        E 23 bb 01 50
        E 23 bb 01 58
        E 23 bb 01 3f
        E 23 bb 01 0b
        E 23 bb 01 13
        E 23 bb 01 44
        E 23 bb 01 37
        E 23 bb 01 1c
        E 23 bb 01 14
        E 23 bb 01 1b
        E 23 bb 01 4f
        E 23 bb 01 2f
        E 23 bb 01 17
        E 23 bb 01 3a
        E 23 bb 01 64
        E 23 bb 01 00
        E 23 bb 01 0c
        E 23 bb 01 29
        E 23 bb 01 22
        E 23 bb 01 53
        E 23 bb 01 15
        E 23 bb 01 06
        E 23 bb 01 0f
        E 23 bb 01 11
        E 23 bb 01 5b
        E 23 bb 01 19
        E 23 bb 01 00
        E 23 bb 01 4b
        E 23 bb 01 23
        E 23 bb 01 14
        E 23 bb 01 28
        E 23 bb 01 1a
        E 23 bb 01 56
        E 23 bb 01 55
        E 23 bb 01 65
        E 23 bb 01 54
        E 23 bb 01 2b
        E 23 bb 01 5e
        E 23 bb 01 48
        E 23 bb 01 0b
        E 23 bb 01 2c
        E 23 bb 01 36
        E 23 bb 01 60
        E 23 bb 01 4d
        E 23 bb 01 37
        E 23 bb 01 38
        E 23 bb 01 04
        E 23 bb 01 0a
        E 23 bb 01 5d
        E 23 bb 01 51
        E 23 bb 01 2b
        E 23 bb 01 1f
        E 23 bb 01 0d
        E 23 bb 01 2d
        E 23 bb 01 1e
        E 23 bb 01 18
        E 23 bb 01 26
        E 23 bb 01 34
        E 23 bb 01 3d
        E 23 bb 01 41
        E 23 bb 01 10
        E 23 bb 01 3c
        E 23 bb 01 5a
        E 23 bb 01 33
        E 23 bb 01 3b
        E 23 bb 01 02
        E 23 bb 01 07
        E 23 bb 01 63
        E 23 bb 01 42
        E 23 bb 01 12
        E 23 bb 01 5c
        E 23 bb 01 20
        E 23 bb 01 27
        E 23 bb 01 31
        E 23 bb 01 28
        E 23 bb 01 44
        E 23 bb 01 52
        E 23 bb 01 1d
        E 23 bb 01 39
        E 23 bb 01 17
        E 23 bb 01 5b
        E 23 bb 01 54
        E 23 bb 01 2e
        E 23 bb 01 24
        E 23 bb 01 50
        E 23 bb 01 25
        E 23 bb 01 47
        E 23 bb 01 0e
        E 23 bb 01 01
        E 23 bb 01 21
        E 23 bb 01 33
        E 23 bb 01 57
        E 23 bb 01 4e
        E 23 bb 01 03
        E 23 bb 01 57
        E 23 bb 01 4a
        E 23 bb 01 05
        E 23 bb 01 1f
        E 23 bb 01 3b
        E 23 bb 01 4c
        E 23 bb 01 61
        E 23 bb 01 3e
        E 23 bb 01 2a
        E 23 bb 01 1b
        E 23 bb 01 46
        E 23 bb 01 49
        E 23 bb 01 59
        E 23 bb 01 63
        E 23 bb 01 2f
        E 23 bb 01 40
        E 23 bb 01 45
        E 23 bb 01 35
        E 23 bb 01 5f
        E 23 bb 01 0f
        E 23 bb 01 24
        E 23 bb 01 43
        E 71 bb 01 16
        E 71 bb 01 4c
        E 71 bb 01 32
        E 71 bb 01 07
        E 71 bb 01 48
        E 71 bb 01 3f
        E 71 bb 01 09
        E 71 bb 01 08
        E 71 bb 01 30
        E 71 bb 01 5f
        E 71 bb 01 50
        E 71 bb 01 58
        E 71 bb 01 3f
        E 71 bb 01 0b
        E 71 bb 01 13
        E 71 bb 01 44
        E 71 bb 01 37
        E 71 bb 01 1c
        E 71 bb 01 14
        E 71 bb 01 1b
        E 71 bb 01 4f
        E 71 bb 01 2f
        E 71 bb 01 17
        E 71 bb 01 3a
        E 71 bb 01 64
        E 71 bb 01 00
        E 71 bb 01 0c
        E 71 bb 01 29
        E 71 bb 01 22
        E 71 bb 01 53
        E 71 bb 01 15
        E 71 bb 01 06
        E 71 bb 01 0f
        E 71 bb 01 11
        E 71 bb 01 5b
        E 71 bb 01 19
        E 71 bb 01 00
        E 71 bb 01 4b
        E 71 bb 01 23
        E 71 bb 01 14
        E 71 bb 01 28
        E 71 bb 01 1a
        E 71 bb 01 56
        E 71 bb 01 55
        E 71 bb 01 65
        E 71 bb 01 54
        E 71 bb 01 2b
        E 71 bb 01 5e
        E 71 bb 01 48
        E 71 bb 01 0b
        E 71 bb 01 2c
        E 71 bb 01 36
        E 71 bb 01 60
        E 71 bb 01 4d
        E 71 bb 01 37
        E 71 bb 01 38
        E 71 bb 01 04
        E 71 bb 01 0a
        E 71 bb 01 5d
        E 71 bb 01 51
        E 71 bb 01 2b
        E 71 bb 01 1f
        E 71 bb 01 0d
        E 71 bb 01 2d
        E 71 bb 01 1e
        E 71 bb 01 18
        E 71 bb 01 26
        E 71 bb 01 34
        E 71 bb 01 3d
        E 71 bb 01 41
        E 71 bb 01 10
        E 71 bb 01 3c
        E 71 bb 01 5a
        E 71 bb 01 33
        E 71 bb 01 3b
        E 71 bb 01 02
        E 71 bb 01 07
        E 71 bb 01 63
        E 71 bb 01 42
        E 71 bb 01 12
        E 71 bb 01 5c
        E 71 bb 01 20
        E 71 bb 01 27
        E 71 bb 01 31
        E 71 bb 01 28
        E 71 bb 01 44
        E 71 bb 01 52
        E 71 bb 01 1d
        E 71 bb 01 39
        E 71 bb 01 17
        E 71 bb 01 5b
        E 71 bb 01 54
        E 71 bb 01 2e
        E 71 bb 01 24
        E 71 bb 01 50
        E 71 bb 01 25
        E 71 bb 01 47
        E 71 bb 01 0e
        E 71 bb 01 01
        E 71 bb 01 21
        E 71 bb 01 33
        E 71 bb 01 57
        E 71 bb 01 4e
        E 71 bb 01 03
        E 71 bb 01 57
        E 71 bb 01 4a
        E 71 bb 01 05
        E 71 bb 01 1f
        E 71 bb 01 3b
        E 71 bb 01 4c
        E 71 bb 01 61
        E 71 bb 01 3e
        E 71 bb 01 2a
        E 71 bb 01 1b
        E 71 bb 01 46
        E 71 bb 01 49
        E 71 bb 01 59
        E 71 bb 01 63
        E 71 bb 01 2f
        E 71 bb 01 40
        E 71 bb 01 45
        E 71 bb 01 35
        E 71 bb 01 5f
        E 71 bb 01 0f
        E 71 bb 01 24
        E 71 bb 01 43
        E 15 bb 01 10
        E 15 bb 01 39
        E 15 bb 01 25
        E 15 bb 01 06
        E 15 bb 01 36
        E 15 bb 01 30
        E 15 bb 01 07
        E 15 bb 01 06
        E 15 bb 01 24
        E 15 bb 01 48
        E 15 bb 01 3c
        E 15 bb 01 42
        E 15 bb 01 2f
        E 15 bb 01 08
        E 15 bb 01 0e
        E 15 bb 01 33
        E 15 bb 01 2a
        E 15 bb 01 15
        E 15 bb 01 0f
        E 15 bb 01 14
        E 15 bb 01 3b
        E 15 bb 01 23
        E 15 bb 01 12
        E 15 bb 01 2b
        E 15 bb 01 4b
        E 15 bb 01 00
        E 15 bb 01 09
        E 15 bb 01 1f
        E 15 bb 01 19
        E 15 bb 01 3e
        E 15 bb 01 10
        E 15 bb 01 04
        E 15 bb 01 0c
        E 15 bb 01 0d
        E 15 bb 01 45
        E 15 bb 01 13
        E 15 bb 01 00
        E 15 bb 01 38
        E 15 bb 01 1a
        E 15 bb 01 0f
        E 15 bb 01 1e
        E 15 bb 01 13
        E 15 bb 01 40
        E 15 bb 01 40
        E 15 bb 01 4c
        E 15 bb 01 3f
        E 15 bb 01 21
        E 15 bb 01 46
        E 15 bb 01 36
        E 15 bb 01 09
        E 15 bb 01 21
        E 15 bb 01 28
        E 15 bb 01 48
        E 15 bb 01 3a
        E 15 bb 01 29
        E 15 bb 01 2a
        E 15 bb 01 03
        E 15 bb 01 07
        E 15 bb 01 46
        E 15 bb 01 3d
        E 15 bb 01 20
        E 15 bb 01 18
        E 15 bb 01 0a
        E 15 bb 01 22
        E 15 bb 01 16
        E 15 bb 01 12
        E 15 bb 01 1c
        E 15 bb 01 27
        E 15 bb 01 2e
        E 15 bb 01 31
        E 15 bb 01 0c
        E 15 bb 01 2d
        E 15 bb 01 43
        E 15 bb 01 27
        E 15 bb 01 2c
        E 15 bb 01 01
        E 15 bb 01 05
        E 15 bb 01 4b
        E 15 bb 01 31
        E 15 bb 01 0d
        E 15 bb 01 45
        E 15 bb 01 18
        E 15 bb 01 1d
        E 15 bb 01 25
        E 15 bb 01 1e
        E 15 bb 01 33
        E 15 bb 01 3d
        E 15 bb 01 16
        E 15 bb 01 2b
        E 15 bb 01 11
        E 15 bb 01 44
        E 15 bb 01 3f
        E 15 bb 01 22
        E 15 bb 01 1b
        E 15 bb 01 3c
        E 15 bb 01 1c
        E 15 bb 01 35
        E 15 bb 01 0a
        E 15 bb 01 01
        E 15 bb 01 19
        E 15 bb 01 26
        E 15 bb 01 41
        E 15 bb 01 3a
        E 15 bb 01 02
        E 15 bb 01 42
        E 15 bb 01 37
        E 15 bb 01 04
        E 15 bb 01 17
        E 15 bb 01 2d
        E 15 bb 01 39
        E 15 bb 01 49
        E 15 bb 01 2e
        E 15 bb 01 1f
        E 15 bb 01 15
        E 15 bb 01 34
        E 15 bb 01 37
        E 15 bb 01 43
        E 15 bb 01 4a
        E 15 bb 01 24
        E 15 bb 01 30
        E 15 bb 01 34
        E 15 bb 01 28
        E 15 bb 01 47
        E 15 bb 01 0b
        E 15 bb 01 1b
        E 15 bb 01 32
        E 118 b0 7b 00
        CCINTERP 32
        CHASE_CC_TAKEOFFS 1
        GUID {2DB165CB-B3E3-854C-BB48-63C168BEB568}
        IGNTEMPO 0 120 4 4
        SRCCOLOR 157
        VELLANE 3 601 0
        VELLANE -1 196 0
        CFGEDITVIEW 0 0.008186 62 12 0 -1 0 0 0 0.5
        KEYSNAP 0
        TRACKSEL 252
        EVTFILTER 0 -1 -1 -1 -1 0 0 0 0 -1 -1 -1 -1 0 -1 0 -1 -1
        CFGEDIT 1 1 0 1 0 0 1 1 1 1 1 0.125 0 0 1792 1095 0 0 0 0 0 0 0 0 0 0.5 0 0 1 64
      >
    >
  >
  <EXTENSIONS
  >
>
