<REAPER_PROJECT 0.1 "6.14/OSX64" 1606705899
  RIPPLE 0
  GROUPOVERRIDE 0 0 0
  AUTOXFADE 1
  ENVATTACH 1
  POOLEDENVATTACH 0
  MIXERUIFLAGS 11 48
  PEAKGAIN 1
  FEEDBACK 0
  PANLAW 1
  PROJOFFS 0 0 0
  MAXPROJLEN 0 600
  GRID 3199 8 1 8 1 0 0 0
  TIMEMODE 1 5 -1 30 0 0 -1
  VIDEO_CONFIG 0 0 256
  PANMODE 3
  CURSOR 0
  ZOOM 1.85314858657015 0 0
  VZOOMEX 4 203
  USE_REC_CFG 0
  RECMODE 1
  SMPTESYNC 0 30 100 40 1000 300 0 0 1 0 0
  LOOP 0
  LOOPGRAN 0 4
  RECORD_PATH "Audio Files" ""
  <RECORD_CFG
    ZXZhdxgAAA==
  >
  <APPLYFX_CFG
  >
  RENDER_FILE ""
  RENDER_PATTERN ""
  RENDER_FMT 0 2 0
  RENDER_1X 0
  RENDER_RANGE 1 0 0 18 1000
  RENDER_RESAMPLE 3 0 1
  RENDER_ADDTOPROJ 0
  RENDER_STEMS 0
  RENDER_DITHER 0
  TIMELOCKMODE 0
  TEMPOENVLOCKMODE 1
  ITEMMIX 0
  DEFPITCHMODE 589824 0
  TAKELANE 1
  SAMPLERATE 44100 0 0
  <RENDER_CFG
  >
  LOCK 1
  <METRONOME 6 2
    VOL 0.25 0.125
    FREQ 800 1600 1
    BEATLEN 4
    SAMPLES "" ""
    PATTERN 2863311530 2863311529
  >
  GLOBAL_AUTO -1
  TEMPO 120 4 4
  PLAYRATE 1 0 0.25 4
  SELECTION 0 0
  SELECTION2 0 0
  MASTERAUTOMODE 0
  MASTERTRACKHEIGHT 0 0
  MASTERPEAKCOL 16576
  MASTERMUTESOLO 0
  MASTERTRACKVIEW 0 0.6667 0.5 0.5 0 -1 0 0 0 0 -1 -1 0
  MASTERHWOUT 0 0 1 0 0 0 0 -1
  MASTER_NCH 2 2
  MASTER_VOLUME 1 0 -1 -1 1
  MASTER_FX 1
  MASTER_SEL 0
  <MASTERFXLIST
    SHOW 0
    LASTSEL 0
    DOCKED 0
    BYPASS 0 0 0
    <VST "VST: ReaEQ (Cockos)" reaeq.vst.dylib 0 "" 1919247729<56535472656571726561657100000000> ""
      cWVlcu5e7f4CAAAAAQAAAAAAAAACAAAAAAAAAAIAAAABAAAAAAAAAAIAAAAAAAAAqAAAAAEAAAAAABAA
      IQAAAAQAAAAAAAAAAQAAAAAAAAAAAFlAAAAAAAAA8D8AAAAAAAAAQAEIAAAAAQAAAAAAAAAAwHJAAAAAAAAA8D8AAAAAAAAAQAEIAAAAAQAAAAAAAAAAQI9AAAAAAAAA
      8D8AAAAAAAAAQAEBAAAAAQAAAAAAAAAAiLNAAAAAAAAA8D8AAAAAAAAAQAEBAAAAAQAAAAAAAAAAAPA/AAAAAFQCAABwAQAA
      AAAQAAAA
    >
    FLOATPOS 32 641 596 422
    FXID {E8F68A74-AF1D-AB40-B680-C9A84EDC07A9}
    WAK 0 0
    BYPASS 0 0 0
    <AU "AU: SPAN (Voxengo)" "Voxengo: SPAN" "" 1635083896 880176950 1450733159
      6QMAAAAAAAACAAAAAQAAAAAAAAACAAAAAAAAAAIAAAABAAAAAAAAAAIAAAAAAAAA8AcAADw/eG1sIHZlcnNpb249IjEuMCIgZW5jb2Rpbmc9IlVURi04Ij8+CjwhRE9D
      VFlQRSBwbGlzdCBQVUJMSUMgIi0vL0FwcGxlLy9EVEQgUExJU1QgMS4wLy9FTiIgImh0dHA6Ly93d3cuYXBwbGUuY29tL0RURHMvUHJvcGVydHlMaXN0LTEuMC5kdGQi
      Pgo8cGxpc3QgdmVyc2lvbj0iMS4wIj4KPGRpY3Q+Cgk8a2V5PlZveFBsdWdpblN0YXRlPC9rZXk+Cgk8ZGF0YT4KCVlYQnljd2NaQUFBaEFHc0FlSnpGV010dTFEQVVU
      VXNmdzZOMHFBb0NTaDhVSko0cExTMmx3R0tDaEhoSVVCQjhRVHJqCgltYkZJNGhCbldsbzJJTEZBckZqQkFnSGk4UVA4QWF6WUl2RURmRUkvZ2V0SkhKdzRjUk9rbEVo
      VzdyWFBmZmxlMjNIMgoJYUpxMnNFb1dMMTlEVGJOaitjZUJINEsyc3U2YWxPcklNVmNzZEFVNnhxQ1puUVltTXpacDNER3hNeE9EOU1Bd2ExcjQKCTVqUjdLdEJhSHVt
      NEZGbUxRQitRVlBGUmxSYm1GWGFvYnpwMXBEdW1qVzZtZWhXRDlBaDYwdG9VSi9ZejVVUjNUYyswCglhZUJPVndIOUFRUEhaQ05wMEtUeVNvS2Y2eFdZOHpzRVpyNVBZ
      QmI2QmViQ2dNQXNEZ3JNUlZIOUVtZVlDYWFaS1dSNgoJbVBoZzZNdUlIQ04yV28vWk5Hd1ZJT0NTcWFsb1djOW1MZjdXalBpN0VyMFB4enpDamw1dm00NkRyR0ErMThE
      TVNZVm4KCVNYeHkvcXNKL3JZNC8vZjUvTFAzcmVVb0F3RWI1U0Jnb3l3RWJKU0hnSTB5RWJCTE8yUHNwVjBoMjlkbDUyWjN4L201CglQWEgrL0ZDY245OGI1eGVHNC95
      RmFweGY1THlxRkppTHpDL21DN1BQYkRJN3crRzBqU1lUQTBYZ1F4RnNRUCswT2lVaAoJTXJ0Y3BMTEkvY1FMMktaQVlZOXVWY0FjbDcrQTh6L3hiUU1pNStFLzBkVGJo
      Z0F0WTZiR1luN1JObG5UVGN2aXk0WGUKCWd1RlRDdThrQWRXK3pPckZCbmw5RFRzTmtLTjRBMTJIdmduSlFCS1YxTnJMVmI1NkdVUTgrOHc0eExTVHhvTjdWNWRuCgky
      cmlCZEJ2NXlLTTZiUEkrdlFHREoyUXpXWEJWRlBzRk81Q1hycGp1cjd2b1RXb21VNkdpemtwQ2Z4bTBPRGZVUlhVZAoJMnk3eGZMMU9MT0s5N1ZITmpRUlArdDZ2Slo5
      a05mSnR2R3IwUzVnOFdENldCMXNwZ0swV3dJNFd3QjRzZ0QyeUpaYXQKCTBGZ3lPazREZVphNXJuY1AzSGRhMmdwVkNHeDM3VTBsL1BlOWpzMjNEOVBDTFdlMnNiSU1t
      QmxsRUdsU3FsVjZWR1hWCgk4VEhvTU9sZEFKM0xiNWFMcWV4T3F1eXV0bnhzbzQ4QTBmTmJEWVFVV1RQS29LY1ZjYXhZcFA2d3V5OS9BZFJzN2xEKwoJeW1WSE0ycVVR
      YXV5MHNDVVhVdUtaU1VVMnU2MWRFUVJSeE5iMW5zWVA1MDdDQ2FSSGNGbXJReGF0UzZiSG5xa3QzR3IKCS9Wa3JzaTRqc2N4WVh2d3l5cUNudG9yRkltdWZ0Q0k3RzVm
      S3pzcUNVUWF0eWdyMEIxZmt5WjRpV1luRWVDejhpMVc4CglqYkpiUnZnN29WZnUyaUYzOWNsZC9YTFhnTncxS0hkVjVDN1JWKzRROTRLYjV2WkVJenkyQ2NVOGttYVRJ
      djgySU03bQoJbnNSQTVsL1BHN0xLam4yMzJNNFdDbVZYNE85YUdiVHF2UEZNcDRXNks3elllZk5YTGkyYW44OWY2N1h4YjdVeWFOVjYKCUNyeUNSVjVzbDR2RTBtSVoy
      ZjM5cS9GMHFsWUdyWXFGb25yd1U2OVlMSkhZZHArZnF0VUNUckdyV2JIVkVncGx4MUV4Cgl5cURIVlhGWXhFVWZBSEFtZnhSTUpEdUdFYU1NV2xsWE5pRitHenV0Z25Y
      RnhiYTdybFRmWmF3K2luMlgvWTgvQktxVAoJSy9nUlUremtDbVJVSjljK3dTSklJdDFGNWtOMkM1N01OQkxCc3ZWdTF0aWZTdGREY0c1MlB6K1kyNGNralFKQVBQT1QK
      CUxlWFQ0QStBOFVTSQoJPC9kYXRhPgoJPGtleT5kYXRhPC9rZXk+Cgk8ZGF0YT4KCUFBQUFBQUFBQUFBQUFBQUNBQUFBQUFBQUFBQUFBQUFCQUFBQUFBPT0KCTwvZGF0
      YT4KCTxrZXk+bWFudWZhY3R1cmVyPC9rZXk+Cgk8aW50ZWdlcj4xNDUwNzMzMTU5PC9pbnRlZ2VyPgoJPGtleT5uYW1lPC9rZXk+Cgk8c3RyaW5nPlVudGl0bGVkPC9z
      dHJpbmc+Cgk8a2V5PnN1YnR5cGU8L2tleT4KCTxpbnRlZ2VyPjg4MDE3Njk1MDwvaW50ZWdlcj4KCTxrZXk+dHlwZTwva2V5PgoJPGludGVnZXI+MTYzNTA4Mzg5Njwv
      aW50ZWdlcj4KCTxrZXk+dmVyc2lvbjwva2V5PgoJPGludGVnZXI+MDwvaW50ZWdlcj4KPC9kaWN0Pgo8L3BsaXN0PgoBAAAAAAAAAAAA
    >
    FLOATPOS 64 426 850 605
    FXID {7AE297E7-0566-5243-966F-1C3DA06CBC92}
    WAK 0 0
  >
  <MASTERPLAYSPEEDENV
    EGUID {B5607DCC-1AD0-1248-9A2F-AB9C27EFFF05}
    ACT 0 -1
    VIS 0 1 1
    LANEHEIGHT 0 0
    ARM 0
    DEFSHAPE 0 -1 -1
  >
  <TEMPOENVEX
    EGUID {05919879-AF6E-A145-9033-2F0CC9114640}
    ACT 1 -1
    VIS 1 0 1
    LANEHEIGHT 0 0
    ARM 0
    DEFSHAPE 1 -1 -1
    PT 0.000000000000 112.0000597334 1 262148 0 1
  >
  <PROJBAY
  >
  <TRACK {BFC3002C-1F66-5C46-A7E8-10BA2D704283}
    NAME "mission brand tortilla strips"
    PEAKCOL 16576
    BEAT -1
    AUTOMODE 0
    VOLPAN 1 0 -1 -1 1
    MUTESOLO 0 0 0
    IPHASE 0
    PLAYOFFS 0 1
    ISBUS 0 0
    BUSCOMP 0 0 0 0 0
    SHOWINMIX 1 0.6667 0.5 1 0.5 0 -1 0
    FREEMODE 0
    SEL 1
    REC 0 0 1 0 0 0 0
    VU 2
    TRACKHEIGHT 0 0 0 0 -1 0
    INQ 0 0 0 0.5 100 0 0 100
    NCHAN 2
    FX 1
    TRACKID {BFC3002C-1F66-5C46-A7E8-10BA2D704283}
    PERF 0
    MIDIOUT -1
    MAINSEND 1 0
    <FXCHAIN
      WNDRECT 266 314 1159 532
      SHOW 0
      LASTSEL 0
      DOCKED 0
      BYPASS 0 0 0
      <VST "VSTi: FM8 (Native Instruments GmbH)" FM8.vst 0 "" 1315530296<5653544E696638666D38000000000000> ""
        OGZpTu5e7f4AAAAAAgAAAAEAAAAAAAAAAgAAAAAAAACGDQAAAQAAAAAAEAA=
        hg0AAAAAAAABAAAAaHNpbgEAAAAAAAAAN455D8DDx0mHoN4j0l/0WZYAAAAAAAAARFNJTnYAAAABAAAASAAAAAAAAABEU0lOagAAAAEAAAAYAAAAAAAAAERTSU4BAAAA
        AQAAAAEAAAABAAAAAQAAAAEAAAAAAAAAAAAAAAAAAAANYmWFAQAAAAhwEAAAAAAAAQAAAAEAAAAAAAAAAAAAAAAAAAADAAAAMAAwADAAAAAAAAAAAAAAAAAAAAAAAAEA
        AAABAAAAAAAAAERTSU5lAAAAtAwAAAAAAAABAAAAaHNpbgEAAAAAAAAAMOH4NwAUwEaoogAOyNUgkW0AAAAAAAAARFNJTmUAAAABAAAANAAAAAAAAABEU0lOagAAAAEA
        AAAYAAAAAAAAAERTSU4BAAAAAQAAAAEAAAABAAAAAgAAAAEAAAAACAAAAAEAAAAKAAAAMQAuADIALgAwAC4AMQAwADEAMAABAAAAAwAAAAAAAABEU0lObAAAAJgCAAAA
        AAAAAQAAAGhzaW4BAAAAAAAAACA7190CLVtKvWPIjKqbw/toAgAAAAAAAERTSU5sAAAAAQAAABgAAAAAAAAARFNJTgEAAAABAAAAAQAAAAEAAAACAAAAAQAAAAAAAAAL
        AAAAUABhAGQAIABEAHIAaQBmAHQAZQByAA4AAABSAGkAYwBoAGEAcgBkACAARABlAHYAaQBuAGUAEgAAAE4AYQB0AGkAdgBlACAASQBuAHMAdAByAHUAbQBlAG4AdABz
        AAAAAAAAAAAA/////wAAAAAAAAAAAAAAAAAAAAAAAAAAAQAAAAEAAAACAAAAAwAAAEYATQA4AAsAAABGAE0AOAAgAEYAYQBjAHQAbwByAHkABwAAAAgAAABEAGUAZQBw
        ACAAUABhAGQACAAAAEYAWAAgAFMAeQBuAHQAaAAMAAAATABvAG4AZwAgAFIAZQBsAGUAYQBzAGUACQAAAFAAcgBvAGMAZQBzAHMAZQBkAAoAAABTAHkAbgB0AGgAIABN
        AGkAcwBjAAkAAABTAHkAbgB0AGgAIABQAGEAZAAJAAAAUwB5AG4AdABoAGUAdABpAGMAAAAAAAcAAAAHAAAAXABAAGMAbwBsAG8AcgABAAAAMAARAAAAXABAAGQAZQB2
        AGkAYwBlAHQAeQBwAGUAZgBsAGEAZwBzAAEAAAAxAAsAAABcAEAAcwBvAHUAbgBkAHQAeQBwAGUAAQAAADAABwAAAFwAQAB0AGUAbQBwAG8AAQAAADAABgAAAFwAQAB2
        AGUAcgBsAAUAAAAxAC4ANwAuADgABgAAAFwAQAB2AGUAcgBtAAUAAAAxAC4ANwAuADgABwAAAFwAQAB2AGkAcwBpAGIAAQAAADAAAQAAAAAAAAACAAAARFNJTnkAAABo
        AAAAAAAAAAEAAABoc2luAQAAAAAAAABG64vCmumHRIQ9Mih2ujahOAAAAAAAAABEU0lOeQAAAAEAAAAYAAAAAAAAAERTSU4BAAAAAQAAAAEAAAABAAAAAQAAAAAAAAAB
        AAAAAAAAAAEAAABEU0lOdAAAAPMIAAAAAAAAAQAAAGhzaW4BAAAAAAAAAMPiDYJzLJxOuWtBgMMVvqTDCAAAAAAAAERTSU50AAAAAQAAAKoIAAAAAAAARFNJTnMAAAAB
        AAAAGAAAAAAAAABEU0lOAQAAAAEAAAABAAAAAQAAAAE3FAAAcQgAAAI3FABgAAABIAUDaHNpbkAHQAAQHyRrBvAZSEqYrqFXTcEPPBhAFCAAA0RTSU5AI+AHA0AAQBsA
        bSAIAeMTIAQgAEAj4ANTEEkCYzKs2sVGp2B2wrYRj5yzoCfAN0Av4BdnQCMAa6A3AAUgYwHdECAEIAAIdHNycEU4TUbPIAsEvCMAAA8gBw5DYXRjaCdFbSBGbHlpbmdA
        Eg5Hb29kIEZyb20gQWJvdmVAEg9Nb3JlIERlZmluaXRpb24NIDgXRmxvYXQgJiBUaGluawAAoEAAALhBAAAwIAMAACADBIA/AACIIAfAAEAPwAAAQCAXQA9AA+AHAGAT
        IEsECEIAAJAgA0APQAMArCALAFAgA0ALQB8ADCALwA9AEwCqIA8AgiADBAAAIR8UIHsAAOADA0AAAz/Xo3BAE+ADAOAEDwPNzMw+IBwDP5qZGUAXwAPgABcgCuAHG0AT
        QADgBwdAACATQJdgACALYANAAEALIADgBBtAAEAXQAPgAwDAD0AHQAPAAEALoAMQgD9Vnzs/wFtAP9VWPD/rUThAFwQAPZvVPSAGYAAG9igdQjcaEGAXAgAAgCFbQABA
        fwC+IS8AjiADAAAgA0G3YAvhApsA0CALAIQgG0ArQAPgCwDgAxcEgD+Ql0EhQwiAP8bcBT+PMbcgC+ADAAA0IEsATCADAEQgAwDIIAMAQCADQBNACwCkIAsAmCADwBsA
        wCB7ALAgAwCuIBNAH0APQABAC0AAQDfgp0sAoiDLwOMA6CDbQNPgDeMAAUAAAABgAiAABBobFhYAQAAEGQUMDAJAAAMbHBcXQBBgAAYnRRw5SDsA5AAWAQAeIANgAAEg
        AKAAAAKgBwMA/gAyIAXgAAACWC2d4AAL4BMACGSdZKVaoVj6B+AHJAEC/+AHEeACAAKdXZ0gOALBA/fgARNEjiA1IAPgEAACAQH/IAAAAeACWCEC4BcABQAADQYABIBT
        QpJEjkAH4A8D4AMAAYdDgA0AyiGe4AEAwHEEAAAEBhugWUR4Y0AjRABAIANAC2AHI1zAAwAAJDAAjCAbQADgF1ngUbPgAQBAl+EDDeADC0AbQAPgAwDgDbMMAp1FnEQI
        QZxES6V5ROAFDACcIBkAB8AZC/yDGkrwL4xI3YK0RWAmH6wpnEMIgDtDG2xHWUNAO1FDjDvRQoNTYUJX5hhDJCNBDUIgzohDy2vxQozyoEJ8IBMQACPBQiwvSUOw/ihD
        RtoQQ44gFwL8d3kgFwpBQgDCAEMbyIRDICAjC8wKMUPMCrFCy2txQ0BPFBDCgEKm1GtETtlLSpgSQkQcAAB6Q4ADAPrgAAcGWG2EQwJI3CHoBHpDC4C7IBcA+iALQAMK
        ekNOAXpDlqN4SAAhEh4c0stI/GRrR9AmP0g7IC1I4SjER9T1yEgu1kNIXGVfYCMThqp0SKCq/EjwI3RJn7cdREp5f0ojlAH6QoBYwHzAaEAPAPqgdEALgAMf2K/+ShQw
        NUuJsxRLHf4vSscOUkt39XBJUsYES5xNSUsPls9ySUtng0r6gLBJcvVFR2BgAAFguYBAQAfgAQ8A+uACCwR6Q11pgeAEYAATIGAAvSBgAHCgYACUIGAAj6BgAPMgYABo
        IGAjmgWAP8y8jCtAA+ASDAMK1yM+QAPgCCYMG5eWlj6ysTE/8fDwPUADEsHAQD/HxsY+i4oKP+XkZD7x8HBgCwK7ujpgDwbZ2Fg+x8ZGIAsa5D7Ew0M/09LSPpGQED67
        uro+tbQ0P6moqD7lYDcA8GAfAoWEhGB1QHlAAwAcQDQgZAA+IAMHP6+urj6dnBwmeAmAP+jnZz/9/Hw+IEAAPUAjQFQDwcDAPUA0BlyPQj7NzExg6QKuR2FgBwMfhWs/
        QNIgA2AHFlK4Hj+uR+E9Tj/UPrgeRT/hepQ+mpmZYHwDF8rJSSB0AMBgRAKjoiJA7WCdAqyrKyALBHA+3NtbYB9AuUBwQAMGEJVVP1M7o2APAl7ccWB0AsVNOWAHQLAG
        QH9CPiPEoie5AYA/4CRgIDAAv+AnYEHbIDgEQD/+/z/gLAwBGwDoAITIjOBNBwJmZmZgAyPR4ClgBML1KD9RIcgE/alRP7khxAZ9FK4+N176QbcAPSIAAD1ACwPeJGY/
        QAsGd75/Pzq0aOAACwRu51s/F+ArdAbJdh4/B4E1YEgCMzMzYAcicQQ/SgzCPkBkQGwDke28PiZcAT8XQBDgJ2QAyeAiYCHoQAAAcCToAf5C4EUMIL9AAOAAVoAAoGOA
        AOA4DAgBdmKHwid2IsJASeEAKOBFDEDHAD8j9yMPAgAAJyAAIAYBACEgAABQIAdAAABkIAAAJSAAABkgAACoIABAE0AAAAcgAAA2IAgAWiADI8JgAAAtIAAAFyAAABEg
        AACdIABgFCAAAAMgAAAtIAcAHSAAIAYBADMgACBWAGQgBgAzIFoAJSAKAGQgFuAAH0AAAGMgBCBKQoRggwBFIAAgKgElXiAAIBLgAAAADyAA4AAMIAAgSgFkSyAAIMIA
        ISAKYFcAGiAAIJIBEQggACAiYAAAXGAF4BEAAA0gAEAdIF4DDycyMmo7IE5gAACqIABAG+ADAAAmIADADwBKIABAC0AsABIgAEAL4IcAKmjgFQBp+AEIVyIgAEBA/AA8
        IAhPXgLwQgBCgQABIAGC4iAHIAKAE0AGoAkAA+AACSBIoBMrAqAJAAbgAAkrV6ATIACgCYBIoAagE+DCT+BLAAARoFQDa25hYkExwAABgAAgAAAZoBEDY3RuaVEFABEj
        5SFjTvBAAACgJR8BoELiEw0BdADiATBDbeATK+D9AOCpAM8xA3NpdWdCJADoI3HAAAAqIAgAGSADQjRAACPSYAAHZ3B0Y1lUTUVADAsNYmWFAQAAAAAAAAABAAAAAAEA
        AAAAAAAA
        ADxkaXNhYmxlZD4AEAAAAA==
      >
      PRESETNAME <disabled>
      FLOATPOS 0 0 0 0
      FXID {00495410-A243-B344-87DC-DF8FC0FE8CE9}
      WAK 0 0
    >
    <ITEM
      POSITION 0
      SNAPOFFS 0
      LENGTH 617.14252799980818
      LOOP 1
      ALLTAKES 0
      FADEIN 1 0 0 1 0 0
      FADEOUT 1 0 0 1 0 0
      MUTE 0 0
      SEL 0
      IGUID {F638E904-2186-B942-B23C-764D0BA8072F}
      IID 1
      NAME "mission brand tortilla strips.mid"
      VOLPAN 1 0 1 -1
      SOFFS 0 0
      PLAYRATE 0.14670138888893 1 0 -1 0 0.0025
      CHANMODE 0
      GUID {E04495F2-77A2-7C4D-A464-4513CBA2A820}
      <SOURCE MIDI
        HASDATA 1 128 QN
        CCINTERP 32
        POOLEDEVTS {6C83E7A4-8A3D-E845-BB24-21389776A2C3}
        E 0 90 3a 35
        E 16 80 3a 35
        E 0 90 36 35
        E 0 90 35 35
        E 128 80 35 35
        E 0 90 42 35
        E 16 80 42 35
        E 0 90 36 35
        E 0 90 35 35
        E 48 80 35 35
        E 0 90 3a 35
        E 112 80 3a 35
        E 0 90 3a 35
        E 16 80 3a 35
        E 0 90 36 35
        E 0 90 35 35
        E 128 80 35 35
        E 0 90 42 35
        E 16 80 42 35
        E 0 90 36 35
        E 0 90 35 35
        E 48 80 35 35
        E 0 90 3a 35
        E 112 80 3a 35
        E 0 90 3a 35
        E 16 80 3a 35
        E 0 90 36 35
        E 0 90 35 35
        E 128 80 35 35
        E 0 90 42 35
        E 16 80 42 35
        E 0 90 36 35
        E 0 90 35 35
        E 48 80 35 35
        E 0 90 3a 35
        E 112 80 3a 35
        E 0 90 3a 35
        E 16 80 3a 35
        E 0 90 36 35
        E 0 90 35 35
        E 128 80 35 35
        E 0 90 42 35
        E 16 80 42 35
        E 0 90 36 35
        E 0 90 35 35
        E 48 80 35 35
        E 0 90 3a 35
        E 112 80 3a 35
        E 0 90 3a 35
        E 16 80 3a 35
        E 0 90 36 35
        E 0 90 35 35
        E 128 80 35 35
        E 0 90 42 35
        E 16 80 42 35
        E 0 90 36 35
        E 0 90 35 35
        E 48 80 35 35
        E 0 90 3a 35
        E 112 80 3a 35
        E 0 90 3a 35
        E 16 80 3a 35
        E 0 90 36 35
        E 0 90 35 35
        E 128 80 35 35
        E 0 90 42 35
        E 16 80 42 35
        E 0 90 36 35
        E 0 90 35 35
        E 48 80 35 35
        E 0 90 3a 35
        E 112 80 3a 35
        E 0 90 3a 35
        E 16 80 3a 35
        E 0 90 36 35
        E 0 90 35 35
        E 128 80 35 35
        E 0 90 42 35
        E 16 80 42 35
        E 0 90 36 35
        E 0 90 35 35
        E 48 80 35 35
        E 0 90 3a 35
        E 112 80 3a 35
        E 0 90 3a 35
        E 16 80 3a 35
        E 0 90 36 35
        E 0 90 35 35
        E 128 80 35 35
        E 0 90 42 35
        E 16 80 42 35
        E 0 90 36 35
        E 0 90 35 35
        E 48 80 35 35
        E 0 90 3a 35
        E 112 80 3a 35
        E 0 90 3a 35
        E 16 80 3a 35
        E 0 90 36 35
        E 0 90 35 35
        E 128 80 35 35
        E 0 90 42 35
        E 16 80 42 35
        E 0 90 36 35
        E 0 90 35 35
        E 48 80 35 35
        E 0 90 3a 35
        E 112 80 3a 35
        E 0 90 3a 35
        E 16 80 3a 35
        E 0 90 36 35
        E 0 90 35 35
        E 128 80 35 35
        E 0 90 42 35
        E 16 80 42 35
        E 0 90 36 35
        E 0 90 35 35
        E 48 80 35 35
        E 0 90 3a 35
        E 112 80 3a 35
        E 0 90 3a 35
        E 16 80 3a 35
        E 0 90 36 35
        E 0 90 35 35
        E 128 80 35 35
        E 0 90 42 35
        E 16 80 42 35
        E 0 90 36 35
        E 0 90 35 35
        E 48 80 35 35
        E 0 90 3a 35
        E 112 80 3a 35
        E 0 90 3a 35
        E 16 80 3a 35
        E 0 90 36 35
        E 0 90 35 35
        E 128 80 35 35
        E 0 90 42 35
        E 16 80 42 35
        E 0 90 36 35
        E 0 90 35 35
        E 48 80 35 35
        E 0 90 3a 35
        E 112 80 3a 35
        E 0 90 3a 35
        E 16 80 3a 35
        E 0 90 36 35
        E 0 90 35 35
        E 128 80 35 35
        E 0 90 42 35
        E 16 80 42 35
        E 0 90 36 35
        E 0 90 35 35
        E 48 80 35 35
        E 0 90 3a 35
        E 112 80 3a 35
        E 0 90 3a 35
        E 16 80 3a 35
        E 0 90 36 35
        E 0 90 35 35
        E 128 80 35 35
        E 0 90 42 35
        E 16 80 42 35
        E 0 90 36 35
        E 0 90 35 35
        E 48 80 35 35
        E 0 90 3a 35
        E 112 80 3a 35
        E 0 90 3a 35
        E 16 80 3a 35
        E 0 90 36 35
        E 0 90 35 35
        E 128 80 35 35
        E 0 90 42 35
        E 16 80 42 35
        E 0 90 36 35
        E 0 90 35 35
        E 48 80 35 35
        E 0 90 3a 35
        E 112 80 3a 35
        E 0 90 3a 35
        E 16 80 3a 35
        E 0 90 36 35
        E 0 90 35 35
        E 128 80 35 35
        E 0 90 42 35
        E 16 80 42 35
        E 0 90 36 35
        E 0 90 35 35
        E 48 80 35 35
        E 0 90 3a 35
        E 112 80 3a 35
        E 0 90 3a 35
        E 16 80 3a 35
        E 0 90 36 35
        E 0 90 35 35
        E 128 80 35 35
        E 0 90 42 35
        E 16 80 42 35
        E 0 90 36 35
        E 0 90 35 35
        E 48 80 35 35
        E 0 90 3a 35
        E 112 80 3a 35
        E 0 90 3a 35
        E 16 80 3a 35
        E 0 90 36 35
        E 0 90 35 35
        E 128 80 35 35
        E 0 90 42 35
        E 16 80 42 35
        E 0 90 36 35
        E 0 90 35 35
        E 48 80 35 35
        E 0 90 3a 35
        E 112 80 3a 35
        E 0 90 3a 35
        E 16 80 3a 35
        E 0 90 36 35
        E 0 90 35 35
        E 128 80 35 35
        E 0 90 42 35
        E 16 80 42 35
        E 0 90 36 35
        E 0 90 35 35
        E 48 80 35 35
        E 0 90 3a 35
        E 112 80 3a 35
        E 0 90 3a 35
        E 16 80 3a 35
        E 0 90 36 35
        E 0 90 35 35
        E 128 80 35 35
        E 0 90 42 35
        E 16 80 42 35
        E 0 90 36 35
        E 0 90 35 35
        E 48 80 35 35
        E 0 90 3a 35
        E 112 80 3a 35
        E 0 90 3a 35
        E 16 80 3a 35
        E 0 90 36 35
        E 0 90 35 35
        E 128 80 35 35
        E 0 90 42 35
        E 16 80 42 35
        E 0 90 36 35
        E 0 90 35 35
        E 48 80 35 35
        E 0 90 3a 35
        E 112 80 3a 35
        E 0 90 3a 35
        E 16 80 3a 35
        E 0 90 36 35
        E 0 90 35 35
        E 128 80 35 35
        E 0 90 42 35
        E 16 80 42 35
        E 0 90 36 35
        E 0 90 35 35
        E 48 80 35 35
        E 0 90 3a 35
        E 112 80 3a 35
        E 0 90 3a 35
        E 16 80 3a 35
        E 0 90 36 35
        E 0 90 35 35
        E 128 80 35 35
        E 0 90 42 35
        E 16 80 42 35
        E 0 90 36 35
        E 0 90 35 35
        E 48 80 35 35
        E 0 90 3a 35
        E 112 80 3a 35
        E 0 90 3a 35
        E 16 80 3a 35
        E 0 90 36 35
        E 0 90 35 35
        E 128 80 35 35
        E 0 90 42 35
        E 16 80 42 35
        E 0 90 36 35
        E 0 90 35 35
        E 48 80 35 35
        E 0 90 3a 35
        E 112 80 3a 35
        E 0 90 3a 35
        E 16 80 3a 35
        E 0 90 36 35
        E 0 90 35 35
        E 128 80 35 35
        E 0 90 42 35
        E 16 80 42 35
        E 0 90 36 35
        E 0 90 35 35
        E 48 80 35 35
        E 0 90 3a 35
        E 112 80 3a 35
        E 0 90 3a 35
        E 16 80 3a 35
        E 0 90 36 35
        E 0 90 35 35
        E 128 80 35 35
        E 0 90 42 35
        E 16 80 42 35
        E 0 90 36 35
        E 0 90 35 35
        E 48 80 35 35
        E 0 90 3a 35
        E 112 80 3a 35
        E 0 90 3a 35
        E 16 80 3a 35
        E 0 90 36 35
        E 0 90 35 35
        E 128 80 35 35
        E 0 90 42 35
        E 16 80 42 35
        E 0 90 36 35
        E 0 90 35 35
        E 48 80 35 35
        E 0 90 3a 35
        E 112 80 3a 35
        E 0 90 3a 35
        E 16 80 3a 35
        E 0 90 36 35
        E 0 90 35 35
        E 128 80 35 35
        E 0 90 42 35
        E 16 80 42 35
        E 0 90 36 35
        E 0 90 35 35
        E 48 80 35 35
        E 0 90 3a 35
        E 112 80 3a 35
        E 0 90 3a 35
        E 16 80 3a 35
        E 0 90 36 35
        E 0 90 35 35
        E 128 80 35 35
        E 0 90 42 35
        E 16 80 42 35
        E 0 90 36 35
        E 0 90 35 35
        E 48 80 35 35
        E 0 90 3a 35
        E 112 80 3a 35
        E 0 90 3a 35
        E 16 80 3a 35
        E 0 90 36 35
        E 0 90 35 35
        E 128 80 35 35
        E 0 90 42 35
        E 16 80 42 35
        E 0 90 36 35
        E 0 90 35 35
        E 48 80 35 35
        E 0 90 3a 35
        E 112 80 3a 35
        E 0 90 3a 35
        E 16 80 3a 35
        E 0 90 36 35
        E 0 90 35 35
        E 128 80 35 35
        E 0 90 42 35
        E 16 80 42 35
        E 0 90 36 35
        E 0 90 35 35
        E 48 80 35 35
        E 0 90 3a 35
        E 112 80 3a 35
        E 0 90 3a 35
        E 16 80 3a 35
        E 0 90 36 35
        E 0 90 35 35
        E 128 80 35 35
        E 0 90 42 35
        E 16 80 42 35
        E 0 90 36 35
        E 0 90 35 35
        E 48 80 35 35
        E 0 90 3a 35
        E 112 80 3a 35
        E 0 90 3a 35
        E 16 80 3a 35
        E 0 90 36 35
        E 0 90 35 35
        E 128 80 35 35
        E 0 90 42 35
        E 16 80 42 35
        E 0 90 36 35
        E 0 90 35 35
        E 48 80 35 35
        E 0 90 3a 35
        E 112 80 3a 35
        E 0 90 3a 35
        E 16 80 3a 35
        E 0 90 36 35
        E 0 90 35 35
        E 128 80 35 35
        E 0 90 42 35
        E 16 80 42 35
        E 0 90 36 35
        E 0 90 35 35
        E 48 80 35 35
        E 0 90 3a 35
        E 112 80 3a 35
        E 0 90 3a 35
        E 16 80 3a 35
        E 0 90 36 35
        E 0 90 35 35
        E 128 80 35 35
        E 0 90 42 35
        E 16 80 42 35
        E 0 90 36 35
        E 0 90 35 35
        E 48 80 35 35
        E 0 90 3a 35
        E 112 80 3a 35
        E 0 90 3a 35
        E 16 80 3a 35
        E 0 90 36 35
        E 0 90 35 35
        E 128 80 35 35
        E 0 90 42 35
        E 16 80 42 35
        E 0 90 36 35
        E 0 90 35 35
        E 48 80 35 35
        E 0 90 3a 35
        E 112 80 3a 35
        E 0 90 3a 35
        E 16 80 3a 35
        E 0 90 36 35
        E 0 90 35 35
        E 128 80 35 35
        E 0 90 42 35
        E 16 80 42 35
        E 0 90 36 35
        E 0 90 35 35
        E 48 80 35 35
        E 0 90 3a 35
        E 112 80 3a 35
        E 0 90 3a 35
        E 16 80 3a 35
        E 0 90 36 35
        E 0 90 35 35
        E 128 80 35 35
        E 0 90 42 35
        E 16 80 42 35
        E 0 90 36 35
        E 0 90 35 35
        E 48 80 35 35
        E 0 90 3a 35
        E 112 80 3a 35
        E 0 90 3a 35
        E 16 80 3a 35
        E 0 90 36 35
        E 0 90 35 35
        E 128 80 35 35
        E 0 90 42 35
        E 16 80 42 35
        E 0 90 36 35
        E 0 90 35 35
        E 48 80 35 35
        E 0 90 3a 35
        E 112 80 3a 35
        E 0 90 3a 35
        E 16 80 3a 35
        E 0 90 36 35
        E 0 90 35 35
        E 128 80 35 35
        E 0 90 42 35
        E 16 80 42 35
        E 0 90 36 35
        E 0 90 35 35
        E 48 80 35 35
        E 0 90 3a 35
        E 112 80 3a 35
        E 0 90 3a 35
        E 16 80 3a 35
        E 0 90 36 35
        E 0 90 35 35
        E 128 80 35 35
        E 0 90 42 35
        E 16 80 42 35
        E 0 90 36 35
        E 0 90 35 35
        E 48 80 35 35
        E 0 90 3a 35
        E 112 80 3a 35
        E 0 90 3a 35
        E 16 80 3a 35
        E 0 90 36 35
        E 0 90 35 35
        E 128 80 35 35
        E 0 90 42 35
        E 16 80 42 35
        E 0 90 36 35
        E 0 90 35 35
        E 48 80 35 35
        E 0 90 3a 35
        E 112 80 3a 35
        E 0 90 3a 35
        E 16 80 3a 35
        E 0 90 36 35
        E 0 90 35 35
        E 128 80 35 35
        E 0 90 42 35
        E 16 80 42 35
        E 0 90 36 35
        E 0 90 35 35
        E 48 80 35 35
        E 0 90 3a 35
        E 112 80 3a 35
        E 0 90 3a 35
        E 16 80 3a 35
        E 0 90 36 35
        E 0 90 35 35
        E 128 80 35 35
        E 0 90 42 35
        E 16 80 42 35
        E 0 90 36 35
        E 0 90 35 35
        E 48 80 35 35
        E 0 90 3a 35
        E 112 80 3a 35
        E 0 90 3a 35
        E 16 80 3a 35
        E 0 90 36 35
        E 0 90 35 35
        E 128 80 35 35
        E 0 90 42 35
        E 16 80 42 35
        E 0 90 36 35
        E 0 90 35 35
        E 48 80 35 35
        E 0 90 3a 35
        E 112 80 3a 35
        E 0 90 3a 35
        E 16 80 3a 35
        E 0 90 36 35
        E 0 90 35 35
        E 128 80 35 35
        E 0 90 42 35
        E 16 80 42 35
        E 0 90 36 35
        E 0 90 35 35
        E 48 80 35 35
        E 0 90 3a 35
        E 112 80 3a 35
        E 0 90 3a 35
        E 16 80 3a 35
        E 0 90 36 35
        E 0 90 35 35
        E 128 80 35 35
        E 0 90 42 35
        E 16 80 42 35
        E 0 90 36 35
        E 0 90 35 35
        E 48 80 35 35
        E 0 90 3a 35
        E 112 80 3a 35
        E 0 90 3a 35
        E 16 80 3a 35
        E 0 90 36 35
        E 0 90 35 35
        E 128 80 35 35
        E 0 90 42 35
        E 16 80 42 35
        E 0 90 36 35
        E 0 90 35 35
        E 48 80 35 35
        E 0 90 3a 35
        E 112 80 3a 35
        E 0 90 3a 35
        E 16 80 3a 35
        E 0 90 36 35
        E 0 90 35 35
        E 128 80 35 35
        E 0 90 42 35
        E 16 80 42 35
        E 0 90 36 35
        E 0 90 35 35
        E 48 80 35 35
        E 0 90 3a 35
        E 112 80 3a 35
        E 0 90 3a 35
        E 16 80 3a 35
        E 0 90 36 35
        E 0 90 35 35
        E 128 80 35 35
        E 0 90 42 35
        E 16 80 42 35
        E 0 90 36 35
        E 0 90 35 35
        E 48 80 35 35
        E 0 90 3a 35
        E 112 80 3a 35
        E 0 90 3a 35
        E 16 80 3a 35
        E 0 90 36 35
        E 0 90 35 35
        E 128 80 35 35
        E 0 90 42 35
        E 16 80 42 35
        E 0 90 36 35
        E 0 90 35 35
        E 48 80 35 35
        E 0 90 3a 35
        E 112 80 3a 35
        E 0 90 3a 35
        E 16 80 3a 35
        E 0 90 36 35
        E 0 90 35 35
        E 128 80 35 35
        E 0 90 42 35
        E 16 80 42 35
        E 0 90 36 35
        E 0 90 35 35
        E 48 80 35 35
        E 0 90 3a 35
        E 112 80 3a 35
        E 0 90 3a 35
        E 16 80 3a 35
        E 0 90 36 35
        E 0 90 35 35
        E 128 80 35 35
        E 0 90 42 35
        E 16 80 42 35
        E 0 90 36 35
        E 0 90 35 35
        E 48 80 35 35
        E 0 90 3a 35
        E 112 80 3a 35
        E 0 90 3a 35
        E 16 80 3a 35
        E 0 90 36 35
        E 0 90 35 35
        E 128 80 35 35
        E 0 90 42 35
        E 16 80 42 35
        E 0 90 36 35
        E 0 90 35 35
        E 48 80 35 35
        E 0 90 3a 35
        E 112 80 3a 35
        E 0 90 3a 35
        E 16 80 3a 35
        E 0 90 36 35
        E 0 90 35 35
        E 128 80 35 35
        E 0 90 42 35
        E 16 80 42 35
        E 0 90 36 35
        E 0 90 35 35
        E 48 80 35 35
        E 0 90 3a 35
        E 112 80 3a 35
        E 0 90 3a 35
        E 16 80 3a 35
        E 0 90 36 35
        E 0 90 35 35
        E 128 80 35 35
        E 0 90 42 35
        E 16 80 42 35
        E 0 90 36 35
        E 0 90 35 35
        E 48 80 35 35
        E 0 90 3a 35
        E 112 80 3a 35
        E 0 90 35 35
        E 48 80 35 35
        E 0 90 35 35
        E 48 80 35 35
        E 0 90 35 35
        E 48 80 35 35
        E 0 90 35 35
        E 48 80 35 35
        E 0 90 35 35
        E 48 80 35 35
        E 0 90 35 35
        E 48 80 35 35
        E 0 90 35 35
        E 48 80 35 35
        E 0 90 35 35
        E 48 80 35 35
        E 0 90 35 35
        E 48 80 35 35
        E 0 90 35 35
        E 48 80 35 35
        E 0 90 35 35
        E 48 80 35 35
        E 0 90 35 35
        E 48 80 35 35
        E 0 90 35 35
        E 48 80 35 35
        E 0 90 35 35
        E 48 80 35 35
        E 0 90 35 35
        E 48 80 35 35
        E 0 90 35 35
        E 48 80 35 35
        E 0 90 35 35
        E 48 80 35 35
        E 0 90 35 35
        E 48 80 35 35
        E 0 90 35 35
        E 48 80 35 35
        E 0 90 35 35
        E 48 80 35 35
        E 0 90 35 35
        E 48 80 35 35
        E 0 90 35 35
        E 48 80 35 35
        E 0 90 35 35
        E 48 80 35 35
        E 0 90 35 35
        E 48 80 35 35
        E 0 90 3a 35
        E 16 80 3a 35
        E 0 90 36 35
        E 0 90 35 35
        E 128 80 35 35
        E 0 90 42 35
        E 16 80 42 35
        E 0 90 36 35
        E 0 90 35 35
        E 48 80 35 35
        E 0 90 3a 35
        E 112 80 3a 35
        E 0 90 3a 35
        E 16 80 3a 35
        E 0 90 36 35
        E 0 90 35 35
        E 128 80 35 35
        E 0 90 42 35
        E 16 80 42 35
        E 0 90 36 35
        E 0 90 35 35
        E 48 80 35 35
        E 0 90 3a 35
        E 112 80 3a 35
        E 0 90 3a 35
        E 16 80 3a 35
        E 0 90 36 35
        E 0 90 35 35
        E 128 80 35 35
        E 0 90 42 35
        E 16 80 42 35
        E 0 90 36 35
        E 0 90 35 35
        E 48 80 35 35
        E 0 90 3a 35
        E 112 80 3a 35
        E 0 90 3a 35
        E 16 80 3a 35
        E 0 90 36 35
        E 0 90 35 35
        E 128 80 35 35
        E 0 90 42 35
        E 16 80 42 35
        E 0 90 36 35
        E 0 90 35 35
        E 48 80 35 35
        E 0 90 3a 35
        E 112 80 3a 35
        E 0 90 3a 35
        E 16 80 3a 35
        E 0 90 36 35
        E 0 90 35 35
        E 128 80 35 35
        E 0 90 42 35
        E 16 80 42 35
        E 0 90 36 35
        E 0 90 35 35
        E 48 80 35 35
        E 0 90 3a 35
        E 112 80 3a 35
        E 0 90 3a 35
        E 16 80 3a 35
        E 0 90 36 35
        E 0 90 35 35
        E 128 80 35 35
        E 0 90 42 35
        E 16 80 42 35
        E 0 90 36 35
        E 0 90 35 35
        E 48 80 35 35
        E 0 90 3a 35
        E 112 80 3a 35
        E 0 90 3a 35
        E 16 80 3a 35
        E 0 90 36 35
        E 0 90 35 35
        E 128 80 35 35
        E 0 90 42 35
        E 16 80 42 35
        E 0 90 36 35
        E 0 90 35 35
        E 48 80 35 35
        E 0 90 3a 35
        E 112 80 3a 35
        E 0 90 3a 35
        E 16 80 3a 35
        E 0 90 36 35
        E 0 90 35 35
        E 128 80 35 35
        E 0 90 42 35
        E 16 80 42 35
        E 0 90 36 35
        E 0 90 35 35
        E 48 80 35 35
        E 0 90 3a 35
        E 111 80 3a 35
        E 1 b0 7b 00
        CCINTERP 32
        CHASE_CC_TAKEOFFS 1
        GUID {15AB0FC5-2E72-2143-9DA7-3BF2338B222F}
        IGNTEMPO 0 120 4 4
        SRCCOLOR 240
        VELLANE 3 601 0
        VELLANE -1 196 0
      >
    >
  >
  <TRACK {F3445063-7AA3-E94A-831F-8C8BCE822D20}
    NAME "mission brand tortilla strips"
    PEAKCOL 16576
    BEAT -1
    AUTOMODE 0
    VOLPAN 1 0 -1 -1 1
    MUTESOLO 1 0 0
    IPHASE 0
    PLAYOFFS 0 1
    ISBUS 0 0
    BUSCOMP 0 0 0 0 0
    SHOWINMIX 1 0.6667 0.5 1 0.5 0 -1 0
    FREEMODE 0
    SEL 0
    REC 0 0 1 0 0 0 0
    VU 2
    TRACKHEIGHT 0 0 0 0 -1 0
    INQ 0 0 0 0.5 100 0 0 100
    NCHAN 2
    FX 1
    TRACKID {F3445063-7AA3-E94A-831F-8C8BCE822D20}
    PERF 0
    MIDIOUT -1
    MAINSEND 1 0
    <FXCHAIN
      SHOW 0
      LASTSEL 0
      DOCKED 0
      BYPASS 0 0 0
      <VST "VSTi: FM8 (Native Instruments GmbH)" FM8.vst 0 "" 1315530296<5653544E696638666D38000000000000> ""
        OGZpTu5e7f4AAAAAAgAAAAEAAAAAAAAAAgAAAAAAAAAYBwAAAQAAAAAAEAA=
        GAcAAAAAAAABAAAAaHNpbgEAAAAAAAAAN455D8DDx0mHoN4j0l/0WZYAAAAAAAAARFNJTnYAAAABAAAASAAAAAAAAABEU0lOagAAAAEAAAAYAAAAAAAAAERTSU4BAAAA
        AQAAAAEAAAABAAAAAQAAAAEAAAAAAAAAAAAAAAAAAAANYmWFAQAAAAhwEAAAAAAAAQAAAAEAAAAAAAAAAAAAAAAAAAADAAAAMAAwADAAAAAAAAAAAAAAAAAAAAAAAAEA
        AAABAAAAAAAAAERTSU5lAAAARgYAAAAAAAABAAAAaHNpbgEAAAAAAAAAMOH4NwAUwEaoogAOyNUgkW0AAAAAAAAARFNJTmUAAAABAAAANAAAAAAAAABEU0lOagAAAAEA
        AAAYAAAAAAAAAERTSU4BAAAAAQAAAAEAAAABAAAAAgAAAAEAAAAACAAAAAEAAAAKAAAAMQAuADIALgAwAC4AMQAwADEAMAABAAAAAwAAAAAAAABEU0lObAAAAKgBAAAA
        AAAAAQAAAGhzaW4BAAAAAAAAACA7190CLVtKvWPIjKqbw/t4AQAAAAAAAERTSU5sAAAAAQAAABgAAAAAAAAARFNJTgEAAAABAAAAAQAAAAEAAAACAAAAAQAAAAAAAAAI
        AAAATgBlAHcAUwBvAHUAbgBkAAcAAABuAG8AdAAgAHMAZQB0AAAAAAAAAAAAAAAAAAAAAAAAAAAAAAAAAAAAAAAAAAAAAAAAAAEAAAABAAAAAQAAAAMAAABGAE0AOAAA
        AAAAAAAAAAcAAAAHAAAAXABAAGMAbwBsAG8AcgABAAAAMAARAAAAXABAAGQAZQB2AGkAYwBlAHQAeQBwAGUAZgBsAGEAZwBzAAEAAAAxAAsAAABcAEAAcwBvAHUAbgBk
        AHQAeQBwAGUAAQAAADAABwAAAFwAQAB0AGUAbQBwAG8AAQAAADAABgAAAFwAQAB2AGUAcgBsAAUAAAAxAC4ANwAuADgABgAAAFwAQAB2AGUAcgBtAAUAAAAxAC4ANwAu
        ADgABwAAAFwAQAB2AGkAcwBpAGIAAQAAADAAAQAAAAAAAAACAAAARFNJTnkAAABoAAAAAAAAAAEAAABoc2luAQAAAAAAAABG64vCmumHRIQ9Mih2ujahOAAAAAAAAABE
        U0lOeQAAAAEAAAAYAAAAAAAAAERTSU4BAAAAAQAAAAEAAAABAAAAAQAAAAAAAAABAAAAAAAAAAEAAABEU0lOdAAAAHUDAAAAAAAAAQAAAGhzaW4BAAAAAAAAAMPiDYJz
        LJxOuWtBgMMVvqRFAwAAAAAAAERTSU50AAAAAQAAACwDAAAAAAAARFNJTnMAAAABAAAAGAAAAAAAAABEU0lOAQAAAAEAAAABAAAAAQAAAAG9DwAA8wIAAAK9DwBgAAAB
        IAUDaHNpbkAHQAAQHyRrBvAZSEqYrqFXTcEPPBhAFCAAA0RTSU5AI+AHA0AAQBsAbSAIAWkPIAQgAEAj4ANTEEkCYzKs2sVGp2B2wrYRj5w5oCfAN0Av4BdnQCMB8Q4g
        XCAAAAUgAwFjDCAEIAAIdHNycEU4TUbPIAsEvCMAAAcgBwZkZWZhdWx04BgKICoAP+ACAwNBAACAIA8AoCAH4AsAAPAgF0AfwAAAICAPwABgFwVAAABIQgDgBABAD0AD
        4BcfYAAge+AEA0AAwBPgAwBAE+AAAAPNzMw+IAwDP5qZGUAXwAPgABcgCuAHG0ATQADgBwdAACATYKtAACALYANAAEALQAAg42AAwA9AB0AD4AMAwA9AB0ADwABAC8AD
        QADAC8AHQADgAwtAAEAP4AMAIA/Bn8AHAMjhDnPgHwDgAO/gDgBAX0ADwABBz8H7QAtAAwCgIINAB0AAALQgCwCWIAPgAwDAP0AHQAPAAEAz4MdLIAAAAcAAIAuAAAAC
        wACADuAdAOAALAD+4B0v4CEAABTgISrgMADBA+AKAGBTgAXgAABChuAXA+AeAOD9WSBZIkBBUgH6Q0AH4FUMQ9VAZwH6Q6BnBYA/zLyMK+BVDOABACBnBAA/ZmZmYAPg
        YwwgAABwJOwB/kJAdCAA4D4MosLgAFaAAKBjgADgOAwgYwRwwgAAhmC6JliAA0BW4EEMIGPgAE3g8AAAUCAA4Of8AP/gFwAABEERCggyAwAAQDIAAAA8QikgAwHwQmLY
        AAEgAYLiIAcgAkKVgAagCSA3oAkgSKAJKxegCQAG4AAJKwSgEyAAoAmASKAGoBPgwk/gSwAAEaBUA2tuYWJBMcAAAYAAIAAAGaARA2N0bmlMiwERJ2FcTFBAAEocAaBC
        4hMPTInAH00bwAvg/QDgvQABIACAAANzaXVnQiQA6CNxwAAAKiAIABkgAyOYYAAj0mAAB2dwdGNZVE1FQAwLDWJlhQEAAAAAAAAAAQAAAAABAAAAAAAAAA==
        ADxkaXNhYmxlZD4AEAAAAA==
      >
      PRESETNAME <disabled>
      FLOATPOS 0 0 0 0
      FXID {F191CF75-FC4D-3145-8CBB-13AA1C0CDD82}
      WAK 0 0
    >
    <ITEM
      POSITION 119.99993599996272
      SNAPOFFS 0
      LENGTH 15.53570600003728
      LOOP 1
      ALLTAKES 0
      FADEIN 1 0 0 1 0 0
      FADEOUT 1 0 0 1 0 0
      MUTE 0 0
      SEL 0
      IGUID {8303CA87-8D3C-0142-B350-39BADD745B23}
      IID 57
      NAME "mission brand tortilla strips.mid"
      VOLPAN 1 0 1 -1
      SOFFS 119.99993599996272 224
      PLAYRATE 1 1 0 -1 0 0.0025
      CHANMODE 0
      GUID {EE7A26D9-7B3E-FB4A-B74C-E648869737D6}
      <SOURCE MIDI
        HASDATA 1 128 QN
        CCINTERP 32
        POOLEDEVTS {998F8CDA-4880-A040-AFFC-7DC8B061F06C}
        E 28672 91 35 35
        E 96 81 35 35
        E 0 91 35 35
        E 96 81 35 35
        E 0 91 35 35
        E 96 81 35 35
        E 0 91 35 35
        E 96 81 35 35
        E 0 91 35 35
        E 96 81 35 35
        E 0 91 35 35
        E 96 81 35 35
        E 0 91 35 35
        E 96 81 35 35
        E 0 91 35 35
        E 96 81 35 35
        E 0 91 35 35
        E 96 81 35 35
        E 0 91 35 35
        E 96 81 35 35
        E 0 91 35 35
        E 96 81 35 35
        E 0 91 35 35
        E 96 81 35 35
        E 0 91 3a 35
        E 32 81 3a 35
        E 0 91 36 35
        E 0 91 35 35
        E 256 81 35 35
        E 0 91 42 35
        E 32 81 42 35
        E 0 91 36 35
        E 0 91 35 35
        E 96 81 35 35
        E 0 91 3a 35
        E 224 81 3a 35
        E 0 91 3a 35
        E 32 81 3a 35
        E 0 91 36 35
        E 0 91 35 35
        E 256 81 35 35
        E 0 91 42 35
        E 32 81 42 35
        E 0 91 36 35
        E 0 91 35 35
        E 96 81 35 35
        E 0 91 3a 35
        E 224 81 3a 35
        E 0 91 3a 35
        E 32 81 3a 35
        E 0 91 36 35
        E 0 91 35 35
        E 256 81 35 35
        E 0 91 42 35
        E 32 81 42 35
        E 0 91 36 35
        E 0 91 35 35
        E 96 81 35 35
        E 0 91 3a 35
        E 224 81 3a 35
        E 0 91 3a 35
        E 32 81 3a 35
        E 0 91 36 35
        E 0 91 35 35
        E 256 81 35 35
        E 0 91 42 35
        E 32 81 42 35
        E 0 91 36 35
        E 0 91 35 35
        E 96 81 35 35
        E 0 91 3a 35
        E 223 81 3a 35
        E 1 b0 7b 00
        CCINTERP 32
        CHASE_CC_TAKEOFFS 1
        GUID {3584FBC6-CDBF-784D-828F-3427FCA057BB}
        IGNTEMPO 0 120 4 4
        SRCCOLOR 915
        VELLANE 3 156 0
        VELLANE -1 196 0
      >
    >
  >
  <TRACK {128CB050-B0BE-B043-92E2-0A2F0D54FDE6}
    NAME "mission brand tortilla strips"
    PEAKCOL 16576
    BEAT -1
    AUTOMODE 0
    VOLPAN 1 0 -1 -1 1
    MUTESOLO 1 0 0
    IPHASE 0
    PLAYOFFS 0 1
    ISBUS 0 0
    BUSCOMP 0 0 0 0 0
    SHOWINMIX 1 0.6667 0.5 1 0.5 0 -1 0
    FREEMODE 0
    SEL 0
    REC 0 0 1 0 0 0 0
    VU 2
    TRACKHEIGHT 0 0 0 0 -1 0
    INQ 0 0 0 0.5 100 0 0 100
    NCHAN 2
    FX 1
    TRACKID {128CB050-B0BE-B043-92E2-0A2F0D54FDE6}
    PERF 0
    MIDIOUT -1
    MAINSEND 1 0
    <FXCHAIN
      SHOW 0
      LASTSEL 0
      DOCKED 0
      BYPASS 0 0 0
      <VST "VSTi: FM8 (Native Instruments GmbH)" FM8.vst 0 "" 1315530296<5653544E696638666D38000000000000> ""
        OGZpTu5e7f4AAAAAAgAAAAEAAAAAAAAAAgAAAAAAAAAYBwAAAQAAAAAAEAA=
        GAcAAAAAAAABAAAAaHNpbgEAAAAAAAAAN455D8DDx0mHoN4j0l/0WZYAAAAAAAAARFNJTnYAAAABAAAASAAAAAAAAABEU0lOagAAAAEAAAAYAAAAAAAAAERTSU4BAAAA
        AQAAAAEAAAABAAAAAQAAAAEAAAAAAAAAAAAAAAAAAAANYmWFAQAAAAhwEAAAAAAAAQAAAAEAAAAAAAAAAAAAAAAAAAADAAAAMAAwADAAAAAAAAAAAAAAAAAAAAAAAAEA
        AAABAAAAAAAAAERTSU5lAAAARgYAAAAAAAABAAAAaHNpbgEAAAAAAAAAMOH4NwAUwEaoogAOyNUgkW0AAAAAAAAARFNJTmUAAAABAAAANAAAAAAAAABEU0lOagAAAAEA
        AAAYAAAAAAAAAERTSU4BAAAAAQAAAAEAAAABAAAAAgAAAAEAAAAACAAAAAEAAAAKAAAAMQAuADIALgAwAC4AMQAwADEAMAABAAAAAwAAAAAAAABEU0lObAAAAKgBAAAA
        AAAAAQAAAGhzaW4BAAAAAAAAACA7190CLVtKvWPIjKqbw/t4AQAAAAAAAERTSU5sAAAAAQAAABgAAAAAAAAARFNJTgEAAAABAAAAAQAAAAEAAAACAAAAAQAAAAAAAAAI
        AAAATgBlAHcAUwBvAHUAbgBkAAcAAABuAG8AdAAgAHMAZQB0AAAAAAAAAAAAAAAAAAAAAAAAAAAAAAAAAAAAAAAAAAAAAAAAAAEAAAABAAAAAQAAAAMAAABGAE0AOAAA
        AAAAAAAAAAcAAAAHAAAAXABAAGMAbwBsAG8AcgABAAAAMAARAAAAXABAAGQAZQB2AGkAYwBlAHQAeQBwAGUAZgBsAGEAZwBzAAEAAAAxAAsAAABcAEAAcwBvAHUAbgBk
        AHQAeQBwAGUAAQAAADAABwAAAFwAQAB0AGUAbQBwAG8AAQAAADAABgAAAFwAQAB2AGUAcgBsAAUAAAAxAC4ANwAuADgABgAAAFwAQAB2AGUAcgBtAAUAAAAxAC4ANwAu
        ADgABwAAAFwAQAB2AGkAcwBpAGIAAQAAADAAAQAAAAAAAAACAAAARFNJTnkAAABoAAAAAAAAAAEAAABoc2luAQAAAAAAAABG64vCmumHRIQ9Mih2ujahOAAAAAAAAABE
        U0lOeQAAAAEAAAAYAAAAAAAAAERTSU4BAAAAAQAAAAEAAAABAAAAAQAAAAAAAAABAAAAAAAAAAEAAABEU0lOdAAAAHUDAAAAAAAAAQAAAGhzaW4BAAAAAAAAAMPiDYJz
        LJxOuWtBgMMVvqRFAwAAAAAAAERTSU50AAAAAQAAACwDAAAAAAAARFNJTnMAAAABAAAAGAAAAAAAAABEU0lOAQAAAAEAAAABAAAAAQAAAAG9DwAA8wIAAAK9DwBgAAAB
        IAUDaHNpbkAHQAAQHyRrBvAZSEqYrqFXTcEPPBhAFCAAA0RTSU5AI+AHA0AAQBsAbSAIAWkPIAQgAEAj4ANTEEkCYzKs2sVGp2B2wrYRj5w5oCfAN0Av4BdnQCMB8Q4g
        XCAAAAUgAwFjDCAEIAAIdHNycEU4TUbPIAsEvCMAAAcgBwZkZWZhdWx04BgKICoAP+ACAwNBAACAIA8AoCAH4AsAAPAgF0AfwAAAICAPwABgFwVAAABIQgDgBABAD0AD
        4BcfYAAge+AEA0AAwBPgAwBAE+AAAAPNzMw+IAwDP5qZGUAXwAPgABcgCuAHG0ATQADgBwdAACATYKtAACALYANAAEALQAAg42AAwA9AB0AD4AMAwA9AB0ADwABAC8AD
        QADAC8AHQADgAwtAAEAP4AMAIA/Bn8AHAMjhDnPgHwDgAO/gDgBAX0ADwABBz8H7QAtAAwCgIINAB0AAALQgCwCWIAPgAwDAP0AHQAPAAEAz4MdLIAAAAcAAIAuAAAAC
        wACADuAdAOAALAD+4B0v4CEAABTgISrgMADBA+AKAGBTgAXgAABChuAXA+AeAOD9WSBZIkBBUgH6Q0AH4FUMQ9VAZwH6Q6BnBYA/zLyMK+BVDOABACBnBAA/ZmZmYAPg
        YwwgAABwJOwB/kJAdCAA4D4MosLgAFaAAKBjgADgOAwgYwRwwgAAhmC6JliAA0BW4EEMIGPgAE3g8AAAUCAA4Of8AP/gFwAABEERCggyAwAAQDIAAAA8QikgAwHwQmLY
        AAEgAYLiIAcgAkKVgAagCSA3oAkgSKAJKxegCQAG4AAJKwSgEyAAoAmASKAGoBPgwk/gSwAAEaBUA2tuYWJBMcAAAYAAIAAAGaARA2N0bmlMiwERJ2FcTFBAAEocAaBC
        4hMPTInAH00bwAvg/QDgvQABIACAAANzaXVnQiQA6CNxwAAAKiAIABkgAyOYYAAj0mAAB2dwdGNZVE1FQAwLDWJlhQEAAAAAAAAAAQAAAAABAAAAAAAAAA==
        ADxkaXNhYmxlZD4AEAAAAA==
      >
      PRESETNAME <disabled>
      FLOATPOS 0 0 0 0
      FXID {87FBD548-33CA-EB4C-9DEA-F110A8E2D697}
      WAK 0 0
    >
    <ITEM
      POSITION 51.42854399998402
      SNAPOFFS 0
      LENGTH 101.78566000001598
      LOOP 1
      ALLTAKES 0
      FADEIN 1 0 0 1 0 0
      FADEOUT 1 0 0 1 0 0
      MUTE 0 0
      SEL 0
      IGUID {17ABEAE2-A2E2-DC41-ADFD-B5618E5BDF30}
      IID 58
      NAME "mission brand tortilla strips.mid"
      VOLPAN 1 0 1 -1
      SOFFS 51.42854399998402 96
      PLAYRATE 1 1 0 -1 0 0.0025
      CHANMODE 0
      GUID {BE85B9E8-46D2-C74B-8068-521C8E6B2240}
      <SOURCE MIDI
        HASDATA 1 128 QN
        CCINTERP 32
        POOLEDEVTS {433E982E-75D5-0C43-A4D1-66DD18DB85D5}
        E 12288 92 3a 35
        E 16 82 3a 35
        E 0 92 36 35
        E 0 92 35 35
        E 128 82 35 35
        E 0 92 42 35
        E 16 82 42 35
        E 0 92 36 35
        E 0 92 35 35
        E 48 82 35 35
        E 0 92 3a 35
        E 112 82 3a 35
        E 0 92 3a 35
        E 16 82 3a 35
        E 0 92 36 35
        E 0 92 35 35
        E 128 82 35 35
        E 0 92 42 35
        E 16 82 42 35
        E 0 92 36 35
        E 0 92 35 35
        E 48 82 35 35
        E 0 92 3a 35
        E 112 82 3a 35
        E 0 92 3a 35
        E 16 82 3a 35
        E 0 92 36 35
        E 0 92 35 35
        E 128 82 35 35
        E 0 92 42 35
        E 16 82 42 35
        E 0 92 36 35
        E 0 92 35 35
        E 48 82 35 35
        E 0 92 3a 35
        E 112 82 3a 35
        E 0 92 3a 35
        E 16 82 3a 35
        E 0 92 36 35
        E 0 92 35 35
        E 128 82 35 35
        E 0 92 42 35
        E 16 82 42 35
        E 0 92 36 35
        E 0 92 35 35
        E 48 82 35 35
        E 0 92 3a 35
        E 112 82 3a 35
        E 0 92 3a 35
        E 16 82 3a 35
        E 0 92 36 35
        E 0 92 35 35
        E 128 82 35 35
        E 0 92 42 35
        E 16 82 42 35
        E 0 92 36 35
        E 0 92 35 35
        E 48 82 35 35
        E 0 92 3a 35
        E 112 82 3a 35
        E 0 92 3a 35
        E 16 82 3a 35
        E 0 92 36 35
        E 0 92 35 35
        E 128 82 35 35
        E 0 92 42 35
        E 16 82 42 35
        E 0 92 36 35
        E 0 92 35 35
        E 48 82 35 35
        E 0 92 3a 35
        E 112 82 3a 35
        E 0 92 3a 35
        E 16 82 3a 35
        E 0 92 36 35
        E 0 92 35 35
        E 128 82 35 35
        E 0 92 42 35
        E 16 82 42 35
        E 0 92 36 35
        E 0 92 35 35
        E 48 82 35 35
        E 0 92 3a 35
        E 112 82 3a 35
        E 0 92 3a 35
        E 16 82 3a 35
        E 0 92 36 35
        E 0 92 35 35
        E 128 82 35 35
        E 0 92 42 35
        E 16 82 42 35
        E 0 92 36 35
        E 0 92 35 35
        E 48 82 35 35
        E 0 92 3a 35
        E 112 82 3a 35
        E 0 92 3a 35
        E 112 82 3a 35
        E 0 92 41 35
        E 48 82 41 35
        E 0 92 3a 35
        E 16 82 3a 35
        E 0 92 36 35
        E 0 92 35 35
        E 128 82 35 35
        E 0 92 42 35
        E 16 82 42 35
        E 0 92 36 35
        E 0 92 3a 35
        E 112 82 3a 35
        E 0 92 41 35
        E 48 82 41 35
        E 0 92 3a 35
        E 16 82 3a 35
        E 0 92 36 35
        E 0 92 35 35
        E 128 82 35 35
        E 0 92 42 35
        E 16 82 42 35
        E 0 92 36 35
        E 0 92 3a 35
        E 112 82 3a 35
        E 0 92 41 35
        E 48 82 41 35
        E 0 92 3a 35
        E 16 82 3a 35
        E 0 92 36 35
        E 0 92 35 35
        E 128 82 35 35
        E 0 92 42 35
        E 16 82 42 35
        E 0 92 36 35
        E 0 92 3a 35
        E 112 82 3a 35
        E 0 92 41 35
        E 48 82 41 35
        E 0 92 3a 35
        E 16 82 3a 35
        E 0 92 36 35
        E 0 92 35 35
        E 128 82 35 35
        E 0 92 42 35
        E 16 82 42 35
        E 0 92 36 35
        E 0 92 3a 35
        E 112 82 3a 35
        E 0 92 41 35
        E 48 82 41 35
        E 0 92 3a 35
        E 16 82 3a 35
        E 0 92 36 35
        E 0 92 35 35
        E 128 82 35 35
        E 0 92 42 35
        E 16 82 42 35
        E 0 92 36 35
        E 0 92 3a 35
        E 112 82 3a 35
        E 0 92 41 35
        E 48 82 41 35
        E 0 92 3a 35
        E 16 82 3a 35
        E 0 92 36 35
        E 0 92 35 35
        E 128 82 35 35
        E 0 92 42 35
        E 16 82 42 35
        E 0 92 36 35
        E 0 92 3a 35
        E 112 82 3a 35
        E 0 92 41 35
        E 48 82 41 35
        E 0 92 3a 35
        E 16 82 3a 35
        E 0 92 36 35
        E 0 92 35 35
        E 128 82 35 35
        E 0 92 42 35
        E 16 82 42 35
        E 0 92 36 35
        E 0 92 3a 35
        E 112 82 3a 35
        E 0 92 41 35
        E 48 82 41 35
        E 0 92 3a 35
        E 16 82 3a 35
        E 0 92 36 35
        E 0 92 35 35
        E 128 82 35 35
        E 0 92 42 35
        E 16 82 42 35
        E 0 92 36 35
        E 0 92 3a 35
        E 112 82 3a 35
        E 0 92 41 35
        E 48 82 41 35
        E 0 92 3a 35
        E 16 82 3a 35
        E 0 92 36 35
        E 0 92 35 35
        E 128 82 35 35
        E 0 92 42 35
        E 16 82 42 35
        E 0 92 36 35
        E 0 92 3a 35
        E 112 82 3a 35
        E 0 92 41 35
        E 48 82 41 35
        E 0 92 3a 35
        E 16 82 3a 35
        E 0 92 36 35
        E 0 92 35 35
        E 128 82 35 35
        E 0 92 42 35
        E 16 82 42 35
        E 0 92 36 35
        E 0 92 3a 35
        E 112 82 3a 35
        E 0 92 41 35
        E 48 82 41 35
        E 0 92 3a 35
        E 16 82 3a 35
        E 0 92 36 35
        E 0 92 35 35
        E 128 82 35 35
        E 0 92 42 35
        E 16 82 42 35
        E 0 92 36 35
        E 0 92 3a 35
        E 112 82 3a 35
        E 0 92 41 35
        E 48 82 41 35
        E 0 92 3a 35
        E 16 82 3a 35
        E 0 92 36 35
        E 0 92 35 35
        E 128 82 35 35
        E 0 92 42 35
        E 16 82 42 35
        E 0 92 36 35
        E 0 92 3a 35
        E 112 82 3a 35
        E 0 92 41 35
        E 48 82 41 35
        E 0 92 3a 35
        E 16 82 3a 35
        E 0 92 36 35
        E 0 92 35 35
        E 128 82 35 35
        E 0 92 42 35
        E 16 82 42 35
        E 0 92 36 35
        E 0 92 3a 35
        E 112 82 3a 35
        E 0 92 41 35
        E 48 82 41 35
        E 0 92 3a 35
        E 16 82 3a 35
        E 0 92 36 35
        E 0 92 35 35
        E 128 82 35 35
        E 0 92 42 35
        E 16 82 42 35
        E 0 92 36 35
        E 0 92 3a 35
        E 112 82 3a 35
        E 0 92 41 35
        E 48 82 41 35
        E 0 92 3a 35
        E 16 82 3a 35
        E 0 92 36 35
        E 0 92 35 35
        E 128 82 35 35
        E 0 92 42 35
        E 16 82 42 35
        E 0 92 36 35
        E 0 92 3a 35
        E 112 82 3a 35
        E 0 92 41 35
        E 48 82 41 35
        E 0 92 3a 35
        E 16 82 3a 35
        E 0 92 36 35
        E 0 92 35 35
        E 128 82 35 35
        E 0 92 42 35
        E 16 82 42 35
        E 0 92 36 35
        E 0 92 3a 35
        E 112 82 3a 35
        E 0 92 41 35
        E 48 82 41 35
        E 0 92 3a 35
        E 16 82 3a 35
        E 0 92 36 35
        E 0 92 35 35
        E 128 82 35 35
        E 0 92 42 35
        E 16 82 42 35
        E 0 92 36 35
        E 0 92 3a 35
        E 112 82 3a 35
        E 0 92 41 35
        E 48 82 41 35
        E 0 92 3a 35
        E 16 82 3a 35
        E 0 92 36 35
        E 0 92 35 35
        E 128 82 35 35
        E 0 92 42 35
        E 16 82 42 35
        E 0 92 36 35
        E 0 92 3a 35
        E 112 82 3a 35
        E 0 92 41 35
        E 48 82 41 35
        E 0 92 3a 35
        E 16 82 3a 35
        E 0 92 36 35
        E 0 92 35 35
        E 128 82 35 35
        E 0 92 42 35
        E 16 82 42 35
        E 0 92 36 35
        E 0 92 3a 35
        E 112 82 3a 35
        E 0 92 41 35
        E 48 82 41 35
        E 0 92 3a 35
        E 16 82 3a 35
        E 0 92 36 35
        E 0 92 35 35
        E 128 82 35 35
        E 0 92 42 35
        E 16 82 42 35
        E 0 92 36 35
        E 0 92 3a 35
        E 112 82 3a 35
        E 0 92 41 35
        E 48 82 41 35
        E 0 92 3a 35
        E 16 82 3a 35
        E 0 92 36 35
        E 0 92 35 35
        E 128 82 35 35
        E 0 92 42 35
        E 16 82 42 35
        E 0 92 36 35
        E 0 92 3a 35
        E 112 82 3a 35
        E 0 92 41 35
        E 48 82 41 35
        E 0 92 3a 35
        E 16 82 3a 35
        E 0 92 36 35
        E 0 92 35 35
        E 128 82 35 35
        E 0 92 42 35
        E 16 82 42 35
        E 0 92 36 35
        E 0 92 3a 35
        E 112 82 3a 35
        E 0 92 41 35
        E 48 82 41 35
        E 0 92 3a 35
        E 16 82 3a 35
        E 0 92 36 35
        E 0 92 35 35
        E 128 82 35 35
        E 0 92 42 35
        E 16 82 42 35
        E 0 92 36 35
        E 0 92 3a 35
        E 112 82 3a 35
        E 0 92 41 35
        E 48 82 41 35
        E 0 92 3a 35
        E 16 82 3a 35
        E 0 92 36 35
        E 0 92 35 35
        E 128 82 35 35
        E 0 92 42 35
        E 16 82 42 35
        E 0 92 36 35
        E 0 92 3a 35
        E 112 82 3a 35
        E 0 92 41 35
        E 48 82 41 35
        E 0 92 3a 35
        E 16 82 3a 35
        E 0 92 36 35
        E 0 92 35 35
        E 128 82 35 35
        E 0 92 42 35
        E 16 82 42 35
        E 0 92 36 35
        E 0 92 3a 35
        E 112 82 3a 35
        E 0 92 41 35
        E 48 82 41 35
        E 0 92 3a 35
        E 16 82 3a 35
        E 0 92 36 35
        E 0 92 35 35
        E 128 82 35 35
        E 0 92 42 35
        E 16 82 42 35
        E 0 92 36 35
        E 0 92 3a 35
        E 112 82 3a 35
        E 0 92 41 35
        E 48 82 41 35
        E 0 92 3a 35
        E 16 82 3a 35
        E 0 92 36 35
        E 0 92 35 35
        E 128 82 35 35
        E 0 92 42 35
        E 16 82 42 35
        E 0 92 36 35
        E 0 92 3a 35
        E 112 82 3a 35
        E 0 92 41 35
        E 48 82 41 35
        E 0 92 3a 35
        E 16 82 3a 35
        E 0 92 36 35
        E 0 92 35 35
        E 128 82 35 35
        E 0 92 42 35
        E 16 82 42 35
        E 0 92 36 35
        E 0 92 3a 35
        E 112 82 3a 35
        E 0 92 41 35
        E 48 82 41 35
        E 0 92 3a 35
        E 16 82 3a 35
        E 0 92 36 35
        E 0 92 35 35
        E 128 82 35 35
        E 0 92 42 35
        E 16 82 42 35
        E 0 92 36 35
        E 0 92 3a 35
        E 112 82 3a 35
        E 0 92 41 35
        E 48 82 41 35
        E 0 92 3a 35
        E 16 82 3a 35
        E 0 92 36 35
        E 0 92 35 35
        E 128 82 35 35
        E 0 92 42 35
        E 16 82 42 35
        E 0 92 36 35
        E 0 92 3a 35
        E 112 82 3a 35
        E 0 92 41 35
        E 48 82 41 35
        E 0 92 3a 35
        E 16 82 3a 35
        E 0 92 36 35
        E 0 92 35 35
        E 128 82 35 35
        E 0 92 42 35
        E 16 82 42 35
        E 0 92 36 35
        E 0 92 3a 35
        E 112 82 3a 35
        E 0 92 41 35
        E 48 82 41 35
        E 0 92 3a 35
        E 16 82 3a 35
        E 0 92 36 35
        E 0 92 35 35
        E 128 82 35 35
        E 0 92 42 35
        E 16 82 42 35
        E 0 92 36 35
        E 0 92 3a 35
        E 112 82 3a 35
        E 0 92 41 35
        E 48 82 41 35
        E 0 92 3a 35
        E 16 82 3a 35
        E 0 92 36 35
        E 0 92 35 35
        E 128 82 35 35
        E 0 92 42 35
        E 16 82 42 35
        E 0 92 36 35
        E 0 92 3a 35
        E 112 82 3a 35
        E 0 92 41 35
        E 48 82 41 35
        E 0 92 3a 35
        E 16 82 3a 35
        E 0 92 36 35
        E 0 92 35 35
        E 128 82 35 35
        E 0 92 42 35
        E 16 82 42 35
        E 0 92 36 35
        E 0 92 3a 35
        E 112 82 3a 35
        E 0 92 41 35
        E 48 82 41 35
        E 0 92 3a 35
        E 16 82 3a 35
        E 0 92 36 35
        E 0 92 35 35
        E 128 82 35 35
        E 0 92 42 35
        E 16 82 42 35
        E 0 92 36 35
        E 0 92 3a 35
        E 112 82 3a 35
        E 0 92 41 35
        E 48 82 41 35
        E 0 92 3a 35
        E 16 82 3a 35
        E 0 92 36 35
        E 0 92 35 35
        E 128 82 35 35
        E 0 92 42 35
        E 16 82 42 35
        E 0 92 36 35
        E 0 92 3a 35
        E 112 82 3a 35
        E 0 92 41 35
        E 48 82 41 35
        E 0 92 3a 35
        E 16 82 3a 35
        E 0 92 36 35
        E 0 92 35 35
        E 128 82 35 35
        E 0 92 42 35
        E 16 82 42 35
        E 0 92 36 35
        E 0 92 3a 35
        E 112 82 3a 35
        E 0 92 41 35
        E 48 82 41 35
        E 0 92 3a 35
        E 16 82 3a 35
        E 0 92 36 35
        E 0 92 35 35
        E 128 82 35 35
        E 0 92 42 35
        E 16 82 42 35
        E 0 92 36 35
        E 0 92 3a 35
        E 112 82 3a 35
        E 0 92 41 35
        E 48 82 41 35
        E 0 92 3a 35
        E 16 82 3a 35
        E 0 92 36 35
        E 0 92 35 35
        E 128 82 35 35
        E 0 92 42 35
        E 16 82 42 35
        E 0 92 36 35
        E 0 92 3a 35
        E 112 82 3a 35
        E 0 92 41 35
        E 48 82 41 35
        E 0 92 3a 35
        E 16 82 3a 35
        E 0 92 36 35
        E 0 92 35 35
        E 128 82 35 35
        E 0 92 42 35
        E 16 82 42 35
        E 0 92 36 35
        E 0 92 3a 35
        E 112 82 3a 35
        E 0 92 41 35
        E 48 82 41 35
        E 0 92 3a 35
        E 16 82 3a 35
        E 0 92 36 35
        E 0 92 35 35
        E 128 82 35 35
        E 0 92 42 35
        E 16 82 42 35
        E 0 92 36 35
        E 0 92 3a 35
        E 112 82 3a 35
        E 0 92 41 35
        E 48 82 41 35
        E 0 92 3a 35
        E 16 82 3a 35
        E 0 92 36 35
        E 0 92 35 35
        E 128 82 35 35
        E 0 92 42 35
        E 16 82 42 35
        E 0 92 36 35
        E 0 92 3a 35
        E 112 82 3a 35
        E 0 92 41 35
        E 48 82 41 35
        E 0 92 3a 35
        E 16 82 3a 35
        E 0 92 36 35
        E 0 92 35 35
        E 128 82 35 35
        E 0 92 42 35
        E 16 82 42 35
        E 0 92 36 35
        E 0 92 3a 35
        E 112 82 3a 35
        E 0 92 41 35
        E 48 82 41 35
        E 0 92 3a 35
        E 16 82 3a 35
        E 0 92 36 35
        E 0 92 35 35
        E 128 82 35 35
        E 0 92 42 35
        E 16 82 42 35
        E 0 92 36 35
        E 0 92 3a 35
        E 112 82 3a 35
        E 0 92 41 35
        E 48 82 41 35
        E 0 92 3a 35
        E 16 82 3a 35
        E 0 92 36 35
        E 0 92 35 35
        E 128 82 35 35
        E 0 92 42 35
        E 16 82 42 35
        E 0 92 36 35
        E 0 92 3a 35
        E 112 82 3a 35
        E 0 92 41 35
        E 48 82 41 35
        E 0 92 3a 35
        E 16 82 3a 35
        E 0 92 36 35
        E 0 92 35 35
        E 128 82 35 35
        E 0 92 42 35
        E 16 82 42 35
        E 0 92 36 35
        E 0 92 3a 35
        E 112 82 3a 35
        E 0 92 41 35
        E 48 82 41 35
        E 0 92 3a 35
        E 16 82 3a 35
        E 0 92 36 35
        E 0 92 35 35
        E 128 82 35 35
        E 0 92 42 35
        E 16 82 42 35
        E 0 92 36 35
        E 0 92 3a 35
        E 112 82 3a 35
        E 0 92 41 35
        E 48 82 41 35
        E 0 92 3a 35
        E 16 82 3a 35
        E 0 92 36 35
        E 0 92 35 35
        E 128 82 35 35
        E 0 92 42 35
        E 16 82 42 35
        E 0 92 36 35
        E 0 92 3a 35
        E 112 82 3a 35
        E 0 92 41 35
        E 48 82 41 35
        E 0 92 3a 35
        E 16 82 3a 35
        E 0 92 36 35
        E 0 92 35 35
        E 128 82 35 35
        E 0 92 42 35
        E 16 82 42 35
        E 0 92 36 35
        E 0 92 3a 35
        E 112 82 3a 35
        E 0 92 41 35
        E 48 82 41 35
        E 0 92 3a 35
        E 16 82 3a 35
        E 0 92 36 35
        E 0 92 35 35
        E 128 82 35 35
        E 0 92 42 35
        E 16 82 42 35
        E 0 92 36 35
        E 0 92 3a 35
        E 112 82 3a 35
        E 0 92 41 35
        E 48 82 41 35
        E 0 92 3a 35
        E 16 82 3a 35
        E 0 92 36 35
        E 0 92 35 35
        E 128 82 35 35
        E 0 92 42 35
        E 16 82 42 35
        E 0 92 36 35
        E 0 92 3a 35
        E 112 82 3a 35
        E 0 92 41 35
        E 48 82 41 35
        E 0 92 3a 35
        E 16 82 3a 35
        E 0 92 36 35
        E 0 92 35 35
        E 128 82 35 35
        E 0 92 42 35
        E 16 82 42 35
        E 0 92 36 35
        E 0 92 3a 35
        E 112 82 3a 35
        E 0 92 41 35
        E 48 82 41 35
        E 0 92 3a 35
        E 16 82 3a 35
        E 0 92 36 35
        E 0 92 35 35
        E 128 82 35 35
        E 0 92 42 35
        E 16 82 42 35
        E 0 92 36 35
        E 0 92 3a 35
        E 112 82 3a 35
        E 0 92 41 35
        E 48 82 41 35
        E 0 92 3a 35
        E 16 82 3a 35
        E 0 92 36 35
        E 0 92 35 35
        E 128 82 35 35
        E 0 92 42 35
        E 16 82 42 35
        E 0 92 36 35
        E 0 92 3a 35
        E 112 82 3a 35
        E 0 92 41 35
        E 48 82 41 35
        E 0 92 3a 35
        E 16 82 3a 35
        E 0 92 36 35
        E 0 92 35 35
        E 128 82 35 35
        E 0 92 42 35
        E 16 82 42 35
        E 0 92 36 35
        E 0 92 3a 35
        E 112 82 3a 35
        E 0 92 41 35
        E 48 82 41 35
        E 0 92 3a 35
        E 16 82 3a 35
        E 0 92 36 35
        E 0 92 35 35
        E 128 82 35 35
        E 0 92 42 35
        E 16 82 42 35
        E 0 92 36 35
        E 0 92 3a 35
        E 112 82 3a 35
        E 0 92 41 35
        E 48 82 41 35
        E 0 92 3a 35
        E 16 82 3a 35
        E 0 92 36 35
        E 0 92 35 35
        E 128 82 35 35
        E 0 92 42 35
        E 16 82 42 35
        E 0 92 36 35
        E 0 92 3a 35
        E 112 82 3a 35
        E 0 92 41 35
        E 48 82 41 35
        E 0 92 3a 35
        E 16 82 3a 35
        E 0 92 36 35
        E 0 92 35 35
        E 128 82 35 35
        E 0 92 42 35
        E 16 82 42 35
        E 0 92 36 35
        E 0 92 3a 35
        E 112 82 3a 35
        E 0 92 41 35
        E 48 82 41 35
        E 0 92 3a 35
        E 16 82 3a 35
        E 0 92 36 35
        E 0 92 35 35
        E 128 82 35 35
        E 0 92 42 35
        E 16 82 42 35
        E 0 92 36 35
        E 0 92 3a 35
        E 112 82 3a 35
        E 0 92 41 35
        E 48 82 41 35
        E 0 92 3a 35
        E 16 82 3a 35
        E 0 92 36 35
        E 0 92 35 35
        E 128 82 35 35
        E 0 92 42 35
        E 16 82 42 35
        E 0 92 36 35
        E 0 92 3a 35
        E 112 82 3a 35
        E 0 92 41 35
        E 48 82 41 35
        E 0 92 3a 35
        E 16 82 3a 35
        E 0 92 36 35
        E 0 92 35 35
        E 128 82 35 35
        E 0 92 42 35
        E 16 82 42 35
        E 0 92 36 35
        E 0 92 3a 35
        E 112 82 3a 35
        E 0 92 41 35
        E 48 82 41 35
        E 0 92 3a 35
        E 16 82 3a 35
        E 0 92 36 35
        E 0 92 35 35
        E 128 82 35 35
        E 0 92 42 35
        E 16 82 42 35
        E 0 92 36 35
        E 0 92 3a 35
        E 112 82 3a 35
        E 0 92 41 35
        E 48 82 41 35
        E 0 92 3a 35
        E 16 82 3a 35
        E 0 92 36 35
        E 0 92 35 35
        E 128 82 35 35
        E 0 92 42 35
        E 16 82 42 35
        E 0 92 36 35
        E 0 92 3a 35
        E 112 82 3a 35
        E 0 92 41 35
        E 48 82 41 35
        E 0 92 3a 35
        E 16 82 3a 35
        E 0 92 36 35
        E 0 92 35 35
        E 128 82 35 35
        E 0 92 42 35
        E 16 82 42 35
        E 0 92 36 35
        E 0 92 41 35
        E 0 92 35 35
        E 112 82 35 35
        E 0 92 41 35
        E 48 82 41 35
        E 0 92 41 35
        E 0 92 35 35
        E 112 82 35 35
        E 0 92 41 35
        E 48 82 41 35
        E 0 92 41 35
        E 0 92 35 35
        E 112 82 35 35
        E 0 92 41 35
        E 48 82 41 35
        E 0 92 41 35
        E 0 92 35 35
        E 112 82 35 35
        E 0 92 41 35
        E 48 82 41 35
        E 0 92 41 35
        E 0 92 35 35
        E 112 82 35 35
        E 0 92 41 35
        E 48 82 41 35
        E 0 92 41 35
        E 0 92 35 35
        E 112 82 35 35
        E 0 92 41 35
        E 48 82 41 35
        E 0 92 41 35
        E 0 92 35 35
        E 112 82 35 35
        E 0 92 41 35
        E 48 82 41 35
        E 0 92 41 35
        E 0 92 35 35
        E 112 82 35 35
        E 0 92 41 35
        E 47 82 41 35
        E 1 b0 7b 00
        CCINTERP 32
        CHASE_CC_TAKEOFFS 1
        GUID {9ACFD48A-6BA9-DC46-AC2A-22F3C1A9DEDC}
        IGNTEMPO 0 120 4 4
        SRCCOLOR 916
        VELLANE 3 156 0
        VELLANE -1 196 0
      >
    >
  >
  <TRACK {F11CEEE2-A9E1-EF47-A296-6C4D96426DBA}
    NAME "mission brand tortilla strips"
    PEAKCOL 16576
    BEAT -1
    AUTOMODE 0
    VOLPAN 1 0 -1 -1 1
    MUTESOLO 1 0 0
    IPHASE 0
    PLAYOFFS 0 1
    ISBUS 0 0
    BUSCOMP 0 0 0 0 0
    SHOWINMIX 1 0.6667 0.5 1 0.5 0 -1 0
    FREEMODE 0
    SEL 0
    REC 0 0 1 0 0 0 0
    VU 2
    TRACKHEIGHT 0 0 0 0 -1 0
    INQ 0 0 0 0.5 100 0 0 100
    NCHAN 2
    FX 1
    TRACKID {F11CEEE2-A9E1-EF47-A296-6C4D96426DBA}
    PERF 0
    MIDIOUT -1
    MAINSEND 1 0
    <FXCHAIN
      SHOW 0
      LASTSEL 0
      DOCKED 0
      BYPASS 0 0 0
      <VST "VSTi: FM8 (Native Instruments GmbH)" FM8.vst 0 "" 1315530296<5653544E696638666D38000000000000> ""
        OGZpTu5e7f4AAAAAAgAAAAEAAAAAAAAAAgAAAAAAAAAYBwAAAQAAAAAAEAA=
        GAcAAAAAAAABAAAAaHNpbgEAAAAAAAAAN455D8DDx0mHoN4j0l/0WZYAAAAAAAAARFNJTnYAAAABAAAASAAAAAAAAABEU0lOagAAAAEAAAAYAAAAAAAAAERTSU4BAAAA
        AQAAAAEAAAABAAAAAQAAAAEAAAAAAAAAAAAAAAAAAAANYmWFAQAAAAhwEAAAAAAAAQAAAAEAAAAAAAAAAAAAAAAAAAADAAAAMAAwADAAAAAAAAAAAAAAAAAAAAAAAAEA
        AAABAAAAAAAAAERTSU5lAAAARgYAAAAAAAABAAAAaHNpbgEAAAAAAAAAMOH4NwAUwEaoogAOyNUgkW0AAAAAAAAARFNJTmUAAAABAAAANAAAAAAAAABEU0lOagAAAAEA
        AAAYAAAAAAAAAERTSU4BAAAAAQAAAAEAAAABAAAAAgAAAAEAAAAACAAAAAEAAAAKAAAAMQAuADIALgAwAC4AMQAwADEAMAABAAAAAwAAAAAAAABEU0lObAAAAKgBAAAA
        AAAAAQAAAGhzaW4BAAAAAAAAACA7190CLVtKvWPIjKqbw/t4AQAAAAAAAERTSU5sAAAAAQAAABgAAAAAAAAARFNJTgEAAAABAAAAAQAAAAEAAAACAAAAAQAAAAAAAAAI
        AAAATgBlAHcAUwBvAHUAbgBkAAcAAABuAG8AdAAgAHMAZQB0AAAAAAAAAAAAAAAAAAAAAAAAAAAAAAAAAAAAAAAAAAAAAAAAAAEAAAABAAAAAQAAAAMAAABGAE0AOAAA
        AAAAAAAAAAcAAAAHAAAAXABAAGMAbwBsAG8AcgABAAAAMAARAAAAXABAAGQAZQB2AGkAYwBlAHQAeQBwAGUAZgBsAGEAZwBzAAEAAAAxAAsAAABcAEAAcwBvAHUAbgBk
        AHQAeQBwAGUAAQAAADAABwAAAFwAQAB0AGUAbQBwAG8AAQAAADAABgAAAFwAQAB2AGUAcgBsAAUAAAAxAC4ANwAuADgABgAAAFwAQAB2AGUAcgBtAAUAAAAxAC4ANwAu
        ADgABwAAAFwAQAB2AGkAcwBpAGIAAQAAADAAAQAAAAAAAAACAAAARFNJTnkAAABoAAAAAAAAAAEAAABoc2luAQAAAAAAAABG64vCmumHRIQ9Mih2ujahOAAAAAAAAABE
        U0lOeQAAAAEAAAAYAAAAAAAAAERTSU4BAAAAAQAAAAEAAAABAAAAAQAAAAAAAAABAAAAAAAAAAEAAABEU0lOdAAAAHUDAAAAAAAAAQAAAGhzaW4BAAAAAAAAAMPiDYJz
        LJxOuWtBgMMVvqRFAwAAAAAAAERTSU50AAAAAQAAACwDAAAAAAAARFNJTnMAAAABAAAAGAAAAAAAAABEU0lOAQAAAAEAAAABAAAAAQAAAAG9DwAA8wIAAAK9DwBgAAAB
        IAUDaHNpbkAHQAAQHyRrBvAZSEqYrqFXTcEPPBhAFCAAA0RTSU5AI+AHA0AAQBsAbSAIAWkPIAQgAEAj4ANTEEkCYzKs2sVGp2B2wrYRj5w5oCfAN0Av4BdnQCMB8Q4g
        XCAAAAUgAwFjDCAEIAAIdHNycEU4TUbPIAsEvCMAAAcgBwZkZWZhdWx04BgKICoAP+ACAwNBAACAIA8AoCAH4AsAAPAgF0AfwAAAICAPwABgFwVAAABIQgDgBABAD0AD
        4BcfYAAge+AEA0AAwBPgAwBAE+AAAAPNzMw+IAwDP5qZGUAXwAPgABcgCuAHG0ATQADgBwdAACATYKtAACALYANAAEALQAAg42AAwA9AB0AD4AMAwA9AB0ADwABAC8AD
        QADAC8AHQADgAwtAAEAP4AMAIA/Bn8AHAMjhDnPgHwDgAO/gDgBAX0ADwABBz8H7QAtAAwCgIINAB0AAALQgCwCWIAPgAwDAP0AHQAPAAEAz4MdLIAAAAcAAIAuAAAAC
        wACADuAdAOAALAD+4B0v4CEAABTgISrgMADBA+AKAGBTgAXgAABChuAXA+AeAOD9WSBZIkBBUgH6Q0AH4FUMQ9VAZwH6Q6BnBYA/zLyMK+BVDOABACBnBAA/ZmZmYAPg
        YwwgAABwJOwB/kJAdCAA4D4MosLgAFaAAKBjgADgOAwgYwRwwgAAhmC6JliAA0BW4EEMIGPgAE3g8AAAUCAA4Of8AP/gFwAABEERCggyAwAAQDIAAAA8QikgAwHwQmLY
        AAEgAYLiIAcgAkKVgAagCSA3oAkgSKAJKxegCQAG4AAJKwSgEyAAoAmASKAGoBPgwk/gSwAAEaBUA2tuYWJBMcAAAYAAIAAAGaARA2N0bmlMiwERJ2FcTFBAAEocAaBC
        4hMPTInAH00bwAvg/QDgvQABIACAAANzaXVnQiQA6CNxwAAAKiAIABkgAyOYYAAj0mAAB2dwdGNZVE1FQAwLDWJlhQEAAAAAAAAAAQAAAAABAAAAAAAAAA==
        ADxkaXNhYmxlZD4AEAAAAA==
      >
      PRESETNAME <disabled>
      FLOATPOS 0 0 0 0
      FXID {C56F7CCF-9703-0941-BEC2-DA73C5D8C09E}
      WAK 0 0
    >
    <ITEM
      POSITION 119.99993599996272
      SNAPOFFS 0
      LENGTH 85.71424000003729
      LOOP 1
      ALLTAKES 0
      FADEIN 1 0 0 1 0 0
      FADEOUT 1 0 0 1 0 0
      MUTE 0 0
      SEL 0
      IGUID {3F08DA00-C783-3D41-8B00-943DF0C75508}
      IID 59
      NAME "mission brand tortilla strips.mid"
      VOLPAN 1 0 1 -1
      SOFFS 119.99993599996272 224
      PLAYRATE 1 1 0 -1 0 0.0025
      CHANMODE 0
      GUID {C08F4F5A-8BF0-1D4E-B687-DC06B69D6CE2}
      <SOURCE MIDI
        HASDATA 1 128 QN
        CCINTERP 32
        POOLEDEVTS {7433D964-B1FA-7A4A-9E64-E51F04A63421}
        E 28672 93 3a 35
        E 224 83 3a 35
        E 0 93 41 35
        E 96 83 41 35
        E 0 93 3a 35
        E 32 83 3a 35
        E 0 93 36 35
        E 0 93 35 35
        E 256 83 35 35
        E 0 93 42 35
        E 32 83 42 35
        E 0 93 36 35
        E 0 93 3a 35
        E 224 83 3a 35
        E 0 93 41 35
        E 96 83 41 35
        E 0 93 3a 35
        E 32 83 3a 35
        E 0 93 36 35
        E 0 93 35 35
        E 256 83 35 35
        E 0 93 42 35
        E 32 83 42 35
        E 0 93 36 35
        E 0 93 3a 35
        E 224 83 3a 35
        E 0 93 41 35
        E 96 83 41 35
        E 0 93 3a 35
        E 32 83 3a 35
        E 0 93 36 35
        E 0 93 35 35
        E 256 83 35 35
        E 0 93 42 35
        E 32 83 42 35
        E 0 93 36 35
        E 0 93 3a 35
        E 224 83 3a 35
        E 0 93 41 35
        E 96 83 41 35
        E 0 93 3a 35
        E 32 83 3a 35
        E 0 93 36 35
        E 0 93 35 35
        E 256 83 35 35
        E 0 93 42 35
        E 32 83 42 35
        E 0 93 36 35
        E 0 93 3a 35
        E 224 83 3a 35
        E 0 93 41 35
        E 96 83 41 35
        E 0 93 3a 35
        E 32 83 3a 35
        E 0 93 36 35
        E 0 93 35 35
        E 256 83 35 35
        E 0 93 42 35
        E 32 83 42 35
        E 0 93 36 35
        E 0 93 3a 35
        E 224 83 3a 35
        E 0 93 41 35
        E 96 83 41 35
        E 0 93 3a 35
        E 32 83 3a 35
        E 0 93 36 35
        E 0 93 35 35
        E 256 83 35 35
        E 0 93 42 35
        E 32 83 42 35
        E 0 93 36 35
        E 0 93 3a 35
        E 224 83 3a 35
        E 0 93 41 35
        E 96 83 41 35
        E 0 93 3a 35
        E 32 83 3a 35
        E 0 93 36 35
        E 0 93 35 35
        E 256 83 35 35
        E 0 93 42 35
        E 32 83 42 35
        E 0 93 36 35
        E 0 93 3a 35
        E 224 83 3a 35
        E 0 93 41 35
        E 96 83 41 35
        E 0 93 3a 35
        E 32 83 3a 35
        E 0 93 36 35
        E 0 93 35 35
        E 256 83 35 35
        E 0 93 42 35
        E 32 83 42 35
        E 0 93 36 35
        E 0 93 3a 35
        E 224 83 3a 35
        E 0 93 41 35
        E 96 83 41 35
        E 0 93 3a 35
        E 32 83 3a 35
        E 0 93 36 35
        E 0 93 35 35
        E 256 83 35 35
        E 0 93 42 35
        E 32 83 42 35
        E 0 93 36 35
        E 0 93 3a 35
        E 224 83 3a 35
        E 0 93 41 35
        E 96 83 41 35
        E 0 93 3a 35
        E 32 83 3a 35
        E 0 93 36 35
        E 0 93 35 35
        E 256 83 35 35
        E 0 93 42 35
        E 32 83 42 35
        E 0 93 36 35
        E 0 93 3a 35
        E 224 83 3a 35
        E 0 93 41 35
        E 96 83 41 35
        E 0 93 3a 35
        E 32 83 3a 35
        E 0 93 36 35
        E 0 93 35 35
        E 256 83 35 35
        E 0 93 42 35
        E 32 83 42 35
        E 0 93 36 35
        E 0 93 3a 35
        E 224 83 3a 35
        E 0 93 41 35
        E 96 83 41 35
        E 0 93 3a 35
        E 32 83 3a 35
        E 0 93 36 35
        E 0 93 35 35
        E 256 83 35 35
        E 0 93 42 35
        E 32 83 42 35
        E 0 93 36 35
        E 0 93 3a 35
        E 224 83 3a 35
        E 0 93 41 35
        E 96 83 41 35
        E 0 93 3a 35
        E 32 83 3a 35
        E 0 93 36 35
        E 0 93 35 35
        E 256 83 35 35
        E 0 93 42 35
        E 32 83 42 35
        E 0 93 36 35
        E 0 93 3a 35
        E 224 83 3a 35
        E 0 93 41 35
        E 96 83 41 35
        E 0 93 3a 35
        E 32 83 3a 35
        E 0 93 36 35
        E 0 93 35 35
        E 256 83 35 35
        E 0 93 42 35
        E 32 83 42 35
        E 0 93 36 35
        E 0 93 3a 35
        E 224 83 3a 35
        E 0 93 41 35
        E 96 83 41 35
        E 0 93 3a 35
        E 32 83 3a 35
        E 0 93 36 35
        E 0 93 35 35
        E 256 83 35 35
        E 0 93 42 35
        E 32 83 42 35
        E 0 93 36 35
        E 0 93 3a 35
        E 224 83 3a 35
        E 0 93 41 35
        E 96 83 41 35
        E 0 93 3a 35
        E 32 83 3a 35
        E 0 93 36 35
        E 0 93 35 35
        E 256 83 35 35
        E 0 93 42 35
        E 32 83 42 35
        E 0 93 36 35
        E 0 93 3a 35
        E 224 83 3a 35
        E 0 93 41 35
        E 96 83 41 35
        E 0 93 3a 35
        E 32 83 3a 35
        E 0 93 36 35
        E 0 93 35 35
        E 256 83 35 35
        E 0 93 42 35
        E 32 83 42 35
        E 0 93 36 35
        E 0 93 3a 35
        E 224 83 3a 35
        E 0 93 41 35
        E 96 83 41 35
        E 0 93 3a 35
        E 32 83 3a 35
        E 0 93 36 35
        E 0 93 35 35
        E 256 83 35 35
        E 0 93 42 35
        E 32 83 42 35
        E 0 93 36 35
        E 0 93 3a 35
        E 224 83 3a 35
        E 0 93 41 35
        E 96 83 41 35
        E 0 93 3a 35
        E 32 83 3a 35
        E 0 93 36 35
        E 0 93 35 35
        E 256 83 35 35
        E 0 93 42 35
        E 32 83 42 35
        E 0 93 36 35
        E 0 93 3a 35
        E 224 83 3a 35
        E 0 93 41 35
        E 96 83 41 35
        E 0 93 3a 35
        E 32 83 3a 35
        E 0 93 36 35
        E 0 93 35 35
        E 256 83 35 35
        E 0 93 42 35
        E 32 83 42 35
        E 0 93 36 35
        E 0 93 3a 35
        E 224 83 3a 35
        E 0 93 41 35
        E 96 83 41 35
        E 0 93 3a 35
        E 32 83 3a 35
        E 0 93 36 35
        E 0 93 35 35
        E 256 83 35 35
        E 0 93 42 35
        E 32 83 42 35
        E 0 93 36 35
        E 0 93 3a 35
        E 224 83 3a 35
        E 0 93 41 35
        E 96 83 41 35
        E 0 93 3a 35
        E 32 83 3a 35
        E 0 93 36 35
        E 0 93 35 35
        E 256 83 35 35
        E 0 93 42 35
        E 32 83 42 35
        E 0 93 36 35
        E 0 93 3a 35
        E 224 83 3a 35
        E 0 93 41 35
        E 96 83 41 35
        E 0 93 3a 35
        E 32 83 3a 35
        E 0 93 36 35
        E 0 93 35 35
        E 256 83 35 35
        E 0 93 42 35
        E 32 83 42 35
        E 0 93 36 35
        E 0 93 3a 35
        E 224 83 3a 35
        E 0 93 41 35
        E 96 83 41 35
        E 0 93 3a 35
        E 32 83 3a 35
        E 0 93 36 35
        E 0 93 35 35
        E 256 83 35 35
        E 0 93 42 35
        E 32 83 42 35
        E 0 93 36 35
        E 0 93 3a 35
        E 224 83 3a 35
        E 0 93 41 35
        E 96 83 41 35
        E 0 93 3a 35
        E 32 83 3a 35
        E 0 93 36 35
        E 0 93 35 35
        E 256 83 35 35
        E 0 93 42 35
        E 32 83 42 35
        E 0 93 36 35
        E 0 93 3a 35
        E 224 83 3a 35
        E 0 93 41 35
        E 96 83 41 35
        E 0 93 3a 35
        E 32 83 3a 35
        E 0 93 36 35
        E 0 93 35 35
        E 256 83 35 35
        E 0 93 42 35
        E 32 83 42 35
        E 0 93 36 35
        E 0 93 3a 35
        E 224 83 3a 35
        E 0 93 41 35
        E 96 83 41 35
        E 0 93 3a 35
        E 32 83 3a 35
        E 0 93 36 35
        E 0 93 35 35
        E 256 83 35 35
        E 0 93 42 35
        E 32 83 42 35
        E 0 93 36 35
        E 0 93 3a 35
        E 224 83 3a 35
        E 0 93 41 35
        E 96 83 41 35
        E 0 93 3a 35
        E 32 83 3a 35
        E 0 93 36 35
        E 0 93 35 35
        E 256 83 35 35
        E 0 93 42 35
        E 32 83 42 35
        E 0 93 36 35
        E 0 93 3a 35
        E 224 83 3a 35
        E 0 93 41 35
        E 96 83 41 35
        E 0 93 3a 35
        E 32 83 3a 35
        E 0 93 36 35
        E 0 93 35 35
        E 256 83 35 35
        E 0 93 42 35
        E 32 83 42 35
        E 0 93 36 35
        E 0 93 3a 35
        E 224 83 3a 35
        E 0 93 41 35
        E 96 83 41 35
        E 0 93 3a 35
        E 32 83 3a 35
        E 0 93 36 35
        E 0 93 35 35
        E 256 83 35 35
        E 0 93 42 35
        E 32 83 42 35
        E 0 93 36 35
        E 0 93 3a 35
        E 224 83 3a 35
        E 0 93 41 35
        E 96 83 41 35
        E 0 93 3a 35
        E 32 83 3a 35
        E 0 93 36 35
        E 0 93 35 35
        E 256 83 35 35
        E 0 93 42 35
        E 32 83 42 35
        E 0 93 36 35
        E 0 93 3a 35
        E 224 83 3a 35
        E 0 93 41 35
        E 96 83 41 35
        E 0 93 3a 35
        E 32 83 3a 35
        E 0 93 36 35
        E 0 93 35 35
        E 256 83 35 35
        E 0 93 42 35
        E 31 83 42 35
        E 0 93 36 35
        E 1 b0 7b 00
        CCINTERP 32
        CHASE_CC_TAKEOFFS 1
        GUID {3169B20B-126B-D84E-9B94-DAD27D79EBE6}
        IGNTEMPO 0 120 4 4
        SRCCOLOR 917
        VELLANE 3 156 0
        VELLANE -1 196 0
      >
    >
  >
  <TRACK {5F65F51F-FE8E-0447-8941-D890F8104254}
    NAME "mission brand tortilla strips"
    PEAKCOL 16576
    BEAT -1
    AUTOMODE 0
    VOLPAN 1 0 -1 -1 1
    MUTESOLO 1 0 0
    IPHASE 0
    PLAYOFFS 0 1
    ISBUS 0 0
    BUSCOMP 0 0 0 0 0
    SHOWINMIX 1 0.6667 0.5 1 0.5 0 -1 0
    FREEMODE 0
    SEL 0
    REC 0 0 1 0 0 0 0
    VU 2
    TRACKHEIGHT 0 0 0 0 -1 0
    INQ 0 0 0 0.5 100 0 0 100
    NCHAN 2
    FX 1
    TRACKID {5F65F51F-FE8E-0447-8941-D890F8104254}
    PERF 0
    MIDIOUT -1
    MAINSEND 1 0
    <FXCHAIN
      SHOW 0
      LASTSEL 0
      DOCKED 0
      BYPASS 0 0 0
      <VST "VSTi: FM8 (Native Instruments GmbH)" FM8.vst 0 "" 1315530296<5653544E696638666D38000000000000> ""
        OGZpTu5e7f4AAAAAAgAAAAEAAAAAAAAAAgAAAAAAAAAYBwAAAQAAAAAAEAA=
        GAcAAAAAAAABAAAAaHNpbgEAAAAAAAAAN455D8DDx0mHoN4j0l/0WZYAAAAAAAAARFNJTnYAAAABAAAASAAAAAAAAABEU0lOagAAAAEAAAAYAAAAAAAAAERTSU4BAAAA
        AQAAAAEAAAABAAAAAQAAAAEAAAAAAAAAAAAAAAAAAAANYmWFAQAAAAhwEAAAAAAAAQAAAAEAAAAAAAAAAAAAAAAAAAADAAAAMAAwADAAAAAAAAAAAAAAAAAAAAAAAAEA
        AAABAAAAAAAAAERTSU5lAAAARgYAAAAAAAABAAAAaHNpbgEAAAAAAAAAMOH4NwAUwEaoogAOyNUgkW0AAAAAAAAARFNJTmUAAAABAAAANAAAAAAAAABEU0lOagAAAAEA
        AAAYAAAAAAAAAERTSU4BAAAAAQAAAAEAAAABAAAAAgAAAAEAAAAACAAAAAEAAAAKAAAAMQAuADIALgAwAC4AMQAwADEAMAABAAAAAwAAAAAAAABEU0lObAAAAKgBAAAA
        AAAAAQAAAGhzaW4BAAAAAAAAACA7190CLVtKvWPIjKqbw/t4AQAAAAAAAERTSU5sAAAAAQAAABgAAAAAAAAARFNJTgEAAAABAAAAAQAAAAEAAAACAAAAAQAAAAAAAAAI
        AAAATgBlAHcAUwBvAHUAbgBkAAcAAABuAG8AdAAgAHMAZQB0AAAAAAAAAAAAAAAAAAAAAAAAAAAAAAAAAAAAAAAAAAAAAAAAAAEAAAABAAAAAQAAAAMAAABGAE0AOAAA
        AAAAAAAAAAcAAAAHAAAAXABAAGMAbwBsAG8AcgABAAAAMAARAAAAXABAAGQAZQB2AGkAYwBlAHQAeQBwAGUAZgBsAGEAZwBzAAEAAAAxAAsAAABcAEAAcwBvAHUAbgBk
        AHQAeQBwAGUAAQAAADAABwAAAFwAQAB0AGUAbQBwAG8AAQAAADAABgAAAFwAQAB2AGUAcgBsAAUAAAAxAC4ANwAuADgABgAAAFwAQAB2AGUAcgBtAAUAAAAxAC4ANwAu
        ADgABwAAAFwAQAB2AGkAcwBpAGIAAQAAADAAAQAAAAAAAAACAAAARFNJTnkAAABoAAAAAAAAAAEAAABoc2luAQAAAAAAAABG64vCmumHRIQ9Mih2ujahOAAAAAAAAABE
        U0lOeQAAAAEAAAAYAAAAAAAAAERTSU4BAAAAAQAAAAEAAAABAAAAAQAAAAAAAAABAAAAAAAAAAEAAABEU0lOdAAAAHUDAAAAAAAAAQAAAGhzaW4BAAAAAAAAAMPiDYJz
        LJxOuWtBgMMVvqRFAwAAAAAAAERTSU50AAAAAQAAACwDAAAAAAAARFNJTnMAAAABAAAAGAAAAAAAAABEU0lOAQAAAAEAAAABAAAAAQAAAAG9DwAA8wIAAAK9DwBgAAAB
        IAUDaHNpbkAHQAAQHyRrBvAZSEqYrqFXTcEPPBhAFCAAA0RTSU5AI+AHA0AAQBsAbSAIAWkPIAQgAEAj4ANTEEkCYzKs2sVGp2B2wrYRj5w5oCfAN0Av4BdnQCMB8Q4g
        XCAAAAUgAwFjDCAEIAAIdHNycEU4TUbPIAsEvCMAAAcgBwZkZWZhdWx04BgKICoAP+ACAwNBAACAIA8AoCAH4AsAAPAgF0AfwAAAICAPwABgFwVAAABIQgDgBABAD0AD
        4BcfYAAge+AEA0AAwBPgAwBAE+AAAAPNzMw+IAwDP5qZGUAXwAPgABcgCuAHG0ATQADgBwdAACATYKtAACALYANAAEALQAAg42AAwA9AB0AD4AMAwA9AB0ADwABAC8AD
        QADAC8AHQADgAwtAAEAP4AMAIA/Bn8AHAMjhDnPgHwDgAO/gDgBAX0ADwABBz8H7QAtAAwCgIINAB0AAALQgCwCWIAPgAwDAP0AHQAPAAEAz4MdLIAAAAcAAIAuAAAAC
        wACADuAdAOAALAD+4B0v4CEAABTgISrgMADBA+AKAGBTgAXgAABChuAXA+AeAOD9WSBZIkBBUgH6Q0AH4FUMQ9VAZwH6Q6BnBYA/zLyMK+BVDOABACBnBAA/ZmZmYAPg
        YwwgAABwJOwB/kJAdCAA4D4MosLgAFaAAKBjgADgOAwgYwRwwgAAhmC6JliAA0BW4EEMIGPgAE3g8AAAUCAA4Of8AP/gFwAABEERCggyAwAAQDIAAAA8QikgAwHwQmLY
        AAEgAYLiIAcgAkKVgAagCSA3oAkgSKAJKxegCQAG4AAJKwSgEyAAoAmASKAGoBPgwk/gSwAAEaBUA2tuYWJBMcAAAYAAIAAAGaARA2N0bmlMiwERJ2FcTFBAAEocAaBC
        4hMPTInAH00bwAvg/QDgvQABIACAAANzaXVnQiQA6CNxwAAAKiAIABkgAyOYYAAj0mAAB2dwdGNZVE1FQAwLDWJlhQEAAAAAAAAAAQAAAAABAAAAAAAAAA==
        ADxkaXNhYmxlZD4AEAAAAA==
      >
      PRESETNAME <disabled>
      FLOATPOS 0 0 0 0
      FXID {A9E3B1F7-6CAD-B84B-BB87-01F1569FDD3E}
      WAK 0 0
    >
    <ITEM
      POSITION 51.42854399998402
      SNAPOFFS 0
      LENGTH 85.71424000001599
      LOOP 1
      ALLTAKES 0
      FADEIN 1 0 0 1 0 0
      FADEOUT 1 0 0 1 0 0
      MUTE 0 0
      SEL 0
      IGUID {A2EBC396-F021-D944-8C0D-18C81EC96A8E}
      IID 60
      NAME "mission brand tortilla strips.mid"
      VOLPAN 1 0 1 -1
      SOFFS 51.42854399998402 96
      PLAYRATE 1 1 0 -1 0 0.0025
      CHANMODE 0
      GUID {5395C066-9BE6-E343-B200-7982B317F854}
      <SOURCE MIDI
        HASDATA 1 128 QN
        CCINTERP 32
        POOLEDEVTS {D9115CFA-A2CF-1B41-A023-9B3C2D177F2A}
        E 12288 94 3a 35
        E 448 84 3a 35
        E 0 94 41 35
        E 192 84 41 35
        E 0 94 3a 35
        E 64 84 3a 35
        E 0 94 36 35
        E 0 94 35 35
        E 512 84 35 35
        E 0 94 42 35
        E 64 84 42 35
        E 0 94 36 35
        E 0 94 3a 35
        E 448 84 3a 35
        E 0 94 41 35
        E 192 84 41 35
        E 0 94 3a 35
        E 64 84 3a 35
        E 0 94 36 35
        E 0 94 35 35
        E 512 84 35 35
        E 0 94 42 35
        E 64 84 42 35
        E 0 94 36 35
        E 0 94 3a 35
        E 448 84 3a 35
        E 0 94 41 35
        E 192 84 41 35
        E 0 94 3a 35
        E 64 84 3a 35
        E 0 94 36 35
        E 0 94 35 35
        E 512 84 35 35
        E 0 94 42 35
        E 64 84 42 35
        E 0 94 36 35
        E 0 94 3a 35
        E 448 84 3a 35
        E 0 94 41 35
        E 192 84 41 35
        E 0 94 3a 35
        E 64 84 3a 35
        E 0 94 36 35
        E 0 94 35 35
        E 512 84 35 35
        E 0 94 42 35
        E 64 84 42 35
        E 0 94 36 35
        E 0 94 3a 35
        E 448 84 3a 35
        E 0 94 41 35
        E 192 84 41 35
        E 0 94 3a 35
        E 64 84 3a 35
        E 0 94 36 35
        E 0 94 35 35
        E 512 84 35 35
        E 0 94 42 35
        E 64 84 42 35
        E 0 94 36 35
        E 0 94 3a 35
        E 448 84 3a 35
        E 0 94 41 35
        E 192 84 41 35
        E 0 94 3a 35
        E 64 84 3a 35
        E 0 94 36 35
        E 0 94 35 35
        E 512 84 35 35
        E 0 94 42 35
        E 64 84 42 35
        E 0 94 36 35
        E 0 94 3a 35
        E 448 84 3a 35
        E 0 94 41 35
        E 192 84 41 35
        E 0 94 3a 35
        E 64 84 3a 35
        E 0 94 36 35
        E 0 94 35 35
        E 512 84 35 35
        E 0 94 42 35
        E 64 84 42 35
        E 0 94 36 35
        E 0 94 3a 35
        E 448 84 3a 35
        E 0 94 41 35
        E 192 84 41 35
        E 0 94 3a 35
        E 64 84 3a 35
        E 0 94 36 35
        E 0 94 35 35
        E 512 84 35 35
        E 0 94 42 35
        E 64 84 42 35
        E 0 94 36 35
        E 0 94 3a 35
        E 448 84 3a 35
        E 0 94 41 35
        E 192 84 41 35
        E 0 94 3a 35
        E 64 84 3a 35
        E 0 94 36 35
        E 0 94 35 35
        E 512 84 35 35
        E 0 94 42 35
        E 64 84 42 35
        E 0 94 36 35
        E 0 94 3a 35
        E 448 84 3a 35
        E 0 94 41 35
        E 192 84 41 35
        E 0 94 3a 35
        E 64 84 3a 35
        E 0 94 36 35
        E 0 94 35 35
        E 512 84 35 35
        E 0 94 42 35
        E 64 84 42 35
        E 0 94 36 35
        E 0 94 3a 35
        E 448 84 3a 35
        E 0 94 41 35
        E 192 84 41 35
        E 0 94 3a 35
        E 64 84 3a 35
        E 0 94 36 35
        E 0 94 35 35
        E 512 84 35 35
        E 0 94 42 35
        E 64 84 42 35
        E 0 94 36 35
        E 0 94 3a 35
        E 448 84 3a 35
        E 0 94 41 35
        E 192 84 41 35
        E 0 94 3a 35
        E 64 84 3a 35
        E 0 94 36 35
        E 0 94 35 35
        E 512 84 35 35
        E 0 94 42 35
        E 64 84 42 35
        E 0 94 36 35
        E 0 94 3a 35
        E 448 84 3a 35
        E 0 94 41 35
        E 192 84 41 35
        E 0 94 3a 35
        E 64 84 3a 35
        E 0 94 36 35
        E 0 94 35 35
        E 512 84 35 35
        E 0 94 42 35
        E 64 84 42 35
        E 0 94 36 35
        E 0 94 3a 35
        E 448 84 3a 35
        E 0 94 41 35
        E 192 84 41 35
        E 0 94 3a 35
        E 64 84 3a 35
        E 0 94 36 35
        E 0 94 35 35
        E 512 84 35 35
        E 0 94 42 35
        E 64 84 42 35
        E 0 94 36 35
        E 0 94 3a 35
        E 448 84 3a 35
        E 0 94 41 35
        E 192 84 41 35
        E 0 94 3a 35
        E 64 84 3a 35
        E 0 94 36 35
        E 0 94 35 35
        E 512 84 35 35
        E 0 94 42 35
        E 64 84 42 35
        E 0 94 36 35
        E 0 94 3a 35
        E 448 84 3a 35
        E 0 94 41 35
        E 192 84 41 35
        E 0 94 3a 35
        E 64 84 3a 35
        E 0 94 36 35
        E 0 94 35 35
        E 512 84 35 35
        E 0 94 42 35
        E 63 84 42 35
        E 0 94 36 35
        E 1 b0 7b 00
        CCINTERP 32
        CHASE_CC_TAKEOFFS 1
        GUID {BC75B8DD-7B07-1A4F-987E-06DDA1A4FFC3}
        IGNTEMPO 0 120 4 4
        SRCCOLOR 918
        VELLANE 3 156 0
        VELLANE -1 196 0
      >
    >
  >
  <TRACK {96380E75-7131-374F-A28B-DCFD291C608E}
    NAME "mission brand tortilla strips"
    PEAKCOL 16576
    BEAT -1
    AUTOMODE 0
    VOLPAN 1 0 -1 -1 1
    MUTESOLO 1 0 0
    IPHASE 0
    PLAYOFFS 0 1
    ISBUS 0 0
    BUSCOMP 0 0 0 0 0
    SHOWINMIX 1 0.6667 0.5 1 0.5 0 -1 0
    FREEMODE 0
    SEL 0
    REC 0 0 1 0 0 0 0
    VU 2
    TRACKHEIGHT 0 0 0 0 -1 0
    INQ 0 0 0 0.5 100 0 0 100
    NCHAN 2
    FX 1
    TRACKID {96380E75-7131-374F-A28B-DCFD291C608E}
    PERF 0
    MIDIOUT -1
    MAINSEND 1 0
    <FXCHAIN
      SHOW 0
      LASTSEL 0
      DOCKED 0
      BYPASS 0 0 0
      <VST "VSTi: FM8 (Native Instruments GmbH)" FM8.vst 0 "" 1315530296<5653544E696638666D38000000000000> ""
        OGZpTu5e7f4AAAAAAgAAAAEAAAAAAAAAAgAAAAAAAAAYBwAAAQAAAAAAEAA=
        GAcAAAAAAAABAAAAaHNpbgEAAAAAAAAAN455D8DDx0mHoN4j0l/0WZYAAAAAAAAARFNJTnYAAAABAAAASAAAAAAAAABEU0lOagAAAAEAAAAYAAAAAAAAAERTSU4BAAAA
        AQAAAAEAAAABAAAAAQAAAAEAAAAAAAAAAAAAAAAAAAANYmWFAQAAAAhwEAAAAAAAAQAAAAEAAAAAAAAAAAAAAAAAAAADAAAAMAAwADAAAAAAAAAAAAAAAAAAAAAAAAEA
        AAABAAAAAAAAAERTSU5lAAAARgYAAAAAAAABAAAAaHNpbgEAAAAAAAAAMOH4NwAUwEaoogAOyNUgkW0AAAAAAAAARFNJTmUAAAABAAAANAAAAAAAAABEU0lOagAAAAEA
        AAAYAAAAAAAAAERTSU4BAAAAAQAAAAEAAAABAAAAAgAAAAEAAAAACAAAAAEAAAAKAAAAMQAuADIALgAwAC4AMQAwADEAMAABAAAAAwAAAAAAAABEU0lObAAAAKgBAAAA
        AAAAAQAAAGhzaW4BAAAAAAAAACA7190CLVtKvWPIjKqbw/t4AQAAAAAAAERTSU5sAAAAAQAAABgAAAAAAAAARFNJTgEAAAABAAAAAQAAAAEAAAACAAAAAQAAAAAAAAAI
        AAAATgBlAHcAUwBvAHUAbgBkAAcAAABuAG8AdAAgAHMAZQB0AAAAAAAAAAAAAAAAAAAAAAAAAAAAAAAAAAAAAAAAAAAAAAAAAAEAAAABAAAAAQAAAAMAAABGAE0AOAAA
        AAAAAAAAAAcAAAAHAAAAXABAAGMAbwBsAG8AcgABAAAAMAARAAAAXABAAGQAZQB2AGkAYwBlAHQAeQBwAGUAZgBsAGEAZwBzAAEAAAAxAAsAAABcAEAAcwBvAHUAbgBk
        AHQAeQBwAGUAAQAAADAABwAAAFwAQAB0AGUAbQBwAG8AAQAAADAABgAAAFwAQAB2AGUAcgBsAAUAAAAxAC4ANwAuADgABgAAAFwAQAB2AGUAcgBtAAUAAAAxAC4ANwAu
        ADgABwAAAFwAQAB2AGkAcwBpAGIAAQAAADAAAQAAAAAAAAACAAAARFNJTnkAAABoAAAAAAAAAAEAAABoc2luAQAAAAAAAABG64vCmumHRIQ9Mih2ujahOAAAAAAAAABE
        U0lOeQAAAAEAAAAYAAAAAAAAAERTSU4BAAAAAQAAAAEAAAABAAAAAQAAAAAAAAABAAAAAAAAAAEAAABEU0lOdAAAAHUDAAAAAAAAAQAAAGhzaW4BAAAAAAAAAMPiDYJz
        LJxOuWtBgMMVvqRFAwAAAAAAAERTSU50AAAAAQAAACwDAAAAAAAARFNJTnMAAAABAAAAGAAAAAAAAABEU0lOAQAAAAEAAAABAAAAAQAAAAG9DwAA8wIAAAK9DwBgAAAB
        IAUDaHNpbkAHQAAQHyRrBvAZSEqYrqFXTcEPPBhAFCAAA0RTSU5AI+AHA0AAQBsAbSAIAWkPIAQgAEAj4ANTEEkCYzKs2sVGp2B2wrYRj5w5oCfAN0Av4BdnQCMB8Q4g
        XCAAAAUgAwFjDCAEIAAIdHNycEU4TUbPIAsEvCMAAAcgBwZkZWZhdWx04BgKICoAP+ACAwNBAACAIA8AoCAH4AsAAPAgF0AfwAAAICAPwABgFwVAAABIQgDgBABAD0AD
        4BcfYAAge+AEA0AAwBPgAwBAE+AAAAPNzMw+IAwDP5qZGUAXwAPgABcgCuAHG0ATQADgBwdAACATYKtAACALYANAAEALQAAg42AAwA9AB0AD4AMAwA9AB0ADwABAC8AD
        QADAC8AHQADgAwtAAEAP4AMAIA/Bn8AHAMjhDnPgHwDgAO/gDgBAX0ADwABBz8H7QAtAAwCgIINAB0AAALQgCwCWIAPgAwDAP0AHQAPAAEAz4MdLIAAAAcAAIAuAAAAC
        wACADuAdAOAALAD+4B0v4CEAABTgISrgMADBA+AKAGBTgAXgAABChuAXA+AeAOD9WSBZIkBBUgH6Q0AH4FUMQ9VAZwH6Q6BnBYA/zLyMK+BVDOABACBnBAA/ZmZmYAPg
        YwwgAABwJOwB/kJAdCAA4D4MosLgAFaAAKBjgADgOAwgYwRwwgAAhmC6JliAA0BW4EEMIGPgAE3g8AAAUCAA4Of8AP/gFwAABEERCggyAwAAQDIAAAA8QikgAwHwQmLY
        AAEgAYLiIAcgAkKVgAagCSA3oAkgSKAJKxegCQAG4AAJKwSgEyAAoAmASKAGoBPgwk/gSwAAEaBUA2tuYWJBMcAAAYAAIAAAGaARA2N0bmlMiwERJ2FcTFBAAEocAaBC
        4hMPTInAH00bwAvg/QDgvQABIACAAANzaXVnQiQA6CNxwAAAKiAIABkgAyOYYAAj0mAAB2dwdGNZVE1FQAwLDWJlhQEAAAAAAAAAAQAAAAABAAAAAAAAAA==
        ADxkaXNhYmxlZD4AEAAAAA==
      >
      PRESETNAME <disabled>
      FLOATPOS 32 559 948 504
      FXID {88A3E5FC-CF31-1749-9426-BC24CBDAFA5D}
      WAK 0 0
    >
    <ITEM
      POSITION 17.14284799999467
      SNAPOFFS 0
      LENGTH 5.35714000000533
      LOOP 1
      ALLTAKES 0
      FADEIN 1 0 0 1 0 0
      FADEOUT 1 0 0 1 0 0
      MUTE 0 0
      SEL 0
      IGUID {752998A9-2F33-8D40-A68C-9839EF8AF9FF}
      IID 61
      NAME "mission brand tortilla strips.mid"
      VOLPAN 1 0 1 -1
      SOFFS 17.14284799999467 32
      PLAYRATE 1 1 0 -1 0 0.0025
      CHANMODE 0
      GUID {92BF84E3-87C6-3244-B918-01766EC94EEA}
      <SOURCE MIDI
        HASDATA 1 128 QN
        CCINTERP 32
        POOLEDEVTS {2BD81697-2AF9-D44E-A5C6-22CA1D29220C}
        E 4096 95 41 35
        E 0 95 35 35
        E 896 85 35 35
        E 0 95 41 35
        E 383 85 41 35
        E 1 b0 7b 00
        CCINTERP 32
        CHASE_CC_TAKEOFFS 1
        GUID {B210B7BC-E9B5-4A43-B60F-5315E7D31698}
        IGNTEMPO 0 120 4 4
        SRCCOLOR 919
        VELLANE 3 156 0
        VELLANE -1 196 0
      >
    >
  >
  <TRACK {49AF16F6-C5F7-0741-9306-0BBEB4E2E348}
    NAME "mission brand tortilla strips"
    PEAKCOL 16576
    BEAT -1
    AUTOMODE 0
    VOLPAN 1 0 -1 -1 1
    MUTESOLO 1 0 0
    IPHASE 0
    PLAYOFFS 0 1
    ISBUS 0 0
    BUSCOMP 0 0 0 0 0
    SHOWINMIX 1 0.6667 0.5 1 0.5 0 -1 0
    FREEMODE 0
    SEL 0
    REC 0 0 1 0 0 0 0
    VU 2
    TRACKHEIGHT 0 0 0 0 -1 0
    INQ 0 0 0 0.5 100 0 0 100
    NCHAN 2
    FX 1
    TRACKID {49AF16F6-C5F7-0741-9306-0BBEB4E2E348}
    PERF 0
    MIDIOUT -1
    MAINSEND 1 0
    <FXCHAIN
      SHOW 0
      LASTSEL 0
      DOCKED 0
      BYPASS 0 0 0
      <VST "VSTi: FM8 (Native Instruments GmbH)" FM8.vst 0 "" 1315530296<5653544E696638666D38000000000000> ""
        OGZpTu5e7f4AAAAAAgAAAAEAAAAAAAAAAgAAAAAAAAAYBwAAAQAAAAAAEAA=
        GAcAAAAAAAABAAAAaHNpbgEAAAAAAAAAN455D8DDx0mHoN4j0l/0WZYAAAAAAAAARFNJTnYAAAABAAAASAAAAAAAAABEU0lOagAAAAEAAAAYAAAAAAAAAERTSU4BAAAA
        AQAAAAEAAAABAAAAAQAAAAEAAAAAAAAAAAAAAAAAAAANYmWFAQAAAAhwEAAAAAAAAQAAAAEAAAAAAAAAAAAAAAAAAAADAAAAMAAwADAAAAAAAAAAAAAAAAAAAAAAAAEA
        AAABAAAAAAAAAERTSU5lAAAARgYAAAAAAAABAAAAaHNpbgEAAAAAAAAAMOH4NwAUwEaoogAOyNUgkW0AAAAAAAAARFNJTmUAAAABAAAANAAAAAAAAABEU0lOagAAAAEA
        AAAYAAAAAAAAAERTSU4BAAAAAQAAAAEAAAABAAAAAgAAAAEAAAAACAAAAAEAAAAKAAAAMQAuADIALgAwAC4AMQAwADEAMAABAAAAAwAAAAAAAABEU0lObAAAAKgBAAAA
        AAAAAQAAAGhzaW4BAAAAAAAAACA7190CLVtKvWPIjKqbw/t4AQAAAAAAAERTSU5sAAAAAQAAABgAAAAAAAAARFNJTgEAAAABAAAAAQAAAAEAAAACAAAAAQAAAAAAAAAI
        AAAATgBlAHcAUwBvAHUAbgBkAAcAAABuAG8AdAAgAHMAZQB0AAAAAAAAAAAAAAAAAAAAAAAAAAAAAAAAAAAAAAAAAAAAAAAAAAEAAAABAAAAAQAAAAMAAABGAE0AOAAA
        AAAAAAAAAAcAAAAHAAAAXABAAGMAbwBsAG8AcgABAAAAMAARAAAAXABAAGQAZQB2AGkAYwBlAHQAeQBwAGUAZgBsAGEAZwBzAAEAAAAxAAsAAABcAEAAcwBvAHUAbgBk
        AHQAeQBwAGUAAQAAADAABwAAAFwAQAB0AGUAbQBwAG8AAQAAADAABgAAAFwAQAB2AGUAcgBsAAUAAAAxAC4ANwAuADgABgAAAFwAQAB2AGUAcgBtAAUAAAAxAC4ANwAu
        ADgABwAAAFwAQAB2AGkAcwBpAGIAAQAAADAAAQAAAAAAAAACAAAARFNJTnkAAABoAAAAAAAAAAEAAABoc2luAQAAAAAAAABG64vCmumHRIQ9Mih2ujahOAAAAAAAAABE
        U0lOeQAAAAEAAAAYAAAAAAAAAERTSU4BAAAAAQAAAAEAAAABAAAAAQAAAAAAAAABAAAAAAAAAAEAAABEU0lOdAAAAHUDAAAAAAAAAQAAAGhzaW4BAAAAAAAAAMPiDYJz
        LJxOuWtBgMMVvqRFAwAAAAAAAERTSU50AAAAAQAAACwDAAAAAAAARFNJTnMAAAABAAAAGAAAAAAAAABEU0lOAQAAAAEAAAABAAAAAQAAAAG9DwAA8wIAAAK9DwBgAAAB
        IAUDaHNpbkAHQAAQHyRrBvAZSEqYrqFXTcEPPBhAFCAAA0RTSU5AI+AHA0AAQBsAbSAIAWkPIAQgAEAj4ANTEEkCYzKs2sVGp2B2wrYRj5w5oCfAN0Av4BdnQCMB8Q4g
        XCAAAAUgAwFjDCAEIAAIdHNycEU4TUbPIAsEvCMAAAcgBwZkZWZhdWx04BgKICoAP+ACAwNBAACAIA8AoCAH4AsAAPAgF0AfwAAAICAPwABgFwVAAABIQgDgBABAD0AD
        4BcfYAAge+AEA0AAwBPgAwBAE+AAAAPNzMw+IAwDP5qZGUAXwAPgABcgCuAHG0ATQADgBwdAACATYKtAACALYANAAEALQAAg42AAwA9AB0AD4AMAwA9AB0ADwABAC8AD
        QADAC8AHQADgAwtAAEAP4AMAIA/Bn8AHAMjhDnPgHwDgAO/gDgBAX0ADwABBz8H7QAtAAwCgIINAB0AAALQgCwCWIAPgAwDAP0AHQAPAAEAz4MdLIAAAAcAAIAuAAAAC
        wACADuAdAOAALAD+4B0v4CEAABTgISrgMADBA+AKAGBTgAXgAABChuAXA+AeAOD9WSBZIkBBUgH6Q0AH4FUMQ9VAZwH6Q6BnBYA/zLyMK+BVDOABACBnBAA/ZmZmYAPg
        YwwgAABwJOwB/kJAdCAA4D4MosLgAFaAAKBjgADgOAwgYwRwwgAAhmC6JliAA0BW4EEMIGPgAE3g8AAAUCAA4Of8AP/gFwAABEERCggyAwAAQDIAAAA8QikgAwHwQmLY
        AAEgAYLiIAcgAkKVgAagCSA3oAkgSKAJKxegCQAG4AAJKwSgEyAAoAmASKAGoBPgwk/gSwAAEaBUA2tuYWJBMcAAAYAAIAAAGaARA2N0bmlMiwERJ2FcTFBAAEocAaBC
        4hMPTInAH00bwAvg/QDgvQABIACAAANzaXVnQiQA6CNxwAAAKiAIABkgAyOYYAAj0mAAB2dwdGNZVE1FQAwLDWJlhQEAAAAAAAAAAQAAAAABAAAAAAAAAA==
        ADxkaXNhYmxlZD4AEAAAAA==
      >
      PRESETNAME <disabled>
      FLOATPOS 0 0 0 0
      FXID {BEB1AB00-1203-0149-9E90-9C3F973D889E}
      WAK 0 0
    >
    <ITEM
      POSITION 0
      SNAPOFFS 0
      LENGTH 181.071332
      LOOP 1
      ALLTAKES 0
      FADEIN 1 0 0 1 0 0
      FADEOUT 1 0 0 1 0 0
      MUTE 0 0
      SEL 0
      IGUID {E98A67B7-CFCC-D448-A843-E84CFF9773DF}
      IID 7
      NAME "mission brand tortilla strips.mid"
      VOLPAN 1 0 1 -1
      SOFFS 0 0
      PLAYRATE 1 1 0 -1 0 0.0025
      CHANMODE 0
      GUID {2A940337-FFA5-4D48-8E63-CE22E6A783CD}
      <SOURCE MIDI
        HASDATA 1 128 QN
        CCINTERP 32
        POOLEDEVTS {72681E65-B55D-9F45-B3DE-38C73DA35E04}
        E 0 96 3a 35
        E 99 86 3a 35
        E 0 96 41 35
        E 42 86 41 35
        E 0 96 3a 35
        E 14 86 3a 35
        E 0 96 36 35
        E 0 96 35 35
        E 113 86 35 35
        E 0 96 42 35
        E 14 86 42 35
        E 0 96 36 35
        E 0 96 3a 35
        E 99 86 3a 35
        E 0 96 41 35
        E 42 86 41 35
        E 0 96 3a 35
        E 14 86 3a 35
        E 0 96 36 35
        E 0 96 35 35
        E 113 86 35 35
        E 0 96 42 35
        E 14 86 42 35
        E 0 96 36 35
        E 0 96 3a 35
        E 99 86 3a 35
        E 0 96 41 35
        E 42 86 41 35
        E 0 96 3a 35
        E 14 86 3a 35
        E 0 96 36 35
        E 0 96 35 35
        E 113 86 35 35
        E 0 96 42 35
        E 14 86 42 35
        E 0 96 36 35
        E 0 96 3a 35
        E 99 86 3a 35
        E 0 96 41 35
        E 42 86 41 35
        E 0 96 3a 35
        E 14 86 3a 35
        E 0 96 36 35
        E 0 96 35 35
        E 113 86 35 35
        E 0 96 42 35
        E 14 86 42 35
        E 0 96 36 35
        E 0 96 3a 35
        E 99 86 3a 35
        E 0 96 41 35
        E 42 86 41 35
        E 0 96 3a 35
        E 14 86 3a 35
        E 0 96 36 35
        E 0 96 35 35
        E 113 86 35 35
        E 0 96 42 35
        E 14 86 42 35
        E 0 96 36 35
        E 0 96 3a 35
        E 99 86 3a 35
        E 0 96 41 35
        E 42 86 41 35
        E 0 96 3a 35
        E 14 86 3a 35
        E 0 96 36 35
        E 0 96 35 35
        E 113 86 35 35
        E 0 96 42 35
        E 14 86 42 35
        E 0 96 36 35
        E 0 96 3a 35
        E 99 86 3a 35
        E 0 96 41 35
        E 42 86 41 35
        E 0 96 3a 35
        E 14 86 3a 35
        E 0 96 36 35
        E 0 96 35 35
        E 113 86 35 35
        E 0 96 42 35
        E 14 86 42 35
        E 0 96 36 35
        E 0 96 3a 35
        E 99 86 3a 35
        E 0 96 41 35
        E 42 86 41 35
        E 0 96 3a 35
        E 14 86 3a 35
        E 0 96 36 35
        E 0 96 35 35
        E 113 86 35 35
        E 0 96 42 35
        E 14 86 42 35
        E 0 96 36 35
        E 0 96 3a 35
        E 99 86 3a 35
        E 0 96 41 35
        E 42 86 41 35
        E 0 96 3a 35
        E 14 86 3a 35
        E 0 96 36 35
        E 0 96 35 35
        E 113 86 35 35
        E 0 96 42 35
        E 14 86 42 35
        E 0 96 36 35
        E 0 96 3a 35
        E 99 86 3a 35
        E 0 96 41 35
        E 42 86 41 35
        E 0 96 3a 35
        E 14 86 3a 35
        E 0 96 36 35
        E 0 96 35 35
        E 113 86 35 35
        E 0 96 42 35
        E 14 86 42 35
        E 0 96 36 35
        E 0 96 3a 35
        E 99 86 3a 35
        E 0 96 41 35
        E 42 86 41 35
        E 0 96 3a 35
        E 14 86 3a 35
        E 0 96 36 35
        E 0 96 35 35
        E 113 86 35 35
        E 0 96 42 35
        E 14 86 42 35
        E 0 96 36 35
        E 0 96 3a 35
        E 99 86 3a 35
        E 0 96 41 35
        E 42 86 41 35
        E 0 96 3a 35
        E 14 86 3a 35
        E 0 96 36 35
        E 0 96 35 35
        E 113 86 35 35
        E 0 96 42 35
        E 14 86 42 35
        E 0 96 36 35
        E 0 96 3a 35
        E 99 86 3a 35
        E 0 96 41 35
        E 42 86 41 35
        E 0 96 3a 35
        E 14 86 3a 35
        E 0 96 36 35
        E 0 96 35 35
        E 113 86 35 35
        E 0 96 42 35
        E 14 86 42 35
        E 0 96 36 35
        E 0 96 3a 35
        E 99 86 3a 35
        E 0 96 41 35
        E 42 86 41 35
        E 0 96 3a 35
        E 14 86 3a 35
        E 0 96 36 35
        E 0 96 35 35
        E 113 86 35 35
        E 0 96 42 35
        E 14 86 42 35
        E 0 96 36 35
        E 0 96 3a 35
        E 99 86 3a 35
        E 0 96 41 35
        E 42 86 41 35
        E 0 96 3a 35
        E 14 86 3a 35
        E 0 96 36 35
        E 0 96 35 35
        E 113 86 35 35
        E 0 96 42 35
        E 14 86 42 35
        E 0 96 36 35
        E 0 96 3a 35
        E 99 86 3a 35
        E 0 96 41 35
        E 42 86 41 35
        E 0 96 3a 35
        E 14 86 3a 35
        E 0 96 36 35
        E 0 96 35 35
        E 113 86 35 35
        E 0 96 42 35
        E 14 86 42 35
        E 0 96 36 35
        E 0 96 3a 35
        E 99 86 3a 35
        E 0 96 41 35
        E 42 86 41 35
        E 0 96 3a 35
        E 14 86 3a 35
        E 0 96 36 35
        E 0 96 35 35
        E 113 86 35 35
        E 0 96 42 35
        E 14 86 42 35
        E 0 96 36 35
        E 0 96 3a 35
        E 99 86 3a 35
        E 0 96 41 35
        E 42 86 41 35
        E 0 96 3a 35
        E 14 86 3a 35
        E 0 96 36 35
        E 0 96 35 35
        E 113 86 35 35
        E 0 96 42 35
        E 14 86 42 35
        E 0 96 36 35
        E 0 96 3a 35
        E 99 86 3a 35
        E 0 96 41 35
        E 42 86 41 35
        E 0 96 3a 35
        E 14 86 3a 35
        E 0 96 36 35
        E 0 96 35 35
        E 113 86 35 35
        E 0 96 42 35
        E 14 86 42 35
        E 0 96 36 35
        E 0 96 3a 35
        E 99 86 3a 35
        E 0 96 41 35
        E 42 86 41 35
        E 0 96 3a 35
        E 14 86 3a 35
        E 0 96 36 35
        E 0 96 35 35
        E 113 86 35 35
        E 0 96 42 35
        E 14 86 42 35
        E 0 96 36 35
        E 0 96 3a 35
        E 99 86 3a 35
        E 0 96 41 35
        E 42 86 41 35
        E 0 96 3a 35
        E 14 86 3a 35
        E 0 96 36 35
        E 0 96 35 35
        E 113 86 35 35
        E 0 96 42 35
        E 14 86 42 35
        E 0 96 36 35
        E 0 96 3a 35
        E 99 86 3a 35
        E 0 96 41 35
        E 42 86 41 35
        E 0 96 3a 35
        E 14 86 3a 35
        E 0 96 36 35
        E 0 96 35 35
        E 113 86 35 35
        E 0 96 42 35
        E 14 86 42 35
        E 0 96 36 35
        E 0 96 3a 35
        E 99 86 3a 35
        E 0 96 41 35
        E 42 86 41 35
        E 0 96 3a 35
        E 14 86 3a 35
        E 0 96 36 35
        E 0 96 35 35
        E 113 86 35 35
        E 0 96 42 35
        E 14 86 42 35
        E 0 96 36 35
        E 0 96 3a 35
        E 99 86 3a 35
        E 0 96 41 35
        E 42 86 41 35
        E 0 96 3a 35
        E 14 86 3a 35
        E 0 96 36 35
        E 0 96 35 35
        E 113 86 35 35
        E 0 96 42 35
        E 14 86 42 35
        E 0 96 36 35
        E 0 96 3a 35
        E 99 86 3a 35
        E 0 96 41 35
        E 42 86 41 35
        E 0 96 3a 35
        E 14 86 3a 35
        E 0 96 36 35
        E 0 96 35 35
        E 113 86 35 35
        E 0 96 42 35
        E 14 86 42 35
        E 0 96 36 35
        E 0 96 3a 35
        E 99 86 3a 35
        E 0 96 41 35
        E 42 86 41 35
        E 0 96 3a 35
        E 14 86 3a 35
        E 0 96 36 35
        E 0 96 35 35
        E 113 86 35 35
        E 0 96 42 35
        E 14 86 42 35
        E 0 96 36 35
        E 0 96 3a 35
        E 99 86 3a 35
        E 0 96 41 35
        E 42 86 41 35
        E 0 96 3a 35
        E 14 86 3a 35
        E 0 96 36 35
        E 0 96 35 35
        E 113 86 35 35
        E 0 96 42 35
        E 14 86 42 35
        E 0 96 36 35
        E 0 96 3a 35
        E 14 86 3a 35
        E 0 96 36 35
        E 0 96 35 35
        E 113 86 35 35
        E 0 96 42 35
        E 14 86 42 35
        E 0 96 36 35
        E 0 96 35 35
        E 42 86 35 35
        E 0 96 3a 35
        E 99 86 3a 35
        E 0 96 3a 35
        E 14 86 3a 35
        E 0 96 36 35
        E 0 96 35 35
        E 113 86 35 35
        E 0 96 42 35
        E 14 86 42 35
        E 0 96 36 35
        E 0 96 35 35
        E 42 86 35 35
        E 0 96 3a 35
        E 99 86 3a 35
        E 0 96 3a 35
        E 14 86 3a 35
        E 0 96 36 35
        E 0 96 35 35
        E 113 86 35 35
        E 0 96 42 35
        E 14 86 42 35
        E 0 96 36 35
        E 0 96 35 35
        E 42 86 35 35
        E 0 96 3a 35
        E 99 86 3a 35
        E 0 96 3a 35
        E 14 86 3a 35
        E 0 96 36 35
        E 0 96 35 35
        E 113 86 35 35
        E 0 96 42 35
        E 14 86 42 35
        E 0 96 36 35
        E 0 96 35 35
        E 42 86 35 35
        E 0 96 3a 35
        E 99 86 3a 35
        E 0 96 3a 35
        E 14 86 3a 35
        E 0 96 36 35
        E 0 96 35 35
        E 113 86 35 35
        E 0 96 42 35
        E 14 86 42 35
        E 0 96 36 35
        E 0 96 35 35
        E 42 86 35 35
        E 0 96 3a 35
        E 99 86 3a 35
        E 0 96 3a 35
        E 14 86 3a 35
        E 0 96 36 35
        E 0 96 35 35
        E 113 86 35 35
        E 0 96 42 35
        E 14 86 42 35
        E 0 96 36 35
        E 0 96 35 35
        E 42 86 35 35
        E 0 96 3a 35
        E 99 86 3a 35
        E 0 96 3a 35
        E 14 86 3a 35
        E 0 96 36 35
        E 0 96 35 35
        E 113 86 35 35
        E 0 96 42 35
        E 14 86 42 35
        E 0 96 36 35
        E 0 96 35 35
        E 42 86 35 35
        E 0 96 3a 35
        E 99 86 3a 35
        E 0 96 3a 35
        E 14 86 3a 35
        E 0 96 36 35
        E 0 96 35 35
        E 113 86 35 35
        E 0 96 42 35
        E 14 86 42 35
        E 0 96 36 35
        E 0 96 35 35
        E 42 86 35 35
        E 0 96 3a 35
        E 99 86 3a 35
        E 0 96 3a 35
        E 14 86 3a 35
        E 0 96 36 35
        E 0 96 35 35
        E 113 86 35 35
        E 0 96 42 35
        E 14 86 42 35
        E 0 96 36 35
        E 0 96 35 35
        E 42 86 35 35
        E 0 96 3a 35
        E 99 86 3a 35
        E 0 96 3a 35
        E 14 86 3a 35
        E 0 96 36 35
        E 0 96 35 35
        E 113 86 35 35
        E 0 96 42 35
        E 14 86 42 35
        E 0 96 36 35
        E 0 96 35 35
        E 42 86 35 35
        E 0 96 3a 35
        E 99 86 3a 35
        E 0 96 3a 35
        E 14 86 3a 35
        E 0 96 36 35
        E 0 96 35 35
        E 113 86 35 35
        E 0 96 42 35
        E 14 86 42 35
        E 0 96 36 35
        E 0 96 35 35
        E 42 86 35 35
        E 0 96 3a 35
        E 99 86 3a 35
        E 0 96 3a 35
        E 14 86 3a 35
        E 0 96 36 35
        E 0 96 35 35
        E 113 86 35 35
        E 0 96 42 35
        E 14 86 42 35
        E 0 96 36 35
        E 0 96 35 35
        E 42 86 35 35
        E 0 96 3a 35
        E 99 86 3a 35
        E 0 96 3a 35
        E 14 86 3a 35
        E 0 96 36 35
        E 0 96 35 35
        E 113 86 35 35
        E 0 96 42 35
        E 14 86 42 35
        E 0 96 36 35
        E 0 96 35 35
        E 42 86 35 35
        E 0 96 3a 35
        E 99 86 3a 35
        E 0 96 3a 35
        E 14 86 3a 35
        E 0 96 36 35
        E 0 96 35 35
        E 113 86 35 35
        E 0 96 42 35
        E 14 86 42 35
        E 0 96 36 35
        E 0 96 35 35
        E 42 86 35 35
        E 0 96 3a 35
        E 99 86 3a 35
        E 0 96 3a 35
        E 14 86 3a 35
        E 0 96 36 35
        E 0 96 35 35
        E 113 86 35 35
        E 0 96 42 35
        E 14 86 42 35
        E 0 96 36 35
        E 0 96 35 35
        E 42 86 35 35
        E 0 96 3a 35
        E 99 86 3a 35
        E 0 96 3a 35
        E 14 86 3a 35
        E 0 96 36 35
        E 0 96 35 35
        E 113 86 35 35
        E 0 96 42 35
        E 14 86 42 35
        E 0 96 36 35
        E 0 96 35 35
        E 42 86 35 35
        E 0 96 3a 35
        E 99 86 3a 35
        E 0 96 3a 35
        E 14 86 3a 35
        E 0 96 36 35
        E 0 96 35 35
        E 113 86 35 35
        E 0 96 42 35
        E 14 86 42 35
        E 0 96 36 35
        E 0 96 35 35
        E 42 86 35 35
        E 0 96 3a 35
        E 99 86 3a 35
        E 0 96 3a 35
        E 14 86 3a 35
        E 0 96 36 35
        E 0 96 35 35
        E 113 86 35 35
        E 0 96 42 35
        E 14 86 42 35
        E 0 96 36 35
        E 0 96 35 35
        E 42 86 35 35
        E 0 96 3a 35
        E 99 86 3a 35
        E 0 96 3a 35
        E 14 86 3a 35
        E 0 96 36 35
        E 0 96 35 35
        E 113 86 35 35
        E 0 96 42 35
        E 14 86 42 35
        E 0 96 36 35
        E 0 96 35 35
        E 42 86 35 35
        E 0 96 3a 35
        E 99 86 3a 35
        E 0 96 3a 35
        E 14 86 3a 35
        E 0 96 36 35
        E 0 96 35 35
        E 113 86 35 35
        E 0 96 42 35
        E 14 86 42 35
        E 0 96 36 35
        E 0 96 35 35
        E 42 86 35 35
        E 0 96 3a 35
        E 99 86 3a 35
        E 0 96 3a 35
        E 14 86 3a 35
        E 0 96 36 35
        E 0 96 35 35
        E 113 86 35 35
        E 0 96 42 35
        E 14 86 42 35
        E 0 96 36 35
        E 0 96 35 35
        E 42 86 35 35
        E 0 96 3a 35
        E 99 86 3a 35
        E 0 96 3a 35
        E 14 86 3a 35
        E 0 96 36 35
        E 0 96 35 35
        E 113 86 35 35
        E 0 96 42 35
        E 14 86 42 35
        E 0 96 36 35
        E 0 96 35 35
        E 42 86 35 35
        E 0 96 3a 35
        E 99 86 3a 35
        E 0 96 3a 35
        E 14 86 3a 35
        E 0 96 36 35
        E 0 96 35 35
        E 113 86 35 35
        E 0 96 42 35
        E 14 86 42 35
        E 0 96 36 35
        E 0 96 35 35
        E 42 86 35 35
        E 0 96 3a 35
        E 99 86 3a 35
        E 0 96 3a 35
        E 14 86 3a 35
        E 0 96 36 35
        E 0 96 35 35
        E 113 86 35 35
        E 0 96 42 35
        E 14 86 42 35
        E 0 96 36 35
        E 0 96 35 35
        E 42 86 35 35
        E 0 96 3a 35
        E 99 86 3a 35
        E 0 96 3a 35
        E 14 86 3a 35
        E 0 96 36 35
        E 0 96 35 35
        E 113 86 35 35
        E 0 96 42 35
        E 14 86 42 35
        E 0 96 36 35
        E 0 96 35 35
        E 42 86 35 35
        E 0 96 3a 35
        E 99 86 3a 35
        E 0 96 3a 35
        E 14 86 3a 35
        E 0 96 36 35
        E 0 96 35 35
        E 113 86 35 35
        E 0 96 42 35
        E 14 86 42 35
        E 0 96 36 35
        E 0 96 35 35
        E 42 86 35 35
        E 0 96 3a 35
        E 99 86 3a 35
        E 0 96 3a 35
        E 14 86 3a 35
        E 0 96 36 35
        E 0 96 35 35
        E 113 86 35 35
        E 0 96 42 35
        E 14 86 42 35
        E 0 96 36 35
        E 0 96 35 35
        E 42 86 35 35
        E 0 96 3a 35
        E 99 86 3a 35
        E 0 96 3a 35
        E 14 86 3a 35
        E 0 96 36 35
        E 0 96 35 35
        E 113 86 35 35
        E 0 96 42 35
        E 14 86 42 35
        E 0 96 36 35
        E 0 96 35 35
        E 42 86 35 35
        E 0 96 3a 35
        E 99 86 3a 35
        E 0 96 3a 35
        E 14 86 3a 35
        E 0 96 36 35
        E 0 96 35 35
        E 113 86 35 35
        E 0 96 42 35
        E 14 86 42 35
        E 0 96 36 35
        E 0 96 35 35
        E 42 86 35 35
        E 0 96 3a 35
        E 99 86 3a 35
        E 0 96 3a 35
        E 14 86 3a 35
        E 0 96 36 35
        E 0 96 35 35
        E 113 86 35 35
        E 0 96 42 35
        E 14 86 42 35
        E 0 96 36 35
        E 0 96 35 35
        E 42 86 35 35
        E 0 96 3a 35
        E 99 86 3a 35
        E 0 96 3a 35
        E 14 86 3a 35
        E 0 96 36 35
        E 0 96 35 35
        E 113 86 35 35
        E 0 96 42 35
        E 14 86 42 35
        E 0 96 36 35
        E 0 96 35 35
        E 42 86 35 35
        E 0 96 3a 35
        E 99 86 3a 35
        E 0 96 3a 35
        E 14 86 3a 35
        E 0 96 36 35
        E 0 96 35 35
        E 113 86 35 35
        E 0 96 42 35
        E 14 86 42 35
        E 0 96 36 35
        E 0 96 35 35
        E 42 86 35 35
        E 0 96 3a 35
        E 99 86 3a 35
        E 0 96 3a 35
        E 14 86 3a 35
        E 0 96 36 35
        E 0 96 35 35
        E 113 86 35 35
        E 0 96 42 35
        E 14 86 42 35
        E 0 96 36 35
        E 0 96 35 35
        E 42 86 35 35
        E 0 96 3a 35
        E 99 86 3a 35
        E 0 96 3a 35
        E 14 86 3a 35
        E 0 96 36 35
        E 0 96 35 35
        E 113 86 35 35
        E 0 96 42 35
        E 14 86 42 35
        E 0 96 36 35
        E 0 96 35 35
        E 42 86 35 35
        E 0 96 3a 35
        E 99 86 3a 35
        E 0 96 3a 35
        E 14 86 3a 35
        E 0 96 36 35
        E 0 96 35 35
        E 113 86 35 35
        E 0 96 42 35
        E 14 86 42 35
        E 0 96 36 35
        E 0 96 35 35
        E 42 86 35 35
        E 0 96 3a 35
        E 99 86 3a 35
        E 0 96 3a 35
        E 14 86 3a 35
        E 0 96 36 35
        E 0 96 35 35
        E 113 86 35 35
        E 0 96 42 35
        E 14 86 42 35
        E 0 96 36 35
        E 0 96 35 35
        E 42 86 35 35
        E 0 96 3a 35
        E 99 86 3a 35
        E 0 96 3a 35
        E 14 86 3a 35
        E 0 96 36 35
        E 0 96 35 35
        E 113 86 35 35
        E 0 96 42 35
        E 14 86 42 35
        E 0 96 36 35
        E 0 96 35 35
        E 42 86 35 35
        E 0 96 3a 35
        E 99 86 3a 35
        E 0 96 3a 35
        E 14 86 3a 35
        E 0 96 36 35
        E 0 96 35 35
        E 113 86 35 35
        E 0 96 42 35
        E 14 86 42 35
        E 0 96 36 35
        E 0 96 35 35
        E 42 86 35 35
        E 0 96 3a 35
        E 99 86 3a 35
        E 0 96 3a 35
        E 14 86 3a 35
        E 0 96 36 35
        E 0 96 35 35
        E 113 86 35 35
        E 0 96 42 35
        E 14 86 42 35
        E 0 96 36 35
        E 0 96 35 35
        E 42 86 35 35
        E 0 96 3a 35
        E 99 86 3a 35
        E 0 96 3a 35
        E 14 86 3a 35
        E 0 96 36 35
        E 0 96 35 35
        E 113 86 35 35
        E 0 96 42 35
        E 14 86 42 35
        E 0 96 36 35
        E 0 96 35 35
        E 42 86 35 35
        E 0 96 3a 35
        E 99 86 3a 35
        E 0 96 3a 35
        E 14 86 3a 35
        E 0 96 36 35
        E 0 96 35 35
        E 113 86 35 35
        E 0 96 42 35
        E 14 86 42 35
        E 0 96 36 35
        E 0 96 35 35
        E 42 86 35 35
        E 0 96 3a 35
        E 99 86 3a 35
        E 0 96 3a 35
        E 14 86 3a 35
        E 0 96 36 35
        E 0 96 35 35
        E 113 86 35 35
        E 0 96 42 35
        E 14 86 42 35
        E 0 96 36 35
        E 0 96 35 35
        E 42 86 35 35
        E 0 96 3a 35
        E 99 86 3a 35
        E 0 96 3a 35
        E 14 86 3a 35
        E 0 96 36 35
        E 0 96 35 35
        E 113 86 35 35
        E 0 96 42 35
        E 14 86 42 35
        E 0 96 36 35
        E 0 96 35 35
        E 42 86 35 35
        E 0 96 3a 35
        E 99 86 3a 35
        E 0 96 3a 35
        E 14 86 3a 35
        E 0 96 36 35
        E 0 96 35 35
        E 113 86 35 35
        E 0 96 42 35
        E 14 86 42 35
        E 0 96 36 35
        E 0 96 35 35
        E 42 86 35 35
        E 0 96 3a 35
        E 99 86 3a 35
        E 0 96 3a 35
        E 14 86 3a 35
        E 0 96 36 35
        E 0 96 35 35
        E 113 86 35 35
        E 0 96 42 35
        E 14 86 42 35
        E 0 96 36 35
        E 0 96 35 35
        E 42 86 35 35
        E 0 96 3a 35
        E 99 86 3a 35
        E 0 96 3a 35
        E 14 86 3a 35
        E 0 96 36 35
        E 0 96 35 35
        E 113 86 35 35
        E 0 96 42 35
        E 14 86 42 35
        E 0 96 36 35
        E 0 96 35 35
        E 42 86 35 35
        E 0 96 3a 35
        E 99 86 3a 35
        E 0 96 3a 35
        E 14 86 3a 35
        E 0 96 36 35
        E 0 96 35 35
        E 113 86 35 35
        E 0 96 42 35
        E 14 86 42 35
        E 0 96 36 35
        E 0 96 35 35
        E 42 86 35 35
        E 0 96 3a 35
        E 99 86 3a 35
        E 0 96 3a 35
        E 14 86 3a 35
        E 0 96 36 35
        E 0 96 35 35
        E 113 86 35 35
        E 0 96 42 35
        E 14 86 42 35
        E 0 96 36 35
        E 0 96 35 35
        E 42 86 35 35
        E 0 96 3a 35
        E 99 86 3a 35
        E 0 96 3a 35
        E 14 86 3a 35
        E 0 96 36 35
        E 0 96 35 35
        E 113 86 35 35
        E 0 96 42 35
        E 14 86 42 35
        E 0 96 36 35
        E 0 96 35 35
        E 42 86 35 35
        E 0 96 3a 35
        E 99 86 3a 35
        E 0 96 3a 35
        E 14 86 3a 35
        E 0 96 36 35
        E 0 96 35 35
        E 113 86 35 35
        E 0 96 42 35
        E 14 86 42 35
        E 0 96 36 35
        E 0 96 35 35
        E 42 86 35 35
        E 0 96 3a 35
        E 99 86 3a 35
        E 0 96 3a 35
        E 14 86 3a 35
        E 0 96 36 35
        E 0 96 35 35
        E 113 86 35 35
        E 0 96 42 35
        E 14 86 42 35
        E 0 96 36 35
        E 0 96 35 35
        E 42 86 35 35
        E 0 96 3a 35
        E 99 86 3a 35
        E 0 96 3a 35
        E 14 86 3a 35
        E 0 96 36 35
        E 0 96 35 35
        E 113 86 35 35
        E 0 96 42 35
        E 14 86 42 35
        E 0 96 36 35
        E 0 96 35 35
        E 42 86 35 35
        E 0 96 3a 35
        E 99 86 3a 35
        E 0 96 3a 35
        E 14 86 3a 35
        E 0 96 36 35
        E 0 96 35 35
        E 113 86 35 35
        E 0 96 42 35
        E 14 86 42 35
        E 0 96 36 35
        E 0 96 35 35
        E 42 86 35 35
        E 0 96 3a 35
        E 99 86 3a 35
        E 0 96 3a 35
        E 14 86 3a 35
        E 0 96 36 35
        E 0 96 35 35
        E 113 86 35 35
        E 0 96 42 35
        E 14 86 42 35
        E 0 96 36 35
        E 0 96 35 35
        E 42 86 35 35
        E 0 96 3a 35
        E 99 86 3a 35
        E 0 96 3a 35
        E 14 86 3a 35
        E 0 96 36 35
        E 0 96 35 35
        E 113 86 35 35
        E 0 96 42 35
        E 14 86 42 35
        E 0 96 36 35
        E 0 96 35 35
        E 42 86 35 35
        E 0 96 3a 35
        E 99 86 3a 35
        E 0 96 3a 35
        E 14 86 3a 35
        E 0 96 36 35
        E 0 96 35 35
        E 113 86 35 35
        E 0 96 42 35
        E 14 86 42 35
        E 0 96 36 35
        E 0 96 35 35
        E 42 86 35 35
        E 0 96 3a 35
        E 99 86 3a 35
        E 0 96 3a 35
        E 14 86 3a 35
        E 0 96 36 35
        E 0 96 35 35
        E 113 86 35 35
        E 0 96 42 35
        E 14 86 42 35
        E 0 96 36 35
        E 0 96 35 35
        E 42 86 35 35
        E 0 96 3a 35
        E 99 86 3a 35
        E 0 96 3a 35
        E 14 86 3a 35
        E 0 96 36 35
        E 0 96 35 35
        E 113 86 35 35
        E 0 96 42 35
        E 14 86 42 35
        E 0 96 36 35
        E 0 96 35 35
        E 42 86 35 35
        E 0 96 3a 35
        E 99 86 3a 35
        E 0 96 3a 35
        E 14 86 3a 35
        E 0 96 36 35
        E 0 96 35 35
        E 113 86 35 35
        E 0 96 42 35
        E 14 86 42 35
        E 0 96 36 35
        E 0 96 35 35
        E 42 86 35 35
        E 0 96 3a 35
        E 99 86 3a 35
        E 0 96 3a 35
        E 14 86 3a 35
        E 0 96 36 35
        E 0 96 35 35
        E 113 86 35 35
        E 0 96 42 35
        E 14 86 42 35
        E 0 96 36 35
        E 0 96 35 35
        E 42 86 35 35
        E 0 96 3a 35
        E 99 86 3a 35
        E 0 96 3a 35
        E 14 86 3a 35
        E 0 96 36 35
        E 0 96 35 35
        E 113 86 35 35
        E 0 96 42 35
        E 14 86 42 35
        E 0 96 36 35
        E 0 96 35 35
        E 42 86 35 35
        E 0 96 3a 35
        E 99 86 3a 35
        E 0 96 3a 35
        E 14 86 3a 35
        E 0 96 36 35
        E 0 96 35 35
        E 113 86 35 35
        E 0 96 42 35
        E 14 86 42 35
        E 0 96 36 35
        E 0 96 35 35
        E 42 86 35 35
        E 0 96 3a 35
        E 99 86 3a 35
        E 0 96 3a 35
        E 14 86 3a 35
        E 0 96 36 35
        E 0 96 35 35
        E 113 86 35 35
        E 0 96 42 35
        E 14 86 42 35
        E 0 96 36 35
        E 0 96 35 35
        E 42 86 35 35
        E 0 96 3a 35
        E 99 86 3a 35
        E 0 96 3a 35
        E 99 86 3a 35
        E 0 96 41 35
        E 42 86 41 35
        E 0 96 3a 35
        E 14 86 3a 35
        E 0 96 36 35
        E 0 96 35 35
        E 113 86 35 35
        E 0 96 42 35
        E 14 86 42 35
        E 0 96 36 35
        E 0 96 3a 35
        E 99 86 3a 35
        E 0 96 41 35
        E 42 86 41 35
        E 0 96 3a 35
        E 14 86 3a 35
        E 0 96 36 35
        E 0 96 35 35
        E 113 86 35 35
        E 0 96 42 35
        E 14 86 42 35
        E 0 96 36 35
        E 0 96 3a 35
        E 99 86 3a 35
        E 0 96 41 35
        E 42 86 41 35
        E 0 96 3a 35
        E 14 86 3a 35
        E 0 96 36 35
        E 0 96 35 35
        E 113 86 35 35
        E 0 96 42 35
        E 14 86 42 35
        E 0 96 36 35
        E 0 96 3a 35
        E 99 86 3a 35
        E 0 96 41 35
        E 42 86 41 35
        E 0 96 3a 35
        E 14 86 3a 35
        E 0 96 36 35
        E 0 96 35 35
        E 113 86 35 35
        E 0 96 42 35
        E 14 86 42 35
        E 0 96 36 35
        E 0 96 3a 35
        E 99 86 3a 35
        E 0 96 41 35
        E 42 86 41 35
        E 0 96 3a 35
        E 14 86 3a 35
        E 0 96 36 35
        E 0 96 35 35
        E 113 86 35 35
        E 0 96 42 35
        E 14 86 42 35
        E 0 96 36 35
        E 0 96 3a 35
        E 99 86 3a 35
        E 0 96 41 35
        E 42 86 41 35
        E 0 96 3a 35
        E 14 86 3a 35
        E 0 96 36 35
        E 0 96 35 35
        E 113 86 35 35
        E 0 96 42 35
        E 14 86 42 35
        E 0 96 36 35
        E 0 96 3a 35
        E 99 86 3a 35
        E 0 96 41 35
        E 42 86 41 35
        E 0 96 3a 35
        E 14 86 3a 35
        E 0 96 36 35
        E 0 96 35 35
        E 113 86 35 35
        E 0 96 42 35
        E 14 86 42 35
        E 0 96 36 35
        E 0 96 3a 35
        E 99 86 3a 35
        E 0 96 41 35
        E 42 86 41 35
        E 0 96 3a 35
        E 14 86 3a 35
        E 0 96 36 35
        E 0 96 35 35
        E 113 86 35 35
        E 0 96 42 35
        E 14 86 42 35
        E 0 96 36 35
        E 0 96 3a 35
        E 99 86 3a 35
        E 0 96 41 35
        E 42 86 41 35
        E 0 96 3a 35
        E 14 86 3a 35
        E 0 96 36 35
        E 0 96 35 35
        E 113 86 35 35
        E 0 96 42 35
        E 14 86 42 35
        E 0 96 36 35
        E 0 96 3a 35
        E 99 86 3a 35
        E 0 96 41 35
        E 42 86 41 35
        E 0 96 3a 35
        E 14 86 3a 35
        E 0 96 36 35
        E 0 96 35 35
        E 113 86 35 35
        E 0 96 42 35
        E 14 86 42 35
        E 0 96 36 35
        E 0 96 3a 35
        E 99 86 3a 35
        E 0 96 41 35
        E 42 86 41 35
        E 0 96 3a 35
        E 14 86 3a 35
        E 0 96 36 35
        E 0 96 35 35
        E 113 86 35 35
        E 0 96 42 35
        E 14 86 42 35
        E 0 96 36 35
        E 0 96 3a 35
        E 99 86 3a 35
        E 0 96 41 35
        E 42 86 41 35
        E 0 96 3a 35
        E 14 86 3a 35
        E 0 96 36 35
        E 0 96 35 35
        E 113 86 35 35
        E 0 96 42 35
        E 14 86 42 35
        E 0 96 36 35
        E 0 96 3a 35
        E 99 86 3a 35
        E 0 96 41 35
        E 42 86 41 35
        E 0 96 3a 35
        E 14 86 3a 35
        E 0 96 36 35
        E 0 96 35 35
        E 113 86 35 35
        E 0 96 42 35
        E 14 86 42 35
        E 0 96 36 35
        E 0 96 3a 35
        E 99 86 3a 35
        E 0 96 41 35
        E 42 86 41 35
        E 0 96 3a 35
        E 14 86 3a 35
        E 0 96 36 35
        E 0 96 35 35
        E 113 86 35 35
        E 0 96 42 35
        E 14 86 42 35
        E 0 96 36 35
        E 0 96 3a 35
        E 99 86 3a 35
        E 0 96 41 35
        E 42 86 41 35
        E 0 96 3a 35
        E 14 86 3a 35
        E 0 96 36 35
        E 0 96 35 35
        E 113 86 35 35
        E 0 96 42 35
        E 14 86 42 35
        E 0 96 36 35
        E 0 96 3a 35
        E 99 86 3a 35
        E 0 96 41 35
        E 42 86 41 35
        E 0 96 3a 35
        E 14 86 3a 35
        E 0 96 36 35
        E 0 96 35 35
        E 113 86 35 35
        E 0 96 42 35
        E 14 86 42 35
        E 0 96 36 35
        E 0 96 3a 35
        E 99 86 3a 35
        E 0 96 41 35
        E 42 86 41 35
        E 0 96 3a 35
        E 14 86 3a 35
        E 0 96 36 35
        E 0 96 35 35
        E 113 86 35 35
        E 0 96 42 35
        E 14 86 42 35
        E 0 96 36 35
        E 0 96 3a 35
        E 99 86 3a 35
        E 0 96 41 35
        E 42 86 41 35
        E 0 96 3a 35
        E 14 86 3a 35
        E 0 96 36 35
        E 0 96 35 35
        E 113 86 35 35
        E 0 96 42 35
        E 14 86 42 35
        E 0 96 36 35
        E 0 96 3a 35
        E 99 86 3a 35
        E 0 96 41 35
        E 42 86 41 35
        E 0 96 3a 35
        E 14 86 3a 35
        E 0 96 36 35
        E 0 96 35 35
        E 113 86 35 35
        E 0 96 42 35
        E 14 86 42 35
        E 0 96 36 35
        E 0 96 3a 35
        E 99 86 3a 35
        E 0 96 41 35
        E 42 86 41 35
        E 0 96 3a 35
        E 14 86 3a 35
        E 0 96 36 35
        E 0 96 35 35
        E 113 86 35 35
        E 0 96 42 35
        E 14 86 42 35
        E 0 96 36 35
        E 0 96 3a 35
        E 99 86 3a 35
        E 0 96 41 35
        E 42 86 41 35
        E 0 96 3a 35
        E 14 86 3a 35
        E 0 96 36 35
        E 0 96 35 35
        E 113 86 35 35
        E 0 96 42 35
        E 14 86 42 35
        E 0 96 36 35
        E 0 96 3a 35
        E 99 86 3a 35
        E 0 96 41 35
        E 42 86 41 35
        E 0 96 3a 35
        E 14 86 3a 35
        E 0 96 36 35
        E 0 96 35 35
        E 113 86 35 35
        E 0 96 42 35
        E 14 86 42 35
        E 0 96 36 35
        E 0 96 3a 35
        E 99 86 3a 35
        E 0 96 41 35
        E 42 86 41 35
        E 0 96 3a 35
        E 14 86 3a 35
        E 0 96 36 35
        E 0 96 35 35
        E 113 86 35 35
        E 0 96 42 35
        E 14 86 42 35
        E 0 96 36 35
        E 0 96 3a 35
        E 99 86 3a 35
        E 0 96 41 35
        E 42 86 41 35
        E 0 96 3a 35
        E 14 86 3a 35
        E 0 96 36 35
        E 0 96 35 35
        E 113 86 35 35
        E 0 96 42 35
        E 14 86 42 35
        E 0 96 36 35
        E 0 96 3a 35
        E 99 86 3a 35
        E 0 96 41 35
        E 42 86 41 35
        E 0 96 3a 35
        E 14 86 3a 35
        E 0 96 36 35
        E 0 96 35 35
        E 113 86 35 35
        E 0 96 42 35
        E 14 86 42 35
        E 0 96 36 35
        E 0 96 3a 35
        E 99 86 3a 35
        E 0 96 41 35
        E 42 86 41 35
        E 0 96 3a 35
        E 14 86 3a 35
        E 0 96 36 35
        E 0 96 35 35
        E 113 86 35 35
        E 0 96 42 35
        E 14 86 42 35
        E 0 96 36 35
        E 0 96 3a 35
        E 99 86 3a 35
        E 0 96 41 35
        E 42 86 41 35
        E 0 96 3a 35
        E 14 86 3a 35
        E 0 96 36 35
        E 0 96 35 35
        E 113 86 35 35
        E 0 96 42 35
        E 14 86 42 35
        E 0 96 36 35
        E 0 96 3a 35
        E 99 86 3a 35
        E 0 96 41 35
        E 42 86 41 35
        E 0 96 3a 35
        E 14 86 3a 35
        E 0 96 36 35
        E 0 96 35 35
        E 113 86 35 35
        E 0 96 42 35
        E 14 86 42 35
        E 0 96 36 35
        E 0 96 3a 35
        E 99 86 3a 35
        E 0 96 41 35
        E 42 86 41 35
        E 0 96 3a 35
        E 14 86 3a 35
        E 0 96 36 35
        E 0 96 35 35
        E 113 86 35 35
        E 0 96 42 35
        E 14 86 42 35
        E 0 96 36 35
        E 0 96 3a 35
        E 99 86 3a 35
        E 0 96 41 35
        E 42 86 41 35
        E 0 96 3a 35
        E 14 86 3a 35
        E 0 96 36 35
        E 0 96 35 35
        E 113 86 35 35
        E 0 96 42 35
        E 14 86 42 35
        E 0 96 36 35
        E 0 96 3a 35
        E 99 86 3a 35
        E 0 96 41 35
        E 42 86 41 35
        E 0 96 3a 35
        E 14 86 3a 35
        E 0 96 36 35
        E 0 96 35 35
        E 113 86 35 35
        E 0 96 42 35
        E 14 86 42 35
        E 0 96 36 35
        E 0 96 3a 35
        E 99 86 3a 35
        E 0 96 41 35
        E 42 86 41 35
        E 0 96 3a 35
        E 14 86 3a 35
        E 0 96 36 35
        E 0 96 35 35
        E 113 86 35 35
        E 0 96 42 35
        E 14 86 42 35
        E 0 96 36 35
        E 0 96 3a 35
        E 99 86 3a 35
        E 0 96 41 35
        E 42 86 41 35
        E 0 96 3a 35
        E 14 86 3a 35
        E 0 96 36 35
        E 0 96 35 35
        E 113 86 35 35
        E 0 96 42 35
        E 14 86 42 35
        E 0 96 36 35
        E 0 96 3a 35
        E 99 86 3a 35
        E 0 96 41 35
        E 42 86 41 35
        E 0 96 3a 35
        E 14 86 3a 35
        E 0 96 36 35
        E 0 96 35 35
        E 113 86 35 35
        E 0 96 42 35
        E 14 86 42 35
        E 0 96 36 35
        E 0 96 3a 35
        E 99 86 3a 35
        E 0 96 41 35
        E 42 86 41 35
        E 0 96 3a 35
        E 14 86 3a 35
        E 0 96 36 35
        E 0 96 35 35
        E 113 86 35 35
        E 0 96 42 35
        E 14 86 42 35
        E 0 96 36 35
        E 0 96 3a 35
        E 99 86 3a 35
        E 0 96 41 35
        E 42 86 41 35
        E 0 96 3a 35
        E 14 86 3a 35
        E 0 96 36 35
        E 0 96 35 35
        E 113 86 35 35
        E 0 96 42 35
        E 14 86 42 35
        E 0 96 36 35
        E 0 96 3a 35
        E 99 86 3a 35
        E 0 96 41 35
        E 42 86 41 35
        E 0 96 3a 35
        E 14 86 3a 35
        E 0 96 36 35
        E 0 96 35 35
        E 113 86 35 35
        E 0 96 42 35
        E 14 86 42 35
        E 0 96 36 35
        E 0 96 3a 35
        E 99 86 3a 35
        E 0 96 41 35
        E 42 86 41 35
        E 0 96 3a 35
        E 14 86 3a 35
        E 0 96 36 35
        E 0 96 35 35
        E 113 86 35 35
        E 0 96 42 35
        E 14 86 42 35
        E 0 96 36 35
        E 0 96 3a 35
        E 99 86 3a 35
        E 0 96 41 35
        E 42 86 41 35
        E 0 96 3a 35
        E 14 86 3a 35
        E 0 96 36 35
        E 0 96 35 35
        E 113 86 35 35
        E 0 96 42 35
        E 14 86 42 35
        E 0 96 36 35
        E 0 96 3a 35
        E 99 86 3a 35
        E 0 96 41 35
        E 42 86 41 35
        E 0 96 3a 35
        E 14 86 3a 35
        E 0 96 36 35
        E 0 96 35 35
        E 113 86 35 35
        E 0 96 42 35
        E 14 86 42 35
        E 0 96 36 35
        E 0 96 3a 35
        E 99 86 3a 35
        E 0 96 41 35
        E 42 86 41 35
        E 0 96 3a 35
        E 14 86 3a 35
        E 0 96 36 35
        E 0 96 35 35
        E 113 86 35 35
        E 0 96 42 35
        E 14 86 42 35
        E 0 96 36 35
        E 0 96 3a 35
        E 99 86 3a 35
        E 0 96 41 35
        E 42 86 41 35
        E 0 96 3a 35
        E 14 86 3a 35
        E 0 96 36 35
        E 0 96 35 35
        E 113 86 35 35
        E 0 96 42 35
        E 14 86 42 35
        E 0 96 36 35
        E 0 96 3a 35
        E 99 86 3a 35
        E 0 96 41 35
        E 42 86 41 35
        E 0 96 3a 35
        E 14 86 3a 35
        E 0 96 36 35
        E 0 96 35 35
        E 113 86 35 35
        E 0 96 42 35
        E 14 86 42 35
        E 0 96 36 35
        E 0 96 3a 35
        E 99 86 3a 35
        E 0 96 41 35
        E 42 86 41 35
        E 0 96 3a 35
        E 14 86 3a 35
        E 0 96 36 35
        E 0 96 35 35
        E 113 86 35 35
        E 0 96 42 35
        E 14 86 42 35
        E 0 96 36 35
        E 0 96 3a 35
        E 99 86 3a 35
        E 0 96 41 35
        E 42 86 41 35
        E 0 96 3a 35
        E 14 86 3a 35
        E 0 96 36 35
        E 0 96 35 35
        E 113 86 35 35
        E 0 96 42 35
        E 14 86 42 35
        E 0 96 36 35
        E 0 96 3a 35
        E 99 86 3a 35
        E 0 96 41 35
        E 42 86 41 35
        E 0 96 3a 35
        E 14 86 3a 35
        E 0 96 36 35
        E 0 96 35 35
        E 113 86 35 35
        E 0 96 42 35
        E 14 86 42 35
        E 0 96 36 35
        E 0 96 3a 35
        E 99 86 3a 35
        E 0 96 41 35
        E 42 86 41 35
        E 0 96 3a 35
        E 14 86 3a 35
        E 0 96 36 35
        E 0 96 35 35
        E 113 86 35 35
        E 0 96 42 35
        E 14 86 42 35
        E 0 96 36 35
        E 0 96 3a 35
        E 99 86 3a 35
        E 0 96 41 35
        E 42 86 41 35
        E 0 96 3a 35
        E 14 86 3a 35
        E 0 96 36 35
        E 0 96 35 35
        E 113 86 35 35
        E 0 96 42 35
        E 14 86 42 35
        E 0 96 36 35
        E 0 96 3a 35
        E 99 86 3a 35
        E 0 96 41 35
        E 42 86 41 35
        E 0 96 3a 35
        E 14 86 3a 35
        E 0 96 36 35
        E 0 96 35 35
        E 113 86 35 35
        E 0 96 42 35
        E 14 86 42 35
        E 0 96 36 35
        E 0 96 3a 35
        E 99 86 3a 35
        E 0 96 41 35
        E 42 86 41 35
        E 0 96 3a 35
        E 14 86 3a 35
        E 0 96 36 35
        E 0 96 35 35
        E 113 86 35 35
        E 0 96 42 35
        E 14 86 42 35
        E 0 96 36 35
        E 0 96 3a 35
        E 99 86 3a 35
        E 0 96 41 35
        E 42 86 41 35
        E 0 96 3a 35
        E 14 86 3a 35
        E 0 96 36 35
        E 0 96 35 35
        E 113 86 35 35
        E 0 96 42 35
        E 14 86 42 35
        E 0 96 36 35
        E 0 96 3a 35
        E 99 86 3a 35
        E 0 96 41 35
        E 42 86 41 35
        E 0 96 3a 35
        E 14 86 3a 35
        E 0 96 36 35
        E 0 96 35 35
        E 113 86 35 35
        E 0 96 42 35
        E 14 86 42 35
        E 0 96 36 35
        E 0 96 3a 35
        E 99 86 3a 35
        E 0 96 41 35
        E 42 86 41 35
        E 0 96 3a 35
        E 14 86 3a 35
        E 0 96 36 35
        E 0 96 35 35
        E 113 86 35 35
        E 0 96 42 35
        E 14 86 42 35
        E 0 96 36 35
        E 0 96 3a 35
        E 99 86 3a 35
        E 0 96 41 35
        E 42 86 41 35
        E 0 96 3a 35
        E 14 86 3a 35
        E 0 96 36 35
        E 0 96 35 35
        E 113 86 35 35
        E 0 96 42 35
        E 14 86 42 35
        E 0 96 36 35
        E 0 96 3a 35
        E 99 86 3a 35
        E 0 96 41 35
        E 42 86 41 35
        E 0 96 3a 35
        E 14 86 3a 35
        E 0 96 36 35
        E 0 96 35 35
        E 113 86 35 35
        E 0 96 42 35
        E 14 86 42 35
        E 0 96 36 35
        E 0 96 3a 35
        E 99 86 3a 35
        E 0 96 41 35
        E 42 86 41 35
        E 0 96 3a 35
        E 14 86 3a 35
        E 0 96 36 35
        E 0 96 35 35
        E 113 86 35 35
        E 0 96 42 35
        E 14 86 42 35
        E 0 96 36 35
        E 0 96 3a 35
        E 99 86 3a 35
        E 0 96 41 35
        E 42 86 41 35
        E 0 96 3a 35
        E 14 86 3a 35
        E 0 96 36 35
        E 0 96 35 35
        E 113 86 35 35
        E 0 96 42 35
        E 14 86 42 35
        E 0 96 36 35
        E 0 96 3a 35
        E 99 86 3a 35
        E 0 96 41 35
        E 42 86 41 35
        E 0 96 3a 35
        E 14 86 3a 35
        E 0 96 36 35
        E 0 96 35 35
        E 113 86 35 35
        E 0 96 42 35
        E 14 86 42 35
        E 0 96 36 35
        E 0 96 3a 35
        E 99 86 3a 35
        E 0 96 41 35
        E 42 86 41 35
        E 0 96 3a 35
        E 14 86 3a 35
        E 0 96 36 35
        E 0 96 35 35
        E 113 86 35 35
        E 0 96 42 35
        E 14 86 42 35
        E 0 96 36 35
        E 0 96 3a 35
        E 99 86 3a 35
        E 0 96 41 35
        E 42 86 41 35
        E 0 96 3a 35
        E 14 86 3a 35
        E 0 96 36 35
        E 0 96 35 35
        E 113 86 35 35
        E 0 96 42 35
        E 14 86 42 35
        E 0 96 36 35
        E 0 96 3a 35
        E 99 86 3a 35
        E 0 96 41 35
        E 42 86 41 35
        E 0 96 3a 35
        E 14 86 3a 35
        E 0 96 36 35
        E 0 96 35 35
        E 113 86 35 35
        E 0 96 42 35
        E 14 86 42 35
        E 0 96 36 35
        E 0 96 3a 35
        E 99 86 3a 35
        E 0 96 41 35
        E 42 86 41 35
        E 0 96 3a 35
        E 14 86 3a 35
        E 0 96 36 35
        E 0 96 35 35
        E 113 86 35 35
        E 0 96 42 35
        E 14 86 42 35
        E 0 96 36 35
        E 0 96 3a 35
        E 99 86 3a 35
        E 0 96 41 35
        E 42 86 41 35
        E 0 96 3a 35
        E 14 86 3a 35
        E 0 96 36 35
        E 0 96 35 35
        E 113 86 35 35
        E 0 96 42 35
        E 14 86 42 35
        E 0 96 36 35
        E 118 b0 7b 00
        CCINTERP 32
        CHASE_CC_TAKEOFFS 1
        GUID {D2288D7F-308D-0542-8DD7-8994A80A3409}
        IGNTEMPO 0 120 4 4
        SRCCOLOR 246
        VELLANE 3 601 0
        VELLANE -1 196 0
      >
    >
  >
  <TRACK {2E1A2A6D-1935-6A4D-8FC2-294719F3370C}
    NAME "mission brand tortilla strips"
    PEAKCOL 16576
    BEAT -1
    AUTOMODE 0
    VOLPAN 1 0 -1 -1 1
    MUTESOLO 1 0 0
    IPHASE 0
    PLAYOFFS 0 1
    ISBUS 0 0
    BUSCOMP 0 0 0 0 0
    SHOWINMIX 1 0.6667 0.5 1 0.5 0 -1 0
    FREEMODE 0
    SEL 0
    REC 0 0 1 0 0 0 0
    VU 2
    TRACKHEIGHT 0 0 0 0 -1 0
    INQ 0 0 0 0.5 100 0 0 100
    NCHAN 2
    FX 1
    TRACKID {2E1A2A6D-1935-6A4D-8FC2-294719F3370C}
    PERF 0
    MIDIOUT -1
    MAINSEND 1 0
    <FXCHAIN
      SHOW 0
      LASTSEL 0
      DOCKED 0
      BYPASS 0 0 0
      <VST "VSTi: FM8 (Native Instruments GmbH)" FM8.vst 0 "" 1315530296<5653544E696638666D38000000000000> ""
        OGZpTu5e7f4AAAAAAgAAAAEAAAAAAAAAAgAAAAAAAAAYBwAAAQAAAAAAEAA=
        GAcAAAAAAAABAAAAaHNpbgEAAAAAAAAAN455D8DDx0mHoN4j0l/0WZYAAAAAAAAARFNJTnYAAAABAAAASAAAAAAAAABEU0lOagAAAAEAAAAYAAAAAAAAAERTSU4BAAAA
        AQAAAAEAAAABAAAAAQAAAAEAAAAAAAAAAAAAAAAAAAANYmWFAQAAAAhwEAAAAAAAAQAAAAEAAAAAAAAAAAAAAAAAAAADAAAAMAAwADAAAAAAAAAAAAAAAAAAAAAAAAEA
        AAABAAAAAAAAAERTSU5lAAAARgYAAAAAAAABAAAAaHNpbgEAAAAAAAAAMOH4NwAUwEaoogAOyNUgkW0AAAAAAAAARFNJTmUAAAABAAAANAAAAAAAAABEU0lOagAAAAEA
        AAAYAAAAAAAAAERTSU4BAAAAAQAAAAEAAAABAAAAAgAAAAEAAAAACAAAAAEAAAAKAAAAMQAuADIALgAwAC4AMQAwADEAMAABAAAAAwAAAAAAAABEU0lObAAAAKgBAAAA
        AAAAAQAAAGhzaW4BAAAAAAAAACA7190CLVtKvWPIjKqbw/t4AQAAAAAAAERTSU5sAAAAAQAAABgAAAAAAAAARFNJTgEAAAABAAAAAQAAAAEAAAACAAAAAQAAAAAAAAAI
        AAAATgBlAHcAUwBvAHUAbgBkAAcAAABuAG8AdAAgAHMAZQB0AAAAAAAAAAAAAAAAAAAAAAAAAAAAAAAAAAAAAAAAAAAAAAAAAAEAAAABAAAAAQAAAAMAAABGAE0AOAAA
        AAAAAAAAAAcAAAAHAAAAXABAAGMAbwBsAG8AcgABAAAAMAARAAAAXABAAGQAZQB2AGkAYwBlAHQAeQBwAGUAZgBsAGEAZwBzAAEAAAAxAAsAAABcAEAAcwBvAHUAbgBk
        AHQAeQBwAGUAAQAAADAABwAAAFwAQAB0AGUAbQBwAG8AAQAAADAABgAAAFwAQAB2AGUAcgBsAAUAAAAxAC4ANwAuADgABgAAAFwAQAB2AGUAcgBtAAUAAAAxAC4ANwAu
        ADgABwAAAFwAQAB2AGkAcwBpAGIAAQAAADAAAQAAAAAAAAACAAAARFNJTnkAAABoAAAAAAAAAAEAAABoc2luAQAAAAAAAABG64vCmumHRIQ9Mih2ujahOAAAAAAAAABE
        U0lOeQAAAAEAAAAYAAAAAAAAAERTSU4BAAAAAQAAAAEAAAABAAAAAQAAAAAAAAABAAAAAAAAAAEAAABEU0lOdAAAAHUDAAAAAAAAAQAAAGhzaW4BAAAAAAAAAMPiDYJz
        LJxOuWtBgMMVvqRFAwAAAAAAAERTSU50AAAAAQAAACwDAAAAAAAARFNJTnMAAAABAAAAGAAAAAAAAABEU0lOAQAAAAEAAAABAAAAAQAAAAG9DwAA8wIAAAK9DwBgAAAB
        IAUDaHNpbkAHQAAQHyRrBvAZSEqYrqFXTcEPPBhAFCAAA0RTSU5AI+AHA0AAQBsAbSAIAWkPIAQgAEAj4ANTEEkCYzKs2sVGp2B2wrYRj5w5oCfAN0Av4BdnQCMB8Q4g
        XCAAAAUgAwFjDCAEIAAIdHNycEU4TUbPIAsEvCMAAAcgBwZkZWZhdWx04BgKICoAP+ACAwNBAACAIA8AoCAH4AsAAPAgF0AfwAAAICAPwABgFwVAAABIQgDgBABAD0AD
        4BcfYAAge+AEA0AAwBPgAwBAE+AAAAPNzMw+IAwDP5qZGUAXwAPgABcgCuAHG0ATQADgBwdAACATYKtAACALYANAAEALQAAg42AAwA9AB0AD4AMAwA9AB0ADwABAC8AD
        QADAC8AHQADgAwtAAEAP4AMAIA/Bn8AHAMjhDnPgHwDgAO/gDgBAX0ADwABBz8H7QAtAAwCgIINAB0AAALQgCwCWIAPgAwDAP0AHQAPAAEAz4MdLIAAAAcAAIAuAAAAC
        wACADuAdAOAALAD+4B0v4CEAABTgISrgMADBA+AKAGBTgAXgAABChuAXA+AeAOD9WSBZIkBBUgH6Q0AH4FUMQ9VAZwH6Q6BnBYA/zLyMK+BVDOABACBnBAA/ZmZmYAPg
        YwwgAABwJOwB/kJAdCAA4D4MosLgAFaAAKBjgADgOAwgYwRwwgAAhmC6JliAA0BW4EEMIGPgAE3g8AAAUCAA4Of8AP/gFwAABEERCggyAwAAQDIAAAA8QikgAwHwQmLY
        AAEgAYLiIAcgAkKVgAagCSA3oAkgSKAJKxegCQAG4AAJKwSgEyAAoAmASKAGoBPgwk/gSwAAEaBUA2tuYWJBMcAAAYAAIAAAGaARA2N0bmlMiwERJ2FcTFBAAEocAaBC
        4hMPTInAH00bwAvg/QDgvQABIACAAANzaXVnQiQA6CNxwAAAKiAIABkgAyOYYAAj0mAAB2dwdGNZVE1FQAwLDWJlhQEAAAAAAAAAAQAAAAABAAAAAAAAAA==
        ADxkaXNhYmxlZD4AEAAAAA==
      >
      PRESETNAME <disabled>
      FLOATPOS 0 0 0 0
      FXID {D60F19D7-1F10-A047-9D94-EB99B1418CAA}
      WAK 0 0
    >
    <ITEM
      POSITION 137.14278399995737
      SNAPOFFS 0
      LENGTH 32.14284000004264
      LOOP 1
      ALLTAKES 0
      FADEIN 1 0 0 1 0 0
      FADEOUT 1 0 0 1 0 0
      MUTE 0 0
      SEL 0
      IGUID {E7B2C269-76E4-AB45-8224-D4FB48736041}
      IID 62
      NAME "mission brand tortilla strips.mid"
      VOLPAN 1 0 1 -1
      SOFFS 137.14278399995737 256
      PLAYRATE 1 1 0 -1 0 0.0025
      CHANMODE 0
      GUID {23728670-1A86-1E4E-A2EB-F18342D0270F}
      <SOURCE MIDI
        HASDATA 1 128 QN
        CCINTERP 32
        POOLEDEVTS {93C6F3DF-5302-1542-B766-1799C6E28880}
        E 32768 97 3a 35
        E 448 87 3a 35
        E 0 97 41 35
        E 192 87 41 35
        E 0 97 3a 35
        E 64 87 3a 35
        E 0 97 36 35
        E 0 97 35 35
        E 512 87 35 35
        E 0 97 42 35
        E 64 87 42 35
        E 0 97 36 35
        E 0 97 3a 35
        E 448 87 3a 35
        E 0 97 41 35
        E 192 87 41 35
        E 0 97 3a 35
        E 64 87 3a 35
        E 0 97 36 35
        E 0 97 35 35
        E 512 87 35 35
        E 0 97 42 35
        E 64 87 42 35
        E 0 97 36 35
        E 0 97 3a 35
        E 448 87 3a 35
        E 0 97 41 35
        E 192 87 41 35
        E 0 97 3a 35
        E 64 87 3a 35
        E 0 97 36 35
        E 0 97 35 35
        E 512 87 35 35
        E 0 97 42 35
        E 64 87 42 35
        E 0 97 36 35
        E 0 97 3a 35
        E 448 87 3a 35
        E 0 97 41 35
        E 192 87 41 35
        E 0 97 3a 35
        E 64 87 3a 35
        E 0 97 36 35
        E 0 97 35 35
        E 512 87 35 35
        E 0 97 42 35
        E 64 87 42 35
        E 0 97 36 35
        E 0 97 3a 35
        E 448 87 3a 35
        E 0 97 41 35
        E 192 87 41 35
        E 0 97 3a 35
        E 64 87 3a 35
        E 0 97 36 35
        E 0 97 35 35
        E 512 87 35 35
        E 0 97 42 35
        E 64 87 42 35
        E 0 97 36 35
        E 0 97 3a 35
        E 448 87 3a 35
        E 0 97 41 35
        E 192 87 41 35
        E 0 97 3a 35
        E 64 87 3a 35
        E 0 97 36 35
        E 0 97 35 35
        E 512 87 35 35
        E 0 97 42 35
        E 63 87 42 35
        E 0 97 36 35
        E 1 b0 7b 00
        CCINTERP 32
        CHASE_CC_TAKEOFFS 1
        GUID {736A53FC-A22C-1B47-9C19-9483603D2864}
        IGNTEMPO 0 120 4 4
        SRCCOLOR 920
        VELLANE 3 156 0
        VELLANE -1 196 0
      >
    >
  >
  <TRACK {16A29808-702A-9544-B26C-EE4753715E12}
    NAME "mission brand tortilla strips"
    PEAKCOL 16576
    BEAT -1
    AUTOMODE 0
    VOLPAN 1 0 -1 -1 1
    MUTESOLO 0 0 0
    IPHASE 0
    PLAYOFFS 0 1
    ISBUS 0 0
    BUSCOMP 0 0 0 0 0
    SHOWINMIX 1 0.6667 0.5 1 0.5 0 -1 0
    FREEMODE 0
    SEL 0
    REC 0 0 1 0 0 0 0
    VU 2
    TRACKHEIGHT 0 0 0 0 -1 0
    INQ 0 0 0 0.5 100 0 0 100
    NCHAN 2
    FX 1
    TRACKID {16A29808-702A-9544-B26C-EE4753715E12}
    PERF 0
    MIDIOUT -1
    MAINSEND 1 0
    <FXCHAIN
      WNDRECT 32 531 1159 532
      SHOW 0
      LASTSEL 0
      DOCKED 0
      BYPASS 0 0 0
      <VST "VSTi: FM8 (Native Instruments GmbH)" FM8.vst 0 "" 1315530296<5653544E696638666D38000000000000> ""
        OGZpTu5e7f4AAAAAAgAAAAEAAAAAAAAAAgAAAAAAAAC9CQAAAQAAAAAAEAA=
        vQkAAAAAAAABAAAAaHNpbgEAAAAAAAAAN455D8DDx0mHoN4j0l/0WZYAAAAAAAAARFNJTnYAAAABAAAASAAAAAAAAABEU0lOagAAAAEAAAAYAAAAAAAAAERTSU4BAAAA
        AQAAAAEAAAABAAAAAQAAAAEAAAAAAAAAAAAAAAAAAAANYmWFAQAAAAhwEAAAAAAAAQAAAAEAAAAAAAAAAAAAAAAAAAADAAAAMAAwADAAAAAAAAAAAAAAAAAAAAAAAAEA
        AAABAAAAAAAAAERTSU5lAAAA6wgAAAAAAAABAAAAaHNpbgEAAAAAAAAAMOH4NwAUwEaoogAOyNUgkW0AAAAAAAAARFNJTmUAAAABAAAANAAAAAAAAABEU0lOagAAAAEA
        AAAYAAAAAAAAAERTSU4BAAAAAQAAAAEAAAABAAAAAgAAAAEAAAAACAAAAAEAAAAKAAAAMQAuADIALgAwAC4AMQAwADEAMAABAAAAAwAAAAAAAABEU0lObAAAAIoCAAAA
        AAAAAQAAAGhzaW4BAAAAAAAAACA7190CLVtKvWPIjKqbw/taAgAAAAAAAERTSU5sAAAAAQAAABgAAAAAAAAARFNJTgEAAAABAAAAAQAAAAEAAAACAAAAAQAAAAAAAAAK
        AAAAQgByAGEAYwBoAGkAbABlAGEAZAAPAAAAUABlAHQAZQByACAASwByAGkAcwBjAGgAawBlAHIAEgAAAE4AYQB0AGkAdgBlACAASQBuAHMAdAByAHUAbQBlAG4AdABz
        AAAAAAAAAAAA/////wAAAAAAAAAAAAAAAAAAAAAAAAAAAQAAAAEAAAACAAAAAwAAAEYATQA4AAoAAABGAE0ANwAgAEwAZQBnAGEAYwB5AAYAAAAKAAAARABpAHIAdAB5
        ACAATABlAGEAZAANAAAATABvAG4AZwAvAEUAdgBvAGwAdgBpAG4AZwAKAAAATQBvAG4AbwBwAGgAbwBuAGkAYwAJAAAAUAByAG8AYwBlAHMAcwBlAGQACgAAAFMAeQBu
        AHQAaAAgAEwAZQBhAGQACQAAAFMAeQBuAHQAaABlAHQAaQBjAAAAAAAHAAAABwAAAFwAQABjAG8AbABvAHIAAQAAADAAEQAAAFwAQABkAGUAdgBpAGMAZQB0AHkAcABl
        AGYAbABhAGcAcwABAAAAMQALAAAAXABAAHMAbwB1AG4AZAB0AHkAcABlAAEAAAAwAAcAAABcAEAAdABlAG0AcABvAAEAAAAwAAYAAABcAEAAdgBlAHIAbAAFAAAAMQAu
        ADcALgA4AAYAAABcAEAAdgBlAHIAbQAFAAAAMQAuADcALgA4AAcAAABcAEAAdgBpAHMAaQBiAAEAAAAwAAEAAAAAAAAAAgAAAERTSU55AAAAaAAAAAAAAAABAAAAaHNp
        bgEAAAAAAAAARuuLwprph0SEPTIodro2oTgAAAAAAAAARFNJTnkAAAABAAAAGAAAAAAAAABEU0lOAQAAAAEAAAABAAAAAQAAAAEAAAAAAAAAAQAAAAAAAAABAAAARFNJ
        TnQAAAA4BQAAAAAAAAEAAABoc2luAQAAAAAAAADD4g2CcyycTrlrQYDDFb6kCAUAAAAAAABEU0lOdAAAAAEAAADvBAAAAAAAAERTSU5zAAAAAQAAABgAAAAAAAAARFNJ
        TgEAAAABAAAAAQAAAAEAAAABZRAAALYEAAACZRAAYAAAASAFA2hzaW5AB0AAEB8kawbwGUhKmK6hV03BDzwYQBQgAANEU0lOQCPgBwNAAEAbAG0gCAERECAEIABAI+AD
        UxFJAmMyrNrFRqdgdsK2EY+c4Q8gJCAAwDdAL+AXZ0AjAJmgNwAFIDsBCw0gBCAACHRzcnBFOE1GzyALBLwjAAAKIAcJQnJhY2hpbGVhZOAhDQYAAMBBAADoIAMAICAD
        AAAgAwSAQAAAyCAHQAACgD8A4AQAAJggF0ATQANAAACgIA/AAGATIDsCWEIAYABgD+ACAGAPIB8AfOAOH2AAQG/gAwNAAMAP4AMAQBPgAAADzczMPiAMAz+amRlAF8AD
        4AAXIArgBxtAE0AA4AcHQAAgE2CrQAAgC2ADQABACyAA4AQbQABAF0AD4AMAYA8G/WWXPqZ5pyCbQDNAA2AXQBtAAwsA61E4P9Jvnz60NyhAD0ADQABAB0ADwADgAwug
        AAC2IUMAyCADAFAhfwCQIANAC8AAQGcAgCATAEggH2AL4Ao/QABAF0ADQADAB+APAEBfQAPAAEBbYi8gAEALQAMAoCBvQAdAAAC0IAsAliAD4AMAwD9AB0ADwABAM+DH
        SyAAAAJgAAEBASACQAADAAABA2AAAgICA0APQBEEAFAUZBUgBuATAAACwBwA/sAI4D8AABbgP0jgAAAFAf8B////4AAOIAAg5uAVAEAjAgMBAyAGQAAAwEKqIAMAQCAD
        QAdiliALQAfAA+AZAIBxICfg/FkhWwaAP+bVA0MAI3UD5DBDQmAQCADCD0S5uc1CASXCYBDAIUAlYBAGLAsSRHmV5OABIUBHBrMmF0Ntc8+AIUAQQC4DUd5jQiKmQAwA
        +iBlAYA/4AQMYExAFUAqQAdgEAtcj8I+3iTGPsy8jCtgEAOPwvU+QAPgABDgCCEAACIKA1yPAj/gACEAACBqQAPgDBCgg4Ad4AQMIG7gBQAHA5LtfD483w8gTAUAP4TA
        aj9gEAIlBiHgBRDgGSFAP0AD4ABDQAxAA0AQIIMEAD9mZmZgA+AEDECQYCZAIUADR+cPAJ2y7EEasT9CrS+VQgUxvSE6AP5BZUAAAohBDSAMYCUN1VzfQYwGQ0I72pFC
        IYZGFuAGJUBpIACAMuALDAFwQkBMAAEgIwAAQAhgVeALAKA7gADgHSXgBDLgEQwgewRwwgAAhmB7YQAgZOADA2A74AAQQHvgAAwgHMAD4AUlQG7AGeASDCB7gCYABSAA
        ADwgACAP4BwAAAggAOAPKAAkIAAAnSAA4AMfIF4BBT0gAOADE+ATACBe4AhfACMgAABkIADgEzfgKwAgVipB4OUAJqjgFQAABEEPAQgyI5wFQDIAAAA8QikgAwHwQmJn
        AAEgAYJxIAcgAkJugAagCSA3oAkgSKAJIrmgCQAG4AAJAAfgAAkgAKAdgEigBqAT4MJP4EsAABGgVANrbmFiQTHAAAGAACAAABmgEQNjdG5pTTMBESdhXEzsQABKuAGg
        QuITDQF0AOIBME2L4BMr4P0A4KkAACAh40AAA3NpdWdCJADoI3HAAAAqIAgAGSADI5hgACPSYAAHZ3B0Y1lUTUVADAsNYmWFAQAAAAAAAAABAAAAAAEAAAAAAAAA
        ADxkaXNhYmxlZD4AEAAAAA==
      >
      PRESETNAME <disabled>
      FLOATPOS 0 0 0 0
      FXID {99207A96-BE79-CB4E-A66B-4EB9525BAA3C}
      WAK 0 0
    >
    <ITEM
      POSITION 17.14284799999467
      SNAPOFFS 0
      LENGTH 74.99996000000533
      LOOP 1
      ALLTAKES 0
      FADEIN 1 0 0 1 0 0
      FADEOUT 1 0 0 1 0 0
      MUTE 0 0
      SEL 0
      IGUID {32F58BF6-6258-0342-A523-5B2DEFB28CEE}
      IID 63
      NAME "mission brand tortilla strips.mid"
      VOLPAN 1 0 1 -1
      SOFFS 17.14284799999467 32
      PLAYRATE 1 1 0 -1 0 0.0025
      CHANMODE 0
      GUID {F1DD3D44-B644-0645-842D-547CEB28865C}
      <SOURCE MIDI
        HASDATA 1 128 QN
        CCINTERP 32
        POOLEDEVTS {5C4DFF81-B36A-6B4C-9E82-EF1FE5216470}
        E 4096 98 3a 35
        E 128 88 3a 35
        E 0 98 36 35
        E 0 98 35 35
        E 1024 88 35 35
        E 0 98 42 35
        E 128 88 42 35
        E 0 98 36 35
        E 0 98 35 35
        E 384 88 35 35
        E 0 98 3a 35
        E 896 88 3a 35
        E 0 98 3a 35
        E 128 88 3a 35
        E 0 98 36 35
        E 0 98 35 35
        E 1024 88 35 35
        E 0 98 42 35
        E 128 88 42 35
        E 0 98 36 35
        E 0 98 35 35
        E 384 88 35 35
        E 0 98 3a 35
        E 896 88 3a 35
        E 0 98 3a 35
        E 128 88 3a 35
        E 0 98 36 35
        E 0 98 35 35
        E 1024 88 35 35
        E 0 98 42 35
        E 128 88 42 35
        E 0 98 36 35
        E 0 98 35 35
        E 384 88 35 35
        E 0 98 3a 35
        E 896 88 3a 35
        E 0 98 3a 35
        E 128 88 3a 35
        E 0 98 36 35
        E 0 98 35 35
        E 1024 88 35 35
        E 0 98 42 35
        E 128 88 42 35
        E 0 98 36 35
        E 0 98 35 35
        E 384 88 35 35
        E 0 98 3a 35
        E 896 88 3a 35
        E 0 98 3a 35
        E 128 88 3a 35
        E 0 98 36 35
        E 0 98 35 35
        E 1024 88 35 35
        E 0 98 42 35
        E 128 88 42 35
        E 0 98 36 35
        E 0 98 35 35
        E 384 88 35 35
        E 0 98 3a 35
        E 896 88 3a 35
        E 0 98 3a 35
        E 128 88 3a 35
        E 0 98 36 35
        E 0 98 35 35
        E 1024 88 35 35
        E 0 98 42 35
        E 128 88 42 35
        E 0 98 36 35
        E 0 98 35 35
        E 384 88 35 35
        E 0 98 3a 35
        E 896 88 3a 35
        E 0 98 3a 35
        E 128 88 3a 35
        E 0 98 36 35
        E 0 98 35 35
        E 1024 88 35 35
        E 0 98 42 35
        E 128 88 42 35
        E 0 98 36 35
        E 0 98 35 35
        E 384 88 35 35
        E 0 98 3a 35
        E 895 88 3a 35
        E 1 b0 7b 00
        CCINTERP 32
        CHASE_CC_TAKEOFFS 1
        GUID {56655A4A-8E69-4841-8E35-6612E35EC21A}
        IGNTEMPO 0 120 4 4
        SRCCOLOR 921
        VELLANE 3 156 0
        VELLANE -1 196 0
      >
    >
  >
  <TRACK {E9EF61FE-BE22-4A48-BC9F-9A3C3735E010}
    NAME "mission brand tortilla strips"
    PEAKCOL 16576
    BEAT -1
    AUTOMODE 0
    VOLPAN 1 0 -1 -1 1
    MUTESOLO 1 0 0
    IPHASE 0
    PLAYOFFS 0 1
    ISBUS 0 0
    BUSCOMP 0 0 0 0 0
    SHOWINMIX 1 0.6667 0.5 1 0.5 0 -1 0
    FREEMODE 0
    SEL 0
    REC 0 0 1 0 0 0 0
    VU 2
    TRACKHEIGHT 0 0 0 0 -1 0
    INQ 0 0 0 0.5 100 0 0 100
    NCHAN 2
    FX 1
    TRACKID {E9EF61FE-BE22-4A48-BC9F-9A3C3735E010}
    PERF 0
    MIDIOUT -1
    MAINSEND 1 0
    <FXCHAIN
      SHOW 0
      LASTSEL 0
      DOCKED 0
      BYPASS 0 0 0
      <VST "VSTi: FM8 (Native Instruments GmbH)" FM8.vst 0 "" 1315530296<5653544E696638666D38000000000000> ""
        OGZpTu5e7f4AAAAAAgAAAAEAAAAAAAAAAgAAAAAAAAAYBwAAAQAAAAAAEAA=
        GAcAAAAAAAABAAAAaHNpbgEAAAAAAAAAN455D8DDx0mHoN4j0l/0WZYAAAAAAAAARFNJTnYAAAABAAAASAAAAAAAAABEU0lOagAAAAEAAAAYAAAAAAAAAERTSU4BAAAA
        AQAAAAEAAAABAAAAAQAAAAEAAAAAAAAAAAAAAAAAAAANYmWFAQAAAAhwEAAAAAAAAQAAAAEAAAAAAAAAAAAAAAAAAAADAAAAMAAwADAAAAAAAAAAAAAAAAAAAAAAAAEA
        AAABAAAAAAAAAERTSU5lAAAARgYAAAAAAAABAAAAaHNpbgEAAAAAAAAAMOH4NwAUwEaoogAOyNUgkW0AAAAAAAAARFNJTmUAAAABAAAANAAAAAAAAABEU0lOagAAAAEA
        AAAYAAAAAAAAAERTSU4BAAAAAQAAAAEAAAABAAAAAgAAAAEAAAAACAAAAAEAAAAKAAAAMQAuADIALgAwAC4AMQAwADEAMAABAAAAAwAAAAAAAABEU0lObAAAAKgBAAAA
        AAAAAQAAAGhzaW4BAAAAAAAAACA7190CLVtKvWPIjKqbw/t4AQAAAAAAAERTSU5sAAAAAQAAABgAAAAAAAAARFNJTgEAAAABAAAAAQAAAAEAAAACAAAAAQAAAAAAAAAI
        AAAATgBlAHcAUwBvAHUAbgBkAAcAAABuAG8AdAAgAHMAZQB0AAAAAAAAAAAAAAAAAAAAAAAAAAAAAAAAAAAAAAAAAAAAAAAAAAEAAAABAAAAAQAAAAMAAABGAE0AOAAA
        AAAAAAAAAAcAAAAHAAAAXABAAGMAbwBsAG8AcgABAAAAMAARAAAAXABAAGQAZQB2AGkAYwBlAHQAeQBwAGUAZgBsAGEAZwBzAAEAAAAxAAsAAABcAEAAcwBvAHUAbgBk
        AHQAeQBwAGUAAQAAADAABwAAAFwAQAB0AGUAbQBwAG8AAQAAADAABgAAAFwAQAB2AGUAcgBsAAUAAAAxAC4ANwAuADgABgAAAFwAQAB2AGUAcgBtAAUAAAAxAC4ANwAu
        ADgABwAAAFwAQAB2AGkAcwBpAGIAAQAAADAAAQAAAAAAAAACAAAARFNJTnkAAABoAAAAAAAAAAEAAABoc2luAQAAAAAAAABG64vCmumHRIQ9Mih2ujahOAAAAAAAAABE
        U0lOeQAAAAEAAAAYAAAAAAAAAERTSU4BAAAAAQAAAAEAAAABAAAAAQAAAAAAAAABAAAAAAAAAAEAAABEU0lOdAAAAHUDAAAAAAAAAQAAAGhzaW4BAAAAAAAAAMPiDYJz
        LJxOuWtBgMMVvqRFAwAAAAAAAERTSU50AAAAAQAAACwDAAAAAAAARFNJTnMAAAABAAAAGAAAAAAAAABEU0lOAQAAAAEAAAABAAAAAQAAAAG9DwAA8wIAAAK9DwBgAAAB
        IAUDaHNpbkAHQAAQHyRrBvAZSEqYrqFXTcEPPBhAFCAAA0RTSU5AI+AHA0AAQBsAbSAIAWkPIAQgAEAj4ANTEEkCYzKs2sVGp2B2wrYRj5w5oCfAN0Av4BdnQCMB8Q4g
        XCAAAAUgAwFjDCAEIAAIdHNycEU4TUbPIAsEvCMAAAcgBwZkZWZhdWx04BgKICoAP+ACAwNBAACAIA8AoCAH4AsAAPAgF0AfwAAAICAPwABgFwVAAABIQgDgBABAD0AD
        4BcfYAAge+AEA0AAwBPgAwBAE+AAAAPNzMw+IAwDP5qZGUAXwAPgABcgCuAHG0ATQADgBwdAACATYKtAACALYANAAEALQAAg42AAwA9AB0AD4AMAwA9AB0ADwABAC8AD
        QADAC8AHQADgAwtAAEAP4AMAIA/Bn8AHAMjhDnPgHwDgAO/gDgBAX0ADwABBz8H7QAtAAwCgIINAB0AAALQgCwCWIAPgAwDAP0AHQAPAAEAz4MdLIAAAAcAAIAuAAAAC
        wACADuAdAOAALAD+4B0v4CEAABTgISrgMADBA+AKAGBTgAXgAABChuAXA+AeAOD9WSBZIkBBUgH6Q0AH4FUMQ9VAZwH6Q6BnBYA/zLyMK+BVDOABACBnBAA/ZmZmYAPg
        YwwgAABwJOwB/kJAdCAA4D4MosLgAFaAAKBjgADgOAwgYwRwwgAAhmC6JliAA0BW4EEMIGPgAE3g8AAAUCAA4Of8AP/gFwAABEERCggyAwAAQDIAAAA8QikgAwHwQmLY
        AAEgAYLiIAcgAkKVgAagCSA3oAkgSKAJKxegCQAG4AAJKwSgEyAAoAmASKAGoBPgwk/gSwAAEaBUA2tuYWJBMcAAAYAAIAAAGaARA2N0bmlMiwERJ2FcTFBAAEocAaBC
        4hMPTInAH00bwAvg/QDgvQABIACAAANzaXVnQiQA6CNxwAAAKiAIABkgAyOYYAAj0mAAB2dwdGNZVE1FQAwLDWJlhQEAAAAAAAAAAQAAAAABAAAAAAAAAA==
        ADxkaXNhYmxlZD4AEAAAAA==
      >
      PRESETNAME <disabled>
      FLOATPOS 0 0 0 0
      FXID {0A58A15E-F2F2-E241-AB5A-EDCD8FE95DCF}
      WAK 0 0
    >
    <ITEM
      POSITION 0
      SNAPOFFS 0
      LENGTH 74.99996
      LOOP 1
      ALLTAKES 0
      FADEIN 1 0 0 1 0 0
      FADEOUT 1 0 0 1 0 0
      MUTE 0 0
      SEL 0
      IGUID {D9CAF190-D26C-9644-88A5-5AF9DB7B96EB}
      IID 10
      NAME "mission brand tortilla strips.mid"
      VOLPAN 1 0 1 -1
      SOFFS 0 0
      PLAYRATE 1 1 0 -1 0 0.0025
      CHANMODE 0
      GUID {3E273B88-C37B-6A4B-86EF-DA85E56C806B}
      <SOURCE MIDI
        HASDATA 1 128 QN
        CCINTERP 32
        POOLEDEVTS {BA4EB85B-B13A-5043-BECC-7F4DCEDF3B5C}
        E 0 99 3a 35
        E 224 89 3a 35
        E 0 99 41 35
        E 96 89 41 35
        E 0 99 3a 35
        E 32 89 3a 35
        E 0 99 36 35
        E 0 99 35 35
        E 256 89 35 35
        E 0 99 42 35
        E 32 89 42 35
        E 0 99 36 35
        E 0 99 3a 35
        E 224 89 3a 35
        E 0 99 41 35
        E 96 89 41 35
        E 0 99 3a 35
        E 32 89 3a 35
        E 0 99 36 35
        E 0 99 35 35
        E 256 89 35 35
        E 0 99 42 35
        E 32 89 42 35
        E 0 99 36 35
        E 0 99 3a 35
        E 224 89 3a 35
        E 0 99 41 35
        E 96 89 41 35
        E 0 99 3a 35
        E 32 89 3a 35
        E 0 99 36 35
        E 0 99 35 35
        E 256 89 35 35
        E 0 99 42 35
        E 32 89 42 35
        E 0 99 36 35
        E 0 99 3a 35
        E 224 89 3a 35
        E 0 99 41 35
        E 96 89 41 35
        E 0 99 3a 35
        E 32 89 3a 35
        E 0 99 36 35
        E 0 99 35 35
        E 256 89 35 35
        E 0 99 42 35
        E 32 89 42 35
        E 0 99 36 35
        E 0 99 3a 35
        E 224 89 3a 35
        E 0 99 41 35
        E 96 89 41 35
        E 0 99 3a 35
        E 32 89 3a 35
        E 0 99 36 35
        E 0 99 35 35
        E 256 89 35 35
        E 0 99 42 35
        E 32 89 42 35
        E 0 99 36 35
        E 0 99 3a 35
        E 224 89 3a 35
        E 0 99 41 35
        E 96 89 41 35
        E 0 99 3a 35
        E 32 89 3a 35
        E 0 99 36 35
        E 0 99 35 35
        E 256 89 35 35
        E 0 99 42 35
        E 32 89 42 35
        E 0 99 36 35
        E 0 99 3a 35
        E 224 89 3a 35
        E 0 99 41 35
        E 96 89 41 35
        E 0 99 3a 35
        E 32 89 3a 35
        E 0 99 36 35
        E 0 99 35 35
        E 256 89 35 35
        E 0 99 42 35
        E 32 89 42 35
        E 0 99 36 35
        E 0 99 3a 35
        E 224 89 3a 35
        E 0 99 41 35
        E 96 89 41 35
        E 0 99 3a 35
        E 32 89 3a 35
        E 0 99 36 35
        E 0 99 35 35
        E 256 89 35 35
        E 0 99 42 35
        E 32 89 42 35
        E 0 99 36 35
        E 0 99 3a 35
        E 224 89 3a 35
        E 0 99 41 35
        E 96 89 41 35
        E 0 99 3a 35
        E 32 89 3a 35
        E 0 99 36 35
        E 0 99 35 35
        E 256 89 35 35
        E 0 99 42 35
        E 32 89 42 35
        E 0 99 36 35
        E 0 99 3a 35
        E 224 89 3a 35
        E 0 99 41 35
        E 96 89 41 35
        E 0 99 3a 35
        E 32 89 3a 35
        E 0 99 36 35
        E 0 99 35 35
        E 256 89 35 35
        E 0 99 42 35
        E 32 89 42 35
        E 0 99 36 35
        E 0 99 3a 35
        E 224 89 3a 35
        E 0 99 41 35
        E 96 89 41 35
        E 0 99 3a 35
        E 32 89 3a 35
        E 0 99 36 35
        E 0 99 35 35
        E 256 89 35 35
        E 0 99 42 35
        E 32 89 42 35
        E 0 99 36 35
        E 0 99 3a 35
        E 224 89 3a 35
        E 0 99 41 35
        E 96 89 41 35
        E 0 99 3a 35
        E 32 89 3a 35
        E 0 99 36 35
        E 0 99 35 35
        E 256 89 35 35
        E 0 99 42 35
        E 32 89 42 35
        E 0 99 36 35
        E 0 99 3a 35
        E 224 89 3a 35
        E 0 99 41 35
        E 96 89 41 35
        E 0 99 3a 35
        E 32 89 3a 35
        E 0 99 36 35
        E 0 99 35 35
        E 256 89 35 35
        E 0 99 42 35
        E 32 89 42 35
        E 0 99 36 35
        E 0 99 3a 35
        E 224 89 3a 35
        E 0 99 41 35
        E 96 89 41 35
        E 0 99 3a 35
        E 32 89 3a 35
        E 0 99 36 35
        E 0 99 35 35
        E 256 89 35 35
        E 0 99 42 35
        E 32 89 42 35
        E 0 99 36 35
        E 0 99 3a 35
        E 224 89 3a 35
        E 0 99 41 35
        E 96 89 41 35
        E 0 99 3a 35
        E 32 89 3a 35
        E 0 99 36 35
        E 0 99 35 35
        E 256 89 35 35
        E 0 99 42 35
        E 32 89 42 35
        E 0 99 36 35
        E 0 99 3a 35
        E 224 89 3a 35
        E 0 99 41 35
        E 96 89 41 35
        E 0 99 3a 35
        E 32 89 3a 35
        E 0 99 36 35
        E 0 99 35 35
        E 256 89 35 35
        E 0 99 42 35
        E 32 89 42 35
        E 0 99 36 35
        E 0 99 3a 35
        E 224 89 3a 35
        E 0 99 41 35
        E 96 89 41 35
        E 0 99 3a 35
        E 32 89 3a 35
        E 0 99 36 35
        E 0 99 35 35
        E 256 89 35 35
        E 0 99 42 35
        E 32 89 42 35
        E 0 99 36 35
        E 0 99 3a 35
        E 224 89 3a 35
        E 0 99 41 35
        E 96 89 41 35
        E 0 99 3a 35
        E 32 89 3a 35
        E 0 99 36 35
        E 0 99 35 35
        E 256 89 35 35
        E 0 99 42 35
        E 32 89 42 35
        E 0 99 36 35
        E 0 99 3a 35
        E 224 89 3a 35
        E 0 99 41 35
        E 96 89 41 35
        E 0 99 3a 35
        E 32 89 3a 35
        E 0 99 36 35
        E 0 99 35 35
        E 256 89 35 35
        E 0 99 42 35
        E 32 89 42 35
        E 0 99 36 35
        E 0 99 3a 35
        E 224 89 3a 35
        E 0 99 41 35
        E 96 89 41 35
        E 0 99 3a 35
        E 32 89 3a 35
        E 0 99 36 35
        E 0 99 35 35
        E 256 89 35 35
        E 0 99 42 35
        E 32 89 42 35
        E 0 99 36 35
        E 0 99 3a 35
        E 224 89 3a 35
        E 0 99 41 35
        E 96 89 41 35
        E 0 99 3a 35
        E 32 89 3a 35
        E 0 99 36 35
        E 0 99 35 35
        E 256 89 35 35
        E 0 99 42 35
        E 32 89 42 35
        E 0 99 36 35
        E 0 99 3a 35
        E 224 89 3a 35
        E 0 99 41 35
        E 96 89 41 35
        E 0 99 3a 35
        E 32 89 3a 35
        E 0 99 36 35
        E 0 99 35 35
        E 256 89 35 35
        E 0 99 42 35
        E 32 89 42 35
        E 0 99 36 35
        E 0 99 3a 35
        E 224 89 3a 35
        E 0 99 41 35
        E 96 89 41 35
        E 0 99 3a 35
        E 32 89 3a 35
        E 0 99 36 35
        E 0 99 35 35
        E 256 89 35 35
        E 0 99 42 35
        E 32 89 42 35
        E 0 99 36 35
        E 0 99 3a 35
        E 224 89 3a 35
        E 0 99 41 35
        E 96 89 41 35
        E 0 99 3a 35
        E 32 89 3a 35
        E 0 99 36 35
        E 0 99 35 35
        E 256 89 35 35
        E 0 99 42 35
        E 32 89 42 35
        E 0 99 36 35
        E 0 99 3a 35
        E 224 89 3a 35
        E 0 99 41 35
        E 96 89 41 35
        E 0 99 3a 35
        E 32 89 3a 35
        E 0 99 36 35
        E 0 99 35 35
        E 256 89 35 35
        E 0 99 42 35
        E 32 89 42 35
        E 0 99 36 35
        E 0 99 3a 35
        E 224 89 3a 35
        E 0 99 41 35
        E 96 89 41 35
        E 0 99 3a 35
        E 32 89 3a 35
        E 0 99 36 35
        E 0 99 35 35
        E 256 89 35 35
        E 0 99 42 35
        E 32 89 42 35
        E 0 99 36 35
        E 0 99 3a 35
        E 224 89 3a 35
        E 0 99 41 35
        E 96 89 41 35
        E 0 99 3a 35
        E 32 89 3a 35
        E 0 99 36 35
        E 0 99 35 35
        E 256 89 35 35
        E 0 99 42 35
        E 32 89 42 35
        E 0 99 36 35
        E 0 99 3a 35
        E 224 89 3a 35
        E 0 99 41 35
        E 96 89 41 35
        E 0 99 3a 35
        E 32 89 3a 35
        E 0 99 36 35
        E 0 99 35 35
        E 256 89 35 35
        E 0 99 42 35
        E 31 89 42 35
        E 0 99 36 35
        E 1 b0 7b 00
        CCINTERP 32
        CHASE_CC_TAKEOFFS 1
        GUID {79C8BAEE-8448-224D-A960-A339932BE7F6}
        IGNTEMPO 0 120 4 4
        SRCCOLOR 249
        VELLANE 3 601 0
        VELLANE -1 196 0
      >
    >
  >
  <TRACK {86D25038-3BB7-F547-8193-8871F2E0E822}
    NAME "mission brand tortilla strips"
    PEAKCOL 16576
    BEAT -1
    AUTOMODE 0
    VOLPAN 1 0 -1 -1 1
    MUTESOLO 1 0 0
    IPHASE 0
    PLAYOFFS 0 1
    ISBUS 0 0
    BUSCOMP 0 0 0 0 0
    SHOWINMIX 1 0.6667 0.5 1 0.5 0 -1 0
    FREEMODE 0
    SEL 0
    REC 0 0 1 0 0 0 0
    VU 2
    TRACKHEIGHT 0 0 0 0 -1 0
    INQ 0 0 0 0.5 100 0 0 100
    NCHAN 2
    FX 1
    TRACKID {86D25038-3BB7-F547-8193-8871F2E0E822}
    PERF 0
    MIDIOUT -1
    MAINSEND 1 0
    <FXCHAIN
      SHOW 0
      LASTSEL 0
      DOCKED 0
      BYPASS 0 0 0
      <VST "VSTi: FM8 (Native Instruments GmbH)" FM8.vst 0 "" 1315530296<5653544E696638666D38000000000000> ""
        OGZpTu5e7f4AAAAAAgAAAAEAAAAAAAAAAgAAAAAAAAAYBwAAAQAAAAAAEAA=
        GAcAAAAAAAABAAAAaHNpbgEAAAAAAAAAN455D8DDx0mHoN4j0l/0WZYAAAAAAAAARFNJTnYAAAABAAAASAAAAAAAAABEU0lOagAAAAEAAAAYAAAAAAAAAERTSU4BAAAA
        AQAAAAEAAAABAAAAAQAAAAEAAAAAAAAAAAAAAAAAAAANYmWFAQAAAAhwEAAAAAAAAQAAAAEAAAAAAAAAAAAAAAAAAAADAAAAMAAwADAAAAAAAAAAAAAAAAAAAAAAAAEA
        AAABAAAAAAAAAERTSU5lAAAARgYAAAAAAAABAAAAaHNpbgEAAAAAAAAAMOH4NwAUwEaoogAOyNUgkW0AAAAAAAAARFNJTmUAAAABAAAANAAAAAAAAABEU0lOagAAAAEA
        AAAYAAAAAAAAAERTSU4BAAAAAQAAAAEAAAABAAAAAgAAAAEAAAAACAAAAAEAAAAKAAAAMQAuADIALgAwAC4AMQAwADEAMAABAAAAAwAAAAAAAABEU0lObAAAAKgBAAAA
        AAAAAQAAAGhzaW4BAAAAAAAAACA7190CLVtKvWPIjKqbw/t4AQAAAAAAAERTSU5sAAAAAQAAABgAAAAAAAAARFNJTgEAAAABAAAAAQAAAAEAAAACAAAAAQAAAAAAAAAI
        AAAATgBlAHcAUwBvAHUAbgBkAAcAAABuAG8AdAAgAHMAZQB0AAAAAAAAAAAAAAAAAAAAAAAAAAAAAAAAAAAAAAAAAAAAAAAAAAEAAAABAAAAAQAAAAMAAABGAE0AOAAA
        AAAAAAAAAAcAAAAHAAAAXABAAGMAbwBsAG8AcgABAAAAMAARAAAAXABAAGQAZQB2AGkAYwBlAHQAeQBwAGUAZgBsAGEAZwBzAAEAAAAxAAsAAABcAEAAcwBvAHUAbgBk
        AHQAeQBwAGUAAQAAADAABwAAAFwAQAB0AGUAbQBwAG8AAQAAADAABgAAAFwAQAB2AGUAcgBsAAUAAAAxAC4ANwAuADgABgAAAFwAQAB2AGUAcgBtAAUAAAAxAC4ANwAu
        ADgABwAAAFwAQAB2AGkAcwBpAGIAAQAAADAAAQAAAAAAAAACAAAARFNJTnkAAABoAAAAAAAAAAEAAABoc2luAQAAAAAAAABG64vCmumHRIQ9Mih2ujahOAAAAAAAAABE
        U0lOeQAAAAEAAAAYAAAAAAAAAERTSU4BAAAAAQAAAAEAAAABAAAAAQAAAAAAAAABAAAAAAAAAAEAAABEU0lOdAAAAHUDAAAAAAAAAQAAAGhzaW4BAAAAAAAAAMPiDYJz
        LJxOuWtBgMMVvqRFAwAAAAAAAERTSU50AAAAAQAAACwDAAAAAAAARFNJTnMAAAABAAAAGAAAAAAAAABEU0lOAQAAAAEAAAABAAAAAQAAAAG9DwAA8wIAAAK9DwBgAAAB
        IAUDaHNpbkAHQAAQHyRrBvAZSEqYrqFXTcEPPBhAFCAAA0RTSU5AI+AHA0AAQBsAbSAIAWkPIAQgAEAj4ANTEEkCYzKs2sVGp2B2wrYRj5w5oCfAN0Av4BdnQCMB8Q4g
        XCAAAAUgAwFjDCAEIAAIdHNycEU4TUbPIAsEvCMAAAcgBwZkZWZhdWx04BgKICoAP+ACAwNBAACAIA8AoCAH4AsAAPAgF0AfwAAAICAPwABgFwVAAABIQgDgBABAD0AD
        4BcfYAAge+AEA0AAwBPgAwBAE+AAAAPNzMw+IAwDP5qZGUAXwAPgABcgCuAHG0ATQADgBwdAACATYKtAACALYANAAEALQAAg42AAwA9AB0AD4AMAwA9AB0ADwABAC8AD
        QADAC8AHQADgAwtAAEAP4AMAIA/Bn8AHAMjhDnPgHwDgAO/gDgBAX0ADwABBz8H7QAtAAwCgIINAB0AAALQgCwCWIAPgAwDAP0AHQAPAAEAz4MdLIAAAAcAAIAuAAAAC
        wACADuAdAOAALAD+4B0v4CEAABTgISrgMADBA+AKAGBTgAXgAABChuAXA+AeAOD9WSBZIkBBUgH6Q0AH4FUMQ9VAZwH6Q6BnBYA/zLyMK+BVDOABACBnBAA/ZmZmYAPg
        YwwgAABwJOwB/kJAdCAA4D4MosLgAFaAAKBjgADgOAwgYwRwwgAAhmC6JliAA0BW4EEMIGPgAE3g8AAAUCAA4Of8AP/gFwAABEERCggyAwAAQDIAAAA8QikgAwHwQmLY
        AAEgAYLiIAcgAkKVgAagCSA3oAkgSKAJKxegCQAG4AAJKwSgEyAAoAmASKAGoBPgwk/gSwAAEaBUA2tuYWJBMcAAAYAAIAAAGaARA2N0bmlMiwERJ2FcTFBAAEocAaBC
        4hMPTInAH00bwAvg/QDgvQABIACAAANzaXVnQiQA6CNxwAAAKiAIABkgAyOYYAAj0mAAB2dwdGNZVE1FQAwLDWJlhQEAAAAAAAAAAQAAAAABAAAAAAAAAA==
        ADxkaXNhYmxlZD4AEAAAAA==
      >
      PRESETNAME <disabled>
      FLOATPOS 0 0 0 0
      FXID {3A8D75A0-AF9D-3F44-B0FC-610730336EB0}
      WAK 0 0
    >
    <ITEM
      POSITION 51.42854399998402
      SNAPOFFS 0
      LENGTH 159.64277200001598
      LOOP 1
      ALLTAKES 0
      FADEIN 1 0 0 1 0 0
      FADEOUT 1 0 0 1 0 0
      MUTE 0 0
      SEL 0
      IGUID {35D18224-ACE6-EC4C-98DE-39BD63335A5E}
      IID 64
      NAME "mission brand tortilla strips.mid"
      VOLPAN 1 0 1 -1
      SOFFS 51.42854399998402 96
      PLAYRATE 1 1 0 -1 0 0.0025
      CHANMODE 0
      GUID {3A4C20A6-B21D-0A42-AC1D-B054DD88625F}
      <SOURCE MIDI
        HASDATA 1 128 QN
        CCINTERP 32
        POOLEDEVTS {59062CB8-4750-8945-AA5D-8806FB92F8A1}
        E 12288 9a 3a 35
        E 112 8a 3a 35
        E 0 9a 41 35
        E 48 8a 41 35
        E 0 9a 3a 35
        E 16 8a 3a 35
        E 0 9a 36 35
        E 0 9a 35 35
        E 128 8a 35 35
        E 0 9a 42 35
        E 16 8a 42 35
        E 0 9a 36 35
        E 0 9a 3a 35
        E 112 8a 3a 35
        E 0 9a 41 35
        E 48 8a 41 35
        E 0 9a 3a 35
        E 16 8a 3a 35
        E 0 9a 36 35
        E 0 9a 35 35
        E 128 8a 35 35
        E 0 9a 42 35
        E 16 8a 42 35
        E 0 9a 36 35
        E 0 9a 3a 35
        E 112 8a 3a 35
        E 0 9a 41 35
        E 48 8a 41 35
        E 0 9a 3a 35
        E 16 8a 3a 35
        E 0 9a 36 35
        E 0 9a 35 35
        E 128 8a 35 35
        E 0 9a 42 35
        E 16 8a 42 35
        E 0 9a 36 35
        E 0 9a 3a 35
        E 112 8a 3a 35
        E 0 9a 41 35
        E 48 8a 41 35
        E 0 9a 3a 35
        E 16 8a 3a 35
        E 0 9a 36 35
        E 0 9a 35 35
        E 128 8a 35 35
        E 0 9a 42 35
        E 16 8a 42 35
        E 0 9a 36 35
        E 0 9a 3a 35
        E 112 8a 3a 35
        E 0 9a 41 35
        E 48 8a 41 35
        E 0 9a 3a 35
        E 16 8a 3a 35
        E 0 9a 36 35
        E 0 9a 35 35
        E 128 8a 35 35
        E 0 9a 42 35
        E 16 8a 42 35
        E 0 9a 36 35
        E 0 9a 3a 35
        E 112 8a 3a 35
        E 0 9a 41 35
        E 48 8a 41 35
        E 0 9a 3a 35
        E 16 8a 3a 35
        E 0 9a 36 35
        E 0 9a 35 35
        E 128 8a 35 35
        E 0 9a 42 35
        E 16 8a 42 35
        E 0 9a 36 35
        E 0 9a 3a 35
        E 112 8a 3a 35
        E 0 9a 41 35
        E 48 8a 41 35
        E 0 9a 3a 35
        E 16 8a 3a 35
        E 0 9a 36 35
        E 0 9a 35 35
        E 128 8a 35 35
        E 0 9a 42 35
        E 16 8a 42 35
        E 0 9a 36 35
        E 0 9a 3a 35
        E 112 8a 3a 35
        E 0 9a 41 35
        E 48 8a 41 35
        E 0 9a 3a 35
        E 16 8a 3a 35
        E 0 9a 36 35
        E 0 9a 35 35
        E 128 8a 35 35
        E 0 9a 42 35
        E 16 8a 42 35
        E 0 9a 36 35
        E 0 9a 3a 35
        E 112 8a 3a 35
        E 0 9a 41 35
        E 48 8a 41 35
        E 0 9a 3a 35
        E 16 8a 3a 35
        E 0 9a 36 35
        E 0 9a 35 35
        E 128 8a 35 35
        E 0 9a 42 35
        E 16 8a 42 35
        E 0 9a 36 35
        E 0 9a 3a 35
        E 112 8a 3a 35
        E 0 9a 41 35
        E 48 8a 41 35
        E 0 9a 3a 35
        E 16 8a 3a 35
        E 0 9a 36 35
        E 0 9a 35 35
        E 128 8a 35 35
        E 0 9a 42 35
        E 16 8a 42 35
        E 0 9a 36 35
        E 0 9a 3a 35
        E 112 8a 3a 35
        E 0 9a 41 35
        E 48 8a 41 35
        E 0 9a 3a 35
        E 16 8a 3a 35
        E 0 9a 36 35
        E 0 9a 35 35
        E 128 8a 35 35
        E 0 9a 42 35
        E 16 8a 42 35
        E 0 9a 36 35
        E 0 9a 3a 35
        E 112 8a 3a 35
        E 0 9a 41 35
        E 48 8a 41 35
        E 0 9a 3a 35
        E 16 8a 3a 35
        E 0 9a 36 35
        E 0 9a 35 35
        E 128 8a 35 35
        E 0 9a 42 35
        E 16 8a 42 35
        E 0 9a 36 35
        E 0 9a 3a 35
        E 112 8a 3a 35
        E 0 9a 41 35
        E 48 8a 41 35
        E 0 9a 3a 35
        E 16 8a 3a 35
        E 0 9a 36 35
        E 0 9a 35 35
        E 128 8a 35 35
        E 0 9a 42 35
        E 16 8a 42 35
        E 0 9a 36 35
        E 0 9a 3a 35
        E 112 8a 3a 35
        E 0 9a 41 35
        E 48 8a 41 35
        E 0 9a 3a 35
        E 16 8a 3a 35
        E 0 9a 36 35
        E 0 9a 35 35
        E 128 8a 35 35
        E 0 9a 42 35
        E 16 8a 42 35
        E 0 9a 36 35
        E 0 9a 3a 35
        E 112 8a 3a 35
        E 0 9a 41 35
        E 48 8a 41 35
        E 0 9a 3a 35
        E 16 8a 3a 35
        E 0 9a 36 35
        E 0 9a 35 35
        E 128 8a 35 35
        E 0 9a 42 35
        E 16 8a 42 35
        E 0 9a 36 35
        E 0 9a 3a 35
        E 112 8a 3a 35
        E 0 9a 41 35
        E 48 8a 41 35
        E 0 9a 3a 35
        E 16 8a 3a 35
        E 0 9a 36 35
        E 0 9a 35 35
        E 128 8a 35 35
        E 0 9a 42 35
        E 16 8a 42 35
        E 0 9a 36 35
        E 0 9a 3a 35
        E 112 8a 3a 35
        E 0 9a 41 35
        E 48 8a 41 35
        E 0 9a 3a 35
        E 16 8a 3a 35
        E 0 9a 36 35
        E 0 9a 35 35
        E 128 8a 35 35
        E 0 9a 42 35
        E 16 8a 42 35
        E 0 9a 36 35
        E 0 9a 3a 35
        E 112 8a 3a 35
        E 0 9a 41 35
        E 48 8a 41 35
        E 0 9a 3a 35
        E 16 8a 3a 35
        E 0 9a 36 35
        E 0 9a 35 35
        E 128 8a 35 35
        E 0 9a 42 35
        E 16 8a 42 35
        E 0 9a 36 35
        E 0 9a 3a 35
        E 112 8a 3a 35
        E 0 9a 41 35
        E 48 8a 41 35
        E 0 9a 3a 35
        E 16 8a 3a 35
        E 0 9a 36 35
        E 0 9a 35 35
        E 128 8a 35 35
        E 0 9a 42 35
        E 16 8a 42 35
        E 0 9a 36 35
        E 0 9a 3a 35
        E 112 8a 3a 35
        E 0 9a 41 35
        E 48 8a 41 35
        E 0 9a 3a 35
        E 16 8a 3a 35
        E 0 9a 36 35
        E 0 9a 35 35
        E 128 8a 35 35
        E 0 9a 42 35
        E 16 8a 42 35
        E 0 9a 36 35
        E 0 9a 3a 35
        E 112 8a 3a 35
        E 0 9a 41 35
        E 48 8a 41 35
        E 0 9a 3a 35
        E 16 8a 3a 35
        E 0 9a 36 35
        E 0 9a 35 35
        E 128 8a 35 35
        E 0 9a 42 35
        E 16 8a 42 35
        E 0 9a 36 35
        E 0 9a 3a 35
        E 112 8a 3a 35
        E 0 9a 41 35
        E 48 8a 41 35
        E 0 9a 3a 35
        E 16 8a 3a 35
        E 0 9a 36 35
        E 0 9a 35 35
        E 128 8a 35 35
        E 0 9a 42 35
        E 16 8a 42 35
        E 0 9a 36 35
        E 0 9a 3a 35
        E 112 8a 3a 35
        E 0 9a 41 35
        E 48 8a 41 35
        E 0 9a 3a 35
        E 16 8a 3a 35
        E 0 9a 36 35
        E 0 9a 35 35
        E 128 8a 35 35
        E 0 9a 42 35
        E 16 8a 42 35
        E 0 9a 36 35
        E 0 9a 3a 35
        E 112 8a 3a 35
        E 0 9a 41 35
        E 48 8a 41 35
        E 0 9a 3a 35
        E 16 8a 3a 35
        E 0 9a 36 35
        E 0 9a 35 35
        E 128 8a 35 35
        E 0 9a 42 35
        E 16 8a 42 35
        E 0 9a 36 35
        E 0 9a 3a 35
        E 112 8a 3a 35
        E 0 9a 41 35
        E 48 8a 41 35
        E 0 9a 3a 35
        E 16 8a 3a 35
        E 0 9a 36 35
        E 0 9a 35 35
        E 128 8a 35 35
        E 0 9a 42 35
        E 16 8a 42 35
        E 0 9a 36 35
        E 0 9a 3a 35
        E 112 8a 3a 35
        E 0 9a 41 35
        E 48 8a 41 35
        E 0 9a 3a 35
        E 16 8a 3a 35
        E 0 9a 36 35
        E 0 9a 35 35
        E 128 8a 35 35
        E 0 9a 42 35
        E 16 8a 42 35
        E 0 9a 36 35
        E 0 9a 3a 35
        E 112 8a 3a 35
        E 0 9a 41 35
        E 48 8a 41 35
        E 0 9a 3a 35
        E 16 8a 3a 35
        E 0 9a 36 35
        E 0 9a 35 35
        E 128 8a 35 35
        E 0 9a 42 35
        E 16 8a 42 35
        E 0 9a 36 35
        E 0 9a 3a 35
        E 112 8a 3a 35
        E 0 9a 41 35
        E 48 8a 41 35
        E 0 9a 3a 35
        E 16 8a 3a 35
        E 0 9a 36 35
        E 0 9a 35 35
        E 128 8a 35 35
        E 0 9a 42 35
        E 16 8a 42 35
        E 0 9a 36 35
        E 0 9a 3a 35
        E 112 8a 3a 35
        E 0 9a 41 35
        E 48 8a 41 35
        E 0 9a 3a 35
        E 16 8a 3a 35
        E 0 9a 36 35
        E 0 9a 35 35
        E 128 8a 35 35
        E 0 9a 42 35
        E 16 8a 42 35
        E 0 9a 36 35
        E 0 9a 3a 35
        E 112 8a 3a 35
        E 0 9a 41 35
        E 48 8a 41 35
        E 0 9a 3a 35
        E 16 8a 3a 35
        E 0 9a 36 35
        E 0 9a 35 35
        E 128 8a 35 35
        E 0 9a 42 35
        E 16 8a 42 35
        E 0 9a 36 35
        E 0 9a 3a 35
        E 112 8a 3a 35
        E 0 9a 41 35
        E 48 8a 41 35
        E 0 9a 3a 35
        E 16 8a 3a 35
        E 0 9a 36 35
        E 0 9a 35 35
        E 128 8a 35 35
        E 0 9a 42 35
        E 16 8a 42 35
        E 0 9a 36 35
        E 0 9a 3a 35
        E 112 8a 3a 35
        E 0 9a 41 35
        E 48 8a 41 35
        E 0 9a 3a 35
        E 16 8a 3a 35
        E 0 9a 36 35
        E 0 9a 35 35
        E 128 8a 35 35
        E 0 9a 42 35
        E 16 8a 42 35
        E 0 9a 36 35
        E 0 9a 3a 35
        E 112 8a 3a 35
        E 0 9a 41 35
        E 48 8a 41 35
        E 0 9a 3a 35
        E 16 8a 3a 35
        E 0 9a 36 35
        E 0 9a 35 35
        E 128 8a 35 35
        E 0 9a 42 35
        E 16 8a 42 35
        E 0 9a 36 35
        E 0 9a 3a 35
        E 112 8a 3a 35
        E 0 9a 41 35
        E 48 8a 41 35
        E 0 9a 3a 35
        E 16 8a 3a 35
        E 0 9a 36 35
        E 0 9a 35 35
        E 128 8a 35 35
        E 0 9a 42 35
        E 16 8a 42 35
        E 0 9a 36 35
        E 0 9a 3a 35
        E 112 8a 3a 35
        E 0 9a 41 35
        E 48 8a 41 35
        E 0 9a 3a 35
        E 16 8a 3a 35
        E 0 9a 36 35
        E 0 9a 35 35
        E 128 8a 35 35
        E 0 9a 42 35
        E 16 8a 42 35
        E 0 9a 36 35
        E 0 9a 3a 35
        E 112 8a 3a 35
        E 0 9a 41 35
        E 48 8a 41 35
        E 0 9a 3a 35
        E 16 8a 3a 35
        E 0 9a 36 35
        E 0 9a 35 35
        E 128 8a 35 35
        E 0 9a 42 35
        E 16 8a 42 35
        E 0 9a 36 35
        E 0 9a 3a 35
        E 112 8a 3a 35
        E 0 9a 41 35
        E 48 8a 41 35
        E 0 9a 3a 35
        E 16 8a 3a 35
        E 0 9a 36 35
        E 0 9a 35 35
        E 128 8a 35 35
        E 0 9a 42 35
        E 16 8a 42 35
        E 0 9a 36 35
        E 0 9a 3a 35
        E 112 8a 3a 35
        E 0 9a 41 35
        E 48 8a 41 35
        E 0 9a 3a 35
        E 16 8a 3a 35
        E 0 9a 36 35
        E 0 9a 35 35
        E 128 8a 35 35
        E 0 9a 42 35
        E 16 8a 42 35
        E 0 9a 36 35
        E 0 9a 3a 35
        E 112 8a 3a 35
        E 0 9a 41 35
        E 48 8a 41 35
        E 0 9a 3a 35
        E 16 8a 3a 35
        E 0 9a 36 35
        E 0 9a 35 35
        E 128 8a 35 35
        E 0 9a 42 35
        E 16 8a 42 35
        E 0 9a 36 35
        E 0 9a 3a 35
        E 112 8a 3a 35
        E 0 9a 41 35
        E 48 8a 41 35
        E 0 9a 3a 35
        E 16 8a 3a 35
        E 0 9a 36 35
        E 0 9a 35 35
        E 128 8a 35 35
        E 0 9a 42 35
        E 16 8a 42 35
        E 0 9a 36 35
        E 0 9a 3a 35
        E 112 8a 3a 35
        E 0 9a 41 35
        E 48 8a 41 35
        E 0 9a 3a 35
        E 16 8a 3a 35
        E 0 9a 36 35
        E 0 9a 35 35
        E 128 8a 35 35
        E 0 9a 42 35
        E 16 8a 42 35
        E 0 9a 36 35
        E 0 9a 3a 35
        E 112 8a 3a 35
        E 0 9a 41 35
        E 48 8a 41 35
        E 0 9a 3a 35
        E 16 8a 3a 35
        E 0 9a 36 35
        E 0 9a 35 35
        E 128 8a 35 35
        E 0 9a 42 35
        E 16 8a 42 35
        E 0 9a 36 35
        E 0 9a 3a 35
        E 112 8a 3a 35
        E 0 9a 41 35
        E 48 8a 41 35
        E 0 9a 3a 35
        E 16 8a 3a 35
        E 0 9a 36 35
        E 0 9a 35 35
        E 128 8a 35 35
        E 0 9a 42 35
        E 16 8a 42 35
        E 0 9a 36 35
        E 0 9a 3a 35
        E 112 8a 3a 35
        E 0 9a 41 35
        E 48 8a 41 35
        E 0 9a 3a 35
        E 16 8a 3a 35
        E 0 9a 36 35
        E 0 9a 35 35
        E 128 8a 35 35
        E 0 9a 42 35
        E 16 8a 42 35
        E 0 9a 36 35
        E 0 9a 3a 35
        E 112 8a 3a 35
        E 0 9a 41 35
        E 48 8a 41 35
        E 0 9a 3a 35
        E 16 8a 3a 35
        E 0 9a 36 35
        E 0 9a 35 35
        E 128 8a 35 35
        E 0 9a 42 35
        E 16 8a 42 35
        E 0 9a 36 35
        E 0 9a 3a 35
        E 112 8a 3a 35
        E 0 9a 41 35
        E 48 8a 41 35
        E 0 9a 3a 35
        E 16 8a 3a 35
        E 0 9a 36 35
        E 0 9a 35 35
        E 128 8a 35 35
        E 0 9a 42 35
        E 16 8a 42 35
        E 0 9a 36 35
        E 0 9a 3a 35
        E 112 8a 3a 35
        E 0 9a 41 35
        E 48 8a 41 35
        E 0 9a 3a 35
        E 16 8a 3a 35
        E 0 9a 36 35
        E 0 9a 35 35
        E 128 8a 35 35
        E 0 9a 42 35
        E 16 8a 42 35
        E 0 9a 36 35
        E 0 9a 3a 35
        E 112 8a 3a 35
        E 0 9a 41 35
        E 48 8a 41 35
        E 0 9a 3a 35
        E 16 8a 3a 35
        E 0 9a 36 35
        E 0 9a 35 35
        E 128 8a 35 35
        E 0 9a 42 35
        E 16 8a 42 35
        E 0 9a 36 35
        E 0 9a 3a 35
        E 112 8a 3a 35
        E 0 9a 41 35
        E 48 8a 41 35
        E 0 9a 3a 35
        E 16 8a 3a 35
        E 0 9a 36 35
        E 0 9a 35 35
        E 128 8a 35 35
        E 0 9a 42 35
        E 16 8a 42 35
        E 0 9a 36 35
        E 0 9a 3a 35
        E 112 8a 3a 35
        E 0 9a 41 35
        E 48 8a 41 35
        E 0 9a 3a 35
        E 16 8a 3a 35
        E 0 9a 36 35
        E 0 9a 35 35
        E 128 8a 35 35
        E 0 9a 42 35
        E 16 8a 42 35
        E 0 9a 36 35
        E 0 9a 3a 35
        E 112 8a 3a 35
        E 0 9a 41 35
        E 48 8a 41 35
        E 0 9a 3a 35
        E 16 8a 3a 35
        E 0 9a 36 35
        E 0 9a 35 35
        E 128 8a 35 35
        E 0 9a 42 35
        E 16 8a 42 35
        E 0 9a 36 35
        E 0 9a 3a 35
        E 112 8a 3a 35
        E 0 9a 41 35
        E 48 8a 41 35
        E 0 9a 3a 35
        E 16 8a 3a 35
        E 0 9a 36 35
        E 0 9a 35 35
        E 128 8a 35 35
        E 0 9a 42 35
        E 16 8a 42 35
        E 0 9a 36 35
        E 0 9a 3a 35
        E 112 8a 3a 35
        E 0 9a 41 35
        E 48 8a 41 35
        E 0 9a 3a 35
        E 16 8a 3a 35
        E 0 9a 36 35
        E 0 9a 35 35
        E 128 8a 35 35
        E 0 9a 42 35
        E 16 8a 42 35
        E 0 9a 36 35
        E 0 9a 3a 35
        E 112 8a 3a 35
        E 0 9a 41 35
        E 48 8a 41 35
        E 0 9a 3a 35
        E 16 8a 3a 35
        E 0 9a 36 35
        E 0 9a 35 35
        E 128 8a 35 35
        E 0 9a 42 35
        E 16 8a 42 35
        E 0 9a 36 35
        E 0 9a 3a 35
        E 112 8a 3a 35
        E 0 9a 41 35
        E 48 8a 41 35
        E 0 9a 3a 35
        E 16 8a 3a 35
        E 0 9a 36 35
        E 0 9a 35 35
        E 128 8a 35 35
        E 0 9a 42 35
        E 16 8a 42 35
        E 0 9a 36 35
        E 0 9a 3a 35
        E 112 8a 3a 35
        E 0 9a 41 35
        E 48 8a 41 35
        E 0 9a 3a 35
        E 16 8a 3a 35
        E 0 9a 36 35
        E 0 9a 35 35
        E 128 8a 35 35
        E 0 9a 42 35
        E 16 8a 42 35
        E 0 9a 36 35
        E 0 9a 35 35
        E 48 8a 35 35
        E 0 9a 35 35
        E 48 8a 35 35
        E 0 9a 35 35
        E 48 8a 35 35
        E 0 9a 35 35
        E 48 8a 35 35
        E 0 9a 35 35
        E 48 8a 35 35
        E 0 9a 35 35
        E 48 8a 35 35
        E 0 9a 35 35
        E 48 8a 35 35
        E 0 9a 35 35
        E 48 8a 35 35
        E 0 9a 35 35
        E 48 8a 35 35
        E 0 9a 35 35
        E 48 8a 35 35
        E 0 9a 35 35
        E 48 8a 35 35
        E 0 9a 35 35
        E 48 8a 35 35
        E 0 9a 35 35
        E 48 8a 35 35
        E 0 9a 35 35
        E 48 8a 35 35
        E 0 9a 35 35
        E 48 8a 35 35
        E 0 9a 35 35
        E 48 8a 35 35
        E 0 9a 35 35
        E 48 8a 35 35
        E 0 9a 35 35
        E 48 8a 35 35
        E 0 9a 35 35
        E 48 8a 35 35
        E 0 9a 35 35
        E 48 8a 35 35
        E 0 9a 35 35
        E 48 8a 35 35
        E 0 9a 35 35
        E 48 8a 35 35
        E 0 9a 35 35
        E 48 8a 35 35
        E 0 9a 35 35
        E 48 8a 35 35
        E 0 9a 3a 35
        E 16 8a 3a 35
        E 0 9a 36 35
        E 0 9a 35 35
        E 128 8a 35 35
        E 0 9a 42 35
        E 16 8a 42 35
        E 0 9a 36 35
        E 0 9a 35 35
        E 48 8a 35 35
        E 0 9a 3a 35
        E 112 8a 3a 35
        E 0 9a 3a 35
        E 16 8a 3a 35
        E 0 9a 36 35
        E 0 9a 35 35
        E 128 8a 35 35
        E 0 9a 42 35
        E 16 8a 42 35
        E 0 9a 36 35
        E 0 9a 35 35
        E 48 8a 35 35
        E 0 9a 3a 35
        E 112 8a 3a 35
        E 0 9a 3a 35
        E 16 8a 3a 35
        E 0 9a 36 35
        E 0 9a 35 35
        E 128 8a 35 35
        E 0 9a 42 35
        E 16 8a 42 35
        E 0 9a 36 35
        E 0 9a 35 35
        E 48 8a 35 35
        E 0 9a 3a 35
        E 112 8a 3a 35
        E 0 9a 3a 35
        E 16 8a 3a 35
        E 0 9a 36 35
        E 0 9a 35 35
        E 128 8a 35 35
        E 0 9a 42 35
        E 16 8a 42 35
        E 0 9a 36 35
        E 0 9a 35 35
        E 48 8a 35 35
        E 0 9a 3a 35
        E 112 8a 3a 35
        E 0 9a 3a 35
        E 16 8a 3a 35
        E 0 9a 36 35
        E 0 9a 35 35
        E 128 8a 35 35
        E 0 9a 42 35
        E 16 8a 42 35
        E 0 9a 36 35
        E 0 9a 35 35
        E 48 8a 35 35
        E 0 9a 3a 35
        E 112 8a 3a 35
        E 0 9a 3a 35
        E 16 8a 3a 35
        E 0 9a 36 35
        E 0 9a 35 35
        E 128 8a 35 35
        E 0 9a 42 35
        E 16 8a 42 35
        E 0 9a 36 35
        E 0 9a 35 35
        E 48 8a 35 35
        E 0 9a 3a 35
        E 112 8a 3a 35
        E 0 9a 3a 35
        E 16 8a 3a 35
        E 0 9a 36 35
        E 0 9a 35 35
        E 128 8a 35 35
        E 0 9a 42 35
        E 16 8a 42 35
        E 0 9a 36 35
        E 0 9a 35 35
        E 48 8a 35 35
        E 0 9a 3a 35
        E 112 8a 3a 35
        E 0 9a 3a 35
        E 16 8a 3a 35
        E 0 9a 36 35
        E 0 9a 35 35
        E 128 8a 35 35
        E 0 9a 42 35
        E 16 8a 42 35
        E 0 9a 36 35
        E 0 9a 35 35
        E 48 8a 35 35
        E 0 9a 3a 35
        E 112 8a 3a 35
        E 0 9a 3a 35
        E 16 8a 3a 35
        E 0 9a 36 35
        E 0 9a 35 35
        E 128 8a 35 35
        E 0 9a 42 35
        E 16 8a 42 35
        E 0 9a 36 35
        E 0 9a 35 35
        E 48 8a 35 35
        E 0 9a 3a 35
        E 112 8a 3a 35
        E 0 9a 3a 35
        E 16 8a 3a 35
        E 0 9a 36 35
        E 0 9a 35 35
        E 128 8a 35 35
        E 0 9a 42 35
        E 16 8a 42 35
        E 0 9a 36 35
        E 0 9a 35 35
        E 48 8a 35 35
        E 0 9a 3a 35
        E 112 8a 3a 35
        E 0 9a 3a 35
        E 16 8a 3a 35
        E 0 9a 36 35
        E 0 9a 35 35
        E 128 8a 35 35
        E 0 9a 42 35
        E 16 8a 42 35
        E 0 9a 36 35
        E 0 9a 35 35
        E 48 8a 35 35
        E 0 9a 3a 35
        E 112 8a 3a 35
        E 0 9a 3a 35
        E 16 8a 3a 35
        E 0 9a 36 35
        E 0 9a 35 35
        E 128 8a 35 35
        E 0 9a 42 35
        E 16 8a 42 35
        E 0 9a 36 35
        E 0 9a 35 35
        E 48 8a 35 35
        E 0 9a 3a 35
        E 112 8a 3a 35
        E 0 9a 3a 35
        E 16 8a 3a 35
        E 0 9a 36 35
        E 0 9a 35 35
        E 128 8a 35 35
        E 0 9a 42 35
        E 16 8a 42 35
        E 0 9a 36 35
        E 0 9a 35 35
        E 48 8a 35 35
        E 0 9a 3a 35
        E 112 8a 3a 35
        E 0 9a 3a 35
        E 16 8a 3a 35
        E 0 9a 36 35
        E 0 9a 35 35
        E 128 8a 35 35
        E 0 9a 42 35
        E 16 8a 42 35
        E 0 9a 36 35
        E 0 9a 35 35
        E 48 8a 35 35
        E 0 9a 3a 35
        E 112 8a 3a 35
        E 0 9a 3a 35
        E 16 8a 3a 35
        E 0 9a 36 35
        E 0 9a 35 35
        E 128 8a 35 35
        E 0 9a 42 35
        E 16 8a 42 35
        E 0 9a 36 35
        E 0 9a 35 35
        E 48 8a 35 35
        E 0 9a 3a 35
        E 112 8a 3a 35
        E 0 9a 3a 35
        E 16 8a 3a 35
        E 0 9a 36 35
        E 0 9a 35 35
        E 128 8a 35 35
        E 0 9a 42 35
        E 16 8a 42 35
        E 0 9a 36 35
        E 0 9a 35 35
        E 48 8a 35 35
        E 0 9a 3a 35
        E 112 8a 3a 35
        E 0 9a 3a 35
        E 16 8a 3a 35
        E 0 9a 36 35
        E 0 9a 35 35
        E 128 8a 35 35
        E 0 9a 42 35
        E 16 8a 42 35
        E 0 9a 36 35
        E 0 9a 35 35
        E 48 8a 35 35
        E 0 9a 3a 35
        E 112 8a 3a 35
        E 0 9a 3a 35
        E 16 8a 3a 35
        E 0 9a 36 35
        E 0 9a 35 35
        E 128 8a 35 35
        E 0 9a 42 35
        E 16 8a 42 35
        E 0 9a 36 35
        E 0 9a 35 35
        E 48 8a 35 35
        E 0 9a 3a 35
        E 112 8a 3a 35
        E 0 9a 3a 35
        E 16 8a 3a 35
        E 0 9a 36 35
        E 0 9a 35 35
        E 128 8a 35 35
        E 0 9a 42 35
        E 16 8a 42 35
        E 0 9a 36 35
        E 0 9a 35 35
        E 48 8a 35 35
        E 0 9a 3a 35
        E 112 8a 3a 35
        E 0 9a 3a 35
        E 16 8a 3a 35
        E 0 9a 36 35
        E 0 9a 35 35
        E 128 8a 35 35
        E 0 9a 42 35
        E 16 8a 42 35
        E 0 9a 36 35
        E 0 9a 35 35
        E 48 8a 35 35
        E 0 9a 3a 35
        E 112 8a 3a 35
        E 0 9a 3a 35
        E 16 8a 3a 35
        E 0 9a 36 35
        E 0 9a 35 35
        E 128 8a 35 35
        E 0 9a 42 35
        E 16 8a 42 35
        E 0 9a 36 35
        E 0 9a 35 35
        E 48 8a 35 35
        E 0 9a 3a 35
        E 112 8a 3a 35
        E 0 9a 3a 35
        E 16 8a 3a 35
        E 0 9a 36 35
        E 0 9a 35 35
        E 128 8a 35 35
        E 0 9a 42 35
        E 16 8a 42 35
        E 0 9a 36 35
        E 0 9a 35 35
        E 48 8a 35 35
        E 0 9a 3a 35
        E 112 8a 3a 35
        E 0 9a 3a 35
        E 16 8a 3a 35
        E 0 9a 36 35
        E 0 9a 35 35
        E 128 8a 35 35
        E 0 9a 42 35
        E 16 8a 42 35
        E 0 9a 36 35
        E 0 9a 35 35
        E 48 8a 35 35
        E 0 9a 3a 35
        E 112 8a 3a 35
        E 0 9a 3a 35
        E 16 8a 3a 35
        E 0 9a 36 35
        E 0 9a 35 35
        E 128 8a 35 35
        E 0 9a 42 35
        E 16 8a 42 35
        E 0 9a 36 35
        E 0 9a 35 35
        E 48 8a 35 35
        E 0 9a 3a 35
        E 112 8a 3a 35
        E 0 9a 3a 35
        E 16 8a 3a 35
        E 0 9a 36 35
        E 0 9a 35 35
        E 128 8a 35 35
        E 0 9a 42 35
        E 16 8a 42 35
        E 0 9a 36 35
        E 0 9a 35 35
        E 48 8a 35 35
        E 0 9a 3a 35
        E 112 8a 3a 35
        E 0 9a 3a 35
        E 16 8a 3a 35
        E 0 9a 36 35
        E 0 9a 35 35
        E 128 8a 35 35
        E 0 9a 42 35
        E 16 8a 42 35
        E 0 9a 36 35
        E 0 9a 35 35
        E 48 8a 35 35
        E 0 9a 3a 35
        E 112 8a 3a 35
        E 0 9a 3a 35
        E 16 8a 3a 35
        E 0 9a 36 35
        E 0 9a 35 35
        E 128 8a 35 35
        E 0 9a 42 35
        E 16 8a 42 35
        E 0 9a 36 35
        E 0 9a 35 35
        E 48 8a 35 35
        E 0 9a 3a 35
        E 112 8a 3a 35
        E 0 9a 3a 35
        E 16 8a 3a 35
        E 0 9a 36 35
        E 0 9a 35 35
        E 128 8a 35 35
        E 0 9a 42 35
        E 16 8a 42 35
        E 0 9a 36 35
        E 0 9a 35 35
        E 48 8a 35 35
        E 0 9a 3a 35
        E 112 8a 3a 35
        E 0 9a 3a 35
        E 16 8a 3a 35
        E 0 9a 36 35
        E 0 9a 35 35
        E 128 8a 35 35
        E 0 9a 42 35
        E 16 8a 42 35
        E 0 9a 36 35
        E 0 9a 35 35
        E 48 8a 35 35
        E 0 9a 3a 35
        E 112 8a 3a 35
        E 0 9a 3a 35
        E 16 8a 3a 35
        E 0 9a 36 35
        E 0 9a 35 35
        E 128 8a 35 35
        E 0 9a 42 35
        E 16 8a 42 35
        E 0 9a 36 35
        E 0 9a 35 35
        E 48 8a 35 35
        E 0 9a 3a 35
        E 112 8a 3a 35
        E 0 9a 3a 35
        E 16 8a 3a 35
        E 0 9a 36 35
        E 0 9a 35 35
        E 128 8a 35 35
        E 0 9a 42 35
        E 16 8a 42 35
        E 0 9a 36 35
        E 0 9a 35 35
        E 48 8a 35 35
        E 0 9a 3a 35
        E 112 8a 3a 35
        E 0 9a 3a 35
        E 16 8a 3a 35
        E 0 9a 36 35
        E 0 9a 35 35
        E 128 8a 35 35
        E 0 9a 42 35
        E 16 8a 42 35
        E 0 9a 36 35
        E 0 9a 35 35
        E 48 8a 35 35
        E 0 9a 3a 35
        E 112 8a 3a 35
        E 0 9a 3a 35
        E 16 8a 3a 35
        E 0 9a 36 35
        E 0 9a 35 35
        E 128 8a 35 35
        E 0 9a 42 35
        E 16 8a 42 35
        E 0 9a 36 35
        E 0 9a 35 35
        E 48 8a 35 35
        E 0 9a 3a 35
        E 112 8a 3a 35
        E 0 9a 3a 35
        E 16 8a 3a 35
        E 0 9a 36 35
        E 0 9a 35 35
        E 128 8a 35 35
        E 0 9a 42 35
        E 16 8a 42 35
        E 0 9a 36 35
        E 0 9a 35 35
        E 48 8a 35 35
        E 0 9a 3a 35
        E 112 8a 3a 35
        E 0 9a 3a 35
        E 16 8a 3a 35
        E 0 9a 36 35
        E 0 9a 35 35
        E 128 8a 35 35
        E 0 9a 42 35
        E 16 8a 42 35
        E 0 9a 36 35
        E 0 9a 35 35
        E 48 8a 35 35
        E 0 9a 3a 35
        E 112 8a 3a 35
        E 0 9a 3a 35
        E 16 8a 3a 35
        E 0 9a 36 35
        E 0 9a 35 35
        E 128 8a 35 35
        E 0 9a 42 35
        E 16 8a 42 35
        E 0 9a 36 35
        E 0 9a 35 35
        E 48 8a 35 35
        E 0 9a 3a 35
        E 112 8a 3a 35
        E 0 9a 3a 35
        E 16 8a 3a 35
        E 0 9a 36 35
        E 0 9a 35 35
        E 128 8a 35 35
        E 0 9a 42 35
        E 16 8a 42 35
        E 0 9a 36 35
        E 0 9a 35 35
        E 48 8a 35 35
        E 0 9a 3a 35
        E 112 8a 3a 35
        E 0 9a 3a 35
        E 16 8a 3a 35
        E 0 9a 36 35
        E 0 9a 35 35
        E 128 8a 35 35
        E 0 9a 42 35
        E 16 8a 42 35
        E 0 9a 36 35
        E 0 9a 35 35
        E 48 8a 35 35
        E 0 9a 3a 35
        E 112 8a 3a 35
        E 0 9a 3a 35
        E 16 8a 3a 35
        E 0 9a 36 35
        E 0 9a 35 35
        E 128 8a 35 35
        E 0 9a 42 35
        E 16 8a 42 35
        E 0 9a 36 35
        E 0 9a 35 35
        E 48 8a 35 35
        E 0 9a 3a 35
        E 112 8a 3a 35
        E 0 9a 3a 35
        E 16 8a 3a 35
        E 0 9a 36 35
        E 0 9a 35 35
        E 128 8a 35 35
        E 0 9a 42 35
        E 16 8a 42 35
        E 0 9a 36 35
        E 0 9a 35 35
        E 48 8a 35 35
        E 0 9a 3a 35
        E 112 8a 3a 35
        E 0 9a 3a 35
        E 16 8a 3a 35
        E 0 9a 36 35
        E 0 9a 35 35
        E 128 8a 35 35
        E 0 9a 42 35
        E 16 8a 42 35
        E 0 9a 36 35
        E 0 9a 35 35
        E 48 8a 35 35
        E 0 9a 3a 35
        E 112 8a 3a 35
        E 0 9a 3a 35
        E 16 8a 3a 35
        E 0 9a 36 35
        E 0 9a 35 35
        E 128 8a 35 35
        E 0 9a 42 35
        E 16 8a 42 35
        E 0 9a 36 35
        E 0 9a 35 35
        E 48 8a 35 35
        E 0 9a 3a 35
        E 112 8a 3a 35
        E 0 9a 3a 35
        E 16 8a 3a 35
        E 0 9a 36 35
        E 0 9a 35 35
        E 128 8a 35 35
        E 0 9a 42 35
        E 16 8a 42 35
        E 0 9a 36 35
        E 0 9a 35 35
        E 48 8a 35 35
        E 0 9a 3a 35
        E 112 8a 3a 35
        E 0 9a 3a 35
        E 16 8a 3a 35
        E 0 9a 36 35
        E 0 9a 35 35
        E 128 8a 35 35
        E 0 9a 42 35
        E 16 8a 42 35
        E 0 9a 36 35
        E 0 9a 35 35
        E 48 8a 35 35
        E 0 9a 3a 35
        E 112 8a 3a 35
        E 0 9a 3a 35
        E 16 8a 3a 35
        E 0 9a 36 35
        E 0 9a 35 35
        E 128 8a 35 35
        E 0 9a 42 35
        E 16 8a 42 35
        E 0 9a 36 35
        E 0 9a 35 35
        E 48 8a 35 35
        E 0 9a 3a 35
        E 112 8a 3a 35
        E 0 9a 3a 35
        E 16 8a 3a 35
        E 0 9a 36 35
        E 0 9a 35 35
        E 128 8a 35 35
        E 0 9a 42 35
        E 16 8a 42 35
        E 0 9a 36 35
        E 0 9a 35 35
        E 48 8a 35 35
        E 0 9a 3a 35
        E 112 8a 3a 35
        E 0 9a 3a 35
        E 16 8a 3a 35
        E 0 9a 36 35
        E 0 9a 35 35
        E 128 8a 35 35
        E 0 9a 42 35
        E 16 8a 42 35
        E 0 9a 36 35
        E 0 9a 35 35
        E 48 8a 35 35
        E 0 9a 3a 35
        E 112 8a 3a 35
        E 0 9a 3a 35
        E 16 8a 3a 35
        E 0 9a 36 35
        E 0 9a 35 35
        E 128 8a 35 35
        E 0 9a 42 35
        E 16 8a 42 35
        E 0 9a 36 35
        E 0 9a 35 35
        E 48 8a 35 35
        E 0 9a 3a 35
        E 112 8a 3a 35
        E 0 9a 3a 35
        E 16 8a 3a 35
        E 0 9a 36 35
        E 0 9a 35 35
        E 128 8a 35 35
        E 0 9a 42 35
        E 16 8a 42 35
        E 0 9a 36 35
        E 0 9a 35 35
        E 48 8a 35 35
        E 0 9a 3a 35
        E 112 8a 3a 35
        E 0 9a 3a 35
        E 16 8a 3a 35
        E 0 9a 36 35
        E 0 9a 35 35
        E 128 8a 35 35
        E 0 9a 42 35
        E 16 8a 42 35
        E 0 9a 36 35
        E 0 9a 35 35
        E 48 8a 35 35
        E 0 9a 3a 35
        E 112 8a 3a 35
        E 0 9a 3a 35
        E 16 8a 3a 35
        E 0 9a 36 35
        E 0 9a 35 35
        E 128 8a 35 35
        E 0 9a 42 35
        E 16 8a 42 35
        E 0 9a 36 35
        E 0 9a 35 35
        E 48 8a 35 35
        E 0 9a 3a 35
        E 112 8a 3a 35
        E 0 9a 3a 35
        E 16 8a 3a 35
        E 0 9a 36 35
        E 0 9a 35 35
        E 128 8a 35 35
        E 0 9a 42 35
        E 16 8a 42 35
        E 0 9a 36 35
        E 0 9a 35 35
        E 48 8a 35 35
        E 0 9a 3a 35
        E 112 8a 3a 35
        E 0 9a 3a 35
        E 16 8a 3a 35
        E 0 9a 36 35
        E 0 9a 35 35
        E 128 8a 35 35
        E 0 9a 42 35
        E 16 8a 42 35
        E 0 9a 36 35
        E 0 9a 35 35
        E 48 8a 35 35
        E 0 9a 3a 35
        E 112 8a 3a 35
        E 0 9a 3a 35
        E 16 8a 3a 35
        E 0 9a 36 35
        E 0 9a 35 35
        E 128 8a 35 35
        E 0 9a 42 35
        E 16 8a 42 35
        E 0 9a 36 35
        E 0 9a 35 35
        E 48 8a 35 35
        E 0 9a 3a 35
        E 112 8a 3a 35
        E 0 9a 3a 35
        E 16 8a 3a 35
        E 0 9a 36 35
        E 0 9a 35 35
        E 128 8a 35 35
        E 0 9a 42 35
        E 16 8a 42 35
        E 0 9a 36 35
        E 0 9a 35 35
        E 48 8a 35 35
        E 0 9a 3a 35
        E 112 8a 3a 35
        E 0 9a 3a 35
        E 16 8a 3a 35
        E 0 9a 36 35
        E 0 9a 35 35
        E 128 8a 35 35
        E 0 9a 42 35
        E 16 8a 42 35
        E 0 9a 36 35
        E 0 9a 35 35
        E 48 8a 35 35
        E 0 9a 3a 35
        E 112 8a 3a 35
        E 0 9a 35 35
        E 48 8a 35 35
        E 0 9a 35 35
        E 48 8a 35 35
        E 0 9a 35 35
        E 48 8a 35 35
        E 0 9a 35 35
        E 48 8a 35 35
        E 0 9a 35 35
        E 48 8a 35 35
        E 0 9a 35 35
        E 48 8a 35 35
        E 0 9a 35 35
        E 48 8a 35 35
        E 0 9a 35 35
        E 48 8a 35 35
        E 0 9a 35 35
        E 48 8a 35 35
        E 0 9a 35 35
        E 48 8a 35 35
        E 0 9a 35 35
        E 48 8a 35 35
        E 0 9a 35 35
        E 48 8a 35 35
        E 0 9a 35 35
        E 48 8a 35 35
        E 0 9a 35 35
        E 48 8a 35 35
        E 0 9a 35 35
        E 48 8a 35 35
        E 0 9a 35 35
        E 48 8a 35 35
        E 0 9a 35 35
        E 48 8a 35 35
        E 0 9a 35 35
        E 48 8a 35 35
        E 0 9a 35 35
        E 48 8a 35 35
        E 0 9a 35 35
        E 48 8a 35 35
        E 0 9a 35 35
        E 48 8a 35 35
        E 0 9a 35 35
        E 48 8a 35 35
        E 0 9a 35 35
        E 48 8a 35 35
        E 0 9a 35 35
        E 47 8a 35 35
        E 1 b0 7b 00
        CCINTERP 32
        CHASE_CC_TAKEOFFS 1
        GUID {2433557F-D360-9946-8D84-59AB571C6979}
        IGNTEMPO 0 120 4 4
        SRCCOLOR 922
        VELLANE 3 156 0
        VELLANE -1 196 0
      >
    >
  >
  <TRACK {53723625-BCD5-6649-BF39-32C9F3E9F58C}
    NAME "mission brand tortilla strips"
    PEAKCOL 16576
    BEAT -1
    AUTOMODE 0
    VOLPAN 1 0 -1 -1 1
    MUTESOLO 0 0 0
    IPHASE 0
    PLAYOFFS 0 1
    ISBUS 0 0
    BUSCOMP 0 0 0 0 0
    SHOWINMIX 1 0.6667 0.5 1 0.5 0 -1 0
    FREEMODE 0
    SEL 0
    REC 0 0 1 0 0 0 0
    VU 2
    TRACKHEIGHT 0 0 0 0 -1 0
    INQ 0 0 0 0.5 100 0 0 100
    NCHAN 2
    FX 1
    TRACKID {53723625-BCD5-6649-BF39-32C9F3E9F58C}
    PERF 0
    MIDIOUT -1
    MAINSEND 1 0
    <FXCHAIN
      SHOW 0
      LASTSEL 0
      DOCKED 0
      BYPASS 0 0 0
      <VST "VSTi: FM8 (Native Instruments GmbH)" FM8.vst 0 "" 1315530296<5653544E696638666D38000000000000> ""
        OGZpTu5e7f4AAAAAAgAAAAEAAAAAAAAAAgAAAAAAAAAYBwAAAQAAAAAAEAA=
        GAcAAAAAAAABAAAAaHNpbgEAAAAAAAAAN455D8DDx0mHoN4j0l/0WZYAAAAAAAAARFNJTnYAAAABAAAASAAAAAAAAABEU0lOagAAAAEAAAAYAAAAAAAAAERTSU4BAAAA
        AQAAAAEAAAABAAAAAQAAAAEAAAAAAAAAAAAAAAAAAAANYmWFAQAAAAhwEAAAAAAAAQAAAAEAAAAAAAAAAAAAAAAAAAADAAAAMAAwADAAAAAAAAAAAAAAAAAAAAAAAAEA
        AAABAAAAAAAAAERTSU5lAAAARgYAAAAAAAABAAAAaHNpbgEAAAAAAAAAMOH4NwAUwEaoogAOyNUgkW0AAAAAAAAARFNJTmUAAAABAAAANAAAAAAAAABEU0lOagAAAAEA
        AAAYAAAAAAAAAERTSU4BAAAAAQAAAAEAAAABAAAAAgAAAAEAAAAACAAAAAEAAAAKAAAAMQAuADIALgAwAC4AMQAwADEAMAABAAAAAwAAAAAAAABEU0lObAAAAKgBAAAA
        AAAAAQAAAGhzaW4BAAAAAAAAACA7190CLVtKvWPIjKqbw/t4AQAAAAAAAERTSU5sAAAAAQAAABgAAAAAAAAARFNJTgEAAAABAAAAAQAAAAEAAAACAAAAAQAAAAAAAAAI
        AAAATgBlAHcAUwBvAHUAbgBkAAcAAABuAG8AdAAgAHMAZQB0AAAAAAAAAAAAAAAAAAAAAAAAAAAAAAAAAAAAAAAAAAAAAAAAAAEAAAABAAAAAQAAAAMAAABGAE0AOAAA
        AAAAAAAAAAcAAAAHAAAAXABAAGMAbwBsAG8AcgABAAAAMAARAAAAXABAAGQAZQB2AGkAYwBlAHQAeQBwAGUAZgBsAGEAZwBzAAEAAAAxAAsAAABcAEAAcwBvAHUAbgBk
        AHQAeQBwAGUAAQAAADAABwAAAFwAQAB0AGUAbQBwAG8AAQAAADAABgAAAFwAQAB2AGUAcgBsAAUAAAAxAC4ANwAuADgABgAAAFwAQAB2AGUAcgBtAAUAAAAxAC4ANwAu
        ADgABwAAAFwAQAB2AGkAcwBpAGIAAQAAADAAAQAAAAAAAAACAAAARFNJTnkAAABoAAAAAAAAAAEAAABoc2luAQAAAAAAAABG64vCmumHRIQ9Mih2ujahOAAAAAAAAABE
        U0lOeQAAAAEAAAAYAAAAAAAAAERTSU4BAAAAAQAAAAEAAAABAAAAAQAAAAAAAAABAAAAAAAAAAEAAABEU0lOdAAAAHUDAAAAAAAAAQAAAGhzaW4BAAAAAAAAAMPiDYJz
        LJxOuWtBgMMVvqRFAwAAAAAAAERTSU50AAAAAQAAACwDAAAAAAAARFNJTnMAAAABAAAAGAAAAAAAAABEU0lOAQAAAAEAAAABAAAAAQAAAAG9DwAA8wIAAAK9DwBgAAAB
        IAUDaHNpbkAHQAAQHyRrBvAZSEqYrqFXTcEPPBhAFCAAA0RTSU5AI+AHA0AAQBsAbSAIAWkPIAQgAEAj4ANTEEkCYzKs2sVGp2B2wrYRj5w5oCfAN0Av4BdnQCMB8Q4g
        XCAAAAUgAwFjDCAEIAAIdHNycEU4TUbPIAsEvCMAAAcgBwZkZWZhdWx04BgKICoAP+ACAwNBAACAIA8AoCAH4AsAAPAgF0AfwAAAICAPwABgFwVAAABIQgDgBABAD0AD
        4BcfYAAge+AEA0AAwBPgAwBAE+AAAAPNzMw+IAwDP5qZGUAXwAPgABcgCuAHG0ATQADgBwdAACATYKtAACALYANAAEALQAAg42AAwA9AB0AD4AMAwA9AB0ADwABAC8AD
        QADAC8AHQADgAwtAAEAP4AMAIA/Bn8AHAMjhDnPgHwDgAO/gDgBAX0ADwABBz8H7QAtAAwCgIINAB0AAALQgCwCWIAPgAwDAP0AHQAPAAEAz4MdLIAAAAcAAIAuAAAAC
        wACADuAdAOAALAD+4B0v4CEAABTgISrgMADBA+AKAGBTgAXgAABChuAXA+AeAOD9WSBZIkBBUgH6Q0AH4FUMQ9VAZwH6Q6BnBYA/zLyMK+BVDOABACBnBAA/ZmZmYAPg
        YwwgAABwJOwB/kJAdCAA4D4MosLgAFaAAKBjgADgOAwgYwRwwgAAhmC6JliAA0BW4EEMIGPgAE3g8AAAUCAA4Of8AP/gFwAABEERCggyAwAAQDIAAAA8QikgAwHwQmLY
        AAEgAYLiIAcgAkKVgAagCSA3oAkgSKAJKxegCQAG4AAJKwSgEyAAoAmASKAGoBPgwk/gSwAAEaBUA2tuYWJBMcAAAYAAIAAAGaARA2N0bmlMiwERJ2FcTFBAAEocAaBC
        4hMPTInAH00bwAvg/QDgvQABIACAAANzaXVnQiQA6CNxwAAAKiAIABkgAyOYYAAj0mAAB2dwdGNZVE1FQAwLDWJlhQEAAAAAAAAAAQAAAAABAAAAAAAAAA==
        ADxkaXNhYmxlZD4AEAAAAA==
      >
      PRESETNAME <disabled>
      FLOATPOS 0 0 0 0
      FXID {E36C28F0-30A0-2D49-960F-39A96D5B5805}
      WAK 0 0
    >
    <ITEM
      POSITION 119.99993599996272
      SNAPOFFS 0
      LENGTH 4.82142600003728
      LOOP 1
      ALLTAKES 0
      FADEIN 1 0 0 1 0 0
      FADEOUT 1 0 0 1 0 0
      MUTE 0 0
      SEL 0
      IGUID {74EA6A17-0739-5D4E-8369-A4BFD9C89F5F}
      IID 65
      NAME "mission brand tortilla strips.mid"
      VOLPAN 1 0 1 -1
      SOFFS 119.99993599996272 224
      PLAYRATE 1 1 0 -1 0 0.0025
      CHANMODE 0
      GUID {A42A67E1-B32B-894D-B8FD-2F09CF0915BD}
      <SOURCE MIDI
        HASDATA 1 128 QN
        CCINTERP 32
        POOLEDEVTS {E8F11752-3998-794D-951F-3F32FAD14B00}
        E 28672 9b 35 35
        E 384 8b 35 35
        E 0 9b 35 35
        E 384 8b 35 35
        E 0 9b 35 35
        E 383 8b 35 35
        E 1 b0 7b 00
        CCINTERP 32
        CHASE_CC_TAKEOFFS 1
        GUID {AD237763-1BD0-2643-BD17-A0F6C539D6FA}
        IGNTEMPO 0 120 4 4
        SRCCOLOR 923
        VELLANE 3 156 0
        VELLANE -1 196 0
      >
    >
  >
  <TRACK {E305D36E-D110-2946-8E84-41A8CC56141A}
    NAME CC
    PEAKCOL 16576
    BEAT -1
    AUTOMODE 0
    VOLPAN 1 0 -1 -1 1
    MUTESOLO 0 0 0
    IPHASE 0
    PLAYOFFS 0 1
    ISBUS 1 1
    BUSCOMP 2 0 0 0 0
    SHOWINMIX 1 0.6667 0.5 1 0.5 0 -1 0
    FREEMODE 0
    SEL 0
    REC 0 0 1 0 0 0 0
    VU 2
    TRACKHEIGHT 0 0 0 0 -1 0
    INQ 0 0 0 0.5 100 0 0 100
    NCHAN 2
    FX 1
    TRACKID {E305D36E-D110-2946-8E84-41A8CC56141A}
    PERF 0
    MIDIOUT -1
    MAINSEND 1 0
  >
  <TRACK {63C9A8A5-5734-B54F-8596-2EDB4184B8F1}
    NAME "mission brand tortilla strips"
    PEAKCOL 16576
    BEAT -1
    AUTOMODE 0
    VOLPAN 1 0 -1 -1 1
    MUTESOLO 0 0 0
    IPHASE 0
    PLAYOFFS 0 1
    ISBUS 0 0
    BUSCOMP 0 0 0 0 0
    SHOWINMIX 1 0.6667 0.5 1 0.5 0 -1 0
    FREEMODE 0
    SEL 0
    REC 0 0 1 0 0 0 0
    VU 2
    TRACKHEIGHT 0 1 0 0 -1 0
    INQ 0 0 0 0.5 100 0 0 100
    NCHAN 2
    FX 1
    TRACKID {63C9A8A5-5734-B54F-8596-2EDB4184B8F1}
    PERF 0
    MIDIOUT -1
    MAINSEND 1 0
    <ITEM
      POSITION 0
      SNAPOFFS 0
      LENGTH 0.535714
      LOOP 1
      ALLTAKES 0
      FADEIN 1 0 0 1 0 0
      FADEOUT 1 0 0 1 0 0
      MUTE 0 0
      SEL 0
      IGUID {BA240609-045E-614B-9BCF-EA37488B50C4}
      IID 13
      NAME "mission brand tortilla strips.mid"
      VOLPAN 1 0 1 -1
      SOFFS 0 0
      PLAYRATE 1 1 0 -1 0 0.0025
      CHANMODE 0
      GUID {15A9C622-D2A8-DD48-9282-6174A88DCE9F}
      <SOURCE MIDI
        HASDATA 1 128 QN
        CCINTERP 32
        POOLEDEVTS {F8C531AC-27F8-AE41-83DF-6E6C69124347}
        E 128 b0 7b 00
        CCINTERP 32
        CHASE_CC_TAKEOFFS 1
        GUID {D53E89A6-765C-0047-90D4-162DA2B3F0C0}
        IGNTEMPO 0 120 4 4
        SRCCOLOR 252
        VELLANE 3 601 0
        VELLANE -1 196 0
      >
    >
  >
  <TRACK {397F68C2-3FA0-DE4A-91E7-668CA02389C0}
    NAME "mission brand tortilla strips"
    PEAKCOL 16576
    BEAT -1
    AUTOMODE 0
    VOLPAN 1 0 -1 -1 1
    MUTESOLO 0 0 0
    IPHASE 0
    PLAYOFFS 0 1
    ISBUS 0 0
    BUSCOMP 0 0 0 0 0
    SHOWINMIX 1 0.6667 0.5 1 0.5 0 -1 0
    FREEMODE 0
    SEL 0
    REC 0 0 1 0 0 0 0
    VU 2
    TRACKHEIGHT 0 1 0 0 -1 0
    INQ 0 0 0 0.5 100 0 0 100
    NCHAN 2
    FX 1
    TRACKID {397F68C2-3FA0-DE4A-91E7-668CA02389C0}
    PERF 0
    MIDIOUT -1
    MAINSEND 1 0
    <ITEM
      POSITION 0
      SNAPOFFS 0
      LENGTH 140.357068
      LOOP 1
      ALLTAKES 0
      FADEIN 1 0 0 1 0 0
      FADEOUT 1 0 0 1 0 0
      MUTE 0 0
      SEL 0
      IGUID {955087F9-61A2-964B-A8D6-56BD7AA4E1FA}
      IID 14
      NAME "mission brand tortilla strips.mid"
      VOLPAN 1 0 1 -1
      SOFFS 0 0
      PLAYRATE 1 1 0 -1 0 0.0025
      CHANMODE 0
      GUID {FC874AC5-C01D-D94F-9905-9B03837F55A2}
      <SOURCE MIDI
        HASDATA 1 128 QN
        CCINTERP 32
        POOLEDEVTS {D2891E10-176D-9C4A-9EE9-7C4E07FC7CF7}
        E 7 b1 04 19
        E 7 b1 04 56
        E 7 b1 04 38
        E 7 b1 04 09
        E 7 b1 04 51
        E 7 b1 04 48
        E 7 b1 04 0a
        E 7 b1 04 09
        E 7 b1 04 36
        E 7 b1 04 6c
        E 7 b1 04 5a
        E 7 b1 04 63
        E 7 b1 04 47
        E 7 b1 04 0c
        E 7 b1 04 15
        E 7 b1 04 4d
        E 7 b1 04 3f
        E 7 b1 04 20
        E 7 b1 04 16
        E 7 b1 04 1e
        E 7 b1 04 59
        E 7 b1 04 35
        E 7 b1 04 1b
        E 7 b1 04 41
        E 7 b1 04 71
        E 7 b1 04 00
        E 7 b1 04 0e
        E 7 b1 04 2e
        E 7 b1 04 26
        E 7 b1 04 5d
        E 7 b1 04 18
        E 7 b1 04 07
        E 7 b1 04 12
        E 7 b1 04 13
        E 7 b1 04 67
        E 7 b1 04 1c
        E 7 b1 04 00
        E 7 b1 04 54
        E 7 b1 04 27
        E 7 b1 04 17
        E 7 b1 04 2d
        E 7 b1 04 1d
        E 7 b1 04 61
        E 7 b1 04 60
        E 7 b1 04 72
        E 7 b1 04 5f
        E 7 b1 04 31
        E 7 b1 04 6a
        E 7 b1 04 51
        E 7 b1 04 0d
        E 7 b1 04 32
        E 7 b1 04 3d
        E 7 b1 04 6c
        E 7 b1 04 57
        E 7 b1 04 3e
        E 7 b1 04 3f
        E 7 b1 04 05
        E 7 b1 04 0b
        E 7 b1 04 69
        E 7 b1 04 5b
        E 7 b1 04 30
        E 7 b1 04 24
        E 7 b1 04 0f
        E 7 b1 04 33
        E 7 b1 04 22
        E 7 b1 04 1b
        E 7 b1 04 2b
        E 7 b1 04 3b
        E 7 b1 04 45
        E 7 b1 04 49
        E 7 b1 04 12
        E 7 b1 04 44
        E 7 b1 04 65
        E 7 b1 04 3a
        E 7 b1 04 42
        E 7 b1 04 02
        E 7 b1 04 08
        E 7 b1 04 70
        E 7 b1 04 4a
        E 7 b1 04 14
        E 7 b1 04 68
        E 7 b1 04 24
        E 7 b1 04 2c
        E 7 b1 04 37
        E 7 b1 04 2d
        E 7 b1 04 4c
        E 7 b1 04 5c
        E 7 b1 04 21
        E 7 b1 04 40
        E 7 b1 04 1a
        E 7 b1 04 66
        E 7 b1 04 5e
        E 7 b1 04 34
        E 7 b1 04 29
        E 7 b1 04 5a
        E 7 b1 04 2a
        E 7 b1 04 50
        E 7 b1 04 10
        E 7 b1 04 01
        E 7 b1 04 25
        E 7 b1 04 39
        E 7 b1 04 62
        E 7 b1 04 58
        E 7 b1 04 03
        E 7 b1 04 63
        E 7 b1 04 53
        E 7 b1 04 06
        E 7 b1 04 23
        E 7 b1 04 43
        E 7 b1 04 55
        E 7 b1 04 6d
        E 7 b1 04 46
        E 7 b1 04 2f
        E 7 b1 04 1f
        E 7 b1 04 4f
        E 7 b1 04 52
        E 7 b1 04 64
        E 7 b1 04 6f
        E 7 b1 04 36
        E 7 b1 04 48
        E 7 b1 04 4e
        E 7 b1 04 3c
        E 7 b1 04 6b
        E 7 b1 04 11
        E 7 b1 04 28
        E 7 b1 04 4b
        E 14 b1 04 02
        E 14 b1 04 09
        E 14 b1 04 06
        E 14 b1 04 01
        E 14 b1 04 09
        E 14 b1 04 08
        E 14 b1 04 01
        E 14 b1 04 01
        E 14 b1 04 06
        E 14 b1 04 0c
        E 14 b1 04 0a
        E 14 b1 04 0b
        E 14 b1 04 07
        E 14 b1 04 01
        E 14 b1 04 02
        E 14 b1 04 08
        E 14 b1 04 07
        E 14 b1 04 03
        E 14 b1 04 02
        E 14 b1 04 03
        E 14 b1 04 09
        E 14 b1 04 05
        E 14 b1 04 03
        E 14 b1 04 07
        E 14 b1 04 0c
        E 14 b1 04 00
        E 14 b1 04 01
        E 14 b1 04 05
        E 14 b1 04 04
        E 14 b1 04 0a
        E 14 b1 04 02
        E 14 b1 04 00
        E 14 b1 04 02
        E 14 b1 04 02
        E 14 b1 04 0b
        E 14 b1 04 03
        E 14 b1 04 00
        E 14 b1 04 09
        E 14 b1 04 04
        E 14 b1 04 02
        E 14 b1 04 05
        E 14 b1 04 03
        E 14 b1 04 0a
        E 14 b1 04 0a
        E 14 b1 04 0c
        E 14 b1 04 0a
        E 14 b1 04 05
        E 14 b1 04 0b
        E 14 b1 04 09
        E 14 b1 04 01
        E 14 b1 04 05
        E 14 b1 04 06
        E 14 b1 04 0c
        E 14 b1 04 09
        E 14 b1 04 06
        E 14 b1 04 07
        E 14 b1 04 00
        E 14 b1 04 01
        E 14 b1 04 0b
        E 14 b1 04 0a
        E 14 b1 04 05
        E 14 b1 04 04
        E 14 b1 04 01
        E 14 b1 04 05
        E 14 b1 04 03
        E 14 b1 04 03
        E 14 b1 04 04
        E 14 b1 04 06
        E 14 b1 04 07
        E 14 b1 04 08
        E 14 b1 04 02
        E 14 b1 04 07
        E 14 b1 04 0b
        E 14 b1 04 06
        E 14 b1 04 07
        E 14 b1 04 00
        E 14 b1 04 00
        E 14 b1 04 0c
        E 14 b1 04 08
        E 14 b1 04 02
        E 14 b1 04 0b
        E 14 b1 04 04
        E 14 b1 04 04
        E 14 b1 04 06
        E 14 b1 04 05
        E 14 b1 04 08
        E 14 b1 04 0a
        E 14 b1 04 03
        E 14 b1 04 07
        E 14 b1 04 02
        E 14 b1 04 0b
        E 14 b1 04 0a
        E 14 b1 04 05
        E 14 b1 04 04
        E 14 b1 04 0a
        E 14 b1 04 04
        E 14 b1 04 08
        E 14 b1 04 01
        E 14 b1 04 00
        E 14 b1 04 04
        E 14 b1 04 06
        E 14 b1 04 0a
        E 14 b1 04 09
        E 14 b1 04 00
        E 14 b1 04 0b
        E 14 b1 04 09
        E 14 b1 04 00
        E 14 b1 04 03
        E 14 b1 04 07
        E 14 b1 04 09
        E 14 b1 04 0c
        E 14 b1 04 07
        E 14 b1 04 05
        E 14 b1 04 03
        E 14 b1 04 08
        E 14 b1 04 09
        E 14 b1 04 0b
        E 14 b1 04 0c
        E 14 b1 04 06
        E 14 b1 04 08
        E 14 b1 04 08
        E 14 b1 04 06
        E 14 b1 04 0b
        E 14 b1 04 01
        E 14 b1 04 04
        E 14 b1 04 08
        E 3 b1 04 16
        E 3 b1 04 4c
        E 3 b1 04 32
        E 3 b1 04 07
        E 3 b1 04 48
        E 3 b1 04 3f
        E 3 b1 04 09
        E 3 b1 04 08
        E 3 b1 04 30
        E 3 b1 04 5f
        E 3 b1 04 50
        E 3 b1 04 58
        E 3 b1 04 3f
        E 3 b1 04 0b
        E 3 b1 04 13
        E 3 b1 04 44
        E 3 b1 04 37
        E 3 b1 04 1c
        E 3 b1 04 14
        E 3 b1 04 1b
        E 3 b1 04 4f
        E 3 b1 04 2f
        E 3 b1 04 17
        E 3 b1 04 3a
        E 3 b1 04 64
        E 3 b1 04 00
        E 3 b1 04 0c
        E 3 b1 04 29
        E 3 b1 04 22
        E 3 b1 04 53
        E 3 b1 04 15
        E 3 b1 04 06
        E 3 b1 04 0f
        E 3 b1 04 11
        E 3 b1 04 5b
        E 3 b1 04 19
        E 3 b1 04 00
        E 3 b1 04 4b
        E 3 b1 04 23
        E 3 b1 04 14
        E 3 b1 04 28
        E 3 b1 04 1a
        E 3 b1 04 56
        E 3 b1 04 55
        E 3 b1 04 65
        E 3 b1 04 54
        E 3 b1 04 2b
        E 3 b1 04 5e
        E 3 b1 04 48
        E 3 b1 04 0b
        E 3 b1 04 2c
        E 3 b1 04 36
        E 3 b1 04 60
        E 3 b1 04 4d
        E 3 b1 04 37
        E 3 b1 04 38
        E 3 b1 04 04
        E 3 b1 04 0a
        E 3 b1 04 5d
        E 3 b1 04 51
        E 3 b1 04 2b
        E 3 b1 04 1f
        E 3 b1 04 0d
        E 3 b1 04 2d
        E 3 b1 04 1e
        E 3 b1 04 18
        E 3 b1 04 26
        E 3 b1 04 34
        E 3 b1 04 3d
        E 3 b1 04 41
        E 3 b1 04 10
        E 3 b1 04 3c
        E 3 b1 04 5a
        E 3 b1 04 33
        E 3 b1 04 3b
        E 3 b1 04 02
        E 3 b1 04 07
        E 3 b1 04 63
        E 3 b1 04 42
        E 3 b1 04 12
        E 3 b1 04 5c
        E 3 b1 04 20
        E 3 b1 04 27
        E 3 b1 04 31
        E 3 b1 04 28
        E 3 b1 04 44
        E 3 b1 04 52
        E 3 b1 04 1d
        E 3 b1 04 39
        E 3 b1 04 17
        E 3 b1 04 5b
        E 3 b1 04 54
        E 3 b1 04 2e
        E 3 b1 04 24
        E 3 b1 04 50
        E 3 b1 04 25
        E 3 b1 04 47
        E 3 b1 04 0e
        E 3 b1 04 01
        E 3 b1 04 21
        E 3 b1 04 33
        E 3 b1 04 57
        E 3 b1 04 4e
        E 3 b1 04 03
        E 3 b1 04 57
        E 3 b1 04 4a
        E 3 b1 04 05
        E 3 b1 04 1f
        E 3 b1 04 3b
        E 3 b1 04 4c
        E 3 b1 04 61
        E 3 b1 04 3e
        E 3 b1 04 2a
        E 3 b1 04 1b
        E 3 b1 04 46
        E 3 b1 04 49
        E 3 b1 04 59
        E 3 b1 04 63
        E 3 b1 04 2f
        E 3 b1 04 40
        E 3 b1 04 45
        E 3 b1 04 35
        E 3 b1 04 5f
        E 3 b1 04 0f
        E 3 b1 04 24
        E 3 b1 04 43
        E 14 b1 04 16
        E 14 b1 04 4c
        E 14 b1 04 32
        E 14 b1 04 07
        E 14 b1 04 48
        E 14 b1 04 3f
        E 14 b1 04 09
        E 14 b1 04 08
        E 14 b1 04 30
        E 14 b1 04 5f
        E 14 b1 04 50
        E 14 b1 04 58
        E 14 b1 04 3f
        E 14 b1 04 0b
        E 14 b1 04 13
        E 14 b1 04 44
        E 14 b1 04 37
        E 14 b1 04 1c
        E 14 b1 04 14
        E 14 b1 04 1b
        E 14 b1 04 4f
        E 14 b1 04 2f
        E 14 b1 04 17
        E 14 b1 04 3a
        E 14 b1 04 64
        E 14 b1 04 00
        E 14 b1 04 0c
        E 14 b1 04 29
        E 14 b1 04 22
        E 14 b1 04 53
        E 14 b1 04 15
        E 14 b1 04 06
        E 14 b1 04 0f
        E 14 b1 04 11
        E 14 b1 04 5b
        E 14 b1 04 19
        E 14 b1 04 00
        E 14 b1 04 4b
        E 14 b1 04 23
        E 14 b1 04 14
        E 14 b1 04 28
        E 14 b1 04 1a
        E 14 b1 04 56
        E 14 b1 04 55
        E 14 b1 04 65
        E 14 b1 04 54
        E 14 b1 04 2b
        E 14 b1 04 5e
        E 14 b1 04 48
        E 14 b1 04 0b
        E 14 b1 04 2c
        E 14 b1 04 36
        E 14 b1 04 60
        E 14 b1 04 4d
        E 14 b1 04 37
        E 14 b1 04 38
        E 14 b1 04 04
        E 14 b1 04 0a
        E 14 b1 04 5d
        E 14 b1 04 51
        E 14 b1 04 2b
        E 14 b1 04 1f
        E 14 b1 04 0d
        E 14 b1 04 2d
        E 14 b1 04 1e
        E 14 b1 04 18
        E 14 b1 04 26
        E 14 b1 04 34
        E 14 b1 04 3d
        E 14 b1 04 41
        E 14 b1 04 10
        E 14 b1 04 3c
        E 14 b1 04 5a
        E 14 b1 04 33
        E 14 b1 04 3b
        E 14 b1 04 02
        E 14 b1 04 07
        E 14 b1 04 63
        E 14 b1 04 42
        E 14 b1 04 12
        E 14 b1 04 5c
        E 14 b1 04 20
        E 14 b1 04 27
        E 14 b1 04 31
        E 14 b1 04 28
        E 14 b1 04 44
        E 14 b1 04 52
        E 14 b1 04 1d
        E 14 b1 04 39
        E 14 b1 04 17
        E 14 b1 04 5b
        E 14 b1 04 54
        E 14 b1 04 2e
        E 14 b1 04 24
        E 14 b1 04 50
        E 14 b1 04 25
        E 14 b1 04 47
        E 14 b1 04 0e
        E 14 b1 04 01
        E 14 b1 04 21
        E 14 b1 04 33
        E 14 b1 04 57
        E 14 b1 04 4e
        E 14 b1 04 03
        E 14 b1 04 57
        E 14 b1 04 4a
        E 14 b1 04 05
        E 14 b1 04 1f
        E 14 b1 04 3b
        E 14 b1 04 4c
        E 14 b1 04 61
        E 14 b1 04 3e
        E 14 b1 04 2a
        E 14 b1 04 1b
        E 14 b1 04 46
        E 14 b1 04 49
        E 14 b1 04 59
        E 14 b1 04 63
        E 14 b1 04 2f
        E 14 b1 04 40
        E 14 b1 04 45
        E 14 b1 04 35
        E 14 b1 04 5f
        E 14 b1 04 0f
        E 14 b1 04 24
        E 14 b1 04 43
        E 7 b1 04 19
        E 7 b1 04 56
        E 7 b1 04 38
        E 7 b1 04 09
        E 7 b1 04 51
        E 7 b1 04 48
        E 7 b1 04 0a
        E 7 b1 04 09
        E 7 b1 04 36
        E 7 b1 04 6c
        E 7 b1 04 5a
        E 7 b1 04 63
        E 7 b1 04 47
        E 7 b1 04 0c
        E 7 b1 04 15
        E 7 b1 04 4d
        E 7 b1 04 3f
        E 7 b1 04 20
        E 7 b1 04 16
        E 7 b1 04 1e
        E 7 b1 04 59
        E 7 b1 04 35
        E 7 b1 04 1b
        E 7 b1 04 41
        E 7 b1 04 71
        E 7 b1 04 00
        E 7 b1 04 0e
        E 7 b1 04 2e
        E 7 b1 04 26
        E 7 b1 04 5d
        E 7 b1 04 18
        E 7 b1 04 07
        E 7 b1 04 12
        E 7 b1 04 13
        E 7 b1 04 67
        E 7 b1 04 1c
        E 7 b1 04 00
        E 7 b1 04 54
        E 7 b1 04 27
        E 7 b1 04 17
        E 7 b1 04 2d
        E 7 b1 04 1d
        E 7 b1 04 61
        E 7 b1 04 60
        E 7 b1 04 72
        E 7 b1 04 5f
        E 7 b1 04 31
        E 7 b1 04 6a
        E 7 b1 04 51
        E 7 b1 04 0d
        E 7 b1 04 32
        E 7 b1 04 3d
        E 7 b1 04 6c
        E 7 b1 04 57
        E 7 b1 04 3e
        E 7 b1 04 3f
        E 7 b1 04 05
        E 7 b1 04 0b
        E 7 b1 04 69
        E 7 b1 04 5b
        E 7 b1 04 30
        E 7 b1 04 24
        E 7 b1 04 0f
        E 7 b1 04 33
        E 7 b1 04 22
        E 7 b1 04 1b
        E 7 b1 04 2b
        E 7 b1 04 3b
        E 7 b1 04 45
        E 7 b1 04 49
        E 7 b1 04 12
        E 7 b1 04 44
        E 7 b1 04 65
        E 7 b1 04 3a
        E 7 b1 04 42
        E 7 b1 04 02
        E 7 b1 04 08
        E 7 b1 04 70
        E 7 b1 04 4a
        E 7 b1 04 14
        E 7 b1 04 68
        E 7 b1 04 24
        E 7 b1 04 2c
        E 7 b1 04 37
        E 7 b1 04 2d
        E 7 b1 04 4c
        E 7 b1 04 5c
        E 7 b1 04 21
        E 7 b1 04 40
        E 7 b1 04 1a
        E 7 b1 04 66
        E 7 b1 04 5e
        E 7 b1 04 34
        E 7 b1 04 29
        E 7 b1 04 5a
        E 7 b1 04 2a
        E 7 b1 04 50
        E 7 b1 04 10
        E 7 b1 04 01
        E 7 b1 04 25
        E 7 b1 04 39
        E 7 b1 04 62
        E 7 b1 04 58
        E 7 b1 04 03
        E 7 b1 04 63
        E 7 b1 04 53
        E 7 b1 04 06
        E 7 b1 04 23
        E 7 b1 04 43
        E 7 b1 04 55
        E 7 b1 04 6d
        E 7 b1 04 46
        E 7 b1 04 2f
        E 7 b1 04 1f
        E 7 b1 04 4f
        E 7 b1 04 52
        E 7 b1 04 64
        E 7 b1 04 6f
        E 7 b1 04 36
        E 7 b1 04 48
        E 7 b1 04 4e
        E 7 b1 04 3c
        E 7 b1 04 6b
        E 7 b1 04 11
        E 7 b1 04 28
        E 7 b1 04 4b
        E 14 b1 04 02
        E 14 b1 04 09
        E 14 b1 04 06
        E 14 b1 04 01
        E 14 b1 04 09
        E 14 b1 04 08
        E 14 b1 04 01
        E 14 b1 04 01
        E 14 b1 04 06
        E 14 b1 04 0c
        E 14 b1 04 0a
        E 14 b1 04 0b
        E 14 b1 04 07
        E 14 b1 04 01
        E 14 b1 04 02
        E 14 b1 04 08
        E 14 b1 04 07
        E 14 b1 04 03
        E 14 b1 04 02
        E 14 b1 04 03
        E 14 b1 04 09
        E 14 b1 04 05
        E 14 b1 04 03
        E 14 b1 04 07
        E 14 b1 04 0c
        E 14 b1 04 00
        E 14 b1 04 01
        E 14 b1 04 05
        E 14 b1 04 04
        E 14 b1 04 0a
        E 14 b1 04 02
        E 14 b1 04 00
        E 14 b1 04 02
        E 14 b1 04 02
        E 14 b1 04 0b
        E 14 b1 04 03
        E 14 b1 04 00
        E 14 b1 04 09
        E 14 b1 04 04
        E 14 b1 04 02
        E 14 b1 04 05
        E 14 b1 04 03
        E 14 b1 04 0a
        E 14 b1 04 0a
        E 14 b1 04 0c
        E 14 b1 04 0a
        E 14 b1 04 05
        E 14 b1 04 0b
        E 14 b1 04 09
        E 14 b1 04 01
        E 14 b1 04 05
        E 14 b1 04 06
        E 14 b1 04 0c
        E 14 b1 04 09
        E 14 b1 04 06
        E 14 b1 04 07
        E 14 b1 04 00
        E 14 b1 04 01
        E 14 b1 04 0b
        E 14 b1 04 0a
        E 14 b1 04 05
        E 14 b1 04 04
        E 14 b1 04 01
        E 14 b1 04 05
        E 14 b1 04 03
        E 14 b1 04 03
        E 14 b1 04 04
        E 14 b1 04 06
        E 14 b1 04 07
        E 14 b1 04 08
        E 14 b1 04 02
        E 14 b1 04 07
        E 14 b1 04 0b
        E 14 b1 04 06
        E 14 b1 04 07
        E 14 b1 04 00
        E 14 b1 04 00
        E 14 b1 04 0c
        E 14 b1 04 08
        E 14 b1 04 02
        E 14 b1 04 0b
        E 14 b1 04 04
        E 14 b1 04 04
        E 14 b1 04 06
        E 14 b1 04 05
        E 14 b1 04 08
        E 14 b1 04 0a
        E 14 b1 04 03
        E 14 b1 04 07
        E 14 b1 04 02
        E 14 b1 04 0b
        E 14 b1 04 0a
        E 14 b1 04 05
        E 14 b1 04 04
        E 14 b1 04 0a
        E 14 b1 04 04
        E 14 b1 04 08
        E 14 b1 04 01
        E 14 b1 04 00
        E 14 b1 04 04
        E 14 b1 04 06
        E 14 b1 04 0a
        E 14 b1 04 09
        E 14 b1 04 00
        E 14 b1 04 0b
        E 14 b1 04 09
        E 14 b1 04 00
        E 14 b1 04 03
        E 14 b1 04 07
        E 14 b1 04 09
        E 14 b1 04 0c
        E 14 b1 04 07
        E 14 b1 04 05
        E 14 b1 04 03
        E 14 b1 04 08
        E 14 b1 04 09
        E 14 b1 04 0b
        E 14 b1 04 0c
        E 14 b1 04 06
        E 14 b1 04 08
        E 14 b1 04 08
        E 14 b1 04 06
        E 14 b1 04 0b
        E 14 b1 04 01
        E 14 b1 04 04
        E 14 b1 04 08
        E 3 b1 04 16
        E 3 b1 04 4c
        E 3 b1 04 32
        E 3 b1 04 07
        E 3 b1 04 48
        E 3 b1 04 3f
        E 3 b1 04 09
        E 3 b1 04 08
        E 3 b1 04 30
        E 3 b1 04 5f
        E 3 b1 04 50
        E 3 b1 04 58
        E 3 b1 04 3f
        E 3 b1 04 0b
        E 3 b1 04 13
        E 3 b1 04 44
        E 3 b1 04 37
        E 3 b1 04 1c
        E 3 b1 04 14
        E 3 b1 04 1b
        E 3 b1 04 4f
        E 3 b1 04 2f
        E 3 b1 04 17
        E 3 b1 04 3a
        E 3 b1 04 64
        E 3 b1 04 00
        E 3 b1 04 0c
        E 3 b1 04 29
        E 3 b1 04 22
        E 3 b1 04 53
        E 3 b1 04 15
        E 3 b1 04 06
        E 3 b1 04 0f
        E 3 b1 04 11
        E 3 b1 04 5b
        E 3 b1 04 19
        E 3 b1 04 00
        E 3 b1 04 4b
        E 3 b1 04 23
        E 3 b1 04 14
        E 3 b1 04 28
        E 3 b1 04 1a
        E 3 b1 04 56
        E 3 b1 04 55
        E 3 b1 04 65
        E 3 b1 04 54
        E 3 b1 04 2b
        E 3 b1 04 5e
        E 3 b1 04 48
        E 3 b1 04 0b
        E 3 b1 04 2c
        E 3 b1 04 36
        E 3 b1 04 60
        E 3 b1 04 4d
        E 3 b1 04 37
        E 3 b1 04 38
        E 3 b1 04 04
        E 3 b1 04 0a
        E 3 b1 04 5d
        E 3 b1 04 51
        E 3 b1 04 2b
        E 3 b1 04 1f
        E 3 b1 04 0d
        E 3 b1 04 2d
        E 3 b1 04 1e
        E 3 b1 04 18
        E 3 b1 04 26
        E 3 b1 04 34
        E 3 b1 04 3d
        E 3 b1 04 41
        E 3 b1 04 10
        E 3 b1 04 3c
        E 3 b1 04 5a
        E 3 b1 04 33
        E 3 b1 04 3b
        E 3 b1 04 02
        E 3 b1 04 07
        E 3 b1 04 63
        E 3 b1 04 42
        E 3 b1 04 12
        E 3 b1 04 5c
        E 3 b1 04 20
        E 3 b1 04 27
        E 3 b1 04 31
        E 3 b1 04 28
        E 3 b1 04 44
        E 3 b1 04 52
        E 3 b1 04 1d
        E 3 b1 04 39
        E 3 b1 04 17
        E 3 b1 04 5b
        E 3 b1 04 54
        E 3 b1 04 2e
        E 3 b1 04 24
        E 3 b1 04 50
        E 3 b1 04 25
        E 3 b1 04 47
        E 3 b1 04 0e
        E 3 b1 04 01
        E 3 b1 04 21
        E 3 b1 04 33
        E 3 b1 04 57
        E 3 b1 04 4e
        E 3 b1 04 03
        E 3 b1 04 57
        E 3 b1 04 4a
        E 3 b1 04 05
        E 3 b1 04 1f
        E 3 b1 04 3b
        E 3 b1 04 4c
        E 3 b1 04 61
        E 3 b1 04 3e
        E 3 b1 04 2a
        E 3 b1 04 1b
        E 3 b1 04 46
        E 3 b1 04 49
        E 3 b1 04 59
        E 3 b1 04 63
        E 3 b1 04 2f
        E 3 b1 04 40
        E 3 b1 04 45
        E 3 b1 04 35
        E 3 b1 04 5f
        E 3 b1 04 0f
        E 3 b1 04 24
        E 3 b1 04 43
        E 14 b1 04 16
        E 14 b1 04 4c
        E 14 b1 04 32
        E 14 b1 04 07
        E 14 b1 04 48
        E 14 b1 04 3f
        E 14 b1 04 09
        E 14 b1 04 08
        E 14 b1 04 30
        E 14 b1 04 5f
        E 14 b1 04 50
        E 14 b1 04 58
        E 14 b1 04 3f
        E 14 b1 04 0b
        E 14 b1 04 13
        E 14 b1 04 44
        E 14 b1 04 37
        E 14 b1 04 1c
        E 14 b1 04 14
        E 14 b1 04 1b
        E 14 b1 04 4f
        E 14 b1 04 2f
        E 14 b1 04 17
        E 14 b1 04 3a
        E 14 b1 04 64
        E 14 b1 04 00
        E 14 b1 04 0c
        E 14 b1 04 29
        E 14 b1 04 22
        E 14 b1 04 53
        E 14 b1 04 15
        E 14 b1 04 06
        E 14 b1 04 0f
        E 14 b1 04 11
        E 14 b1 04 5b
        E 14 b1 04 19
        E 14 b1 04 00
        E 14 b1 04 4b
        E 14 b1 04 23
        E 14 b1 04 14
        E 14 b1 04 28
        E 14 b1 04 1a
        E 14 b1 04 56
        E 14 b1 04 55
        E 14 b1 04 65
        E 14 b1 04 54
        E 14 b1 04 2b
        E 14 b1 04 5e
        E 14 b1 04 48
        E 14 b1 04 0b
        E 14 b1 04 2c
        E 14 b1 04 36
        E 14 b1 04 60
        E 14 b1 04 4d
        E 14 b1 04 37
        E 14 b1 04 38
        E 14 b1 04 04
        E 14 b1 04 0a
        E 14 b1 04 5d
        E 14 b1 04 51
        E 14 b1 04 2b
        E 14 b1 04 1f
        E 14 b1 04 0d
        E 14 b1 04 2d
        E 14 b1 04 1e
        E 14 b1 04 18
        E 14 b1 04 26
        E 14 b1 04 34
        E 14 b1 04 3d
        E 14 b1 04 41
        E 14 b1 04 10
        E 14 b1 04 3c
        E 14 b1 04 5a
        E 14 b1 04 33
        E 14 b1 04 3b
        E 14 b1 04 02
        E 14 b1 04 07
        E 14 b1 04 63
        E 14 b1 04 42
        E 14 b1 04 12
        E 14 b1 04 5c
        E 14 b1 04 20
        E 14 b1 04 27
        E 14 b1 04 31
        E 14 b1 04 28
        E 14 b1 04 44
        E 14 b1 04 52
        E 14 b1 04 1d
        E 14 b1 04 39
        E 14 b1 04 17
        E 14 b1 04 5b
        E 14 b1 04 54
        E 14 b1 04 2e
        E 14 b1 04 24
        E 14 b1 04 50
        E 14 b1 04 25
        E 14 b1 04 47
        E 14 b1 04 0e
        E 14 b1 04 01
        E 14 b1 04 21
        E 14 b1 04 33
        E 14 b1 04 57
        E 14 b1 04 4e
        E 14 b1 04 03
        E 14 b1 04 57
        E 14 b1 04 4a
        E 14 b1 04 05
        E 14 b1 04 1f
        E 14 b1 04 3b
        E 14 b1 04 4c
        E 14 b1 04 61
        E 14 b1 04 3e
        E 14 b1 04 2a
        E 14 b1 04 1b
        E 14 b1 04 46
        E 14 b1 04 49
        E 14 b1 04 59
        E 14 b1 04 63
        E 14 b1 04 2f
        E 14 b1 04 40
        E 14 b1 04 45
        E 14 b1 04 35
        E 14 b1 04 5f
        E 14 b1 04 0f
        E 14 b1 04 24
        E 14 b1 04 43
        E 7 b1 04 19
        E 7 b1 04 56
        E 7 b1 04 38
        E 7 b1 04 09
        E 7 b1 04 51
        E 7 b1 04 48
        E 7 b1 04 0a
        E 7 b1 04 09
        E 7 b1 04 36
        E 7 b1 04 6c
        E 7 b1 04 5a
        E 7 b1 04 63
        E 7 b1 04 47
        E 7 b1 04 0c
        E 7 b1 04 15
        E 7 b1 04 4d
        E 7 b1 04 3f
        E 7 b1 04 20
        E 7 b1 04 16
        E 7 b1 04 1e
        E 7 b1 04 59
        E 7 b1 04 35
        E 7 b1 04 1b
        E 7 b1 04 41
        E 7 b1 04 71
        E 7 b1 04 00
        E 7 b1 04 0e
        E 7 b1 04 2e
        E 7 b1 04 26
        E 7 b1 04 5d
        E 7 b1 04 18
        E 7 b1 04 07
        E 7 b1 04 12
        E 7 b1 04 13
        E 7 b1 04 67
        E 7 b1 04 1c
        E 7 b1 04 00
        E 7 b1 04 54
        E 7 b1 04 27
        E 7 b1 04 17
        E 7 b1 04 2d
        E 7 b1 04 1d
        E 7 b1 04 61
        E 7 b1 04 60
        E 7 b1 04 72
        E 7 b1 04 5f
        E 7 b1 04 31
        E 7 b1 04 6a
        E 7 b1 04 51
        E 7 b1 04 0d
        E 7 b1 04 32
        E 7 b1 04 3d
        E 7 b1 04 6c
        E 7 b1 04 57
        E 7 b1 04 3e
        E 7 b1 04 3f
        E 7 b1 04 05
        E 7 b1 04 0b
        E 7 b1 04 69
        E 7 b1 04 5b
        E 7 b1 04 30
        E 7 b1 04 24
        E 7 b1 04 0f
        E 7 b1 04 33
        E 7 b1 04 22
        E 7 b1 04 1b
        E 7 b1 04 2b
        E 7 b1 04 3b
        E 7 b1 04 45
        E 7 b1 04 49
        E 7 b1 04 12
        E 7 b1 04 44
        E 7 b1 04 65
        E 7 b1 04 3a
        E 7 b1 04 42
        E 7 b1 04 02
        E 7 b1 04 08
        E 7 b1 04 70
        E 7 b1 04 4a
        E 7 b1 04 14
        E 7 b1 04 68
        E 7 b1 04 24
        E 7 b1 04 2c
        E 7 b1 04 37
        E 7 b1 04 2d
        E 7 b1 04 4c
        E 7 b1 04 5c
        E 7 b1 04 21
        E 7 b1 04 40
        E 7 b1 04 1a
        E 7 b1 04 66
        E 7 b1 04 5e
        E 7 b1 04 34
        E 7 b1 04 29
        E 7 b1 04 5a
        E 7 b1 04 2a
        E 7 b1 04 50
        E 7 b1 04 10
        E 7 b1 04 01
        E 7 b1 04 25
        E 7 b1 04 39
        E 7 b1 04 62
        E 7 b1 04 58
        E 7 b1 04 03
        E 7 b1 04 63
        E 7 b1 04 53
        E 7 b1 04 06
        E 7 b1 04 23
        E 7 b1 04 43
        E 7 b1 04 55
        E 7 b1 04 6d
        E 7 b1 04 46
        E 7 b1 04 2f
        E 7 b1 04 1f
        E 7 b1 04 4f
        E 7 b1 04 52
        E 7 b1 04 64
        E 7 b1 04 6f
        E 7 b1 04 36
        E 7 b1 04 48
        E 7 b1 04 4e
        E 7 b1 04 3c
        E 7 b1 04 6b
        E 7 b1 04 11
        E 7 b1 04 28
        E 7 b1 04 4b
        E 14 b1 04 02
        E 14 b1 04 09
        E 14 b1 04 06
        E 14 b1 04 01
        E 14 b1 04 09
        E 14 b1 04 08
        E 14 b1 04 01
        E 14 b1 04 01
        E 14 b1 04 06
        E 14 b1 04 0c
        E 14 b1 04 0a
        E 14 b1 04 0b
        E 14 b1 04 07
        E 14 b1 04 01
        E 14 b1 04 02
        E 14 b1 04 08
        E 14 b1 04 07
        E 14 b1 04 03
        E 14 b1 04 02
        E 14 b1 04 03
        E 14 b1 04 09
        E 14 b1 04 05
        E 14 b1 04 03
        E 14 b1 04 07
        E 14 b1 04 0c
        E 14 b1 04 00
        E 14 b1 04 01
        E 14 b1 04 05
        E 14 b1 04 04
        E 14 b1 04 0a
        E 14 b1 04 02
        E 14 b1 04 00
        E 14 b1 04 02
        E 14 b1 04 02
        E 14 b1 04 0b
        E 14 b1 04 03
        E 14 b1 04 00
        E 14 b1 04 09
        E 14 b1 04 04
        E 14 b1 04 02
        E 14 b1 04 05
        E 14 b1 04 03
        E 14 b1 04 0a
        E 14 b1 04 0a
        E 14 b1 04 0c
        E 14 b1 04 0a
        E 14 b1 04 05
        E 14 b1 04 0b
        E 14 b1 04 09
        E 14 b1 04 01
        E 14 b1 04 05
        E 14 b1 04 06
        E 14 b1 04 0c
        E 14 b1 04 09
        E 14 b1 04 06
        E 14 b1 04 07
        E 14 b1 04 00
        E 14 b1 04 01
        E 14 b1 04 0b
        E 14 b1 04 0a
        E 14 b1 04 05
        E 14 b1 04 04
        E 14 b1 04 01
        E 14 b1 04 05
        E 14 b1 04 03
        E 14 b1 04 03
        E 14 b1 04 04
        E 14 b1 04 06
        E 14 b1 04 07
        E 14 b1 04 08
        E 14 b1 04 02
        E 14 b1 04 07
        E 14 b1 04 0b
        E 14 b1 04 06
        E 14 b1 04 07
        E 14 b1 04 00
        E 14 b1 04 00
        E 14 b1 04 0c
        E 14 b1 04 08
        E 14 b1 04 02
        E 14 b1 04 0b
        E 14 b1 04 04
        E 14 b1 04 04
        E 14 b1 04 06
        E 14 b1 04 05
        E 14 b1 04 08
        E 14 b1 04 0a
        E 14 b1 04 03
        E 14 b1 04 07
        E 14 b1 04 02
        E 14 b1 04 0b
        E 14 b1 04 0a
        E 14 b1 04 05
        E 14 b1 04 04
        E 14 b1 04 0a
        E 14 b1 04 04
        E 14 b1 04 08
        E 14 b1 04 01
        E 14 b1 04 00
        E 14 b1 04 04
        E 14 b1 04 06
        E 14 b1 04 0a
        E 14 b1 04 09
        E 14 b1 04 00
        E 14 b1 04 0b
        E 14 b1 04 09
        E 14 b1 04 00
        E 14 b1 04 03
        E 14 b1 04 07
        E 14 b1 04 09
        E 14 b1 04 0c
        E 14 b1 04 07
        E 14 b1 04 05
        E 14 b1 04 03
        E 14 b1 04 08
        E 14 b1 04 09
        E 14 b1 04 0b
        E 14 b1 04 0c
        E 14 b1 04 06
        E 14 b1 04 08
        E 14 b1 04 08
        E 14 b1 04 06
        E 14 b1 04 0b
        E 14 b1 04 01
        E 14 b1 04 04
        E 14 b1 04 08
        E 3 b1 04 16
        E 3 b1 04 4c
        E 3 b1 04 32
        E 3 b1 04 07
        E 3 b1 04 48
        E 3 b1 04 3f
        E 3 b1 04 09
        E 3 b1 04 08
        E 3 b1 04 30
        E 3 b1 04 5f
        E 3 b1 04 50
        E 3 b1 04 58
        E 3 b1 04 3f
        E 3 b1 04 0b
        E 3 b1 04 13
        E 3 b1 04 44
        E 3 b1 04 37
        E 3 b1 04 1c
        E 3 b1 04 14
        E 3 b1 04 1b
        E 3 b1 04 4f
        E 3 b1 04 2f
        E 3 b1 04 17
        E 3 b1 04 3a
        E 3 b1 04 64
        E 3 b1 04 00
        E 3 b1 04 0c
        E 3 b1 04 29
        E 3 b1 04 22
        E 3 b1 04 53
        E 3 b1 04 15
        E 3 b1 04 06
        E 3 b1 04 0f
        E 3 b1 04 11
        E 3 b1 04 5b
        E 3 b1 04 19
        E 3 b1 04 00
        E 3 b1 04 4b
        E 3 b1 04 23
        E 3 b1 04 14
        E 3 b1 04 28
        E 3 b1 04 1a
        E 3 b1 04 56
        E 3 b1 04 55
        E 3 b1 04 65
        E 3 b1 04 54
        E 3 b1 04 2b
        E 3 b1 04 5e
        E 3 b1 04 48
        E 3 b1 04 0b
        E 3 b1 04 2c
        E 3 b1 04 36
        E 3 b1 04 60
        E 3 b1 04 4d
        E 3 b1 04 37
        E 3 b1 04 38
        E 3 b1 04 04
        E 3 b1 04 0a
        E 3 b1 04 5d
        E 3 b1 04 51
        E 3 b1 04 2b
        E 3 b1 04 1f
        E 3 b1 04 0d
        E 3 b1 04 2d
        E 3 b1 04 1e
        E 3 b1 04 18
        E 3 b1 04 26
        E 3 b1 04 34
        E 3 b1 04 3d
        E 3 b1 04 41
        E 3 b1 04 10
        E 3 b1 04 3c
        E 3 b1 04 5a
        E 3 b1 04 33
        E 3 b1 04 3b
        E 3 b1 04 02
        E 3 b1 04 07
        E 3 b1 04 63
        E 3 b1 04 42
        E 3 b1 04 12
        E 3 b1 04 5c
        E 3 b1 04 20
        E 3 b1 04 27
        E 3 b1 04 31
        E 3 b1 04 28
        E 3 b1 04 44
        E 3 b1 04 52
        E 3 b1 04 1d
        E 3 b1 04 39
        E 3 b1 04 17
        E 3 b1 04 5b
        E 3 b1 04 54
        E 3 b1 04 2e
        E 3 b1 04 24
        E 3 b1 04 50
        E 3 b1 04 25
        E 3 b1 04 47
        E 3 b1 04 0e
        E 3 b1 04 01
        E 3 b1 04 21
        E 3 b1 04 33
        E 3 b1 04 57
        E 3 b1 04 4e
        E 3 b1 04 03
        E 3 b1 04 57
        E 3 b1 04 4a
        E 3 b1 04 05
        E 3 b1 04 1f
        E 3 b1 04 3b
        E 3 b1 04 4c
        E 3 b1 04 61
        E 3 b1 04 3e
        E 3 b1 04 2a
        E 3 b1 04 1b
        E 3 b1 04 46
        E 3 b1 04 49
        E 3 b1 04 59
        E 3 b1 04 63
        E 3 b1 04 2f
        E 3 b1 04 40
        E 3 b1 04 45
        E 3 b1 04 35
        E 3 b1 04 5f
        E 3 b1 04 0f
        E 3 b1 04 24
        E 3 b1 04 43
        E 14 b1 04 16
        E 14 b1 04 4c
        E 14 b1 04 32
        E 14 b1 04 07
        E 14 b1 04 48
        E 14 b1 04 3f
        E 14 b1 04 09
        E 14 b1 04 08
        E 14 b1 04 30
        E 14 b1 04 5f
        E 14 b1 04 50
        E 14 b1 04 58
        E 14 b1 04 3f
        E 14 b1 04 0b
        E 14 b1 04 13
        E 14 b1 04 44
        E 14 b1 04 37
        E 14 b1 04 1c
        E 14 b1 04 14
        E 14 b1 04 1b
        E 14 b1 04 4f
        E 14 b1 04 2f
        E 14 b1 04 17
        E 14 b1 04 3a
        E 14 b1 04 64
        E 14 b1 04 00
        E 14 b1 04 0c
        E 14 b1 04 29
        E 14 b1 04 22
        E 14 b1 04 53
        E 14 b1 04 15
        E 14 b1 04 06
        E 14 b1 04 0f
        E 14 b1 04 11
        E 14 b1 04 5b
        E 14 b1 04 19
        E 14 b1 04 00
        E 14 b1 04 4b
        E 14 b1 04 23
        E 14 b1 04 14
        E 14 b1 04 28
        E 14 b1 04 1a
        E 14 b1 04 56
        E 14 b1 04 55
        E 14 b1 04 65
        E 14 b1 04 54
        E 14 b1 04 2b
        E 14 b1 04 5e
        E 14 b1 04 48
        E 14 b1 04 0b
        E 14 b1 04 2c
        E 14 b1 04 36
        E 14 b1 04 60
        E 14 b1 04 4d
        E 14 b1 04 37
        E 14 b1 04 38
        E 14 b1 04 04
        E 14 b1 04 0a
        E 14 b1 04 5d
        E 14 b1 04 51
        E 14 b1 04 2b
        E 14 b1 04 1f
        E 14 b1 04 0d
        E 14 b1 04 2d
        E 14 b1 04 1e
        E 14 b1 04 18
        E 14 b1 04 26
        E 14 b1 04 34
        E 14 b1 04 3d
        E 14 b1 04 41
        E 14 b1 04 10
        E 14 b1 04 3c
        E 14 b1 04 5a
        E 14 b1 04 33
        E 14 b1 04 3b
        E 14 b1 04 02
        E 14 b1 04 07
        E 14 b1 04 63
        E 14 b1 04 42
        E 14 b1 04 12
        E 14 b1 04 5c
        E 14 b1 04 20
        E 14 b1 04 27
        E 14 b1 04 31
        E 14 b1 04 28
        E 14 b1 04 44
        E 14 b1 04 52
        E 14 b1 04 1d
        E 14 b1 04 39
        E 14 b1 04 17
        E 14 b1 04 5b
        E 14 b1 04 54
        E 14 b1 04 2e
        E 14 b1 04 24
        E 14 b1 04 50
        E 14 b1 04 25
        E 14 b1 04 47
        E 14 b1 04 0e
        E 14 b1 04 01
        E 14 b1 04 21
        E 14 b1 04 33
        E 14 b1 04 57
        E 14 b1 04 4e
        E 14 b1 04 03
        E 14 b1 04 57
        E 14 b1 04 4a
        E 14 b1 04 05
        E 14 b1 04 1f
        E 14 b1 04 3b
        E 14 b1 04 4c
        E 14 b1 04 61
        E 14 b1 04 3e
        E 14 b1 04 2a
        E 14 b1 04 1b
        E 14 b1 04 46
        E 14 b1 04 49
        E 14 b1 04 59
        E 14 b1 04 63
        E 14 b1 04 2f
        E 14 b1 04 40
        E 14 b1 04 45
        E 14 b1 04 35
        E 14 b1 04 5f
        E 14 b1 04 0f
        E 14 b1 04 24
        E 14 b1 04 43
        E 7 b1 04 19
        E 7 b1 04 56
        E 7 b1 04 38
        E 7 b1 04 09
        E 7 b1 04 51
        E 7 b1 04 48
        E 7 b1 04 0a
        E 7 b1 04 09
        E 7 b1 04 36
        E 7 b1 04 6c
        E 7 b1 04 5a
        E 7 b1 04 63
        E 7 b1 04 47
        E 7 b1 04 0c
        E 7 b1 04 15
        E 7 b1 04 4d
        E 7 b1 04 3f
        E 7 b1 04 20
        E 7 b1 04 16
        E 7 b1 04 1e
        E 7 b1 04 59
        E 7 b1 04 35
        E 7 b1 04 1b
        E 7 b1 04 41
        E 7 b1 04 71
        E 7 b1 04 00
        E 7 b1 04 0e
        E 7 b1 04 2e
        E 7 b1 04 26
        E 7 b1 04 5d
        E 7 b1 04 18
        E 7 b1 04 07
        E 7 b1 04 12
        E 7 b1 04 13
        E 7 b1 04 67
        E 7 b1 04 1c
        E 7 b1 04 00
        E 7 b1 04 54
        E 7 b1 04 27
        E 7 b1 04 17
        E 7 b1 04 2d
        E 7 b1 04 1d
        E 7 b1 04 61
        E 7 b1 04 60
        E 7 b1 04 72
        E 7 b1 04 5f
        E 7 b1 04 31
        E 7 b1 04 6a
        E 7 b1 04 51
        E 7 b1 04 0d
        E 7 b1 04 32
        E 7 b1 04 3d
        E 7 b1 04 6c
        E 7 b1 04 57
        E 7 b1 04 3e
        E 7 b1 04 3f
        E 7 b1 04 05
        E 7 b1 04 0b
        E 7 b1 04 69
        E 7 b1 04 5b
        E 7 b1 04 30
        E 7 b1 04 24
        E 7 b1 04 0f
        E 7 b1 04 33
        E 7 b1 04 22
        E 7 b1 04 1b
        E 7 b1 04 2b
        E 7 b1 04 3b
        E 7 b1 04 45
        E 7 b1 04 49
        E 7 b1 04 12
        E 7 b1 04 44
        E 7 b1 04 65
        E 7 b1 04 3a
        E 7 b1 04 42
        E 7 b1 04 02
        E 7 b1 04 08
        E 7 b1 04 70
        E 7 b1 04 4a
        E 7 b1 04 14
        E 7 b1 04 68
        E 7 b1 04 24
        E 7 b1 04 2c
        E 7 b1 04 37
        E 7 b1 04 2d
        E 7 b1 04 4c
        E 7 b1 04 5c
        E 7 b1 04 21
        E 7 b1 04 40
        E 7 b1 04 1a
        E 7 b1 04 66
        E 7 b1 04 5e
        E 7 b1 04 34
        E 7 b1 04 29
        E 7 b1 04 5a
        E 7 b1 04 2a
        E 7 b1 04 50
        E 7 b1 04 10
        E 7 b1 04 01
        E 7 b1 04 25
        E 7 b1 04 39
        E 7 b1 04 62
        E 7 b1 04 58
        E 7 b1 04 03
        E 7 b1 04 63
        E 7 b1 04 53
        E 7 b1 04 06
        E 7 b1 04 23
        E 7 b1 04 43
        E 7 b1 04 55
        E 7 b1 04 6d
        E 7 b1 04 46
        E 7 b1 04 2f
        E 7 b1 04 1f
        E 7 b1 04 4f
        E 7 b1 04 52
        E 7 b1 04 64
        E 7 b1 04 6f
        E 7 b1 04 36
        E 7 b1 04 48
        E 7 b1 04 4e
        E 7 b1 04 3c
        E 7 b1 04 6b
        E 7 b1 04 11
        E 7 b1 04 28
        E 7 b1 04 4b
        E 14 b1 04 02
        E 14 b1 04 09
        E 14 b1 04 06
        E 14 b1 04 01
        E 14 b1 04 09
        E 14 b1 04 08
        E 14 b1 04 01
        E 14 b1 04 01
        E 14 b1 04 06
        E 14 b1 04 0c
        E 14 b1 04 0a
        E 14 b1 04 0b
        E 14 b1 04 07
        E 14 b1 04 01
        E 14 b1 04 02
        E 14 b1 04 08
        E 14 b1 04 07
        E 14 b1 04 03
        E 14 b1 04 02
        E 14 b1 04 03
        E 14 b1 04 09
        E 14 b1 04 05
        E 14 b1 04 03
        E 14 b1 04 07
        E 14 b1 04 0c
        E 14 b1 04 00
        E 14 b1 04 01
        E 14 b1 04 05
        E 14 b1 04 04
        E 14 b1 04 0a
        E 14 b1 04 02
        E 14 b1 04 00
        E 14 b1 04 02
        E 14 b1 04 02
        E 14 b1 04 0b
        E 14 b1 04 03
        E 14 b1 04 00
        E 14 b1 04 09
        E 14 b1 04 04
        E 14 b1 04 02
        E 14 b1 04 05
        E 14 b1 04 03
        E 14 b1 04 0a
        E 14 b1 04 0a
        E 14 b1 04 0c
        E 14 b1 04 0a
        E 14 b1 04 05
        E 14 b1 04 0b
        E 14 b1 04 09
        E 14 b1 04 01
        E 14 b1 04 05
        E 14 b1 04 06
        E 14 b1 04 0c
        E 14 b1 04 09
        E 14 b1 04 06
        E 14 b1 04 07
        E 14 b1 04 00
        E 14 b1 04 01
        E 14 b1 04 0b
        E 14 b1 04 0a
        E 14 b1 04 05
        E 14 b1 04 04
        E 14 b1 04 01
        E 14 b1 04 05
        E 14 b1 04 03
        E 14 b1 04 03
        E 14 b1 04 04
        E 14 b1 04 06
        E 14 b1 04 07
        E 14 b1 04 08
        E 14 b1 04 02
        E 14 b1 04 07
        E 14 b1 04 0b
        E 14 b1 04 06
        E 14 b1 04 07
        E 14 b1 04 00
        E 14 b1 04 00
        E 14 b1 04 0c
        E 14 b1 04 08
        E 14 b1 04 02
        E 14 b1 04 0b
        E 14 b1 04 04
        E 14 b1 04 04
        E 14 b1 04 06
        E 14 b1 04 05
        E 14 b1 04 08
        E 14 b1 04 0a
        E 14 b1 04 03
        E 14 b1 04 07
        E 14 b1 04 02
        E 14 b1 04 0b
        E 14 b1 04 0a
        E 14 b1 04 05
        E 14 b1 04 04
        E 14 b1 04 0a
        E 14 b1 04 04
        E 14 b1 04 08
        E 14 b1 04 01
        E 14 b1 04 00
        E 14 b1 04 04
        E 14 b1 04 06
        E 14 b1 04 0a
        E 14 b1 04 09
        E 14 b1 04 00
        E 14 b1 04 0b
        E 14 b1 04 09
        E 14 b1 04 00
        E 14 b1 04 03
        E 14 b1 04 07
        E 14 b1 04 09
        E 14 b1 04 0c
        E 14 b1 04 07
        E 14 b1 04 05
        E 14 b1 04 03
        E 14 b1 04 08
        E 14 b1 04 09
        E 14 b1 04 0b
        E 14 b1 04 0c
        E 14 b1 04 06
        E 14 b1 04 08
        E 14 b1 04 08
        E 14 b1 04 06
        E 14 b1 04 0b
        E 14 b1 04 01
        E 14 b1 04 04
        E 14 b1 04 08
        E 3 b1 04 16
        E 3 b1 04 4c
        E 3 b1 04 32
        E 3 b1 04 07
        E 3 b1 04 48
        E 3 b1 04 3f
        E 3 b1 04 09
        E 3 b1 04 08
        E 3 b1 04 30
        E 3 b1 04 5f
        E 3 b1 04 50
        E 3 b1 04 58
        E 3 b1 04 3f
        E 3 b1 04 0b
        E 3 b1 04 13
        E 3 b1 04 44
        E 3 b1 04 37
        E 3 b1 04 1c
        E 3 b1 04 14
        E 3 b1 04 1b
        E 3 b1 04 4f
        E 3 b1 04 2f
        E 3 b1 04 17
        E 3 b1 04 3a
        E 3 b1 04 64
        E 3 b1 04 00
        E 3 b1 04 0c
        E 3 b1 04 29
        E 3 b1 04 22
        E 3 b1 04 53
        E 3 b1 04 15
        E 3 b1 04 06
        E 3 b1 04 0f
        E 3 b1 04 11
        E 3 b1 04 5b
        E 3 b1 04 19
        E 3 b1 04 00
        E 3 b1 04 4b
        E 3 b1 04 23
        E 3 b1 04 14
        E 3 b1 04 28
        E 3 b1 04 1a
        E 3 b1 04 56
        E 3 b1 04 55
        E 3 b1 04 65
        E 3 b1 04 54
        E 3 b1 04 2b
        E 3 b1 04 5e
        E 3 b1 04 48
        E 3 b1 04 0b
        E 3 b1 04 2c
        E 3 b1 04 36
        E 3 b1 04 60
        E 3 b1 04 4d
        E 3 b1 04 37
        E 3 b1 04 38
        E 3 b1 04 04
        E 3 b1 04 0a
        E 3 b1 04 5d
        E 3 b1 04 51
        E 3 b1 04 2b
        E 3 b1 04 1f
        E 3 b1 04 0d
        E 3 b1 04 2d
        E 3 b1 04 1e
        E 3 b1 04 18
        E 3 b1 04 26
        E 3 b1 04 34
        E 3 b1 04 3d
        E 3 b1 04 41
        E 3 b1 04 10
        E 3 b1 04 3c
        E 3 b1 04 5a
        E 3 b1 04 33
        E 3 b1 04 3b
        E 3 b1 04 02
        E 3 b1 04 07
        E 3 b1 04 63
        E 3 b1 04 42
        E 3 b1 04 12
        E 3 b1 04 5c
        E 3 b1 04 20
        E 3 b1 04 27
        E 3 b1 04 31
        E 3 b1 04 28
        E 3 b1 04 44
        E 3 b1 04 52
        E 3 b1 04 1d
        E 3 b1 04 39
        E 3 b1 04 17
        E 3 b1 04 5b
        E 3 b1 04 54
        E 3 b1 04 2e
        E 3 b1 04 24
        E 3 b1 04 50
        E 3 b1 04 25
        E 3 b1 04 47
        E 3 b1 04 0e
        E 3 b1 04 01
        E 3 b1 04 21
        E 3 b1 04 33
        E 3 b1 04 57
        E 3 b1 04 4e
        E 3 b1 04 03
        E 3 b1 04 57
        E 3 b1 04 4a
        E 3 b1 04 05
        E 3 b1 04 1f
        E 3 b1 04 3b
        E 3 b1 04 4c
        E 3 b1 04 61
        E 3 b1 04 3e
        E 3 b1 04 2a
        E 3 b1 04 1b
        E 3 b1 04 46
        E 3 b1 04 49
        E 3 b1 04 59
        E 3 b1 04 63
        E 3 b1 04 2f
        E 3 b1 04 40
        E 3 b1 04 45
        E 3 b1 04 35
        E 3 b1 04 5f
        E 3 b1 04 0f
        E 3 b1 04 24
        E 3 b1 04 43
        E 14 b1 04 16
        E 14 b1 04 4c
        E 14 b1 04 32
        E 14 b1 04 07
        E 14 b1 04 48
        E 14 b1 04 3f
        E 14 b1 04 09
        E 14 b1 04 08
        E 14 b1 04 30
        E 14 b1 04 5f
        E 14 b1 04 50
        E 14 b1 04 58
        E 14 b1 04 3f
        E 14 b1 04 0b
        E 14 b1 04 13
        E 14 b1 04 44
        E 14 b1 04 37
        E 14 b1 04 1c
        E 14 b1 04 14
        E 14 b1 04 1b
        E 14 b1 04 4f
        E 14 b1 04 2f
        E 14 b1 04 17
        E 14 b1 04 3a
        E 14 b1 04 64
        E 14 b1 04 00
        E 14 b1 04 0c
        E 14 b1 04 29
        E 14 b1 04 22
        E 14 b1 04 53
        E 14 b1 04 15
        E 14 b1 04 06
        E 14 b1 04 0f
        E 14 b1 04 11
        E 14 b1 04 5b
        E 14 b1 04 19
        E 14 b1 04 00
        E 14 b1 04 4b
        E 14 b1 04 23
        E 14 b1 04 14
        E 14 b1 04 28
        E 14 b1 04 1a
        E 14 b1 04 56
        E 14 b1 04 55
        E 14 b1 04 65
        E 14 b1 04 54
        E 14 b1 04 2b
        E 14 b1 04 5e
        E 14 b1 04 48
        E 14 b1 04 0b
        E 14 b1 04 2c
        E 14 b1 04 36
        E 14 b1 04 60
        E 14 b1 04 4d
        E 14 b1 04 37
        E 14 b1 04 38
        E 14 b1 04 04
        E 14 b1 04 0a
        E 14 b1 04 5d
        E 14 b1 04 51
        E 14 b1 04 2b
        E 14 b1 04 1f
        E 14 b1 04 0d
        E 14 b1 04 2d
        E 14 b1 04 1e
        E 14 b1 04 18
        E 14 b1 04 26
        E 14 b1 04 34
        E 14 b1 04 3d
        E 14 b1 04 41
        E 14 b1 04 10
        E 14 b1 04 3c
        E 14 b1 04 5a
        E 14 b1 04 33
        E 14 b1 04 3b
        E 14 b1 04 02
        E 14 b1 04 07
        E 14 b1 04 63
        E 14 b1 04 42
        E 14 b1 04 12
        E 14 b1 04 5c
        E 14 b1 04 20
        E 14 b1 04 27
        E 14 b1 04 31
        E 14 b1 04 28
        E 14 b1 04 44
        E 14 b1 04 52
        E 14 b1 04 1d
        E 14 b1 04 39
        E 14 b1 04 17
        E 14 b1 04 5b
        E 14 b1 04 54
        E 14 b1 04 2e
        E 14 b1 04 24
        E 14 b1 04 50
        E 14 b1 04 25
        E 14 b1 04 47
        E 14 b1 04 0e
        E 14 b1 04 01
        E 14 b1 04 21
        E 14 b1 04 33
        E 14 b1 04 57
        E 14 b1 04 4e
        E 14 b1 04 03
        E 14 b1 04 57
        E 14 b1 04 4a
        E 14 b1 04 05
        E 14 b1 04 1f
        E 14 b1 04 3b
        E 14 b1 04 4c
        E 14 b1 04 61
        E 14 b1 04 3e
        E 14 b1 04 2a
        E 14 b1 04 1b
        E 14 b1 04 46
        E 14 b1 04 49
        E 14 b1 04 59
        E 14 b1 04 63
        E 14 b1 04 2f
        E 14 b1 04 40
        E 14 b1 04 45
        E 14 b1 04 35
        E 14 b1 04 5f
        E 14 b1 04 0f
        E 14 b1 04 24
        E 14 b1 04 43
        E 7 b1 04 19
        E 7 b1 04 56
        E 7 b1 04 38
        E 7 b1 04 09
        E 7 b1 04 51
        E 7 b1 04 48
        E 7 b1 04 0a
        E 7 b1 04 09
        E 7 b1 04 36
        E 7 b1 04 6c
        E 7 b1 04 5a
        E 7 b1 04 63
        E 7 b1 04 47
        E 7 b1 04 0c
        E 7 b1 04 15
        E 7 b1 04 4d
        E 7 b1 04 3f
        E 7 b1 04 20
        E 7 b1 04 16
        E 7 b1 04 1e
        E 7 b1 04 59
        E 7 b1 04 35
        E 7 b1 04 1b
        E 7 b1 04 41
        E 7 b1 04 71
        E 7 b1 04 00
        E 7 b1 04 0e
        E 7 b1 04 2e
        E 7 b1 04 26
        E 7 b1 04 5d
        E 7 b1 04 18
        E 7 b1 04 07
        E 7 b1 04 12
        E 7 b1 04 13
        E 7 b1 04 67
        E 7 b1 04 1c
        E 7 b1 04 00
        E 7 b1 04 54
        E 7 b1 04 27
        E 7 b1 04 17
        E 7 b1 04 2d
        E 7 b1 04 1d
        E 7 b1 04 61
        E 7 b1 04 60
        E 7 b1 04 72
        E 7 b1 04 5f
        E 7 b1 04 31
        E 7 b1 04 6a
        E 7 b1 04 51
        E 7 b1 04 0d
        E 7 b1 04 32
        E 7 b1 04 3d
        E 7 b1 04 6c
        E 7 b1 04 57
        E 7 b1 04 3e
        E 7 b1 04 3f
        E 7 b1 04 05
        E 7 b1 04 0b
        E 7 b1 04 69
        E 7 b1 04 5b
        E 7 b1 04 30
        E 7 b1 04 24
        E 7 b1 04 0f
        E 7 b1 04 33
        E 7 b1 04 22
        E 7 b1 04 1b
        E 7 b1 04 2b
        E 7 b1 04 3b
        E 7 b1 04 45
        E 7 b1 04 49
        E 7 b1 04 12
        E 7 b1 04 44
        E 7 b1 04 65
        E 7 b1 04 3a
        E 7 b1 04 42
        E 7 b1 04 02
        E 7 b1 04 08
        E 7 b1 04 70
        E 7 b1 04 4a
        E 7 b1 04 14
        E 7 b1 04 68
        E 7 b1 04 24
        E 7 b1 04 2c
        E 7 b1 04 37
        E 7 b1 04 2d
        E 7 b1 04 4c
        E 7 b1 04 5c
        E 7 b1 04 21
        E 7 b1 04 40
        E 7 b1 04 1a
        E 7 b1 04 66
        E 7 b1 04 5e
        E 7 b1 04 34
        E 7 b1 04 29
        E 7 b1 04 5a
        E 7 b1 04 2a
        E 7 b1 04 50
        E 7 b1 04 10
        E 7 b1 04 01
        E 7 b1 04 25
        E 7 b1 04 39
        E 7 b1 04 62
        E 7 b1 04 58
        E 7 b1 04 03
        E 7 b1 04 63
        E 7 b1 04 53
        E 7 b1 04 06
        E 7 b1 04 23
        E 7 b1 04 43
        E 7 b1 04 55
        E 7 b1 04 6d
        E 7 b1 04 46
        E 7 b1 04 2f
        E 7 b1 04 1f
        E 7 b1 04 4f
        E 7 b1 04 52
        E 7 b1 04 64
        E 7 b1 04 6f
        E 7 b1 04 36
        E 7 b1 04 48
        E 7 b1 04 4e
        E 7 b1 04 3c
        E 7 b1 04 6b
        E 7 b1 04 11
        E 7 b1 04 28
        E 7 b1 04 4b
        E 14 b1 04 02
        E 14 b1 04 09
        E 14 b1 04 06
        E 14 b1 04 01
        E 14 b1 04 09
        E 14 b1 04 08
        E 14 b1 04 01
        E 14 b1 04 01
        E 14 b1 04 06
        E 14 b1 04 0c
        E 14 b1 04 0a
        E 14 b1 04 0b
        E 14 b1 04 07
        E 14 b1 04 01
        E 14 b1 04 02
        E 14 b1 04 08
        E 14 b1 04 07
        E 14 b1 04 03
        E 14 b1 04 02
        E 14 b1 04 03
        E 14 b1 04 09
        E 14 b1 04 05
        E 14 b1 04 03
        E 14 b1 04 07
        E 14 b1 04 0c
        E 14 b1 04 00
        E 14 b1 04 01
        E 14 b1 04 05
        E 14 b1 04 04
        E 14 b1 04 0a
        E 14 b1 04 02
        E 14 b1 04 00
        E 14 b1 04 02
        E 14 b1 04 02
        E 14 b1 04 0b
        E 14 b1 04 03
        E 14 b1 04 00
        E 14 b1 04 09
        E 14 b1 04 04
        E 14 b1 04 02
        E 14 b1 04 05
        E 14 b1 04 03
        E 14 b1 04 0a
        E 14 b1 04 0a
        E 14 b1 04 0c
        E 14 b1 04 0a
        E 14 b1 04 05
        E 14 b1 04 0b
        E 14 b1 04 09
        E 14 b1 04 01
        E 14 b1 04 05
        E 14 b1 04 06
        E 14 b1 04 0c
        E 14 b1 04 09
        E 14 b1 04 06
        E 14 b1 04 07
        E 14 b1 04 00
        E 14 b1 04 01
        E 14 b1 04 0b
        E 14 b1 04 0a
        E 14 b1 04 05
        E 14 b1 04 04
        E 14 b1 04 01
        E 14 b1 04 05
        E 14 b1 04 03
        E 14 b1 04 03
        E 14 b1 04 04
        E 14 b1 04 06
        E 14 b1 04 07
        E 14 b1 04 08
        E 14 b1 04 02
        E 14 b1 04 07
        E 14 b1 04 0b
        E 14 b1 04 06
        E 14 b1 04 07
        E 14 b1 04 00
        E 14 b1 04 00
        E 14 b1 04 0c
        E 14 b1 04 08
        E 14 b1 04 02
        E 14 b1 04 0b
        E 14 b1 04 04
        E 14 b1 04 04
        E 14 b1 04 06
        E 14 b1 04 05
        E 14 b1 04 08
        E 14 b1 04 0a
        E 14 b1 04 03
        E 14 b1 04 07
        E 14 b1 04 02
        E 14 b1 04 0b
        E 14 b1 04 0a
        E 14 b1 04 05
        E 14 b1 04 04
        E 14 b1 04 0a
        E 14 b1 04 04
        E 14 b1 04 08
        E 14 b1 04 01
        E 14 b1 04 00
        E 14 b1 04 04
        E 14 b1 04 06
        E 14 b1 04 0a
        E 14 b1 04 09
        E 14 b1 04 00
        E 14 b1 04 0b
        E 14 b1 04 09
        E 14 b1 04 00
        E 14 b1 04 03
        E 14 b1 04 07
        E 14 b1 04 09
        E 14 b1 04 0c
        E 14 b1 04 07
        E 14 b1 04 05
        E 14 b1 04 03
        E 14 b1 04 08
        E 14 b1 04 09
        E 14 b1 04 0b
        E 14 b1 04 0c
        E 14 b1 04 06
        E 14 b1 04 08
        E 14 b1 04 08
        E 14 b1 04 06
        E 14 b1 04 0b
        E 14 b1 04 01
        E 14 b1 04 04
        E 14 b1 04 08
        E 3 b1 04 16
        E 3 b1 04 4c
        E 3 b1 04 32
        E 3 b1 04 07
        E 3 b1 04 48
        E 3 b1 04 3f
        E 3 b1 04 09
        E 3 b1 04 08
        E 3 b1 04 30
        E 3 b1 04 5f
        E 3 b1 04 50
        E 3 b1 04 58
        E 3 b1 04 3f
        E 3 b1 04 0b
        E 3 b1 04 13
        E 3 b1 04 44
        E 3 b1 04 37
        E 3 b1 04 1c
        E 3 b1 04 14
        E 3 b1 04 1b
        E 3 b1 04 4f
        E 3 b1 04 2f
        E 3 b1 04 17
        E 3 b1 04 3a
        E 3 b1 04 64
        E 3 b1 04 00
        E 3 b1 04 0c
        E 3 b1 04 29
        E 3 b1 04 22
        E 3 b1 04 53
        E 3 b1 04 15
        E 3 b1 04 06
        E 3 b1 04 0f
        E 3 b1 04 11
        E 3 b1 04 5b
        E 3 b1 04 19
        E 3 b1 04 00
        E 3 b1 04 4b
        E 3 b1 04 23
        E 3 b1 04 14
        E 3 b1 04 28
        E 3 b1 04 1a
        E 3 b1 04 56
        E 3 b1 04 55
        E 3 b1 04 65
        E 3 b1 04 54
        E 3 b1 04 2b
        E 3 b1 04 5e
        E 3 b1 04 48
        E 3 b1 04 0b
        E 3 b1 04 2c
        E 3 b1 04 36
        E 3 b1 04 60
        E 3 b1 04 4d
        E 3 b1 04 37
        E 3 b1 04 38
        E 3 b1 04 04
        E 3 b1 04 0a
        E 3 b1 04 5d
        E 3 b1 04 51
        E 3 b1 04 2b
        E 3 b1 04 1f
        E 3 b1 04 0d
        E 3 b1 04 2d
        E 3 b1 04 1e
        E 3 b1 04 18
        E 3 b1 04 26
        E 3 b1 04 34
        E 3 b1 04 3d
        E 3 b1 04 41
        E 3 b1 04 10
        E 3 b1 04 3c
        E 3 b1 04 5a
        E 3 b1 04 33
        E 3 b1 04 3b
        E 3 b1 04 02
        E 3 b1 04 07
        E 3 b1 04 63
        E 3 b1 04 42
        E 3 b1 04 12
        E 3 b1 04 5c
        E 3 b1 04 20
        E 3 b1 04 27
        E 3 b1 04 31
        E 3 b1 04 28
        E 3 b1 04 44
        E 3 b1 04 52
        E 3 b1 04 1d
        E 3 b1 04 39
        E 3 b1 04 17
        E 3 b1 04 5b
        E 3 b1 04 54
        E 3 b1 04 2e
        E 3 b1 04 24
        E 3 b1 04 50
        E 3 b1 04 25
        E 3 b1 04 47
        E 3 b1 04 0e
        E 3 b1 04 01
        E 3 b1 04 21
        E 3 b1 04 33
        E 3 b1 04 57
        E 3 b1 04 4e
        E 3 b1 04 03
        E 3 b1 04 57
        E 3 b1 04 4a
        E 3 b1 04 05
        E 3 b1 04 1f
        E 3 b1 04 3b
        E 3 b1 04 4c
        E 3 b1 04 61
        E 3 b1 04 3e
        E 3 b1 04 2a
        E 3 b1 04 1b
        E 3 b1 04 46
        E 3 b1 04 49
        E 3 b1 04 59
        E 3 b1 04 63
        E 3 b1 04 2f
        E 3 b1 04 40
        E 3 b1 04 45
        E 3 b1 04 35
        E 3 b1 04 5f
        E 3 b1 04 0f
        E 3 b1 04 24
        E 3 b1 04 43
        E 14 b1 04 16
        E 14 b1 04 4c
        E 14 b1 04 32
        E 14 b1 04 07
        E 14 b1 04 48
        E 14 b1 04 3f
        E 14 b1 04 09
        E 14 b1 04 08
        E 14 b1 04 30
        E 14 b1 04 5f
        E 14 b1 04 50
        E 14 b1 04 58
        E 14 b1 04 3f
        E 14 b1 04 0b
        E 14 b1 04 13
        E 14 b1 04 44
        E 14 b1 04 37
        E 14 b1 04 1c
        E 14 b1 04 14
        E 14 b1 04 1b
        E 14 b1 04 4f
        E 14 b1 04 2f
        E 14 b1 04 17
        E 14 b1 04 3a
        E 14 b1 04 64
        E 14 b1 04 00
        E 14 b1 04 0c
        E 14 b1 04 29
        E 14 b1 04 22
        E 14 b1 04 53
        E 14 b1 04 15
        E 14 b1 04 06
        E 14 b1 04 0f
        E 14 b1 04 11
        E 14 b1 04 5b
        E 14 b1 04 19
        E 14 b1 04 00
        E 14 b1 04 4b
        E 14 b1 04 23
        E 14 b1 04 14
        E 14 b1 04 28
        E 14 b1 04 1a
        E 14 b1 04 56
        E 14 b1 04 55
        E 14 b1 04 65
        E 14 b1 04 54
        E 14 b1 04 2b
        E 14 b1 04 5e
        E 14 b1 04 48
        E 14 b1 04 0b
        E 14 b1 04 2c
        E 14 b1 04 36
        E 14 b1 04 60
        E 14 b1 04 4d
        E 14 b1 04 37
        E 14 b1 04 38
        E 14 b1 04 04
        E 14 b1 04 0a
        E 14 b1 04 5d
        E 14 b1 04 51
        E 14 b1 04 2b
        E 14 b1 04 1f
        E 14 b1 04 0d
        E 14 b1 04 2d
        E 14 b1 04 1e
        E 14 b1 04 18
        E 14 b1 04 26
        E 14 b1 04 34
        E 14 b1 04 3d
        E 14 b1 04 41
        E 14 b1 04 10
        E 14 b1 04 3c
        E 14 b1 04 5a
        E 14 b1 04 33
        E 14 b1 04 3b
        E 14 b1 04 02
        E 14 b1 04 07
        E 14 b1 04 63
        E 14 b1 04 42
        E 14 b1 04 12
        E 14 b1 04 5c
        E 14 b1 04 20
        E 14 b1 04 27
        E 14 b1 04 31
        E 14 b1 04 28
        E 14 b1 04 44
        E 14 b1 04 52
        E 14 b1 04 1d
        E 14 b1 04 39
        E 14 b1 04 17
        E 14 b1 04 5b
        E 14 b1 04 54
        E 14 b1 04 2e
        E 14 b1 04 24
        E 14 b1 04 50
        E 14 b1 04 25
        E 14 b1 04 47
        E 14 b1 04 0e
        E 14 b1 04 01
        E 14 b1 04 21
        E 14 b1 04 33
        E 14 b1 04 57
        E 14 b1 04 4e
        E 14 b1 04 03
        E 14 b1 04 57
        E 14 b1 04 4a
        E 14 b1 04 05
        E 14 b1 04 1f
        E 14 b1 04 3b
        E 14 b1 04 4c
        E 14 b1 04 61
        E 14 b1 04 3e
        E 14 b1 04 2a
        E 14 b1 04 1b
        E 14 b1 04 46
        E 14 b1 04 49
        E 14 b1 04 59
        E 14 b1 04 63
        E 14 b1 04 2f
        E 14 b1 04 40
        E 14 b1 04 45
        E 14 b1 04 35
        E 14 b1 04 5f
        E 14 b1 04 0f
        E 14 b1 04 24
        E 14 b1 04 43
        E 7 b1 04 19
        E 7 b1 04 56
        E 7 b1 04 38
        E 7 b1 04 09
        E 7 b1 04 51
        E 7 b1 04 48
        E 7 b1 04 0a
        E 7 b1 04 09
        E 7 b1 04 36
        E 7 b1 04 6c
        E 7 b1 04 5a
        E 7 b1 04 63
        E 7 b1 04 47
        E 7 b1 04 0c
        E 7 b1 04 15
        E 7 b1 04 4d
        E 7 b1 04 3f
        E 7 b1 04 20
        E 7 b1 04 16
        E 7 b1 04 1e
        E 7 b1 04 59
        E 7 b1 04 35
        E 7 b1 04 1b
        E 7 b1 04 41
        E 7 b1 04 71
        E 7 b1 04 00
        E 7 b1 04 0e
        E 7 b1 04 2e
        E 7 b1 04 26
        E 7 b1 04 5d
        E 7 b1 04 18
        E 7 b1 04 07
        E 7 b1 04 12
        E 7 b1 04 13
        E 7 b1 04 67
        E 7 b1 04 1c
        E 7 b1 04 00
        E 7 b1 04 54
        E 7 b1 04 27
        E 7 b1 04 17
        E 7 b1 04 2d
        E 7 b1 04 1d
        E 7 b1 04 61
        E 7 b1 04 60
        E 7 b1 04 72
        E 7 b1 04 5f
        E 7 b1 04 31
        E 7 b1 04 6a
        E 7 b1 04 51
        E 7 b1 04 0d
        E 7 b1 04 32
        E 7 b1 04 3d
        E 7 b1 04 6c
        E 7 b1 04 57
        E 7 b1 04 3e
        E 7 b1 04 3f
        E 7 b1 04 05
        E 7 b1 04 0b
        E 7 b1 04 69
        E 7 b1 04 5b
        E 7 b1 04 30
        E 7 b1 04 24
        E 7 b1 04 0f
        E 7 b1 04 33
        E 7 b1 04 22
        E 7 b1 04 1b
        E 7 b1 04 2b
        E 7 b1 04 3b
        E 7 b1 04 45
        E 7 b1 04 49
        E 7 b1 04 12
        E 7 b1 04 44
        E 7 b1 04 65
        E 7 b1 04 3a
        E 7 b1 04 42
        E 7 b1 04 02
        E 7 b1 04 08
        E 7 b1 04 70
        E 7 b1 04 4a
        E 7 b1 04 14
        E 7 b1 04 68
        E 7 b1 04 24
        E 7 b1 04 2c
        E 7 b1 04 37
        E 7 b1 04 2d
        E 7 b1 04 4c
        E 7 b1 04 5c
        E 7 b1 04 21
        E 7 b1 04 40
        E 7 b1 04 1a
        E 7 b1 04 66
        E 7 b1 04 5e
        E 7 b1 04 34
        E 7 b1 04 29
        E 7 b1 04 5a
        E 7 b1 04 2a
        E 7 b1 04 50
        E 7 b1 04 10
        E 7 b1 04 01
        E 7 b1 04 25
        E 7 b1 04 39
        E 7 b1 04 62
        E 7 b1 04 58
        E 7 b1 04 03
        E 7 b1 04 63
        E 7 b1 04 53
        E 7 b1 04 06
        E 7 b1 04 23
        E 7 b1 04 43
        E 7 b1 04 55
        E 7 b1 04 6d
        E 7 b1 04 46
        E 7 b1 04 2f
        E 7 b1 04 1f
        E 7 b1 04 4f
        E 7 b1 04 52
        E 7 b1 04 64
        E 7 b1 04 6f
        E 7 b1 04 36
        E 7 b1 04 48
        E 7 b1 04 4e
        E 7 b1 04 3c
        E 7 b1 04 6b
        E 7 b1 04 11
        E 7 b1 04 28
        E 7 b1 04 4b
        E 14 b1 04 02
        E 14 b1 04 09
        E 14 b1 04 06
        E 14 b1 04 01
        E 14 b1 04 09
        E 14 b1 04 08
        E 14 b1 04 01
        E 14 b1 04 01
        E 14 b1 04 06
        E 14 b1 04 0c
        E 14 b1 04 0a
        E 14 b1 04 0b
        E 14 b1 04 07
        E 14 b1 04 01
        E 14 b1 04 02
        E 14 b1 04 08
        E 14 b1 04 07
        E 14 b1 04 03
        E 14 b1 04 02
        E 14 b1 04 03
        E 14 b1 04 09
        E 14 b1 04 05
        E 14 b1 04 03
        E 14 b1 04 07
        E 14 b1 04 0c
        E 14 b1 04 00
        E 14 b1 04 01
        E 14 b1 04 05
        E 14 b1 04 04
        E 14 b1 04 0a
        E 14 b1 04 02
        E 14 b1 04 00
        E 14 b1 04 02
        E 14 b1 04 02
        E 14 b1 04 0b
        E 14 b1 04 03
        E 14 b1 04 00
        E 14 b1 04 09
        E 14 b1 04 04
        E 14 b1 04 02
        E 14 b1 04 05
        E 14 b1 04 03
        E 14 b1 04 0a
        E 14 b1 04 0a
        E 14 b1 04 0c
        E 14 b1 04 0a
        E 14 b1 04 05
        E 14 b1 04 0b
        E 14 b1 04 09
        E 14 b1 04 01
        E 14 b1 04 05
        E 14 b1 04 06
        E 14 b1 04 0c
        E 14 b1 04 09
        E 14 b1 04 06
        E 14 b1 04 07
        E 14 b1 04 00
        E 14 b1 04 01
        E 14 b1 04 0b
        E 14 b1 04 0a
        E 14 b1 04 05
        E 14 b1 04 04
        E 14 b1 04 01
        E 14 b1 04 05
        E 14 b1 04 03
        E 14 b1 04 03
        E 14 b1 04 04
        E 14 b1 04 06
        E 14 b1 04 07
        E 14 b1 04 08
        E 14 b1 04 02
        E 14 b1 04 07
        E 14 b1 04 0b
        E 14 b1 04 06
        E 14 b1 04 07
        E 14 b1 04 00
        E 14 b1 04 00
        E 14 b1 04 0c
        E 14 b1 04 08
        E 14 b1 04 02
        E 14 b1 04 0b
        E 14 b1 04 04
        E 14 b1 04 04
        E 14 b1 04 06
        E 14 b1 04 05
        E 14 b1 04 08
        E 14 b1 04 0a
        E 14 b1 04 03
        E 14 b1 04 07
        E 14 b1 04 02
        E 14 b1 04 0b
        E 14 b1 04 0a
        E 14 b1 04 05
        E 14 b1 04 04
        E 14 b1 04 0a
        E 14 b1 04 04
        E 14 b1 04 08
        E 14 b1 04 01
        E 14 b1 04 00
        E 14 b1 04 04
        E 14 b1 04 06
        E 14 b1 04 0a
        E 14 b1 04 09
        E 14 b1 04 00
        E 14 b1 04 0b
        E 14 b1 04 09
        E 14 b1 04 00
        E 14 b1 04 03
        E 14 b1 04 07
        E 14 b1 04 09
        E 14 b1 04 0c
        E 14 b1 04 07
        E 14 b1 04 05
        E 14 b1 04 03
        E 14 b1 04 08
        E 14 b1 04 09
        E 14 b1 04 0b
        E 14 b1 04 0c
        E 14 b1 04 06
        E 14 b1 04 08
        E 14 b1 04 08
        E 14 b1 04 06
        E 14 b1 04 0b
        E 14 b1 04 01
        E 14 b1 04 04
        E 14 b1 04 08
        E 3 b1 04 16
        E 3 b1 04 4c
        E 3 b1 04 32
        E 3 b1 04 07
        E 3 b1 04 48
        E 3 b1 04 3f
        E 3 b1 04 09
        E 3 b1 04 08
        E 3 b1 04 30
        E 3 b1 04 5f
        E 3 b1 04 50
        E 3 b1 04 58
        E 3 b1 04 3f
        E 3 b1 04 0b
        E 3 b1 04 13
        E 3 b1 04 44
        E 3 b1 04 37
        E 3 b1 04 1c
        E 3 b1 04 14
        E 3 b1 04 1b
        E 3 b1 04 4f
        E 3 b1 04 2f
        E 3 b1 04 17
        E 3 b1 04 3a
        E 3 b1 04 64
        E 3 b1 04 00
        E 3 b1 04 0c
        E 3 b1 04 29
        E 3 b1 04 22
        E 3 b1 04 53
        E 3 b1 04 15
        E 3 b1 04 06
        E 3 b1 04 0f
        E 3 b1 04 11
        E 3 b1 04 5b
        E 3 b1 04 19
        E 3 b1 04 00
        E 3 b1 04 4b
        E 3 b1 04 23
        E 3 b1 04 14
        E 3 b1 04 28
        E 3 b1 04 1a
        E 3 b1 04 56
        E 3 b1 04 55
        E 3 b1 04 65
        E 3 b1 04 54
        E 3 b1 04 2b
        E 3 b1 04 5e
        E 3 b1 04 48
        E 3 b1 04 0b
        E 3 b1 04 2c
        E 3 b1 04 36
        E 3 b1 04 60
        E 3 b1 04 4d
        E 3 b1 04 37
        E 3 b1 04 38
        E 3 b1 04 04
        E 3 b1 04 0a
        E 3 b1 04 5d
        E 3 b1 04 51
        E 3 b1 04 2b
        E 3 b1 04 1f
        E 3 b1 04 0d
        E 3 b1 04 2d
        E 3 b1 04 1e
        E 3 b1 04 18
        E 3 b1 04 26
        E 3 b1 04 34
        E 3 b1 04 3d
        E 3 b1 04 41
        E 3 b1 04 10
        E 3 b1 04 3c
        E 3 b1 04 5a
        E 3 b1 04 33
        E 3 b1 04 3b
        E 3 b1 04 02
        E 3 b1 04 07
        E 3 b1 04 63
        E 3 b1 04 42
        E 3 b1 04 12
        E 3 b1 04 5c
        E 3 b1 04 20
        E 3 b1 04 27
        E 3 b1 04 31
        E 3 b1 04 28
        E 3 b1 04 44
        E 3 b1 04 52
        E 3 b1 04 1d
        E 3 b1 04 39
        E 3 b1 04 17
        E 3 b1 04 5b
        E 3 b1 04 54
        E 3 b1 04 2e
        E 3 b1 04 24
        E 3 b1 04 50
        E 3 b1 04 25
        E 3 b1 04 47
        E 3 b1 04 0e
        E 3 b1 04 01
        E 3 b1 04 21
        E 3 b1 04 33
        E 3 b1 04 57
        E 3 b1 04 4e
        E 3 b1 04 03
        E 3 b1 04 57
        E 3 b1 04 4a
        E 3 b1 04 05
        E 3 b1 04 1f
        E 3 b1 04 3b
        E 3 b1 04 4c
        E 3 b1 04 61
        E 3 b1 04 3e
        E 3 b1 04 2a
        E 3 b1 04 1b
        E 3 b1 04 46
        E 3 b1 04 49
        E 3 b1 04 59
        E 3 b1 04 63
        E 3 b1 04 2f
        E 3 b1 04 40
        E 3 b1 04 45
        E 3 b1 04 35
        E 3 b1 04 5f
        E 3 b1 04 0f
        E 3 b1 04 24
        E 3 b1 04 43
        E 14 b1 04 16
        E 14 b1 04 4c
        E 14 b1 04 32
        E 14 b1 04 07
        E 14 b1 04 48
        E 14 b1 04 3f
        E 14 b1 04 09
        E 14 b1 04 08
        E 14 b1 04 30
        E 14 b1 04 5f
        E 14 b1 04 50
        E 14 b1 04 58
        E 14 b1 04 3f
        E 14 b1 04 0b
        E 14 b1 04 13
        E 14 b1 04 44
        E 14 b1 04 37
        E 14 b1 04 1c
        E 14 b1 04 14
        E 14 b1 04 1b
        E 14 b1 04 4f
        E 14 b1 04 2f
        E 14 b1 04 17
        E 14 b1 04 3a
        E 14 b1 04 64
        E 14 b1 04 00
        E 14 b1 04 0c
        E 14 b1 04 29
        E 14 b1 04 22
        E 14 b1 04 53
        E 14 b1 04 15
        E 14 b1 04 06
        E 14 b1 04 0f
        E 14 b1 04 11
        E 14 b1 04 5b
        E 14 b1 04 19
        E 14 b1 04 00
        E 14 b1 04 4b
        E 14 b1 04 23
        E 14 b1 04 14
        E 14 b1 04 28
        E 14 b1 04 1a
        E 14 b1 04 56
        E 14 b1 04 55
        E 14 b1 04 65
        E 14 b1 04 54
        E 14 b1 04 2b
        E 14 b1 04 5e
        E 14 b1 04 48
        E 14 b1 04 0b
        E 14 b1 04 2c
        E 14 b1 04 36
        E 14 b1 04 60
        E 14 b1 04 4d
        E 14 b1 04 37
        E 14 b1 04 38
        E 14 b1 04 04
        E 14 b1 04 0a
        E 14 b1 04 5d
        E 14 b1 04 51
        E 14 b1 04 2b
        E 14 b1 04 1f
        E 14 b1 04 0d
        E 14 b1 04 2d
        E 14 b1 04 1e
        E 14 b1 04 18
        E 14 b1 04 26
        E 14 b1 04 34
        E 14 b1 04 3d
        E 14 b1 04 41
        E 14 b1 04 10
        E 14 b1 04 3c
        E 14 b1 04 5a
        E 14 b1 04 33
        E 14 b1 04 3b
        E 14 b1 04 02
        E 14 b1 04 07
        E 14 b1 04 63
        E 14 b1 04 42
        E 14 b1 04 12
        E 14 b1 04 5c
        E 14 b1 04 20
        E 14 b1 04 27
        E 14 b1 04 31
        E 14 b1 04 28
        E 14 b1 04 44
        E 14 b1 04 52
        E 14 b1 04 1d
        E 14 b1 04 39
        E 14 b1 04 17
        E 14 b1 04 5b
        E 14 b1 04 54
        E 14 b1 04 2e
        E 14 b1 04 24
        E 14 b1 04 50
        E 14 b1 04 25
        E 14 b1 04 47
        E 14 b1 04 0e
        E 14 b1 04 01
        E 14 b1 04 21
        E 14 b1 04 33
        E 14 b1 04 57
        E 14 b1 04 4e
        E 14 b1 04 03
        E 14 b1 04 57
        E 14 b1 04 4a
        E 14 b1 04 05
        E 14 b1 04 1f
        E 14 b1 04 3b
        E 14 b1 04 4c
        E 14 b1 04 61
        E 14 b1 04 3e
        E 14 b1 04 2a
        E 14 b1 04 1b
        E 14 b1 04 46
        E 14 b1 04 49
        E 14 b1 04 59
        E 14 b1 04 63
        E 14 b1 04 2f
        E 14 b1 04 40
        E 14 b1 04 45
        E 14 b1 04 35
        E 14 b1 04 5f
        E 14 b1 04 0f
        E 14 b1 04 24
        E 14 b1 04 43
        E 7 b1 04 19
        E 7 b1 04 56
        E 7 b1 04 38
        E 7 b1 04 09
        E 7 b1 04 51
        E 7 b1 04 48
        E 7 b1 04 0a
        E 7 b1 04 09
        E 7 b1 04 36
        E 7 b1 04 6c
        E 7 b1 04 5a
        E 7 b1 04 63
        E 7 b1 04 47
        E 7 b1 04 0c
        E 7 b1 04 15
        E 7 b1 04 4d
        E 7 b1 04 3f
        E 7 b1 04 20
        E 7 b1 04 16
        E 7 b1 04 1e
        E 7 b1 04 59
        E 7 b1 04 35
        E 7 b1 04 1b
        E 7 b1 04 41
        E 7 b1 04 71
        E 7 b1 04 00
        E 7 b1 04 0e
        E 7 b1 04 2e
        E 7 b1 04 26
        E 7 b1 04 5d
        E 7 b1 04 18
        E 7 b1 04 07
        E 7 b1 04 12
        E 7 b1 04 13
        E 7 b1 04 67
        E 7 b1 04 1c
        E 7 b1 04 00
        E 7 b1 04 54
        E 7 b1 04 27
        E 7 b1 04 17
        E 7 b1 04 2d
        E 7 b1 04 1d
        E 7 b1 04 61
        E 7 b1 04 60
        E 7 b1 04 72
        E 7 b1 04 5f
        E 7 b1 04 31
        E 7 b1 04 6a
        E 7 b1 04 51
        E 7 b1 04 0d
        E 7 b1 04 32
        E 7 b1 04 3d
        E 7 b1 04 6c
        E 7 b1 04 57
        E 7 b1 04 3e
        E 7 b1 04 3f
        E 7 b1 04 05
        E 7 b1 04 0b
        E 7 b1 04 69
        E 7 b1 04 5b
        E 7 b1 04 30
        E 7 b1 04 24
        E 7 b1 04 0f
        E 7 b1 04 33
        E 7 b1 04 22
        E 7 b1 04 1b
        E 7 b1 04 2b
        E 7 b1 04 3b
        E 7 b1 04 45
        E 7 b1 04 49
        E 7 b1 04 12
        E 7 b1 04 44
        E 7 b1 04 65
        E 7 b1 04 3a
        E 7 b1 04 42
        E 7 b1 04 02
        E 7 b1 04 08
        E 7 b1 04 70
        E 7 b1 04 4a
        E 7 b1 04 14
        E 7 b1 04 68
        E 7 b1 04 24
        E 7 b1 04 2c
        E 7 b1 04 37
        E 7 b1 04 2d
        E 7 b1 04 4c
        E 7 b1 04 5c
        E 7 b1 04 21
        E 7 b1 04 40
        E 7 b1 04 1a
        E 7 b1 04 66
        E 7 b1 04 5e
        E 7 b1 04 34
        E 7 b1 04 29
        E 7 b1 04 5a
        E 7 b1 04 2a
        E 7 b1 04 50
        E 7 b1 04 10
        E 7 b1 04 01
        E 7 b1 04 25
        E 7 b1 04 39
        E 7 b1 04 62
        E 7 b1 04 58
        E 7 b1 04 03
        E 7 b1 04 63
        E 7 b1 04 53
        E 7 b1 04 06
        E 7 b1 04 23
        E 7 b1 04 43
        E 7 b1 04 55
        E 7 b1 04 6d
        E 7 b1 04 46
        E 7 b1 04 2f
        E 7 b1 04 1f
        E 7 b1 04 4f
        E 7 b1 04 52
        E 7 b1 04 64
        E 7 b1 04 6f
        E 7 b1 04 36
        E 7 b1 04 48
        E 7 b1 04 4e
        E 7 b1 04 3c
        E 7 b1 04 6b
        E 7 b1 04 11
        E 7 b1 04 28
        E 7 b1 04 4b
        E 14 b1 04 02
        E 14 b1 04 09
        E 14 b1 04 06
        E 14 b1 04 01
        E 14 b1 04 09
        E 14 b1 04 08
        E 14 b1 04 01
        E 14 b1 04 01
        E 14 b1 04 06
        E 14 b1 04 0c
        E 14 b1 04 0a
        E 14 b1 04 0b
        E 14 b1 04 07
        E 14 b1 04 01
        E 14 b1 04 02
        E 14 b1 04 08
        E 14 b1 04 07
        E 14 b1 04 03
        E 14 b1 04 02
        E 14 b1 04 03
        E 14 b1 04 09
        E 14 b1 04 05
        E 14 b1 04 03
        E 14 b1 04 07
        E 14 b1 04 0c
        E 14 b1 04 00
        E 14 b1 04 01
        E 14 b1 04 05
        E 14 b1 04 04
        E 14 b1 04 0a
        E 14 b1 04 02
        E 14 b1 04 00
        E 14 b1 04 02
        E 14 b1 04 02
        E 14 b1 04 0b
        E 14 b1 04 03
        E 14 b1 04 00
        E 14 b1 04 09
        E 14 b1 04 04
        E 14 b1 04 02
        E 14 b1 04 05
        E 14 b1 04 03
        E 14 b1 04 0a
        E 14 b1 04 0a
        E 14 b1 04 0c
        E 14 b1 04 0a
        E 14 b1 04 05
        E 14 b1 04 0b
        E 14 b1 04 09
        E 14 b1 04 01
        E 14 b1 04 05
        E 14 b1 04 06
        E 14 b1 04 0c
        E 14 b1 04 09
        E 14 b1 04 06
        E 14 b1 04 07
        E 14 b1 04 00
        E 14 b1 04 01
        E 14 b1 04 0b
        E 14 b1 04 0a
        E 14 b1 04 05
        E 14 b1 04 04
        E 14 b1 04 01
        E 14 b1 04 05
        E 14 b1 04 03
        E 14 b1 04 03
        E 14 b1 04 04
        E 14 b1 04 06
        E 14 b1 04 07
        E 14 b1 04 08
        E 14 b1 04 02
        E 14 b1 04 07
        E 14 b1 04 0b
        E 14 b1 04 06
        E 14 b1 04 07
        E 14 b1 04 00
        E 14 b1 04 00
        E 14 b1 04 0c
        E 14 b1 04 08
        E 14 b1 04 02
        E 14 b1 04 0b
        E 14 b1 04 04
        E 14 b1 04 04
        E 14 b1 04 06
        E 14 b1 04 05
        E 14 b1 04 08
        E 14 b1 04 0a
        E 14 b1 04 03
        E 14 b1 04 07
        E 14 b1 04 02
        E 14 b1 04 0b
        E 14 b1 04 0a
        E 14 b1 04 05
        E 14 b1 04 04
        E 14 b1 04 0a
        E 14 b1 04 04
        E 14 b1 04 08
        E 14 b1 04 01
        E 14 b1 04 00
        E 14 b1 04 04
        E 14 b1 04 06
        E 14 b1 04 0a
        E 14 b1 04 09
        E 14 b1 04 00
        E 14 b1 04 0b
        E 14 b1 04 09
        E 14 b1 04 00
        E 14 b1 04 03
        E 14 b1 04 07
        E 14 b1 04 09
        E 14 b1 04 0c
        E 14 b1 04 07
        E 14 b1 04 05
        E 14 b1 04 03
        E 14 b1 04 08
        E 14 b1 04 09
        E 14 b1 04 0b
        E 14 b1 04 0c
        E 14 b1 04 06
        E 14 b1 04 08
        E 14 b1 04 08
        E 14 b1 04 06
        E 14 b1 04 0b
        E 14 b1 04 01
        E 14 b1 04 04
        E 14 b1 04 08
        E 3 b1 04 16
        E 3 b1 04 4c
        E 3 b1 04 32
        E 3 b1 04 07
        E 3 b1 04 48
        E 3 b1 04 3f
        E 3 b1 04 09
        E 3 b1 04 08
        E 3 b1 04 30
        E 3 b1 04 5f
        E 3 b1 04 50
        E 3 b1 04 58
        E 3 b1 04 3f
        E 3 b1 04 0b
        E 3 b1 04 13
        E 3 b1 04 44
        E 3 b1 04 37
        E 3 b1 04 1c
        E 3 b1 04 14
        E 3 b1 04 1b
        E 3 b1 04 4f
        E 3 b1 04 2f
        E 3 b1 04 17
        E 3 b1 04 3a
        E 3 b1 04 64
        E 3 b1 04 00
        E 3 b1 04 0c
        E 3 b1 04 29
        E 3 b1 04 22
        E 3 b1 04 53
        E 3 b1 04 15
        E 3 b1 04 06
        E 3 b1 04 0f
        E 3 b1 04 11
        E 3 b1 04 5b
        E 3 b1 04 19
        E 3 b1 04 00
        E 3 b1 04 4b
        E 3 b1 04 23
        E 3 b1 04 14
        E 3 b1 04 28
        E 3 b1 04 1a
        E 3 b1 04 56
        E 3 b1 04 55
        E 3 b1 04 65
        E 3 b1 04 54
        E 3 b1 04 2b
        E 3 b1 04 5e
        E 3 b1 04 48
        E 3 b1 04 0b
        E 3 b1 04 2c
        E 3 b1 04 36
        E 3 b1 04 60
        E 3 b1 04 4d
        E 3 b1 04 37
        E 3 b1 04 38
        E 3 b1 04 04
        E 3 b1 04 0a
        E 3 b1 04 5d
        E 3 b1 04 51
        E 3 b1 04 2b
        E 3 b1 04 1f
        E 3 b1 04 0d
        E 3 b1 04 2d
        E 3 b1 04 1e
        E 3 b1 04 18
        E 3 b1 04 26
        E 3 b1 04 34
        E 3 b1 04 3d
        E 3 b1 04 41
        E 3 b1 04 10
        E 3 b1 04 3c
        E 3 b1 04 5a
        E 3 b1 04 33
        E 3 b1 04 3b
        E 3 b1 04 02
        E 3 b1 04 07
        E 3 b1 04 63
        E 3 b1 04 42
        E 3 b1 04 12
        E 3 b1 04 5c
        E 3 b1 04 20
        E 3 b1 04 27
        E 3 b1 04 31
        E 3 b1 04 28
        E 3 b1 04 44
        E 3 b1 04 52
        E 3 b1 04 1d
        E 3 b1 04 39
        E 3 b1 04 17
        E 3 b1 04 5b
        E 3 b1 04 54
        E 3 b1 04 2e
        E 3 b1 04 24
        E 3 b1 04 50
        E 3 b1 04 25
        E 3 b1 04 47
        E 3 b1 04 0e
        E 3 b1 04 01
        E 3 b1 04 21
        E 3 b1 04 33
        E 3 b1 04 57
        E 3 b1 04 4e
        E 3 b1 04 03
        E 3 b1 04 57
        E 3 b1 04 4a
        E 3 b1 04 05
        E 3 b1 04 1f
        E 3 b1 04 3b
        E 3 b1 04 4c
        E 3 b1 04 61
        E 3 b1 04 3e
        E 3 b1 04 2a
        E 3 b1 04 1b
        E 3 b1 04 46
        E 3 b1 04 49
        E 3 b1 04 59
        E 3 b1 04 63
        E 3 b1 04 2f
        E 3 b1 04 40
        E 3 b1 04 45
        E 3 b1 04 35
        E 3 b1 04 5f
        E 3 b1 04 0f
        E 3 b1 04 24
        E 3 b1 04 43
        E 14 b1 04 16
        E 14 b1 04 4c
        E 14 b1 04 32
        E 14 b1 04 07
        E 14 b1 04 48
        E 14 b1 04 3f
        E 14 b1 04 09
        E 14 b1 04 08
        E 14 b1 04 30
        E 14 b1 04 5f
        E 14 b1 04 50
        E 14 b1 04 58
        E 14 b1 04 3f
        E 14 b1 04 0b
        E 14 b1 04 13
        E 14 b1 04 44
        E 14 b1 04 37
        E 14 b1 04 1c
        E 14 b1 04 14
        E 14 b1 04 1b
        E 14 b1 04 4f
        E 14 b1 04 2f
        E 14 b1 04 17
        E 14 b1 04 3a
        E 14 b1 04 64
        E 14 b1 04 00
        E 14 b1 04 0c
        E 14 b1 04 29
        E 14 b1 04 22
        E 14 b1 04 53
        E 14 b1 04 15
        E 14 b1 04 06
        E 14 b1 04 0f
        E 14 b1 04 11
        E 14 b1 04 5b
        E 14 b1 04 19
        E 14 b1 04 00
        E 14 b1 04 4b
        E 14 b1 04 23
        E 14 b1 04 14
        E 14 b1 04 28
        E 14 b1 04 1a
        E 14 b1 04 56
        E 14 b1 04 55
        E 14 b1 04 65
        E 14 b1 04 54
        E 14 b1 04 2b
        E 14 b1 04 5e
        E 14 b1 04 48
        E 14 b1 04 0b
        E 14 b1 04 2c
        E 14 b1 04 36
        E 14 b1 04 60
        E 14 b1 04 4d
        E 14 b1 04 37
        E 14 b1 04 38
        E 14 b1 04 04
        E 14 b1 04 0a
        E 14 b1 04 5d
        E 14 b1 04 51
        E 14 b1 04 2b
        E 14 b1 04 1f
        E 14 b1 04 0d
        E 14 b1 04 2d
        E 14 b1 04 1e
        E 14 b1 04 18
        E 14 b1 04 26
        E 14 b1 04 34
        E 14 b1 04 3d
        E 14 b1 04 41
        E 14 b1 04 10
        E 14 b1 04 3c
        E 14 b1 04 5a
        E 14 b1 04 33
        E 14 b1 04 3b
        E 14 b1 04 02
        E 14 b1 04 07
        E 14 b1 04 63
        E 14 b1 04 42
        E 14 b1 04 12
        E 14 b1 04 5c
        E 14 b1 04 20
        E 14 b1 04 27
        E 14 b1 04 31
        E 14 b1 04 28
        E 14 b1 04 44
        E 14 b1 04 52
        E 14 b1 04 1d
        E 14 b1 04 39
        E 14 b1 04 17
        E 14 b1 04 5b
        E 14 b1 04 54
        E 14 b1 04 2e
        E 14 b1 04 24
        E 14 b1 04 50
        E 14 b1 04 25
        E 14 b1 04 47
        E 14 b1 04 0e
        E 14 b1 04 01
        E 14 b1 04 21
        E 14 b1 04 33
        E 14 b1 04 57
        E 14 b1 04 4e
        E 14 b1 04 03
        E 14 b1 04 57
        E 14 b1 04 4a
        E 14 b1 04 05
        E 14 b1 04 1f
        E 14 b1 04 3b
        E 14 b1 04 4c
        E 14 b1 04 61
        E 14 b1 04 3e
        E 14 b1 04 2a
        E 14 b1 04 1b
        E 14 b1 04 46
        E 14 b1 04 49
        E 14 b1 04 59
        E 14 b1 04 63
        E 14 b1 04 2f
        E 14 b1 04 40
        E 14 b1 04 45
        E 14 b1 04 35
        E 14 b1 04 5f
        E 14 b1 04 0f
        E 14 b1 04 24
        E 14 b1 04 43
        E 20 b0 7b 00
        CCINTERP 32
        CHASE_CC_TAKEOFFS 1
        GUID {99F745C2-E593-224A-8F96-9F813CF1CCC4}
        IGNTEMPO 0 120 4 4
        SRCCOLOR 253
        VELLANE 3 601 0
        VELLANE -1 196 0
      >
    >
  >
  <TRACK {7F882677-8072-FF4F-8A56-749CEE676188}
    NAME "mission brand tortilla strips"
    PEAKCOL 16576
    BEAT -1
    AUTOMODE 0
    VOLPAN 1 0 -1 -1 1
    MUTESOLO 0 0 0
    IPHASE 0
    PLAYOFFS 0 1
    ISBUS 0 0
    BUSCOMP 0 0 0 0 0
    SHOWINMIX 1 0.6667 0.5 1 0.5 0 -1 0
    FREEMODE 0
    SEL 0
    REC 0 0 1 0 0 0 0
    VU 2
    TRACKHEIGHT 0 1 0 0 -1 0
    INQ 0 0 0 0.5 100 0 0 100
    NCHAN 2
    FX 1
    TRACKID {7F882677-8072-FF4F-8A56-749CEE676188}
    PERF 0
    MIDIOUT -1
    MAINSEND 1 0
    <ITEM
      POSITION 0
      SNAPOFFS 0
      LENGTH 188.035614
      LOOP 1
      ALLTAKES 0
      FADEIN 1 0 0 1 0 0
      FADEOUT 1 0 0 1 0 0
      MUTE 0 0
      SEL 0
      IGUID {99016564-B0F6-DE43-A162-C8E204D38AD8}
      IID 15
      NAME "mission brand tortilla strips.mid"
      VOLPAN 1 0 1 -1
      SOFFS 0 0
      PLAYRATE 1 1 0 -1 0 0.0025
      CHANMODE 0
      GUID {0BA38020-1A2F-F646-AAD6-5F2AC1EC43B0}
      <SOURCE MIDI
        HASDATA 1 128 QN
        CCINTERP 32
        POOLEDEVTS {D9276066-F9C5-AD43-91BE-EEBCC154AB9B}
        E 1 b2 08 05
        E 1 b2 08 13
        E 1 b2 08 0c
        E 1 b2 08 02
        E 1 b2 08 12
        E 1 b2 08 10
        E 1 b2 08 02
        E 1 b2 08 02
        E 1 b2 08 0c
        E 1 b2 08 18
        E 1 b2 08 14
        E 1 b2 08 16
        E 1 b2 08 0f
        E 1 b2 08 02
        E 1 b2 08 04
        E 1 b2 08 11
        E 1 b2 08 0e
        E 1 b2 08 07
        E 1 b2 08 05
        E 1 b2 08 06
        E 1 b2 08 13
        E 1 b2 08 0b
        E 1 b2 08 06
        E 1 b2 08 0e
        E 1 b2 08 19
        E 1 b2 08 00
        E 1 b2 08 03
        E 1 b2 08 0a
        E 1 b2 08 08
        E 1 b2 08 14
        E 1 b2 08 05
        E 1 b2 08 01
        E 1 b2 08 04
        E 1 b2 08 04
        E 1 b2 08 17
        E 1 b2 08 06
        E 1 b2 08 00
        E 1 b2 08 12
        E 1 b2 08 08
        E 1 b2 08 05
        E 1 b2 08 0a
        E 1 b2 08 06
        E 1 b2 08 15
        E 1 b2 08 15
        E 1 b2 08 19
        E 1 b2 08 15
        E 1 b2 08 0b
        E 1 b2 08 17
        E 1 b2 08 12
        E 1 b2 08 03
        E 1 b2 08 0b
        E 1 b2 08 0d
        E 1 b2 08 18
        E 1 b2 08 13
        E 1 b2 08 0d
        E 1 b2 08 0e
        E 1 b2 08 01
        E 1 b2 08 02
        E 1 b2 08 17
        E 1 b2 08 14
        E 1 b2 08 0a
        E 1 b2 08 08
        E 1 b2 08 03
        E 1 b2 08 0b
        E 1 b2 08 07
        E 1 b2 08 06
        E 1 b2 08 09
        E 1 b2 08 0d
        E 1 b2 08 0f
        E 1 b2 08 10
        E 1 b2 08 04
        E 1 b2 08 0f
        E 1 b2 08 16
        E 1 b2 08 0d
        E 1 b2 08 0e
        E 1 b2 08 00
        E 1 b2 08 01
        E 1 b2 08 19
        E 1 b2 08 10
        E 1 b2 08 04
        E 1 b2 08 17
        E 1 b2 08 08
        E 1 b2 08 09
        E 1 b2 08 0c
        E 1 b2 08 0a
        E 1 b2 08 11
        E 1 b2 08 14
        E 1 b2 08 07
        E 1 b2 08 0e
        E 1 b2 08 05
        E 1 b2 08 16
        E 1 b2 08 15
        E 1 b2 08 0b
        E 1 b2 08 09
        E 1 b2 08 14
        E 1 b2 08 09
        E 1 b2 08 11
        E 1 b2 08 03
        E 1 b2 08 00
        E 1 b2 08 08
        E 1 b2 08 0c
        E 1 b2 08 15
        E 1 b2 08 13
        E 1 b2 08 00
        E 1 b2 08 16
        E 1 b2 08 12
        E 1 b2 08 01
        E 1 b2 08 07
        E 1 b2 08 0f
        E 1 b2 08 13
        E 1 b2 08 18
        E 1 b2 08 0f
        E 1 b2 08 0a
        E 1 b2 08 07
        E 1 b2 08 11
        E 1 b2 08 12
        E 1 b2 08 16
        E 1 b2 08 18
        E 1 b2 08 0c
        E 1 b2 08 10
        E 1 b2 08 11
        E 1 b2 08 0d
        E 1 b2 08 17
        E 1 b2 08 03
        E 1 b2 08 09
        E 1 b2 08 10
        E 14 b2 08 0b
        E 14 b2 08 26
        E 14 b2 08 19
        E 14 b2 08 04
        E 14 b2 08 24
        E 14 b2 08 20
        E 14 b2 08 04
        E 14 b2 08 04
        E 14 b2 08 18
        E 14 b2 08 30
        E 14 b2 08 28
        E 14 b2 08 2c
        E 14 b2 08 1f
        E 14 b2 08 05
        E 14 b2 08 09
        E 14 b2 08 22
        E 14 b2 08 1c
        E 14 b2 08 0e
        E 14 b2 08 0a
        E 14 b2 08 0d
        E 14 b2 08 27
        E 14 b2 08 17
        E 14 b2 08 0c
        E 14 b2 08 1d
        E 14 b2 08 32
        E 14 b2 08 00
        E 14 b2 08 06
        E 14 b2 08 14
        E 14 b2 08 11
        E 14 b2 08 29
        E 14 b2 08 0a
        E 14 b2 08 03
        E 14 b2 08 08
        E 14 b2 08 08
        E 14 b2 08 2e
        E 14 b2 08 0c
        E 14 b2 08 00
        E 14 b2 08 25
        E 14 b2 08 11
        E 14 b2 08 0a
        E 14 b2 08 14
        E 14 b2 08 0d
        E 14 b2 08 2b
        E 14 b2 08 2a
        E 14 b2 08 32
        E 14 b2 08 2a
        E 14 b2 08 16
        E 14 b2 08 2f
        E 14 b2 08 24
        E 14 b2 08 06
        E 14 b2 08 16
        E 14 b2 08 1b
        E 14 b2 08 30
        E 14 b2 08 26
        E 14 b2 08 1b
        E 14 b2 08 1c
        E 14 b2 08 02
        E 14 b2 08 05
        E 14 b2 08 2e
        E 14 b2 08 28
        E 14 b2 08 15
        E 14 b2 08 10
        E 14 b2 08 06
        E 14 b2 08 16
        E 14 b2 08 0f
        E 14 b2 08 0c
        E 14 b2 08 13
        E 14 b2 08 1a
        E 14 b2 08 1e
        E 14 b2 08 20
        E 14 b2 08 08
        E 14 b2 08 1e
        E 14 b2 08 2d
        E 14 b2 08 1a
        E 14 b2 08 1d
        E 14 b2 08 01
        E 14 b2 08 03
        E 14 b2 08 32
        E 14 b2 08 21
        E 14 b2 08 09
        E 14 b2 08 2e
        E 14 b2 08 10
        E 14 b2 08 13
        E 14 b2 08 18
        E 14 b2 08 14
        E 14 b2 08 22
        E 14 b2 08 29
        E 14 b2 08 0e
        E 14 b2 08 1c
        E 14 b2 08 0b
        E 14 b2 08 2d
        E 14 b2 08 2a
        E 14 b2 08 17
        E 14 b2 08 12
        E 14 b2 08 28
        E 14 b2 08 12
        E 14 b2 08 23
        E 14 b2 08 07
        E 14 b2 08 00
        E 14 b2 08 10
        E 14 b2 08 19
        E 14 b2 08 2b
        E 14 b2 08 27
        E 14 b2 08 01
        E 14 b2 08 2c
        E 14 b2 08 25
        E 14 b2 08 02
        E 14 b2 08 0f
        E 14 b2 08 1e
        E 14 b2 08 26
        E 14 b2 08 30
        E 14 b2 08 1f
        E 14 b2 08 15
        E 14 b2 08 0e
        E 14 b2 08 23
        E 14 b2 08 24
        E 14 b2 08 2c
        E 14 b2 08 31
        E 14 b2 08 18
        E 14 b2 08 20
        E 14 b2 08 22
        E 14 b2 08 1a
        E 14 b2 08 2f
        E 14 b2 08 07
        E 14 b2 08 12
        E 14 b2 08 21
        E 13 b2 08 19
        E 13 b2 08 1a
        E 13 b2 08 1c
        E 13 b2 08 1d
        E 13 b2 08 1e
        E 13 b2 08 1f
        E 13 b2 08 20
        E 13 b2 08 22
        E 13 b2 08 23
        E 13 b2 08 24
        E 13 b2 08 25
        E 13 b2 08 26
        E 13 b2 08 27
        E 13 b2 08 28
        E 13 b2 08 29
        E 13 b2 08 2a
        E 13 b2 08 2b
        E 13 b2 08 2c
        E 13 b2 08 2d
        E 13 b2 08 2e
        E 13 b2 08 2e
        E 13 b2 08 2f
        E 13 b2 08 30
        E 13 b2 08 30
        E 13 b2 08 30
        E 13 b2 08 31
        E 13 b2 08 31
        E 13 b2 08 32
        E 13 b2 08 32
        E 13 b2 08 32
        E 13 b2 08 32
        E 13 b2 08 32
        E 13 b2 08 32
        E 13 b2 08 32
        E 13 b2 08 32
        E 13 b2 08 32
        E 13 b2 08 32
        E 13 b2 08 32
        E 13 b2 08 31
        E 13 b2 08 31
        E 13 b2 08 30
        E 13 b2 08 30
        E 13 b2 08 2f
        E 13 b2 08 2e
        E 13 b2 08 2e
        E 13 b2 08 2d
        E 13 b2 08 2c
        E 13 b2 08 2c
        E 13 b2 08 2b
        E 13 b2 08 2a
        E 13 b2 08 29
        E 13 b2 08 28
        E 13 b2 08 27
        E 13 b2 08 26
        E 13 b2 08 24
        E 13 b2 08 23
        E 13 b2 08 22
        E 13 b2 08 21
        E 13 b2 08 20
        E 13 b2 08 1f
        E 13 b2 08 1d
        E 13 b2 08 1c
        E 13 b2 08 1b
        E 13 b2 08 1a
        E 13 b2 08 18
        E 13 b2 08 17
        E 13 b2 08 16
        E 13 b2 08 15
        E 13 b2 08 13
        E 13 b2 08 12
        E 13 b2 08 11
        E 13 b2 08 10
        E 13 b2 08 0f
        E 13 b2 08 0e
        E 13 b2 08 0c
        E 13 b2 08 0b
        E 13 b2 08 0a
        E 13 b2 08 09
        E 13 b2 08 08
        E 13 b2 08 07
        E 13 b2 08 06
        E 13 b2 08 06
        E 13 b2 08 05
        E 13 b2 08 04
        E 13 b2 08 04
        E 13 b2 08 03
        E 13 b2 08 02
        E 13 b2 08 02
        E 13 b2 08 01
        E 13 b2 08 01
        E 13 b2 08 00
        E 13 b2 08 00
        E 13 b2 08 00
        E 13 b2 08 00
        E 13 b2 08 00
        E 13 b2 08 00
        E 13 b2 08 00
        E 13 b2 08 00
        E 13 b2 08 00
        E 13 b2 08 00
        E 13 b2 08 00
        E 13 b2 08 01
        E 13 b2 08 01
        E 13 b2 08 02
        E 13 b2 08 02
        E 13 b2 08 02
        E 13 b2 08 03
        E 13 b2 08 04
        E 13 b2 08 04
        E 13 b2 08 05
        E 13 b2 08 06
        E 13 b2 08 07
        E 13 b2 08 08
        E 13 b2 08 09
        E 13 b2 08 0a
        E 13 b2 08 0b
        E 13 b2 08 0c
        E 13 b2 08 0d
        E 13 b2 08 0e
        E 13 b2 08 0f
        E 13 b2 08 10
        E 13 b2 08 12
        E 13 b2 08 13
        E 13 b2 08 14
        E 13 b2 08 15
        E 13 b2 08 16
        E 13 b2 08 18
        E 13 b2 08 19
        E 61 b2 08 06
        E 61 b2 08 06
        E 61 b2 08 07
        E 61 b2 08 07
        E 61 b2 08 07
        E 61 b2 08 07
        E 61 b2 08 08
        E 61 b2 08 08
        E 61 b2 08 08
        E 61 b2 08 09
        E 61 b2 08 09
        E 61 b2 08 09
        E 61 b2 08 09
        E 61 b2 08 0a
        E 61 b2 08 0a
        E 61 b2 08 0a
        E 61 b2 08 0a
        E 61 b2 08 0b
        E 61 b2 08 0b
        E 61 b2 08 0b
        E 61 b2 08 0b
        E 61 b2 08 0b
        E 61 b2 08 0c
        E 61 b2 08 0c
        E 61 b2 08 0c
        E 61 b2 08 0c
        E 61 b2 08 0c
        E 61 b2 08 0c
        E 61 b2 08 0c
        E 61 b2 08 0c
        E 61 b2 08 0c
        E 61 b2 08 0c
        E 61 b2 08 0c
        E 61 b2 08 0c
        E 61 b2 08 0c
        E 61 b2 08 0c
        E 61 b2 08 0c
        E 61 b2 08 0c
        E 61 b2 08 0c
        E 61 b2 08 0c
        E 61 b2 08 0c
        E 61 b2 08 0c
        E 61 b2 08 0b
        E 61 b2 08 0b
        E 61 b2 08 0b
        E 61 b2 08 0b
        E 61 b2 08 0b
        E 61 b2 08 0b
        E 61 b2 08 0a
        E 61 b2 08 0a
        E 61 b2 08 0a
        E 61 b2 08 0a
        E 61 b2 08 09
        E 61 b2 08 09
        E 61 b2 08 09
        E 61 b2 08 08
        E 61 b2 08 08
        E 61 b2 08 08
        E 61 b2 08 08
        E 61 b2 08 07
        E 61 b2 08 07
        E 61 b2 08 07
        E 61 b2 08 06
        E 61 b2 08 06
        E 61 b2 08 06
        E 61 b2 08 05
        E 61 b2 08 05
        E 61 b2 08 05
        E 61 b2 08 04
        E 61 b2 08 04
        E 61 b2 08 04
        E 61 b2 08 04
        E 61 b2 08 03
        E 61 b2 08 03
        E 61 b2 08 03
        E 61 b2 08 02
        E 61 b2 08 02
        E 61 b2 08 02
        E 61 b2 08 02
        E 61 b2 08 01
        E 61 b2 08 01
        E 61 b2 08 01
        E 61 b2 08 01
        E 61 b2 08 01
        E 61 b2 08 01
        E 61 b2 08 00
        E 61 b2 08 00
        E 61 b2 08 00
        E 61 b2 08 00
        E 61 b2 08 00
        E 61 b2 08 00
        E 61 b2 08 00
        E 61 b2 08 00
        E 61 b2 08 00
        E 61 b2 08 00
        E 61 b2 08 00
        E 61 b2 08 00
        E 61 b2 08 00
        E 61 b2 08 00
        E 61 b2 08 00
        E 61 b2 08 00
        E 61 b2 08 00
        E 61 b2 08 00
        E 61 b2 08 00
        E 61 b2 08 00
        E 61 b2 08 00
        E 61 b2 08 00
        E 61 b2 08 01
        E 61 b2 08 01
        E 61 b2 08 01
        E 61 b2 08 01
        E 61 b2 08 01
        E 61 b2 08 02
        E 61 b2 08 02
        E 61 b2 08 02
        E 61 b2 08 02
        E 61 b2 08 03
        E 61 b2 08 03
        E 61 b2 08 03
        E 61 b2 08 03
        E 61 b2 08 04
        E 61 b2 08 04
        E 61 b2 08 04
        E 61 b2 08 05
        E 61 b2 08 05
        E 61 b2 08 05
        E 61 b2 08 06
        E 61 b2 08 06
        E 6 b2 08 0c
        E 6 b2 08 0d
        E 6 b2 08 0e
        E 6 b2 08 0e
        E 6 b2 08 0f
        E 6 b2 08 0f
        E 6 b2 08 10
        E 6 b2 08 11
        E 6 b2 08 11
        E 6 b2 08 12
        E 6 b2 08 12
        E 6 b2 08 13
        E 6 b2 08 13
        E 6 b2 08 14
        E 6 b2 08 14
        E 6 b2 08 15
        E 6 b2 08 15
        E 6 b2 08 16
        E 6 b2 08 16
        E 6 b2 08 17
        E 6 b2 08 17
        E 6 b2 08 17
        E 6 b2 08 18
        E 6 b2 08 18
        E 6 b2 08 18
        E 6 b2 08 18
        E 6 b2 08 18
        E 6 b2 08 19
        E 6 b2 08 19
        E 6 b2 08 19
        E 6 b2 08 19
        E 6 b2 08 19
        E 6 b2 08 19
        E 6 b2 08 19
        E 6 b2 08 19
        E 6 b2 08 19
        E 6 b2 08 19
        E 6 b2 08 19
        E 6 b2 08 18
        E 6 b2 08 18
        E 6 b2 08 18
        E 6 b2 08 18
        E 6 b2 08 17
        E 6 b2 08 17
        E 6 b2 08 17
        E 6 b2 08 16
        E 6 b2 08 16
        E 6 b2 08 16
        E 6 b2 08 15
        E 6 b2 08 15
        E 6 b2 08 14
        E 6 b2 08 14
        E 6 b2 08 13
        E 6 b2 08 13
        E 6 b2 08 12
        E 6 b2 08 11
        E 6 b2 08 11
        E 6 b2 08 10
        E 6 b2 08 10
        E 6 b2 08 0f
        E 6 b2 08 0e
        E 6 b2 08 0e
        E 6 b2 08 0d
        E 6 b2 08 0d
        E 6 b2 08 0c
        E 6 b2 08 0b
        E 6 b2 08 0b
        E 6 b2 08 0a
        E 6 b2 08 09
        E 6 b2 08 09
        E 6 b2 08 08
        E 6 b2 08 08
        E 6 b2 08 07
        E 6 b2 08 07
        E 6 b2 08 06
        E 6 b2 08 05
        E 6 b2 08 05
        E 6 b2 08 04
        E 6 b2 08 04
        E 6 b2 08 03
        E 6 b2 08 03
        E 6 b2 08 03
        E 6 b2 08 02
        E 6 b2 08 02
        E 6 b2 08 02
        E 6 b2 08 01
        E 6 b2 08 01
        E 6 b2 08 01
        E 6 b2 08 00
        E 6 b2 08 00
        E 6 b2 08 00
        E 6 b2 08 00
        E 6 b2 08 00
        E 6 b2 08 00
        E 6 b2 08 00
        E 6 b2 08 00
        E 6 b2 08 00
        E 6 b2 08 00
        E 6 b2 08 00
        E 6 b2 08 00
        E 6 b2 08 00
        E 6 b2 08 00
        E 6 b2 08 00
        E 6 b2 08 01
        E 6 b2 08 01
        E 6 b2 08 01
        E 6 b2 08 01
        E 6 b2 08 02
        E 6 b2 08 02
        E 6 b2 08 02
        E 6 b2 08 03
        E 6 b2 08 03
        E 6 b2 08 04
        E 6 b2 08 04
        E 6 b2 08 05
        E 6 b2 08 05
        E 6 b2 08 06
        E 6 b2 08 06
        E 6 b2 08 07
        E 6 b2 08 07
        E 6 b2 08 08
        E 6 b2 08 09
        E 6 b2 08 09
        E 6 b2 08 0a
        E 6 b2 08 0a
        E 6 b2 08 0b
        E 6 b2 08 0c
        E 6 b2 08 0c
        E 54 b2 08 19
        E 54 b2 08 1a
        E 54 b2 08 1c
        E 54 b2 08 1d
        E 54 b2 08 1e
        E 54 b2 08 1f
        E 54 b2 08 20
        E 54 b2 08 22
        E 54 b2 08 23
        E 54 b2 08 24
        E 54 b2 08 25
        E 54 b2 08 26
        E 54 b2 08 27
        E 54 b2 08 28
        E 54 b2 08 29
        E 54 b2 08 2a
        E 54 b2 08 2b
        E 54 b2 08 2c
        E 54 b2 08 2d
        E 54 b2 08 2e
        E 54 b2 08 2e
        E 54 b2 08 2f
        E 54 b2 08 30
        E 54 b2 08 30
        E 54 b2 08 30
        E 54 b2 08 31
        E 54 b2 08 31
        E 54 b2 08 32
        E 54 b2 08 32
        E 54 b2 08 32
        E 54 b2 08 32
        E 54 b2 08 32
        E 54 b2 08 32
        E 54 b2 08 32
        E 54 b2 08 32
        E 54 b2 08 32
        E 54 b2 08 32
        E 54 b2 08 32
        E 54 b2 08 31
        E 54 b2 08 31
        E 54 b2 08 30
        E 54 b2 08 30
        E 54 b2 08 2f
        E 54 b2 08 2e
        E 54 b2 08 2e
        E 54 b2 08 2d
        E 54 b2 08 2c
        E 54 b2 08 2c
        E 54 b2 08 2b
        E 54 b2 08 2a
        E 54 b2 08 29
        E 54 b2 08 28
        E 54 b2 08 27
        E 54 b2 08 26
        E 54 b2 08 24
        E 54 b2 08 23
        E 54 b2 08 22
        E 54 b2 08 21
        E 54 b2 08 20
        E 54 b2 08 1f
        E 54 b2 08 1d
        E 54 b2 08 1c
        E 54 b2 08 1b
        E 54 b2 08 1a
        E 54 b2 08 18
        E 54 b2 08 17
        E 54 b2 08 16
        E 54 b2 08 15
        E 54 b2 08 13
        E 54 b2 08 12
        E 54 b2 08 11
        E 54 b2 08 10
        E 54 b2 08 0f
        E 54 b2 08 0e
        E 54 b2 08 0c
        E 54 b2 08 0b
        E 54 b2 08 0a
        E 54 b2 08 09
        E 54 b2 08 08
        E 54 b2 08 07
        E 54 b2 08 06
        E 54 b2 08 06
        E 54 b2 08 05
        E 54 b2 08 04
        E 54 b2 08 04
        E 54 b2 08 03
        E 54 b2 08 02
        E 54 b2 08 02
        E 54 b2 08 01
        E 54 b2 08 01
        E 54 b2 08 00
        E 54 b2 08 00
        E 54 b2 08 00
        E 54 b2 08 00
        E 54 b2 08 00
        E 54 b2 08 00
        E 54 b2 08 00
        E 54 b2 08 00
        E 54 b2 08 00
        E 54 b2 08 00
        E 54 b2 08 00
        E 54 b2 08 01
        E 54 b2 08 01
        E 54 b2 08 02
        E 54 b2 08 02
        E 54 b2 08 02
        E 54 b2 08 03
        E 54 b2 08 04
        E 54 b2 08 04
        E 54 b2 08 05
        E 54 b2 08 06
        E 54 b2 08 07
        E 54 b2 08 08
        E 54 b2 08 09
        E 54 b2 08 0a
        E 54 b2 08 0b
        E 54 b2 08 0c
        E 54 b2 08 0d
        E 54 b2 08 0e
        E 54 b2 08 0f
        E 54 b2 08 10
        E 54 b2 08 12
        E 54 b2 08 13
        E 54 b2 08 14
        E 54 b2 08 15
        E 54 b2 08 16
        E 54 b2 08 18
        E 54 b2 08 19
        E 54 b2 08 06
        E 54 b2 08 06
        E 54 b2 08 07
        E 54 b2 08 07
        E 54 b2 08 07
        E 54 b2 08 07
        E 54 b2 08 08
        E 54 b2 08 08
        E 54 b2 08 08
        E 54 b2 08 09
        E 54 b2 08 09
        E 54 b2 08 09
        E 54 b2 08 09
        E 54 b2 08 0a
        E 54 b2 08 0a
        E 54 b2 08 0a
        E 54 b2 08 0a
        E 54 b2 08 0b
        E 54 b2 08 0b
        E 54 b2 08 0b
        E 54 b2 08 0b
        E 54 b2 08 0b
        E 54 b2 08 0c
        E 54 b2 08 0c
        E 54 b2 08 0c
        E 54 b2 08 0c
        E 54 b2 08 0c
        E 54 b2 08 0c
        E 54 b2 08 0c
        E 54 b2 08 0c
        E 54 b2 08 0c
        E 54 b2 08 0c
        E 54 b2 08 0c
        E 54 b2 08 0c
        E 54 b2 08 0c
        E 54 b2 08 0c
        E 54 b2 08 0c
        E 54 b2 08 0c
        E 54 b2 08 0c
        E 54 b2 08 0c
        E 54 b2 08 0c
        E 54 b2 08 0c
        E 54 b2 08 0b
        E 54 b2 08 0b
        E 54 b2 08 0b
        E 54 b2 08 0b
        E 54 b2 08 0b
        E 54 b2 08 0b
        E 54 b2 08 0a
        E 54 b2 08 0a
        E 54 b2 08 0a
        E 54 b2 08 0a
        E 54 b2 08 09
        E 54 b2 08 09
        E 54 b2 08 09
        E 54 b2 08 08
        E 54 b2 08 08
        E 54 b2 08 08
        E 54 b2 08 08
        E 54 b2 08 07
        E 54 b2 08 07
        E 54 b2 08 07
        E 54 b2 08 06
        E 54 b2 08 06
        E 54 b2 08 06
        E 54 b2 08 05
        E 54 b2 08 05
        E 54 b2 08 05
        E 54 b2 08 04
        E 54 b2 08 04
        E 54 b2 08 04
        E 54 b2 08 04
        E 54 b2 08 03
        E 54 b2 08 03
        E 54 b2 08 03
        E 54 b2 08 02
        E 54 b2 08 02
        E 54 b2 08 02
        E 54 b2 08 02
        E 54 b2 08 01
        E 54 b2 08 01
        E 54 b2 08 01
        E 54 b2 08 01
        E 54 b2 08 01
        E 54 b2 08 01
        E 54 b2 08 00
        E 54 b2 08 00
        E 54 b2 08 00
        E 54 b2 08 00
        E 54 b2 08 00
        E 54 b2 08 00
        E 54 b2 08 00
        E 54 b2 08 00
        E 54 b2 08 00
        E 54 b2 08 00
        E 54 b2 08 00
        E 54 b2 08 00
        E 54 b2 08 00
        E 54 b2 08 00
        E 54 b2 08 00
        E 54 b2 08 00
        E 54 b2 08 00
        E 54 b2 08 00
        E 54 b2 08 00
        E 54 b2 08 00
        E 54 b2 08 00
        E 54 b2 08 00
        E 54 b2 08 01
        E 54 b2 08 01
        E 54 b2 08 01
        E 54 b2 08 01
        E 54 b2 08 01
        E 54 b2 08 02
        E 54 b2 08 02
        E 54 b2 08 02
        E 54 b2 08 02
        E 54 b2 08 03
        E 54 b2 08 03
        E 54 b2 08 03
        E 54 b2 08 03
        E 54 b2 08 04
        E 54 b2 08 04
        E 54 b2 08 04
        E 54 b2 08 05
        E 54 b2 08 05
        E 54 b2 08 05
        E 54 b2 08 06
        E 54 b2 08 06
        E 54 b2 08 19
        E 54 b2 08 1a
        E 54 b2 08 1c
        E 54 b2 08 1d
        E 54 b2 08 1e
        E 54 b2 08 1f
        E 54 b2 08 20
        E 54 b2 08 22
        E 54 b2 08 23
        E 54 b2 08 24
        E 54 b2 08 25
        E 54 b2 08 26
        E 54 b2 08 27
        E 54 b2 08 28
        E 54 b2 08 29
        E 54 b2 08 2a
        E 54 b2 08 2b
        E 54 b2 08 2c
        E 54 b2 08 2d
        E 54 b2 08 2e
        E 54 b2 08 2e
        E 54 b2 08 2f
        E 54 b2 08 30
        E 54 b2 08 30
        E 54 b2 08 30
        E 54 b2 08 31
        E 54 b2 08 31
        E 54 b2 08 32
        E 54 b2 08 32
        E 54 b2 08 32
        E 54 b2 08 32
        E 54 b2 08 32
        E 54 b2 08 32
        E 54 b2 08 32
        E 54 b2 08 32
        E 54 b2 08 32
        E 54 b2 08 32
        E 54 b2 08 32
        E 54 b2 08 31
        E 54 b2 08 31
        E 54 b2 08 30
        E 54 b2 08 30
        E 54 b2 08 2f
        E 54 b2 08 2e
        E 54 b2 08 2e
        E 54 b2 08 2d
        E 54 b2 08 2c
        E 54 b2 08 2c
        E 54 b2 08 2b
        E 54 b2 08 2a
        E 54 b2 08 29
        E 54 b2 08 28
        E 54 b2 08 27
        E 54 b2 08 26
        E 54 b2 08 24
        E 54 b2 08 23
        E 54 b2 08 22
        E 54 b2 08 21
        E 54 b2 08 20
        E 54 b2 08 1f
        E 54 b2 08 1d
        E 54 b2 08 1c
        E 54 b2 08 1b
        E 54 b2 08 1a
        E 54 b2 08 18
        E 54 b2 08 17
        E 54 b2 08 16
        E 54 b2 08 15
        E 54 b2 08 13
        E 54 b2 08 12
        E 54 b2 08 11
        E 54 b2 08 10
        E 54 b2 08 0f
        E 54 b2 08 0e
        E 54 b2 08 0c
        E 54 b2 08 0b
        E 54 b2 08 0a
        E 54 b2 08 09
        E 54 b2 08 08
        E 54 b2 08 07
        E 54 b2 08 06
        E 54 b2 08 06
        E 54 b2 08 05
        E 54 b2 08 04
        E 54 b2 08 04
        E 54 b2 08 03
        E 54 b2 08 02
        E 54 b2 08 02
        E 54 b2 08 01
        E 54 b2 08 01
        E 54 b2 08 00
        E 54 b2 08 00
        E 54 b2 08 00
        E 54 b2 08 00
        E 54 b2 08 00
        E 54 b2 08 00
        E 54 b2 08 00
        E 54 b2 08 00
        E 54 b2 08 00
        E 54 b2 08 00
        E 54 b2 08 00
        E 54 b2 08 01
        E 54 b2 08 01
        E 54 b2 08 02
        E 54 b2 08 02
        E 54 b2 08 02
        E 54 b2 08 03
        E 54 b2 08 04
        E 54 b2 08 04
        E 54 b2 08 05
        E 54 b2 08 06
        E 54 b2 08 07
        E 54 b2 08 08
        E 54 b2 08 09
        E 54 b2 08 0a
        E 54 b2 08 0b
        E 54 b2 08 0c
        E 54 b2 08 0d
        E 54 b2 08 0e
        E 54 b2 08 0f
        E 54 b2 08 10
        E 54 b2 08 12
        E 54 b2 08 13
        E 54 b2 08 14
        E 54 b2 08 15
        E 54 b2 08 16
        E 54 b2 08 18
        E 54 b2 08 19
        E 13 b2 08 19
        E 13 b2 08 1a
        E 13 b2 08 1c
        E 13 b2 08 1d
        E 13 b2 08 1e
        E 13 b2 08 1f
        E 13 b2 08 20
        E 13 b2 08 22
        E 13 b2 08 23
        E 13 b2 08 24
        E 13 b2 08 25
        E 13 b2 08 26
        E 13 b2 08 27
        E 13 b2 08 28
        E 13 b2 08 29
        E 13 b2 08 2a
        E 13 b2 08 2b
        E 13 b2 08 2c
        E 13 b2 08 2d
        E 13 b2 08 2e
        E 13 b2 08 2e
        E 13 b2 08 2f
        E 13 b2 08 30
        E 13 b2 08 30
        E 13 b2 08 30
        E 13 b2 08 31
        E 13 b2 08 31
        E 13 b2 08 32
        E 13 b2 08 32
        E 13 b2 08 32
        E 13 b2 08 32
        E 13 b2 08 32
        E 13 b2 08 32
        E 13 b2 08 32
        E 13 b2 08 32
        E 13 b2 08 32
        E 13 b2 08 32
        E 13 b2 08 32
        E 13 b2 08 31
        E 13 b2 08 31
        E 13 b2 08 30
        E 13 b2 08 30
        E 13 b2 08 2f
        E 13 b2 08 2e
        E 13 b2 08 2e
        E 13 b2 08 2d
        E 13 b2 08 2c
        E 13 b2 08 2c
        E 13 b2 08 2b
        E 13 b2 08 2a
        E 13 b2 08 29
        E 13 b2 08 28
        E 13 b2 08 27
        E 13 b2 08 26
        E 13 b2 08 24
        E 13 b2 08 23
        E 13 b2 08 22
        E 13 b2 08 21
        E 13 b2 08 20
        E 13 b2 08 1f
        E 13 b2 08 1d
        E 13 b2 08 1c
        E 13 b2 08 1b
        E 13 b2 08 1a
        E 13 b2 08 18
        E 13 b2 08 17
        E 13 b2 08 16
        E 13 b2 08 15
        E 13 b2 08 13
        E 13 b2 08 12
        E 13 b2 08 11
        E 13 b2 08 10
        E 13 b2 08 0f
        E 13 b2 08 0e
        E 13 b2 08 0c
        E 13 b2 08 0b
        E 13 b2 08 0a
        E 13 b2 08 09
        E 13 b2 08 08
        E 13 b2 08 07
        E 13 b2 08 06
        E 13 b2 08 06
        E 13 b2 08 05
        E 13 b2 08 04
        E 13 b2 08 04
        E 13 b2 08 03
        E 13 b2 08 02
        E 13 b2 08 02
        E 13 b2 08 01
        E 13 b2 08 01
        E 13 b2 08 00
        E 13 b2 08 00
        E 13 b2 08 00
        E 13 b2 08 00
        E 13 b2 08 00
        E 13 b2 08 00
        E 13 b2 08 00
        E 13 b2 08 00
        E 13 b2 08 00
        E 13 b2 08 00
        E 13 b2 08 00
        E 13 b2 08 01
        E 13 b2 08 01
        E 13 b2 08 02
        E 13 b2 08 02
        E 13 b2 08 02
        E 13 b2 08 03
        E 13 b2 08 04
        E 13 b2 08 04
        E 13 b2 08 05
        E 13 b2 08 06
        E 13 b2 08 07
        E 13 b2 08 08
        E 13 b2 08 09
        E 13 b2 08 0a
        E 13 b2 08 0b
        E 13 b2 08 0c
        E 13 b2 08 0d
        E 13 b2 08 0e
        E 13 b2 08 0f
        E 13 b2 08 10
        E 13 b2 08 12
        E 13 b2 08 13
        E 13 b2 08 14
        E 13 b2 08 15
        E 13 b2 08 16
        E 13 b2 08 18
        E 13 b2 08 19
        E 61 b2 08 06
        E 61 b2 08 06
        E 61 b2 08 07
        E 61 b2 08 07
        E 61 b2 08 07
        E 61 b2 08 07
        E 61 b2 08 08
        E 61 b2 08 08
        E 61 b2 08 08
        E 61 b2 08 09
        E 61 b2 08 09
        E 61 b2 08 09
        E 61 b2 08 09
        E 61 b2 08 0a
        E 61 b2 08 0a
        E 61 b2 08 0a
        E 61 b2 08 0a
        E 61 b2 08 0b
        E 61 b2 08 0b
        E 61 b2 08 0b
        E 61 b2 08 0b
        E 61 b2 08 0b
        E 61 b2 08 0c
        E 61 b2 08 0c
        E 61 b2 08 0c
        E 61 b2 08 0c
        E 61 b2 08 0c
        E 61 b2 08 0c
        E 61 b2 08 0c
        E 61 b2 08 0c
        E 61 b2 08 0c
        E 61 b2 08 0c
        E 61 b2 08 0c
        E 61 b2 08 0c
        E 61 b2 08 0c
        E 61 b2 08 0c
        E 61 b2 08 0c
        E 61 b2 08 0c
        E 61 b2 08 0c
        E 61 b2 08 0c
        E 61 b2 08 0c
        E 61 b2 08 0c
        E 61 b2 08 0b
        E 61 b2 08 0b
        E 61 b2 08 0b
        E 61 b2 08 0b
        E 61 b2 08 0b
        E 61 b2 08 0b
        E 61 b2 08 0a
        E 61 b2 08 0a
        E 61 b2 08 0a
        E 61 b2 08 0a
        E 61 b2 08 09
        E 61 b2 08 09
        E 61 b2 08 09
        E 61 b2 08 08
        E 61 b2 08 08
        E 61 b2 08 08
        E 61 b2 08 08
        E 61 b2 08 07
        E 61 b2 08 07
        E 61 b2 08 07
        E 61 b2 08 06
        E 61 b2 08 06
        E 61 b2 08 06
        E 61 b2 08 05
        E 61 b2 08 05
        E 61 b2 08 05
        E 61 b2 08 04
        E 61 b2 08 04
        E 61 b2 08 04
        E 61 b2 08 04
        E 61 b2 08 03
        E 61 b2 08 03
        E 61 b2 08 03
        E 61 b2 08 02
        E 61 b2 08 02
        E 61 b2 08 02
        E 61 b2 08 02
        E 61 b2 08 01
        E 61 b2 08 01
        E 61 b2 08 01
        E 61 b2 08 01
        E 61 b2 08 01
        E 61 b2 08 01
        E 61 b2 08 00
        E 61 b2 08 00
        E 61 b2 08 00
        E 61 b2 08 00
        E 61 b2 08 00
        E 61 b2 08 00
        E 61 b2 08 00
        E 61 b2 08 00
        E 61 b2 08 00
        E 61 b2 08 00
        E 61 b2 08 00
        E 61 b2 08 00
        E 61 b2 08 00
        E 61 b2 08 00
        E 61 b2 08 00
        E 61 b2 08 00
        E 61 b2 08 00
        E 61 b2 08 00
        E 61 b2 08 00
        E 61 b2 08 00
        E 61 b2 08 00
        E 61 b2 08 00
        E 61 b2 08 01
        E 61 b2 08 01
        E 61 b2 08 01
        E 61 b2 08 01
        E 61 b2 08 01
        E 61 b2 08 02
        E 61 b2 08 02
        E 61 b2 08 02
        E 61 b2 08 02
        E 61 b2 08 03
        E 61 b2 08 03
        E 61 b2 08 03
        E 61 b2 08 03
        E 61 b2 08 04
        E 61 b2 08 04
        E 61 b2 08 04
        E 61 b2 08 05
        E 61 b2 08 05
        E 61 b2 08 05
        E 61 b2 08 06
        E 61 b2 08 06
        E 6 b2 08 0c
        E 6 b2 08 0d
        E 6 b2 08 0e
        E 6 b2 08 0e
        E 6 b2 08 0f
        E 6 b2 08 0f
        E 6 b2 08 10
        E 6 b2 08 11
        E 6 b2 08 11
        E 6 b2 08 12
        E 6 b2 08 12
        E 6 b2 08 13
        E 6 b2 08 13
        E 6 b2 08 14
        E 6 b2 08 14
        E 6 b2 08 15
        E 6 b2 08 15
        E 6 b2 08 16
        E 6 b2 08 16
        E 6 b2 08 17
        E 6 b2 08 17
        E 6 b2 08 17
        E 6 b2 08 18
        E 6 b2 08 18
        E 6 b2 08 18
        E 6 b2 08 18
        E 6 b2 08 18
        E 6 b2 08 19
        E 6 b2 08 19
        E 6 b2 08 19
        E 6 b2 08 19
        E 6 b2 08 19
        E 6 b2 08 19
        E 6 b2 08 19
        E 6 b2 08 19
        E 6 b2 08 19
        E 6 b2 08 19
        E 6 b2 08 19
        E 6 b2 08 18
        E 6 b2 08 18
        E 6 b2 08 18
        E 6 b2 08 18
        E 6 b2 08 17
        E 6 b2 08 17
        E 6 b2 08 17
        E 6 b2 08 16
        E 6 b2 08 16
        E 6 b2 08 16
        E 6 b2 08 15
        E 6 b2 08 15
        E 6 b2 08 14
        E 6 b2 08 14
        E 6 b2 08 13
        E 6 b2 08 13
        E 6 b2 08 12
        E 6 b2 08 11
        E 6 b2 08 11
        E 6 b2 08 10
        E 6 b2 08 10
        E 6 b2 08 0f
        E 6 b2 08 0e
        E 6 b2 08 0e
        E 6 b2 08 0d
        E 6 b2 08 0d
        E 6 b2 08 0c
        E 6 b2 08 0b
        E 6 b2 08 0b
        E 6 b2 08 0a
        E 6 b2 08 09
        E 6 b2 08 09
        E 6 b2 08 08
        E 6 b2 08 08
        E 6 b2 08 07
        E 6 b2 08 07
        E 6 b2 08 06
        E 6 b2 08 05
        E 6 b2 08 05
        E 6 b2 08 04
        E 6 b2 08 04
        E 6 b2 08 03
        E 6 b2 08 03
        E 6 b2 08 03
        E 6 b2 08 02
        E 6 b2 08 02
        E 6 b2 08 02
        E 6 b2 08 01
        E 6 b2 08 01
        E 6 b2 08 01
        E 6 b2 08 00
        E 6 b2 08 00
        E 6 b2 08 00
        E 6 b2 08 00
        E 6 b2 08 00
        E 6 b2 08 00
        E 6 b2 08 00
        E 6 b2 08 00
        E 6 b2 08 00
        E 6 b2 08 00
        E 6 b2 08 00
        E 6 b2 08 00
        E 6 b2 08 00
        E 6 b2 08 00
        E 6 b2 08 00
        E 6 b2 08 01
        E 6 b2 08 01
        E 6 b2 08 01
        E 6 b2 08 01
        E 6 b2 08 02
        E 6 b2 08 02
        E 6 b2 08 02
        E 6 b2 08 03
        E 6 b2 08 03
        E 6 b2 08 04
        E 6 b2 08 04
        E 6 b2 08 05
        E 6 b2 08 05
        E 6 b2 08 06
        E 6 b2 08 06
        E 6 b2 08 07
        E 6 b2 08 07
        E 6 b2 08 08
        E 6 b2 08 09
        E 6 b2 08 09
        E 6 b2 08 0a
        E 6 b2 08 0a
        E 6 b2 08 0b
        E 6 b2 08 0c
        E 6 b2 08 0c
        E 11 b2 08 0b
        E 11 b2 08 26
        E 11 b2 08 19
        E 11 b2 08 04
        E 11 b2 08 24
        E 11 b2 08 20
        E 11 b2 08 04
        E 11 b2 08 04
        E 11 b2 08 18
        E 11 b2 08 30
        E 11 b2 08 28
        E 11 b2 08 2c
        E 11 b2 08 1f
        E 11 b2 08 05
        E 11 b2 08 09
        E 11 b2 08 22
        E 11 b2 08 1c
        E 11 b2 08 0e
        E 11 b2 08 0a
        E 11 b2 08 0d
        E 11 b2 08 27
        E 11 b2 08 17
        E 11 b2 08 0c
        E 11 b2 08 1d
        E 11 b2 08 32
        E 11 b2 08 00
        E 11 b2 08 06
        E 11 b2 08 14
        E 11 b2 08 11
        E 11 b2 08 29
        E 11 b2 08 0a
        E 11 b2 08 03
        E 11 b2 08 08
        E 11 b2 08 08
        E 11 b2 08 2e
        E 11 b2 08 0c
        E 11 b2 08 00
        E 11 b2 08 25
        E 11 b2 08 11
        E 11 b2 08 0a
        E 11 b2 08 14
        E 11 b2 08 0d
        E 11 b2 08 2b
        E 11 b2 08 2a
        E 11 b2 08 32
        E 11 b2 08 2a
        E 11 b2 08 16
        E 11 b2 08 2f
        E 11 b2 08 24
        E 11 b2 08 06
        E 11 b2 08 16
        E 11 b2 08 1b
        E 11 b2 08 30
        E 11 b2 08 26
        E 11 b2 08 1b
        E 11 b2 08 1c
        E 11 b2 08 02
        E 11 b2 08 05
        E 11 b2 08 2e
        E 11 b2 08 28
        E 11 b2 08 15
        E 11 b2 08 10
        E 11 b2 08 06
        E 11 b2 08 16
        E 11 b2 08 0f
        E 11 b2 08 0c
        E 11 b2 08 13
        E 11 b2 08 1a
        E 11 b2 08 1e
        E 11 b2 08 20
        E 11 b2 08 08
        E 11 b2 08 1e
        E 11 b2 08 2d
        E 11 b2 08 1a
        E 11 b2 08 1d
        E 11 b2 08 01
        E 11 b2 08 03
        E 11 b2 08 32
        E 11 b2 08 21
        E 11 b2 08 09
        E 11 b2 08 2e
        E 11 b2 08 10
        E 11 b2 08 13
        E 11 b2 08 18
        E 11 b2 08 14
        E 11 b2 08 22
        E 11 b2 08 29
        E 11 b2 08 0e
        E 11 b2 08 1c
        E 11 b2 08 0b
        E 11 b2 08 2d
        E 11 b2 08 2a
        E 11 b2 08 17
        E 11 b2 08 12
        E 11 b2 08 28
        E 11 b2 08 12
        E 11 b2 08 23
        E 11 b2 08 07
        E 11 b2 08 00
        E 11 b2 08 10
        E 11 b2 08 19
        E 11 b2 08 2b
        E 11 b2 08 27
        E 11 b2 08 01
        E 11 b2 08 2c
        E 11 b2 08 25
        E 11 b2 08 02
        E 11 b2 08 0f
        E 11 b2 08 1e
        E 11 b2 08 26
        E 11 b2 08 30
        E 11 b2 08 1f
        E 11 b2 08 15
        E 11 b2 08 0e
        E 11 b2 08 23
        E 11 b2 08 24
        E 11 b2 08 2c
        E 11 b2 08 31
        E 11 b2 08 18
        E 11 b2 08 20
        E 11 b2 08 22
        E 11 b2 08 1a
        E 11 b2 08 2f
        E 11 b2 08 07
        E 11 b2 08 12
        E 11 b2 08 21
        E 3 b2 08 0b
        E 3 b2 08 26
        E 3 b2 08 19
        E 3 b2 08 04
        E 3 b2 08 24
        E 3 b2 08 20
        E 3 b2 08 04
        E 3 b2 08 04
        E 3 b2 08 18
        E 3 b2 08 30
        E 3 b2 08 28
        E 3 b2 08 2c
        E 3 b2 08 1f
        E 3 b2 08 05
        E 3 b2 08 09
        E 3 b2 08 22
        E 3 b2 08 1c
        E 3 b2 08 0e
        E 3 b2 08 0a
        E 3 b2 08 0d
        E 3 b2 08 27
        E 3 b2 08 17
        E 3 b2 08 0c
        E 3 b2 08 1d
        E 3 b2 08 32
        E 3 b2 08 00
        E 3 b2 08 06
        E 3 b2 08 14
        E 3 b2 08 11
        E 3 b2 08 29
        E 3 b2 08 0a
        E 3 b2 08 03
        E 3 b2 08 08
        E 3 b2 08 08
        E 3 b2 08 2e
        E 3 b2 08 0c
        E 3 b2 08 00
        E 3 b2 08 25
        E 3 b2 08 11
        E 3 b2 08 0a
        E 3 b2 08 14
        E 3 b2 08 0d
        E 3 b2 08 2b
        E 3 b2 08 2a
        E 3 b2 08 32
        E 3 b2 08 2a
        E 3 b2 08 16
        E 3 b2 08 2f
        E 3 b2 08 24
        E 3 b2 08 06
        E 3 b2 08 16
        E 3 b2 08 1b
        E 3 b2 08 30
        E 3 b2 08 26
        E 3 b2 08 1b
        E 3 b2 08 1c
        E 3 b2 08 02
        E 3 b2 08 05
        E 3 b2 08 2e
        E 3 b2 08 28
        E 3 b2 08 15
        E 3 b2 08 10
        E 3 b2 08 06
        E 3 b2 08 16
        E 3 b2 08 0f
        E 3 b2 08 0c
        E 3 b2 08 13
        E 3 b2 08 1a
        E 3 b2 08 1e
        E 3 b2 08 20
        E 3 b2 08 08
        E 3 b2 08 1e
        E 3 b2 08 2d
        E 3 b2 08 1a
        E 3 b2 08 1d
        E 3 b2 08 01
        E 3 b2 08 03
        E 3 b2 08 32
        E 3 b2 08 21
        E 3 b2 08 09
        E 3 b2 08 2e
        E 3 b2 08 10
        E 3 b2 08 13
        E 3 b2 08 18
        E 3 b2 08 14
        E 3 b2 08 22
        E 3 b2 08 29
        E 3 b2 08 0e
        E 3 b2 08 1c
        E 3 b2 08 0b
        E 3 b2 08 2d
        E 3 b2 08 2a
        E 3 b2 08 17
        E 3 b2 08 12
        E 3 b2 08 28
        E 3 b2 08 12
        E 3 b2 08 23
        E 3 b2 08 07
        E 3 b2 08 00
        E 3 b2 08 10
        E 3 b2 08 19
        E 3 b2 08 2b
        E 3 b2 08 27
        E 3 b2 08 01
        E 3 b2 08 2c
        E 3 b2 08 25
        E 3 b2 08 02
        E 3 b2 08 0f
        E 3 b2 08 1e
        E 3 b2 08 26
        E 3 b2 08 30
        E 3 b2 08 1f
        E 3 b2 08 15
        E 3 b2 08 0e
        E 3 b2 08 23
        E 3 b2 08 24
        E 3 b2 08 2c
        E 3 b2 08 31
        E 3 b2 08 18
        E 3 b2 08 20
        E 3 b2 08 22
        E 3 b2 08 1a
        E 3 b2 08 2f
        E 3 b2 08 07
        E 3 b2 08 12
        E 3 b2 08 21
        E 58 b0 7b 00
        CCINTERP 32
        CHASE_CC_TAKEOFFS 1
        GUID {6471124C-99BC-5441-8A85-7CD098487572}
        IGNTEMPO 0 120 4 4
        SRCCOLOR 254
        VELLANE 3 601 0
        VELLANE -1 196 0
      >
    >
  >
  <TRACK {43D11472-32DE-4D43-B09C-C464CF9EC0C4}
    NAME "mission brand tortilla strips"
    PEAKCOL 16576
    BEAT -1
    AUTOMODE 0
    VOLPAN 1 0 -1 -1 1
    MUTESOLO 0 0 0
    IPHASE 0
    PLAYOFFS 0 1
    ISBUS 0 0
    BUSCOMP 0 0 0 0 0
    SHOWINMIX 1 0.6667 0.5 1 0.5 0 -1 0
    FREEMODE 0
    SEL 0
    REC 0 0 1 0 0 0 0
    VU 2
    TRACKHEIGHT 0 1 0 0 -1 0
    INQ 0 0 0 0.5 100 0 0 100
    NCHAN 2
    FX 1
    TRACKID {43D11472-32DE-4D43-B09C-C464CF9EC0C4}
    PERF 0
    MIDIOUT -1
    MAINSEND 1 0
    <ITEM
      POSITION 0
      SNAPOFFS 0
      LENGTH 164.464198
      LOOP 1
      ALLTAKES 0
      FADEIN 1 0 0 1 0 0
      FADEOUT 1 0 0 1 0 0
      MUTE 0 0
      SEL 0
      IGUID {9253D225-EA4F-4447-9EB0-3CB4053824BF}
      IID 16
      NAME "mission brand tortilla strips.mid"
      VOLPAN 1 0 1 -1
      SOFFS 0 0
      PLAYRATE 1 1 0 -1 0 0.0025
      CHANMODE 0
      GUID {57745059-1AC9-2148-AB3B-44D1D57413D7}
      <SOURCE MIDI
        HASDATA 1 128 QN
        CCINTERP 32
        POOLEDEVTS {4B4A4C58-1ECA-7F40-B1B6-579832096F43}
        E 6 b3 04 00
        E 6 b3 04 00
        E 6 b3 04 00
        E 6 b3 04 00
        E 6 b3 04 01
        E 6 b3 04 01
        E 6 b3 04 01
        E 6 b3 04 01
        E 6 b3 04 01
        E 6 b3 04 02
        E 6 b3 04 02
        E 6 b3 04 02
        E 6 b3 04 02
        E 6 b3 04 02
        E 6 b3 04 03
        E 6 b3 04 03
        E 6 b3 04 03
        E 6 b3 04 03
        E 6 b3 04 03
        E 6 b3 04 04
        E 6 b3 04 04
        E 6 b3 04 04
        E 6 b3 04 04
        E 6 b3 04 04
        E 6 b3 04 05
        E 6 b3 04 05
        E 6 b3 04 05
        E 6 b3 04 05
        E 6 b3 04 05
        E 6 b3 04 06
        E 6 b3 04 06
        E 6 b3 04 06
        E 6 b3 04 06
        E 6 b3 04 06
        E 6 b3 04 07
        E 6 b3 04 07
        E 6 b3 04 07
        E 6 b3 04 07
        E 6 b3 04 07
        E 6 b3 04 08
        E 6 b3 04 08
        E 6 b3 04 08
        E 6 b3 04 08
        E 6 b3 04 08
        E 6 b3 04 09
        E 6 b3 04 09
        E 6 b3 04 09
        E 6 b3 04 09
        E 6 b3 04 09
        E 6 b3 04 0a
        E 6 b3 04 0a
        E 6 b3 04 0a
        E 6 b3 04 0a
        E 6 b3 04 0a
        E 6 b3 04 0b
        E 6 b3 04 0b
        E 6 b3 04 0b
        E 6 b3 04 0b
        E 6 b3 04 0b
        E 6 b3 04 0c
        E 6 b3 04 0c
        E 6 b3 04 0c
        E 6 b3 04 0c
        E 6 b3 04 0c
        E 6 b3 04 0c
        E 6 b3 04 0c
        E 6 b3 04 0c
        E 6 b3 04 0c
        E 6 b3 04 0b
        E 6 b3 04 0b
        E 6 b3 04 0b
        E 6 b3 04 0b
        E 6 b3 04 0b
        E 6 b3 04 0a
        E 6 b3 04 0a
        E 6 b3 04 0a
        E 6 b3 04 0a
        E 6 b3 04 0a
        E 6 b3 04 09
        E 6 b3 04 09
        E 6 b3 04 09
        E 6 b3 04 09
        E 6 b3 04 09
        E 6 b3 04 08
        E 6 b3 04 08
        E 6 b3 04 08
        E 6 b3 04 08
        E 6 b3 04 08
        E 6 b3 04 07
        E 6 b3 04 07
        E 6 b3 04 07
        E 6 b3 04 07
        E 6 b3 04 07
        E 6 b3 04 06
        E 6 b3 04 06
        E 6 b3 04 06
        E 6 b3 04 06
        E 6 b3 04 06
        E 6 b3 04 05
        E 6 b3 04 05
        E 6 b3 04 05
        E 6 b3 04 05
        E 6 b3 04 05
        E 6 b3 04 04
        E 6 b3 04 04
        E 6 b3 04 04
        E 6 b3 04 04
        E 6 b3 04 04
        E 6 b3 04 03
        E 6 b3 04 03
        E 6 b3 04 03
        E 6 b3 04 03
        E 6 b3 04 03
        E 6 b3 04 02
        E 6 b3 04 02
        E 6 b3 04 02
        E 6 b3 04 02
        E 6 b3 04 02
        E 6 b3 04 01
        E 6 b3 04 01
        E 6 b3 04 01
        E 6 b3 04 01
        E 6 b3 04 01
        E 6 b3 04 00
        E 6 b3 04 00
        E 6 b3 04 00
        E 6 b3 04 00
        E 6 b3 04 00
        E 1 b3 04 01
        E 1 b3 04 03
        E 1 b3 04 04
        E 1 b3 04 06
        E 1 b3 04 07
        E 1 b3 04 09
        E 1 b3 04 0b
        E 1 b3 04 0c
        E 1 b3 04 0e
        E 1 b3 04 0f
        E 1 b3 04 11
        E 1 b3 04 13
        E 1 b3 04 14
        E 1 b3 04 16
        E 1 b3 04 17
        E 1 b3 04 19
        E 1 b3 04 1b
        E 1 b3 04 1c
        E 1 b3 04 1e
        E 1 b3 04 1f
        E 1 b3 04 21
        E 1 b3 04 23
        E 1 b3 04 24
        E 1 b3 04 26
        E 1 b3 04 28
        E 1 b3 04 29
        E 1 b3 04 2b
        E 1 b3 04 2c
        E 1 b3 04 2e
        E 1 b3 04 2f
        E 1 b3 04 31
        E 1 b3 04 33
        E 1 b3 04 34
        E 1 b3 04 36
        E 1 b3 04 37
        E 1 b3 04 39
        E 1 b3 04 3b
        E 1 b3 04 3c
        E 1 b3 04 3e
        E 1 b3 04 3f
        E 1 b3 04 41
        E 1 b3 04 43
        E 1 b3 04 44
        E 1 b3 04 46
        E 1 b3 04 48
        E 1 b3 04 49
        E 1 b3 04 4b
        E 1 b3 04 4c
        E 1 b3 04 4e
        E 1 b3 04 50
        E 1 b3 04 51
        E 1 b3 04 53
        E 1 b3 04 54
        E 1 b3 04 56
        E 1 b3 04 57
        E 1 b3 04 59
        E 1 b3 04 5b
        E 1 b3 04 5c
        E 1 b3 04 5e
        E 1 b3 04 5f
        E 1 b3 04 61
        E 1 b3 04 63
        E 1 b3 04 64
        E 1 b3 04 65
        E 1 b3 04 64
        E 1 b3 04 63
        E 1 b3 04 61
        E 1 b3 04 5f
        E 1 b3 04 5e
        E 1 b3 04 5c
        E 1 b3 04 5b
        E 1 b3 04 59
        E 1 b3 04 57
        E 1 b3 04 56
        E 1 b3 04 54
        E 1 b3 04 53
        E 1 b3 04 51
        E 1 b3 04 50
        E 1 b3 04 4e
        E 1 b3 04 4c
        E 1 b3 04 4b
        E 1 b3 04 49
        E 1 b3 04 48
        E 1 b3 04 46
        E 1 b3 04 44
        E 1 b3 04 43
        E 1 b3 04 41
        E 1 b3 04 3f
        E 1 b3 04 3e
        E 1 b3 04 3c
        E 1 b3 04 3b
        E 1 b3 04 39
        E 1 b3 04 37
        E 1 b3 04 36
        E 1 b3 04 34
        E 1 b3 04 33
        E 1 b3 04 31
        E 1 b3 04 2f
        E 1 b3 04 2e
        E 1 b3 04 2c
        E 1 b3 04 2b
        E 1 b3 04 29
        E 1 b3 04 28
        E 1 b3 04 26
        E 1 b3 04 24
        E 1 b3 04 23
        E 1 b3 04 21
        E 1 b3 04 1f
        E 1 b3 04 1e
        E 1 b3 04 1c
        E 1 b3 04 1b
        E 1 b3 04 19
        E 1 b3 04 17
        E 1 b3 04 16
        E 1 b3 04 14
        E 1 b3 04 13
        E 1 b3 04 11
        E 1 b3 04 0f
        E 1 b3 04 0e
        E 1 b3 04 0c
        E 1 b3 04 0b
        E 1 b3 04 09
        E 1 b3 04 07
        E 1 b3 04 06
        E 1 b3 04 04
        E 1 b3 04 03
        E 1 b3 04 01
        E 1 b3 04 00
        E 6 b3 04 01
        E 6 b3 04 03
        E 6 b3 04 04
        E 6 b3 04 06
        E 6 b3 04 07
        E 6 b3 04 09
        E 6 b3 04 0b
        E 6 b3 04 0c
        E 6 b3 04 0e
        E 6 b3 04 0f
        E 6 b3 04 11
        E 6 b3 04 13
        E 6 b3 04 14
        E 6 b3 04 16
        E 6 b3 04 17
        E 6 b3 04 19
        E 6 b3 04 1b
        E 6 b3 04 1c
        E 6 b3 04 1e
        E 6 b3 04 1f
        E 6 b3 04 21
        E 6 b3 04 23
        E 6 b3 04 24
        E 6 b3 04 26
        E 6 b3 04 28
        E 6 b3 04 29
        E 6 b3 04 2b
        E 6 b3 04 2c
        E 6 b3 04 2e
        E 6 b3 04 2f
        E 6 b3 04 31
        E 6 b3 04 33
        E 6 b3 04 34
        E 6 b3 04 36
        E 6 b3 04 37
        E 6 b3 04 39
        E 6 b3 04 3b
        E 6 b3 04 3c
        E 6 b3 04 3e
        E 6 b3 04 3f
        E 6 b3 04 41
        E 6 b3 04 43
        E 6 b3 04 44
        E 6 b3 04 46
        E 6 b3 04 48
        E 6 b3 04 49
        E 6 b3 04 4b
        E 6 b3 04 4c
        E 6 b3 04 4e
        E 6 b3 04 50
        E 6 b3 04 51
        E 6 b3 04 53
        E 6 b3 04 54
        E 6 b3 04 56
        E 6 b3 04 57
        E 6 b3 04 59
        E 6 b3 04 5b
        E 6 b3 04 5c
        E 6 b3 04 5e
        E 6 b3 04 5f
        E 6 b3 04 61
        E 6 b3 04 63
        E 6 b3 04 64
        E 6 b3 04 65
        E 6 b3 04 64
        E 6 b3 04 63
        E 6 b3 04 61
        E 6 b3 04 5f
        E 6 b3 04 5e
        E 6 b3 04 5c
        E 6 b3 04 5b
        E 6 b3 04 59
        E 6 b3 04 57
        E 6 b3 04 56
        E 6 b3 04 54
        E 6 b3 04 53
        E 6 b3 04 51
        E 6 b3 04 50
        E 6 b3 04 4e
        E 6 b3 04 4c
        E 6 b3 04 4b
        E 6 b3 04 49
        E 6 b3 04 48
        E 6 b3 04 46
        E 6 b3 04 44
        E 6 b3 04 43
        E 6 b3 04 41
        E 6 b3 04 3f
        E 6 b3 04 3e
        E 6 b3 04 3c
        E 6 b3 04 3b
        E 6 b3 04 39
        E 6 b3 04 37
        E 6 b3 04 36
        E 6 b3 04 34
        E 6 b3 04 33
        E 6 b3 04 31
        E 6 b3 04 2f
        E 6 b3 04 2e
        E 6 b3 04 2c
        E 6 b3 04 2b
        E 6 b3 04 29
        E 6 b3 04 28
        E 6 b3 04 26
        E 6 b3 04 24
        E 6 b3 04 23
        E 6 b3 04 21
        E 6 b3 04 1f
        E 6 b3 04 1e
        E 6 b3 04 1c
        E 6 b3 04 1b
        E 6 b3 04 19
        E 6 b3 04 17
        E 6 b3 04 16
        E 6 b3 04 14
        E 6 b3 04 13
        E 6 b3 04 11
        E 6 b3 04 0f
        E 6 b3 04 0e
        E 6 b3 04 0c
        E 6 b3 04 0b
        E 6 b3 04 09
        E 6 b3 04 07
        E 6 b3 04 06
        E 6 b3 04 04
        E 6 b3 04 03
        E 6 b3 04 01
        E 6 b3 04 00
        E 6 b3 04 01
        E 6 b3 04 03
        E 6 b3 04 04
        E 6 b3 04 06
        E 6 b3 04 07
        E 6 b3 04 09
        E 6 b3 04 0b
        E 6 b3 04 0c
        E 6 b3 04 0e
        E 6 b3 04 0f
        E 6 b3 04 11
        E 6 b3 04 13
        E 6 b3 04 14
        E 6 b3 04 16
        E 6 b3 04 17
        E 6 b3 04 19
        E 6 b3 04 1b
        E 6 b3 04 1c
        E 6 b3 04 1e
        E 6 b3 04 1f
        E 6 b3 04 21
        E 6 b3 04 23
        E 6 b3 04 24
        E 6 b3 04 26
        E 6 b3 04 28
        E 6 b3 04 29
        E 6 b3 04 2b
        E 6 b3 04 2c
        E 6 b3 04 2e
        E 6 b3 04 2f
        E 6 b3 04 31
        E 6 b3 04 33
        E 6 b3 04 34
        E 6 b3 04 36
        E 6 b3 04 37
        E 6 b3 04 39
        E 6 b3 04 3b
        E 6 b3 04 3c
        E 6 b3 04 3e
        E 6 b3 04 3f
        E 6 b3 04 41
        E 6 b3 04 43
        E 6 b3 04 44
        E 6 b3 04 46
        E 6 b3 04 48
        E 6 b3 04 49
        E 6 b3 04 4b
        E 6 b3 04 4c
        E 6 b3 04 4e
        E 6 b3 04 50
        E 6 b3 04 51
        E 6 b3 04 53
        E 6 b3 04 54
        E 6 b3 04 56
        E 6 b3 04 57
        E 6 b3 04 59
        E 6 b3 04 5b
        E 6 b3 04 5c
        E 6 b3 04 5e
        E 6 b3 04 5f
        E 6 b3 04 61
        E 6 b3 04 63
        E 6 b3 04 64
        E 6 b3 04 65
        E 6 b3 04 64
        E 6 b3 04 63
        E 6 b3 04 61
        E 6 b3 04 5f
        E 6 b3 04 5e
        E 6 b3 04 5c
        E 6 b3 04 5b
        E 6 b3 04 59
        E 6 b3 04 57
        E 6 b3 04 56
        E 6 b3 04 54
        E 6 b3 04 53
        E 6 b3 04 51
        E 6 b3 04 50
        E 6 b3 04 4e
        E 6 b3 04 4c
        E 6 b3 04 4b
        E 6 b3 04 49
        E 6 b3 04 48
        E 6 b3 04 46
        E 6 b3 04 44
        E 6 b3 04 43
        E 6 b3 04 41
        E 6 b3 04 3f
        E 6 b3 04 3e
        E 6 b3 04 3c
        E 6 b3 04 3b
        E 6 b3 04 39
        E 6 b3 04 37
        E 6 b3 04 36
        E 6 b3 04 34
        E 6 b3 04 33
        E 6 b3 04 31
        E 6 b3 04 2f
        E 6 b3 04 2e
        E 6 b3 04 2c
        E 6 b3 04 2b
        E 6 b3 04 29
        E 6 b3 04 28
        E 6 b3 04 26
        E 6 b3 04 24
        E 6 b3 04 23
        E 6 b3 04 21
        E 6 b3 04 1f
        E 6 b3 04 1e
        E 6 b3 04 1c
        E 6 b3 04 1b
        E 6 b3 04 19
        E 6 b3 04 17
        E 6 b3 04 16
        E 6 b3 04 14
        E 6 b3 04 13
        E 6 b3 04 11
        E 6 b3 04 0f
        E 6 b3 04 0e
        E 6 b3 04 0c
        E 6 b3 04 0b
        E 6 b3 04 09
        E 6 b3 04 07
        E 6 b3 04 06
        E 6 b3 04 04
        E 6 b3 04 03
        E 6 b3 04 01
        E 6 b3 04 00
        E 1 b3 04 00
        E 1 b3 04 00
        E 1 b3 04 01
        E 1 b3 04 01
        E 1 b3 04 02
        E 1 b3 04 02
        E 1 b3 04 02
        E 1 b3 04 03
        E 1 b3 04 03
        E 1 b3 04 04
        E 1 b3 04 04
        E 1 b3 04 04
        E 1 b3 04 05
        E 1 b3 04 05
        E 1 b3 04 06
        E 1 b3 04 06
        E 1 b3 04 06
        E 1 b3 04 07
        E 1 b3 04 07
        E 1 b3 04 08
        E 1 b3 04 08
        E 1 b3 04 08
        E 1 b3 04 09
        E 1 b3 04 09
        E 1 b3 04 0a
        E 1 b3 04 0a
        E 1 b3 04 0a
        E 1 b3 04 0b
        E 1 b3 04 0b
        E 1 b3 04 0c
        E 1 b3 04 0c
        E 1 b3 04 0c
        E 1 b3 04 0d
        E 1 b3 04 0d
        E 1 b3 04 0e
        E 1 b3 04 0e
        E 1 b3 04 0e
        E 1 b3 04 0f
        E 1 b3 04 0f
        E 1 b3 04 10
        E 1 b3 04 10
        E 1 b3 04 10
        E 1 b3 04 11
        E 1 b3 04 11
        E 1 b3 04 12
        E 1 b3 04 12
        E 1 b3 04 12
        E 1 b3 04 13
        E 1 b3 04 13
        E 1 b3 04 14
        E 1 b3 04 14
        E 1 b3 04 14
        E 1 b3 04 15
        E 1 b3 04 15
        E 1 b3 04 16
        E 1 b3 04 16
        E 1 b3 04 16
        E 1 b3 04 17
        E 1 b3 04 17
        E 1 b3 04 18
        E 1 b3 04 18
        E 1 b3 04 18
        E 1 b3 04 19
        E 1 b3 04 19
        E 1 b3 04 19
        E 1 b3 04 18
        E 1 b3 04 18
        E 1 b3 04 18
        E 1 b3 04 17
        E 1 b3 04 17
        E 1 b3 04 16
        E 1 b3 04 16
        E 1 b3 04 16
        E 1 b3 04 15
        E 1 b3 04 15
        E 1 b3 04 14
        E 1 b3 04 14
        E 1 b3 04 14
        E 1 b3 04 13
        E 1 b3 04 13
        E 1 b3 04 12
        E 1 b3 04 12
        E 1 b3 04 12
        E 1 b3 04 11
        E 1 b3 04 11
        E 1 b3 04 10
        E 1 b3 04 10
        E 1 b3 04 10
        E 1 b3 04 0f
        E 1 b3 04 0f
        E 1 b3 04 0e
        E 1 b3 04 0e
        E 1 b3 04 0e
        E 1 b3 04 0d
        E 1 b3 04 0d
        E 1 b3 04 0c
        E 1 b3 04 0c
        E 1 b3 04 0c
        E 1 b3 04 0b
        E 1 b3 04 0b
        E 1 b3 04 0a
        E 1 b3 04 0a
        E 1 b3 04 0a
        E 1 b3 04 09
        E 1 b3 04 09
        E 1 b3 04 08
        E 1 b3 04 08
        E 1 b3 04 08
        E 1 b3 04 07
        E 1 b3 04 07
        E 1 b3 04 06
        E 1 b3 04 06
        E 1 b3 04 06
        E 1 b3 04 05
        E 1 b3 04 05
        E 1 b3 04 04
        E 1 b3 04 04
        E 1 b3 04 04
        E 1 b3 04 03
        E 1 b3 04 03
        E 1 b3 04 02
        E 1 b3 04 02
        E 1 b3 04 02
        E 1 b3 04 01
        E 1 b3 04 01
        E 1 b3 04 00
        E 1 b3 04 00
        E 1 b3 04 00
        E 3 b3 04 01
        E 3 b3 04 03
        E 3 b3 04 05
        E 3 b3 04 07
        E 3 b3 04 09
        E 3 b3 04 0a
        E 3 b3 04 0c
        E 3 b3 04 0e
        E 3 b3 04 10
        E 3 b3 04 12
        E 3 b3 04 13
        E 3 b3 04 15
        E 3 b3 04 17
        E 3 b3 04 19
        E 3 b3 04 1b
        E 3 b3 04 1c
        E 3 b3 04 1e
        E 3 b3 04 20
        E 3 b3 04 22
        E 3 b3 04 24
        E 3 b3 04 25
        E 3 b3 04 27
        E 3 b3 04 29
        E 3 b3 04 2b
        E 3 b3 04 2d
        E 3 b3 04 2e
        E 3 b3 04 30
        E 3 b3 04 32
        E 3 b3 04 34
        E 3 b3 04 36
        E 3 b3 04 37
        E 3 b3 04 39
        E 3 b3 04 3b
        E 3 b3 04 3d
        E 3 b3 04 3f
        E 3 b3 04 40
        E 3 b3 04 42
        E 3 b3 04 44
        E 3 b3 04 46
        E 3 b3 04 48
        E 3 b3 04 49
        E 3 b3 04 4b
        E 3 b3 04 4d
        E 3 b3 04 4f
        E 3 b3 04 51
        E 3 b3 04 52
        E 3 b3 04 54
        E 3 b3 04 56
        E 3 b3 04 58
        E 3 b3 04 5a
        E 3 b3 04 5b
        E 3 b3 04 5d
        E 3 b3 04 5f
        E 3 b3 04 61
        E 3 b3 04 63
        E 3 b3 04 64
        E 3 b3 04 66
        E 3 b3 04 68
        E 3 b3 04 6a
        E 3 b3 04 6c
        E 3 b3 04 6d
        E 3 b3 04 6f
        E 3 b3 04 71
        E 3 b3 04 72
        E 3 b3 04 71
        E 3 b3 04 6f
        E 3 b3 04 6d
        E 3 b3 04 6c
        E 3 b3 04 6a
        E 3 b3 04 68
        E 3 b3 04 66
        E 3 b3 04 64
        E 3 b3 04 63
        E 3 b3 04 61
        E 3 b3 04 5f
        E 3 b3 04 5d
        E 3 b3 04 5b
        E 3 b3 04 5a
        E 3 b3 04 58
        E 3 b3 04 56
        E 3 b3 04 54
        E 3 b3 04 52
        E 3 b3 04 51
        E 3 b3 04 4f
        E 3 b3 04 4d
        E 3 b3 04 4b
        E 3 b3 04 49
        E 3 b3 04 48
        E 3 b3 04 46
        E 3 b3 04 44
        E 3 b3 04 42
        E 3 b3 04 40
        E 3 b3 04 3f
        E 3 b3 04 3d
        E 3 b3 04 3b
        E 3 b3 04 39
        E 3 b3 04 37
        E 3 b3 04 36
        E 3 b3 04 34
        E 3 b3 04 32
        E 3 b3 04 30
        E 3 b3 04 2e
        E 3 b3 04 2d
        E 3 b3 04 2b
        E 3 b3 04 29
        E 3 b3 04 27
        E 3 b3 04 25
        E 3 b3 04 24
        E 3 b3 04 22
        E 3 b3 04 20
        E 3 b3 04 1e
        E 3 b3 04 1c
        E 3 b3 04 1b
        E 3 b3 04 19
        E 3 b3 04 17
        E 3 b3 04 15
        E 3 b3 04 13
        E 3 b3 04 12
        E 3 b3 04 10
        E 3 b3 04 0e
        E 3 b3 04 0c
        E 3 b3 04 0a
        E 3 b3 04 09
        E 3 b3 04 07
        E 3 b3 04 05
        E 3 b3 04 03
        E 3 b3 04 01
        E 3 b3 04 00
        E 6 b3 04 00
        E 6 b3 04 00
        E 6 b3 04 00
        E 6 b3 04 00
        E 6 b3 04 01
        E 6 b3 04 01
        E 6 b3 04 01
        E 6 b3 04 01
        E 6 b3 04 01
        E 6 b3 04 02
        E 6 b3 04 02
        E 6 b3 04 02
        E 6 b3 04 02
        E 6 b3 04 02
        E 6 b3 04 03
        E 6 b3 04 03
        E 6 b3 04 03
        E 6 b3 04 03
        E 6 b3 04 03
        E 6 b3 04 04
        E 6 b3 04 04
        E 6 b3 04 04
        E 6 b3 04 04
        E 6 b3 04 04
        E 6 b3 04 05
        E 6 b3 04 05
        E 6 b3 04 05
        E 6 b3 04 05
        E 6 b3 04 05
        E 6 b3 04 06
        E 6 b3 04 06
        E 6 b3 04 06
        E 6 b3 04 06
        E 6 b3 04 06
        E 6 b3 04 07
        E 6 b3 04 07
        E 6 b3 04 07
        E 6 b3 04 07
        E 6 b3 04 07
        E 6 b3 04 08
        E 6 b3 04 08
        E 6 b3 04 08
        E 6 b3 04 08
        E 6 b3 04 08
        E 6 b3 04 09
        E 6 b3 04 09
        E 6 b3 04 09
        E 6 b3 04 09
        E 6 b3 04 09
        E 6 b3 04 0a
        E 6 b3 04 0a
        E 6 b3 04 0a
        E 6 b3 04 0a
        E 6 b3 04 0a
        E 6 b3 04 0b
        E 6 b3 04 0b
        E 6 b3 04 0b
        E 6 b3 04 0b
        E 6 b3 04 0b
        E 6 b3 04 0c
        E 6 b3 04 0c
        E 6 b3 04 0c
        E 6 b3 04 0c
        E 6 b3 04 0c
        E 6 b3 04 0c
        E 6 b3 04 0c
        E 6 b3 04 0c
        E 6 b3 04 0c
        E 6 b3 04 0b
        E 6 b3 04 0b
        E 6 b3 04 0b
        E 6 b3 04 0b
        E 6 b3 04 0b
        E 6 b3 04 0a
        E 6 b3 04 0a
        E 6 b3 04 0a
        E 6 b3 04 0a
        E 6 b3 04 0a
        E 6 b3 04 09
        E 6 b3 04 09
        E 6 b3 04 09
        E 6 b3 04 09
        E 6 b3 04 09
        E 6 b3 04 08
        E 6 b3 04 08
        E 6 b3 04 08
        E 6 b3 04 08
        E 6 b3 04 08
        E 6 b3 04 07
        E 6 b3 04 07
        E 6 b3 04 07
        E 6 b3 04 07
        E 6 b3 04 07
        E 6 b3 04 06
        E 6 b3 04 06
        E 6 b3 04 06
        E 6 b3 04 06
        E 6 b3 04 06
        E 6 b3 04 05
        E 6 b3 04 05
        E 6 b3 04 05
        E 6 b3 04 05
        E 6 b3 04 05
        E 6 b3 04 04
        E 6 b3 04 04
        E 6 b3 04 04
        E 6 b3 04 04
        E 6 b3 04 04
        E 6 b3 04 03
        E 6 b3 04 03
        E 6 b3 04 03
        E 6 b3 04 03
        E 6 b3 04 03
        E 6 b3 04 02
        E 6 b3 04 02
        E 6 b3 04 02
        E 6 b3 04 02
        E 6 b3 04 02
        E 6 b3 04 01
        E 6 b3 04 01
        E 6 b3 04 01
        E 6 b3 04 01
        E 6 b3 04 01
        E 6 b3 04 00
        E 6 b3 04 00
        E 6 b3 04 00
        E 6 b3 04 00
        E 6 b3 04 00
        E 1 b3 04 01
        E 1 b3 04 03
        E 1 b3 04 04
        E 1 b3 04 06
        E 1 b3 04 07
        E 1 b3 04 09
        E 1 b3 04 0b
        E 1 b3 04 0c
        E 1 b3 04 0e
        E 1 b3 04 0f
        E 1 b3 04 11
        E 1 b3 04 13
        E 1 b3 04 14
        E 1 b3 04 16
        E 1 b3 04 17
        E 1 b3 04 19
        E 1 b3 04 1b
        E 1 b3 04 1c
        E 1 b3 04 1e
        E 1 b3 04 1f
        E 1 b3 04 21
        E 1 b3 04 23
        E 1 b3 04 24
        E 1 b3 04 26
        E 1 b3 04 28
        E 1 b3 04 29
        E 1 b3 04 2b
        E 1 b3 04 2c
        E 1 b3 04 2e
        E 1 b3 04 2f
        E 1 b3 04 31
        E 1 b3 04 33
        E 1 b3 04 34
        E 1 b3 04 36
        E 1 b3 04 37
        E 1 b3 04 39
        E 1 b3 04 3b
        E 1 b3 04 3c
        E 1 b3 04 3e
        E 1 b3 04 3f
        E 1 b3 04 41
        E 1 b3 04 43
        E 1 b3 04 44
        E 1 b3 04 46
        E 1 b3 04 48
        E 1 b3 04 49
        E 1 b3 04 4b
        E 1 b3 04 4c
        E 1 b3 04 4e
        E 1 b3 04 50
        E 1 b3 04 51
        E 1 b3 04 53
        E 1 b3 04 54
        E 1 b3 04 56
        E 1 b3 04 57
        E 1 b3 04 59
        E 1 b3 04 5b
        E 1 b3 04 5c
        E 1 b3 04 5e
        E 1 b3 04 5f
        E 1 b3 04 61
        E 1 b3 04 63
        E 1 b3 04 64
        E 1 b3 04 65
        E 1 b3 04 64
        E 1 b3 04 63
        E 1 b3 04 61
        E 1 b3 04 5f
        E 1 b3 04 5e
        E 1 b3 04 5c
        E 1 b3 04 5b
        E 1 b3 04 59
        E 1 b3 04 57
        E 1 b3 04 56
        E 1 b3 04 54
        E 1 b3 04 53
        E 1 b3 04 51
        E 1 b3 04 50
        E 1 b3 04 4e
        E 1 b3 04 4c
        E 1 b3 04 4b
        E 1 b3 04 49
        E 1 b3 04 48
        E 1 b3 04 46
        E 1 b3 04 44
        E 1 b3 04 43
        E 1 b3 04 41
        E 1 b3 04 3f
        E 1 b3 04 3e
        E 1 b3 04 3c
        E 1 b3 04 3b
        E 1 b3 04 39
        E 1 b3 04 37
        E 1 b3 04 36
        E 1 b3 04 34
        E 1 b3 04 33
        E 1 b3 04 31
        E 1 b3 04 2f
        E 1 b3 04 2e
        E 1 b3 04 2c
        E 1 b3 04 2b
        E 1 b3 04 29
        E 1 b3 04 28
        E 1 b3 04 26
        E 1 b3 04 24
        E 1 b3 04 23
        E 1 b3 04 21
        E 1 b3 04 1f
        E 1 b3 04 1e
        E 1 b3 04 1c
        E 1 b3 04 1b
        E 1 b3 04 19
        E 1 b3 04 17
        E 1 b3 04 16
        E 1 b3 04 14
        E 1 b3 04 13
        E 1 b3 04 11
        E 1 b3 04 0f
        E 1 b3 04 0e
        E 1 b3 04 0c
        E 1 b3 04 0b
        E 1 b3 04 09
        E 1 b3 04 07
        E 1 b3 04 06
        E 1 b3 04 04
        E 1 b3 04 03
        E 1 b3 04 01
        E 1 b3 04 00
        E 6 b3 04 01
        E 6 b3 04 03
        E 6 b3 04 04
        E 6 b3 04 06
        E 6 b3 04 07
        E 6 b3 04 09
        E 6 b3 04 0b
        E 6 b3 04 0c
        E 6 b3 04 0e
        E 6 b3 04 0f
        E 6 b3 04 11
        E 6 b3 04 13
        E 6 b3 04 14
        E 6 b3 04 16
        E 6 b3 04 17
        E 6 b3 04 19
        E 6 b3 04 1b
        E 6 b3 04 1c
        E 6 b3 04 1e
        E 6 b3 04 1f
        E 6 b3 04 21
        E 6 b3 04 23
        E 6 b3 04 24
        E 6 b3 04 26
        E 6 b3 04 28
        E 6 b3 04 29
        E 6 b3 04 2b
        E 6 b3 04 2c
        E 6 b3 04 2e
        E 6 b3 04 2f
        E 6 b3 04 31
        E 6 b3 04 33
        E 6 b3 04 34
        E 6 b3 04 36
        E 6 b3 04 37
        E 6 b3 04 39
        E 6 b3 04 3b
        E 6 b3 04 3c
        E 6 b3 04 3e
        E 6 b3 04 3f
        E 6 b3 04 41
        E 6 b3 04 43
        E 6 b3 04 44
        E 6 b3 04 46
        E 6 b3 04 48
        E 6 b3 04 49
        E 6 b3 04 4b
        E 6 b3 04 4c
        E 6 b3 04 4e
        E 6 b3 04 50
        E 6 b3 04 51
        E 6 b3 04 53
        E 6 b3 04 54
        E 6 b3 04 56
        E 6 b3 04 57
        E 6 b3 04 59
        E 6 b3 04 5b
        E 6 b3 04 5c
        E 6 b3 04 5e
        E 6 b3 04 5f
        E 6 b3 04 61
        E 6 b3 04 63
        E 6 b3 04 64
        E 6 b3 04 65
        E 6 b3 04 64
        E 6 b3 04 63
        E 6 b3 04 61
        E 6 b3 04 5f
        E 6 b3 04 5e
        E 6 b3 04 5c
        E 6 b3 04 5b
        E 6 b3 04 59
        E 6 b3 04 57
        E 6 b3 04 56
        E 6 b3 04 54
        E 6 b3 04 53
        E 6 b3 04 51
        E 6 b3 04 50
        E 6 b3 04 4e
        E 6 b3 04 4c
        E 6 b3 04 4b
        E 6 b3 04 49
        E 6 b3 04 48
        E 6 b3 04 46
        E 6 b3 04 44
        E 6 b3 04 43
        E 6 b3 04 41
        E 6 b3 04 3f
        E 6 b3 04 3e
        E 6 b3 04 3c
        E 6 b3 04 3b
        E 6 b3 04 39
        E 6 b3 04 37
        E 6 b3 04 36
        E 6 b3 04 34
        E 6 b3 04 33
        E 6 b3 04 31
        E 6 b3 04 2f
        E 6 b3 04 2e
        E 6 b3 04 2c
        E 6 b3 04 2b
        E 6 b3 04 29
        E 6 b3 04 28
        E 6 b3 04 26
        E 6 b3 04 24
        E 6 b3 04 23
        E 6 b3 04 21
        E 6 b3 04 1f
        E 6 b3 04 1e
        E 6 b3 04 1c
        E 6 b3 04 1b
        E 6 b3 04 19
        E 6 b3 04 17
        E 6 b3 04 16
        E 6 b3 04 14
        E 6 b3 04 13
        E 6 b3 04 11
        E 6 b3 04 0f
        E 6 b3 04 0e
        E 6 b3 04 0c
        E 6 b3 04 0b
        E 6 b3 04 09
        E 6 b3 04 07
        E 6 b3 04 06
        E 6 b3 04 04
        E 6 b3 04 03
        E 6 b3 04 01
        E 6 b3 04 00
        E 6 b3 04 01
        E 6 b3 04 03
        E 6 b3 04 04
        E 6 b3 04 06
        E 6 b3 04 07
        E 6 b3 04 09
        E 6 b3 04 0b
        E 6 b3 04 0c
        E 6 b3 04 0e
        E 6 b3 04 0f
        E 6 b3 04 11
        E 6 b3 04 13
        E 6 b3 04 14
        E 6 b3 04 16
        E 6 b3 04 17
        E 6 b3 04 19
        E 6 b3 04 1b
        E 6 b3 04 1c
        E 6 b3 04 1e
        E 6 b3 04 1f
        E 6 b3 04 21
        E 6 b3 04 23
        E 6 b3 04 24
        E 6 b3 04 26
        E 6 b3 04 28
        E 6 b3 04 29
        E 6 b3 04 2b
        E 6 b3 04 2c
        E 6 b3 04 2e
        E 6 b3 04 2f
        E 6 b3 04 31
        E 6 b3 04 33
        E 6 b3 04 34
        E 6 b3 04 36
        E 6 b3 04 37
        E 6 b3 04 39
        E 6 b3 04 3b
        E 6 b3 04 3c
        E 6 b3 04 3e
        E 6 b3 04 3f
        E 6 b3 04 41
        E 6 b3 04 43
        E 6 b3 04 44
        E 6 b3 04 46
        E 6 b3 04 48
        E 6 b3 04 49
        E 6 b3 04 4b
        E 6 b3 04 4c
        E 6 b3 04 4e
        E 6 b3 04 50
        E 6 b3 04 51
        E 6 b3 04 53
        E 6 b3 04 54
        E 6 b3 04 56
        E 6 b3 04 57
        E 6 b3 04 59
        E 6 b3 04 5b
        E 6 b3 04 5c
        E 6 b3 04 5e
        E 6 b3 04 5f
        E 6 b3 04 61
        E 6 b3 04 63
        E 6 b3 04 64
        E 6 b3 04 65
        E 6 b3 04 64
        E 6 b3 04 63
        E 6 b3 04 61
        E 6 b3 04 5f
        E 6 b3 04 5e
        E 6 b3 04 5c
        E 6 b3 04 5b
        E 6 b3 04 59
        E 6 b3 04 57
        E 6 b3 04 56
        E 6 b3 04 54
        E 6 b3 04 53
        E 6 b3 04 51
        E 6 b3 04 50
        E 6 b3 04 4e
        E 6 b3 04 4c
        E 6 b3 04 4b
        E 6 b3 04 49
        E 6 b3 04 48
        E 6 b3 04 46
        E 6 b3 04 44
        E 6 b3 04 43
        E 6 b3 04 41
        E 6 b3 04 3f
        E 6 b3 04 3e
        E 6 b3 04 3c
        E 6 b3 04 3b
        E 6 b3 04 39
        E 6 b3 04 37
        E 6 b3 04 36
        E 6 b3 04 34
        E 6 b3 04 33
        E 6 b3 04 31
        E 6 b3 04 2f
        E 6 b3 04 2e
        E 6 b3 04 2c
        E 6 b3 04 2b
        E 6 b3 04 29
        E 6 b3 04 28
        E 6 b3 04 26
        E 6 b3 04 24
        E 6 b3 04 23
        E 6 b3 04 21
        E 6 b3 04 1f
        E 6 b3 04 1e
        E 6 b3 04 1c
        E 6 b3 04 1b
        E 6 b3 04 19
        E 6 b3 04 17
        E 6 b3 04 16
        E 6 b3 04 14
        E 6 b3 04 13
        E 6 b3 04 11
        E 6 b3 04 0f
        E 6 b3 04 0e
        E 6 b3 04 0c
        E 6 b3 04 0b
        E 6 b3 04 09
        E 6 b3 04 07
        E 6 b3 04 06
        E 6 b3 04 04
        E 6 b3 04 03
        E 6 b3 04 01
        E 6 b3 04 00
        E 1 b3 04 00
        E 1 b3 04 00
        E 1 b3 04 01
        E 1 b3 04 01
        E 1 b3 04 02
        E 1 b3 04 02
        E 1 b3 04 02
        E 1 b3 04 03
        E 1 b3 04 03
        E 1 b3 04 04
        E 1 b3 04 04
        E 1 b3 04 04
        E 1 b3 04 05
        E 1 b3 04 05
        E 1 b3 04 06
        E 1 b3 04 06
        E 1 b3 04 06
        E 1 b3 04 07
        E 1 b3 04 07
        E 1 b3 04 08
        E 1 b3 04 08
        E 1 b3 04 08
        E 1 b3 04 09
        E 1 b3 04 09
        E 1 b3 04 0a
        E 1 b3 04 0a
        E 1 b3 04 0a
        E 1 b3 04 0b
        E 1 b3 04 0b
        E 1 b3 04 0c
        E 1 b3 04 0c
        E 1 b3 04 0c
        E 1 b3 04 0d
        E 1 b3 04 0d
        E 1 b3 04 0e
        E 1 b3 04 0e
        E 1 b3 04 0e
        E 1 b3 04 0f
        E 1 b3 04 0f
        E 1 b3 04 10
        E 1 b3 04 10
        E 1 b3 04 10
        E 1 b3 04 11
        E 1 b3 04 11
        E 1 b3 04 12
        E 1 b3 04 12
        E 1 b3 04 12
        E 1 b3 04 13
        E 1 b3 04 13
        E 1 b3 04 14
        E 1 b3 04 14
        E 1 b3 04 14
        E 1 b3 04 15
        E 1 b3 04 15
        E 1 b3 04 16
        E 1 b3 04 16
        E 1 b3 04 16
        E 1 b3 04 17
        E 1 b3 04 17
        E 1 b3 04 18
        E 1 b3 04 18
        E 1 b3 04 18
        E 1 b3 04 19
        E 1 b3 04 19
        E 1 b3 04 19
        E 1 b3 04 18
        E 1 b3 04 18
        E 1 b3 04 18
        E 1 b3 04 17
        E 1 b3 04 17
        E 1 b3 04 16
        E 1 b3 04 16
        E 1 b3 04 16
        E 1 b3 04 15
        E 1 b3 04 15
        E 1 b3 04 14
        E 1 b3 04 14
        E 1 b3 04 14
        E 1 b3 04 13
        E 1 b3 04 13
        E 1 b3 04 12
        E 1 b3 04 12
        E 1 b3 04 12
        E 1 b3 04 11
        E 1 b3 04 11
        E 1 b3 04 10
        E 1 b3 04 10
        E 1 b3 04 10
        E 1 b3 04 0f
        E 1 b3 04 0f
        E 1 b3 04 0e
        E 1 b3 04 0e
        E 1 b3 04 0e
        E 1 b3 04 0d
        E 1 b3 04 0d
        E 1 b3 04 0c
        E 1 b3 04 0c
        E 1 b3 04 0c
        E 1 b3 04 0b
        E 1 b3 04 0b
        E 1 b3 04 0a
        E 1 b3 04 0a
        E 1 b3 04 0a
        E 1 b3 04 09
        E 1 b3 04 09
        E 1 b3 04 08
        E 1 b3 04 08
        E 1 b3 04 08
        E 1 b3 04 07
        E 1 b3 04 07
        E 1 b3 04 06
        E 1 b3 04 06
        E 1 b3 04 06
        E 1 b3 04 05
        E 1 b3 04 05
        E 1 b3 04 04
        E 1 b3 04 04
        E 1 b3 04 04
        E 1 b3 04 03
        E 1 b3 04 03
        E 1 b3 04 02
        E 1 b3 04 02
        E 1 b3 04 02
        E 1 b3 04 01
        E 1 b3 04 01
        E 1 b3 04 00
        E 1 b3 04 00
        E 1 b3 04 00
        E 3 b3 04 01
        E 3 b3 04 03
        E 3 b3 04 05
        E 3 b3 04 07
        E 3 b3 04 09
        E 3 b3 04 0a
        E 3 b3 04 0c
        E 3 b3 04 0e
        E 3 b3 04 10
        E 3 b3 04 12
        E 3 b3 04 13
        E 3 b3 04 15
        E 3 b3 04 17
        E 3 b3 04 19
        E 3 b3 04 1b
        E 3 b3 04 1c
        E 3 b3 04 1e
        E 3 b3 04 20
        E 3 b3 04 22
        E 3 b3 04 24
        E 3 b3 04 25
        E 3 b3 04 27
        E 3 b3 04 29
        E 3 b3 04 2b
        E 3 b3 04 2d
        E 3 b3 04 2e
        E 3 b3 04 30
        E 3 b3 04 32
        E 3 b3 04 34
        E 3 b3 04 36
        E 3 b3 04 37
        E 3 b3 04 39
        E 3 b3 04 3b
        E 3 b3 04 3d
        E 3 b3 04 3f
        E 3 b3 04 40
        E 3 b3 04 42
        E 3 b3 04 44
        E 3 b3 04 46
        E 3 b3 04 48
        E 3 b3 04 49
        E 3 b3 04 4b
        E 3 b3 04 4d
        E 3 b3 04 4f
        E 3 b3 04 51
        E 3 b3 04 52
        E 3 b3 04 54
        E 3 b3 04 56
        E 3 b3 04 58
        E 3 b3 04 5a
        E 3 b3 04 5b
        E 3 b3 04 5d
        E 3 b3 04 5f
        E 3 b3 04 61
        E 3 b3 04 63
        E 3 b3 04 64
        E 3 b3 04 66
        E 3 b3 04 68
        E 3 b3 04 6a
        E 3 b3 04 6c
        E 3 b3 04 6d
        E 3 b3 04 6f
        E 3 b3 04 71
        E 3 b3 04 72
        E 3 b3 04 71
        E 3 b3 04 6f
        E 3 b3 04 6d
        E 3 b3 04 6c
        E 3 b3 04 6a
        E 3 b3 04 68
        E 3 b3 04 66
        E 3 b3 04 64
        E 3 b3 04 63
        E 3 b3 04 61
        E 3 b3 04 5f
        E 3 b3 04 5d
        E 3 b3 04 5b
        E 3 b3 04 5a
        E 3 b3 04 58
        E 3 b3 04 56
        E 3 b3 04 54
        E 3 b3 04 52
        E 3 b3 04 51
        E 3 b3 04 4f
        E 3 b3 04 4d
        E 3 b3 04 4b
        E 3 b3 04 49
        E 3 b3 04 48
        E 3 b3 04 46
        E 3 b3 04 44
        E 3 b3 04 42
        E 3 b3 04 40
        E 3 b3 04 3f
        E 3 b3 04 3d
        E 3 b3 04 3b
        E 3 b3 04 39
        E 3 b3 04 37
        E 3 b3 04 36
        E 3 b3 04 34
        E 3 b3 04 32
        E 3 b3 04 30
        E 3 b3 04 2e
        E 3 b3 04 2d
        E 3 b3 04 2b
        E 3 b3 04 29
        E 3 b3 04 27
        E 3 b3 04 25
        E 3 b3 04 24
        E 3 b3 04 22
        E 3 b3 04 20
        E 3 b3 04 1e
        E 3 b3 04 1c
        E 3 b3 04 1b
        E 3 b3 04 19
        E 3 b3 04 17
        E 3 b3 04 15
        E 3 b3 04 13
        E 3 b3 04 12
        E 3 b3 04 10
        E 3 b3 04 0e
        E 3 b3 04 0c
        E 3 b3 04 0a
        E 3 b3 04 09
        E 3 b3 04 07
        E 3 b3 04 05
        E 3 b3 04 03
        E 3 b3 04 01
        E 3 b3 04 00
        E 6 b3 04 00
        E 6 b3 04 00
        E 6 b3 04 00
        E 6 b3 04 00
        E 6 b3 04 01
        E 6 b3 04 01
        E 6 b3 04 01
        E 6 b3 04 01
        E 6 b3 04 01
        E 6 b3 04 02
        E 6 b3 04 02
        E 6 b3 04 02
        E 6 b3 04 02
        E 6 b3 04 02
        E 6 b3 04 03
        E 6 b3 04 03
        E 6 b3 04 03
        E 6 b3 04 03
        E 6 b3 04 03
        E 6 b3 04 04
        E 6 b3 04 04
        E 6 b3 04 04
        E 6 b3 04 04
        E 6 b3 04 04
        E 6 b3 04 05
        E 6 b3 04 05
        E 6 b3 04 05
        E 6 b3 04 05
        E 6 b3 04 05
        E 6 b3 04 06
        E 6 b3 04 06
        E 6 b3 04 06
        E 6 b3 04 06
        E 6 b3 04 06
        E 6 b3 04 07
        E 6 b3 04 07
        E 6 b3 04 07
        E 6 b3 04 07
        E 6 b3 04 07
        E 6 b3 04 08
        E 6 b3 04 08
        E 6 b3 04 08
        E 6 b3 04 08
        E 6 b3 04 08
        E 6 b3 04 09
        E 6 b3 04 09
        E 6 b3 04 09
        E 6 b3 04 09
        E 6 b3 04 09
        E 6 b3 04 0a
        E 6 b3 04 0a
        E 6 b3 04 0a
        E 6 b3 04 0a
        E 6 b3 04 0a
        E 6 b3 04 0b
        E 6 b3 04 0b
        E 6 b3 04 0b
        E 6 b3 04 0b
        E 6 b3 04 0b
        E 6 b3 04 0c
        E 6 b3 04 0c
        E 6 b3 04 0c
        E 6 b3 04 0c
        E 6 b3 04 0c
        E 6 b3 04 0c
        E 6 b3 04 0c
        E 6 b3 04 0c
        E 6 b3 04 0c
        E 6 b3 04 0b
        E 6 b3 04 0b
        E 6 b3 04 0b
        E 6 b3 04 0b
        E 6 b3 04 0b
        E 6 b3 04 0a
        E 6 b3 04 0a
        E 6 b3 04 0a
        E 6 b3 04 0a
        E 6 b3 04 0a
        E 6 b3 04 09
        E 6 b3 04 09
        E 6 b3 04 09
        E 6 b3 04 09
        E 6 b3 04 09
        E 6 b3 04 08
        E 6 b3 04 08
        E 6 b3 04 08
        E 6 b3 04 08
        E 6 b3 04 08
        E 6 b3 04 07
        E 6 b3 04 07
        E 6 b3 04 07
        E 6 b3 04 07
        E 6 b3 04 07
        E 6 b3 04 06
        E 6 b3 04 06
        E 6 b3 04 06
        E 6 b3 04 06
        E 6 b3 04 06
        E 6 b3 04 05
        E 6 b3 04 05
        E 6 b3 04 05
        E 6 b3 04 05
        E 6 b3 04 05
        E 6 b3 04 04
        E 6 b3 04 04
        E 6 b3 04 04
        E 6 b3 04 04
        E 6 b3 04 04
        E 6 b3 04 03
        E 6 b3 04 03
        E 6 b3 04 03
        E 6 b3 04 03
        E 6 b3 04 03
        E 6 b3 04 02
        E 6 b3 04 02
        E 6 b3 04 02
        E 6 b3 04 02
        E 6 b3 04 02
        E 6 b3 04 01
        E 6 b3 04 01
        E 6 b3 04 01
        E 6 b3 04 01
        E 6 b3 04 01
        E 6 b3 04 00
        E 6 b3 04 00
        E 6 b3 04 00
        E 6 b3 04 00
        E 6 b3 04 00
        E 1 b3 04 01
        E 1 b3 04 03
        E 1 b3 04 04
        E 1 b3 04 06
        E 1 b3 04 07
        E 1 b3 04 09
        E 1 b3 04 0b
        E 1 b3 04 0c
        E 1 b3 04 0e
        E 1 b3 04 0f
        E 1 b3 04 11
        E 1 b3 04 13
        E 1 b3 04 14
        E 1 b3 04 16
        E 1 b3 04 17
        E 1 b3 04 19
        E 1 b3 04 1b
        E 1 b3 04 1c
        E 1 b3 04 1e
        E 1 b3 04 1f
        E 1 b3 04 21
        E 1 b3 04 23
        E 1 b3 04 24
        E 1 b3 04 26
        E 1 b3 04 28
        E 1 b3 04 29
        E 1 b3 04 2b
        E 1 b3 04 2c
        E 1 b3 04 2e
        E 1 b3 04 2f
        E 1 b3 04 31
        E 1 b3 04 33
        E 1 b3 04 34
        E 1 b3 04 36
        E 1 b3 04 37
        E 1 b3 04 39
        E 1 b3 04 3b
        E 1 b3 04 3c
        E 1 b3 04 3e
        E 1 b3 04 3f
        E 1 b3 04 41
        E 1 b3 04 43
        E 1 b3 04 44
        E 1 b3 04 46
        E 1 b3 04 48
        E 1 b3 04 49
        E 1 b3 04 4b
        E 1 b3 04 4c
        E 1 b3 04 4e
        E 1 b3 04 50
        E 1 b3 04 51
        E 1 b3 04 53
        E 1 b3 04 54
        E 1 b3 04 56
        E 1 b3 04 57
        E 1 b3 04 59
        E 1 b3 04 5b
        E 1 b3 04 5c
        E 1 b3 04 5e
        E 1 b3 04 5f
        E 1 b3 04 61
        E 1 b3 04 63
        E 1 b3 04 64
        E 1 b3 04 65
        E 1 b3 04 64
        E 1 b3 04 63
        E 1 b3 04 61
        E 1 b3 04 5f
        E 1 b3 04 5e
        E 1 b3 04 5c
        E 1 b3 04 5b
        E 1 b3 04 59
        E 1 b3 04 57
        E 1 b3 04 56
        E 1 b3 04 54
        E 1 b3 04 53
        E 1 b3 04 51
        E 1 b3 04 50
        E 1 b3 04 4e
        E 1 b3 04 4c
        E 1 b3 04 4b
        E 1 b3 04 49
        E 1 b3 04 48
        E 1 b3 04 46
        E 1 b3 04 44
        E 1 b3 04 43
        E 1 b3 04 41
        E 1 b3 04 3f
        E 1 b3 04 3e
        E 1 b3 04 3c
        E 1 b3 04 3b
        E 1 b3 04 39
        E 1 b3 04 37
        E 1 b3 04 36
        E 1 b3 04 34
        E 1 b3 04 33
        E 1 b3 04 31
        E 1 b3 04 2f
        E 1 b3 04 2e
        E 1 b3 04 2c
        E 1 b3 04 2b
        E 1 b3 04 29
        E 1 b3 04 28
        E 1 b3 04 26
        E 1 b3 04 24
        E 1 b3 04 23
        E 1 b3 04 21
        E 1 b3 04 1f
        E 1 b3 04 1e
        E 1 b3 04 1c
        E 1 b3 04 1b
        E 1 b3 04 19
        E 1 b3 04 17
        E 1 b3 04 16
        E 1 b3 04 14
        E 1 b3 04 13
        E 1 b3 04 11
        E 1 b3 04 0f
        E 1 b3 04 0e
        E 1 b3 04 0c
        E 1 b3 04 0b
        E 1 b3 04 09
        E 1 b3 04 07
        E 1 b3 04 06
        E 1 b3 04 04
        E 1 b3 04 03
        E 1 b3 04 01
        E 1 b3 04 00
        E 6 b3 04 01
        E 6 b3 04 03
        E 6 b3 04 04
        E 6 b3 04 06
        E 6 b3 04 07
        E 6 b3 04 09
        E 6 b3 04 0b
        E 6 b3 04 0c
        E 6 b3 04 0e
        E 6 b3 04 0f
        E 6 b3 04 11
        E 6 b3 04 13
        E 6 b3 04 14
        E 6 b3 04 16
        E 6 b3 04 17
        E 6 b3 04 19
        E 6 b3 04 1b
        E 6 b3 04 1c
        E 6 b3 04 1e
        E 6 b3 04 1f
        E 6 b3 04 21
        E 6 b3 04 23
        E 6 b3 04 24
        E 6 b3 04 26
        E 6 b3 04 28
        E 6 b3 04 29
        E 6 b3 04 2b
        E 6 b3 04 2c
        E 6 b3 04 2e
        E 6 b3 04 2f
        E 6 b3 04 31
        E 6 b3 04 33
        E 6 b3 04 34
        E 6 b3 04 36
        E 6 b3 04 37
        E 6 b3 04 39
        E 6 b3 04 3b
        E 6 b3 04 3c
        E 6 b3 04 3e
        E 6 b3 04 3f
        E 6 b3 04 41
        E 6 b3 04 43
        E 6 b3 04 44
        E 6 b3 04 46
        E 6 b3 04 48
        E 6 b3 04 49
        E 6 b3 04 4b
        E 6 b3 04 4c
        E 6 b3 04 4e
        E 6 b3 04 50
        E 6 b3 04 51
        E 6 b3 04 53
        E 6 b3 04 54
        E 6 b3 04 56
        E 6 b3 04 57
        E 6 b3 04 59
        E 6 b3 04 5b
        E 6 b3 04 5c
        E 6 b3 04 5e
        E 6 b3 04 5f
        E 6 b3 04 61
        E 6 b3 04 63
        E 6 b3 04 64
        E 6 b3 04 65
        E 6 b3 04 64
        E 6 b3 04 63
        E 6 b3 04 61
        E 6 b3 04 5f
        E 6 b3 04 5e
        E 6 b3 04 5c
        E 6 b3 04 5b
        E 6 b3 04 59
        E 6 b3 04 57
        E 6 b3 04 56
        E 6 b3 04 54
        E 6 b3 04 53
        E 6 b3 04 51
        E 6 b3 04 50
        E 6 b3 04 4e
        E 6 b3 04 4c
        E 6 b3 04 4b
        E 6 b3 04 49
        E 6 b3 04 48
        E 6 b3 04 46
        E 6 b3 04 44
        E 6 b3 04 43
        E 6 b3 04 41
        E 6 b3 04 3f
        E 6 b3 04 3e
        E 6 b3 04 3c
        E 6 b3 04 3b
        E 6 b3 04 39
        E 6 b3 04 37
        E 6 b3 04 36
        E 6 b3 04 34
        E 6 b3 04 33
        E 6 b3 04 31
        E 6 b3 04 2f
        E 6 b3 04 2e
        E 6 b3 04 2c
        E 6 b3 04 2b
        E 6 b3 04 29
        E 6 b3 04 28
        E 6 b3 04 26
        E 6 b3 04 24
        E 6 b3 04 23
        E 6 b3 04 21
        E 6 b3 04 1f
        E 6 b3 04 1e
        E 6 b3 04 1c
        E 6 b3 04 1b
        E 6 b3 04 19
        E 6 b3 04 17
        E 6 b3 04 16
        E 6 b3 04 14
        E 6 b3 04 13
        E 6 b3 04 11
        E 6 b3 04 0f
        E 6 b3 04 0e
        E 6 b3 04 0c
        E 6 b3 04 0b
        E 6 b3 04 09
        E 6 b3 04 07
        E 6 b3 04 06
        E 6 b3 04 04
        E 6 b3 04 03
        E 6 b3 04 01
        E 6 b3 04 00
        E 6 b3 04 01
        E 6 b3 04 03
        E 6 b3 04 04
        E 6 b3 04 06
        E 6 b3 04 07
        E 6 b3 04 09
        E 6 b3 04 0b
        E 6 b3 04 0c
        E 6 b3 04 0e
        E 6 b3 04 0f
        E 6 b3 04 11
        E 6 b3 04 13
        E 6 b3 04 14
        E 6 b3 04 16
        E 6 b3 04 17
        E 6 b3 04 19
        E 6 b3 04 1b
        E 6 b3 04 1c
        E 6 b3 04 1e
        E 6 b3 04 1f
        E 6 b3 04 21
        E 6 b3 04 23
        E 6 b3 04 24
        E 6 b3 04 26
        E 6 b3 04 28
        E 6 b3 04 29
        E 6 b3 04 2b
        E 6 b3 04 2c
        E 6 b3 04 2e
        E 6 b3 04 2f
        E 6 b3 04 31
        E 6 b3 04 33
        E 6 b3 04 34
        E 6 b3 04 36
        E 6 b3 04 37
        E 6 b3 04 39
        E 6 b3 04 3b
        E 6 b3 04 3c
        E 6 b3 04 3e
        E 6 b3 04 3f
        E 6 b3 04 41
        E 6 b3 04 43
        E 6 b3 04 44
        E 6 b3 04 46
        E 6 b3 04 48
        E 6 b3 04 49
        E 6 b3 04 4b
        E 6 b3 04 4c
        E 6 b3 04 4e
        E 6 b3 04 50
        E 6 b3 04 51
        E 6 b3 04 53
        E 6 b3 04 54
        E 6 b3 04 56
        E 6 b3 04 57
        E 6 b3 04 59
        E 6 b3 04 5b
        E 6 b3 04 5c
        E 6 b3 04 5e
        E 6 b3 04 5f
        E 6 b3 04 61
        E 6 b3 04 63
        E 6 b3 04 64
        E 6 b3 04 65
        E 6 b3 04 64
        E 6 b3 04 63
        E 6 b3 04 61
        E 6 b3 04 5f
        E 6 b3 04 5e
        E 6 b3 04 5c
        E 6 b3 04 5b
        E 6 b3 04 59
        E 6 b3 04 57
        E 6 b3 04 56
        E 6 b3 04 54
        E 6 b3 04 53
        E 6 b3 04 51
        E 6 b3 04 50
        E 6 b3 04 4e
        E 6 b3 04 4c
        E 6 b3 04 4b
        E 6 b3 04 49
        E 6 b3 04 48
        E 6 b3 04 46
        E 6 b3 04 44
        E 6 b3 04 43
        E 6 b3 04 41
        E 6 b3 04 3f
        E 6 b3 04 3e
        E 6 b3 04 3c
        E 6 b3 04 3b
        E 6 b3 04 39
        E 6 b3 04 37
        E 6 b3 04 36
        E 6 b3 04 34
        E 6 b3 04 33
        E 6 b3 04 31
        E 6 b3 04 2f
        E 6 b3 04 2e
        E 6 b3 04 2c
        E 6 b3 04 2b
        E 6 b3 04 29
        E 6 b3 04 28
        E 6 b3 04 26
        E 6 b3 04 24
        E 6 b3 04 23
        E 6 b3 04 21
        E 6 b3 04 1f
        E 6 b3 04 1e
        E 6 b3 04 1c
        E 6 b3 04 1b
        E 6 b3 04 19
        E 6 b3 04 17
        E 6 b3 04 16
        E 6 b3 04 14
        E 6 b3 04 13
        E 6 b3 04 11
        E 6 b3 04 0f
        E 6 b3 04 0e
        E 6 b3 04 0c
        E 6 b3 04 0b
        E 6 b3 04 09
        E 6 b3 04 07
        E 6 b3 04 06
        E 6 b3 04 04
        E 6 b3 04 03
        E 6 b3 04 01
        E 6 b3 04 00
        E 1 b3 04 00
        E 1 b3 04 00
        E 1 b3 04 01
        E 1 b3 04 01
        E 1 b3 04 02
        E 1 b3 04 02
        E 1 b3 04 02
        E 1 b3 04 03
        E 1 b3 04 03
        E 1 b3 04 04
        E 1 b3 04 04
        E 1 b3 04 04
        E 1 b3 04 05
        E 1 b3 04 05
        E 1 b3 04 06
        E 1 b3 04 06
        E 1 b3 04 06
        E 1 b3 04 07
        E 1 b3 04 07
        E 1 b3 04 08
        E 1 b3 04 08
        E 1 b3 04 08
        E 1 b3 04 09
        E 1 b3 04 09
        E 1 b3 04 0a
        E 1 b3 04 0a
        E 1 b3 04 0a
        E 1 b3 04 0b
        E 1 b3 04 0b
        E 1 b3 04 0c
        E 1 b3 04 0c
        E 1 b3 04 0c
        E 1 b3 04 0d
        E 1 b3 04 0d
        E 1 b3 04 0e
        E 1 b3 04 0e
        E 1 b3 04 0e
        E 1 b3 04 0f
        E 1 b3 04 0f
        E 1 b3 04 10
        E 1 b3 04 10
        E 1 b3 04 10
        E 1 b3 04 11
        E 1 b3 04 11
        E 1 b3 04 12
        E 1 b3 04 12
        E 1 b3 04 12
        E 1 b3 04 13
        E 1 b3 04 13
        E 1 b3 04 14
        E 1 b3 04 14
        E 1 b3 04 14
        E 1 b3 04 15
        E 1 b3 04 15
        E 1 b3 04 16
        E 1 b3 04 16
        E 1 b3 04 16
        E 1 b3 04 17
        E 1 b3 04 17
        E 1 b3 04 18
        E 1 b3 04 18
        E 1 b3 04 18
        E 1 b3 04 19
        E 1 b3 04 19
        E 1 b3 04 19
        E 1 b3 04 18
        E 1 b3 04 18
        E 1 b3 04 18
        E 1 b3 04 17
        E 1 b3 04 17
        E 1 b3 04 16
        E 1 b3 04 16
        E 1 b3 04 16
        E 1 b3 04 15
        E 1 b3 04 15
        E 1 b3 04 14
        E 1 b3 04 14
        E 1 b3 04 14
        E 1 b3 04 13
        E 1 b3 04 13
        E 1 b3 04 12
        E 1 b3 04 12
        E 1 b3 04 12
        E 1 b3 04 11
        E 1 b3 04 11
        E 1 b3 04 10
        E 1 b3 04 10
        E 1 b3 04 10
        E 1 b3 04 0f
        E 1 b3 04 0f
        E 1 b3 04 0e
        E 1 b3 04 0e
        E 1 b3 04 0e
        E 1 b3 04 0d
        E 1 b3 04 0d
        E 1 b3 04 0c
        E 1 b3 04 0c
        E 1 b3 04 0c
        E 1 b3 04 0b
        E 1 b3 04 0b
        E 1 b3 04 0a
        E 1 b3 04 0a
        E 1 b3 04 0a
        E 1 b3 04 09
        E 1 b3 04 09
        E 1 b3 04 08
        E 1 b3 04 08
        E 1 b3 04 08
        E 1 b3 04 07
        E 1 b3 04 07
        E 1 b3 04 06
        E 1 b3 04 06
        E 1 b3 04 06
        E 1 b3 04 05
        E 1 b3 04 05
        E 1 b3 04 04
        E 1 b3 04 04
        E 1 b3 04 04
        E 1 b3 04 03
        E 1 b3 04 03
        E 1 b3 04 02
        E 1 b3 04 02
        E 1 b3 04 02
        E 1 b3 04 01
        E 1 b3 04 01
        E 1 b3 04 00
        E 1 b3 04 00
        E 1 b3 04 00
        E 3 b3 04 01
        E 3 b3 04 03
        E 3 b3 04 05
        E 3 b3 04 07
        E 3 b3 04 09
        E 3 b3 04 0a
        E 3 b3 04 0c
        E 3 b3 04 0e
        E 3 b3 04 10
        E 3 b3 04 12
        E 3 b3 04 13
        E 3 b3 04 15
        E 3 b3 04 17
        E 3 b3 04 19
        E 3 b3 04 1b
        E 3 b3 04 1c
        E 3 b3 04 1e
        E 3 b3 04 20
        E 3 b3 04 22
        E 3 b3 04 24
        E 3 b3 04 25
        E 3 b3 04 27
        E 3 b3 04 29
        E 3 b3 04 2b
        E 3 b3 04 2d
        E 3 b3 04 2e
        E 3 b3 04 30
        E 3 b3 04 32
        E 3 b3 04 34
        E 3 b3 04 36
        E 3 b3 04 37
        E 3 b3 04 39
        E 3 b3 04 3b
        E 3 b3 04 3d
        E 3 b3 04 3f
        E 3 b3 04 40
        E 3 b3 04 42
        E 3 b3 04 44
        E 3 b3 04 46
        E 3 b3 04 48
        E 3 b3 04 49
        E 3 b3 04 4b
        E 3 b3 04 4d
        E 3 b3 04 4f
        E 3 b3 04 51
        E 3 b3 04 52
        E 3 b3 04 54
        E 3 b3 04 56
        E 3 b3 04 58
        E 3 b3 04 5a
        E 3 b3 04 5b
        E 3 b3 04 5d
        E 3 b3 04 5f
        E 3 b3 04 61
        E 3 b3 04 63
        E 3 b3 04 64
        E 3 b3 04 66
        E 3 b3 04 68
        E 3 b3 04 6a
        E 3 b3 04 6c
        E 3 b3 04 6d
        E 3 b3 04 6f
        E 3 b3 04 71
        E 3 b3 04 72
        E 3 b3 04 71
        E 3 b3 04 6f
        E 3 b3 04 6d
        E 3 b3 04 6c
        E 3 b3 04 6a
        E 3 b3 04 68
        E 3 b3 04 66
        E 3 b3 04 64
        E 3 b3 04 63
        E 3 b3 04 61
        E 3 b3 04 5f
        E 3 b3 04 5d
        E 3 b3 04 5b
        E 3 b3 04 5a
        E 3 b3 04 58
        E 3 b3 04 56
        E 3 b3 04 54
        E 3 b3 04 52
        E 3 b3 04 51
        E 3 b3 04 4f
        E 3 b3 04 4d
        E 3 b3 04 4b
        E 3 b3 04 49
        E 3 b3 04 48
        E 3 b3 04 46
        E 3 b3 04 44
        E 3 b3 04 42
        E 3 b3 04 40
        E 3 b3 04 3f
        E 3 b3 04 3d
        E 3 b3 04 3b
        E 3 b3 04 39
        E 3 b3 04 37
        E 3 b3 04 36
        E 3 b3 04 34
        E 3 b3 04 32
        E 3 b3 04 30
        E 3 b3 04 2e
        E 3 b3 04 2d
        E 3 b3 04 2b
        E 3 b3 04 29
        E 3 b3 04 27
        E 3 b3 04 25
        E 3 b3 04 24
        E 3 b3 04 22
        E 3 b3 04 20
        E 3 b3 04 1e
        E 3 b3 04 1c
        E 3 b3 04 1b
        E 3 b3 04 19
        E 3 b3 04 17
        E 3 b3 04 15
        E 3 b3 04 13
        E 3 b3 04 12
        E 3 b3 04 10
        E 3 b3 04 0e
        E 3 b3 04 0c
        E 3 b3 04 0a
        E 3 b3 04 09
        E 3 b3 04 07
        E 3 b3 04 05
        E 3 b3 04 03
        E 3 b3 04 01
        E 3 b3 04 00
        E 6 b3 04 00
        E 6 b3 04 00
        E 6 b3 04 00
        E 6 b3 04 00
        E 6 b3 04 01
        E 6 b3 04 01
        E 6 b3 04 01
        E 6 b3 04 01
        E 6 b3 04 01
        E 6 b3 04 02
        E 6 b3 04 02
        E 6 b3 04 02
        E 6 b3 04 02
        E 6 b3 04 02
        E 6 b3 04 03
        E 6 b3 04 03
        E 6 b3 04 03
        E 6 b3 04 03
        E 6 b3 04 03
        E 6 b3 04 04
        E 6 b3 04 04
        E 6 b3 04 04
        E 6 b3 04 04
        E 6 b3 04 04
        E 6 b3 04 05
        E 6 b3 04 05
        E 6 b3 04 05
        E 6 b3 04 05
        E 6 b3 04 05
        E 6 b3 04 06
        E 6 b3 04 06
        E 6 b3 04 06
        E 6 b3 04 06
        E 6 b3 04 06
        E 6 b3 04 07
        E 6 b3 04 07
        E 6 b3 04 07
        E 6 b3 04 07
        E 6 b3 04 07
        E 6 b3 04 08
        E 6 b3 04 08
        E 6 b3 04 08
        E 6 b3 04 08
        E 6 b3 04 08
        E 6 b3 04 09
        E 6 b3 04 09
        E 6 b3 04 09
        E 6 b3 04 09
        E 6 b3 04 09
        E 6 b3 04 0a
        E 6 b3 04 0a
        E 6 b3 04 0a
        E 6 b3 04 0a
        E 6 b3 04 0a
        E 6 b3 04 0b
        E 6 b3 04 0b
        E 6 b3 04 0b
        E 6 b3 04 0b
        E 6 b3 04 0b
        E 6 b3 04 0c
        E 6 b3 04 0c
        E 6 b3 04 0c
        E 6 b3 04 0c
        E 6 b3 04 0c
        E 6 b3 04 0c
        E 6 b3 04 0c
        E 6 b3 04 0c
        E 6 b3 04 0c
        E 6 b3 04 0b
        E 6 b3 04 0b
        E 6 b3 04 0b
        E 6 b3 04 0b
        E 6 b3 04 0b
        E 6 b3 04 0a
        E 6 b3 04 0a
        E 6 b3 04 0a
        E 6 b3 04 0a
        E 6 b3 04 0a
        E 6 b3 04 09
        E 6 b3 04 09
        E 6 b3 04 09
        E 6 b3 04 09
        E 6 b3 04 09
        E 6 b3 04 08
        E 6 b3 04 08
        E 6 b3 04 08
        E 6 b3 04 08
        E 6 b3 04 08
        E 6 b3 04 07
        E 6 b3 04 07
        E 6 b3 04 07
        E 6 b3 04 07
        E 6 b3 04 07
        E 6 b3 04 06
        E 6 b3 04 06
        E 6 b3 04 06
        E 6 b3 04 06
        E 6 b3 04 06
        E 6 b3 04 05
        E 6 b3 04 05
        E 6 b3 04 05
        E 6 b3 04 05
        E 6 b3 04 05
        E 6 b3 04 04
        E 6 b3 04 04
        E 6 b3 04 04
        E 6 b3 04 04
        E 6 b3 04 04
        E 6 b3 04 03
        E 6 b3 04 03
        E 6 b3 04 03
        E 6 b3 04 03
        E 6 b3 04 03
        E 6 b3 04 02
        E 6 b3 04 02
        E 6 b3 04 02
        E 6 b3 04 02
        E 6 b3 04 02
        E 6 b3 04 01
        E 6 b3 04 01
        E 6 b3 04 01
        E 6 b3 04 01
        E 6 b3 04 01
        E 6 b3 04 00
        E 6 b3 04 00
        E 6 b3 04 00
        E 6 b3 04 00
        E 6 b3 04 00
        E 1 b3 04 01
        E 1 b3 04 03
        E 1 b3 04 04
        E 1 b3 04 06
        E 1 b3 04 07
        E 1 b3 04 09
        E 1 b3 04 0b
        E 1 b3 04 0c
        E 1 b3 04 0e
        E 1 b3 04 0f
        E 1 b3 04 11
        E 1 b3 04 13
        E 1 b3 04 14
        E 1 b3 04 16
        E 1 b3 04 17
        E 1 b3 04 19
        E 1 b3 04 1b
        E 1 b3 04 1c
        E 1 b3 04 1e
        E 1 b3 04 1f
        E 1 b3 04 21
        E 1 b3 04 23
        E 1 b3 04 24
        E 1 b3 04 26
        E 1 b3 04 28
        E 1 b3 04 29
        E 1 b3 04 2b
        E 1 b3 04 2c
        E 1 b3 04 2e
        E 1 b3 04 2f
        E 1 b3 04 31
        E 1 b3 04 33
        E 1 b3 04 34
        E 1 b3 04 36
        E 1 b3 04 37
        E 1 b3 04 39
        E 1 b3 04 3b
        E 1 b3 04 3c
        E 1 b3 04 3e
        E 1 b3 04 3f
        E 1 b3 04 41
        E 1 b3 04 43
        E 1 b3 04 44
        E 1 b3 04 46
        E 1 b3 04 48
        E 1 b3 04 49
        E 1 b3 04 4b
        E 1 b3 04 4c
        E 1 b3 04 4e
        E 1 b3 04 50
        E 1 b3 04 51
        E 1 b3 04 53
        E 1 b3 04 54
        E 1 b3 04 56
        E 1 b3 04 57
        E 1 b3 04 59
        E 1 b3 04 5b
        E 1 b3 04 5c
        E 1 b3 04 5e
        E 1 b3 04 5f
        E 1 b3 04 61
        E 1 b3 04 63
        E 1 b3 04 64
        E 1 b3 04 65
        E 1 b3 04 64
        E 1 b3 04 63
        E 1 b3 04 61
        E 1 b3 04 5f
        E 1 b3 04 5e
        E 1 b3 04 5c
        E 1 b3 04 5b
        E 1 b3 04 59
        E 1 b3 04 57
        E 1 b3 04 56
        E 1 b3 04 54
        E 1 b3 04 53
        E 1 b3 04 51
        E 1 b3 04 50
        E 1 b3 04 4e
        E 1 b3 04 4c
        E 1 b3 04 4b
        E 1 b3 04 49
        E 1 b3 04 48
        E 1 b3 04 46
        E 1 b3 04 44
        E 1 b3 04 43
        E 1 b3 04 41
        E 1 b3 04 3f
        E 1 b3 04 3e
        E 1 b3 04 3c
        E 1 b3 04 3b
        E 1 b3 04 39
        E 1 b3 04 37
        E 1 b3 04 36
        E 1 b3 04 34
        E 1 b3 04 33
        E 1 b3 04 31
        E 1 b3 04 2f
        E 1 b3 04 2e
        E 1 b3 04 2c
        E 1 b3 04 2b
        E 1 b3 04 29
        E 1 b3 04 28
        E 1 b3 04 26
        E 1 b3 04 24
        E 1 b3 04 23
        E 1 b3 04 21
        E 1 b3 04 1f
        E 1 b3 04 1e
        E 1 b3 04 1c
        E 1 b3 04 1b
        E 1 b3 04 19
        E 1 b3 04 17
        E 1 b3 04 16
        E 1 b3 04 14
        E 1 b3 04 13
        E 1 b3 04 11
        E 1 b3 04 0f
        E 1 b3 04 0e
        E 1 b3 04 0c
        E 1 b3 04 0b
        E 1 b3 04 09
        E 1 b3 04 07
        E 1 b3 04 06
        E 1 b3 04 04
        E 1 b3 04 03
        E 1 b3 04 01
        E 1 b3 04 00
        E 6 b3 04 01
        E 6 b3 04 03
        E 6 b3 04 04
        E 6 b3 04 06
        E 6 b3 04 07
        E 6 b3 04 09
        E 6 b3 04 0b
        E 6 b3 04 0c
        E 6 b3 04 0e
        E 6 b3 04 0f
        E 6 b3 04 11
        E 6 b3 04 13
        E 6 b3 04 14
        E 6 b3 04 16
        E 6 b3 04 17
        E 6 b3 04 19
        E 6 b3 04 1b
        E 6 b3 04 1c
        E 6 b3 04 1e
        E 6 b3 04 1f
        E 6 b3 04 21
        E 6 b3 04 23
        E 6 b3 04 24
        E 6 b3 04 26
        E 6 b3 04 28
        E 6 b3 04 29
        E 6 b3 04 2b
        E 6 b3 04 2c
        E 6 b3 04 2e
        E 6 b3 04 2f
        E 6 b3 04 31
        E 6 b3 04 33
        E 6 b3 04 34
        E 6 b3 04 36
        E 6 b3 04 37
        E 6 b3 04 39
        E 6 b3 04 3b
        E 6 b3 04 3c
        E 6 b3 04 3e
        E 6 b3 04 3f
        E 6 b3 04 41
        E 6 b3 04 43
        E 6 b3 04 44
        E 6 b3 04 46
        E 6 b3 04 48
        E 6 b3 04 49
        E 6 b3 04 4b
        E 6 b3 04 4c
        E 6 b3 04 4e
        E 6 b3 04 50
        E 6 b3 04 51
        E 6 b3 04 53
        E 6 b3 04 54
        E 6 b3 04 56
        E 6 b3 04 57
        E 6 b3 04 59
        E 6 b3 04 5b
        E 6 b3 04 5c
        E 6 b3 04 5e
        E 6 b3 04 5f
        E 6 b3 04 61
        E 6 b3 04 63
        E 6 b3 04 64
        E 6 b3 04 65
        E 6 b3 04 64
        E 6 b3 04 63
        E 6 b3 04 61
        E 6 b3 04 5f
        E 6 b3 04 5e
        E 6 b3 04 5c
        E 6 b3 04 5b
        E 6 b3 04 59
        E 6 b3 04 57
        E 6 b3 04 56
        E 6 b3 04 54
        E 6 b3 04 53
        E 6 b3 04 51
        E 6 b3 04 50
        E 6 b3 04 4e
        E 6 b3 04 4c
        E 6 b3 04 4b
        E 6 b3 04 49
        E 6 b3 04 48
        E 6 b3 04 46
        E 6 b3 04 44
        E 6 b3 04 43
        E 6 b3 04 41
        E 6 b3 04 3f
        E 6 b3 04 3e
        E 6 b3 04 3c
        E 6 b3 04 3b
        E 6 b3 04 39
        E 6 b3 04 37
        E 6 b3 04 36
        E 6 b3 04 34
        E 6 b3 04 33
        E 6 b3 04 31
        E 6 b3 04 2f
        E 6 b3 04 2e
        E 6 b3 04 2c
        E 6 b3 04 2b
        E 6 b3 04 29
        E 6 b3 04 28
        E 6 b3 04 26
        E 6 b3 04 24
        E 6 b3 04 23
        E 6 b3 04 21
        E 6 b3 04 1f
        E 6 b3 04 1e
        E 6 b3 04 1c
        E 6 b3 04 1b
        E 6 b3 04 19
        E 6 b3 04 17
        E 6 b3 04 16
        E 6 b3 04 14
        E 6 b3 04 13
        E 6 b3 04 11
        E 6 b3 04 0f
        E 6 b3 04 0e
        E 6 b3 04 0c
        E 6 b3 04 0b
        E 6 b3 04 09
        E 6 b3 04 07
        E 6 b3 04 06
        E 6 b3 04 04
        E 6 b3 04 03
        E 6 b3 04 01
        E 6 b3 04 00
        E 7 b3 04 19
        E 7 b3 04 56
        E 7 b3 04 38
        E 7 b3 04 09
        E 7 b3 04 51
        E 7 b3 04 48
        E 7 b3 04 0a
        E 7 b3 04 09
        E 7 b3 04 36
        E 7 b3 04 6c
        E 7 b3 04 5a
        E 7 b3 04 63
        E 7 b3 04 47
        E 7 b3 04 0c
        E 7 b3 04 15
        E 7 b3 04 4d
        E 7 b3 04 3f
        E 7 b3 04 20
        E 7 b3 04 16
        E 7 b3 04 1e
        E 7 b3 04 59
        E 7 b3 04 35
        E 7 b3 04 1b
        E 7 b3 04 41
        E 7 b3 04 71
        E 7 b3 04 00
        E 7 b3 04 0e
        E 7 b3 04 2e
        E 7 b3 04 26
        E 7 b3 04 5d
        E 7 b3 04 18
        E 7 b3 04 07
        E 7 b3 04 12
        E 7 b3 04 13
        E 7 b3 04 67
        E 7 b3 04 1c
        E 7 b3 04 00
        E 7 b3 04 54
        E 7 b3 04 27
        E 7 b3 04 17
        E 7 b3 04 2d
        E 7 b3 04 1d
        E 7 b3 04 61
        E 7 b3 04 60
        E 7 b3 04 72
        E 7 b3 04 5f
        E 7 b3 04 31
        E 7 b3 04 6a
        E 7 b3 04 51
        E 7 b3 04 0d
        E 7 b3 04 32
        E 7 b3 04 3d
        E 7 b3 04 6c
        E 7 b3 04 57
        E 7 b3 04 3e
        E 7 b3 04 3f
        E 7 b3 04 05
        E 7 b3 04 0b
        E 7 b3 04 69
        E 7 b3 04 5b
        E 7 b3 04 30
        E 7 b3 04 24
        E 7 b3 04 0f
        E 7 b3 04 33
        E 7 b3 04 22
        E 7 b3 04 1b
        E 7 b3 04 2b
        E 7 b3 04 3b
        E 7 b3 04 45
        E 7 b3 04 49
        E 7 b3 04 12
        E 7 b3 04 44
        E 7 b3 04 65
        E 7 b3 04 3a
        E 7 b3 04 42
        E 7 b3 04 02
        E 7 b3 04 08
        E 7 b3 04 70
        E 7 b3 04 4a
        E 7 b3 04 14
        E 7 b3 04 68
        E 7 b3 04 24
        E 7 b3 04 2c
        E 7 b3 04 37
        E 7 b3 04 2d
        E 7 b3 04 4c
        E 7 b3 04 5c
        E 7 b3 04 21
        E 7 b3 04 40
        E 7 b3 04 1a
        E 7 b3 04 66
        E 7 b3 04 5e
        E 7 b3 04 34
        E 7 b3 04 29
        E 7 b3 04 5a
        E 7 b3 04 2a
        E 7 b3 04 50
        E 7 b3 04 10
        E 7 b3 04 01
        E 7 b3 04 25
        E 7 b3 04 39
        E 7 b3 04 62
        E 7 b3 04 58
        E 7 b3 04 03
        E 7 b3 04 63
        E 7 b3 04 53
        E 7 b3 04 06
        E 7 b3 04 23
        E 7 b3 04 43
        E 7 b3 04 55
        E 7 b3 04 6d
        E 7 b3 04 46
        E 7 b3 04 2f
        E 7 b3 04 1f
        E 7 b3 04 4f
        E 7 b3 04 52
        E 7 b3 04 64
        E 7 b3 04 6f
        E 7 b3 04 36
        E 7 b3 04 48
        E 7 b3 04 4e
        E 7 b3 04 3c
        E 7 b3 04 6b
        E 7 b3 04 11
        E 7 b3 04 28
        E 7 b3 04 4b
        E 14 b3 04 02
        E 14 b3 04 09
        E 14 b3 04 06
        E 14 b3 04 01
        E 14 b3 04 09
        E 14 b3 04 08
        E 14 b3 04 01
        E 14 b3 04 01
        E 14 b3 04 06
        E 14 b3 04 0c
        E 14 b3 04 0a
        E 14 b3 04 0b
        E 14 b3 04 07
        E 14 b3 04 01
        E 14 b3 04 02
        E 14 b3 04 08
        E 14 b3 04 07
        E 14 b3 04 03
        E 14 b3 04 02
        E 14 b3 04 03
        E 14 b3 04 09
        E 14 b3 04 05
        E 14 b3 04 03
        E 14 b3 04 07
        E 14 b3 04 0c
        E 14 b3 04 00
        E 14 b3 04 01
        E 14 b3 04 05
        E 14 b3 04 04
        E 14 b3 04 0a
        E 14 b3 04 02
        E 14 b3 04 00
        E 14 b3 04 02
        E 14 b3 04 02
        E 14 b3 04 0b
        E 14 b3 04 03
        E 14 b3 04 00
        E 14 b3 04 09
        E 14 b3 04 04
        E 14 b3 04 02
        E 14 b3 04 05
        E 14 b3 04 03
        E 14 b3 04 0a
        E 14 b3 04 0a
        E 14 b3 04 0c
        E 14 b3 04 0a
        E 14 b3 04 05
        E 14 b3 04 0b
        E 14 b3 04 09
        E 14 b3 04 01
        E 14 b3 04 05
        E 14 b3 04 06
        E 14 b3 04 0c
        E 14 b3 04 09
        E 14 b3 04 06
        E 14 b3 04 07
        E 14 b3 04 00
        E 14 b3 04 01
        E 14 b3 04 0b
        E 14 b3 04 0a
        E 14 b3 04 05
        E 14 b3 04 04
        E 14 b3 04 01
        E 14 b3 04 05
        E 14 b3 04 03
        E 14 b3 04 03
        E 14 b3 04 04
        E 14 b3 04 06
        E 14 b3 04 07
        E 14 b3 04 08
        E 14 b3 04 02
        E 14 b3 04 07
        E 14 b3 04 0b
        E 14 b3 04 06
        E 14 b3 04 07
        E 14 b3 04 00
        E 14 b3 04 00
        E 14 b3 04 0c
        E 14 b3 04 08
        E 14 b3 04 02
        E 14 b3 04 0b
        E 14 b3 04 04
        E 14 b3 04 04
        E 14 b3 04 06
        E 14 b3 04 05
        E 14 b3 04 08
        E 14 b3 04 0a
        E 14 b3 04 03
        E 14 b3 04 07
        E 14 b3 04 02
        E 14 b3 04 0b
        E 14 b3 04 0a
        E 14 b3 04 05
        E 14 b3 04 04
        E 14 b3 04 0a
        E 14 b3 04 04
        E 14 b3 04 08
        E 14 b3 04 01
        E 14 b3 04 00
        E 14 b3 04 04
        E 14 b3 04 06
        E 14 b3 04 0a
        E 14 b3 04 09
        E 14 b3 04 00
        E 14 b3 04 0b
        E 14 b3 04 09
        E 14 b3 04 00
        E 14 b3 04 03
        E 14 b3 04 07
        E 14 b3 04 09
        E 14 b3 04 0c
        E 14 b3 04 07
        E 14 b3 04 05
        E 14 b3 04 03
        E 14 b3 04 08
        E 14 b3 04 09
        E 14 b3 04 0b
        E 14 b3 04 0c
        E 14 b3 04 06
        E 14 b3 04 08
        E 14 b3 04 08
        E 14 b3 04 06
        E 14 b3 04 0b
        E 14 b3 04 01
        E 14 b3 04 04
        E 14 b3 04 08
        E 3 b3 04 16
        E 3 b3 04 4c
        E 3 b3 04 32
        E 3 b3 04 07
        E 3 b3 04 48
        E 3 b3 04 3f
        E 3 b3 04 09
        E 3 b3 04 08
        E 3 b3 04 30
        E 3 b3 04 5f
        E 3 b3 04 50
        E 3 b3 04 58
        E 3 b3 04 3f
        E 3 b3 04 0b
        E 3 b3 04 13
        E 3 b3 04 44
        E 3 b3 04 37
        E 3 b3 04 1c
        E 3 b3 04 14
        E 3 b3 04 1b
        E 3 b3 04 4f
        E 3 b3 04 2f
        E 3 b3 04 17
        E 3 b3 04 3a
        E 3 b3 04 64
        E 3 b3 04 00
        E 3 b3 04 0c
        E 3 b3 04 29
        E 3 b3 04 22
        E 3 b3 04 53
        E 3 b3 04 15
        E 3 b3 04 06
        E 3 b3 04 0f
        E 3 b3 04 11
        E 3 b3 04 5b
        E 3 b3 04 19
        E 3 b3 04 00
        E 3 b3 04 4b
        E 3 b3 04 23
        E 3 b3 04 14
        E 3 b3 04 28
        E 3 b3 04 1a
        E 3 b3 04 56
        E 3 b3 04 55
        E 3 b3 04 65
        E 3 b3 04 54
        E 3 b3 04 2b
        E 3 b3 04 5e
        E 3 b3 04 48
        E 3 b3 04 0b
        E 3 b3 04 2c
        E 3 b3 04 36
        E 3 b3 04 60
        E 3 b3 04 4d
        E 3 b3 04 37
        E 3 b3 04 38
        E 3 b3 04 04
        E 3 b3 04 0a
        E 3 b3 04 5d
        E 3 b3 04 51
        E 3 b3 04 2b
        E 3 b3 04 1f
        E 3 b3 04 0d
        E 3 b3 04 2d
        E 3 b3 04 1e
        E 3 b3 04 18
        E 3 b3 04 26
        E 3 b3 04 34
        E 3 b3 04 3d
        E 3 b3 04 41
        E 3 b3 04 10
        E 3 b3 04 3c
        E 3 b3 04 5a
        E 3 b3 04 33
        E 3 b3 04 3b
        E 3 b3 04 02
        E 3 b3 04 07
        E 3 b3 04 63
        E 3 b3 04 42
        E 3 b3 04 12
        E 3 b3 04 5c
        E 3 b3 04 20
        E 3 b3 04 27
        E 3 b3 04 31
        E 3 b3 04 28
        E 3 b3 04 44
        E 3 b3 04 52
        E 3 b3 04 1d
        E 3 b3 04 39
        E 3 b3 04 17
        E 3 b3 04 5b
        E 3 b3 04 54
        E 3 b3 04 2e
        E 3 b3 04 24
        E 3 b3 04 50
        E 3 b3 04 25
        E 3 b3 04 47
        E 3 b3 04 0e
        E 3 b3 04 01
        E 3 b3 04 21
        E 3 b3 04 33
        E 3 b3 04 57
        E 3 b3 04 4e
        E 3 b3 04 03
        E 3 b3 04 57
        E 3 b3 04 4a
        E 3 b3 04 05
        E 3 b3 04 1f
        E 3 b3 04 3b
        E 3 b3 04 4c
        E 3 b3 04 61
        E 3 b3 04 3e
        E 3 b3 04 2a
        E 3 b3 04 1b
        E 3 b3 04 46
        E 3 b3 04 49
        E 3 b3 04 59
        E 3 b3 04 63
        E 3 b3 04 2f
        E 3 b3 04 40
        E 3 b3 04 45
        E 3 b3 04 35
        E 3 b3 04 5f
        E 3 b3 04 0f
        E 3 b3 04 24
        E 3 b3 04 43
        E 14 b3 04 16
        E 14 b3 04 4c
        E 14 b3 04 32
        E 14 b3 04 07
        E 14 b3 04 48
        E 14 b3 04 3f
        E 14 b3 04 09
        E 14 b3 04 08
        E 14 b3 04 30
        E 14 b3 04 5f
        E 14 b3 04 50
        E 14 b3 04 58
        E 14 b3 04 3f
        E 14 b3 04 0b
        E 14 b3 04 13
        E 14 b3 04 44
        E 14 b3 04 37
        E 14 b3 04 1c
        E 14 b3 04 14
        E 14 b3 04 1b
        E 14 b3 04 4f
        E 14 b3 04 2f
        E 14 b3 04 17
        E 14 b3 04 3a
        E 14 b3 04 64
        E 14 b3 04 00
        E 14 b3 04 0c
        E 14 b3 04 29
        E 14 b3 04 22
        E 14 b3 04 53
        E 14 b3 04 15
        E 14 b3 04 06
        E 14 b3 04 0f
        E 14 b3 04 11
        E 14 b3 04 5b
        E 14 b3 04 19
        E 14 b3 04 00
        E 14 b3 04 4b
        E 14 b3 04 23
        E 14 b3 04 14
        E 14 b3 04 28
        E 14 b3 04 1a
        E 14 b3 04 56
        E 14 b3 04 55
        E 14 b3 04 65
        E 14 b3 04 54
        E 14 b3 04 2b
        E 14 b3 04 5e
        E 14 b3 04 48
        E 14 b3 04 0b
        E 14 b3 04 2c
        E 14 b3 04 36
        E 14 b3 04 60
        E 14 b3 04 4d
        E 14 b3 04 37
        E 14 b3 04 38
        E 14 b3 04 04
        E 14 b3 04 0a
        E 14 b3 04 5d
        E 14 b3 04 51
        E 14 b3 04 2b
        E 14 b3 04 1f
        E 14 b3 04 0d
        E 14 b3 04 2d
        E 14 b3 04 1e
        E 14 b3 04 18
        E 14 b3 04 26
        E 14 b3 04 34
        E 14 b3 04 3d
        E 14 b3 04 41
        E 14 b3 04 10
        E 14 b3 04 3c
        E 14 b3 04 5a
        E 14 b3 04 33
        E 14 b3 04 3b
        E 14 b3 04 02
        E 14 b3 04 07
        E 14 b3 04 63
        E 14 b3 04 42
        E 14 b3 04 12
        E 14 b3 04 5c
        E 14 b3 04 20
        E 14 b3 04 27
        E 14 b3 04 31
        E 14 b3 04 28
        E 14 b3 04 44
        E 14 b3 04 52
        E 14 b3 04 1d
        E 14 b3 04 39
        E 14 b3 04 17
        E 14 b3 04 5b
        E 14 b3 04 54
        E 14 b3 04 2e
        E 14 b3 04 24
        E 14 b3 04 50
        E 14 b3 04 25
        E 14 b3 04 47
        E 14 b3 04 0e
        E 14 b3 04 01
        E 14 b3 04 21
        E 14 b3 04 33
        E 14 b3 04 57
        E 14 b3 04 4e
        E 14 b3 04 03
        E 14 b3 04 57
        E 14 b3 04 4a
        E 14 b3 04 05
        E 14 b3 04 1f
        E 14 b3 04 3b
        E 14 b3 04 4c
        E 14 b3 04 61
        E 14 b3 04 3e
        E 14 b3 04 2a
        E 14 b3 04 1b
        E 14 b3 04 46
        E 14 b3 04 49
        E 14 b3 04 59
        E 14 b3 04 63
        E 14 b3 04 2f
        E 14 b3 04 40
        E 14 b3 04 45
        E 14 b3 04 35
        E 14 b3 04 5f
        E 14 b3 04 0f
        E 14 b3 04 24
        E 14 b3 04 43
        E 7 b3 04 19
        E 7 b3 04 56
        E 7 b3 04 38
        E 7 b3 04 09
        E 7 b3 04 51
        E 7 b3 04 48
        E 7 b3 04 0a
        E 7 b3 04 09
        E 7 b3 04 36
        E 7 b3 04 6c
        E 7 b3 04 5a
        E 7 b3 04 63
        E 7 b3 04 47
        E 7 b3 04 0c
        E 7 b3 04 15
        E 7 b3 04 4d
        E 7 b3 04 3f
        E 7 b3 04 20
        E 7 b3 04 16
        E 7 b3 04 1e
        E 7 b3 04 59
        E 7 b3 04 35
        E 7 b3 04 1b
        E 7 b3 04 41
        E 7 b3 04 71
        E 7 b3 04 00
        E 7 b3 04 0e
        E 7 b3 04 2e
        E 7 b3 04 26
        E 7 b3 04 5d
        E 7 b3 04 18
        E 7 b3 04 07
        E 7 b3 04 12
        E 7 b3 04 13
        E 7 b3 04 67
        E 7 b3 04 1c
        E 7 b3 04 00
        E 7 b3 04 54
        E 7 b3 04 27
        E 7 b3 04 17
        E 7 b3 04 2d
        E 7 b3 04 1d
        E 7 b3 04 61
        E 7 b3 04 60
        E 7 b3 04 72
        E 7 b3 04 5f
        E 7 b3 04 31
        E 7 b3 04 6a
        E 7 b3 04 51
        E 7 b3 04 0d
        E 7 b3 04 32
        E 7 b3 04 3d
        E 7 b3 04 6c
        E 7 b3 04 57
        E 7 b3 04 3e
        E 7 b3 04 3f
        E 7 b3 04 05
        E 7 b3 04 0b
        E 7 b3 04 69
        E 7 b3 04 5b
        E 7 b3 04 30
        E 7 b3 04 24
        E 7 b3 04 0f
        E 7 b3 04 33
        E 7 b3 04 22
        E 7 b3 04 1b
        E 7 b3 04 2b
        E 7 b3 04 3b
        E 7 b3 04 45
        E 7 b3 04 49
        E 7 b3 04 12
        E 7 b3 04 44
        E 7 b3 04 65
        E 7 b3 04 3a
        E 7 b3 04 42
        E 7 b3 04 02
        E 7 b3 04 08
        E 7 b3 04 70
        E 7 b3 04 4a
        E 7 b3 04 14
        E 7 b3 04 68
        E 7 b3 04 24
        E 7 b3 04 2c
        E 7 b3 04 37
        E 7 b3 04 2d
        E 7 b3 04 4c
        E 7 b3 04 5c
        E 7 b3 04 21
        E 7 b3 04 40
        E 7 b3 04 1a
        E 7 b3 04 66
        E 7 b3 04 5e
        E 7 b3 04 34
        E 7 b3 04 29
        E 7 b3 04 5a
        E 7 b3 04 2a
        E 7 b3 04 50
        E 7 b3 04 10
        E 7 b3 04 01
        E 7 b3 04 25
        E 7 b3 04 39
        E 7 b3 04 62
        E 7 b3 04 58
        E 7 b3 04 03
        E 7 b3 04 63
        E 7 b3 04 53
        E 7 b3 04 06
        E 7 b3 04 23
        E 7 b3 04 43
        E 7 b3 04 55
        E 7 b3 04 6d
        E 7 b3 04 46
        E 7 b3 04 2f
        E 7 b3 04 1f
        E 7 b3 04 4f
        E 7 b3 04 52
        E 7 b3 04 64
        E 7 b3 04 6f
        E 7 b3 04 36
        E 7 b3 04 48
        E 7 b3 04 4e
        E 7 b3 04 3c
        E 7 b3 04 6b
        E 7 b3 04 11
        E 7 b3 04 28
        E 7 b3 04 4b
        E 14 b3 04 02
        E 14 b3 04 09
        E 14 b3 04 06
        E 14 b3 04 01
        E 14 b3 04 09
        E 14 b3 04 08
        E 14 b3 04 01
        E 14 b3 04 01
        E 14 b3 04 06
        E 14 b3 04 0c
        E 14 b3 04 0a
        E 14 b3 04 0b
        E 14 b3 04 07
        E 14 b3 04 01
        E 14 b3 04 02
        E 14 b3 04 08
        E 14 b3 04 07
        E 14 b3 04 03
        E 14 b3 04 02
        E 14 b3 04 03
        E 14 b3 04 09
        E 14 b3 04 05
        E 14 b3 04 03
        E 14 b3 04 07
        E 14 b3 04 0c
        E 14 b3 04 00
        E 14 b3 04 01
        E 14 b3 04 05
        E 14 b3 04 04
        E 14 b3 04 0a
        E 14 b3 04 02
        E 14 b3 04 00
        E 14 b3 04 02
        E 14 b3 04 02
        E 14 b3 04 0b
        E 14 b3 04 03
        E 14 b3 04 00
        E 14 b3 04 09
        E 14 b3 04 04
        E 14 b3 04 02
        E 14 b3 04 05
        E 14 b3 04 03
        E 14 b3 04 0a
        E 14 b3 04 0a
        E 14 b3 04 0c
        E 14 b3 04 0a
        E 14 b3 04 05
        E 14 b3 04 0b
        E 14 b3 04 09
        E 14 b3 04 01
        E 14 b3 04 05
        E 14 b3 04 06
        E 14 b3 04 0c
        E 14 b3 04 09
        E 14 b3 04 06
        E 14 b3 04 07
        E 14 b3 04 00
        E 14 b3 04 01
        E 14 b3 04 0b
        E 14 b3 04 0a
        E 14 b3 04 05
        E 14 b3 04 04
        E 14 b3 04 01
        E 14 b3 04 05
        E 14 b3 04 03
        E 14 b3 04 03
        E 14 b3 04 04
        E 14 b3 04 06
        E 14 b3 04 07
        E 14 b3 04 08
        E 14 b3 04 02
        E 14 b3 04 07
        E 14 b3 04 0b
        E 14 b3 04 06
        E 14 b3 04 07
        E 14 b3 04 00
        E 14 b3 04 00
        E 14 b3 04 0c
        E 14 b3 04 08
        E 14 b3 04 02
        E 14 b3 04 0b
        E 14 b3 04 04
        E 14 b3 04 04
        E 14 b3 04 06
        E 14 b3 04 05
        E 14 b3 04 08
        E 14 b3 04 0a
        E 14 b3 04 03
        E 14 b3 04 07
        E 14 b3 04 02
        E 14 b3 04 0b
        E 14 b3 04 0a
        E 14 b3 04 05
        E 14 b3 04 04
        E 14 b3 04 0a
        E 14 b3 04 04
        E 14 b3 04 08
        E 14 b3 04 01
        E 14 b3 04 00
        E 14 b3 04 04
        E 14 b3 04 06
        E 14 b3 04 0a
        E 14 b3 04 09
        E 14 b3 04 00
        E 14 b3 04 0b
        E 14 b3 04 09
        E 14 b3 04 00
        E 14 b3 04 03
        E 14 b3 04 07
        E 14 b3 04 09
        E 14 b3 04 0c
        E 14 b3 04 07
        E 14 b3 04 05
        E 14 b3 04 03
        E 14 b3 04 08
        E 14 b3 04 09
        E 14 b3 04 0b
        E 14 b3 04 0c
        E 14 b3 04 06
        E 14 b3 04 08
        E 14 b3 04 08
        E 14 b3 04 06
        E 14 b3 04 0b
        E 14 b3 04 01
        E 14 b3 04 04
        E 14 b3 04 08
        E 3 b3 04 16
        E 3 b3 04 4c
        E 3 b3 04 32
        E 3 b3 04 07
        E 3 b3 04 48
        E 3 b3 04 3f
        E 3 b3 04 09
        E 3 b3 04 08
        E 3 b3 04 30
        E 3 b3 04 5f
        E 3 b3 04 50
        E 3 b3 04 58
        E 3 b3 04 3f
        E 3 b3 04 0b
        E 3 b3 04 13
        E 3 b3 04 44
        E 3 b3 04 37
        E 3 b3 04 1c
        E 3 b3 04 14
        E 3 b3 04 1b
        E 3 b3 04 4f
        E 3 b3 04 2f
        E 3 b3 04 17
        E 3 b3 04 3a
        E 3 b3 04 64
        E 3 b3 04 00
        E 3 b3 04 0c
        E 3 b3 04 29
        E 3 b3 04 22
        E 3 b3 04 53
        E 3 b3 04 15
        E 3 b3 04 06
        E 3 b3 04 0f
        E 3 b3 04 11
        E 3 b3 04 5b
        E 3 b3 04 19
        E 3 b3 04 00
        E 3 b3 04 4b
        E 3 b3 04 23
        E 3 b3 04 14
        E 3 b3 04 28
        E 3 b3 04 1a
        E 3 b3 04 56
        E 3 b3 04 55
        E 3 b3 04 65
        E 3 b3 04 54
        E 3 b3 04 2b
        E 3 b3 04 5e
        E 3 b3 04 48
        E 3 b3 04 0b
        E 3 b3 04 2c
        E 3 b3 04 36
        E 3 b3 04 60
        E 3 b3 04 4d
        E 3 b3 04 37
        E 3 b3 04 38
        E 3 b3 04 04
        E 3 b3 04 0a
        E 3 b3 04 5d
        E 3 b3 04 51
        E 3 b3 04 2b
        E 3 b3 04 1f
        E 3 b3 04 0d
        E 3 b3 04 2d
        E 3 b3 04 1e
        E 3 b3 04 18
        E 3 b3 04 26
        E 3 b3 04 34
        E 3 b3 04 3d
        E 3 b3 04 41
        E 3 b3 04 10
        E 3 b3 04 3c
        E 3 b3 04 5a
        E 3 b3 04 33
        E 3 b3 04 3b
        E 3 b3 04 02
        E 3 b3 04 07
        E 3 b3 04 63
        E 3 b3 04 42
        E 3 b3 04 12
        E 3 b3 04 5c
        E 3 b3 04 20
        E 3 b3 04 27
        E 3 b3 04 31
        E 3 b3 04 28
        E 3 b3 04 44
        E 3 b3 04 52
        E 3 b3 04 1d
        E 3 b3 04 39
        E 3 b3 04 17
        E 3 b3 04 5b
        E 3 b3 04 54
        E 3 b3 04 2e
        E 3 b3 04 24
        E 3 b3 04 50
        E 3 b3 04 25
        E 3 b3 04 47
        E 3 b3 04 0e
        E 3 b3 04 01
        E 3 b3 04 21
        E 3 b3 04 33
        E 3 b3 04 57
        E 3 b3 04 4e
        E 3 b3 04 03
        E 3 b3 04 57
        E 3 b3 04 4a
        E 3 b3 04 05
        E 3 b3 04 1f
        E 3 b3 04 3b
        E 3 b3 04 4c
        E 3 b3 04 61
        E 3 b3 04 3e
        E 3 b3 04 2a
        E 3 b3 04 1b
        E 3 b3 04 46
        E 3 b3 04 49
        E 3 b3 04 59
        E 3 b3 04 63
        E 3 b3 04 2f
        E 3 b3 04 40
        E 3 b3 04 45
        E 3 b3 04 35
        E 3 b3 04 5f
        E 3 b3 04 0f
        E 3 b3 04 24
        E 3 b3 04 43
        E 14 b3 04 16
        E 14 b3 04 4c
        E 14 b3 04 32
        E 14 b3 04 07
        E 14 b3 04 48
        E 14 b3 04 3f
        E 14 b3 04 09
        E 14 b3 04 08
        E 14 b3 04 30
        E 14 b3 04 5f
        E 14 b3 04 50
        E 14 b3 04 58
        E 14 b3 04 3f
        E 14 b3 04 0b
        E 14 b3 04 13
        E 14 b3 04 44
        E 14 b3 04 37
        E 14 b3 04 1c
        E 14 b3 04 14
        E 14 b3 04 1b
        E 14 b3 04 4f
        E 14 b3 04 2f
        E 14 b3 04 17
        E 14 b3 04 3a
        E 14 b3 04 64
        E 14 b3 04 00
        E 14 b3 04 0c
        E 14 b3 04 29
        E 14 b3 04 22
        E 14 b3 04 53
        E 14 b3 04 15
        E 14 b3 04 06
        E 14 b3 04 0f
        E 14 b3 04 11
        E 14 b3 04 5b
        E 14 b3 04 19
        E 14 b3 04 00
        E 14 b3 04 4b
        E 14 b3 04 23
        E 14 b3 04 14
        E 14 b3 04 28
        E 14 b3 04 1a
        E 14 b3 04 56
        E 14 b3 04 55
        E 14 b3 04 65
        E 14 b3 04 54
        E 14 b3 04 2b
        E 14 b3 04 5e
        E 14 b3 04 48
        E 14 b3 04 0b
        E 14 b3 04 2c
        E 14 b3 04 36
        E 14 b3 04 60
        E 14 b3 04 4d
        E 14 b3 04 37
        E 14 b3 04 38
        E 14 b3 04 04
        E 14 b3 04 0a
        E 14 b3 04 5d
        E 14 b3 04 51
        E 14 b3 04 2b
        E 14 b3 04 1f
        E 14 b3 04 0d
        E 14 b3 04 2d
        E 14 b3 04 1e
        E 14 b3 04 18
        E 14 b3 04 26
        E 14 b3 04 34
        E 14 b3 04 3d
        E 14 b3 04 41
        E 14 b3 04 10
        E 14 b3 04 3c
        E 14 b3 04 5a
        E 14 b3 04 33
        E 14 b3 04 3b
        E 14 b3 04 02
        E 14 b3 04 07
        E 14 b3 04 63
        E 14 b3 04 42
        E 14 b3 04 12
        E 14 b3 04 5c
        E 14 b3 04 20
        E 14 b3 04 27
        E 14 b3 04 31
        E 14 b3 04 28
        E 14 b3 04 44
        E 14 b3 04 52
        E 14 b3 04 1d
        E 14 b3 04 39
        E 14 b3 04 17
        E 14 b3 04 5b
        E 14 b3 04 54
        E 14 b3 04 2e
        E 14 b3 04 24
        E 14 b3 04 50
        E 14 b3 04 25
        E 14 b3 04 47
        E 14 b3 04 0e
        E 14 b3 04 01
        E 14 b3 04 21
        E 14 b3 04 33
        E 14 b3 04 57
        E 14 b3 04 4e
        E 14 b3 04 03
        E 14 b3 04 57
        E 14 b3 04 4a
        E 14 b3 04 05
        E 14 b3 04 1f
        E 14 b3 04 3b
        E 14 b3 04 4c
        E 14 b3 04 61
        E 14 b3 04 3e
        E 14 b3 04 2a
        E 14 b3 04 1b
        E 14 b3 04 46
        E 14 b3 04 49
        E 14 b3 04 59
        E 14 b3 04 63
        E 14 b3 04 2f
        E 14 b3 04 40
        E 14 b3 04 45
        E 14 b3 04 35
        E 14 b3 04 5f
        E 14 b3 04 0f
        E 14 b3 04 24
        E 14 b3 04 43
        E 7 b3 04 19
        E 7 b3 04 56
        E 7 b3 04 38
        E 7 b3 04 09
        E 7 b3 04 51
        E 7 b3 04 48
        E 7 b3 04 0a
        E 7 b3 04 09
        E 7 b3 04 36
        E 7 b3 04 6c
        E 7 b3 04 5a
        E 7 b3 04 63
        E 7 b3 04 47
        E 7 b3 04 0c
        E 7 b3 04 15
        E 7 b3 04 4d
        E 7 b3 04 3f
        E 7 b3 04 20
        E 7 b3 04 16
        E 7 b3 04 1e
        E 7 b3 04 59
        E 7 b3 04 35
        E 7 b3 04 1b
        E 7 b3 04 41
        E 7 b3 04 71
        E 7 b3 04 00
        E 7 b3 04 0e
        E 7 b3 04 2e
        E 7 b3 04 26
        E 7 b3 04 5d
        E 7 b3 04 18
        E 7 b3 04 07
        E 7 b3 04 12
        E 7 b3 04 13
        E 7 b3 04 67
        E 7 b3 04 1c
        E 7 b3 04 00
        E 7 b3 04 54
        E 7 b3 04 27
        E 7 b3 04 17
        E 7 b3 04 2d
        E 7 b3 04 1d
        E 7 b3 04 61
        E 7 b3 04 60
        E 7 b3 04 72
        E 7 b3 04 5f
        E 7 b3 04 31
        E 7 b3 04 6a
        E 7 b3 04 51
        E 7 b3 04 0d
        E 7 b3 04 32
        E 7 b3 04 3d
        E 7 b3 04 6c
        E 7 b3 04 57
        E 7 b3 04 3e
        E 7 b3 04 3f
        E 7 b3 04 05
        E 7 b3 04 0b
        E 7 b3 04 69
        E 7 b3 04 5b
        E 7 b3 04 30
        E 7 b3 04 24
        E 7 b3 04 0f
        E 7 b3 04 33
        E 7 b3 04 22
        E 7 b3 04 1b
        E 7 b3 04 2b
        E 7 b3 04 3b
        E 7 b3 04 45
        E 7 b3 04 49
        E 7 b3 04 12
        E 7 b3 04 44
        E 7 b3 04 65
        E 7 b3 04 3a
        E 7 b3 04 42
        E 7 b3 04 02
        E 7 b3 04 08
        E 7 b3 04 70
        E 7 b3 04 4a
        E 7 b3 04 14
        E 7 b3 04 68
        E 7 b3 04 24
        E 7 b3 04 2c
        E 7 b3 04 37
        E 7 b3 04 2d
        E 7 b3 04 4c
        E 7 b3 04 5c
        E 7 b3 04 21
        E 7 b3 04 40
        E 7 b3 04 1a
        E 7 b3 04 66
        E 7 b3 04 5e
        E 7 b3 04 34
        E 7 b3 04 29
        E 7 b3 04 5a
        E 7 b3 04 2a
        E 7 b3 04 50
        E 7 b3 04 10
        E 7 b3 04 01
        E 7 b3 04 25
        E 7 b3 04 39
        E 7 b3 04 62
        E 7 b3 04 58
        E 7 b3 04 03
        E 7 b3 04 63
        E 7 b3 04 53
        E 7 b3 04 06
        E 7 b3 04 23
        E 7 b3 04 43
        E 7 b3 04 55
        E 7 b3 04 6d
        E 7 b3 04 46
        E 7 b3 04 2f
        E 7 b3 04 1f
        E 7 b3 04 4f
        E 7 b3 04 52
        E 7 b3 04 64
        E 7 b3 04 6f
        E 7 b3 04 36
        E 7 b3 04 48
        E 7 b3 04 4e
        E 7 b3 04 3c
        E 7 b3 04 6b
        E 7 b3 04 11
        E 7 b3 04 28
        E 7 b3 04 4b
        E 14 b3 04 02
        E 14 b3 04 09
        E 14 b3 04 06
        E 14 b3 04 01
        E 14 b3 04 09
        E 14 b3 04 08
        E 14 b3 04 01
        E 14 b3 04 01
        E 14 b3 04 06
        E 14 b3 04 0c
        E 14 b3 04 0a
        E 14 b3 04 0b
        E 14 b3 04 07
        E 14 b3 04 01
        E 14 b3 04 02
        E 14 b3 04 08
        E 14 b3 04 07
        E 14 b3 04 03
        E 14 b3 04 02
        E 14 b3 04 03
        E 14 b3 04 09
        E 14 b3 04 05
        E 14 b3 04 03
        E 14 b3 04 07
        E 14 b3 04 0c
        E 14 b3 04 00
        E 14 b3 04 01
        E 14 b3 04 05
        E 14 b3 04 04
        E 14 b3 04 0a
        E 14 b3 04 02
        E 14 b3 04 00
        E 14 b3 04 02
        E 14 b3 04 02
        E 14 b3 04 0b
        E 14 b3 04 03
        E 14 b3 04 00
        E 14 b3 04 09
        E 14 b3 04 04
        E 14 b3 04 02
        E 14 b3 04 05
        E 14 b3 04 03
        E 14 b3 04 0a
        E 14 b3 04 0a
        E 14 b3 04 0c
        E 14 b3 04 0a
        E 14 b3 04 05
        E 14 b3 04 0b
        E 14 b3 04 09
        E 14 b3 04 01
        E 14 b3 04 05
        E 14 b3 04 06
        E 14 b3 04 0c
        E 14 b3 04 09
        E 14 b3 04 06
        E 14 b3 04 07
        E 14 b3 04 00
        E 14 b3 04 01
        E 14 b3 04 0b
        E 14 b3 04 0a
        E 14 b3 04 05
        E 14 b3 04 04
        E 14 b3 04 01
        E 14 b3 04 05
        E 14 b3 04 03
        E 14 b3 04 03
        E 14 b3 04 04
        E 14 b3 04 06
        E 14 b3 04 07
        E 14 b3 04 08
        E 14 b3 04 02
        E 14 b3 04 07
        E 14 b3 04 0b
        E 14 b3 04 06
        E 14 b3 04 07
        E 14 b3 04 00
        E 14 b3 04 00
        E 14 b3 04 0c
        E 14 b3 04 08
        E 14 b3 04 02
        E 14 b3 04 0b
        E 14 b3 04 04
        E 14 b3 04 04
        E 14 b3 04 06
        E 14 b3 04 05
        E 14 b3 04 08
        E 14 b3 04 0a
        E 14 b3 04 03
        E 14 b3 04 07
        E 14 b3 04 02
        E 14 b3 04 0b
        E 14 b3 04 0a
        E 14 b3 04 05
        E 14 b3 04 04
        E 14 b3 04 0a
        E 14 b3 04 04
        E 14 b3 04 08
        E 14 b3 04 01
        E 14 b3 04 00
        E 14 b3 04 04
        E 14 b3 04 06
        E 14 b3 04 0a
        E 14 b3 04 09
        E 14 b3 04 00
        E 14 b3 04 0b
        E 14 b3 04 09
        E 14 b3 04 00
        E 14 b3 04 03
        E 14 b3 04 07
        E 14 b3 04 09
        E 14 b3 04 0c
        E 14 b3 04 07
        E 14 b3 04 05
        E 14 b3 04 03
        E 14 b3 04 08
        E 14 b3 04 09
        E 14 b3 04 0b
        E 14 b3 04 0c
        E 14 b3 04 06
        E 14 b3 04 08
        E 14 b3 04 08
        E 14 b3 04 06
        E 14 b3 04 0b
        E 14 b3 04 01
        E 14 b3 04 04
        E 14 b3 04 08
        E 3 b3 04 16
        E 3 b3 04 4c
        E 3 b3 04 32
        E 3 b3 04 07
        E 3 b3 04 48
        E 3 b3 04 3f
        E 3 b3 04 09
        E 3 b3 04 08
        E 3 b3 04 30
        E 3 b3 04 5f
        E 3 b3 04 50
        E 3 b3 04 58
        E 3 b3 04 3f
        E 3 b3 04 0b
        E 3 b3 04 13
        E 3 b3 04 44
        E 3 b3 04 37
        E 3 b3 04 1c
        E 3 b3 04 14
        E 3 b3 04 1b
        E 3 b3 04 4f
        E 3 b3 04 2f
        E 3 b3 04 17
        E 3 b3 04 3a
        E 3 b3 04 64
        E 3 b3 04 00
        E 3 b3 04 0c
        E 3 b3 04 29
        E 3 b3 04 22
        E 3 b3 04 53
        E 3 b3 04 15
        E 3 b3 04 06
        E 3 b3 04 0f
        E 3 b3 04 11
        E 3 b3 04 5b
        E 3 b3 04 19
        E 3 b3 04 00
        E 3 b3 04 4b
        E 3 b3 04 23
        E 3 b3 04 14
        E 3 b3 04 28
        E 3 b3 04 1a
        E 3 b3 04 56
        E 3 b3 04 55
        E 3 b3 04 65
        E 3 b3 04 54
        E 3 b3 04 2b
        E 3 b3 04 5e
        E 3 b3 04 48
        E 3 b3 04 0b
        E 3 b3 04 2c
        E 3 b3 04 36
        E 3 b3 04 60
        E 3 b3 04 4d
        E 3 b3 04 37
        E 3 b3 04 38
        E 3 b3 04 04
        E 3 b3 04 0a
        E 3 b3 04 5d
        E 3 b3 04 51
        E 3 b3 04 2b
        E 3 b3 04 1f
        E 3 b3 04 0d
        E 3 b3 04 2d
        E 3 b3 04 1e
        E 3 b3 04 18
        E 3 b3 04 26
        E 3 b3 04 34
        E 3 b3 04 3d
        E 3 b3 04 41
        E 3 b3 04 10
        E 3 b3 04 3c
        E 3 b3 04 5a
        E 3 b3 04 33
        E 3 b3 04 3b
        E 3 b3 04 02
        E 3 b3 04 07
        E 3 b3 04 63
        E 3 b3 04 42
        E 3 b3 04 12
        E 3 b3 04 5c
        E 3 b3 04 20
        E 3 b3 04 27
        E 3 b3 04 31
        E 3 b3 04 28
        E 3 b3 04 44
        E 3 b3 04 52
        E 3 b3 04 1d
        E 3 b3 04 39
        E 3 b3 04 17
        E 3 b3 04 5b
        E 3 b3 04 54
        E 3 b3 04 2e
        E 3 b3 04 24
        E 3 b3 04 50
        E 3 b3 04 25
        E 3 b3 04 47
        E 3 b3 04 0e
        E 3 b3 04 01
        E 3 b3 04 21
        E 3 b3 04 33
        E 3 b3 04 57
        E 3 b3 04 4e
        E 3 b3 04 03
        E 3 b3 04 57
        E 3 b3 04 4a
        E 3 b3 04 05
        E 3 b3 04 1f
        E 3 b3 04 3b
        E 3 b3 04 4c
        E 3 b3 04 61
        E 3 b3 04 3e
        E 3 b3 04 2a
        E 3 b3 04 1b
        E 3 b3 04 46
        E 3 b3 04 49
        E 3 b3 04 59
        E 3 b3 04 63
        E 3 b3 04 2f
        E 3 b3 04 40
        E 3 b3 04 45
        E 3 b3 04 35
        E 3 b3 04 5f
        E 3 b3 04 0f
        E 3 b3 04 24
        E 3 b3 04 43
        E 14 b3 04 16
        E 14 b3 04 4c
        E 14 b3 04 32
        E 14 b3 04 07
        E 14 b3 04 48
        E 14 b3 04 3f
        E 14 b3 04 09
        E 14 b3 04 08
        E 14 b3 04 30
        E 14 b3 04 5f
        E 14 b3 04 50
        E 14 b3 04 58
        E 14 b3 04 3f
        E 14 b3 04 0b
        E 14 b3 04 13
        E 14 b3 04 44
        E 14 b3 04 37
        E 14 b3 04 1c
        E 14 b3 04 14
        E 14 b3 04 1b
        E 14 b3 04 4f
        E 14 b3 04 2f
        E 14 b3 04 17
        E 14 b3 04 3a
        E 14 b3 04 64
        E 14 b3 04 00
        E 14 b3 04 0c
        E 14 b3 04 29
        E 14 b3 04 22
        E 14 b3 04 53
        E 14 b3 04 15
        E 14 b3 04 06
        E 14 b3 04 0f
        E 14 b3 04 11
        E 14 b3 04 5b
        E 14 b3 04 19
        E 14 b3 04 00
        E 14 b3 04 4b
        E 14 b3 04 23
        E 14 b3 04 14
        E 14 b3 04 28
        E 14 b3 04 1a
        E 14 b3 04 56
        E 14 b3 04 55
        E 14 b3 04 65
        E 14 b3 04 54
        E 14 b3 04 2b
        E 14 b3 04 5e
        E 14 b3 04 48
        E 14 b3 04 0b
        E 14 b3 04 2c
        E 14 b3 04 36
        E 14 b3 04 60
        E 14 b3 04 4d
        E 14 b3 04 37
        E 14 b3 04 38
        E 14 b3 04 04
        E 14 b3 04 0a
        E 14 b3 04 5d
        E 14 b3 04 51
        E 14 b3 04 2b
        E 14 b3 04 1f
        E 14 b3 04 0d
        E 14 b3 04 2d
        E 14 b3 04 1e
        E 14 b3 04 18
        E 14 b3 04 26
        E 14 b3 04 34
        E 14 b3 04 3d
        E 14 b3 04 41
        E 14 b3 04 10
        E 14 b3 04 3c
        E 14 b3 04 5a
        E 14 b3 04 33
        E 14 b3 04 3b
        E 14 b3 04 02
        E 14 b3 04 07
        E 14 b3 04 63
        E 14 b3 04 42
        E 14 b3 04 12
        E 14 b3 04 5c
        E 14 b3 04 20
        E 14 b3 04 27
        E 14 b3 04 31
        E 14 b3 04 28
        E 14 b3 04 44
        E 14 b3 04 52
        E 14 b3 04 1d
        E 14 b3 04 39
        E 14 b3 04 17
        E 14 b3 04 5b
        E 14 b3 04 54
        E 14 b3 04 2e
        E 14 b3 04 24
        E 14 b3 04 50
        E 14 b3 04 25
        E 14 b3 04 47
        E 14 b3 04 0e
        E 14 b3 04 01
        E 14 b3 04 21
        E 14 b3 04 33
        E 14 b3 04 57
        E 14 b3 04 4e
        E 14 b3 04 03
        E 14 b3 04 57
        E 14 b3 04 4a
        E 14 b3 04 05
        E 14 b3 04 1f
        E 14 b3 04 3b
        E 14 b3 04 4c
        E 14 b3 04 61
        E 14 b3 04 3e
        E 14 b3 04 2a
        E 14 b3 04 1b
        E 14 b3 04 46
        E 14 b3 04 49
        E 14 b3 04 59
        E 14 b3 04 63
        E 14 b3 04 2f
        E 14 b3 04 40
        E 14 b3 04 45
        E 14 b3 04 35
        E 14 b3 04 5f
        E 14 b3 04 0f
        E 14 b3 04 24
        E 14 b3 04 43
        E 7 b3 04 19
        E 7 b3 04 56
        E 7 b3 04 38
        E 7 b3 04 09
        E 7 b3 04 51
        E 7 b3 04 48
        E 7 b3 04 0a
        E 7 b3 04 09
        E 7 b3 04 36
        E 7 b3 04 6c
        E 7 b3 04 5a
        E 7 b3 04 63
        E 7 b3 04 47
        E 7 b3 04 0c
        E 7 b3 04 15
        E 7 b3 04 4d
        E 7 b3 04 3f
        E 7 b3 04 20
        E 7 b3 04 16
        E 7 b3 04 1e
        E 7 b3 04 59
        E 7 b3 04 35
        E 7 b3 04 1b
        E 7 b3 04 41
        E 7 b3 04 71
        E 7 b3 04 00
        E 7 b3 04 0e
        E 7 b3 04 2e
        E 7 b3 04 26
        E 7 b3 04 5d
        E 7 b3 04 18
        E 7 b3 04 07
        E 7 b3 04 12
        E 7 b3 04 13
        E 7 b3 04 67
        E 7 b3 04 1c
        E 7 b3 04 00
        E 7 b3 04 54
        E 7 b3 04 27
        E 7 b3 04 17
        E 7 b3 04 2d
        E 7 b3 04 1d
        E 7 b3 04 61
        E 7 b3 04 60
        E 7 b3 04 72
        E 7 b3 04 5f
        E 7 b3 04 31
        E 7 b3 04 6a
        E 7 b3 04 51
        E 7 b3 04 0d
        E 7 b3 04 32
        E 7 b3 04 3d
        E 7 b3 04 6c
        E 7 b3 04 57
        E 7 b3 04 3e
        E 7 b3 04 3f
        E 7 b3 04 05
        E 7 b3 04 0b
        E 7 b3 04 69
        E 7 b3 04 5b
        E 7 b3 04 30
        E 7 b3 04 24
        E 7 b3 04 0f
        E 7 b3 04 33
        E 7 b3 04 22
        E 7 b3 04 1b
        E 7 b3 04 2b
        E 7 b3 04 3b
        E 7 b3 04 45
        E 7 b3 04 49
        E 7 b3 04 12
        E 7 b3 04 44
        E 7 b3 04 65
        E 7 b3 04 3a
        E 7 b3 04 42
        E 7 b3 04 02
        E 7 b3 04 08
        E 7 b3 04 70
        E 7 b3 04 4a
        E 7 b3 04 14
        E 7 b3 04 68
        E 7 b3 04 24
        E 7 b3 04 2c
        E 7 b3 04 37
        E 7 b3 04 2d
        E 7 b3 04 4c
        E 7 b3 04 5c
        E 7 b3 04 21
        E 7 b3 04 40
        E 7 b3 04 1a
        E 7 b3 04 66
        E 7 b3 04 5e
        E 7 b3 04 34
        E 7 b3 04 29
        E 7 b3 04 5a
        E 7 b3 04 2a
        E 7 b3 04 50
        E 7 b3 04 10
        E 7 b3 04 01
        E 7 b3 04 25
        E 7 b3 04 39
        E 7 b3 04 62
        E 7 b3 04 58
        E 7 b3 04 03
        E 7 b3 04 63
        E 7 b3 04 53
        E 7 b3 04 06
        E 7 b3 04 23
        E 7 b3 04 43
        E 7 b3 04 55
        E 7 b3 04 6d
        E 7 b3 04 46
        E 7 b3 04 2f
        E 7 b3 04 1f
        E 7 b3 04 4f
        E 7 b3 04 52
        E 7 b3 04 64
        E 7 b3 04 6f
        E 7 b3 04 36
        E 7 b3 04 48
        E 7 b3 04 4e
        E 7 b3 04 3c
        E 7 b3 04 6b
        E 7 b3 04 11
        E 7 b3 04 28
        E 7 b3 04 4b
        E 14 b3 04 02
        E 14 b3 04 09
        E 14 b3 04 06
        E 14 b3 04 01
        E 14 b3 04 09
        E 14 b3 04 08
        E 14 b3 04 01
        E 14 b3 04 01
        E 14 b3 04 06
        E 14 b3 04 0c
        E 14 b3 04 0a
        E 14 b3 04 0b
        E 14 b3 04 07
        E 14 b3 04 01
        E 14 b3 04 02
        E 14 b3 04 08
        E 14 b3 04 07
        E 14 b3 04 03
        E 14 b3 04 02
        E 14 b3 04 03
        E 14 b3 04 09
        E 14 b3 04 05
        E 14 b3 04 03
        E 14 b3 04 07
        E 14 b3 04 0c
        E 14 b3 04 00
        E 14 b3 04 01
        E 14 b3 04 05
        E 14 b3 04 04
        E 14 b3 04 0a
        E 14 b3 04 02
        E 14 b3 04 00
        E 14 b3 04 02
        E 14 b3 04 02
        E 14 b3 04 0b
        E 14 b3 04 03
        E 14 b3 04 00
        E 14 b3 04 09
        E 14 b3 04 04
        E 14 b3 04 02
        E 14 b3 04 05
        E 14 b3 04 03
        E 14 b3 04 0a
        E 14 b3 04 0a
        E 14 b3 04 0c
        E 14 b3 04 0a
        E 14 b3 04 05
        E 14 b3 04 0b
        E 14 b3 04 09
        E 14 b3 04 01
        E 14 b3 04 05
        E 14 b3 04 06
        E 14 b3 04 0c
        E 14 b3 04 09
        E 14 b3 04 06
        E 14 b3 04 07
        E 14 b3 04 00
        E 14 b3 04 01
        E 14 b3 04 0b
        E 14 b3 04 0a
        E 14 b3 04 05
        E 14 b3 04 04
        E 14 b3 04 01
        E 14 b3 04 05
        E 14 b3 04 03
        E 14 b3 04 03
        E 14 b3 04 04
        E 14 b3 04 06
        E 14 b3 04 07
        E 14 b3 04 08
        E 14 b3 04 02
        E 14 b3 04 07
        E 14 b3 04 0b
        E 14 b3 04 06
        E 14 b3 04 07
        E 14 b3 04 00
        E 14 b3 04 00
        E 14 b3 04 0c
        E 14 b3 04 08
        E 14 b3 04 02
        E 14 b3 04 0b
        E 14 b3 04 04
        E 14 b3 04 04
        E 14 b3 04 06
        E 14 b3 04 05
        E 14 b3 04 08
        E 14 b3 04 0a
        E 14 b3 04 03
        E 14 b3 04 07
        E 14 b3 04 02
        E 14 b3 04 0b
        E 14 b3 04 0a
        E 14 b3 04 05
        E 14 b3 04 04
        E 14 b3 04 0a
        E 14 b3 04 04
        E 14 b3 04 08
        E 14 b3 04 01
        E 14 b3 04 00
        E 14 b3 04 04
        E 14 b3 04 06
        E 14 b3 04 0a
        E 14 b3 04 09
        E 14 b3 04 00
        E 14 b3 04 0b
        E 14 b3 04 09
        E 14 b3 04 00
        E 14 b3 04 03
        E 14 b3 04 07
        E 14 b3 04 09
        E 14 b3 04 0c
        E 14 b3 04 07
        E 14 b3 04 05
        E 14 b3 04 03
        E 14 b3 04 08
        E 14 b3 04 09
        E 14 b3 04 0b
        E 14 b3 04 0c
        E 14 b3 04 06
        E 14 b3 04 08
        E 14 b3 04 08
        E 14 b3 04 06
        E 14 b3 04 0b
        E 14 b3 04 01
        E 14 b3 04 04
        E 14 b3 04 08
        E 3 b3 04 16
        E 3 b3 04 4c
        E 3 b3 04 32
        E 3 b3 04 07
        E 3 b3 04 48
        E 3 b3 04 3f
        E 3 b3 04 09
        E 3 b3 04 08
        E 3 b3 04 30
        E 3 b3 04 5f
        E 3 b3 04 50
        E 3 b3 04 58
        E 3 b3 04 3f
        E 3 b3 04 0b
        E 3 b3 04 13
        E 3 b3 04 44
        E 3 b3 04 37
        E 3 b3 04 1c
        E 3 b3 04 14
        E 3 b3 04 1b
        E 3 b3 04 4f
        E 3 b3 04 2f
        E 3 b3 04 17
        E 3 b3 04 3a
        E 3 b3 04 64
        E 3 b3 04 00
        E 3 b3 04 0c
        E 3 b3 04 29
        E 3 b3 04 22
        E 3 b3 04 53
        E 3 b3 04 15
        E 3 b3 04 06
        E 3 b3 04 0f
        E 3 b3 04 11
        E 3 b3 04 5b
        E 3 b3 04 19
        E 3 b3 04 00
        E 3 b3 04 4b
        E 3 b3 04 23
        E 3 b3 04 14
        E 3 b3 04 28
        E 3 b3 04 1a
        E 3 b3 04 56
        E 3 b3 04 55
        E 3 b3 04 65
        E 3 b3 04 54
        E 3 b3 04 2b
        E 3 b3 04 5e
        E 3 b3 04 48
        E 3 b3 04 0b
        E 3 b3 04 2c
        E 3 b3 04 36
        E 3 b3 04 60
        E 3 b3 04 4d
        E 3 b3 04 37
        E 3 b3 04 38
        E 3 b3 04 04
        E 3 b3 04 0a
        E 3 b3 04 5d
        E 3 b3 04 51
        E 3 b3 04 2b
        E 3 b3 04 1f
        E 3 b3 04 0d
        E 3 b3 04 2d
        E 3 b3 04 1e
        E 3 b3 04 18
        E 3 b3 04 26
        E 3 b3 04 34
        E 3 b3 04 3d
        E 3 b3 04 41
        E 3 b3 04 10
        E 3 b3 04 3c
        E 3 b3 04 5a
        E 3 b3 04 33
        E 3 b3 04 3b
        E 3 b3 04 02
        E 3 b3 04 07
        E 3 b3 04 63
        E 3 b3 04 42
        E 3 b3 04 12
        E 3 b3 04 5c
        E 3 b3 04 20
        E 3 b3 04 27
        E 3 b3 04 31
        E 3 b3 04 28
        E 3 b3 04 44
        E 3 b3 04 52
        E 3 b3 04 1d
        E 3 b3 04 39
        E 3 b3 04 17
        E 3 b3 04 5b
        E 3 b3 04 54
        E 3 b3 04 2e
        E 3 b3 04 24
        E 3 b3 04 50
        E 3 b3 04 25
        E 3 b3 04 47
        E 3 b3 04 0e
        E 3 b3 04 01
        E 3 b3 04 21
        E 3 b3 04 33
        E 3 b3 04 57
        E 3 b3 04 4e
        E 3 b3 04 03
        E 3 b3 04 57
        E 3 b3 04 4a
        E 3 b3 04 05
        E 3 b3 04 1f
        E 3 b3 04 3b
        E 3 b3 04 4c
        E 3 b3 04 61
        E 3 b3 04 3e
        E 3 b3 04 2a
        E 3 b3 04 1b
        E 3 b3 04 46
        E 3 b3 04 49
        E 3 b3 04 59
        E 3 b3 04 63
        E 3 b3 04 2f
        E 3 b3 04 40
        E 3 b3 04 45
        E 3 b3 04 35
        E 3 b3 04 5f
        E 3 b3 04 0f
        E 3 b3 04 24
        E 3 b3 04 43
        E 14 b3 04 16
        E 14 b3 04 4c
        E 14 b3 04 32
        E 14 b3 04 07
        E 14 b3 04 48
        E 14 b3 04 3f
        E 14 b3 04 09
        E 14 b3 04 08
        E 14 b3 04 30
        E 14 b3 04 5f
        E 14 b3 04 50
        E 14 b3 04 58
        E 14 b3 04 3f
        E 14 b3 04 0b
        E 14 b3 04 13
        E 14 b3 04 44
        E 14 b3 04 37
        E 14 b3 04 1c
        E 14 b3 04 14
        E 14 b3 04 1b
        E 14 b3 04 4f
        E 14 b3 04 2f
        E 14 b3 04 17
        E 14 b3 04 3a
        E 14 b3 04 64
        E 14 b3 04 00
        E 14 b3 04 0c
        E 14 b3 04 29
        E 14 b3 04 22
        E 14 b3 04 53
        E 14 b3 04 15
        E 14 b3 04 06
        E 14 b3 04 0f
        E 14 b3 04 11
        E 14 b3 04 5b
        E 14 b3 04 19
        E 14 b3 04 00
        E 14 b3 04 4b
        E 14 b3 04 23
        E 14 b3 04 14
        E 14 b3 04 28
        E 14 b3 04 1a
        E 14 b3 04 56
        E 14 b3 04 55
        E 14 b3 04 65
        E 14 b3 04 54
        E 14 b3 04 2b
        E 14 b3 04 5e
        E 14 b3 04 48
        E 14 b3 04 0b
        E 14 b3 04 2c
        E 14 b3 04 36
        E 14 b3 04 60
        E 14 b3 04 4d
        E 14 b3 04 37
        E 14 b3 04 38
        E 14 b3 04 04
        E 14 b3 04 0a
        E 14 b3 04 5d
        E 14 b3 04 51
        E 14 b3 04 2b
        E 14 b3 04 1f
        E 14 b3 04 0d
        E 14 b3 04 2d
        E 14 b3 04 1e
        E 14 b3 04 18
        E 14 b3 04 26
        E 14 b3 04 34
        E 14 b3 04 3d
        E 14 b3 04 41
        E 14 b3 04 10
        E 14 b3 04 3c
        E 14 b3 04 5a
        E 14 b3 04 33
        E 14 b3 04 3b
        E 14 b3 04 02
        E 14 b3 04 07
        E 14 b3 04 63
        E 14 b3 04 42
        E 14 b3 04 12
        E 14 b3 04 5c
        E 14 b3 04 20
        E 14 b3 04 27
        E 14 b3 04 31
        E 14 b3 04 28
        E 14 b3 04 44
        E 14 b3 04 52
        E 14 b3 04 1d
        E 14 b3 04 39
        E 14 b3 04 17
        E 14 b3 04 5b
        E 14 b3 04 54
        E 14 b3 04 2e
        E 14 b3 04 24
        E 14 b3 04 50
        E 14 b3 04 25
        E 14 b3 04 47
        E 14 b3 04 0e
        E 14 b3 04 01
        E 14 b3 04 21
        E 14 b3 04 33
        E 14 b3 04 57
        E 14 b3 04 4e
        E 14 b3 04 03
        E 14 b3 04 57
        E 14 b3 04 4a
        E 14 b3 04 05
        E 14 b3 04 1f
        E 14 b3 04 3b
        E 14 b3 04 4c
        E 14 b3 04 61
        E 14 b3 04 3e
        E 14 b3 04 2a
        E 14 b3 04 1b
        E 14 b3 04 46
        E 14 b3 04 49
        E 14 b3 04 59
        E 14 b3 04 63
        E 14 b3 04 2f
        E 14 b3 04 40
        E 14 b3 04 45
        E 14 b3 04 35
        E 14 b3 04 5f
        E 14 b3 04 0f
        E 14 b3 04 24
        E 14 b3 04 43
        E 7 b3 04 19
        E 7 b3 04 56
        E 7 b3 04 38
        E 7 b3 04 09
        E 7 b3 04 51
        E 7 b3 04 48
        E 7 b3 04 0a
        E 7 b3 04 09
        E 7 b3 04 36
        E 7 b3 04 6c
        E 7 b3 04 5a
        E 7 b3 04 63
        E 7 b3 04 47
        E 7 b3 04 0c
        E 7 b3 04 15
        E 7 b3 04 4d
        E 7 b3 04 3f
        E 7 b3 04 20
        E 7 b3 04 16
        E 7 b3 04 1e
        E 7 b3 04 59
        E 7 b3 04 35
        E 7 b3 04 1b
        E 7 b3 04 41
        E 7 b3 04 71
        E 7 b3 04 00
        E 7 b3 04 0e
        E 7 b3 04 2e
        E 7 b3 04 26
        E 7 b3 04 5d
        E 7 b3 04 18
        E 7 b3 04 07
        E 7 b3 04 12
        E 7 b3 04 13
        E 7 b3 04 67
        E 7 b3 04 1c
        E 7 b3 04 00
        E 7 b3 04 54
        E 7 b3 04 27
        E 7 b3 04 17
        E 7 b3 04 2d
        E 7 b3 04 1d
        E 7 b3 04 61
        E 7 b3 04 60
        E 7 b3 04 72
        E 7 b3 04 5f
        E 7 b3 04 31
        E 7 b3 04 6a
        E 7 b3 04 51
        E 7 b3 04 0d
        E 7 b3 04 32
        E 7 b3 04 3d
        E 7 b3 04 6c
        E 7 b3 04 57
        E 7 b3 04 3e
        E 7 b3 04 3f
        E 7 b3 04 05
        E 7 b3 04 0b
        E 7 b3 04 69
        E 7 b3 04 5b
        E 7 b3 04 30
        E 7 b3 04 24
        E 7 b3 04 0f
        E 7 b3 04 33
        E 7 b3 04 22
        E 7 b3 04 1b
        E 7 b3 04 2b
        E 7 b3 04 3b
        E 7 b3 04 45
        E 7 b3 04 49
        E 7 b3 04 12
        E 7 b3 04 44
        E 7 b3 04 65
        E 7 b3 04 3a
        E 7 b3 04 42
        E 7 b3 04 02
        E 7 b3 04 08
        E 7 b3 04 70
        E 7 b3 04 4a
        E 7 b3 04 14
        E 7 b3 04 68
        E 7 b3 04 24
        E 7 b3 04 2c
        E 7 b3 04 37
        E 7 b3 04 2d
        E 7 b3 04 4c
        E 7 b3 04 5c
        E 7 b3 04 21
        E 7 b3 04 40
        E 7 b3 04 1a
        E 7 b3 04 66
        E 7 b3 04 5e
        E 7 b3 04 34
        E 7 b3 04 29
        E 7 b3 04 5a
        E 7 b3 04 2a
        E 7 b3 04 50
        E 7 b3 04 10
        E 7 b3 04 01
        E 7 b3 04 25
        E 7 b3 04 39
        E 7 b3 04 62
        E 7 b3 04 58
        E 7 b3 04 03
        E 7 b3 04 63
        E 7 b3 04 53
        E 7 b3 04 06
        E 7 b3 04 23
        E 7 b3 04 43
        E 7 b3 04 55
        E 7 b3 04 6d
        E 7 b3 04 46
        E 7 b3 04 2f
        E 7 b3 04 1f
        E 7 b3 04 4f
        E 7 b3 04 52
        E 7 b3 04 64
        E 7 b3 04 6f
        E 7 b3 04 36
        E 7 b3 04 48
        E 7 b3 04 4e
        E 7 b3 04 3c
        E 7 b3 04 6b
        E 7 b3 04 11
        E 7 b3 04 28
        E 7 b3 04 4b
        E 14 b3 04 02
        E 14 b3 04 09
        E 14 b3 04 06
        E 14 b3 04 01
        E 14 b3 04 09
        E 14 b3 04 08
        E 14 b3 04 01
        E 14 b3 04 01
        E 14 b3 04 06
        E 14 b3 04 0c
        E 14 b3 04 0a
        E 14 b3 04 0b
        E 14 b3 04 07
        E 14 b3 04 01
        E 14 b3 04 02
        E 14 b3 04 08
        E 14 b3 04 07
        E 14 b3 04 03
        E 14 b3 04 02
        E 14 b3 04 03
        E 14 b3 04 09
        E 14 b3 04 05
        E 14 b3 04 03
        E 14 b3 04 07
        E 14 b3 04 0c
        E 14 b3 04 00
        E 14 b3 04 01
        E 14 b3 04 05
        E 14 b3 04 04
        E 14 b3 04 0a
        E 14 b3 04 02
        E 14 b3 04 00
        E 14 b3 04 02
        E 14 b3 04 02
        E 14 b3 04 0b
        E 14 b3 04 03
        E 14 b3 04 00
        E 14 b3 04 09
        E 14 b3 04 04
        E 14 b3 04 02
        E 14 b3 04 05
        E 14 b3 04 03
        E 14 b3 04 0a
        E 14 b3 04 0a
        E 14 b3 04 0c
        E 14 b3 04 0a
        E 14 b3 04 05
        E 14 b3 04 0b
        E 14 b3 04 09
        E 14 b3 04 01
        E 14 b3 04 05
        E 14 b3 04 06
        E 14 b3 04 0c
        E 14 b3 04 09
        E 14 b3 04 06
        E 14 b3 04 07
        E 14 b3 04 00
        E 14 b3 04 01
        E 14 b3 04 0b
        E 14 b3 04 0a
        E 14 b3 04 05
        E 14 b3 04 04
        E 14 b3 04 01
        E 14 b3 04 05
        E 14 b3 04 03
        E 14 b3 04 03
        E 14 b3 04 04
        E 14 b3 04 06
        E 14 b3 04 07
        E 14 b3 04 08
        E 14 b3 04 02
        E 14 b3 04 07
        E 14 b3 04 0b
        E 14 b3 04 06
        E 14 b3 04 07
        E 14 b3 04 00
        E 14 b3 04 00
        E 14 b3 04 0c
        E 14 b3 04 08
        E 14 b3 04 02
        E 14 b3 04 0b
        E 14 b3 04 04
        E 14 b3 04 04
        E 14 b3 04 06
        E 14 b3 04 05
        E 14 b3 04 08
        E 14 b3 04 0a
        E 14 b3 04 03
        E 14 b3 04 07
        E 14 b3 04 02
        E 14 b3 04 0b
        E 14 b3 04 0a
        E 14 b3 04 05
        E 14 b3 04 04
        E 14 b3 04 0a
        E 14 b3 04 04
        E 14 b3 04 08
        E 14 b3 04 01
        E 14 b3 04 00
        E 14 b3 04 04
        E 14 b3 04 06
        E 14 b3 04 0a
        E 14 b3 04 09
        E 14 b3 04 00
        E 14 b3 04 0b
        E 14 b3 04 09
        E 14 b3 04 00
        E 14 b3 04 03
        E 14 b3 04 07
        E 14 b3 04 09
        E 14 b3 04 0c
        E 14 b3 04 07
        E 14 b3 04 05
        E 14 b3 04 03
        E 14 b3 04 08
        E 14 b3 04 09
        E 14 b3 04 0b
        E 14 b3 04 0c
        E 14 b3 04 06
        E 14 b3 04 08
        E 14 b3 04 08
        E 14 b3 04 06
        E 14 b3 04 0b
        E 14 b3 04 01
        E 14 b3 04 04
        E 14 b3 04 08
        E 3 b3 04 16
        E 3 b3 04 4c
        E 3 b3 04 32
        E 3 b3 04 07
        E 3 b3 04 48
        E 3 b3 04 3f
        E 3 b3 04 09
        E 3 b3 04 08
        E 3 b3 04 30
        E 3 b3 04 5f
        E 3 b3 04 50
        E 3 b3 04 58
        E 3 b3 04 3f
        E 3 b3 04 0b
        E 3 b3 04 13
        E 3 b3 04 44
        E 3 b3 04 37
        E 3 b3 04 1c
        E 3 b3 04 14
        E 3 b3 04 1b
        E 3 b3 04 4f
        E 3 b3 04 2f
        E 3 b3 04 17
        E 3 b3 04 3a
        E 3 b3 04 64
        E 3 b3 04 00
        E 3 b3 04 0c
        E 3 b3 04 29
        E 3 b3 04 22
        E 3 b3 04 53
        E 3 b3 04 15
        E 3 b3 04 06
        E 3 b3 04 0f
        E 3 b3 04 11
        E 3 b3 04 5b
        E 3 b3 04 19
        E 3 b3 04 00
        E 3 b3 04 4b
        E 3 b3 04 23
        E 3 b3 04 14
        E 3 b3 04 28
        E 3 b3 04 1a
        E 3 b3 04 56
        E 3 b3 04 55
        E 3 b3 04 65
        E 3 b3 04 54
        E 3 b3 04 2b
        E 3 b3 04 5e
        E 3 b3 04 48
        E 3 b3 04 0b
        E 3 b3 04 2c
        E 3 b3 04 36
        E 3 b3 04 60
        E 3 b3 04 4d
        E 3 b3 04 37
        E 3 b3 04 38
        E 3 b3 04 04
        E 3 b3 04 0a
        E 3 b3 04 5d
        E 3 b3 04 51
        E 3 b3 04 2b
        E 3 b3 04 1f
        E 3 b3 04 0d
        E 3 b3 04 2d
        E 3 b3 04 1e
        E 3 b3 04 18
        E 3 b3 04 26
        E 3 b3 04 34
        E 3 b3 04 3d
        E 3 b3 04 41
        E 3 b3 04 10
        E 3 b3 04 3c
        E 3 b3 04 5a
        E 3 b3 04 33
        E 3 b3 04 3b
        E 3 b3 04 02
        E 3 b3 04 07
        E 3 b3 04 63
        E 3 b3 04 42
        E 3 b3 04 12
        E 3 b3 04 5c
        E 3 b3 04 20
        E 3 b3 04 27
        E 3 b3 04 31
        E 3 b3 04 28
        E 3 b3 04 44
        E 3 b3 04 52
        E 3 b3 04 1d
        E 3 b3 04 39
        E 3 b3 04 17
        E 3 b3 04 5b
        E 3 b3 04 54
        E 3 b3 04 2e
        E 3 b3 04 24
        E 3 b3 04 50
        E 3 b3 04 25
        E 3 b3 04 47
        E 3 b3 04 0e
        E 3 b3 04 01
        E 3 b3 04 21
        E 3 b3 04 33
        E 3 b3 04 57
        E 3 b3 04 4e
        E 3 b3 04 03
        E 3 b3 04 57
        E 3 b3 04 4a
        E 3 b3 04 05
        E 3 b3 04 1f
        E 3 b3 04 3b
        E 3 b3 04 4c
        E 3 b3 04 61
        E 3 b3 04 3e
        E 3 b3 04 2a
        E 3 b3 04 1b
        E 3 b3 04 46
        E 3 b3 04 49
        E 3 b3 04 59
        E 3 b3 04 63
        E 3 b3 04 2f
        E 3 b3 04 40
        E 3 b3 04 45
        E 3 b3 04 35
        E 3 b3 04 5f
        E 3 b3 04 0f
        E 3 b3 04 24
        E 3 b3 04 43
        E 14 b3 04 16
        E 14 b3 04 4c
        E 14 b3 04 32
        E 14 b3 04 07
        E 14 b3 04 48
        E 14 b3 04 3f
        E 14 b3 04 09
        E 14 b3 04 08
        E 14 b3 04 30
        E 14 b3 04 5f
        E 14 b3 04 50
        E 14 b3 04 58
        E 14 b3 04 3f
        E 14 b3 04 0b
        E 14 b3 04 13
        E 14 b3 04 44
        E 14 b3 04 37
        E 14 b3 04 1c
        E 14 b3 04 14
        E 14 b3 04 1b
        E 14 b3 04 4f
        E 14 b3 04 2f
        E 14 b3 04 17
        E 14 b3 04 3a
        E 14 b3 04 64
        E 14 b3 04 00
        E 14 b3 04 0c
        E 14 b3 04 29
        E 14 b3 04 22
        E 14 b3 04 53
        E 14 b3 04 15
        E 14 b3 04 06
        E 14 b3 04 0f
        E 14 b3 04 11
        E 14 b3 04 5b
        E 14 b3 04 19
        E 14 b3 04 00
        E 14 b3 04 4b
        E 14 b3 04 23
        E 14 b3 04 14
        E 14 b3 04 28
        E 14 b3 04 1a
        E 14 b3 04 56
        E 14 b3 04 55
        E 14 b3 04 65
        E 14 b3 04 54
        E 14 b3 04 2b
        E 14 b3 04 5e
        E 14 b3 04 48
        E 14 b3 04 0b
        E 14 b3 04 2c
        E 14 b3 04 36
        E 14 b3 04 60
        E 14 b3 04 4d
        E 14 b3 04 37
        E 14 b3 04 38
        E 14 b3 04 04
        E 14 b3 04 0a
        E 14 b3 04 5d
        E 14 b3 04 51
        E 14 b3 04 2b
        E 14 b3 04 1f
        E 14 b3 04 0d
        E 14 b3 04 2d
        E 14 b3 04 1e
        E 14 b3 04 18
        E 14 b3 04 26
        E 14 b3 04 34
        E 14 b3 04 3d
        E 14 b3 04 41
        E 14 b3 04 10
        E 14 b3 04 3c
        E 14 b3 04 5a
        E 14 b3 04 33
        E 14 b3 04 3b
        E 14 b3 04 02
        E 14 b3 04 07
        E 14 b3 04 63
        E 14 b3 04 42
        E 14 b3 04 12
        E 14 b3 04 5c
        E 14 b3 04 20
        E 14 b3 04 27
        E 14 b3 04 31
        E 14 b3 04 28
        E 14 b3 04 44
        E 14 b3 04 52
        E 14 b3 04 1d
        E 14 b3 04 39
        E 14 b3 04 17
        E 14 b3 04 5b
        E 14 b3 04 54
        E 14 b3 04 2e
        E 14 b3 04 24
        E 14 b3 04 50
        E 14 b3 04 25
        E 14 b3 04 47
        E 14 b3 04 0e
        E 14 b3 04 01
        E 14 b3 04 21
        E 14 b3 04 33
        E 14 b3 04 57
        E 14 b3 04 4e
        E 14 b3 04 03
        E 14 b3 04 57
        E 14 b3 04 4a
        E 14 b3 04 05
        E 14 b3 04 1f
        E 14 b3 04 3b
        E 14 b3 04 4c
        E 14 b3 04 61
        E 14 b3 04 3e
        E 14 b3 04 2a
        E 14 b3 04 1b
        E 14 b3 04 46
        E 14 b3 04 49
        E 14 b3 04 59
        E 14 b3 04 63
        E 14 b3 04 2f
        E 14 b3 04 40
        E 14 b3 04 45
        E 14 b3 04 35
        E 14 b3 04 5f
        E 14 b3 04 0f
        E 14 b3 04 24
        E 14 b3 04 43
        E 7 b3 04 19
        E 7 b3 04 56
        E 7 b3 04 38
        E 7 b3 04 09
        E 7 b3 04 51
        E 7 b3 04 48
        E 7 b3 04 0a
        E 7 b3 04 09
        E 7 b3 04 36
        E 7 b3 04 6c
        E 7 b3 04 5a
        E 7 b3 04 63
        E 7 b3 04 47
        E 7 b3 04 0c
        E 7 b3 04 15
        E 7 b3 04 4d
        E 7 b3 04 3f
        E 7 b3 04 20
        E 7 b3 04 16
        E 7 b3 04 1e
        E 7 b3 04 59
        E 7 b3 04 35
        E 7 b3 04 1b
        E 7 b3 04 41
        E 7 b3 04 71
        E 7 b3 04 00
        E 7 b3 04 0e
        E 7 b3 04 2e
        E 7 b3 04 26
        E 7 b3 04 5d
        E 7 b3 04 18
        E 7 b3 04 07
        E 7 b3 04 12
        E 7 b3 04 13
        E 7 b3 04 67
        E 7 b3 04 1c
        E 7 b3 04 00
        E 7 b3 04 54
        E 7 b3 04 27
        E 7 b3 04 17
        E 7 b3 04 2d
        E 7 b3 04 1d
        E 7 b3 04 61
        E 7 b3 04 60
        E 7 b3 04 72
        E 7 b3 04 5f
        E 7 b3 04 31
        E 7 b3 04 6a
        E 7 b3 04 51
        E 7 b3 04 0d
        E 7 b3 04 32
        E 7 b3 04 3d
        E 7 b3 04 6c
        E 7 b3 04 57
        E 7 b3 04 3e
        E 7 b3 04 3f
        E 7 b3 04 05
        E 7 b3 04 0b
        E 7 b3 04 69
        E 7 b3 04 5b
        E 7 b3 04 30
        E 7 b3 04 24
        E 7 b3 04 0f
        E 7 b3 04 33
        E 7 b3 04 22
        E 7 b3 04 1b
        E 7 b3 04 2b
        E 7 b3 04 3b
        E 7 b3 04 45
        E 7 b3 04 49
        E 7 b3 04 12
        E 7 b3 04 44
        E 7 b3 04 65
        E 7 b3 04 3a
        E 7 b3 04 42
        E 7 b3 04 02
        E 7 b3 04 08
        E 7 b3 04 70
        E 7 b3 04 4a
        E 7 b3 04 14
        E 7 b3 04 68
        E 7 b3 04 24
        E 7 b3 04 2c
        E 7 b3 04 37
        E 7 b3 04 2d
        E 7 b3 04 4c
        E 7 b3 04 5c
        E 7 b3 04 21
        E 7 b3 04 40
        E 7 b3 04 1a
        E 7 b3 04 66
        E 7 b3 04 5e
        E 7 b3 04 34
        E 7 b3 04 29
        E 7 b3 04 5a
        E 7 b3 04 2a
        E 7 b3 04 50
        E 7 b3 04 10
        E 7 b3 04 01
        E 7 b3 04 25
        E 7 b3 04 39
        E 7 b3 04 62
        E 7 b3 04 58
        E 7 b3 04 03
        E 7 b3 04 63
        E 7 b3 04 53
        E 7 b3 04 06
        E 7 b3 04 23
        E 7 b3 04 43
        E 7 b3 04 55
        E 7 b3 04 6d
        E 7 b3 04 46
        E 7 b3 04 2f
        E 7 b3 04 1f
        E 7 b3 04 4f
        E 7 b3 04 52
        E 7 b3 04 64
        E 7 b3 04 6f
        E 7 b3 04 36
        E 7 b3 04 48
        E 7 b3 04 4e
        E 7 b3 04 3c
        E 7 b3 04 6b
        E 7 b3 04 11
        E 7 b3 04 28
        E 7 b3 04 4b
        E 14 b3 04 02
        E 14 b3 04 09
        E 14 b3 04 06
        E 14 b3 04 01
        E 14 b3 04 09
        E 14 b3 04 08
        E 14 b3 04 01
        E 14 b3 04 01
        E 14 b3 04 06
        E 14 b3 04 0c
        E 14 b3 04 0a
        E 14 b3 04 0b
        E 14 b3 04 07
        E 14 b3 04 01
        E 14 b3 04 02
        E 14 b3 04 08
        E 14 b3 04 07
        E 14 b3 04 03
        E 14 b3 04 02
        E 14 b3 04 03
        E 14 b3 04 09
        E 14 b3 04 05
        E 14 b3 04 03
        E 14 b3 04 07
        E 14 b3 04 0c
        E 14 b3 04 00
        E 14 b3 04 01
        E 14 b3 04 05
        E 14 b3 04 04
        E 14 b3 04 0a
        E 14 b3 04 02
        E 14 b3 04 00
        E 14 b3 04 02
        E 14 b3 04 02
        E 14 b3 04 0b
        E 14 b3 04 03
        E 14 b3 04 00
        E 14 b3 04 09
        E 14 b3 04 04
        E 14 b3 04 02
        E 14 b3 04 05
        E 14 b3 04 03
        E 14 b3 04 0a
        E 14 b3 04 0a
        E 14 b3 04 0c
        E 14 b3 04 0a
        E 14 b3 04 05
        E 14 b3 04 0b
        E 14 b3 04 09
        E 14 b3 04 01
        E 14 b3 04 05
        E 14 b3 04 06
        E 14 b3 04 0c
        E 14 b3 04 09
        E 14 b3 04 06
        E 14 b3 04 07
        E 14 b3 04 00
        E 14 b3 04 01
        E 14 b3 04 0b
        E 14 b3 04 0a
        E 14 b3 04 05
        E 14 b3 04 04
        E 14 b3 04 01
        E 14 b3 04 05
        E 14 b3 04 03
        E 14 b3 04 03
        E 14 b3 04 04
        E 14 b3 04 06
        E 14 b3 04 07
        E 14 b3 04 08
        E 14 b3 04 02
        E 14 b3 04 07
        E 14 b3 04 0b
        E 14 b3 04 06
        E 14 b3 04 07
        E 14 b3 04 00
        E 14 b3 04 00
        E 14 b3 04 0c
        E 14 b3 04 08
        E 14 b3 04 02
        E 14 b3 04 0b
        E 14 b3 04 04
        E 14 b3 04 04
        E 14 b3 04 06
        E 14 b3 04 05
        E 14 b3 04 08
        E 14 b3 04 0a
        E 14 b3 04 03
        E 14 b3 04 07
        E 14 b3 04 02
        E 14 b3 04 0b
        E 14 b3 04 0a
        E 14 b3 04 05
        E 14 b3 04 04
        E 14 b3 04 0a
        E 14 b3 04 04
        E 14 b3 04 08
        E 14 b3 04 01
        E 14 b3 04 00
        E 14 b3 04 04
        E 14 b3 04 06
        E 14 b3 04 0a
        E 14 b3 04 09
        E 14 b3 04 00
        E 14 b3 04 0b
        E 14 b3 04 09
        E 14 b3 04 00
        E 14 b3 04 03
        E 14 b3 04 07
        E 14 b3 04 09
        E 14 b3 04 0c
        E 14 b3 04 07
        E 14 b3 04 05
        E 14 b3 04 03
        E 14 b3 04 08
        E 14 b3 04 09
        E 14 b3 04 0b
        E 14 b3 04 0c
        E 14 b3 04 06
        E 14 b3 04 08
        E 14 b3 04 08
        E 14 b3 04 06
        E 14 b3 04 0b
        E 14 b3 04 01
        E 14 b3 04 04
        E 14 b3 04 08
        E 3 b3 04 16
        E 3 b3 04 4c
        E 3 b3 04 32
        E 3 b3 04 07
        E 3 b3 04 48
        E 3 b3 04 3f
        E 3 b3 04 09
        E 3 b3 04 08
        E 3 b3 04 30
        E 3 b3 04 5f
        E 3 b3 04 50
        E 3 b3 04 58
        E 3 b3 04 3f
        E 3 b3 04 0b
        E 3 b3 04 13
        E 3 b3 04 44
        E 3 b3 04 37
        E 3 b3 04 1c
        E 3 b3 04 14
        E 3 b3 04 1b
        E 3 b3 04 4f
        E 3 b3 04 2f
        E 3 b3 04 17
        E 3 b3 04 3a
        E 3 b3 04 64
        E 3 b3 04 00
        E 3 b3 04 0c
        E 3 b3 04 29
        E 3 b3 04 22
        E 3 b3 04 53
        E 3 b3 04 15
        E 3 b3 04 06
        E 3 b3 04 0f
        E 3 b3 04 11
        E 3 b3 04 5b
        E 3 b3 04 19
        E 3 b3 04 00
        E 3 b3 04 4b
        E 3 b3 04 23
        E 3 b3 04 14
        E 3 b3 04 28
        E 3 b3 04 1a
        E 3 b3 04 56
        E 3 b3 04 55
        E 3 b3 04 65
        E 3 b3 04 54
        E 3 b3 04 2b
        E 3 b3 04 5e
        E 3 b3 04 48
        E 3 b3 04 0b
        E 3 b3 04 2c
        E 3 b3 04 36
        E 3 b3 04 60
        E 3 b3 04 4d
        E 3 b3 04 37
        E 3 b3 04 38
        E 3 b3 04 04
        E 3 b3 04 0a
        E 3 b3 04 5d
        E 3 b3 04 51
        E 3 b3 04 2b
        E 3 b3 04 1f
        E 3 b3 04 0d
        E 3 b3 04 2d
        E 3 b3 04 1e
        E 3 b3 04 18
        E 3 b3 04 26
        E 3 b3 04 34
        E 3 b3 04 3d
        E 3 b3 04 41
        E 3 b3 04 10
        E 3 b3 04 3c
        E 3 b3 04 5a
        E 3 b3 04 33
        E 3 b3 04 3b
        E 3 b3 04 02
        E 3 b3 04 07
        E 3 b3 04 63
        E 3 b3 04 42
        E 3 b3 04 12
        E 3 b3 04 5c
        E 3 b3 04 20
        E 3 b3 04 27
        E 3 b3 04 31
        E 3 b3 04 28
        E 3 b3 04 44
        E 3 b3 04 52
        E 3 b3 04 1d
        E 3 b3 04 39
        E 3 b3 04 17
        E 3 b3 04 5b
        E 3 b3 04 54
        E 3 b3 04 2e
        E 3 b3 04 24
        E 3 b3 04 50
        E 3 b3 04 25
        E 3 b3 04 47
        E 3 b3 04 0e
        E 3 b3 04 01
        E 3 b3 04 21
        E 3 b3 04 33
        E 3 b3 04 57
        E 3 b3 04 4e
        E 3 b3 04 03
        E 3 b3 04 57
        E 3 b3 04 4a
        E 3 b3 04 05
        E 3 b3 04 1f
        E 3 b3 04 3b
        E 3 b3 04 4c
        E 3 b3 04 61
        E 3 b3 04 3e
        E 3 b3 04 2a
        E 3 b3 04 1b
        E 3 b3 04 46
        E 3 b3 04 49
        E 3 b3 04 59
        E 3 b3 04 63
        E 3 b3 04 2f
        E 3 b3 04 40
        E 3 b3 04 45
        E 3 b3 04 35
        E 3 b3 04 5f
        E 3 b3 04 0f
        E 3 b3 04 24
        E 3 b3 04 43
        E 14 b3 04 16
        E 14 b3 04 4c
        E 14 b3 04 32
        E 14 b3 04 07
        E 14 b3 04 48
        E 14 b3 04 3f
        E 14 b3 04 09
        E 14 b3 04 08
        E 14 b3 04 30
        E 14 b3 04 5f
        E 14 b3 04 50
        E 14 b3 04 58
        E 14 b3 04 3f
        E 14 b3 04 0b
        E 14 b3 04 13
        E 14 b3 04 44
        E 14 b3 04 37
        E 14 b3 04 1c
        E 14 b3 04 14
        E 14 b3 04 1b
        E 14 b3 04 4f
        E 14 b3 04 2f
        E 14 b3 04 17
        E 14 b3 04 3a
        E 14 b3 04 64
        E 14 b3 04 00
        E 14 b3 04 0c
        E 14 b3 04 29
        E 14 b3 04 22
        E 14 b3 04 53
        E 14 b3 04 15
        E 14 b3 04 06
        E 14 b3 04 0f
        E 14 b3 04 11
        E 14 b3 04 5b
        E 14 b3 04 19
        E 14 b3 04 00
        E 14 b3 04 4b
        E 14 b3 04 23
        E 14 b3 04 14
        E 14 b3 04 28
        E 14 b3 04 1a
        E 14 b3 04 56
        E 14 b3 04 55
        E 14 b3 04 65
        E 14 b3 04 54
        E 14 b3 04 2b
        E 14 b3 04 5e
        E 14 b3 04 48
        E 14 b3 04 0b
        E 14 b3 04 2c
        E 14 b3 04 36
        E 14 b3 04 60
        E 14 b3 04 4d
        E 14 b3 04 37
        E 14 b3 04 38
        E 14 b3 04 04
        E 14 b3 04 0a
        E 14 b3 04 5d
        E 14 b3 04 51
        E 14 b3 04 2b
        E 14 b3 04 1f
        E 14 b3 04 0d
        E 14 b3 04 2d
        E 14 b3 04 1e
        E 14 b3 04 18
        E 14 b3 04 26
        E 14 b3 04 34
        E 14 b3 04 3d
        E 14 b3 04 41
        E 14 b3 04 10
        E 14 b3 04 3c
        E 14 b3 04 5a
        E 14 b3 04 33
        E 14 b3 04 3b
        E 14 b3 04 02
        E 14 b3 04 07
        E 14 b3 04 63
        E 14 b3 04 42
        E 14 b3 04 12
        E 14 b3 04 5c
        E 14 b3 04 20
        E 14 b3 04 27
        E 14 b3 04 31
        E 14 b3 04 28
        E 14 b3 04 44
        E 14 b3 04 52
        E 14 b3 04 1d
        E 14 b3 04 39
        E 14 b3 04 17
        E 14 b3 04 5b
        E 14 b3 04 54
        E 14 b3 04 2e
        E 14 b3 04 24
        E 14 b3 04 50
        E 14 b3 04 25
        E 14 b3 04 47
        E 14 b3 04 0e
        E 14 b3 04 01
        E 14 b3 04 21
        E 14 b3 04 33
        E 14 b3 04 57
        E 14 b3 04 4e
        E 14 b3 04 03
        E 14 b3 04 57
        E 14 b3 04 4a
        E 14 b3 04 05
        E 14 b3 04 1f
        E 14 b3 04 3b
        E 14 b3 04 4c
        E 14 b3 04 61
        E 14 b3 04 3e
        E 14 b3 04 2a
        E 14 b3 04 1b
        E 14 b3 04 46
        E 14 b3 04 49
        E 14 b3 04 59
        E 14 b3 04 63
        E 14 b3 04 2f
        E 14 b3 04 40
        E 14 b3 04 45
        E 14 b3 04 35
        E 14 b3 04 5f
        E 14 b3 04 0f
        E 14 b3 04 24
        E 14 b3 04 43
        E 72 b0 7b 00
        CCINTERP 32
        CHASE_CC_TAKEOFFS 1
        GUID {1D116545-D093-1A41-8BEE-B89D008C7330}
        IGNTEMPO 0 120 4 4
        SRCCOLOR 255
        VELLANE 3 601 0
        VELLANE -1 196 0
      >
    >
  >
  <TRACK {F767027A-A6D5-0346-ADCB-2F93077A2FFB}
    NAME "mission brand tortilla strips"
    PEAKCOL 16576
    BEAT -1
    AUTOMODE 0
    VOLPAN 1 0 -1 -1 1
    MUTESOLO 0 0 0
    IPHASE 0
    PLAYOFFS 0 1
    ISBUS 0 0
    BUSCOMP 0 0 0 0 0
    SHOWINMIX 1 0.6667 0.5 1 0.5 0 -1 0
    FREEMODE 0
    SEL 0
    REC 0 0 1 0 0 0 0
    VU 2
    TRACKHEIGHT 0 1 0 0 -1 0
    INQ 0 0 0 0.5 100 0 0 100
    NCHAN 2
    FX 1
    TRACKID {F767027A-A6D5-0346-ADCB-2F93077A2FFB}
    PERF 0
    MIDIOUT -1
    MAINSEND 1 0
    <ITEM
      POSITION 0
      SNAPOFFS 0
      LENGTH 308.571264
      LOOP 1
      ALLTAKES 0
      FADEIN 1 0 0 1 0 0
      FADEOUT 1 0 0 1 0 0
      MUTE 0 0
      SEL 0
      IGUID {F5E0A759-3A04-1E41-BC88-3FC71BB18C6F}
      IID 17
      NAME "mission brand tortilla strips.mid"
      VOLPAN 1 0 1 -1
      SOFFS 0 0
      PLAYRATE 1 1 0 -1 0 0.0025
      CHANMODE 0
      GUID {C77B91DD-F06C-DD4D-9BC9-95A81DA6AD30}
      <SOURCE MIDI
        HASDATA 1 128 QN
        CCINTERP 32
        POOLEDEVTS {CF73768F-73C4-1240-8980-57F8C7975CBF}
        E 59 b4 02 19
        E 59 b4 02 1a
        E 59 b4 02 1c
        E 59 b4 02 1d
        E 59 b4 02 1e
        E 59 b4 02 1f
        E 59 b4 02 20
        E 59 b4 02 22
        E 59 b4 02 23
        E 59 b4 02 24
        E 59 b4 02 25
        E 59 b4 02 26
        E 59 b4 02 27
        E 59 b4 02 28
        E 59 b4 02 29
        E 59 b4 02 2a
        E 59 b4 02 2b
        E 59 b4 02 2c
        E 59 b4 02 2d
        E 59 b4 02 2e
        E 59 b4 02 2e
        E 59 b4 02 2f
        E 59 b4 02 30
        E 59 b4 02 30
        E 59 b4 02 30
        E 59 b4 02 31
        E 59 b4 02 31
        E 59 b4 02 32
        E 59 b4 02 32
        E 59 b4 02 32
        E 59 b4 02 32
        E 59 b4 02 32
        E 59 b4 02 32
        E 59 b4 02 32
        E 59 b4 02 32
        E 59 b4 02 32
        E 59 b4 02 32
        E 59 b4 02 32
        E 59 b4 02 31
        E 59 b4 02 31
        E 59 b4 02 30
        E 59 b4 02 30
        E 59 b4 02 2f
        E 59 b4 02 2e
        E 59 b4 02 2e
        E 59 b4 02 2d
        E 59 b4 02 2c
        E 59 b4 02 2c
        E 59 b4 02 2b
        E 59 b4 02 2a
        E 59 b4 02 29
        E 59 b4 02 28
        E 59 b4 02 27
        E 59 b4 02 26
        E 59 b4 02 24
        E 59 b4 02 23
        E 59 b4 02 22
        E 59 b4 02 21
        E 59 b4 02 20
        E 59 b4 02 1f
        E 59 b4 02 1d
        E 59 b4 02 1c
        E 59 b4 02 1b
        E 59 b4 02 1a
        E 59 b4 02 18
        E 59 b4 02 17
        E 59 b4 02 16
        E 59 b4 02 15
        E 59 b4 02 13
        E 59 b4 02 12
        E 59 b4 02 11
        E 59 b4 02 10
        E 59 b4 02 0f
        E 59 b4 02 0e
        E 59 b4 02 0c
        E 59 b4 02 0b
        E 59 b4 02 0a
        E 59 b4 02 09
        E 59 b4 02 08
        E 59 b4 02 07
        E 59 b4 02 06
        E 59 b4 02 06
        E 59 b4 02 05
        E 59 b4 02 04
        E 59 b4 02 04
        E 59 b4 02 03
        E 59 b4 02 02
        E 59 b4 02 02
        E 59 b4 02 01
        E 59 b4 02 01
        E 59 b4 02 00
        E 59 b4 02 00
        E 59 b4 02 00
        E 59 b4 02 00
        E 59 b4 02 00
        E 59 b4 02 00
        E 59 b4 02 00
        E 59 b4 02 00
        E 59 b4 02 00
        E 59 b4 02 00
        E 59 b4 02 00
        E 59 b4 02 01
        E 59 b4 02 01
        E 59 b4 02 02
        E 59 b4 02 02
        E 59 b4 02 02
        E 59 b4 02 03
        E 59 b4 02 04
        E 59 b4 02 04
        E 59 b4 02 05
        E 59 b4 02 06
        E 59 b4 02 07
        E 59 b4 02 08
        E 59 b4 02 09
        E 59 b4 02 0a
        E 59 b4 02 0b
        E 59 b4 02 0c
        E 59 b4 02 0d
        E 59 b4 02 0e
        E 59 b4 02 0f
        E 59 b4 02 10
        E 59 b4 02 12
        E 59 b4 02 13
        E 59 b4 02 14
        E 59 b4 02 15
        E 59 b4 02 16
        E 59 b4 02 18
        E 59 b4 02 19
        E 59 b4 02 06
        E 59 b4 02 06
        E 59 b4 02 07
        E 59 b4 02 07
        E 59 b4 02 07
        E 59 b4 02 07
        E 59 b4 02 08
        E 59 b4 02 08
        E 59 b4 02 08
        E 59 b4 02 09
        E 59 b4 02 09
        E 59 b4 02 09
        E 59 b4 02 09
        E 59 b4 02 0a
        E 59 b4 02 0a
        E 59 b4 02 0a
        E 59 b4 02 0a
        E 59 b4 02 0b
        E 59 b4 02 0b
        E 59 b4 02 0b
        E 59 b4 02 0b
        E 59 b4 02 0b
        E 59 b4 02 0c
        E 59 b4 02 0c
        E 59 b4 02 0c
        E 59 b4 02 0c
        E 59 b4 02 0c
        E 59 b4 02 0c
        E 59 b4 02 0c
        E 59 b4 02 0c
        E 59 b4 02 0c
        E 59 b4 02 0c
        E 59 b4 02 0c
        E 59 b4 02 0c
        E 59 b4 02 0c
        E 59 b4 02 0c
        E 59 b4 02 0c
        E 59 b4 02 0c
        E 59 b4 02 0c
        E 59 b4 02 0c
        E 59 b4 02 0c
        E 59 b4 02 0c
        E 59 b4 02 0b
        E 59 b4 02 0b
        E 59 b4 02 0b
        E 59 b4 02 0b
        E 59 b4 02 0b
        E 59 b4 02 0b
        E 59 b4 02 0a
        E 59 b4 02 0a
        E 59 b4 02 0a
        E 59 b4 02 0a
        E 59 b4 02 09
        E 59 b4 02 09
        E 59 b4 02 09
        E 59 b4 02 08
        E 59 b4 02 08
        E 59 b4 02 08
        E 59 b4 02 08
        E 59 b4 02 07
        E 59 b4 02 07
        E 59 b4 02 07
        E 59 b4 02 06
        E 59 b4 02 06
        E 59 b4 02 06
        E 59 b4 02 05
        E 59 b4 02 05
        E 59 b4 02 05
        E 59 b4 02 04
        E 59 b4 02 04
        E 59 b4 02 04
        E 59 b4 02 04
        E 59 b4 02 03
        E 59 b4 02 03
        E 59 b4 02 03
        E 59 b4 02 02
        E 59 b4 02 02
        E 59 b4 02 02
        E 59 b4 02 02
        E 59 b4 02 01
        E 59 b4 02 01
        E 59 b4 02 01
        E 59 b4 02 01
        E 59 b4 02 01
        E 59 b4 02 01
        E 59 b4 02 00
        E 59 b4 02 00
        E 59 b4 02 00
        E 59 b4 02 00
        E 59 b4 02 00
        E 59 b4 02 00
        E 59 b4 02 00
        E 59 b4 02 00
        E 59 b4 02 00
        E 59 b4 02 00
        E 59 b4 02 00
        E 59 b4 02 00
        E 59 b4 02 00
        E 59 b4 02 00
        E 59 b4 02 00
        E 59 b4 02 00
        E 59 b4 02 00
        E 59 b4 02 00
        E 59 b4 02 00
        E 59 b4 02 00
        E 59 b4 02 00
        E 59 b4 02 00
        E 59 b4 02 01
        E 59 b4 02 01
        E 59 b4 02 01
        E 59 b4 02 01
        E 59 b4 02 01
        E 59 b4 02 02
        E 59 b4 02 02
        E 59 b4 02 02
        E 59 b4 02 02
        E 59 b4 02 03
        E 59 b4 02 03
        E 59 b4 02 03
        E 59 b4 02 03
        E 59 b4 02 04
        E 59 b4 02 04
        E 59 b4 02 04
        E 59 b4 02 05
        E 59 b4 02 05
        E 59 b4 02 05
        E 59 b4 02 06
        E 59 b4 02 06
        E 59 b4 02 19
        E 59 b4 02 1a
        E 59 b4 02 1c
        E 59 b4 02 1d
        E 59 b4 02 1e
        E 59 b4 02 1f
        E 59 b4 02 20
        E 59 b4 02 22
        E 59 b4 02 23
        E 59 b4 02 24
        E 59 b4 02 25
        E 59 b4 02 26
        E 59 b4 02 27
        E 59 b4 02 28
        E 59 b4 02 29
        E 59 b4 02 2a
        E 59 b4 02 2b
        E 59 b4 02 2c
        E 59 b4 02 2d
        E 59 b4 02 2e
        E 59 b4 02 2e
        E 59 b4 02 2f
        E 59 b4 02 30
        E 59 b4 02 30
        E 59 b4 02 30
        E 59 b4 02 31
        E 59 b4 02 31
        E 59 b4 02 32
        E 59 b4 02 32
        E 59 b4 02 32
        E 59 b4 02 32
        E 59 b4 02 32
        E 59 b4 02 32
        E 59 b4 02 32
        E 59 b4 02 32
        E 59 b4 02 32
        E 59 b4 02 32
        E 59 b4 02 32
        E 59 b4 02 31
        E 59 b4 02 31
        E 59 b4 02 30
        E 59 b4 02 30
        E 59 b4 02 2f
        E 59 b4 02 2e
        E 59 b4 02 2e
        E 59 b4 02 2d
        E 59 b4 02 2c
        E 59 b4 02 2c
        E 59 b4 02 2b
        E 59 b4 02 2a
        E 59 b4 02 29
        E 59 b4 02 28
        E 59 b4 02 27
        E 59 b4 02 26
        E 59 b4 02 24
        E 59 b4 02 23
        E 59 b4 02 22
        E 59 b4 02 21
        E 59 b4 02 20
        E 59 b4 02 1f
        E 59 b4 02 1d
        E 59 b4 02 1c
        E 59 b4 02 1b
        E 59 b4 02 1a
        E 59 b4 02 18
        E 59 b4 02 17
        E 59 b4 02 16
        E 59 b4 02 15
        E 59 b4 02 13
        E 59 b4 02 12
        E 59 b4 02 11
        E 59 b4 02 10
        E 59 b4 02 0f
        E 59 b4 02 0e
        E 59 b4 02 0c
        E 59 b4 02 0b
        E 59 b4 02 0a
        E 59 b4 02 09
        E 59 b4 02 08
        E 59 b4 02 07
        E 59 b4 02 06
        E 59 b4 02 06
        E 59 b4 02 05
        E 59 b4 02 04
        E 59 b4 02 04
        E 59 b4 02 03
        E 59 b4 02 02
        E 59 b4 02 02
        E 59 b4 02 01
        E 59 b4 02 01
        E 59 b4 02 00
        E 59 b4 02 00
        E 59 b4 02 00
        E 59 b4 02 00
        E 59 b4 02 00
        E 59 b4 02 00
        E 59 b4 02 00
        E 59 b4 02 00
        E 59 b4 02 00
        E 59 b4 02 00
        E 59 b4 02 00
        E 59 b4 02 01
        E 59 b4 02 01
        E 59 b4 02 02
        E 59 b4 02 02
        E 59 b4 02 02
        E 59 b4 02 03
        E 59 b4 02 04
        E 59 b4 02 04
        E 59 b4 02 05
        E 59 b4 02 06
        E 59 b4 02 07
        E 59 b4 02 08
        E 59 b4 02 09
        E 59 b4 02 0a
        E 59 b4 02 0b
        E 59 b4 02 0c
        E 59 b4 02 0d
        E 59 b4 02 0e
        E 59 b4 02 0f
        E 59 b4 02 10
        E 59 b4 02 12
        E 59 b4 02 13
        E 59 b4 02 14
        E 59 b4 02 15
        E 59 b4 02 16
        E 59 b4 02 18
        E 59 b4 02 19
        E 15 b4 02 19
        E 15 b4 02 1a
        E 15 b4 02 1c
        E 15 b4 02 1d
        E 15 b4 02 1e
        E 15 b4 02 1f
        E 15 b4 02 20
        E 15 b4 02 22
        E 15 b4 02 23
        E 15 b4 02 24
        E 15 b4 02 25
        E 15 b4 02 26
        E 15 b4 02 27
        E 15 b4 02 28
        E 15 b4 02 29
        E 15 b4 02 2a
        E 15 b4 02 2b
        E 15 b4 02 2c
        E 15 b4 02 2d
        E 15 b4 02 2e
        E 15 b4 02 2e
        E 15 b4 02 2f
        E 15 b4 02 30
        E 15 b4 02 30
        E 15 b4 02 30
        E 15 b4 02 31
        E 15 b4 02 31
        E 15 b4 02 32
        E 15 b4 02 32
        E 15 b4 02 32
        E 15 b4 02 32
        E 15 b4 02 32
        E 15 b4 02 32
        E 15 b4 02 32
        E 15 b4 02 32
        E 15 b4 02 32
        E 15 b4 02 32
        E 15 b4 02 32
        E 15 b4 02 31
        E 15 b4 02 31
        E 15 b4 02 30
        E 15 b4 02 30
        E 15 b4 02 2f
        E 15 b4 02 2e
        E 15 b4 02 2e
        E 15 b4 02 2d
        E 15 b4 02 2c
        E 15 b4 02 2c
        E 15 b4 02 2b
        E 15 b4 02 2a
        E 15 b4 02 29
        E 15 b4 02 28
        E 15 b4 02 27
        E 15 b4 02 26
        E 15 b4 02 24
        E 15 b4 02 23
        E 15 b4 02 22
        E 15 b4 02 21
        E 15 b4 02 20
        E 15 b4 02 1f
        E 15 b4 02 1d
        E 15 b4 02 1c
        E 15 b4 02 1b
        E 15 b4 02 1a
        E 15 b4 02 18
        E 15 b4 02 17
        E 15 b4 02 16
        E 15 b4 02 15
        E 15 b4 02 13
        E 15 b4 02 12
        E 15 b4 02 11
        E 15 b4 02 10
        E 15 b4 02 0f
        E 15 b4 02 0e
        E 15 b4 02 0c
        E 15 b4 02 0b
        E 15 b4 02 0a
        E 15 b4 02 09
        E 15 b4 02 08
        E 15 b4 02 07
        E 15 b4 02 06
        E 15 b4 02 06
        E 15 b4 02 05
        E 15 b4 02 04
        E 15 b4 02 04
        E 15 b4 02 03
        E 15 b4 02 02
        E 15 b4 02 02
        E 15 b4 02 01
        E 15 b4 02 01
        E 15 b4 02 00
        E 15 b4 02 00
        E 15 b4 02 00
        E 15 b4 02 00
        E 15 b4 02 00
        E 15 b4 02 00
        E 15 b4 02 00
        E 15 b4 02 00
        E 15 b4 02 00
        E 15 b4 02 00
        E 15 b4 02 00
        E 15 b4 02 01
        E 15 b4 02 01
        E 15 b4 02 02
        E 15 b4 02 02
        E 15 b4 02 02
        E 15 b4 02 03
        E 15 b4 02 04
        E 15 b4 02 04
        E 15 b4 02 05
        E 15 b4 02 06
        E 15 b4 02 07
        E 15 b4 02 08
        E 15 b4 02 09
        E 15 b4 02 0a
        E 15 b4 02 0b
        E 15 b4 02 0c
        E 15 b4 02 0d
        E 15 b4 02 0e
        E 15 b4 02 0f
        E 15 b4 02 10
        E 15 b4 02 12
        E 15 b4 02 13
        E 15 b4 02 14
        E 15 b4 02 15
        E 15 b4 02 16
        E 15 b4 02 18
        E 15 b4 02 19
        E 59 b4 02 19
        E 59 b4 02 1a
        E 59 b4 02 1c
        E 59 b4 02 1d
        E 59 b4 02 1e
        E 59 b4 02 1f
        E 59 b4 02 20
        E 59 b4 02 22
        E 59 b4 02 23
        E 59 b4 02 24
        E 59 b4 02 25
        E 59 b4 02 26
        E 59 b4 02 27
        E 59 b4 02 28
        E 59 b4 02 29
        E 59 b4 02 2a
        E 59 b4 02 2b
        E 59 b4 02 2c
        E 59 b4 02 2d
        E 59 b4 02 2e
        E 59 b4 02 2e
        E 59 b4 02 2f
        E 59 b4 02 30
        E 59 b4 02 30
        E 59 b4 02 30
        E 59 b4 02 31
        E 59 b4 02 31
        E 59 b4 02 32
        E 59 b4 02 32
        E 59 b4 02 32
        E 59 b4 02 32
        E 59 b4 02 32
        E 59 b4 02 32
        E 59 b4 02 32
        E 59 b4 02 32
        E 59 b4 02 32
        E 59 b4 02 32
        E 59 b4 02 32
        E 59 b4 02 31
        E 59 b4 02 31
        E 59 b4 02 30
        E 59 b4 02 30
        E 59 b4 02 2f
        E 59 b4 02 2e
        E 59 b4 02 2e
        E 59 b4 02 2d
        E 59 b4 02 2c
        E 59 b4 02 2c
        E 59 b4 02 2b
        E 59 b4 02 2a
        E 59 b4 02 29
        E 59 b4 02 28
        E 59 b4 02 27
        E 59 b4 02 26
        E 59 b4 02 24
        E 59 b4 02 23
        E 59 b4 02 22
        E 59 b4 02 21
        E 59 b4 02 20
        E 59 b4 02 1f
        E 59 b4 02 1d
        E 59 b4 02 1c
        E 59 b4 02 1b
        E 59 b4 02 1a
        E 59 b4 02 18
        E 59 b4 02 17
        E 59 b4 02 16
        E 59 b4 02 15
        E 59 b4 02 13
        E 59 b4 02 12
        E 59 b4 02 11
        E 59 b4 02 10
        E 59 b4 02 0f
        E 59 b4 02 0e
        E 59 b4 02 0c
        E 59 b4 02 0b
        E 59 b4 02 0a
        E 59 b4 02 09
        E 59 b4 02 08
        E 59 b4 02 07
        E 59 b4 02 06
        E 59 b4 02 06
        E 59 b4 02 05
        E 59 b4 02 04
        E 59 b4 02 04
        E 59 b4 02 03
        E 59 b4 02 02
        E 59 b4 02 02
        E 59 b4 02 01
        E 59 b4 02 01
        E 59 b4 02 00
        E 59 b4 02 00
        E 59 b4 02 00
        E 59 b4 02 00
        E 59 b4 02 00
        E 59 b4 02 00
        E 59 b4 02 00
        E 59 b4 02 00
        E 59 b4 02 00
        E 59 b4 02 00
        E 59 b4 02 00
        E 59 b4 02 01
        E 59 b4 02 01
        E 59 b4 02 02
        E 59 b4 02 02
        E 59 b4 02 02
        E 59 b4 02 03
        E 59 b4 02 04
        E 59 b4 02 04
        E 59 b4 02 05
        E 59 b4 02 06
        E 59 b4 02 07
        E 59 b4 02 08
        E 59 b4 02 09
        E 59 b4 02 0a
        E 59 b4 02 0b
        E 59 b4 02 0c
        E 59 b4 02 0d
        E 59 b4 02 0e
        E 59 b4 02 0f
        E 59 b4 02 10
        E 59 b4 02 12
        E 59 b4 02 13
        E 59 b4 02 14
        E 59 b4 02 15
        E 59 b4 02 16
        E 59 b4 02 18
        E 59 b4 02 19
        E 59 b4 02 06
        E 59 b4 02 06
        E 59 b4 02 07
        E 59 b4 02 07
        E 59 b4 02 07
        E 59 b4 02 07
        E 59 b4 02 08
        E 59 b4 02 08
        E 59 b4 02 08
        E 59 b4 02 09
        E 59 b4 02 09
        E 59 b4 02 09
        E 59 b4 02 09
        E 59 b4 02 0a
        E 59 b4 02 0a
        E 59 b4 02 0a
        E 59 b4 02 0a
        E 59 b4 02 0b
        E 59 b4 02 0b
        E 59 b4 02 0b
        E 59 b4 02 0b
        E 59 b4 02 0b
        E 59 b4 02 0c
        E 59 b4 02 0c
        E 59 b4 02 0c
        E 59 b4 02 0c
        E 59 b4 02 0c
        E 59 b4 02 0c
        E 59 b4 02 0c
        E 59 b4 02 0c
        E 59 b4 02 0c
        E 59 b4 02 0c
        E 59 b4 02 0c
        E 59 b4 02 0c
        E 59 b4 02 0c
        E 59 b4 02 0c
        E 59 b4 02 0c
        E 59 b4 02 0c
        E 59 b4 02 0c
        E 59 b4 02 0c
        E 59 b4 02 0c
        E 59 b4 02 0c
        E 59 b4 02 0b
        E 59 b4 02 0b
        E 59 b4 02 0b
        E 59 b4 02 0b
        E 59 b4 02 0b
        E 59 b4 02 0b
        E 59 b4 02 0a
        E 59 b4 02 0a
        E 59 b4 02 0a
        E 59 b4 02 0a
        E 59 b4 02 09
        E 59 b4 02 09
        E 59 b4 02 09
        E 59 b4 02 08
        E 59 b4 02 08
        E 59 b4 02 08
        E 59 b4 02 08
        E 59 b4 02 07
        E 59 b4 02 07
        E 59 b4 02 07
        E 59 b4 02 06
        E 59 b4 02 06
        E 59 b4 02 06
        E 59 b4 02 05
        E 59 b4 02 05
        E 59 b4 02 05
        E 59 b4 02 04
        E 59 b4 02 04
        E 59 b4 02 04
        E 59 b4 02 04
        E 59 b4 02 03
        E 59 b4 02 03
        E 59 b4 02 03
        E 59 b4 02 02
        E 59 b4 02 02
        E 59 b4 02 02
        E 59 b4 02 02
        E 59 b4 02 01
        E 59 b4 02 01
        E 59 b4 02 01
        E 59 b4 02 01
        E 59 b4 02 01
        E 59 b4 02 01
        E 59 b4 02 00
        E 59 b4 02 00
        E 59 b4 02 00
        E 59 b4 02 00
        E 59 b4 02 00
        E 59 b4 02 00
        E 59 b4 02 00
        E 59 b4 02 00
        E 59 b4 02 00
        E 59 b4 02 00
        E 59 b4 02 00
        E 59 b4 02 00
        E 59 b4 02 00
        E 59 b4 02 00
        E 59 b4 02 00
        E 59 b4 02 00
        E 59 b4 02 00
        E 59 b4 02 00
        E 59 b4 02 00
        E 59 b4 02 00
        E 59 b4 02 00
        E 59 b4 02 00
        E 59 b4 02 01
        E 59 b4 02 01
        E 59 b4 02 01
        E 59 b4 02 01
        E 59 b4 02 01
        E 59 b4 02 02
        E 59 b4 02 02
        E 59 b4 02 02
        E 59 b4 02 02
        E 59 b4 02 03
        E 59 b4 02 03
        E 59 b4 02 03
        E 59 b4 02 03
        E 59 b4 02 04
        E 59 b4 02 04
        E 59 b4 02 04
        E 59 b4 02 05
        E 59 b4 02 05
        E 59 b4 02 05
        E 59 b4 02 06
        E 59 b4 02 06
        E 59 b4 02 19
        E 59 b4 02 1a
        E 59 b4 02 1c
        E 59 b4 02 1d
        E 59 b4 02 1e
        E 59 b4 02 1f
        E 59 b4 02 20
        E 59 b4 02 22
        E 59 b4 02 23
        E 59 b4 02 24
        E 59 b4 02 25
        E 59 b4 02 26
        E 59 b4 02 27
        E 59 b4 02 28
        E 59 b4 02 29
        E 59 b4 02 2a
        E 59 b4 02 2b
        E 59 b4 02 2c
        E 59 b4 02 2d
        E 59 b4 02 2e
        E 59 b4 02 2e
        E 59 b4 02 2f
        E 59 b4 02 30
        E 59 b4 02 30
        E 59 b4 02 30
        E 59 b4 02 31
        E 59 b4 02 31
        E 59 b4 02 32
        E 59 b4 02 32
        E 59 b4 02 32
        E 59 b4 02 32
        E 59 b4 02 32
        E 59 b4 02 32
        E 59 b4 02 32
        E 59 b4 02 32
        E 59 b4 02 32
        E 59 b4 02 32
        E 59 b4 02 32
        E 59 b4 02 31
        E 59 b4 02 31
        E 59 b4 02 30
        E 59 b4 02 30
        E 59 b4 02 2f
        E 59 b4 02 2e
        E 59 b4 02 2e
        E 59 b4 02 2d
        E 59 b4 02 2c
        E 59 b4 02 2c
        E 59 b4 02 2b
        E 59 b4 02 2a
        E 59 b4 02 29
        E 59 b4 02 28
        E 59 b4 02 27
        E 59 b4 02 26
        E 59 b4 02 24
        E 59 b4 02 23
        E 59 b4 02 22
        E 59 b4 02 21
        E 59 b4 02 20
        E 59 b4 02 1f
        E 59 b4 02 1d
        E 59 b4 02 1c
        E 59 b4 02 1b
        E 59 b4 02 1a
        E 59 b4 02 18
        E 59 b4 02 17
        E 59 b4 02 16
        E 59 b4 02 15
        E 59 b4 02 13
        E 59 b4 02 12
        E 59 b4 02 11
        E 59 b4 02 10
        E 59 b4 02 0f
        E 59 b4 02 0e
        E 59 b4 02 0c
        E 59 b4 02 0b
        E 59 b4 02 0a
        E 59 b4 02 09
        E 59 b4 02 08
        E 59 b4 02 07
        E 59 b4 02 06
        E 59 b4 02 06
        E 59 b4 02 05
        E 59 b4 02 04
        E 59 b4 02 04
        E 59 b4 02 03
        E 59 b4 02 02
        E 59 b4 02 02
        E 59 b4 02 01
        E 59 b4 02 01
        E 59 b4 02 00
        E 59 b4 02 00
        E 59 b4 02 00
        E 59 b4 02 00
        E 59 b4 02 00
        E 59 b4 02 00
        E 59 b4 02 00
        E 59 b4 02 00
        E 59 b4 02 00
        E 59 b4 02 00
        E 59 b4 02 00
        E 59 b4 02 01
        E 59 b4 02 01
        E 59 b4 02 02
        E 59 b4 02 02
        E 59 b4 02 02
        E 59 b4 02 03
        E 59 b4 02 04
        E 59 b4 02 04
        E 59 b4 02 05
        E 59 b4 02 06
        E 59 b4 02 07
        E 59 b4 02 08
        E 59 b4 02 09
        E 59 b4 02 0a
        E 59 b4 02 0b
        E 59 b4 02 0c
        E 59 b4 02 0d
        E 59 b4 02 0e
        E 59 b4 02 0f
        E 59 b4 02 10
        E 59 b4 02 12
        E 59 b4 02 13
        E 59 b4 02 14
        E 59 b4 02 15
        E 59 b4 02 16
        E 59 b4 02 18
        E 59 b4 02 19
        E 15 b4 02 19
        E 15 b4 02 1a
        E 15 b4 02 1c
        E 15 b4 02 1d
        E 15 b4 02 1e
        E 15 b4 02 1f
        E 15 b4 02 20
        E 15 b4 02 22
        E 15 b4 02 23
        E 15 b4 02 24
        E 15 b4 02 25
        E 15 b4 02 26
        E 15 b4 02 27
        E 15 b4 02 28
        E 15 b4 02 29
        E 15 b4 02 2a
        E 15 b4 02 2b
        E 15 b4 02 2c
        E 15 b4 02 2d
        E 15 b4 02 2e
        E 15 b4 02 2e
        E 15 b4 02 2f
        E 15 b4 02 30
        E 15 b4 02 30
        E 15 b4 02 30
        E 15 b4 02 31
        E 15 b4 02 31
        E 15 b4 02 32
        E 15 b4 02 32
        E 15 b4 02 32
        E 15 b4 02 32
        E 15 b4 02 32
        E 15 b4 02 32
        E 15 b4 02 32
        E 15 b4 02 32
        E 15 b4 02 32
        E 15 b4 02 32
        E 15 b4 02 32
        E 15 b4 02 31
        E 15 b4 02 31
        E 15 b4 02 30
        E 15 b4 02 30
        E 15 b4 02 2f
        E 15 b4 02 2e
        E 15 b4 02 2e
        E 15 b4 02 2d
        E 15 b4 02 2c
        E 15 b4 02 2c
        E 15 b4 02 2b
        E 15 b4 02 2a
        E 15 b4 02 29
        E 15 b4 02 28
        E 15 b4 02 27
        E 15 b4 02 26
        E 15 b4 02 24
        E 15 b4 02 23
        E 15 b4 02 22
        E 15 b4 02 21
        E 15 b4 02 20
        E 15 b4 02 1f
        E 15 b4 02 1d
        E 15 b4 02 1c
        E 15 b4 02 1b
        E 15 b4 02 1a
        E 15 b4 02 18
        E 15 b4 02 17
        E 15 b4 02 16
        E 15 b4 02 15
        E 15 b4 02 13
        E 15 b4 02 12
        E 15 b4 02 11
        E 15 b4 02 10
        E 15 b4 02 0f
        E 15 b4 02 0e
        E 15 b4 02 0c
        E 15 b4 02 0b
        E 15 b4 02 0a
        E 15 b4 02 09
        E 15 b4 02 08
        E 15 b4 02 07
        E 15 b4 02 06
        E 15 b4 02 06
        E 15 b4 02 05
        E 15 b4 02 04
        E 15 b4 02 04
        E 15 b4 02 03
        E 15 b4 02 02
        E 15 b4 02 02
        E 15 b4 02 01
        E 15 b4 02 01
        E 15 b4 02 00
        E 15 b4 02 00
        E 15 b4 02 00
        E 15 b4 02 00
        E 15 b4 02 00
        E 15 b4 02 00
        E 15 b4 02 00
        E 15 b4 02 00
        E 15 b4 02 00
        E 15 b4 02 00
        E 15 b4 02 00
        E 15 b4 02 01
        E 15 b4 02 01
        E 15 b4 02 02
        E 15 b4 02 02
        E 15 b4 02 02
        E 15 b4 02 03
        E 15 b4 02 04
        E 15 b4 02 04
        E 15 b4 02 05
        E 15 b4 02 06
        E 15 b4 02 07
        E 15 b4 02 08
        E 15 b4 02 09
        E 15 b4 02 0a
        E 15 b4 02 0b
        E 15 b4 02 0c
        E 15 b4 02 0d
        E 15 b4 02 0e
        E 15 b4 02 0f
        E 15 b4 02 10
        E 15 b4 02 12
        E 15 b4 02 13
        E 15 b4 02 14
        E 15 b4 02 15
        E 15 b4 02 16
        E 15 b4 02 18
        E 15 b4 02 19
        E 59 b4 02 19
        E 59 b4 02 1a
        E 59 b4 02 1c
        E 59 b4 02 1d
        E 59 b4 02 1e
        E 59 b4 02 1f
        E 59 b4 02 20
        E 59 b4 02 22
        E 59 b4 02 23
        E 59 b4 02 24
        E 59 b4 02 25
        E 59 b4 02 26
        E 59 b4 02 27
        E 59 b4 02 28
        E 59 b4 02 29
        E 59 b4 02 2a
        E 59 b4 02 2b
        E 59 b4 02 2c
        E 59 b4 02 2d
        E 59 b4 02 2e
        E 59 b4 02 2e
        E 59 b4 02 2f
        E 59 b4 02 30
        E 59 b4 02 30
        E 59 b4 02 30
        E 59 b4 02 31
        E 59 b4 02 31
        E 59 b4 02 32
        E 59 b4 02 32
        E 59 b4 02 32
        E 59 b4 02 32
        E 59 b4 02 32
        E 59 b4 02 32
        E 59 b4 02 32
        E 59 b4 02 32
        E 59 b4 02 32
        E 59 b4 02 32
        E 59 b4 02 32
        E 59 b4 02 31
        E 59 b4 02 31
        E 59 b4 02 30
        E 59 b4 02 30
        E 59 b4 02 2f
        E 59 b4 02 2e
        E 59 b4 02 2e
        E 59 b4 02 2d
        E 59 b4 02 2c
        E 59 b4 02 2c
        E 59 b4 02 2b
        E 59 b4 02 2a
        E 59 b4 02 29
        E 59 b4 02 28
        E 59 b4 02 27
        E 59 b4 02 26
        E 59 b4 02 24
        E 59 b4 02 23
        E 59 b4 02 22
        E 59 b4 02 21
        E 59 b4 02 20
        E 59 b4 02 1f
        E 59 b4 02 1d
        E 59 b4 02 1c
        E 59 b4 02 1b
        E 59 b4 02 1a
        E 59 b4 02 18
        E 59 b4 02 17
        E 59 b4 02 16
        E 59 b4 02 15
        E 59 b4 02 13
        E 59 b4 02 12
        E 59 b4 02 11
        E 59 b4 02 10
        E 59 b4 02 0f
        E 59 b4 02 0e
        E 59 b4 02 0c
        E 59 b4 02 0b
        E 59 b4 02 0a
        E 59 b4 02 09
        E 59 b4 02 08
        E 59 b4 02 07
        E 59 b4 02 06
        E 59 b4 02 06
        E 59 b4 02 05
        E 59 b4 02 04
        E 59 b4 02 04
        E 59 b4 02 03
        E 59 b4 02 02
        E 59 b4 02 02
        E 59 b4 02 01
        E 59 b4 02 01
        E 59 b4 02 00
        E 59 b4 02 00
        E 59 b4 02 00
        E 59 b4 02 00
        E 59 b4 02 00
        E 59 b4 02 00
        E 59 b4 02 00
        E 59 b4 02 00
        E 59 b4 02 00
        E 59 b4 02 00
        E 59 b4 02 00
        E 59 b4 02 01
        E 59 b4 02 01
        E 59 b4 02 02
        E 59 b4 02 02
        E 59 b4 02 02
        E 59 b4 02 03
        E 59 b4 02 04
        E 59 b4 02 04
        E 59 b4 02 05
        E 59 b4 02 06
        E 59 b4 02 07
        E 59 b4 02 08
        E 59 b4 02 09
        E 59 b4 02 0a
        E 59 b4 02 0b
        E 59 b4 02 0c
        E 59 b4 02 0d
        E 59 b4 02 0e
        E 59 b4 02 0f
        E 59 b4 02 10
        E 59 b4 02 12
        E 59 b4 02 13
        E 59 b4 02 14
        E 59 b4 02 15
        E 59 b4 02 16
        E 59 b4 02 18
        E 59 b4 02 19
        E 59 b4 02 06
        E 59 b4 02 06
        E 59 b4 02 07
        E 59 b4 02 07
        E 59 b4 02 07
        E 59 b4 02 07
        E 59 b4 02 08
        E 59 b4 02 08
        E 59 b4 02 08
        E 59 b4 02 09
        E 59 b4 02 09
        E 59 b4 02 09
        E 59 b4 02 09
        E 59 b4 02 0a
        E 59 b4 02 0a
        E 59 b4 02 0a
        E 59 b4 02 0a
        E 59 b4 02 0b
        E 59 b4 02 0b
        E 59 b4 02 0b
        E 59 b4 02 0b
        E 59 b4 02 0b
        E 59 b4 02 0c
        E 59 b4 02 0c
        E 59 b4 02 0c
        E 59 b4 02 0c
        E 59 b4 02 0c
        E 59 b4 02 0c
        E 59 b4 02 0c
        E 59 b4 02 0c
        E 59 b4 02 0c
        E 59 b4 02 0c
        E 59 b4 02 0c
        E 59 b4 02 0c
        E 59 b4 02 0c
        E 59 b4 02 0c
        E 59 b4 02 0c
        E 59 b4 02 0c
        E 59 b4 02 0c
        E 59 b4 02 0c
        E 59 b4 02 0c
        E 59 b4 02 0c
        E 59 b4 02 0b
        E 59 b4 02 0b
        E 59 b4 02 0b
        E 59 b4 02 0b
        E 59 b4 02 0b
        E 59 b4 02 0b
        E 59 b4 02 0a
        E 59 b4 02 0a
        E 59 b4 02 0a
        E 59 b4 02 0a
        E 59 b4 02 09
        E 59 b4 02 09
        E 59 b4 02 09
        E 59 b4 02 08
        E 59 b4 02 08
        E 59 b4 02 08
        E 59 b4 02 08
        E 59 b4 02 07
        E 59 b4 02 07
        E 59 b4 02 07
        E 59 b4 02 06
        E 59 b4 02 06
        E 59 b4 02 06
        E 59 b4 02 05
        E 59 b4 02 05
        E 59 b4 02 05
        E 59 b4 02 04
        E 59 b4 02 04
        E 59 b4 02 04
        E 59 b4 02 04
        E 59 b4 02 03
        E 59 b4 02 03
        E 59 b4 02 03
        E 59 b4 02 02
        E 59 b4 02 02
        E 59 b4 02 02
        E 59 b4 02 02
        E 59 b4 02 01
        E 59 b4 02 01
        E 59 b4 02 01
        E 59 b4 02 01
        E 59 b4 02 01
        E 59 b4 02 01
        E 59 b4 02 00
        E 59 b4 02 00
        E 59 b4 02 00
        E 59 b4 02 00
        E 59 b4 02 00
        E 59 b4 02 00
        E 59 b4 02 00
        E 59 b4 02 00
        E 59 b4 02 00
        E 59 b4 02 00
        E 59 b4 02 00
        E 59 b4 02 00
        E 59 b4 02 00
        E 59 b4 02 00
        E 59 b4 02 00
        E 59 b4 02 00
        E 59 b4 02 00
        E 59 b4 02 00
        E 59 b4 02 00
        E 59 b4 02 00
        E 59 b4 02 00
        E 59 b4 02 00
        E 59 b4 02 01
        E 59 b4 02 01
        E 59 b4 02 01
        E 59 b4 02 01
        E 59 b4 02 01
        E 59 b4 02 02
        E 59 b4 02 02
        E 59 b4 02 02
        E 59 b4 02 02
        E 59 b4 02 03
        E 59 b4 02 03
        E 59 b4 02 03
        E 59 b4 02 03
        E 59 b4 02 04
        E 59 b4 02 04
        E 59 b4 02 04
        E 59 b4 02 05
        E 59 b4 02 05
        E 59 b4 02 05
        E 59 b4 02 06
        E 59 b4 02 06
        E 59 b4 02 19
        E 59 b4 02 1a
        E 59 b4 02 1c
        E 59 b4 02 1d
        E 59 b4 02 1e
        E 59 b4 02 1f
        E 59 b4 02 20
        E 59 b4 02 22
        E 59 b4 02 23
        E 59 b4 02 24
        E 59 b4 02 25
        E 59 b4 02 26
        E 59 b4 02 27
        E 59 b4 02 28
        E 59 b4 02 29
        E 59 b4 02 2a
        E 59 b4 02 2b
        E 59 b4 02 2c
        E 59 b4 02 2d
        E 59 b4 02 2e
        E 59 b4 02 2e
        E 59 b4 02 2f
        E 59 b4 02 30
        E 59 b4 02 30
        E 59 b4 02 30
        E 59 b4 02 31
        E 59 b4 02 31
        E 59 b4 02 32
        E 59 b4 02 32
        E 59 b4 02 32
        E 59 b4 02 32
        E 59 b4 02 32
        E 59 b4 02 32
        E 59 b4 02 32
        E 59 b4 02 32
        E 59 b4 02 32
        E 59 b4 02 32
        E 59 b4 02 32
        E 59 b4 02 31
        E 59 b4 02 31
        E 59 b4 02 30
        E 59 b4 02 30
        E 59 b4 02 2f
        E 59 b4 02 2e
        E 59 b4 02 2e
        E 59 b4 02 2d
        E 59 b4 02 2c
        E 59 b4 02 2c
        E 59 b4 02 2b
        E 59 b4 02 2a
        E 59 b4 02 29
        E 59 b4 02 28
        E 59 b4 02 27
        E 59 b4 02 26
        E 59 b4 02 24
        E 59 b4 02 23
        E 59 b4 02 22
        E 59 b4 02 21
        E 59 b4 02 20
        E 59 b4 02 1f
        E 59 b4 02 1d
        E 59 b4 02 1c
        E 59 b4 02 1b
        E 59 b4 02 1a
        E 59 b4 02 18
        E 59 b4 02 17
        E 59 b4 02 16
        E 59 b4 02 15
        E 59 b4 02 13
        E 59 b4 02 12
        E 59 b4 02 11
        E 59 b4 02 10
        E 59 b4 02 0f
        E 59 b4 02 0e
        E 59 b4 02 0c
        E 59 b4 02 0b
        E 59 b4 02 0a
        E 59 b4 02 09
        E 59 b4 02 08
        E 59 b4 02 07
        E 59 b4 02 06
        E 59 b4 02 06
        E 59 b4 02 05
        E 59 b4 02 04
        E 59 b4 02 04
        E 59 b4 02 03
        E 59 b4 02 02
        E 59 b4 02 02
        E 59 b4 02 01
        E 59 b4 02 01
        E 59 b4 02 00
        E 59 b4 02 00
        E 59 b4 02 00
        E 59 b4 02 00
        E 59 b4 02 00
        E 59 b4 02 00
        E 59 b4 02 00
        E 59 b4 02 00
        E 59 b4 02 00
        E 59 b4 02 00
        E 59 b4 02 00
        E 59 b4 02 01
        E 59 b4 02 01
        E 59 b4 02 02
        E 59 b4 02 02
        E 59 b4 02 02
        E 59 b4 02 03
        E 59 b4 02 04
        E 59 b4 02 04
        E 59 b4 02 05
        E 59 b4 02 06
        E 59 b4 02 07
        E 59 b4 02 08
        E 59 b4 02 09
        E 59 b4 02 0a
        E 59 b4 02 0b
        E 59 b4 02 0c
        E 59 b4 02 0d
        E 59 b4 02 0e
        E 59 b4 02 0f
        E 59 b4 02 10
        E 59 b4 02 12
        E 59 b4 02 13
        E 59 b4 02 14
        E 59 b4 02 15
        E 59 b4 02 16
        E 59 b4 02 18
        E 59 b4 02 19
        E 15 b4 02 19
        E 15 b4 02 1a
        E 15 b4 02 1c
        E 15 b4 02 1d
        E 15 b4 02 1e
        E 15 b4 02 1f
        E 15 b4 02 20
        E 15 b4 02 22
        E 15 b4 02 23
        E 15 b4 02 24
        E 15 b4 02 25
        E 15 b4 02 26
        E 15 b4 02 27
        E 15 b4 02 28
        E 15 b4 02 29
        E 15 b4 02 2a
        E 15 b4 02 2b
        E 15 b4 02 2c
        E 15 b4 02 2d
        E 15 b4 02 2e
        E 15 b4 02 2e
        E 15 b4 02 2f
        E 15 b4 02 30
        E 15 b4 02 30
        E 15 b4 02 30
        E 15 b4 02 31
        E 15 b4 02 31
        E 15 b4 02 32
        E 15 b4 02 32
        E 15 b4 02 32
        E 15 b4 02 32
        E 15 b4 02 32
        E 15 b4 02 32
        E 15 b4 02 32
        E 15 b4 02 32
        E 15 b4 02 32
        E 15 b4 02 32
        E 15 b4 02 32
        E 15 b4 02 31
        E 15 b4 02 31
        E 15 b4 02 30
        E 15 b4 02 30
        E 15 b4 02 2f
        E 15 b4 02 2e
        E 15 b4 02 2e
        E 15 b4 02 2d
        E 15 b4 02 2c
        E 15 b4 02 2c
        E 15 b4 02 2b
        E 15 b4 02 2a
        E 15 b4 02 29
        E 15 b4 02 28
        E 15 b4 02 27
        E 15 b4 02 26
        E 15 b4 02 24
        E 15 b4 02 23
        E 15 b4 02 22
        E 15 b4 02 21
        E 15 b4 02 20
        E 15 b4 02 1f
        E 15 b4 02 1d
        E 15 b4 02 1c
        E 15 b4 02 1b
        E 15 b4 02 1a
        E 15 b4 02 18
        E 15 b4 02 17
        E 15 b4 02 16
        E 15 b4 02 15
        E 15 b4 02 13
        E 15 b4 02 12
        E 15 b4 02 11
        E 15 b4 02 10
        E 15 b4 02 0f
        E 15 b4 02 0e
        E 15 b4 02 0c
        E 15 b4 02 0b
        E 15 b4 02 0a
        E 15 b4 02 09
        E 15 b4 02 08
        E 15 b4 02 07
        E 15 b4 02 06
        E 15 b4 02 06
        E 15 b4 02 05
        E 15 b4 02 04
        E 15 b4 02 04
        E 15 b4 02 03
        E 15 b4 02 02
        E 15 b4 02 02
        E 15 b4 02 01
        E 15 b4 02 01
        E 15 b4 02 00
        E 15 b4 02 00
        E 15 b4 02 00
        E 15 b4 02 00
        E 15 b4 02 00
        E 15 b4 02 00
        E 15 b4 02 00
        E 15 b4 02 00
        E 15 b4 02 00
        E 15 b4 02 00
        E 15 b4 02 00
        E 15 b4 02 01
        E 15 b4 02 01
        E 15 b4 02 02
        E 15 b4 02 02
        E 15 b4 02 02
        E 15 b4 02 03
        E 15 b4 02 04
        E 15 b4 02 04
        E 15 b4 02 05
        E 15 b4 02 06
        E 15 b4 02 07
        E 15 b4 02 08
        E 15 b4 02 09
        E 15 b4 02 0a
        E 15 b4 02 0b
        E 15 b4 02 0c
        E 15 b4 02 0d
        E 15 b4 02 0e
        E 15 b4 02 0f
        E 15 b4 02 10
        E 15 b4 02 12
        E 15 b4 02 13
        E 15 b4 02 14
        E 15 b4 02 15
        E 15 b4 02 16
        E 15 b4 02 18
        E 14 b4 02 19
        E 1 b0 7b 00
        CCINTERP 32
        CHASE_CC_TAKEOFFS 1
        GUID {0D0F55BF-6D58-BB41-AF7B-B9F7A2910F9B}
        IGNTEMPO 0 120 4 4
        SRCCOLOR 256
        VELLANE 3 601 0
        VELLANE -1 196 0
      >
    >
  >
  <TRACK {4E88E3DD-F03A-594C-98A1-3E5051340F68}
    NAME "mission brand tortilla strips"
    PEAKCOL 16576
    BEAT -1
    AUTOMODE 0
    VOLPAN 1 0 -1 -1 1
    MUTESOLO 0 0 0
    IPHASE 0
    PLAYOFFS 0 1
    ISBUS 0 0
    BUSCOMP 0 0 0 0 0
    SHOWINMIX 1 0.6667 0.5 1 0.5 0 -1 0
    FREEMODE 0
    SEL 0
    REC 0 0 1 0 0 0 0
    VU 2
    TRACKHEIGHT 0 1 0 0 -1 0
    INQ 0 0 0 0.5 100 0 0 100
    NCHAN 2
    FX 1
    TRACKID {4E88E3DD-F03A-594C-98A1-3E5051340F68}
    PERF 0
    MIDIOUT -1
    MAINSEND 1 0
    <ITEM
      POSITION 0
      SNAPOFFS 0
      LENGTH 4.285712
      LOOP 1
      ALLTAKES 0
      FADEIN 1 0 0 1 0 0
      FADEOUT 1 0 0 1 0 0
      MUTE 0 0
      SEL 0
      IGUID {0D005B31-C294-1547-9437-DCA28792D16B}
      IID 18
      NAME "mission brand tortilla strips.mid"
      VOLPAN 1 0 1 -1
      SOFFS 0 0
      PLAYRATE 1 1 0 -1 0 0.0025
      CHANMODE 0
      GUID {BA66FC0A-0041-884D-B915-CB1B78A61B72}
      <SOURCE MIDI
        HASDATA 1 128 QN
        CCINTERP 32
        POOLEDEVTS {904FFC8D-3FE9-DB4D-8EB0-95C187E2D226}
        E 1 b5 01 33
        E 1 b5 01 35
        E 1 b5 01 37
        E 1 b5 01 3a
        E 1 b5 01 3c
        E 1 b5 01 3f
        E 1 b5 01 41
        E 1 b5 01 44
        E 1 b5 01 46
        E 1 b5 01 48
        E 1 b5 01 4b
        E 1 b5 01 4c
        E 1 b5 01 4f
        E 1 b5 01 51
        E 1 b5 01 53
        E 1 b5 01 54
        E 1 b5 01 57
        E 1 b5 01 58
        E 1 b5 01 5a
        E 1 b5 01 5b
        E 1 b5 01 5d
        E 1 b5 01 5e
        E 1 b5 01 5f
        E 1 b5 01 60
        E 1 b5 01 61
        E 1 b5 01 62
        E 1 b5 01 63
        E 1 b5 01 63
        E 1 b5 01 64
        E 1 b5 01 64
        E 1 b5 01 65
        E 1 b5 01 65
        E 1 b5 01 65
        E 1 b5 01 65
        E 1 b5 01 65
        E 1 b5 01 64
        E 1 b5 01 64
        E 1 b5 01 63
        E 1 b5 01 63
        E 1 b5 01 62
        E 1 b5 01 61
        E 1 b5 01 5f
        E 1 b5 01 5f
        E 1 b5 01 5d
        E 1 b5 01 5c
        E 1 b5 01 5b
        E 1 b5 01 59
        E 1 b5 01 57
        E 1 b5 01 56
        E 1 b5 01 54
        E 1 b5 01 52
        E 1 b5 01 50
        E 1 b5 01 4e
        E 1 b5 01 4c
        E 1 b5 01 49
        E 1 b5 01 47
        E 1 b5 01 45
        E 1 b5 01 43
        E 1 b5 01 40
        E 1 b5 01 3e
        E 1 b5 01 3b
        E 1 b5 01 38
        E 1 b5 01 36
        E 1 b5 01 33
        E 1 b5 01 31
        E 1 b5 01 2f
        E 1 b5 01 2c
        E 1 b5 01 2a
        E 1 b5 01 27
        E 1 b5 01 24
        E 1 b5 01 22
        E 1 b5 01 1f
        E 1 b5 01 1e
        E 1 b5 01 1b
        E 1 b5 01 19
        E 1 b5 01 17
        E 1 b5 01 15
        E 1 b5 01 13
        E 1 b5 01 11
        E 1 b5 01 0f
        E 1 b5 01 0d
        E 1 b5 01 0b
        E 1 b5 01 0a
        E 1 b5 01 08
        E 1 b5 01 07
        E 1 b5 01 06
        E 1 b5 01 05
        E 1 b5 01 03
        E 1 b5 01 03
        E 1 b5 01 02
        E 1 b5 01 01
        E 1 b5 01 00
        E 1 b5 01 00
        E 1 b5 01 00
        E 1 b5 01 00
        E 1 b5 01 00
        E 1 b5 01 00
        E 1 b5 01 00
        E 1 b5 01 00
        E 1 b5 01 00
        E 1 b5 01 01
        E 1 b5 01 02
        E 1 b5 01 03
        E 1 b5 01 03
        E 1 b5 01 04
        E 1 b5 01 05
        E 1 b5 01 07
        E 1 b5 01 07
        E 1 b5 01 09
        E 1 b5 01 0b
        E 1 b5 01 0c
        E 1 b5 01 0e
        E 1 b5 01 10
        E 1 b5 01 12
        E 1 b5 01 14
        E 1 b5 01 16
        E 1 b5 01 18
        E 1 b5 01 1a
        E 1 b5 01 1c
        E 1 b5 01 1f
        E 1 b5 01 21
        E 1 b5 01 24
        E 1 b5 01 26
        E 1 b5 01 28
        E 1 b5 01 2b
        E 1 b5 01 2d
        E 1 b5 01 2f
        E 1 b5 01 33
        E 7 b5 01 33
        E 7 b5 01 35
        E 7 b5 01 37
        E 7 b5 01 3a
        E 7 b5 01 3c
        E 7 b5 01 3f
        E 7 b5 01 41
        E 7 b5 01 44
        E 7 b5 01 46
        E 7 b5 01 48
        E 7 b5 01 4b
        E 7 b5 01 4c
        E 7 b5 01 4f
        E 7 b5 01 51
        E 7 b5 01 53
        E 7 b5 01 54
        E 7 b5 01 57
        E 7 b5 01 58
        E 7 b5 01 5a
        E 7 b5 01 5b
        E 7 b5 01 5d
        E 7 b5 01 5e
        E 7 b5 01 5f
        E 7 b5 01 60
        E 7 b5 01 61
        E 7 b5 01 62
        E 7 b5 01 63
        E 7 b5 01 63
        E 7 b5 01 64
        E 7 b5 01 64
        E 7 b5 01 65
        E 7 b5 01 65
        E 7 b5 01 65
        E 7 b5 01 65
        E 7 b5 01 65
        E 7 b5 01 64
        E 7 b5 01 64
        E 7 b5 01 63
        E 7 b5 01 63
        E 7 b5 01 62
        E 7 b5 01 61
        E 7 b5 01 5f
        E 7 b5 01 5f
        E 7 b5 01 5d
        E 7 b5 01 5c
        E 7 b5 01 5b
        E 7 b5 01 59
        E 7 b5 01 57
        E 7 b5 01 56
        E 7 b5 01 54
        E 7 b5 01 52
        E 7 b5 01 50
        E 7 b5 01 4e
        E 7 b5 01 4c
        E 7 b5 01 49
        E 7 b5 01 47
        E 7 b5 01 45
        E 7 b5 01 43
        E 7 b5 01 40
        E 7 b5 01 3e
        E 7 b5 01 3b
        E 7 b5 01 38
        E 7 b5 01 36
        E 7 b5 01 33
        E 7 b5 01 31
        E 7 b5 01 2f
        E 7 b5 01 2c
        E 7 b5 01 2a
        E 7 b5 01 27
        E 7 b5 01 24
        E 7 b5 01 22
        E 7 b5 01 1f
        E 7 b5 01 1e
        E 7 b5 01 1b
        E 7 b5 01 19
        E 7 b5 01 17
        E 7 b5 01 15
        E 7 b5 01 13
        E 7 b5 01 11
        E 7 b5 01 0f
        E 7 b5 01 0d
        E 7 b5 01 0b
        E 7 b5 01 0a
        E 7 b5 01 08
        E 7 b5 01 07
        E 7 b5 01 06
        E 7 b5 01 05
        E 7 b5 01 03
        E 7 b5 01 03
        E 7 b5 01 02
        E 7 b5 01 01
        E 7 b5 01 00
        E 7 b5 01 00
        E 7 b5 01 00
        E 7 b5 01 00
        E 7 b5 01 00
        E 7 b5 01 00
        E 7 b5 01 00
        E 7 b5 01 00
        E 7 b5 01 00
        E 7 b5 01 01
        E 7 b5 01 02
        E 7 b5 01 03
        E 7 b5 01 03
        E 7 b5 01 04
        E 7 b5 01 05
        E 7 b5 01 07
        E 7 b5 01 07
        E 7 b5 01 09
        E 7 b5 01 0b
        E 7 b5 01 0c
        E 7 b5 01 0e
        E 7 b5 01 10
        E 7 b5 01 12
        E 7 b5 01 14
        E 7 b5 01 16
        E 7 b5 01 18
        E 7 b5 01 1a
        E 7 b5 01 1c
        E 7 b5 01 1f
        E 7 b5 01 21
        E 7 b5 01 24
        E 7 b5 01 26
        E 7 b5 01 28
        E 7 b5 01 2b
        E 7 b5 01 2d
        E 7 b5 01 2f
        E 6 b5 01 33
        E 1 b0 7b 00
        CCINTERP 32
        CHASE_CC_TAKEOFFS 1
        GUID {163EADD3-8D35-F142-AB86-184D9F37A56B}
        IGNTEMPO 0 120 4 4
        SRCCOLOR 257
        VELLANE 3 601 0
        VELLANE -1 196 0
      >
    >
  >
  <TRACK {8E7CCA5B-A029-6F43-A2D0-482525F181EA}
    NAME "mission brand tortilla strips"
    PEAKCOL 16576
    BEAT -1
    AUTOMODE 0
    VOLPAN 1 0 -1 -1 1
    MUTESOLO 0 0 0
    IPHASE 0
    PLAYOFFS 0 1
    ISBUS 0 0
    BUSCOMP 0 0 0 0 0
    SHOWINMIX 1 0.6667 0.5 1 0.5 0 -1 0
    FREEMODE 0
    SEL 0
    REC 0 0 1 0 0 0 0
    VU 2
    TRACKHEIGHT 0 1 0 0 -1 0
    INQ 0 0 0 0.5 100 0 0 100
    NCHAN 2
    FX 1
    TRACKID {8E7CCA5B-A029-6F43-A2D0-482525F181EA}
    PERF 0
    MIDIOUT -1
    MAINSEND 1 0
    <ITEM
      POSITION 0
      SNAPOFFS 0
      LENGTH 0.535714
      LOOP 1
      ALLTAKES 0
      FADEIN 1 0 0 1 0 0
      FADEOUT 1 0 0 1 0 0
      MUTE 0 0
      SEL 0
      IGUID {EE90F6D7-C674-674C-9525-AA9D995B8E28}
      IID 19
      NAME "mission brand tortilla strips.mid"
      VOLPAN 1 0 1 -1
      SOFFS 0 0
      PLAYRATE 1 1 0 -1 0 0.0025
      CHANMODE 0
      GUID {2ABFD904-0764-1B47-9B5B-A2C04E7BFC12}
      <SOURCE MIDI
        HASDATA 1 128 QN
        CCINTERP 32
        POOLEDEVTS {BA55DEB0-FEF2-C240-AC23-E11C9BAC5F95}
        E 128 b0 7b 00
        CCINTERP 32
        CHASE_CC_TAKEOFFS 1
        GUID {112B7420-B2EB-AB4B-9E10-71E548D043C5}
        IGNTEMPO 0 120 4 4
        SRCCOLOR 258
        VELLANE 3 601 0
        VELLANE -1 196 0
      >
    >
  >
  <TRACK {E5EDF758-5612-BF40-B864-AD87BC400AB1}
    NAME "mission brand tortilla strips"
    PEAKCOL 16576
    BEAT -1
    AUTOMODE 0
    VOLPAN 1 0 -1 -1 1
    MUTESOLO 0 0 0
    IPHASE 0
    PLAYOFFS 0 1
    ISBUS 0 0
    BUSCOMP 0 0 0 0 0
    SHOWINMIX 1 0.6667 0.5 1 0.5 0 -1 0
    FREEMODE 0
    SEL 0
    REC 0 0 1 0 0 0 0
    VU 2
    TRACKHEIGHT 0 1 0 0 -1 0
    INQ 0 0 0 0.5 100 0 0 100
    NCHAN 2
    FX 1
    TRACKID {E5EDF758-5612-BF40-B864-AD87BC400AB1}
    PERF 0
    MIDIOUT -1
    MAINSEND 1 0
    <ITEM
      POSITION 0
      SNAPOFFS 0
      LENGTH 241.607014
      LOOP 1
      ALLTAKES 0
      FADEIN 1 0 0 1 0 0
      FADEOUT 1 0 0 1 0 0
      MUTE 0 0
      SEL 0
      IGUID {71AEA159-53AE-CD48-A6D4-5996196025FE}
      IID 20
      NAME "mission brand tortilla strips.mid"
      VOLPAN 1 0 1 -1
      SOFFS 0 0
      PLAYRATE 1 1 0 -1 0 0.0025
      CHANMODE 0
      GUID {D4A2DA27-7D98-1D4D-96B5-6F8AFC4052D8}
      <SOURCE MIDI
        HASDATA 1 128 QN
        CCINTERP 32
        POOLEDEVTS {0BF78F2A-E565-9642-A087-587D423DE793}
        E 15 b7 02 33
        E 15 b7 02 35
        E 15 b7 02 37
        E 15 b7 02 3a
        E 15 b7 02 3c
        E 15 b7 02 3f
        E 15 b7 02 41
        E 15 b7 02 44
        E 15 b7 02 46
        E 15 b7 02 48
        E 15 b7 02 4b
        E 15 b7 02 4c
        E 15 b7 02 4f
        E 15 b7 02 51
        E 15 b7 02 53
        E 15 b7 02 54
        E 15 b7 02 57
        E 15 b7 02 58
        E 15 b7 02 5a
        E 15 b7 02 5b
        E 15 b7 02 5d
        E 15 b7 02 5e
        E 15 b7 02 5f
        E 15 b7 02 60
        E 15 b7 02 61
        E 15 b7 02 62
        E 15 b7 02 63
        E 15 b7 02 63
        E 15 b7 02 64
        E 15 b7 02 64
        E 15 b7 02 65
        E 15 b7 02 65
        E 15 b7 02 65
        E 15 b7 02 65
        E 15 b7 02 65
        E 15 b7 02 64
        E 15 b7 02 64
        E 15 b7 02 63
        E 15 b7 02 63
        E 15 b7 02 62
        E 15 b7 02 61
        E 15 b7 02 5f
        E 15 b7 02 5f
        E 15 b7 02 5d
        E 15 b7 02 5c
        E 15 b7 02 5b
        E 15 b7 02 59
        E 15 b7 02 57
        E 15 b7 02 56
        E 15 b7 02 54
        E 15 b7 02 52
        E 15 b7 02 50
        E 15 b7 02 4e
        E 15 b7 02 4c
        E 15 b7 02 49
        E 15 b7 02 47
        E 15 b7 02 45
        E 15 b7 02 43
        E 15 b7 02 40
        E 15 b7 02 3e
        E 15 b7 02 3b
        E 15 b7 02 38
        E 15 b7 02 36
        E 15 b7 02 33
        E 15 b7 02 31
        E 15 b7 02 2f
        E 15 b7 02 2c
        E 15 b7 02 2a
        E 15 b7 02 27
        E 15 b7 02 24
        E 15 b7 02 22
        E 15 b7 02 1f
        E 15 b7 02 1e
        E 15 b7 02 1b
        E 15 b7 02 19
        E 15 b7 02 17
        E 15 b7 02 15
        E 15 b7 02 13
        E 15 b7 02 11
        E 15 b7 02 0f
        E 15 b7 02 0d
        E 15 b7 02 0b
        E 15 b7 02 0a
        E 15 b7 02 08
        E 15 b7 02 07
        E 15 b7 02 06
        E 15 b7 02 05
        E 15 b7 02 03
        E 15 b7 02 03
        E 15 b7 02 02
        E 15 b7 02 01
        E 15 b7 02 00
        E 15 b7 02 00
        E 15 b7 02 00
        E 15 b7 02 00
        E 15 b7 02 00
        E 15 b7 02 00
        E 15 b7 02 00
        E 15 b7 02 00
        E 15 b7 02 00
        E 15 b7 02 01
        E 15 b7 02 02
        E 15 b7 02 03
        E 15 b7 02 03
        E 15 b7 02 04
        E 15 b7 02 05
        E 15 b7 02 07
        E 15 b7 02 07
        E 15 b7 02 09
        E 15 b7 02 0b
        E 15 b7 02 0c
        E 15 b7 02 0e
        E 15 b7 02 10
        E 15 b7 02 12
        E 15 b7 02 14
        E 15 b7 02 16
        E 15 b7 02 18
        E 15 b7 02 1a
        E 15 b7 02 1c
        E 15 b7 02 1f
        E 15 b7 02 21
        E 15 b7 02 24
        E 15 b7 02 26
        E 15 b7 02 28
        E 15 b7 02 2b
        E 15 b7 02 2d
        E 15 b7 02 2f
        E 15 b7 02 33
        E 15 b7 02 33
        E 15 b7 02 35
        E 15 b7 02 37
        E 15 b7 02 3a
        E 15 b7 02 3c
        E 15 b7 02 3f
        E 15 b7 02 41
        E 15 b7 02 44
        E 15 b7 02 46
        E 15 b7 02 48
        E 15 b7 02 4b
        E 15 b7 02 4c
        E 15 b7 02 4f
        E 15 b7 02 51
        E 15 b7 02 53
        E 15 b7 02 54
        E 15 b7 02 57
        E 15 b7 02 58
        E 15 b7 02 5a
        E 15 b7 02 5b
        E 15 b7 02 5d
        E 15 b7 02 5e
        E 15 b7 02 5f
        E 15 b7 02 60
        E 15 b7 02 61
        E 15 b7 02 62
        E 15 b7 02 63
        E 15 b7 02 63
        E 15 b7 02 64
        E 15 b7 02 64
        E 15 b7 02 65
        E 15 b7 02 65
        E 15 b7 02 65
        E 15 b7 02 65
        E 15 b7 02 65
        E 15 b7 02 64
        E 15 b7 02 64
        E 15 b7 02 63
        E 15 b7 02 63
        E 15 b7 02 62
        E 15 b7 02 61
        E 15 b7 02 5f
        E 15 b7 02 5f
        E 15 b7 02 5d
        E 15 b7 02 5c
        E 15 b7 02 5b
        E 15 b7 02 59
        E 15 b7 02 57
        E 15 b7 02 56
        E 15 b7 02 54
        E 15 b7 02 52
        E 15 b7 02 50
        E 15 b7 02 4e
        E 15 b7 02 4c
        E 15 b7 02 49
        E 15 b7 02 47
        E 15 b7 02 45
        E 15 b7 02 43
        E 15 b7 02 40
        E 15 b7 02 3e
        E 15 b7 02 3b
        E 15 b7 02 38
        E 15 b7 02 36
        E 15 b7 02 33
        E 15 b7 02 31
        E 15 b7 02 2f
        E 15 b7 02 2c
        E 15 b7 02 2a
        E 15 b7 02 27
        E 15 b7 02 24
        E 15 b7 02 22
        E 15 b7 02 1f
        E 15 b7 02 1e
        E 15 b7 02 1b
        E 15 b7 02 19
        E 15 b7 02 17
        E 15 b7 02 15
        E 15 b7 02 13
        E 15 b7 02 11
        E 15 b7 02 0f
        E 15 b7 02 0d
        E 15 b7 02 0b
        E 15 b7 02 0a
        E 15 b7 02 08
        E 15 b7 02 07
        E 15 b7 02 06
        E 15 b7 02 05
        E 15 b7 02 03
        E 15 b7 02 03
        E 15 b7 02 02
        E 15 b7 02 01
        E 15 b7 02 00
        E 15 b7 02 00
        E 15 b7 02 00
        E 15 b7 02 00
        E 15 b7 02 00
        E 15 b7 02 00
        E 15 b7 02 00
        E 15 b7 02 00
        E 15 b7 02 00
        E 15 b7 02 01
        E 15 b7 02 02
        E 15 b7 02 03
        E 15 b7 02 03
        E 15 b7 02 04
        E 15 b7 02 05
        E 15 b7 02 07
        E 15 b7 02 07
        E 15 b7 02 09
        E 15 b7 02 0b
        E 15 b7 02 0c
        E 15 b7 02 0e
        E 15 b7 02 10
        E 15 b7 02 12
        E 15 b7 02 14
        E 15 b7 02 16
        E 15 b7 02 18
        E 15 b7 02 1a
        E 15 b7 02 1c
        E 15 b7 02 1f
        E 15 b7 02 21
        E 15 b7 02 24
        E 15 b7 02 26
        E 15 b7 02 28
        E 15 b7 02 2b
        E 15 b7 02 2d
        E 15 b7 02 2f
        E 15 b7 02 33
        E 3 b7 02 0c
        E 3 b7 02 0d
        E 3 b7 02 0e
        E 3 b7 02 0e
        E 3 b7 02 0f
        E 3 b7 02 0f
        E 3 b7 02 10
        E 3 b7 02 11
        E 3 b7 02 11
        E 3 b7 02 12
        E 3 b7 02 12
        E 3 b7 02 13
        E 3 b7 02 13
        E 3 b7 02 14
        E 3 b7 02 14
        E 3 b7 02 15
        E 3 b7 02 15
        E 3 b7 02 16
        E 3 b7 02 16
        E 3 b7 02 17
        E 3 b7 02 17
        E 3 b7 02 17
        E 3 b7 02 18
        E 3 b7 02 18
        E 3 b7 02 18
        E 3 b7 02 18
        E 3 b7 02 18
        E 3 b7 02 19
        E 3 b7 02 19
        E 3 b7 02 19
        E 3 b7 02 19
        E 3 b7 02 19
        E 3 b7 02 19
        E 3 b7 02 19
        E 3 b7 02 19
        E 3 b7 02 19
        E 3 b7 02 19
        E 3 b7 02 19
        E 3 b7 02 18
        E 3 b7 02 18
        E 3 b7 02 18
        E 3 b7 02 18
        E 3 b7 02 17
        E 3 b7 02 17
        E 3 b7 02 17
        E 3 b7 02 16
        E 3 b7 02 16
        E 3 b7 02 16
        E 3 b7 02 15
        E 3 b7 02 15
        E 3 b7 02 14
        E 3 b7 02 14
        E 3 b7 02 13
        E 3 b7 02 13
        E 3 b7 02 12
        E 3 b7 02 11
        E 3 b7 02 11
        E 3 b7 02 10
        E 3 b7 02 10
        E 3 b7 02 0f
        E 3 b7 02 0e
        E 3 b7 02 0e
        E 3 b7 02 0d
        E 3 b7 02 0d
        E 3 b7 02 0c
        E 3 b7 02 0b
        E 3 b7 02 0b
        E 3 b7 02 0a
        E 3 b7 02 09
        E 3 b7 02 09
        E 3 b7 02 08
        E 3 b7 02 08
        E 3 b7 02 07
        E 3 b7 02 07
        E 3 b7 02 06
        E 3 b7 02 05
        E 3 b7 02 05
        E 3 b7 02 04
        E 3 b7 02 04
        E 3 b7 02 03
        E 3 b7 02 03
        E 3 b7 02 03
        E 3 b7 02 02
        E 3 b7 02 02
        E 3 b7 02 02
        E 3 b7 02 01
        E 3 b7 02 01
        E 3 b7 02 01
        E 3 b7 02 00
        E 3 b7 02 00
        E 3 b7 02 00
        E 3 b7 02 00
        E 3 b7 02 00
        E 3 b7 02 00
        E 3 b7 02 00
        E 3 b7 02 00
        E 3 b7 02 00
        E 3 b7 02 00
        E 3 b7 02 00
        E 3 b7 02 00
        E 3 b7 02 00
        E 3 b7 02 00
        E 3 b7 02 00
        E 3 b7 02 01
        E 3 b7 02 01
        E 3 b7 02 01
        E 3 b7 02 01
        E 3 b7 02 02
        E 3 b7 02 02
        E 3 b7 02 02
        E 3 b7 02 03
        E 3 b7 02 03
        E 3 b7 02 04
        E 3 b7 02 04
        E 3 b7 02 05
        E 3 b7 02 05
        E 3 b7 02 06
        E 3 b7 02 06
        E 3 b7 02 07
        E 3 b7 02 07
        E 3 b7 02 08
        E 3 b7 02 09
        E 3 b7 02 09
        E 3 b7 02 0a
        E 3 b7 02 0a
        E 3 b7 02 0b
        E 3 b7 02 0c
        E 3 b7 02 0c
        E 7 b7 02 39
        E 7 b7 02 3c
        E 7 b7 02 3f
        E 7 b7 02 41
        E 7 b7 02 44
        E 7 b7 02 47
        E 7 b7 02 49
        E 7 b7 02 4c
        E 7 b7 02 4f
        E 7 b7 02 51
        E 7 b7 02 54
        E 7 b7 02 56
        E 7 b7 02 59
        E 7 b7 02 5b
        E 7 b7 02 5d
        E 7 b7 02 5f
        E 7 b7 02 62
        E 7 b7 02 63
        E 7 b7 02 65
        E 7 b7 02 67
        E 7 b7 02 69
        E 7 b7 02 6a
        E 7 b7 02 6c
        E 7 b7 02 6c
        E 7 b7 02 6d
        E 7 b7 02 6e
        E 7 b7 02 6f
        E 7 b7 02 70
        E 7 b7 02 71
        E 7 b7 02 71
        E 7 b7 02 72
        E 7 b7 02 72
        E 7 b7 02 72
        E 7 b7 02 72
        E 7 b7 02 72
        E 7 b7 02 71
        E 7 b7 02 71
        E 7 b7 02 70
        E 7 b7 02 6f
        E 7 b7 02 6e
        E 7 b7 02 6d
        E 7 b7 02 6c
        E 7 b7 02 6b
        E 7 b7 02 69
        E 7 b7 02 68
        E 7 b7 02 66
        E 7 b7 02 64
        E 7 b7 02 63
        E 7 b7 02 61
        E 7 b7 02 5e
        E 7 b7 02 5c
        E 7 b7 02 5a
        E 7 b7 02 58
        E 7 b7 02 55
        E 7 b7 02 52
        E 7 b7 02 50
        E 7 b7 02 4e
        E 7 b7 02 4b
        E 7 b7 02 48
        E 7 b7 02 46
        E 7 b7 02 42
        E 7 b7 02 3f
        E 7 b7 02 3d
        E 7 b7 02 3a
        E 7 b7 02 37
        E 7 b7 02 35
        E 7 b7 02 32
        E 7 b7 02 2f
        E 7 b7 02 2c
        E 7 b7 02 29
        E 7 b7 02 26
        E 7 b7 02 24
        E 7 b7 02 22
        E 7 b7 02 1f
        E 7 b7 02 1c
        E 7 b7 02 1a
        E 7 b7 02 18
        E 7 b7 02 15
        E 7 b7 02 13
        E 7 b7 02 11
        E 7 b7 02 0f
        E 7 b7 02 0d
        E 7 b7 02 0b
        E 7 b7 02 09
        E 7 b7 02 09
        E 7 b7 02 07
        E 7 b7 02 06
        E 7 b7 02 04
        E 7 b7 02 03
        E 7 b7 02 02
        E 7 b7 02 01
        E 7 b7 02 00
        E 7 b7 02 00
        E 7 b7 02 00
        E 7 b7 02 00
        E 7 b7 02 00
        E 7 b7 02 00
        E 7 b7 02 00
        E 7 b7 02 00
        E 7 b7 02 00
        E 7 b7 02 01
        E 7 b7 02 02
        E 7 b7 02 03
        E 7 b7 02 04
        E 7 b7 02 05
        E 7 b7 02 06
        E 7 b7 02 08
        E 7 b7 02 09
        E 7 b7 02 0a
        E 7 b7 02 0c
        E 7 b7 02 0e
        E 7 b7 02 10
        E 7 b7 02 12
        E 7 b7 02 14
        E 7 b7 02 16
        E 7 b7 02 19
        E 7 b7 02 1b
        E 7 b7 02 1d
        E 7 b7 02 20
        E 7 b7 02 23
        E 7 b7 02 25
        E 7 b7 02 28
        E 7 b7 02 2b
        E 7 b7 02 2d
        E 7 b7 02 30
        E 7 b7 02 33
        E 7 b7 02 36
        E 7 b7 02 39
        E 15 b7 02 06
        E 15 b7 02 06
        E 15 b7 02 07
        E 15 b7 02 07
        E 15 b7 02 07
        E 15 b7 02 07
        E 15 b7 02 08
        E 15 b7 02 08
        E 15 b7 02 08
        E 15 b7 02 09
        E 15 b7 02 09
        E 15 b7 02 09
        E 15 b7 02 09
        E 15 b7 02 0a
        E 15 b7 02 0a
        E 15 b7 02 0a
        E 15 b7 02 0a
        E 15 b7 02 0b
        E 15 b7 02 0b
        E 15 b7 02 0b
        E 15 b7 02 0b
        E 15 b7 02 0b
        E 15 b7 02 0c
        E 15 b7 02 0c
        E 15 b7 02 0c
        E 15 b7 02 0c
        E 15 b7 02 0c
        E 15 b7 02 0c
        E 15 b7 02 0c
        E 15 b7 02 0c
        E 15 b7 02 0c
        E 15 b7 02 0c
        E 15 b7 02 0c
        E 15 b7 02 0c
        E 15 b7 02 0c
        E 15 b7 02 0c
        E 15 b7 02 0c
        E 15 b7 02 0c
        E 15 b7 02 0c
        E 15 b7 02 0c
        E 15 b7 02 0c
        E 15 b7 02 0c
        E 15 b7 02 0b
        E 15 b7 02 0b
        E 15 b7 02 0b
        E 15 b7 02 0b
        E 15 b7 02 0b
        E 15 b7 02 0b
        E 15 b7 02 0a
        E 15 b7 02 0a
        E 15 b7 02 0a
        E 15 b7 02 0a
        E 15 b7 02 09
        E 15 b7 02 09
        E 15 b7 02 09
        E 15 b7 02 08
        E 15 b7 02 08
        E 15 b7 02 08
        E 15 b7 02 08
        E 15 b7 02 07
        E 15 b7 02 07
        E 15 b7 02 07
        E 15 b7 02 06
        E 15 b7 02 06
        E 15 b7 02 06
        E 15 b7 02 05
        E 15 b7 02 05
        E 15 b7 02 05
        E 15 b7 02 04
        E 15 b7 02 04
        E 15 b7 02 04
        E 15 b7 02 04
        E 15 b7 02 03
        E 15 b7 02 03
        E 15 b7 02 03
        E 15 b7 02 02
        E 15 b7 02 02
        E 15 b7 02 02
        E 15 b7 02 02
        E 15 b7 02 01
        E 15 b7 02 01
        E 15 b7 02 01
        E 15 b7 02 01
        E 15 b7 02 01
        E 15 b7 02 01
        E 15 b7 02 00
        E 15 b7 02 00
        E 15 b7 02 00
        E 15 b7 02 00
        E 15 b7 02 00
        E 15 b7 02 00
        E 15 b7 02 00
        E 15 b7 02 00
        E 15 b7 02 00
        E 15 b7 02 00
        E 15 b7 02 00
        E 15 b7 02 00
        E 15 b7 02 00
        E 15 b7 02 00
        E 15 b7 02 00
        E 15 b7 02 00
        E 15 b7 02 00
        E 15 b7 02 00
        E 15 b7 02 00
        E 15 b7 02 00
        E 15 b7 02 00
        E 15 b7 02 00
        E 15 b7 02 01
        E 15 b7 02 01
        E 15 b7 02 01
        E 15 b7 02 01
        E 15 b7 02 01
        E 15 b7 02 02
        E 15 b7 02 02
        E 15 b7 02 02
        E 15 b7 02 02
        E 15 b7 02 03
        E 15 b7 02 03
        E 15 b7 02 03
        E 15 b7 02 03
        E 15 b7 02 04
        E 15 b7 02 04
        E 15 b7 02 04
        E 15 b7 02 05
        E 15 b7 02 05
        E 15 b7 02 05
        E 15 b7 02 06
        E 15 b7 02 06
        E 3 b7 02 33
        E 3 b7 02 35
        E 3 b7 02 37
        E 3 b7 02 3a
        E 3 b7 02 3c
        E 3 b7 02 3f
        E 3 b7 02 41
        E 3 b7 02 44
        E 3 b7 02 46
        E 3 b7 02 48
        E 3 b7 02 4b
        E 3 b7 02 4c
        E 3 b7 02 4f
        E 3 b7 02 51
        E 3 b7 02 53
        E 3 b7 02 54
        E 3 b7 02 57
        E 3 b7 02 58
        E 3 b7 02 5a
        E 3 b7 02 5b
        E 3 b7 02 5d
        E 3 b7 02 5e
        E 3 b7 02 5f
        E 3 b7 02 60
        E 3 b7 02 61
        E 3 b7 02 62
        E 3 b7 02 63
        E 3 b7 02 63
        E 3 b7 02 64
        E 3 b7 02 64
        E 3 b7 02 65
        E 3 b7 02 65
        E 3 b7 02 65
        E 3 b7 02 65
        E 3 b7 02 65
        E 3 b7 02 64
        E 3 b7 02 64
        E 3 b7 02 63
        E 3 b7 02 63
        E 3 b7 02 62
        E 3 b7 02 61
        E 3 b7 02 5f
        E 3 b7 02 5f
        E 3 b7 02 5d
        E 3 b7 02 5c
        E 3 b7 02 5b
        E 3 b7 02 59
        E 3 b7 02 57
        E 3 b7 02 56
        E 3 b7 02 54
        E 3 b7 02 52
        E 3 b7 02 50
        E 3 b7 02 4e
        E 3 b7 02 4c
        E 3 b7 02 49
        E 3 b7 02 47
        E 3 b7 02 45
        E 3 b7 02 43
        E 3 b7 02 40
        E 3 b7 02 3e
        E 3 b7 02 3b
        E 3 b7 02 38
        E 3 b7 02 36
        E 3 b7 02 33
        E 3 b7 02 31
        E 3 b7 02 2f
        E 3 b7 02 2c
        E 3 b7 02 2a
        E 3 b7 02 27
        E 3 b7 02 24
        E 3 b7 02 22
        E 3 b7 02 1f
        E 3 b7 02 1e
        E 3 b7 02 1b
        E 3 b7 02 19
        E 3 b7 02 17
        E 3 b7 02 15
        E 3 b7 02 13
        E 3 b7 02 11
        E 3 b7 02 0f
        E 3 b7 02 0d
        E 3 b7 02 0b
        E 3 b7 02 0a
        E 3 b7 02 08
        E 3 b7 02 07
        E 3 b7 02 06
        E 3 b7 02 05
        E 3 b7 02 03
        E 3 b7 02 03
        E 3 b7 02 02
        E 3 b7 02 01
        E 3 b7 02 00
        E 3 b7 02 00
        E 3 b7 02 00
        E 3 b7 02 00
        E 3 b7 02 00
        E 3 b7 02 00
        E 3 b7 02 00
        E 3 b7 02 00
        E 3 b7 02 00
        E 3 b7 02 01
        E 3 b7 02 02
        E 3 b7 02 03
        E 3 b7 02 03
        E 3 b7 02 04
        E 3 b7 02 05
        E 3 b7 02 07
        E 3 b7 02 07
        E 3 b7 02 09
        E 3 b7 02 0b
        E 3 b7 02 0c
        E 3 b7 02 0e
        E 3 b7 02 10
        E 3 b7 02 12
        E 3 b7 02 14
        E 3 b7 02 16
        E 3 b7 02 18
        E 3 b7 02 1a
        E 3 b7 02 1c
        E 3 b7 02 1f
        E 3 b7 02 21
        E 3 b7 02 24
        E 3 b7 02 26
        E 3 b7 02 28
        E 3 b7 02 2b
        E 3 b7 02 2d
        E 3 b7 02 2f
        E 3 b7 02 33
        E 15 b7 02 33
        E 15 b7 02 35
        E 15 b7 02 37
        E 15 b7 02 3a
        E 15 b7 02 3c
        E 15 b7 02 3f
        E 15 b7 02 41
        E 15 b7 02 44
        E 15 b7 02 46
        E 15 b7 02 48
        E 15 b7 02 4b
        E 15 b7 02 4c
        E 15 b7 02 4f
        E 15 b7 02 51
        E 15 b7 02 53
        E 15 b7 02 54
        E 15 b7 02 57
        E 15 b7 02 58
        E 15 b7 02 5a
        E 15 b7 02 5b
        E 15 b7 02 5d
        E 15 b7 02 5e
        E 15 b7 02 5f
        E 15 b7 02 60
        E 15 b7 02 61
        E 15 b7 02 62
        E 15 b7 02 63
        E 15 b7 02 63
        E 15 b7 02 64
        E 15 b7 02 64
        E 15 b7 02 65
        E 15 b7 02 65
        E 15 b7 02 65
        E 15 b7 02 65
        E 15 b7 02 65
        E 15 b7 02 64
        E 15 b7 02 64
        E 15 b7 02 63
        E 15 b7 02 63
        E 15 b7 02 62
        E 15 b7 02 61
        E 15 b7 02 5f
        E 15 b7 02 5f
        E 15 b7 02 5d
        E 15 b7 02 5c
        E 15 b7 02 5b
        E 15 b7 02 59
        E 15 b7 02 57
        E 15 b7 02 56
        E 15 b7 02 54
        E 15 b7 02 52
        E 15 b7 02 50
        E 15 b7 02 4e
        E 15 b7 02 4c
        E 15 b7 02 49
        E 15 b7 02 47
        E 15 b7 02 45
        E 15 b7 02 43
        E 15 b7 02 40
        E 15 b7 02 3e
        E 15 b7 02 3b
        E 15 b7 02 38
        E 15 b7 02 36
        E 15 b7 02 33
        E 15 b7 02 31
        E 15 b7 02 2f
        E 15 b7 02 2c
        E 15 b7 02 2a
        E 15 b7 02 27
        E 15 b7 02 24
        E 15 b7 02 22
        E 15 b7 02 1f
        E 15 b7 02 1e
        E 15 b7 02 1b
        E 15 b7 02 19
        E 15 b7 02 17
        E 15 b7 02 15
        E 15 b7 02 13
        E 15 b7 02 11
        E 15 b7 02 0f
        E 15 b7 02 0d
        E 15 b7 02 0b
        E 15 b7 02 0a
        E 15 b7 02 08
        E 15 b7 02 07
        E 15 b7 02 06
        E 15 b7 02 05
        E 15 b7 02 03
        E 15 b7 02 03
        E 15 b7 02 02
        E 15 b7 02 01
        E 15 b7 02 00
        E 15 b7 02 00
        E 15 b7 02 00
        E 15 b7 02 00
        E 15 b7 02 00
        E 15 b7 02 00
        E 15 b7 02 00
        E 15 b7 02 00
        E 15 b7 02 00
        E 15 b7 02 01
        E 15 b7 02 02
        E 15 b7 02 03
        E 15 b7 02 03
        E 15 b7 02 04
        E 15 b7 02 05
        E 15 b7 02 07
        E 15 b7 02 07
        E 15 b7 02 09
        E 15 b7 02 0b
        E 15 b7 02 0c
        E 15 b7 02 0e
        E 15 b7 02 10
        E 15 b7 02 12
        E 15 b7 02 14
        E 15 b7 02 16
        E 15 b7 02 18
        E 15 b7 02 1a
        E 15 b7 02 1c
        E 15 b7 02 1f
        E 15 b7 02 21
        E 15 b7 02 24
        E 15 b7 02 26
        E 15 b7 02 28
        E 15 b7 02 2b
        E 15 b7 02 2d
        E 15 b7 02 2f
        E 15 b7 02 33
        E 15 b7 02 33
        E 15 b7 02 35
        E 15 b7 02 37
        E 15 b7 02 3a
        E 15 b7 02 3c
        E 15 b7 02 3f
        E 15 b7 02 41
        E 15 b7 02 44
        E 15 b7 02 46
        E 15 b7 02 48
        E 15 b7 02 4b
        E 15 b7 02 4c
        E 15 b7 02 4f
        E 15 b7 02 51
        E 15 b7 02 53
        E 15 b7 02 54
        E 15 b7 02 57
        E 15 b7 02 58
        E 15 b7 02 5a
        E 15 b7 02 5b
        E 15 b7 02 5d
        E 15 b7 02 5e
        E 15 b7 02 5f
        E 15 b7 02 60
        E 15 b7 02 61
        E 15 b7 02 62
        E 15 b7 02 63
        E 15 b7 02 63
        E 15 b7 02 64
        E 15 b7 02 64
        E 15 b7 02 65
        E 15 b7 02 65
        E 15 b7 02 65
        E 15 b7 02 65
        E 15 b7 02 65
        E 15 b7 02 64
        E 15 b7 02 64
        E 15 b7 02 63
        E 15 b7 02 63
        E 15 b7 02 62
        E 15 b7 02 61
        E 15 b7 02 5f
        E 15 b7 02 5f
        E 15 b7 02 5d
        E 15 b7 02 5c
        E 15 b7 02 5b
        E 15 b7 02 59
        E 15 b7 02 57
        E 15 b7 02 56
        E 15 b7 02 54
        E 15 b7 02 52
        E 15 b7 02 50
        E 15 b7 02 4e
        E 15 b7 02 4c
        E 15 b7 02 49
        E 15 b7 02 47
        E 15 b7 02 45
        E 15 b7 02 43
        E 15 b7 02 40
        E 15 b7 02 3e
        E 15 b7 02 3b
        E 15 b7 02 38
        E 15 b7 02 36
        E 15 b7 02 33
        E 15 b7 02 31
        E 15 b7 02 2f
        E 15 b7 02 2c
        E 15 b7 02 2a
        E 15 b7 02 27
        E 15 b7 02 24
        E 15 b7 02 22
        E 15 b7 02 1f
        E 15 b7 02 1e
        E 15 b7 02 1b
        E 15 b7 02 19
        E 15 b7 02 17
        E 15 b7 02 15
        E 15 b7 02 13
        E 15 b7 02 11
        E 15 b7 02 0f
        E 15 b7 02 0d
        E 15 b7 02 0b
        E 15 b7 02 0a
        E 15 b7 02 08
        E 15 b7 02 07
        E 15 b7 02 06
        E 15 b7 02 05
        E 15 b7 02 03
        E 15 b7 02 03
        E 15 b7 02 02
        E 15 b7 02 01
        E 15 b7 02 00
        E 15 b7 02 00
        E 15 b7 02 00
        E 15 b7 02 00
        E 15 b7 02 00
        E 15 b7 02 00
        E 15 b7 02 00
        E 15 b7 02 00
        E 15 b7 02 00
        E 15 b7 02 01
        E 15 b7 02 02
        E 15 b7 02 03
        E 15 b7 02 03
        E 15 b7 02 04
        E 15 b7 02 05
        E 15 b7 02 07
        E 15 b7 02 07
        E 15 b7 02 09
        E 15 b7 02 0b
        E 15 b7 02 0c
        E 15 b7 02 0e
        E 15 b7 02 10
        E 15 b7 02 12
        E 15 b7 02 14
        E 15 b7 02 16
        E 15 b7 02 18
        E 15 b7 02 1a
        E 15 b7 02 1c
        E 15 b7 02 1f
        E 15 b7 02 21
        E 15 b7 02 24
        E 15 b7 02 26
        E 15 b7 02 28
        E 15 b7 02 2b
        E 15 b7 02 2d
        E 15 b7 02 2f
        E 15 b7 02 33
        E 3 b7 02 0c
        E 3 b7 02 0d
        E 3 b7 02 0e
        E 3 b7 02 0e
        E 3 b7 02 0f
        E 3 b7 02 0f
        E 3 b7 02 10
        E 3 b7 02 11
        E 3 b7 02 11
        E 3 b7 02 12
        E 3 b7 02 12
        E 3 b7 02 13
        E 3 b7 02 13
        E 3 b7 02 14
        E 3 b7 02 14
        E 3 b7 02 15
        E 3 b7 02 15
        E 3 b7 02 16
        E 3 b7 02 16
        E 3 b7 02 17
        E 3 b7 02 17
        E 3 b7 02 17
        E 3 b7 02 18
        E 3 b7 02 18
        E 3 b7 02 18
        E 3 b7 02 18
        E 3 b7 02 18
        E 3 b7 02 19
        E 3 b7 02 19
        E 3 b7 02 19
        E 3 b7 02 19
        E 3 b7 02 19
        E 3 b7 02 19
        E 3 b7 02 19
        E 3 b7 02 19
        E 3 b7 02 19
        E 3 b7 02 19
        E 3 b7 02 19
        E 3 b7 02 18
        E 3 b7 02 18
        E 3 b7 02 18
        E 3 b7 02 18
        E 3 b7 02 17
        E 3 b7 02 17
        E 3 b7 02 17
        E 3 b7 02 16
        E 3 b7 02 16
        E 3 b7 02 16
        E 3 b7 02 15
        E 3 b7 02 15
        E 3 b7 02 14
        E 3 b7 02 14
        E 3 b7 02 13
        E 3 b7 02 13
        E 3 b7 02 12
        E 3 b7 02 11
        E 3 b7 02 11
        E 3 b7 02 10
        E 3 b7 02 10
        E 3 b7 02 0f
        E 3 b7 02 0e
        E 3 b7 02 0e
        E 3 b7 02 0d
        E 3 b7 02 0d
        E 3 b7 02 0c
        E 3 b7 02 0b
        E 3 b7 02 0b
        E 3 b7 02 0a
        E 3 b7 02 09
        E 3 b7 02 09
        E 3 b7 02 08
        E 3 b7 02 08
        E 3 b7 02 07
        E 3 b7 02 07
        E 3 b7 02 06
        E 3 b7 02 05
        E 3 b7 02 05
        E 3 b7 02 04
        E 3 b7 02 04
        E 3 b7 02 03
        E 3 b7 02 03
        E 3 b7 02 03
        E 3 b7 02 02
        E 3 b7 02 02
        E 3 b7 02 02
        E 3 b7 02 01
        E 3 b7 02 01
        E 3 b7 02 01
        E 3 b7 02 00
        E 3 b7 02 00
        E 3 b7 02 00
        E 3 b7 02 00
        E 3 b7 02 00
        E 3 b7 02 00
        E 3 b7 02 00
        E 3 b7 02 00
        E 3 b7 02 00
        E 3 b7 02 00
        E 3 b7 02 00
        E 3 b7 02 00
        E 3 b7 02 00
        E 3 b7 02 00
        E 3 b7 02 00
        E 3 b7 02 01
        E 3 b7 02 01
        E 3 b7 02 01
        E 3 b7 02 01
        E 3 b7 02 02
        E 3 b7 02 02
        E 3 b7 02 02
        E 3 b7 02 03
        E 3 b7 02 03
        E 3 b7 02 04
        E 3 b7 02 04
        E 3 b7 02 05
        E 3 b7 02 05
        E 3 b7 02 06
        E 3 b7 02 06
        E 3 b7 02 07
        E 3 b7 02 07
        E 3 b7 02 08
        E 3 b7 02 09
        E 3 b7 02 09
        E 3 b7 02 0a
        E 3 b7 02 0a
        E 3 b7 02 0b
        E 3 b7 02 0c
        E 3 b7 02 0c
        E 7 b7 02 39
        E 7 b7 02 3c
        E 7 b7 02 3f
        E 7 b7 02 41
        E 7 b7 02 44
        E 7 b7 02 47
        E 7 b7 02 49
        E 7 b7 02 4c
        E 7 b7 02 4f
        E 7 b7 02 51
        E 7 b7 02 54
        E 7 b7 02 56
        E 7 b7 02 59
        E 7 b7 02 5b
        E 7 b7 02 5d
        E 7 b7 02 5f
        E 7 b7 02 62
        E 7 b7 02 63
        E 7 b7 02 65
        E 7 b7 02 67
        E 7 b7 02 69
        E 7 b7 02 6a
        E 7 b7 02 6c
        E 7 b7 02 6c
        E 7 b7 02 6d
        E 7 b7 02 6e
        E 7 b7 02 6f
        E 7 b7 02 70
        E 7 b7 02 71
        E 7 b7 02 71
        E 7 b7 02 72
        E 7 b7 02 72
        E 7 b7 02 72
        E 7 b7 02 72
        E 7 b7 02 72
        E 7 b7 02 71
        E 7 b7 02 71
        E 7 b7 02 70
        E 7 b7 02 6f
        E 7 b7 02 6e
        E 7 b7 02 6d
        E 7 b7 02 6c
        E 7 b7 02 6b
        E 7 b7 02 69
        E 7 b7 02 68
        E 7 b7 02 66
        E 7 b7 02 64
        E 7 b7 02 63
        E 7 b7 02 61
        E 7 b7 02 5e
        E 7 b7 02 5c
        E 7 b7 02 5a
        E 7 b7 02 58
        E 7 b7 02 55
        E 7 b7 02 52
        E 7 b7 02 50
        E 7 b7 02 4e
        E 7 b7 02 4b
        E 7 b7 02 48
        E 7 b7 02 46
        E 7 b7 02 42
        E 7 b7 02 3f
        E 7 b7 02 3d
        E 7 b7 02 3a
        E 7 b7 02 37
        E 7 b7 02 35
        E 7 b7 02 32
        E 7 b7 02 2f
        E 7 b7 02 2c
        E 7 b7 02 29
        E 7 b7 02 26
        E 7 b7 02 24
        E 7 b7 02 22
        E 7 b7 02 1f
        E 7 b7 02 1c
        E 7 b7 02 1a
        E 7 b7 02 18
        E 7 b7 02 15
        E 7 b7 02 13
        E 7 b7 02 11
        E 7 b7 02 0f
        E 7 b7 02 0d
        E 7 b7 02 0b
        E 7 b7 02 09
        E 7 b7 02 09
        E 7 b7 02 07
        E 7 b7 02 06
        E 7 b7 02 04
        E 7 b7 02 03
        E 7 b7 02 02
        E 7 b7 02 01
        E 7 b7 02 00
        E 7 b7 02 00
        E 7 b7 02 00
        E 7 b7 02 00
        E 7 b7 02 00
        E 7 b7 02 00
        E 7 b7 02 00
        E 7 b7 02 00
        E 7 b7 02 00
        E 7 b7 02 01
        E 7 b7 02 02
        E 7 b7 02 03
        E 7 b7 02 04
        E 7 b7 02 05
        E 7 b7 02 06
        E 7 b7 02 08
        E 7 b7 02 09
        E 7 b7 02 0a
        E 7 b7 02 0c
        E 7 b7 02 0e
        E 7 b7 02 10
        E 7 b7 02 12
        E 7 b7 02 14
        E 7 b7 02 16
        E 7 b7 02 19
        E 7 b7 02 1b
        E 7 b7 02 1d
        E 7 b7 02 20
        E 7 b7 02 23
        E 7 b7 02 25
        E 7 b7 02 28
        E 7 b7 02 2b
        E 7 b7 02 2d
        E 7 b7 02 30
        E 7 b7 02 33
        E 7 b7 02 36
        E 7 b7 02 39
        E 15 b7 02 06
        E 15 b7 02 06
        E 15 b7 02 07
        E 15 b7 02 07
        E 15 b7 02 07
        E 15 b7 02 07
        E 15 b7 02 08
        E 15 b7 02 08
        E 15 b7 02 08
        E 15 b7 02 09
        E 15 b7 02 09
        E 15 b7 02 09
        E 15 b7 02 09
        E 15 b7 02 0a
        E 15 b7 02 0a
        E 15 b7 02 0a
        E 15 b7 02 0a
        E 15 b7 02 0b
        E 15 b7 02 0b
        E 15 b7 02 0b
        E 15 b7 02 0b
        E 15 b7 02 0b
        E 15 b7 02 0c
        E 15 b7 02 0c
        E 15 b7 02 0c
        E 15 b7 02 0c
        E 15 b7 02 0c
        E 15 b7 02 0c
        E 15 b7 02 0c
        E 15 b7 02 0c
        E 15 b7 02 0c
        E 15 b7 02 0c
        E 15 b7 02 0c
        E 15 b7 02 0c
        E 15 b7 02 0c
        E 15 b7 02 0c
        E 15 b7 02 0c
        E 15 b7 02 0c
        E 15 b7 02 0c
        E 15 b7 02 0c
        E 15 b7 02 0c
        E 15 b7 02 0c
        E 15 b7 02 0b
        E 15 b7 02 0b
        E 15 b7 02 0b
        E 15 b7 02 0b
        E 15 b7 02 0b
        E 15 b7 02 0b
        E 15 b7 02 0a
        E 15 b7 02 0a
        E 15 b7 02 0a
        E 15 b7 02 0a
        E 15 b7 02 09
        E 15 b7 02 09
        E 15 b7 02 09
        E 15 b7 02 08
        E 15 b7 02 08
        E 15 b7 02 08
        E 15 b7 02 08
        E 15 b7 02 07
        E 15 b7 02 07
        E 15 b7 02 07
        E 15 b7 02 06
        E 15 b7 02 06
        E 15 b7 02 06
        E 15 b7 02 05
        E 15 b7 02 05
        E 15 b7 02 05
        E 15 b7 02 04
        E 15 b7 02 04
        E 15 b7 02 04
        E 15 b7 02 04
        E 15 b7 02 03
        E 15 b7 02 03
        E 15 b7 02 03
        E 15 b7 02 02
        E 15 b7 02 02
        E 15 b7 02 02
        E 15 b7 02 02
        E 15 b7 02 01
        E 15 b7 02 01
        E 15 b7 02 01
        E 15 b7 02 01
        E 15 b7 02 01
        E 15 b7 02 01
        E 15 b7 02 00
        E 15 b7 02 00
        E 15 b7 02 00
        E 15 b7 02 00
        E 15 b7 02 00
        E 15 b7 02 00
        E 15 b7 02 00
        E 15 b7 02 00
        E 15 b7 02 00
        E 15 b7 02 00
        E 15 b7 02 00
        E 15 b7 02 00
        E 15 b7 02 00
        E 15 b7 02 00
        E 15 b7 02 00
        E 15 b7 02 00
        E 15 b7 02 00
        E 15 b7 02 00
        E 15 b7 02 00
        E 15 b7 02 00
        E 15 b7 02 00
        E 15 b7 02 00
        E 15 b7 02 01
        E 15 b7 02 01
        E 15 b7 02 01
        E 15 b7 02 01
        E 15 b7 02 01
        E 15 b7 02 02
        E 15 b7 02 02
        E 15 b7 02 02
        E 15 b7 02 02
        E 15 b7 02 03
        E 15 b7 02 03
        E 15 b7 02 03
        E 15 b7 02 03
        E 15 b7 02 04
        E 15 b7 02 04
        E 15 b7 02 04
        E 15 b7 02 05
        E 15 b7 02 05
        E 15 b7 02 05
        E 15 b7 02 06
        E 15 b7 02 06
        E 3 b7 02 33
        E 3 b7 02 35
        E 3 b7 02 37
        E 3 b7 02 3a
        E 3 b7 02 3c
        E 3 b7 02 3f
        E 3 b7 02 41
        E 3 b7 02 44
        E 3 b7 02 46
        E 3 b7 02 48
        E 3 b7 02 4b
        E 3 b7 02 4c
        E 3 b7 02 4f
        E 3 b7 02 51
        E 3 b7 02 53
        E 3 b7 02 54
        E 3 b7 02 57
        E 3 b7 02 58
        E 3 b7 02 5a
        E 3 b7 02 5b
        E 3 b7 02 5d
        E 3 b7 02 5e
        E 3 b7 02 5f
        E 3 b7 02 60
        E 3 b7 02 61
        E 3 b7 02 62
        E 3 b7 02 63
        E 3 b7 02 63
        E 3 b7 02 64
        E 3 b7 02 64
        E 3 b7 02 65
        E 3 b7 02 65
        E 3 b7 02 65
        E 3 b7 02 65
        E 3 b7 02 65
        E 3 b7 02 64
        E 3 b7 02 64
        E 3 b7 02 63
        E 3 b7 02 63
        E 3 b7 02 62
        E 3 b7 02 61
        E 3 b7 02 5f
        E 3 b7 02 5f
        E 3 b7 02 5d
        E 3 b7 02 5c
        E 3 b7 02 5b
        E 3 b7 02 59
        E 3 b7 02 57
        E 3 b7 02 56
        E 3 b7 02 54
        E 3 b7 02 52
        E 3 b7 02 50
        E 3 b7 02 4e
        E 3 b7 02 4c
        E 3 b7 02 49
        E 3 b7 02 47
        E 3 b7 02 45
        E 3 b7 02 43
        E 3 b7 02 40
        E 3 b7 02 3e
        E 3 b7 02 3b
        E 3 b7 02 38
        E 3 b7 02 36
        E 3 b7 02 33
        E 3 b7 02 31
        E 3 b7 02 2f
        E 3 b7 02 2c
        E 3 b7 02 2a
        E 3 b7 02 27
        E 3 b7 02 24
        E 3 b7 02 22
        E 3 b7 02 1f
        E 3 b7 02 1e
        E 3 b7 02 1b
        E 3 b7 02 19
        E 3 b7 02 17
        E 3 b7 02 15
        E 3 b7 02 13
        E 3 b7 02 11
        E 3 b7 02 0f
        E 3 b7 02 0d
        E 3 b7 02 0b
        E 3 b7 02 0a
        E 3 b7 02 08
        E 3 b7 02 07
        E 3 b7 02 06
        E 3 b7 02 05
        E 3 b7 02 03
        E 3 b7 02 03
        E 3 b7 02 02
        E 3 b7 02 01
        E 3 b7 02 00
        E 3 b7 02 00
        E 3 b7 02 00
        E 3 b7 02 00
        E 3 b7 02 00
        E 3 b7 02 00
        E 3 b7 02 00
        E 3 b7 02 00
        E 3 b7 02 00
        E 3 b7 02 01
        E 3 b7 02 02
        E 3 b7 02 03
        E 3 b7 02 03
        E 3 b7 02 04
        E 3 b7 02 05
        E 3 b7 02 07
        E 3 b7 02 07
        E 3 b7 02 09
        E 3 b7 02 0b
        E 3 b7 02 0c
        E 3 b7 02 0e
        E 3 b7 02 10
        E 3 b7 02 12
        E 3 b7 02 14
        E 3 b7 02 16
        E 3 b7 02 18
        E 3 b7 02 1a
        E 3 b7 02 1c
        E 3 b7 02 1f
        E 3 b7 02 21
        E 3 b7 02 24
        E 3 b7 02 26
        E 3 b7 02 28
        E 3 b7 02 2b
        E 3 b7 02 2d
        E 3 b7 02 2f
        E 3 b7 02 33
        E 15 b7 02 33
        E 15 b7 02 35
        E 15 b7 02 37
        E 15 b7 02 3a
        E 15 b7 02 3c
        E 15 b7 02 3f
        E 15 b7 02 41
        E 15 b7 02 44
        E 15 b7 02 46
        E 15 b7 02 48
        E 15 b7 02 4b
        E 15 b7 02 4c
        E 15 b7 02 4f
        E 15 b7 02 51
        E 15 b7 02 53
        E 15 b7 02 54
        E 15 b7 02 57
        E 15 b7 02 58
        E 15 b7 02 5a
        E 15 b7 02 5b
        E 15 b7 02 5d
        E 15 b7 02 5e
        E 15 b7 02 5f
        E 15 b7 02 60
        E 15 b7 02 61
        E 15 b7 02 62
        E 15 b7 02 63
        E 15 b7 02 63
        E 15 b7 02 64
        E 15 b7 02 64
        E 15 b7 02 65
        E 15 b7 02 65
        E 15 b7 02 65
        E 15 b7 02 65
        E 15 b7 02 65
        E 15 b7 02 64
        E 15 b7 02 64
        E 15 b7 02 63
        E 15 b7 02 63
        E 15 b7 02 62
        E 15 b7 02 61
        E 15 b7 02 5f
        E 15 b7 02 5f
        E 15 b7 02 5d
        E 15 b7 02 5c
        E 15 b7 02 5b
        E 15 b7 02 59
        E 15 b7 02 57
        E 15 b7 02 56
        E 15 b7 02 54
        E 15 b7 02 52
        E 15 b7 02 50
        E 15 b7 02 4e
        E 15 b7 02 4c
        E 15 b7 02 49
        E 15 b7 02 47
        E 15 b7 02 45
        E 15 b7 02 43
        E 15 b7 02 40
        E 15 b7 02 3e
        E 15 b7 02 3b
        E 15 b7 02 38
        E 15 b7 02 36
        E 15 b7 02 33
        E 15 b7 02 31
        E 15 b7 02 2f
        E 15 b7 02 2c
        E 15 b7 02 2a
        E 15 b7 02 27
        E 15 b7 02 24
        E 15 b7 02 22
        E 15 b7 02 1f
        E 15 b7 02 1e
        E 15 b7 02 1b
        E 15 b7 02 19
        E 15 b7 02 17
        E 15 b7 02 15
        E 15 b7 02 13
        E 15 b7 02 11
        E 15 b7 02 0f
        E 15 b7 02 0d
        E 15 b7 02 0b
        E 15 b7 02 0a
        E 15 b7 02 08
        E 15 b7 02 07
        E 15 b7 02 06
        E 15 b7 02 05
        E 15 b7 02 03
        E 15 b7 02 03
        E 15 b7 02 02
        E 15 b7 02 01
        E 15 b7 02 00
        E 15 b7 02 00
        E 15 b7 02 00
        E 15 b7 02 00
        E 15 b7 02 00
        E 15 b7 02 00
        E 15 b7 02 00
        E 15 b7 02 00
        E 15 b7 02 00
        E 15 b7 02 01
        E 15 b7 02 02
        E 15 b7 02 03
        E 15 b7 02 03
        E 15 b7 02 04
        E 15 b7 02 05
        E 15 b7 02 07
        E 15 b7 02 07
        E 15 b7 02 09
        E 15 b7 02 0b
        E 15 b7 02 0c
        E 15 b7 02 0e
        E 15 b7 02 10
        E 15 b7 02 12
        E 15 b7 02 14
        E 15 b7 02 16
        E 15 b7 02 18
        E 15 b7 02 1a
        E 15 b7 02 1c
        E 15 b7 02 1f
        E 15 b7 02 21
        E 15 b7 02 24
        E 15 b7 02 26
        E 15 b7 02 28
        E 15 b7 02 2b
        E 15 b7 02 2d
        E 15 b7 02 2f
        E 15 b7 02 33
        E 15 b7 02 33
        E 15 b7 02 35
        E 15 b7 02 37
        E 15 b7 02 3a
        E 15 b7 02 3c
        E 15 b7 02 3f
        E 15 b7 02 41
        E 15 b7 02 44
        E 15 b7 02 46
        E 15 b7 02 48
        E 15 b7 02 4b
        E 15 b7 02 4c
        E 15 b7 02 4f
        E 15 b7 02 51
        E 15 b7 02 53
        E 15 b7 02 54
        E 15 b7 02 57
        E 15 b7 02 58
        E 15 b7 02 5a
        E 15 b7 02 5b
        E 15 b7 02 5d
        E 15 b7 02 5e
        E 15 b7 02 5f
        E 15 b7 02 60
        E 15 b7 02 61
        E 15 b7 02 62
        E 15 b7 02 63
        E 15 b7 02 63
        E 15 b7 02 64
        E 15 b7 02 64
        E 15 b7 02 65
        E 15 b7 02 65
        E 15 b7 02 65
        E 15 b7 02 65
        E 15 b7 02 65
        E 15 b7 02 64
        E 15 b7 02 64
        E 15 b7 02 63
        E 15 b7 02 63
        E 15 b7 02 62
        E 15 b7 02 61
        E 15 b7 02 5f
        E 15 b7 02 5f
        E 15 b7 02 5d
        E 15 b7 02 5c
        E 15 b7 02 5b
        E 15 b7 02 59
        E 15 b7 02 57
        E 15 b7 02 56
        E 15 b7 02 54
        E 15 b7 02 52
        E 15 b7 02 50
        E 15 b7 02 4e
        E 15 b7 02 4c
        E 15 b7 02 49
        E 15 b7 02 47
        E 15 b7 02 45
        E 15 b7 02 43
        E 15 b7 02 40
        E 15 b7 02 3e
        E 15 b7 02 3b
        E 15 b7 02 38
        E 15 b7 02 36
        E 15 b7 02 33
        E 15 b7 02 31
        E 15 b7 02 2f
        E 15 b7 02 2c
        E 15 b7 02 2a
        E 15 b7 02 27
        E 15 b7 02 24
        E 15 b7 02 22
        E 15 b7 02 1f
        E 15 b7 02 1e
        E 15 b7 02 1b
        E 15 b7 02 19
        E 15 b7 02 17
        E 15 b7 02 15
        E 15 b7 02 13
        E 15 b7 02 11
        E 15 b7 02 0f
        E 15 b7 02 0d
        E 15 b7 02 0b
        E 15 b7 02 0a
        E 15 b7 02 08
        E 15 b7 02 07
        E 15 b7 02 06
        E 15 b7 02 05
        E 15 b7 02 03
        E 15 b7 02 03
        E 15 b7 02 02
        E 15 b7 02 01
        E 15 b7 02 00
        E 15 b7 02 00
        E 15 b7 02 00
        E 15 b7 02 00
        E 15 b7 02 00
        E 15 b7 02 00
        E 15 b7 02 00
        E 15 b7 02 00
        E 15 b7 02 00
        E 15 b7 02 01
        E 15 b7 02 02
        E 15 b7 02 03
        E 15 b7 02 03
        E 15 b7 02 04
        E 15 b7 02 05
        E 15 b7 02 07
        E 15 b7 02 07
        E 15 b7 02 09
        E 15 b7 02 0b
        E 15 b7 02 0c
        E 15 b7 02 0e
        E 15 b7 02 10
        E 15 b7 02 12
        E 15 b7 02 14
        E 15 b7 02 16
        E 15 b7 02 18
        E 15 b7 02 1a
        E 15 b7 02 1c
        E 15 b7 02 1f
        E 15 b7 02 21
        E 15 b7 02 24
        E 15 b7 02 26
        E 15 b7 02 28
        E 15 b7 02 2b
        E 15 b7 02 2d
        E 15 b7 02 2f
        E 15 b7 02 33
        E 3 b7 02 0c
        E 3 b7 02 0d
        E 3 b7 02 0e
        E 3 b7 02 0e
        E 3 b7 02 0f
        E 3 b7 02 0f
        E 3 b7 02 10
        E 3 b7 02 11
        E 3 b7 02 11
        E 3 b7 02 12
        E 3 b7 02 12
        E 3 b7 02 13
        E 3 b7 02 13
        E 3 b7 02 14
        E 3 b7 02 14
        E 3 b7 02 15
        E 3 b7 02 15
        E 3 b7 02 16
        E 3 b7 02 16
        E 3 b7 02 17
        E 3 b7 02 17
        E 3 b7 02 17
        E 3 b7 02 18
        E 3 b7 02 18
        E 3 b7 02 18
        E 3 b7 02 18
        E 3 b7 02 18
        E 3 b7 02 19
        E 3 b7 02 19
        E 3 b7 02 19
        E 3 b7 02 19
        E 3 b7 02 19
        E 3 b7 02 19
        E 3 b7 02 19
        E 3 b7 02 19
        E 3 b7 02 19
        E 3 b7 02 19
        E 3 b7 02 19
        E 3 b7 02 18
        E 3 b7 02 18
        E 3 b7 02 18
        E 3 b7 02 18
        E 3 b7 02 17
        E 3 b7 02 17
        E 3 b7 02 17
        E 3 b7 02 16
        E 3 b7 02 16
        E 3 b7 02 16
        E 3 b7 02 15
        E 3 b7 02 15
        E 3 b7 02 14
        E 3 b7 02 14
        E 3 b7 02 13
        E 3 b7 02 13
        E 3 b7 02 12
        E 3 b7 02 11
        E 3 b7 02 11
        E 3 b7 02 10
        E 3 b7 02 10
        E 3 b7 02 0f
        E 3 b7 02 0e
        E 3 b7 02 0e
        E 3 b7 02 0d
        E 3 b7 02 0d
        E 3 b7 02 0c
        E 3 b7 02 0b
        E 3 b7 02 0b
        E 3 b7 02 0a
        E 3 b7 02 09
        E 3 b7 02 09
        E 3 b7 02 08
        E 3 b7 02 08
        E 3 b7 02 07
        E 3 b7 02 07
        E 3 b7 02 06
        E 3 b7 02 05
        E 3 b7 02 05
        E 3 b7 02 04
        E 3 b7 02 04
        E 3 b7 02 03
        E 3 b7 02 03
        E 3 b7 02 03
        E 3 b7 02 02
        E 3 b7 02 02
        E 3 b7 02 02
        E 3 b7 02 01
        E 3 b7 02 01
        E 3 b7 02 01
        E 3 b7 02 00
        E 3 b7 02 00
        E 3 b7 02 00
        E 3 b7 02 00
        E 3 b7 02 00
        E 3 b7 02 00
        E 3 b7 02 00
        E 3 b7 02 00
        E 3 b7 02 00
        E 3 b7 02 00
        E 3 b7 02 00
        E 3 b7 02 00
        E 3 b7 02 00
        E 3 b7 02 00
        E 3 b7 02 00
        E 3 b7 02 01
        E 3 b7 02 01
        E 3 b7 02 01
        E 3 b7 02 01
        E 3 b7 02 02
        E 3 b7 02 02
        E 3 b7 02 02
        E 3 b7 02 03
        E 3 b7 02 03
        E 3 b7 02 04
        E 3 b7 02 04
        E 3 b7 02 05
        E 3 b7 02 05
        E 3 b7 02 06
        E 3 b7 02 06
        E 3 b7 02 07
        E 3 b7 02 07
        E 3 b7 02 08
        E 3 b7 02 09
        E 3 b7 02 09
        E 3 b7 02 0a
        E 3 b7 02 0a
        E 3 b7 02 0b
        E 3 b7 02 0c
        E 3 b7 02 0c
        E 7 b7 02 39
        E 7 b7 02 3c
        E 7 b7 02 3f
        E 7 b7 02 41
        E 7 b7 02 44
        E 7 b7 02 47
        E 7 b7 02 49
        E 7 b7 02 4c
        E 7 b7 02 4f
        E 7 b7 02 51
        E 7 b7 02 54
        E 7 b7 02 56
        E 7 b7 02 59
        E 7 b7 02 5b
        E 7 b7 02 5d
        E 7 b7 02 5f
        E 7 b7 02 62
        E 7 b7 02 63
        E 7 b7 02 65
        E 7 b7 02 67
        E 7 b7 02 69
        E 7 b7 02 6a
        E 7 b7 02 6c
        E 7 b7 02 6c
        E 7 b7 02 6d
        E 7 b7 02 6e
        E 7 b7 02 6f
        E 7 b7 02 70
        E 7 b7 02 71
        E 7 b7 02 71
        E 7 b7 02 72
        E 7 b7 02 72
        E 7 b7 02 72
        E 7 b7 02 72
        E 7 b7 02 72
        E 7 b7 02 71
        E 7 b7 02 71
        E 7 b7 02 70
        E 7 b7 02 6f
        E 7 b7 02 6e
        E 7 b7 02 6d
        E 7 b7 02 6c
        E 7 b7 02 6b
        E 7 b7 02 69
        E 7 b7 02 68
        E 7 b7 02 66
        E 7 b7 02 64
        E 7 b7 02 63
        E 7 b7 02 61
        E 7 b7 02 5e
        E 7 b7 02 5c
        E 7 b7 02 5a
        E 7 b7 02 58
        E 7 b7 02 55
        E 7 b7 02 52
        E 7 b7 02 50
        E 7 b7 02 4e
        E 7 b7 02 4b
        E 7 b7 02 48
        E 7 b7 02 46
        E 7 b7 02 42
        E 7 b7 02 3f
        E 7 b7 02 3d
        E 7 b7 02 3a
        E 7 b7 02 37
        E 7 b7 02 35
        E 7 b7 02 32
        E 7 b7 02 2f
        E 7 b7 02 2c
        E 7 b7 02 29
        E 7 b7 02 26
        E 7 b7 02 24
        E 7 b7 02 22
        E 7 b7 02 1f
        E 7 b7 02 1c
        E 7 b7 02 1a
        E 7 b7 02 18
        E 7 b7 02 15
        E 7 b7 02 13
        E 7 b7 02 11
        E 7 b7 02 0f
        E 7 b7 02 0d
        E 7 b7 02 0b
        E 7 b7 02 09
        E 7 b7 02 09
        E 7 b7 02 07
        E 7 b7 02 06
        E 7 b7 02 04
        E 7 b7 02 03
        E 7 b7 02 02
        E 7 b7 02 01
        E 7 b7 02 00
        E 7 b7 02 00
        E 7 b7 02 00
        E 7 b7 02 00
        E 7 b7 02 00
        E 7 b7 02 00
        E 7 b7 02 00
        E 7 b7 02 00
        E 7 b7 02 00
        E 7 b7 02 01
        E 7 b7 02 02
        E 7 b7 02 03
        E 7 b7 02 04
        E 7 b7 02 05
        E 7 b7 02 06
        E 7 b7 02 08
        E 7 b7 02 09
        E 7 b7 02 0a
        E 7 b7 02 0c
        E 7 b7 02 0e
        E 7 b7 02 10
        E 7 b7 02 12
        E 7 b7 02 14
        E 7 b7 02 16
        E 7 b7 02 19
        E 7 b7 02 1b
        E 7 b7 02 1d
        E 7 b7 02 20
        E 7 b7 02 23
        E 7 b7 02 25
        E 7 b7 02 28
        E 7 b7 02 2b
        E 7 b7 02 2d
        E 7 b7 02 30
        E 7 b7 02 33
        E 7 b7 02 36
        E 7 b7 02 39
        E 15 b7 02 06
        E 15 b7 02 06
        E 15 b7 02 07
        E 15 b7 02 07
        E 15 b7 02 07
        E 15 b7 02 07
        E 15 b7 02 08
        E 15 b7 02 08
        E 15 b7 02 08
        E 15 b7 02 09
        E 15 b7 02 09
        E 15 b7 02 09
        E 15 b7 02 09
        E 15 b7 02 0a
        E 15 b7 02 0a
        E 15 b7 02 0a
        E 15 b7 02 0a
        E 15 b7 02 0b
        E 15 b7 02 0b
        E 15 b7 02 0b
        E 15 b7 02 0b
        E 15 b7 02 0b
        E 15 b7 02 0c
        E 15 b7 02 0c
        E 15 b7 02 0c
        E 15 b7 02 0c
        E 15 b7 02 0c
        E 15 b7 02 0c
        E 15 b7 02 0c
        E 15 b7 02 0c
        E 15 b7 02 0c
        E 15 b7 02 0c
        E 15 b7 02 0c
        E 15 b7 02 0c
        E 15 b7 02 0c
        E 15 b7 02 0c
        E 15 b7 02 0c
        E 15 b7 02 0c
        E 15 b7 02 0c
        E 15 b7 02 0c
        E 15 b7 02 0c
        E 15 b7 02 0c
        E 15 b7 02 0b
        E 15 b7 02 0b
        E 15 b7 02 0b
        E 15 b7 02 0b
        E 15 b7 02 0b
        E 15 b7 02 0b
        E 15 b7 02 0a
        E 15 b7 02 0a
        E 15 b7 02 0a
        E 15 b7 02 0a
        E 15 b7 02 09
        E 15 b7 02 09
        E 15 b7 02 09
        E 15 b7 02 08
        E 15 b7 02 08
        E 15 b7 02 08
        E 15 b7 02 08
        E 15 b7 02 07
        E 15 b7 02 07
        E 15 b7 02 07
        E 15 b7 02 06
        E 15 b7 02 06
        E 15 b7 02 06
        E 15 b7 02 05
        E 15 b7 02 05
        E 15 b7 02 05
        E 15 b7 02 04
        E 15 b7 02 04
        E 15 b7 02 04
        E 15 b7 02 04
        E 15 b7 02 03
        E 15 b7 02 03
        E 15 b7 02 03
        E 15 b7 02 02
        E 15 b7 02 02
        E 15 b7 02 02
        E 15 b7 02 02
        E 15 b7 02 01
        E 15 b7 02 01
        E 15 b7 02 01
        E 15 b7 02 01
        E 15 b7 02 01
        E 15 b7 02 01
        E 15 b7 02 00
        E 15 b7 02 00
        E 15 b7 02 00
        E 15 b7 02 00
        E 15 b7 02 00
        E 15 b7 02 00
        E 15 b7 02 00
        E 15 b7 02 00
        E 15 b7 02 00
        E 15 b7 02 00
        E 15 b7 02 00
        E 15 b7 02 00
        E 15 b7 02 00
        E 15 b7 02 00
        E 15 b7 02 00
        E 15 b7 02 00
        E 15 b7 02 00
        E 15 b7 02 00
        E 15 b7 02 00
        E 15 b7 02 00
        E 15 b7 02 00
        E 15 b7 02 00
        E 15 b7 02 01
        E 15 b7 02 01
        E 15 b7 02 01
        E 15 b7 02 01
        E 15 b7 02 01
        E 15 b7 02 02
        E 15 b7 02 02
        E 15 b7 02 02
        E 15 b7 02 02
        E 15 b7 02 03
        E 15 b7 02 03
        E 15 b7 02 03
        E 15 b7 02 03
        E 15 b7 02 04
        E 15 b7 02 04
        E 15 b7 02 04
        E 15 b7 02 05
        E 15 b7 02 05
        E 15 b7 02 05
        E 15 b7 02 06
        E 15 b7 02 06
        E 3 b7 02 33
        E 3 b7 02 35
        E 3 b7 02 37
        E 3 b7 02 3a
        E 3 b7 02 3c
        E 3 b7 02 3f
        E 3 b7 02 41
        E 3 b7 02 44
        E 3 b7 02 46
        E 3 b7 02 48
        E 3 b7 02 4b
        E 3 b7 02 4c
        E 3 b7 02 4f
        E 3 b7 02 51
        E 3 b7 02 53
        E 3 b7 02 54
        E 3 b7 02 57
        E 3 b7 02 58
        E 3 b7 02 5a
        E 3 b7 02 5b
        E 3 b7 02 5d
        E 3 b7 02 5e
        E 3 b7 02 5f
        E 3 b7 02 60
        E 3 b7 02 61
        E 3 b7 02 62
        E 3 b7 02 63
        E 3 b7 02 63
        E 3 b7 02 64
        E 3 b7 02 64
        E 3 b7 02 65
        E 3 b7 02 65
        E 3 b7 02 65
        E 3 b7 02 65
        E 3 b7 02 65
        E 3 b7 02 64
        E 3 b7 02 64
        E 3 b7 02 63
        E 3 b7 02 63
        E 3 b7 02 62
        E 3 b7 02 61
        E 3 b7 02 5f
        E 3 b7 02 5f
        E 3 b7 02 5d
        E 3 b7 02 5c
        E 3 b7 02 5b
        E 3 b7 02 59
        E 3 b7 02 57
        E 3 b7 02 56
        E 3 b7 02 54
        E 3 b7 02 52
        E 3 b7 02 50
        E 3 b7 02 4e
        E 3 b7 02 4c
        E 3 b7 02 49
        E 3 b7 02 47
        E 3 b7 02 45
        E 3 b7 02 43
        E 3 b7 02 40
        E 3 b7 02 3e
        E 3 b7 02 3b
        E 3 b7 02 38
        E 3 b7 02 36
        E 3 b7 02 33
        E 3 b7 02 31
        E 3 b7 02 2f
        E 3 b7 02 2c
        E 3 b7 02 2a
        E 3 b7 02 27
        E 3 b7 02 24
        E 3 b7 02 22
        E 3 b7 02 1f
        E 3 b7 02 1e
        E 3 b7 02 1b
        E 3 b7 02 19
        E 3 b7 02 17
        E 3 b7 02 15
        E 3 b7 02 13
        E 3 b7 02 11
        E 3 b7 02 0f
        E 3 b7 02 0d
        E 3 b7 02 0b
        E 3 b7 02 0a
        E 3 b7 02 08
        E 3 b7 02 07
        E 3 b7 02 06
        E 3 b7 02 05
        E 3 b7 02 03
        E 3 b7 02 03
        E 3 b7 02 02
        E 3 b7 02 01
        E 3 b7 02 00
        E 3 b7 02 00
        E 3 b7 02 00
        E 3 b7 02 00
        E 3 b7 02 00
        E 3 b7 02 00
        E 3 b7 02 00
        E 3 b7 02 00
        E 3 b7 02 00
        E 3 b7 02 01
        E 3 b7 02 02
        E 3 b7 02 03
        E 3 b7 02 03
        E 3 b7 02 04
        E 3 b7 02 05
        E 3 b7 02 07
        E 3 b7 02 07
        E 3 b7 02 09
        E 3 b7 02 0b
        E 3 b7 02 0c
        E 3 b7 02 0e
        E 3 b7 02 10
        E 3 b7 02 12
        E 3 b7 02 14
        E 3 b7 02 16
        E 3 b7 02 18
        E 3 b7 02 1a
        E 3 b7 02 1c
        E 3 b7 02 1f
        E 3 b7 02 21
        E 3 b7 02 24
        E 3 b7 02 26
        E 3 b7 02 28
        E 3 b7 02 2b
        E 3 b7 02 2d
        E 3 b7 02 2f
        E 3 b7 02 33
        E 15 b7 02 33
        E 15 b7 02 35
        E 15 b7 02 37
        E 15 b7 02 3a
        E 15 b7 02 3c
        E 15 b7 02 3f
        E 15 b7 02 41
        E 15 b7 02 44
        E 15 b7 02 46
        E 15 b7 02 48
        E 15 b7 02 4b
        E 15 b7 02 4c
        E 15 b7 02 4f
        E 15 b7 02 51
        E 15 b7 02 53
        E 15 b7 02 54
        E 15 b7 02 57
        E 15 b7 02 58
        E 15 b7 02 5a
        E 15 b7 02 5b
        E 15 b7 02 5d
        E 15 b7 02 5e
        E 15 b7 02 5f
        E 15 b7 02 60
        E 15 b7 02 61
        E 15 b7 02 62
        E 15 b7 02 63
        E 15 b7 02 63
        E 15 b7 02 64
        E 15 b7 02 64
        E 15 b7 02 65
        E 15 b7 02 65
        E 15 b7 02 65
        E 15 b7 02 65
        E 15 b7 02 65
        E 15 b7 02 64
        E 15 b7 02 64
        E 15 b7 02 63
        E 15 b7 02 63
        E 15 b7 02 62
        E 15 b7 02 61
        E 15 b7 02 5f
        E 15 b7 02 5f
        E 15 b7 02 5d
        E 15 b7 02 5c
        E 15 b7 02 5b
        E 15 b7 02 59
        E 15 b7 02 57
        E 15 b7 02 56
        E 15 b7 02 54
        E 15 b7 02 52
        E 15 b7 02 50
        E 15 b7 02 4e
        E 15 b7 02 4c
        E 15 b7 02 49
        E 15 b7 02 47
        E 15 b7 02 45
        E 15 b7 02 43
        E 15 b7 02 40
        E 15 b7 02 3e
        E 15 b7 02 3b
        E 15 b7 02 38
        E 15 b7 02 36
        E 15 b7 02 33
        E 15 b7 02 31
        E 15 b7 02 2f
        E 15 b7 02 2c
        E 15 b7 02 2a
        E 15 b7 02 27
        E 15 b7 02 24
        E 15 b7 02 22
        E 15 b7 02 1f
        E 15 b7 02 1e
        E 15 b7 02 1b
        E 15 b7 02 19
        E 15 b7 02 17
        E 15 b7 02 15
        E 15 b7 02 13
        E 15 b7 02 11
        E 15 b7 02 0f
        E 15 b7 02 0d
        E 15 b7 02 0b
        E 15 b7 02 0a
        E 15 b7 02 08
        E 15 b7 02 07
        E 15 b7 02 06
        E 15 b7 02 05
        E 15 b7 02 03
        E 15 b7 02 03
        E 15 b7 02 02
        E 15 b7 02 01
        E 15 b7 02 00
        E 15 b7 02 00
        E 15 b7 02 00
        E 15 b7 02 00
        E 15 b7 02 00
        E 15 b7 02 00
        E 15 b7 02 00
        E 15 b7 02 00
        E 15 b7 02 00
        E 15 b7 02 01
        E 15 b7 02 02
        E 15 b7 02 03
        E 15 b7 02 03
        E 15 b7 02 04
        E 15 b7 02 05
        E 15 b7 02 07
        E 15 b7 02 07
        E 15 b7 02 09
        E 15 b7 02 0b
        E 15 b7 02 0c
        E 15 b7 02 0e
        E 15 b7 02 10
        E 15 b7 02 12
        E 15 b7 02 14
        E 15 b7 02 16
        E 15 b7 02 18
        E 15 b7 02 1a
        E 15 b7 02 1c
        E 15 b7 02 1f
        E 15 b7 02 21
        E 15 b7 02 24
        E 15 b7 02 26
        E 15 b7 02 28
        E 15 b7 02 2b
        E 15 b7 02 2d
        E 15 b7 02 2f
        E 15 b7 02 33
        E 7 b7 02 19
        E 7 b7 02 56
        E 7 b7 02 38
        E 7 b7 02 09
        E 7 b7 02 51
        E 7 b7 02 48
        E 7 b7 02 0a
        E 7 b7 02 09
        E 7 b7 02 36
        E 7 b7 02 6c
        E 7 b7 02 5a
        E 7 b7 02 63
        E 7 b7 02 47
        E 7 b7 02 0c
        E 7 b7 02 15
        E 7 b7 02 4d
        E 7 b7 02 3f
        E 7 b7 02 20
        E 7 b7 02 16
        E 7 b7 02 1e
        E 7 b7 02 59
        E 7 b7 02 35
        E 7 b7 02 1b
        E 7 b7 02 41
        E 7 b7 02 71
        E 7 b7 02 00
        E 7 b7 02 0e
        E 7 b7 02 2e
        E 7 b7 02 26
        E 7 b7 02 5d
        E 7 b7 02 18
        E 7 b7 02 07
        E 7 b7 02 12
        E 7 b7 02 13
        E 7 b7 02 67
        E 7 b7 02 1c
        E 7 b7 02 00
        E 7 b7 02 54
        E 7 b7 02 27
        E 7 b7 02 17
        E 7 b7 02 2d
        E 7 b7 02 1d
        E 7 b7 02 61
        E 7 b7 02 60
        E 7 b7 02 72
        E 7 b7 02 5f
        E 7 b7 02 31
        E 7 b7 02 6a
        E 7 b7 02 51
        E 7 b7 02 0d
        E 7 b7 02 32
        E 7 b7 02 3d
        E 7 b7 02 6c
        E 7 b7 02 57
        E 7 b7 02 3e
        E 7 b7 02 3f
        E 7 b7 02 05
        E 7 b7 02 0b
        E 7 b7 02 69
        E 7 b7 02 5b
        E 7 b7 02 30
        E 7 b7 02 24
        E 7 b7 02 0f
        E 7 b7 02 33
        E 7 b7 02 22
        E 7 b7 02 1b
        E 7 b7 02 2b
        E 7 b7 02 3b
        E 7 b7 02 45
        E 7 b7 02 49
        E 7 b7 02 12
        E 7 b7 02 44
        E 7 b7 02 65
        E 7 b7 02 3a
        E 7 b7 02 42
        E 7 b7 02 02
        E 7 b7 02 08
        E 7 b7 02 70
        E 7 b7 02 4a
        E 7 b7 02 14
        E 7 b7 02 68
        E 7 b7 02 24
        E 7 b7 02 2c
        E 7 b7 02 37
        E 7 b7 02 2d
        E 7 b7 02 4c
        E 7 b7 02 5c
        E 7 b7 02 21
        E 7 b7 02 40
        E 7 b7 02 1a
        E 7 b7 02 66
        E 7 b7 02 5e
        E 7 b7 02 34
        E 7 b7 02 29
        E 7 b7 02 5a
        E 7 b7 02 2a
        E 7 b7 02 50
        E 7 b7 02 10
        E 7 b7 02 01
        E 7 b7 02 25
        E 7 b7 02 39
        E 7 b7 02 62
        E 7 b7 02 58
        E 7 b7 02 03
        E 7 b7 02 63
        E 7 b7 02 53
        E 7 b7 02 06
        E 7 b7 02 23
        E 7 b7 02 43
        E 7 b7 02 55
        E 7 b7 02 6d
        E 7 b7 02 46
        E 7 b7 02 2f
        E 7 b7 02 1f
        E 7 b7 02 4f
        E 7 b7 02 52
        E 7 b7 02 64
        E 7 b7 02 6f
        E 7 b7 02 36
        E 7 b7 02 48
        E 7 b7 02 4e
        E 7 b7 02 3c
        E 7 b7 02 6b
        E 7 b7 02 11
        E 7 b7 02 28
        E 7 b7 02 4b
        E 14 b7 02 02
        E 14 b7 02 09
        E 14 b7 02 06
        E 14 b7 02 01
        E 14 b7 02 09
        E 14 b7 02 08
        E 14 b7 02 01
        E 14 b7 02 01
        E 14 b7 02 06
        E 14 b7 02 0c
        E 14 b7 02 0a
        E 14 b7 02 0b
        E 14 b7 02 07
        E 14 b7 02 01
        E 14 b7 02 02
        E 14 b7 02 08
        E 14 b7 02 07
        E 14 b7 02 03
        E 14 b7 02 02
        E 14 b7 02 03
        E 14 b7 02 09
        E 14 b7 02 05
        E 14 b7 02 03
        E 14 b7 02 07
        E 14 b7 02 0c
        E 14 b7 02 00
        E 14 b7 02 01
        E 14 b7 02 05
        E 14 b7 02 04
        E 14 b7 02 0a
        E 14 b7 02 02
        E 14 b7 02 00
        E 14 b7 02 02
        E 14 b7 02 02
        E 14 b7 02 0b
        E 14 b7 02 03
        E 14 b7 02 00
        E 14 b7 02 09
        E 14 b7 02 04
        E 14 b7 02 02
        E 14 b7 02 05
        E 14 b7 02 03
        E 14 b7 02 0a
        E 14 b7 02 0a
        E 14 b7 02 0c
        E 14 b7 02 0a
        E 14 b7 02 05
        E 14 b7 02 0b
        E 14 b7 02 09
        E 14 b7 02 01
        E 14 b7 02 05
        E 14 b7 02 06
        E 14 b7 02 0c
        E 14 b7 02 09
        E 14 b7 02 06
        E 14 b7 02 07
        E 14 b7 02 00
        E 14 b7 02 01
        E 14 b7 02 0b
        E 14 b7 02 0a
        E 14 b7 02 05
        E 14 b7 02 04
        E 14 b7 02 01
        E 14 b7 02 05
        E 14 b7 02 03
        E 14 b7 02 03
        E 14 b7 02 04
        E 14 b7 02 06
        E 14 b7 02 07
        E 14 b7 02 08
        E 14 b7 02 02
        E 14 b7 02 07
        E 14 b7 02 0b
        E 14 b7 02 06
        E 14 b7 02 07
        E 14 b7 02 00
        E 14 b7 02 00
        E 14 b7 02 0c
        E 14 b7 02 08
        E 14 b7 02 02
        E 14 b7 02 0b
        E 14 b7 02 04
        E 14 b7 02 04
        E 14 b7 02 06
        E 14 b7 02 05
        E 14 b7 02 08
        E 14 b7 02 0a
        E 14 b7 02 03
        E 14 b7 02 07
        E 14 b7 02 02
        E 14 b7 02 0b
        E 14 b7 02 0a
        E 14 b7 02 05
        E 14 b7 02 04
        E 14 b7 02 0a
        E 14 b7 02 04
        E 14 b7 02 08
        E 14 b7 02 01
        E 14 b7 02 00
        E 14 b7 02 04
        E 14 b7 02 06
        E 14 b7 02 0a
        E 14 b7 02 09
        E 14 b7 02 00
        E 14 b7 02 0b
        E 14 b7 02 09
        E 14 b7 02 00
        E 14 b7 02 03
        E 14 b7 02 07
        E 14 b7 02 09
        E 14 b7 02 0c
        E 14 b7 02 07
        E 14 b7 02 05
        E 14 b7 02 03
        E 14 b7 02 08
        E 14 b7 02 09
        E 14 b7 02 0b
        E 14 b7 02 0c
        E 14 b7 02 06
        E 14 b7 02 08
        E 14 b7 02 08
        E 14 b7 02 06
        E 14 b7 02 0b
        E 14 b7 02 01
        E 14 b7 02 04
        E 14 b7 02 08
        E 3 b7 02 16
        E 3 b7 02 4c
        E 3 b7 02 32
        E 3 b7 02 07
        E 3 b7 02 48
        E 3 b7 02 3f
        E 3 b7 02 09
        E 3 b7 02 08
        E 3 b7 02 30
        E 3 b7 02 5f
        E 3 b7 02 50
        E 3 b7 02 58
        E 3 b7 02 3f
        E 3 b7 02 0b
        E 3 b7 02 13
        E 3 b7 02 44
        E 3 b7 02 37
        E 3 b7 02 1c
        E 3 b7 02 14
        E 3 b7 02 1b
        E 3 b7 02 4f
        E 3 b7 02 2f
        E 3 b7 02 17
        E 3 b7 02 3a
        E 3 b7 02 64
        E 3 b7 02 00
        E 3 b7 02 0c
        E 3 b7 02 29
        E 3 b7 02 22
        E 3 b7 02 53
        E 3 b7 02 15
        E 3 b7 02 06
        E 3 b7 02 0f
        E 3 b7 02 11
        E 3 b7 02 5b
        E 3 b7 02 19
        E 3 b7 02 00
        E 3 b7 02 4b
        E 3 b7 02 23
        E 3 b7 02 14
        E 3 b7 02 28
        E 3 b7 02 1a
        E 3 b7 02 56
        E 3 b7 02 55
        E 3 b7 02 65
        E 3 b7 02 54
        E 3 b7 02 2b
        E 3 b7 02 5e
        E 3 b7 02 48
        E 3 b7 02 0b
        E 3 b7 02 2c
        E 3 b7 02 36
        E 3 b7 02 60
        E 3 b7 02 4d
        E 3 b7 02 37
        E 3 b7 02 38
        E 3 b7 02 04
        E 3 b7 02 0a
        E 3 b7 02 5d
        E 3 b7 02 51
        E 3 b7 02 2b
        E 3 b7 02 1f
        E 3 b7 02 0d
        E 3 b7 02 2d
        E 3 b7 02 1e
        E 3 b7 02 18
        E 3 b7 02 26
        E 3 b7 02 34
        E 3 b7 02 3d
        E 3 b7 02 41
        E 3 b7 02 10
        E 3 b7 02 3c
        E 3 b7 02 5a
        E 3 b7 02 33
        E 3 b7 02 3b
        E 3 b7 02 02
        E 3 b7 02 07
        E 3 b7 02 63
        E 3 b7 02 42
        E 3 b7 02 12
        E 3 b7 02 5c
        E 3 b7 02 20
        E 3 b7 02 27
        E 3 b7 02 31
        E 3 b7 02 28
        E 3 b7 02 44
        E 3 b7 02 52
        E 3 b7 02 1d
        E 3 b7 02 39
        E 3 b7 02 17
        E 3 b7 02 5b
        E 3 b7 02 54
        E 3 b7 02 2e
        E 3 b7 02 24
        E 3 b7 02 50
        E 3 b7 02 25
        E 3 b7 02 47
        E 3 b7 02 0e
        E 3 b7 02 01
        E 3 b7 02 21
        E 3 b7 02 33
        E 3 b7 02 57
        E 3 b7 02 4e
        E 3 b7 02 03
        E 3 b7 02 57
        E 3 b7 02 4a
        E 3 b7 02 05
        E 3 b7 02 1f
        E 3 b7 02 3b
        E 3 b7 02 4c
        E 3 b7 02 61
        E 3 b7 02 3e
        E 3 b7 02 2a
        E 3 b7 02 1b
        E 3 b7 02 46
        E 3 b7 02 49
        E 3 b7 02 59
        E 3 b7 02 63
        E 3 b7 02 2f
        E 3 b7 02 40
        E 3 b7 02 45
        E 3 b7 02 35
        E 3 b7 02 5f
        E 3 b7 02 0f
        E 3 b7 02 24
        E 3 b7 02 43
        E 14 b7 02 16
        E 14 b7 02 4c
        E 14 b7 02 32
        E 14 b7 02 07
        E 14 b7 02 48
        E 14 b7 02 3f
        E 14 b7 02 09
        E 14 b7 02 08
        E 14 b7 02 30
        E 14 b7 02 5f
        E 14 b7 02 50
        E 14 b7 02 58
        E 14 b7 02 3f
        E 14 b7 02 0b
        E 14 b7 02 13
        E 14 b7 02 44
        E 14 b7 02 37
        E 14 b7 02 1c
        E 14 b7 02 14
        E 14 b7 02 1b
        E 14 b7 02 4f
        E 14 b7 02 2f
        E 14 b7 02 17
        E 14 b7 02 3a
        E 14 b7 02 64
        E 14 b7 02 00
        E 14 b7 02 0c
        E 14 b7 02 29
        E 14 b7 02 22
        E 14 b7 02 53
        E 14 b7 02 15
        E 14 b7 02 06
        E 14 b7 02 0f
        E 14 b7 02 11
        E 14 b7 02 5b
        E 14 b7 02 19
        E 14 b7 02 00
        E 14 b7 02 4b
        E 14 b7 02 23
        E 14 b7 02 14
        E 14 b7 02 28
        E 14 b7 02 1a
        E 14 b7 02 56
        E 14 b7 02 55
        E 14 b7 02 65
        E 14 b7 02 54
        E 14 b7 02 2b
        E 14 b7 02 5e
        E 14 b7 02 48
        E 14 b7 02 0b
        E 14 b7 02 2c
        E 14 b7 02 36
        E 14 b7 02 60
        E 14 b7 02 4d
        E 14 b7 02 37
        E 14 b7 02 38
        E 14 b7 02 04
        E 14 b7 02 0a
        E 14 b7 02 5d
        E 14 b7 02 51
        E 14 b7 02 2b
        E 14 b7 02 1f
        E 14 b7 02 0d
        E 14 b7 02 2d
        E 14 b7 02 1e
        E 14 b7 02 18
        E 14 b7 02 26
        E 14 b7 02 34
        E 14 b7 02 3d
        E 14 b7 02 41
        E 14 b7 02 10
        E 14 b7 02 3c
        E 14 b7 02 5a
        E 14 b7 02 33
        E 14 b7 02 3b
        E 14 b7 02 02
        E 14 b7 02 07
        E 14 b7 02 63
        E 14 b7 02 42
        E 14 b7 02 12
        E 14 b7 02 5c
        E 14 b7 02 20
        E 14 b7 02 27
        E 14 b7 02 31
        E 14 b7 02 28
        E 14 b7 02 44
        E 14 b7 02 52
        E 14 b7 02 1d
        E 14 b7 02 39
        E 14 b7 02 17
        E 14 b7 02 5b
        E 14 b7 02 54
        E 14 b7 02 2e
        E 14 b7 02 24
        E 14 b7 02 50
        E 14 b7 02 25
        E 14 b7 02 47
        E 14 b7 02 0e
        E 14 b7 02 01
        E 14 b7 02 21
        E 14 b7 02 33
        E 14 b7 02 57
        E 14 b7 02 4e
        E 14 b7 02 03
        E 14 b7 02 57
        E 14 b7 02 4a
        E 14 b7 02 05
        E 14 b7 02 1f
        E 14 b7 02 3b
        E 14 b7 02 4c
        E 14 b7 02 61
        E 14 b7 02 3e
        E 14 b7 02 2a
        E 14 b7 02 1b
        E 14 b7 02 46
        E 14 b7 02 49
        E 14 b7 02 59
        E 14 b7 02 63
        E 14 b7 02 2f
        E 14 b7 02 40
        E 14 b7 02 45
        E 14 b7 02 35
        E 14 b7 02 5f
        E 14 b7 02 0f
        E 14 b7 02 24
        E 14 b7 02 43
        E 7 b7 02 19
        E 7 b7 02 56
        E 7 b7 02 38
        E 7 b7 02 09
        E 7 b7 02 51
        E 7 b7 02 48
        E 7 b7 02 0a
        E 7 b7 02 09
        E 7 b7 02 36
        E 7 b7 02 6c
        E 7 b7 02 5a
        E 7 b7 02 63
        E 7 b7 02 47
        E 7 b7 02 0c
        E 7 b7 02 15
        E 7 b7 02 4d
        E 7 b7 02 3f
        E 7 b7 02 20
        E 7 b7 02 16
        E 7 b7 02 1e
        E 7 b7 02 59
        E 7 b7 02 35
        E 7 b7 02 1b
        E 7 b7 02 41
        E 7 b7 02 71
        E 7 b7 02 00
        E 7 b7 02 0e
        E 7 b7 02 2e
        E 7 b7 02 26
        E 7 b7 02 5d
        E 7 b7 02 18
        E 7 b7 02 07
        E 7 b7 02 12
        E 7 b7 02 13
        E 7 b7 02 67
        E 7 b7 02 1c
        E 7 b7 02 00
        E 7 b7 02 54
        E 7 b7 02 27
        E 7 b7 02 17
        E 7 b7 02 2d
        E 7 b7 02 1d
        E 7 b7 02 61
        E 7 b7 02 60
        E 7 b7 02 72
        E 7 b7 02 5f
        E 7 b7 02 31
        E 7 b7 02 6a
        E 7 b7 02 51
        E 7 b7 02 0d
        E 7 b7 02 32
        E 7 b7 02 3d
        E 7 b7 02 6c
        E 7 b7 02 57
        E 7 b7 02 3e
        E 7 b7 02 3f
        E 7 b7 02 05
        E 7 b7 02 0b
        E 7 b7 02 69
        E 7 b7 02 5b
        E 7 b7 02 30
        E 7 b7 02 24
        E 7 b7 02 0f
        E 7 b7 02 33
        E 7 b7 02 22
        E 7 b7 02 1b
        E 7 b7 02 2b
        E 7 b7 02 3b
        E 7 b7 02 45
        E 7 b7 02 49
        E 7 b7 02 12
        E 7 b7 02 44
        E 7 b7 02 65
        E 7 b7 02 3a
        E 7 b7 02 42
        E 7 b7 02 02
        E 7 b7 02 08
        E 7 b7 02 70
        E 7 b7 02 4a
        E 7 b7 02 14
        E 7 b7 02 68
        E 7 b7 02 24
        E 7 b7 02 2c
        E 7 b7 02 37
        E 7 b7 02 2d
        E 7 b7 02 4c
        E 7 b7 02 5c
        E 7 b7 02 21
        E 7 b7 02 40
        E 7 b7 02 1a
        E 7 b7 02 66
        E 7 b7 02 5e
        E 7 b7 02 34
        E 7 b7 02 29
        E 7 b7 02 5a
        E 7 b7 02 2a
        E 7 b7 02 50
        E 7 b7 02 10
        E 7 b7 02 01
        E 7 b7 02 25
        E 7 b7 02 39
        E 7 b7 02 62
        E 7 b7 02 58
        E 7 b7 02 03
        E 7 b7 02 63
        E 7 b7 02 53
        E 7 b7 02 06
        E 7 b7 02 23
        E 7 b7 02 43
        E 7 b7 02 55
        E 7 b7 02 6d
        E 7 b7 02 46
        E 7 b7 02 2f
        E 7 b7 02 1f
        E 7 b7 02 4f
        E 7 b7 02 52
        E 7 b7 02 64
        E 7 b7 02 6f
        E 7 b7 02 36
        E 7 b7 02 48
        E 7 b7 02 4e
        E 7 b7 02 3c
        E 7 b7 02 6b
        E 7 b7 02 11
        E 7 b7 02 28
        E 7 b7 02 4b
        E 14 b7 02 02
        E 14 b7 02 09
        E 14 b7 02 06
        E 14 b7 02 01
        E 14 b7 02 09
        E 14 b7 02 08
        E 14 b7 02 01
        E 14 b7 02 01
        E 14 b7 02 06
        E 14 b7 02 0c
        E 14 b7 02 0a
        E 14 b7 02 0b
        E 14 b7 02 07
        E 14 b7 02 01
        E 14 b7 02 02
        E 14 b7 02 08
        E 14 b7 02 07
        E 14 b7 02 03
        E 14 b7 02 02
        E 14 b7 02 03
        E 14 b7 02 09
        E 14 b7 02 05
        E 14 b7 02 03
        E 14 b7 02 07
        E 14 b7 02 0c
        E 14 b7 02 00
        E 14 b7 02 01
        E 14 b7 02 05
        E 14 b7 02 04
        E 14 b7 02 0a
        E 14 b7 02 02
        E 14 b7 02 00
        E 14 b7 02 02
        E 14 b7 02 02
        E 14 b7 02 0b
        E 14 b7 02 03
        E 14 b7 02 00
        E 14 b7 02 09
        E 14 b7 02 04
        E 14 b7 02 02
        E 14 b7 02 05
        E 14 b7 02 03
        E 14 b7 02 0a
        E 14 b7 02 0a
        E 14 b7 02 0c
        E 14 b7 02 0a
        E 14 b7 02 05
        E 14 b7 02 0b
        E 14 b7 02 09
        E 14 b7 02 01
        E 14 b7 02 05
        E 14 b7 02 06
        E 14 b7 02 0c
        E 14 b7 02 09
        E 14 b7 02 06
        E 14 b7 02 07
        E 14 b7 02 00
        E 14 b7 02 01
        E 14 b7 02 0b
        E 14 b7 02 0a
        E 14 b7 02 05
        E 14 b7 02 04
        E 14 b7 02 01
        E 14 b7 02 05
        E 14 b7 02 03
        E 14 b7 02 03
        E 14 b7 02 04
        E 14 b7 02 06
        E 14 b7 02 07
        E 14 b7 02 08
        E 14 b7 02 02
        E 14 b7 02 07
        E 14 b7 02 0b
        E 14 b7 02 06
        E 14 b7 02 07
        E 14 b7 02 00
        E 14 b7 02 00
        E 14 b7 02 0c
        E 14 b7 02 08
        E 14 b7 02 02
        E 14 b7 02 0b
        E 14 b7 02 04
        E 14 b7 02 04
        E 14 b7 02 06
        E 14 b7 02 05
        E 14 b7 02 08
        E 14 b7 02 0a
        E 14 b7 02 03
        E 14 b7 02 07
        E 14 b7 02 02
        E 14 b7 02 0b
        E 14 b7 02 0a
        E 14 b7 02 05
        E 14 b7 02 04
        E 14 b7 02 0a
        E 14 b7 02 04
        E 14 b7 02 08
        E 14 b7 02 01
        E 14 b7 02 00
        E 14 b7 02 04
        E 14 b7 02 06
        E 14 b7 02 0a
        E 14 b7 02 09
        E 14 b7 02 00
        E 14 b7 02 0b
        E 14 b7 02 09
        E 14 b7 02 00
        E 14 b7 02 03
        E 14 b7 02 07
        E 14 b7 02 09
        E 14 b7 02 0c
        E 14 b7 02 07
        E 14 b7 02 05
        E 14 b7 02 03
        E 14 b7 02 08
        E 14 b7 02 09
        E 14 b7 02 0b
        E 14 b7 02 0c
        E 14 b7 02 06
        E 14 b7 02 08
        E 14 b7 02 08
        E 14 b7 02 06
        E 14 b7 02 0b
        E 14 b7 02 01
        E 14 b7 02 04
        E 14 b7 02 08
        E 3 b7 02 16
        E 3 b7 02 4c
        E 3 b7 02 32
        E 3 b7 02 07
        E 3 b7 02 48
        E 3 b7 02 3f
        E 3 b7 02 09
        E 3 b7 02 08
        E 3 b7 02 30
        E 3 b7 02 5f
        E 3 b7 02 50
        E 3 b7 02 58
        E 3 b7 02 3f
        E 3 b7 02 0b
        E 3 b7 02 13
        E 3 b7 02 44
        E 3 b7 02 37
        E 3 b7 02 1c
        E 3 b7 02 14
        E 3 b7 02 1b
        E 3 b7 02 4f
        E 3 b7 02 2f
        E 3 b7 02 17
        E 3 b7 02 3a
        E 3 b7 02 64
        E 3 b7 02 00
        E 3 b7 02 0c
        E 3 b7 02 29
        E 3 b7 02 22
        E 3 b7 02 53
        E 3 b7 02 15
        E 3 b7 02 06
        E 3 b7 02 0f
        E 3 b7 02 11
        E 3 b7 02 5b
        E 3 b7 02 19
        E 3 b7 02 00
        E 3 b7 02 4b
        E 3 b7 02 23
        E 3 b7 02 14
        E 3 b7 02 28
        E 3 b7 02 1a
        E 3 b7 02 56
        E 3 b7 02 55
        E 3 b7 02 65
        E 3 b7 02 54
        E 3 b7 02 2b
        E 3 b7 02 5e
        E 3 b7 02 48
        E 3 b7 02 0b
        E 3 b7 02 2c
        E 3 b7 02 36
        E 3 b7 02 60
        E 3 b7 02 4d
        E 3 b7 02 37
        E 3 b7 02 38
        E 3 b7 02 04
        E 3 b7 02 0a
        E 3 b7 02 5d
        E 3 b7 02 51
        E 3 b7 02 2b
        E 3 b7 02 1f
        E 3 b7 02 0d
        E 3 b7 02 2d
        E 3 b7 02 1e
        E 3 b7 02 18
        E 3 b7 02 26
        E 3 b7 02 34
        E 3 b7 02 3d
        E 3 b7 02 41
        E 3 b7 02 10
        E 3 b7 02 3c
        E 3 b7 02 5a
        E 3 b7 02 33
        E 3 b7 02 3b
        E 3 b7 02 02
        E 3 b7 02 07
        E 3 b7 02 63
        E 3 b7 02 42
        E 3 b7 02 12
        E 3 b7 02 5c
        E 3 b7 02 20
        E 3 b7 02 27
        E 3 b7 02 31
        E 3 b7 02 28
        E 3 b7 02 44
        E 3 b7 02 52
        E 3 b7 02 1d
        E 3 b7 02 39
        E 3 b7 02 17
        E 3 b7 02 5b
        E 3 b7 02 54
        E 3 b7 02 2e
        E 3 b7 02 24
        E 3 b7 02 50
        E 3 b7 02 25
        E 3 b7 02 47
        E 3 b7 02 0e
        E 3 b7 02 01
        E 3 b7 02 21
        E 3 b7 02 33
        E 3 b7 02 57
        E 3 b7 02 4e
        E 3 b7 02 03
        E 3 b7 02 57
        E 3 b7 02 4a
        E 3 b7 02 05
        E 3 b7 02 1f
        E 3 b7 02 3b
        E 3 b7 02 4c
        E 3 b7 02 61
        E 3 b7 02 3e
        E 3 b7 02 2a
        E 3 b7 02 1b
        E 3 b7 02 46
        E 3 b7 02 49
        E 3 b7 02 59
        E 3 b7 02 63
        E 3 b7 02 2f
        E 3 b7 02 40
        E 3 b7 02 45
        E 3 b7 02 35
        E 3 b7 02 5f
        E 3 b7 02 0f
        E 3 b7 02 24
        E 3 b7 02 43
        E 14 b7 02 16
        E 14 b7 02 4c
        E 14 b7 02 32
        E 14 b7 02 07
        E 14 b7 02 48
        E 14 b7 02 3f
        E 14 b7 02 09
        E 14 b7 02 08
        E 14 b7 02 30
        E 14 b7 02 5f
        E 14 b7 02 50
        E 14 b7 02 58
        E 14 b7 02 3f
        E 14 b7 02 0b
        E 14 b7 02 13
        E 14 b7 02 44
        E 14 b7 02 37
        E 14 b7 02 1c
        E 14 b7 02 14
        E 14 b7 02 1b
        E 14 b7 02 4f
        E 14 b7 02 2f
        E 14 b7 02 17
        E 14 b7 02 3a
        E 14 b7 02 64
        E 14 b7 02 00
        E 14 b7 02 0c
        E 14 b7 02 29
        E 14 b7 02 22
        E 14 b7 02 53
        E 14 b7 02 15
        E 14 b7 02 06
        E 14 b7 02 0f
        E 14 b7 02 11
        E 14 b7 02 5b
        E 14 b7 02 19
        E 14 b7 02 00
        E 14 b7 02 4b
        E 14 b7 02 23
        E 14 b7 02 14
        E 14 b7 02 28
        E 14 b7 02 1a
        E 14 b7 02 56
        E 14 b7 02 55
        E 14 b7 02 65
        E 14 b7 02 54
        E 14 b7 02 2b
        E 14 b7 02 5e
        E 14 b7 02 48
        E 14 b7 02 0b
        E 14 b7 02 2c
        E 14 b7 02 36
        E 14 b7 02 60
        E 14 b7 02 4d
        E 14 b7 02 37
        E 14 b7 02 38
        E 14 b7 02 04
        E 14 b7 02 0a
        E 14 b7 02 5d
        E 14 b7 02 51
        E 14 b7 02 2b
        E 14 b7 02 1f
        E 14 b7 02 0d
        E 14 b7 02 2d
        E 14 b7 02 1e
        E 14 b7 02 18
        E 14 b7 02 26
        E 14 b7 02 34
        E 14 b7 02 3d
        E 14 b7 02 41
        E 14 b7 02 10
        E 14 b7 02 3c
        E 14 b7 02 5a
        E 14 b7 02 33
        E 14 b7 02 3b
        E 14 b7 02 02
        E 14 b7 02 07
        E 14 b7 02 63
        E 14 b7 02 42
        E 14 b7 02 12
        E 14 b7 02 5c
        E 14 b7 02 20
        E 14 b7 02 27
        E 14 b7 02 31
        E 14 b7 02 28
        E 14 b7 02 44
        E 14 b7 02 52
        E 14 b7 02 1d
        E 14 b7 02 39
        E 14 b7 02 17
        E 14 b7 02 5b
        E 14 b7 02 54
        E 14 b7 02 2e
        E 14 b7 02 24
        E 14 b7 02 50
        E 14 b7 02 25
        E 14 b7 02 47
        E 14 b7 02 0e
        E 14 b7 02 01
        E 14 b7 02 21
        E 14 b7 02 33
        E 14 b7 02 57
        E 14 b7 02 4e
        E 14 b7 02 03
        E 14 b7 02 57
        E 14 b7 02 4a
        E 14 b7 02 05
        E 14 b7 02 1f
        E 14 b7 02 3b
        E 14 b7 02 4c
        E 14 b7 02 61
        E 14 b7 02 3e
        E 14 b7 02 2a
        E 14 b7 02 1b
        E 14 b7 02 46
        E 14 b7 02 49
        E 14 b7 02 59
        E 14 b7 02 63
        E 14 b7 02 2f
        E 14 b7 02 40
        E 14 b7 02 45
        E 14 b7 02 35
        E 14 b7 02 5f
        E 14 b7 02 0f
        E 14 b7 02 24
        E 14 b7 02 43
        E 7 b7 02 19
        E 7 b7 02 56
        E 7 b7 02 38
        E 7 b7 02 09
        E 7 b7 02 51
        E 7 b7 02 48
        E 7 b7 02 0a
        E 7 b7 02 09
        E 7 b7 02 36
        E 7 b7 02 6c
        E 7 b7 02 5a
        E 7 b7 02 63
        E 7 b7 02 47
        E 7 b7 02 0c
        E 7 b7 02 15
        E 7 b7 02 4d
        E 7 b7 02 3f
        E 7 b7 02 20
        E 7 b7 02 16
        E 7 b7 02 1e
        E 7 b7 02 59
        E 7 b7 02 35
        E 7 b7 02 1b
        E 7 b7 02 41
        E 7 b7 02 71
        E 7 b7 02 00
        E 7 b7 02 0e
        E 7 b7 02 2e
        E 7 b7 02 26
        E 7 b7 02 5d
        E 7 b7 02 18
        E 7 b7 02 07
        E 7 b7 02 12
        E 7 b7 02 13
        E 7 b7 02 67
        E 7 b7 02 1c
        E 7 b7 02 00
        E 7 b7 02 54
        E 7 b7 02 27
        E 7 b7 02 17
        E 7 b7 02 2d
        E 7 b7 02 1d
        E 7 b7 02 61
        E 7 b7 02 60
        E 7 b7 02 72
        E 7 b7 02 5f
        E 7 b7 02 31
        E 7 b7 02 6a
        E 7 b7 02 51
        E 7 b7 02 0d
        E 7 b7 02 32
        E 7 b7 02 3d
        E 7 b7 02 6c
        E 7 b7 02 57
        E 7 b7 02 3e
        E 7 b7 02 3f
        E 7 b7 02 05
        E 7 b7 02 0b
        E 7 b7 02 69
        E 7 b7 02 5b
        E 7 b7 02 30
        E 7 b7 02 24
        E 7 b7 02 0f
        E 7 b7 02 33
        E 7 b7 02 22
        E 7 b7 02 1b
        E 7 b7 02 2b
        E 7 b7 02 3b
        E 7 b7 02 45
        E 7 b7 02 49
        E 7 b7 02 12
        E 7 b7 02 44
        E 7 b7 02 65
        E 7 b7 02 3a
        E 7 b7 02 42
        E 7 b7 02 02
        E 7 b7 02 08
        E 7 b7 02 70
        E 7 b7 02 4a
        E 7 b7 02 14
        E 7 b7 02 68
        E 7 b7 02 24
        E 7 b7 02 2c
        E 7 b7 02 37
        E 7 b7 02 2d
        E 7 b7 02 4c
        E 7 b7 02 5c
        E 7 b7 02 21
        E 7 b7 02 40
        E 7 b7 02 1a
        E 7 b7 02 66
        E 7 b7 02 5e
        E 7 b7 02 34
        E 7 b7 02 29
        E 7 b7 02 5a
        E 7 b7 02 2a
        E 7 b7 02 50
        E 7 b7 02 10
        E 7 b7 02 01
        E 7 b7 02 25
        E 7 b7 02 39
        E 7 b7 02 62
        E 7 b7 02 58
        E 7 b7 02 03
        E 7 b7 02 63
        E 7 b7 02 53
        E 7 b7 02 06
        E 7 b7 02 23
        E 7 b7 02 43
        E 7 b7 02 55
        E 7 b7 02 6d
        E 7 b7 02 46
        E 7 b7 02 2f
        E 7 b7 02 1f
        E 7 b7 02 4f
        E 7 b7 02 52
        E 7 b7 02 64
        E 7 b7 02 6f
        E 7 b7 02 36
        E 7 b7 02 48
        E 7 b7 02 4e
        E 7 b7 02 3c
        E 7 b7 02 6b
        E 7 b7 02 11
        E 7 b7 02 28
        E 7 b7 02 4b
        E 14 b7 02 02
        E 14 b7 02 09
        E 14 b7 02 06
        E 14 b7 02 01
        E 14 b7 02 09
        E 14 b7 02 08
        E 14 b7 02 01
        E 14 b7 02 01
        E 14 b7 02 06
        E 14 b7 02 0c
        E 14 b7 02 0a
        E 14 b7 02 0b
        E 14 b7 02 07
        E 14 b7 02 01
        E 14 b7 02 02
        E 14 b7 02 08
        E 14 b7 02 07
        E 14 b7 02 03
        E 14 b7 02 02
        E 14 b7 02 03
        E 14 b7 02 09
        E 14 b7 02 05
        E 14 b7 02 03
        E 14 b7 02 07
        E 14 b7 02 0c
        E 14 b7 02 00
        E 14 b7 02 01
        E 14 b7 02 05
        E 14 b7 02 04
        E 14 b7 02 0a
        E 14 b7 02 02
        E 14 b7 02 00
        E 14 b7 02 02
        E 14 b7 02 02
        E 14 b7 02 0b
        E 14 b7 02 03
        E 14 b7 02 00
        E 14 b7 02 09
        E 14 b7 02 04
        E 14 b7 02 02
        E 14 b7 02 05
        E 14 b7 02 03
        E 14 b7 02 0a
        E 14 b7 02 0a
        E 14 b7 02 0c
        E 14 b7 02 0a
        E 14 b7 02 05
        E 14 b7 02 0b
        E 14 b7 02 09
        E 14 b7 02 01
        E 14 b7 02 05
        E 14 b7 02 06
        E 14 b7 02 0c
        E 14 b7 02 09
        E 14 b7 02 06
        E 14 b7 02 07
        E 14 b7 02 00
        E 14 b7 02 01
        E 14 b7 02 0b
        E 14 b7 02 0a
        E 14 b7 02 05
        E 14 b7 02 04
        E 14 b7 02 01
        E 14 b7 02 05
        E 14 b7 02 03
        E 14 b7 02 03
        E 14 b7 02 04
        E 14 b7 02 06
        E 14 b7 02 07
        E 14 b7 02 08
        E 14 b7 02 02
        E 14 b7 02 07
        E 14 b7 02 0b
        E 14 b7 02 06
        E 14 b7 02 07
        E 14 b7 02 00
        E 14 b7 02 00
        E 14 b7 02 0c
        E 14 b7 02 08
        E 14 b7 02 02
        E 14 b7 02 0b
        E 14 b7 02 04
        E 14 b7 02 04
        E 14 b7 02 06
        E 14 b7 02 05
        E 14 b7 02 08
        E 14 b7 02 0a
        E 14 b7 02 03
        E 14 b7 02 07
        E 14 b7 02 02
        E 14 b7 02 0b
        E 14 b7 02 0a
        E 14 b7 02 05
        E 14 b7 02 04
        E 14 b7 02 0a
        E 14 b7 02 04
        E 14 b7 02 08
        E 14 b7 02 01
        E 14 b7 02 00
        E 14 b7 02 04
        E 14 b7 02 06
        E 14 b7 02 0a
        E 14 b7 02 09
        E 14 b7 02 00
        E 14 b7 02 0b
        E 14 b7 02 09
        E 14 b7 02 00
        E 14 b7 02 03
        E 14 b7 02 07
        E 14 b7 02 09
        E 14 b7 02 0c
        E 14 b7 02 07
        E 14 b7 02 05
        E 14 b7 02 03
        E 14 b7 02 08
        E 14 b7 02 09
        E 14 b7 02 0b
        E 14 b7 02 0c
        E 14 b7 02 06
        E 14 b7 02 08
        E 14 b7 02 08
        E 14 b7 02 06
        E 14 b7 02 0b
        E 14 b7 02 01
        E 14 b7 02 04
        E 14 b7 02 08
        E 3 b7 02 16
        E 3 b7 02 4c
        E 3 b7 02 32
        E 3 b7 02 07
        E 3 b7 02 48
        E 3 b7 02 3f
        E 3 b7 02 09
        E 3 b7 02 08
        E 3 b7 02 30
        E 3 b7 02 5f
        E 3 b7 02 50
        E 3 b7 02 58
        E 3 b7 02 3f
        E 3 b7 02 0b
        E 3 b7 02 13
        E 3 b7 02 44
        E 3 b7 02 37
        E 3 b7 02 1c
        E 3 b7 02 14
        E 3 b7 02 1b
        E 3 b7 02 4f
        E 3 b7 02 2f
        E 3 b7 02 17
        E 3 b7 02 3a
        E 3 b7 02 64
        E 3 b7 02 00
        E 3 b7 02 0c
        E 3 b7 02 29
        E 3 b7 02 22
        E 3 b7 02 53
        E 3 b7 02 15
        E 3 b7 02 06
        E 3 b7 02 0f
        E 3 b7 02 11
        E 3 b7 02 5b
        E 3 b7 02 19
        E 3 b7 02 00
        E 3 b7 02 4b
        E 3 b7 02 23
        E 3 b7 02 14
        E 3 b7 02 28
        E 3 b7 02 1a
        E 3 b7 02 56
        E 3 b7 02 55
        E 3 b7 02 65
        E 3 b7 02 54
        E 3 b7 02 2b
        E 3 b7 02 5e
        E 3 b7 02 48
        E 3 b7 02 0b
        E 3 b7 02 2c
        E 3 b7 02 36
        E 3 b7 02 60
        E 3 b7 02 4d
        E 3 b7 02 37
        E 3 b7 02 38
        E 3 b7 02 04
        E 3 b7 02 0a
        E 3 b7 02 5d
        E 3 b7 02 51
        E 3 b7 02 2b
        E 3 b7 02 1f
        E 3 b7 02 0d
        E 3 b7 02 2d
        E 3 b7 02 1e
        E 3 b7 02 18
        E 3 b7 02 26
        E 3 b7 02 34
        E 3 b7 02 3d
        E 3 b7 02 41
        E 3 b7 02 10
        E 3 b7 02 3c
        E 3 b7 02 5a
        E 3 b7 02 33
        E 3 b7 02 3b
        E 3 b7 02 02
        E 3 b7 02 07
        E 3 b7 02 63
        E 3 b7 02 42
        E 3 b7 02 12
        E 3 b7 02 5c
        E 3 b7 02 20
        E 3 b7 02 27
        E 3 b7 02 31
        E 3 b7 02 28
        E 3 b7 02 44
        E 3 b7 02 52
        E 3 b7 02 1d
        E 3 b7 02 39
        E 3 b7 02 17
        E 3 b7 02 5b
        E 3 b7 02 54
        E 3 b7 02 2e
        E 3 b7 02 24
        E 3 b7 02 50
        E 3 b7 02 25
        E 3 b7 02 47
        E 3 b7 02 0e
        E 3 b7 02 01
        E 3 b7 02 21
        E 3 b7 02 33
        E 3 b7 02 57
        E 3 b7 02 4e
        E 3 b7 02 03
        E 3 b7 02 57
        E 3 b7 02 4a
        E 3 b7 02 05
        E 3 b7 02 1f
        E 3 b7 02 3b
        E 3 b7 02 4c
        E 3 b7 02 61
        E 3 b7 02 3e
        E 3 b7 02 2a
        E 3 b7 02 1b
        E 3 b7 02 46
        E 3 b7 02 49
        E 3 b7 02 59
        E 3 b7 02 63
        E 3 b7 02 2f
        E 3 b7 02 40
        E 3 b7 02 45
        E 3 b7 02 35
        E 3 b7 02 5f
        E 3 b7 02 0f
        E 3 b7 02 24
        E 3 b7 02 43
        E 14 b7 02 16
        E 14 b7 02 4c
        E 14 b7 02 32
        E 14 b7 02 07
        E 14 b7 02 48
        E 14 b7 02 3f
        E 14 b7 02 09
        E 14 b7 02 08
        E 14 b7 02 30
        E 14 b7 02 5f
        E 14 b7 02 50
        E 14 b7 02 58
        E 14 b7 02 3f
        E 14 b7 02 0b
        E 14 b7 02 13
        E 14 b7 02 44
        E 14 b7 02 37
        E 14 b7 02 1c
        E 14 b7 02 14
        E 14 b7 02 1b
        E 14 b7 02 4f
        E 14 b7 02 2f
        E 14 b7 02 17
        E 14 b7 02 3a
        E 14 b7 02 64
        E 14 b7 02 00
        E 14 b7 02 0c
        E 14 b7 02 29
        E 14 b7 02 22
        E 14 b7 02 53
        E 14 b7 02 15
        E 14 b7 02 06
        E 14 b7 02 0f
        E 14 b7 02 11
        E 14 b7 02 5b
        E 14 b7 02 19
        E 14 b7 02 00
        E 14 b7 02 4b
        E 14 b7 02 23
        E 14 b7 02 14
        E 14 b7 02 28
        E 14 b7 02 1a
        E 14 b7 02 56
        E 14 b7 02 55
        E 14 b7 02 65
        E 14 b7 02 54
        E 14 b7 02 2b
        E 14 b7 02 5e
        E 14 b7 02 48
        E 14 b7 02 0b
        E 14 b7 02 2c
        E 14 b7 02 36
        E 14 b7 02 60
        E 14 b7 02 4d
        E 14 b7 02 37
        E 14 b7 02 38
        E 14 b7 02 04
        E 14 b7 02 0a
        E 14 b7 02 5d
        E 14 b7 02 51
        E 14 b7 02 2b
        E 14 b7 02 1f
        E 14 b7 02 0d
        E 14 b7 02 2d
        E 14 b7 02 1e
        E 14 b7 02 18
        E 14 b7 02 26
        E 14 b7 02 34
        E 14 b7 02 3d
        E 14 b7 02 41
        E 14 b7 02 10
        E 14 b7 02 3c
        E 14 b7 02 5a
        E 14 b7 02 33
        E 14 b7 02 3b
        E 14 b7 02 02
        E 14 b7 02 07
        E 14 b7 02 63
        E 14 b7 02 42
        E 14 b7 02 12
        E 14 b7 02 5c
        E 14 b7 02 20
        E 14 b7 02 27
        E 14 b7 02 31
        E 14 b7 02 28
        E 14 b7 02 44
        E 14 b7 02 52
        E 14 b7 02 1d
        E 14 b7 02 39
        E 14 b7 02 17
        E 14 b7 02 5b
        E 14 b7 02 54
        E 14 b7 02 2e
        E 14 b7 02 24
        E 14 b7 02 50
        E 14 b7 02 25
        E 14 b7 02 47
        E 14 b7 02 0e
        E 14 b7 02 01
        E 14 b7 02 21
        E 14 b7 02 33
        E 14 b7 02 57
        E 14 b7 02 4e
        E 14 b7 02 03
        E 14 b7 02 57
        E 14 b7 02 4a
        E 14 b7 02 05
        E 14 b7 02 1f
        E 14 b7 02 3b
        E 14 b7 02 4c
        E 14 b7 02 61
        E 14 b7 02 3e
        E 14 b7 02 2a
        E 14 b7 02 1b
        E 14 b7 02 46
        E 14 b7 02 49
        E 14 b7 02 59
        E 14 b7 02 63
        E 14 b7 02 2f
        E 14 b7 02 40
        E 14 b7 02 45
        E 14 b7 02 35
        E 14 b7 02 5f
        E 14 b7 02 0f
        E 14 b7 02 24
        E 14 b7 02 43
        E 7 b7 02 19
        E 7 b7 02 56
        E 7 b7 02 38
        E 7 b7 02 09
        E 7 b7 02 51
        E 7 b7 02 48
        E 7 b7 02 0a
        E 7 b7 02 09
        E 7 b7 02 36
        E 7 b7 02 6c
        E 7 b7 02 5a
        E 7 b7 02 63
        E 7 b7 02 47
        E 7 b7 02 0c
        E 7 b7 02 15
        E 7 b7 02 4d
        E 7 b7 02 3f
        E 7 b7 02 20
        E 7 b7 02 16
        E 7 b7 02 1e
        E 7 b7 02 59
        E 7 b7 02 35
        E 7 b7 02 1b
        E 7 b7 02 41
        E 7 b7 02 71
        E 7 b7 02 00
        E 7 b7 02 0e
        E 7 b7 02 2e
        E 7 b7 02 26
        E 7 b7 02 5d
        E 7 b7 02 18
        E 7 b7 02 07
        E 7 b7 02 12
        E 7 b7 02 13
        E 7 b7 02 67
        E 7 b7 02 1c
        E 7 b7 02 00
        E 7 b7 02 54
        E 7 b7 02 27
        E 7 b7 02 17
        E 7 b7 02 2d
        E 7 b7 02 1d
        E 7 b7 02 61
        E 7 b7 02 60
        E 7 b7 02 72
        E 7 b7 02 5f
        E 7 b7 02 31
        E 7 b7 02 6a
        E 7 b7 02 51
        E 7 b7 02 0d
        E 7 b7 02 32
        E 7 b7 02 3d
        E 7 b7 02 6c
        E 7 b7 02 57
        E 7 b7 02 3e
        E 7 b7 02 3f
        E 7 b7 02 05
        E 7 b7 02 0b
        E 7 b7 02 69
        E 7 b7 02 5b
        E 7 b7 02 30
        E 7 b7 02 24
        E 7 b7 02 0f
        E 7 b7 02 33
        E 7 b7 02 22
        E 7 b7 02 1b
        E 7 b7 02 2b
        E 7 b7 02 3b
        E 7 b7 02 45
        E 7 b7 02 49
        E 7 b7 02 12
        E 7 b7 02 44
        E 7 b7 02 65
        E 7 b7 02 3a
        E 7 b7 02 42
        E 7 b7 02 02
        E 7 b7 02 08
        E 7 b7 02 70
        E 7 b7 02 4a
        E 7 b7 02 14
        E 7 b7 02 68
        E 7 b7 02 24
        E 7 b7 02 2c
        E 7 b7 02 37
        E 7 b7 02 2d
        E 7 b7 02 4c
        E 7 b7 02 5c
        E 7 b7 02 21
        E 7 b7 02 40
        E 7 b7 02 1a
        E 7 b7 02 66
        E 7 b7 02 5e
        E 7 b7 02 34
        E 7 b7 02 29
        E 7 b7 02 5a
        E 7 b7 02 2a
        E 7 b7 02 50
        E 7 b7 02 10
        E 7 b7 02 01
        E 7 b7 02 25
        E 7 b7 02 39
        E 7 b7 02 62
        E 7 b7 02 58
        E 7 b7 02 03
        E 7 b7 02 63
        E 7 b7 02 53
        E 7 b7 02 06
        E 7 b7 02 23
        E 7 b7 02 43
        E 7 b7 02 55
        E 7 b7 02 6d
        E 7 b7 02 46
        E 7 b7 02 2f
        E 7 b7 02 1f
        E 7 b7 02 4f
        E 7 b7 02 52
        E 7 b7 02 64
        E 7 b7 02 6f
        E 7 b7 02 36
        E 7 b7 02 48
        E 7 b7 02 4e
        E 7 b7 02 3c
        E 7 b7 02 6b
        E 7 b7 02 11
        E 7 b7 02 28
        E 7 b7 02 4b
        E 14 b7 02 02
        E 14 b7 02 09
        E 14 b7 02 06
        E 14 b7 02 01
        E 14 b7 02 09
        E 14 b7 02 08
        E 14 b7 02 01
        E 14 b7 02 01
        E 14 b7 02 06
        E 14 b7 02 0c
        E 14 b7 02 0a
        E 14 b7 02 0b
        E 14 b7 02 07
        E 14 b7 02 01
        E 14 b7 02 02
        E 14 b7 02 08
        E 14 b7 02 07
        E 14 b7 02 03
        E 14 b7 02 02
        E 14 b7 02 03
        E 14 b7 02 09
        E 14 b7 02 05
        E 14 b7 02 03
        E 14 b7 02 07
        E 14 b7 02 0c
        E 14 b7 02 00
        E 14 b7 02 01
        E 14 b7 02 05
        E 14 b7 02 04
        E 14 b7 02 0a
        E 14 b7 02 02
        E 14 b7 02 00
        E 14 b7 02 02
        E 14 b7 02 02
        E 14 b7 02 0b
        E 14 b7 02 03
        E 14 b7 02 00
        E 14 b7 02 09
        E 14 b7 02 04
        E 14 b7 02 02
        E 14 b7 02 05
        E 14 b7 02 03
        E 14 b7 02 0a
        E 14 b7 02 0a
        E 14 b7 02 0c
        E 14 b7 02 0a
        E 14 b7 02 05
        E 14 b7 02 0b
        E 14 b7 02 09
        E 14 b7 02 01
        E 14 b7 02 05
        E 14 b7 02 06
        E 14 b7 02 0c
        E 14 b7 02 09
        E 14 b7 02 06
        E 14 b7 02 07
        E 14 b7 02 00
        E 14 b7 02 01
        E 14 b7 02 0b
        E 14 b7 02 0a
        E 14 b7 02 05
        E 14 b7 02 04
        E 14 b7 02 01
        E 14 b7 02 05
        E 14 b7 02 03
        E 14 b7 02 03
        E 14 b7 02 04
        E 14 b7 02 06
        E 14 b7 02 07
        E 14 b7 02 08
        E 14 b7 02 02
        E 14 b7 02 07
        E 14 b7 02 0b
        E 14 b7 02 06
        E 14 b7 02 07
        E 14 b7 02 00
        E 14 b7 02 00
        E 14 b7 02 0c
        E 14 b7 02 08
        E 14 b7 02 02
        E 14 b7 02 0b
        E 14 b7 02 04
        E 14 b7 02 04
        E 14 b7 02 06
        E 14 b7 02 05
        E 14 b7 02 08
        E 14 b7 02 0a
        E 14 b7 02 03
        E 14 b7 02 07
        E 14 b7 02 02
        E 14 b7 02 0b
        E 14 b7 02 0a
        E 14 b7 02 05
        E 14 b7 02 04
        E 14 b7 02 0a
        E 14 b7 02 04
        E 14 b7 02 08
        E 14 b7 02 01
        E 14 b7 02 00
        E 14 b7 02 04
        E 14 b7 02 06
        E 14 b7 02 0a
        E 14 b7 02 09
        E 14 b7 02 00
        E 14 b7 02 0b
        E 14 b7 02 09
        E 14 b7 02 00
        E 14 b7 02 03
        E 14 b7 02 07
        E 14 b7 02 09
        E 14 b7 02 0c
        E 14 b7 02 07
        E 14 b7 02 05
        E 14 b7 02 03
        E 14 b7 02 08
        E 14 b7 02 09
        E 14 b7 02 0b
        E 14 b7 02 0c
        E 14 b7 02 06
        E 14 b7 02 08
        E 14 b7 02 08
        E 14 b7 02 06
        E 14 b7 02 0b
        E 14 b7 02 01
        E 14 b7 02 04
        E 14 b7 02 08
        E 3 b7 02 16
        E 3 b7 02 4c
        E 3 b7 02 32
        E 3 b7 02 07
        E 3 b7 02 48
        E 3 b7 02 3f
        E 3 b7 02 09
        E 3 b7 02 08
        E 3 b7 02 30
        E 3 b7 02 5f
        E 3 b7 02 50
        E 3 b7 02 58
        E 3 b7 02 3f
        E 3 b7 02 0b
        E 3 b7 02 13
        E 3 b7 02 44
        E 3 b7 02 37
        E 3 b7 02 1c
        E 3 b7 02 14
        E 3 b7 02 1b
        E 3 b7 02 4f
        E 3 b7 02 2f
        E 3 b7 02 17
        E 3 b7 02 3a
        E 3 b7 02 64
        E 3 b7 02 00
        E 3 b7 02 0c
        E 3 b7 02 29
        E 3 b7 02 22
        E 3 b7 02 53
        E 3 b7 02 15
        E 3 b7 02 06
        E 3 b7 02 0f
        E 3 b7 02 11
        E 3 b7 02 5b
        E 3 b7 02 19
        E 3 b7 02 00
        E 3 b7 02 4b
        E 3 b7 02 23
        E 3 b7 02 14
        E 3 b7 02 28
        E 3 b7 02 1a
        E 3 b7 02 56
        E 3 b7 02 55
        E 3 b7 02 65
        E 3 b7 02 54
        E 3 b7 02 2b
        E 3 b7 02 5e
        E 3 b7 02 48
        E 3 b7 02 0b
        E 3 b7 02 2c
        E 3 b7 02 36
        E 3 b7 02 60
        E 3 b7 02 4d
        E 3 b7 02 37
        E 3 b7 02 38
        E 3 b7 02 04
        E 3 b7 02 0a
        E 3 b7 02 5d
        E 3 b7 02 51
        E 3 b7 02 2b
        E 3 b7 02 1f
        E 3 b7 02 0d
        E 3 b7 02 2d
        E 3 b7 02 1e
        E 3 b7 02 18
        E 3 b7 02 26
        E 3 b7 02 34
        E 3 b7 02 3d
        E 3 b7 02 41
        E 3 b7 02 10
        E 3 b7 02 3c
        E 3 b7 02 5a
        E 3 b7 02 33
        E 3 b7 02 3b
        E 3 b7 02 02
        E 3 b7 02 07
        E 3 b7 02 63
        E 3 b7 02 42
        E 3 b7 02 12
        E 3 b7 02 5c
        E 3 b7 02 20
        E 3 b7 02 27
        E 3 b7 02 31
        E 3 b7 02 28
        E 3 b7 02 44
        E 3 b7 02 52
        E 3 b7 02 1d
        E 3 b7 02 39
        E 3 b7 02 17
        E 3 b7 02 5b
        E 3 b7 02 54
        E 3 b7 02 2e
        E 3 b7 02 24
        E 3 b7 02 50
        E 3 b7 02 25
        E 3 b7 02 47
        E 3 b7 02 0e
        E 3 b7 02 01
        E 3 b7 02 21
        E 3 b7 02 33
        E 3 b7 02 57
        E 3 b7 02 4e
        E 3 b7 02 03
        E 3 b7 02 57
        E 3 b7 02 4a
        E 3 b7 02 05
        E 3 b7 02 1f
        E 3 b7 02 3b
        E 3 b7 02 4c
        E 3 b7 02 61
        E 3 b7 02 3e
        E 3 b7 02 2a
        E 3 b7 02 1b
        E 3 b7 02 46
        E 3 b7 02 49
        E 3 b7 02 59
        E 3 b7 02 63
        E 3 b7 02 2f
        E 3 b7 02 40
        E 3 b7 02 45
        E 3 b7 02 35
        E 3 b7 02 5f
        E 3 b7 02 0f
        E 3 b7 02 24
        E 3 b7 02 43
        E 14 b7 02 16
        E 14 b7 02 4c
        E 14 b7 02 32
        E 14 b7 02 07
        E 14 b7 02 48
        E 14 b7 02 3f
        E 14 b7 02 09
        E 14 b7 02 08
        E 14 b7 02 30
        E 14 b7 02 5f
        E 14 b7 02 50
        E 14 b7 02 58
        E 14 b7 02 3f
        E 14 b7 02 0b
        E 14 b7 02 13
        E 14 b7 02 44
        E 14 b7 02 37
        E 14 b7 02 1c
        E 14 b7 02 14
        E 14 b7 02 1b
        E 14 b7 02 4f
        E 14 b7 02 2f
        E 14 b7 02 17
        E 14 b7 02 3a
        E 14 b7 02 64
        E 14 b7 02 00
        E 14 b7 02 0c
        E 14 b7 02 29
        E 14 b7 02 22
        E 14 b7 02 53
        E 14 b7 02 15
        E 14 b7 02 06
        E 14 b7 02 0f
        E 14 b7 02 11
        E 14 b7 02 5b
        E 14 b7 02 19
        E 14 b7 02 00
        E 14 b7 02 4b
        E 14 b7 02 23
        E 14 b7 02 14
        E 14 b7 02 28
        E 14 b7 02 1a
        E 14 b7 02 56
        E 14 b7 02 55
        E 14 b7 02 65
        E 14 b7 02 54
        E 14 b7 02 2b
        E 14 b7 02 5e
        E 14 b7 02 48
        E 14 b7 02 0b
        E 14 b7 02 2c
        E 14 b7 02 36
        E 14 b7 02 60
        E 14 b7 02 4d
        E 14 b7 02 37
        E 14 b7 02 38
        E 14 b7 02 04
        E 14 b7 02 0a
        E 14 b7 02 5d
        E 14 b7 02 51
        E 14 b7 02 2b
        E 14 b7 02 1f
        E 14 b7 02 0d
        E 14 b7 02 2d
        E 14 b7 02 1e
        E 14 b7 02 18
        E 14 b7 02 26
        E 14 b7 02 34
        E 14 b7 02 3d
        E 14 b7 02 41
        E 14 b7 02 10
        E 14 b7 02 3c
        E 14 b7 02 5a
        E 14 b7 02 33
        E 14 b7 02 3b
        E 14 b7 02 02
        E 14 b7 02 07
        E 14 b7 02 63
        E 14 b7 02 42
        E 14 b7 02 12
        E 14 b7 02 5c
        E 14 b7 02 20
        E 14 b7 02 27
        E 14 b7 02 31
        E 14 b7 02 28
        E 14 b7 02 44
        E 14 b7 02 52
        E 14 b7 02 1d
        E 14 b7 02 39
        E 14 b7 02 17
        E 14 b7 02 5b
        E 14 b7 02 54
        E 14 b7 02 2e
        E 14 b7 02 24
        E 14 b7 02 50
        E 14 b7 02 25
        E 14 b7 02 47
        E 14 b7 02 0e
        E 14 b7 02 01
        E 14 b7 02 21
        E 14 b7 02 33
        E 14 b7 02 57
        E 14 b7 02 4e
        E 14 b7 02 03
        E 14 b7 02 57
        E 14 b7 02 4a
        E 14 b7 02 05
        E 14 b7 02 1f
        E 14 b7 02 3b
        E 14 b7 02 4c
        E 14 b7 02 61
        E 14 b7 02 3e
        E 14 b7 02 2a
        E 14 b7 02 1b
        E 14 b7 02 46
        E 14 b7 02 49
        E 14 b7 02 59
        E 14 b7 02 63
        E 14 b7 02 2f
        E 14 b7 02 40
        E 14 b7 02 45
        E 14 b7 02 35
        E 14 b7 02 5f
        E 14 b7 02 0f
        E 14 b7 02 24
        E 14 b7 02 43
        E 7 b7 02 19
        E 7 b7 02 56
        E 7 b7 02 38
        E 7 b7 02 09
        E 7 b7 02 51
        E 7 b7 02 48
        E 7 b7 02 0a
        E 7 b7 02 09
        E 7 b7 02 36
        E 7 b7 02 6c
        E 7 b7 02 5a
        E 7 b7 02 63
        E 7 b7 02 47
        E 7 b7 02 0c
        E 7 b7 02 15
        E 7 b7 02 4d
        E 7 b7 02 3f
        E 7 b7 02 20
        E 7 b7 02 16
        E 7 b7 02 1e
        E 7 b7 02 59
        E 7 b7 02 35
        E 7 b7 02 1b
        E 7 b7 02 41
        E 7 b7 02 71
        E 7 b7 02 00
        E 7 b7 02 0e
        E 7 b7 02 2e
        E 7 b7 02 26
        E 7 b7 02 5d
        E 7 b7 02 18
        E 7 b7 02 07
        E 7 b7 02 12
        E 7 b7 02 13
        E 7 b7 02 67
        E 7 b7 02 1c
        E 7 b7 02 00
        E 7 b7 02 54
        E 7 b7 02 27
        E 7 b7 02 17
        E 7 b7 02 2d
        E 7 b7 02 1d
        E 7 b7 02 61
        E 7 b7 02 60
        E 7 b7 02 72
        E 7 b7 02 5f
        E 7 b7 02 31
        E 7 b7 02 6a
        E 7 b7 02 51
        E 7 b7 02 0d
        E 7 b7 02 32
        E 7 b7 02 3d
        E 7 b7 02 6c
        E 7 b7 02 57
        E 7 b7 02 3e
        E 7 b7 02 3f
        E 7 b7 02 05
        E 7 b7 02 0b
        E 7 b7 02 69
        E 7 b7 02 5b
        E 7 b7 02 30
        E 7 b7 02 24
        E 7 b7 02 0f
        E 7 b7 02 33
        E 7 b7 02 22
        E 7 b7 02 1b
        E 7 b7 02 2b
        E 7 b7 02 3b
        E 7 b7 02 45
        E 7 b7 02 49
        E 7 b7 02 12
        E 7 b7 02 44
        E 7 b7 02 65
        E 7 b7 02 3a
        E 7 b7 02 42
        E 7 b7 02 02
        E 7 b7 02 08
        E 7 b7 02 70
        E 7 b7 02 4a
        E 7 b7 02 14
        E 7 b7 02 68
        E 7 b7 02 24
        E 7 b7 02 2c
        E 7 b7 02 37
        E 7 b7 02 2d
        E 7 b7 02 4c
        E 7 b7 02 5c
        E 7 b7 02 21
        E 7 b7 02 40
        E 7 b7 02 1a
        E 7 b7 02 66
        E 7 b7 02 5e
        E 7 b7 02 34
        E 7 b7 02 29
        E 7 b7 02 5a
        E 7 b7 02 2a
        E 7 b7 02 50
        E 7 b7 02 10
        E 7 b7 02 01
        E 7 b7 02 25
        E 7 b7 02 39
        E 7 b7 02 62
        E 7 b7 02 58
        E 7 b7 02 03
        E 7 b7 02 63
        E 7 b7 02 53
        E 7 b7 02 06
        E 7 b7 02 23
        E 7 b7 02 43
        E 7 b7 02 55
        E 7 b7 02 6d
        E 7 b7 02 46
        E 7 b7 02 2f
        E 7 b7 02 1f
        E 7 b7 02 4f
        E 7 b7 02 52
        E 7 b7 02 64
        E 7 b7 02 6f
        E 7 b7 02 36
        E 7 b7 02 48
        E 7 b7 02 4e
        E 7 b7 02 3c
        E 7 b7 02 6b
        E 7 b7 02 11
        E 7 b7 02 28
        E 7 b7 02 4b
        E 14 b7 02 02
        E 14 b7 02 09
        E 14 b7 02 06
        E 14 b7 02 01
        E 14 b7 02 09
        E 14 b7 02 08
        E 14 b7 02 01
        E 14 b7 02 01
        E 14 b7 02 06
        E 14 b7 02 0c
        E 14 b7 02 0a
        E 14 b7 02 0b
        E 14 b7 02 07
        E 14 b7 02 01
        E 14 b7 02 02
        E 14 b7 02 08
        E 14 b7 02 07
        E 14 b7 02 03
        E 14 b7 02 02
        E 14 b7 02 03
        E 14 b7 02 09
        E 14 b7 02 05
        E 14 b7 02 03
        E 14 b7 02 07
        E 14 b7 02 0c
        E 14 b7 02 00
        E 14 b7 02 01
        E 14 b7 02 05
        E 14 b7 02 04
        E 14 b7 02 0a
        E 14 b7 02 02
        E 14 b7 02 00
        E 14 b7 02 02
        E 14 b7 02 02
        E 14 b7 02 0b
        E 14 b7 02 03
        E 14 b7 02 00
        E 14 b7 02 09
        E 14 b7 02 04
        E 14 b7 02 02
        E 14 b7 02 05
        E 14 b7 02 03
        E 14 b7 02 0a
        E 14 b7 02 0a
        E 14 b7 02 0c
        E 14 b7 02 0a
        E 14 b7 02 05
        E 14 b7 02 0b
        E 14 b7 02 09
        E 14 b7 02 01
        E 14 b7 02 05
        E 14 b7 02 06
        E 14 b7 02 0c
        E 14 b7 02 09
        E 14 b7 02 06
        E 14 b7 02 07
        E 14 b7 02 00
        E 14 b7 02 01
        E 14 b7 02 0b
        E 14 b7 02 0a
        E 14 b7 02 05
        E 14 b7 02 04
        E 14 b7 02 01
        E 14 b7 02 05
        E 14 b7 02 03
        E 14 b7 02 03
        E 14 b7 02 04
        E 14 b7 02 06
        E 14 b7 02 07
        E 14 b7 02 08
        E 14 b7 02 02
        E 14 b7 02 07
        E 14 b7 02 0b
        E 14 b7 02 06
        E 14 b7 02 07
        E 14 b7 02 00
        E 14 b7 02 00
        E 14 b7 02 0c
        E 14 b7 02 08
        E 14 b7 02 02
        E 14 b7 02 0b
        E 14 b7 02 04
        E 14 b7 02 04
        E 14 b7 02 06
        E 14 b7 02 05
        E 14 b7 02 08
        E 14 b7 02 0a
        E 14 b7 02 03
        E 14 b7 02 07
        E 14 b7 02 02
        E 14 b7 02 0b
        E 14 b7 02 0a
        E 14 b7 02 05
        E 14 b7 02 04
        E 14 b7 02 0a
        E 14 b7 02 04
        E 14 b7 02 08
        E 14 b7 02 01
        E 14 b7 02 00
        E 14 b7 02 04
        E 14 b7 02 06
        E 14 b7 02 0a
        E 14 b7 02 09
        E 14 b7 02 00
        E 14 b7 02 0b
        E 14 b7 02 09
        E 14 b7 02 00
        E 14 b7 02 03
        E 14 b7 02 07
        E 14 b7 02 09
        E 14 b7 02 0c
        E 14 b7 02 07
        E 14 b7 02 05
        E 14 b7 02 03
        E 14 b7 02 08
        E 14 b7 02 09
        E 14 b7 02 0b
        E 14 b7 02 0c
        E 14 b7 02 06
        E 14 b7 02 08
        E 14 b7 02 08
        E 14 b7 02 06
        E 14 b7 02 0b
        E 14 b7 02 01
        E 14 b7 02 04
        E 14 b7 02 08
        E 3 b7 02 16
        E 3 b7 02 4c
        E 3 b7 02 32
        E 3 b7 02 07
        E 3 b7 02 48
        E 3 b7 02 3f
        E 3 b7 02 09
        E 3 b7 02 08
        E 3 b7 02 30
        E 3 b7 02 5f
        E 3 b7 02 50
        E 3 b7 02 58
        E 3 b7 02 3f
        E 3 b7 02 0b
        E 3 b7 02 13
        E 3 b7 02 44
        E 3 b7 02 37
        E 3 b7 02 1c
        E 3 b7 02 14
        E 3 b7 02 1b
        E 3 b7 02 4f
        E 3 b7 02 2f
        E 3 b7 02 17
        E 3 b7 02 3a
        E 3 b7 02 64
        E 3 b7 02 00
        E 3 b7 02 0c
        E 3 b7 02 29
        E 3 b7 02 22
        E 3 b7 02 53
        E 3 b7 02 15
        E 3 b7 02 06
        E 3 b7 02 0f
        E 3 b7 02 11
        E 3 b7 02 5b
        E 3 b7 02 19
        E 3 b7 02 00
        E 3 b7 02 4b
        E 3 b7 02 23
        E 3 b7 02 14
        E 3 b7 02 28
        E 3 b7 02 1a
        E 3 b7 02 56
        E 3 b7 02 55
        E 3 b7 02 65
        E 3 b7 02 54
        E 3 b7 02 2b
        E 3 b7 02 5e
        E 3 b7 02 48
        E 3 b7 02 0b
        E 3 b7 02 2c
        E 3 b7 02 36
        E 3 b7 02 60
        E 3 b7 02 4d
        E 3 b7 02 37
        E 3 b7 02 38
        E 3 b7 02 04
        E 3 b7 02 0a
        E 3 b7 02 5d
        E 3 b7 02 51
        E 3 b7 02 2b
        E 3 b7 02 1f
        E 3 b7 02 0d
        E 3 b7 02 2d
        E 3 b7 02 1e
        E 3 b7 02 18
        E 3 b7 02 26
        E 3 b7 02 34
        E 3 b7 02 3d
        E 3 b7 02 41
        E 3 b7 02 10
        E 3 b7 02 3c
        E 3 b7 02 5a
        E 3 b7 02 33
        E 3 b7 02 3b
        E 3 b7 02 02
        E 3 b7 02 07
        E 3 b7 02 63
        E 3 b7 02 42
        E 3 b7 02 12
        E 3 b7 02 5c
        E 3 b7 02 20
        E 3 b7 02 27
        E 3 b7 02 31
        E 3 b7 02 28
        E 3 b7 02 44
        E 3 b7 02 52
        E 3 b7 02 1d
        E 3 b7 02 39
        E 3 b7 02 17
        E 3 b7 02 5b
        E 3 b7 02 54
        E 3 b7 02 2e
        E 3 b7 02 24
        E 3 b7 02 50
        E 3 b7 02 25
        E 3 b7 02 47
        E 3 b7 02 0e
        E 3 b7 02 01
        E 3 b7 02 21
        E 3 b7 02 33
        E 3 b7 02 57
        E 3 b7 02 4e
        E 3 b7 02 03
        E 3 b7 02 57
        E 3 b7 02 4a
        E 3 b7 02 05
        E 3 b7 02 1f
        E 3 b7 02 3b
        E 3 b7 02 4c
        E 3 b7 02 61
        E 3 b7 02 3e
        E 3 b7 02 2a
        E 3 b7 02 1b
        E 3 b7 02 46
        E 3 b7 02 49
        E 3 b7 02 59
        E 3 b7 02 63
        E 3 b7 02 2f
        E 3 b7 02 40
        E 3 b7 02 45
        E 3 b7 02 35
        E 3 b7 02 5f
        E 3 b7 02 0f
        E 3 b7 02 24
        E 3 b7 02 43
        E 14 b7 02 16
        E 14 b7 02 4c
        E 14 b7 02 32
        E 14 b7 02 07
        E 14 b7 02 48
        E 14 b7 02 3f
        E 14 b7 02 09
        E 14 b7 02 08
        E 14 b7 02 30
        E 14 b7 02 5f
        E 14 b7 02 50
        E 14 b7 02 58
        E 14 b7 02 3f
        E 14 b7 02 0b
        E 14 b7 02 13
        E 14 b7 02 44
        E 14 b7 02 37
        E 14 b7 02 1c
        E 14 b7 02 14
        E 14 b7 02 1b
        E 14 b7 02 4f
        E 14 b7 02 2f
        E 14 b7 02 17
        E 14 b7 02 3a
        E 14 b7 02 64
        E 14 b7 02 00
        E 14 b7 02 0c
        E 14 b7 02 29
        E 14 b7 02 22
        E 14 b7 02 53
        E 14 b7 02 15
        E 14 b7 02 06
        E 14 b7 02 0f
        E 14 b7 02 11
        E 14 b7 02 5b
        E 14 b7 02 19
        E 14 b7 02 00
        E 14 b7 02 4b
        E 14 b7 02 23
        E 14 b7 02 14
        E 14 b7 02 28
        E 14 b7 02 1a
        E 14 b7 02 56
        E 14 b7 02 55
        E 14 b7 02 65
        E 14 b7 02 54
        E 14 b7 02 2b
        E 14 b7 02 5e
        E 14 b7 02 48
        E 14 b7 02 0b
        E 14 b7 02 2c
        E 14 b7 02 36
        E 14 b7 02 60
        E 14 b7 02 4d
        E 14 b7 02 37
        E 14 b7 02 38
        E 14 b7 02 04
        E 14 b7 02 0a
        E 14 b7 02 5d
        E 14 b7 02 51
        E 14 b7 02 2b
        E 14 b7 02 1f
        E 14 b7 02 0d
        E 14 b7 02 2d
        E 14 b7 02 1e
        E 14 b7 02 18
        E 14 b7 02 26
        E 14 b7 02 34
        E 14 b7 02 3d
        E 14 b7 02 41
        E 14 b7 02 10
        E 14 b7 02 3c
        E 14 b7 02 5a
        E 14 b7 02 33
        E 14 b7 02 3b
        E 14 b7 02 02
        E 14 b7 02 07
        E 14 b7 02 63
        E 14 b7 02 42
        E 14 b7 02 12
        E 14 b7 02 5c
        E 14 b7 02 20
        E 14 b7 02 27
        E 14 b7 02 31
        E 14 b7 02 28
        E 14 b7 02 44
        E 14 b7 02 52
        E 14 b7 02 1d
        E 14 b7 02 39
        E 14 b7 02 17
        E 14 b7 02 5b
        E 14 b7 02 54
        E 14 b7 02 2e
        E 14 b7 02 24
        E 14 b7 02 50
        E 14 b7 02 25
        E 14 b7 02 47
        E 14 b7 02 0e
        E 14 b7 02 01
        E 14 b7 02 21
        E 14 b7 02 33
        E 14 b7 02 57
        E 14 b7 02 4e
        E 14 b7 02 03
        E 14 b7 02 57
        E 14 b7 02 4a
        E 14 b7 02 05
        E 14 b7 02 1f
        E 14 b7 02 3b
        E 14 b7 02 4c
        E 14 b7 02 61
        E 14 b7 02 3e
        E 14 b7 02 2a
        E 14 b7 02 1b
        E 14 b7 02 46
        E 14 b7 02 49
        E 14 b7 02 59
        E 14 b7 02 63
        E 14 b7 02 2f
        E 14 b7 02 40
        E 14 b7 02 45
        E 14 b7 02 35
        E 14 b7 02 5f
        E 14 b7 02 0f
        E 14 b7 02 24
        E 14 b7 02 43
        E 7 b7 02 19
        E 7 b7 02 56
        E 7 b7 02 38
        E 7 b7 02 09
        E 7 b7 02 51
        E 7 b7 02 48
        E 7 b7 02 0a
        E 7 b7 02 09
        E 7 b7 02 36
        E 7 b7 02 6c
        E 7 b7 02 5a
        E 7 b7 02 63
        E 7 b7 02 47
        E 7 b7 02 0c
        E 7 b7 02 15
        E 7 b7 02 4d
        E 7 b7 02 3f
        E 7 b7 02 20
        E 7 b7 02 16
        E 7 b7 02 1e
        E 7 b7 02 59
        E 7 b7 02 35
        E 7 b7 02 1b
        E 7 b7 02 41
        E 7 b7 02 71
        E 7 b7 02 00
        E 7 b7 02 0e
        E 7 b7 02 2e
        E 7 b7 02 26
        E 7 b7 02 5d
        E 7 b7 02 18
        E 7 b7 02 07
        E 7 b7 02 12
        E 7 b7 02 13
        E 7 b7 02 67
        E 7 b7 02 1c
        E 7 b7 02 00
        E 7 b7 02 54
        E 7 b7 02 27
        E 7 b7 02 17
        E 7 b7 02 2d
        E 7 b7 02 1d
        E 7 b7 02 61
        E 7 b7 02 60
        E 7 b7 02 72
        E 7 b7 02 5f
        E 7 b7 02 31
        E 7 b7 02 6a
        E 7 b7 02 51
        E 7 b7 02 0d
        E 7 b7 02 32
        E 7 b7 02 3d
        E 7 b7 02 6c
        E 7 b7 02 57
        E 7 b7 02 3e
        E 7 b7 02 3f
        E 7 b7 02 05
        E 7 b7 02 0b
        E 7 b7 02 69
        E 7 b7 02 5b
        E 7 b7 02 30
        E 7 b7 02 24
        E 7 b7 02 0f
        E 7 b7 02 33
        E 7 b7 02 22
        E 7 b7 02 1b
        E 7 b7 02 2b
        E 7 b7 02 3b
        E 7 b7 02 45
        E 7 b7 02 49
        E 7 b7 02 12
        E 7 b7 02 44
        E 7 b7 02 65
        E 7 b7 02 3a
        E 7 b7 02 42
        E 7 b7 02 02
        E 7 b7 02 08
        E 7 b7 02 70
        E 7 b7 02 4a
        E 7 b7 02 14
        E 7 b7 02 68
        E 7 b7 02 24
        E 7 b7 02 2c
        E 7 b7 02 37
        E 7 b7 02 2d
        E 7 b7 02 4c
        E 7 b7 02 5c
        E 7 b7 02 21
        E 7 b7 02 40
        E 7 b7 02 1a
        E 7 b7 02 66
        E 7 b7 02 5e
        E 7 b7 02 34
        E 7 b7 02 29
        E 7 b7 02 5a
        E 7 b7 02 2a
        E 7 b7 02 50
        E 7 b7 02 10
        E 7 b7 02 01
        E 7 b7 02 25
        E 7 b7 02 39
        E 7 b7 02 62
        E 7 b7 02 58
        E 7 b7 02 03
        E 7 b7 02 63
        E 7 b7 02 53
        E 7 b7 02 06
        E 7 b7 02 23
        E 7 b7 02 43
        E 7 b7 02 55
        E 7 b7 02 6d
        E 7 b7 02 46
        E 7 b7 02 2f
        E 7 b7 02 1f
        E 7 b7 02 4f
        E 7 b7 02 52
        E 7 b7 02 64
        E 7 b7 02 6f
        E 7 b7 02 36
        E 7 b7 02 48
        E 7 b7 02 4e
        E 7 b7 02 3c
        E 7 b7 02 6b
        E 7 b7 02 11
        E 7 b7 02 28
        E 7 b7 02 4b
        E 14 b7 02 02
        E 14 b7 02 09
        E 14 b7 02 06
        E 14 b7 02 01
        E 14 b7 02 09
        E 14 b7 02 08
        E 14 b7 02 01
        E 14 b7 02 01
        E 14 b7 02 06
        E 14 b7 02 0c
        E 14 b7 02 0a
        E 14 b7 02 0b
        E 14 b7 02 07
        E 14 b7 02 01
        E 14 b7 02 02
        E 14 b7 02 08
        E 14 b7 02 07
        E 14 b7 02 03
        E 14 b7 02 02
        E 14 b7 02 03
        E 14 b7 02 09
        E 14 b7 02 05
        E 14 b7 02 03
        E 14 b7 02 07
        E 14 b7 02 0c
        E 14 b7 02 00
        E 14 b7 02 01
        E 14 b7 02 05
        E 14 b7 02 04
        E 14 b7 02 0a
        E 14 b7 02 02
        E 14 b7 02 00
        E 14 b7 02 02
        E 14 b7 02 02
        E 14 b7 02 0b
        E 14 b7 02 03
        E 14 b7 02 00
        E 14 b7 02 09
        E 14 b7 02 04
        E 14 b7 02 02
        E 14 b7 02 05
        E 14 b7 02 03
        E 14 b7 02 0a
        E 14 b7 02 0a
        E 14 b7 02 0c
        E 14 b7 02 0a
        E 14 b7 02 05
        E 14 b7 02 0b
        E 14 b7 02 09
        E 14 b7 02 01
        E 14 b7 02 05
        E 14 b7 02 06
        E 14 b7 02 0c
        E 14 b7 02 09
        E 14 b7 02 06
        E 14 b7 02 07
        E 14 b7 02 00
        E 14 b7 02 01
        E 14 b7 02 0b
        E 14 b7 02 0a
        E 14 b7 02 05
        E 14 b7 02 04
        E 14 b7 02 01
        E 14 b7 02 05
        E 14 b7 02 03
        E 14 b7 02 03
        E 14 b7 02 04
        E 14 b7 02 06
        E 14 b7 02 07
        E 14 b7 02 08
        E 14 b7 02 02
        E 14 b7 02 07
        E 14 b7 02 0b
        E 14 b7 02 06
        E 14 b7 02 07
        E 14 b7 02 00
        E 14 b7 02 00
        E 14 b7 02 0c
        E 14 b7 02 08
        E 14 b7 02 02
        E 14 b7 02 0b
        E 14 b7 02 04
        E 14 b7 02 04
        E 14 b7 02 06
        E 14 b7 02 05
        E 14 b7 02 08
        E 14 b7 02 0a
        E 14 b7 02 03
        E 14 b7 02 07
        E 14 b7 02 02
        E 14 b7 02 0b
        E 14 b7 02 0a
        E 14 b7 02 05
        E 14 b7 02 04
        E 14 b7 02 0a
        E 14 b7 02 04
        E 14 b7 02 08
        E 14 b7 02 01
        E 14 b7 02 00
        E 14 b7 02 04
        E 14 b7 02 06
        E 14 b7 02 0a
        E 14 b7 02 09
        E 14 b7 02 00
        E 14 b7 02 0b
        E 14 b7 02 09
        E 14 b7 02 00
        E 14 b7 02 03
        E 14 b7 02 07
        E 14 b7 02 09
        E 14 b7 02 0c
        E 14 b7 02 07
        E 14 b7 02 05
        E 14 b7 02 03
        E 14 b7 02 08
        E 14 b7 02 09
        E 14 b7 02 0b
        E 14 b7 02 0c
        E 14 b7 02 06
        E 14 b7 02 08
        E 14 b7 02 08
        E 14 b7 02 06
        E 14 b7 02 0b
        E 14 b7 02 01
        E 14 b7 02 04
        E 14 b7 02 08
        E 3 b7 02 16
        E 3 b7 02 4c
        E 3 b7 02 32
        E 3 b7 02 07
        E 3 b7 02 48
        E 3 b7 02 3f
        E 3 b7 02 09
        E 3 b7 02 08
        E 3 b7 02 30
        E 3 b7 02 5f
        E 3 b7 02 50
        E 3 b7 02 58
        E 3 b7 02 3f
        E 3 b7 02 0b
        E 3 b7 02 13
        E 3 b7 02 44
        E 3 b7 02 37
        E 3 b7 02 1c
        E 3 b7 02 14
        E 3 b7 02 1b
        E 3 b7 02 4f
        E 3 b7 02 2f
        E 3 b7 02 17
        E 3 b7 02 3a
        E 3 b7 02 64
        E 3 b7 02 00
        E 3 b7 02 0c
        E 3 b7 02 29
        E 3 b7 02 22
        E 3 b7 02 53
        E 3 b7 02 15
        E 3 b7 02 06
        E 3 b7 02 0f
        E 3 b7 02 11
        E 3 b7 02 5b
        E 3 b7 02 19
        E 3 b7 02 00
        E 3 b7 02 4b
        E 3 b7 02 23
        E 3 b7 02 14
        E 3 b7 02 28
        E 3 b7 02 1a
        E 3 b7 02 56
        E 3 b7 02 55
        E 3 b7 02 65
        E 3 b7 02 54
        E 3 b7 02 2b
        E 3 b7 02 5e
        E 3 b7 02 48
        E 3 b7 02 0b
        E 3 b7 02 2c
        E 3 b7 02 36
        E 3 b7 02 60
        E 3 b7 02 4d
        E 3 b7 02 37
        E 3 b7 02 38
        E 3 b7 02 04
        E 3 b7 02 0a
        E 3 b7 02 5d
        E 3 b7 02 51
        E 3 b7 02 2b
        E 3 b7 02 1f
        E 3 b7 02 0d
        E 3 b7 02 2d
        E 3 b7 02 1e
        E 3 b7 02 18
        E 3 b7 02 26
        E 3 b7 02 34
        E 3 b7 02 3d
        E 3 b7 02 41
        E 3 b7 02 10
        E 3 b7 02 3c
        E 3 b7 02 5a
        E 3 b7 02 33
        E 3 b7 02 3b
        E 3 b7 02 02
        E 3 b7 02 07
        E 3 b7 02 63
        E 3 b7 02 42
        E 3 b7 02 12
        E 3 b7 02 5c
        E 3 b7 02 20
        E 3 b7 02 27
        E 3 b7 02 31
        E 3 b7 02 28
        E 3 b7 02 44
        E 3 b7 02 52
        E 3 b7 02 1d
        E 3 b7 02 39
        E 3 b7 02 17
        E 3 b7 02 5b
        E 3 b7 02 54
        E 3 b7 02 2e
        E 3 b7 02 24
        E 3 b7 02 50
        E 3 b7 02 25
        E 3 b7 02 47
        E 3 b7 02 0e
        E 3 b7 02 01
        E 3 b7 02 21
        E 3 b7 02 33
        E 3 b7 02 57
        E 3 b7 02 4e
        E 3 b7 02 03
        E 3 b7 02 57
        E 3 b7 02 4a
        E 3 b7 02 05
        E 3 b7 02 1f
        E 3 b7 02 3b
        E 3 b7 02 4c
        E 3 b7 02 61
        E 3 b7 02 3e
        E 3 b7 02 2a
        E 3 b7 02 1b
        E 3 b7 02 46
        E 3 b7 02 49
        E 3 b7 02 59
        E 3 b7 02 63
        E 3 b7 02 2f
        E 3 b7 02 40
        E 3 b7 02 45
        E 3 b7 02 35
        E 3 b7 02 5f
        E 3 b7 02 0f
        E 3 b7 02 24
        E 3 b7 02 43
        E 14 b7 02 16
        E 14 b7 02 4c
        E 14 b7 02 32
        E 14 b7 02 07
        E 14 b7 02 48
        E 14 b7 02 3f
        E 14 b7 02 09
        E 14 b7 02 08
        E 14 b7 02 30
        E 14 b7 02 5f
        E 14 b7 02 50
        E 14 b7 02 58
        E 14 b7 02 3f
        E 14 b7 02 0b
        E 14 b7 02 13
        E 14 b7 02 44
        E 14 b7 02 37
        E 14 b7 02 1c
        E 14 b7 02 14
        E 14 b7 02 1b
        E 14 b7 02 4f
        E 14 b7 02 2f
        E 14 b7 02 17
        E 14 b7 02 3a
        E 14 b7 02 64
        E 14 b7 02 00
        E 14 b7 02 0c
        E 14 b7 02 29
        E 14 b7 02 22
        E 14 b7 02 53
        E 14 b7 02 15
        E 14 b7 02 06
        E 14 b7 02 0f
        E 14 b7 02 11
        E 14 b7 02 5b
        E 14 b7 02 19
        E 14 b7 02 00
        E 14 b7 02 4b
        E 14 b7 02 23
        E 14 b7 02 14
        E 14 b7 02 28
        E 14 b7 02 1a
        E 14 b7 02 56
        E 14 b7 02 55
        E 14 b7 02 65
        E 14 b7 02 54
        E 14 b7 02 2b
        E 14 b7 02 5e
        E 14 b7 02 48
        E 14 b7 02 0b
        E 14 b7 02 2c
        E 14 b7 02 36
        E 14 b7 02 60
        E 14 b7 02 4d
        E 14 b7 02 37
        E 14 b7 02 38
        E 14 b7 02 04
        E 14 b7 02 0a
        E 14 b7 02 5d
        E 14 b7 02 51
        E 14 b7 02 2b
        E 14 b7 02 1f
        E 14 b7 02 0d
        E 14 b7 02 2d
        E 14 b7 02 1e
        E 14 b7 02 18
        E 14 b7 02 26
        E 14 b7 02 34
        E 14 b7 02 3d
        E 14 b7 02 41
        E 14 b7 02 10
        E 14 b7 02 3c
        E 14 b7 02 5a
        E 14 b7 02 33
        E 14 b7 02 3b
        E 14 b7 02 02
        E 14 b7 02 07
        E 14 b7 02 63
        E 14 b7 02 42
        E 14 b7 02 12
        E 14 b7 02 5c
        E 14 b7 02 20
        E 14 b7 02 27
        E 14 b7 02 31
        E 14 b7 02 28
        E 14 b7 02 44
        E 14 b7 02 52
        E 14 b7 02 1d
        E 14 b7 02 39
        E 14 b7 02 17
        E 14 b7 02 5b
        E 14 b7 02 54
        E 14 b7 02 2e
        E 14 b7 02 24
        E 14 b7 02 50
        E 14 b7 02 25
        E 14 b7 02 47
        E 14 b7 02 0e
        E 14 b7 02 01
        E 14 b7 02 21
        E 14 b7 02 33
        E 14 b7 02 57
        E 14 b7 02 4e
        E 14 b7 02 03
        E 14 b7 02 57
        E 14 b7 02 4a
        E 14 b7 02 05
        E 14 b7 02 1f
        E 14 b7 02 3b
        E 14 b7 02 4c
        E 14 b7 02 61
        E 14 b7 02 3e
        E 14 b7 02 2a
        E 14 b7 02 1b
        E 14 b7 02 46
        E 14 b7 02 49
        E 14 b7 02 59
        E 14 b7 02 63
        E 14 b7 02 2f
        E 14 b7 02 40
        E 14 b7 02 45
        E 14 b7 02 35
        E 14 b7 02 5f
        E 14 b7 02 0f
        E 14 b7 02 24
        E 14 b7 02 43
        E 7 b7 02 19
        E 7 b7 02 56
        E 7 b7 02 38
        E 7 b7 02 09
        E 7 b7 02 51
        E 7 b7 02 48
        E 7 b7 02 0a
        E 7 b7 02 09
        E 7 b7 02 36
        E 7 b7 02 6c
        E 7 b7 02 5a
        E 7 b7 02 63
        E 7 b7 02 47
        E 7 b7 02 0c
        E 7 b7 02 15
        E 7 b7 02 4d
        E 7 b7 02 3f
        E 7 b7 02 20
        E 7 b7 02 16
        E 7 b7 02 1e
        E 7 b7 02 59
        E 7 b7 02 35
        E 7 b7 02 1b
        E 7 b7 02 41
        E 7 b7 02 71
        E 7 b7 02 00
        E 7 b7 02 0e
        E 7 b7 02 2e
        E 7 b7 02 26
        E 7 b7 02 5d
        E 7 b7 02 18
        E 7 b7 02 07
        E 7 b7 02 12
        E 7 b7 02 13
        E 7 b7 02 67
        E 7 b7 02 1c
        E 7 b7 02 00
        E 7 b7 02 54
        E 7 b7 02 27
        E 7 b7 02 17
        E 7 b7 02 2d
        E 7 b7 02 1d
        E 7 b7 02 61
        E 7 b7 02 60
        E 7 b7 02 72
        E 7 b7 02 5f
        E 7 b7 02 31
        E 7 b7 02 6a
        E 7 b7 02 51
        E 7 b7 02 0d
        E 7 b7 02 32
        E 7 b7 02 3d
        E 7 b7 02 6c
        E 7 b7 02 57
        E 7 b7 02 3e
        E 7 b7 02 3f
        E 7 b7 02 05
        E 7 b7 02 0b
        E 7 b7 02 69
        E 7 b7 02 5b
        E 7 b7 02 30
        E 7 b7 02 24
        E 7 b7 02 0f
        E 7 b7 02 33
        E 7 b7 02 22
        E 7 b7 02 1b
        E 7 b7 02 2b
        E 7 b7 02 3b
        E 7 b7 02 45
        E 7 b7 02 49
        E 7 b7 02 12
        E 7 b7 02 44
        E 7 b7 02 65
        E 7 b7 02 3a
        E 7 b7 02 42
        E 7 b7 02 02
        E 7 b7 02 08
        E 7 b7 02 70
        E 7 b7 02 4a
        E 7 b7 02 14
        E 7 b7 02 68
        E 7 b7 02 24
        E 7 b7 02 2c
        E 7 b7 02 37
        E 7 b7 02 2d
        E 7 b7 02 4c
        E 7 b7 02 5c
        E 7 b7 02 21
        E 7 b7 02 40
        E 7 b7 02 1a
        E 7 b7 02 66
        E 7 b7 02 5e
        E 7 b7 02 34
        E 7 b7 02 29
        E 7 b7 02 5a
        E 7 b7 02 2a
        E 7 b7 02 50
        E 7 b7 02 10
        E 7 b7 02 01
        E 7 b7 02 25
        E 7 b7 02 39
        E 7 b7 02 62
        E 7 b7 02 58
        E 7 b7 02 03
        E 7 b7 02 63
        E 7 b7 02 53
        E 7 b7 02 06
        E 7 b7 02 23
        E 7 b7 02 43
        E 7 b7 02 55
        E 7 b7 02 6d
        E 7 b7 02 46
        E 7 b7 02 2f
        E 7 b7 02 1f
        E 7 b7 02 4f
        E 7 b7 02 52
        E 7 b7 02 64
        E 7 b7 02 6f
        E 7 b7 02 36
        E 7 b7 02 48
        E 7 b7 02 4e
        E 7 b7 02 3c
        E 7 b7 02 6b
        E 7 b7 02 11
        E 7 b7 02 28
        E 7 b7 02 4b
        E 14 b7 02 02
        E 14 b7 02 09
        E 14 b7 02 06
        E 14 b7 02 01
        E 14 b7 02 09
        E 14 b7 02 08
        E 14 b7 02 01
        E 14 b7 02 01
        E 14 b7 02 06
        E 14 b7 02 0c
        E 14 b7 02 0a
        E 14 b7 02 0b
        E 14 b7 02 07
        E 14 b7 02 01
        E 14 b7 02 02
        E 14 b7 02 08
        E 14 b7 02 07
        E 14 b7 02 03
        E 14 b7 02 02
        E 14 b7 02 03
        E 14 b7 02 09
        E 14 b7 02 05
        E 14 b7 02 03
        E 14 b7 02 07
        E 14 b7 02 0c
        E 14 b7 02 00
        E 14 b7 02 01
        E 14 b7 02 05
        E 14 b7 02 04
        E 14 b7 02 0a
        E 14 b7 02 02
        E 14 b7 02 00
        E 14 b7 02 02
        E 14 b7 02 02
        E 14 b7 02 0b
        E 14 b7 02 03
        E 14 b7 02 00
        E 14 b7 02 09
        E 14 b7 02 04
        E 14 b7 02 02
        E 14 b7 02 05
        E 14 b7 02 03
        E 14 b7 02 0a
        E 14 b7 02 0a
        E 14 b7 02 0c
        E 14 b7 02 0a
        E 14 b7 02 05
        E 14 b7 02 0b
        E 14 b7 02 09
        E 14 b7 02 01
        E 14 b7 02 05
        E 14 b7 02 06
        E 14 b7 02 0c
        E 14 b7 02 09
        E 14 b7 02 06
        E 14 b7 02 07
        E 14 b7 02 00
        E 14 b7 02 01
        E 14 b7 02 0b
        E 14 b7 02 0a
        E 14 b7 02 05
        E 14 b7 02 04
        E 14 b7 02 01
        E 14 b7 02 05
        E 14 b7 02 03
        E 14 b7 02 03
        E 14 b7 02 04
        E 14 b7 02 06
        E 14 b7 02 07
        E 14 b7 02 08
        E 14 b7 02 02
        E 14 b7 02 07
        E 14 b7 02 0b
        E 14 b7 02 06
        E 14 b7 02 07
        E 14 b7 02 00
        E 14 b7 02 00
        E 14 b7 02 0c
        E 14 b7 02 08
        E 14 b7 02 02
        E 14 b7 02 0b
        E 14 b7 02 04
        E 14 b7 02 04
        E 14 b7 02 06
        E 14 b7 02 05
        E 14 b7 02 08
        E 14 b7 02 0a
        E 14 b7 02 03
        E 14 b7 02 07
        E 14 b7 02 02
        E 14 b7 02 0b
        E 14 b7 02 0a
        E 14 b7 02 05
        E 14 b7 02 04
        E 14 b7 02 0a
        E 14 b7 02 04
        E 14 b7 02 08
        E 14 b7 02 01
        E 14 b7 02 00
        E 14 b7 02 04
        E 14 b7 02 06
        E 14 b7 02 0a
        E 14 b7 02 09
        E 14 b7 02 00
        E 14 b7 02 0b
        E 14 b7 02 09
        E 14 b7 02 00
        E 14 b7 02 03
        E 14 b7 02 07
        E 14 b7 02 09
        E 14 b7 02 0c
        E 14 b7 02 07
        E 14 b7 02 05
        E 14 b7 02 03
        E 14 b7 02 08
        E 14 b7 02 09
        E 14 b7 02 0b
        E 14 b7 02 0c
        E 14 b7 02 06
        E 14 b7 02 08
        E 14 b7 02 08
        E 14 b7 02 06
        E 14 b7 02 0b
        E 14 b7 02 01
        E 14 b7 02 04
        E 14 b7 02 08
        E 3 b7 02 16
        E 3 b7 02 4c
        E 3 b7 02 32
        E 3 b7 02 07
        E 3 b7 02 48
        E 3 b7 02 3f
        E 3 b7 02 09
        E 3 b7 02 08
        E 3 b7 02 30
        E 3 b7 02 5f
        E 3 b7 02 50
        E 3 b7 02 58
        E 3 b7 02 3f
        E 3 b7 02 0b
        E 3 b7 02 13
        E 3 b7 02 44
        E 3 b7 02 37
        E 3 b7 02 1c
        E 3 b7 02 14
        E 3 b7 02 1b
        E 3 b7 02 4f
        E 3 b7 02 2f
        E 3 b7 02 17
        E 3 b7 02 3a
        E 3 b7 02 64
        E 3 b7 02 00
        E 3 b7 02 0c
        E 3 b7 02 29
        E 3 b7 02 22
        E 3 b7 02 53
        E 3 b7 02 15
        E 3 b7 02 06
        E 3 b7 02 0f
        E 3 b7 02 11
        E 3 b7 02 5b
        E 3 b7 02 19
        E 3 b7 02 00
        E 3 b7 02 4b
        E 3 b7 02 23
        E 3 b7 02 14
        E 3 b7 02 28
        E 3 b7 02 1a
        E 3 b7 02 56
        E 3 b7 02 55
        E 3 b7 02 65
        E 3 b7 02 54
        E 3 b7 02 2b
        E 3 b7 02 5e
        E 3 b7 02 48
        E 3 b7 02 0b
        E 3 b7 02 2c
        E 3 b7 02 36
        E 3 b7 02 60
        E 3 b7 02 4d
        E 3 b7 02 37
        E 3 b7 02 38
        E 3 b7 02 04
        E 3 b7 02 0a
        E 3 b7 02 5d
        E 3 b7 02 51
        E 3 b7 02 2b
        E 3 b7 02 1f
        E 3 b7 02 0d
        E 3 b7 02 2d
        E 3 b7 02 1e
        E 3 b7 02 18
        E 3 b7 02 26
        E 3 b7 02 34
        E 3 b7 02 3d
        E 3 b7 02 41
        E 3 b7 02 10
        E 3 b7 02 3c
        E 3 b7 02 5a
        E 3 b7 02 33
        E 3 b7 02 3b
        E 3 b7 02 02
        E 3 b7 02 07
        E 3 b7 02 63
        E 3 b7 02 42
        E 3 b7 02 12
        E 3 b7 02 5c
        E 3 b7 02 20
        E 3 b7 02 27
        E 3 b7 02 31
        E 3 b7 02 28
        E 3 b7 02 44
        E 3 b7 02 52
        E 3 b7 02 1d
        E 3 b7 02 39
        E 3 b7 02 17
        E 3 b7 02 5b
        E 3 b7 02 54
        E 3 b7 02 2e
        E 3 b7 02 24
        E 3 b7 02 50
        E 3 b7 02 25
        E 3 b7 02 47
        E 3 b7 02 0e
        E 3 b7 02 01
        E 3 b7 02 21
        E 3 b7 02 33
        E 3 b7 02 57
        E 3 b7 02 4e
        E 3 b7 02 03
        E 3 b7 02 57
        E 3 b7 02 4a
        E 3 b7 02 05
        E 3 b7 02 1f
        E 3 b7 02 3b
        E 3 b7 02 4c
        E 3 b7 02 61
        E 3 b7 02 3e
        E 3 b7 02 2a
        E 3 b7 02 1b
        E 3 b7 02 46
        E 3 b7 02 49
        E 3 b7 02 59
        E 3 b7 02 63
        E 3 b7 02 2f
        E 3 b7 02 40
        E 3 b7 02 45
        E 3 b7 02 35
        E 3 b7 02 5f
        E 3 b7 02 0f
        E 3 b7 02 24
        E 3 b7 02 43
        E 14 b7 02 16
        E 14 b7 02 4c
        E 14 b7 02 32
        E 14 b7 02 07
        E 14 b7 02 48
        E 14 b7 02 3f
        E 14 b7 02 09
        E 14 b7 02 08
        E 14 b7 02 30
        E 14 b7 02 5f
        E 14 b7 02 50
        E 14 b7 02 58
        E 14 b7 02 3f
        E 14 b7 02 0b
        E 14 b7 02 13
        E 14 b7 02 44
        E 14 b7 02 37
        E 14 b7 02 1c
        E 14 b7 02 14
        E 14 b7 02 1b
        E 14 b7 02 4f
        E 14 b7 02 2f
        E 14 b7 02 17
        E 14 b7 02 3a
        E 14 b7 02 64
        E 14 b7 02 00
        E 14 b7 02 0c
        E 14 b7 02 29
        E 14 b7 02 22
        E 14 b7 02 53
        E 14 b7 02 15
        E 14 b7 02 06
        E 14 b7 02 0f
        E 14 b7 02 11
        E 14 b7 02 5b
        E 14 b7 02 19
        E 14 b7 02 00
        E 14 b7 02 4b
        E 14 b7 02 23
        E 14 b7 02 14
        E 14 b7 02 28
        E 14 b7 02 1a
        E 14 b7 02 56
        E 14 b7 02 55
        E 14 b7 02 65
        E 14 b7 02 54
        E 14 b7 02 2b
        E 14 b7 02 5e
        E 14 b7 02 48
        E 14 b7 02 0b
        E 14 b7 02 2c
        E 14 b7 02 36
        E 14 b7 02 60
        E 14 b7 02 4d
        E 14 b7 02 37
        E 14 b7 02 38
        E 14 b7 02 04
        E 14 b7 02 0a
        E 14 b7 02 5d
        E 14 b7 02 51
        E 14 b7 02 2b
        E 14 b7 02 1f
        E 14 b7 02 0d
        E 14 b7 02 2d
        E 14 b7 02 1e
        E 14 b7 02 18
        E 14 b7 02 26
        E 14 b7 02 34
        E 14 b7 02 3d
        E 14 b7 02 41
        E 14 b7 02 10
        E 14 b7 02 3c
        E 14 b7 02 5a
        E 14 b7 02 33
        E 14 b7 02 3b
        E 14 b7 02 02
        E 14 b7 02 07
        E 14 b7 02 63
        E 14 b7 02 42
        E 14 b7 02 12
        E 14 b7 02 5c
        E 14 b7 02 20
        E 14 b7 02 27
        E 14 b7 02 31
        E 14 b7 02 28
        E 14 b7 02 44
        E 14 b7 02 52
        E 14 b7 02 1d
        E 14 b7 02 39
        E 14 b7 02 17
        E 14 b7 02 5b
        E 14 b7 02 54
        E 14 b7 02 2e
        E 14 b7 02 24
        E 14 b7 02 50
        E 14 b7 02 25
        E 14 b7 02 47
        E 14 b7 02 0e
        E 14 b7 02 01
        E 14 b7 02 21
        E 14 b7 02 33
        E 14 b7 02 57
        E 14 b7 02 4e
        E 14 b7 02 03
        E 14 b7 02 57
        E 14 b7 02 4a
        E 14 b7 02 05
        E 14 b7 02 1f
        E 14 b7 02 3b
        E 14 b7 02 4c
        E 14 b7 02 61
        E 14 b7 02 3e
        E 14 b7 02 2a
        E 14 b7 02 1b
        E 14 b7 02 46
        E 14 b7 02 49
        E 14 b7 02 59
        E 14 b7 02 63
        E 14 b7 02 2f
        E 14 b7 02 40
        E 14 b7 02 45
        E 14 b7 02 35
        E 14 b7 02 5f
        E 14 b7 02 0f
        E 14 b7 02 24
        E 14 b7 02 43
        E 20 b0 7b 00
        CCINTERP 32
        CHASE_CC_TAKEOFFS 1
        GUID {1992C038-0190-264E-814D-6C15CFAAC6A3}
        IGNTEMPO 0 120 4 4
        SRCCOLOR 259
        VELLANE 3 601 0
        VELLANE -1 196 0
      >
    >
  >
  <TRACK {023FB358-525A-0743-B60E-14BF4943F8C1}
    NAME "mission brand tortilla strips"
    PEAKCOL 16576
    BEAT -1
    AUTOMODE 0
    VOLPAN 1 0 -1 -1 1
    MUTESOLO 0 0 0
    IPHASE 0
    PLAYOFFS 0 1
    ISBUS 0 0
    BUSCOMP 0 0 0 0 0
    SHOWINMIX 1 0.6667 0.5 1 0.5 0 -1 0
    FREEMODE 0
    SEL 0
    REC 0 0 1 0 0 0 0
    VU 2
    TRACKHEIGHT 0 1 0 0 -1 0
    INQ 0 0 0 0.5 100 0 0 100
    NCHAN 2
    FX 1
    TRACKID {023FB358-525A-0743-B60E-14BF4943F8C1}
    PERF 0
    MIDIOUT -1
    MAINSEND 1 0
    <ITEM
      POSITION 0
      SNAPOFFS 0
      LENGTH 7.499996
      LOOP 1
      ALLTAKES 0
      FADEIN 1 0 0 1 0 0
      FADEOUT 1 0 0 1 0 0
      MUTE 0 0
      SEL 0
      IGUID {93FB850E-1024-2548-A986-BE55D760BE6E}
      IID 21
      NAME "mission brand tortilla strips.mid"
      VOLPAN 1 0 1 -1
      SOFFS 0 0
      PLAYRATE 1 1 0 -1 0 0.0025
      CHANMODE 0
      GUID {484448DF-042C-6240-AA72-AFECDC3D42EC}
      <SOURCE MIDI
        HASDATA 1 128 QN
        CCINTERP 32
        POOLEDEVTS {78546F45-4DE0-BB48-8E74-0913B41F679D}
        E 11 b8 01 0b
        E 11 b8 01 26
        E 11 b8 01 19
        E 11 b8 01 04
        E 11 b8 01 24
        E 11 b8 01 20
        E 11 b8 01 04
        E 11 b8 01 04
        E 11 b8 01 18
        E 11 b8 01 30
        E 11 b8 01 28
        E 11 b8 01 2c
        E 11 b8 01 1f
        E 11 b8 01 05
        E 11 b8 01 09
        E 11 b8 01 22
        E 11 b8 01 1c
        E 11 b8 01 0e
        E 11 b8 01 0a
        E 11 b8 01 0d
        E 11 b8 01 27
        E 11 b8 01 17
        E 11 b8 01 0c
        E 11 b8 01 1d
        E 11 b8 01 32
        E 11 b8 01 00
        E 11 b8 01 06
        E 11 b8 01 14
        E 11 b8 01 11
        E 11 b8 01 29
        E 11 b8 01 0a
        E 11 b8 01 03
        E 11 b8 01 08
        E 11 b8 01 08
        E 11 b8 01 2e
        E 11 b8 01 0c
        E 11 b8 01 00
        E 11 b8 01 25
        E 11 b8 01 11
        E 11 b8 01 0a
        E 11 b8 01 14
        E 11 b8 01 0d
        E 11 b8 01 2b
        E 11 b8 01 2a
        E 11 b8 01 32
        E 11 b8 01 2a
        E 11 b8 01 16
        E 11 b8 01 2f
        E 11 b8 01 24
        E 11 b8 01 06
        E 11 b8 01 16
        E 11 b8 01 1b
        E 11 b8 01 30
        E 11 b8 01 26
        E 11 b8 01 1b
        E 11 b8 01 1c
        E 11 b8 01 02
        E 11 b8 01 05
        E 11 b8 01 2e
        E 11 b8 01 28
        E 11 b8 01 15
        E 11 b8 01 10
        E 11 b8 01 06
        E 11 b8 01 16
        E 11 b8 01 0f
        E 11 b8 01 0c
        E 11 b8 01 13
        E 11 b8 01 1a
        E 11 b8 01 1e
        E 11 b8 01 20
        E 11 b8 01 08
        E 11 b8 01 1e
        E 11 b8 01 2d
        E 11 b8 01 1a
        E 11 b8 01 1d
        E 11 b8 01 01
        E 11 b8 01 03
        E 11 b8 01 32
        E 11 b8 01 21
        E 11 b8 01 09
        E 11 b8 01 2e
        E 11 b8 01 10
        E 11 b8 01 13
        E 11 b8 01 18
        E 11 b8 01 14
        E 11 b8 01 22
        E 11 b8 01 29
        E 11 b8 01 0e
        E 11 b8 01 1c
        E 11 b8 01 0b
        E 11 b8 01 2d
        E 11 b8 01 2a
        E 11 b8 01 17
        E 11 b8 01 12
        E 11 b8 01 28
        E 11 b8 01 12
        E 11 b8 01 23
        E 11 b8 01 07
        E 11 b8 01 00
        E 11 b8 01 10
        E 11 b8 01 19
        E 11 b8 01 2b
        E 11 b8 01 27
        E 11 b8 01 01
        E 11 b8 01 2c
        E 11 b8 01 25
        E 11 b8 01 02
        E 11 b8 01 0f
        E 11 b8 01 1e
        E 11 b8 01 26
        E 11 b8 01 30
        E 11 b8 01 1f
        E 11 b8 01 15
        E 11 b8 01 0e
        E 11 b8 01 23
        E 11 b8 01 24
        E 11 b8 01 2c
        E 11 b8 01 31
        E 11 b8 01 18
        E 11 b8 01 20
        E 11 b8 01 22
        E 11 b8 01 1a
        E 11 b8 01 2f
        E 11 b8 01 07
        E 11 b8 01 12
        E 11 b8 01 21
        E 3 b8 01 0b
        E 3 b8 01 26
        E 3 b8 01 19
        E 3 b8 01 04
        E 3 b8 01 24
        E 3 b8 01 20
        E 3 b8 01 04
        E 3 b8 01 04
        E 3 b8 01 18
        E 3 b8 01 30
        E 3 b8 01 28
        E 3 b8 01 2c
        E 3 b8 01 1f
        E 3 b8 01 05
        E 3 b8 01 09
        E 3 b8 01 22
        E 3 b8 01 1c
        E 3 b8 01 0e
        E 3 b8 01 0a
        E 3 b8 01 0d
        E 3 b8 01 27
        E 3 b8 01 17
        E 3 b8 01 0c
        E 3 b8 01 1d
        E 3 b8 01 32
        E 3 b8 01 00
        E 3 b8 01 06
        E 3 b8 01 14
        E 3 b8 01 11
        E 3 b8 01 29
        E 3 b8 01 0a
        E 3 b8 01 03
        E 3 b8 01 08
        E 3 b8 01 08
        E 3 b8 01 2e
        E 3 b8 01 0c
        E 3 b8 01 00
        E 3 b8 01 25
        E 3 b8 01 11
        E 3 b8 01 0a
        E 3 b8 01 14
        E 3 b8 01 0d
        E 3 b8 01 2b
        E 3 b8 01 2a
        E 3 b8 01 32
        E 3 b8 01 2a
        E 3 b8 01 16
        E 3 b8 01 2f
        E 3 b8 01 24
        E 3 b8 01 06
        E 3 b8 01 16
        E 3 b8 01 1b
        E 3 b8 01 30
        E 3 b8 01 26
        E 3 b8 01 1b
        E 3 b8 01 1c
        E 3 b8 01 02
        E 3 b8 01 05
        E 3 b8 01 2e
        E 3 b8 01 28
        E 3 b8 01 15
        E 3 b8 01 10
        E 3 b8 01 06
        E 3 b8 01 16
        E 3 b8 01 0f
        E 3 b8 01 0c
        E 3 b8 01 13
        E 3 b8 01 1a
        E 3 b8 01 1e
        E 3 b8 01 20
        E 3 b8 01 08
        E 3 b8 01 1e
        E 3 b8 01 2d
        E 3 b8 01 1a
        E 3 b8 01 1d
        E 3 b8 01 01
        E 3 b8 01 03
        E 3 b8 01 32
        E 3 b8 01 21
        E 3 b8 01 09
        E 3 b8 01 2e
        E 3 b8 01 10
        E 3 b8 01 13
        E 3 b8 01 18
        E 3 b8 01 14
        E 3 b8 01 22
        E 3 b8 01 29
        E 3 b8 01 0e
        E 3 b8 01 1c
        E 3 b8 01 0b
        E 3 b8 01 2d
        E 3 b8 01 2a
        E 3 b8 01 17
        E 3 b8 01 12
        E 3 b8 01 28
        E 3 b8 01 12
        E 3 b8 01 23
        E 3 b8 01 07
        E 3 b8 01 00
        E 3 b8 01 10
        E 3 b8 01 19
        E 3 b8 01 2b
        E 3 b8 01 27
        E 3 b8 01 01
        E 3 b8 01 2c
        E 3 b8 01 25
        E 3 b8 01 02
        E 3 b8 01 0f
        E 3 b8 01 1e
        E 3 b8 01 26
        E 3 b8 01 30
        E 3 b8 01 1f
        E 3 b8 01 15
        E 3 b8 01 0e
        E 3 b8 01 23
        E 3 b8 01 24
        E 3 b8 01 2c
        E 3 b8 01 31
        E 3 b8 01 18
        E 3 b8 01 20
        E 3 b8 01 22
        E 3 b8 01 1a
        E 3 b8 01 2f
        E 3 b8 01 07
        E 3 b8 01 12
        E 3 b8 01 21
        E 28 b0 7b 00
        CCINTERP 32
        CHASE_CC_TAKEOFFS 1
        GUID {F24B948C-EDAE-5742-A9AB-1E69CDD18513}
        IGNTEMPO 0 120 4 4
        SRCCOLOR 260
        VELLANE 3 601 0
        VELLANE -1 196 0
      >
    >
  >
  <TRACK {77737CDF-8EC7-B840-BFAE-B724FB7C55B2}
    NAME "mission brand tortilla strips"
    PEAKCOL 16576
    BEAT -1
    AUTOMODE 0
    VOLPAN 1 0 -1 -1 1
    MUTESOLO 0 0 0
    IPHASE 0
    PLAYOFFS 0 1
    ISBUS 0 0
    BUSCOMP 0 0 0 0 0
    SHOWINMIX 1 0.6667 0.5 1 0.5 0 -1 0
    FREEMODE 0
    SEL 0
    REC 0 0 1 0 0 0 0
    VU 2
    TRACKHEIGHT 0 1 0 0 -1 0
    INQ 0 0 0 0.5 100 0 0 100
    NCHAN 2
    FX 1
    TRACKID {77737CDF-8EC7-B840-BFAE-B724FB7C55B2}
    PERF 0
    MIDIOUT -1
    MAINSEND 1 0
    <ITEM
      POSITION 0
      SNAPOFFS 0
      LENGTH 0.535714
      LOOP 1
      ALLTAKES 0
      FADEIN 1 0 0 1 0 0
      FADEOUT 1 0 0 1 0 0
      MUTE 0 0
      SEL 0
      IGUID {BCD705F1-471D-4246-B2A2-265197D4166A}
      IID 22
      NAME "mission brand tortilla strips.mid"
      VOLPAN 1 0 1 -1
      SOFFS 0 0
      PLAYRATE 1 1 0 -1 0 0.0025
      CHANMODE 0
      GUID {77B47871-F503-3B40-A5B1-82FA75D3BA4D}
      <SOURCE MIDI
        HASDATA 1 128 QN
        CCINTERP 32
        POOLEDEVTS {B2F431B5-0BEF-9B40-804A-9A64DE99D449}
        E 128 b0 7b 00
        CCINTERP 32
        CHASE_CC_TAKEOFFS 1
        GUID {D648C3BD-8E32-6D49-AFCC-1342CCF1F9E2}
        IGNTEMPO 0 120 4 4
        SRCCOLOR 261
        VELLANE 3 601 0
        VELLANE -1 196 0
      >
    >
  >
  <TRACK {0C85C12E-6BE0-904B-9A69-6B01D66FB113}
    NAME "mission brand tortilla strips"
    PEAKCOL 16576
    BEAT -1
    AUTOMODE 0
    VOLPAN 1 0 -1 -1 1
    MUTESOLO 0 0 0
    IPHASE 0
    PLAYOFFS 0 1
    ISBUS 0 0
    BUSCOMP 0 0 0 0 0
    SHOWINMIX 1 0.6667 0.5 1 0.5 0 -1 0
    FREEMODE 0
    SEL 0
    REC 0 0 1 0 0 0 0
    VU 2
    TRACKHEIGHT 0 1 0 0 -1 0
    INQ 0 0 0 0.5 100 0 0 100
    NCHAN 2
    FX 1
    TRACKID {0C85C12E-6BE0-904B-9A69-6B01D66FB113}
    PERF 0
    MIDIOUT -1
    MAINSEND 1 0
    <ITEM
      POSITION 0
      SNAPOFFS 0
      LENGTH 282.856992
      LOOP 1
      ALLTAKES 0
      FADEIN 1 0 0 1 0 0
      FADEOUT 1 0 0 1 0 0
      MUTE 0 0
      SEL 0
      IGUID {3C8BA764-DAC4-5B48-9505-CD0DDB84993F}
      IID 23
      NAME "mission brand tortilla strips.mid"
      VOLPAN 1 0 1 -1
      SOFFS 0 0
      PLAYRATE 1 1 0 -1 0 0.0025
      CHANMODE 0
      GUID {7F2F5CA1-E6A1-1947-AD83-1D0E316C16AA}
      <SOURCE MIDI
        HASDATA 1 128 QN
        CCINTERP 32
        POOLEDEVTS {14CD6AB6-91D8-5242-B909-239F1B28980B}
        E 13 ba 08 19
        E 13 ba 08 1a
        E 13 ba 08 1c
        E 13 ba 08 1d
        E 13 ba 08 1e
        E 13 ba 08 1f
        E 13 ba 08 20
        E 13 ba 08 22
        E 13 ba 08 23
        E 13 ba 08 24
        E 13 ba 08 25
        E 13 ba 08 26
        E 13 ba 08 27
        E 13 ba 08 28
        E 13 ba 08 29
        E 13 ba 08 2a
        E 13 ba 08 2b
        E 13 ba 08 2c
        E 13 ba 08 2d
        E 13 ba 08 2e
        E 13 ba 08 2e
        E 13 ba 08 2f
        E 13 ba 08 30
        E 13 ba 08 30
        E 13 ba 08 30
        E 13 ba 08 31
        E 13 ba 08 31
        E 13 ba 08 32
        E 13 ba 08 32
        E 13 ba 08 32
        E 13 ba 08 32
        E 13 ba 08 32
        E 13 ba 08 32
        E 13 ba 08 32
        E 13 ba 08 32
        E 13 ba 08 32
        E 13 ba 08 32
        E 13 ba 08 32
        E 13 ba 08 31
        E 13 ba 08 31
        E 13 ba 08 30
        E 13 ba 08 30
        E 13 ba 08 2f
        E 13 ba 08 2e
        E 13 ba 08 2e
        E 13 ba 08 2d
        E 13 ba 08 2c
        E 13 ba 08 2c
        E 13 ba 08 2b
        E 13 ba 08 2a
        E 13 ba 08 29
        E 13 ba 08 28
        E 13 ba 08 27
        E 13 ba 08 26
        E 13 ba 08 24
        E 13 ba 08 23
        E 13 ba 08 22
        E 13 ba 08 21
        E 13 ba 08 20
        E 13 ba 08 1f
        E 13 ba 08 1d
        E 13 ba 08 1c
        E 13 ba 08 1b
        E 13 ba 08 1a
        E 13 ba 08 18
        E 13 ba 08 17
        E 13 ba 08 16
        E 13 ba 08 15
        E 13 ba 08 13
        E 13 ba 08 12
        E 13 ba 08 11
        E 13 ba 08 10
        E 13 ba 08 0f
        E 13 ba 08 0e
        E 13 ba 08 0c
        E 13 ba 08 0b
        E 13 ba 08 0a
        E 13 ba 08 09
        E 13 ba 08 08
        E 13 ba 08 07
        E 13 ba 08 06
        E 13 ba 08 06
        E 13 ba 08 05
        E 13 ba 08 04
        E 13 ba 08 04
        E 13 ba 08 03
        E 13 ba 08 02
        E 13 ba 08 02
        E 13 ba 08 01
        E 13 ba 08 01
        E 13 ba 08 00
        E 13 ba 08 00
        E 13 ba 08 00
        E 13 ba 08 00
        E 13 ba 08 00
        E 13 ba 08 00
        E 13 ba 08 00
        E 13 ba 08 00
        E 13 ba 08 00
        E 13 ba 08 00
        E 13 ba 08 00
        E 13 ba 08 01
        E 13 ba 08 01
        E 13 ba 08 02
        E 13 ba 08 02
        E 13 ba 08 02
        E 13 ba 08 03
        E 13 ba 08 04
        E 13 ba 08 04
        E 13 ba 08 05
        E 13 ba 08 06
        E 13 ba 08 07
        E 13 ba 08 08
        E 13 ba 08 09
        E 13 ba 08 0a
        E 13 ba 08 0b
        E 13 ba 08 0c
        E 13 ba 08 0d
        E 13 ba 08 0e
        E 13 ba 08 0f
        E 13 ba 08 10
        E 13 ba 08 12
        E 13 ba 08 13
        E 13 ba 08 14
        E 13 ba 08 15
        E 13 ba 08 16
        E 13 ba 08 18
        E 13 ba 08 19
        E 61 ba 08 06
        E 61 ba 08 06
        E 61 ba 08 07
        E 61 ba 08 07
        E 61 ba 08 07
        E 61 ba 08 07
        E 61 ba 08 08
        E 61 ba 08 08
        E 61 ba 08 08
        E 61 ba 08 09
        E 61 ba 08 09
        E 61 ba 08 09
        E 61 ba 08 09
        E 61 ba 08 0a
        E 61 ba 08 0a
        E 61 ba 08 0a
        E 61 ba 08 0a
        E 61 ba 08 0b
        E 61 ba 08 0b
        E 61 ba 08 0b
        E 61 ba 08 0b
        E 61 ba 08 0b
        E 61 ba 08 0c
        E 61 ba 08 0c
        E 61 ba 08 0c
        E 61 ba 08 0c
        E 61 ba 08 0c
        E 61 ba 08 0c
        E 61 ba 08 0c
        E 61 ba 08 0c
        E 61 ba 08 0c
        E 61 ba 08 0c
        E 61 ba 08 0c
        E 61 ba 08 0c
        E 61 ba 08 0c
        E 61 ba 08 0c
        E 61 ba 08 0c
        E 61 ba 08 0c
        E 61 ba 08 0c
        E 61 ba 08 0c
        E 61 ba 08 0c
        E 61 ba 08 0c
        E 61 ba 08 0b
        E 61 ba 08 0b
        E 61 ba 08 0b
        E 61 ba 08 0b
        E 61 ba 08 0b
        E 61 ba 08 0b
        E 61 ba 08 0a
        E 61 ba 08 0a
        E 61 ba 08 0a
        E 61 ba 08 0a
        E 61 ba 08 09
        E 61 ba 08 09
        E 61 ba 08 09
        E 61 ba 08 08
        E 61 ba 08 08
        E 61 ba 08 08
        E 61 ba 08 08
        E 61 ba 08 07
        E 61 ba 08 07
        E 61 ba 08 07
        E 61 ba 08 06
        E 61 ba 08 06
        E 61 ba 08 06
        E 61 ba 08 05
        E 61 ba 08 05
        E 61 ba 08 05
        E 61 ba 08 04
        E 61 ba 08 04
        E 61 ba 08 04
        E 61 ba 08 04
        E 61 ba 08 03
        E 61 ba 08 03
        E 61 ba 08 03
        E 61 ba 08 02
        E 61 ba 08 02
        E 61 ba 08 02
        E 61 ba 08 02
        E 61 ba 08 01
        E 61 ba 08 01
        E 61 ba 08 01
        E 61 ba 08 01
        E 61 ba 08 01
        E 61 ba 08 01
        E 61 ba 08 00
        E 61 ba 08 00
        E 61 ba 08 00
        E 61 ba 08 00
        E 61 ba 08 00
        E 61 ba 08 00
        E 61 ba 08 00
        E 61 ba 08 00
        E 61 ba 08 00
        E 61 ba 08 00
        E 61 ba 08 00
        E 61 ba 08 00
        E 61 ba 08 00
        E 61 ba 08 00
        E 61 ba 08 00
        E 61 ba 08 00
        E 61 ba 08 00
        E 61 ba 08 00
        E 61 ba 08 00
        E 61 ba 08 00
        E 61 ba 08 00
        E 61 ba 08 00
        E 61 ba 08 01
        E 61 ba 08 01
        E 61 ba 08 01
        E 61 ba 08 01
        E 61 ba 08 01
        E 61 ba 08 02
        E 61 ba 08 02
        E 61 ba 08 02
        E 61 ba 08 02
        E 61 ba 08 03
        E 61 ba 08 03
        E 61 ba 08 03
        E 61 ba 08 03
        E 61 ba 08 04
        E 61 ba 08 04
        E 61 ba 08 04
        E 61 ba 08 05
        E 61 ba 08 05
        E 61 ba 08 05
        E 61 ba 08 06
        E 61 ba 08 06
        E 6 ba 08 0c
        E 6 ba 08 0d
        E 6 ba 08 0e
        E 6 ba 08 0e
        E 6 ba 08 0f
        E 6 ba 08 0f
        E 6 ba 08 10
        E 6 ba 08 11
        E 6 ba 08 11
        E 6 ba 08 12
        E 6 ba 08 12
        E 6 ba 08 13
        E 6 ba 08 13
        E 6 ba 08 14
        E 6 ba 08 14
        E 6 ba 08 15
        E 6 ba 08 15
        E 6 ba 08 16
        E 6 ba 08 16
        E 6 ba 08 17
        E 6 ba 08 17
        E 6 ba 08 17
        E 6 ba 08 18
        E 6 ba 08 18
        E 6 ba 08 18
        E 6 ba 08 18
        E 6 ba 08 18
        E 6 ba 08 19
        E 6 ba 08 19
        E 6 ba 08 19
        E 6 ba 08 19
        E 6 ba 08 19
        E 6 ba 08 19
        E 6 ba 08 19
        E 6 ba 08 19
        E 6 ba 08 19
        E 6 ba 08 19
        E 6 ba 08 19
        E 6 ba 08 18
        E 6 ba 08 18
        E 6 ba 08 18
        E 6 ba 08 18
        E 6 ba 08 17
        E 6 ba 08 17
        E 6 ba 08 17
        E 6 ba 08 16
        E 6 ba 08 16
        E 6 ba 08 16
        E 6 ba 08 15
        E 6 ba 08 15
        E 6 ba 08 14
        E 6 ba 08 14
        E 6 ba 08 13
        E 6 ba 08 13
        E 6 ba 08 12
        E 6 ba 08 11
        E 6 ba 08 11
        E 6 ba 08 10
        E 6 ba 08 10
        E 6 ba 08 0f
        E 6 ba 08 0e
        E 6 ba 08 0e
        E 6 ba 08 0d
        E 6 ba 08 0d
        E 6 ba 08 0c
        E 6 ba 08 0b
        E 6 ba 08 0b
        E 6 ba 08 0a
        E 6 ba 08 09
        E 6 ba 08 09
        E 6 ba 08 08
        E 6 ba 08 08
        E 6 ba 08 07
        E 6 ba 08 07
        E 6 ba 08 06
        E 6 ba 08 05
        E 6 ba 08 05
        E 6 ba 08 04
        E 6 ba 08 04
        E 6 ba 08 03
        E 6 ba 08 03
        E 6 ba 08 03
        E 6 ba 08 02
        E 6 ba 08 02
        E 6 ba 08 02
        E 6 ba 08 01
        E 6 ba 08 01
        E 6 ba 08 01
        E 6 ba 08 00
        E 6 ba 08 00
        E 6 ba 08 00
        E 6 ba 08 00
        E 6 ba 08 00
        E 6 ba 08 00
        E 6 ba 08 00
        E 6 ba 08 00
        E 6 ba 08 00
        E 6 ba 08 00
        E 6 ba 08 00
        E 6 ba 08 00
        E 6 ba 08 00
        E 6 ba 08 00
        E 6 ba 08 00
        E 6 ba 08 01
        E 6 ba 08 01
        E 6 ba 08 01
        E 6 ba 08 01
        E 6 ba 08 02
        E 6 ba 08 02
        E 6 ba 08 02
        E 6 ba 08 03
        E 6 ba 08 03
        E 6 ba 08 04
        E 6 ba 08 04
        E 6 ba 08 05
        E 6 ba 08 05
        E 6 ba 08 06
        E 6 ba 08 06
        E 6 ba 08 07
        E 6 ba 08 07
        E 6 ba 08 08
        E 6 ba 08 09
        E 6 ba 08 09
        E 6 ba 08 0a
        E 6 ba 08 0a
        E 6 ba 08 0b
        E 6 ba 08 0c
        E 6 ba 08 0c
        E 54 ba 08 19
        E 54 ba 08 1a
        E 54 ba 08 1c
        E 54 ba 08 1d
        E 54 ba 08 1e
        E 54 ba 08 1f
        E 54 ba 08 20
        E 54 ba 08 22
        E 54 ba 08 23
        E 54 ba 08 24
        E 54 ba 08 25
        E 54 ba 08 26
        E 54 ba 08 27
        E 54 ba 08 28
        E 54 ba 08 29
        E 54 ba 08 2a
        E 54 ba 08 2b
        E 54 ba 08 2c
        E 54 ba 08 2d
        E 54 ba 08 2e
        E 54 ba 08 2e
        E 54 ba 08 2f
        E 54 ba 08 30
        E 54 ba 08 30
        E 54 ba 08 30
        E 54 ba 08 31
        E 54 ba 08 31
        E 54 ba 08 32
        E 54 ba 08 32
        E 54 ba 08 32
        E 54 ba 08 32
        E 54 ba 08 32
        E 54 ba 08 32
        E 54 ba 08 32
        E 54 ba 08 32
        E 54 ba 08 32
        E 54 ba 08 32
        E 54 ba 08 32
        E 54 ba 08 31
        E 54 ba 08 31
        E 54 ba 08 30
        E 54 ba 08 30
        E 54 ba 08 2f
        E 54 ba 08 2e
        E 54 ba 08 2e
        E 54 ba 08 2d
        E 54 ba 08 2c
        E 54 ba 08 2c
        E 54 ba 08 2b
        E 54 ba 08 2a
        E 54 ba 08 29
        E 54 ba 08 28
        E 54 ba 08 27
        E 54 ba 08 26
        E 54 ba 08 24
        E 54 ba 08 23
        E 54 ba 08 22
        E 54 ba 08 21
        E 54 ba 08 20
        E 54 ba 08 1f
        E 54 ba 08 1d
        E 54 ba 08 1c
        E 54 ba 08 1b
        E 54 ba 08 1a
        E 54 ba 08 18
        E 54 ba 08 17
        E 54 ba 08 16
        E 54 ba 08 15
        E 54 ba 08 13
        E 54 ba 08 12
        E 54 ba 08 11
        E 54 ba 08 10
        E 54 ba 08 0f
        E 54 ba 08 0e
        E 54 ba 08 0c
        E 54 ba 08 0b
        E 54 ba 08 0a
        E 54 ba 08 09
        E 54 ba 08 08
        E 54 ba 08 07
        E 54 ba 08 06
        E 54 ba 08 06
        E 54 ba 08 05
        E 54 ba 08 04
        E 54 ba 08 04
        E 54 ba 08 03
        E 54 ba 08 02
        E 54 ba 08 02
        E 54 ba 08 01
        E 54 ba 08 01
        E 54 ba 08 00
        E 54 ba 08 00
        E 54 ba 08 00
        E 54 ba 08 00
        E 54 ba 08 00
        E 54 ba 08 00
        E 54 ba 08 00
        E 54 ba 08 00
        E 54 ba 08 00
        E 54 ba 08 00
        E 54 ba 08 00
        E 54 ba 08 01
        E 54 ba 08 01
        E 54 ba 08 02
        E 54 ba 08 02
        E 54 ba 08 02
        E 54 ba 08 03
        E 54 ba 08 04
        E 54 ba 08 04
        E 54 ba 08 05
        E 54 ba 08 06
        E 54 ba 08 07
        E 54 ba 08 08
        E 54 ba 08 09
        E 54 ba 08 0a
        E 54 ba 08 0b
        E 54 ba 08 0c
        E 54 ba 08 0d
        E 54 ba 08 0e
        E 54 ba 08 0f
        E 54 ba 08 10
        E 54 ba 08 12
        E 54 ba 08 13
        E 54 ba 08 14
        E 54 ba 08 15
        E 54 ba 08 16
        E 54 ba 08 18
        E 54 ba 08 19
        E 54 ba 08 06
        E 54 ba 08 06
        E 54 ba 08 07
        E 54 ba 08 07
        E 54 ba 08 07
        E 54 ba 08 07
        E 54 ba 08 08
        E 54 ba 08 08
        E 54 ba 08 08
        E 54 ba 08 09
        E 54 ba 08 09
        E 54 ba 08 09
        E 54 ba 08 09
        E 54 ba 08 0a
        E 54 ba 08 0a
        E 54 ba 08 0a
        E 54 ba 08 0a
        E 54 ba 08 0b
        E 54 ba 08 0b
        E 54 ba 08 0b
        E 54 ba 08 0b
        E 54 ba 08 0b
        E 54 ba 08 0c
        E 54 ba 08 0c
        E 54 ba 08 0c
        E 54 ba 08 0c
        E 54 ba 08 0c
        E 54 ba 08 0c
        E 54 ba 08 0c
        E 54 ba 08 0c
        E 54 ba 08 0c
        E 54 ba 08 0c
        E 54 ba 08 0c
        E 54 ba 08 0c
        E 54 ba 08 0c
        E 54 ba 08 0c
        E 54 ba 08 0c
        E 54 ba 08 0c
        E 54 ba 08 0c
        E 54 ba 08 0c
        E 54 ba 08 0c
        E 54 ba 08 0c
        E 54 ba 08 0b
        E 54 ba 08 0b
        E 54 ba 08 0b
        E 54 ba 08 0b
        E 54 ba 08 0b
        E 54 ba 08 0b
        E 54 ba 08 0a
        E 54 ba 08 0a
        E 54 ba 08 0a
        E 54 ba 08 0a
        E 54 ba 08 09
        E 54 ba 08 09
        E 54 ba 08 09
        E 54 ba 08 08
        E 54 ba 08 08
        E 54 ba 08 08
        E 54 ba 08 08
        E 54 ba 08 07
        E 54 ba 08 07
        E 54 ba 08 07
        E 54 ba 08 06
        E 54 ba 08 06
        E 54 ba 08 06
        E 54 ba 08 05
        E 54 ba 08 05
        E 54 ba 08 05
        E 54 ba 08 04
        E 54 ba 08 04
        E 54 ba 08 04
        E 54 ba 08 04
        E 54 ba 08 03
        E 54 ba 08 03
        E 54 ba 08 03
        E 54 ba 08 02
        E 54 ba 08 02
        E 54 ba 08 02
        E 54 ba 08 02
        E 54 ba 08 01
        E 54 ba 08 01
        E 54 ba 08 01
        E 54 ba 08 01
        E 54 ba 08 01
        E 54 ba 08 01
        E 54 ba 08 00
        E 54 ba 08 00
        E 54 ba 08 00
        E 54 ba 08 00
        E 54 ba 08 00
        E 54 ba 08 00
        E 54 ba 08 00
        E 54 ba 08 00
        E 54 ba 08 00
        E 54 ba 08 00
        E 54 ba 08 00
        E 54 ba 08 00
        E 54 ba 08 00
        E 54 ba 08 00
        E 54 ba 08 00
        E 54 ba 08 00
        E 54 ba 08 00
        E 54 ba 08 00
        E 54 ba 08 00
        E 54 ba 08 00
        E 54 ba 08 00
        E 54 ba 08 00
        E 54 ba 08 01
        E 54 ba 08 01
        E 54 ba 08 01
        E 54 ba 08 01
        E 54 ba 08 01
        E 54 ba 08 02
        E 54 ba 08 02
        E 54 ba 08 02
        E 54 ba 08 02
        E 54 ba 08 03
        E 54 ba 08 03
        E 54 ba 08 03
        E 54 ba 08 03
        E 54 ba 08 04
        E 54 ba 08 04
        E 54 ba 08 04
        E 54 ba 08 05
        E 54 ba 08 05
        E 54 ba 08 05
        E 54 ba 08 06
        E 54 ba 08 06
        E 54 ba 08 19
        E 54 ba 08 1a
        E 54 ba 08 1c
        E 54 ba 08 1d
        E 54 ba 08 1e
        E 54 ba 08 1f
        E 54 ba 08 20
        E 54 ba 08 22
        E 54 ba 08 23
        E 54 ba 08 24
        E 54 ba 08 25
        E 54 ba 08 26
        E 54 ba 08 27
        E 54 ba 08 28
        E 54 ba 08 29
        E 54 ba 08 2a
        E 54 ba 08 2b
        E 54 ba 08 2c
        E 54 ba 08 2d
        E 54 ba 08 2e
        E 54 ba 08 2e
        E 54 ba 08 2f
        E 54 ba 08 30
        E 54 ba 08 30
        E 54 ba 08 30
        E 54 ba 08 31
        E 54 ba 08 31
        E 54 ba 08 32
        E 54 ba 08 32
        E 54 ba 08 32
        E 54 ba 08 32
        E 54 ba 08 32
        E 54 ba 08 32
        E 54 ba 08 32
        E 54 ba 08 32
        E 54 ba 08 32
        E 54 ba 08 32
        E 54 ba 08 32
        E 54 ba 08 31
        E 54 ba 08 31
        E 54 ba 08 30
        E 54 ba 08 30
        E 54 ba 08 2f
        E 54 ba 08 2e
        E 54 ba 08 2e
        E 54 ba 08 2d
        E 54 ba 08 2c
        E 54 ba 08 2c
        E 54 ba 08 2b
        E 54 ba 08 2a
        E 54 ba 08 29
        E 54 ba 08 28
        E 54 ba 08 27
        E 54 ba 08 26
        E 54 ba 08 24
        E 54 ba 08 23
        E 54 ba 08 22
        E 54 ba 08 21
        E 54 ba 08 20
        E 54 ba 08 1f
        E 54 ba 08 1d
        E 54 ba 08 1c
        E 54 ba 08 1b
        E 54 ba 08 1a
        E 54 ba 08 18
        E 54 ba 08 17
        E 54 ba 08 16
        E 54 ba 08 15
        E 54 ba 08 13
        E 54 ba 08 12
        E 54 ba 08 11
        E 54 ba 08 10
        E 54 ba 08 0f
        E 54 ba 08 0e
        E 54 ba 08 0c
        E 54 ba 08 0b
        E 54 ba 08 0a
        E 54 ba 08 09
        E 54 ba 08 08
        E 54 ba 08 07
        E 54 ba 08 06
        E 54 ba 08 06
        E 54 ba 08 05
        E 54 ba 08 04
        E 54 ba 08 04
        E 54 ba 08 03
        E 54 ba 08 02
        E 54 ba 08 02
        E 54 ba 08 01
        E 54 ba 08 01
        E 54 ba 08 00
        E 54 ba 08 00
        E 54 ba 08 00
        E 54 ba 08 00
        E 54 ba 08 00
        E 54 ba 08 00
        E 54 ba 08 00
        E 54 ba 08 00
        E 54 ba 08 00
        E 54 ba 08 00
        E 54 ba 08 00
        E 54 ba 08 01
        E 54 ba 08 01
        E 54 ba 08 02
        E 54 ba 08 02
        E 54 ba 08 02
        E 54 ba 08 03
        E 54 ba 08 04
        E 54 ba 08 04
        E 54 ba 08 05
        E 54 ba 08 06
        E 54 ba 08 07
        E 54 ba 08 08
        E 54 ba 08 09
        E 54 ba 08 0a
        E 54 ba 08 0b
        E 54 ba 08 0c
        E 54 ba 08 0d
        E 54 ba 08 0e
        E 54 ba 08 0f
        E 54 ba 08 10
        E 54 ba 08 12
        E 54 ba 08 13
        E 54 ba 08 14
        E 54 ba 08 15
        E 54 ba 08 16
        E 54 ba 08 18
        E 54 ba 08 19
        E 13 ba 08 19
        E 13 ba 08 1a
        E 13 ba 08 1c
        E 13 ba 08 1d
        E 13 ba 08 1e
        E 13 ba 08 1f
        E 13 ba 08 20
        E 13 ba 08 22
        E 13 ba 08 23
        E 13 ba 08 24
        E 13 ba 08 25
        E 13 ba 08 26
        E 13 ba 08 27
        E 13 ba 08 28
        E 13 ba 08 29
        E 13 ba 08 2a
        E 13 ba 08 2b
        E 13 ba 08 2c
        E 13 ba 08 2d
        E 13 ba 08 2e
        E 13 ba 08 2e
        E 13 ba 08 2f
        E 13 ba 08 30
        E 13 ba 08 30
        E 13 ba 08 30
        E 13 ba 08 31
        E 13 ba 08 31
        E 13 ba 08 32
        E 13 ba 08 32
        E 13 ba 08 32
        E 13 ba 08 32
        E 13 ba 08 32
        E 13 ba 08 32
        E 13 ba 08 32
        E 13 ba 08 32
        E 13 ba 08 32
        E 13 ba 08 32
        E 13 ba 08 32
        E 13 ba 08 31
        E 13 ba 08 31
        E 13 ba 08 30
        E 13 ba 08 30
        E 13 ba 08 2f
        E 13 ba 08 2e
        E 13 ba 08 2e
        E 13 ba 08 2d
        E 13 ba 08 2c
        E 13 ba 08 2c
        E 13 ba 08 2b
        E 13 ba 08 2a
        E 13 ba 08 29
        E 13 ba 08 28
        E 13 ba 08 27
        E 13 ba 08 26
        E 13 ba 08 24
        E 13 ba 08 23
        E 13 ba 08 22
        E 13 ba 08 21
        E 13 ba 08 20
        E 13 ba 08 1f
        E 13 ba 08 1d
        E 13 ba 08 1c
        E 13 ba 08 1b
        E 13 ba 08 1a
        E 13 ba 08 18
        E 13 ba 08 17
        E 13 ba 08 16
        E 13 ba 08 15
        E 13 ba 08 13
        E 13 ba 08 12
        E 13 ba 08 11
        E 13 ba 08 10
        E 13 ba 08 0f
        E 13 ba 08 0e
        E 13 ba 08 0c
        E 13 ba 08 0b
        E 13 ba 08 0a
        E 13 ba 08 09
        E 13 ba 08 08
        E 13 ba 08 07
        E 13 ba 08 06
        E 13 ba 08 06
        E 13 ba 08 05
        E 13 ba 08 04
        E 13 ba 08 04
        E 13 ba 08 03
        E 13 ba 08 02
        E 13 ba 08 02
        E 13 ba 08 01
        E 13 ba 08 01
        E 13 ba 08 00
        E 13 ba 08 00
        E 13 ba 08 00
        E 13 ba 08 00
        E 13 ba 08 00
        E 13 ba 08 00
        E 13 ba 08 00
        E 13 ba 08 00
        E 13 ba 08 00
        E 13 ba 08 00
        E 13 ba 08 00
        E 13 ba 08 01
        E 13 ba 08 01
        E 13 ba 08 02
        E 13 ba 08 02
        E 13 ba 08 02
        E 13 ba 08 03
        E 13 ba 08 04
        E 13 ba 08 04
        E 13 ba 08 05
        E 13 ba 08 06
        E 13 ba 08 07
        E 13 ba 08 08
        E 13 ba 08 09
        E 13 ba 08 0a
        E 13 ba 08 0b
        E 13 ba 08 0c
        E 13 ba 08 0d
        E 13 ba 08 0e
        E 13 ba 08 0f
        E 13 ba 08 10
        E 13 ba 08 12
        E 13 ba 08 13
        E 13 ba 08 14
        E 13 ba 08 15
        E 13 ba 08 16
        E 13 ba 08 18
        E 13 ba 08 19
        E 61 ba 08 06
        E 61 ba 08 06
        E 61 ba 08 07
        E 61 ba 08 07
        E 61 ba 08 07
        E 61 ba 08 07
        E 61 ba 08 08
        E 61 ba 08 08
        E 61 ba 08 08
        E 61 ba 08 09
        E 61 ba 08 09
        E 61 ba 08 09
        E 61 ba 08 09
        E 61 ba 08 0a
        E 61 ba 08 0a
        E 61 ba 08 0a
        E 61 ba 08 0a
        E 61 ba 08 0b
        E 61 ba 08 0b
        E 61 ba 08 0b
        E 61 ba 08 0b
        E 61 ba 08 0b
        E 61 ba 08 0c
        E 61 ba 08 0c
        E 61 ba 08 0c
        E 61 ba 08 0c
        E 61 ba 08 0c
        E 61 ba 08 0c
        E 61 ba 08 0c
        E 61 ba 08 0c
        E 61 ba 08 0c
        E 61 ba 08 0c
        E 61 ba 08 0c
        E 61 ba 08 0c
        E 61 ba 08 0c
        E 61 ba 08 0c
        E 61 ba 08 0c
        E 61 ba 08 0c
        E 61 ba 08 0c
        E 61 ba 08 0c
        E 61 ba 08 0c
        E 61 ba 08 0c
        E 61 ba 08 0b
        E 61 ba 08 0b
        E 61 ba 08 0b
        E 61 ba 08 0b
        E 61 ba 08 0b
        E 61 ba 08 0b
        E 61 ba 08 0a
        E 61 ba 08 0a
        E 61 ba 08 0a
        E 61 ba 08 0a
        E 61 ba 08 09
        E 61 ba 08 09
        E 61 ba 08 09
        E 61 ba 08 08
        E 61 ba 08 08
        E 61 ba 08 08
        E 61 ba 08 08
        E 61 ba 08 07
        E 61 ba 08 07
        E 61 ba 08 07
        E 61 ba 08 06
        E 61 ba 08 06
        E 61 ba 08 06
        E 61 ba 08 05
        E 61 ba 08 05
        E 61 ba 08 05
        E 61 ba 08 04
        E 61 ba 08 04
        E 61 ba 08 04
        E 61 ba 08 04
        E 61 ba 08 03
        E 61 ba 08 03
        E 61 ba 08 03
        E 61 ba 08 02
        E 61 ba 08 02
        E 61 ba 08 02
        E 61 ba 08 02
        E 61 ba 08 01
        E 61 ba 08 01
        E 61 ba 08 01
        E 61 ba 08 01
        E 61 ba 08 01
        E 61 ba 08 01
        E 61 ba 08 00
        E 61 ba 08 00
        E 61 ba 08 00
        E 61 ba 08 00
        E 61 ba 08 00
        E 61 ba 08 00
        E 61 ba 08 00
        E 61 ba 08 00
        E 61 ba 08 00
        E 61 ba 08 00
        E 61 ba 08 00
        E 61 ba 08 00
        E 61 ba 08 00
        E 61 ba 08 00
        E 61 ba 08 00
        E 61 ba 08 00
        E 61 ba 08 00
        E 61 ba 08 00
        E 61 ba 08 00
        E 61 ba 08 00
        E 61 ba 08 00
        E 61 ba 08 00
        E 61 ba 08 01
        E 61 ba 08 01
        E 61 ba 08 01
        E 61 ba 08 01
        E 61 ba 08 01
        E 61 ba 08 02
        E 61 ba 08 02
        E 61 ba 08 02
        E 61 ba 08 02
        E 61 ba 08 03
        E 61 ba 08 03
        E 61 ba 08 03
        E 61 ba 08 03
        E 61 ba 08 04
        E 61 ba 08 04
        E 61 ba 08 04
        E 61 ba 08 05
        E 61 ba 08 05
        E 61 ba 08 05
        E 61 ba 08 06
        E 61 ba 08 06
        E 6 ba 08 0c
        E 6 ba 08 0d
        E 6 ba 08 0e
        E 6 ba 08 0e
        E 6 ba 08 0f
        E 6 ba 08 0f
        E 6 ba 08 10
        E 6 ba 08 11
        E 6 ba 08 11
        E 6 ba 08 12
        E 6 ba 08 12
        E 6 ba 08 13
        E 6 ba 08 13
        E 6 ba 08 14
        E 6 ba 08 14
        E 6 ba 08 15
        E 6 ba 08 15
        E 6 ba 08 16
        E 6 ba 08 16
        E 6 ba 08 17
        E 6 ba 08 17
        E 6 ba 08 17
        E 6 ba 08 18
        E 6 ba 08 18
        E 6 ba 08 18
        E 6 ba 08 18
        E 6 ba 08 18
        E 6 ba 08 19
        E 6 ba 08 19
        E 6 ba 08 19
        E 6 ba 08 19
        E 6 ba 08 19
        E 6 ba 08 19
        E 6 ba 08 19
        E 6 ba 08 19
        E 6 ba 08 19
        E 6 ba 08 19
        E 6 ba 08 19
        E 6 ba 08 18
        E 6 ba 08 18
        E 6 ba 08 18
        E 6 ba 08 18
        E 6 ba 08 17
        E 6 ba 08 17
        E 6 ba 08 17
        E 6 ba 08 16
        E 6 ba 08 16
        E 6 ba 08 16
        E 6 ba 08 15
        E 6 ba 08 15
        E 6 ba 08 14
        E 6 ba 08 14
        E 6 ba 08 13
        E 6 ba 08 13
        E 6 ba 08 12
        E 6 ba 08 11
        E 6 ba 08 11
        E 6 ba 08 10
        E 6 ba 08 10
        E 6 ba 08 0f
        E 6 ba 08 0e
        E 6 ba 08 0e
        E 6 ba 08 0d
        E 6 ba 08 0d
        E 6 ba 08 0c
        E 6 ba 08 0b
        E 6 ba 08 0b
        E 6 ba 08 0a
        E 6 ba 08 09
        E 6 ba 08 09
        E 6 ba 08 08
        E 6 ba 08 08
        E 6 ba 08 07
        E 6 ba 08 07
        E 6 ba 08 06
        E 6 ba 08 05
        E 6 ba 08 05
        E 6 ba 08 04
        E 6 ba 08 04
        E 6 ba 08 03
        E 6 ba 08 03
        E 6 ba 08 03
        E 6 ba 08 02
        E 6 ba 08 02
        E 6 ba 08 02
        E 6 ba 08 01
        E 6 ba 08 01
        E 6 ba 08 01
        E 6 ba 08 00
        E 6 ba 08 00
        E 6 ba 08 00
        E 6 ba 08 00
        E 6 ba 08 00
        E 6 ba 08 00
        E 6 ba 08 00
        E 6 ba 08 00
        E 6 ba 08 00
        E 6 ba 08 00
        E 6 ba 08 00
        E 6 ba 08 00
        E 6 ba 08 00
        E 6 ba 08 00
        E 6 ba 08 00
        E 6 ba 08 01
        E 6 ba 08 01
        E 6 ba 08 01
        E 6 ba 08 01
        E 6 ba 08 02
        E 6 ba 08 02
        E 6 ba 08 02
        E 6 ba 08 03
        E 6 ba 08 03
        E 6 ba 08 04
        E 6 ba 08 04
        E 6 ba 08 05
        E 6 ba 08 05
        E 6 ba 08 06
        E 6 ba 08 06
        E 6 ba 08 07
        E 6 ba 08 07
        E 6 ba 08 08
        E 6 ba 08 09
        E 6 ba 08 09
        E 6 ba 08 0a
        E 6 ba 08 0a
        E 6 ba 08 0b
        E 6 ba 08 0c
        E 6 ba 08 0c
        E 11 ba 08 0b
        E 11 ba 08 26
        E 11 ba 08 19
        E 11 ba 08 04
        E 11 ba 08 24
        E 11 ba 08 20
        E 11 ba 08 04
        E 11 ba 08 04
        E 11 ba 08 18
        E 11 ba 08 30
        E 11 ba 08 28
        E 11 ba 08 2c
        E 11 ba 08 1f
        E 11 ba 08 05
        E 11 ba 08 09
        E 11 ba 08 22
        E 11 ba 08 1c
        E 11 ba 08 0e
        E 11 ba 08 0a
        E 11 ba 08 0d
        E 11 ba 08 27
        E 11 ba 08 17
        E 11 ba 08 0c
        E 11 ba 08 1d
        E 11 ba 08 32
        E 11 ba 08 00
        E 11 ba 08 06
        E 11 ba 08 14
        E 11 ba 08 11
        E 11 ba 08 29
        E 11 ba 08 0a
        E 11 ba 08 03
        E 11 ba 08 08
        E 11 ba 08 08
        E 11 ba 08 2e
        E 11 ba 08 0c
        E 11 ba 08 00
        E 11 ba 08 25
        E 11 ba 08 11
        E 11 ba 08 0a
        E 11 ba 08 14
        E 11 ba 08 0d
        E 11 ba 08 2b
        E 11 ba 08 2a
        E 11 ba 08 32
        E 11 ba 08 2a
        E 11 ba 08 16
        E 11 ba 08 2f
        E 11 ba 08 24
        E 11 ba 08 06
        E 11 ba 08 16
        E 11 ba 08 1b
        E 11 ba 08 30
        E 11 ba 08 26
        E 11 ba 08 1b
        E 11 ba 08 1c
        E 11 ba 08 02
        E 11 ba 08 05
        E 11 ba 08 2e
        E 11 ba 08 28
        E 11 ba 08 15
        E 11 ba 08 10
        E 11 ba 08 06
        E 11 ba 08 16
        E 11 ba 08 0f
        E 11 ba 08 0c
        E 11 ba 08 13
        E 11 ba 08 1a
        E 11 ba 08 1e
        E 11 ba 08 20
        E 11 ba 08 08
        E 11 ba 08 1e
        E 11 ba 08 2d
        E 11 ba 08 1a
        E 11 ba 08 1d
        E 11 ba 08 01
        E 11 ba 08 03
        E 11 ba 08 32
        E 11 ba 08 21
        E 11 ba 08 09
        E 11 ba 08 2e
        E 11 ba 08 10
        E 11 ba 08 13
        E 11 ba 08 18
        E 11 ba 08 14
        E 11 ba 08 22
        E 11 ba 08 29
        E 11 ba 08 0e
        E 11 ba 08 1c
        E 11 ba 08 0b
        E 11 ba 08 2d
        E 11 ba 08 2a
        E 11 ba 08 17
        E 11 ba 08 12
        E 11 ba 08 28
        E 11 ba 08 12
        E 11 ba 08 23
        E 11 ba 08 07
        E 11 ba 08 00
        E 11 ba 08 10
        E 11 ba 08 19
        E 11 ba 08 2b
        E 11 ba 08 27
        E 11 ba 08 01
        E 11 ba 08 2c
        E 11 ba 08 25
        E 11 ba 08 02
        E 11 ba 08 0f
        E 11 ba 08 1e
        E 11 ba 08 26
        E 11 ba 08 30
        E 11 ba 08 1f
        E 11 ba 08 15
        E 11 ba 08 0e
        E 11 ba 08 23
        E 11 ba 08 24
        E 11 ba 08 2c
        E 11 ba 08 31
        E 11 ba 08 18
        E 11 ba 08 20
        E 11 ba 08 22
        E 11 ba 08 1a
        E 11 ba 08 2f
        E 11 ba 08 07
        E 11 ba 08 12
        E 11 ba 08 21
        E 3 ba 08 0b
        E 3 ba 08 26
        E 3 ba 08 19
        E 3 ba 08 04
        E 3 ba 08 24
        E 3 ba 08 20
        E 3 ba 08 04
        E 3 ba 08 04
        E 3 ba 08 18
        E 3 ba 08 30
        E 3 ba 08 28
        E 3 ba 08 2c
        E 3 ba 08 1f
        E 3 ba 08 05
        E 3 ba 08 09
        E 3 ba 08 22
        E 3 ba 08 1c
        E 3 ba 08 0e
        E 3 ba 08 0a
        E 3 ba 08 0d
        E 3 ba 08 27
        E 3 ba 08 17
        E 3 ba 08 0c
        E 3 ba 08 1d
        E 3 ba 08 32
        E 3 ba 08 00
        E 3 ba 08 06
        E 3 ba 08 14
        E 3 ba 08 11
        E 3 ba 08 29
        E 3 ba 08 0a
        E 3 ba 08 03
        E 3 ba 08 08
        E 3 ba 08 08
        E 3 ba 08 2e
        E 3 ba 08 0c
        E 3 ba 08 00
        E 3 ba 08 25
        E 3 ba 08 11
        E 3 ba 08 0a
        E 3 ba 08 14
        E 3 ba 08 0d
        E 3 ba 08 2b
        E 3 ba 08 2a
        E 3 ba 08 32
        E 3 ba 08 2a
        E 3 ba 08 16
        E 3 ba 08 2f
        E 3 ba 08 24
        E 3 ba 08 06
        E 3 ba 08 16
        E 3 ba 08 1b
        E 3 ba 08 30
        E 3 ba 08 26
        E 3 ba 08 1b
        E 3 ba 08 1c
        E 3 ba 08 02
        E 3 ba 08 05
        E 3 ba 08 2e
        E 3 ba 08 28
        E 3 ba 08 15
        E 3 ba 08 10
        E 3 ba 08 06
        E 3 ba 08 16
        E 3 ba 08 0f
        E 3 ba 08 0c
        E 3 ba 08 13
        E 3 ba 08 1a
        E 3 ba 08 1e
        E 3 ba 08 20
        E 3 ba 08 08
        E 3 ba 08 1e
        E 3 ba 08 2d
        E 3 ba 08 1a
        E 3 ba 08 1d
        E 3 ba 08 01
        E 3 ba 08 03
        E 3 ba 08 32
        E 3 ba 08 21
        E 3 ba 08 09
        E 3 ba 08 2e
        E 3 ba 08 10
        E 3 ba 08 13
        E 3 ba 08 18
        E 3 ba 08 14
        E 3 ba 08 22
        E 3 ba 08 29
        E 3 ba 08 0e
        E 3 ba 08 1c
        E 3 ba 08 0b
        E 3 ba 08 2d
        E 3 ba 08 2a
        E 3 ba 08 17
        E 3 ba 08 12
        E 3 ba 08 28
        E 3 ba 08 12
        E 3 ba 08 23
        E 3 ba 08 07
        E 3 ba 08 00
        E 3 ba 08 10
        E 3 ba 08 19
        E 3 ba 08 2b
        E 3 ba 08 27
        E 3 ba 08 01
        E 3 ba 08 2c
        E 3 ba 08 25
        E 3 ba 08 02
        E 3 ba 08 0f
        E 3 ba 08 1e
        E 3 ba 08 26
        E 3 ba 08 30
        E 3 ba 08 1f
        E 3 ba 08 15
        E 3 ba 08 0e
        E 3 ba 08 23
        E 3 ba 08 24
        E 3 ba 08 2c
        E 3 ba 08 31
        E 3 ba 08 18
        E 3 ba 08 20
        E 3 ba 08 22
        E 3 ba 08 1a
        E 3 ba 08 2f
        E 3 ba 08 07
        E 3 ba 08 12
        E 3 ba 08 21
        E 59 ba 08 19
        E 59 ba 08 1a
        E 59 ba 08 1c
        E 59 ba 08 1d
        E 59 ba 08 1e
        E 59 ba 08 1f
        E 59 ba 08 20
        E 59 ba 08 22
        E 59 ba 08 23
        E 59 ba 08 24
        E 59 ba 08 25
        E 59 ba 08 26
        E 59 ba 08 27
        E 59 ba 08 28
        E 59 ba 08 29
        E 59 ba 08 2a
        E 59 ba 08 2b
        E 59 ba 08 2c
        E 59 ba 08 2d
        E 59 ba 08 2e
        E 59 ba 08 2e
        E 59 ba 08 2f
        E 59 ba 08 30
        E 59 ba 08 30
        E 59 ba 08 30
        E 59 ba 08 31
        E 59 ba 08 31
        E 59 ba 08 32
        E 59 ba 08 32
        E 59 ba 08 32
        E 59 ba 08 32
        E 59 ba 08 32
        E 59 ba 08 32
        E 59 ba 08 32
        E 59 ba 08 32
        E 59 ba 08 32
        E 59 ba 08 32
        E 59 ba 08 32
        E 59 ba 08 31
        E 59 ba 08 31
        E 59 ba 08 30
        E 59 ba 08 30
        E 59 ba 08 2f
        E 59 ba 08 2e
        E 59 ba 08 2e
        E 59 ba 08 2d
        E 59 ba 08 2c
        E 59 ba 08 2c
        E 59 ba 08 2b
        E 59 ba 08 2a
        E 59 ba 08 29
        E 59 ba 08 28
        E 59 ba 08 27
        E 59 ba 08 26
        E 59 ba 08 24
        E 59 ba 08 23
        E 59 ba 08 22
        E 59 ba 08 21
        E 59 ba 08 20
        E 59 ba 08 1f
        E 59 ba 08 1d
        E 59 ba 08 1c
        E 59 ba 08 1b
        E 59 ba 08 1a
        E 59 ba 08 18
        E 59 ba 08 17
        E 59 ba 08 16
        E 59 ba 08 15
        E 59 ba 08 13
        E 59 ba 08 12
        E 59 ba 08 11
        E 59 ba 08 10
        E 59 ba 08 0f
        E 59 ba 08 0e
        E 59 ba 08 0c
        E 59 ba 08 0b
        E 59 ba 08 0a
        E 59 ba 08 09
        E 59 ba 08 08
        E 59 ba 08 07
        E 59 ba 08 06
        E 59 ba 08 06
        E 59 ba 08 05
        E 59 ba 08 04
        E 59 ba 08 04
        E 59 ba 08 03
        E 59 ba 08 02
        E 59 ba 08 02
        E 59 ba 08 01
        E 59 ba 08 01
        E 59 ba 08 00
        E 59 ba 08 00
        E 59 ba 08 00
        E 59 ba 08 00
        E 59 ba 08 00
        E 59 ba 08 00
        E 59 ba 08 00
        E 59 ba 08 00
        E 59 ba 08 00
        E 59 ba 08 00
        E 59 ba 08 00
        E 59 ba 08 01
        E 59 ba 08 01
        E 59 ba 08 02
        E 59 ba 08 02
        E 59 ba 08 02
        E 59 ba 08 03
        E 59 ba 08 04
        E 59 ba 08 04
        E 59 ba 08 05
        E 59 ba 08 06
        E 59 ba 08 07
        E 59 ba 08 08
        E 59 ba 08 09
        E 59 ba 08 0a
        E 59 ba 08 0b
        E 59 ba 08 0c
        E 59 ba 08 0d
        E 59 ba 08 0e
        E 59 ba 08 0f
        E 59 ba 08 10
        E 59 ba 08 12
        E 59 ba 08 13
        E 59 ba 08 14
        E 59 ba 08 15
        E 59 ba 08 16
        E 59 ba 08 18
        E 59 ba 08 19
        E 59 ba 08 06
        E 59 ba 08 06
        E 59 ba 08 07
        E 59 ba 08 07
        E 59 ba 08 07
        E 59 ba 08 07
        E 59 ba 08 08
        E 59 ba 08 08
        E 59 ba 08 08
        E 59 ba 08 09
        E 59 ba 08 09
        E 59 ba 08 09
        E 59 ba 08 09
        E 59 ba 08 0a
        E 59 ba 08 0a
        E 59 ba 08 0a
        E 59 ba 08 0a
        E 59 ba 08 0b
        E 59 ba 08 0b
        E 59 ba 08 0b
        E 59 ba 08 0b
        E 59 ba 08 0b
        E 59 ba 08 0c
        E 59 ba 08 0c
        E 59 ba 08 0c
        E 59 ba 08 0c
        E 59 ba 08 0c
        E 59 ba 08 0c
        E 59 ba 08 0c
        E 59 ba 08 0c
        E 59 ba 08 0c
        E 59 ba 08 0c
        E 59 ba 08 0c
        E 59 ba 08 0c
        E 59 ba 08 0c
        E 59 ba 08 0c
        E 59 ba 08 0c
        E 59 ba 08 0c
        E 59 ba 08 0c
        E 59 ba 08 0c
        E 59 ba 08 0c
        E 59 ba 08 0c
        E 59 ba 08 0b
        E 59 ba 08 0b
        E 59 ba 08 0b
        E 59 ba 08 0b
        E 59 ba 08 0b
        E 59 ba 08 0b
        E 59 ba 08 0a
        E 59 ba 08 0a
        E 59 ba 08 0a
        E 59 ba 08 0a
        E 59 ba 08 09
        E 59 ba 08 09
        E 59 ba 08 09
        E 59 ba 08 08
        E 59 ba 08 08
        E 59 ba 08 08
        E 59 ba 08 08
        E 59 ba 08 07
        E 59 ba 08 07
        E 59 ba 08 07
        E 59 ba 08 06
        E 59 ba 08 06
        E 59 ba 08 06
        E 59 ba 08 05
        E 59 ba 08 05
        E 59 ba 08 05
        E 59 ba 08 04
        E 59 ba 08 04
        E 59 ba 08 04
        E 59 ba 08 04
        E 59 ba 08 03
        E 59 ba 08 03
        E 59 ba 08 03
        E 59 ba 08 02
        E 59 ba 08 02
        E 59 ba 08 02
        E 59 ba 08 02
        E 59 ba 08 01
        E 59 ba 08 01
        E 59 ba 08 01
        E 59 ba 08 01
        E 59 ba 08 01
        E 59 ba 08 01
        E 59 ba 08 00
        E 59 ba 08 00
        E 59 ba 08 00
        E 59 ba 08 00
        E 59 ba 08 00
        E 59 ba 08 00
        E 59 ba 08 00
        E 59 ba 08 00
        E 59 ba 08 00
        E 59 ba 08 00
        E 59 ba 08 00
        E 59 ba 08 00
        E 59 ba 08 00
        E 59 ba 08 00
        E 59 ba 08 00
        E 59 ba 08 00
        E 59 ba 08 00
        E 59 ba 08 00
        E 59 ba 08 00
        E 59 ba 08 00
        E 59 ba 08 00
        E 59 ba 08 00
        E 59 ba 08 01
        E 59 ba 08 01
        E 59 ba 08 01
        E 59 ba 08 01
        E 59 ba 08 01
        E 59 ba 08 02
        E 59 ba 08 02
        E 59 ba 08 02
        E 59 ba 08 02
        E 59 ba 08 03
        E 59 ba 08 03
        E 59 ba 08 03
        E 59 ba 08 03
        E 59 ba 08 04
        E 59 ba 08 04
        E 59 ba 08 04
        E 59 ba 08 05
        E 59 ba 08 05
        E 59 ba 08 05
        E 59 ba 08 06
        E 59 ba 08 06
        E 59 ba 08 19
        E 59 ba 08 1a
        E 59 ba 08 1c
        E 59 ba 08 1d
        E 59 ba 08 1e
        E 59 ba 08 1f
        E 59 ba 08 20
        E 59 ba 08 22
        E 59 ba 08 23
        E 59 ba 08 24
        E 59 ba 08 25
        E 59 ba 08 26
        E 59 ba 08 27
        E 59 ba 08 28
        E 59 ba 08 29
        E 59 ba 08 2a
        E 59 ba 08 2b
        E 59 ba 08 2c
        E 59 ba 08 2d
        E 59 ba 08 2e
        E 59 ba 08 2e
        E 59 ba 08 2f
        E 59 ba 08 30
        E 59 ba 08 30
        E 59 ba 08 30
        E 59 ba 08 31
        E 59 ba 08 31
        E 59 ba 08 32
        E 59 ba 08 32
        E 59 ba 08 32
        E 59 ba 08 32
        E 59 ba 08 32
        E 59 ba 08 32
        E 59 ba 08 32
        E 59 ba 08 32
        E 59 ba 08 32
        E 59 ba 08 32
        E 59 ba 08 32
        E 59 ba 08 31
        E 59 ba 08 31
        E 59 ba 08 30
        E 59 ba 08 30
        E 59 ba 08 2f
        E 59 ba 08 2e
        E 59 ba 08 2e
        E 59 ba 08 2d
        E 59 ba 08 2c
        E 59 ba 08 2c
        E 59 ba 08 2b
        E 59 ba 08 2a
        E 59 ba 08 29
        E 59 ba 08 28
        E 59 ba 08 27
        E 59 ba 08 26
        E 59 ba 08 24
        E 59 ba 08 23
        E 59 ba 08 22
        E 59 ba 08 21
        E 59 ba 08 20
        E 59 ba 08 1f
        E 59 ba 08 1d
        E 59 ba 08 1c
        E 59 ba 08 1b
        E 59 ba 08 1a
        E 59 ba 08 18
        E 59 ba 08 17
        E 59 ba 08 16
        E 59 ba 08 15
        E 59 ba 08 13
        E 59 ba 08 12
        E 59 ba 08 11
        E 59 ba 08 10
        E 59 ba 08 0f
        E 59 ba 08 0e
        E 59 ba 08 0c
        E 59 ba 08 0b
        E 59 ba 08 0a
        E 59 ba 08 09
        E 59 ba 08 08
        E 59 ba 08 07
        E 59 ba 08 06
        E 59 ba 08 06
        E 59 ba 08 05
        E 59 ba 08 04
        E 59 ba 08 04
        E 59 ba 08 03
        E 59 ba 08 02
        E 59 ba 08 02
        E 59 ba 08 01
        E 59 ba 08 01
        E 59 ba 08 00
        E 59 ba 08 00
        E 59 ba 08 00
        E 59 ba 08 00
        E 59 ba 08 00
        E 59 ba 08 00
        E 59 ba 08 00
        E 59 ba 08 00
        E 59 ba 08 00
        E 59 ba 08 00
        E 59 ba 08 00
        E 59 ba 08 01
        E 59 ba 08 01
        E 59 ba 08 02
        E 59 ba 08 02
        E 59 ba 08 02
        E 59 ba 08 03
        E 59 ba 08 04
        E 59 ba 08 04
        E 59 ba 08 05
        E 59 ba 08 06
        E 59 ba 08 07
        E 59 ba 08 08
        E 59 ba 08 09
        E 59 ba 08 0a
        E 59 ba 08 0b
        E 59 ba 08 0c
        E 59 ba 08 0d
        E 59 ba 08 0e
        E 59 ba 08 0f
        E 59 ba 08 10
        E 59 ba 08 12
        E 59 ba 08 13
        E 59 ba 08 14
        E 59 ba 08 15
        E 59 ba 08 16
        E 59 ba 08 18
        E 59 ba 08 19
        E 15 ba 08 19
        E 15 ba 08 1a
        E 15 ba 08 1c
        E 15 ba 08 1d
        E 15 ba 08 1e
        E 15 ba 08 1f
        E 15 ba 08 20
        E 15 ba 08 22
        E 15 ba 08 23
        E 15 ba 08 24
        E 15 ba 08 25
        E 15 ba 08 26
        E 15 ba 08 27
        E 15 ba 08 28
        E 15 ba 08 29
        E 15 ba 08 2a
        E 15 ba 08 2b
        E 15 ba 08 2c
        E 15 ba 08 2d
        E 15 ba 08 2e
        E 15 ba 08 2e
        E 15 ba 08 2f
        E 15 ba 08 30
        E 15 ba 08 30
        E 15 ba 08 30
        E 15 ba 08 31
        E 15 ba 08 31
        E 15 ba 08 32
        E 15 ba 08 32
        E 15 ba 08 32
        E 15 ba 08 32
        E 15 ba 08 32
        E 15 ba 08 32
        E 15 ba 08 32
        E 15 ba 08 32
        E 15 ba 08 32
        E 15 ba 08 32
        E 15 ba 08 32
        E 15 ba 08 31
        E 15 ba 08 31
        E 15 ba 08 30
        E 15 ba 08 30
        E 15 ba 08 2f
        E 15 ba 08 2e
        E 15 ba 08 2e
        E 15 ba 08 2d
        E 15 ba 08 2c
        E 15 ba 08 2c
        E 15 ba 08 2b
        E 15 ba 08 2a
        E 15 ba 08 29
        E 15 ba 08 28
        E 15 ba 08 27
        E 15 ba 08 26
        E 15 ba 08 24
        E 15 ba 08 23
        E 15 ba 08 22
        E 15 ba 08 21
        E 15 ba 08 20
        E 15 ba 08 1f
        E 15 ba 08 1d
        E 15 ba 08 1c
        E 15 ba 08 1b
        E 15 ba 08 1a
        E 15 ba 08 18
        E 15 ba 08 17
        E 15 ba 08 16
        E 15 ba 08 15
        E 15 ba 08 13
        E 15 ba 08 12
        E 15 ba 08 11
        E 15 ba 08 10
        E 15 ba 08 0f
        E 15 ba 08 0e
        E 15 ba 08 0c
        E 15 ba 08 0b
        E 15 ba 08 0a
        E 15 ba 08 09
        E 15 ba 08 08
        E 15 ba 08 07
        E 15 ba 08 06
        E 15 ba 08 06
        E 15 ba 08 05
        E 15 ba 08 04
        E 15 ba 08 04
        E 15 ba 08 03
        E 15 ba 08 02
        E 15 ba 08 02
        E 15 ba 08 01
        E 15 ba 08 01
        E 15 ba 08 00
        E 15 ba 08 00
        E 15 ba 08 00
        E 15 ba 08 00
        E 15 ba 08 00
        E 15 ba 08 00
        E 15 ba 08 00
        E 15 ba 08 00
        E 15 ba 08 00
        E 15 ba 08 00
        E 15 ba 08 00
        E 15 ba 08 01
        E 15 ba 08 01
        E 15 ba 08 02
        E 15 ba 08 02
        E 15 ba 08 02
        E 15 ba 08 03
        E 15 ba 08 04
        E 15 ba 08 04
        E 15 ba 08 05
        E 15 ba 08 06
        E 15 ba 08 07
        E 15 ba 08 08
        E 15 ba 08 09
        E 15 ba 08 0a
        E 15 ba 08 0b
        E 15 ba 08 0c
        E 15 ba 08 0d
        E 15 ba 08 0e
        E 15 ba 08 0f
        E 15 ba 08 10
        E 15 ba 08 12
        E 15 ba 08 13
        E 15 ba 08 14
        E 15 ba 08 15
        E 15 ba 08 16
        E 15 ba 08 18
        E 15 ba 08 19
        E 28 b0 7b 00
        CCINTERP 32
        CHASE_CC_TAKEOFFS 1
        GUID {C5179F51-5C8A-7D44-B911-F2AF92CE0F8D}
        IGNTEMPO 0 120 4 4
        SRCCOLOR 262
        VELLANE 3 601 0
        VELLANE -1 196 0
      >
    >
  >
  <TRACK {79C1A892-2F20-4949-A37C-542256B50F36}
    NAME "mission brand tortilla strips"
    PEAKCOL 16576
    BEAT -1
    AUTOMODE 0
    VOLPAN 1 0 -1 -1 1
    MUTESOLO 0 0 0
    IPHASE 0
    PLAYOFFS 0 1
    ISBUS 0 0
    BUSCOMP 0 0 0 0 0
    SHOWINMIX 1 0.6667 0.5 1 0.5 0 -1 0
    FREEMODE 0
    SEL 0
    REC 0 0 1 0 0 0 0
    VU 2
    TRACKHEIGHT 0 1 0 0 -1 0
    INQ 0 0 0 0.5 100 0 0 100
    NCHAN 2
    FX 1
    TRACKID {79C1A892-2F20-4949-A37C-542256B50F36}
    PERF 0
    MIDIOUT -1
    MAINSEND 1 0
    <ITEM
      POSITION 0
      SNAPOFFS 0
      LENGTH 198.21418
      LOOP 1
      ALLTAKES 0
      FADEIN 1 0 0 1 0 0
      FADEOUT 1 0 0 1 0 0
      MUTE 0 0
      SEL 0
      IGUID {913973CE-4C3A-7D46-BC1E-6BD9545BB889}
      IID 24
      NAME "mission brand tortilla strips.mid"
      VOLPAN 1 0 1 -1
      SOFFS 0 0
      PLAYRATE 1 1 0 -1 0 0.0025
      CHANMODE 0
      GUID {6FE7E7BF-39BE-E34B-AE0A-E99627AB15F7}
      <SOURCE MIDI
        HASDATA 1 128 QN
        CCINTERP 32
        POOLEDEVTS {EE444B9A-9856-CB4D-95D3-346795EBB1C4}
        E 3 bb 01 05
        E 3 bb 01 13
        E 3 bb 01 0c
        E 3 bb 01 02
        E 3 bb 01 12
        E 3 bb 01 10
        E 3 bb 01 02
        E 3 bb 01 02
        E 3 bb 01 0c
        E 3 bb 01 18
        E 3 bb 01 14
        E 3 bb 01 16
        E 3 bb 01 0f
        E 3 bb 01 02
        E 3 bb 01 04
        E 3 bb 01 11
        E 3 bb 01 0e
        E 3 bb 01 07
        E 3 bb 01 05
        E 3 bb 01 06
        E 3 bb 01 13
        E 3 bb 01 0b
        E 3 bb 01 06
        E 3 bb 01 0e
        E 3 bb 01 19
        E 3 bb 01 00
        E 3 bb 01 03
        E 3 bb 01 0a
        E 3 bb 01 08
        E 3 bb 01 14
        E 3 bb 01 05
        E 3 bb 01 01
        E 3 bb 01 04
        E 3 bb 01 04
        E 3 bb 01 17
        E 3 bb 01 06
        E 3 bb 01 00
        E 3 bb 01 12
        E 3 bb 01 08
        E 3 bb 01 05
        E 3 bb 01 0a
        E 3 bb 01 06
        E 3 bb 01 15
        E 3 bb 01 15
        E 3 bb 01 19
        E 3 bb 01 15
        E 3 bb 01 0b
        E 3 bb 01 17
        E 3 bb 01 12
        E 3 bb 01 03
        E 3 bb 01 0b
        E 3 bb 01 0d
        E 3 bb 01 18
        E 3 bb 01 13
        E 3 bb 01 0d
        E 3 bb 01 0e
        E 3 bb 01 01
        E 3 bb 01 02
        E 3 bb 01 17
        E 3 bb 01 14
        E 3 bb 01 0a
        E 3 bb 01 08
        E 3 bb 01 03
        E 3 bb 01 0b
        E 3 bb 01 07
        E 3 bb 01 06
        E 3 bb 01 09
        E 3 bb 01 0d
        E 3 bb 01 0f
        E 3 bb 01 10
        E 3 bb 01 04
        E 3 bb 01 0f
        E 3 bb 01 16
        E 3 bb 01 0d
        E 3 bb 01 0e
        E 3 bb 01 00
        E 3 bb 01 01
        E 3 bb 01 19
        E 3 bb 01 10
        E 3 bb 01 04
        E 3 bb 01 17
        E 3 bb 01 08
        E 3 bb 01 09
        E 3 bb 01 0c
        E 3 bb 01 0a
        E 3 bb 01 11
        E 3 bb 01 14
        E 3 bb 01 07
        E 3 bb 01 0e
        E 3 bb 01 05
        E 3 bb 01 16
        E 3 bb 01 15
        E 3 bb 01 0b
        E 3 bb 01 09
        E 3 bb 01 14
        E 3 bb 01 09
        E 3 bb 01 11
        E 3 bb 01 03
        E 3 bb 01 00
        E 3 bb 01 08
        E 3 bb 01 0c
        E 3 bb 01 15
        E 3 bb 01 13
        E 3 bb 01 00
        E 3 bb 01 16
        E 3 bb 01 12
        E 3 bb 01 01
        E 3 bb 01 07
        E 3 bb 01 0f
        E 3 bb 01 13
        E 3 bb 01 18
        E 3 bb 01 0f
        E 3 bb 01 0a
        E 3 bb 01 07
        E 3 bb 01 11
        E 3 bb 01 12
        E 3 bb 01 16
        E 3 bb 01 18
        E 3 bb 01 0c
        E 3 bb 01 10
        E 3 bb 01 11
        E 3 bb 01 0d
        E 3 bb 01 17
        E 3 bb 01 03
        E 3 bb 01 09
        E 3 bb 01 10
        E 7 bb 01 19
        E 7 bb 01 56
        E 7 bb 01 38
        E 7 bb 01 09
        E 7 bb 01 51
        E 7 bb 01 48
        E 7 bb 01 0a
        E 7 bb 01 09
        E 7 bb 01 36
        E 7 bb 01 6c
        E 7 bb 01 5a
        E 7 bb 01 63
        E 7 bb 01 47
        E 7 bb 01 0c
        E 7 bb 01 15
        E 7 bb 01 4d
        E 7 bb 01 3f
        E 7 bb 01 20
        E 7 bb 01 16
        E 7 bb 01 1e
        E 7 bb 01 59
        E 7 bb 01 35
        E 7 bb 01 1b
        E 7 bb 01 41
        E 7 bb 01 71
        E 7 bb 01 00
        E 7 bb 01 0e
        E 7 bb 01 2e
        E 7 bb 01 26
        E 7 bb 01 5d
        E 7 bb 01 18
        E 7 bb 01 07
        E 7 bb 01 12
        E 7 bb 01 13
        E 7 bb 01 67
        E 7 bb 01 1c
        E 7 bb 01 00
        E 7 bb 01 54
        E 7 bb 01 27
        E 7 bb 01 17
        E 7 bb 01 2d
        E 7 bb 01 1d
        E 7 bb 01 61
        E 7 bb 01 60
        E 7 bb 01 72
        E 7 bb 01 5f
        E 7 bb 01 31
        E 7 bb 01 6a
        E 7 bb 01 51
        E 7 bb 01 0d
        E 7 bb 01 32
        E 7 bb 01 3d
        E 7 bb 01 6c
        E 7 bb 01 57
        E 7 bb 01 3e
        E 7 bb 01 3f
        E 7 bb 01 05
        E 7 bb 01 0b
        E 7 bb 01 69
        E 7 bb 01 5b
        E 7 bb 01 30
        E 7 bb 01 24
        E 7 bb 01 0f
        E 7 bb 01 33
        E 7 bb 01 22
        E 7 bb 01 1b
        E 7 bb 01 2b
        E 7 bb 01 3b
        E 7 bb 01 45
        E 7 bb 01 49
        E 7 bb 01 12
        E 7 bb 01 44
        E 7 bb 01 65
        E 7 bb 01 3a
        E 7 bb 01 42
        E 7 bb 01 02
        E 7 bb 01 08
        E 7 bb 01 70
        E 7 bb 01 4a
        E 7 bb 01 14
        E 7 bb 01 68
        E 7 bb 01 24
        E 7 bb 01 2c
        E 7 bb 01 37
        E 7 bb 01 2d
        E 7 bb 01 4c
        E 7 bb 01 5c
        E 7 bb 01 21
        E 7 bb 01 40
        E 7 bb 01 1a
        E 7 bb 01 66
        E 7 bb 01 5e
        E 7 bb 01 34
        E 7 bb 01 29
        E 7 bb 01 5a
        E 7 bb 01 2a
        E 7 bb 01 50
        E 7 bb 01 10
        E 7 bb 01 01
        E 7 bb 01 25
        E 7 bb 01 39
        E 7 bb 01 62
        E 7 bb 01 58
        E 7 bb 01 03
        E 7 bb 01 63
        E 7 bb 01 53
        E 7 bb 01 06
        E 7 bb 01 23
        E 7 bb 01 43
        E 7 bb 01 55
        E 7 bb 01 6d
        E 7 bb 01 46
        E 7 bb 01 2f
        E 7 bb 01 1f
        E 7 bb 01 4f
        E 7 bb 01 52
        E 7 bb 01 64
        E 7 bb 01 6f
        E 7 bb 01 36
        E 7 bb 01 48
        E 7 bb 01 4e
        E 7 bb 01 3c
        E 7 bb 01 6b
        E 7 bb 01 11
        E 7 bb 01 28
        E 7 bb 01 4b
        E 15 bb 01 02
        E 15 bb 01 09
        E 15 bb 01 06
        E 15 bb 01 01
        E 15 bb 01 09
        E 15 bb 01 08
        E 15 bb 01 01
        E 15 bb 01 01
        E 15 bb 01 06
        E 15 bb 01 0c
        E 15 bb 01 0a
        E 15 bb 01 0b
        E 15 bb 01 07
        E 15 bb 01 01
        E 15 bb 01 02
        E 15 bb 01 08
        E 15 bb 01 07
        E 15 bb 01 03
        E 15 bb 01 02
        E 15 bb 01 03
        E 15 bb 01 09
        E 15 bb 01 05
        E 15 bb 01 03
        E 15 bb 01 07
        E 15 bb 01 0c
        E 15 bb 01 00
        E 15 bb 01 01
        E 15 bb 01 05
        E 15 bb 01 04
        E 15 bb 01 0a
        E 15 bb 01 02
        E 15 bb 01 00
        E 15 bb 01 02
        E 15 bb 01 02
        E 15 bb 01 0b
        E 15 bb 01 03
        E 15 bb 01 00
        E 15 bb 01 09
        E 15 bb 01 04
        E 15 bb 01 02
        E 15 bb 01 05
        E 15 bb 01 03
        E 15 bb 01 0a
        E 15 bb 01 0a
        E 15 bb 01 0c
        E 15 bb 01 0a
        E 15 bb 01 05
        E 15 bb 01 0b
        E 15 bb 01 09
        E 15 bb 01 01
        E 15 bb 01 05
        E 15 bb 01 06
        E 15 bb 01 0c
        E 15 bb 01 09
        E 15 bb 01 06
        E 15 bb 01 07
        E 15 bb 01 00
        E 15 bb 01 01
        E 15 bb 01 0b
        E 15 bb 01 0a
        E 15 bb 01 05
        E 15 bb 01 04
        E 15 bb 01 01
        E 15 bb 01 05
        E 15 bb 01 03
        E 15 bb 01 03
        E 15 bb 01 04
        E 15 bb 01 06
        E 15 bb 01 07
        E 15 bb 01 08
        E 15 bb 01 02
        E 15 bb 01 07
        E 15 bb 01 0b
        E 15 bb 01 06
        E 15 bb 01 07
        E 15 bb 01 00
        E 15 bb 01 00
        E 15 bb 01 0c
        E 15 bb 01 08
        E 15 bb 01 02
        E 15 bb 01 0b
        E 15 bb 01 04
        E 15 bb 01 04
        E 15 bb 01 06
        E 15 bb 01 05
        E 15 bb 01 08
        E 15 bb 01 0a
        E 15 bb 01 03
        E 15 bb 01 07
        E 15 bb 01 02
        E 15 bb 01 0b
        E 15 bb 01 0a
        E 15 bb 01 05
        E 15 bb 01 04
        E 15 bb 01 0a
        E 15 bb 01 04
        E 15 bb 01 08
        E 15 bb 01 01
        E 15 bb 01 00
        E 15 bb 01 04
        E 15 bb 01 06
        E 15 bb 01 0a
        E 15 bb 01 09
        E 15 bb 01 00
        E 15 bb 01 0b
        E 15 bb 01 09
        E 15 bb 01 00
        E 15 bb 01 03
        E 15 bb 01 07
        E 15 bb 01 09
        E 15 bb 01 0c
        E 15 bb 01 07
        E 15 bb 01 05
        E 15 bb 01 03
        E 15 bb 01 08
        E 15 bb 01 09
        E 15 bb 01 0b
        E 15 bb 01 0c
        E 15 bb 01 06
        E 15 bb 01 08
        E 15 bb 01 08
        E 15 bb 01 06
        E 15 bb 01 0b
        E 15 bb 01 01
        E 15 bb 01 04
        E 15 bb 01 08
        E 3 bb 01 16
        E 3 bb 01 4c
        E 3 bb 01 32
        E 3 bb 01 07
        E 3 bb 01 48
        E 3 bb 01 3f
        E 3 bb 01 09
        E 3 bb 01 08
        E 3 bb 01 30
        E 3 bb 01 5f
        E 3 bb 01 50
        E 3 bb 01 58
        E 3 bb 01 3f
        E 3 bb 01 0b
        E 3 bb 01 13
        E 3 bb 01 44
        E 3 bb 01 37
        E 3 bb 01 1c
        E 3 bb 01 14
        E 3 bb 01 1b
        E 3 bb 01 4f
        E 3 bb 01 2f
        E 3 bb 01 17
        E 3 bb 01 3a
        E 3 bb 01 64
        E 3 bb 01 00
        E 3 bb 01 0c
        E 3 bb 01 29
        E 3 bb 01 22
        E 3 bb 01 53
        E 3 bb 01 15
        E 3 bb 01 06
        E 3 bb 01 0f
        E 3 bb 01 11
        E 3 bb 01 5b
        E 3 bb 01 19
        E 3 bb 01 00
        E 3 bb 01 4b
        E 3 bb 01 23
        E 3 bb 01 14
        E 3 bb 01 28
        E 3 bb 01 1a
        E 3 bb 01 56
        E 3 bb 01 55
        E 3 bb 01 65
        E 3 bb 01 54
        E 3 bb 01 2b
        E 3 bb 01 5e
        E 3 bb 01 48
        E 3 bb 01 0b
        E 3 bb 01 2c
        E 3 bb 01 36
        E 3 bb 01 60
        E 3 bb 01 4d
        E 3 bb 01 37
        E 3 bb 01 38
        E 3 bb 01 04
        E 3 bb 01 0a
        E 3 bb 01 5d
        E 3 bb 01 51
        E 3 bb 01 2b
        E 3 bb 01 1f
        E 3 bb 01 0d
        E 3 bb 01 2d
        E 3 bb 01 1e
        E 3 bb 01 18
        E 3 bb 01 26
        E 3 bb 01 34
        E 3 bb 01 3d
        E 3 bb 01 41
        E 3 bb 01 10
        E 3 bb 01 3c
        E 3 bb 01 5a
        E 3 bb 01 33
        E 3 bb 01 3b
        E 3 bb 01 02
        E 3 bb 01 07
        E 3 bb 01 63
        E 3 bb 01 42
        E 3 bb 01 12
        E 3 bb 01 5c
        E 3 bb 01 20
        E 3 bb 01 27
        E 3 bb 01 31
        E 3 bb 01 28
        E 3 bb 01 44
        E 3 bb 01 52
        E 3 bb 01 1d
        E 3 bb 01 39
        E 3 bb 01 17
        E 3 bb 01 5b
        E 3 bb 01 54
        E 3 bb 01 2e
        E 3 bb 01 24
        E 3 bb 01 50
        E 3 bb 01 25
        E 3 bb 01 47
        E 3 bb 01 0e
        E 3 bb 01 01
        E 3 bb 01 21
        E 3 bb 01 33
        E 3 bb 01 57
        E 3 bb 01 4e
        E 3 bb 01 03
        E 3 bb 01 57
        E 3 bb 01 4a
        E 3 bb 01 05
        E 3 bb 01 1f
        E 3 bb 01 3b
        E 3 bb 01 4c
        E 3 bb 01 61
        E 3 bb 01 3e
        E 3 bb 01 2a
        E 3 bb 01 1b
        E 3 bb 01 46
        E 3 bb 01 49
        E 3 bb 01 59
        E 3 bb 01 63
        E 3 bb 01 2f
        E 3 bb 01 40
        E 3 bb 01 45
        E 3 bb 01 35
        E 3 bb 01 5f
        E 3 bb 01 0f
        E 3 bb 01 24
        E 3 bb 01 43
        E 15 bb 01 16
        E 15 bb 01 4c
        E 15 bb 01 32
        E 15 bb 01 07
        E 15 bb 01 48
        E 15 bb 01 3f
        E 15 bb 01 09
        E 15 bb 01 08
        E 15 bb 01 30
        E 15 bb 01 5f
        E 15 bb 01 50
        E 15 bb 01 58
        E 15 bb 01 3f
        E 15 bb 01 0b
        E 15 bb 01 13
        E 15 bb 01 44
        E 15 bb 01 37
        E 15 bb 01 1c
        E 15 bb 01 14
        E 15 bb 01 1b
        E 15 bb 01 4f
        E 15 bb 01 2f
        E 15 bb 01 17
        E 15 bb 01 3a
        E 15 bb 01 64
        E 15 bb 01 00
        E 15 bb 01 0c
        E 15 bb 01 29
        E 15 bb 01 22
        E 15 bb 01 53
        E 15 bb 01 15
        E 15 bb 01 06
        E 15 bb 01 0f
        E 15 bb 01 11
        E 15 bb 01 5b
        E 15 bb 01 19
        E 15 bb 01 00
        E 15 bb 01 4b
        E 15 bb 01 23
        E 15 bb 01 14
        E 15 bb 01 28
        E 15 bb 01 1a
        E 15 bb 01 56
        E 15 bb 01 55
        E 15 bb 01 65
        E 15 bb 01 54
        E 15 bb 01 2b
        E 15 bb 01 5e
        E 15 bb 01 48
        E 15 bb 01 0b
        E 15 bb 01 2c
        E 15 bb 01 36
        E 15 bb 01 60
        E 15 bb 01 4d
        E 15 bb 01 37
        E 15 bb 01 38
        E 15 bb 01 04
        E 15 bb 01 0a
        E 15 bb 01 5d
        E 15 bb 01 51
        E 15 bb 01 2b
        E 15 bb 01 1f
        E 15 bb 01 0d
        E 15 bb 01 2d
        E 15 bb 01 1e
        E 15 bb 01 18
        E 15 bb 01 26
        E 15 bb 01 34
        E 15 bb 01 3d
        E 15 bb 01 41
        E 15 bb 01 10
        E 15 bb 01 3c
        E 15 bb 01 5a
        E 15 bb 01 33
        E 15 bb 01 3b
        E 15 bb 01 02
        E 15 bb 01 07
        E 15 bb 01 63
        E 15 bb 01 42
        E 15 bb 01 12
        E 15 bb 01 5c
        E 15 bb 01 20
        E 15 bb 01 27
        E 15 bb 01 31
        E 15 bb 01 28
        E 15 bb 01 44
        E 15 bb 01 52
        E 15 bb 01 1d
        E 15 bb 01 39
        E 15 bb 01 17
        E 15 bb 01 5b
        E 15 bb 01 54
        E 15 bb 01 2e
        E 15 bb 01 24
        E 15 bb 01 50
        E 15 bb 01 25
        E 15 bb 01 47
        E 15 bb 01 0e
        E 15 bb 01 01
        E 15 bb 01 21
        E 15 bb 01 33
        E 15 bb 01 57
        E 15 bb 01 4e
        E 15 bb 01 03
        E 15 bb 01 57
        E 15 bb 01 4a
        E 15 bb 01 05
        E 15 bb 01 1f
        E 15 bb 01 3b
        E 15 bb 01 4c
        E 15 bb 01 61
        E 15 bb 01 3e
        E 15 bb 01 2a
        E 15 bb 01 1b
        E 15 bb 01 46
        E 15 bb 01 49
        E 15 bb 01 59
        E 15 bb 01 63
        E 15 bb 01 2f
        E 15 bb 01 40
        E 15 bb 01 45
        E 15 bb 01 35
        E 15 bb 01 5f
        E 15 bb 01 0f
        E 15 bb 01 24
        E 15 bb 01 43
        E 15 bb 01 16
        E 15 bb 01 4c
        E 15 bb 01 32
        E 15 bb 01 07
        E 15 bb 01 48
        E 15 bb 01 3f
        E 15 bb 01 09
        E 15 bb 01 08
        E 15 bb 01 30
        E 15 bb 01 5f
        E 15 bb 01 50
        E 15 bb 01 58
        E 15 bb 01 3f
        E 15 bb 01 0b
        E 15 bb 01 13
        E 15 bb 01 44
        E 15 bb 01 37
        E 15 bb 01 1c
        E 15 bb 01 14
        E 15 bb 01 1b
        E 15 bb 01 4f
        E 15 bb 01 2f
        E 15 bb 01 17
        E 15 bb 01 3a
        E 15 bb 01 64
        E 15 bb 01 00
        E 15 bb 01 0c
        E 15 bb 01 29
        E 15 bb 01 22
        E 15 bb 01 53
        E 15 bb 01 15
        E 15 bb 01 06
        E 15 bb 01 0f
        E 15 bb 01 11
        E 15 bb 01 5b
        E 15 bb 01 19
        E 15 bb 01 00
        E 15 bb 01 4b
        E 15 bb 01 23
        E 15 bb 01 14
        E 15 bb 01 28
        E 15 bb 01 1a
        E 15 bb 01 56
        E 15 bb 01 55
        E 15 bb 01 65
        E 15 bb 01 54
        E 15 bb 01 2b
        E 15 bb 01 5e
        E 15 bb 01 48
        E 15 bb 01 0b
        E 15 bb 01 2c
        E 15 bb 01 36
        E 15 bb 01 60
        E 15 bb 01 4d
        E 15 bb 01 37
        E 15 bb 01 38
        E 15 bb 01 04
        E 15 bb 01 0a
        E 15 bb 01 5d
        E 15 bb 01 51
        E 15 bb 01 2b
        E 15 bb 01 1f
        E 15 bb 01 0d
        E 15 bb 01 2d
        E 15 bb 01 1e
        E 15 bb 01 18
        E 15 bb 01 26
        E 15 bb 01 34
        E 15 bb 01 3d
        E 15 bb 01 41
        E 15 bb 01 10
        E 15 bb 01 3c
        E 15 bb 01 5a
        E 15 bb 01 33
        E 15 bb 01 3b
        E 15 bb 01 02
        E 15 bb 01 07
        E 15 bb 01 63
        E 15 bb 01 42
        E 15 bb 01 12
        E 15 bb 01 5c
        E 15 bb 01 20
        E 15 bb 01 27
        E 15 bb 01 31
        E 15 bb 01 28
        E 15 bb 01 44
        E 15 bb 01 52
        E 15 bb 01 1d
        E 15 bb 01 39
        E 15 bb 01 17
        E 15 bb 01 5b
        E 15 bb 01 54
        E 15 bb 01 2e
        E 15 bb 01 24
        E 15 bb 01 50
        E 15 bb 01 25
        E 15 bb 01 47
        E 15 bb 01 0e
        E 15 bb 01 01
        E 15 bb 01 21
        E 15 bb 01 33
        E 15 bb 01 57
        E 15 bb 01 4e
        E 15 bb 01 03
        E 15 bb 01 57
        E 15 bb 01 4a
        E 15 bb 01 05
        E 15 bb 01 1f
        E 15 bb 01 3b
        E 15 bb 01 4c
        E 15 bb 01 61
        E 15 bb 01 3e
        E 15 bb 01 2a
        E 15 bb 01 1b
        E 15 bb 01 46
        E 15 bb 01 49
        E 15 bb 01 59
        E 15 bb 01 63
        E 15 bb 01 2f
        E 15 bb 01 40
        E 15 bb 01 45
        E 15 bb 01 35
        E 15 bb 01 5f
        E 15 bb 01 0f
        E 15 bb 01 24
        E 15 bb 01 43
        E 3 bb 01 05
        E 3 bb 01 13
        E 3 bb 01 0c
        E 3 bb 01 02
        E 3 bb 01 12
        E 3 bb 01 10
        E 3 bb 01 02
        E 3 bb 01 02
        E 3 bb 01 0c
        E 3 bb 01 18
        E 3 bb 01 14
        E 3 bb 01 16
        E 3 bb 01 0f
        E 3 bb 01 02
        E 3 bb 01 04
        E 3 bb 01 11
        E 3 bb 01 0e
        E 3 bb 01 07
        E 3 bb 01 05
        E 3 bb 01 06
        E 3 bb 01 13
        E 3 bb 01 0b
        E 3 bb 01 06
        E 3 bb 01 0e
        E 3 bb 01 19
        E 3 bb 01 00
        E 3 bb 01 03
        E 3 bb 01 0a
        E 3 bb 01 08
        E 3 bb 01 14
        E 3 bb 01 05
        E 3 bb 01 01
        E 3 bb 01 04
        E 3 bb 01 04
        E 3 bb 01 17
        E 3 bb 01 06
        E 3 bb 01 00
        E 3 bb 01 12
        E 3 bb 01 08
        E 3 bb 01 05
        E 3 bb 01 0a
        E 3 bb 01 06
        E 3 bb 01 15
        E 3 bb 01 15
        E 3 bb 01 19
        E 3 bb 01 15
        E 3 bb 01 0b
        E 3 bb 01 17
        E 3 bb 01 12
        E 3 bb 01 03
        E 3 bb 01 0b
        E 3 bb 01 0d
        E 3 bb 01 18
        E 3 bb 01 13
        E 3 bb 01 0d
        E 3 bb 01 0e
        E 3 bb 01 01
        E 3 bb 01 02
        E 3 bb 01 17
        E 3 bb 01 14
        E 3 bb 01 0a
        E 3 bb 01 08
        E 3 bb 01 03
        E 3 bb 01 0b
        E 3 bb 01 07
        E 3 bb 01 06
        E 3 bb 01 09
        E 3 bb 01 0d
        E 3 bb 01 0f
        E 3 bb 01 10
        E 3 bb 01 04
        E 3 bb 01 0f
        E 3 bb 01 16
        E 3 bb 01 0d
        E 3 bb 01 0e
        E 3 bb 01 00
        E 3 bb 01 01
        E 3 bb 01 19
        E 3 bb 01 10
        E 3 bb 01 04
        E 3 bb 01 17
        E 3 bb 01 08
        E 3 bb 01 09
        E 3 bb 01 0c
        E 3 bb 01 0a
        E 3 bb 01 11
        E 3 bb 01 14
        E 3 bb 01 07
        E 3 bb 01 0e
        E 3 bb 01 05
        E 3 bb 01 16
        E 3 bb 01 15
        E 3 bb 01 0b
        E 3 bb 01 09
        E 3 bb 01 14
        E 3 bb 01 09
        E 3 bb 01 11
        E 3 bb 01 03
        E 3 bb 01 00
        E 3 bb 01 08
        E 3 bb 01 0c
        E 3 bb 01 15
        E 3 bb 01 13
        E 3 bb 01 00
        E 3 bb 01 16
        E 3 bb 01 12
        E 3 bb 01 01
        E 3 bb 01 07
        E 3 bb 01 0f
        E 3 bb 01 13
        E 3 bb 01 18
        E 3 bb 01 0f
        E 3 bb 01 0a
        E 3 bb 01 07
        E 3 bb 01 11
        E 3 bb 01 12
        E 3 bb 01 16
        E 3 bb 01 18
        E 3 bb 01 0c
        E 3 bb 01 10
        E 3 bb 01 11
        E 3 bb 01 0d
        E 3 bb 01 17
        E 3 bb 01 03
        E 3 bb 01 09
        E 3 bb 01 10
        E 7 bb 01 19
        E 7 bb 01 56
        E 7 bb 01 38
        E 7 bb 01 09
        E 7 bb 01 51
        E 7 bb 01 48
        E 7 bb 01 0a
        E 7 bb 01 09
        E 7 bb 01 36
        E 7 bb 01 6c
        E 7 bb 01 5a
        E 7 bb 01 63
        E 7 bb 01 47
        E 7 bb 01 0c
        E 7 bb 01 15
        E 7 bb 01 4d
        E 7 bb 01 3f
        E 7 bb 01 20
        E 7 bb 01 16
        E 7 bb 01 1e
        E 7 bb 01 59
        E 7 bb 01 35
        E 7 bb 01 1b
        E 7 bb 01 41
        E 7 bb 01 71
        E 7 bb 01 00
        E 7 bb 01 0e
        E 7 bb 01 2e
        E 7 bb 01 26
        E 7 bb 01 5d
        E 7 bb 01 18
        E 7 bb 01 07
        E 7 bb 01 12
        E 7 bb 01 13
        E 7 bb 01 67
        E 7 bb 01 1c
        E 7 bb 01 00
        E 7 bb 01 54
        E 7 bb 01 27
        E 7 bb 01 17
        E 7 bb 01 2d
        E 7 bb 01 1d
        E 7 bb 01 61
        E 7 bb 01 60
        E 7 bb 01 72
        E 7 bb 01 5f
        E 7 bb 01 31
        E 7 bb 01 6a
        E 7 bb 01 51
        E 7 bb 01 0d
        E 7 bb 01 32
        E 7 bb 01 3d
        E 7 bb 01 6c
        E 7 bb 01 57
        E 7 bb 01 3e
        E 7 bb 01 3f
        E 7 bb 01 05
        E 7 bb 01 0b
        E 7 bb 01 69
        E 7 bb 01 5b
        E 7 bb 01 30
        E 7 bb 01 24
        E 7 bb 01 0f
        E 7 bb 01 33
        E 7 bb 01 22
        E 7 bb 01 1b
        E 7 bb 01 2b
        E 7 bb 01 3b
        E 7 bb 01 45
        E 7 bb 01 49
        E 7 bb 01 12
        E 7 bb 01 44
        E 7 bb 01 65
        E 7 bb 01 3a
        E 7 bb 01 42
        E 7 bb 01 02
        E 7 bb 01 08
        E 7 bb 01 70
        E 7 bb 01 4a
        E 7 bb 01 14
        E 7 bb 01 68
        E 7 bb 01 24
        E 7 bb 01 2c
        E 7 bb 01 37
        E 7 bb 01 2d
        E 7 bb 01 4c
        E 7 bb 01 5c
        E 7 bb 01 21
        E 7 bb 01 40
        E 7 bb 01 1a
        E 7 bb 01 66
        E 7 bb 01 5e
        E 7 bb 01 34
        E 7 bb 01 29
        E 7 bb 01 5a
        E 7 bb 01 2a
        E 7 bb 01 50
        E 7 bb 01 10
        E 7 bb 01 01
        E 7 bb 01 25
        E 7 bb 01 39
        E 7 bb 01 62
        E 7 bb 01 58
        E 7 bb 01 03
        E 7 bb 01 63
        E 7 bb 01 53
        E 7 bb 01 06
        E 7 bb 01 23
        E 7 bb 01 43
        E 7 bb 01 55
        E 7 bb 01 6d
        E 7 bb 01 46
        E 7 bb 01 2f
        E 7 bb 01 1f
        E 7 bb 01 4f
        E 7 bb 01 52
        E 7 bb 01 64
        E 7 bb 01 6f
        E 7 bb 01 36
        E 7 bb 01 48
        E 7 bb 01 4e
        E 7 bb 01 3c
        E 7 bb 01 6b
        E 7 bb 01 11
        E 7 bb 01 28
        E 7 bb 01 4b
        E 15 bb 01 02
        E 15 bb 01 09
        E 15 bb 01 06
        E 15 bb 01 01
        E 15 bb 01 09
        E 15 bb 01 08
        E 15 bb 01 01
        E 15 bb 01 01
        E 15 bb 01 06
        E 15 bb 01 0c
        E 15 bb 01 0a
        E 15 bb 01 0b
        E 15 bb 01 07
        E 15 bb 01 01
        E 15 bb 01 02
        E 15 bb 01 08
        E 15 bb 01 07
        E 15 bb 01 03
        E 15 bb 01 02
        E 15 bb 01 03
        E 15 bb 01 09
        E 15 bb 01 05
        E 15 bb 01 03
        E 15 bb 01 07
        E 15 bb 01 0c
        E 15 bb 01 00
        E 15 bb 01 01
        E 15 bb 01 05
        E 15 bb 01 04
        E 15 bb 01 0a
        E 15 bb 01 02
        E 15 bb 01 00
        E 15 bb 01 02
        E 15 bb 01 02
        E 15 bb 01 0b
        E 15 bb 01 03
        E 15 bb 01 00
        E 15 bb 01 09
        E 15 bb 01 04
        E 15 bb 01 02
        E 15 bb 01 05
        E 15 bb 01 03
        E 15 bb 01 0a
        E 15 bb 01 0a
        E 15 bb 01 0c
        E 15 bb 01 0a
        E 15 bb 01 05
        E 15 bb 01 0b
        E 15 bb 01 09
        E 15 bb 01 01
        E 15 bb 01 05
        E 15 bb 01 06
        E 15 bb 01 0c
        E 15 bb 01 09
        E 15 bb 01 06
        E 15 bb 01 07
        E 15 bb 01 00
        E 15 bb 01 01
        E 15 bb 01 0b
        E 15 bb 01 0a
        E 15 bb 01 05
        E 15 bb 01 04
        E 15 bb 01 01
        E 15 bb 01 05
        E 15 bb 01 03
        E 15 bb 01 03
        E 15 bb 01 04
        E 15 bb 01 06
        E 15 bb 01 07
        E 15 bb 01 08
        E 15 bb 01 02
        E 15 bb 01 07
        E 15 bb 01 0b
        E 15 bb 01 06
        E 15 bb 01 07
        E 15 bb 01 00
        E 15 bb 01 00
        E 15 bb 01 0c
        E 15 bb 01 08
        E 15 bb 01 02
        E 15 bb 01 0b
        E 15 bb 01 04
        E 15 bb 01 04
        E 15 bb 01 06
        E 15 bb 01 05
        E 15 bb 01 08
        E 15 bb 01 0a
        E 15 bb 01 03
        E 15 bb 01 07
        E 15 bb 01 02
        E 15 bb 01 0b
        E 15 bb 01 0a
        E 15 bb 01 05
        E 15 bb 01 04
        E 15 bb 01 0a
        E 15 bb 01 04
        E 15 bb 01 08
        E 15 bb 01 01
        E 15 bb 01 00
        E 15 bb 01 04
        E 15 bb 01 06
        E 15 bb 01 0a
        E 15 bb 01 09
        E 15 bb 01 00
        E 15 bb 01 0b
        E 15 bb 01 09
        E 15 bb 01 00
        E 15 bb 01 03
        E 15 bb 01 07
        E 15 bb 01 09
        E 15 bb 01 0c
        E 15 bb 01 07
        E 15 bb 01 05
        E 15 bb 01 03
        E 15 bb 01 08
        E 15 bb 01 09
        E 15 bb 01 0b
        E 15 bb 01 0c
        E 15 bb 01 06
        E 15 bb 01 08
        E 15 bb 01 08
        E 15 bb 01 06
        E 15 bb 01 0b
        E 15 bb 01 01
        E 15 bb 01 04
        E 15 bb 01 08
        E 3 bb 01 16
        E 3 bb 01 4c
        E 3 bb 01 32
        E 3 bb 01 07
        E 3 bb 01 48
        E 3 bb 01 3f
        E 3 bb 01 09
        E 3 bb 01 08
        E 3 bb 01 30
        E 3 bb 01 5f
        E 3 bb 01 50
        E 3 bb 01 58
        E 3 bb 01 3f
        E 3 bb 01 0b
        E 3 bb 01 13
        E 3 bb 01 44
        E 3 bb 01 37
        E 3 bb 01 1c
        E 3 bb 01 14
        E 3 bb 01 1b
        E 3 bb 01 4f
        E 3 bb 01 2f
        E 3 bb 01 17
        E 3 bb 01 3a
        E 3 bb 01 64
        E 3 bb 01 00
        E 3 bb 01 0c
        E 3 bb 01 29
        E 3 bb 01 22
        E 3 bb 01 53
        E 3 bb 01 15
        E 3 bb 01 06
        E 3 bb 01 0f
        E 3 bb 01 11
        E 3 bb 01 5b
        E 3 bb 01 19
        E 3 bb 01 00
        E 3 bb 01 4b
        E 3 bb 01 23
        E 3 bb 01 14
        E 3 bb 01 28
        E 3 bb 01 1a
        E 3 bb 01 56
        E 3 bb 01 55
        E 3 bb 01 65
        E 3 bb 01 54
        E 3 bb 01 2b
        E 3 bb 01 5e
        E 3 bb 01 48
        E 3 bb 01 0b
        E 3 bb 01 2c
        E 3 bb 01 36
        E 3 bb 01 60
        E 3 bb 01 4d
        E 3 bb 01 37
        E 3 bb 01 38
        E 3 bb 01 04
        E 3 bb 01 0a
        E 3 bb 01 5d
        E 3 bb 01 51
        E 3 bb 01 2b
        E 3 bb 01 1f
        E 3 bb 01 0d
        E 3 bb 01 2d
        E 3 bb 01 1e
        E 3 bb 01 18
        E 3 bb 01 26
        E 3 bb 01 34
        E 3 bb 01 3d
        E 3 bb 01 41
        E 3 bb 01 10
        E 3 bb 01 3c
        E 3 bb 01 5a
        E 3 bb 01 33
        E 3 bb 01 3b
        E 3 bb 01 02
        E 3 bb 01 07
        E 3 bb 01 63
        E 3 bb 01 42
        E 3 bb 01 12
        E 3 bb 01 5c
        E 3 bb 01 20
        E 3 bb 01 27
        E 3 bb 01 31
        E 3 bb 01 28
        E 3 bb 01 44
        E 3 bb 01 52
        E 3 bb 01 1d
        E 3 bb 01 39
        E 3 bb 01 17
        E 3 bb 01 5b
        E 3 bb 01 54
        E 3 bb 01 2e
        E 3 bb 01 24
        E 3 bb 01 50
        E 3 bb 01 25
        E 3 bb 01 47
        E 3 bb 01 0e
        E 3 bb 01 01
        E 3 bb 01 21
        E 3 bb 01 33
        E 3 bb 01 57
        E 3 bb 01 4e
        E 3 bb 01 03
        E 3 bb 01 57
        E 3 bb 01 4a
        E 3 bb 01 05
        E 3 bb 01 1f
        E 3 bb 01 3b
        E 3 bb 01 4c
        E 3 bb 01 61
        E 3 bb 01 3e
        E 3 bb 01 2a
        E 3 bb 01 1b
        E 3 bb 01 46
        E 3 bb 01 49
        E 3 bb 01 59
        E 3 bb 01 63
        E 3 bb 01 2f
        E 3 bb 01 40
        E 3 bb 01 45
        E 3 bb 01 35
        E 3 bb 01 5f
        E 3 bb 01 0f
        E 3 bb 01 24
        E 3 bb 01 43
        E 15 bb 01 16
        E 15 bb 01 4c
        E 15 bb 01 32
        E 15 bb 01 07
        E 15 bb 01 48
        E 15 bb 01 3f
        E 15 bb 01 09
        E 15 bb 01 08
        E 15 bb 01 30
        E 15 bb 01 5f
        E 15 bb 01 50
        E 15 bb 01 58
        E 15 bb 01 3f
        E 15 bb 01 0b
        E 15 bb 01 13
        E 15 bb 01 44
        E 15 bb 01 37
        E 15 bb 01 1c
        E 15 bb 01 14
        E 15 bb 01 1b
        E 15 bb 01 4f
        E 15 bb 01 2f
        E 15 bb 01 17
        E 15 bb 01 3a
        E 15 bb 01 64
        E 15 bb 01 00
        E 15 bb 01 0c
        E 15 bb 01 29
        E 15 bb 01 22
        E 15 bb 01 53
        E 15 bb 01 15
        E 15 bb 01 06
        E 15 bb 01 0f
        E 15 bb 01 11
        E 15 bb 01 5b
        E 15 bb 01 19
        E 15 bb 01 00
        E 15 bb 01 4b
        E 15 bb 01 23
        E 15 bb 01 14
        E 15 bb 01 28
        E 15 bb 01 1a
        E 15 bb 01 56
        E 15 bb 01 55
        E 15 bb 01 65
        E 15 bb 01 54
        E 15 bb 01 2b
        E 15 bb 01 5e
        E 15 bb 01 48
        E 15 bb 01 0b
        E 15 bb 01 2c
        E 15 bb 01 36
        E 15 bb 01 60
        E 15 bb 01 4d
        E 15 bb 01 37
        E 15 bb 01 38
        E 15 bb 01 04
        E 15 bb 01 0a
        E 15 bb 01 5d
        E 15 bb 01 51
        E 15 bb 01 2b
        E 15 bb 01 1f
        E 15 bb 01 0d
        E 15 bb 01 2d
        E 15 bb 01 1e
        E 15 bb 01 18
        E 15 bb 01 26
        E 15 bb 01 34
        E 15 bb 01 3d
        E 15 bb 01 41
        E 15 bb 01 10
        E 15 bb 01 3c
        E 15 bb 01 5a
        E 15 bb 01 33
        E 15 bb 01 3b
        E 15 bb 01 02
        E 15 bb 01 07
        E 15 bb 01 63
        E 15 bb 01 42
        E 15 bb 01 12
        E 15 bb 01 5c
        E 15 bb 01 20
        E 15 bb 01 27
        E 15 bb 01 31
        E 15 bb 01 28
        E 15 bb 01 44
        E 15 bb 01 52
        E 15 bb 01 1d
        E 15 bb 01 39
        E 15 bb 01 17
        E 15 bb 01 5b
        E 15 bb 01 54
        E 15 bb 01 2e
        E 15 bb 01 24
        E 15 bb 01 50
        E 15 bb 01 25
        E 15 bb 01 47
        E 15 bb 01 0e
        E 15 bb 01 01
        E 15 bb 01 21
        E 15 bb 01 33
        E 15 bb 01 57
        E 15 bb 01 4e
        E 15 bb 01 03
        E 15 bb 01 57
        E 15 bb 01 4a
        E 15 bb 01 05
        E 15 bb 01 1f
        E 15 bb 01 3b
        E 15 bb 01 4c
        E 15 bb 01 61
        E 15 bb 01 3e
        E 15 bb 01 2a
        E 15 bb 01 1b
        E 15 bb 01 46
        E 15 bb 01 49
        E 15 bb 01 59
        E 15 bb 01 63
        E 15 bb 01 2f
        E 15 bb 01 40
        E 15 bb 01 45
        E 15 bb 01 35
        E 15 bb 01 5f
        E 15 bb 01 0f
        E 15 bb 01 24
        E 15 bb 01 43
        E 15 bb 01 16
        E 15 bb 01 4c
        E 15 bb 01 32
        E 15 bb 01 07
        E 15 bb 01 48
        E 15 bb 01 3f
        E 15 bb 01 09
        E 15 bb 01 08
        E 15 bb 01 30
        E 15 bb 01 5f
        E 15 bb 01 50
        E 15 bb 01 58
        E 15 bb 01 3f
        E 15 bb 01 0b
        E 15 bb 01 13
        E 15 bb 01 44
        E 15 bb 01 37
        E 15 bb 01 1c
        E 15 bb 01 14
        E 15 bb 01 1b
        E 15 bb 01 4f
        E 15 bb 01 2f
        E 15 bb 01 17
        E 15 bb 01 3a
        E 15 bb 01 64
        E 15 bb 01 00
        E 15 bb 01 0c
        E 15 bb 01 29
        E 15 bb 01 22
        E 15 bb 01 53
        E 15 bb 01 15
        E 15 bb 01 06
        E 15 bb 01 0f
        E 15 bb 01 11
        E 15 bb 01 5b
        E 15 bb 01 19
        E 15 bb 01 00
        E 15 bb 01 4b
        E 15 bb 01 23
        E 15 bb 01 14
        E 15 bb 01 28
        E 15 bb 01 1a
        E 15 bb 01 56
        E 15 bb 01 55
        E 15 bb 01 65
        E 15 bb 01 54
        E 15 bb 01 2b
        E 15 bb 01 5e
        E 15 bb 01 48
        E 15 bb 01 0b
        E 15 bb 01 2c
        E 15 bb 01 36
        E 15 bb 01 60
        E 15 bb 01 4d
        E 15 bb 01 37
        E 15 bb 01 38
        E 15 bb 01 04
        E 15 bb 01 0a
        E 15 bb 01 5d
        E 15 bb 01 51
        E 15 bb 01 2b
        E 15 bb 01 1f
        E 15 bb 01 0d
        E 15 bb 01 2d
        E 15 bb 01 1e
        E 15 bb 01 18
        E 15 bb 01 26
        E 15 bb 01 34
        E 15 bb 01 3d
        E 15 bb 01 41
        E 15 bb 01 10
        E 15 bb 01 3c
        E 15 bb 01 5a
        E 15 bb 01 33
        E 15 bb 01 3b
        E 15 bb 01 02
        E 15 bb 01 07
        E 15 bb 01 63
        E 15 bb 01 42
        E 15 bb 01 12
        E 15 bb 01 5c
        E 15 bb 01 20
        E 15 bb 01 27
        E 15 bb 01 31
        E 15 bb 01 28
        E 15 bb 01 44
        E 15 bb 01 52
        E 15 bb 01 1d
        E 15 bb 01 39
        E 15 bb 01 17
        E 15 bb 01 5b
        E 15 bb 01 54
        E 15 bb 01 2e
        E 15 bb 01 24
        E 15 bb 01 50
        E 15 bb 01 25
        E 15 bb 01 47
        E 15 bb 01 0e
        E 15 bb 01 01
        E 15 bb 01 21
        E 15 bb 01 33
        E 15 bb 01 57
        E 15 bb 01 4e
        E 15 bb 01 03
        E 15 bb 01 57
        E 15 bb 01 4a
        E 15 bb 01 05
        E 15 bb 01 1f
        E 15 bb 01 3b
        E 15 bb 01 4c
        E 15 bb 01 61
        E 15 bb 01 3e
        E 15 bb 01 2a
        E 15 bb 01 1b
        E 15 bb 01 46
        E 15 bb 01 49
        E 15 bb 01 59
        E 15 bb 01 63
        E 15 bb 01 2f
        E 15 bb 01 40
        E 15 bb 01 45
        E 15 bb 01 35
        E 15 bb 01 5f
        E 15 bb 01 0f
        E 15 bb 01 24
        E 15 bb 01 43
        E 3 bb 01 05
        E 3 bb 01 13
        E 3 bb 01 0c
        E 3 bb 01 02
        E 3 bb 01 12
        E 3 bb 01 10
        E 3 bb 01 02
        E 3 bb 01 02
        E 3 bb 01 0c
        E 3 bb 01 18
        E 3 bb 01 14
        E 3 bb 01 16
        E 3 bb 01 0f
        E 3 bb 01 02
        E 3 bb 01 04
        E 3 bb 01 11
        E 3 bb 01 0e
        E 3 bb 01 07
        E 3 bb 01 05
        E 3 bb 01 06
        E 3 bb 01 13
        E 3 bb 01 0b
        E 3 bb 01 06
        E 3 bb 01 0e
        E 3 bb 01 19
        E 3 bb 01 00
        E 3 bb 01 03
        E 3 bb 01 0a
        E 3 bb 01 08
        E 3 bb 01 14
        E 3 bb 01 05
        E 3 bb 01 01
        E 3 bb 01 04
        E 3 bb 01 04
        E 3 bb 01 17
        E 3 bb 01 06
        E 3 bb 01 00
        E 3 bb 01 12
        E 3 bb 01 08
        E 3 bb 01 05
        E 3 bb 01 0a
        E 3 bb 01 06
        E 3 bb 01 15
        E 3 bb 01 15
        E 3 bb 01 19
        E 3 bb 01 15
        E 3 bb 01 0b
        E 3 bb 01 17
        E 3 bb 01 12
        E 3 bb 01 03
        E 3 bb 01 0b
        E 3 bb 01 0d
        E 3 bb 01 18
        E 3 bb 01 13
        E 3 bb 01 0d
        E 3 bb 01 0e
        E 3 bb 01 01
        E 3 bb 01 02
        E 3 bb 01 17
        E 3 bb 01 14
        E 3 bb 01 0a
        E 3 bb 01 08
        E 3 bb 01 03
        E 3 bb 01 0b
        E 3 bb 01 07
        E 3 bb 01 06
        E 3 bb 01 09
        E 3 bb 01 0d
        E 3 bb 01 0f
        E 3 bb 01 10
        E 3 bb 01 04
        E 3 bb 01 0f
        E 3 bb 01 16
        E 3 bb 01 0d
        E 3 bb 01 0e
        E 3 bb 01 00
        E 3 bb 01 01
        E 3 bb 01 19
        E 3 bb 01 10
        E 3 bb 01 04
        E 3 bb 01 17
        E 3 bb 01 08
        E 3 bb 01 09
        E 3 bb 01 0c
        E 3 bb 01 0a
        E 3 bb 01 11
        E 3 bb 01 14
        E 3 bb 01 07
        E 3 bb 01 0e
        E 3 bb 01 05
        E 3 bb 01 16
        E 3 bb 01 15
        E 3 bb 01 0b
        E 3 bb 01 09
        E 3 bb 01 14
        E 3 bb 01 09
        E 3 bb 01 11
        E 3 bb 01 03
        E 3 bb 01 00
        E 3 bb 01 08
        E 3 bb 01 0c
        E 3 bb 01 15
        E 3 bb 01 13
        E 3 bb 01 00
        E 3 bb 01 16
        E 3 bb 01 12
        E 3 bb 01 01
        E 3 bb 01 07
        E 3 bb 01 0f
        E 3 bb 01 13
        E 3 bb 01 18
        E 3 bb 01 0f
        E 3 bb 01 0a
        E 3 bb 01 07
        E 3 bb 01 11
        E 3 bb 01 12
        E 3 bb 01 16
        E 3 bb 01 18
        E 3 bb 01 0c
        E 3 bb 01 10
        E 3 bb 01 11
        E 3 bb 01 0d
        E 3 bb 01 17
        E 3 bb 01 03
        E 3 bb 01 09
        E 3 bb 01 10
        E 7 bb 01 19
        E 7 bb 01 56
        E 7 bb 01 38
        E 7 bb 01 09
        E 7 bb 01 51
        E 7 bb 01 48
        E 7 bb 01 0a
        E 7 bb 01 09
        E 7 bb 01 36
        E 7 bb 01 6c
        E 7 bb 01 5a
        E 7 bb 01 63
        E 7 bb 01 47
        E 7 bb 01 0c
        E 7 bb 01 15
        E 7 bb 01 4d
        E 7 bb 01 3f
        E 7 bb 01 20
        E 7 bb 01 16
        E 7 bb 01 1e
        E 7 bb 01 59
        E 7 bb 01 35
        E 7 bb 01 1b
        E 7 bb 01 41
        E 7 bb 01 71
        E 7 bb 01 00
        E 7 bb 01 0e
        E 7 bb 01 2e
        E 7 bb 01 26
        E 7 bb 01 5d
        E 7 bb 01 18
        E 7 bb 01 07
        E 7 bb 01 12
        E 7 bb 01 13
        E 7 bb 01 67
        E 7 bb 01 1c
        E 7 bb 01 00
        E 7 bb 01 54
        E 7 bb 01 27
        E 7 bb 01 17
        E 7 bb 01 2d
        E 7 bb 01 1d
        E 7 bb 01 61
        E 7 bb 01 60
        E 7 bb 01 72
        E 7 bb 01 5f
        E 7 bb 01 31
        E 7 bb 01 6a
        E 7 bb 01 51
        E 7 bb 01 0d
        E 7 bb 01 32
        E 7 bb 01 3d
        E 7 bb 01 6c
        E 7 bb 01 57
        E 7 bb 01 3e
        E 7 bb 01 3f
        E 7 bb 01 05
        E 7 bb 01 0b
        E 7 bb 01 69
        E 7 bb 01 5b
        E 7 bb 01 30
        E 7 bb 01 24
        E 7 bb 01 0f
        E 7 bb 01 33
        E 7 bb 01 22
        E 7 bb 01 1b
        E 7 bb 01 2b
        E 7 bb 01 3b
        E 7 bb 01 45
        E 7 bb 01 49
        E 7 bb 01 12
        E 7 bb 01 44
        E 7 bb 01 65
        E 7 bb 01 3a
        E 7 bb 01 42
        E 7 bb 01 02
        E 7 bb 01 08
        E 7 bb 01 70
        E 7 bb 01 4a
        E 7 bb 01 14
        E 7 bb 01 68
        E 7 bb 01 24
        E 7 bb 01 2c
        E 7 bb 01 37
        E 7 bb 01 2d
        E 7 bb 01 4c
        E 7 bb 01 5c
        E 7 bb 01 21
        E 7 bb 01 40
        E 7 bb 01 1a
        E 7 bb 01 66
        E 7 bb 01 5e
        E 7 bb 01 34
        E 7 bb 01 29
        E 7 bb 01 5a
        E 7 bb 01 2a
        E 7 bb 01 50
        E 7 bb 01 10
        E 7 bb 01 01
        E 7 bb 01 25
        E 7 bb 01 39
        E 7 bb 01 62
        E 7 bb 01 58
        E 7 bb 01 03
        E 7 bb 01 63
        E 7 bb 01 53
        E 7 bb 01 06
        E 7 bb 01 23
        E 7 bb 01 43
        E 7 bb 01 55
        E 7 bb 01 6d
        E 7 bb 01 46
        E 7 bb 01 2f
        E 7 bb 01 1f
        E 7 bb 01 4f
        E 7 bb 01 52
        E 7 bb 01 64
        E 7 bb 01 6f
        E 7 bb 01 36
        E 7 bb 01 48
        E 7 bb 01 4e
        E 7 bb 01 3c
        E 7 bb 01 6b
        E 7 bb 01 11
        E 7 bb 01 28
        E 7 bb 01 4b
        E 15 bb 01 02
        E 15 bb 01 09
        E 15 bb 01 06
        E 15 bb 01 01
        E 15 bb 01 09
        E 15 bb 01 08
        E 15 bb 01 01
        E 15 bb 01 01
        E 15 bb 01 06
        E 15 bb 01 0c
        E 15 bb 01 0a
        E 15 bb 01 0b
        E 15 bb 01 07
        E 15 bb 01 01
        E 15 bb 01 02
        E 15 bb 01 08
        E 15 bb 01 07
        E 15 bb 01 03
        E 15 bb 01 02
        E 15 bb 01 03
        E 15 bb 01 09
        E 15 bb 01 05
        E 15 bb 01 03
        E 15 bb 01 07
        E 15 bb 01 0c
        E 15 bb 01 00
        E 15 bb 01 01
        E 15 bb 01 05
        E 15 bb 01 04
        E 15 bb 01 0a
        E 15 bb 01 02
        E 15 bb 01 00
        E 15 bb 01 02
        E 15 bb 01 02
        E 15 bb 01 0b
        E 15 bb 01 03
        E 15 bb 01 00
        E 15 bb 01 09
        E 15 bb 01 04
        E 15 bb 01 02
        E 15 bb 01 05
        E 15 bb 01 03
        E 15 bb 01 0a
        E 15 bb 01 0a
        E 15 bb 01 0c
        E 15 bb 01 0a
        E 15 bb 01 05
        E 15 bb 01 0b
        E 15 bb 01 09
        E 15 bb 01 01
        E 15 bb 01 05
        E 15 bb 01 06
        E 15 bb 01 0c
        E 15 bb 01 09
        E 15 bb 01 06
        E 15 bb 01 07
        E 15 bb 01 00
        E 15 bb 01 01
        E 15 bb 01 0b
        E 15 bb 01 0a
        E 15 bb 01 05
        E 15 bb 01 04
        E 15 bb 01 01
        E 15 bb 01 05
        E 15 bb 01 03
        E 15 bb 01 03
        E 15 bb 01 04
        E 15 bb 01 06
        E 15 bb 01 07
        E 15 bb 01 08
        E 15 bb 01 02
        E 15 bb 01 07
        E 15 bb 01 0b
        E 15 bb 01 06
        E 15 bb 01 07
        E 15 bb 01 00
        E 15 bb 01 00
        E 15 bb 01 0c
        E 15 bb 01 08
        E 15 bb 01 02
        E 15 bb 01 0b
        E 15 bb 01 04
        E 15 bb 01 04
        E 15 bb 01 06
        E 15 bb 01 05
        E 15 bb 01 08
        E 15 bb 01 0a
        E 15 bb 01 03
        E 15 bb 01 07
        E 15 bb 01 02
        E 15 bb 01 0b
        E 15 bb 01 0a
        E 15 bb 01 05
        E 15 bb 01 04
        E 15 bb 01 0a
        E 15 bb 01 04
        E 15 bb 01 08
        E 15 bb 01 01
        E 15 bb 01 00
        E 15 bb 01 04
        E 15 bb 01 06
        E 15 bb 01 0a
        E 15 bb 01 09
        E 15 bb 01 00
        E 15 bb 01 0b
        E 15 bb 01 09
        E 15 bb 01 00
        E 15 bb 01 03
        E 15 bb 01 07
        E 15 bb 01 09
        E 15 bb 01 0c
        E 15 bb 01 07
        E 15 bb 01 05
        E 15 bb 01 03
        E 15 bb 01 08
        E 15 bb 01 09
        E 15 bb 01 0b
        E 15 bb 01 0c
        E 15 bb 01 06
        E 15 bb 01 08
        E 15 bb 01 08
        E 15 bb 01 06
        E 15 bb 01 0b
        E 15 bb 01 01
        E 15 bb 01 04
        E 15 bb 01 08
        E 3 bb 01 16
        E 3 bb 01 4c
        E 3 bb 01 32
        E 3 bb 01 07
        E 3 bb 01 48
        E 3 bb 01 3f
        E 3 bb 01 09
        E 3 bb 01 08
        E 3 bb 01 30
        E 3 bb 01 5f
        E 3 bb 01 50
        E 3 bb 01 58
        E 3 bb 01 3f
        E 3 bb 01 0b
        E 3 bb 01 13
        E 3 bb 01 44
        E 3 bb 01 37
        E 3 bb 01 1c
        E 3 bb 01 14
        E 3 bb 01 1b
        E 3 bb 01 4f
        E 3 bb 01 2f
        E 3 bb 01 17
        E 3 bb 01 3a
        E 3 bb 01 64
        E 3 bb 01 00
        E 3 bb 01 0c
        E 3 bb 01 29
        E 3 bb 01 22
        E 3 bb 01 53
        E 3 bb 01 15
        E 3 bb 01 06
        E 3 bb 01 0f
        E 3 bb 01 11
        E 3 bb 01 5b
        E 3 bb 01 19
        E 3 bb 01 00
        E 3 bb 01 4b
        E 3 bb 01 23
        E 3 bb 01 14
        E 3 bb 01 28
        E 3 bb 01 1a
        E 3 bb 01 56
        E 3 bb 01 55
        E 3 bb 01 65
        E 3 bb 01 54
        E 3 bb 01 2b
        E 3 bb 01 5e
        E 3 bb 01 48
        E 3 bb 01 0b
        E 3 bb 01 2c
        E 3 bb 01 36
        E 3 bb 01 60
        E 3 bb 01 4d
        E 3 bb 01 37
        E 3 bb 01 38
        E 3 bb 01 04
        E 3 bb 01 0a
        E 3 bb 01 5d
        E 3 bb 01 51
        E 3 bb 01 2b
        E 3 bb 01 1f
        E 3 bb 01 0d
        E 3 bb 01 2d
        E 3 bb 01 1e
        E 3 bb 01 18
        E 3 bb 01 26
        E 3 bb 01 34
        E 3 bb 01 3d
        E 3 bb 01 41
        E 3 bb 01 10
        E 3 bb 01 3c
        E 3 bb 01 5a
        E 3 bb 01 33
        E 3 bb 01 3b
        E 3 bb 01 02
        E 3 bb 01 07
        E 3 bb 01 63
        E 3 bb 01 42
        E 3 bb 01 12
        E 3 bb 01 5c
        E 3 bb 01 20
        E 3 bb 01 27
        E 3 bb 01 31
        E 3 bb 01 28
        E 3 bb 01 44
        E 3 bb 01 52
        E 3 bb 01 1d
        E 3 bb 01 39
        E 3 bb 01 17
        E 3 bb 01 5b
        E 3 bb 01 54
        E 3 bb 01 2e
        E 3 bb 01 24
        E 3 bb 01 50
        E 3 bb 01 25
        E 3 bb 01 47
        E 3 bb 01 0e
        E 3 bb 01 01
        E 3 bb 01 21
        E 3 bb 01 33
        E 3 bb 01 57
        E 3 bb 01 4e
        E 3 bb 01 03
        E 3 bb 01 57
        E 3 bb 01 4a
        E 3 bb 01 05
        E 3 bb 01 1f
        E 3 bb 01 3b
        E 3 bb 01 4c
        E 3 bb 01 61
        E 3 bb 01 3e
        E 3 bb 01 2a
        E 3 bb 01 1b
        E 3 bb 01 46
        E 3 bb 01 49
        E 3 bb 01 59
        E 3 bb 01 63
        E 3 bb 01 2f
        E 3 bb 01 40
        E 3 bb 01 45
        E 3 bb 01 35
        E 3 bb 01 5f
        E 3 bb 01 0f
        E 3 bb 01 24
        E 3 bb 01 43
        E 15 bb 01 16
        E 15 bb 01 4c
        E 15 bb 01 32
        E 15 bb 01 07
        E 15 bb 01 48
        E 15 bb 01 3f
        E 15 bb 01 09
        E 15 bb 01 08
        E 15 bb 01 30
        E 15 bb 01 5f
        E 15 bb 01 50
        E 15 bb 01 58
        E 15 bb 01 3f
        E 15 bb 01 0b
        E 15 bb 01 13
        E 15 bb 01 44
        E 15 bb 01 37
        E 15 bb 01 1c
        E 15 bb 01 14
        E 15 bb 01 1b
        E 15 bb 01 4f
        E 15 bb 01 2f
        E 15 bb 01 17
        E 15 bb 01 3a
        E 15 bb 01 64
        E 15 bb 01 00
        E 15 bb 01 0c
        E 15 bb 01 29
        E 15 bb 01 22
        E 15 bb 01 53
        E 15 bb 01 15
        E 15 bb 01 06
        E 15 bb 01 0f
        E 15 bb 01 11
        E 15 bb 01 5b
        E 15 bb 01 19
        E 15 bb 01 00
        E 15 bb 01 4b
        E 15 bb 01 23
        E 15 bb 01 14
        E 15 bb 01 28
        E 15 bb 01 1a
        E 15 bb 01 56
        E 15 bb 01 55
        E 15 bb 01 65
        E 15 bb 01 54
        E 15 bb 01 2b
        E 15 bb 01 5e
        E 15 bb 01 48
        E 15 bb 01 0b
        E 15 bb 01 2c
        E 15 bb 01 36
        E 15 bb 01 60
        E 15 bb 01 4d
        E 15 bb 01 37
        E 15 bb 01 38
        E 15 bb 01 04
        E 15 bb 01 0a
        E 15 bb 01 5d
        E 15 bb 01 51
        E 15 bb 01 2b
        E 15 bb 01 1f
        E 15 bb 01 0d
        E 15 bb 01 2d
        E 15 bb 01 1e
        E 15 bb 01 18
        E 15 bb 01 26
        E 15 bb 01 34
        E 15 bb 01 3d
        E 15 bb 01 41
        E 15 bb 01 10
        E 15 bb 01 3c
        E 15 bb 01 5a
        E 15 bb 01 33
        E 15 bb 01 3b
        E 15 bb 01 02
        E 15 bb 01 07
        E 15 bb 01 63
        E 15 bb 01 42
        E 15 bb 01 12
        E 15 bb 01 5c
        E 15 bb 01 20
        E 15 bb 01 27
        E 15 bb 01 31
        E 15 bb 01 28
        E 15 bb 01 44
        E 15 bb 01 52
        E 15 bb 01 1d
        E 15 bb 01 39
        E 15 bb 01 17
        E 15 bb 01 5b
        E 15 bb 01 54
        E 15 bb 01 2e
        E 15 bb 01 24
        E 15 bb 01 50
        E 15 bb 01 25
        E 15 bb 01 47
        E 15 bb 01 0e
        E 15 bb 01 01
        E 15 bb 01 21
        E 15 bb 01 33
        E 15 bb 01 57
        E 15 bb 01 4e
        E 15 bb 01 03
        E 15 bb 01 57
        E 15 bb 01 4a
        E 15 bb 01 05
        E 15 bb 01 1f
        E 15 bb 01 3b
        E 15 bb 01 4c
        E 15 bb 01 61
        E 15 bb 01 3e
        E 15 bb 01 2a
        E 15 bb 01 1b
        E 15 bb 01 46
        E 15 bb 01 49
        E 15 bb 01 59
        E 15 bb 01 63
        E 15 bb 01 2f
        E 15 bb 01 40
        E 15 bb 01 45
        E 15 bb 01 35
        E 15 bb 01 5f
        E 15 bb 01 0f
        E 15 bb 01 24
        E 15 bb 01 43
        E 15 bb 01 16
        E 15 bb 01 4c
        E 15 bb 01 32
        E 15 bb 01 07
        E 15 bb 01 48
        E 15 bb 01 3f
        E 15 bb 01 09
        E 15 bb 01 08
        E 15 bb 01 30
        E 15 bb 01 5f
        E 15 bb 01 50
        E 15 bb 01 58
        E 15 bb 01 3f
        E 15 bb 01 0b
        E 15 bb 01 13
        E 15 bb 01 44
        E 15 bb 01 37
        E 15 bb 01 1c
        E 15 bb 01 14
        E 15 bb 01 1b
        E 15 bb 01 4f
        E 15 bb 01 2f
        E 15 bb 01 17
        E 15 bb 01 3a
        E 15 bb 01 64
        E 15 bb 01 00
        E 15 bb 01 0c
        E 15 bb 01 29
        E 15 bb 01 22
        E 15 bb 01 53
        E 15 bb 01 15
        E 15 bb 01 06
        E 15 bb 01 0f
        E 15 bb 01 11
        E 15 bb 01 5b
        E 15 bb 01 19
        E 15 bb 01 00
        E 15 bb 01 4b
        E 15 bb 01 23
        E 15 bb 01 14
        E 15 bb 01 28
        E 15 bb 01 1a
        E 15 bb 01 56
        E 15 bb 01 55
        E 15 bb 01 65
        E 15 bb 01 54
        E 15 bb 01 2b
        E 15 bb 01 5e
        E 15 bb 01 48
        E 15 bb 01 0b
        E 15 bb 01 2c
        E 15 bb 01 36
        E 15 bb 01 60
        E 15 bb 01 4d
        E 15 bb 01 37
        E 15 bb 01 38
        E 15 bb 01 04
        E 15 bb 01 0a
        E 15 bb 01 5d
        E 15 bb 01 51
        E 15 bb 01 2b
        E 15 bb 01 1f
        E 15 bb 01 0d
        E 15 bb 01 2d
        E 15 bb 01 1e
        E 15 bb 01 18
        E 15 bb 01 26
        E 15 bb 01 34
        E 15 bb 01 3d
        E 15 bb 01 41
        E 15 bb 01 10
        E 15 bb 01 3c
        E 15 bb 01 5a
        E 15 bb 01 33
        E 15 bb 01 3b
        E 15 bb 01 02
        E 15 bb 01 07
        E 15 bb 01 63
        E 15 bb 01 42
        E 15 bb 01 12
        E 15 bb 01 5c
        E 15 bb 01 20
        E 15 bb 01 27
        E 15 bb 01 31
        E 15 bb 01 28
        E 15 bb 01 44
        E 15 bb 01 52
        E 15 bb 01 1d
        E 15 bb 01 39
        E 15 bb 01 17
        E 15 bb 01 5b
        E 15 bb 01 54
        E 15 bb 01 2e
        E 15 bb 01 24
        E 15 bb 01 50
        E 15 bb 01 25
        E 15 bb 01 47
        E 15 bb 01 0e
        E 15 bb 01 01
        E 15 bb 01 21
        E 15 bb 01 33
        E 15 bb 01 57
        E 15 bb 01 4e
        E 15 bb 01 03
        E 15 bb 01 57
        E 15 bb 01 4a
        E 15 bb 01 05
        E 15 bb 01 1f
        E 15 bb 01 3b
        E 15 bb 01 4c
        E 15 bb 01 61
        E 15 bb 01 3e
        E 15 bb 01 2a
        E 15 bb 01 1b
        E 15 bb 01 46
        E 15 bb 01 49
        E 15 bb 01 59
        E 15 bb 01 63
        E 15 bb 01 2f
        E 15 bb 01 40
        E 15 bb 01 45
        E 15 bb 01 35
        E 15 bb 01 5f
        E 15 bb 01 0f
        E 15 bb 01 24
        E 15 bb 01 43
        E 3 bb 01 05
        E 3 bb 01 13
        E 3 bb 01 0c
        E 3 bb 01 02
        E 3 bb 01 12
        E 3 bb 01 10
        E 3 bb 01 02
        E 3 bb 01 02
        E 3 bb 01 0c
        E 3 bb 01 18
        E 3 bb 01 14
        E 3 bb 01 16
        E 3 bb 01 0f
        E 3 bb 01 02
        E 3 bb 01 04
        E 3 bb 01 11
        E 3 bb 01 0e
        E 3 bb 01 07
        E 3 bb 01 05
        E 3 bb 01 06
        E 3 bb 01 13
        E 3 bb 01 0b
        E 3 bb 01 06
        E 3 bb 01 0e
        E 3 bb 01 19
        E 3 bb 01 00
        E 3 bb 01 03
        E 3 bb 01 0a
        E 3 bb 01 08
        E 3 bb 01 14
        E 3 bb 01 05
        E 3 bb 01 01
        E 3 bb 01 04
        E 3 bb 01 04
        E 3 bb 01 17
        E 3 bb 01 06
        E 3 bb 01 00
        E 3 bb 01 12
        E 3 bb 01 08
        E 3 bb 01 05
        E 3 bb 01 0a
        E 3 bb 01 06
        E 3 bb 01 15
        E 3 bb 01 15
        E 3 bb 01 19
        E 3 bb 01 15
        E 3 bb 01 0b
        E 3 bb 01 17
        E 3 bb 01 12
        E 3 bb 01 03
        E 3 bb 01 0b
        E 3 bb 01 0d
        E 3 bb 01 18
        E 3 bb 01 13
        E 3 bb 01 0d
        E 3 bb 01 0e
        E 3 bb 01 01
        E 3 bb 01 02
        E 3 bb 01 17
        E 3 bb 01 14
        E 3 bb 01 0a
        E 3 bb 01 08
        E 3 bb 01 03
        E 3 bb 01 0b
        E 3 bb 01 07
        E 3 bb 01 06
        E 3 bb 01 09
        E 3 bb 01 0d
        E 3 bb 01 0f
        E 3 bb 01 10
        E 3 bb 01 04
        E 3 bb 01 0f
        E 3 bb 01 16
        E 3 bb 01 0d
        E 3 bb 01 0e
        E 3 bb 01 00
        E 3 bb 01 01
        E 3 bb 01 19
        E 3 bb 01 10
        E 3 bb 01 04
        E 3 bb 01 17
        E 3 bb 01 08
        E 3 bb 01 09
        E 3 bb 01 0c
        E 3 bb 01 0a
        E 3 bb 01 11
        E 3 bb 01 14
        E 3 bb 01 07
        E 3 bb 01 0e
        E 3 bb 01 05
        E 3 bb 01 16
        E 3 bb 01 15
        E 3 bb 01 0b
        E 3 bb 01 09
        E 3 bb 01 14
        E 3 bb 01 09
        E 3 bb 01 11
        E 3 bb 01 03
        E 3 bb 01 00
        E 3 bb 01 08
        E 3 bb 01 0c
        E 3 bb 01 15
        E 3 bb 01 13
        E 3 bb 01 00
        E 3 bb 01 16
        E 3 bb 01 12
        E 3 bb 01 01
        E 3 bb 01 07
        E 3 bb 01 0f
        E 3 bb 01 13
        E 3 bb 01 18
        E 3 bb 01 0f
        E 3 bb 01 0a
        E 3 bb 01 07
        E 3 bb 01 11
        E 3 bb 01 12
        E 3 bb 01 16
        E 3 bb 01 18
        E 3 bb 01 0c
        E 3 bb 01 10
        E 3 bb 01 11
        E 3 bb 01 0d
        E 3 bb 01 17
        E 3 bb 01 03
        E 3 bb 01 09
        E 3 bb 01 10
        E 1 bb 01 33
        E 1 bb 01 35
        E 1 bb 01 37
        E 1 bb 01 3a
        E 1 bb 01 3c
        E 1 bb 01 3f
        E 1 bb 01 41
        E 1 bb 01 44
        E 1 bb 01 46
        E 1 bb 01 48
        E 1 bb 01 4b
        E 1 bb 01 4c
        E 1 bb 01 4f
        E 1 bb 01 51
        E 1 bb 01 53
        E 1 bb 01 54
        E 1 bb 01 57
        E 1 bb 01 58
        E 1 bb 01 5a
        E 1 bb 01 5b
        E 1 bb 01 5d
        E 1 bb 01 5e
        E 1 bb 01 5f
        E 1 bb 01 60
        E 1 bb 01 61
        E 1 bb 01 62
        E 1 bb 01 63
        E 1 bb 01 63
        E 1 bb 01 64
        E 1 bb 01 64
        E 1 bb 01 65
        E 1 bb 01 65
        E 1 bb 01 65
        E 1 bb 01 65
        E 1 bb 01 65
        E 1 bb 01 64
        E 1 bb 01 64
        E 1 bb 01 63
        E 1 bb 01 63
        E 1 bb 01 62
        E 1 bb 01 61
        E 1 bb 01 5f
        E 1 bb 01 5f
        E 1 bb 01 5d
        E 1 bb 01 5c
        E 1 bb 01 5b
        E 1 bb 01 59
        E 1 bb 01 57
        E 1 bb 01 56
        E 1 bb 01 54
        E 1 bb 01 52
        E 1 bb 01 50
        E 1 bb 01 4e
        E 1 bb 01 4c
        E 1 bb 01 49
        E 1 bb 01 47
        E 1 bb 01 45
        E 1 bb 01 43
        E 1 bb 01 40
        E 1 bb 01 3e
        E 1 bb 01 3b
        E 1 bb 01 38
        E 1 bb 01 36
        E 1 bb 01 33
        E 1 bb 01 31
        E 1 bb 01 2f
        E 1 bb 01 2c
        E 1 bb 01 2a
        E 1 bb 01 27
        E 1 bb 01 24
        E 1 bb 01 22
        E 1 bb 01 1f
        E 1 bb 01 1e
        E 1 bb 01 1b
        E 1 bb 01 19
        E 1 bb 01 17
        E 1 bb 01 15
        E 1 bb 01 13
        E 1 bb 01 11
        E 1 bb 01 0f
        E 1 bb 01 0d
        E 1 bb 01 0b
        E 1 bb 01 0a
        E 1 bb 01 08
        E 1 bb 01 07
        E 1 bb 01 06
        E 1 bb 01 05
        E 1 bb 01 03
        E 1 bb 01 03
        E 1 bb 01 02
        E 1 bb 01 01
        E 1 bb 01 00
        E 1 bb 01 00
        E 1 bb 01 00
        E 1 bb 01 00
        E 1 bb 01 00
        E 1 bb 01 00
        E 1 bb 01 00
        E 1 bb 01 00
        E 1 bb 01 00
        E 1 bb 01 01
        E 1 bb 01 02
        E 1 bb 01 03
        E 1 bb 01 03
        E 1 bb 01 04
        E 1 bb 01 05
        E 1 bb 01 07
        E 1 bb 01 07
        E 1 bb 01 09
        E 1 bb 01 0b
        E 1 bb 01 0c
        E 1 bb 01 0e
        E 1 bb 01 10
        E 1 bb 01 12
        E 1 bb 01 14
        E 1 bb 01 16
        E 1 bb 01 18
        E 1 bb 01 1a
        E 1 bb 01 1c
        E 1 bb 01 1f
        E 1 bb 01 21
        E 1 bb 01 24
        E 1 bb 01 26
        E 1 bb 01 28
        E 1 bb 01 2b
        E 1 bb 01 2d
        E 1 bb 01 2f
        E 1 bb 01 33
        E 7 bb 01 33
        E 7 bb 01 35
        E 7 bb 01 37
        E 7 bb 01 3a
        E 7 bb 01 3c
        E 7 bb 01 3f
        E 7 bb 01 41
        E 7 bb 01 44
        E 7 bb 01 46
        E 7 bb 01 48
        E 7 bb 01 4b
        E 7 bb 01 4c
        E 7 bb 01 4f
        E 7 bb 01 51
        E 7 bb 01 53
        E 7 bb 01 54
        E 7 bb 01 57
        E 7 bb 01 58
        E 7 bb 01 5a
        E 7 bb 01 5b
        E 7 bb 01 5d
        E 7 bb 01 5e
        E 7 bb 01 5f
        E 7 bb 01 60
        E 7 bb 01 61
        E 7 bb 01 62
        E 7 bb 01 63
        E 7 bb 01 63
        E 7 bb 01 64
        E 7 bb 01 64
        E 7 bb 01 65
        E 7 bb 01 65
        E 7 bb 01 65
        E 7 bb 01 65
        E 7 bb 01 65
        E 7 bb 01 64
        E 7 bb 01 64
        E 7 bb 01 63
        E 7 bb 01 63
        E 7 bb 01 62
        E 7 bb 01 61
        E 7 bb 01 5f
        E 7 bb 01 5f
        E 7 bb 01 5d
        E 7 bb 01 5c
        E 7 bb 01 5b
        E 7 bb 01 59
        E 7 bb 01 57
        E 7 bb 01 56
        E 7 bb 01 54
        E 7 bb 01 52
        E 7 bb 01 50
        E 7 bb 01 4e
        E 7 bb 01 4c
        E 7 bb 01 49
        E 7 bb 01 47
        E 7 bb 01 45
        E 7 bb 01 43
        E 7 bb 01 40
        E 7 bb 01 3e
        E 7 bb 01 3b
        E 7 bb 01 38
        E 7 bb 01 36
        E 7 bb 01 33
        E 7 bb 01 31
        E 7 bb 01 2f
        E 7 bb 01 2c
        E 7 bb 01 2a
        E 7 bb 01 27
        E 7 bb 01 24
        E 7 bb 01 22
        E 7 bb 01 1f
        E 7 bb 01 1e
        E 7 bb 01 1b
        E 7 bb 01 19
        E 7 bb 01 17
        E 7 bb 01 15
        E 7 bb 01 13
        E 7 bb 01 11
        E 7 bb 01 0f
        E 7 bb 01 0d
        E 7 bb 01 0b
        E 7 bb 01 0a
        E 7 bb 01 08
        E 7 bb 01 07
        E 7 bb 01 06
        E 7 bb 01 05
        E 7 bb 01 03
        E 7 bb 01 03
        E 7 bb 01 02
        E 7 bb 01 01
        E 7 bb 01 00
        E 7 bb 01 00
        E 7 bb 01 00
        E 7 bb 01 00
        E 7 bb 01 00
        E 7 bb 01 00
        E 7 bb 01 00
        E 7 bb 01 00
        E 7 bb 01 00
        E 7 bb 01 01
        E 7 bb 01 02
        E 7 bb 01 03
        E 7 bb 01 03
        E 7 bb 01 04
        E 7 bb 01 05
        E 7 bb 01 07
        E 7 bb 01 07
        E 7 bb 01 09
        E 7 bb 01 0b
        E 7 bb 01 0c
        E 7 bb 01 0e
        E 7 bb 01 10
        E 7 bb 01 12
        E 7 bb 01 14
        E 7 bb 01 16
        E 7 bb 01 18
        E 7 bb 01 1a
        E 7 bb 01 1c
        E 7 bb 01 1f
        E 7 bb 01 21
        E 7 bb 01 24
        E 7 bb 01 26
        E 7 bb 01 28
        E 7 bb 01 2b
        E 7 bb 01 2d
        E 7 bb 01 2f
        E 7 bb 01 33
        E 7 bb 01 19
        E 7 bb 01 56
        E 7 bb 01 38
        E 7 bb 01 09
        E 7 bb 01 51
        E 7 bb 01 48
        E 7 bb 01 0a
        E 7 bb 01 09
        E 7 bb 01 36
        E 7 bb 01 6c
        E 7 bb 01 5a
        E 7 bb 01 63
        E 7 bb 01 47
        E 7 bb 01 0c
        E 7 bb 01 15
        E 7 bb 01 4d
        E 7 bb 01 3f
        E 7 bb 01 20
        E 7 bb 01 16
        E 7 bb 01 1e
        E 7 bb 01 59
        E 7 bb 01 35
        E 7 bb 01 1b
        E 7 bb 01 41
        E 7 bb 01 71
        E 7 bb 01 00
        E 7 bb 01 0e
        E 7 bb 01 2e
        E 7 bb 01 26
        E 7 bb 01 5d
        E 7 bb 01 18
        E 7 bb 01 07
        E 7 bb 01 12
        E 7 bb 01 13
        E 7 bb 01 67
        E 7 bb 01 1c
        E 7 bb 01 00
        E 7 bb 01 54
        E 7 bb 01 27
        E 7 bb 01 17
        E 7 bb 01 2d
        E 7 bb 01 1d
        E 7 bb 01 61
        E 7 bb 01 60
        E 7 bb 01 72
        E 7 bb 01 5f
        E 7 bb 01 31
        E 7 bb 01 6a
        E 7 bb 01 51
        E 7 bb 01 0d
        E 7 bb 01 32
        E 7 bb 01 3d
        E 7 bb 01 6c
        E 7 bb 01 57
        E 7 bb 01 3e
        E 7 bb 01 3f
        E 7 bb 01 05
        E 7 bb 01 0b
        E 7 bb 01 69
        E 7 bb 01 5b
        E 7 bb 01 30
        E 7 bb 01 24
        E 7 bb 01 0f
        E 7 bb 01 33
        E 7 bb 01 22
        E 7 bb 01 1b
        E 7 bb 01 2b
        E 7 bb 01 3b
        E 7 bb 01 45
        E 7 bb 01 49
        E 7 bb 01 12
        E 7 bb 01 44
        E 7 bb 01 65
        E 7 bb 01 3a
        E 7 bb 01 42
        E 7 bb 01 02
        E 7 bb 01 08
        E 7 bb 01 70
        E 7 bb 01 4a
        E 7 bb 01 14
        E 7 bb 01 68
        E 7 bb 01 24
        E 7 bb 01 2c
        E 7 bb 01 37
        E 7 bb 01 2d
        E 7 bb 01 4c
        E 7 bb 01 5c
        E 7 bb 01 21
        E 7 bb 01 40
        E 7 bb 01 1a
        E 7 bb 01 66
        E 7 bb 01 5e
        E 7 bb 01 34
        E 7 bb 01 29
        E 7 bb 01 5a
        E 7 bb 01 2a
        E 7 bb 01 50
        E 7 bb 01 10
        E 7 bb 01 01
        E 7 bb 01 25
        E 7 bb 01 39
        E 7 bb 01 62
        E 7 bb 01 58
        E 7 bb 01 03
        E 7 bb 01 63
        E 7 bb 01 53
        E 7 bb 01 06
        E 7 bb 01 23
        E 7 bb 01 43
        E 7 bb 01 55
        E 7 bb 01 6d
        E 7 bb 01 46
        E 7 bb 01 2f
        E 7 bb 01 1f
        E 7 bb 01 4f
        E 7 bb 01 52
        E 7 bb 01 64
        E 7 bb 01 6f
        E 7 bb 01 36
        E 7 bb 01 48
        E 7 bb 01 4e
        E 7 bb 01 3c
        E 7 bb 01 6b
        E 7 bb 01 11
        E 7 bb 01 28
        E 7 bb 01 4b
        E 14 bb 01 02
        E 14 bb 01 09
        E 14 bb 01 06
        E 14 bb 01 01
        E 14 bb 01 09
        E 14 bb 01 08
        E 14 bb 01 01
        E 14 bb 01 01
        E 14 bb 01 06
        E 14 bb 01 0c
        E 14 bb 01 0a
        E 14 bb 01 0b
        E 14 bb 01 07
        E 14 bb 01 01
        E 14 bb 01 02
        E 14 bb 01 08
        E 14 bb 01 07
        E 14 bb 01 03
        E 14 bb 01 02
        E 14 bb 01 03
        E 14 bb 01 09
        E 14 bb 01 05
        E 14 bb 01 03
        E 14 bb 01 07
        E 14 bb 01 0c
        E 14 bb 01 00
        E 14 bb 01 01
        E 14 bb 01 05
        E 14 bb 01 04
        E 14 bb 01 0a
        E 14 bb 01 02
        E 14 bb 01 00
        E 14 bb 01 02
        E 14 bb 01 02
        E 14 bb 01 0b
        E 14 bb 01 03
        E 14 bb 01 00
        E 14 bb 01 09
        E 14 bb 01 04
        E 14 bb 01 02
        E 14 bb 01 05
        E 14 bb 01 03
        E 14 bb 01 0a
        E 14 bb 01 0a
        E 14 bb 01 0c
        E 14 bb 01 0a
        E 14 bb 01 05
        E 14 bb 01 0b
        E 14 bb 01 09
        E 14 bb 01 01
        E 14 bb 01 05
        E 14 bb 01 06
        E 14 bb 01 0c
        E 14 bb 01 09
        E 14 bb 01 06
        E 14 bb 01 07
        E 14 bb 01 00
        E 14 bb 01 01
        E 14 bb 01 0b
        E 14 bb 01 0a
        E 14 bb 01 05
        E 14 bb 01 04
        E 14 bb 01 01
        E 14 bb 01 05
        E 14 bb 01 03
        E 14 bb 01 03
        E 14 bb 01 04
        E 14 bb 01 06
        E 14 bb 01 07
        E 14 bb 01 08
        E 14 bb 01 02
        E 14 bb 01 07
        E 14 bb 01 0b
        E 14 bb 01 06
        E 14 bb 01 07
        E 14 bb 01 00
        E 14 bb 01 00
        E 14 bb 01 0c
        E 14 bb 01 08
        E 14 bb 01 02
        E 14 bb 01 0b
        E 14 bb 01 04
        E 14 bb 01 04
        E 14 bb 01 06
        E 14 bb 01 05
        E 14 bb 01 08
        E 14 bb 01 0a
        E 14 bb 01 03
        E 14 bb 01 07
        E 14 bb 01 02
        E 14 bb 01 0b
        E 14 bb 01 0a
        E 14 bb 01 05
        E 14 bb 01 04
        E 14 bb 01 0a
        E 14 bb 01 04
        E 14 bb 01 08
        E 14 bb 01 01
        E 14 bb 01 00
        E 14 bb 01 04
        E 14 bb 01 06
        E 14 bb 01 0a
        E 14 bb 01 09
        E 14 bb 01 00
        E 14 bb 01 0b
        E 14 bb 01 09
        E 14 bb 01 00
        E 14 bb 01 03
        E 14 bb 01 07
        E 14 bb 01 09
        E 14 bb 01 0c
        E 14 bb 01 07
        E 14 bb 01 05
        E 14 bb 01 03
        E 14 bb 01 08
        E 14 bb 01 09
        E 14 bb 01 0b
        E 14 bb 01 0c
        E 14 bb 01 06
        E 14 bb 01 08
        E 14 bb 01 08
        E 14 bb 01 06
        E 14 bb 01 0b
        E 14 bb 01 01
        E 14 bb 01 04
        E 14 bb 01 08
        E 3 bb 01 16
        E 3 bb 01 4c
        E 3 bb 01 32
        E 3 bb 01 07
        E 3 bb 01 48
        E 3 bb 01 3f
        E 3 bb 01 09
        E 3 bb 01 08
        E 3 bb 01 30
        E 3 bb 01 5f
        E 3 bb 01 50
        E 3 bb 01 58
        E 3 bb 01 3f
        E 3 bb 01 0b
        E 3 bb 01 13
        E 3 bb 01 44
        E 3 bb 01 37
        E 3 bb 01 1c
        E 3 bb 01 14
        E 3 bb 01 1b
        E 3 bb 01 4f
        E 3 bb 01 2f
        E 3 bb 01 17
        E 3 bb 01 3a
        E 3 bb 01 64
        E 3 bb 01 00
        E 3 bb 01 0c
        E 3 bb 01 29
        E 3 bb 01 22
        E 3 bb 01 53
        E 3 bb 01 15
        E 3 bb 01 06
        E 3 bb 01 0f
        E 3 bb 01 11
        E 3 bb 01 5b
        E 3 bb 01 19
        E 3 bb 01 00
        E 3 bb 01 4b
        E 3 bb 01 23
        E 3 bb 01 14
        E 3 bb 01 28
        E 3 bb 01 1a
        E 3 bb 01 56
        E 3 bb 01 55
        E 3 bb 01 65
        E 3 bb 01 54
        E 3 bb 01 2b
        E 3 bb 01 5e
        E 3 bb 01 48
        E 3 bb 01 0b
        E 3 bb 01 2c
        E 3 bb 01 36
        E 3 bb 01 60
        E 3 bb 01 4d
        E 3 bb 01 37
        E 3 bb 01 38
        E 3 bb 01 04
        E 3 bb 01 0a
        E 3 bb 01 5d
        E 3 bb 01 51
        E 3 bb 01 2b
        E 3 bb 01 1f
        E 3 bb 01 0d
        E 3 bb 01 2d
        E 3 bb 01 1e
        E 3 bb 01 18
        E 3 bb 01 26
        E 3 bb 01 34
        E 3 bb 01 3d
        E 3 bb 01 41
        E 3 bb 01 10
        E 3 bb 01 3c
        E 3 bb 01 5a
        E 3 bb 01 33
        E 3 bb 01 3b
        E 3 bb 01 02
        E 3 bb 01 07
        E 3 bb 01 63
        E 3 bb 01 42
        E 3 bb 01 12
        E 3 bb 01 5c
        E 3 bb 01 20
        E 3 bb 01 27
        E 3 bb 01 31
        E 3 bb 01 28
        E 3 bb 01 44
        E 3 bb 01 52
        E 3 bb 01 1d
        E 3 bb 01 39
        E 3 bb 01 17
        E 3 bb 01 5b
        E 3 bb 01 54
        E 3 bb 01 2e
        E 3 bb 01 24
        E 3 bb 01 50
        E 3 bb 01 25
        E 3 bb 01 47
        E 3 bb 01 0e
        E 3 bb 01 01
        E 3 bb 01 21
        E 3 bb 01 33
        E 3 bb 01 57
        E 3 bb 01 4e
        E 3 bb 01 03
        E 3 bb 01 57
        E 3 bb 01 4a
        E 3 bb 01 05
        E 3 bb 01 1f
        E 3 bb 01 3b
        E 3 bb 01 4c
        E 3 bb 01 61
        E 3 bb 01 3e
        E 3 bb 01 2a
        E 3 bb 01 1b
        E 3 bb 01 46
        E 3 bb 01 49
        E 3 bb 01 59
        E 3 bb 01 63
        E 3 bb 01 2f
        E 3 bb 01 40
        E 3 bb 01 45
        E 3 bb 01 35
        E 3 bb 01 5f
        E 3 bb 01 0f
        E 3 bb 01 24
        E 3 bb 01 43
        E 14 bb 01 16
        E 14 bb 01 4c
        E 14 bb 01 32
        E 14 bb 01 07
        E 14 bb 01 48
        E 14 bb 01 3f
        E 14 bb 01 09
        E 14 bb 01 08
        E 14 bb 01 30
        E 14 bb 01 5f
        E 14 bb 01 50
        E 14 bb 01 58
        E 14 bb 01 3f
        E 14 bb 01 0b
        E 14 bb 01 13
        E 14 bb 01 44
        E 14 bb 01 37
        E 14 bb 01 1c
        E 14 bb 01 14
        E 14 bb 01 1b
        E 14 bb 01 4f
        E 14 bb 01 2f
        E 14 bb 01 17
        E 14 bb 01 3a
        E 14 bb 01 64
        E 14 bb 01 00
        E 14 bb 01 0c
        E 14 bb 01 29
        E 14 bb 01 22
        E 14 bb 01 53
        E 14 bb 01 15
        E 14 bb 01 06
        E 14 bb 01 0f
        E 14 bb 01 11
        E 14 bb 01 5b
        E 14 bb 01 19
        E 14 bb 01 00
        E 14 bb 01 4b
        E 14 bb 01 23
        E 14 bb 01 14
        E 14 bb 01 28
        E 14 bb 01 1a
        E 14 bb 01 56
        E 14 bb 01 55
        E 14 bb 01 65
        E 14 bb 01 54
        E 14 bb 01 2b
        E 14 bb 01 5e
        E 14 bb 01 48
        E 14 bb 01 0b
        E 14 bb 01 2c
        E 14 bb 01 36
        E 14 bb 01 60
        E 14 bb 01 4d
        E 14 bb 01 37
        E 14 bb 01 38
        E 14 bb 01 04
        E 14 bb 01 0a
        E 14 bb 01 5d
        E 14 bb 01 51
        E 14 bb 01 2b
        E 14 bb 01 1f
        E 14 bb 01 0d
        E 14 bb 01 2d
        E 14 bb 01 1e
        E 14 bb 01 18
        E 14 bb 01 26
        E 14 bb 01 34
        E 14 bb 01 3d
        E 14 bb 01 41
        E 14 bb 01 10
        E 14 bb 01 3c
        E 14 bb 01 5a
        E 14 bb 01 33
        E 14 bb 01 3b
        E 14 bb 01 02
        E 14 bb 01 07
        E 14 bb 01 63
        E 14 bb 01 42
        E 14 bb 01 12
        E 14 bb 01 5c
        E 14 bb 01 20
        E 14 bb 01 27
        E 14 bb 01 31
        E 14 bb 01 28
        E 14 bb 01 44
        E 14 bb 01 52
        E 14 bb 01 1d
        E 14 bb 01 39
        E 14 bb 01 17
        E 14 bb 01 5b
        E 14 bb 01 54
        E 14 bb 01 2e
        E 14 bb 01 24
        E 14 bb 01 50
        E 14 bb 01 25
        E 14 bb 01 47
        E 14 bb 01 0e
        E 14 bb 01 01
        E 14 bb 01 21
        E 14 bb 01 33
        E 14 bb 01 57
        E 14 bb 01 4e
        E 14 bb 01 03
        E 14 bb 01 57
        E 14 bb 01 4a
        E 14 bb 01 05
        E 14 bb 01 1f
        E 14 bb 01 3b
        E 14 bb 01 4c
        E 14 bb 01 61
        E 14 bb 01 3e
        E 14 bb 01 2a
        E 14 bb 01 1b
        E 14 bb 01 46
        E 14 bb 01 49
        E 14 bb 01 59
        E 14 bb 01 63
        E 14 bb 01 2f
        E 14 bb 01 40
        E 14 bb 01 45
        E 14 bb 01 35
        E 14 bb 01 5f
        E 14 bb 01 0f
        E 14 bb 01 24
        E 14 bb 01 43
        E 7 bb 01 19
        E 7 bb 01 56
        E 7 bb 01 38
        E 7 bb 01 09
        E 7 bb 01 51
        E 7 bb 01 48
        E 7 bb 01 0a
        E 7 bb 01 09
        E 7 bb 01 36
        E 7 bb 01 6c
        E 7 bb 01 5a
        E 7 bb 01 63
        E 7 bb 01 47
        E 7 bb 01 0c
        E 7 bb 01 15
        E 7 bb 01 4d
        E 7 bb 01 3f
        E 7 bb 01 20
        E 7 bb 01 16
        E 7 bb 01 1e
        E 7 bb 01 59
        E 7 bb 01 35
        E 7 bb 01 1b
        E 7 bb 01 41
        E 7 bb 01 71
        E 7 bb 01 00
        E 7 bb 01 0e
        E 7 bb 01 2e
        E 7 bb 01 26
        E 7 bb 01 5d
        E 7 bb 01 18
        E 7 bb 01 07
        E 7 bb 01 12
        E 7 bb 01 13
        E 7 bb 01 67
        E 7 bb 01 1c
        E 7 bb 01 00
        E 7 bb 01 54
        E 7 bb 01 27
        E 7 bb 01 17
        E 7 bb 01 2d
        E 7 bb 01 1d
        E 7 bb 01 61
        E 7 bb 01 60
        E 7 bb 01 72
        E 7 bb 01 5f
        E 7 bb 01 31
        E 7 bb 01 6a
        E 7 bb 01 51
        E 7 bb 01 0d
        E 7 bb 01 32
        E 7 bb 01 3d
        E 7 bb 01 6c
        E 7 bb 01 57
        E 7 bb 01 3e
        E 7 bb 01 3f
        E 7 bb 01 05
        E 7 bb 01 0b
        E 7 bb 01 69
        E 7 bb 01 5b
        E 7 bb 01 30
        E 7 bb 01 24
        E 7 bb 01 0f
        E 7 bb 01 33
        E 7 bb 01 22
        E 7 bb 01 1b
        E 7 bb 01 2b
        E 7 bb 01 3b
        E 7 bb 01 45
        E 7 bb 01 49
        E 7 bb 01 12
        E 7 bb 01 44
        E 7 bb 01 65
        E 7 bb 01 3a
        E 7 bb 01 42
        E 7 bb 01 02
        E 7 bb 01 08
        E 7 bb 01 70
        E 7 bb 01 4a
        E 7 bb 01 14
        E 7 bb 01 68
        E 7 bb 01 24
        E 7 bb 01 2c
        E 7 bb 01 37
        E 7 bb 01 2d
        E 7 bb 01 4c
        E 7 bb 01 5c
        E 7 bb 01 21
        E 7 bb 01 40
        E 7 bb 01 1a
        E 7 bb 01 66
        E 7 bb 01 5e
        E 7 bb 01 34
        E 7 bb 01 29
        E 7 bb 01 5a
        E 7 bb 01 2a
        E 7 bb 01 50
        E 7 bb 01 10
        E 7 bb 01 01
        E 7 bb 01 25
        E 7 bb 01 39
        E 7 bb 01 62
        E 7 bb 01 58
        E 7 bb 01 03
        E 7 bb 01 63
        E 7 bb 01 53
        E 7 bb 01 06
        E 7 bb 01 23
        E 7 bb 01 43
        E 7 bb 01 55
        E 7 bb 01 6d
        E 7 bb 01 46
        E 7 bb 01 2f
        E 7 bb 01 1f
        E 7 bb 01 4f
        E 7 bb 01 52
        E 7 bb 01 64
        E 7 bb 01 6f
        E 7 bb 01 36
        E 7 bb 01 48
        E 7 bb 01 4e
        E 7 bb 01 3c
        E 7 bb 01 6b
        E 7 bb 01 11
        E 7 bb 01 28
        E 7 bb 01 4b
        E 14 bb 01 02
        E 14 bb 01 09
        E 14 bb 01 06
        E 14 bb 01 01
        E 14 bb 01 09
        E 14 bb 01 08
        E 14 bb 01 01
        E 14 bb 01 01
        E 14 bb 01 06
        E 14 bb 01 0c
        E 14 bb 01 0a
        E 14 bb 01 0b
        E 14 bb 01 07
        E 14 bb 01 01
        E 14 bb 01 02
        E 14 bb 01 08
        E 14 bb 01 07
        E 14 bb 01 03
        E 14 bb 01 02
        E 14 bb 01 03
        E 14 bb 01 09
        E 14 bb 01 05
        E 14 bb 01 03
        E 14 bb 01 07
        E 14 bb 01 0c
        E 14 bb 01 00
        E 14 bb 01 01
        E 14 bb 01 05
        E 14 bb 01 04
        E 14 bb 01 0a
        E 14 bb 01 02
        E 14 bb 01 00
        E 14 bb 01 02
        E 14 bb 01 02
        E 14 bb 01 0b
        E 14 bb 01 03
        E 14 bb 01 00
        E 14 bb 01 09
        E 14 bb 01 04
        E 14 bb 01 02
        E 14 bb 01 05
        E 14 bb 01 03
        E 14 bb 01 0a
        E 14 bb 01 0a
        E 14 bb 01 0c
        E 14 bb 01 0a
        E 14 bb 01 05
        E 14 bb 01 0b
        E 14 bb 01 09
        E 14 bb 01 01
        E 14 bb 01 05
        E 14 bb 01 06
        E 14 bb 01 0c
        E 14 bb 01 09
        E 14 bb 01 06
        E 14 bb 01 07
        E 14 bb 01 00
        E 14 bb 01 01
        E 14 bb 01 0b
        E 14 bb 01 0a
        E 14 bb 01 05
        E 14 bb 01 04
        E 14 bb 01 01
        E 14 bb 01 05
        E 14 bb 01 03
        E 14 bb 01 03
        E 14 bb 01 04
        E 14 bb 01 06
        E 14 bb 01 07
        E 14 bb 01 08
        E 14 bb 01 02
        E 14 bb 01 07
        E 14 bb 01 0b
        E 14 bb 01 06
        E 14 bb 01 07
        E 14 bb 01 00
        E 14 bb 01 00
        E 14 bb 01 0c
        E 14 bb 01 08
        E 14 bb 01 02
        E 14 bb 01 0b
        E 14 bb 01 04
        E 14 bb 01 04
        E 14 bb 01 06
        E 14 bb 01 05
        E 14 bb 01 08
        E 14 bb 01 0a
        E 14 bb 01 03
        E 14 bb 01 07
        E 14 bb 01 02
        E 14 bb 01 0b
        E 14 bb 01 0a
        E 14 bb 01 05
        E 14 bb 01 04
        E 14 bb 01 0a
        E 14 bb 01 04
        E 14 bb 01 08
        E 14 bb 01 01
        E 14 bb 01 00
        E 14 bb 01 04
        E 14 bb 01 06
        E 14 bb 01 0a
        E 14 bb 01 09
        E 14 bb 01 00
        E 14 bb 01 0b
        E 14 bb 01 09
        E 14 bb 01 00
        E 14 bb 01 03
        E 14 bb 01 07
        E 14 bb 01 09
        E 14 bb 01 0c
        E 14 bb 01 07
        E 14 bb 01 05
        E 14 bb 01 03
        E 14 bb 01 08
        E 14 bb 01 09
        E 14 bb 01 0b
        E 14 bb 01 0c
        E 14 bb 01 06
        E 14 bb 01 08
        E 14 bb 01 08
        E 14 bb 01 06
        E 14 bb 01 0b
        E 14 bb 01 01
        E 14 bb 01 04
        E 14 bb 01 08
        E 3 bb 01 16
        E 3 bb 01 4c
        E 3 bb 01 32
        E 3 bb 01 07
        E 3 bb 01 48
        E 3 bb 01 3f
        E 3 bb 01 09
        E 3 bb 01 08
        E 3 bb 01 30
        E 3 bb 01 5f
        E 3 bb 01 50
        E 3 bb 01 58
        E 3 bb 01 3f
        E 3 bb 01 0b
        E 3 bb 01 13
        E 3 bb 01 44
        E 3 bb 01 37
        E 3 bb 01 1c
        E 3 bb 01 14
        E 3 bb 01 1b
        E 3 bb 01 4f
        E 3 bb 01 2f
        E 3 bb 01 17
        E 3 bb 01 3a
        E 3 bb 01 64
        E 3 bb 01 00
        E 3 bb 01 0c
        E 3 bb 01 29
        E 3 bb 01 22
        E 3 bb 01 53
        E 3 bb 01 15
        E 3 bb 01 06
        E 3 bb 01 0f
        E 3 bb 01 11
        E 3 bb 01 5b
        E 3 bb 01 19
        E 3 bb 01 00
        E 3 bb 01 4b
        E 3 bb 01 23
        E 3 bb 01 14
        E 3 bb 01 28
        E 3 bb 01 1a
        E 3 bb 01 56
        E 3 bb 01 55
        E 3 bb 01 65
        E 3 bb 01 54
        E 3 bb 01 2b
        E 3 bb 01 5e
        E 3 bb 01 48
        E 3 bb 01 0b
        E 3 bb 01 2c
        E 3 bb 01 36
        E 3 bb 01 60
        E 3 bb 01 4d
        E 3 bb 01 37
        E 3 bb 01 38
        E 3 bb 01 04
        E 3 bb 01 0a
        E 3 bb 01 5d
        E 3 bb 01 51
        E 3 bb 01 2b
        E 3 bb 01 1f
        E 3 bb 01 0d
        E 3 bb 01 2d
        E 3 bb 01 1e
        E 3 bb 01 18
        E 3 bb 01 26
        E 3 bb 01 34
        E 3 bb 01 3d
        E 3 bb 01 41
        E 3 bb 01 10
        E 3 bb 01 3c
        E 3 bb 01 5a
        E 3 bb 01 33
        E 3 bb 01 3b
        E 3 bb 01 02
        E 3 bb 01 07
        E 3 bb 01 63
        E 3 bb 01 42
        E 3 bb 01 12
        E 3 bb 01 5c
        E 3 bb 01 20
        E 3 bb 01 27
        E 3 bb 01 31
        E 3 bb 01 28
        E 3 bb 01 44
        E 3 bb 01 52
        E 3 bb 01 1d
        E 3 bb 01 39
        E 3 bb 01 17
        E 3 bb 01 5b
        E 3 bb 01 54
        E 3 bb 01 2e
        E 3 bb 01 24
        E 3 bb 01 50
        E 3 bb 01 25
        E 3 bb 01 47
        E 3 bb 01 0e
        E 3 bb 01 01
        E 3 bb 01 21
        E 3 bb 01 33
        E 3 bb 01 57
        E 3 bb 01 4e
        E 3 bb 01 03
        E 3 bb 01 57
        E 3 bb 01 4a
        E 3 bb 01 05
        E 3 bb 01 1f
        E 3 bb 01 3b
        E 3 bb 01 4c
        E 3 bb 01 61
        E 3 bb 01 3e
        E 3 bb 01 2a
        E 3 bb 01 1b
        E 3 bb 01 46
        E 3 bb 01 49
        E 3 bb 01 59
        E 3 bb 01 63
        E 3 bb 01 2f
        E 3 bb 01 40
        E 3 bb 01 45
        E 3 bb 01 35
        E 3 bb 01 5f
        E 3 bb 01 0f
        E 3 bb 01 24
        E 3 bb 01 43
        E 14 bb 01 16
        E 14 bb 01 4c
        E 14 bb 01 32
        E 14 bb 01 07
        E 14 bb 01 48
        E 14 bb 01 3f
        E 14 bb 01 09
        E 14 bb 01 08
        E 14 bb 01 30
        E 14 bb 01 5f
        E 14 bb 01 50
        E 14 bb 01 58
        E 14 bb 01 3f
        E 14 bb 01 0b
        E 14 bb 01 13
        E 14 bb 01 44
        E 14 bb 01 37
        E 14 bb 01 1c
        E 14 bb 01 14
        E 14 bb 01 1b
        E 14 bb 01 4f
        E 14 bb 01 2f
        E 14 bb 01 17
        E 14 bb 01 3a
        E 14 bb 01 64
        E 14 bb 01 00
        E 14 bb 01 0c
        E 14 bb 01 29
        E 14 bb 01 22
        E 14 bb 01 53
        E 14 bb 01 15
        E 14 bb 01 06
        E 14 bb 01 0f
        E 14 bb 01 11
        E 14 bb 01 5b
        E 14 bb 01 19
        E 14 bb 01 00
        E 14 bb 01 4b
        E 14 bb 01 23
        E 14 bb 01 14
        E 14 bb 01 28
        E 14 bb 01 1a
        E 14 bb 01 56
        E 14 bb 01 55
        E 14 bb 01 65
        E 14 bb 01 54
        E 14 bb 01 2b
        E 14 bb 01 5e
        E 14 bb 01 48
        E 14 bb 01 0b
        E 14 bb 01 2c
        E 14 bb 01 36
        E 14 bb 01 60
        E 14 bb 01 4d
        E 14 bb 01 37
        E 14 bb 01 38
        E 14 bb 01 04
        E 14 bb 01 0a
        E 14 bb 01 5d
        E 14 bb 01 51
        E 14 bb 01 2b
        E 14 bb 01 1f
        E 14 bb 01 0d
        E 14 bb 01 2d
        E 14 bb 01 1e
        E 14 bb 01 18
        E 14 bb 01 26
        E 14 bb 01 34
        E 14 bb 01 3d
        E 14 bb 01 41
        E 14 bb 01 10
        E 14 bb 01 3c
        E 14 bb 01 5a
        E 14 bb 01 33
        E 14 bb 01 3b
        E 14 bb 01 02
        E 14 bb 01 07
        E 14 bb 01 63
        E 14 bb 01 42
        E 14 bb 01 12
        E 14 bb 01 5c
        E 14 bb 01 20
        E 14 bb 01 27
        E 14 bb 01 31
        E 14 bb 01 28
        E 14 bb 01 44
        E 14 bb 01 52
        E 14 bb 01 1d
        E 14 bb 01 39
        E 14 bb 01 17
        E 14 bb 01 5b
        E 14 bb 01 54
        E 14 bb 01 2e
        E 14 bb 01 24
        E 14 bb 01 50
        E 14 bb 01 25
        E 14 bb 01 47
        E 14 bb 01 0e
        E 14 bb 01 01
        E 14 bb 01 21
        E 14 bb 01 33
        E 14 bb 01 57
        E 14 bb 01 4e
        E 14 bb 01 03
        E 14 bb 01 57
        E 14 bb 01 4a
        E 14 bb 01 05
        E 14 bb 01 1f
        E 14 bb 01 3b
        E 14 bb 01 4c
        E 14 bb 01 61
        E 14 bb 01 3e
        E 14 bb 01 2a
        E 14 bb 01 1b
        E 14 bb 01 46
        E 14 bb 01 49
        E 14 bb 01 59
        E 14 bb 01 63
        E 14 bb 01 2f
        E 14 bb 01 40
        E 14 bb 01 45
        E 14 bb 01 35
        E 14 bb 01 5f
        E 14 bb 01 0f
        E 14 bb 01 24
        E 14 bb 01 43
        E 7 bb 01 19
        E 7 bb 01 56
        E 7 bb 01 38
        E 7 bb 01 09
        E 7 bb 01 51
        E 7 bb 01 48
        E 7 bb 01 0a
        E 7 bb 01 09
        E 7 bb 01 36
        E 7 bb 01 6c
        E 7 bb 01 5a
        E 7 bb 01 63
        E 7 bb 01 47
        E 7 bb 01 0c
        E 7 bb 01 15
        E 7 bb 01 4d
        E 7 bb 01 3f
        E 7 bb 01 20
        E 7 bb 01 16
        E 7 bb 01 1e
        E 7 bb 01 59
        E 7 bb 01 35
        E 7 bb 01 1b
        E 7 bb 01 41
        E 7 bb 01 71
        E 7 bb 01 00
        E 7 bb 01 0e
        E 7 bb 01 2e
        E 7 bb 01 26
        E 7 bb 01 5d
        E 7 bb 01 18
        E 7 bb 01 07
        E 7 bb 01 12
        E 7 bb 01 13
        E 7 bb 01 67
        E 7 bb 01 1c
        E 7 bb 01 00
        E 7 bb 01 54
        E 7 bb 01 27
        E 7 bb 01 17
        E 7 bb 01 2d
        E 7 bb 01 1d
        E 7 bb 01 61
        E 7 bb 01 60
        E 7 bb 01 72
        E 7 bb 01 5f
        E 7 bb 01 31
        E 7 bb 01 6a
        E 7 bb 01 51
        E 7 bb 01 0d
        E 7 bb 01 32
        E 7 bb 01 3d
        E 7 bb 01 6c
        E 7 bb 01 57
        E 7 bb 01 3e
        E 7 bb 01 3f
        E 7 bb 01 05
        E 7 bb 01 0b
        E 7 bb 01 69
        E 7 bb 01 5b
        E 7 bb 01 30
        E 7 bb 01 24
        E 7 bb 01 0f
        E 7 bb 01 33
        E 7 bb 01 22
        E 7 bb 01 1b
        E 7 bb 01 2b
        E 7 bb 01 3b
        E 7 bb 01 45
        E 7 bb 01 49
        E 7 bb 01 12
        E 7 bb 01 44
        E 7 bb 01 65
        E 7 bb 01 3a
        E 7 bb 01 42
        E 7 bb 01 02
        E 7 bb 01 08
        E 7 bb 01 70
        E 7 bb 01 4a
        E 7 bb 01 14
        E 7 bb 01 68
        E 7 bb 01 24
        E 7 bb 01 2c
        E 7 bb 01 37
        E 7 bb 01 2d
        E 7 bb 01 4c
        E 7 bb 01 5c
        E 7 bb 01 21
        E 7 bb 01 40
        E 7 bb 01 1a
        E 7 bb 01 66
        E 7 bb 01 5e
        E 7 bb 01 34
        E 7 bb 01 29
        E 7 bb 01 5a
        E 7 bb 01 2a
        E 7 bb 01 50
        E 7 bb 01 10
        E 7 bb 01 01
        E 7 bb 01 25
        E 7 bb 01 39
        E 7 bb 01 62
        E 7 bb 01 58
        E 7 bb 01 03
        E 7 bb 01 63
        E 7 bb 01 53
        E 7 bb 01 06
        E 7 bb 01 23
        E 7 bb 01 43
        E 7 bb 01 55
        E 7 bb 01 6d
        E 7 bb 01 46
        E 7 bb 01 2f
        E 7 bb 01 1f
        E 7 bb 01 4f
        E 7 bb 01 52
        E 7 bb 01 64
        E 7 bb 01 6f
        E 7 bb 01 36
        E 7 bb 01 48
        E 7 bb 01 4e
        E 7 bb 01 3c
        E 7 bb 01 6b
        E 7 bb 01 11
        E 7 bb 01 28
        E 7 bb 01 4b
        E 14 bb 01 02
        E 14 bb 01 09
        E 14 bb 01 06
        E 14 bb 01 01
        E 14 bb 01 09
        E 14 bb 01 08
        E 14 bb 01 01
        E 14 bb 01 01
        E 14 bb 01 06
        E 14 bb 01 0c
        E 14 bb 01 0a
        E 14 bb 01 0b
        E 14 bb 01 07
        E 14 bb 01 01
        E 14 bb 01 02
        E 14 bb 01 08
        E 14 bb 01 07
        E 14 bb 01 03
        E 14 bb 01 02
        E 14 bb 01 03
        E 14 bb 01 09
        E 14 bb 01 05
        E 14 bb 01 03
        E 14 bb 01 07
        E 14 bb 01 0c
        E 14 bb 01 00
        E 14 bb 01 01
        E 14 bb 01 05
        E 14 bb 01 04
        E 14 bb 01 0a
        E 14 bb 01 02
        E 14 bb 01 00
        E 14 bb 01 02
        E 14 bb 01 02
        E 14 bb 01 0b
        E 14 bb 01 03
        E 14 bb 01 00
        E 14 bb 01 09
        E 14 bb 01 04
        E 14 bb 01 02
        E 14 bb 01 05
        E 14 bb 01 03
        E 14 bb 01 0a
        E 14 bb 01 0a
        E 14 bb 01 0c
        E 14 bb 01 0a
        E 14 bb 01 05
        E 14 bb 01 0b
        E 14 bb 01 09
        E 14 bb 01 01
        E 14 bb 01 05
        E 14 bb 01 06
        E 14 bb 01 0c
        E 14 bb 01 09
        E 14 bb 01 06
        E 14 bb 01 07
        E 14 bb 01 00
        E 14 bb 01 01
        E 14 bb 01 0b
        E 14 bb 01 0a
        E 14 bb 01 05
        E 14 bb 01 04
        E 14 bb 01 01
        E 14 bb 01 05
        E 14 bb 01 03
        E 14 bb 01 03
        E 14 bb 01 04
        E 14 bb 01 06
        E 14 bb 01 07
        E 14 bb 01 08
        E 14 bb 01 02
        E 14 bb 01 07
        E 14 bb 01 0b
        E 14 bb 01 06
        E 14 bb 01 07
        E 14 bb 01 00
        E 14 bb 01 00
        E 14 bb 01 0c
        E 14 bb 01 08
        E 14 bb 01 02
        E 14 bb 01 0b
        E 14 bb 01 04
        E 14 bb 01 04
        E 14 bb 01 06
        E 14 bb 01 05
        E 14 bb 01 08
        E 14 bb 01 0a
        E 14 bb 01 03
        E 14 bb 01 07
        E 14 bb 01 02
        E 14 bb 01 0b
        E 14 bb 01 0a
        E 14 bb 01 05
        E 14 bb 01 04
        E 14 bb 01 0a
        E 14 bb 01 04
        E 14 bb 01 08
        E 14 bb 01 01
        E 14 bb 01 00
        E 14 bb 01 04
        E 14 bb 01 06
        E 14 bb 01 0a
        E 14 bb 01 09
        E 14 bb 01 00
        E 14 bb 01 0b
        E 14 bb 01 09
        E 14 bb 01 00
        E 14 bb 01 03
        E 14 bb 01 07
        E 14 bb 01 09
        E 14 bb 01 0c
        E 14 bb 01 07
        E 14 bb 01 05
        E 14 bb 01 03
        E 14 bb 01 08
        E 14 bb 01 09
        E 14 bb 01 0b
        E 14 bb 01 0c
        E 14 bb 01 06
        E 14 bb 01 08
        E 14 bb 01 08
        E 14 bb 01 06
        E 14 bb 01 0b
        E 14 bb 01 01
        E 14 bb 01 04
        E 14 bb 01 08
        E 3 bb 01 16
        E 3 bb 01 4c
        E 3 bb 01 32
        E 3 bb 01 07
        E 3 bb 01 48
        E 3 bb 01 3f
        E 3 bb 01 09
        E 3 bb 01 08
        E 3 bb 01 30
        E 3 bb 01 5f
        E 3 bb 01 50
        E 3 bb 01 58
        E 3 bb 01 3f
        E 3 bb 01 0b
        E 3 bb 01 13
        E 3 bb 01 44
        E 3 bb 01 37
        E 3 bb 01 1c
        E 3 bb 01 14
        E 3 bb 01 1b
        E 3 bb 01 4f
        E 3 bb 01 2f
        E 3 bb 01 17
        E 3 bb 01 3a
        E 3 bb 01 64
        E 3 bb 01 00
        E 3 bb 01 0c
        E 3 bb 01 29
        E 3 bb 01 22
        E 3 bb 01 53
        E 3 bb 01 15
        E 3 bb 01 06
        E 3 bb 01 0f
        E 3 bb 01 11
        E 3 bb 01 5b
        E 3 bb 01 19
        E 3 bb 01 00
        E 3 bb 01 4b
        E 3 bb 01 23
        E 3 bb 01 14
        E 3 bb 01 28
        E 3 bb 01 1a
        E 3 bb 01 56
        E 3 bb 01 55
        E 3 bb 01 65
        E 3 bb 01 54
        E 3 bb 01 2b
        E 3 bb 01 5e
        E 3 bb 01 48
        E 3 bb 01 0b
        E 3 bb 01 2c
        E 3 bb 01 36
        E 3 bb 01 60
        E 3 bb 01 4d
        E 3 bb 01 37
        E 3 bb 01 38
        E 3 bb 01 04
        E 3 bb 01 0a
        E 3 bb 01 5d
        E 3 bb 01 51
        E 3 bb 01 2b
        E 3 bb 01 1f
        E 3 bb 01 0d
        E 3 bb 01 2d
        E 3 bb 01 1e
        E 3 bb 01 18
        E 3 bb 01 26
        E 3 bb 01 34
        E 3 bb 01 3d
        E 3 bb 01 41
        E 3 bb 01 10
        E 3 bb 01 3c
        E 3 bb 01 5a
        E 3 bb 01 33
        E 3 bb 01 3b
        E 3 bb 01 02
        E 3 bb 01 07
        E 3 bb 01 63
        E 3 bb 01 42
        E 3 bb 01 12
        E 3 bb 01 5c
        E 3 bb 01 20
        E 3 bb 01 27
        E 3 bb 01 31
        E 3 bb 01 28
        E 3 bb 01 44
        E 3 bb 01 52
        E 3 bb 01 1d
        E 3 bb 01 39
        E 3 bb 01 17
        E 3 bb 01 5b
        E 3 bb 01 54
        E 3 bb 01 2e
        E 3 bb 01 24
        E 3 bb 01 50
        E 3 bb 01 25
        E 3 bb 01 47
        E 3 bb 01 0e
        E 3 bb 01 01
        E 3 bb 01 21
        E 3 bb 01 33
        E 3 bb 01 57
        E 3 bb 01 4e
        E 3 bb 01 03
        E 3 bb 01 57
        E 3 bb 01 4a
        E 3 bb 01 05
        E 3 bb 01 1f
        E 3 bb 01 3b
        E 3 bb 01 4c
        E 3 bb 01 61
        E 3 bb 01 3e
        E 3 bb 01 2a
        E 3 bb 01 1b
        E 3 bb 01 46
        E 3 bb 01 49
        E 3 bb 01 59
        E 3 bb 01 63
        E 3 bb 01 2f
        E 3 bb 01 40
        E 3 bb 01 45
        E 3 bb 01 35
        E 3 bb 01 5f
        E 3 bb 01 0f
        E 3 bb 01 24
        E 3 bb 01 43
        E 14 bb 01 16
        E 14 bb 01 4c
        E 14 bb 01 32
        E 14 bb 01 07
        E 14 bb 01 48
        E 14 bb 01 3f
        E 14 bb 01 09
        E 14 bb 01 08
        E 14 bb 01 30
        E 14 bb 01 5f
        E 14 bb 01 50
        E 14 bb 01 58
        E 14 bb 01 3f
        E 14 bb 01 0b
        E 14 bb 01 13
        E 14 bb 01 44
        E 14 bb 01 37
        E 14 bb 01 1c
        E 14 bb 01 14
        E 14 bb 01 1b
        E 14 bb 01 4f
        E 14 bb 01 2f
        E 14 bb 01 17
        E 14 bb 01 3a
        E 14 bb 01 64
        E 14 bb 01 00
        E 14 bb 01 0c
        E 14 bb 01 29
        E 14 bb 01 22
        E 14 bb 01 53
        E 14 bb 01 15
        E 14 bb 01 06
        E 14 bb 01 0f
        E 14 bb 01 11
        E 14 bb 01 5b
        E 14 bb 01 19
        E 14 bb 01 00
        E 14 bb 01 4b
        E 14 bb 01 23
        E 14 bb 01 14
        E 14 bb 01 28
        E 14 bb 01 1a
        E 14 bb 01 56
        E 14 bb 01 55
        E 14 bb 01 65
        E 14 bb 01 54
        E 14 bb 01 2b
        E 14 bb 01 5e
        E 14 bb 01 48
        E 14 bb 01 0b
        E 14 bb 01 2c
        E 14 bb 01 36
        E 14 bb 01 60
        E 14 bb 01 4d
        E 14 bb 01 37
        E 14 bb 01 38
        E 14 bb 01 04
        E 14 bb 01 0a
        E 14 bb 01 5d
        E 14 bb 01 51
        E 14 bb 01 2b
        E 14 bb 01 1f
        E 14 bb 01 0d
        E 14 bb 01 2d
        E 14 bb 01 1e
        E 14 bb 01 18
        E 14 bb 01 26
        E 14 bb 01 34
        E 14 bb 01 3d
        E 14 bb 01 41
        E 14 bb 01 10
        E 14 bb 01 3c
        E 14 bb 01 5a
        E 14 bb 01 33
        E 14 bb 01 3b
        E 14 bb 01 02
        E 14 bb 01 07
        E 14 bb 01 63
        E 14 bb 01 42
        E 14 bb 01 12
        E 14 bb 01 5c
        E 14 bb 01 20
        E 14 bb 01 27
        E 14 bb 01 31
        E 14 bb 01 28
        E 14 bb 01 44
        E 14 bb 01 52
        E 14 bb 01 1d
        E 14 bb 01 39
        E 14 bb 01 17
        E 14 bb 01 5b
        E 14 bb 01 54
        E 14 bb 01 2e
        E 14 bb 01 24
        E 14 bb 01 50
        E 14 bb 01 25
        E 14 bb 01 47
        E 14 bb 01 0e
        E 14 bb 01 01
        E 14 bb 01 21
        E 14 bb 01 33
        E 14 bb 01 57
        E 14 bb 01 4e
        E 14 bb 01 03
        E 14 bb 01 57
        E 14 bb 01 4a
        E 14 bb 01 05
        E 14 bb 01 1f
        E 14 bb 01 3b
        E 14 bb 01 4c
        E 14 bb 01 61
        E 14 bb 01 3e
        E 14 bb 01 2a
        E 14 bb 01 1b
        E 14 bb 01 46
        E 14 bb 01 49
        E 14 bb 01 59
        E 14 bb 01 63
        E 14 bb 01 2f
        E 14 bb 01 40
        E 14 bb 01 45
        E 14 bb 01 35
        E 14 bb 01 5f
        E 14 bb 01 0f
        E 14 bb 01 24
        E 14 bb 01 43
        E 7 bb 01 19
        E 7 bb 01 56
        E 7 bb 01 38
        E 7 bb 01 09
        E 7 bb 01 51
        E 7 bb 01 48
        E 7 bb 01 0a
        E 7 bb 01 09
        E 7 bb 01 36
        E 7 bb 01 6c
        E 7 bb 01 5a
        E 7 bb 01 63
        E 7 bb 01 47
        E 7 bb 01 0c
        E 7 bb 01 15
        E 7 bb 01 4d
        E 7 bb 01 3f
        E 7 bb 01 20
        E 7 bb 01 16
        E 7 bb 01 1e
        E 7 bb 01 59
        E 7 bb 01 35
        E 7 bb 01 1b
        E 7 bb 01 41
        E 7 bb 01 71
        E 7 bb 01 00
        E 7 bb 01 0e
        E 7 bb 01 2e
        E 7 bb 01 26
        E 7 bb 01 5d
        E 7 bb 01 18
        E 7 bb 01 07
        E 7 bb 01 12
        E 7 bb 01 13
        E 7 bb 01 67
        E 7 bb 01 1c
        E 7 bb 01 00
        E 7 bb 01 54
        E 7 bb 01 27
        E 7 bb 01 17
        E 7 bb 01 2d
        E 7 bb 01 1d
        E 7 bb 01 61
        E 7 bb 01 60
        E 7 bb 01 72
        E 7 bb 01 5f
        E 7 bb 01 31
        E 7 bb 01 6a
        E 7 bb 01 51
        E 7 bb 01 0d
        E 7 bb 01 32
        E 7 bb 01 3d
        E 7 bb 01 6c
        E 7 bb 01 57
        E 7 bb 01 3e
        E 7 bb 01 3f
        E 7 bb 01 05
        E 7 bb 01 0b
        E 7 bb 01 69
        E 7 bb 01 5b
        E 7 bb 01 30
        E 7 bb 01 24
        E 7 bb 01 0f
        E 7 bb 01 33
        E 7 bb 01 22
        E 7 bb 01 1b
        E 7 bb 01 2b
        E 7 bb 01 3b
        E 7 bb 01 45
        E 7 bb 01 49
        E 7 bb 01 12
        E 7 bb 01 44
        E 7 bb 01 65
        E 7 bb 01 3a
        E 7 bb 01 42
        E 7 bb 01 02
        E 7 bb 01 08
        E 7 bb 01 70
        E 7 bb 01 4a
        E 7 bb 01 14
        E 7 bb 01 68
        E 7 bb 01 24
        E 7 bb 01 2c
        E 7 bb 01 37
        E 7 bb 01 2d
        E 7 bb 01 4c
        E 7 bb 01 5c
        E 7 bb 01 21
        E 7 bb 01 40
        E 7 bb 01 1a
        E 7 bb 01 66
        E 7 bb 01 5e
        E 7 bb 01 34
        E 7 bb 01 29
        E 7 bb 01 5a
        E 7 bb 01 2a
        E 7 bb 01 50
        E 7 bb 01 10
        E 7 bb 01 01
        E 7 bb 01 25
        E 7 bb 01 39
        E 7 bb 01 62
        E 7 bb 01 58
        E 7 bb 01 03
        E 7 bb 01 63
        E 7 bb 01 53
        E 7 bb 01 06
        E 7 bb 01 23
        E 7 bb 01 43
        E 7 bb 01 55
        E 7 bb 01 6d
        E 7 bb 01 46
        E 7 bb 01 2f
        E 7 bb 01 1f
        E 7 bb 01 4f
        E 7 bb 01 52
        E 7 bb 01 64
        E 7 bb 01 6f
        E 7 bb 01 36
        E 7 bb 01 48
        E 7 bb 01 4e
        E 7 bb 01 3c
        E 7 bb 01 6b
        E 7 bb 01 11
        E 7 bb 01 28
        E 7 bb 01 4b
        E 14 bb 01 02
        E 14 bb 01 09
        E 14 bb 01 06
        E 14 bb 01 01
        E 14 bb 01 09
        E 14 bb 01 08
        E 14 bb 01 01
        E 14 bb 01 01
        E 14 bb 01 06
        E 14 bb 01 0c
        E 14 bb 01 0a
        E 14 bb 01 0b
        E 14 bb 01 07
        E 14 bb 01 01
        E 14 bb 01 02
        E 14 bb 01 08
        E 14 bb 01 07
        E 14 bb 01 03
        E 14 bb 01 02
        E 14 bb 01 03
        E 14 bb 01 09
        E 14 bb 01 05
        E 14 bb 01 03
        E 14 bb 01 07
        E 14 bb 01 0c
        E 14 bb 01 00
        E 14 bb 01 01
        E 14 bb 01 05
        E 14 bb 01 04
        E 14 bb 01 0a
        E 14 bb 01 02
        E 14 bb 01 00
        E 14 bb 01 02
        E 14 bb 01 02
        E 14 bb 01 0b
        E 14 bb 01 03
        E 14 bb 01 00
        E 14 bb 01 09
        E 14 bb 01 04
        E 14 bb 01 02
        E 14 bb 01 05
        E 14 bb 01 03
        E 14 bb 01 0a
        E 14 bb 01 0a
        E 14 bb 01 0c
        E 14 bb 01 0a
        E 14 bb 01 05
        E 14 bb 01 0b
        E 14 bb 01 09
        E 14 bb 01 01
        E 14 bb 01 05
        E 14 bb 01 06
        E 14 bb 01 0c
        E 14 bb 01 09
        E 14 bb 01 06
        E 14 bb 01 07
        E 14 bb 01 00
        E 14 bb 01 01
        E 14 bb 01 0b
        E 14 bb 01 0a
        E 14 bb 01 05
        E 14 bb 01 04
        E 14 bb 01 01
        E 14 bb 01 05
        E 14 bb 01 03
        E 14 bb 01 03
        E 14 bb 01 04
        E 14 bb 01 06
        E 14 bb 01 07
        E 14 bb 01 08
        E 14 bb 01 02
        E 14 bb 01 07
        E 14 bb 01 0b
        E 14 bb 01 06
        E 14 bb 01 07
        E 14 bb 01 00
        E 14 bb 01 00
        E 14 bb 01 0c
        E 14 bb 01 08
        E 14 bb 01 02
        E 14 bb 01 0b
        E 14 bb 01 04
        E 14 bb 01 04
        E 14 bb 01 06
        E 14 bb 01 05
        E 14 bb 01 08
        E 14 bb 01 0a
        E 14 bb 01 03
        E 14 bb 01 07
        E 14 bb 01 02
        E 14 bb 01 0b
        E 14 bb 01 0a
        E 14 bb 01 05
        E 14 bb 01 04
        E 14 bb 01 0a
        E 14 bb 01 04
        E 14 bb 01 08
        E 14 bb 01 01
        E 14 bb 01 00
        E 14 bb 01 04
        E 14 bb 01 06
        E 14 bb 01 0a
        E 14 bb 01 09
        E 14 bb 01 00
        E 14 bb 01 0b
        E 14 bb 01 09
        E 14 bb 01 00
        E 14 bb 01 03
        E 14 bb 01 07
        E 14 bb 01 09
        E 14 bb 01 0c
        E 14 bb 01 07
        E 14 bb 01 05
        E 14 bb 01 03
        E 14 bb 01 08
        E 14 bb 01 09
        E 14 bb 01 0b
        E 14 bb 01 0c
        E 14 bb 01 06
        E 14 bb 01 08
        E 14 bb 01 08
        E 14 bb 01 06
        E 14 bb 01 0b
        E 14 bb 01 01
        E 14 bb 01 04
        E 14 bb 01 08
        E 3 bb 01 16
        E 3 bb 01 4c
        E 3 bb 01 32
        E 3 bb 01 07
        E 3 bb 01 48
        E 3 bb 01 3f
        E 3 bb 01 09
        E 3 bb 01 08
        E 3 bb 01 30
        E 3 bb 01 5f
        E 3 bb 01 50
        E 3 bb 01 58
        E 3 bb 01 3f
        E 3 bb 01 0b
        E 3 bb 01 13
        E 3 bb 01 44
        E 3 bb 01 37
        E 3 bb 01 1c
        E 3 bb 01 14
        E 3 bb 01 1b
        E 3 bb 01 4f
        E 3 bb 01 2f
        E 3 bb 01 17
        E 3 bb 01 3a
        E 3 bb 01 64
        E 3 bb 01 00
        E 3 bb 01 0c
        E 3 bb 01 29
        E 3 bb 01 22
        E 3 bb 01 53
        E 3 bb 01 15
        E 3 bb 01 06
        E 3 bb 01 0f
        E 3 bb 01 11
        E 3 bb 01 5b
        E 3 bb 01 19
        E 3 bb 01 00
        E 3 bb 01 4b
        E 3 bb 01 23
        E 3 bb 01 14
        E 3 bb 01 28
        E 3 bb 01 1a
        E 3 bb 01 56
        E 3 bb 01 55
        E 3 bb 01 65
        E 3 bb 01 54
        E 3 bb 01 2b
        E 3 bb 01 5e
        E 3 bb 01 48
        E 3 bb 01 0b
        E 3 bb 01 2c
        E 3 bb 01 36
        E 3 bb 01 60
        E 3 bb 01 4d
        E 3 bb 01 37
        E 3 bb 01 38
        E 3 bb 01 04
        E 3 bb 01 0a
        E 3 bb 01 5d
        E 3 bb 01 51
        E 3 bb 01 2b
        E 3 bb 01 1f
        E 3 bb 01 0d
        E 3 bb 01 2d
        E 3 bb 01 1e
        E 3 bb 01 18
        E 3 bb 01 26
        E 3 bb 01 34
        E 3 bb 01 3d
        E 3 bb 01 41
        E 3 bb 01 10
        E 3 bb 01 3c
        E 3 bb 01 5a
        E 3 bb 01 33
        E 3 bb 01 3b
        E 3 bb 01 02
        E 3 bb 01 07
        E 3 bb 01 63
        E 3 bb 01 42
        E 3 bb 01 12
        E 3 bb 01 5c
        E 3 bb 01 20
        E 3 bb 01 27
        E 3 bb 01 31
        E 3 bb 01 28
        E 3 bb 01 44
        E 3 bb 01 52
        E 3 bb 01 1d
        E 3 bb 01 39
        E 3 bb 01 17
        E 3 bb 01 5b
        E 3 bb 01 54
        E 3 bb 01 2e
        E 3 bb 01 24
        E 3 bb 01 50
        E 3 bb 01 25
        E 3 bb 01 47
        E 3 bb 01 0e
        E 3 bb 01 01
        E 3 bb 01 21
        E 3 bb 01 33
        E 3 bb 01 57
        E 3 bb 01 4e
        E 3 bb 01 03
        E 3 bb 01 57
        E 3 bb 01 4a
        E 3 bb 01 05
        E 3 bb 01 1f
        E 3 bb 01 3b
        E 3 bb 01 4c
        E 3 bb 01 61
        E 3 bb 01 3e
        E 3 bb 01 2a
        E 3 bb 01 1b
        E 3 bb 01 46
        E 3 bb 01 49
        E 3 bb 01 59
        E 3 bb 01 63
        E 3 bb 01 2f
        E 3 bb 01 40
        E 3 bb 01 45
        E 3 bb 01 35
        E 3 bb 01 5f
        E 3 bb 01 0f
        E 3 bb 01 24
        E 3 bb 01 43
        E 14 bb 01 16
        E 14 bb 01 4c
        E 14 bb 01 32
        E 14 bb 01 07
        E 14 bb 01 48
        E 14 bb 01 3f
        E 14 bb 01 09
        E 14 bb 01 08
        E 14 bb 01 30
        E 14 bb 01 5f
        E 14 bb 01 50
        E 14 bb 01 58
        E 14 bb 01 3f
        E 14 bb 01 0b
        E 14 bb 01 13
        E 14 bb 01 44
        E 14 bb 01 37
        E 14 bb 01 1c
        E 14 bb 01 14
        E 14 bb 01 1b
        E 14 bb 01 4f
        E 14 bb 01 2f
        E 14 bb 01 17
        E 14 bb 01 3a
        E 14 bb 01 64
        E 14 bb 01 00
        E 14 bb 01 0c
        E 14 bb 01 29
        E 14 bb 01 22
        E 14 bb 01 53
        E 14 bb 01 15
        E 14 bb 01 06
        E 14 bb 01 0f
        E 14 bb 01 11
        E 14 bb 01 5b
        E 14 bb 01 19
        E 14 bb 01 00
        E 14 bb 01 4b
        E 14 bb 01 23
        E 14 bb 01 14
        E 14 bb 01 28
        E 14 bb 01 1a
        E 14 bb 01 56
        E 14 bb 01 55
        E 14 bb 01 65
        E 14 bb 01 54
        E 14 bb 01 2b
        E 14 bb 01 5e
        E 14 bb 01 48
        E 14 bb 01 0b
        E 14 bb 01 2c
        E 14 bb 01 36
        E 14 bb 01 60
        E 14 bb 01 4d
        E 14 bb 01 37
        E 14 bb 01 38
        E 14 bb 01 04
        E 14 bb 01 0a
        E 14 bb 01 5d
        E 14 bb 01 51
        E 14 bb 01 2b
        E 14 bb 01 1f
        E 14 bb 01 0d
        E 14 bb 01 2d
        E 14 bb 01 1e
        E 14 bb 01 18
        E 14 bb 01 26
        E 14 bb 01 34
        E 14 bb 01 3d
        E 14 bb 01 41
        E 14 bb 01 10
        E 14 bb 01 3c
        E 14 bb 01 5a
        E 14 bb 01 33
        E 14 bb 01 3b
        E 14 bb 01 02
        E 14 bb 01 07
        E 14 bb 01 63
        E 14 bb 01 42
        E 14 bb 01 12
        E 14 bb 01 5c
        E 14 bb 01 20
        E 14 bb 01 27
        E 14 bb 01 31
        E 14 bb 01 28
        E 14 bb 01 44
        E 14 bb 01 52
        E 14 bb 01 1d
        E 14 bb 01 39
        E 14 bb 01 17
        E 14 bb 01 5b
        E 14 bb 01 54
        E 14 bb 01 2e
        E 14 bb 01 24
        E 14 bb 01 50
        E 14 bb 01 25
        E 14 bb 01 47
        E 14 bb 01 0e
        E 14 bb 01 01
        E 14 bb 01 21
        E 14 bb 01 33
        E 14 bb 01 57
        E 14 bb 01 4e
        E 14 bb 01 03
        E 14 bb 01 57
        E 14 bb 01 4a
        E 14 bb 01 05
        E 14 bb 01 1f
        E 14 bb 01 3b
        E 14 bb 01 4c
        E 14 bb 01 61
        E 14 bb 01 3e
        E 14 bb 01 2a
        E 14 bb 01 1b
        E 14 bb 01 46
        E 14 bb 01 49
        E 14 bb 01 59
        E 14 bb 01 63
        E 14 bb 01 2f
        E 14 bb 01 40
        E 14 bb 01 45
        E 14 bb 01 35
        E 14 bb 01 5f
        E 14 bb 01 0f
        E 14 bb 01 24
        E 14 bb 01 43
        E 7 bb 01 19
        E 7 bb 01 56
        E 7 bb 01 38
        E 7 bb 01 09
        E 7 bb 01 51
        E 7 bb 01 48
        E 7 bb 01 0a
        E 7 bb 01 09
        E 7 bb 01 36
        E 7 bb 01 6c
        E 7 bb 01 5a
        E 7 bb 01 63
        E 7 bb 01 47
        E 7 bb 01 0c
        E 7 bb 01 15
        E 7 bb 01 4d
        E 7 bb 01 3f
        E 7 bb 01 20
        E 7 bb 01 16
        E 7 bb 01 1e
        E 7 bb 01 59
        E 7 bb 01 35
        E 7 bb 01 1b
        E 7 bb 01 41
        E 7 bb 01 71
        E 7 bb 01 00
        E 7 bb 01 0e
        E 7 bb 01 2e
        E 7 bb 01 26
        E 7 bb 01 5d
        E 7 bb 01 18
        E 7 bb 01 07
        E 7 bb 01 12
        E 7 bb 01 13
        E 7 bb 01 67
        E 7 bb 01 1c
        E 7 bb 01 00
        E 7 bb 01 54
        E 7 bb 01 27
        E 7 bb 01 17
        E 7 bb 01 2d
        E 7 bb 01 1d
        E 7 bb 01 61
        E 7 bb 01 60
        E 7 bb 01 72
        E 7 bb 01 5f
        E 7 bb 01 31
        E 7 bb 01 6a
        E 7 bb 01 51
        E 7 bb 01 0d
        E 7 bb 01 32
        E 7 bb 01 3d
        E 7 bb 01 6c
        E 7 bb 01 57
        E 7 bb 01 3e
        E 7 bb 01 3f
        E 7 bb 01 05
        E 7 bb 01 0b
        E 7 bb 01 69
        E 7 bb 01 5b
        E 7 bb 01 30
        E 7 bb 01 24
        E 7 bb 01 0f
        E 7 bb 01 33
        E 7 bb 01 22
        E 7 bb 01 1b
        E 7 bb 01 2b
        E 7 bb 01 3b
        E 7 bb 01 45
        E 7 bb 01 49
        E 7 bb 01 12
        E 7 bb 01 44
        E 7 bb 01 65
        E 7 bb 01 3a
        E 7 bb 01 42
        E 7 bb 01 02
        E 7 bb 01 08
        E 7 bb 01 70
        E 7 bb 01 4a
        E 7 bb 01 14
        E 7 bb 01 68
        E 7 bb 01 24
        E 7 bb 01 2c
        E 7 bb 01 37
        E 7 bb 01 2d
        E 7 bb 01 4c
        E 7 bb 01 5c
        E 7 bb 01 21
        E 7 bb 01 40
        E 7 bb 01 1a
        E 7 bb 01 66
        E 7 bb 01 5e
        E 7 bb 01 34
        E 7 bb 01 29
        E 7 bb 01 5a
        E 7 bb 01 2a
        E 7 bb 01 50
        E 7 bb 01 10
        E 7 bb 01 01
        E 7 bb 01 25
        E 7 bb 01 39
        E 7 bb 01 62
        E 7 bb 01 58
        E 7 bb 01 03
        E 7 bb 01 63
        E 7 bb 01 53
        E 7 bb 01 06
        E 7 bb 01 23
        E 7 bb 01 43
        E 7 bb 01 55
        E 7 bb 01 6d
        E 7 bb 01 46
        E 7 bb 01 2f
        E 7 bb 01 1f
        E 7 bb 01 4f
        E 7 bb 01 52
        E 7 bb 01 64
        E 7 bb 01 6f
        E 7 bb 01 36
        E 7 bb 01 48
        E 7 bb 01 4e
        E 7 bb 01 3c
        E 7 bb 01 6b
        E 7 bb 01 11
        E 7 bb 01 28
        E 7 bb 01 4b
        E 14 bb 01 02
        E 14 bb 01 09
        E 14 bb 01 06
        E 14 bb 01 01
        E 14 bb 01 09
        E 14 bb 01 08
        E 14 bb 01 01
        E 14 bb 01 01
        E 14 bb 01 06
        E 14 bb 01 0c
        E 14 bb 01 0a
        E 14 bb 01 0b
        E 14 bb 01 07
        E 14 bb 01 01
        E 14 bb 01 02
        E 14 bb 01 08
        E 14 bb 01 07
        E 14 bb 01 03
        E 14 bb 01 02
        E 14 bb 01 03
        E 14 bb 01 09
        E 14 bb 01 05
        E 14 bb 01 03
        E 14 bb 01 07
        E 14 bb 01 0c
        E 14 bb 01 00
        E 14 bb 01 01
        E 14 bb 01 05
        E 14 bb 01 04
        E 14 bb 01 0a
        E 14 bb 01 02
        E 14 bb 01 00
        E 14 bb 01 02
        E 14 bb 01 02
        E 14 bb 01 0b
        E 14 bb 01 03
        E 14 bb 01 00
        E 14 bb 01 09
        E 14 bb 01 04
        E 14 bb 01 02
        E 14 bb 01 05
        E 14 bb 01 03
        E 14 bb 01 0a
        E 14 bb 01 0a
        E 14 bb 01 0c
        E 14 bb 01 0a
        E 14 bb 01 05
        E 14 bb 01 0b
        E 14 bb 01 09
        E 14 bb 01 01
        E 14 bb 01 05
        E 14 bb 01 06
        E 14 bb 01 0c
        E 14 bb 01 09
        E 14 bb 01 06
        E 14 bb 01 07
        E 14 bb 01 00
        E 14 bb 01 01
        E 14 bb 01 0b
        E 14 bb 01 0a
        E 14 bb 01 05
        E 14 bb 01 04
        E 14 bb 01 01
        E 14 bb 01 05
        E 14 bb 01 03
        E 14 bb 01 03
        E 14 bb 01 04
        E 14 bb 01 06
        E 14 bb 01 07
        E 14 bb 01 08
        E 14 bb 01 02
        E 14 bb 01 07
        E 14 bb 01 0b
        E 14 bb 01 06
        E 14 bb 01 07
        E 14 bb 01 00
        E 14 bb 01 00
        E 14 bb 01 0c
        E 14 bb 01 08
        E 14 bb 01 02
        E 14 bb 01 0b
        E 14 bb 01 04
        E 14 bb 01 04
        E 14 bb 01 06
        E 14 bb 01 05
        E 14 bb 01 08
        E 14 bb 01 0a
        E 14 bb 01 03
        E 14 bb 01 07
        E 14 bb 01 02
        E 14 bb 01 0b
        E 14 bb 01 0a
        E 14 bb 01 05
        E 14 bb 01 04
        E 14 bb 01 0a
        E 14 bb 01 04
        E 14 bb 01 08
        E 14 bb 01 01
        E 14 bb 01 00
        E 14 bb 01 04
        E 14 bb 01 06
        E 14 bb 01 0a
        E 14 bb 01 09
        E 14 bb 01 00
        E 14 bb 01 0b
        E 14 bb 01 09
        E 14 bb 01 00
        E 14 bb 01 03
        E 14 bb 01 07
        E 14 bb 01 09
        E 14 bb 01 0c
        E 14 bb 01 07
        E 14 bb 01 05
        E 14 bb 01 03
        E 14 bb 01 08
        E 14 bb 01 09
        E 14 bb 01 0b
        E 14 bb 01 0c
        E 14 bb 01 06
        E 14 bb 01 08
        E 14 bb 01 08
        E 14 bb 01 06
        E 14 bb 01 0b
        E 14 bb 01 01
        E 14 bb 01 04
        E 14 bb 01 08
        E 3 bb 01 16
        E 3 bb 01 4c
        E 3 bb 01 32
        E 3 bb 01 07
        E 3 bb 01 48
        E 3 bb 01 3f
        E 3 bb 01 09
        E 3 bb 01 08
        E 3 bb 01 30
        E 3 bb 01 5f
        E 3 bb 01 50
        E 3 bb 01 58
        E 3 bb 01 3f
        E 3 bb 01 0b
        E 3 bb 01 13
        E 3 bb 01 44
        E 3 bb 01 37
        E 3 bb 01 1c
        E 3 bb 01 14
        E 3 bb 01 1b
        E 3 bb 01 4f
        E 3 bb 01 2f
        E 3 bb 01 17
        E 3 bb 01 3a
        E 3 bb 01 64
        E 3 bb 01 00
        E 3 bb 01 0c
        E 3 bb 01 29
        E 3 bb 01 22
        E 3 bb 01 53
        E 3 bb 01 15
        E 3 bb 01 06
        E 3 bb 01 0f
        E 3 bb 01 11
        E 3 bb 01 5b
        E 3 bb 01 19
        E 3 bb 01 00
        E 3 bb 01 4b
        E 3 bb 01 23
        E 3 bb 01 14
        E 3 bb 01 28
        E 3 bb 01 1a
        E 3 bb 01 56
        E 3 bb 01 55
        E 3 bb 01 65
        E 3 bb 01 54
        E 3 bb 01 2b
        E 3 bb 01 5e
        E 3 bb 01 48
        E 3 bb 01 0b
        E 3 bb 01 2c
        E 3 bb 01 36
        E 3 bb 01 60
        E 3 bb 01 4d
        E 3 bb 01 37
        E 3 bb 01 38
        E 3 bb 01 04
        E 3 bb 01 0a
        E 3 bb 01 5d
        E 3 bb 01 51
        E 3 bb 01 2b
        E 3 bb 01 1f
        E 3 bb 01 0d
        E 3 bb 01 2d
        E 3 bb 01 1e
        E 3 bb 01 18
        E 3 bb 01 26
        E 3 bb 01 34
        E 3 bb 01 3d
        E 3 bb 01 41
        E 3 bb 01 10
        E 3 bb 01 3c
        E 3 bb 01 5a
        E 3 bb 01 33
        E 3 bb 01 3b
        E 3 bb 01 02
        E 3 bb 01 07
        E 3 bb 01 63
        E 3 bb 01 42
        E 3 bb 01 12
        E 3 bb 01 5c
        E 3 bb 01 20
        E 3 bb 01 27
        E 3 bb 01 31
        E 3 bb 01 28
        E 3 bb 01 44
        E 3 bb 01 52
        E 3 bb 01 1d
        E 3 bb 01 39
        E 3 bb 01 17
        E 3 bb 01 5b
        E 3 bb 01 54
        E 3 bb 01 2e
        E 3 bb 01 24
        E 3 bb 01 50
        E 3 bb 01 25
        E 3 bb 01 47
        E 3 bb 01 0e
        E 3 bb 01 01
        E 3 bb 01 21
        E 3 bb 01 33
        E 3 bb 01 57
        E 3 bb 01 4e
        E 3 bb 01 03
        E 3 bb 01 57
        E 3 bb 01 4a
        E 3 bb 01 05
        E 3 bb 01 1f
        E 3 bb 01 3b
        E 3 bb 01 4c
        E 3 bb 01 61
        E 3 bb 01 3e
        E 3 bb 01 2a
        E 3 bb 01 1b
        E 3 bb 01 46
        E 3 bb 01 49
        E 3 bb 01 59
        E 3 bb 01 63
        E 3 bb 01 2f
        E 3 bb 01 40
        E 3 bb 01 45
        E 3 bb 01 35
        E 3 bb 01 5f
        E 3 bb 01 0f
        E 3 bb 01 24
        E 3 bb 01 43
        E 14 bb 01 16
        E 14 bb 01 4c
        E 14 bb 01 32
        E 14 bb 01 07
        E 14 bb 01 48
        E 14 bb 01 3f
        E 14 bb 01 09
        E 14 bb 01 08
        E 14 bb 01 30
        E 14 bb 01 5f
        E 14 bb 01 50
        E 14 bb 01 58
        E 14 bb 01 3f
        E 14 bb 01 0b
        E 14 bb 01 13
        E 14 bb 01 44
        E 14 bb 01 37
        E 14 bb 01 1c
        E 14 bb 01 14
        E 14 bb 01 1b
        E 14 bb 01 4f
        E 14 bb 01 2f
        E 14 bb 01 17
        E 14 bb 01 3a
        E 14 bb 01 64
        E 14 bb 01 00
        E 14 bb 01 0c
        E 14 bb 01 29
        E 14 bb 01 22
        E 14 bb 01 53
        E 14 bb 01 15
        E 14 bb 01 06
        E 14 bb 01 0f
        E 14 bb 01 11
        E 14 bb 01 5b
        E 14 bb 01 19
        E 14 bb 01 00
        E 14 bb 01 4b
        E 14 bb 01 23
        E 14 bb 01 14
        E 14 bb 01 28
        E 14 bb 01 1a
        E 14 bb 01 56
        E 14 bb 01 55
        E 14 bb 01 65
        E 14 bb 01 54
        E 14 bb 01 2b
        E 14 bb 01 5e
        E 14 bb 01 48
        E 14 bb 01 0b
        E 14 bb 01 2c
        E 14 bb 01 36
        E 14 bb 01 60
        E 14 bb 01 4d
        E 14 bb 01 37
        E 14 bb 01 38
        E 14 bb 01 04
        E 14 bb 01 0a
        E 14 bb 01 5d
        E 14 bb 01 51
        E 14 bb 01 2b
        E 14 bb 01 1f
        E 14 bb 01 0d
        E 14 bb 01 2d
        E 14 bb 01 1e
        E 14 bb 01 18
        E 14 bb 01 26
        E 14 bb 01 34
        E 14 bb 01 3d
        E 14 bb 01 41
        E 14 bb 01 10
        E 14 bb 01 3c
        E 14 bb 01 5a
        E 14 bb 01 33
        E 14 bb 01 3b
        E 14 bb 01 02
        E 14 bb 01 07
        E 14 bb 01 63
        E 14 bb 01 42
        E 14 bb 01 12
        E 14 bb 01 5c
        E 14 bb 01 20
        E 14 bb 01 27
        E 14 bb 01 31
        E 14 bb 01 28
        E 14 bb 01 44
        E 14 bb 01 52
        E 14 bb 01 1d
        E 14 bb 01 39
        E 14 bb 01 17
        E 14 bb 01 5b
        E 14 bb 01 54
        E 14 bb 01 2e
        E 14 bb 01 24
        E 14 bb 01 50
        E 14 bb 01 25
        E 14 bb 01 47
        E 14 bb 01 0e
        E 14 bb 01 01
        E 14 bb 01 21
        E 14 bb 01 33
        E 14 bb 01 57
        E 14 bb 01 4e
        E 14 bb 01 03
        E 14 bb 01 57
        E 14 bb 01 4a
        E 14 bb 01 05
        E 14 bb 01 1f
        E 14 bb 01 3b
        E 14 bb 01 4c
        E 14 bb 01 61
        E 14 bb 01 3e
        E 14 bb 01 2a
        E 14 bb 01 1b
        E 14 bb 01 46
        E 14 bb 01 49
        E 14 bb 01 59
        E 14 bb 01 63
        E 14 bb 01 2f
        E 14 bb 01 40
        E 14 bb 01 45
        E 14 bb 01 35
        E 14 bb 01 5f
        E 14 bb 01 0f
        E 14 bb 01 24
        E 14 bb 01 43
        E 94 b0 7b 00
        CCINTERP 32
        CHASE_CC_TAKEOFFS 1
        GUID {EA1DD907-3C9B-C24E-A357-E0F6252B2033}
        IGNTEMPO 0 120 4 4
        SRCCOLOR 263
        VELLANE 3 601 0
        VELLANE -1 196 0
      >
    >
  >
  <EXTENSIONS
  >
>
